<?xml version="1.0" encoding="UTF-8" standalone="no"?>
<!DOCTYPE svg PUBLIC "-//W3C//DTD SVG 1.1//EN"
 "http://www.w3.org/Graphics/SVG/1.1/DTD/svg11.dtd">
<!-- Generated by graphviz version 2.43.0 (0)
 -->
<!-- Title: XML::bpmn::tExclusiveGateway Pages: 1 -->
<svg width="173pt" height="1077pt"
 viewBox="0.00 0.00 173.00 1077.00" xmlns="http://www.w3.org/2000/svg" xmlns:xlink="http://www.w3.org/1999/xlink">
<g id="graph0" class="graph" transform="scale(1 1) rotate(0) translate(4 1073)">
<title>XML::bpmn::tExclusiveGateway</title>
<!-- Node1 -->
<g id="Node000001" class="node">
<title>Node1</title>
<g id="a_Node000001"><a xlink:title=" ">
<polygon fill="#999999" stroke="transparent" points="165,-149 0,-149 0,-85 165,-85 165,-149"/>
<text text-anchor="start" x="5.5" y="-137" font-family="Helvetica,sans-Serif" font-size="10.00">XML::bpmn::tExclusiveGateway</text>
<text text-anchor="start" x="15" y="-122" font-family="Helvetica,sans-Serif" font-size="10.00">+</text>
<text text-anchor="start" x="38.5" y="-122" font-family="Helvetica,sans-Serif" font-size="10.00">default_</text>
<text text-anchor="start" x="15" y="-107" font-family="Helvetica,sans-Serif" font-size="10.00">+</text>
<text text-anchor="start" x="38.5" y="-107" font-family="Helvetica,sans-Serif" font-size="10.00">defaults</text>
<text text-anchor="start" x="15" y="-92" font-family="Helvetica,sans-Serif" font-size="10.00">#</text>
<text text-anchor="start" x="38.5" y="-92" font-family="Helvetica,sans-Serif" font-size="10.00">tExclusiveGateway()</text>
<polygon fill="#666666" stroke="#666666" points="0.5,-132 0.5,-132 165.5,-132 165.5,-132 0.5,-132"/>
<polygon fill="#666666" stroke="#666666" points="0.5,-102 0.5,-102 36.5,-102 36.5,-102 0.5,-102"/>
<polygon fill="#666666" stroke="#666666" points="36.5,-102 36.5,-102 165.5,-102 165.5,-102 36.5,-102"/>
<polygon fill="none" stroke="#666666" points="0,-85 0,-149 165,-149 165,-85 0,-85"/>
</a>
</g>
</g>
<!-- Node7 -->
<g id="Node000007" class="node">
<title>Node7</title>
<g id="a_Node000007"><a xlink:href="classXML_1_1bpmn_1_1exclusiveGateway.html" target="_top" xlink:title=" ">
<polygon fill="white" stroke="transparent" points="163,-49 2,-49 2,0 163,0 163,-49"/>
<text text-anchor="start" x="7.5" y="-36.5" font-family="Helvetica,sans-Serif" font-size="10.00">XML::bpmn::exclusiveGateway</text>
<text text-anchor="start" x="17" y="-21.5" font-family="Helvetica,sans-Serif" font-size="10.00">+</text>
<text text-anchor="start" x="40.5" y="-21.5" font-family="Helvetica,sans-Serif" font-size="10.00">defaults</text>
<text text-anchor="start" x="17" y="-6.5" font-family="Helvetica,sans-Serif" font-size="10.00">#</text>
<text text-anchor="start" x="40.5" y="-6.5" font-family="Helvetica,sans-Serif" font-size="10.00">exclusiveGateway()</text>
<polygon fill="#666666" stroke="#666666" points="2.5,-31.5 2.5,-31.5 163.5,-31.5 163.5,-31.5 2.5,-31.5"/>
<polygon fill="#666666" stroke="#666666" points="2.5,-16.5 2.5,-16.5 38.5,-16.5 38.5,-16.5 2.5,-16.5"/>
<polygon fill="#666666" stroke="#666666" points="38.5,-16.5 38.5,-16.5 163.5,-16.5 163.5,-16.5 38.5,-16.5"/>
<polygon fill="none" stroke="#666666" points="2,0 2,-49 163,-49 163,0 2,0"/>
</a>
</g>
</g>
<!-- Node1&#45;&gt;Node7 -->
<g id="edge6_Node000001_Node000007" class="edge">
<title>Node1&#45;&gt;Node7</title>
<g id="a_edge6_Node000001_Node000007"><a xlink:title=" ">
<path fill="none" stroke="#63b8ff" d="M82.5,-74.77C82.5,-66.03 82.5,-57.09 82.5,-49.27"/>
<polygon fill="none" stroke="#63b8ff" points="79,-74.85 82.5,-84.86 86,-74.86 79,-74.85"/>
</a>
</g>
</g>
<!-- Node2 -->
<g id="Node000002" class="node">
<title>Node2</title>
<g id="a_Node000002"><a xlink:href="classXML_1_1bpmn_1_1tGateway.html" target="_top" xlink:title=" ">
<polygon fill="white" stroke="transparent" points="142,-249 23,-249 23,-185 142,-185 142,-249"/>
<text text-anchor="start" x="28.5" y="-237" font-family="Helvetica,sans-Serif" font-size="10.00">XML::bpmn::tGateway</text>
<text text-anchor="start" x="30" y="-222" font-family="Helvetica,sans-Serif" font-size="10.00">+</text>
<text text-anchor="start" x="45.5" y="-222" font-family="Helvetica,sans-Serif" font-size="10.00">gatewayDirection</text>
<text text-anchor="start" x="30" y="-207" font-family="Helvetica,sans-Serif" font-size="10.00">+</text>
<text text-anchor="start" x="45.5" y="-207" font-family="Helvetica,sans-Serif" font-size="10.00">defaults</text>
<text text-anchor="start" x="30" y="-192" font-family="Helvetica,sans-Serif" font-size="10.00">#</text>
<text text-anchor="start" x="45.5" y="-192" font-family="Helvetica,sans-Serif" font-size="10.00">tGateway()</text>
<polygon fill="#666666" stroke="#666666" points="23.5,-232 23.5,-232 142.5,-232 142.5,-232 23.5,-232"/>
<polygon fill="#666666" stroke="#666666" points="23.5,-202 23.5,-202 43.5,-202 43.5,-202 23.5,-202"/>
<polygon fill="#666666" stroke="#666666" points="43.5,-202 43.5,-202 142.5,-202 142.5,-202 43.5,-202"/>
<polygon fill="none" stroke="#666666" points="23,-185 23,-249 142,-249 142,-185 23,-185"/>
</a>
</g>
</g>
<!-- Node2&#45;&gt;Node1 -->
<g id="edge1_Node000001_Node000002" class="edge">
<title>Node2&#45;&gt;Node1</title>
<g id="a_edge1_Node000001_Node000002"><a xlink:title=" ">
<path fill="none" stroke="#63b8ff" d="M82.5,-174.76C82.5,-166.19 82.5,-157.28 82.5,-149.14"/>
<polygon fill="none" stroke="#63b8ff" points="79,-174.99 82.5,-184.99 86,-174.99 79,-174.99"/>
</a>
</g>
</g>
<!-- Node3 -->
<g id="Node000003" class="node">
<title>Node3</title>
<g id="a_Node000003"><a xlink:href="classXML_1_1bpmn_1_1tFlowNode.html" target="_top" xlink:title=" ">
<polygon fill="white" stroke="transparent" points="144.5,-364 20.5,-364 20.5,-285 144.5,-285 144.5,-364"/>
<text text-anchor="start" x="25.5" y="-351.5" font-family="Helvetica,sans-Serif" font-size="10.00">XML::bpmn::tFlowNode</text>
<text text-anchor="start" x="35" y="-336.5" font-family="Helvetica,sans-Serif" font-size="10.00">+</text>
<text text-anchor="start" x="58.5" y="-336.5" font-family="Helvetica,sans-Serif" font-size="10.00">incoming</text>
<text text-anchor="start" x="35" y="-321.5" font-family="Helvetica,sans-Serif" font-size="10.00">+</text>
<text text-anchor="start" x="58.5" y="-321.5" font-family="Helvetica,sans-Serif" font-size="10.00">outgoing</text>
<text text-anchor="start" x="35" y="-306.5" font-family="Helvetica,sans-Serif" font-size="10.00">+</text>
<text text-anchor="start" x="58.5" y="-306.5" font-family="Helvetica,sans-Serif" font-size="10.00">defaults</text>
<text text-anchor="start" x="35" y="-291.5" font-family="Helvetica,sans-Serif" font-size="10.00">#</text>
<text text-anchor="start" x="58.5" y="-291.5" font-family="Helvetica,sans-Serif" font-size="10.00">tFlowNode()</text>
<polygon fill="#666666" stroke="#666666" points="20.5,-346.5 20.5,-346.5 144.5,-346.5 144.5,-346.5 20.5,-346.5"/>
<polygon fill="#666666" stroke="#666666" points="20.5,-301.5 20.5,-301.5 56.5,-301.5 56.5,-301.5 20.5,-301.5"/>
<polygon fill="#666666" stroke="#666666" points="56.5,-301.5 56.5,-301.5 144.5,-301.5 144.5,-301.5 56.5,-301.5"/>
<polygon fill="none" stroke="#666666" points="20.5,-285 20.5,-364 144.5,-364 144.5,-285 20.5,-285"/>
</a>
</g>
</g>
<!-- Node3&#45;&gt;Node2 -->
<g id="edge2_Node000002_Node000003" class="edge">
<title>Node3&#45;&gt;Node2</title>
<g id="a_edge2_Node000002_Node000003"><a xlink:title=" ">
<path fill="none" stroke="#63b8ff" d="M82.5,-274.71C82.5,-266 82.5,-257.14 82.5,-249.09"/>
<polygon fill="none" stroke="#63b8ff" points="79,-274.81 82.5,-284.81 86,-274.81 79,-274.81"/>
</a>
</g>
</g>
<!-- Node4 -->
<g id="Node000004" class="node">
<title>Node4</title>
<g id="a_Node000004"><a xlink:href="classXML_1_1bpmn_1_1tFlowElement.html" target="_top" xlink:title=" ">
<polygon fill="white" stroke="transparent" points="152,-509 13,-509 13,-400 152,-400 152,-509"/>
<text text-anchor="start" x="18.5" y="-496.5" font-family="Helvetica,sans-Serif" font-size="10.00">XML::bpmn::tFlowElement</text>
<text text-anchor="start" x="25" y="-481.5" font-family="Helvetica,sans-Serif" font-size="10.00">+</text>
<text text-anchor="start" x="45.5" y="-481.5" font-family="Helvetica,sans-Serif" font-size="10.00">auditing</text>
<text text-anchor="start" x="25" y="-466.5" font-family="Helvetica,sans-Serif" font-size="10.00">+</text>
<text text-anchor="start" x="45.5" y="-466.5" font-family="Helvetica,sans-Serif" font-size="10.00">monitoring</text>
<text text-anchor="start" x="25" y="-451.5" font-family="Helvetica,sans-Serif" font-size="10.00">+</text>
<text text-anchor="start" x="45.5" y="-451.5" font-family="Helvetica,sans-Serif" font-size="10.00">categoryValueRef</text>
<text text-anchor="start" x="25" y="-436.5" font-family="Helvetica,sans-Serif" font-size="10.00">+</text>
<text text-anchor="start" x="45.5" y="-436.5" font-family="Helvetica,sans-Serif" font-size="10.00">name</text>
<text text-anchor="start" x="25" y="-421.5" font-family="Helvetica,sans-Serif" font-size="10.00">+</text>
<text text-anchor="start" x="45.5" y="-421.5" font-family="Helvetica,sans-Serif" font-size="10.00">defaults</text>
<text text-anchor="start" x="25" y="-406.5" font-family="Helvetica,sans-Serif" font-size="10.00">#</text>
<text text-anchor="start" x="45.5" y="-406.5" font-family="Helvetica,sans-Serif" font-size="10.00">tFlowElement()</text>
<polygon fill="#666666" stroke="#666666" points="13.5,-491.5 13.5,-491.5 152.5,-491.5 152.5,-491.5 13.5,-491.5"/>
<polygon fill="#666666" stroke="#666666" points="13.5,-416.5 13.5,-416.5 43.5,-416.5 43.5,-416.5 13.5,-416.5"/>
<polygon fill="#666666" stroke="#666666" points="43.5,-416.5 43.5,-416.5 152.5,-416.5 152.5,-416.5 43.5,-416.5"/>
<polygon fill="none" stroke="#666666" points="13,-400 13,-509 152,-509 152,-400 13,-400"/>
</a>
</g>
</g>
<!-- Node4&#45;&gt;Node3 -->
<g id="edge3_Node000003_Node000004" class="edge">
<title>Node4&#45;&gt;Node3</title>
<g id="a_edge3_Node000003_Node000004"><a xlink:title=" ">
<path fill="none" stroke="#63b8ff" d="M82.5,-389.7C82.5,-380.93 82.5,-372.16 82.5,-364.03"/>
<polygon fill="none" stroke="#63b8ff" points="79,-389.96 82.5,-399.96 86,-389.96 79,-389.96"/>
</a>
</g>
</g>
<!-- Node5 -->
<g id="Node000005" class="node">
<title>Node5</title>
<g id="a_Node000005"><a xlink:href="classXML_1_1bpmn_1_1tBaseElement.html" target="_top" xlink:title=" ">
<polygon fill="white" stroke="transparent" points="152.5,-639 12.5,-639 12.5,-545 152.5,-545 152.5,-639"/>
<text text-anchor="start" x="17.5" y="-627" font-family="Helvetica,sans-Serif" font-size="10.00">XML::bpmn::tBaseElement</text>
<text text-anchor="start" x="22.5" y="-612" font-family="Helvetica,sans-Serif" font-size="10.00">+</text>
<text text-anchor="start" x="41.5" y="-612" font-family="Helvetica,sans-Serif" font-size="10.00">documentation</text>
<text text-anchor="start" x="22.5" y="-597" font-family="Helvetica,sans-Serif" font-size="10.00">+</text>
<text text-anchor="start" x="41.5" y="-597" font-family="Helvetica,sans-Serif" font-size="10.00">extensionElements</text>
<text text-anchor="start" x="22.5" y="-582" font-family="Helvetica,sans-Serif" font-size="10.00">+</text>
<text text-anchor="start" x="41.5" y="-582" font-family="Helvetica,sans-Serif" font-size="10.00">id</text>
<text text-anchor="start" x="22.5" y="-567" font-family="Helvetica,sans-Serif" font-size="10.00">+</text>
<text text-anchor="start" x="41.5" y="-567" font-family="Helvetica,sans-Serif" font-size="10.00">defaults</text>
<text text-anchor="start" x="22.5" y="-552" font-family="Helvetica,sans-Serif" font-size="10.00">#</text>
<text text-anchor="start" x="41.5" y="-552" font-family="Helvetica,sans-Serif" font-size="10.00">tBaseElement()</text>
<polygon fill="#666666" stroke="#666666" points="12.5,-622 12.5,-622 152.5,-622 152.5,-622 12.5,-622"/>
<polygon fill="#666666" stroke="#666666" points="12.5,-562 12.5,-562 39.5,-562 39.5,-562 12.5,-562"/>
<polygon fill="#666666" stroke="#666666" points="39.5,-562 39.5,-562 152.5,-562 152.5,-562 39.5,-562"/>
<polygon fill="none" stroke="#666666" points="12.5,-545 12.5,-639 152.5,-639 152.5,-545 12.5,-545"/>
</a>
</g>
</g>
<!-- Node5&#45;&gt;Node4 -->
<g id="edge4_Node000004_Node000005" class="edge">
<title>Node5&#45;&gt;Node4</title>
<g id="a_edge4_Node000004_Node000005"><a xlink:title=" ">
<path fill="none" stroke="#63b8ff" d="M82.5,-534.58C82.5,-526.12 82.5,-517.41 82.5,-509.01"/>
<polygon fill="none" stroke="#63b8ff" points="79,-534.75 82.5,-544.75 86,-534.75 79,-534.75"/>
</a>
</g>
</g>
<!-- Node6 -->
<g id="Node000006" class="node">
<title>Node6</title>
<g id="a_Node000006"><a xlink:href="classXML_1_1XMLObject.html" target="_top" xlink:title="A class representing a node in an XML&#45;tree.">
<polygon fill="white" stroke="transparent" points="142.5,-1069 22.5,-1069 22.5,-675 142.5,-675 142.5,-1069"/>
<text text-anchor="start" x="42.5" y="-1057" font-family="Helvetica,sans-Serif" font-size="10.00">XML::XMLObject</text>
<text text-anchor="start" x="26.5" y="-1042" font-family="Helvetica,sans-Serif" font-size="10.00">+</text>
<text text-anchor="start" x="39.5" y="-1042" font-family="Helvetica,sans-Serif" font-size="10.00">xmlns</text>
<text text-anchor="start" x="26.5" y="-1027" font-family="Helvetica,sans-Serif" font-size="10.00">+</text>
<text text-anchor="start" x="39.5" y="-1027" font-family="Helvetica,sans-Serif" font-size="10.00">className</text>
<text text-anchor="start" x="26.5" y="-1012" font-family="Helvetica,sans-Serif" font-size="10.00">+</text>
<text text-anchor="start" x="39.5" y="-1012" font-family="Helvetica,sans-Serif" font-size="10.00">prefix</text>
<text text-anchor="start" x="26.5" y="-997" font-family="Helvetica,sans-Serif" font-size="10.00">+</text>
<text text-anchor="start" x="39.5" y="-997" font-family="Helvetica,sans-Serif" font-size="10.00">elementName</text>
<text text-anchor="start" x="26.5" y="-982" font-family="Helvetica,sans-Serif" font-size="10.00">+</text>
<text text-anchor="start" x="39.5" y="-982" font-family="Helvetica,sans-Serif" font-size="10.00">textContent</text>
<text text-anchor="start" x="26.5" y="-967" font-family="Helvetica,sans-Serif" font-size="10.00">+</text>
<text text-anchor="start" x="39.5" y="-967" font-family="Helvetica,sans-Serif" font-size="10.00">children</text>
<text text-anchor="start" x="26.5" y="-952" font-family="Helvetica,sans-Serif" font-size="10.00">+</text>
<text text-anchor="start" x="39.5" y="-952" font-family="Helvetica,sans-Serif" font-size="10.00">attributes</text>
<text text-anchor="start" x="26.5" y="-937" font-family="Helvetica,sans-Serif" font-size="10.00">+</text>
<text text-anchor="start" x="39.5" y="-937" font-family="Helvetica,sans-Serif" font-size="10.00">defaults</text>
<text text-anchor="start" x="26.5" y="-922" font-family="Helvetica,sans-Serif" font-size="10.00">#</text>
<text text-anchor="start" x="39.5" y="-922" font-family="Helvetica,sans-Serif" font-size="10.00">factory</text>
<text text-anchor="start" x="26.5" y="-907" font-family="Helvetica,sans-Serif" font-size="10.00">+</text>
<text text-anchor="start" x="39.5" y="-907" font-family="Helvetica,sans-Serif" font-size="10.00">~XMLObject()</text>
<text text-anchor="start" x="26.5" y="-892" font-family="Helvetica,sans-Serif" font-size="10.00">+</text>
<text text-anchor="start" x="39.5" y="-892" font-family="Helvetica,sans-Serif" font-size="10.00">is()</text>
<text text-anchor="start" x="26.5" y="-877" font-family="Helvetica,sans-Serif" font-size="10.00">+</text>
<text text-anchor="start" x="39.5" y="-877" font-family="Helvetica,sans-Serif" font-size="10.00">is()</text>
<text text-anchor="start" x="26.5" y="-862" font-family="Helvetica,sans-Serif" font-size="10.00">+</text>
<text text-anchor="start" x="39.5" y="-862" font-family="Helvetica,sans-Serif" font-size="10.00">get()</text>
<text text-anchor="start" x="26.5" y="-847" font-family="Helvetica,sans-Serif" font-size="10.00">+</text>
<text text-anchor="start" x="39.5" y="-847" font-family="Helvetica,sans-Serif" font-size="10.00">get()</text>
<text text-anchor="start" x="26.5" y="-832" font-family="Helvetica,sans-Serif" font-size="10.00">+</text>
<text text-anchor="start" x="39.5" y="-832" font-family="Helvetica,sans-Serif" font-size="10.00">find()</text>
<text text-anchor="start" x="26.5" y="-817" font-family="Helvetica,sans-Serif" font-size="10.00">+</text>
<text text-anchor="start" x="39.5" y="-817" font-family="Helvetica,sans-Serif" font-size="10.00">find()</text>
<text text-anchor="start" x="26.5" y="-802" font-family="Helvetica,sans-Serif" font-size="10.00">+</text>
<text text-anchor="start" x="39.5" y="-802" font-family="Helvetica,sans-Serif" font-size="10.00">stringify()</text>
<text text-anchor="start" x="26.5" y="-787" font-family="Helvetica,sans-Serif" font-size="10.00">+</text>
<text text-anchor="start" x="39.5" y="-787" font-family="Helvetica,sans-Serif" font-size="10.00">format()</text>
<text text-anchor="start" x="26.5" y="-772" font-family="Helvetica,sans-Serif" font-size="10.00">+</text>
<text text-anchor="start" x="39.5" y="-772" font-family="Helvetica,sans-Serif" font-size="10.00">getRequiredChild()</text>
<text text-anchor="start" x="39.5" y="-757" font-family="Helvetica,sans-Serif" font-size="10.00">and 7 more...</text>
<text text-anchor="start" x="26.5" y="-742" font-family="Helvetica,sans-Serif" font-size="10.00">+</text>
<text text-anchor="start" x="39.5" y="-742" font-family="Helvetica,sans-Serif" font-size="10.00">createFromStream()</text>
<text text-anchor="start" x="26.5" y="-727" font-family="Helvetica,sans-Serif" font-size="10.00">+</text>
<text text-anchor="start" x="39.5" y="-727" font-family="Helvetica,sans-Serif" font-size="10.00">createFromString()</text>
<text text-anchor="start" x="26.5" y="-712" font-family="Helvetica,sans-Serif" font-size="10.00">+</text>
<text text-anchor="start" x="39.5" y="-712" font-family="Helvetica,sans-Serif" font-size="10.00">createFromFile()</text>
<text text-anchor="start" x="26.5" y="-697" font-family="Helvetica,sans-Serif" font-size="10.00">#</text>
<text text-anchor="start" x="39.5" y="-697" font-family="Helvetica,sans-Serif" font-size="10.00">XMLObject()</text>
<text text-anchor="start" x="26.5" y="-682" font-family="Helvetica,sans-Serif" font-size="10.00">#</text>
<text text-anchor="start" x="39.5" y="-682" font-family="Helvetica,sans-Serif" font-size="10.00">createObject()</text>
<polygon fill="#666666" stroke="#666666" points="22.5,-1052 22.5,-1052 142.5,-1052 142.5,-1052 22.5,-1052"/>
<polygon fill="#666666" stroke="#666666" points="22.5,-917 22.5,-917 37.5,-917 37.5,-917 22.5,-917"/>
<polygon fill="#666666" stroke="#666666" points="37.5,-917 37.5,-917 142.5,-917 142.5,-917 37.5,-917"/>
<polygon fill="none" stroke="#666666" points="22.5,-675 22.5,-1069 142.5,-1069 142.5,-675 22.5,-675"/>
</a>
</g>
</g>
<!-- Node6&#45;&gt;Node5 -->
<g id="edge5_Node000005_Node000006" class="edge">
<title>Node6&#45;&gt;Node5</title>
<g id="a_edge5_Node000005_Node000006"><a xlink:title=" ">
<path fill="none" stroke="#63b8ff" d="M82.5,-664.78C82.5,-655.62 82.5,-646.97 82.5,-639.06"/>
<polygon fill="none" stroke="#63b8ff" points="79,-664.91 82.5,-674.91 86,-664.91 79,-664.91"/>
</a>
</g>
</g>
</g>
</svg>
