<?xml version="1.0" encoding="UTF-8" standalone="no"?>
<!DOCTYPE svg PUBLIC "-//W3C//DTD SVG 1.1//EN"
 "http://www.w3.org/Graphics/SVG/1.1/DTD/svg11.dtd">
<!-- Generated by graphviz version 2.43.0 (0)
 -->
<!-- Title: BPMN::UntypedTask Pages: 1 -->
<svg width="130pt" height="883pt"
 viewBox="0.00 0.00 130.00 883.00" xmlns="http://www.w3.org/2000/svg" xmlns:xlink="http://www.w3.org/1999/xlink">
<g id="graph0" class="graph" transform="scale(1 1) rotate(0) translate(4 879)">
<title>BPMN::UntypedTask</title>
<!-- Node1 -->
<g id="node1" class="node">
<title>Node1</title>
<g id="a_node1"><a xlink:title=" ">
<polygon fill="#bfbfbf" stroke="black" points="3.5,-0.5 3.5,-57.5 118.5,-57.5 118.5,-0.5 3.5,-0.5"/>
<text text-anchor="middle" x="61" y="-45.5" font-family="Helvetica,sans-Serif" font-size="10.00">BPMN::UntypedTask</text>
<polyline fill="none" stroke="black" points="3.5,-38.5 118.5,-38.5 "/>
<text text-anchor="middle" x="61" y="-26.5" font-family="Helvetica,sans-Serif" font-size="10.00"> </text>
<polyline fill="none" stroke="black" points="3.5,-19.5 118.5,-19.5 "/>
<text text-anchor="start" x="11.5" y="-7.5" font-family="Helvetica,sans-Serif" font-size="10.00">+ UntypedTask()</text>
</a>
</g>
</g>
<!-- Node2 -->
<g id="node2" class="node">
<title>Node2</title>
<g id="a_node2"><a xlink:href="classBPMN_1_1Task.html" target="_top" xlink:title=" ">
<polygon fill="none" stroke="black" points="24,-94.5 24,-151.5 98,-151.5 98,-94.5 24,-94.5"/>
<text text-anchor="middle" x="61" y="-139.5" font-family="Helvetica,sans-Serif" font-size="10.00">BPMN::Task</text>
<polyline fill="none" stroke="black" points="24,-132.5 98,-132.5 "/>
<text text-anchor="start" x="32" y="-120.5" font-family="Helvetica,sans-Serif" font-size="10.00">+ element</text>
<polyline fill="none" stroke="black" points="24,-113.5 98,-113.5 "/>
<text text-anchor="start" x="32" y="-101.5" font-family="Helvetica,sans-Serif" font-size="10.00">+ Task()</text>
</a>
</g>
</g>
<!-- Node2&#45;&gt;Node1 -->
<g id="edge1" class="edge">
<title>Node2&#45;&gt;Node1</title>
<path fill="none" stroke="midnightblue" d="M61,-84.21C61,-75.29 61,-65.95 61,-57.58"/>
<polygon fill="none" stroke="midnightblue" points="57.5,-84.4 61,-94.4 64.5,-84.4 57.5,-84.4"/>
</g>
<!-- Node3 -->
<g id="node3" class="node">
<title>Node3</title>
<g id="a_node3"><a xlink:href="classBPMN_1_1Activity.html" target="_top" xlink:title=" ">
<polygon fill="none" stroke="black" points="0,-188.5 0,-289.5 122,-289.5 122,-188.5 0,-188.5"/>
<text text-anchor="middle" x="61" y="-277.5" font-family="Helvetica,sans-Serif" font-size="10.00">BPMN::Activity</text>
<polyline fill="none" stroke="black" points="0,-270.5 122,-270.5 "/>
<text text-anchor="start" x="8" y="-258.5" font-family="Helvetica,sans-Serif" font-size="10.00">+ boundaryEvents</text>
<text text-anchor="start" x="8" y="-247.5" font-family="Helvetica,sans-Serif" font-size="10.00">+ compensatedBy</text>
<text text-anchor="start" x="8" y="-236.5" font-family="Helvetica,sans-Serif" font-size="10.00">+ isForCompensation</text>
<text text-anchor="start" x="8" y="-225.5" font-family="Helvetica,sans-Serif" font-size="10.00">+ loopCharacteristics</text>
<text text-anchor="start" x="8" y="-214.5" font-family="Helvetica,sans-Serif" font-size="10.00">+ element</text>
<polyline fill="none" stroke="black" points="0,-207.5 122,-207.5 "/>
<text text-anchor="start" x="8" y="-195.5" font-family="Helvetica,sans-Serif" font-size="10.00">+ Activity()</text>
</a>
</g>
</g>
<!-- Node3&#45;&gt;Node2 -->
<g id="edge2" class="edge">
<title>Node3&#45;&gt;Node2</title>
<path fill="none" stroke="midnightblue" d="M61,-178.23C61,-168.92 61,-159.71 61,-151.59"/>
<polygon fill="none" stroke="midnightblue" points="57.5,-178.33 61,-188.33 64.5,-178.33 57.5,-178.33"/>
</g>
<!-- Node4 -->
<g id="node4" class="node">
<title>Node4</title>
<g id="a_node4"><a xlink:href="classBPMN_1_1FlowNode.html" target="_top" xlink:title="Base class for BPMN elements that may contain incoming and outgoing sequence flows.">
<polygon fill="none" stroke="black" points="10.5,-326.5 10.5,-416.5 111.5,-416.5 111.5,-326.5 10.5,-326.5"/>
<text text-anchor="middle" x="61" y="-404.5" font-family="Helvetica,sans-Serif" font-size="10.00">BPMN::FlowNode</text>
<polyline fill="none" stroke="black" points="10.5,-397.5 111.5,-397.5 "/>
<text text-anchor="start" x="18.5" y="-385.5" font-family="Helvetica,sans-Serif" font-size="10.00">+ element</text>
<text text-anchor="start" x="18.5" y="-374.5" font-family="Helvetica,sans-Serif" font-size="10.00">+ name</text>
<text text-anchor="start" x="18.5" y="-363.5" font-family="Helvetica,sans-Serif" font-size="10.00">+ incoming</text>
<text text-anchor="start" x="18.5" y="-352.5" font-family="Helvetica,sans-Serif" font-size="10.00">+ outgoing</text>
<polyline fill="none" stroke="black" points="10.5,-345.5 111.5,-345.5 "/>
<text text-anchor="start" x="18.5" y="-333.5" font-family="Helvetica,sans-Serif" font-size="10.00">+ FlowNode()</text>
</a>
</g>
</g>
<!-- Node4&#45;&gt;Node3 -->
<g id="edge3" class="edge">
<title>Node4&#45;&gt;Node3</title>
<path fill="none" stroke="midnightblue" d="M61,-316.13C61,-307.31 61,-298.22 61,-289.52"/>
<polygon fill="none" stroke="midnightblue" points="57.5,-316.32 61,-326.32 64.5,-316.32 57.5,-316.32"/>
</g>
<!-- Node5 -->
<g id="node5" class="node">
<title>Node5</title>
<g id="a_node5"><a xlink:href="classBPMN_1_1ChildNode.html" target="_top" xlink:title="Base class for BPMN elements within a Scope.">
<polygon fill="none" stroke="black" points="10,-453.5 10,-510.5 112,-510.5 112,-453.5 10,-453.5"/>
<text text-anchor="middle" x="61" y="-498.5" font-family="Helvetica,sans-Serif" font-size="10.00">BPMN::ChildNode</text>
<polyline fill="none" stroke="black" points="10,-491.5 112,-491.5 "/>
<text text-anchor="start" x="18" y="-479.5" font-family="Helvetica,sans-Serif" font-size="10.00">+ parent</text>
<polyline fill="none" stroke="black" points="10,-472.5 112,-472.5 "/>
<text text-anchor="start" x="18" y="-460.5" font-family="Helvetica,sans-Serif" font-size="10.00">+ ChildNode()</text>
</a>
</g>
</g>
<!-- Node5&#45;&gt;Node4 -->
<g id="edge4" class="edge">
<title>Node5&#45;&gt;Node4</title>
<path fill="none" stroke="midnightblue" d="M61,-443.21C61,-434.61 61,-425.39 61,-416.55"/>
<polygon fill="none" stroke="midnightblue" points="57.5,-443.34 61,-453.34 64.5,-443.34 57.5,-443.34"/>
</g>
<!-- Node6 -->
<g id="node6" class="node">
<title>Node6</title>
<g id="a_node6"><a xlink:href="classBPMN_1_1Node.html" target="_top" xlink:title="Base class for all nodes in a BPMN model.">
<polygon fill="none" stroke="black" points="22.5,-547.5 22.5,-659.5 99.5,-659.5 99.5,-547.5 22.5,-547.5"/>
<text text-anchor="middle" x="61" y="-647.5" font-family="Helvetica,sans-Serif" font-size="10.00">BPMN::Node</text>
<polyline fill="none" stroke="black" points="22.5,-640.5 99.5,-640.5 "/>
<text text-anchor="start" x="30.5" y="-628.5" font-family="Helvetica,sans-Serif" font-size="10.00">+ receiving</text>
<text text-anchor="start" x="30.5" y="-617.5" font-family="Helvetica,sans-Serif" font-size="10.00">+ sending</text>
<polyline fill="none" stroke="black" points="22.5,-610.5 99.5,-610.5 "/>
<text text-anchor="start" x="30.5" y="-598.5" font-family="Helvetica,sans-Serif" font-size="10.00">+ Node()</text>
<text text-anchor="start" x="30.5" y="-587.5" font-family="Helvetica,sans-Serif" font-size="10.00">+ find()</text>
<text text-anchor="start" x="30.5" y="-576.5" font-family="Helvetica,sans-Serif" font-size="10.00">+ find()</text>
<text text-anchor="start" x="30.5" y="-565.5" font-family="Helvetica,sans-Serif" font-size="10.00">+ find_all()</text>
<text text-anchor="start" x="30.5" y="-554.5" font-family="Helvetica,sans-Serif" font-size="10.00">+ find_all()</text>
</a>
</g>
</g>
<!-- Node6&#45;&gt;Node5 -->
<g id="edge5" class="edge">
<title>Node6&#45;&gt;Node5</title>
<path fill="none" stroke="midnightblue" d="M61,-537.15C61,-527.82 61,-518.67 61,-510.63"/>
<polygon fill="none" stroke="midnightblue" points="57.5,-537.3 61,-547.3 64.5,-537.3 57.5,-537.3"/>
</g>
<!-- Node7 -->
<g id="node7" class="node">
<title>Node7</title>
<g id="a_node7"><a xlink:href="classBPMN_1_1BaseElement.html" target="_top" xlink:title="Base class for all elements in a BPMN model.">
<polygon fill="none" stroke="black" points="0,-696.5 0,-874.5 122,-874.5 122,-696.5 0,-696.5"/>
<text text-anchor="middle" x="61" y="-862.5" font-family="Helvetica,sans-Serif" font-size="10.00">BPMN::BaseElement</text>
<polyline fill="none" stroke="black" points="0,-855.5 122,-855.5 "/>
<text text-anchor="start" x="8" y="-843.5" font-family="Helvetica,sans-Serif" font-size="10.00">+ id</text>
<text text-anchor="start" x="8" y="-832.5" font-family="Helvetica,sans-Serif" font-size="10.00">+ element</text>
<text text-anchor="start" x="8" y="-821.5" font-family="Helvetica,sans-Serif" font-size="10.00">+ extensionElements</text>
<polyline fill="none" stroke="black" points="0,-814.5 122,-814.5 "/>
<text text-anchor="start" x="8" y="-802.5" font-family="Helvetica,sans-Serif" font-size="10.00">+ BaseElement()</text>
<text text-anchor="start" x="8" y="-791.5" font-family="Helvetica,sans-Serif" font-size="10.00">+ ~BaseElement()</text>
<text text-anchor="start" x="8" y="-780.5" font-family="Helvetica,sans-Serif" font-size="10.00">+ is()</text>
<text text-anchor="start" x="8" y="-769.5" font-family="Helvetica,sans-Serif" font-size="10.00">+ is()</text>
<text text-anchor="start" x="8" y="-758.5" font-family="Helvetica,sans-Serif" font-size="10.00">+ get()</text>
<text text-anchor="start" x="8" y="-747.5" font-family="Helvetica,sans-Serif" font-size="10.00">+ get()</text>
<text text-anchor="start" x="8" y="-736.5" font-family="Helvetica,sans-Serif" font-size="10.00">+ represents()</text>
<text text-anchor="start" x="8" y="-725.5" font-family="Helvetica,sans-Serif" font-size="10.00">+ represents()</text>
<text text-anchor="start" x="8" y="-714.5" font-family="Helvetica,sans-Serif" font-size="10.00">+ as()</text>
<text text-anchor="start" x="8" y="-703.5" font-family="Helvetica,sans-Serif" font-size="10.00">+ as()</text>
</a>
</g>
</g>
<!-- Node7&#45;&gt;Node6 -->
<g id="edge6" class="edge">
<title>Node7&#45;&gt;Node6</title>
<path fill="none" stroke="midnightblue" d="M61,-686.12C61,-677.1 61,-668.18 61,-659.75"/>
<polygon fill="none" stroke="midnightblue" points="57.5,-686.35 61,-696.35 64.5,-686.35 57.5,-686.35"/>
</g>
</g>
</svg>
