<?xml version="1.0" encoding="UTF-8" standalone="no"?>
<!DOCTYPE svg PUBLIC "-//W3C//DTD SVG 1.1//EN"
 "http://www.w3.org/Graphics/SVG/1.1/DTD/svg11.dtd">
<!-- Generated by graphviz version 2.43.0 (0)
 -->
<!-- Title: XML::bpmn::tEvent Pages: 1 -->
<svg width="1231pt" height="1278pt"
 viewBox="0.00 0.00 1231.00 1278.00" xmlns="http://www.w3.org/2000/svg" xmlns:xlink="http://www.w3.org/1999/xlink">
<g id="graph0" class="graph" transform="scale(1 1) rotate(0) translate(4 1274)">
<title>XML::bpmn::tEvent</title>
<!-- Node1 -->
<g id="Node000001" class="node">
<title>Node1</title>
<g id="a_Node000001"><a xlink:title=" ">
<polygon fill="#999999" stroke="transparent" points="661,-450 558,-450 558,-386 661,-386 661,-450"/>
<text text-anchor="start" x="563.5" y="-438" font-family="Helvetica,sans-Serif" font-size="10.00">XML::bpmn::tEvent</text>
<text text-anchor="start" x="572.5" y="-423" font-family="Helvetica,sans-Serif" font-size="10.00">+</text>
<text text-anchor="start" x="595.5" y="-423" font-family="Helvetica,sans-Serif" font-size="10.00">property</text>
<text text-anchor="start" x="572.5" y="-408" font-family="Helvetica,sans-Serif" font-size="10.00">+</text>
<text text-anchor="start" x="595.5" y="-408" font-family="Helvetica,sans-Serif" font-size="10.00">defaults</text>
<text text-anchor="start" x="572.5" y="-393" font-family="Helvetica,sans-Serif" font-size="10.00">#</text>
<text text-anchor="start" x="595.5" y="-393" font-family="Helvetica,sans-Serif" font-size="10.00">tEvent()</text>
<polygon fill="#666666" stroke="#666666" points="558.5,-433 558.5,-433 661.5,-433 661.5,-433 558.5,-433"/>
<polygon fill="#666666" stroke="#666666" points="558.5,-403 558.5,-403 593.5,-403 593.5,-403 558.5,-403"/>
<polygon fill="#666666" stroke="#666666" points="593.5,-403 593.5,-403 661.5,-403 661.5,-403 593.5,-403"/>
<polygon fill="none" stroke="#666666" points="558,-386 558,-450 661,-450 661,-386 558,-386"/>
</a>
</g>
</g>
<!-- Node6 -->
<g id="Node000006" class="node">
<title>Node6</title>
<g id="a_Node000006"><a xlink:href="classXML_1_1bpmn_1_1tCatchEvent.html" target="_top" xlink:title=" ">
<polygon fill="white" stroke="transparent" points="452,-350 319,-350 319,-211 452,-211 452,-350"/>
<text text-anchor="start" x="325.5" y="-337.5" font-family="Helvetica,sans-Serif" font-size="10.00">XML::bpmn::tCatchEvent</text>
<text text-anchor="start" x="323.5" y="-322.5" font-family="Helvetica,sans-Serif" font-size="10.00">+</text>
<text text-anchor="start" x="336.5" y="-322.5" font-family="Helvetica,sans-Serif" font-size="10.00">dataOutput</text>
<text text-anchor="start" x="323.5" y="-307.5" font-family="Helvetica,sans-Serif" font-size="10.00">+</text>
<text text-anchor="start" x="336.5" y="-307.5" font-family="Helvetica,sans-Serif" font-size="10.00">dataOutputAssociation</text>
<text text-anchor="start" x="323.5" y="-292.5" font-family="Helvetica,sans-Serif" font-size="10.00">+</text>
<text text-anchor="start" x="336.5" y="-292.5" font-family="Helvetica,sans-Serif" font-size="10.00">outputSet</text>
<text text-anchor="start" x="323.5" y="-277.5" font-family="Helvetica,sans-Serif" font-size="10.00">+</text>
<text text-anchor="start" x="336.5" y="-277.5" font-family="Helvetica,sans-Serif" font-size="10.00">eventDefinition</text>
<text text-anchor="start" x="323.5" y="-262.5" font-family="Helvetica,sans-Serif" font-size="10.00">+</text>
<text text-anchor="start" x="336.5" y="-262.5" font-family="Helvetica,sans-Serif" font-size="10.00">eventDefinitionRef</text>
<text text-anchor="start" x="323.5" y="-247.5" font-family="Helvetica,sans-Serif" font-size="10.00">+</text>
<text text-anchor="start" x="336.5" y="-247.5" font-family="Helvetica,sans-Serif" font-size="10.00">parallelMultiple</text>
<text text-anchor="start" x="323.5" y="-232.5" font-family="Helvetica,sans-Serif" font-size="10.00">+</text>
<text text-anchor="start" x="336.5" y="-232.5" font-family="Helvetica,sans-Serif" font-size="10.00">defaults</text>
<text text-anchor="start" x="323.5" y="-217.5" font-family="Helvetica,sans-Serif" font-size="10.00">#</text>
<text text-anchor="start" x="336.5" y="-217.5" font-family="Helvetica,sans-Serif" font-size="10.00">tCatchEvent()</text>
<polygon fill="#666666" stroke="#666666" points="319.5,-332.5 319.5,-332.5 452.5,-332.5 452.5,-332.5 319.5,-332.5"/>
<polygon fill="#666666" stroke="#666666" points="319.5,-227.5 319.5,-227.5 334.5,-227.5 334.5,-227.5 319.5,-227.5"/>
<polygon fill="#666666" stroke="#666666" points="334.5,-227.5 334.5,-227.5 452.5,-227.5 452.5,-227.5 334.5,-227.5"/>
<polygon fill="none" stroke="#666666" points="319,-211 319,-350 452,-350 452,-211 319,-211"/>
</a>
</g>
</g>
<!-- Node1&#45;&gt;Node6 -->
<g id="edge5_Node000001_Node000006" class="edge">
<title>Node1&#45;&gt;Node6</title>
<g id="a_edge5_Node000001_Node000006"><a xlink:title=" ">
<path fill="none" stroke="#63b8ff" d="M549.44,-380.67C519.5,-362.56 483.21,-340.6 452.38,-321.96"/>
<polygon fill="none" stroke="#63b8ff" points="547.74,-383.73 558.11,-385.91 551.37,-377.74 547.74,-383.73"/>
</a>
</g>
</g>
<!-- Node14 -->
<g id="Node000014" class="node">
<title>Node14</title>
<g id="a_Node000014"><a xlink:href="classXML_1_1bpmn_1_1tThrowEvent.html" target="_top" xlink:title=" ">
<polygon fill="white" stroke="transparent" points="901,-342.5 768,-342.5 768,-218.5 901,-218.5 901,-342.5"/>
<text text-anchor="start" x="773.5" y="-330.5" font-family="Helvetica,sans-Serif" font-size="10.00">XML::bpmn::tThrowEvent</text>
<text text-anchor="start" x="774.5" y="-315.5" font-family="Helvetica,sans-Serif" font-size="10.00">+</text>
<text text-anchor="start" x="789.5" y="-315.5" font-family="Helvetica,sans-Serif" font-size="10.00">dataInput</text>
<text text-anchor="start" x="774.5" y="-300.5" font-family="Helvetica,sans-Serif" font-size="10.00">+</text>
<text text-anchor="start" x="789.5" y="-300.5" font-family="Helvetica,sans-Serif" font-size="10.00">dataInputAssociation</text>
<text text-anchor="start" x="774.5" y="-285.5" font-family="Helvetica,sans-Serif" font-size="10.00">+</text>
<text text-anchor="start" x="789.5" y="-285.5" font-family="Helvetica,sans-Serif" font-size="10.00">inputSet</text>
<text text-anchor="start" x="774.5" y="-270.5" font-family="Helvetica,sans-Serif" font-size="10.00">+</text>
<text text-anchor="start" x="789.5" y="-270.5" font-family="Helvetica,sans-Serif" font-size="10.00">eventDefinition</text>
<text text-anchor="start" x="774.5" y="-255.5" font-family="Helvetica,sans-Serif" font-size="10.00">+</text>
<text text-anchor="start" x="789.5" y="-255.5" font-family="Helvetica,sans-Serif" font-size="10.00">eventDefinitionRef</text>
<text text-anchor="start" x="774.5" y="-240.5" font-family="Helvetica,sans-Serif" font-size="10.00">+</text>
<text text-anchor="start" x="789.5" y="-240.5" font-family="Helvetica,sans-Serif" font-size="10.00">defaults</text>
<text text-anchor="start" x="774.5" y="-225.5" font-family="Helvetica,sans-Serif" font-size="10.00">#</text>
<text text-anchor="start" x="789.5" y="-225.5" font-family="Helvetica,sans-Serif" font-size="10.00">tThrowEvent()</text>
<polygon fill="#666666" stroke="#666666" points="768.5,-325.5 768.5,-325.5 901.5,-325.5 901.5,-325.5 768.5,-325.5"/>
<polygon fill="#666666" stroke="#666666" points="768.5,-235.5 768.5,-235.5 787.5,-235.5 787.5,-235.5 768.5,-235.5"/>
<polygon fill="#666666" stroke="#666666" points="787.5,-235.5 787.5,-235.5 901.5,-235.5 901.5,-235.5 787.5,-235.5"/>
<polygon fill="none" stroke="#666666" points="768,-218.5 768,-342.5 901,-342.5 901,-218.5 768,-218.5"/>
</a>
</g>
</g>
<!-- Node1&#45;&gt;Node14 -->
<g id="edge13_Node000001_Node000014" class="edge">
<title>Node1&#45;&gt;Node14</title>
<g id="a_edge13_Node000001_Node000014"><a xlink:title=" ">
<path fill="none" stroke="#63b8ff" d="M669.86,-380.65C700.06,-362.46 736.7,-340.4 767.74,-321.7"/>
<polygon fill="none" stroke="#63b8ff" points="667.88,-377.76 661.12,-385.91 671.49,-383.75 667.88,-377.76"/>
</a>
</g>
</g>
<!-- Node2 -->
<g id="Node000002" class="node">
<title>Node2</title>
<g id="a_Node000002"><a xlink:href="classXML_1_1bpmn_1_1tFlowNode.html" target="_top" xlink:title=" ">
<polygon fill="white" stroke="transparent" points="671.5,-565 547.5,-565 547.5,-486 671.5,-486 671.5,-565"/>
<text text-anchor="start" x="552.5" y="-552.5" font-family="Helvetica,sans-Serif" font-size="10.00">XML::bpmn::tFlowNode</text>
<text text-anchor="start" x="562" y="-537.5" font-family="Helvetica,sans-Serif" font-size="10.00">+</text>
<text text-anchor="start" x="585.5" y="-537.5" font-family="Helvetica,sans-Serif" font-size="10.00">incoming</text>
<text text-anchor="start" x="562" y="-522.5" font-family="Helvetica,sans-Serif" font-size="10.00">+</text>
<text text-anchor="start" x="585.5" y="-522.5" font-family="Helvetica,sans-Serif" font-size="10.00">outgoing</text>
<text text-anchor="start" x="562" y="-507.5" font-family="Helvetica,sans-Serif" font-size="10.00">+</text>
<text text-anchor="start" x="585.5" y="-507.5" font-family="Helvetica,sans-Serif" font-size="10.00">defaults</text>
<text text-anchor="start" x="562" y="-492.5" font-family="Helvetica,sans-Serif" font-size="10.00">#</text>
<text text-anchor="start" x="585.5" y="-492.5" font-family="Helvetica,sans-Serif" font-size="10.00">tFlowNode()</text>
<polygon fill="#666666" stroke="#666666" points="547.5,-547.5 547.5,-547.5 671.5,-547.5 671.5,-547.5 547.5,-547.5"/>
<polygon fill="#666666" stroke="#666666" points="547.5,-502.5 547.5,-502.5 583.5,-502.5 583.5,-502.5 547.5,-502.5"/>
<polygon fill="#666666" stroke="#666666" points="583.5,-502.5 583.5,-502.5 671.5,-502.5 671.5,-502.5 583.5,-502.5"/>
<polygon fill="none" stroke="#666666" points="547.5,-486 547.5,-565 671.5,-565 671.5,-486 547.5,-486"/>
</a>
</g>
</g>
<!-- Node2&#45;&gt;Node1 -->
<g id="edge1_Node000001_Node000002" class="edge">
<title>Node2&#45;&gt;Node1</title>
<g id="a_edge1_Node000001_Node000002"><a xlink:title=" ">
<path fill="none" stroke="#63b8ff" d="M609.5,-475.71C609.5,-467 609.5,-458.14 609.5,-450.09"/>
<polygon fill="none" stroke="#63b8ff" points="606,-475.81 609.5,-485.81 613,-475.81 606,-475.81"/>
</a>
</g>
</g>
<!-- Node3 -->
<g id="Node000003" class="node">
<title>Node3</title>
<g id="a_Node000003"><a xlink:href="classXML_1_1bpmn_1_1tFlowElement.html" target="_top" xlink:title=" ">
<polygon fill="white" stroke="transparent" points="679,-710 540,-710 540,-601 679,-601 679,-710"/>
<text text-anchor="start" x="545.5" y="-697.5" font-family="Helvetica,sans-Serif" font-size="10.00">XML::bpmn::tFlowElement</text>
<text text-anchor="start" x="552" y="-682.5" font-family="Helvetica,sans-Serif" font-size="10.00">+</text>
<text text-anchor="start" x="572.5" y="-682.5" font-family="Helvetica,sans-Serif" font-size="10.00">auditing</text>
<text text-anchor="start" x="552" y="-667.5" font-family="Helvetica,sans-Serif" font-size="10.00">+</text>
<text text-anchor="start" x="572.5" y="-667.5" font-family="Helvetica,sans-Serif" font-size="10.00">monitoring</text>
<text text-anchor="start" x="552" y="-652.5" font-family="Helvetica,sans-Serif" font-size="10.00">+</text>
<text text-anchor="start" x="572.5" y="-652.5" font-family="Helvetica,sans-Serif" font-size="10.00">categoryValueRef</text>
<text text-anchor="start" x="552" y="-637.5" font-family="Helvetica,sans-Serif" font-size="10.00">+</text>
<text text-anchor="start" x="572.5" y="-637.5" font-family="Helvetica,sans-Serif" font-size="10.00">name</text>
<text text-anchor="start" x="552" y="-622.5" font-family="Helvetica,sans-Serif" font-size="10.00">+</text>
<text text-anchor="start" x="572.5" y="-622.5" font-family="Helvetica,sans-Serif" font-size="10.00">defaults</text>
<text text-anchor="start" x="552" y="-607.5" font-family="Helvetica,sans-Serif" font-size="10.00">#</text>
<text text-anchor="start" x="572.5" y="-607.5" font-family="Helvetica,sans-Serif" font-size="10.00">tFlowElement()</text>
<polygon fill="#666666" stroke="#666666" points="540.5,-692.5 540.5,-692.5 679.5,-692.5 679.5,-692.5 540.5,-692.5"/>
<polygon fill="#666666" stroke="#666666" points="540.5,-617.5 540.5,-617.5 570.5,-617.5 570.5,-617.5 540.5,-617.5"/>
<polygon fill="#666666" stroke="#666666" points="570.5,-617.5 570.5,-617.5 679.5,-617.5 679.5,-617.5 570.5,-617.5"/>
<polygon fill="none" stroke="#666666" points="540,-601 540,-710 679,-710 679,-601 540,-601"/>
</a>
</g>
</g>
<!-- Node3&#45;&gt;Node2 -->
<g id="edge2_Node000002_Node000003" class="edge">
<title>Node3&#45;&gt;Node2</title>
<g id="a_edge2_Node000002_Node000003"><a xlink:title=" ">
<path fill="none" stroke="#63b8ff" d="M609.5,-590.7C609.5,-581.93 609.5,-573.16 609.5,-565.03"/>
<polygon fill="none" stroke="#63b8ff" points="606,-590.96 609.5,-600.96 613,-590.96 606,-590.96"/>
</a>
</g>
</g>
<!-- Node4 -->
<g id="Node000004" class="node">
<title>Node4</title>
<g id="a_Node000004"><a xlink:href="classXML_1_1bpmn_1_1tBaseElement.html" target="_top" xlink:title=" ">
<polygon fill="white" stroke="transparent" points="679.5,-840 539.5,-840 539.5,-746 679.5,-746 679.5,-840"/>
<text text-anchor="start" x="544.5" y="-828" font-family="Helvetica,sans-Serif" font-size="10.00">XML::bpmn::tBaseElement</text>
<text text-anchor="start" x="549.5" y="-813" font-family="Helvetica,sans-Serif" font-size="10.00">+</text>
<text text-anchor="start" x="568.5" y="-813" font-family="Helvetica,sans-Serif" font-size="10.00">documentation</text>
<text text-anchor="start" x="549.5" y="-798" font-family="Helvetica,sans-Serif" font-size="10.00">+</text>
<text text-anchor="start" x="568.5" y="-798" font-family="Helvetica,sans-Serif" font-size="10.00">extensionElements</text>
<text text-anchor="start" x="549.5" y="-783" font-family="Helvetica,sans-Serif" font-size="10.00">+</text>
<text text-anchor="start" x="568.5" y="-783" font-family="Helvetica,sans-Serif" font-size="10.00">id</text>
<text text-anchor="start" x="549.5" y="-768" font-family="Helvetica,sans-Serif" font-size="10.00">+</text>
<text text-anchor="start" x="568.5" y="-768" font-family="Helvetica,sans-Serif" font-size="10.00">defaults</text>
<text text-anchor="start" x="549.5" y="-753" font-family="Helvetica,sans-Serif" font-size="10.00">#</text>
<text text-anchor="start" x="568.5" y="-753" font-family="Helvetica,sans-Serif" font-size="10.00">tBaseElement()</text>
<polygon fill="#666666" stroke="#666666" points="539.5,-823 539.5,-823 679.5,-823 679.5,-823 539.5,-823"/>
<polygon fill="#666666" stroke="#666666" points="539.5,-763 539.5,-763 566.5,-763 566.5,-763 539.5,-763"/>
<polygon fill="#666666" stroke="#666666" points="566.5,-763 566.5,-763 679.5,-763 679.5,-763 566.5,-763"/>
<polygon fill="none" stroke="#666666" points="539.5,-746 539.5,-840 679.5,-840 679.5,-746 539.5,-746"/>
</a>
</g>
</g>
<!-- Node4&#45;&gt;Node3 -->
<g id="edge3_Node000003_Node000004" class="edge">
<title>Node4&#45;&gt;Node3</title>
<g id="a_edge3_Node000003_Node000004"><a xlink:title=" ">
<path fill="none" stroke="#63b8ff" d="M609.5,-735.58C609.5,-727.12 609.5,-718.41 609.5,-710.01"/>
<polygon fill="none" stroke="#63b8ff" points="606,-735.75 609.5,-745.75 613,-735.75 606,-735.75"/>
</a>
</g>
</g>
<!-- Node5 -->
<g id="Node000005" class="node">
<title>Node5</title>
<g id="a_Node000005"><a xlink:href="classXML_1_1XMLObject.html" target="_top" xlink:title="A class representing a node in an XML&#45;tree.">
<polygon fill="white" stroke="transparent" points="669.5,-1270 549.5,-1270 549.5,-876 669.5,-876 669.5,-1270"/>
<text text-anchor="start" x="569.5" y="-1258" font-family="Helvetica,sans-Serif" font-size="10.00">XML::XMLObject</text>
<text text-anchor="start" x="553.5" y="-1243" font-family="Helvetica,sans-Serif" font-size="10.00">+</text>
<text text-anchor="start" x="566.5" y="-1243" font-family="Helvetica,sans-Serif" font-size="10.00">xmlns</text>
<text text-anchor="start" x="553.5" y="-1228" font-family="Helvetica,sans-Serif" font-size="10.00">+</text>
<text text-anchor="start" x="566.5" y="-1228" font-family="Helvetica,sans-Serif" font-size="10.00">className</text>
<text text-anchor="start" x="553.5" y="-1213" font-family="Helvetica,sans-Serif" font-size="10.00">+</text>
<text text-anchor="start" x="566.5" y="-1213" font-family="Helvetica,sans-Serif" font-size="10.00">prefix</text>
<text text-anchor="start" x="553.5" y="-1198" font-family="Helvetica,sans-Serif" font-size="10.00">+</text>
<text text-anchor="start" x="566.5" y="-1198" font-family="Helvetica,sans-Serif" font-size="10.00">elementName</text>
<text text-anchor="start" x="553.5" y="-1183" font-family="Helvetica,sans-Serif" font-size="10.00">+</text>
<text text-anchor="start" x="566.5" y="-1183" font-family="Helvetica,sans-Serif" font-size="10.00">textContent</text>
<text text-anchor="start" x="553.5" y="-1168" font-family="Helvetica,sans-Serif" font-size="10.00">+</text>
<text text-anchor="start" x="566.5" y="-1168" font-family="Helvetica,sans-Serif" font-size="10.00">children</text>
<text text-anchor="start" x="553.5" y="-1153" font-family="Helvetica,sans-Serif" font-size="10.00">+</text>
<text text-anchor="start" x="566.5" y="-1153" font-family="Helvetica,sans-Serif" font-size="10.00">attributes</text>
<text text-anchor="start" x="553.5" y="-1138" font-family="Helvetica,sans-Serif" font-size="10.00">+</text>
<text text-anchor="start" x="566.5" y="-1138" font-family="Helvetica,sans-Serif" font-size="10.00">defaults</text>
<text text-anchor="start" x="553.5" y="-1123" font-family="Helvetica,sans-Serif" font-size="10.00">#</text>
<text text-anchor="start" x="566.5" y="-1123" font-family="Helvetica,sans-Serif" font-size="10.00">factory</text>
<text text-anchor="start" x="553.5" y="-1108" font-family="Helvetica,sans-Serif" font-size="10.00">+</text>
<text text-anchor="start" x="566.5" y="-1108" font-family="Helvetica,sans-Serif" font-size="10.00">~XMLObject()</text>
<text text-anchor="start" x="553.5" y="-1093" font-family="Helvetica,sans-Serif" font-size="10.00">+</text>
<text text-anchor="start" x="566.5" y="-1093" font-family="Helvetica,sans-Serif" font-size="10.00">is()</text>
<text text-anchor="start" x="553.5" y="-1078" font-family="Helvetica,sans-Serif" font-size="10.00">+</text>
<text text-anchor="start" x="566.5" y="-1078" font-family="Helvetica,sans-Serif" font-size="10.00">is()</text>
<text text-anchor="start" x="553.5" y="-1063" font-family="Helvetica,sans-Serif" font-size="10.00">+</text>
<text text-anchor="start" x="566.5" y="-1063" font-family="Helvetica,sans-Serif" font-size="10.00">get()</text>
<text text-anchor="start" x="553.5" y="-1048" font-family="Helvetica,sans-Serif" font-size="10.00">+</text>
<text text-anchor="start" x="566.5" y="-1048" font-family="Helvetica,sans-Serif" font-size="10.00">get()</text>
<text text-anchor="start" x="553.5" y="-1033" font-family="Helvetica,sans-Serif" font-size="10.00">+</text>
<text text-anchor="start" x="566.5" y="-1033" font-family="Helvetica,sans-Serif" font-size="10.00">find()</text>
<text text-anchor="start" x="553.5" y="-1018" font-family="Helvetica,sans-Serif" font-size="10.00">+</text>
<text text-anchor="start" x="566.5" y="-1018" font-family="Helvetica,sans-Serif" font-size="10.00">find()</text>
<text text-anchor="start" x="553.5" y="-1003" font-family="Helvetica,sans-Serif" font-size="10.00">+</text>
<text text-anchor="start" x="566.5" y="-1003" font-family="Helvetica,sans-Serif" font-size="10.00">stringify()</text>
<text text-anchor="start" x="553.5" y="-988" font-family="Helvetica,sans-Serif" font-size="10.00">+</text>
<text text-anchor="start" x="566.5" y="-988" font-family="Helvetica,sans-Serif" font-size="10.00">format()</text>
<text text-anchor="start" x="553.5" y="-973" font-family="Helvetica,sans-Serif" font-size="10.00">+</text>
<text text-anchor="start" x="566.5" y="-973" font-family="Helvetica,sans-Serif" font-size="10.00">getRequiredChild()</text>
<text text-anchor="start" x="566.5" y="-958" font-family="Helvetica,sans-Serif" font-size="10.00">and 7 more...</text>
<text text-anchor="start" x="553.5" y="-943" font-family="Helvetica,sans-Serif" font-size="10.00">+</text>
<text text-anchor="start" x="566.5" y="-943" font-family="Helvetica,sans-Serif" font-size="10.00">createFromStream()</text>
<text text-anchor="start" x="553.5" y="-928" font-family="Helvetica,sans-Serif" font-size="10.00">+</text>
<text text-anchor="start" x="566.5" y="-928" font-family="Helvetica,sans-Serif" font-size="10.00">createFromString()</text>
<text text-anchor="start" x="553.5" y="-913" font-family="Helvetica,sans-Serif" font-size="10.00">+</text>
<text text-anchor="start" x="566.5" y="-913" font-family="Helvetica,sans-Serif" font-size="10.00">createFromFile()</text>
<text text-anchor="start" x="553.5" y="-898" font-family="Helvetica,sans-Serif" font-size="10.00">#</text>
<text text-anchor="start" x="566.5" y="-898" font-family="Helvetica,sans-Serif" font-size="10.00">XMLObject()</text>
<text text-anchor="start" x="553.5" y="-883" font-family="Helvetica,sans-Serif" font-size="10.00">#</text>
<text text-anchor="start" x="566.5" y="-883" font-family="Helvetica,sans-Serif" font-size="10.00">createObject()</text>
<polygon fill="#666666" stroke="#666666" points="549.5,-1253 549.5,-1253 669.5,-1253 669.5,-1253 549.5,-1253"/>
<polygon fill="#666666" stroke="#666666" points="549.5,-1118 549.5,-1118 564.5,-1118 564.5,-1118 549.5,-1118"/>
<polygon fill="#666666" stroke="#666666" points="564.5,-1118 564.5,-1118 669.5,-1118 669.5,-1118 564.5,-1118"/>
<polygon fill="none" stroke="#666666" points="549.5,-876 549.5,-1270 669.5,-1270 669.5,-876 549.5,-876"/>
</a>
</g>
</g>
<!-- Node5&#45;&gt;Node4 -->
<g id="edge4_Node000004_Node000005" class="edge">
<title>Node5&#45;&gt;Node4</title>
<g id="a_edge4_Node000004_Node000005"><a xlink:title=" ">
<path fill="none" stroke="#63b8ff" d="M609.5,-865.78C609.5,-856.62 609.5,-847.97 609.5,-840.06"/>
<polygon fill="none" stroke="#63b8ff" points="606,-865.91 609.5,-875.91 613,-865.91 606,-865.91"/>
</a>
</g>
</g>
<!-- Node7 -->
<g id="Node000007" class="node">
<title>Node7</title>
<g id="a_Node000007"><a xlink:href="classXML_1_1bpmn_1_1catchEvent.html" target="_top" xlink:title=" ">
<polygon fill="white" stroke="transparent" points="125,-160 0,-160 0,-111 125,-111 125,-160"/>
<text text-anchor="start" x="5.5" y="-147.5" font-family="Helvetica,sans-Serif" font-size="10.00">XML::bpmn::catchEvent</text>
<text text-anchor="start" x="15" y="-132.5" font-family="Helvetica,sans-Serif" font-size="10.00">+</text>
<text text-anchor="start" x="38.5" y="-132.5" font-family="Helvetica,sans-Serif" font-size="10.00">defaults</text>
<text text-anchor="start" x="15" y="-117.5" font-family="Helvetica,sans-Serif" font-size="10.00">#</text>
<text text-anchor="start" x="38.5" y="-117.5" font-family="Helvetica,sans-Serif" font-size="10.00">catchEvent()</text>
<polygon fill="#666666" stroke="#666666" points="0.5,-142.5 0.5,-142.5 125.5,-142.5 125.5,-142.5 0.5,-142.5"/>
<polygon fill="#666666" stroke="#666666" points="0.5,-127.5 0.5,-127.5 36.5,-127.5 36.5,-127.5 0.5,-127.5"/>
<polygon fill="#666666" stroke="#666666" points="36.5,-127.5 36.5,-127.5 125.5,-127.5 125.5,-127.5 36.5,-127.5"/>
<polygon fill="none" stroke="#666666" points="0,-111 0,-160 125,-160 125,-111 0,-111"/>
</a>
</g>
</g>
<!-- Node6&#45;&gt;Node7 -->
<g id="edge6_Node000006_Node000007" class="edge">
<title>Node6&#45;&gt;Node7</title>
<g id="a_edge6_Node000006_Node000007"><a xlink:title=" ">
<path fill="none" stroke="#63b8ff" d="M309.34,-250.31C258.88,-230.38 191.53,-202.68 133.5,-175 123.88,-170.41 113.72,-165.16 104.18,-160.03"/>
<polygon fill="none" stroke="#63b8ff" points="308.3,-253.66 318.88,-254.06 310.86,-247.14 308.3,-253.66"/>
</a>
</g>
</g>
<!-- Node8 -->
<g id="Node000008" class="node">
<title>Node8</title>
<g id="a_Node000008"><a xlink:href="classXML_1_1bpmn_1_1tBoundaryEvent.html" target="_top" xlink:title=" ">
<polygon fill="white" stroke="transparent" points="292,-175 143,-175 143,-96 292,-96 292,-175"/>
<text text-anchor="start" x="148.5" y="-162.5" font-family="Helvetica,sans-Serif" font-size="10.00">XML::bpmn::tBoundaryEvent</text>
<text text-anchor="start" x="158" y="-147.5" font-family="Helvetica,sans-Serif" font-size="10.00">+</text>
<text text-anchor="start" x="181.5" y="-147.5" font-family="Helvetica,sans-Serif" font-size="10.00">cancelActivity</text>
<text text-anchor="start" x="158" y="-132.5" font-family="Helvetica,sans-Serif" font-size="10.00">+</text>
<text text-anchor="start" x="181.5" y="-132.5" font-family="Helvetica,sans-Serif" font-size="10.00">attachedToRef</text>
<text text-anchor="start" x="158" y="-117.5" font-family="Helvetica,sans-Serif" font-size="10.00">+</text>
<text text-anchor="start" x="181.5" y="-117.5" font-family="Helvetica,sans-Serif" font-size="10.00">defaults</text>
<text text-anchor="start" x="158" y="-102.5" font-family="Helvetica,sans-Serif" font-size="10.00">#</text>
<text text-anchor="start" x="181.5" y="-102.5" font-family="Helvetica,sans-Serif" font-size="10.00">tBoundaryEvent()</text>
<polygon fill="#666666" stroke="#666666" points="143.5,-157.5 143.5,-157.5 292.5,-157.5 292.5,-157.5 143.5,-157.5"/>
<polygon fill="#666666" stroke="#666666" points="143.5,-112.5 143.5,-112.5 179.5,-112.5 179.5,-112.5 143.5,-112.5"/>
<polygon fill="#666666" stroke="#666666" points="179.5,-112.5 179.5,-112.5 292.5,-112.5 292.5,-112.5 179.5,-112.5"/>
<polygon fill="none" stroke="#666666" points="143,-96 143,-175 292,-175 292,-96 143,-96"/>
</a>
</g>
</g>
<!-- Node6&#45;&gt;Node8 -->
<g id="edge7_Node000006_Node000008" class="edge">
<title>Node6&#45;&gt;Node8</title>
<g id="a_edge7_Node000006_Node000008"><a xlink:title=" ">
<path fill="none" stroke="#63b8ff" d="M310.65,-215.79C294.31,-201.88 277.5,-187.57 262.74,-175"/>
<polygon fill="none" stroke="#63b8ff" points="308.74,-218.76 318.62,-222.57 313.27,-213.42 308.74,-218.76"/>
</a>
</g>
</g>
<!-- Node10 -->
<g id="Node000010" class="node">
<title>Node10</title>
<g id="a_Node000010"><a xlink:href="classXML_1_1bpmn_1_1tIntermediateCatchEvent.html" target="_top" xlink:title=" ">
<polygon fill="white" stroke="transparent" points="461,-165.5 310,-165.5 310,-105.5 461,-105.5 461,-165.5"/>
<text text-anchor="start" x="322" y="-153.5" font-family="Helvetica,sans-Serif" font-size="10.00">XML::bpmn::tIntermediate</text>
<text text-anchor="start" x="358" y="-142.5" font-family="Helvetica,sans-Serif" font-size="10.00">CatchEvent</text>
<text text-anchor="start" x="314.5" y="-127.5" font-family="Helvetica,sans-Serif" font-size="10.00">+</text>
<text text-anchor="start" x="327.5" y="-127.5" font-family="Helvetica,sans-Serif" font-size="10.00">defaults</text>
<text text-anchor="start" x="314.5" y="-112.5" font-family="Helvetica,sans-Serif" font-size="10.00">#</text>
<text text-anchor="start" x="327.5" y="-112.5" font-family="Helvetica,sans-Serif" font-size="10.00">tIntermediateCatchEvent()</text>
<polygon fill="#666666" stroke="#666666" points="310.5,-137.5 310.5,-137.5 461.5,-137.5 461.5,-137.5 310.5,-137.5"/>
<polygon fill="#666666" stroke="#666666" points="310.5,-122.5 310.5,-122.5 325.5,-122.5 325.5,-122.5 310.5,-122.5"/>
<polygon fill="#666666" stroke="#666666" points="325.5,-122.5 325.5,-122.5 461.5,-122.5 461.5,-122.5 325.5,-122.5"/>
<polygon fill="none" stroke="#666666" points="310,-105.5 310,-165.5 461,-165.5 461,-105.5 310,-105.5"/>
</a>
</g>
</g>
<!-- Node6&#45;&gt;Node10 -->
<g id="edge9_Node000006_Node000010" class="edge">
<title>Node6&#45;&gt;Node10</title>
<g id="a_edge9_Node000006_Node000010"><a xlink:title=" ">
<path fill="none" stroke="#63b8ff" d="M385.5,-200.87C385.5,-188.36 385.5,-176.14 385.5,-165.77"/>
<polygon fill="none" stroke="#63b8ff" points="382,-200.93 385.5,-210.93 389,-200.93 382,-200.93"/>
</a>
</g>
</g>
<!-- Node12 -->
<g id="Node000012" class="node">
<title>Node12</title>
<g id="a_Node000012"><a xlink:href="classXML_1_1bpmn_1_1tStartEvent.html" target="_top" xlink:title=" ">
<polygon fill="white" stroke="transparent" points="605.5,-167.5 479.5,-167.5 479.5,-103.5 605.5,-103.5 605.5,-167.5"/>
<text text-anchor="start" x="484.5" y="-155.5" font-family="Helvetica,sans-Serif" font-size="10.00">XML::bpmn::tStartEvent</text>
<text text-anchor="start" x="493" y="-140.5" font-family="Helvetica,sans-Serif" font-size="10.00">+</text>
<text text-anchor="start" x="515.5" y="-140.5" font-family="Helvetica,sans-Serif" font-size="10.00">isInterrupting</text>
<text text-anchor="start" x="493" y="-125.5" font-family="Helvetica,sans-Serif" font-size="10.00">+</text>
<text text-anchor="start" x="515.5" y="-125.5" font-family="Helvetica,sans-Serif" font-size="10.00">defaults</text>
<text text-anchor="start" x="493" y="-110.5" font-family="Helvetica,sans-Serif" font-size="10.00">#</text>
<text text-anchor="start" x="515.5" y="-110.5" font-family="Helvetica,sans-Serif" font-size="10.00">tStartEvent()</text>
<polygon fill="#666666" stroke="#666666" points="479.5,-150.5 479.5,-150.5 605.5,-150.5 605.5,-150.5 479.5,-150.5"/>
<polygon fill="#666666" stroke="#666666" points="479.5,-120.5 479.5,-120.5 513.5,-120.5 513.5,-120.5 479.5,-120.5"/>
<polygon fill="#666666" stroke="#666666" points="513.5,-120.5 513.5,-120.5 605.5,-120.5 605.5,-120.5 513.5,-120.5"/>
<polygon fill="none" stroke="#666666" points="479.5,-103.5 479.5,-167.5 605.5,-167.5 605.5,-103.5 479.5,-103.5"/>
</a>
</g>
</g>
<!-- Node6&#45;&gt;Node12 -->
<g id="edge11_Node000006_Node000012" class="edge">
<title>Node6&#45;&gt;Node12</title>
<g id="a_edge11_Node000006_Node000012"><a xlink:title=" ">
<path fill="none" stroke="#63b8ff" d="M459.85,-211.78C476.82,-196.33 494.04,-180.63 508.35,-167.61"/>
<polygon fill="none" stroke="#63b8ff" points="457.12,-209.53 452.08,-218.86 461.83,-214.71 457.12,-209.53"/>
</a>
</g>
</g>
<!-- Node9 -->
<g id="Node000009" class="node">
<title>Node9</title>
<g id="a_Node000009"><a xlink:href="classXML_1_1bpmn_1_1boundaryEvent.html" target="_top" xlink:title=" ">
<polygon fill="white" stroke="transparent" points="286,-54.5 141,-54.5 141,-5.5 286,-5.5 286,-54.5"/>
<text text-anchor="start" x="146.5" y="-42" font-family="Helvetica,sans-Serif" font-size="10.00">XML::bpmn::boundaryEvent</text>
<text text-anchor="start" x="156" y="-27" font-family="Helvetica,sans-Serif" font-size="10.00">+</text>
<text text-anchor="start" x="179.5" y="-27" font-family="Helvetica,sans-Serif" font-size="10.00">defaults</text>
<text text-anchor="start" x="156" y="-12" font-family="Helvetica,sans-Serif" font-size="10.00">#</text>
<text text-anchor="start" x="179.5" y="-12" font-family="Helvetica,sans-Serif" font-size="10.00">boundaryEvent()</text>
<polygon fill="#666666" stroke="#666666" points="141.5,-37 141.5,-37 286.5,-37 286.5,-37 141.5,-37"/>
<polygon fill="#666666" stroke="#666666" points="141.5,-22 141.5,-22 177.5,-22 177.5,-22 141.5,-22"/>
<polygon fill="#666666" stroke="#666666" points="177.5,-22 177.5,-22 286.5,-22 286.5,-22 177.5,-22"/>
<polygon fill="none" stroke="#666666" points="141,-5.5 141,-54.5 286,-54.5 286,-5.5 141,-5.5"/>
</a>
</g>
</g>
<!-- Node8&#45;&gt;Node9 -->
<g id="edge8_Node000008_Node000009" class="edge">
<title>Node8&#45;&gt;Node9</title>
<g id="a_edge8_Node000008_Node000009"><a xlink:title=" ">
<path fill="none" stroke="#63b8ff" d="M215.61,-85.68C215.19,-74.83 214.77,-63.81 214.41,-54.54"/>
<polygon fill="none" stroke="#63b8ff" points="212.13,-86.1 216.01,-95.96 219.12,-85.83 212.13,-86.1"/>
</a>
</g>
</g>
<!-- Node11 -->
<g id="Node000011" class="node">
<title>Node11</title>
<g id="a_Node000011"><a xlink:href="classXML_1_1bpmn_1_1intermediateCatchEvent.html" target="_top" xlink:title=" ">
<polygon fill="white" stroke="transparent" points="466.5,-60 304.5,-60 304.5,0 466.5,0 466.5,-60"/>
<text text-anchor="start" x="309.5" y="-48" font-family="Helvetica,sans-Serif" font-size="10.00">XML::bpmn::intermediateCatch</text>
<text text-anchor="start" x="371.5" y="-37" font-family="Helvetica,sans-Serif" font-size="10.00">Event</text>
<text text-anchor="start" x="312" y="-22" font-family="Helvetica,sans-Serif" font-size="10.00">+</text>
<text text-anchor="start" x="328.5" y="-22" font-family="Helvetica,sans-Serif" font-size="10.00">defaults</text>
<text text-anchor="start" x="312" y="-7" font-family="Helvetica,sans-Serif" font-size="10.00">#</text>
<text text-anchor="start" x="328.5" y="-7" font-family="Helvetica,sans-Serif" font-size="10.00">intermediateCatchEvent()</text>
<polygon fill="#666666" stroke="#666666" points="304.5,-32 304.5,-32 466.5,-32 466.5,-32 304.5,-32"/>
<polygon fill="#666666" stroke="#666666" points="304.5,-17 304.5,-17 326.5,-17 326.5,-17 304.5,-17"/>
<polygon fill="#666666" stroke="#666666" points="326.5,-17 326.5,-17 466.5,-17 466.5,-17 326.5,-17"/>
<polygon fill="none" stroke="#666666" points="304.5,0 304.5,-60 466.5,-60 466.5,0 304.5,0"/>
</a>
</g>
</g>
<!-- Node10&#45;&gt;Node11 -->
<g id="edge10_Node000010_Node000011" class="edge">
<title>Node10&#45;&gt;Node11</title>
<g id="a_edge10_Node000010_Node000011"><a xlink:title=" ">
<path fill="none" stroke="#63b8ff" d="M385.5,-95.08C385.5,-83.51 385.5,-71.06 385.5,-60.25"/>
<polygon fill="none" stroke="#63b8ff" points="382,-95.39 385.5,-105.39 389,-95.39 382,-95.39"/>
</a>
</g>
</g>
<!-- Node13 -->
<g id="Node000013" class="node">
<title>Node13</title>
<g id="a_Node000013"><a xlink:href="classXML_1_1bpmn_1_1startEvent.html" target="_top" xlink:title=" ">
<polygon fill="white" stroke="transparent" points="606.5,-54.5 484.5,-54.5 484.5,-5.5 606.5,-5.5 606.5,-54.5"/>
<text text-anchor="start" x="489.5" y="-42" font-family="Helvetica,sans-Serif" font-size="10.00">XML::bpmn::startEvent</text>
<text text-anchor="start" x="499" y="-27" font-family="Helvetica,sans-Serif" font-size="10.00">+</text>
<text text-anchor="start" x="522.5" y="-27" font-family="Helvetica,sans-Serif" font-size="10.00">defaults</text>
<text text-anchor="start" x="499" y="-12" font-family="Helvetica,sans-Serif" font-size="10.00">#</text>
<text text-anchor="start" x="522.5" y="-12" font-family="Helvetica,sans-Serif" font-size="10.00">startEvent()</text>
<polygon fill="#666666" stroke="#666666" points="484.5,-37 484.5,-37 606.5,-37 606.5,-37 484.5,-37"/>
<polygon fill="#666666" stroke="#666666" points="484.5,-22 484.5,-22 520.5,-22 520.5,-22 484.5,-22"/>
<polygon fill="#666666" stroke="#666666" points="520.5,-22 520.5,-22 606.5,-22 606.5,-22 520.5,-22"/>
<polygon fill="none" stroke="#666666" points="484.5,-5.5 484.5,-54.5 606.5,-54.5 606.5,-5.5 484.5,-5.5"/>
</a>
</g>
</g>
<!-- Node12&#45;&gt;Node13 -->
<g id="edge12_Node000012_Node000013" class="edge">
<title>Node12&#45;&gt;Node13</title>
<g id="a_edge12_Node000012_Node000013"><a xlink:title=" ">
<path fill="none" stroke="#63b8ff" d="M543.7,-93.24C544.07,-80.18 544.48,-66.19 544.81,-54.79"/>
<polygon fill="none" stroke="#63b8ff" points="540.19,-93.35 543.4,-103.45 547.19,-93.55 540.19,-93.35"/>
</a>
</g>
</g>
<!-- Node15 -->
<g id="Node000015" class="node">
<title>Node15</title>
<g id="a_Node000015"><a xlink:href="classXML_1_1bpmn_1_1tEndEvent.html" target="_top" xlink:title=" ">
<polygon fill="white" stroke="transparent" points="745,-160 624,-160 624,-111 745,-111 745,-160"/>
<text text-anchor="start" x="629.5" y="-147.5" font-family="Helvetica,sans-Serif" font-size="10.00">XML::bpmn::tEndEvent</text>
<text text-anchor="start" x="639" y="-132.5" font-family="Helvetica,sans-Serif" font-size="10.00">+</text>
<text text-anchor="start" x="662.5" y="-132.5" font-family="Helvetica,sans-Serif" font-size="10.00">defaults</text>
<text text-anchor="start" x="639" y="-117.5" font-family="Helvetica,sans-Serif" font-size="10.00">#</text>
<text text-anchor="start" x="662.5" y="-117.5" font-family="Helvetica,sans-Serif" font-size="10.00">tEndEvent()</text>
<polygon fill="#666666" stroke="#666666" points="624.5,-142.5 624.5,-142.5 745.5,-142.5 745.5,-142.5 624.5,-142.5"/>
<polygon fill="#666666" stroke="#666666" points="624.5,-127.5 624.5,-127.5 660.5,-127.5 660.5,-127.5 624.5,-127.5"/>
<polygon fill="#666666" stroke="#666666" points="660.5,-127.5 660.5,-127.5 745.5,-127.5 745.5,-127.5 660.5,-127.5"/>
<polygon fill="none" stroke="#666666" points="624,-111 624,-160 745,-160 745,-111 624,-111"/>
</a>
</g>
</g>
<!-- Node14&#45;&gt;Node15 -->
<g id="edge14_Node000014_Node000015" class="edge">
<title>Node14&#45;&gt;Node15</title>
<g id="a_edge14_Node000014_Node000015"><a xlink:title=" ">
<path fill="none" stroke="#63b8ff" d="M763.05,-211.39C743.68,-192.92 724,-174.15 709.17,-160.02"/>
<polygon fill="none" stroke="#63b8ff" points="760.8,-214.07 770.45,-218.44 765.63,-209.01 760.8,-214.07"/>
</a>
</g>
</g>
<!-- Node17 -->
<g id="Node000017" class="node">
<title>Node17</title>
<g id="a_Node000017"><a xlink:href="classXML_1_1bpmn_1_1tImplicitThrowEvent.html" target="_top" xlink:title=" ">
<polygon fill="white" stroke="transparent" points="905.5,-165.5 763.5,-165.5 763.5,-105.5 905.5,-105.5 905.5,-165.5"/>
<text text-anchor="start" x="768.5" y="-153.5" font-family="Helvetica,sans-Serif" font-size="10.00">XML::bpmn::tImplicitThrow</text>
<text text-anchor="start" x="820.5" y="-142.5" font-family="Helvetica,sans-Serif" font-size="10.00">Event</text>
<text text-anchor="start" x="771" y="-127.5" font-family="Helvetica,sans-Serif" font-size="10.00">+</text>
<text text-anchor="start" x="787.5" y="-127.5" font-family="Helvetica,sans-Serif" font-size="10.00">defaults</text>
<text text-anchor="start" x="771" y="-112.5" font-family="Helvetica,sans-Serif" font-size="10.00">#</text>
<text text-anchor="start" x="787.5" y="-112.5" font-family="Helvetica,sans-Serif" font-size="10.00">tImplicitThrowEvent()</text>
<polygon fill="#666666" stroke="#666666" points="763.5,-137.5 763.5,-137.5 905.5,-137.5 905.5,-137.5 763.5,-137.5"/>
<polygon fill="#666666" stroke="#666666" points="763.5,-122.5 763.5,-122.5 785.5,-122.5 785.5,-122.5 763.5,-122.5"/>
<polygon fill="#666666" stroke="#666666" points="785.5,-122.5 785.5,-122.5 905.5,-122.5 905.5,-122.5 785.5,-122.5"/>
<polygon fill="none" stroke="#666666" points="763.5,-105.5 763.5,-165.5 905.5,-165.5 905.5,-105.5 763.5,-105.5"/>
</a>
</g>
</g>
<!-- Node14&#45;&gt;Node17 -->
<g id="edge16_Node000014_Node000017" class="edge">
<title>Node14&#45;&gt;Node17</title>
<g id="a_edge16_Node000014_Node000017"><a xlink:title=" ">
<path fill="none" stroke="#63b8ff" d="M834.5,-208.04C834.5,-192.97 834.5,-177.9 834.5,-165.5"/>
<polygon fill="none" stroke="#63b8ff" points="831,-208.44 834.5,-218.44 838,-208.44 831,-208.44"/>
</a>
</g>
</g>
<!-- Node19 -->
<g id="Node000019" class="node">
<title>Node19</title>
<g id="a_Node000019"><a xlink:href="classXML_1_1bpmn_1_1tIntermediateThrowEvent.html" target="_top" xlink:title=" ">
<polygon fill="white" stroke="transparent" points="1077.5,-165.5 923.5,-165.5 923.5,-105.5 1077.5,-105.5 1077.5,-165.5"/>
<text text-anchor="start" x="936.5" y="-153.5" font-family="Helvetica,sans-Serif" font-size="10.00">XML::bpmn::tIntermediate</text>
<text text-anchor="start" x="971.5" y="-142.5" font-family="Helvetica,sans-Serif" font-size="10.00">ThrowEvent</text>
<text text-anchor="start" x="927.5" y="-127.5" font-family="Helvetica,sans-Serif" font-size="10.00">+</text>
<text text-anchor="start" x="940.5" y="-127.5" font-family="Helvetica,sans-Serif" font-size="10.00">defaults</text>
<text text-anchor="start" x="927.5" y="-112.5" font-family="Helvetica,sans-Serif" font-size="10.00">#</text>
<text text-anchor="start" x="940.5" y="-112.5" font-family="Helvetica,sans-Serif" font-size="10.00">tIntermediateThrowEvent()</text>
<polygon fill="#666666" stroke="#666666" points="923.5,-137.5 923.5,-137.5 1077.5,-137.5 1077.5,-137.5 923.5,-137.5"/>
<polygon fill="#666666" stroke="#666666" points="923.5,-122.5 923.5,-122.5 938.5,-122.5 938.5,-122.5 923.5,-122.5"/>
<polygon fill="#666666" stroke="#666666" points="938.5,-122.5 938.5,-122.5 1077.5,-122.5 1077.5,-122.5 938.5,-122.5"/>
<polygon fill="none" stroke="#666666" points="923.5,-105.5 923.5,-165.5 1077.5,-165.5 1077.5,-105.5 923.5,-105.5"/>
</a>
</g>
</g>
<!-- Node14&#45;&gt;Node19 -->
<g id="edge18_Node000014_Node000019" class="edge">
<title>Node14&#45;&gt;Node19</title>
<g id="a_edge18_Node000014_Node000019"><a xlink:title=" ">
<path fill="none" stroke="#63b8ff" d="M908.78,-215.51C929.03,-198.06 949.99,-180.01 966.75,-165.58"/>
<polygon fill="none" stroke="#63b8ff" points="906.35,-212.98 901.06,-222.16 910.92,-218.29 906.35,-212.98"/>
</a>
</g>
</g>
<!-- Node21 -->
<g id="Node000021" class="node">
<title>Node21</title>
<g id="a_Node000021"><a xlink:href="classXML_1_1bpmn_1_1throwEvent.html" target="_top" xlink:title=" ">
<polygon fill="white" stroke="transparent" points="1223,-160 1096,-160 1096,-111 1223,-111 1223,-160"/>
<text text-anchor="start" x="1101.5" y="-147.5" font-family="Helvetica,sans-Serif" font-size="10.00">XML::bpmn::throwEvent</text>
<text text-anchor="start" x="1111" y="-132.5" font-family="Helvetica,sans-Serif" font-size="10.00">+</text>
<text text-anchor="start" x="1134.5" y="-132.5" font-family="Helvetica,sans-Serif" font-size="10.00">defaults</text>
<text text-anchor="start" x="1111" y="-117.5" font-family="Helvetica,sans-Serif" font-size="10.00">#</text>
<text text-anchor="start" x="1134.5" y="-117.5" font-family="Helvetica,sans-Serif" font-size="10.00">throwEvent()</text>
<polygon fill="#666666" stroke="#666666" points="1096.5,-142.5 1096.5,-142.5 1223.5,-142.5 1223.5,-142.5 1096.5,-142.5"/>
<polygon fill="#666666" stroke="#666666" points="1096.5,-127.5 1096.5,-127.5 1132.5,-127.5 1132.5,-127.5 1096.5,-127.5"/>
<polygon fill="#666666" stroke="#666666" points="1132.5,-127.5 1132.5,-127.5 1223.5,-127.5 1223.5,-127.5 1132.5,-127.5"/>
<polygon fill="none" stroke="#666666" points="1096,-111 1096,-160 1223,-160 1223,-111 1096,-111"/>
</a>
</g>
</g>
<!-- Node14&#45;&gt;Node21 -->
<g id="edge20_Node000014_Node000021" class="edge">
<title>Node14&#45;&gt;Node21</title>
<g id="a_edge20_Node000014_Node000021"><a xlink:title=" ">
<path fill="none" stroke="#63b8ff" d="M910.55,-250.09C960.97,-230.07 1028.31,-202.34 1086.5,-175 1096.23,-170.43 1106.52,-165.23 1116.21,-160.17"/>
<polygon fill="none" stroke="#63b8ff" points="909.03,-246.92 901.02,-253.86 911.61,-253.43 909.03,-246.92"/>
</a>
</g>
</g>
<!-- Node16 -->
<g id="Node000016" class="node">
<title>Node16</title>
<g id="a_Node000016"><a xlink:href="classXML_1_1bpmn_1_1endEvent.html" target="_top" xlink:title=" ">
<polygon fill="white" stroke="transparent" points="743,-54.5 626,-54.5 626,-5.5 743,-5.5 743,-54.5"/>
<text text-anchor="start" x="631.5" y="-42" font-family="Helvetica,sans-Serif" font-size="10.00">XML::bpmn::endEvent</text>
<text text-anchor="start" x="641" y="-27" font-family="Helvetica,sans-Serif" font-size="10.00">+</text>
<text text-anchor="start" x="664.5" y="-27" font-family="Helvetica,sans-Serif" font-size="10.00">defaults</text>
<text text-anchor="start" x="641" y="-12" font-family="Helvetica,sans-Serif" font-size="10.00">#</text>
<text text-anchor="start" x="664.5" y="-12" font-family="Helvetica,sans-Serif" font-size="10.00">endEvent()</text>
<polygon fill="#666666" stroke="#666666" points="626.5,-37 626.5,-37 743.5,-37 743.5,-37 626.5,-37"/>
<polygon fill="#666666" stroke="#666666" points="626.5,-22 626.5,-22 662.5,-22 662.5,-22 626.5,-22"/>
<polygon fill="#666666" stroke="#666666" points="662.5,-22 662.5,-22 743.5,-22 743.5,-22 662.5,-22"/>
<polygon fill="none" stroke="#666666" points="626,-5.5 626,-54.5 743,-54.5 743,-5.5 626,-5.5"/>
</a>
</g>
</g>
<!-- Node15&#45;&gt;Node16 -->
<g id="edge15_Node000015_Node000016" class="edge">
<title>Node15&#45;&gt;Node16</title>
<g id="a_edge15_Node000015_Node000016"><a xlink:title=" ">
<path fill="none" stroke="#63b8ff" d="M684.5,-100.33C684.5,-85.36 684.5,-68.16 684.5,-54.63"/>
<polygon fill="none" stroke="#63b8ff" points="681,-100.75 684.5,-110.76 688,-100.76 681,-100.75"/>
</a>
</g>
</g>
<!-- Node18 -->
<g id="Node000018" class="node">
<title>Node18</title>
<g id="a_Node000018"><a xlink:href="classXML_1_1bpmn_1_1implicitThrowEvent.html" target="_top" xlink:title=" ">
<polygon fill="white" stroke="transparent" points="901.5,-60 763.5,-60 763.5,0 901.5,0 901.5,-60"/>
<text text-anchor="start" x="768.5" y="-48" font-family="Helvetica,sans-Serif" font-size="10.00">XML::bpmn::implicitThrow</text>
<text text-anchor="start" x="818.5" y="-37" font-family="Helvetica,sans-Serif" font-size="10.00">Event</text>
<text text-anchor="start" x="771" y="-22" font-family="Helvetica,sans-Serif" font-size="10.00">+</text>
<text text-anchor="start" x="787.5" y="-22" font-family="Helvetica,sans-Serif" font-size="10.00">defaults</text>
<text text-anchor="start" x="771" y="-7" font-family="Helvetica,sans-Serif" font-size="10.00">#</text>
<text text-anchor="start" x="787.5" y="-7" font-family="Helvetica,sans-Serif" font-size="10.00">implicitThrowEvent()</text>
<polygon fill="#666666" stroke="#666666" points="763.5,-32 763.5,-32 901.5,-32 901.5,-32 763.5,-32"/>
<polygon fill="#666666" stroke="#666666" points="763.5,-17 763.5,-17 785.5,-17 785.5,-17 763.5,-17"/>
<polygon fill="#666666" stroke="#666666" points="785.5,-17 785.5,-17 901.5,-17 901.5,-17 785.5,-17"/>
<polygon fill="none" stroke="#666666" points="763.5,0 763.5,-60 901.5,-60 901.5,0 763.5,0"/>
</a>
</g>
</g>
<!-- Node17&#45;&gt;Node18 -->
<g id="edge17_Node000017_Node000018" class="edge">
<title>Node17&#45;&gt;Node18</title>
<g id="a_edge17_Node000017_Node000018"><a xlink:title=" ">
<path fill="none" stroke="#63b8ff" d="M833.74,-95.08C833.51,-83.51 833.27,-71.06 833.07,-60.25"/>
<polygon fill="none" stroke="#63b8ff" points="830.24,-95.46 833.94,-105.39 837.24,-95.33 830.24,-95.46"/>
</a>
</g>
</g>
<!-- Node20 -->
<g id="Node000020" class="node">
<title>Node20</title>
<g id="a_Node000020"><a xlink:href="classXML_1_1bpmn_1_1intermediateThrowEvent.html" target="_top" xlink:title=" ">
<polygon fill="white" stroke="transparent" points="1083.5,-60 919.5,-60 919.5,0 1083.5,0 1083.5,-60"/>
<text text-anchor="start" x="924.5" y="-48" font-family="Helvetica,sans-Serif" font-size="10.00">XML::bpmn::intermediateThrow</text>
<text text-anchor="start" x="987.5" y="-37" font-family="Helvetica,sans-Serif" font-size="10.00">Event</text>
<text text-anchor="start" x="927" y="-22" font-family="Helvetica,sans-Serif" font-size="10.00">+</text>
<text text-anchor="start" x="943.5" y="-22" font-family="Helvetica,sans-Serif" font-size="10.00">defaults</text>
<text text-anchor="start" x="927" y="-7" font-family="Helvetica,sans-Serif" font-size="10.00">#</text>
<text text-anchor="start" x="943.5" y="-7" font-family="Helvetica,sans-Serif" font-size="10.00">intermediateThrowEvent()</text>
<polygon fill="#666666" stroke="#666666" points="919.5,-32 919.5,-32 1083.5,-32 1083.5,-32 919.5,-32"/>
<polygon fill="#666666" stroke="#666666" points="919.5,-17 919.5,-17 941.5,-17 941.5,-17 919.5,-17"/>
<polygon fill="#666666" stroke="#666666" points="941.5,-17 941.5,-17 1083.5,-17 1083.5,-17 941.5,-17"/>
<polygon fill="none" stroke="#666666" points="919.5,0 919.5,-60 1083.5,-60 1083.5,0 919.5,0"/>
</a>
</g>
</g>
<!-- Node19&#45;&gt;Node20 -->
<g id="edge19_Node000019_Node000020" class="edge">
<title>Node19&#45;&gt;Node20</title>
<g id="a_edge19_Node000019_Node000020"><a xlink:title=" ">
<path fill="none" stroke="#63b8ff" d="M1000.88,-95.08C1000.99,-83.51 1001.11,-71.06 1001.22,-60.25"/>
<polygon fill="none" stroke="#63b8ff" points="997.38,-95.36 1000.78,-105.39 1004.38,-95.43 997.38,-95.36"/>
</a>
</g>
</g>
</g>
</svg>
