<?xml version="1.0" encoding="UTF-8" standalone="no"?>
<!DOCTYPE svg PUBLIC "-//W3C//DTD SVG 1.1//EN"
 "http://www.w3.org/Graphics/SVG/1.1/DTD/svg11.dtd">
<!-- Generated by graphviz version 2.43.0 (0)
 -->
<!-- Title: XML::bpmn::tIntermediateCatchEvent Pages: 1 -->
<svg width="170pt" height="1259pt"
 viewBox="0.00 0.00 170.00 1259.00" xmlns="http://www.w3.org/2000/svg" xmlns:xlink="http://www.w3.org/1999/xlink">
<g id="graph0" class="graph" transform="scale(1 1) rotate(0) translate(4 1255)">
<title>XML::bpmn::tIntermediateCatchEvent</title>
<!-- Node1 -->
<g id="Node000001" class="node">
<title>Node1</title>
<g id="a_Node000001"><a xlink:title=" ">
<polygon fill="#999999" stroke="transparent" points="156.5,-156 5.5,-156 5.5,-96 156.5,-96 156.5,-156"/>
<text text-anchor="start" x="17.5" y="-144" font-family="Helvetica,sans-Serif" font-size="10.00">XML::bpmn::tIntermediate</text>
<text text-anchor="start" x="53.5" y="-133" font-family="Helvetica,sans-Serif" font-size="10.00">CatchEvent</text>
<text text-anchor="start" x="10" y="-118" font-family="Helvetica,sans-Serif" font-size="10.00">+</text>
<text text-anchor="start" x="23" y="-118" font-family="Helvetica,sans-Serif" font-size="10.00">defaults</text>
<text text-anchor="start" x="10" y="-103" font-family="Helvetica,sans-Serif" font-size="10.00">#</text>
<text text-anchor="start" x="23" y="-103" font-family="Helvetica,sans-Serif" font-size="10.00">tIntermediateCatchEvent()</text>
<polygon fill="#666666" stroke="#666666" points="6,-128 6,-128 157,-128 157,-128 6,-128"/>
<polygon fill="#666666" stroke="#666666" points="6,-113 6,-113 21,-113 21,-113 6,-113"/>
<polygon fill="#666666" stroke="#666666" points="21,-113 21,-113 157,-113 157,-113 21,-113"/>
<polygon fill="none" stroke="#666666" points="5.5,-96 5.5,-156 156.5,-156 156.5,-96 5.5,-96"/>
</a>
</g>
</g>
<!-- Node8 -->
<g id="Node000008" class="node">
<title>Node8</title>
<g id="a_Node000008"><a xlink:href="classXML_1_1bpmn_1_1intermediateCatchEvent.html" target="_top" xlink:title=" ">
<polygon fill="white" stroke="transparent" points="162,-60 0,-60 0,0 162,0 162,-60"/>
<text text-anchor="start" x="5" y="-48" font-family="Helvetica,sans-Serif" font-size="10.00">XML::bpmn::intermediateCatch</text>
<text text-anchor="start" x="67" y="-37" font-family="Helvetica,sans-Serif" font-size="10.00">Event</text>
<text text-anchor="start" x="7.5" y="-22" font-family="Helvetica,sans-Serif" font-size="10.00">+</text>
<text text-anchor="start" x="24" y="-22" font-family="Helvetica,sans-Serif" font-size="10.00">defaults</text>
<text text-anchor="start" x="7.5" y="-7" font-family="Helvetica,sans-Serif" font-size="10.00">#</text>
<text text-anchor="start" x="24" y="-7" font-family="Helvetica,sans-Serif" font-size="10.00">intermediateCatchEvent()</text>
<polygon fill="#666666" stroke="#666666" points="0,-32 0,-32 162,-32 162,-32 0,-32"/>
<polygon fill="#666666" stroke="#666666" points="0,-17 0,-17 22,-17 22,-17 0,-17"/>
<polygon fill="#666666" stroke="#666666" points="22,-17 22,-17 162,-17 162,-17 22,-17"/>
<polygon fill="none" stroke="#666666" points="0,0 0,-60 162,-60 162,0 0,0"/>
</a>
</g>
</g>
<!-- Node1&#45;&gt;Node8 -->
<g id="edge7_Node000001_Node000008" class="edge">
<title>Node1&#45;&gt;Node8</title>
<g id="a_edge7_Node000001_Node000008"><a xlink:title=" ">
<path fill="none" stroke="#63b8ff" d="M81,-85.63C81,-77.11 81,-68.25 81,-60.21"/>
<polygon fill="none" stroke="#63b8ff" points="77.5,-85.77 81,-95.77 84.5,-85.77 77.5,-85.77"/>
</a>
</g>
</g>
<!-- Node2 -->
<g id="Node000002" class="node">
<title>Node2</title>
<g id="a_Node000002"><a xlink:href="classXML_1_1bpmn_1_1tCatchEvent.html" target="_top" xlink:title=" ">
<polygon fill="white" stroke="transparent" points="147.5,-331 14.5,-331 14.5,-192 147.5,-192 147.5,-331"/>
<text text-anchor="start" x="21" y="-318.5" font-family="Helvetica,sans-Serif" font-size="10.00">XML::bpmn::tCatchEvent</text>
<text text-anchor="start" x="19" y="-303.5" font-family="Helvetica,sans-Serif" font-size="10.00">+</text>
<text text-anchor="start" x="32" y="-303.5" font-family="Helvetica,sans-Serif" font-size="10.00">dataOutput</text>
<text text-anchor="start" x="19" y="-288.5" font-family="Helvetica,sans-Serif" font-size="10.00">+</text>
<text text-anchor="start" x="32" y="-288.5" font-family="Helvetica,sans-Serif" font-size="10.00">dataOutputAssociation</text>
<text text-anchor="start" x="19" y="-273.5" font-family="Helvetica,sans-Serif" font-size="10.00">+</text>
<text text-anchor="start" x="32" y="-273.5" font-family="Helvetica,sans-Serif" font-size="10.00">outputSet</text>
<text text-anchor="start" x="19" y="-258.5" font-family="Helvetica,sans-Serif" font-size="10.00">+</text>
<text text-anchor="start" x="32" y="-258.5" font-family="Helvetica,sans-Serif" font-size="10.00">eventDefinition</text>
<text text-anchor="start" x="19" y="-243.5" font-family="Helvetica,sans-Serif" font-size="10.00">+</text>
<text text-anchor="start" x="32" y="-243.5" font-family="Helvetica,sans-Serif" font-size="10.00">eventDefinitionRef</text>
<text text-anchor="start" x="19" y="-228.5" font-family="Helvetica,sans-Serif" font-size="10.00">+</text>
<text text-anchor="start" x="32" y="-228.5" font-family="Helvetica,sans-Serif" font-size="10.00">parallelMultiple</text>
<text text-anchor="start" x="19" y="-213.5" font-family="Helvetica,sans-Serif" font-size="10.00">+</text>
<text text-anchor="start" x="32" y="-213.5" font-family="Helvetica,sans-Serif" font-size="10.00">defaults</text>
<text text-anchor="start" x="19" y="-198.5" font-family="Helvetica,sans-Serif" font-size="10.00">#</text>
<text text-anchor="start" x="32" y="-198.5" font-family="Helvetica,sans-Serif" font-size="10.00">tCatchEvent()</text>
<polygon fill="#666666" stroke="#666666" points="15,-313.5 15,-313.5 148,-313.5 148,-313.5 15,-313.5"/>
<polygon fill="#666666" stroke="#666666" points="15,-208.5 15,-208.5 30,-208.5 30,-208.5 15,-208.5"/>
<polygon fill="#666666" stroke="#666666" points="30,-208.5 30,-208.5 148,-208.5 148,-208.5 30,-208.5"/>
<polygon fill="none" stroke="#666666" points="14.5,-192 14.5,-331 147.5,-331 147.5,-192 14.5,-192"/>
</a>
</g>
</g>
<!-- Node2&#45;&gt;Node1 -->
<g id="edge1_Node000001_Node000002" class="edge">
<title>Node2&#45;&gt;Node1</title>
<g id="a_edge1_Node000001_Node000002"><a xlink:title=" ">
<path fill="none" stroke="#63b8ff" d="M81,-181.58C81,-172.61 81,-163.95 81,-156.27"/>
<polygon fill="none" stroke="#63b8ff" points="77.5,-181.79 81,-191.79 84.5,-181.79 77.5,-181.79"/>
</a>
</g>
</g>
<!-- Node3 -->
<g id="Node000003" class="node">
<title>Node3</title>
<g id="a_Node000003"><a xlink:href="classXML_1_1bpmn_1_1tEvent.html" target="_top" xlink:title=" ">
<polygon fill="white" stroke="transparent" points="132.5,-431 29.5,-431 29.5,-367 132.5,-367 132.5,-431"/>
<text text-anchor="start" x="35" y="-419" font-family="Helvetica,sans-Serif" font-size="10.00">XML::bpmn::tEvent</text>
<text text-anchor="start" x="44" y="-404" font-family="Helvetica,sans-Serif" font-size="10.00">+</text>
<text text-anchor="start" x="67" y="-404" font-family="Helvetica,sans-Serif" font-size="10.00">property</text>
<text text-anchor="start" x="44" y="-389" font-family="Helvetica,sans-Serif" font-size="10.00">+</text>
<text text-anchor="start" x="67" y="-389" font-family="Helvetica,sans-Serif" font-size="10.00">defaults</text>
<text text-anchor="start" x="44" y="-374" font-family="Helvetica,sans-Serif" font-size="10.00">#</text>
<text text-anchor="start" x="67" y="-374" font-family="Helvetica,sans-Serif" font-size="10.00">tEvent()</text>
<polygon fill="#666666" stroke="#666666" points="30,-414 30,-414 133,-414 133,-414 30,-414"/>
<polygon fill="#666666" stroke="#666666" points="30,-384 30,-384 65,-384 65,-384 30,-384"/>
<polygon fill="#666666" stroke="#666666" points="65,-384 65,-384 133,-384 133,-384 65,-384"/>
<polygon fill="none" stroke="#666666" points="29.5,-367 29.5,-431 132.5,-431 132.5,-367 29.5,-367"/>
</a>
</g>
</g>
<!-- Node3&#45;&gt;Node2 -->
<g id="edge2_Node000002_Node000003" class="edge">
<title>Node3&#45;&gt;Node2</title>
<g id="a_edge2_Node000002_Node000003"><a xlink:title=" ">
<path fill="none" stroke="#63b8ff" d="M81,-356.69C81,-348.62 81,-339.95 81,-331.26"/>
<polygon fill="none" stroke="#63b8ff" points="77.5,-356.91 81,-366.91 84.5,-356.91 77.5,-356.91"/>
</a>
</g>
</g>
<!-- Node4 -->
<g id="Node000004" class="node">
<title>Node4</title>
<g id="a_Node000004"><a xlink:href="classXML_1_1bpmn_1_1tFlowNode.html" target="_top" xlink:title=" ">
<polygon fill="white" stroke="transparent" points="143,-546 19,-546 19,-467 143,-467 143,-546"/>
<text text-anchor="start" x="24" y="-533.5" font-family="Helvetica,sans-Serif" font-size="10.00">XML::bpmn::tFlowNode</text>
<text text-anchor="start" x="33.5" y="-518.5" font-family="Helvetica,sans-Serif" font-size="10.00">+</text>
<text text-anchor="start" x="57" y="-518.5" font-family="Helvetica,sans-Serif" font-size="10.00">incoming</text>
<text text-anchor="start" x="33.5" y="-503.5" font-family="Helvetica,sans-Serif" font-size="10.00">+</text>
<text text-anchor="start" x="57" y="-503.5" font-family="Helvetica,sans-Serif" font-size="10.00">outgoing</text>
<text text-anchor="start" x="33.5" y="-488.5" font-family="Helvetica,sans-Serif" font-size="10.00">+</text>
<text text-anchor="start" x="57" y="-488.5" font-family="Helvetica,sans-Serif" font-size="10.00">defaults</text>
<text text-anchor="start" x="33.5" y="-473.5" font-family="Helvetica,sans-Serif" font-size="10.00">#</text>
<text text-anchor="start" x="57" y="-473.5" font-family="Helvetica,sans-Serif" font-size="10.00">tFlowNode()</text>
<polygon fill="#666666" stroke="#666666" points="19,-528.5 19,-528.5 143,-528.5 143,-528.5 19,-528.5"/>
<polygon fill="#666666" stroke="#666666" points="19,-483.5 19,-483.5 55,-483.5 55,-483.5 19,-483.5"/>
<polygon fill="#666666" stroke="#666666" points="55,-483.5 55,-483.5 143,-483.5 143,-483.5 55,-483.5"/>
<polygon fill="none" stroke="#666666" points="19,-467 19,-546 143,-546 143,-467 19,-467"/>
</a>
</g>
</g>
<!-- Node4&#45;&gt;Node3 -->
<g id="edge3_Node000003_Node000004" class="edge">
<title>Node4&#45;&gt;Node3</title>
<g id="a_edge3_Node000003_Node000004"><a xlink:title=" ">
<path fill="none" stroke="#63b8ff" d="M81,-456.71C81,-448 81,-439.14 81,-431.09"/>
<polygon fill="none" stroke="#63b8ff" points="77.5,-456.81 81,-466.81 84.5,-456.81 77.5,-456.81"/>
</a>
</g>
</g>
<!-- Node5 -->
<g id="Node000005" class="node">
<title>Node5</title>
<g id="a_Node000005"><a xlink:href="classXML_1_1bpmn_1_1tFlowElement.html" target="_top" xlink:title=" ">
<polygon fill="white" stroke="transparent" points="150.5,-691 11.5,-691 11.5,-582 150.5,-582 150.5,-691"/>
<text text-anchor="start" x="17" y="-678.5" font-family="Helvetica,sans-Serif" font-size="10.00">XML::bpmn::tFlowElement</text>
<text text-anchor="start" x="23.5" y="-663.5" font-family="Helvetica,sans-Serif" font-size="10.00">+</text>
<text text-anchor="start" x="44" y="-663.5" font-family="Helvetica,sans-Serif" font-size="10.00">auditing</text>
<text text-anchor="start" x="23.5" y="-648.5" font-family="Helvetica,sans-Serif" font-size="10.00">+</text>
<text text-anchor="start" x="44" y="-648.5" font-family="Helvetica,sans-Serif" font-size="10.00">monitoring</text>
<text text-anchor="start" x="23.5" y="-633.5" font-family="Helvetica,sans-Serif" font-size="10.00">+</text>
<text text-anchor="start" x="44" y="-633.5" font-family="Helvetica,sans-Serif" font-size="10.00">categoryValueRef</text>
<text text-anchor="start" x="23.5" y="-618.5" font-family="Helvetica,sans-Serif" font-size="10.00">+</text>
<text text-anchor="start" x="44" y="-618.5" font-family="Helvetica,sans-Serif" font-size="10.00">name</text>
<text text-anchor="start" x="23.5" y="-603.5" font-family="Helvetica,sans-Serif" font-size="10.00">+</text>
<text text-anchor="start" x="44" y="-603.5" font-family="Helvetica,sans-Serif" font-size="10.00">defaults</text>
<text text-anchor="start" x="23.5" y="-588.5" font-family="Helvetica,sans-Serif" font-size="10.00">#</text>
<text text-anchor="start" x="44" y="-588.5" font-family="Helvetica,sans-Serif" font-size="10.00">tFlowElement()</text>
<polygon fill="#666666" stroke="#666666" points="12,-673.5 12,-673.5 151,-673.5 151,-673.5 12,-673.5"/>
<polygon fill="#666666" stroke="#666666" points="12,-598.5 12,-598.5 42,-598.5 42,-598.5 12,-598.5"/>
<polygon fill="#666666" stroke="#666666" points="42,-598.5 42,-598.5 151,-598.5 151,-598.5 42,-598.5"/>
<polygon fill="none" stroke="#666666" points="11.5,-582 11.5,-691 150.5,-691 150.5,-582 11.5,-582"/>
</a>
</g>
</g>
<!-- Node5&#45;&gt;Node4 -->
<g id="edge4_Node000004_Node000005" class="edge">
<title>Node5&#45;&gt;Node4</title>
<g id="a_edge4_Node000004_Node000005"><a xlink:title=" ">
<path fill="none" stroke="#63b8ff" d="M81,-571.7C81,-562.93 81,-554.16 81,-546.03"/>
<polygon fill="none" stroke="#63b8ff" points="77.5,-571.96 81,-581.96 84.5,-571.96 77.5,-571.96"/>
</a>
</g>
</g>
<!-- Node6 -->
<g id="Node000006" class="node">
<title>Node6</title>
<g id="a_Node000006"><a xlink:href="classXML_1_1bpmn_1_1tBaseElement.html" target="_top" xlink:title=" ">
<polygon fill="white" stroke="transparent" points="151,-821 11,-821 11,-727 151,-727 151,-821"/>
<text text-anchor="start" x="16" y="-809" font-family="Helvetica,sans-Serif" font-size="10.00">XML::bpmn::tBaseElement</text>
<text text-anchor="start" x="21" y="-794" font-family="Helvetica,sans-Serif" font-size="10.00">+</text>
<text text-anchor="start" x="40" y="-794" font-family="Helvetica,sans-Serif" font-size="10.00">documentation</text>
<text text-anchor="start" x="21" y="-779" font-family="Helvetica,sans-Serif" font-size="10.00">+</text>
<text text-anchor="start" x="40" y="-779" font-family="Helvetica,sans-Serif" font-size="10.00">extensionElements</text>
<text text-anchor="start" x="21" y="-764" font-family="Helvetica,sans-Serif" font-size="10.00">+</text>
<text text-anchor="start" x="40" y="-764" font-family="Helvetica,sans-Serif" font-size="10.00">id</text>
<text text-anchor="start" x="21" y="-749" font-family="Helvetica,sans-Serif" font-size="10.00">+</text>
<text text-anchor="start" x="40" y="-749" font-family="Helvetica,sans-Serif" font-size="10.00">defaults</text>
<text text-anchor="start" x="21" y="-734" font-family="Helvetica,sans-Serif" font-size="10.00">#</text>
<text text-anchor="start" x="40" y="-734" font-family="Helvetica,sans-Serif" font-size="10.00">tBaseElement()</text>
<polygon fill="#666666" stroke="#666666" points="11,-804 11,-804 151,-804 151,-804 11,-804"/>
<polygon fill="#666666" stroke="#666666" points="11,-744 11,-744 38,-744 38,-744 11,-744"/>
<polygon fill="#666666" stroke="#666666" points="38,-744 38,-744 151,-744 151,-744 38,-744"/>
<polygon fill="none" stroke="#666666" points="11,-727 11,-821 151,-821 151,-727 11,-727"/>
</a>
</g>
</g>
<!-- Node6&#45;&gt;Node5 -->
<g id="edge5_Node000005_Node000006" class="edge">
<title>Node6&#45;&gt;Node5</title>
<g id="a_edge5_Node000005_Node000006"><a xlink:title=" ">
<path fill="none" stroke="#63b8ff" d="M81,-716.58C81,-708.12 81,-699.41 81,-691.01"/>
<polygon fill="none" stroke="#63b8ff" points="77.5,-716.75 81,-726.75 84.5,-716.75 77.5,-716.75"/>
</a>
</g>
</g>
<!-- Node7 -->
<g id="Node000007" class="node">
<title>Node7</title>
<g id="a_Node000007"><a xlink:href="classXML_1_1XMLObject.html" target="_top" xlink:title="A class representing a node in an XML&#45;tree.">
<polygon fill="white" stroke="transparent" points="141,-1251 21,-1251 21,-857 141,-857 141,-1251"/>
<text text-anchor="start" x="41" y="-1239" font-family="Helvetica,sans-Serif" font-size="10.00">XML::XMLObject</text>
<text text-anchor="start" x="25" y="-1224" font-family="Helvetica,sans-Serif" font-size="10.00">+</text>
<text text-anchor="start" x="38" y="-1224" font-family="Helvetica,sans-Serif" font-size="10.00">xmlns</text>
<text text-anchor="start" x="25" y="-1209" font-family="Helvetica,sans-Serif" font-size="10.00">+</text>
<text text-anchor="start" x="38" y="-1209" font-family="Helvetica,sans-Serif" font-size="10.00">className</text>
<text text-anchor="start" x="25" y="-1194" font-family="Helvetica,sans-Serif" font-size="10.00">+</text>
<text text-anchor="start" x="38" y="-1194" font-family="Helvetica,sans-Serif" font-size="10.00">prefix</text>
<text text-anchor="start" x="25" y="-1179" font-family="Helvetica,sans-Serif" font-size="10.00">+</text>
<text text-anchor="start" x="38" y="-1179" font-family="Helvetica,sans-Serif" font-size="10.00">elementName</text>
<text text-anchor="start" x="25" y="-1164" font-family="Helvetica,sans-Serif" font-size="10.00">+</text>
<text text-anchor="start" x="38" y="-1164" font-family="Helvetica,sans-Serif" font-size="10.00">textContent</text>
<text text-anchor="start" x="25" y="-1149" font-family="Helvetica,sans-Serif" font-size="10.00">+</text>
<text text-anchor="start" x="38" y="-1149" font-family="Helvetica,sans-Serif" font-size="10.00">children</text>
<text text-anchor="start" x="25" y="-1134" font-family="Helvetica,sans-Serif" font-size="10.00">+</text>
<text text-anchor="start" x="38" y="-1134" font-family="Helvetica,sans-Serif" font-size="10.00">attributes</text>
<text text-anchor="start" x="25" y="-1119" font-family="Helvetica,sans-Serif" font-size="10.00">+</text>
<text text-anchor="start" x="38" y="-1119" font-family="Helvetica,sans-Serif" font-size="10.00">defaults</text>
<text text-anchor="start" x="25" y="-1104" font-family="Helvetica,sans-Serif" font-size="10.00">#</text>
<text text-anchor="start" x="38" y="-1104" font-family="Helvetica,sans-Serif" font-size="10.00">factory</text>
<text text-anchor="start" x="25" y="-1089" font-family="Helvetica,sans-Serif" font-size="10.00">+</text>
<text text-anchor="start" x="38" y="-1089" font-family="Helvetica,sans-Serif" font-size="10.00">~XMLObject()</text>
<text text-anchor="start" x="25" y="-1074" font-family="Helvetica,sans-Serif" font-size="10.00">+</text>
<text text-anchor="start" x="38" y="-1074" font-family="Helvetica,sans-Serif" font-size="10.00">is()</text>
<text text-anchor="start" x="25" y="-1059" font-family="Helvetica,sans-Serif" font-size="10.00">+</text>
<text text-anchor="start" x="38" y="-1059" font-family="Helvetica,sans-Serif" font-size="10.00">is()</text>
<text text-anchor="start" x="25" y="-1044" font-family="Helvetica,sans-Serif" font-size="10.00">+</text>
<text text-anchor="start" x="38" y="-1044" font-family="Helvetica,sans-Serif" font-size="10.00">get()</text>
<text text-anchor="start" x="25" y="-1029" font-family="Helvetica,sans-Serif" font-size="10.00">+</text>
<text text-anchor="start" x="38" y="-1029" font-family="Helvetica,sans-Serif" font-size="10.00">get()</text>
<text text-anchor="start" x="25" y="-1014" font-family="Helvetica,sans-Serif" font-size="10.00">+</text>
<text text-anchor="start" x="38" y="-1014" font-family="Helvetica,sans-Serif" font-size="10.00">find()</text>
<text text-anchor="start" x="25" y="-999" font-family="Helvetica,sans-Serif" font-size="10.00">+</text>
<text text-anchor="start" x="38" y="-999" font-family="Helvetica,sans-Serif" font-size="10.00">find()</text>
<text text-anchor="start" x="25" y="-984" font-family="Helvetica,sans-Serif" font-size="10.00">+</text>
<text text-anchor="start" x="38" y="-984" font-family="Helvetica,sans-Serif" font-size="10.00">stringify()</text>
<text text-anchor="start" x="25" y="-969" font-family="Helvetica,sans-Serif" font-size="10.00">+</text>
<text text-anchor="start" x="38" y="-969" font-family="Helvetica,sans-Serif" font-size="10.00">format()</text>
<text text-anchor="start" x="25" y="-954" font-family="Helvetica,sans-Serif" font-size="10.00">+</text>
<text text-anchor="start" x="38" y="-954" font-family="Helvetica,sans-Serif" font-size="10.00">getRequiredChild()</text>
<text text-anchor="start" x="38" y="-939" font-family="Helvetica,sans-Serif" font-size="10.00">and 7 more...</text>
<text text-anchor="start" x="25" y="-924" font-family="Helvetica,sans-Serif" font-size="10.00">+</text>
<text text-anchor="start" x="38" y="-924" font-family="Helvetica,sans-Serif" font-size="10.00">createFromStream()</text>
<text text-anchor="start" x="25" y="-909" font-family="Helvetica,sans-Serif" font-size="10.00">+</text>
<text text-anchor="start" x="38" y="-909" font-family="Helvetica,sans-Serif" font-size="10.00">createFromString()</text>
<text text-anchor="start" x="25" y="-894" font-family="Helvetica,sans-Serif" font-size="10.00">+</text>
<text text-anchor="start" x="38" y="-894" font-family="Helvetica,sans-Serif" font-size="10.00">createFromFile()</text>
<text text-anchor="start" x="25" y="-879" font-family="Helvetica,sans-Serif" font-size="10.00">#</text>
<text text-anchor="start" x="38" y="-879" font-family="Helvetica,sans-Serif" font-size="10.00">XMLObject()</text>
<text text-anchor="start" x="25" y="-864" font-family="Helvetica,sans-Serif" font-size="10.00">#</text>
<text text-anchor="start" x="38" y="-864" font-family="Helvetica,sans-Serif" font-size="10.00">createObject()</text>
<polygon fill="#666666" stroke="#666666" points="21,-1234 21,-1234 141,-1234 141,-1234 21,-1234"/>
<polygon fill="#666666" stroke="#666666" points="21,-1099 21,-1099 36,-1099 36,-1099 21,-1099"/>
<polygon fill="#666666" stroke="#666666" points="36,-1099 36,-1099 141,-1099 141,-1099 36,-1099"/>
<polygon fill="none" stroke="#666666" points="21,-857 21,-1251 141,-1251 141,-857 21,-857"/>
</a>
</g>
</g>
<!-- Node7&#45;&gt;Node6 -->
<g id="edge6_Node000006_Node000007" class="edge">
<title>Node7&#45;&gt;Node6</title>
<g id="a_edge6_Node000006_Node000007"><a xlink:title=" ">
<path fill="none" stroke="#63b8ff" d="M81,-846.78C81,-837.62 81,-828.97 81,-821.06"/>
<polygon fill="none" stroke="#63b8ff" points="77.5,-846.91 81,-856.91 84.5,-846.91 77.5,-846.91"/>
</a>
</g>
</g>
</g>
</svg>
