<?xml version="1.0" encoding="UTF-8" standalone="no"?>
<!DOCTYPE svg PUBLIC "-//W3C//DTD SVG 1.1//EN"
 "http://www.w3.org/Graphics/SVG/1.1/DTD/svg11.dtd">
<!-- Generated by graphviz version 2.43.0 (0)
 -->
<!-- Title: XML::bpmn::globalManualTask Pages: 1 -->
<svg width="178pt" height="971pt"
 viewBox="0.00 0.00 178.00 971.00" xmlns="http://www.w3.org/2000/svg" xmlns:xlink="http://www.w3.org/1999/xlink">
<g id="graph0" class="graph" transform="scale(1 1) rotate(0) translate(4 967)">
<title>XML::bpmn::globalManualTask</title>
<!-- Node1 -->
<g id="node1" class="node">
<title>Node1</title>
<g id="a_node1"><a xlink:title=" ">
<polygon fill="#bfbfbf" stroke="black" points="2.5,-0.5 2.5,-57.5 167.5,-57.5 167.5,-0.5 2.5,-0.5"/>
<text text-anchor="middle" x="85" y="-45.5" font-family="Helvetica,sans-Serif" font-size="10.00">XML::bpmn::globalManualTask</text>
<polyline fill="none" stroke="black" points="2.5,-38.5 167.5,-38.5 "/>
<text text-anchor="start" x="10.5" y="-26.5" font-family="Helvetica,sans-Serif" font-size="10.00">+ defaults</text>
<polyline fill="none" stroke="black" points="2.5,-19.5 167.5,-19.5 "/>
<text text-anchor="start" x="10.5" y="-7.5" font-family="Helvetica,sans-Serif" font-size="10.00"># globalManualTask()</text>
</a>
</g>
</g>
<!-- Node2 -->
<g id="node2" class="node">
<title>Node2</title>
<g id="a_node2"><a xlink:href="classXML_1_1bpmn_1_1tGlobalManualTask.html" target="_top" xlink:title=" ">
<polygon fill="none" stroke="black" points="0,-94.5 0,-151.5 170,-151.5 170,-94.5 0,-94.5"/>
<text text-anchor="middle" x="85" y="-139.5" font-family="Helvetica,sans-Serif" font-size="10.00">XML::bpmn::tGlobalManualTask</text>
<polyline fill="none" stroke="black" points="0,-132.5 170,-132.5 "/>
<text text-anchor="start" x="8" y="-120.5" font-family="Helvetica,sans-Serif" font-size="10.00">+ defaults</text>
<polyline fill="none" stroke="black" points="0,-113.5 170,-113.5 "/>
<text text-anchor="start" x="8" y="-101.5" font-family="Helvetica,sans-Serif" font-size="10.00"># tGlobalManualTask()</text>
</a>
</g>
</g>
<!-- Node2&#45;&gt;Node1 -->
<g id="edge1" class="edge">
<title>Node2&#45;&gt;Node1</title>
<path fill="none" stroke="midnightblue" d="M85,-84.21C85,-75.29 85,-65.95 85,-57.58"/>
<polygon fill="none" stroke="midnightblue" points="81.5,-84.4 85,-94.4 88.5,-84.4 81.5,-84.4"/>
</g>
<!-- Node3 -->
<g id="node3" class="node">
<title>Node3</title>
<g id="a_node3"><a xlink:href="classXML_1_1bpmn_1_1tGlobalTask.html" target="_top" xlink:title=" ">
<polygon fill="none" stroke="black" points="18,-188.5 18,-256.5 152,-256.5 152,-188.5 18,-188.5"/>
<text text-anchor="middle" x="85" y="-244.5" font-family="Helvetica,sans-Serif" font-size="10.00">XML::bpmn::tGlobalTask</text>
<polyline fill="none" stroke="black" points="18,-237.5 152,-237.5 "/>
<text text-anchor="start" x="26" y="-225.5" font-family="Helvetica,sans-Serif" font-size="10.00">+ resourceRole</text>
<text text-anchor="start" x="26" y="-214.5" font-family="Helvetica,sans-Serif" font-size="10.00">+ defaults</text>
<polyline fill="none" stroke="black" points="18,-207.5 152,-207.5 "/>
<text text-anchor="start" x="26" y="-195.5" font-family="Helvetica,sans-Serif" font-size="10.00"># tGlobalTask()</text>
</a>
</g>
</g>
<!-- Node3&#45;&gt;Node2 -->
<g id="edge2" class="edge">
<title>Node3&#45;&gt;Node2</title>
<path fill="none" stroke="midnightblue" d="M85,-178.45C85,-169.4 85,-160.09 85,-151.78"/>
<polygon fill="none" stroke="midnightblue" points="81.5,-178.49 85,-188.49 88.5,-178.49 81.5,-178.49"/>
</g>
<!-- Node4 -->
<g id="node4" class="node">
<title>Node4</title>
<g id="a_node4"><a xlink:href="classXML_1_1bpmn_1_1tCallableElement.html" target="_top" xlink:title=" ">
<polygon fill="none" stroke="black" points="4.5,-293.5 4.5,-394.5 165.5,-394.5 165.5,-293.5 4.5,-293.5"/>
<text text-anchor="middle" x="85" y="-382.5" font-family="Helvetica,sans-Serif" font-size="10.00">XML::bpmn::tCallableElement</text>
<polyline fill="none" stroke="black" points="4.5,-375.5 165.5,-375.5 "/>
<text text-anchor="start" x="12.5" y="-363.5" font-family="Helvetica,sans-Serif" font-size="10.00">+ supportedInterfaceRef</text>
<text text-anchor="start" x="12.5" y="-352.5" font-family="Helvetica,sans-Serif" font-size="10.00">+ ioSpecification</text>
<text text-anchor="start" x="12.5" y="-341.5" font-family="Helvetica,sans-Serif" font-size="10.00">+ ioBinding</text>
<text text-anchor="start" x="12.5" y="-330.5" font-family="Helvetica,sans-Serif" font-size="10.00">+ name</text>
<text text-anchor="start" x="12.5" y="-319.5" font-family="Helvetica,sans-Serif" font-size="10.00">+ defaults</text>
<polyline fill="none" stroke="black" points="4.5,-312.5 165.5,-312.5 "/>
<text text-anchor="start" x="12.5" y="-300.5" font-family="Helvetica,sans-Serif" font-size="10.00"># tCallableElement()</text>
</a>
</g>
</g>
<!-- Node4&#45;&gt;Node3 -->
<g id="edge3" class="edge">
<title>Node4&#45;&gt;Node3</title>
<path fill="none" stroke="midnightblue" d="M85,-283.17C85,-274.11 85,-265.05 85,-256.83"/>
<polygon fill="none" stroke="midnightblue" points="81.5,-283.36 85,-293.36 88.5,-283.36 81.5,-283.36"/>
</g>
<!-- Node5 -->
<g id="node5" class="node">
<title>Node5</title>
<g id="a_node5"><a xlink:href="classXML_1_1bpmn_1_1tRootElement.html" target="_top" xlink:title=" ">
<polygon fill="none" stroke="black" points="13,-431.5 13,-488.5 157,-488.5 157,-431.5 13,-431.5"/>
<text text-anchor="middle" x="85" y="-476.5" font-family="Helvetica,sans-Serif" font-size="10.00">XML::bpmn::tRootElement</text>
<polyline fill="none" stroke="black" points="13,-469.5 157,-469.5 "/>
<text text-anchor="start" x="21" y="-457.5" font-family="Helvetica,sans-Serif" font-size="10.00">+ defaults</text>
<polyline fill="none" stroke="black" points="13,-450.5 157,-450.5 "/>
<text text-anchor="start" x="21" y="-438.5" font-family="Helvetica,sans-Serif" font-size="10.00"># tRootElement()</text>
</a>
</g>
</g>
<!-- Node5&#45;&gt;Node4 -->
<g id="edge4" class="edge">
<title>Node5&#45;&gt;Node4</title>
<path fill="none" stroke="midnightblue" d="M85,-421.35C85,-412.8 85,-403.58 85,-394.61"/>
<polygon fill="none" stroke="midnightblue" points="81.5,-421.4 85,-431.4 88.5,-421.4 81.5,-421.4"/>
</g>
<!-- Node6 -->
<g id="node6" class="node">
<title>Node6</title>
<g id="a_node6"><a xlink:href="classXML_1_1bpmn_1_1tBaseElement.html" target="_top" xlink:title=" ">
<polygon fill="none" stroke="black" points="12,-525.5 12,-615.5 158,-615.5 158,-525.5 12,-525.5"/>
<text text-anchor="middle" x="85" y="-603.5" font-family="Helvetica,sans-Serif" font-size="10.00">XML::bpmn::tBaseElement</text>
<polyline fill="none" stroke="black" points="12,-596.5 158,-596.5 "/>
<text text-anchor="start" x="20" y="-584.5" font-family="Helvetica,sans-Serif" font-size="10.00">+ documentation</text>
<text text-anchor="start" x="20" y="-573.5" font-family="Helvetica,sans-Serif" font-size="10.00">+ extensionElements</text>
<text text-anchor="start" x="20" y="-562.5" font-family="Helvetica,sans-Serif" font-size="10.00">+ id</text>
<text text-anchor="start" x="20" y="-551.5" font-family="Helvetica,sans-Serif" font-size="10.00">+ defaults</text>
<polyline fill="none" stroke="black" points="12,-544.5 158,-544.5 "/>
<text text-anchor="start" x="20" y="-532.5" font-family="Helvetica,sans-Serif" font-size="10.00"># tBaseElement()</text>
</a>
</g>
</g>
<!-- Node6&#45;&gt;Node5 -->
<g id="edge5" class="edge">
<title>Node6&#45;&gt;Node5</title>
<path fill="none" stroke="midnightblue" d="M85,-515.35C85,-506.07 85,-496.79 85,-488.59"/>
<polygon fill="none" stroke="midnightblue" points="81.5,-515.37 85,-525.37 88.5,-515.37 81.5,-515.37"/>
</g>
<!-- Node7 -->
<g id="node7" class="node">
<title>Node7</title>
<g id="a_node7"><a xlink:href="classXML_1_1XMLObject.html" target="_top" xlink:title=" ">
<polygon fill="none" stroke="black" points="22,-652.5 22,-962.5 148,-962.5 148,-652.5 22,-652.5"/>
<text text-anchor="middle" x="85" y="-950.5" font-family="Helvetica,sans-Serif" font-size="10.00">XML::XMLObject</text>
<polyline fill="none" stroke="black" points="22,-943.5 148,-943.5 "/>
<text text-anchor="start" x="30" y="-931.5" font-family="Helvetica,sans-Serif" font-size="10.00">+ xmlns</text>
<text text-anchor="start" x="30" y="-920.5" font-family="Helvetica,sans-Serif" font-size="10.00">+ className</text>
<text text-anchor="start" x="30" y="-909.5" font-family="Helvetica,sans-Serif" font-size="10.00">+ prefix</text>
<text text-anchor="start" x="30" y="-898.5" font-family="Helvetica,sans-Serif" font-size="10.00">+ elementName</text>
<text text-anchor="start" x="30" y="-887.5" font-family="Helvetica,sans-Serif" font-size="10.00">+ textContent</text>
<text text-anchor="start" x="30" y="-876.5" font-family="Helvetica,sans-Serif" font-size="10.00">+ children</text>
<text text-anchor="start" x="30" y="-865.5" font-family="Helvetica,sans-Serif" font-size="10.00">+ attributes</text>
<text text-anchor="start" x="30" y="-854.5" font-family="Helvetica,sans-Serif" font-size="10.00">+ defaults</text>
<text text-anchor="start" x="30" y="-843.5" font-family="Helvetica,sans-Serif" font-size="10.00"># factory</text>
<polyline fill="none" stroke="black" points="22,-836.5 148,-836.5 "/>
<text text-anchor="start" x="30" y="-824.5" font-family="Helvetica,sans-Serif" font-size="10.00">+ ~XMLObject()</text>
<text text-anchor="start" x="30" y="-813.5" font-family="Helvetica,sans-Serif" font-size="10.00">+ is()</text>
<text text-anchor="start" x="30" y="-802.5" font-family="Helvetica,sans-Serif" font-size="10.00">+ is()</text>
<text text-anchor="start" x="30" y="-791.5" font-family="Helvetica,sans-Serif" font-size="10.00">+ get()</text>
<text text-anchor="start" x="30" y="-780.5" font-family="Helvetica,sans-Serif" font-size="10.00">+ get()</text>
<text text-anchor="start" x="30" y="-769.5" font-family="Helvetica,sans-Serif" font-size="10.00">+ find()</text>
<text text-anchor="start" x="30" y="-758.5" font-family="Helvetica,sans-Serif" font-size="10.00">+ find()</text>
<text text-anchor="start" x="30" y="-747.5" font-family="Helvetica,sans-Serif" font-size="10.00">+ stringify()</text>
<text text-anchor="start" x="30" y="-736.5" font-family="Helvetica,sans-Serif" font-size="10.00">+ getRequiredChild()</text>
<text text-anchor="start" x="30" y="-725.5" font-family="Helvetica,sans-Serif" font-size="10.00">+ getOptionalChild()</text>
<text text-anchor="start" x="30" y="-714.5" font-family="Helvetica,sans-Serif" font-size="10.00">and 6 more...</text>
<text text-anchor="start" x="30" y="-703.5" font-family="Helvetica,sans-Serif" font-size="10.00">+ createFromStream()</text>
<text text-anchor="start" x="30" y="-692.5" font-family="Helvetica,sans-Serif" font-size="10.00">+ createFromString()</text>
<text text-anchor="start" x="30" y="-681.5" font-family="Helvetica,sans-Serif" font-size="10.00">+ createFromFile()</text>
<text text-anchor="start" x="30" y="-670.5" font-family="Helvetica,sans-Serif" font-size="10.00"># XMLObject()</text>
<text text-anchor="start" x="30" y="-659.5" font-family="Helvetica,sans-Serif" font-size="10.00"># createObject()</text>
</a>
</g>
</g>
<!-- Node7&#45;&gt;Node6 -->
<g id="edge6" class="edge">
<title>Node7&#45;&gt;Node6</title>
<path fill="none" stroke="midnightblue" d="M85,-642.35C85,-632.89 85,-623.91 85,-615.72"/>
<polygon fill="none" stroke="midnightblue" points="81.5,-642.37 85,-652.37 88.5,-642.37 81.5,-642.37"/>
</g>
</g>
</svg>
