<?xml version="1.0" encoding="UTF-8" standalone="no"?>
<!DOCTYPE svg PUBLIC "-//W3C//DTD SVG 1.1//EN"
 "http://www.w3.org/Graphics/SVG/1.1/DTD/svg11.dtd">
<!-- Generated by graphviz version 2.43.0 (0)
 -->
<!-- Title: BPMN::SendTask Pages: 1 -->
<svg width="256pt" height="1097pt"
 viewBox="0.00 0.00 256.00 1097.00" xmlns="http://www.w3.org/2000/svg" xmlns:xlink="http://www.w3.org/1999/xlink">
<g id="graph0" class="graph" transform="scale(1 1) rotate(0) translate(4 1093)">
<title>BPMN::SendTask</title>
<!-- Node1 -->
<g id="Node000001" class="node">
<title>Node1</title>
<g id="a_Node000001"><a xlink:title=" ">
<polygon fill="#999999" stroke="transparent" points="157.5,-49 65.5,-49 65.5,0 157.5,0 157.5,-49"/>
<text text-anchor="start" x="70.5" y="-36.5" font-family="Helvetica,sans-Serif" font-size="10.00">BPMN::SendTask</text>
<text text-anchor="start" x="73.5" y="-21.5" font-family="Helvetica,sans-Serif" font-size="10.00">+</text>
<text text-anchor="start" x="90.5" y="-21.5" font-family="Helvetica,sans-Serif" font-size="10.00">element</text>
<text text-anchor="start" x="73.5" y="-6.5" font-family="Helvetica,sans-Serif" font-size="10.00">+</text>
<text text-anchor="start" x="90.5" y="-6.5" font-family="Helvetica,sans-Serif" font-size="10.00">SendTask()</text>
<polygon fill="#666666" stroke="#666666" points="65.5,-31.5 65.5,-31.5 157.5,-31.5 157.5,-31.5 65.5,-31.5"/>
<polygon fill="#666666" stroke="#666666" points="65.5,-16.5 65.5,-16.5 88.5,-16.5 88.5,-16.5 65.5,-16.5"/>
<polygon fill="#666666" stroke="#666666" points="88.5,-16.5 88.5,-16.5 157.5,-16.5 157.5,-16.5 88.5,-16.5"/>
<polygon fill="none" stroke="#666666" points="65.5,0 65.5,-49 157.5,-49 157.5,0 65.5,0"/>
</a>
</g>
</g>
<!-- Node2 -->
<g id="Node000002" class="node">
<title>Node2</title>
<g id="a_Node000002"><a xlink:href="classBPMN_1_1Task.html" target="_top" xlink:title=" ">
<polygon fill="white" stroke="transparent" points="82.5,-134 14.5,-134 14.5,-85 82.5,-85 82.5,-134"/>
<text text-anchor="start" x="19.5" y="-121.5" font-family="Helvetica,sans-Serif" font-size="10.00">BPMN::Task</text>
<text text-anchor="start" x="20" y="-106.5" font-family="Helvetica,sans-Serif" font-size="10.00">+</text>
<text text-anchor="start" x="34.5" y="-106.5" font-family="Helvetica,sans-Serif" font-size="10.00">element</text>
<text text-anchor="start" x="20" y="-91.5" font-family="Helvetica,sans-Serif" font-size="10.00">+</text>
<text text-anchor="start" x="34.5" y="-91.5" font-family="Helvetica,sans-Serif" font-size="10.00">Task()</text>
<polygon fill="#666666" stroke="#666666" points="14.5,-116.5 14.5,-116.5 82.5,-116.5 82.5,-116.5 14.5,-116.5"/>
<polygon fill="#666666" stroke="#666666" points="14.5,-101.5 14.5,-101.5 32.5,-101.5 32.5,-101.5 14.5,-101.5"/>
<polygon fill="#666666" stroke="#666666" points="32.5,-101.5 32.5,-101.5 82.5,-101.5 82.5,-101.5 32.5,-101.5"/>
<polygon fill="none" stroke="#666666" points="14.5,-85 14.5,-134 82.5,-134 82.5,-85 14.5,-85"/>
</a>
</g>
</g>
<!-- Node2&#45;&gt;Node1 -->
<g id="edge1_Node000001_Node000002" class="edge">
<title>Node2&#45;&gt;Node1</title>
<g id="a_edge1_Node000001_Node000002"><a xlink:title=" ">
<path fill="none" stroke="#63b8ff" d="M72.6,-76.75C79.57,-67.57 87.05,-57.71 93.57,-49.12"/>
<polygon fill="none" stroke="#63b8ff" points="69.64,-74.86 66.38,-84.94 75.22,-79.09 69.64,-74.86"/>
</a>
</g>
</g>
<!-- Node3 -->
<g id="Node000003" class="node">
<title>Node3</title>
<g id="a_Node000003"><a xlink:href="classBPMN_1_1Activity.html" target="_top" xlink:title=" ">
<polygon fill="white" stroke="transparent" points="115,-364 0,-364 0,-255 115,-255 115,-364"/>
<text text-anchor="start" x="21.5" y="-351.5" font-family="Helvetica,sans-Serif" font-size="10.00">BPMN::Activity</text>
<text text-anchor="start" x="4.5" y="-336.5" font-family="Helvetica,sans-Serif" font-size="10.00">+</text>
<text text-anchor="start" x="17.5" y="-336.5" font-family="Helvetica,sans-Serif" font-size="10.00">boundaryEvents</text>
<text text-anchor="start" x="4.5" y="-321.5" font-family="Helvetica,sans-Serif" font-size="10.00">+</text>
<text text-anchor="start" x="17.5" y="-321.5" font-family="Helvetica,sans-Serif" font-size="10.00">compensatedBy</text>
<text text-anchor="start" x="4.5" y="-306.5" font-family="Helvetica,sans-Serif" font-size="10.00">+</text>
<text text-anchor="start" x="17.5" y="-306.5" font-family="Helvetica,sans-Serif" font-size="10.00">isForCompensation</text>
<text text-anchor="start" x="4.5" y="-291.5" font-family="Helvetica,sans-Serif" font-size="10.00">+</text>
<text text-anchor="start" x="17.5" y="-291.5" font-family="Helvetica,sans-Serif" font-size="10.00">loopCharacteristics</text>
<text text-anchor="start" x="4.5" y="-276.5" font-family="Helvetica,sans-Serif" font-size="10.00">+</text>
<text text-anchor="start" x="17.5" y="-276.5" font-family="Helvetica,sans-Serif" font-size="10.00">element</text>
<text text-anchor="start" x="4.5" y="-261.5" font-family="Helvetica,sans-Serif" font-size="10.00">+</text>
<text text-anchor="start" x="17.5" y="-261.5" font-family="Helvetica,sans-Serif" font-size="10.00">Activity()</text>
<polygon fill="#666666" stroke="#666666" points="0.5,-346.5 0.5,-346.5 115.5,-346.5 115.5,-346.5 0.5,-346.5"/>
<polygon fill="#666666" stroke="#666666" points="0.5,-271.5 0.5,-271.5 15.5,-271.5 15.5,-271.5 0.5,-271.5"/>
<polygon fill="#666666" stroke="#666666" points="15.5,-271.5 15.5,-271.5 115.5,-271.5 115.5,-271.5 15.5,-271.5"/>
<polygon fill="none" stroke="#666666" points="0,-255 0,-364 115,-364 115,-255 0,-255"/>
</a>
</g>
</g>
<!-- Node3&#45;&gt;Node2 -->
<g id="edge2_Node000002_Node000003" class="edge">
<title>Node3&#45;&gt;Node2</title>
<g id="a_edge2_Node000002_Node000003"><a xlink:title=" ">
<path fill="none" stroke="#63b8ff" d="M54.59,-244.51C52.88,-206.81 50.81,-161.32 49.58,-134.22"/>
<polygon fill="none" stroke="#63b8ff" points="51.11,-245.09 55.06,-254.92 58.11,-244.77 51.11,-245.09"/>
</a>
</g>
</g>
<!-- Node4 -->
<g id="Node000004" class="node">
<title>Node4</title>
<g id="a_Node000004"><a xlink:href="classBPMN_1_1FlowNode.html" target="_top" xlink:title="Base class for BPMN elements that may contain incoming and outgoing sequence flows.">
<polygon fill="white" stroke="transparent" points="161,-494 66,-494 66,-400 161,-400 161,-494"/>
<text text-anchor="start" x="71.5" y="-482" font-family="Helvetica,sans-Serif" font-size="10.00">BPMN::FlowNode</text>
<text text-anchor="start" x="74.5" y="-467" font-family="Helvetica,sans-Serif" font-size="10.00">+</text>
<text text-anchor="start" x="91.5" y="-467" font-family="Helvetica,sans-Serif" font-size="10.00">element</text>
<text text-anchor="start" x="74.5" y="-452" font-family="Helvetica,sans-Serif" font-size="10.00">+</text>
<text text-anchor="start" x="91.5" y="-452" font-family="Helvetica,sans-Serif" font-size="10.00">name</text>
<text text-anchor="start" x="74.5" y="-437" font-family="Helvetica,sans-Serif" font-size="10.00">+</text>
<text text-anchor="start" x="91.5" y="-437" font-family="Helvetica,sans-Serif" font-size="10.00">incoming</text>
<text text-anchor="start" x="74.5" y="-422" font-family="Helvetica,sans-Serif" font-size="10.00">+</text>
<text text-anchor="start" x="91.5" y="-422" font-family="Helvetica,sans-Serif" font-size="10.00">outgoing</text>
<text text-anchor="start" x="74.5" y="-407" font-family="Helvetica,sans-Serif" font-size="10.00">+</text>
<text text-anchor="start" x="91.5" y="-407" font-family="Helvetica,sans-Serif" font-size="10.00">FlowNode()</text>
<polygon fill="#666666" stroke="#666666" points="66.5,-477 66.5,-477 161.5,-477 161.5,-477 66.5,-477"/>
<polygon fill="#666666" stroke="#666666" points="66.5,-417 66.5,-417 89.5,-417 89.5,-417 66.5,-417"/>
<polygon fill="#666666" stroke="#666666" points="89.5,-417 89.5,-417 161.5,-417 161.5,-417 89.5,-417"/>
<polygon fill="none" stroke="#666666" points="66,-400 66,-494 161,-494 161,-400 66,-400"/>
</a>
</g>
</g>
<!-- Node4&#45;&gt;Node3 -->
<g id="edge3_Node000003_Node000004" class="edge">
<title>Node4&#45;&gt;Node3</title>
<g id="a_edge3_Node000003_Node000004"><a xlink:title=" ">
<path fill="none" stroke="#63b8ff" d="M90.53,-390.42C86.92,-381.69 83.2,-372.69 79.61,-364.01"/>
<polygon fill="none" stroke="#63b8ff" points="87.33,-391.84 94.38,-399.75 93.8,-389.17 87.33,-391.84"/>
</a>
</g>
</g>
<!-- Node11 -->
<g id="Node000011" class="node">
<title>Node11</title>
<g id="a_Node000011"><a xlink:href="classBPMN_1_1Event.html" target="_top" xlink:title=" ">
<polygon fill="white" stroke="transparent" points="209.5,-334 135.5,-334 135.5,-285 209.5,-285 209.5,-334"/>
<text text-anchor="start" x="140.5" y="-321.5" font-family="Helvetica,sans-Serif" font-size="10.00">BPMN::Event</text>
<text text-anchor="start" x="142.5" y="-306.5" font-family="Helvetica,sans-Serif" font-size="10.00">+</text>
<text text-anchor="start" x="158.5" y="-306.5" font-family="Helvetica,sans-Serif" font-size="10.00">element</text>
<text text-anchor="start" x="142.5" y="-291.5" font-family="Helvetica,sans-Serif" font-size="10.00">+</text>
<text text-anchor="start" x="158.5" y="-291.5" font-family="Helvetica,sans-Serif" font-size="10.00">Event()</text>
<polygon fill="#666666" stroke="#666666" points="135.5,-316.5 135.5,-316.5 209.5,-316.5 209.5,-316.5 135.5,-316.5"/>
<polygon fill="#666666" stroke="#666666" points="135.5,-301.5 135.5,-301.5 156.5,-301.5 156.5,-301.5 135.5,-301.5"/>
<polygon fill="#666666" stroke="#666666" points="156.5,-301.5 156.5,-301.5 209.5,-301.5 209.5,-301.5 156.5,-301.5"/>
<polygon fill="none" stroke="#666666" points="135.5,-285 135.5,-334 209.5,-334 209.5,-285 135.5,-285"/>
</a>
</g>
</g>
<!-- Node4&#45;&gt;Node11 -->
<g id="edge11_Node000011_Node000004" class="edge">
<title>Node4&#45;&gt;Node11</title>
<g id="a_edge11_Node000011_Node000004"><a xlink:title=" ">
<path fill="none" stroke="#63b8ff" d="M137.65,-390.53C146.23,-370.84 155.42,-349.72 162.21,-334.12"/>
<polygon fill="none" stroke="#63b8ff" points="134.42,-389.18 133.64,-399.75 140.84,-391.98 134.42,-389.18"/>
</a>
</g>
</g>
<!-- Node5 -->
<g id="Node000005" class="node">
<title>Node5</title>
<g id="a_Node000005"><a xlink:href="classBPMN_1_1ChildNode.html" target="_top" xlink:title="Base class for BPMN elements within a Scope.">
<polygon fill="white" stroke="transparent" points="161.5,-609 65.5,-609 65.5,-530 161.5,-530 161.5,-609"/>
<text text-anchor="start" x="70.5" y="-596.5" font-family="Helvetica,sans-Serif" font-size="10.00">BPMN::ChildNode</text>
<text text-anchor="start" x="73.5" y="-581.5" font-family="Helvetica,sans-Serif" font-size="10.00">+</text>
<text text-anchor="start" x="90.5" y="-581.5" font-family="Helvetica,sans-Serif" font-size="10.00">parent</text>
<text text-anchor="start" x="73.5" y="-566.5" font-family="Helvetica,sans-Serif" font-size="10.00">+</text>
<text text-anchor="start" x="90.5" y="-566.5" font-family="Helvetica,sans-Serif" font-size="10.00">ChildNode()</text>
<text text-anchor="start" x="73.5" y="-551.5" font-family="Helvetica,sans-Serif" font-size="10.00">+</text>
<text text-anchor="start" x="90.5" y="-551.5" font-family="Helvetica,sans-Serif" font-size="10.00">ancestor()</text>
<text text-anchor="start" x="73.5" y="-536.5" font-family="Helvetica,sans-Serif" font-size="10.00">+</text>
<text text-anchor="start" x="90.5" y="-536.5" font-family="Helvetica,sans-Serif" font-size="10.00">ancestor()</text>
<polygon fill="#666666" stroke="#666666" points="65.5,-591.5 65.5,-591.5 161.5,-591.5 161.5,-591.5 65.5,-591.5"/>
<polygon fill="#666666" stroke="#666666" points="65.5,-576.5 65.5,-576.5 88.5,-576.5 88.5,-576.5 65.5,-576.5"/>
<polygon fill="#666666" stroke="#666666" points="88.5,-576.5 88.5,-576.5 161.5,-576.5 161.5,-576.5 88.5,-576.5"/>
<polygon fill="none" stroke="#666666" points="65.5,-530 65.5,-609 161.5,-609 161.5,-530 65.5,-530"/>
</a>
</g>
</g>
<!-- Node5&#45;&gt;Node4 -->
<g id="edge4_Node000004_Node000005" class="edge">
<title>Node5&#45;&gt;Node4</title>
<g id="a_edge4_Node000004_Node000005"><a xlink:title=" ">
<path fill="none" stroke="#63b8ff" d="M113.5,-519.68C113.5,-511.3 113.5,-502.61 113.5,-494.29"/>
<polygon fill="none" stroke="#63b8ff" points="110,-519.71 113.5,-529.71 117,-519.71 110,-519.71"/>
</a>
</g>
</g>
<!-- Node6 -->
<g id="Node000006" class="node">
<title>Node6</title>
<g id="a_Node000006"><a xlink:href="classBPMN_1_1Node.html" target="_top" xlink:title="Base class for all nodes in a BPMN model.">
<polygon fill="white" stroke="transparent" points="149,-769 78,-769 78,-645 149,-645 149,-769"/>
<text text-anchor="start" x="83.5" y="-757" font-family="Helvetica,sans-Serif" font-size="10.00">BPMN::Node</text>
<text text-anchor="start" x="83.5" y="-742" font-family="Helvetica,sans-Serif" font-size="10.00">+</text>
<text text-anchor="start" x="97.5" y="-742" font-family="Helvetica,sans-Serif" font-size="10.00">receiving</text>
<text text-anchor="start" x="83.5" y="-727" font-family="Helvetica,sans-Serif" font-size="10.00">+</text>
<text text-anchor="start" x="97.5" y="-727" font-family="Helvetica,sans-Serif" font-size="10.00">sending</text>
<text text-anchor="start" x="83.5" y="-712" font-family="Helvetica,sans-Serif" font-size="10.00">+</text>
<text text-anchor="start" x="97.5" y="-712" font-family="Helvetica,sans-Serif" font-size="10.00">Node()</text>
<text text-anchor="start" x="83.5" y="-697" font-family="Helvetica,sans-Serif" font-size="10.00">+</text>
<text text-anchor="start" x="97.5" y="-697" font-family="Helvetica,sans-Serif" font-size="10.00">find()</text>
<text text-anchor="start" x="83.5" y="-682" font-family="Helvetica,sans-Serif" font-size="10.00">+</text>
<text text-anchor="start" x="97.5" y="-682" font-family="Helvetica,sans-Serif" font-size="10.00">find()</text>
<text text-anchor="start" x="83.5" y="-667" font-family="Helvetica,sans-Serif" font-size="10.00">+</text>
<text text-anchor="start" x="97.5" y="-667" font-family="Helvetica,sans-Serif" font-size="10.00">find_all()</text>
<text text-anchor="start" x="83.5" y="-652" font-family="Helvetica,sans-Serif" font-size="10.00">+</text>
<text text-anchor="start" x="97.5" y="-652" font-family="Helvetica,sans-Serif" font-size="10.00">find_all()</text>
<polygon fill="#666666" stroke="#666666" points="78.5,-752 78.5,-752 149.5,-752 149.5,-752 78.5,-752"/>
<polygon fill="#666666" stroke="#666666" points="78.5,-722 78.5,-722 95.5,-722 95.5,-722 78.5,-722"/>
<polygon fill="#666666" stroke="#666666" points="95.5,-722 95.5,-722 149.5,-722 149.5,-722 95.5,-722"/>
<polygon fill="none" stroke="#666666" points="78,-645 78,-769 149,-769 149,-645 78,-645"/>
</a>
</g>
</g>
<!-- Node6&#45;&gt;Node5 -->
<g id="edge5_Node000005_Node000006" class="edge">
<title>Node6&#45;&gt;Node5</title>
<g id="a_edge5_Node000005_Node000006"><a xlink:title=" ">
<path fill="none" stroke="#63b8ff" d="M113.5,-634.93C113.5,-626.02 113.5,-617.19 113.5,-609.05"/>
<polygon fill="none" stroke="#63b8ff" points="110,-634.99 113.5,-644.99 117,-634.99 110,-634.99"/>
</a>
</g>
</g>
<!-- Node7 -->
<g id="Node000007" class="node">
<title>Node7</title>
<g id="a_Node000007"><a xlink:href="classBPMN_1_1BaseElement.html" target="_top" xlink:title="Base class for all core BPMN elements.">
<polygon fill="white" stroke="transparent" points="171,-944 56,-944 56,-805 171,-805 171,-944"/>
<text text-anchor="start" x="64" y="-931.5" font-family="Helvetica,sans-Serif" font-size="10.00">BPMN::BaseElement</text>
<text text-anchor="start" x="60.5" y="-916.5" font-family="Helvetica,sans-Serif" font-size="10.00">+</text>
<text text-anchor="start" x="73.5" y="-916.5" font-family="Helvetica,sans-Serif" font-size="10.00">element</text>
<text text-anchor="start" x="60.5" y="-901.5" font-family="Helvetica,sans-Serif" font-size="10.00">+</text>
<text text-anchor="start" x="73.5" y="-901.5" font-family="Helvetica,sans-Serif" font-size="10.00">id</text>
<text text-anchor="start" x="60.5" y="-886.5" font-family="Helvetica,sans-Serif" font-size="10.00">+</text>
<text text-anchor="start" x="73.5" y="-886.5" font-family="Helvetica,sans-Serif" font-size="10.00">extensionElements</text>
<text text-anchor="start" x="60.5" y="-871.5" font-family="Helvetica,sans-Serif" font-size="10.00">+</text>
<text text-anchor="start" x="73.5" y="-871.5" font-family="Helvetica,sans-Serif" font-size="10.00">BaseElement()</text>
<text text-anchor="start" x="60.5" y="-856.5" font-family="Helvetica,sans-Serif" font-size="10.00">+</text>
<text text-anchor="start" x="73.5" y="-856.5" font-family="Helvetica,sans-Serif" font-size="10.00">is()</text>
<text text-anchor="start" x="60.5" y="-841.5" font-family="Helvetica,sans-Serif" font-size="10.00">+</text>
<text text-anchor="start" x="73.5" y="-841.5" font-family="Helvetica,sans-Serif" font-size="10.00">is()</text>
<text text-anchor="start" x="60.5" y="-826.5" font-family="Helvetica,sans-Serif" font-size="10.00">+</text>
<text text-anchor="start" x="73.5" y="-826.5" font-family="Helvetica,sans-Serif" font-size="10.00">get()</text>
<text text-anchor="start" x="60.5" y="-811.5" font-family="Helvetica,sans-Serif" font-size="10.00">+</text>
<text text-anchor="start" x="73.5" y="-811.5" font-family="Helvetica,sans-Serif" font-size="10.00">get()</text>
<polygon fill="#666666" stroke="#666666" points="56.5,-926.5 56.5,-926.5 171.5,-926.5 171.5,-926.5 56.5,-926.5"/>
<polygon fill="#666666" stroke="#666666" points="56.5,-881.5 56.5,-881.5 71.5,-881.5 71.5,-881.5 56.5,-881.5"/>
<polygon fill="#666666" stroke="#666666" points="71.5,-881.5 71.5,-881.5 171.5,-881.5 171.5,-881.5 71.5,-881.5"/>
<polygon fill="none" stroke="#666666" points="56,-805 56,-944 171,-944 171,-805 56,-805"/>
</a>
</g>
</g>
<!-- Node7&#45;&gt;Node6 -->
<g id="edge6_Node000006_Node000007" class="edge">
<title>Node7&#45;&gt;Node6</title>
<g id="a_edge6_Node000006_Node000007"><a xlink:title=" ">
<path fill="none" stroke="#63b8ff" d="M113.5,-794.71C113.5,-786.12 113.5,-777.47 113.5,-769.14"/>
<polygon fill="none" stroke="#63b8ff" points="110,-794.75 113.5,-804.75 117,-794.75 110,-794.75"/>
</a>
</g>
</g>
<!-- Node8 -->
<g id="Node000008" class="node">
<title>Node8</title>
<g id="a_Node000008"><a xlink:href="classBPMN_1_1Element.html" target="_top" xlink:title="Abstract base class for all elements in a BPMN model.">
<polygon fill="white" stroke="transparent" points="156.5,-1089 70.5,-1089 70.5,-980 156.5,-980 156.5,-1089"/>
<text text-anchor="start" x="75.5" y="-1076.5" font-family="Helvetica,sans-Serif" font-size="10.00">BPMN::Element</text>
<text text-anchor="start" x="111.5" y="-1061.5" font-family="Helvetica,sans-Serif" font-size="10.00"> </text>
<text text-anchor="start" x="75.5" y="-1046.5" font-family="Helvetica,sans-Serif" font-size="10.00">+</text>
<text text-anchor="start" x="89.5" y="-1046.5" font-family="Helvetica,sans-Serif" font-size="10.00">~Element()</text>
<text text-anchor="start" x="75.5" y="-1031.5" font-family="Helvetica,sans-Serif" font-size="10.00">+</text>
<text text-anchor="start" x="89.5" y="-1031.5" font-family="Helvetica,sans-Serif" font-size="10.00">represents()</text>
<text text-anchor="start" x="75.5" y="-1016.5" font-family="Helvetica,sans-Serif" font-size="10.00">+</text>
<text text-anchor="start" x="89.5" y="-1016.5" font-family="Helvetica,sans-Serif" font-size="10.00">represents()</text>
<text text-anchor="start" x="75.5" y="-1001.5" font-family="Helvetica,sans-Serif" font-size="10.00">+</text>
<text text-anchor="start" x="89.5" y="-1001.5" font-family="Helvetica,sans-Serif" font-size="10.00">as()</text>
<text text-anchor="start" x="75.5" y="-986.5" font-family="Helvetica,sans-Serif" font-size="10.00">+</text>
<text text-anchor="start" x="89.5" y="-986.5" font-family="Helvetica,sans-Serif" font-size="10.00">as()</text>
<polygon fill="#666666" stroke="#666666" points="70.5,-1071.5 70.5,-1071.5 156.5,-1071.5 156.5,-1071.5 70.5,-1071.5"/>
<polygon fill="#666666" stroke="#666666" points="70.5,-1056.5 70.5,-1056.5 156.5,-1056.5 156.5,-1056.5 70.5,-1056.5"/>
<polygon fill="none" stroke="#666666" points="70.5,-980 70.5,-1089 156.5,-1089 156.5,-980 70.5,-980"/>
</a>
</g>
</g>
<!-- Node8&#45;&gt;Node7 -->
<g id="edge7_Node000007_Node000008" class="edge">
<title>Node8&#45;&gt;Node7</title>
<g id="a_edge7_Node000007_Node000008"><a xlink:title=" ">
<path fill="none" stroke="#63b8ff" d="M113.5,-969.55C113.5,-961.23 113.5,-952.67 113.5,-944.28"/>
<polygon fill="none" stroke="#63b8ff" points="110,-969.57 113.5,-979.57 117,-969.57 110,-969.57"/>
</a>
</g>
</g>
<!-- Node9 -->
<g id="Node000009" class="node">
<title>Node9</title>
<g id="a_Node000009"><a xlink:href="classBPMN_1_1MessageThrowEvent.html" target="_top" xlink:title=" ">
<polygon fill="white" stroke="transparent" points="248,-134 101,-134 101,-85 248,-85 248,-134"/>
<text text-anchor="start" x="106.5" y="-121.5" font-family="Helvetica,sans-Serif" font-size="10.00">BPMN::MessageThrowEvent</text>
<text text-anchor="start" x="173" y="-106.5" font-family="Helvetica,sans-Serif" font-size="10.00"> </text>
<text text-anchor="start" x="109.5" y="-91.5" font-family="Helvetica,sans-Serif" font-size="10.00">+</text>
<text text-anchor="start" x="126.5" y="-91.5" font-family="Helvetica,sans-Serif" font-size="10.00">MessageThrowEvent()</text>
<polygon fill="#666666" stroke="#666666" points="101.5,-116.5 101.5,-116.5 248.5,-116.5 248.5,-116.5 101.5,-116.5"/>
<polygon fill="#666666" stroke="#666666" points="101.5,-101.5 101.5,-101.5 248.5,-101.5 248.5,-101.5 101.5,-101.5"/>
<polygon fill="none" stroke="#666666" points="101,-85 101,-134 248,-134 248,-85 101,-85"/>
</a>
</g>
</g>
<!-- Node9&#45;&gt;Node1 -->
<g id="edge8_Node000001_Node000009" class="edge">
<title>Node9&#45;&gt;Node1</title>
<g id="a_edge8_Node000001_Node000009"><a xlink:title=" ">
<path fill="none" stroke="#63b8ff" d="M150.4,-76.75C143.43,-67.57 135.95,-57.71 129.43,-49.12"/>
<polygon fill="none" stroke="#63b8ff" points="147.78,-79.09 156.62,-84.94 153.36,-74.86 147.78,-79.09"/>
</a>
</g>
</g>
<!-- Node10 -->
<g id="Node000010" class="node">
<title>Node10</title>
<g id="a_Node000010"><a xlink:href="classBPMN_1_1ThrowEvent.html" target="_top" xlink:title=" ">
<polygon fill="white" stroke="transparent" points="225.5,-219 121.5,-219 121.5,-170 225.5,-170 225.5,-219"/>
<text text-anchor="start" x="126.5" y="-206.5" font-family="Helvetica,sans-Serif" font-size="10.00">BPMN::ThrowEvent</text>
<text text-anchor="start" x="129.5" y="-191.5" font-family="Helvetica,sans-Serif" font-size="10.00">+</text>
<text text-anchor="start" x="146.5" y="-191.5" font-family="Helvetica,sans-Serif" font-size="10.00">element</text>
<text text-anchor="start" x="129.5" y="-176.5" font-family="Helvetica,sans-Serif" font-size="10.00">+</text>
<text text-anchor="start" x="146.5" y="-176.5" font-family="Helvetica,sans-Serif" font-size="10.00">ThrowEvent()</text>
<polygon fill="#666666" stroke="#666666" points="121.5,-201.5 121.5,-201.5 225.5,-201.5 225.5,-201.5 121.5,-201.5"/>
<polygon fill="#666666" stroke="#666666" points="121.5,-186.5 121.5,-186.5 144.5,-186.5 144.5,-186.5 121.5,-186.5"/>
<polygon fill="#666666" stroke="#666666" points="144.5,-186.5 144.5,-186.5 225.5,-186.5 225.5,-186.5 144.5,-186.5"/>
<polygon fill="none" stroke="#666666" points="121.5,-170 121.5,-219 225.5,-219 225.5,-170 121.5,-170"/>
</a>
</g>
</g>
<!-- Node10&#45;&gt;Node9 -->
<g id="edge9_Node000009_Node000010" class="edge">
<title>Node10&#45;&gt;Node9</title>
<g id="a_edge9_Node000009_Node000010"><a xlink:title=" ">
<path fill="none" stroke="#63b8ff" d="M173.91,-159.77C174.01,-151.17 174.12,-142.1 174.22,-134.12"/>
<polygon fill="none" stroke="#63b8ff" points="170.4,-159.9 173.78,-169.94 177.4,-159.98 170.4,-159.9"/>
</a>
</g>
</g>
<!-- Node11&#45;&gt;Node10 -->
<g id="edge10_Node000010_Node000011" class="edge">
<title>Node11&#45;&gt;Node10</title>
<g id="a_edge10_Node000010_Node000011"><a xlink:title=" ">
<path fill="none" stroke="#63b8ff" d="M172.8,-274.76C172.96,-256.85 173.15,-235.27 173.29,-219.16"/>
<polygon fill="none" stroke="#63b8ff" points="169.3,-274.78 172.71,-284.81 176.3,-274.84 169.3,-274.78"/>
</a>
</g>
</g>
</g>
</svg>
