<?xml version="1.0" encoding="UTF-8" standalone="no"?>
<!DOCTYPE svg PUBLIC "-//W3C//DTD SVG 1.1//EN"
 "http://www.w3.org/Graphics/SVG/1.1/DTD/svg11.dtd">
<!-- Generated by graphviz version 2.43.0 (0)
 -->
<!-- Title: BPMN::BoundaryEvent Pages: 1 -->
<svg width="1371pt" height="1078pt"
 viewBox="0.00 0.00 1371.00 1078.00" xmlns="http://www.w3.org/2000/svg" xmlns:xlink="http://www.w3.org/1999/xlink">
<g id="graph0" class="graph" transform="scale(1 1) rotate(0) translate(4 1074)">
<title>BPMN::BoundaryEvent</title>
<!-- Node1 -->
<g id="Node000001" class="node">
<title>Node1</title>
<g id="a_Node000001"><a xlink:title="Base class for all boundary events attached to an Activity.">
<polygon fill="#999999" stroke="transparent" points="745.5,-175 625.5,-175 625.5,-96 745.5,-96 745.5,-175"/>
<text text-anchor="start" x="630.5" y="-162.5" font-family="Helvetica,sans-Serif" font-size="10.00">BPMN::BoundaryEvent</text>
<text text-anchor="start" x="630.5" y="-147.5" font-family="Helvetica,sans-Serif" font-size="10.00">+</text>
<text text-anchor="start" x="644.5" y="-147.5" font-family="Helvetica,sans-Serif" font-size="10.00">isInterrupting</text>
<text text-anchor="start" x="630.5" y="-132.5" font-family="Helvetica,sans-Serif" font-size="10.00">+</text>
<text text-anchor="start" x="644.5" y="-132.5" font-family="Helvetica,sans-Serif" font-size="10.00">attachedTo</text>
<text text-anchor="start" x="630.5" y="-117.5" font-family="Helvetica,sans-Serif" font-size="10.00">+</text>
<text text-anchor="start" x="644.5" y="-117.5" font-family="Helvetica,sans-Serif" font-size="10.00">BoundaryEvent()</text>
<text text-anchor="start" x="630.5" y="-102.5" font-family="Helvetica,sans-Serif" font-size="10.00">#</text>
<text text-anchor="start" x="644.5" y="-102.5" font-family="Helvetica,sans-Serif" font-size="10.00">resolveReference()</text>
<polygon fill="#666666" stroke="#666666" points="625.5,-157.5 625.5,-157.5 745.5,-157.5 745.5,-157.5 625.5,-157.5"/>
<polygon fill="#666666" stroke="#666666" points="625.5,-127.5 625.5,-127.5 642.5,-127.5 642.5,-127.5 625.5,-127.5"/>
<polygon fill="#666666" stroke="#666666" points="642.5,-127.5 642.5,-127.5 745.5,-127.5 745.5,-127.5 642.5,-127.5"/>
<polygon fill="none" stroke="#666666" points="625.5,-96 625.5,-175 745.5,-175 745.5,-96 625.5,-96"/>
</a>
</g>
</g>
<!-- Node9 -->
<g id="Node000009" class="node">
<title>Node9</title>
<g id="a_Node000009"><a xlink:href="classBPMN_1_1CancelBoundaryEvent.html" target="_top" xlink:title=" ">
<polygon fill="white" stroke="transparent" points="153,-54.5 0,-54.5 0,-5.5 153,-5.5 153,-54.5"/>
<text text-anchor="start" x="5.5" y="-42" font-family="Helvetica,sans-Serif" font-size="10.00">BPMN::CancelBoundaryEvent</text>
<text text-anchor="start" x="8.5" y="-27" font-family="Helvetica,sans-Serif" font-size="10.00">+</text>
<text text-anchor="start" x="25.5" y="-27" font-family="Helvetica,sans-Serif" font-size="10.00">element</text>
<text text-anchor="start" x="8.5" y="-12" font-family="Helvetica,sans-Serif" font-size="10.00">+</text>
<text text-anchor="start" x="25.5" y="-12" font-family="Helvetica,sans-Serif" font-size="10.00">CancelBoundaryEvent()</text>
<polygon fill="#666666" stroke="#666666" points="0.5,-37 0.5,-37 153.5,-37 153.5,-37 0.5,-37"/>
<polygon fill="#666666" stroke="#666666" points="0.5,-22 0.5,-22 23.5,-22 23.5,-22 0.5,-22"/>
<polygon fill="#666666" stroke="#666666" points="23.5,-22 23.5,-22 153.5,-22 153.5,-22 23.5,-22"/>
<polygon fill="none" stroke="#666666" points="0,-5.5 0,-54.5 153,-54.5 153,-5.5 0,-5.5"/>
</a>
</g>
</g>
<!-- Node1&#45;&gt;Node9 -->
<g id="edge8_Node000001_Node000009" class="edge">
<title>Node1&#45;&gt;Node9</title>
<g id="a_edge8_Node000001_Node000009"><a xlink:title=" ">
<path fill="none" stroke="#63b8ff" d="M615.38,-128.74C514.12,-119.49 321.55,-98.32 161.5,-60 154.98,-58.44 148.25,-56.58 141.57,-54.58"/>
<polygon fill="none" stroke="#63b8ff" points="615.21,-132.24 625.49,-129.66 615.84,-125.27 615.21,-132.24"/>
</a>
</g>
</g>
<!-- Node10 -->
<g id="Node000010" class="node">
<title>Node10</title>
<g id="a_Node000010"><a xlink:href="classBPMN_1_1CompensateBoundaryEvent.html" target="_top" xlink:title=" ">
<polygon fill="white" stroke="transparent" points="336,-60 171,-60 171,0 336,0 336,-60"/>
<text text-anchor="start" x="182" y="-48" font-family="Helvetica,sans-Serif" font-size="10.00">BPMN::CompensateBoundary</text>
<text text-anchor="start" x="240" y="-37" font-family="Helvetica,sans-Serif" font-size="10.00">Event</text>
<text text-anchor="start" x="175.5" y="-22" font-family="Helvetica,sans-Serif" font-size="10.00">+</text>
<text text-anchor="start" x="188.5" y="-22" font-family="Helvetica,sans-Serif" font-size="10.00">element</text>
<text text-anchor="start" x="175.5" y="-7" font-family="Helvetica,sans-Serif" font-size="10.00">+</text>
<text text-anchor="start" x="188.5" y="-7" font-family="Helvetica,sans-Serif" font-size="10.00">CompensateBoundaryEvent()</text>
<polygon fill="#666666" stroke="#666666" points="171.5,-32 171.5,-32 336.5,-32 336.5,-32 171.5,-32"/>
<polygon fill="#666666" stroke="#666666" points="171.5,-17 171.5,-17 186.5,-17 186.5,-17 171.5,-17"/>
<polygon fill="#666666" stroke="#666666" points="186.5,-17 186.5,-17 336.5,-17 336.5,-17 186.5,-17"/>
<polygon fill="none" stroke="#666666" points="171,0 171,-60 336,-60 336,0 171,0"/>
</a>
</g>
</g>
<!-- Node1&#45;&gt;Node10 -->
<g id="edge9_Node000001_Node000010" class="edge">
<title>Node1&#45;&gt;Node10</title>
<g id="a_edge9_Node000001_Node000010"><a xlink:title=" ">
<path fill="none" stroke="#63b8ff" d="M615.41,-121.18C546.15,-107.55 437.39,-84.89 344.5,-60 341.78,-59.27 339.01,-58.51 336.23,-57.73"/>
<polygon fill="none" stroke="#63b8ff" points="614.85,-124.64 625.34,-123.12 616.2,-117.77 614.85,-124.64"/>
</a>
</g>
</g>
<!-- Node11 -->
<g id="Node000011" class="node">
<title>Node11</title>
<g id="a_Node000011"><a xlink:href="classBPMN_1_1ConditionalBoundaryEvent.html" target="_top" xlink:title=" ">
<polygon fill="white" stroke="transparent" points="513,-60 354,-60 354,0 513,0 513,-60"/>
<text text-anchor="start" x="365" y="-48" font-family="Helvetica,sans-Serif" font-size="10.00">BPMN::ConditionalBoundary</text>
<text text-anchor="start" x="420" y="-37" font-family="Helvetica,sans-Serif" font-size="10.00">Event</text>
<text text-anchor="start" x="358.5" y="-22" font-family="Helvetica,sans-Serif" font-size="10.00">+</text>
<text text-anchor="start" x="371.5" y="-22" font-family="Helvetica,sans-Serif" font-size="10.00">element</text>
<text text-anchor="start" x="358.5" y="-7" font-family="Helvetica,sans-Serif" font-size="10.00">+</text>
<text text-anchor="start" x="371.5" y="-7" font-family="Helvetica,sans-Serif" font-size="10.00">ConditionalBoundaryEvent()</text>
<polygon fill="#666666" stroke="#666666" points="354.5,-32 354.5,-32 513.5,-32 513.5,-32 354.5,-32"/>
<polygon fill="#666666" stroke="#666666" points="354.5,-17 354.5,-17 369.5,-17 369.5,-17 354.5,-17"/>
<polygon fill="#666666" stroke="#666666" points="369.5,-17 369.5,-17 513.5,-17 513.5,-17 369.5,-17"/>
<polygon fill="none" stroke="#666666" points="354,0 354,-60 513,-60 513,0 354,0"/>
</a>
</g>
</g>
<!-- Node1&#45;&gt;Node11 -->
<g id="edge10_Node000001_Node000011" class="edge">
<title>Node1&#45;&gt;Node11</title>
<g id="a_edge10_Node000001_Node000011"><a xlink:title=" ">
<path fill="none" stroke="#63b8ff" d="M615.86,-105.9C581.11,-91.63 539.16,-74.4 504.26,-60.06"/>
<polygon fill="none" stroke="#63b8ff" points="614.88,-109.28 625.46,-109.84 617.54,-102.8 614.88,-109.28"/>
</a>
</g>
</g>
<!-- Node12 -->
<g id="Node000012" class="node">
<title>Node12</title>
<g id="a_Node000012"><a xlink:href="classBPMN_1_1ErrorBoundaryEvent.html" target="_top" xlink:title=" ">
<polygon fill="white" stroke="transparent" points="674,-54.5 531,-54.5 531,-5.5 674,-5.5 674,-54.5"/>
<text text-anchor="start" x="536.5" y="-42" font-family="Helvetica,sans-Serif" font-size="10.00">BPMN::ErrorBoundaryEvent</text>
<text text-anchor="start" x="539.5" y="-27" font-family="Helvetica,sans-Serif" font-size="10.00">+</text>
<text text-anchor="start" x="556.5" y="-27" font-family="Helvetica,sans-Serif" font-size="10.00">element</text>
<text text-anchor="start" x="539.5" y="-12" font-family="Helvetica,sans-Serif" font-size="10.00">+</text>
<text text-anchor="start" x="556.5" y="-12" font-family="Helvetica,sans-Serif" font-size="10.00">ErrorBoundaryEvent()</text>
<polygon fill="#666666" stroke="#666666" points="531.5,-37 531.5,-37 674.5,-37 674.5,-37 531.5,-37"/>
<polygon fill="#666666" stroke="#666666" points="531.5,-22 531.5,-22 554.5,-22 554.5,-22 531.5,-22"/>
<polygon fill="#666666" stroke="#666666" points="554.5,-22 554.5,-22 674.5,-22 674.5,-22 554.5,-22"/>
<polygon fill="none" stroke="#666666" points="531,-5.5 531,-54.5 674,-54.5 674,-5.5 531,-5.5"/>
</a>
</g>
</g>
<!-- Node1&#45;&gt;Node12 -->
<g id="edge11_Node000001_Node000012" class="edge">
<title>Node1&#45;&gt;Node12</title>
<g id="a_edge11_Node000001_Node000012"><a xlink:title=" ">
<path fill="none" stroke="#63b8ff" d="M648.23,-88.02C638.93,-76.43 629.35,-64.48 621.38,-54.54"/>
<polygon fill="none" stroke="#63b8ff" points="645.61,-90.35 654.59,-95.96 651.07,-85.97 645.61,-90.35"/>
</a>
</g>
</g>
<!-- Node13 -->
<g id="Node000013" class="node">
<title>Node13</title>
<g id="a_Node000013"><a xlink:href="classBPMN_1_1EscalationBoundaryEvent.html" target="_top" xlink:title=" ">
<polygon fill="white" stroke="transparent" points="846.5,-60 692.5,-60 692.5,0 846.5,0 846.5,-60"/>
<text text-anchor="start" x="703" y="-48" font-family="Helvetica,sans-Serif" font-size="10.00">BPMN::EscalationBoundary</text>
<text text-anchor="start" x="755.5" y="-37" font-family="Helvetica,sans-Serif" font-size="10.00">Event</text>
<text text-anchor="start" x="696.5" y="-22" font-family="Helvetica,sans-Serif" font-size="10.00">+</text>
<text text-anchor="start" x="709.5" y="-22" font-family="Helvetica,sans-Serif" font-size="10.00">element</text>
<text text-anchor="start" x="696.5" y="-7" font-family="Helvetica,sans-Serif" font-size="10.00">+</text>
<text text-anchor="start" x="709.5" y="-7" font-family="Helvetica,sans-Serif" font-size="10.00">EscalationBoundaryEvent()</text>
<polygon fill="#666666" stroke="#666666" points="692.5,-32 692.5,-32 846.5,-32 846.5,-32 692.5,-32"/>
<polygon fill="#666666" stroke="#666666" points="692.5,-17 692.5,-17 707.5,-17 707.5,-17 692.5,-17"/>
<polygon fill="#666666" stroke="#666666" points="707.5,-17 707.5,-17 846.5,-17 846.5,-17 707.5,-17"/>
<polygon fill="none" stroke="#666666" points="692.5,0 692.5,-60 846.5,-60 846.5,0 692.5,0"/>
</a>
</g>
</g>
<!-- Node1&#45;&gt;Node13 -->
<g id="edge12_Node000001_Node000013" class="edge">
<title>Node1&#45;&gt;Node13</title>
<g id="a_edge12_Node000001_Node000013"><a xlink:title=" ">
<path fill="none" stroke="#63b8ff" d="M723.18,-88.08C730.88,-78.59 738.77,-68.86 745.81,-60.19"/>
<polygon fill="none" stroke="#63b8ff" points="720.36,-85.99 716.78,-95.96 725.8,-90.4 720.36,-85.99"/>
</a>
</g>
</g>
<!-- Node14 -->
<g id="Node000014" class="node">
<title>Node14</title>
<g id="a_Node000014"><a xlink:href="classBPMN_1_1MessageBoundaryEvent.html" target="_top" xlink:title=" ">
<polygon fill="white" stroke="transparent" points="1028.5,-54.5 864.5,-54.5 864.5,-5.5 1028.5,-5.5 1028.5,-54.5"/>
<text text-anchor="start" x="869.5" y="-42" font-family="Helvetica,sans-Serif" font-size="10.00">BPMN::MessageBoundaryEvent</text>
<text text-anchor="start" x="872.5" y="-27" font-family="Helvetica,sans-Serif" font-size="10.00">+</text>
<text text-anchor="start" x="889.5" y="-27" font-family="Helvetica,sans-Serif" font-size="10.00">element</text>
<text text-anchor="start" x="872.5" y="-12" font-family="Helvetica,sans-Serif" font-size="10.00">+</text>
<text text-anchor="start" x="889.5" y="-12" font-family="Helvetica,sans-Serif" font-size="10.00">MessageBoundaryEvent()</text>
<polygon fill="#666666" stroke="#666666" points="864.5,-37 864.5,-37 1028.5,-37 1028.5,-37 864.5,-37"/>
<polygon fill="#666666" stroke="#666666" points="864.5,-22 864.5,-22 887.5,-22 887.5,-22 864.5,-22"/>
<polygon fill="#666666" stroke="#666666" points="887.5,-22 887.5,-22 1028.5,-22 1028.5,-22 887.5,-22"/>
<polygon fill="none" stroke="#666666" points="864.5,-5.5 864.5,-54.5 1028.5,-54.5 1028.5,-5.5 864.5,-5.5"/>
</a>
</g>
</g>
<!-- Node1&#45;&gt;Node14 -->
<g id="edge13_Node000001_Node000014" class="edge">
<title>Node1&#45;&gt;Node14</title>
<g id="a_edge13_Node000001_Node000014"><a xlink:title=" ">
<path fill="none" stroke="#63b8ff" d="M755.12,-106.89C796.27,-90.58 847.82,-70.13 887.05,-54.58"/>
<polygon fill="none" stroke="#63b8ff" points="753.71,-103.69 745.71,-110.63 756.29,-110.19 753.71,-103.69"/>
</a>
</g>
</g>
<!-- Node15 -->
<g id="Node000015" class="node">
<title>Node15</title>
<g id="a_Node000015"><a xlink:href="classBPMN_1_1SignalBoundaryEvent.html" target="_top" xlink:title=" ">
<polygon fill="white" stroke="transparent" points="1196.5,-54.5 1046.5,-54.5 1046.5,-5.5 1196.5,-5.5 1196.5,-54.5"/>
<text text-anchor="start" x="1051.5" y="-42" font-family="Helvetica,sans-Serif" font-size="10.00">BPMN::SignalBoundaryEvent</text>
<text text-anchor="start" x="1054.5" y="-27" font-family="Helvetica,sans-Serif" font-size="10.00">+</text>
<text text-anchor="start" x="1071.5" y="-27" font-family="Helvetica,sans-Serif" font-size="10.00">element</text>
<text text-anchor="start" x="1054.5" y="-12" font-family="Helvetica,sans-Serif" font-size="10.00">+</text>
<text text-anchor="start" x="1071.5" y="-12" font-family="Helvetica,sans-Serif" font-size="10.00">SignalBoundaryEvent()</text>
<polygon fill="#666666" stroke="#666666" points="1046.5,-37 1046.5,-37 1196.5,-37 1196.5,-37 1046.5,-37"/>
<polygon fill="#666666" stroke="#666666" points="1046.5,-22 1046.5,-22 1069.5,-22 1069.5,-22 1046.5,-22"/>
<polygon fill="#666666" stroke="#666666" points="1069.5,-22 1069.5,-22 1196.5,-22 1196.5,-22 1069.5,-22"/>
<polygon fill="none" stroke="#666666" points="1046.5,-5.5 1046.5,-54.5 1196.5,-54.5 1196.5,-5.5 1046.5,-5.5"/>
</a>
</g>
</g>
<!-- Node1&#45;&gt;Node15 -->
<g id="edge14_Node000001_Node000015" class="edge">
<title>Node1&#45;&gt;Node15</title>
<g id="a_edge14_Node000001_Node000015"><a xlink:title=" ">
<path fill="none" stroke="#63b8ff" d="M755.76,-122.28C827.25,-109.23 940.97,-86.77 1037.5,-60 1043.45,-58.35 1049.59,-56.51 1055.71,-54.58"/>
<polygon fill="none" stroke="#63b8ff" points="754.74,-118.91 745.52,-124.14 755.99,-125.8 754.74,-118.91"/>
</a>
</g>
</g>
<!-- Node16 -->
<g id="Node000016" class="node">
<title>Node16</title>
<g id="a_Node000016"><a xlink:href="classBPMN_1_1TimerBoundaryEvent.html" target="_top" xlink:title=" ">
<polygon fill="white" stroke="transparent" points="1363,-54.5 1214,-54.5 1214,-5.5 1363,-5.5 1363,-54.5"/>
<text text-anchor="start" x="1219.5" y="-42" font-family="Helvetica,sans-Serif" font-size="10.00">BPMN::TimerBoundaryEvent</text>
<text text-anchor="start" x="1222.5" y="-27" font-family="Helvetica,sans-Serif" font-size="10.00">+</text>
<text text-anchor="start" x="1239.5" y="-27" font-family="Helvetica,sans-Serif" font-size="10.00">element</text>
<text text-anchor="start" x="1222.5" y="-12" font-family="Helvetica,sans-Serif" font-size="10.00">+</text>
<text text-anchor="start" x="1239.5" y="-12" font-family="Helvetica,sans-Serif" font-size="10.00">TimerBoundaryEvent()</text>
<polygon fill="#666666" stroke="#666666" points="1214.5,-37 1214.5,-37 1363.5,-37 1363.5,-37 1214.5,-37"/>
<polygon fill="#666666" stroke="#666666" points="1214.5,-22 1214.5,-22 1237.5,-22 1237.5,-22 1214.5,-22"/>
<polygon fill="#666666" stroke="#666666" points="1237.5,-22 1237.5,-22 1363.5,-22 1363.5,-22 1237.5,-22"/>
<polygon fill="none" stroke="#666666" points="1214,-5.5 1214,-54.5 1363,-54.5 1363,-5.5 1214,-5.5"/>
</a>
</g>
</g>
<!-- Node1&#45;&gt;Node16 -->
<g id="edge15_Node000001_Node000016" class="edge">
<title>Node1&#45;&gt;Node16</title>
<g id="a_edge15_Node000001_Node000016"><a xlink:title=" ">
<path fill="none" stroke="#63b8ff" d="M755.94,-128.77C856.68,-119.6 1047.24,-98.6 1205.5,-60 1211.88,-58.44 1218.45,-56.59 1224.98,-54.59"/>
<polygon fill="none" stroke="#63b8ff" points="755.53,-125.3 745.88,-129.68 756.15,-132.27 755.53,-125.3"/>
</a>
</g>
</g>
<!-- Node2 -->
<g id="Node000002" class="node">
<title>Node2</title>
<g id="a_Node000002"><a xlink:href="classBPMN_1_1CatchEvent.html" target="_top" xlink:title=" ">
<polygon fill="white" stroke="transparent" points="736,-260 635,-260 635,-211 736,-211 736,-260"/>
<text text-anchor="start" x="640.5" y="-247.5" font-family="Helvetica,sans-Serif" font-size="10.00">BPMN::CatchEvent</text>
<text text-anchor="start" x="643.5" y="-232.5" font-family="Helvetica,sans-Serif" font-size="10.00">+</text>
<text text-anchor="start" x="660.5" y="-232.5" font-family="Helvetica,sans-Serif" font-size="10.00">element</text>
<text text-anchor="start" x="643.5" y="-217.5" font-family="Helvetica,sans-Serif" font-size="10.00">+</text>
<text text-anchor="start" x="660.5" y="-217.5" font-family="Helvetica,sans-Serif" font-size="10.00">CatchEvent()</text>
<polygon fill="#666666" stroke="#666666" points="635.5,-242.5 635.5,-242.5 736.5,-242.5 736.5,-242.5 635.5,-242.5"/>
<polygon fill="#666666" stroke="#666666" points="635.5,-227.5 635.5,-227.5 658.5,-227.5 658.5,-227.5 635.5,-227.5"/>
<polygon fill="#666666" stroke="#666666" points="658.5,-227.5 658.5,-227.5 736.5,-227.5 736.5,-227.5 658.5,-227.5"/>
<polygon fill="none" stroke="#666666" points="635,-211 635,-260 736,-260 736,-211 635,-211"/>
</a>
</g>
</g>
<!-- Node2&#45;&gt;Node1 -->
<g id="edge1_Node000001_Node000002" class="edge">
<title>Node2&#45;&gt;Node1</title>
<g id="a_edge1_Node000001_Node000002"><a xlink:title=" ">
<path fill="none" stroke="#63b8ff" d="M685.5,-200.52C685.5,-192.38 685.5,-183.63 685.5,-175.29"/>
<polygon fill="none" stroke="#63b8ff" points="682,-200.78 685.5,-210.78 689,-200.78 682,-200.78"/>
</a>
</g>
</g>
<!-- Node3 -->
<g id="Node000003" class="node">
<title>Node3</title>
<g id="a_Node000003"><a xlink:href="classBPMN_1_1Event.html" target="_top" xlink:title=" ">
<polygon fill="white" stroke="transparent" points="722.5,-345 648.5,-345 648.5,-296 722.5,-296 722.5,-345"/>
<text text-anchor="start" x="653.5" y="-332.5" font-family="Helvetica,sans-Serif" font-size="10.00">BPMN::Event</text>
<text text-anchor="start" x="655.5" y="-317.5" font-family="Helvetica,sans-Serif" font-size="10.00">+</text>
<text text-anchor="start" x="671.5" y="-317.5" font-family="Helvetica,sans-Serif" font-size="10.00">element</text>
<text text-anchor="start" x="655.5" y="-302.5" font-family="Helvetica,sans-Serif" font-size="10.00">+</text>
<text text-anchor="start" x="671.5" y="-302.5" font-family="Helvetica,sans-Serif" font-size="10.00">Event()</text>
<polygon fill="#666666" stroke="#666666" points="648.5,-327.5 648.5,-327.5 722.5,-327.5 722.5,-327.5 648.5,-327.5"/>
<polygon fill="#666666" stroke="#666666" points="648.5,-312.5 648.5,-312.5 669.5,-312.5 669.5,-312.5 648.5,-312.5"/>
<polygon fill="#666666" stroke="#666666" points="669.5,-312.5 669.5,-312.5 722.5,-312.5 722.5,-312.5 669.5,-312.5"/>
<polygon fill="none" stroke="#666666" points="648.5,-296 648.5,-345 722.5,-345 722.5,-296 648.5,-296"/>
</a>
</g>
</g>
<!-- Node3&#45;&gt;Node2 -->
<g id="edge2_Node000002_Node000003" class="edge">
<title>Node3&#45;&gt;Node2</title>
<g id="a_edge2_Node000002_Node000003"><a xlink:title=" ">
<path fill="none" stroke="#63b8ff" d="M685.5,-285.77C685.5,-277.17 685.5,-268.1 685.5,-260.12"/>
<polygon fill="none" stroke="#63b8ff" points="682,-285.94 685.5,-295.94 689,-285.94 682,-285.94"/>
</a>
</g>
</g>
<!-- Node4 -->
<g id="Node000004" class="node">
<title>Node4</title>
<g id="a_Node000004"><a xlink:href="classBPMN_1_1FlowNode.html" target="_top" xlink:title="Base class for BPMN elements that may contain incoming and outgoing sequence flows.">
<polygon fill="white" stroke="transparent" points="733,-475 638,-475 638,-381 733,-381 733,-475"/>
<text text-anchor="start" x="643.5" y="-463" font-family="Helvetica,sans-Serif" font-size="10.00">BPMN::FlowNode</text>
<text text-anchor="start" x="646.5" y="-448" font-family="Helvetica,sans-Serif" font-size="10.00">+</text>
<text text-anchor="start" x="663.5" y="-448" font-family="Helvetica,sans-Serif" font-size="10.00">element</text>
<text text-anchor="start" x="646.5" y="-433" font-family="Helvetica,sans-Serif" font-size="10.00">+</text>
<text text-anchor="start" x="663.5" y="-433" font-family="Helvetica,sans-Serif" font-size="10.00">name</text>
<text text-anchor="start" x="646.5" y="-418" font-family="Helvetica,sans-Serif" font-size="10.00">+</text>
<text text-anchor="start" x="663.5" y="-418" font-family="Helvetica,sans-Serif" font-size="10.00">incoming</text>
<text text-anchor="start" x="646.5" y="-403" font-family="Helvetica,sans-Serif" font-size="10.00">+</text>
<text text-anchor="start" x="663.5" y="-403" font-family="Helvetica,sans-Serif" font-size="10.00">outgoing</text>
<text text-anchor="start" x="646.5" y="-388" font-family="Helvetica,sans-Serif" font-size="10.00">+</text>
<text text-anchor="start" x="663.5" y="-388" font-family="Helvetica,sans-Serif" font-size="10.00">FlowNode()</text>
<polygon fill="#666666" stroke="#666666" points="638.5,-458 638.5,-458 733.5,-458 733.5,-458 638.5,-458"/>
<polygon fill="#666666" stroke="#666666" points="638.5,-398 638.5,-398 661.5,-398 661.5,-398 638.5,-398"/>
<polygon fill="#666666" stroke="#666666" points="661.5,-398 661.5,-398 733.5,-398 733.5,-398 661.5,-398"/>
<polygon fill="none" stroke="#666666" points="638,-381 638,-475 733,-475 733,-381 638,-381"/>
</a>
</g>
</g>
<!-- Node4&#45;&gt;Node3 -->
<g id="edge3_Node000003_Node000004" class="edge">
<title>Node4&#45;&gt;Node3</title>
<g id="a_edge3_Node000003_Node000004"><a xlink:title=" ">
<path fill="none" stroke="#63b8ff" d="M685.5,-370.59C685.5,-361.62 685.5,-352.79 685.5,-345.15"/>
<polygon fill="none" stroke="#63b8ff" points="682,-370.73 685.5,-380.73 689,-370.73 682,-370.73"/>
</a>
</g>
</g>
<!-- Node5 -->
<g id="Node000005" class="node">
<title>Node5</title>
<g id="a_Node000005"><a xlink:href="classBPMN_1_1ChildNode.html" target="_top" xlink:title="Base class for BPMN elements within a Scope.">
<polygon fill="white" stroke="transparent" points="733.5,-590 637.5,-590 637.5,-511 733.5,-511 733.5,-590"/>
<text text-anchor="start" x="642.5" y="-577.5" font-family="Helvetica,sans-Serif" font-size="10.00">BPMN::ChildNode</text>
<text text-anchor="start" x="645.5" y="-562.5" font-family="Helvetica,sans-Serif" font-size="10.00">+</text>
<text text-anchor="start" x="662.5" y="-562.5" font-family="Helvetica,sans-Serif" font-size="10.00">parent</text>
<text text-anchor="start" x="645.5" y="-547.5" font-family="Helvetica,sans-Serif" font-size="10.00">+</text>
<text text-anchor="start" x="662.5" y="-547.5" font-family="Helvetica,sans-Serif" font-size="10.00">ChildNode()</text>
<text text-anchor="start" x="645.5" y="-532.5" font-family="Helvetica,sans-Serif" font-size="10.00">+</text>
<text text-anchor="start" x="662.5" y="-532.5" font-family="Helvetica,sans-Serif" font-size="10.00">ancestor()</text>
<text text-anchor="start" x="645.5" y="-517.5" font-family="Helvetica,sans-Serif" font-size="10.00">+</text>
<text text-anchor="start" x="662.5" y="-517.5" font-family="Helvetica,sans-Serif" font-size="10.00">ancestor()</text>
<polygon fill="#666666" stroke="#666666" points="637.5,-572.5 637.5,-572.5 733.5,-572.5 733.5,-572.5 637.5,-572.5"/>
<polygon fill="#666666" stroke="#666666" points="637.5,-557.5 637.5,-557.5 660.5,-557.5 660.5,-557.5 637.5,-557.5"/>
<polygon fill="#666666" stroke="#666666" points="660.5,-557.5 660.5,-557.5 733.5,-557.5 733.5,-557.5 660.5,-557.5"/>
<polygon fill="none" stroke="#666666" points="637.5,-511 637.5,-590 733.5,-590 733.5,-511 637.5,-511"/>
</a>
</g>
</g>
<!-- Node5&#45;&gt;Node4 -->
<g id="edge4_Node000004_Node000005" class="edge">
<title>Node5&#45;&gt;Node4</title>
<g id="a_edge4_Node000004_Node000005"><a xlink:title=" ">
<path fill="none" stroke="#63b8ff" d="M685.5,-500.68C685.5,-492.3 685.5,-483.61 685.5,-475.29"/>
<polygon fill="none" stroke="#63b8ff" points="682,-500.71 685.5,-510.71 689,-500.71 682,-500.71"/>
</a>
</g>
</g>
<!-- Node6 -->
<g id="Node000006" class="node">
<title>Node6</title>
<g id="a_Node000006"><a xlink:href="classBPMN_1_1Node.html" target="_top" xlink:title="Base class for all nodes in a BPMN model.">
<polygon fill="white" stroke="transparent" points="721,-750 650,-750 650,-626 721,-626 721,-750"/>
<text text-anchor="start" x="655.5" y="-738" font-family="Helvetica,sans-Serif" font-size="10.00">BPMN::Node</text>
<text text-anchor="start" x="655.5" y="-723" font-family="Helvetica,sans-Serif" font-size="10.00">+</text>
<text text-anchor="start" x="669.5" y="-723" font-family="Helvetica,sans-Serif" font-size="10.00">receiving</text>
<text text-anchor="start" x="655.5" y="-708" font-family="Helvetica,sans-Serif" font-size="10.00">+</text>
<text text-anchor="start" x="669.5" y="-708" font-family="Helvetica,sans-Serif" font-size="10.00">sending</text>
<text text-anchor="start" x="655.5" y="-693" font-family="Helvetica,sans-Serif" font-size="10.00">+</text>
<text text-anchor="start" x="669.5" y="-693" font-family="Helvetica,sans-Serif" font-size="10.00">Node()</text>
<text text-anchor="start" x="655.5" y="-678" font-family="Helvetica,sans-Serif" font-size="10.00">+</text>
<text text-anchor="start" x="669.5" y="-678" font-family="Helvetica,sans-Serif" font-size="10.00">find()</text>
<text text-anchor="start" x="655.5" y="-663" font-family="Helvetica,sans-Serif" font-size="10.00">+</text>
<text text-anchor="start" x="669.5" y="-663" font-family="Helvetica,sans-Serif" font-size="10.00">find()</text>
<text text-anchor="start" x="655.5" y="-648" font-family="Helvetica,sans-Serif" font-size="10.00">+</text>
<text text-anchor="start" x="669.5" y="-648" font-family="Helvetica,sans-Serif" font-size="10.00">find_all()</text>
<text text-anchor="start" x="655.5" y="-633" font-family="Helvetica,sans-Serif" font-size="10.00">+</text>
<text text-anchor="start" x="669.5" y="-633" font-family="Helvetica,sans-Serif" font-size="10.00">find_all()</text>
<polygon fill="#666666" stroke="#666666" points="650.5,-733 650.5,-733 721.5,-733 721.5,-733 650.5,-733"/>
<polygon fill="#666666" stroke="#666666" points="650.5,-703 650.5,-703 667.5,-703 667.5,-703 650.5,-703"/>
<polygon fill="#666666" stroke="#666666" points="667.5,-703 667.5,-703 721.5,-703 721.5,-703 667.5,-703"/>
<polygon fill="none" stroke="#666666" points="650,-626 650,-750 721,-750 721,-626 650,-626"/>
</a>
</g>
</g>
<!-- Node6&#45;&gt;Node5 -->
<g id="edge5_Node000005_Node000006" class="edge">
<title>Node6&#45;&gt;Node5</title>
<g id="a_edge5_Node000005_Node000006"><a xlink:title=" ">
<path fill="none" stroke="#63b8ff" d="M685.5,-615.93C685.5,-607.02 685.5,-598.19 685.5,-590.05"/>
<polygon fill="none" stroke="#63b8ff" points="682,-615.99 685.5,-625.99 689,-615.99 682,-615.99"/>
</a>
</g>
</g>
<!-- Node7 -->
<g id="Node000007" class="node">
<title>Node7</title>
<g id="a_Node000007"><a xlink:href="classBPMN_1_1BaseElement.html" target="_top" xlink:title="Base class for all core BPMN elements.">
<polygon fill="white" stroke="transparent" points="743,-925 628,-925 628,-786 743,-786 743,-925"/>
<text text-anchor="start" x="636" y="-912.5" font-family="Helvetica,sans-Serif" font-size="10.00">BPMN::BaseElement</text>
<text text-anchor="start" x="632.5" y="-897.5" font-family="Helvetica,sans-Serif" font-size="10.00">+</text>
<text text-anchor="start" x="645.5" y="-897.5" font-family="Helvetica,sans-Serif" font-size="10.00">element</text>
<text text-anchor="start" x="632.5" y="-882.5" font-family="Helvetica,sans-Serif" font-size="10.00">+</text>
<text text-anchor="start" x="645.5" y="-882.5" font-family="Helvetica,sans-Serif" font-size="10.00">id</text>
<text text-anchor="start" x="632.5" y="-867.5" font-family="Helvetica,sans-Serif" font-size="10.00">+</text>
<text text-anchor="start" x="645.5" y="-867.5" font-family="Helvetica,sans-Serif" font-size="10.00">extensionElements</text>
<text text-anchor="start" x="632.5" y="-852.5" font-family="Helvetica,sans-Serif" font-size="10.00">+</text>
<text text-anchor="start" x="645.5" y="-852.5" font-family="Helvetica,sans-Serif" font-size="10.00">BaseElement()</text>
<text text-anchor="start" x="632.5" y="-837.5" font-family="Helvetica,sans-Serif" font-size="10.00">+</text>
<text text-anchor="start" x="645.5" y="-837.5" font-family="Helvetica,sans-Serif" font-size="10.00">is()</text>
<text text-anchor="start" x="632.5" y="-822.5" font-family="Helvetica,sans-Serif" font-size="10.00">+</text>
<text text-anchor="start" x="645.5" y="-822.5" font-family="Helvetica,sans-Serif" font-size="10.00">is()</text>
<text text-anchor="start" x="632.5" y="-807.5" font-family="Helvetica,sans-Serif" font-size="10.00">+</text>
<text text-anchor="start" x="645.5" y="-807.5" font-family="Helvetica,sans-Serif" font-size="10.00">get()</text>
<text text-anchor="start" x="632.5" y="-792.5" font-family="Helvetica,sans-Serif" font-size="10.00">+</text>
<text text-anchor="start" x="645.5" y="-792.5" font-family="Helvetica,sans-Serif" font-size="10.00">get()</text>
<polygon fill="#666666" stroke="#666666" points="628.5,-907.5 628.5,-907.5 743.5,-907.5 743.5,-907.5 628.5,-907.5"/>
<polygon fill="#666666" stroke="#666666" points="628.5,-862.5 628.5,-862.5 643.5,-862.5 643.5,-862.5 628.5,-862.5"/>
<polygon fill="#666666" stroke="#666666" points="643.5,-862.5 643.5,-862.5 743.5,-862.5 743.5,-862.5 643.5,-862.5"/>
<polygon fill="none" stroke="#666666" points="628,-786 628,-925 743,-925 743,-786 628,-786"/>
</a>
</g>
</g>
<!-- Node7&#45;&gt;Node6 -->
<g id="edge6_Node000006_Node000007" class="edge">
<title>Node7&#45;&gt;Node6</title>
<g id="a_edge6_Node000006_Node000007"><a xlink:title=" ">
<path fill="none" stroke="#63b8ff" d="M685.5,-775.71C685.5,-767.12 685.5,-758.47 685.5,-750.14"/>
<polygon fill="none" stroke="#63b8ff" points="682,-775.75 685.5,-785.75 689,-775.75 682,-775.75"/>
</a>
</g>
</g>
<!-- Node8 -->
<g id="Node000008" class="node">
<title>Node8</title>
<g id="a_Node000008"><a xlink:href="classBPMN_1_1Element.html" target="_top" xlink:title="Abstract base class for all elements in a BPMN model.">
<polygon fill="white" stroke="transparent" points="728.5,-1070 642.5,-1070 642.5,-961 728.5,-961 728.5,-1070"/>
<text text-anchor="start" x="647.5" y="-1057.5" font-family="Helvetica,sans-Serif" font-size="10.00">BPMN::Element</text>
<text text-anchor="start" x="683.5" y="-1042.5" font-family="Helvetica,sans-Serif" font-size="10.00"> </text>
<text text-anchor="start" x="647.5" y="-1027.5" font-family="Helvetica,sans-Serif" font-size="10.00">+</text>
<text text-anchor="start" x="661.5" y="-1027.5" font-family="Helvetica,sans-Serif" font-size="10.00">~Element()</text>
<text text-anchor="start" x="647.5" y="-1012.5" font-family="Helvetica,sans-Serif" font-size="10.00">+</text>
<text text-anchor="start" x="661.5" y="-1012.5" font-family="Helvetica,sans-Serif" font-size="10.00">represents()</text>
<text text-anchor="start" x="647.5" y="-997.5" font-family="Helvetica,sans-Serif" font-size="10.00">+</text>
<text text-anchor="start" x="661.5" y="-997.5" font-family="Helvetica,sans-Serif" font-size="10.00">represents()</text>
<text text-anchor="start" x="647.5" y="-982.5" font-family="Helvetica,sans-Serif" font-size="10.00">+</text>
<text text-anchor="start" x="661.5" y="-982.5" font-family="Helvetica,sans-Serif" font-size="10.00">as()</text>
<text text-anchor="start" x="647.5" y="-967.5" font-family="Helvetica,sans-Serif" font-size="10.00">+</text>
<text text-anchor="start" x="661.5" y="-967.5" font-family="Helvetica,sans-Serif" font-size="10.00">as()</text>
<polygon fill="#666666" stroke="#666666" points="642.5,-1052.5 642.5,-1052.5 728.5,-1052.5 728.5,-1052.5 642.5,-1052.5"/>
<polygon fill="#666666" stroke="#666666" points="642.5,-1037.5 642.5,-1037.5 728.5,-1037.5 728.5,-1037.5 642.5,-1037.5"/>
<polygon fill="none" stroke="#666666" points="642.5,-961 642.5,-1070 728.5,-1070 728.5,-961 642.5,-961"/>
</a>
</g>
</g>
<!-- Node8&#45;&gt;Node7 -->
<g id="edge7_Node000007_Node000008" class="edge">
<title>Node8&#45;&gt;Node7</title>
<g id="a_edge7_Node000007_Node000008"><a xlink:title=" ">
<path fill="none" stroke="#63b8ff" d="M685.5,-950.55C685.5,-942.23 685.5,-933.67 685.5,-925.28"/>
<polygon fill="none" stroke="#63b8ff" points="682,-950.57 685.5,-960.57 689,-950.57 682,-950.57"/>
</a>
</g>
</g>
</g>
</svg>
