<?xml version="1.0" encoding="UTF-8" standalone="no"?>
<!DOCTYPE svg PUBLIC "-//W3C//DTD SVG 1.1//EN"
 "http://www.w3.org/Graphics/SVG/1.1/DTD/svg11.dtd">
<!-- Generated by graphviz version 2.43.0 (0)
 -->
<!-- Title: XML::bpmn::tTimerEventDefinition Pages: 1 -->
<svg width="193pt" height="855pt"
 viewBox="0.00 0.00 193.00 855.00" xmlns="http://www.w3.org/2000/svg" xmlns:xlink="http://www.w3.org/1999/xlink">
<g id="graph0" class="graph" transform="scale(1 1) rotate(0) translate(4 851)">
<title>XML::bpmn::tTimerEventDefinition</title>
<!-- Node1 -->
<g id="node1" class="node">
<title>Node1</title>
<g id="a_node1"><a xlink:title=" ">
<polygon fill="#bfbfbf" stroke="black" points="0,-94.5 0,-184.5 185,-184.5 185,-94.5 0,-94.5"/>
<text text-anchor="middle" x="92.5" y="-172.5" font-family="Helvetica,sans-Serif" font-size="10.00">XML::bpmn::tTimerEventDefinition</text>
<polyline fill="none" stroke="black" points="0,-165.5 185,-165.5 "/>
<text text-anchor="start" x="8" y="-153.5" font-family="Helvetica,sans-Serif" font-size="10.00">+ timeDate</text>
<text text-anchor="start" x="8" y="-142.5" font-family="Helvetica,sans-Serif" font-size="10.00">+ timeDuration</text>
<text text-anchor="start" x="8" y="-131.5" font-family="Helvetica,sans-Serif" font-size="10.00">+ timeCycle</text>
<text text-anchor="start" x="8" y="-120.5" font-family="Helvetica,sans-Serif" font-size="10.00">+ defaults</text>
<polyline fill="none" stroke="black" points="0,-113.5 185,-113.5 "/>
<text text-anchor="start" x="8" y="-101.5" font-family="Helvetica,sans-Serif" font-size="10.00"># tTimerEventDefinition()</text>
</a>
</g>
</g>
<!-- Node6 -->
<g id="node6" class="node">
<title>Node6</title>
<g id="a_node6"><a xlink:href="classXML_1_1bpmn_1_1timerEventDefinition.html" target="_top" xlink:title=" ">
<polygon fill="none" stroke="black" points="3,-0.5 3,-57.5 182,-57.5 182,-0.5 3,-0.5"/>
<text text-anchor="middle" x="92.5" y="-45.5" font-family="Helvetica,sans-Serif" font-size="10.00">XML::bpmn::timerEventDefinition</text>
<polyline fill="none" stroke="black" points="3,-38.5 182,-38.5 "/>
<text text-anchor="start" x="11" y="-26.5" font-family="Helvetica,sans-Serif" font-size="10.00">+ defaults</text>
<polyline fill="none" stroke="black" points="3,-19.5 182,-19.5 "/>
<text text-anchor="start" x="11" y="-7.5" font-family="Helvetica,sans-Serif" font-size="10.00"># timerEventDefinition()</text>
</a>
</g>
</g>
<!-- Node1&#45;&gt;Node6 -->
<g id="edge5" class="edge">
<title>Node1&#45;&gt;Node6</title>
<path fill="none" stroke="midnightblue" d="M92.5,-84.35C92.5,-75.07 92.5,-65.79 92.5,-57.59"/>
<polygon fill="none" stroke="midnightblue" points="89,-84.37 92.5,-94.37 96,-84.37 89,-84.37"/>
</g>
<!-- Node2 -->
<g id="node2" class="node">
<title>Node2</title>
<g id="a_node2"><a xlink:href="classXML_1_1bpmn_1_1tEventDefinition.html" target="_top" xlink:title=" ">
<polygon fill="none" stroke="black" points="14.5,-221.5 14.5,-278.5 170.5,-278.5 170.5,-221.5 14.5,-221.5"/>
<text text-anchor="middle" x="92.5" y="-266.5" font-family="Helvetica,sans-Serif" font-size="10.00">XML::bpmn::tEventDefinition</text>
<polyline fill="none" stroke="black" points="14.5,-259.5 170.5,-259.5 "/>
<text text-anchor="start" x="22.5" y="-247.5" font-family="Helvetica,sans-Serif" font-size="10.00">+ defaults</text>
<polyline fill="none" stroke="black" points="14.5,-240.5 170.5,-240.5 "/>
<text text-anchor="start" x="22.5" y="-228.5" font-family="Helvetica,sans-Serif" font-size="10.00"># tEventDefinition()</text>
</a>
</g>
</g>
<!-- Node2&#45;&gt;Node1 -->
<g id="edge1" class="edge">
<title>Node2&#45;&gt;Node1</title>
<path fill="none" stroke="midnightblue" d="M92.5,-211.21C92.5,-202.61 92.5,-193.39 92.5,-184.55"/>
<polygon fill="none" stroke="midnightblue" points="89,-211.34 92.5,-221.34 96,-211.34 89,-211.34"/>
</g>
<!-- Node3 -->
<g id="node3" class="node">
<title>Node3</title>
<g id="a_node3"><a xlink:href="classXML_1_1bpmn_1_1tRootElement.html" target="_top" xlink:title=" ">
<polygon fill="none" stroke="black" points="20.5,-315.5 20.5,-372.5 164.5,-372.5 164.5,-315.5 20.5,-315.5"/>
<text text-anchor="middle" x="92.5" y="-360.5" font-family="Helvetica,sans-Serif" font-size="10.00">XML::bpmn::tRootElement</text>
<polyline fill="none" stroke="black" points="20.5,-353.5 164.5,-353.5 "/>
<text text-anchor="start" x="28.5" y="-341.5" font-family="Helvetica,sans-Serif" font-size="10.00">+ defaults</text>
<polyline fill="none" stroke="black" points="20.5,-334.5 164.5,-334.5 "/>
<text text-anchor="start" x="28.5" y="-322.5" font-family="Helvetica,sans-Serif" font-size="10.00"># tRootElement()</text>
</a>
</g>
</g>
<!-- Node3&#45;&gt;Node2 -->
<g id="edge2" class="edge">
<title>Node3&#45;&gt;Node2</title>
<path fill="none" stroke="midnightblue" d="M92.5,-305.21C92.5,-296.29 92.5,-286.95 92.5,-278.58"/>
<polygon fill="none" stroke="midnightblue" points="89,-305.4 92.5,-315.4 96,-305.4 89,-305.4"/>
</g>
<!-- Node4 -->
<g id="node4" class="node">
<title>Node4</title>
<g id="a_node4"><a xlink:href="classXML_1_1bpmn_1_1tBaseElement.html" target="_top" xlink:title=" ">
<polygon fill="none" stroke="black" points="19.5,-409.5 19.5,-499.5 165.5,-499.5 165.5,-409.5 19.5,-409.5"/>
<text text-anchor="middle" x="92.5" y="-487.5" font-family="Helvetica,sans-Serif" font-size="10.00">XML::bpmn::tBaseElement</text>
<polyline fill="none" stroke="black" points="19.5,-480.5 165.5,-480.5 "/>
<text text-anchor="start" x="27.5" y="-468.5" font-family="Helvetica,sans-Serif" font-size="10.00">+ documentation</text>
<text text-anchor="start" x="27.5" y="-457.5" font-family="Helvetica,sans-Serif" font-size="10.00">+ extensionElements</text>
<text text-anchor="start" x="27.5" y="-446.5" font-family="Helvetica,sans-Serif" font-size="10.00">+ id</text>
<text text-anchor="start" x="27.5" y="-435.5" font-family="Helvetica,sans-Serif" font-size="10.00">+ defaults</text>
<polyline fill="none" stroke="black" points="19.5,-428.5 165.5,-428.5 "/>
<text text-anchor="start" x="27.5" y="-416.5" font-family="Helvetica,sans-Serif" font-size="10.00"># tBaseElement()</text>
</a>
</g>
</g>
<!-- Node4&#45;&gt;Node3 -->
<g id="edge3" class="edge">
<title>Node4&#45;&gt;Node3</title>
<path fill="none" stroke="midnightblue" d="M92.5,-399.35C92.5,-390.07 92.5,-380.79 92.5,-372.59"/>
<polygon fill="none" stroke="midnightblue" points="89,-399.37 92.5,-409.37 96,-399.37 89,-399.37"/>
</g>
<!-- Node5 -->
<g id="node5" class="node">
<title>Node5</title>
<g id="a_node5"><a xlink:href="classXML_1_1XMLObject.html" target="_top" xlink:title=" ">
<polygon fill="none" stroke="black" points="29.5,-536.5 29.5,-846.5 155.5,-846.5 155.5,-536.5 29.5,-536.5"/>
<text text-anchor="middle" x="92.5" y="-834.5" font-family="Helvetica,sans-Serif" font-size="10.00">XML::XMLObject</text>
<polyline fill="none" stroke="black" points="29.5,-827.5 155.5,-827.5 "/>
<text text-anchor="start" x="37.5" y="-815.5" font-family="Helvetica,sans-Serif" font-size="10.00">+ xmlns</text>
<text text-anchor="start" x="37.5" y="-804.5" font-family="Helvetica,sans-Serif" font-size="10.00">+ className</text>
<text text-anchor="start" x="37.5" y="-793.5" font-family="Helvetica,sans-Serif" font-size="10.00">+ prefix</text>
<text text-anchor="start" x="37.5" y="-782.5" font-family="Helvetica,sans-Serif" font-size="10.00">+ elementName</text>
<text text-anchor="start" x="37.5" y="-771.5" font-family="Helvetica,sans-Serif" font-size="10.00">+ textContent</text>
<text text-anchor="start" x="37.5" y="-760.5" font-family="Helvetica,sans-Serif" font-size="10.00">+ children</text>
<text text-anchor="start" x="37.5" y="-749.5" font-family="Helvetica,sans-Serif" font-size="10.00">+ attributes</text>
<text text-anchor="start" x="37.5" y="-738.5" font-family="Helvetica,sans-Serif" font-size="10.00">+ defaults</text>
<text text-anchor="start" x="37.5" y="-727.5" font-family="Helvetica,sans-Serif" font-size="10.00"># factory</text>
<polyline fill="none" stroke="black" points="29.5,-720.5 155.5,-720.5 "/>
<text text-anchor="start" x="37.5" y="-708.5" font-family="Helvetica,sans-Serif" font-size="10.00">+ ~XMLObject()</text>
<text text-anchor="start" x="37.5" y="-697.5" font-family="Helvetica,sans-Serif" font-size="10.00">+ is()</text>
<text text-anchor="start" x="37.5" y="-686.5" font-family="Helvetica,sans-Serif" font-size="10.00">+ is()</text>
<text text-anchor="start" x="37.5" y="-675.5" font-family="Helvetica,sans-Serif" font-size="10.00">+ get()</text>
<text text-anchor="start" x="37.5" y="-664.5" font-family="Helvetica,sans-Serif" font-size="10.00">+ get()</text>
<text text-anchor="start" x="37.5" y="-653.5" font-family="Helvetica,sans-Serif" font-size="10.00">+ find()</text>
<text text-anchor="start" x="37.5" y="-642.5" font-family="Helvetica,sans-Serif" font-size="10.00">+ find()</text>
<text text-anchor="start" x="37.5" y="-631.5" font-family="Helvetica,sans-Serif" font-size="10.00">+ stringify()</text>
<text text-anchor="start" x="37.5" y="-620.5" font-family="Helvetica,sans-Serif" font-size="10.00">+ getRequiredChild()</text>
<text text-anchor="start" x="37.5" y="-609.5" font-family="Helvetica,sans-Serif" font-size="10.00">+ getOptionalChild()</text>
<text text-anchor="start" x="37.5" y="-598.5" font-family="Helvetica,sans-Serif" font-size="10.00">and 6 more...</text>
<text text-anchor="start" x="37.5" y="-587.5" font-family="Helvetica,sans-Serif" font-size="10.00">+ createFromStream()</text>
<text text-anchor="start" x="37.5" y="-576.5" font-family="Helvetica,sans-Serif" font-size="10.00">+ createFromString()</text>
<text text-anchor="start" x="37.5" y="-565.5" font-family="Helvetica,sans-Serif" font-size="10.00">+ createFromFile()</text>
<text text-anchor="start" x="37.5" y="-554.5" font-family="Helvetica,sans-Serif" font-size="10.00"># XMLObject()</text>
<text text-anchor="start" x="37.5" y="-543.5" font-family="Helvetica,sans-Serif" font-size="10.00"># createObject()</text>
</a>
</g>
</g>
<!-- Node5&#45;&gt;Node4 -->
<g id="edge4" class="edge">
<title>Node5&#45;&gt;Node4</title>
<path fill="none" stroke="midnightblue" d="M92.5,-526.35C92.5,-516.89 92.5,-507.91 92.5,-499.72"/>
<polygon fill="none" stroke="midnightblue" points="89,-526.37 92.5,-536.37 96,-526.37 89,-526.37"/>
</g>
</g>
</svg>
