<?xml version="1.0" encoding="UTF-8" standalone="no"?>
<!DOCTYPE svg PUBLIC "-//W3C//DTD SVG 1.1//EN"
 "http://www.w3.org/Graphics/SVG/1.1/DTD/svg11.dtd">
<!-- Generated by graphviz version 2.43.0 (0)
 -->
<!-- Title: XML::bpmn::inclusiveGateway Pages: 1 -->
<svg width="181pt" height="1122pt"
 viewBox="0.00 0.00 181.00 1122.00" xmlns="http://www.w3.org/2000/svg" xmlns:xlink="http://www.w3.org/1999/xlink">
<g id="graph0" class="graph" transform="scale(1 1) rotate(0) translate(4 1118)">
<title>XML::bpmn::inclusiveGateway</title>
<!-- Node1 -->
<g id="Node000001" class="node">
<title>Node1</title>
<g id="a_Node000001"><a xlink:title=" ">
<polygon fill="#999999" stroke="transparent" points="165.5,-49 7.5,-49 7.5,0 165.5,0 165.5,-49"/>
<text text-anchor="start" x="12.5" y="-36.5" font-family="Helvetica,sans-Serif" font-size="10.00">XML::bpmn::inclusiveGateway</text>
<text text-anchor="start" x="22" y="-21.5" font-family="Helvetica,sans-Serif" font-size="10.00">+</text>
<text text-anchor="start" x="45.5" y="-21.5" font-family="Helvetica,sans-Serif" font-size="10.00">defaults</text>
<text text-anchor="start" x="22" y="-6.5" font-family="Helvetica,sans-Serif" font-size="10.00">#</text>
<text text-anchor="start" x="45.5" y="-6.5" font-family="Helvetica,sans-Serif" font-size="10.00">inclusiveGateway()</text>
<polygon fill="#666666" stroke="#666666" points="7.5,-31.5 7.5,-31.5 165.5,-31.5 165.5,-31.5 7.5,-31.5"/>
<polygon fill="#666666" stroke="#666666" points="7.5,-16.5 7.5,-16.5 43.5,-16.5 43.5,-16.5 7.5,-16.5"/>
<polygon fill="#666666" stroke="#666666" points="43.5,-16.5 43.5,-16.5 165.5,-16.5 165.5,-16.5 43.5,-16.5"/>
<polygon fill="none" stroke="#666666" points="7.5,0 7.5,-49 165.5,-49 165.5,0 7.5,0"/>
</a>
</g>
</g>
<!-- Node2 -->
<g id="Node000002" class="node">
<title>Node2</title>
<g id="a_Node000002"><a xlink:href="classXML_1_1bpmn_1_1tInclusiveGateway.html" target="_top" xlink:title=" ">
<polygon fill="white" stroke="transparent" points="167.5,-149 5.5,-149 5.5,-85 167.5,-85 167.5,-149"/>
<text text-anchor="start" x="10.5" y="-137" font-family="Helvetica,sans-Serif" font-size="10.00">XML::bpmn::tInclusiveGateway</text>
<text text-anchor="start" x="20" y="-122" font-family="Helvetica,sans-Serif" font-size="10.00">+</text>
<text text-anchor="start" x="43.5" y="-122" font-family="Helvetica,sans-Serif" font-size="10.00">default_</text>
<text text-anchor="start" x="20" y="-107" font-family="Helvetica,sans-Serif" font-size="10.00">+</text>
<text text-anchor="start" x="43.5" y="-107" font-family="Helvetica,sans-Serif" font-size="10.00">defaults</text>
<text text-anchor="start" x="20" y="-92" font-family="Helvetica,sans-Serif" font-size="10.00">#</text>
<text text-anchor="start" x="43.5" y="-92" font-family="Helvetica,sans-Serif" font-size="10.00">tInclusiveGateway()</text>
<polygon fill="#666666" stroke="#666666" points="5.5,-132 5.5,-132 167.5,-132 167.5,-132 5.5,-132"/>
<polygon fill="#666666" stroke="#666666" points="5.5,-102 5.5,-102 41.5,-102 41.5,-102 5.5,-102"/>
<polygon fill="#666666" stroke="#666666" points="41.5,-102 41.5,-102 167.5,-102 167.5,-102 41.5,-102"/>
<polygon fill="none" stroke="#666666" points="5.5,-85 5.5,-149 167.5,-149 167.5,-85 5.5,-85"/>
</a>
</g>
</g>
<!-- Node2&#45;&gt;Node1 -->
<g id="edge1_Node000001_Node000002" class="edge">
<title>Node2&#45;&gt;Node1</title>
<g id="a_edge1_Node000001_Node000002"><a xlink:title=" ">
<path fill="none" stroke="#63b8ff" d="M86.5,-74.77C86.5,-66.03 86.5,-57.09 86.5,-49.27"/>
<polygon fill="none" stroke="#63b8ff" points="83,-74.85 86.5,-84.86 90,-74.86 83,-74.85"/>
</a>
</g>
</g>
<!-- Node3 -->
<g id="Node000003" class="node">
<title>Node3</title>
<g id="a_Node000003"><a xlink:href="classXML_1_1bpmn_1_1tGateway.html" target="_top" xlink:title=" ">
<polygon fill="white" stroke="transparent" points="146,-249 27,-249 27,-185 146,-185 146,-249"/>
<text text-anchor="start" x="32.5" y="-237" font-family="Helvetica,sans-Serif" font-size="10.00">XML::bpmn::tGateway</text>
<text text-anchor="start" x="34" y="-222" font-family="Helvetica,sans-Serif" font-size="10.00">+</text>
<text text-anchor="start" x="49.5" y="-222" font-family="Helvetica,sans-Serif" font-size="10.00">gatewayDirection</text>
<text text-anchor="start" x="34" y="-207" font-family="Helvetica,sans-Serif" font-size="10.00">+</text>
<text text-anchor="start" x="49.5" y="-207" font-family="Helvetica,sans-Serif" font-size="10.00">defaults</text>
<text text-anchor="start" x="34" y="-192" font-family="Helvetica,sans-Serif" font-size="10.00">#</text>
<text text-anchor="start" x="49.5" y="-192" font-family="Helvetica,sans-Serif" font-size="10.00">tGateway()</text>
<polygon fill="#666666" stroke="#666666" points="27.5,-232 27.5,-232 146.5,-232 146.5,-232 27.5,-232"/>
<polygon fill="#666666" stroke="#666666" points="27.5,-202 27.5,-202 47.5,-202 47.5,-202 27.5,-202"/>
<polygon fill="#666666" stroke="#666666" points="47.5,-202 47.5,-202 146.5,-202 146.5,-202 47.5,-202"/>
<polygon fill="none" stroke="#666666" points="27,-185 27,-249 146,-249 146,-185 27,-185"/>
</a>
</g>
</g>
<!-- Node3&#45;&gt;Node2 -->
<g id="edge2_Node000002_Node000003" class="edge">
<title>Node3&#45;&gt;Node2</title>
<g id="a_edge2_Node000002_Node000003"><a xlink:title=" ">
<path fill="none" stroke="#63b8ff" d="M86.5,-174.76C86.5,-166.19 86.5,-157.28 86.5,-149.14"/>
<polygon fill="none" stroke="#63b8ff" points="83,-174.99 86.5,-184.99 90,-174.99 83,-174.99"/>
</a>
</g>
</g>
<!-- Node4 -->
<g id="Node000004" class="node">
<title>Node4</title>
<g id="a_Node000004"><a xlink:href="classXML_1_1bpmn_1_1tFlowNode.html" target="_top" xlink:title=" ">
<polygon fill="white" stroke="transparent" points="148.5,-364 24.5,-364 24.5,-285 148.5,-285 148.5,-364"/>
<text text-anchor="start" x="29.5" y="-351.5" font-family="Helvetica,sans-Serif" font-size="10.00">XML::bpmn::tFlowNode</text>
<text text-anchor="start" x="39" y="-336.5" font-family="Helvetica,sans-Serif" font-size="10.00">+</text>
<text text-anchor="start" x="62.5" y="-336.5" font-family="Helvetica,sans-Serif" font-size="10.00">incoming</text>
<text text-anchor="start" x="39" y="-321.5" font-family="Helvetica,sans-Serif" font-size="10.00">+</text>
<text text-anchor="start" x="62.5" y="-321.5" font-family="Helvetica,sans-Serif" font-size="10.00">outgoing</text>
<text text-anchor="start" x="39" y="-306.5" font-family="Helvetica,sans-Serif" font-size="10.00">+</text>
<text text-anchor="start" x="62.5" y="-306.5" font-family="Helvetica,sans-Serif" font-size="10.00">defaults</text>
<text text-anchor="start" x="39" y="-291.5" font-family="Helvetica,sans-Serif" font-size="10.00">#</text>
<text text-anchor="start" x="62.5" y="-291.5" font-family="Helvetica,sans-Serif" font-size="10.00">tFlowNode()</text>
<polygon fill="#666666" stroke="#666666" points="24.5,-346.5 24.5,-346.5 148.5,-346.5 148.5,-346.5 24.5,-346.5"/>
<polygon fill="#666666" stroke="#666666" points="24.5,-301.5 24.5,-301.5 60.5,-301.5 60.5,-301.5 24.5,-301.5"/>
<polygon fill="#666666" stroke="#666666" points="60.5,-301.5 60.5,-301.5 148.5,-301.5 148.5,-301.5 60.5,-301.5"/>
<polygon fill="none" stroke="#666666" points="24.5,-285 24.5,-364 148.5,-364 148.5,-285 24.5,-285"/>
</a>
</g>
</g>
<!-- Node4&#45;&gt;Node3 -->
<g id="edge3_Node000003_Node000004" class="edge">
<title>Node4&#45;&gt;Node3</title>
<g id="a_edge3_Node000003_Node000004"><a xlink:title=" ">
<path fill="none" stroke="#63b8ff" d="M86.5,-274.71C86.5,-266 86.5,-257.14 86.5,-249.09"/>
<polygon fill="none" stroke="#63b8ff" points="83,-274.81 86.5,-284.81 90,-274.81 83,-274.81"/>
</a>
</g>
</g>
<!-- Node5 -->
<g id="Node000005" class="node">
<title>Node5</title>
<g id="a_Node000005"><a xlink:href="classXML_1_1bpmn_1_1tFlowElement.html" target="_top" xlink:title=" ">
<polygon fill="white" stroke="transparent" points="156,-509 17,-509 17,-400 156,-400 156,-509"/>
<text text-anchor="start" x="22.5" y="-496.5" font-family="Helvetica,sans-Serif" font-size="10.00">XML::bpmn::tFlowElement</text>
<text text-anchor="start" x="29" y="-481.5" font-family="Helvetica,sans-Serif" font-size="10.00">+</text>
<text text-anchor="start" x="49.5" y="-481.5" font-family="Helvetica,sans-Serif" font-size="10.00">auditing</text>
<text text-anchor="start" x="29" y="-466.5" font-family="Helvetica,sans-Serif" font-size="10.00">+</text>
<text text-anchor="start" x="49.5" y="-466.5" font-family="Helvetica,sans-Serif" font-size="10.00">monitoring</text>
<text text-anchor="start" x="29" y="-451.5" font-family="Helvetica,sans-Serif" font-size="10.00">+</text>
<text text-anchor="start" x="49.5" y="-451.5" font-family="Helvetica,sans-Serif" font-size="10.00">categoryValueRef</text>
<text text-anchor="start" x="29" y="-436.5" font-family="Helvetica,sans-Serif" font-size="10.00">+</text>
<text text-anchor="start" x="49.5" y="-436.5" font-family="Helvetica,sans-Serif" font-size="10.00">name</text>
<text text-anchor="start" x="29" y="-421.5" font-family="Helvetica,sans-Serif" font-size="10.00">+</text>
<text text-anchor="start" x="49.5" y="-421.5" font-family="Helvetica,sans-Serif" font-size="10.00">defaults</text>
<text text-anchor="start" x="29" y="-406.5" font-family="Helvetica,sans-Serif" font-size="10.00">#</text>
<text text-anchor="start" x="49.5" y="-406.5" font-family="Helvetica,sans-Serif" font-size="10.00">tFlowElement()</text>
<polygon fill="#666666" stroke="#666666" points="17.5,-491.5 17.5,-491.5 156.5,-491.5 156.5,-491.5 17.5,-491.5"/>
<polygon fill="#666666" stroke="#666666" points="17.5,-416.5 17.5,-416.5 47.5,-416.5 47.5,-416.5 17.5,-416.5"/>
<polygon fill="#666666" stroke="#666666" points="47.5,-416.5 47.5,-416.5 156.5,-416.5 156.5,-416.5 47.5,-416.5"/>
<polygon fill="none" stroke="#666666" points="17,-400 17,-509 156,-509 156,-400 17,-400"/>
</a>
</g>
</g>
<!-- Node5&#45;&gt;Node4 -->
<g id="edge4_Node000004_Node000005" class="edge">
<title>Node5&#45;&gt;Node4</title>
<g id="a_edge4_Node000004_Node000005"><a xlink:title=" ">
<path fill="none" stroke="#63b8ff" d="M86.5,-389.7C86.5,-380.93 86.5,-372.16 86.5,-364.03"/>
<polygon fill="none" stroke="#63b8ff" points="83,-389.96 86.5,-399.96 90,-389.96 83,-389.96"/>
</a>
</g>
</g>
<!-- Node6 -->
<g id="Node000006" class="node">
<title>Node6</title>
<g id="a_Node000006"><a xlink:href="classXML_1_1bpmn_1_1tBaseElement.html" target="_top" xlink:title=" ">
<polygon fill="white" stroke="transparent" points="156.5,-639 16.5,-639 16.5,-545 156.5,-545 156.5,-639"/>
<text text-anchor="start" x="21.5" y="-627" font-family="Helvetica,sans-Serif" font-size="10.00">XML::bpmn::tBaseElement</text>
<text text-anchor="start" x="26.5" y="-612" font-family="Helvetica,sans-Serif" font-size="10.00">+</text>
<text text-anchor="start" x="45.5" y="-612" font-family="Helvetica,sans-Serif" font-size="10.00">documentation</text>
<text text-anchor="start" x="26.5" y="-597" font-family="Helvetica,sans-Serif" font-size="10.00">+</text>
<text text-anchor="start" x="45.5" y="-597" font-family="Helvetica,sans-Serif" font-size="10.00">extensionElements</text>
<text text-anchor="start" x="26.5" y="-582" font-family="Helvetica,sans-Serif" font-size="10.00">+</text>
<text text-anchor="start" x="45.5" y="-582" font-family="Helvetica,sans-Serif" font-size="10.00">id</text>
<text text-anchor="start" x="26.5" y="-567" font-family="Helvetica,sans-Serif" font-size="10.00">+</text>
<text text-anchor="start" x="45.5" y="-567" font-family="Helvetica,sans-Serif" font-size="10.00">defaults</text>
<text text-anchor="start" x="26.5" y="-552" font-family="Helvetica,sans-Serif" font-size="10.00">#</text>
<text text-anchor="start" x="45.5" y="-552" font-family="Helvetica,sans-Serif" font-size="10.00">tBaseElement()</text>
<polygon fill="#666666" stroke="#666666" points="16.5,-622 16.5,-622 156.5,-622 156.5,-622 16.5,-622"/>
<polygon fill="#666666" stroke="#666666" points="16.5,-562 16.5,-562 43.5,-562 43.5,-562 16.5,-562"/>
<polygon fill="#666666" stroke="#666666" points="43.5,-562 43.5,-562 156.5,-562 156.5,-562 43.5,-562"/>
<polygon fill="none" stroke="#666666" points="16.5,-545 16.5,-639 156.5,-639 156.5,-545 16.5,-545"/>
</a>
</g>
</g>
<!-- Node6&#45;&gt;Node5 -->
<g id="edge5_Node000005_Node000006" class="edge">
<title>Node6&#45;&gt;Node5</title>
<g id="a_edge5_Node000005_Node000006"><a xlink:title=" ">
<path fill="none" stroke="#63b8ff" d="M86.5,-534.58C86.5,-526.12 86.5,-517.41 86.5,-509.01"/>
<polygon fill="none" stroke="#63b8ff" points="83,-534.75 86.5,-544.75 90,-534.75 83,-534.75"/>
</a>
</g>
</g>
<!-- Node7 -->
<g id="Node000007" class="node">
<title>Node7</title>
<g id="a_Node000007"><a xlink:href="classXML_1_1XMLObject.html" target="_top" xlink:title="A class representing a node in an XML&#45;tree.">
<polygon fill="white" stroke="transparent" points="173,-1114 0,-1114 0,-675 173,-675 173,-1114"/>
<text text-anchor="start" x="47" y="-1101.5" font-family="Helvetica,sans-Serif" font-size="10.00">XML::XMLObject</text>
<text text-anchor="start" x="4.5" y="-1086.5" font-family="Helvetica,sans-Serif" font-size="10.00">+</text>
<text text-anchor="start" x="17.5" y="-1086.5" font-family="Helvetica,sans-Serif" font-size="10.00">xmlns</text>
<text text-anchor="start" x="4.5" y="-1071.5" font-family="Helvetica,sans-Serif" font-size="10.00">+</text>
<text text-anchor="start" x="17.5" y="-1071.5" font-family="Helvetica,sans-Serif" font-size="10.00">className</text>
<text text-anchor="start" x="4.5" y="-1056.5" font-family="Helvetica,sans-Serif" font-size="10.00">+</text>
<text text-anchor="start" x="17.5" y="-1056.5" font-family="Helvetica,sans-Serif" font-size="10.00">prefix</text>
<text text-anchor="start" x="4.5" y="-1041.5" font-family="Helvetica,sans-Serif" font-size="10.00">+</text>
<text text-anchor="start" x="17.5" y="-1041.5" font-family="Helvetica,sans-Serif" font-size="10.00">elementName</text>
<text text-anchor="start" x="4.5" y="-1026.5" font-family="Helvetica,sans-Serif" font-size="10.00">+</text>
<text text-anchor="start" x="17.5" y="-1026.5" font-family="Helvetica,sans-Serif" font-size="10.00">textContent</text>
<text text-anchor="start" x="4.5" y="-1011.5" font-family="Helvetica,sans-Serif" font-size="10.00">+</text>
<text text-anchor="start" x="17.5" y="-1011.5" font-family="Helvetica,sans-Serif" font-size="10.00">children</text>
<text text-anchor="start" x="4.5" y="-996.5" font-family="Helvetica,sans-Serif" font-size="10.00">+</text>
<text text-anchor="start" x="17.5" y="-996.5" font-family="Helvetica,sans-Serif" font-size="10.00">attributes</text>
<text text-anchor="start" x="4.5" y="-981.5" font-family="Helvetica,sans-Serif" font-size="10.00">+</text>
<text text-anchor="start" x="17.5" y="-981.5" font-family="Helvetica,sans-Serif" font-size="10.00">defaults</text>
<text text-anchor="start" x="4.5" y="-966.5" font-family="Helvetica,sans-Serif" font-size="10.00">#</text>
<text text-anchor="start" x="17.5" y="-966.5" font-family="Helvetica,sans-Serif" font-size="10.00">factory</text>
<text text-anchor="start" x="4.5" y="-951.5" font-family="Helvetica,sans-Serif" font-size="10.00">+</text>
<text text-anchor="start" x="17.5" y="-951.5" font-family="Helvetica,sans-Serif" font-size="10.00">~XMLObject()</text>
<text text-anchor="start" x="4.5" y="-936.5" font-family="Helvetica,sans-Serif" font-size="10.00">+</text>
<text text-anchor="start" x="17.5" y="-936.5" font-family="Helvetica,sans-Serif" font-size="10.00">is()</text>
<text text-anchor="start" x="4.5" y="-921.5" font-family="Helvetica,sans-Serif" font-size="10.00">+</text>
<text text-anchor="start" x="17.5" y="-921.5" font-family="Helvetica,sans-Serif" font-size="10.00">get()</text>
<text text-anchor="start" x="4.5" y="-906.5" font-family="Helvetica,sans-Serif" font-size="10.00">+</text>
<text text-anchor="start" x="17.5" y="-906.5" font-family="Helvetica,sans-Serif" font-size="10.00">find()</text>
<text text-anchor="start" x="4.5" y="-891.5" font-family="Helvetica,sans-Serif" font-size="10.00">+</text>
<text text-anchor="start" x="17.5" y="-891.5" font-family="Helvetica,sans-Serif" font-size="10.00">stringify()</text>
<text text-anchor="start" x="4.5" y="-876.5" font-family="Helvetica,sans-Serif" font-size="10.00">+</text>
<text text-anchor="start" x="17.5" y="-876.5" font-family="Helvetica,sans-Serif" font-size="10.00">format()</text>
<text text-anchor="start" x="4.5" y="-861.5" font-family="Helvetica,sans-Serif" font-size="10.00">+</text>
<text text-anchor="start" x="17.5" y="-861.5" font-family="Helvetica,sans-Serif" font-size="10.00">getRequiredChild()</text>
<text text-anchor="start" x="4.5" y="-846.5" font-family="Helvetica,sans-Serif" font-size="10.00">+</text>
<text text-anchor="start" x="17.5" y="-846.5" font-family="Helvetica,sans-Serif" font-size="10.00">getOptionalChild()</text>
<text text-anchor="start" x="4.5" y="-831.5" font-family="Helvetica,sans-Serif" font-size="10.00">+</text>
<text text-anchor="start" x="17.5" y="-831.5" font-family="Helvetica,sans-Serif" font-size="10.00">getChildren()</text>
<text text-anchor="start" x="4.5" y="-816.5" font-family="Helvetica,sans-Serif" font-size="10.00">+</text>
<text text-anchor="start" x="17.5" y="-816.5" font-family="Helvetica,sans-Serif" font-size="10.00">getRequiredChildByName()</text>
<text text-anchor="start" x="4.5" y="-801.5" font-family="Helvetica,sans-Serif" font-size="10.00">+</text>
<text text-anchor="start" x="17.5" y="-801.5" font-family="Helvetica,sans-Serif" font-size="10.00">getOptionalChildByName()</text>
<text text-anchor="start" x="4.5" y="-786.5" font-family="Helvetica,sans-Serif" font-size="10.00">+</text>
<text text-anchor="start" x="17.5" y="-786.5" font-family="Helvetica,sans-Serif" font-size="10.00">getChildrenByName()</text>
<text text-anchor="start" x="4.5" y="-771.5" font-family="Helvetica,sans-Serif" font-size="10.00">+</text>
<text text-anchor="start" x="17.5" y="-771.5" font-family="Helvetica,sans-Serif" font-size="10.00">getRequiredAttributeByName()</text>
<text text-anchor="start" x="4.5" y="-756.5" font-family="Helvetica,sans-Serif" font-size="10.00">+</text>
<text text-anchor="start" x="17.5" y="-756.5" font-family="Helvetica,sans-Serif" font-size="10.00">getOptionalAttributeByName()</text>
<text text-anchor="start" x="4.5" y="-741.5" font-family="Helvetica,sans-Serif" font-size="10.00">+</text>
<text text-anchor="start" x="17.5" y="-741.5" font-family="Helvetica,sans-Serif" font-size="10.00">createFromStream()</text>
<text text-anchor="start" x="4.5" y="-726.5" font-family="Helvetica,sans-Serif" font-size="10.00">+</text>
<text text-anchor="start" x="17.5" y="-726.5" font-family="Helvetica,sans-Serif" font-size="10.00">createFromString()</text>
<text text-anchor="start" x="4.5" y="-711.5" font-family="Helvetica,sans-Serif" font-size="10.00">+</text>
<text text-anchor="start" x="17.5" y="-711.5" font-family="Helvetica,sans-Serif" font-size="10.00">createFromFile()</text>
<text text-anchor="start" x="4.5" y="-696.5" font-family="Helvetica,sans-Serif" font-size="10.00">#</text>
<text text-anchor="start" x="17.5" y="-696.5" font-family="Helvetica,sans-Serif" font-size="10.00">XMLObject()</text>
<text text-anchor="start" x="4.5" y="-681.5" font-family="Helvetica,sans-Serif" font-size="10.00">#</text>
<text text-anchor="start" x="17.5" y="-681.5" font-family="Helvetica,sans-Serif" font-size="10.00">createObject()</text>
<polygon fill="#666666" stroke="#666666" points="0.5,-1096.5 0.5,-1096.5 173.5,-1096.5 173.5,-1096.5 0.5,-1096.5"/>
<polygon fill="#666666" stroke="#666666" points="0.5,-961.5 0.5,-961.5 15.5,-961.5 15.5,-961.5 0.5,-961.5"/>
<polygon fill="#666666" stroke="#666666" points="15.5,-961.5 15.5,-961.5 173.5,-961.5 173.5,-961.5 15.5,-961.5"/>
<polygon fill="none" stroke="#666666" points="0,-675 0,-1114 173,-1114 173,-675 0,-675"/>
</a>
</g>
</g>
<!-- Node7&#45;&gt;Node6 -->
<g id="edge6_Node000006_Node000007" class="edge">
<title>Node7&#45;&gt;Node6</title>
<g id="a_edge6_Node000006_Node000007"><a xlink:title=" ">
<path fill="none" stroke="#63b8ff" d="M86.5,-664.65C86.5,-655.56 86.5,-647 86.5,-639.18"/>
<polygon fill="none" stroke="#63b8ff" points="83,-664.72 86.5,-674.72 90,-664.72 83,-664.72"/>
</a>
</g>
</g>
</g>
</svg>
