<?xml version="1.0" encoding="UTF-8" standalone="no"?>
<!DOCTYPE svg PUBLIC "-//W3C//DTD SVG 1.1//EN"
 "http://www.w3.org/Graphics/SVG/1.1/DTD/svg11.dtd">
<!-- Generated by graphviz version 2.43.0 (0)
 -->
<!-- Title: XML::bpmn::globalBusinessRuleTask Pages: 1 -->
<svg width="169pt" height="1004pt"
 viewBox="0.00 0.00 169.00 1004.00" xmlns="http://www.w3.org/2000/svg" xmlns:xlink="http://www.w3.org/1999/xlink">
<g id="graph0" class="graph" transform="scale(1 1) rotate(0) translate(4 1000)">
<title>XML::bpmn::globalBusinessRuleTask</title>
<!-- Node1 -->
<g id="node1" class="node">
<title>Node1</title>
<g id="a_node1"><a xlink:title=" ">
<polygon fill="#bfbfbf" stroke="black" points="4.5,-0.5 4.5,-68.5 156.5,-68.5 156.5,-0.5 4.5,-0.5"/>
<text text-anchor="start" x="12.5" y="-56.5" font-family="Helvetica,sans-Serif" font-size="10.00">XML::bpmn::globalBusiness</text>
<text text-anchor="middle" x="80.5" y="-45.5" font-family="Helvetica,sans-Serif" font-size="10.00">RuleTask</text>
<polyline fill="none" stroke="black" points="4.5,-38.5 156.5,-38.5 "/>
<text text-anchor="start" x="12.5" y="-26.5" font-family="Helvetica,sans-Serif" font-size="10.00">+ defaults</text>
<polyline fill="none" stroke="black" points="4.5,-19.5 156.5,-19.5 "/>
<text text-anchor="start" x="12.5" y="-7.5" font-family="Helvetica,sans-Serif" font-size="10.00"># globalBusinessRuleTask()</text>
</a>
</g>
</g>
<!-- Node2 -->
<g id="node2" class="node">
<title>Node2</title>
<g id="a_node2"><a xlink:href="classXML_1_1bpmn_1_1tGlobalBusinessRuleTask.html" target="_top" xlink:title=" ">
<polygon fill="none" stroke="black" points="1.5,-105.5 1.5,-184.5 159.5,-184.5 159.5,-105.5 1.5,-105.5"/>
<text text-anchor="start" x="9.5" y="-172.5" font-family="Helvetica,sans-Serif" font-size="10.00">XML::bpmn::tGlobalBusiness</text>
<text text-anchor="middle" x="80.5" y="-161.5" font-family="Helvetica,sans-Serif" font-size="10.00">RuleTask</text>
<polyline fill="none" stroke="black" points="1.5,-154.5 159.5,-154.5 "/>
<text text-anchor="start" x="9.5" y="-142.5" font-family="Helvetica,sans-Serif" font-size="10.00">+ implementation</text>
<text text-anchor="start" x="9.5" y="-131.5" font-family="Helvetica,sans-Serif" font-size="10.00">+ defaults</text>
<polyline fill="none" stroke="black" points="1.5,-124.5 159.5,-124.5 "/>
<text text-anchor="start" x="9.5" y="-112.5" font-family="Helvetica,sans-Serif" font-size="10.00"># tGlobalBusinessRuleTask()</text>
</a>
</g>
</g>
<!-- Node2&#45;&gt;Node1 -->
<g id="edge1" class="edge">
<title>Node2&#45;&gt;Node1</title>
<path fill="none" stroke="midnightblue" d="M80.5,-95.35C80.5,-86.28 80.5,-77 80.5,-68.54"/>
<polygon fill="none" stroke="midnightblue" points="77,-95.44 80.5,-105.44 84,-95.44 77,-95.44"/>
</g>
<!-- Node3 -->
<g id="node3" class="node">
<title>Node3</title>
<g id="a_node3"><a xlink:href="classXML_1_1bpmn_1_1tGlobalTask.html" target="_top" xlink:title=" ">
<polygon fill="none" stroke="black" points="13.5,-221.5 13.5,-289.5 147.5,-289.5 147.5,-221.5 13.5,-221.5"/>
<text text-anchor="middle" x="80.5" y="-277.5" font-family="Helvetica,sans-Serif" font-size="10.00">XML::bpmn::tGlobalTask</text>
<polyline fill="none" stroke="black" points="13.5,-270.5 147.5,-270.5 "/>
<text text-anchor="start" x="21.5" y="-258.5" font-family="Helvetica,sans-Serif" font-size="10.00">+ resourceRole</text>
<text text-anchor="start" x="21.5" y="-247.5" font-family="Helvetica,sans-Serif" font-size="10.00">+ defaults</text>
<polyline fill="none" stroke="black" points="13.5,-240.5 147.5,-240.5 "/>
<text text-anchor="start" x="21.5" y="-228.5" font-family="Helvetica,sans-Serif" font-size="10.00"># tGlobalTask()</text>
</a>
</g>
</g>
<!-- Node3&#45;&gt;Node2 -->
<g id="edge2" class="edge">
<title>Node3&#45;&gt;Node2</title>
<path fill="none" stroke="midnightblue" d="M80.5,-211.27C80.5,-202.48 80.5,-193.28 80.5,-184.65"/>
<polygon fill="none" stroke="midnightblue" points="77,-211.36 80.5,-221.36 84,-211.36 77,-211.36"/>
</g>
<!-- Node4 -->
<g id="node4" class="node">
<title>Node4</title>
<g id="a_node4"><a xlink:href="classXML_1_1bpmn_1_1tCallableElement.html" target="_top" xlink:title=" ">
<polygon fill="none" stroke="black" points="0,-326.5 0,-427.5 161,-427.5 161,-326.5 0,-326.5"/>
<text text-anchor="middle" x="80.5" y="-415.5" font-family="Helvetica,sans-Serif" font-size="10.00">XML::bpmn::tCallableElement</text>
<polyline fill="none" stroke="black" points="0,-408.5 161,-408.5 "/>
<text text-anchor="start" x="8" y="-396.5" font-family="Helvetica,sans-Serif" font-size="10.00">+ supportedInterfaceRef</text>
<text text-anchor="start" x="8" y="-385.5" font-family="Helvetica,sans-Serif" font-size="10.00">+ ioSpecification</text>
<text text-anchor="start" x="8" y="-374.5" font-family="Helvetica,sans-Serif" font-size="10.00">+ ioBinding</text>
<text text-anchor="start" x="8" y="-363.5" font-family="Helvetica,sans-Serif" font-size="10.00">+ name</text>
<text text-anchor="start" x="8" y="-352.5" font-family="Helvetica,sans-Serif" font-size="10.00">+ defaults</text>
<polyline fill="none" stroke="black" points="0,-345.5 161,-345.5 "/>
<text text-anchor="start" x="8" y="-333.5" font-family="Helvetica,sans-Serif" font-size="10.00"># tCallableElement()</text>
</a>
</g>
</g>
<!-- Node4&#45;&gt;Node3 -->
<g id="edge3" class="edge">
<title>Node4&#45;&gt;Node3</title>
<path fill="none" stroke="midnightblue" d="M80.5,-316.17C80.5,-307.11 80.5,-298.05 80.5,-289.83"/>
<polygon fill="none" stroke="midnightblue" points="77,-316.36 80.5,-326.36 84,-316.36 77,-316.36"/>
</g>
<!-- Node5 -->
<g id="node5" class="node">
<title>Node5</title>
<g id="a_node5"><a xlink:href="classXML_1_1bpmn_1_1tRootElement.html" target="_top" xlink:title=" ">
<polygon fill="none" stroke="black" points="8.5,-464.5 8.5,-521.5 152.5,-521.5 152.5,-464.5 8.5,-464.5"/>
<text text-anchor="middle" x="80.5" y="-509.5" font-family="Helvetica,sans-Serif" font-size="10.00">XML::bpmn::tRootElement</text>
<polyline fill="none" stroke="black" points="8.5,-502.5 152.5,-502.5 "/>
<text text-anchor="start" x="16.5" y="-490.5" font-family="Helvetica,sans-Serif" font-size="10.00">+ defaults</text>
<polyline fill="none" stroke="black" points="8.5,-483.5 152.5,-483.5 "/>
<text text-anchor="start" x="16.5" y="-471.5" font-family="Helvetica,sans-Serif" font-size="10.00"># tRootElement()</text>
</a>
</g>
</g>
<!-- Node5&#45;&gt;Node4 -->
<g id="edge4" class="edge">
<title>Node5&#45;&gt;Node4</title>
<path fill="none" stroke="midnightblue" d="M80.5,-454.35C80.5,-445.8 80.5,-436.58 80.5,-427.61"/>
<polygon fill="none" stroke="midnightblue" points="77,-454.4 80.5,-464.4 84,-454.4 77,-454.4"/>
</g>
<!-- Node6 -->
<g id="node6" class="node">
<title>Node6</title>
<g id="a_node6"><a xlink:href="classXML_1_1bpmn_1_1tBaseElement.html" target="_top" xlink:title=" ">
<polygon fill="none" stroke="black" points="7.5,-558.5 7.5,-648.5 153.5,-648.5 153.5,-558.5 7.5,-558.5"/>
<text text-anchor="middle" x="80.5" y="-636.5" font-family="Helvetica,sans-Serif" font-size="10.00">XML::bpmn::tBaseElement</text>
<polyline fill="none" stroke="black" points="7.5,-629.5 153.5,-629.5 "/>
<text text-anchor="start" x="15.5" y="-617.5" font-family="Helvetica,sans-Serif" font-size="10.00">+ documentation</text>
<text text-anchor="start" x="15.5" y="-606.5" font-family="Helvetica,sans-Serif" font-size="10.00">+ extensionElements</text>
<text text-anchor="start" x="15.5" y="-595.5" font-family="Helvetica,sans-Serif" font-size="10.00">+ id</text>
<text text-anchor="start" x="15.5" y="-584.5" font-family="Helvetica,sans-Serif" font-size="10.00">+ defaults</text>
<polyline fill="none" stroke="black" points="7.5,-577.5 153.5,-577.5 "/>
<text text-anchor="start" x="15.5" y="-565.5" font-family="Helvetica,sans-Serif" font-size="10.00"># tBaseElement()</text>
</a>
</g>
</g>
<!-- Node6&#45;&gt;Node5 -->
<g id="edge5" class="edge">
<title>Node6&#45;&gt;Node5</title>
<path fill="none" stroke="midnightblue" d="M80.5,-548.35C80.5,-539.07 80.5,-529.79 80.5,-521.59"/>
<polygon fill="none" stroke="midnightblue" points="77,-548.37 80.5,-558.37 84,-548.37 77,-548.37"/>
</g>
<!-- Node7 -->
<g id="node7" class="node">
<title>Node7</title>
<g id="a_node7"><a xlink:href="classXML_1_1XMLObject.html" target="_top" xlink:title=" ">
<polygon fill="none" stroke="black" points="17.5,-685.5 17.5,-995.5 143.5,-995.5 143.5,-685.5 17.5,-685.5"/>
<text text-anchor="middle" x="80.5" y="-983.5" font-family="Helvetica,sans-Serif" font-size="10.00">XML::XMLObject</text>
<polyline fill="none" stroke="black" points="17.5,-976.5 143.5,-976.5 "/>
<text text-anchor="start" x="25.5" y="-964.5" font-family="Helvetica,sans-Serif" font-size="10.00">+ xmlns</text>
<text text-anchor="start" x="25.5" y="-953.5" font-family="Helvetica,sans-Serif" font-size="10.00">+ className</text>
<text text-anchor="start" x="25.5" y="-942.5" font-family="Helvetica,sans-Serif" font-size="10.00">+ prefix</text>
<text text-anchor="start" x="25.5" y="-931.5" font-family="Helvetica,sans-Serif" font-size="10.00">+ elementName</text>
<text text-anchor="start" x="25.5" y="-920.5" font-family="Helvetica,sans-Serif" font-size="10.00">+ textContent</text>
<text text-anchor="start" x="25.5" y="-909.5" font-family="Helvetica,sans-Serif" font-size="10.00">+ children</text>
<text text-anchor="start" x="25.5" y="-898.5" font-family="Helvetica,sans-Serif" font-size="10.00">+ attributes</text>
<text text-anchor="start" x="25.5" y="-887.5" font-family="Helvetica,sans-Serif" font-size="10.00">+ defaults</text>
<text text-anchor="start" x="25.5" y="-876.5" font-family="Helvetica,sans-Serif" font-size="10.00"># factory</text>
<polyline fill="none" stroke="black" points="17.5,-869.5 143.5,-869.5 "/>
<text text-anchor="start" x="25.5" y="-857.5" font-family="Helvetica,sans-Serif" font-size="10.00">+ ~XMLObject()</text>
<text text-anchor="start" x="25.5" y="-846.5" font-family="Helvetica,sans-Serif" font-size="10.00">+ is()</text>
<text text-anchor="start" x="25.5" y="-835.5" font-family="Helvetica,sans-Serif" font-size="10.00">+ is()</text>
<text text-anchor="start" x="25.5" y="-824.5" font-family="Helvetica,sans-Serif" font-size="10.00">+ get()</text>
<text text-anchor="start" x="25.5" y="-813.5" font-family="Helvetica,sans-Serif" font-size="10.00">+ get()</text>
<text text-anchor="start" x="25.5" y="-802.5" font-family="Helvetica,sans-Serif" font-size="10.00">+ find()</text>
<text text-anchor="start" x="25.5" y="-791.5" font-family="Helvetica,sans-Serif" font-size="10.00">+ find()</text>
<text text-anchor="start" x="25.5" y="-780.5" font-family="Helvetica,sans-Serif" font-size="10.00">+ stringify()</text>
<text text-anchor="start" x="25.5" y="-769.5" font-family="Helvetica,sans-Serif" font-size="10.00">+ getRequiredChild()</text>
<text text-anchor="start" x="25.5" y="-758.5" font-family="Helvetica,sans-Serif" font-size="10.00">+ getOptionalChild()</text>
<text text-anchor="start" x="25.5" y="-747.5" font-family="Helvetica,sans-Serif" font-size="10.00">and 6 more...</text>
<text text-anchor="start" x="25.5" y="-736.5" font-family="Helvetica,sans-Serif" font-size="10.00">+ createFromStream()</text>
<text text-anchor="start" x="25.5" y="-725.5" font-family="Helvetica,sans-Serif" font-size="10.00">+ createFromString()</text>
<text text-anchor="start" x="25.5" y="-714.5" font-family="Helvetica,sans-Serif" font-size="10.00">+ createFromFile()</text>
<text text-anchor="start" x="25.5" y="-703.5" font-family="Helvetica,sans-Serif" font-size="10.00"># XMLObject()</text>
<text text-anchor="start" x="25.5" y="-692.5" font-family="Helvetica,sans-Serif" font-size="10.00"># createObject()</text>
</a>
</g>
</g>
<!-- Node7&#45;&gt;Node6 -->
<g id="edge6" class="edge">
<title>Node7&#45;&gt;Node6</title>
<path fill="none" stroke="midnightblue" d="M80.5,-675.35C80.5,-665.89 80.5,-656.91 80.5,-648.72"/>
<polygon fill="none" stroke="midnightblue" points="77,-675.37 80.5,-685.37 84,-675.37 77,-675.37"/>
</g>
</g>
</svg>
