<?xml version="1.0" encoding="UTF-8" standalone="no"?>
<!DOCTYPE svg PUBLIC "-//W3C//DTD SVG 1.1//EN"
 "http://www.w3.org/Graphics/SVG/1.1/DTD/svg11.dtd">
<!-- Generated by graphviz version 2.43.0 (0)
 -->
<!-- Title: XML::bpmn::tItemDefinition Pages: 1 -->
<svg width="153pt" height="832pt"
 viewBox="0.00 0.00 153.00 832.00" xmlns="http://www.w3.org/2000/svg" xmlns:xlink="http://www.w3.org/1999/xlink">
<g id="graph0" class="graph" transform="scale(1 1) rotate(0) translate(4 828)">
<title>XML::bpmn::tItemDefinition</title>
<!-- Node1 -->
<g id="Node000001" class="node">
<title>Node1</title>
<g id="a_Node000001"><a xlink:title=" ">
<polygon fill="#999999" stroke="transparent" points="145,-179 0,-179 0,-85 145,-85 145,-179"/>
<text text-anchor="start" x="5.5" y="-167" font-family="Helvetica,sans-Serif" font-size="10.00">XML::bpmn::tItemDefinition</text>
<text text-anchor="start" x="15" y="-152" font-family="Helvetica,sans-Serif" font-size="10.00">+</text>
<text text-anchor="start" x="38.5" y="-152" font-family="Helvetica,sans-Serif" font-size="10.00">structureRef</text>
<text text-anchor="start" x="15" y="-137" font-family="Helvetica,sans-Serif" font-size="10.00">+</text>
<text text-anchor="start" x="38.5" y="-137" font-family="Helvetica,sans-Serif" font-size="10.00">isCollection</text>
<text text-anchor="start" x="15" y="-122" font-family="Helvetica,sans-Serif" font-size="10.00">+</text>
<text text-anchor="start" x="38.5" y="-122" font-family="Helvetica,sans-Serif" font-size="10.00">itemKind</text>
<text text-anchor="start" x="15" y="-107" font-family="Helvetica,sans-Serif" font-size="10.00">+</text>
<text text-anchor="start" x="38.5" y="-107" font-family="Helvetica,sans-Serif" font-size="10.00">defaults</text>
<text text-anchor="start" x="15" y="-92" font-family="Helvetica,sans-Serif" font-size="10.00">#</text>
<text text-anchor="start" x="38.5" y="-92" font-family="Helvetica,sans-Serif" font-size="10.00">tItemDefinition()</text>
<polygon fill="#666666" stroke="#666666" points="0.5,-162 0.5,-162 145.5,-162 145.5,-162 0.5,-162"/>
<polygon fill="#666666" stroke="#666666" points="0.5,-102 0.5,-102 36.5,-102 36.5,-102 0.5,-102"/>
<polygon fill="#666666" stroke="#666666" points="36.5,-102 36.5,-102 145.5,-102 145.5,-102 36.5,-102"/>
<polygon fill="none" stroke="#666666" points="0,-85 0,-179 145,-179 145,-85 0,-85"/>
</a>
</g>
</g>
<!-- Node5 -->
<g id="Node000005" class="node">
<title>Node5</title>
<g id="a_Node000005"><a xlink:href="classXML_1_1bpmn_1_1itemDefinition.html" target="_top" xlink:title=" ">
<polygon fill="white" stroke="transparent" points="143,-49 2,-49 2,0 143,0 143,-49"/>
<text text-anchor="start" x="7.5" y="-36.5" font-family="Helvetica,sans-Serif" font-size="10.00">XML::bpmn::itemDefinition</text>
<text text-anchor="start" x="17" y="-21.5" font-family="Helvetica,sans-Serif" font-size="10.00">+</text>
<text text-anchor="start" x="40.5" y="-21.5" font-family="Helvetica,sans-Serif" font-size="10.00">defaults</text>
<text text-anchor="start" x="17" y="-6.5" font-family="Helvetica,sans-Serif" font-size="10.00">#</text>
<text text-anchor="start" x="40.5" y="-6.5" font-family="Helvetica,sans-Serif" font-size="10.00">itemDefinition()</text>
<polygon fill="#666666" stroke="#666666" points="2.5,-31.5 2.5,-31.5 143.5,-31.5 143.5,-31.5 2.5,-31.5"/>
<polygon fill="#666666" stroke="#666666" points="2.5,-16.5 2.5,-16.5 38.5,-16.5 38.5,-16.5 2.5,-16.5"/>
<polygon fill="#666666" stroke="#666666" points="38.5,-16.5 38.5,-16.5 143.5,-16.5 143.5,-16.5 38.5,-16.5"/>
<polygon fill="none" stroke="#666666" points="2,0 2,-49 143,-49 143,0 2,0"/>
</a>
</g>
</g>
<!-- Node1&#45;&gt;Node5 -->
<g id="edge4_Node000001_Node000005" class="edge">
<title>Node1&#45;&gt;Node5</title>
<g id="a_edge4_Node000001_Node000005"><a xlink:title=" ">
<path fill="none" stroke="#63b8ff" d="M72.5,-74.59C72.5,-65.62 72.5,-56.79 72.5,-49.15"/>
<polygon fill="none" stroke="#63b8ff" points="69,-74.73 72.5,-84.73 76,-74.73 69,-74.73"/>
</a>
</g>
</g>
<!-- Node2 -->
<g id="Node000002" class="node">
<title>Node2</title>
<g id="a_Node000002"><a xlink:href="classXML_1_1bpmn_1_1tRootElement.html" target="_top" xlink:title=" ">
<polygon fill="white" stroke="transparent" points="141.5,-264 3.5,-264 3.5,-215 141.5,-215 141.5,-264"/>
<text text-anchor="start" x="8.5" y="-251.5" font-family="Helvetica,sans-Serif" font-size="10.00">XML::bpmn::tRootElement</text>
<text text-anchor="start" x="18" y="-236.5" font-family="Helvetica,sans-Serif" font-size="10.00">+</text>
<text text-anchor="start" x="41.5" y="-236.5" font-family="Helvetica,sans-Serif" font-size="10.00">defaults</text>
<text text-anchor="start" x="18" y="-221.5" font-family="Helvetica,sans-Serif" font-size="10.00">#</text>
<text text-anchor="start" x="41.5" y="-221.5" font-family="Helvetica,sans-Serif" font-size="10.00">tRootElement()</text>
<polygon fill="#666666" stroke="#666666" points="3.5,-246.5 3.5,-246.5 141.5,-246.5 141.5,-246.5 3.5,-246.5"/>
<polygon fill="#666666" stroke="#666666" points="3.5,-231.5 3.5,-231.5 39.5,-231.5 39.5,-231.5 3.5,-231.5"/>
<polygon fill="#666666" stroke="#666666" points="39.5,-231.5 39.5,-231.5 141.5,-231.5 141.5,-231.5 39.5,-231.5"/>
<polygon fill="none" stroke="#666666" points="3.5,-215 3.5,-264 141.5,-264 141.5,-215 3.5,-215"/>
</a>
</g>
</g>
<!-- Node2&#45;&gt;Node1 -->
<g id="edge1_Node000001_Node000002" class="edge">
<title>Node2&#45;&gt;Node1</title>
<g id="a_edge1_Node000001_Node000002"><a xlink:title=" ">
<path fill="none" stroke="#63b8ff" d="M72.5,-204.61C72.5,-196.48 72.5,-187.66 72.5,-179.08"/>
<polygon fill="none" stroke="#63b8ff" points="69,-204.82 72.5,-214.82 76,-204.82 69,-204.82"/>
</a>
</g>
</g>
<!-- Node3 -->
<g id="Node000003" class="node">
<title>Node3</title>
<g id="a_Node000003"><a xlink:href="classXML_1_1bpmn_1_1tBaseElement.html" target="_top" xlink:title=" ">
<polygon fill="white" stroke="transparent" points="142.5,-394 2.5,-394 2.5,-300 142.5,-300 142.5,-394"/>
<text text-anchor="start" x="7.5" y="-382" font-family="Helvetica,sans-Serif" font-size="10.00">XML::bpmn::tBaseElement</text>
<text text-anchor="start" x="12.5" y="-367" font-family="Helvetica,sans-Serif" font-size="10.00">+</text>
<text text-anchor="start" x="31.5" y="-367" font-family="Helvetica,sans-Serif" font-size="10.00">documentation</text>
<text text-anchor="start" x="12.5" y="-352" font-family="Helvetica,sans-Serif" font-size="10.00">+</text>
<text text-anchor="start" x="31.5" y="-352" font-family="Helvetica,sans-Serif" font-size="10.00">extensionElements</text>
<text text-anchor="start" x="12.5" y="-337" font-family="Helvetica,sans-Serif" font-size="10.00">+</text>
<text text-anchor="start" x="31.5" y="-337" font-family="Helvetica,sans-Serif" font-size="10.00">id</text>
<text text-anchor="start" x="12.5" y="-322" font-family="Helvetica,sans-Serif" font-size="10.00">+</text>
<text text-anchor="start" x="31.5" y="-322" font-family="Helvetica,sans-Serif" font-size="10.00">defaults</text>
<text text-anchor="start" x="12.5" y="-307" font-family="Helvetica,sans-Serif" font-size="10.00">#</text>
<text text-anchor="start" x="31.5" y="-307" font-family="Helvetica,sans-Serif" font-size="10.00">tBaseElement()</text>
<polygon fill="#666666" stroke="#666666" points="2.5,-377 2.5,-377 142.5,-377 142.5,-377 2.5,-377"/>
<polygon fill="#666666" stroke="#666666" points="2.5,-317 2.5,-317 29.5,-317 29.5,-317 2.5,-317"/>
<polygon fill="#666666" stroke="#666666" points="29.5,-317 29.5,-317 142.5,-317 142.5,-317 29.5,-317"/>
<polygon fill="none" stroke="#666666" points="2.5,-300 2.5,-394 142.5,-394 142.5,-300 2.5,-300"/>
</a>
</g>
</g>
<!-- Node3&#45;&gt;Node2 -->
<g id="edge2_Node000002_Node000003" class="edge">
<title>Node3&#45;&gt;Node2</title>
<g id="a_edge2_Node000002_Node000003"><a xlink:title=" ">
<path fill="none" stroke="#63b8ff" d="M72.5,-289.59C72.5,-280.62 72.5,-271.79 72.5,-264.15"/>
<polygon fill="none" stroke="#63b8ff" points="69,-289.73 72.5,-299.73 76,-289.73 69,-289.73"/>
</a>
</g>
</g>
<!-- Node4 -->
<g id="Node000004" class="node">
<title>Node4</title>
<g id="a_Node000004"><a xlink:href="classXML_1_1XMLObject.html" target="_top" xlink:title="A class representing a node in an XML&#45;tree.">
<polygon fill="white" stroke="transparent" points="132.5,-824 12.5,-824 12.5,-430 132.5,-430 132.5,-824"/>
<text text-anchor="start" x="32.5" y="-812" font-family="Helvetica,sans-Serif" font-size="10.00">XML::XMLObject</text>
<text text-anchor="start" x="16.5" y="-797" font-family="Helvetica,sans-Serif" font-size="10.00">+</text>
<text text-anchor="start" x="29.5" y="-797" font-family="Helvetica,sans-Serif" font-size="10.00">xmlns</text>
<text text-anchor="start" x="16.5" y="-782" font-family="Helvetica,sans-Serif" font-size="10.00">+</text>
<text text-anchor="start" x="29.5" y="-782" font-family="Helvetica,sans-Serif" font-size="10.00">className</text>
<text text-anchor="start" x="16.5" y="-767" font-family="Helvetica,sans-Serif" font-size="10.00">+</text>
<text text-anchor="start" x="29.5" y="-767" font-family="Helvetica,sans-Serif" font-size="10.00">prefix</text>
<text text-anchor="start" x="16.5" y="-752" font-family="Helvetica,sans-Serif" font-size="10.00">+</text>
<text text-anchor="start" x="29.5" y="-752" font-family="Helvetica,sans-Serif" font-size="10.00">elementName</text>
<text text-anchor="start" x="16.5" y="-737" font-family="Helvetica,sans-Serif" font-size="10.00">+</text>
<text text-anchor="start" x="29.5" y="-737" font-family="Helvetica,sans-Serif" font-size="10.00">textContent</text>
<text text-anchor="start" x="16.5" y="-722" font-family="Helvetica,sans-Serif" font-size="10.00">+</text>
<text text-anchor="start" x="29.5" y="-722" font-family="Helvetica,sans-Serif" font-size="10.00">children</text>
<text text-anchor="start" x="16.5" y="-707" font-family="Helvetica,sans-Serif" font-size="10.00">+</text>
<text text-anchor="start" x="29.5" y="-707" font-family="Helvetica,sans-Serif" font-size="10.00">attributes</text>
<text text-anchor="start" x="16.5" y="-692" font-family="Helvetica,sans-Serif" font-size="10.00">+</text>
<text text-anchor="start" x="29.5" y="-692" font-family="Helvetica,sans-Serif" font-size="10.00">defaults</text>
<text text-anchor="start" x="16.5" y="-677" font-family="Helvetica,sans-Serif" font-size="10.00">#</text>
<text text-anchor="start" x="29.5" y="-677" font-family="Helvetica,sans-Serif" font-size="10.00">factory</text>
<text text-anchor="start" x="16.5" y="-662" font-family="Helvetica,sans-Serif" font-size="10.00">+</text>
<text text-anchor="start" x="29.5" y="-662" font-family="Helvetica,sans-Serif" font-size="10.00">~XMLObject()</text>
<text text-anchor="start" x="16.5" y="-647" font-family="Helvetica,sans-Serif" font-size="10.00">+</text>
<text text-anchor="start" x="29.5" y="-647" font-family="Helvetica,sans-Serif" font-size="10.00">is()</text>
<text text-anchor="start" x="16.5" y="-632" font-family="Helvetica,sans-Serif" font-size="10.00">+</text>
<text text-anchor="start" x="29.5" y="-632" font-family="Helvetica,sans-Serif" font-size="10.00">is()</text>
<text text-anchor="start" x="16.5" y="-617" font-family="Helvetica,sans-Serif" font-size="10.00">+</text>
<text text-anchor="start" x="29.5" y="-617" font-family="Helvetica,sans-Serif" font-size="10.00">get()</text>
<text text-anchor="start" x="16.5" y="-602" font-family="Helvetica,sans-Serif" font-size="10.00">+</text>
<text text-anchor="start" x="29.5" y="-602" font-family="Helvetica,sans-Serif" font-size="10.00">get()</text>
<text text-anchor="start" x="16.5" y="-587" font-family="Helvetica,sans-Serif" font-size="10.00">+</text>
<text text-anchor="start" x="29.5" y="-587" font-family="Helvetica,sans-Serif" font-size="10.00">find()</text>
<text text-anchor="start" x="16.5" y="-572" font-family="Helvetica,sans-Serif" font-size="10.00">+</text>
<text text-anchor="start" x="29.5" y="-572" font-family="Helvetica,sans-Serif" font-size="10.00">find()</text>
<text text-anchor="start" x="16.5" y="-557" font-family="Helvetica,sans-Serif" font-size="10.00">+</text>
<text text-anchor="start" x="29.5" y="-557" font-family="Helvetica,sans-Serif" font-size="10.00">stringify()</text>
<text text-anchor="start" x="16.5" y="-542" font-family="Helvetica,sans-Serif" font-size="10.00">+</text>
<text text-anchor="start" x="29.5" y="-542" font-family="Helvetica,sans-Serif" font-size="10.00">format()</text>
<text text-anchor="start" x="16.5" y="-527" font-family="Helvetica,sans-Serif" font-size="10.00">+</text>
<text text-anchor="start" x="29.5" y="-527" font-family="Helvetica,sans-Serif" font-size="10.00">getRequiredChild()</text>
<text text-anchor="start" x="29.5" y="-512" font-family="Helvetica,sans-Serif" font-size="10.00">and 7 more...</text>
<text text-anchor="start" x="16.5" y="-497" font-family="Helvetica,sans-Serif" font-size="10.00">+</text>
<text text-anchor="start" x="29.5" y="-497" font-family="Helvetica,sans-Serif" font-size="10.00">createFromStream()</text>
<text text-anchor="start" x="16.5" y="-482" font-family="Helvetica,sans-Serif" font-size="10.00">+</text>
<text text-anchor="start" x="29.5" y="-482" font-family="Helvetica,sans-Serif" font-size="10.00">createFromString()</text>
<text text-anchor="start" x="16.5" y="-467" font-family="Helvetica,sans-Serif" font-size="10.00">+</text>
<text text-anchor="start" x="29.5" y="-467" font-family="Helvetica,sans-Serif" font-size="10.00">createFromFile()</text>
<text text-anchor="start" x="16.5" y="-452" font-family="Helvetica,sans-Serif" font-size="10.00">#</text>
<text text-anchor="start" x="29.5" y="-452" font-family="Helvetica,sans-Serif" font-size="10.00">XMLObject()</text>
<text text-anchor="start" x="16.5" y="-437" font-family="Helvetica,sans-Serif" font-size="10.00">#</text>
<text text-anchor="start" x="29.5" y="-437" font-family="Helvetica,sans-Serif" font-size="10.00">createObject()</text>
<polygon fill="#666666" stroke="#666666" points="12.5,-807 12.5,-807 132.5,-807 132.5,-807 12.5,-807"/>
<polygon fill="#666666" stroke="#666666" points="12.5,-672 12.5,-672 27.5,-672 27.5,-672 12.5,-672"/>
<polygon fill="#666666" stroke="#666666" points="27.5,-672 27.5,-672 132.5,-672 132.5,-672 27.5,-672"/>
<polygon fill="none" stroke="#666666" points="12.5,-430 12.5,-824 132.5,-824 132.5,-430 12.5,-430"/>
</a>
</g>
</g>
<!-- Node4&#45;&gt;Node3 -->
<g id="edge3_Node000003_Node000004" class="edge">
<title>Node4&#45;&gt;Node3</title>
<g id="a_edge3_Node000003_Node000004"><a xlink:title=" ">
<path fill="none" stroke="#63b8ff" d="M72.5,-419.78C72.5,-410.62 72.5,-401.97 72.5,-394.06"/>
<polygon fill="none" stroke="#63b8ff" points="69,-419.91 72.5,-429.91 76,-419.91 69,-419.91"/>
</a>
</g>
</g>
</g>
</svg>
