<?xml version="1.0" encoding="UTF-8" standalone="no"?>
<!DOCTYPE svg PUBLIC "-//W3C//DTD SVG 1.1//EN"
 "http://www.w3.org/Graphics/SVG/1.1/DTD/svg11.dtd">
<!-- Generated by graphviz version 2.43.0 (0)
 -->
<!-- Title: XML::bpmn::globalTask Pages: 1 -->
<svg width="169pt" height="877pt"
 viewBox="0.00 0.00 169.00 877.00" xmlns="http://www.w3.org/2000/svg" xmlns:xlink="http://www.w3.org/1999/xlink">
<g id="graph0" class="graph" transform="scale(1 1) rotate(0) translate(4 873)">
<title>XML::bpmn::globalTask</title>
<!-- Node1 -->
<g id="node1" class="node">
<title>Node1</title>
<g id="a_node1"><a xlink:title=" ">
<polygon fill="#bfbfbf" stroke="black" points="16,-0.5 16,-57.5 145,-57.5 145,-0.5 16,-0.5"/>
<text text-anchor="middle" x="80.5" y="-45.5" font-family="Helvetica,sans-Serif" font-size="10.00">XML::bpmn::globalTask</text>
<polyline fill="none" stroke="black" points="16,-38.5 145,-38.5 "/>
<text text-anchor="start" x="24" y="-26.5" font-family="Helvetica,sans-Serif" font-size="10.00">+ defaults</text>
<polyline fill="none" stroke="black" points="16,-19.5 145,-19.5 "/>
<text text-anchor="start" x="24" y="-7.5" font-family="Helvetica,sans-Serif" font-size="10.00"># globalTask()</text>
</a>
</g>
</g>
<!-- Node2 -->
<g id="node2" class="node">
<title>Node2</title>
<g id="a_node2"><a xlink:href="classXML_1_1bpmn_1_1tGlobalTask.html" target="_top" xlink:title=" ">
<polygon fill="none" stroke="black" points="13.5,-94.5 13.5,-162.5 147.5,-162.5 147.5,-94.5 13.5,-94.5"/>
<text text-anchor="middle" x="80.5" y="-150.5" font-family="Helvetica,sans-Serif" font-size="10.00">XML::bpmn::tGlobalTask</text>
<polyline fill="none" stroke="black" points="13.5,-143.5 147.5,-143.5 "/>
<text text-anchor="start" x="21.5" y="-131.5" font-family="Helvetica,sans-Serif" font-size="10.00">+ resourceRole</text>
<text text-anchor="start" x="21.5" y="-120.5" font-family="Helvetica,sans-Serif" font-size="10.00">+ defaults</text>
<polyline fill="none" stroke="black" points="13.5,-113.5 147.5,-113.5 "/>
<text text-anchor="start" x="21.5" y="-101.5" font-family="Helvetica,sans-Serif" font-size="10.00"># tGlobalTask()</text>
</a>
</g>
</g>
<!-- Node2&#45;&gt;Node1 -->
<g id="edge1" class="edge">
<title>Node2&#45;&gt;Node1</title>
<path fill="none" stroke="midnightblue" d="M80.5,-84.45C80.5,-75.4 80.5,-66.09 80.5,-57.78"/>
<polygon fill="none" stroke="midnightblue" points="77,-84.49 80.5,-94.49 84,-84.49 77,-84.49"/>
</g>
<!-- Node3 -->
<g id="node3" class="node">
<title>Node3</title>
<g id="a_node3"><a xlink:href="classXML_1_1bpmn_1_1tCallableElement.html" target="_top" xlink:title=" ">
<polygon fill="none" stroke="black" points="0,-199.5 0,-300.5 161,-300.5 161,-199.5 0,-199.5"/>
<text text-anchor="middle" x="80.5" y="-288.5" font-family="Helvetica,sans-Serif" font-size="10.00">XML::bpmn::tCallableElement</text>
<polyline fill="none" stroke="black" points="0,-281.5 161,-281.5 "/>
<text text-anchor="start" x="8" y="-269.5" font-family="Helvetica,sans-Serif" font-size="10.00">+ supportedInterfaceRef</text>
<text text-anchor="start" x="8" y="-258.5" font-family="Helvetica,sans-Serif" font-size="10.00">+ ioSpecification</text>
<text text-anchor="start" x="8" y="-247.5" font-family="Helvetica,sans-Serif" font-size="10.00">+ ioBinding</text>
<text text-anchor="start" x="8" y="-236.5" font-family="Helvetica,sans-Serif" font-size="10.00">+ name</text>
<text text-anchor="start" x="8" y="-225.5" font-family="Helvetica,sans-Serif" font-size="10.00">+ defaults</text>
<polyline fill="none" stroke="black" points="0,-218.5 161,-218.5 "/>
<text text-anchor="start" x="8" y="-206.5" font-family="Helvetica,sans-Serif" font-size="10.00"># tCallableElement()</text>
</a>
</g>
</g>
<!-- Node3&#45;&gt;Node2 -->
<g id="edge2" class="edge">
<title>Node3&#45;&gt;Node2</title>
<path fill="none" stroke="midnightblue" d="M80.5,-189.17C80.5,-180.11 80.5,-171.05 80.5,-162.83"/>
<polygon fill="none" stroke="midnightblue" points="77,-189.36 80.5,-199.36 84,-189.36 77,-189.36"/>
</g>
<!-- Node4 -->
<g id="node4" class="node">
<title>Node4</title>
<g id="a_node4"><a xlink:href="classXML_1_1bpmn_1_1tRootElement.html" target="_top" xlink:title=" ">
<polygon fill="none" stroke="black" points="8.5,-337.5 8.5,-394.5 152.5,-394.5 152.5,-337.5 8.5,-337.5"/>
<text text-anchor="middle" x="80.5" y="-382.5" font-family="Helvetica,sans-Serif" font-size="10.00">XML::bpmn::tRootElement</text>
<polyline fill="none" stroke="black" points="8.5,-375.5 152.5,-375.5 "/>
<text text-anchor="start" x="16.5" y="-363.5" font-family="Helvetica,sans-Serif" font-size="10.00">+ defaults</text>
<polyline fill="none" stroke="black" points="8.5,-356.5 152.5,-356.5 "/>
<text text-anchor="start" x="16.5" y="-344.5" font-family="Helvetica,sans-Serif" font-size="10.00"># tRootElement()</text>
</a>
</g>
</g>
<!-- Node4&#45;&gt;Node3 -->
<g id="edge3" class="edge">
<title>Node4&#45;&gt;Node3</title>
<path fill="none" stroke="midnightblue" d="M80.5,-327.35C80.5,-318.8 80.5,-309.58 80.5,-300.61"/>
<polygon fill="none" stroke="midnightblue" points="77,-327.4 80.5,-337.4 84,-327.4 77,-327.4"/>
</g>
<!-- Node5 -->
<g id="node5" class="node">
<title>Node5</title>
<g id="a_node5"><a xlink:href="classXML_1_1bpmn_1_1tBaseElement.html" target="_top" xlink:title=" ">
<polygon fill="none" stroke="black" points="7.5,-431.5 7.5,-521.5 153.5,-521.5 153.5,-431.5 7.5,-431.5"/>
<text text-anchor="middle" x="80.5" y="-509.5" font-family="Helvetica,sans-Serif" font-size="10.00">XML::bpmn::tBaseElement</text>
<polyline fill="none" stroke="black" points="7.5,-502.5 153.5,-502.5 "/>
<text text-anchor="start" x="15.5" y="-490.5" font-family="Helvetica,sans-Serif" font-size="10.00">+ documentation</text>
<text text-anchor="start" x="15.5" y="-479.5" font-family="Helvetica,sans-Serif" font-size="10.00">+ extensionElements</text>
<text text-anchor="start" x="15.5" y="-468.5" font-family="Helvetica,sans-Serif" font-size="10.00">+ id</text>
<text text-anchor="start" x="15.5" y="-457.5" font-family="Helvetica,sans-Serif" font-size="10.00">+ defaults</text>
<polyline fill="none" stroke="black" points="7.5,-450.5 153.5,-450.5 "/>
<text text-anchor="start" x="15.5" y="-438.5" font-family="Helvetica,sans-Serif" font-size="10.00"># tBaseElement()</text>
</a>
</g>
</g>
<!-- Node5&#45;&gt;Node4 -->
<g id="edge4" class="edge">
<title>Node5&#45;&gt;Node4</title>
<path fill="none" stroke="midnightblue" d="M80.5,-421.35C80.5,-412.07 80.5,-402.79 80.5,-394.59"/>
<polygon fill="none" stroke="midnightblue" points="77,-421.37 80.5,-431.37 84,-421.37 77,-421.37"/>
</g>
<!-- Node6 -->
<g id="node6" class="node">
<title>Node6</title>
<g id="a_node6"><a xlink:href="classXML_1_1XMLObject.html" target="_top" xlink:title="A class representing a node in an XML&#45;tree.">
<polygon fill="none" stroke="black" points="17.5,-558.5 17.5,-868.5 143.5,-868.5 143.5,-558.5 17.5,-558.5"/>
<text text-anchor="middle" x="80.5" y="-856.5" font-family="Helvetica,sans-Serif" font-size="10.00">XML::XMLObject</text>
<polyline fill="none" stroke="black" points="17.5,-849.5 143.5,-849.5 "/>
<text text-anchor="start" x="25.5" y="-837.5" font-family="Helvetica,sans-Serif" font-size="10.00">+ xmlns</text>
<text text-anchor="start" x="25.5" y="-826.5" font-family="Helvetica,sans-Serif" font-size="10.00">+ className</text>
<text text-anchor="start" x="25.5" y="-815.5" font-family="Helvetica,sans-Serif" font-size="10.00">+ prefix</text>
<text text-anchor="start" x="25.5" y="-804.5" font-family="Helvetica,sans-Serif" font-size="10.00">+ elementName</text>
<text text-anchor="start" x="25.5" y="-793.5" font-family="Helvetica,sans-Serif" font-size="10.00">+ textContent</text>
<text text-anchor="start" x="25.5" y="-782.5" font-family="Helvetica,sans-Serif" font-size="10.00">+ children</text>
<text text-anchor="start" x="25.5" y="-771.5" font-family="Helvetica,sans-Serif" font-size="10.00">+ attributes</text>
<text text-anchor="start" x="25.5" y="-760.5" font-family="Helvetica,sans-Serif" font-size="10.00">+ defaults</text>
<text text-anchor="start" x="25.5" y="-749.5" font-family="Helvetica,sans-Serif" font-size="10.00"># factory</text>
<polyline fill="none" stroke="black" points="17.5,-742.5 143.5,-742.5 "/>
<text text-anchor="start" x="25.5" y="-730.5" font-family="Helvetica,sans-Serif" font-size="10.00">+ ~XMLObject()</text>
<text text-anchor="start" x="25.5" y="-719.5" font-family="Helvetica,sans-Serif" font-size="10.00">+ is()</text>
<text text-anchor="start" x="25.5" y="-708.5" font-family="Helvetica,sans-Serif" font-size="10.00">+ is()</text>
<text text-anchor="start" x="25.5" y="-697.5" font-family="Helvetica,sans-Serif" font-size="10.00">+ get()</text>
<text text-anchor="start" x="25.5" y="-686.5" font-family="Helvetica,sans-Serif" font-size="10.00">+ get()</text>
<text text-anchor="start" x="25.5" y="-675.5" font-family="Helvetica,sans-Serif" font-size="10.00">+ find()</text>
<text text-anchor="start" x="25.5" y="-664.5" font-family="Helvetica,sans-Serif" font-size="10.00">+ find()</text>
<text text-anchor="start" x="25.5" y="-653.5" font-family="Helvetica,sans-Serif" font-size="10.00">+ stringify()</text>
<text text-anchor="start" x="25.5" y="-642.5" font-family="Helvetica,sans-Serif" font-size="10.00">+ format()</text>
<text text-anchor="start" x="25.5" y="-631.5" font-family="Helvetica,sans-Serif" font-size="10.00">+ getRequiredChild()</text>
<text text-anchor="start" x="25.5" y="-620.5" font-family="Helvetica,sans-Serif" font-size="10.00">and 7 more...</text>
<text text-anchor="start" x="25.5" y="-609.5" font-family="Helvetica,sans-Serif" font-size="10.00">+ createFromStream()</text>
<text text-anchor="start" x="25.5" y="-598.5" font-family="Helvetica,sans-Serif" font-size="10.00">+ createFromString()</text>
<text text-anchor="start" x="25.5" y="-587.5" font-family="Helvetica,sans-Serif" font-size="10.00">+ createFromFile()</text>
<text text-anchor="start" x="25.5" y="-576.5" font-family="Helvetica,sans-Serif" font-size="10.00"># XMLObject()</text>
<text text-anchor="start" x="25.5" y="-565.5" font-family="Helvetica,sans-Serif" font-size="10.00"># createObject()</text>
</a>
</g>
</g>
<!-- Node6&#45;&gt;Node5 -->
<g id="edge5" class="edge">
<title>Node6&#45;&gt;Node5</title>
<path fill="none" stroke="midnightblue" d="M80.5,-548.35C80.5,-538.89 80.5,-529.91 80.5,-521.72"/>
<polygon fill="none" stroke="midnightblue" points="77,-548.37 80.5,-558.37 84,-548.37 77,-548.37"/>
</g>
</g>
</svg>
