<?xml version="1.0" encoding="UTF-8" standalone="no"?>
<!DOCTYPE svg PUBLIC "-//W3C//DTD SVG 1.1//EN"
 "http://www.w3.org/Graphics/SVG/1.1/DTD/svg11.dtd">
<!-- Generated by graphviz version 2.43.0 (0)
 -->
<!-- Title: BPMN::LinkSourceEvent Pages: 1 -->
<svg width="135pt" height="967pt"
 viewBox="0.00 0.00 135.00 967.00" xmlns="http://www.w3.org/2000/svg" xmlns:xlink="http://www.w3.org/1999/xlink">
<g id="graph0" class="graph" transform="scale(1 1) rotate(0) translate(4 963)">
<title>BPMN::LinkSourceEvent</title>
<!-- Node1 -->
<g id="Node000001" class="node">
<title>Node1</title>
<g id="a_Node000001"><a xlink:title=" ">
<polygon fill="#999999" stroke="transparent" points="127,-64 0,-64 0,0 127,0 127,-64"/>
<text text-anchor="start" x="5.5" y="-52" font-family="Helvetica,sans-Serif" font-size="10.00">BPMN::LinkSourceEvent</text>
<text text-anchor="start" x="8.5" y="-37" font-family="Helvetica,sans-Serif" font-size="10.00">+</text>
<text text-anchor="start" x="25.5" y="-37" font-family="Helvetica,sans-Serif" font-size="10.00">linkName</text>
<text text-anchor="start" x="8.5" y="-22" font-family="Helvetica,sans-Serif" font-size="10.00">+</text>
<text text-anchor="start" x="25.5" y="-22" font-family="Helvetica,sans-Serif" font-size="10.00">target</text>
<text text-anchor="start" x="8.5" y="-7" font-family="Helvetica,sans-Serif" font-size="10.00">+</text>
<text text-anchor="start" x="25.5" y="-7" font-family="Helvetica,sans-Serif" font-size="10.00">LinkSourceEvent()</text>
<polygon fill="#666666" stroke="#666666" points="0.5,-47 0.5,-47 127.5,-47 127.5,-47 0.5,-47"/>
<polygon fill="#666666" stroke="#666666" points="0.5,-17 0.5,-17 23.5,-17 23.5,-17 0.5,-17"/>
<polygon fill="#666666" stroke="#666666" points="23.5,-17 23.5,-17 127.5,-17 127.5,-17 23.5,-17"/>
<polygon fill="none" stroke="#666666" points="0,0 0,-64 127,-64 127,0 0,0"/>
</a>
</g>
</g>
<!-- Node2 -->
<g id="Node000002" class="node">
<title>Node2</title>
<g id="a_Node000002"><a xlink:href="classBPMN_1_1ThrowEvent.html" target="_top" xlink:title=" ">
<polygon fill="white" stroke="transparent" points="115.5,-149 11.5,-149 11.5,-100 115.5,-100 115.5,-149"/>
<text text-anchor="start" x="16.5" y="-136.5" font-family="Helvetica,sans-Serif" font-size="10.00">BPMN::ThrowEvent</text>
<text text-anchor="start" x="19.5" y="-121.5" font-family="Helvetica,sans-Serif" font-size="10.00">+</text>
<text text-anchor="start" x="36.5" y="-121.5" font-family="Helvetica,sans-Serif" font-size="10.00">element</text>
<text text-anchor="start" x="19.5" y="-106.5" font-family="Helvetica,sans-Serif" font-size="10.00">+</text>
<text text-anchor="start" x="36.5" y="-106.5" font-family="Helvetica,sans-Serif" font-size="10.00">ThrowEvent()</text>
<polygon fill="#666666" stroke="#666666" points="11.5,-131.5 11.5,-131.5 115.5,-131.5 115.5,-131.5 11.5,-131.5"/>
<polygon fill="#666666" stroke="#666666" points="11.5,-116.5 11.5,-116.5 34.5,-116.5 34.5,-116.5 11.5,-116.5"/>
<polygon fill="#666666" stroke="#666666" points="34.5,-116.5 34.5,-116.5 115.5,-116.5 115.5,-116.5 34.5,-116.5"/>
<polygon fill="none" stroke="#666666" points="11.5,-100 11.5,-149 115.5,-149 115.5,-100 11.5,-100"/>
</a>
</g>
</g>
<!-- Node2&#45;&gt;Node1 -->
<g id="edge1_Node000001_Node000002" class="edge">
<title>Node2&#45;&gt;Node1</title>
<g id="a_edge1_Node000001_Node000002"><a xlink:title=" ">
<path fill="none" stroke="#63b8ff" d="M63.5,-89.54C63.5,-81.2 63.5,-72.31 63.5,-64.11"/>
<polygon fill="none" stroke="#63b8ff" points="60,-89.72 63.5,-99.72 67,-89.72 60,-89.72"/>
</a>
</g>
</g>
<!-- Node3 -->
<g id="Node000003" class="node">
<title>Node3</title>
<g id="a_Node000003"><a xlink:href="classBPMN_1_1Event.html" target="_top" xlink:title=" ">
<polygon fill="white" stroke="transparent" points="100.5,-234 26.5,-234 26.5,-185 100.5,-185 100.5,-234"/>
<text text-anchor="start" x="31.5" y="-221.5" font-family="Helvetica,sans-Serif" font-size="10.00">BPMN::Event</text>
<text text-anchor="start" x="33.5" y="-206.5" font-family="Helvetica,sans-Serif" font-size="10.00">+</text>
<text text-anchor="start" x="49.5" y="-206.5" font-family="Helvetica,sans-Serif" font-size="10.00">element</text>
<text text-anchor="start" x="33.5" y="-191.5" font-family="Helvetica,sans-Serif" font-size="10.00">+</text>
<text text-anchor="start" x="49.5" y="-191.5" font-family="Helvetica,sans-Serif" font-size="10.00">Event()</text>
<polygon fill="#666666" stroke="#666666" points="26.5,-216.5 26.5,-216.5 100.5,-216.5 100.5,-216.5 26.5,-216.5"/>
<polygon fill="#666666" stroke="#666666" points="26.5,-201.5 26.5,-201.5 47.5,-201.5 47.5,-201.5 26.5,-201.5"/>
<polygon fill="#666666" stroke="#666666" points="47.5,-201.5 47.5,-201.5 100.5,-201.5 100.5,-201.5 47.5,-201.5"/>
<polygon fill="none" stroke="#666666" points="26.5,-185 26.5,-234 100.5,-234 100.5,-185 26.5,-185"/>
</a>
</g>
</g>
<!-- Node3&#45;&gt;Node2 -->
<g id="edge2_Node000002_Node000003" class="edge">
<title>Node3&#45;&gt;Node2</title>
<g id="a_edge2_Node000002_Node000003"><a xlink:title=" ">
<path fill="none" stroke="#63b8ff" d="M63.5,-174.77C63.5,-166.17 63.5,-157.1 63.5,-149.12"/>
<polygon fill="none" stroke="#63b8ff" points="60,-174.94 63.5,-184.94 67,-174.94 60,-174.94"/>
</a>
</g>
</g>
<!-- Node4 -->
<g id="Node000004" class="node">
<title>Node4</title>
<g id="a_Node000004"><a xlink:href="classBPMN_1_1FlowNode.html" target="_top" xlink:title="Base class for BPMN elements that may contain incoming and outgoing sequence flows.">
<polygon fill="white" stroke="transparent" points="111,-364 16,-364 16,-270 111,-270 111,-364"/>
<text text-anchor="start" x="21.5" y="-352" font-family="Helvetica,sans-Serif" font-size="10.00">BPMN::FlowNode</text>
<text text-anchor="start" x="24.5" y="-337" font-family="Helvetica,sans-Serif" font-size="10.00">+</text>
<text text-anchor="start" x="41.5" y="-337" font-family="Helvetica,sans-Serif" font-size="10.00">element</text>
<text text-anchor="start" x="24.5" y="-322" font-family="Helvetica,sans-Serif" font-size="10.00">+</text>
<text text-anchor="start" x="41.5" y="-322" font-family="Helvetica,sans-Serif" font-size="10.00">name</text>
<text text-anchor="start" x="24.5" y="-307" font-family="Helvetica,sans-Serif" font-size="10.00">+</text>
<text text-anchor="start" x="41.5" y="-307" font-family="Helvetica,sans-Serif" font-size="10.00">incoming</text>
<text text-anchor="start" x="24.5" y="-292" font-family="Helvetica,sans-Serif" font-size="10.00">+</text>
<text text-anchor="start" x="41.5" y="-292" font-family="Helvetica,sans-Serif" font-size="10.00">outgoing</text>
<text text-anchor="start" x="24.5" y="-277" font-family="Helvetica,sans-Serif" font-size="10.00">+</text>
<text text-anchor="start" x="41.5" y="-277" font-family="Helvetica,sans-Serif" font-size="10.00">FlowNode()</text>
<polygon fill="#666666" stroke="#666666" points="16.5,-347 16.5,-347 111.5,-347 111.5,-347 16.5,-347"/>
<polygon fill="#666666" stroke="#666666" points="16.5,-287 16.5,-287 39.5,-287 39.5,-287 16.5,-287"/>
<polygon fill="#666666" stroke="#666666" points="39.5,-287 39.5,-287 111.5,-287 111.5,-287 39.5,-287"/>
<polygon fill="none" stroke="#666666" points="16,-270 16,-364 111,-364 111,-270 16,-270"/>
</a>
</g>
</g>
<!-- Node4&#45;&gt;Node3 -->
<g id="edge3_Node000003_Node000004" class="edge">
<title>Node4&#45;&gt;Node3</title>
<g id="a_edge3_Node000003_Node000004"><a xlink:title=" ">
<path fill="none" stroke="#63b8ff" d="M63.5,-259.59C63.5,-250.62 63.5,-241.79 63.5,-234.15"/>
<polygon fill="none" stroke="#63b8ff" points="60,-259.73 63.5,-269.73 67,-259.73 60,-259.73"/>
</a>
</g>
</g>
<!-- Node5 -->
<g id="Node000005" class="node">
<title>Node5</title>
<g id="a_Node000005"><a xlink:href="classBPMN_1_1ChildNode.html" target="_top" xlink:title="Base class for BPMN elements within a Scope.">
<polygon fill="white" stroke="transparent" points="111.5,-479 15.5,-479 15.5,-400 111.5,-400 111.5,-479"/>
<text text-anchor="start" x="20.5" y="-466.5" font-family="Helvetica,sans-Serif" font-size="10.00">BPMN::ChildNode</text>
<text text-anchor="start" x="23.5" y="-451.5" font-family="Helvetica,sans-Serif" font-size="10.00">+</text>
<text text-anchor="start" x="40.5" y="-451.5" font-family="Helvetica,sans-Serif" font-size="10.00">parent</text>
<text text-anchor="start" x="23.5" y="-436.5" font-family="Helvetica,sans-Serif" font-size="10.00">+</text>
<text text-anchor="start" x="40.5" y="-436.5" font-family="Helvetica,sans-Serif" font-size="10.00">ChildNode()</text>
<text text-anchor="start" x="23.5" y="-421.5" font-family="Helvetica,sans-Serif" font-size="10.00">+</text>
<text text-anchor="start" x="40.5" y="-421.5" font-family="Helvetica,sans-Serif" font-size="10.00">ancestor()</text>
<text text-anchor="start" x="23.5" y="-406.5" font-family="Helvetica,sans-Serif" font-size="10.00">+</text>
<text text-anchor="start" x="40.5" y="-406.5" font-family="Helvetica,sans-Serif" font-size="10.00">ancestor()</text>
<polygon fill="#666666" stroke="#666666" points="15.5,-461.5 15.5,-461.5 111.5,-461.5 111.5,-461.5 15.5,-461.5"/>
<polygon fill="#666666" stroke="#666666" points="15.5,-446.5 15.5,-446.5 38.5,-446.5 38.5,-446.5 15.5,-446.5"/>
<polygon fill="#666666" stroke="#666666" points="38.5,-446.5 38.5,-446.5 111.5,-446.5 111.5,-446.5 38.5,-446.5"/>
<polygon fill="none" stroke="#666666" points="15.5,-400 15.5,-479 111.5,-479 111.5,-400 15.5,-400"/>
</a>
</g>
</g>
<!-- Node5&#45;&gt;Node4 -->
<g id="edge4_Node000004_Node000005" class="edge">
<title>Node5&#45;&gt;Node4</title>
<g id="a_edge4_Node000004_Node000005"><a xlink:title=" ">
<path fill="none" stroke="#63b8ff" d="M63.5,-389.68C63.5,-381.3 63.5,-372.61 63.5,-364.29"/>
<polygon fill="none" stroke="#63b8ff" points="60,-389.71 63.5,-399.71 67,-389.71 60,-389.71"/>
</a>
</g>
</g>
<!-- Node6 -->
<g id="Node000006" class="node">
<title>Node6</title>
<g id="a_Node000006"><a xlink:href="classBPMN_1_1Node.html" target="_top" xlink:title="Base class for all nodes in a BPMN model.">
<polygon fill="white" stroke="transparent" points="99,-639 28,-639 28,-515 99,-515 99,-639"/>
<text text-anchor="start" x="33.5" y="-627" font-family="Helvetica,sans-Serif" font-size="10.00">BPMN::Node</text>
<text text-anchor="start" x="33.5" y="-612" font-family="Helvetica,sans-Serif" font-size="10.00">+</text>
<text text-anchor="start" x="47.5" y="-612" font-family="Helvetica,sans-Serif" font-size="10.00">receiving</text>
<text text-anchor="start" x="33.5" y="-597" font-family="Helvetica,sans-Serif" font-size="10.00">+</text>
<text text-anchor="start" x="47.5" y="-597" font-family="Helvetica,sans-Serif" font-size="10.00">sending</text>
<text text-anchor="start" x="33.5" y="-582" font-family="Helvetica,sans-Serif" font-size="10.00">+</text>
<text text-anchor="start" x="47.5" y="-582" font-family="Helvetica,sans-Serif" font-size="10.00">Node()</text>
<text text-anchor="start" x="33.5" y="-567" font-family="Helvetica,sans-Serif" font-size="10.00">+</text>
<text text-anchor="start" x="47.5" y="-567" font-family="Helvetica,sans-Serif" font-size="10.00">find()</text>
<text text-anchor="start" x="33.5" y="-552" font-family="Helvetica,sans-Serif" font-size="10.00">+</text>
<text text-anchor="start" x="47.5" y="-552" font-family="Helvetica,sans-Serif" font-size="10.00">find()</text>
<text text-anchor="start" x="33.5" y="-537" font-family="Helvetica,sans-Serif" font-size="10.00">+</text>
<text text-anchor="start" x="47.5" y="-537" font-family="Helvetica,sans-Serif" font-size="10.00">find_all()</text>
<text text-anchor="start" x="33.5" y="-522" font-family="Helvetica,sans-Serif" font-size="10.00">+</text>
<text text-anchor="start" x="47.5" y="-522" font-family="Helvetica,sans-Serif" font-size="10.00">find_all()</text>
<polygon fill="#666666" stroke="#666666" points="28.5,-622 28.5,-622 99.5,-622 99.5,-622 28.5,-622"/>
<polygon fill="#666666" stroke="#666666" points="28.5,-592 28.5,-592 45.5,-592 45.5,-592 28.5,-592"/>
<polygon fill="#666666" stroke="#666666" points="45.5,-592 45.5,-592 99.5,-592 99.5,-592 45.5,-592"/>
<polygon fill="none" stroke="#666666" points="28,-515 28,-639 99,-639 99,-515 28,-515"/>
</a>
</g>
</g>
<!-- Node6&#45;&gt;Node5 -->
<g id="edge5_Node000005_Node000006" class="edge">
<title>Node6&#45;&gt;Node5</title>
<g id="a_edge5_Node000005_Node000006"><a xlink:title=" ">
<path fill="none" stroke="#63b8ff" d="M63.5,-504.93C63.5,-496.02 63.5,-487.19 63.5,-479.05"/>
<polygon fill="none" stroke="#63b8ff" points="60,-504.99 63.5,-514.99 67,-504.99 60,-504.99"/>
</a>
</g>
</g>
<!-- Node7 -->
<g id="Node000007" class="node">
<title>Node7</title>
<g id="a_Node000007"><a xlink:href="classBPMN_1_1BaseElement.html" target="_top" xlink:title="Base class for all core BPMN elements.">
<polygon fill="white" stroke="transparent" points="121,-814 6,-814 6,-675 121,-675 121,-814"/>
<text text-anchor="start" x="14" y="-801.5" font-family="Helvetica,sans-Serif" font-size="10.00">BPMN::BaseElement</text>
<text text-anchor="start" x="10.5" y="-786.5" font-family="Helvetica,sans-Serif" font-size="10.00">+</text>
<text text-anchor="start" x="23.5" y="-786.5" font-family="Helvetica,sans-Serif" font-size="10.00">element</text>
<text text-anchor="start" x="10.5" y="-771.5" font-family="Helvetica,sans-Serif" font-size="10.00">+</text>
<text text-anchor="start" x="23.5" y="-771.5" font-family="Helvetica,sans-Serif" font-size="10.00">id</text>
<text text-anchor="start" x="10.5" y="-756.5" font-family="Helvetica,sans-Serif" font-size="10.00">+</text>
<text text-anchor="start" x="23.5" y="-756.5" font-family="Helvetica,sans-Serif" font-size="10.00">extensionElements</text>
<text text-anchor="start" x="10.5" y="-741.5" font-family="Helvetica,sans-Serif" font-size="10.00">+</text>
<text text-anchor="start" x="23.5" y="-741.5" font-family="Helvetica,sans-Serif" font-size="10.00">BaseElement()</text>
<text text-anchor="start" x="10.5" y="-726.5" font-family="Helvetica,sans-Serif" font-size="10.00">+</text>
<text text-anchor="start" x="23.5" y="-726.5" font-family="Helvetica,sans-Serif" font-size="10.00">is()</text>
<text text-anchor="start" x="10.5" y="-711.5" font-family="Helvetica,sans-Serif" font-size="10.00">+</text>
<text text-anchor="start" x="23.5" y="-711.5" font-family="Helvetica,sans-Serif" font-size="10.00">is()</text>
<text text-anchor="start" x="10.5" y="-696.5" font-family="Helvetica,sans-Serif" font-size="10.00">+</text>
<text text-anchor="start" x="23.5" y="-696.5" font-family="Helvetica,sans-Serif" font-size="10.00">get()</text>
<text text-anchor="start" x="10.5" y="-681.5" font-family="Helvetica,sans-Serif" font-size="10.00">+</text>
<text text-anchor="start" x="23.5" y="-681.5" font-family="Helvetica,sans-Serif" font-size="10.00">get()</text>
<polygon fill="#666666" stroke="#666666" points="6.5,-796.5 6.5,-796.5 121.5,-796.5 121.5,-796.5 6.5,-796.5"/>
<polygon fill="#666666" stroke="#666666" points="6.5,-751.5 6.5,-751.5 21.5,-751.5 21.5,-751.5 6.5,-751.5"/>
<polygon fill="#666666" stroke="#666666" points="21.5,-751.5 21.5,-751.5 121.5,-751.5 121.5,-751.5 21.5,-751.5"/>
<polygon fill="none" stroke="#666666" points="6,-675 6,-814 121,-814 121,-675 6,-675"/>
</a>
</g>
</g>
<!-- Node7&#45;&gt;Node6 -->
<g id="edge6_Node000006_Node000007" class="edge">
<title>Node7&#45;&gt;Node6</title>
<g id="a_edge6_Node000006_Node000007"><a xlink:title=" ">
<path fill="none" stroke="#63b8ff" d="M63.5,-664.71C63.5,-656.12 63.5,-647.47 63.5,-639.14"/>
<polygon fill="none" stroke="#63b8ff" points="60,-664.75 63.5,-674.75 67,-664.75 60,-664.75"/>
</a>
</g>
</g>
<!-- Node8 -->
<g id="Node000008" class="node">
<title>Node8</title>
<g id="a_Node000008"><a xlink:href="classBPMN_1_1Element.html" target="_top" xlink:title="Abstract base class for all elements in a BPMN model.">
<polygon fill="white" stroke="transparent" points="106.5,-959 20.5,-959 20.5,-850 106.5,-850 106.5,-959"/>
<text text-anchor="start" x="25.5" y="-946.5" font-family="Helvetica,sans-Serif" font-size="10.00">BPMN::Element</text>
<text text-anchor="start" x="61.5" y="-931.5" font-family="Helvetica,sans-Serif" font-size="10.00"> </text>
<text text-anchor="start" x="25.5" y="-916.5" font-family="Helvetica,sans-Serif" font-size="10.00">+</text>
<text text-anchor="start" x="39.5" y="-916.5" font-family="Helvetica,sans-Serif" font-size="10.00">~Element()</text>
<text text-anchor="start" x="25.5" y="-901.5" font-family="Helvetica,sans-Serif" font-size="10.00">+</text>
<text text-anchor="start" x="39.5" y="-901.5" font-family="Helvetica,sans-Serif" font-size="10.00">represents()</text>
<text text-anchor="start" x="25.5" y="-886.5" font-family="Helvetica,sans-Serif" font-size="10.00">+</text>
<text text-anchor="start" x="39.5" y="-886.5" font-family="Helvetica,sans-Serif" font-size="10.00">represents()</text>
<text text-anchor="start" x="25.5" y="-871.5" font-family="Helvetica,sans-Serif" font-size="10.00">+</text>
<text text-anchor="start" x="39.5" y="-871.5" font-family="Helvetica,sans-Serif" font-size="10.00">as()</text>
<text text-anchor="start" x="25.5" y="-856.5" font-family="Helvetica,sans-Serif" font-size="10.00">+</text>
<text text-anchor="start" x="39.5" y="-856.5" font-family="Helvetica,sans-Serif" font-size="10.00">as()</text>
<polygon fill="#666666" stroke="#666666" points="20.5,-941.5 20.5,-941.5 106.5,-941.5 106.5,-941.5 20.5,-941.5"/>
<polygon fill="#666666" stroke="#666666" points="20.5,-926.5 20.5,-926.5 106.5,-926.5 106.5,-926.5 20.5,-926.5"/>
<polygon fill="none" stroke="#666666" points="20.5,-850 20.5,-959 106.5,-959 106.5,-850 20.5,-850"/>
</a>
</g>
</g>
<!-- Node8&#45;&gt;Node7 -->
<g id="edge7_Node000007_Node000008" class="edge">
<title>Node8&#45;&gt;Node7</title>
<g id="a_edge7_Node000007_Node000008"><a xlink:title=" ">
<path fill="none" stroke="#63b8ff" d="M63.5,-839.55C63.5,-831.23 63.5,-822.67 63.5,-814.28"/>
<polygon fill="none" stroke="#63b8ff" points="60,-839.57 63.5,-849.57 67,-839.57 60,-839.57"/>
</a>
</g>
</g>
</g>
</svg>
