<?xml version="1.0" encoding="UTF-8" standalone="no"?>
<!DOCTYPE svg PUBLIC "-//W3C//DTD SVG 1.1//EN"
 "http://www.w3.org/Graphics/SVG/1.1/DTD/svg11.dtd">
<!-- Generated by graphviz version 2.43.0 (0)
 -->
<!-- Title: BPMN::SignalStartEvent Pages: 1 -->
<svg width="294pt" height="839pt"
 viewBox="0.00 0.00 294.00 839.00" xmlns="http://www.w3.org/2000/svg" xmlns:xlink="http://www.w3.org/1999/xlink">
<g id="graph0" class="graph" transform="scale(1 1) rotate(0) translate(4 835)">
<title>BPMN::SignalStartEvent</title>
<!-- Node1 -->
<g id="node1" class="node">
<title>Node1</title>
<g id="a_node1"><a xlink:title=" ">
<polygon fill="#bfbfbf" stroke="black" points="78,-0.5 78,-57.5 211,-57.5 211,-0.5 78,-0.5"/>
<text text-anchor="middle" x="144.5" y="-45.5" font-family="Helvetica,sans-Serif" font-size="10.00">BPMN::SignalStartEvent</text>
<polyline fill="none" stroke="black" points="78,-38.5 211,-38.5 "/>
<text text-anchor="start" x="86" y="-26.5" font-family="Helvetica,sans-Serif" font-size="10.00">+ element</text>
<polyline fill="none" stroke="black" points="78,-19.5 211,-19.5 "/>
<text text-anchor="start" x="86" y="-7.5" font-family="Helvetica,sans-Serif" font-size="10.00">+ SignalStartEvent()</text>
</a>
</g>
</g>
<!-- Node2 -->
<g id="node2" class="node">
<title>Node2</title>
<g id="a_node2"><a xlink:href="classBPMN_1_1SignalCatchEvent.html" target="_top" xlink:title=" ">
<polygon fill="none" stroke="black" points="0,-94.5 0,-151.5 137,-151.5 137,-94.5 0,-94.5"/>
<text text-anchor="middle" x="68.5" y="-139.5" font-family="Helvetica,sans-Serif" font-size="10.00">BPMN::SignalCatchEvent</text>
<polyline fill="none" stroke="black" points="0,-132.5 137,-132.5 "/>
<text text-anchor="start" x="8" y="-120.5" font-family="Helvetica,sans-Serif" font-size="10.00">+ element</text>
<polyline fill="none" stroke="black" points="0,-113.5 137,-113.5 "/>
<text text-anchor="start" x="8" y="-101.5" font-family="Helvetica,sans-Serif" font-size="10.00">+ SignalCatchEvent()</text>
</a>
</g>
</g>
<!-- Node2&#45;&gt;Node1 -->
<g id="edge1" class="edge">
<title>Node2&#45;&gt;Node1</title>
<path fill="none" stroke="midnightblue" d="M97.81,-86.52C105.74,-76.92 114.2,-66.68 121.71,-57.58"/>
<polygon fill="none" stroke="midnightblue" points="94.97,-84.46 91.3,-94.4 100.37,-88.92 94.97,-84.46"/>
</g>
<!-- Node3 -->
<g id="node3" class="node">
<title>Node3</title>
<g id="a_node3"><a xlink:href="classBPMN_1_1CatchEvent.html" target="_top" xlink:title=" ">
<polygon fill="none" stroke="black" points="91,-188.5 91,-245.5 198,-245.5 198,-188.5 91,-188.5"/>
<text text-anchor="middle" x="144.5" y="-233.5" font-family="Helvetica,sans-Serif" font-size="10.00">BPMN::CatchEvent</text>
<polyline fill="none" stroke="black" points="91,-226.5 198,-226.5 "/>
<text text-anchor="start" x="99" y="-214.5" font-family="Helvetica,sans-Serif" font-size="10.00">+ element</text>
<polyline fill="none" stroke="black" points="91,-207.5 198,-207.5 "/>
<text text-anchor="start" x="99" y="-195.5" font-family="Helvetica,sans-Serif" font-size="10.00">+ CatchEvent()</text>
</a>
</g>
</g>
<!-- Node3&#45;&gt;Node2 -->
<g id="edge2" class="edge">
<title>Node3&#45;&gt;Node2</title>
<path fill="none" stroke="midnightblue" d="M115.19,-180.52C107.26,-170.92 98.8,-160.68 91.29,-151.58"/>
<polygon fill="none" stroke="midnightblue" points="112.63,-182.92 121.7,-188.4 118.03,-178.46 112.63,-182.92"/>
</g>
<!-- Node8 -->
<g id="node8" class="node">
<title>Node8</title>
<g id="a_node8"><a xlink:href="classBPMN_1_1TypedStartEvent.html" target="_top" xlink:title="Represents a start event with an event definition.">
<polygon fill="none" stroke="black" points="155,-94.5 155,-151.5 286,-151.5 286,-94.5 155,-94.5"/>
<text text-anchor="middle" x="220.5" y="-139.5" font-family="Helvetica,sans-Serif" font-size="10.00">BPMN::TypedStartEvent</text>
<polyline fill="none" stroke="black" points="155,-132.5 286,-132.5 "/>
<text text-anchor="start" x="163" y="-120.5" font-family="Helvetica,sans-Serif" font-size="10.00">+ isInterrupting</text>
<polyline fill="none" stroke="black" points="155,-113.5 286,-113.5 "/>
<text text-anchor="start" x="163" y="-101.5" font-family="Helvetica,sans-Serif" font-size="10.00">+ TypedStartEvent()</text>
</a>
</g>
</g>
<!-- Node3&#45;&gt;Node8 -->
<g id="edge8" class="edge">
<title>Node3&#45;&gt;Node8</title>
<path fill="none" stroke="midnightblue" d="M173.81,-180.52C181.74,-170.92 190.2,-160.68 197.71,-151.58"/>
<polygon fill="none" stroke="midnightblue" points="170.97,-178.46 167.3,-188.4 176.37,-182.92 170.97,-178.46"/>
</g>
<!-- Node4 -->
<g id="node4" class="node">
<title>Node4</title>
<g id="a_node4"><a xlink:href="classBPMN_1_1Event.html" target="_top" xlink:title=" ">
<polygon fill="none" stroke="black" points="104.5,-282.5 104.5,-339.5 184.5,-339.5 184.5,-282.5 104.5,-282.5"/>
<text text-anchor="middle" x="144.5" y="-327.5" font-family="Helvetica,sans-Serif" font-size="10.00">BPMN::Event</text>
<polyline fill="none" stroke="black" points="104.5,-320.5 184.5,-320.5 "/>
<text text-anchor="start" x="112.5" y="-308.5" font-family="Helvetica,sans-Serif" font-size="10.00">+ element</text>
<polyline fill="none" stroke="black" points="104.5,-301.5 184.5,-301.5 "/>
<text text-anchor="start" x="112.5" y="-289.5" font-family="Helvetica,sans-Serif" font-size="10.00">+ Event()</text>
</a>
</g>
</g>
<!-- Node4&#45;&gt;Node3 -->
<g id="edge3" class="edge">
<title>Node4&#45;&gt;Node3</title>
<path fill="none" stroke="midnightblue" d="M144.5,-272.21C144.5,-263.29 144.5,-253.95 144.5,-245.58"/>
<polygon fill="none" stroke="midnightblue" points="141,-272.4 144.5,-282.4 148,-272.4 141,-272.4"/>
</g>
<!-- Node5 -->
<g id="node5" class="node">
<title>Node5</title>
<g id="a_node5"><a xlink:href="classBPMN_1_1FlowNode.html" target="_top" xlink:title="Represents a flow node in a BPMN process.">
<polygon fill="none" stroke="black" points="94,-376.5 94,-455.5 195,-455.5 195,-376.5 94,-376.5"/>
<text text-anchor="middle" x="144.5" y="-443.5" font-family="Helvetica,sans-Serif" font-size="10.00">BPMN::FlowNode</text>
<polyline fill="none" stroke="black" points="94,-436.5 195,-436.5 "/>
<text text-anchor="start" x="102" y="-424.5" font-family="Helvetica,sans-Serif" font-size="10.00">+ element</text>
<text text-anchor="start" x="102" y="-413.5" font-family="Helvetica,sans-Serif" font-size="10.00">+ incoming</text>
<text text-anchor="start" x="102" y="-402.5" font-family="Helvetica,sans-Serif" font-size="10.00">+ outgoing</text>
<polyline fill="none" stroke="black" points="94,-395.5 195,-395.5 "/>
<text text-anchor="start" x="102" y="-383.5" font-family="Helvetica,sans-Serif" font-size="10.00">+ FlowNode()</text>
</a>
</g>
</g>
<!-- Node5&#45;&gt;Node4 -->
<g id="edge4" class="edge">
<title>Node5&#45;&gt;Node4</title>
<path fill="none" stroke="midnightblue" d="M144.5,-366.16C144.5,-357.04 144.5,-347.81 144.5,-339.61"/>
<polygon fill="none" stroke="midnightblue" points="141,-366.35 144.5,-376.35 148,-366.35 141,-366.35"/>
</g>
<!-- Node6 -->
<g id="node6" class="node">
<title>Node6</title>
<g id="a_node6"><a xlink:href="classBPMN_1_1ChildNode.html" target="_top" xlink:title="Represents a node in a BPMN process that has a parent.">
<polygon fill="none" stroke="black" points="93.5,-492.5 93.5,-549.5 195.5,-549.5 195.5,-492.5 93.5,-492.5"/>
<text text-anchor="middle" x="144.5" y="-537.5" font-family="Helvetica,sans-Serif" font-size="10.00">BPMN::ChildNode</text>
<polyline fill="none" stroke="black" points="93.5,-530.5 195.5,-530.5 "/>
<text text-anchor="start" x="101.5" y="-518.5" font-family="Helvetica,sans-Serif" font-size="10.00">+ parent</text>
<polyline fill="none" stroke="black" points="93.5,-511.5 195.5,-511.5 "/>
<text text-anchor="start" x="101.5" y="-499.5" font-family="Helvetica,sans-Serif" font-size="10.00">+ ChildNode()</text>
</a>
</g>
</g>
<!-- Node6&#45;&gt;Node5 -->
<g id="edge5" class="edge">
<title>Node6&#45;&gt;Node5</title>
<path fill="none" stroke="midnightblue" d="M144.5,-482.16C144.5,-473.47 144.5,-464.23 144.5,-455.52"/>
<polygon fill="none" stroke="midnightblue" points="141,-482.4 144.5,-492.4 148,-482.4 141,-482.4"/>
</g>
<!-- Node7 -->
<g id="node7" class="node">
<title>Node7</title>
<g id="a_node7"><a xlink:href="classBPMN_1_1Node.html" target="_top" xlink:title="Represents a node in a BPMN process.">
<polygon fill="none" stroke="black" points="83.5,-586.5 83.5,-830.5 205.5,-830.5 205.5,-586.5 83.5,-586.5"/>
<text text-anchor="middle" x="144.5" y="-818.5" font-family="Helvetica,sans-Serif" font-size="10.00">BPMN::Node</text>
<polyline fill="none" stroke="black" points="83.5,-811.5 205.5,-811.5 "/>
<text text-anchor="start" x="91.5" y="-799.5" font-family="Helvetica,sans-Serif" font-size="10.00">+ id</text>
<text text-anchor="start" x="91.5" y="-788.5" font-family="Helvetica,sans-Serif" font-size="10.00">+ receiving</text>
<text text-anchor="start" x="91.5" y="-777.5" font-family="Helvetica,sans-Serif" font-size="10.00">+ sending</text>
<text text-anchor="start" x="91.5" y="-766.5" font-family="Helvetica,sans-Serif" font-size="10.00">+ element</text>
<text text-anchor="start" x="91.5" y="-755.5" font-family="Helvetica,sans-Serif" font-size="10.00">+ extensionElements</text>
<polyline fill="none" stroke="black" points="83.5,-748.5 205.5,-748.5 "/>
<text text-anchor="start" x="91.5" y="-736.5" font-family="Helvetica,sans-Serif" font-size="10.00">+ Node()</text>
<text text-anchor="start" x="91.5" y="-725.5" font-family="Helvetica,sans-Serif" font-size="10.00">+ ~Node()</text>
<text text-anchor="start" x="91.5" y="-714.5" font-family="Helvetica,sans-Serif" font-size="10.00">+ is()</text>
<text text-anchor="start" x="91.5" y="-703.5" font-family="Helvetica,sans-Serif" font-size="10.00">+ is()</text>
<text text-anchor="start" x="91.5" y="-692.5" font-family="Helvetica,sans-Serif" font-size="10.00">+ get()</text>
<text text-anchor="start" x="91.5" y="-681.5" font-family="Helvetica,sans-Serif" font-size="10.00">+ get()</text>
<text text-anchor="start" x="91.5" y="-670.5" font-family="Helvetica,sans-Serif" font-size="10.00">+ represents()</text>
<text text-anchor="start" x="91.5" y="-659.5" font-family="Helvetica,sans-Serif" font-size="10.00">+ represents()</text>
<text text-anchor="start" x="91.5" y="-648.5" font-family="Helvetica,sans-Serif" font-size="10.00">+ as()</text>
<text text-anchor="start" x="91.5" y="-637.5" font-family="Helvetica,sans-Serif" font-size="10.00">+ as()</text>
<text text-anchor="start" x="91.5" y="-626.5" font-family="Helvetica,sans-Serif" font-size="10.00">+ find()</text>
<text text-anchor="start" x="91.5" y="-615.5" font-family="Helvetica,sans-Serif" font-size="10.00">+ find()</text>
<text text-anchor="start" x="91.5" y="-604.5" font-family="Helvetica,sans-Serif" font-size="10.00">+ find_all()</text>
<text text-anchor="start" x="91.5" y="-593.5" font-family="Helvetica,sans-Serif" font-size="10.00">+ find_all()</text>
</a>
</g>
</g>
<!-- Node7&#45;&gt;Node6 -->
<g id="edge6" class="edge">
<title>Node7&#45;&gt;Node6</title>
<path fill="none" stroke="midnightblue" d="M144.5,-576.34C144.5,-566.53 144.5,-557.42 144.5,-549.57"/>
<polygon fill="none" stroke="midnightblue" points="141,-576.36 144.5,-586.36 148,-576.36 141,-576.36"/>
</g>
<!-- Node8&#45;&gt;Node1 -->
<g id="edge7" class="edge">
<title>Node8&#45;&gt;Node1</title>
<path fill="none" stroke="midnightblue" d="M191.19,-86.52C183.26,-76.92 174.8,-66.68 167.29,-57.58"/>
<polygon fill="none" stroke="midnightblue" points="188.63,-88.92 197.7,-94.4 194.03,-84.46 188.63,-88.92"/>
</g>
</g>
</svg>
