<?xml version="1.0" encoding="UTF-8" standalone="no"?>
<!DOCTYPE svg PUBLIC "-//W3C//DTD SVG 1.1//EN"
 "http://www.w3.org/Graphics/SVG/1.1/DTD/svg11.dtd">
<!-- Generated by graphviz version 2.43.0 (0)
 -->
<!-- Title: XML::bpmn::performer Pages: 1 -->
<svg width="189pt" height="772pt"
 viewBox="0.00 0.00 189.00 772.00" xmlns="http://www.w3.org/2000/svg" xmlns:xlink="http://www.w3.org/1999/xlink">
<g id="graph0" class="graph" transform="scale(1 1) rotate(0) translate(4 768)">
<title>XML::bpmn::performer</title>
<!-- Node1 -->
<g id="node1" class="node">
<title>Node1</title>
<g id="a_node1"><a xlink:title=" ">
<polygon fill="#bfbfbf" stroke="black" points="27.5,-0.5 27.5,-57.5 153.5,-57.5 153.5,-0.5 27.5,-0.5"/>
<text text-anchor="middle" x="90.5" y="-45.5" font-family="Helvetica,sans-Serif" font-size="10.00">XML::bpmn::performer</text>
<polyline fill="none" stroke="black" points="27.5,-38.5 153.5,-38.5 "/>
<text text-anchor="start" x="35.5" y="-26.5" font-family="Helvetica,sans-Serif" font-size="10.00">+ defaults</text>
<polyline fill="none" stroke="black" points="27.5,-19.5 153.5,-19.5 "/>
<text text-anchor="start" x="35.5" y="-7.5" font-family="Helvetica,sans-Serif" font-size="10.00"># performer()</text>
</a>
</g>
</g>
<!-- Node2 -->
<g id="node2" class="node">
<title>Node2</title>
<g id="a_node2"><a xlink:href="classXML_1_1bpmn_1_1tPerformer.html" target="_top" xlink:title=" ">
<polygon fill="none" stroke="black" points="25.5,-94.5 25.5,-151.5 155.5,-151.5 155.5,-94.5 25.5,-94.5"/>
<text text-anchor="middle" x="90.5" y="-139.5" font-family="Helvetica,sans-Serif" font-size="10.00">XML::bpmn::tPerformer</text>
<polyline fill="none" stroke="black" points="25.5,-132.5 155.5,-132.5 "/>
<text text-anchor="start" x="33.5" y="-120.5" font-family="Helvetica,sans-Serif" font-size="10.00">+ defaults</text>
<polyline fill="none" stroke="black" points="25.5,-113.5 155.5,-113.5 "/>
<text text-anchor="start" x="33.5" y="-101.5" font-family="Helvetica,sans-Serif" font-size="10.00"># tPerformer()</text>
</a>
</g>
</g>
<!-- Node2&#45;&gt;Node1 -->
<g id="edge1" class="edge">
<title>Node2&#45;&gt;Node1</title>
<path fill="none" stroke="midnightblue" d="M90.5,-84.21C90.5,-75.29 90.5,-65.95 90.5,-57.58"/>
<polygon fill="none" stroke="midnightblue" points="87,-84.4 90.5,-94.4 94,-84.4 87,-84.4"/>
</g>
<!-- Node3 -->
<g id="node3" class="node">
<title>Node3</title>
<g id="a_node3"><a xlink:href="classXML_1_1bpmn_1_1tResourceRole.html" target="_top" xlink:title=" ">
<polygon fill="none" stroke="black" points="0,-188.5 0,-289.5 181,-289.5 181,-188.5 0,-188.5"/>
<text text-anchor="middle" x="90.5" y="-277.5" font-family="Helvetica,sans-Serif" font-size="10.00">XML::bpmn::tResourceRole</text>
<polyline fill="none" stroke="black" points="0,-270.5 181,-270.5 "/>
<text text-anchor="start" x="8" y="-258.5" font-family="Helvetica,sans-Serif" font-size="10.00">+ resourceAssignmentExpression</text>
<text text-anchor="start" x="8" y="-247.5" font-family="Helvetica,sans-Serif" font-size="10.00">+ resourceRef</text>
<text text-anchor="start" x="8" y="-236.5" font-family="Helvetica,sans-Serif" font-size="10.00">+ resourceParameterBinding</text>
<text text-anchor="start" x="8" y="-225.5" font-family="Helvetica,sans-Serif" font-size="10.00">+ name</text>
<text text-anchor="start" x="8" y="-214.5" font-family="Helvetica,sans-Serif" font-size="10.00">+ defaults</text>
<polyline fill="none" stroke="black" points="0,-207.5 181,-207.5 "/>
<text text-anchor="start" x="8" y="-195.5" font-family="Helvetica,sans-Serif" font-size="10.00"># tResourceRole()</text>
</a>
</g>
</g>
<!-- Node3&#45;&gt;Node2 -->
<g id="edge2" class="edge">
<title>Node3&#45;&gt;Node2</title>
<path fill="none" stroke="midnightblue" d="M90.5,-178.23C90.5,-168.92 90.5,-159.71 90.5,-151.59"/>
<polygon fill="none" stroke="midnightblue" points="87,-178.33 90.5,-188.33 94,-178.33 87,-178.33"/>
</g>
<!-- Node4 -->
<g id="node4" class="node">
<title>Node4</title>
<g id="a_node4"><a xlink:href="classXML_1_1bpmn_1_1tBaseElement.html" target="_top" xlink:title=" ">
<polygon fill="none" stroke="black" points="17.5,-326.5 17.5,-416.5 163.5,-416.5 163.5,-326.5 17.5,-326.5"/>
<text text-anchor="middle" x="90.5" y="-404.5" font-family="Helvetica,sans-Serif" font-size="10.00">XML::bpmn::tBaseElement</text>
<polyline fill="none" stroke="black" points="17.5,-397.5 163.5,-397.5 "/>
<text text-anchor="start" x="25.5" y="-385.5" font-family="Helvetica,sans-Serif" font-size="10.00">+ documentation</text>
<text text-anchor="start" x="25.5" y="-374.5" font-family="Helvetica,sans-Serif" font-size="10.00">+ extensionElements</text>
<text text-anchor="start" x="25.5" y="-363.5" font-family="Helvetica,sans-Serif" font-size="10.00">+ id</text>
<text text-anchor="start" x="25.5" y="-352.5" font-family="Helvetica,sans-Serif" font-size="10.00">+ defaults</text>
<polyline fill="none" stroke="black" points="17.5,-345.5 163.5,-345.5 "/>
<text text-anchor="start" x="25.5" y="-333.5" font-family="Helvetica,sans-Serif" font-size="10.00"># tBaseElement()</text>
</a>
</g>
</g>
<!-- Node4&#45;&gt;Node3 -->
<g id="edge3" class="edge">
<title>Node4&#45;&gt;Node3</title>
<path fill="none" stroke="midnightblue" d="M90.5,-316.13C90.5,-307.31 90.5,-298.22 90.5,-289.52"/>
<polygon fill="none" stroke="midnightblue" points="87,-316.32 90.5,-326.32 94,-316.32 87,-316.32"/>
</g>
<!-- Node5 -->
<g id="node5" class="node">
<title>Node5</title>
<g id="a_node5"><a xlink:href="classXML_1_1XMLObject.html" target="_top" xlink:title="A class representing a node in an XML&#45;tree.">
<polygon fill="none" stroke="black" points="27.5,-453.5 27.5,-763.5 153.5,-763.5 153.5,-453.5 27.5,-453.5"/>
<text text-anchor="middle" x="90.5" y="-751.5" font-family="Helvetica,sans-Serif" font-size="10.00">XML::XMLObject</text>
<polyline fill="none" stroke="black" points="27.5,-744.5 153.5,-744.5 "/>
<text text-anchor="start" x="35.5" y="-732.5" font-family="Helvetica,sans-Serif" font-size="10.00">+ xmlns</text>
<text text-anchor="start" x="35.5" y="-721.5" font-family="Helvetica,sans-Serif" font-size="10.00">+ className</text>
<text text-anchor="start" x="35.5" y="-710.5" font-family="Helvetica,sans-Serif" font-size="10.00">+ prefix</text>
<text text-anchor="start" x="35.5" y="-699.5" font-family="Helvetica,sans-Serif" font-size="10.00">+ elementName</text>
<text text-anchor="start" x="35.5" y="-688.5" font-family="Helvetica,sans-Serif" font-size="10.00">+ textContent</text>
<text text-anchor="start" x="35.5" y="-677.5" font-family="Helvetica,sans-Serif" font-size="10.00">+ children</text>
<text text-anchor="start" x="35.5" y="-666.5" font-family="Helvetica,sans-Serif" font-size="10.00">+ attributes</text>
<text text-anchor="start" x="35.5" y="-655.5" font-family="Helvetica,sans-Serif" font-size="10.00">+ defaults</text>
<text text-anchor="start" x="35.5" y="-644.5" font-family="Helvetica,sans-Serif" font-size="10.00"># factory</text>
<polyline fill="none" stroke="black" points="27.5,-637.5 153.5,-637.5 "/>
<text text-anchor="start" x="35.5" y="-625.5" font-family="Helvetica,sans-Serif" font-size="10.00">+ ~XMLObject()</text>
<text text-anchor="start" x="35.5" y="-614.5" font-family="Helvetica,sans-Serif" font-size="10.00">+ is()</text>
<text text-anchor="start" x="35.5" y="-603.5" font-family="Helvetica,sans-Serif" font-size="10.00">+ is()</text>
<text text-anchor="start" x="35.5" y="-592.5" font-family="Helvetica,sans-Serif" font-size="10.00">+ get()</text>
<text text-anchor="start" x="35.5" y="-581.5" font-family="Helvetica,sans-Serif" font-size="10.00">+ get()</text>
<text text-anchor="start" x="35.5" y="-570.5" font-family="Helvetica,sans-Serif" font-size="10.00">+ find()</text>
<text text-anchor="start" x="35.5" y="-559.5" font-family="Helvetica,sans-Serif" font-size="10.00">+ find()</text>
<text text-anchor="start" x="35.5" y="-548.5" font-family="Helvetica,sans-Serif" font-size="10.00">+ stringify()</text>
<text text-anchor="start" x="35.5" y="-537.5" font-family="Helvetica,sans-Serif" font-size="10.00">+ getRequiredChild()</text>
<text text-anchor="start" x="35.5" y="-526.5" font-family="Helvetica,sans-Serif" font-size="10.00">+ getOptionalChild()</text>
<text text-anchor="start" x="35.5" y="-515.5" font-family="Helvetica,sans-Serif" font-size="10.00">and 6 more...</text>
<text text-anchor="start" x="35.5" y="-504.5" font-family="Helvetica,sans-Serif" font-size="10.00">+ createFromStream()</text>
<text text-anchor="start" x="35.5" y="-493.5" font-family="Helvetica,sans-Serif" font-size="10.00">+ createFromString()</text>
<text text-anchor="start" x="35.5" y="-482.5" font-family="Helvetica,sans-Serif" font-size="10.00">+ createFromFile()</text>
<text text-anchor="start" x="35.5" y="-471.5" font-family="Helvetica,sans-Serif" font-size="10.00"># XMLObject()</text>
<text text-anchor="start" x="35.5" y="-460.5" font-family="Helvetica,sans-Serif" font-size="10.00"># createObject()</text>
</a>
</g>
</g>
<!-- Node5&#45;&gt;Node4 -->
<g id="edge4" class="edge">
<title>Node5&#45;&gt;Node4</title>
<path fill="none" stroke="midnightblue" d="M90.5,-443.35C90.5,-433.89 90.5,-424.91 90.5,-416.72"/>
<polygon fill="none" stroke="midnightblue" points="87,-443.37 90.5,-453.37 94,-443.37 87,-443.37"/>
</g>
</g>
</svg>
