<?xml version="1.0" encoding="UTF-8" standalone="no"?>
<!DOCTYPE svg PUBLIC "-//W3C//DTD SVG 1.1//EN"
 "http://www.w3.org/Graphics/SVG/1.1/DTD/svg11.dtd">
<!-- Generated by graphviz version 2.43.0 (0)
 -->
<!-- Title: XML::bpmn::tCorrelationPropertyRetrievalExpression Pages: 1 -->
<svg width="178pt" height="776pt"
 viewBox="0.00 0.00 178.00 776.00" xmlns="http://www.w3.org/2000/svg" xmlns:xlink="http://www.w3.org/1999/xlink">
<g id="graph0" class="graph" transform="scale(1 1) rotate(0) translate(4 772)">
<title>XML::bpmn::tCorrelationPropertyRetrievalExpression</title>
<!-- Node1 -->
<g id="Node000001" class="node">
<title>Node1</title>
<g id="a_Node000001"><a xlink:title=" ">
<polygon fill="#999999" stroke="transparent" points="170,-208 0,-208 0,-107 170,-107 170,-208"/>
<text text-anchor="start" x="5" y="-195.5" font-family="Helvetica,sans-Serif" font-size="10.00">XML::bpmn::tCorrelationProperty</text>
<text text-anchor="start" x="36" y="-184.5" font-family="Helvetica,sans-Serif" font-size="10.00">RetrievalExpression</text>
<text text-anchor="start" x="5" y="-169.5" font-family="Helvetica,sans-Serif" font-size="10.00">+</text>
<text text-anchor="start" x="19" y="-169.5" font-family="Helvetica,sans-Serif" font-size="10.00">messagePath</text>
<text text-anchor="start" x="5" y="-154.5" font-family="Helvetica,sans-Serif" font-size="10.00">+</text>
<text text-anchor="start" x="19" y="-154.5" font-family="Helvetica,sans-Serif" font-size="10.00">messageRef</text>
<text text-anchor="start" x="5" y="-139.5" font-family="Helvetica,sans-Serif" font-size="10.00">+</text>
<text text-anchor="start" x="19" y="-139.5" font-family="Helvetica,sans-Serif" font-size="10.00">defaults</text>
<text text-anchor="start" x="5" y="-124.5" font-family="Helvetica,sans-Serif" font-size="10.00">#</text>
<text text-anchor="start" x="19" y="-124.5" font-family="Helvetica,sans-Serif" font-size="10.00">tCorrelationPropertyRetrieval</text>
<text text-anchor="start" x="19" y="-113.5" font-family="Helvetica,sans-Serif" font-size="10.00">Expression()</text>
<polygon fill="#666666" stroke="#666666" points="0,-179.5 0,-179.5 170,-179.5 170,-179.5 0,-179.5"/>
<polygon fill="#666666" stroke="#666666" points="0,-134.5 0,-134.5 17,-134.5 17,-134.5 0,-134.5"/>
<polygon fill="#666666" stroke="#666666" points="17,-134.5 17,-134.5 170,-134.5 170,-134.5 17,-134.5"/>
<polygon fill="none" stroke="#666666" points="0,-107 0,-208 170,-208 170,-107 0,-107"/>
</a>
</g>
</g>
<!-- Node4 -->
<g id="Node000004" class="node">
<title>Node4</title>
<g id="a_Node000004"><a xlink:href="classXML_1_1bpmn_1_1correlationPropertyRetrievalExpression.html" target="_top" xlink:title=" ">
<polygon fill="white" stroke="transparent" points="167.5,-71 2.5,-71 2.5,0 167.5,0 167.5,-71"/>
<text text-anchor="start" x="8" y="-58.5" font-family="Helvetica,sans-Serif" font-size="10.00">XML::bpmn::correlationProperty</text>
<text text-anchor="start" x="36.5" y="-47.5" font-family="Helvetica,sans-Serif" font-size="10.00">RetrievalExpression</text>
<text text-anchor="start" x="8" y="-32.5" font-family="Helvetica,sans-Serif" font-size="10.00">+</text>
<text text-anchor="start" x="22" y="-32.5" font-family="Helvetica,sans-Serif" font-size="10.00">defaults</text>
<text text-anchor="start" x="8" y="-17.5" font-family="Helvetica,sans-Serif" font-size="10.00">#</text>
<text text-anchor="start" x="22" y="-17.5" font-family="Helvetica,sans-Serif" font-size="10.00">correlationPropertyRetrieval</text>
<text text-anchor="start" x="22" y="-6.5" font-family="Helvetica,sans-Serif" font-size="10.00">Expression()</text>
<polygon fill="#666666" stroke="#666666" points="3,-42.5 3,-42.5 168,-42.5 168,-42.5 3,-42.5"/>
<polygon fill="#666666" stroke="#666666" points="3,-27.5 3,-27.5 20,-27.5 20,-27.5 3,-27.5"/>
<polygon fill="#666666" stroke="#666666" points="20,-27.5 20,-27.5 168,-27.5 168,-27.5 20,-27.5"/>
<polygon fill="none" stroke="#666666" points="2.5,0 2.5,-71 167.5,-71 167.5,0 2.5,0"/>
</a>
</g>
</g>
<!-- Node1&#45;&gt;Node4 -->
<g id="edge3_Node000001_Node000004" class="edge">
<title>Node1&#45;&gt;Node4</title>
<g id="a_edge3_Node000001_Node000004"><a xlink:title=" ">
<path fill="none" stroke="#63b8ff" d="M85,-96.77C85,-88.02 85,-79.26 85,-71.24"/>
<polygon fill="none" stroke="#63b8ff" points="81.5,-97 85,-107 88.5,-97 81.5,-97"/>
</a>
</g>
</g>
<!-- Node2 -->
<g id="Node000002" class="node">
<title>Node2</title>
<g id="a_Node000002"><a xlink:href="classXML_1_1bpmn_1_1tBaseElement.html" target="_top" xlink:title=" ">
<polygon fill="white" stroke="transparent" points="155,-338 15,-338 15,-244 155,-244 155,-338"/>
<text text-anchor="start" x="20" y="-326" font-family="Helvetica,sans-Serif" font-size="10.00">XML::bpmn::tBaseElement</text>
<text text-anchor="start" x="25" y="-311" font-family="Helvetica,sans-Serif" font-size="10.00">+</text>
<text text-anchor="start" x="44" y="-311" font-family="Helvetica,sans-Serif" font-size="10.00">documentation</text>
<text text-anchor="start" x="25" y="-296" font-family="Helvetica,sans-Serif" font-size="10.00">+</text>
<text text-anchor="start" x="44" y="-296" font-family="Helvetica,sans-Serif" font-size="10.00">extensionElements</text>
<text text-anchor="start" x="25" y="-281" font-family="Helvetica,sans-Serif" font-size="10.00">+</text>
<text text-anchor="start" x="44" y="-281" font-family="Helvetica,sans-Serif" font-size="10.00">id</text>
<text text-anchor="start" x="25" y="-266" font-family="Helvetica,sans-Serif" font-size="10.00">+</text>
<text text-anchor="start" x="44" y="-266" font-family="Helvetica,sans-Serif" font-size="10.00">defaults</text>
<text text-anchor="start" x="25" y="-251" font-family="Helvetica,sans-Serif" font-size="10.00">#</text>
<text text-anchor="start" x="44" y="-251" font-family="Helvetica,sans-Serif" font-size="10.00">tBaseElement()</text>
<polygon fill="#666666" stroke="#666666" points="15,-321 15,-321 155,-321 155,-321 15,-321"/>
<polygon fill="#666666" stroke="#666666" points="15,-261 15,-261 42,-261 42,-261 15,-261"/>
<polygon fill="#666666" stroke="#666666" points="42,-261 42,-261 155,-261 155,-261 42,-261"/>
<polygon fill="none" stroke="#666666" points="15,-244 15,-338 155,-338 155,-244 15,-244"/>
</a>
</g>
</g>
<!-- Node2&#45;&gt;Node1 -->
<g id="edge1_Node000001_Node000002" class="edge">
<title>Node2&#45;&gt;Node1</title>
<g id="a_edge1_Node000001_Node000002"><a xlink:title=" ">
<path fill="none" stroke="#63b8ff" d="M85,-233.45C85,-224.99 85,-216.32 85,-208.01"/>
<polygon fill="none" stroke="#63b8ff" points="81.5,-233.64 85,-243.64 88.5,-233.64 81.5,-233.64"/>
</a>
</g>
</g>
<!-- Node3 -->
<g id="Node000003" class="node">
<title>Node3</title>
<g id="a_Node000003"><a xlink:href="classXML_1_1XMLObject.html" target="_top" xlink:title="A class representing a node in an XML&#45;tree.">
<polygon fill="white" stroke="transparent" points="145,-768 25,-768 25,-374 145,-374 145,-768"/>
<text text-anchor="start" x="45" y="-756" font-family="Helvetica,sans-Serif" font-size="10.00">XML::XMLObject</text>
<text text-anchor="start" x="29" y="-741" font-family="Helvetica,sans-Serif" font-size="10.00">+</text>
<text text-anchor="start" x="42" y="-741" font-family="Helvetica,sans-Serif" font-size="10.00">xmlns</text>
<text text-anchor="start" x="29" y="-726" font-family="Helvetica,sans-Serif" font-size="10.00">+</text>
<text text-anchor="start" x="42" y="-726" font-family="Helvetica,sans-Serif" font-size="10.00">className</text>
<text text-anchor="start" x="29" y="-711" font-family="Helvetica,sans-Serif" font-size="10.00">+</text>
<text text-anchor="start" x="42" y="-711" font-family="Helvetica,sans-Serif" font-size="10.00">prefix</text>
<text text-anchor="start" x="29" y="-696" font-family="Helvetica,sans-Serif" font-size="10.00">+</text>
<text text-anchor="start" x="42" y="-696" font-family="Helvetica,sans-Serif" font-size="10.00">elementName</text>
<text text-anchor="start" x="29" y="-681" font-family="Helvetica,sans-Serif" font-size="10.00">+</text>
<text text-anchor="start" x="42" y="-681" font-family="Helvetica,sans-Serif" font-size="10.00">textContent</text>
<text text-anchor="start" x="29" y="-666" font-family="Helvetica,sans-Serif" font-size="10.00">+</text>
<text text-anchor="start" x="42" y="-666" font-family="Helvetica,sans-Serif" font-size="10.00">children</text>
<text text-anchor="start" x="29" y="-651" font-family="Helvetica,sans-Serif" font-size="10.00">+</text>
<text text-anchor="start" x="42" y="-651" font-family="Helvetica,sans-Serif" font-size="10.00">attributes</text>
<text text-anchor="start" x="29" y="-636" font-family="Helvetica,sans-Serif" font-size="10.00">+</text>
<text text-anchor="start" x="42" y="-636" font-family="Helvetica,sans-Serif" font-size="10.00">defaults</text>
<text text-anchor="start" x="29" y="-621" font-family="Helvetica,sans-Serif" font-size="10.00">#</text>
<text text-anchor="start" x="42" y="-621" font-family="Helvetica,sans-Serif" font-size="10.00">factory</text>
<text text-anchor="start" x="29" y="-606" font-family="Helvetica,sans-Serif" font-size="10.00">+</text>
<text text-anchor="start" x="42" y="-606" font-family="Helvetica,sans-Serif" font-size="10.00">~XMLObject()</text>
<text text-anchor="start" x="29" y="-591" font-family="Helvetica,sans-Serif" font-size="10.00">+</text>
<text text-anchor="start" x="42" y="-591" font-family="Helvetica,sans-Serif" font-size="10.00">is()</text>
<text text-anchor="start" x="29" y="-576" font-family="Helvetica,sans-Serif" font-size="10.00">+</text>
<text text-anchor="start" x="42" y="-576" font-family="Helvetica,sans-Serif" font-size="10.00">is()</text>
<text text-anchor="start" x="29" y="-561" font-family="Helvetica,sans-Serif" font-size="10.00">+</text>
<text text-anchor="start" x="42" y="-561" font-family="Helvetica,sans-Serif" font-size="10.00">get()</text>
<text text-anchor="start" x="29" y="-546" font-family="Helvetica,sans-Serif" font-size="10.00">+</text>
<text text-anchor="start" x="42" y="-546" font-family="Helvetica,sans-Serif" font-size="10.00">get()</text>
<text text-anchor="start" x="29" y="-531" font-family="Helvetica,sans-Serif" font-size="10.00">+</text>
<text text-anchor="start" x="42" y="-531" font-family="Helvetica,sans-Serif" font-size="10.00">find()</text>
<text text-anchor="start" x="29" y="-516" font-family="Helvetica,sans-Serif" font-size="10.00">+</text>
<text text-anchor="start" x="42" y="-516" font-family="Helvetica,sans-Serif" font-size="10.00">find()</text>
<text text-anchor="start" x="29" y="-501" font-family="Helvetica,sans-Serif" font-size="10.00">+</text>
<text text-anchor="start" x="42" y="-501" font-family="Helvetica,sans-Serif" font-size="10.00">stringify()</text>
<text text-anchor="start" x="29" y="-486" font-family="Helvetica,sans-Serif" font-size="10.00">+</text>
<text text-anchor="start" x="42" y="-486" font-family="Helvetica,sans-Serif" font-size="10.00">format()</text>
<text text-anchor="start" x="29" y="-471" font-family="Helvetica,sans-Serif" font-size="10.00">+</text>
<text text-anchor="start" x="42" y="-471" font-family="Helvetica,sans-Serif" font-size="10.00">getRequiredChild()</text>
<text text-anchor="start" x="42" y="-456" font-family="Helvetica,sans-Serif" font-size="10.00">and 7 more...</text>
<text text-anchor="start" x="29" y="-441" font-family="Helvetica,sans-Serif" font-size="10.00">+</text>
<text text-anchor="start" x="42" y="-441" font-family="Helvetica,sans-Serif" font-size="10.00">createFromStream()</text>
<text text-anchor="start" x="29" y="-426" font-family="Helvetica,sans-Serif" font-size="10.00">+</text>
<text text-anchor="start" x="42" y="-426" font-family="Helvetica,sans-Serif" font-size="10.00">createFromString()</text>
<text text-anchor="start" x="29" y="-411" font-family="Helvetica,sans-Serif" font-size="10.00">+</text>
<text text-anchor="start" x="42" y="-411" font-family="Helvetica,sans-Serif" font-size="10.00">createFromFile()</text>
<text text-anchor="start" x="29" y="-396" font-family="Helvetica,sans-Serif" font-size="10.00">#</text>
<text text-anchor="start" x="42" y="-396" font-family="Helvetica,sans-Serif" font-size="10.00">XMLObject()</text>
<text text-anchor="start" x="29" y="-381" font-family="Helvetica,sans-Serif" font-size="10.00">#</text>
<text text-anchor="start" x="42" y="-381" font-family="Helvetica,sans-Serif" font-size="10.00">createObject()</text>
<polygon fill="#666666" stroke="#666666" points="25,-751 25,-751 145,-751 145,-751 25,-751"/>
<polygon fill="#666666" stroke="#666666" points="25,-616 25,-616 40,-616 40,-616 25,-616"/>
<polygon fill="#666666" stroke="#666666" points="40,-616 40,-616 145,-616 145,-616 40,-616"/>
<polygon fill="none" stroke="#666666" points="25,-374 25,-768 145,-768 145,-374 25,-374"/>
</a>
</g>
</g>
<!-- Node3&#45;&gt;Node2 -->
<g id="edge2_Node000002_Node000003" class="edge">
<title>Node3&#45;&gt;Node2</title>
<g id="a_edge2_Node000002_Node000003"><a xlink:title=" ">
<path fill="none" stroke="#63b8ff" d="M85,-363.78C85,-354.62 85,-345.97 85,-338.06"/>
<polygon fill="none" stroke="#63b8ff" points="81.5,-363.91 85,-373.91 88.5,-363.91 81.5,-363.91"/>
</a>
</g>
</g>
</g>
</svg>
