<?xml version="1.0" encoding="UTF-8" standalone="no"?>
<!DOCTYPE svg PUBLIC "-//W3C//DTD SVG 1.1//EN"
 "http://www.w3.org/Graphics/SVG/1.1/DTD/svg11.dtd">
<!-- Generated by graphviz version 2.43.0 (0)
 -->
<!-- Title: BPMN::EscalationThrowEvent Pages: 1 -->
<svg width="162pt" height="952pt"
 viewBox="0.00 0.00 162.00 952.00" xmlns="http://www.w3.org/2000/svg" xmlns:xlink="http://www.w3.org/1999/xlink">
<g id="graph0" class="graph" transform="scale(1 1) rotate(0) translate(4 948)">
<title>BPMN::EscalationThrowEvent</title>
<!-- Node1 -->
<g id="Node000001" class="node">
<title>Node1</title>
<g id="a_Node000001"><a xlink:title=" ">
<polygon fill="#999999" stroke="transparent" points="154,-49 0,-49 0,0 154,0 154,-49"/>
<text text-anchor="start" x="5" y="-36.5" font-family="Helvetica,sans-Serif" font-size="10.00">BPMN::EscalationThrowEvent</text>
<text text-anchor="start" x="75" y="-21.5" font-family="Helvetica,sans-Serif" font-size="10.00"> </text>
<text text-anchor="start" x="8" y="-6.5" font-family="Helvetica,sans-Serif" font-size="10.00">+</text>
<text text-anchor="start" x="25" y="-6.5" font-family="Helvetica,sans-Serif" font-size="10.00">EscalationThrowEvent()</text>
<polygon fill="#666666" stroke="#666666" points="0,-31.5 0,-31.5 154,-31.5 154,-31.5 0,-31.5"/>
<polygon fill="#666666" stroke="#666666" points="0,-16.5 0,-16.5 154,-16.5 154,-16.5 0,-16.5"/>
<polygon fill="none" stroke="#666666" points="0,0 0,-49 154,-49 154,0 0,0"/>
</a>
</g>
</g>
<!-- Node2 -->
<g id="Node000002" class="node">
<title>Node2</title>
<g id="a_Node000002"><a xlink:href="classBPMN_1_1ThrowEvent.html" target="_top" xlink:title=" ">
<polygon fill="white" stroke="transparent" points="129,-134 25,-134 25,-85 129,-85 129,-134"/>
<text text-anchor="start" x="30" y="-121.5" font-family="Helvetica,sans-Serif" font-size="10.00">BPMN::ThrowEvent</text>
<text text-anchor="start" x="33" y="-106.5" font-family="Helvetica,sans-Serif" font-size="10.00">+</text>
<text text-anchor="start" x="50" y="-106.5" font-family="Helvetica,sans-Serif" font-size="10.00">element</text>
<text text-anchor="start" x="33" y="-91.5" font-family="Helvetica,sans-Serif" font-size="10.00">+</text>
<text text-anchor="start" x="50" y="-91.5" font-family="Helvetica,sans-Serif" font-size="10.00">ThrowEvent()</text>
<polygon fill="#666666" stroke="#666666" points="25,-116.5 25,-116.5 129,-116.5 129,-116.5 25,-116.5"/>
<polygon fill="#666666" stroke="#666666" points="25,-101.5 25,-101.5 48,-101.5 48,-101.5 25,-101.5"/>
<polygon fill="#666666" stroke="#666666" points="48,-101.5 48,-101.5 129,-101.5 129,-101.5 48,-101.5"/>
<polygon fill="none" stroke="#666666" points="25,-85 25,-134 129,-134 129,-85 25,-85"/>
</a>
</g>
</g>
<!-- Node2&#45;&gt;Node1 -->
<g id="edge1_Node000001_Node000002" class="edge">
<title>Node2&#45;&gt;Node1</title>
<g id="a_edge1_Node000001_Node000002"><a xlink:title=" ">
<path fill="none" stroke="#63b8ff" d="M77,-74.77C77,-66.17 77,-57.1 77,-49.12"/>
<polygon fill="none" stroke="#63b8ff" points="73.5,-74.94 77,-84.94 80.5,-74.94 73.5,-74.94"/>
</a>
</g>
</g>
<!-- Node3 -->
<g id="Node000003" class="node">
<title>Node3</title>
<g id="a_Node000003"><a xlink:href="classBPMN_1_1Event.html" target="_top" xlink:title=" ">
<polygon fill="white" stroke="transparent" points="114,-219 40,-219 40,-170 114,-170 114,-219"/>
<text text-anchor="start" x="45" y="-206.5" font-family="Helvetica,sans-Serif" font-size="10.00">BPMN::Event</text>
<text text-anchor="start" x="47" y="-191.5" font-family="Helvetica,sans-Serif" font-size="10.00">+</text>
<text text-anchor="start" x="63" y="-191.5" font-family="Helvetica,sans-Serif" font-size="10.00">element</text>
<text text-anchor="start" x="47" y="-176.5" font-family="Helvetica,sans-Serif" font-size="10.00">+</text>
<text text-anchor="start" x="63" y="-176.5" font-family="Helvetica,sans-Serif" font-size="10.00">Event()</text>
<polygon fill="#666666" stroke="#666666" points="40,-201.5 40,-201.5 114,-201.5 114,-201.5 40,-201.5"/>
<polygon fill="#666666" stroke="#666666" points="40,-186.5 40,-186.5 61,-186.5 61,-186.5 40,-186.5"/>
<polygon fill="#666666" stroke="#666666" points="61,-186.5 61,-186.5 114,-186.5 114,-186.5 61,-186.5"/>
<polygon fill="none" stroke="#666666" points="40,-170 40,-219 114,-219 114,-170 40,-170"/>
</a>
</g>
</g>
<!-- Node3&#45;&gt;Node2 -->
<g id="edge2_Node000002_Node000003" class="edge">
<title>Node3&#45;&gt;Node2</title>
<g id="a_edge2_Node000002_Node000003"><a xlink:title=" ">
<path fill="none" stroke="#63b8ff" d="M77,-159.77C77,-151.17 77,-142.1 77,-134.12"/>
<polygon fill="none" stroke="#63b8ff" points="73.5,-159.94 77,-169.94 80.5,-159.94 73.5,-159.94"/>
</a>
</g>
</g>
<!-- Node4 -->
<g id="Node000004" class="node">
<title>Node4</title>
<g id="a_Node000004"><a xlink:href="classBPMN_1_1FlowNode.html" target="_top" xlink:title="Base class for BPMN elements that may contain incoming and outgoing sequence flows.">
<polygon fill="white" stroke="transparent" points="124.5,-349 29.5,-349 29.5,-255 124.5,-255 124.5,-349"/>
<text text-anchor="start" x="35" y="-337" font-family="Helvetica,sans-Serif" font-size="10.00">BPMN::FlowNode</text>
<text text-anchor="start" x="38" y="-322" font-family="Helvetica,sans-Serif" font-size="10.00">+</text>
<text text-anchor="start" x="55" y="-322" font-family="Helvetica,sans-Serif" font-size="10.00">element</text>
<text text-anchor="start" x="38" y="-307" font-family="Helvetica,sans-Serif" font-size="10.00">+</text>
<text text-anchor="start" x="55" y="-307" font-family="Helvetica,sans-Serif" font-size="10.00">name</text>
<text text-anchor="start" x="38" y="-292" font-family="Helvetica,sans-Serif" font-size="10.00">+</text>
<text text-anchor="start" x="55" y="-292" font-family="Helvetica,sans-Serif" font-size="10.00">incoming</text>
<text text-anchor="start" x="38" y="-277" font-family="Helvetica,sans-Serif" font-size="10.00">+</text>
<text text-anchor="start" x="55" y="-277" font-family="Helvetica,sans-Serif" font-size="10.00">outgoing</text>
<text text-anchor="start" x="38" y="-262" font-family="Helvetica,sans-Serif" font-size="10.00">+</text>
<text text-anchor="start" x="55" y="-262" font-family="Helvetica,sans-Serif" font-size="10.00">FlowNode()</text>
<polygon fill="#666666" stroke="#666666" points="30,-332 30,-332 125,-332 125,-332 30,-332"/>
<polygon fill="#666666" stroke="#666666" points="30,-272 30,-272 53,-272 53,-272 30,-272"/>
<polygon fill="#666666" stroke="#666666" points="53,-272 53,-272 125,-272 125,-272 53,-272"/>
<polygon fill="none" stroke="#666666" points="29.5,-255 29.5,-349 124.5,-349 124.5,-255 29.5,-255"/>
</a>
</g>
</g>
<!-- Node4&#45;&gt;Node3 -->
<g id="edge3_Node000003_Node000004" class="edge">
<title>Node4&#45;&gt;Node3</title>
<g id="a_edge3_Node000003_Node000004"><a xlink:title=" ">
<path fill="none" stroke="#63b8ff" d="M77,-244.59C77,-235.62 77,-226.79 77,-219.15"/>
<polygon fill="none" stroke="#63b8ff" points="73.5,-244.73 77,-254.73 80.5,-244.73 73.5,-244.73"/>
</a>
</g>
</g>
<!-- Node5 -->
<g id="Node000005" class="node">
<title>Node5</title>
<g id="a_Node000005"><a xlink:href="classBPMN_1_1ChildNode.html" target="_top" xlink:title="Base class for BPMN elements within a Scope.">
<polygon fill="white" stroke="transparent" points="125,-464 29,-464 29,-385 125,-385 125,-464"/>
<text text-anchor="start" x="34" y="-451.5" font-family="Helvetica,sans-Serif" font-size="10.00">BPMN::ChildNode</text>
<text text-anchor="start" x="37" y="-436.5" font-family="Helvetica,sans-Serif" font-size="10.00">+</text>
<text text-anchor="start" x="54" y="-436.5" font-family="Helvetica,sans-Serif" font-size="10.00">parent</text>
<text text-anchor="start" x="37" y="-421.5" font-family="Helvetica,sans-Serif" font-size="10.00">+</text>
<text text-anchor="start" x="54" y="-421.5" font-family="Helvetica,sans-Serif" font-size="10.00">ChildNode()</text>
<text text-anchor="start" x="37" y="-406.5" font-family="Helvetica,sans-Serif" font-size="10.00">+</text>
<text text-anchor="start" x="54" y="-406.5" font-family="Helvetica,sans-Serif" font-size="10.00">ancestor()</text>
<text text-anchor="start" x="37" y="-391.5" font-family="Helvetica,sans-Serif" font-size="10.00">+</text>
<text text-anchor="start" x="54" y="-391.5" font-family="Helvetica,sans-Serif" font-size="10.00">ancestor()</text>
<polygon fill="#666666" stroke="#666666" points="29,-446.5 29,-446.5 125,-446.5 125,-446.5 29,-446.5"/>
<polygon fill="#666666" stroke="#666666" points="29,-431.5 29,-431.5 52,-431.5 52,-431.5 29,-431.5"/>
<polygon fill="#666666" stroke="#666666" points="52,-431.5 52,-431.5 125,-431.5 125,-431.5 52,-431.5"/>
<polygon fill="none" stroke="#666666" points="29,-385 29,-464 125,-464 125,-385 29,-385"/>
</a>
</g>
</g>
<!-- Node5&#45;&gt;Node4 -->
<g id="edge4_Node000004_Node000005" class="edge">
<title>Node5&#45;&gt;Node4</title>
<g id="a_edge4_Node000004_Node000005"><a xlink:title=" ">
<path fill="none" stroke="#63b8ff" d="M77,-374.68C77,-366.3 77,-357.61 77,-349.29"/>
<polygon fill="none" stroke="#63b8ff" points="73.5,-374.71 77,-384.71 80.5,-374.71 73.5,-374.71"/>
</a>
</g>
</g>
<!-- Node6 -->
<g id="Node000006" class="node">
<title>Node6</title>
<g id="a_Node000006"><a xlink:href="classBPMN_1_1Node.html" target="_top" xlink:title="Base class for all nodes in a BPMN model.">
<polygon fill="white" stroke="transparent" points="112.5,-624 41.5,-624 41.5,-500 112.5,-500 112.5,-624"/>
<text text-anchor="start" x="47" y="-612" font-family="Helvetica,sans-Serif" font-size="10.00">BPMN::Node</text>
<text text-anchor="start" x="47" y="-597" font-family="Helvetica,sans-Serif" font-size="10.00">+</text>
<text text-anchor="start" x="61" y="-597" font-family="Helvetica,sans-Serif" font-size="10.00">receiving</text>
<text text-anchor="start" x="47" y="-582" font-family="Helvetica,sans-Serif" font-size="10.00">+</text>
<text text-anchor="start" x="61" y="-582" font-family="Helvetica,sans-Serif" font-size="10.00">sending</text>
<text text-anchor="start" x="47" y="-567" font-family="Helvetica,sans-Serif" font-size="10.00">+</text>
<text text-anchor="start" x="61" y="-567" font-family="Helvetica,sans-Serif" font-size="10.00">Node()</text>
<text text-anchor="start" x="47" y="-552" font-family="Helvetica,sans-Serif" font-size="10.00">+</text>
<text text-anchor="start" x="61" y="-552" font-family="Helvetica,sans-Serif" font-size="10.00">find()</text>
<text text-anchor="start" x="47" y="-537" font-family="Helvetica,sans-Serif" font-size="10.00">+</text>
<text text-anchor="start" x="61" y="-537" font-family="Helvetica,sans-Serif" font-size="10.00">find()</text>
<text text-anchor="start" x="47" y="-522" font-family="Helvetica,sans-Serif" font-size="10.00">+</text>
<text text-anchor="start" x="61" y="-522" font-family="Helvetica,sans-Serif" font-size="10.00">find_all()</text>
<text text-anchor="start" x="47" y="-507" font-family="Helvetica,sans-Serif" font-size="10.00">+</text>
<text text-anchor="start" x="61" y="-507" font-family="Helvetica,sans-Serif" font-size="10.00">find_all()</text>
<polygon fill="#666666" stroke="#666666" points="42,-607 42,-607 113,-607 113,-607 42,-607"/>
<polygon fill="#666666" stroke="#666666" points="42,-577 42,-577 59,-577 59,-577 42,-577"/>
<polygon fill="#666666" stroke="#666666" points="59,-577 59,-577 113,-577 113,-577 59,-577"/>
<polygon fill="none" stroke="#666666" points="41.5,-500 41.5,-624 112.5,-624 112.5,-500 41.5,-500"/>
</a>
</g>
</g>
<!-- Node6&#45;&gt;Node5 -->
<g id="edge5_Node000005_Node000006" class="edge">
<title>Node6&#45;&gt;Node5</title>
<g id="a_edge5_Node000005_Node000006"><a xlink:title=" ">
<path fill="none" stroke="#63b8ff" d="M77,-489.93C77,-481.02 77,-472.19 77,-464.05"/>
<polygon fill="none" stroke="#63b8ff" points="73.5,-489.99 77,-499.99 80.5,-489.99 73.5,-489.99"/>
</a>
</g>
</g>
<!-- Node7 -->
<g id="Node000007" class="node">
<title>Node7</title>
<g id="a_Node000007"><a xlink:href="classBPMN_1_1BaseElement.html" target="_top" xlink:title="Base class for all core BPMN elements.">
<polygon fill="white" stroke="transparent" points="134.5,-799 19.5,-799 19.5,-660 134.5,-660 134.5,-799"/>
<text text-anchor="start" x="27.5" y="-786.5" font-family="Helvetica,sans-Serif" font-size="10.00">BPMN::BaseElement</text>
<text text-anchor="start" x="24" y="-771.5" font-family="Helvetica,sans-Serif" font-size="10.00">+</text>
<text text-anchor="start" x="37" y="-771.5" font-family="Helvetica,sans-Serif" font-size="10.00">element</text>
<text text-anchor="start" x="24" y="-756.5" font-family="Helvetica,sans-Serif" font-size="10.00">+</text>
<text text-anchor="start" x="37" y="-756.5" font-family="Helvetica,sans-Serif" font-size="10.00">id</text>
<text text-anchor="start" x="24" y="-741.5" font-family="Helvetica,sans-Serif" font-size="10.00">+</text>
<text text-anchor="start" x="37" y="-741.5" font-family="Helvetica,sans-Serif" font-size="10.00">extensionElements</text>
<text text-anchor="start" x="24" y="-726.5" font-family="Helvetica,sans-Serif" font-size="10.00">+</text>
<text text-anchor="start" x="37" y="-726.5" font-family="Helvetica,sans-Serif" font-size="10.00">BaseElement()</text>
<text text-anchor="start" x="24" y="-711.5" font-family="Helvetica,sans-Serif" font-size="10.00">+</text>
<text text-anchor="start" x="37" y="-711.5" font-family="Helvetica,sans-Serif" font-size="10.00">is()</text>
<text text-anchor="start" x="24" y="-696.5" font-family="Helvetica,sans-Serif" font-size="10.00">+</text>
<text text-anchor="start" x="37" y="-696.5" font-family="Helvetica,sans-Serif" font-size="10.00">is()</text>
<text text-anchor="start" x="24" y="-681.5" font-family="Helvetica,sans-Serif" font-size="10.00">+</text>
<text text-anchor="start" x="37" y="-681.5" font-family="Helvetica,sans-Serif" font-size="10.00">get()</text>
<text text-anchor="start" x="24" y="-666.5" font-family="Helvetica,sans-Serif" font-size="10.00">+</text>
<text text-anchor="start" x="37" y="-666.5" font-family="Helvetica,sans-Serif" font-size="10.00">get()</text>
<polygon fill="#666666" stroke="#666666" points="20,-781.5 20,-781.5 135,-781.5 135,-781.5 20,-781.5"/>
<polygon fill="#666666" stroke="#666666" points="20,-736.5 20,-736.5 35,-736.5 35,-736.5 20,-736.5"/>
<polygon fill="#666666" stroke="#666666" points="35,-736.5 35,-736.5 135,-736.5 135,-736.5 35,-736.5"/>
<polygon fill="none" stroke="#666666" points="19.5,-660 19.5,-799 134.5,-799 134.5,-660 19.5,-660"/>
</a>
</g>
</g>
<!-- Node7&#45;&gt;Node6 -->
<g id="edge6_Node000006_Node000007" class="edge">
<title>Node7&#45;&gt;Node6</title>
<g id="a_edge6_Node000006_Node000007"><a xlink:title=" ">
<path fill="none" stroke="#63b8ff" d="M77,-649.71C77,-641.12 77,-632.47 77,-624.14"/>
<polygon fill="none" stroke="#63b8ff" points="73.5,-649.75 77,-659.75 80.5,-649.75 73.5,-649.75"/>
</a>
</g>
</g>
<!-- Node8 -->
<g id="Node000008" class="node">
<title>Node8</title>
<g id="a_Node000008"><a xlink:href="classBPMN_1_1Element.html" target="_top" xlink:title="Abstract base class for all elements in a BPMN model.">
<polygon fill="white" stroke="transparent" points="120,-944 34,-944 34,-835 120,-835 120,-944"/>
<text text-anchor="start" x="39" y="-931.5" font-family="Helvetica,sans-Serif" font-size="10.00">BPMN::Element</text>
<text text-anchor="start" x="75" y="-916.5" font-family="Helvetica,sans-Serif" font-size="10.00"> </text>
<text text-anchor="start" x="39" y="-901.5" font-family="Helvetica,sans-Serif" font-size="10.00">+</text>
<text text-anchor="start" x="53" y="-901.5" font-family="Helvetica,sans-Serif" font-size="10.00">~Element()</text>
<text text-anchor="start" x="39" y="-886.5" font-family="Helvetica,sans-Serif" font-size="10.00">+</text>
<text text-anchor="start" x="53" y="-886.5" font-family="Helvetica,sans-Serif" font-size="10.00">represents()</text>
<text text-anchor="start" x="39" y="-871.5" font-family="Helvetica,sans-Serif" font-size="10.00">+</text>
<text text-anchor="start" x="53" y="-871.5" font-family="Helvetica,sans-Serif" font-size="10.00">represents()</text>
<text text-anchor="start" x="39" y="-856.5" font-family="Helvetica,sans-Serif" font-size="10.00">+</text>
<text text-anchor="start" x="53" y="-856.5" font-family="Helvetica,sans-Serif" font-size="10.00">as()</text>
<text text-anchor="start" x="39" y="-841.5" font-family="Helvetica,sans-Serif" font-size="10.00">+</text>
<text text-anchor="start" x="53" y="-841.5" font-family="Helvetica,sans-Serif" font-size="10.00">as()</text>
<polygon fill="#666666" stroke="#666666" points="34,-926.5 34,-926.5 120,-926.5 120,-926.5 34,-926.5"/>
<polygon fill="#666666" stroke="#666666" points="34,-911.5 34,-911.5 120,-911.5 120,-911.5 34,-911.5"/>
<polygon fill="none" stroke="#666666" points="34,-835 34,-944 120,-944 120,-835 34,-835"/>
</a>
</g>
</g>
<!-- Node8&#45;&gt;Node7 -->
<g id="edge7_Node000007_Node000008" class="edge">
<title>Node8&#45;&gt;Node7</title>
<g id="a_edge7_Node000007_Node000008"><a xlink:title=" ">
<path fill="none" stroke="#63b8ff" d="M77,-824.55C77,-816.23 77,-807.67 77,-799.28"/>
<polygon fill="none" stroke="#63b8ff" points="73.5,-824.57 77,-834.57 80.5,-824.57 73.5,-824.57"/>
</a>
</g>
</g>
</g>
</svg>
