<?xml version="1.0" encoding="UTF-8" standalone="no"?>
<!DOCTYPE svg PUBLIC "-//W3C//DTD SVG 1.1//EN"
 "http://www.w3.org/Graphics/SVG/1.1/DTD/svg11.dtd">
<!-- Generated by graphviz version 2.43.0 (0)
 -->
<!-- Title: BPMN::SignalCatchEvent Pages: 1 -->
<svg width="304pt" height="1037pt"
 viewBox="0.00 0.00 303.50 1037.00" xmlns="http://www.w3.org/2000/svg" xmlns:xlink="http://www.w3.org/1999/xlink">
<g id="graph0" class="graph" transform="scale(1 1) rotate(0) translate(4 1033)">
<title>BPMN::SignalCatchEvent</title>
<!-- Node1 -->
<g id="Node000001" class="node">
<title>Node1</title>
<g id="a_Node000001"><a xlink:title=" ">
<polygon fill="#999999" stroke="transparent" points="218.5,-134 87.5,-134 87.5,-85 218.5,-85 218.5,-134"/>
<text text-anchor="start" x="93" y="-121.5" font-family="Helvetica,sans-Serif" font-size="10.00">BPMN::SignalCatchEvent</text>
<text text-anchor="start" x="151.5" y="-106.5" font-family="Helvetica,sans-Serif" font-size="10.00"> </text>
<text text-anchor="start" x="96" y="-91.5" font-family="Helvetica,sans-Serif" font-size="10.00">+</text>
<text text-anchor="start" x="113" y="-91.5" font-family="Helvetica,sans-Serif" font-size="10.00">SignalCatchEvent()</text>
<polygon fill="#666666" stroke="#666666" points="88,-116.5 88,-116.5 219,-116.5 219,-116.5 88,-116.5"/>
<polygon fill="#666666" stroke="#666666" points="88,-101.5 88,-101.5 219,-101.5 219,-101.5 88,-101.5"/>
<polygon fill="none" stroke="#666666" points="87.5,-85 87.5,-134 218.5,-134 218.5,-85 87.5,-85"/>
</a>
</g>
</g>
<!-- Node9 -->
<g id="Node000009" class="node">
<title>Node9</title>
<g id="a_Node000009"><a xlink:href="classBPMN_1_1SignalBoundaryEvent.html" target="_top" xlink:title=" ">
<polygon fill="white" stroke="transparent" points="150,-49 0,-49 0,0 150,0 150,-49"/>
<text text-anchor="start" x="5" y="-36.5" font-family="Helvetica,sans-Serif" font-size="10.00">BPMN::SignalBoundaryEvent</text>
<text text-anchor="start" x="8" y="-21.5" font-family="Helvetica,sans-Serif" font-size="10.00">+</text>
<text text-anchor="start" x="25" y="-21.5" font-family="Helvetica,sans-Serif" font-size="10.00">element</text>
<text text-anchor="start" x="8" y="-6.5" font-family="Helvetica,sans-Serif" font-size="10.00">+</text>
<text text-anchor="start" x="25" y="-6.5" font-family="Helvetica,sans-Serif" font-size="10.00">SignalBoundaryEvent()</text>
<polygon fill="#666666" stroke="#666666" points="0,-31.5 0,-31.5 150,-31.5 150,-31.5 0,-31.5"/>
<polygon fill="#666666" stroke="#666666" points="0,-16.5 0,-16.5 23,-16.5 23,-16.5 0,-16.5"/>
<polygon fill="#666666" stroke="#666666" points="23,-16.5 23,-16.5 150,-16.5 150,-16.5 23,-16.5"/>
<polygon fill="none" stroke="#666666" points="0,0 0,-49 150,-49 150,0 0,0"/>
</a>
</g>
</g>
<!-- Node1&#45;&gt;Node9 -->
<g id="edge8_Node000001_Node000009" class="edge">
<title>Node1&#45;&gt;Node9</title>
<g id="a_edge8_Node000001_Node000009"><a xlink:title=" ">
<path fill="none" stroke="#63b8ff" d="M123.95,-77.59C115.1,-68.17 105.52,-57.98 97.2,-49.12"/>
<polygon fill="none" stroke="#63b8ff" points="121.46,-80.05 130.86,-84.94 126.56,-75.25 121.46,-80.05"/>
</a>
</g>
</g>
<!-- Node10 -->
<g id="Node000010" class="node">
<title>Node10</title>
<g id="a_Node000010"><a xlink:href="classBPMN_1_1SignalStartEvent.html" target="_top" xlink:title=" ">
<polygon fill="white" stroke="transparent" points="295.5,-49 168.5,-49 168.5,0 295.5,0 295.5,-49"/>
<text text-anchor="start" x="174" y="-36.5" font-family="Helvetica,sans-Serif" font-size="10.00">BPMN::SignalStartEvent</text>
<text text-anchor="start" x="177" y="-21.5" font-family="Helvetica,sans-Serif" font-size="10.00">+</text>
<text text-anchor="start" x="194" y="-21.5" font-family="Helvetica,sans-Serif" font-size="10.00">element</text>
<text text-anchor="start" x="177" y="-6.5" font-family="Helvetica,sans-Serif" font-size="10.00">+</text>
<text text-anchor="start" x="194" y="-6.5" font-family="Helvetica,sans-Serif" font-size="10.00">SignalStartEvent()</text>
<polygon fill="#666666" stroke="#666666" points="169,-31.5 169,-31.5 296,-31.5 296,-31.5 169,-31.5"/>
<polygon fill="#666666" stroke="#666666" points="169,-16.5 169,-16.5 192,-16.5 192,-16.5 169,-16.5"/>
<polygon fill="#666666" stroke="#666666" points="192,-16.5 192,-16.5 296,-16.5 296,-16.5 192,-16.5"/>
<polygon fill="none" stroke="#666666" points="168.5,0 168.5,-49 295.5,-49 295.5,0 168.5,0"/>
</a>
</g>
</g>
<!-- Node1&#45;&gt;Node10 -->
<g id="edge9_Node000001_Node000010" class="edge">
<title>Node1&#45;&gt;Node10</title>
<g id="a_edge9_Node000001_Node000010"><a xlink:title=" ">
<path fill="none" stroke="#63b8ff" d="M182.42,-77.59C191.38,-68.17 201.09,-57.98 209.52,-49.12"/>
<polygon fill="none" stroke="#63b8ff" points="179.79,-75.28 175.43,-84.94 184.86,-80.11 179.79,-75.28"/>
</a>
</g>
</g>
<!-- Node2 -->
<g id="Node000002" class="node">
<title>Node2</title>
<g id="a_Node000002"><a xlink:href="classBPMN_1_1CatchEvent.html" target="_top" xlink:title=" ">
<polygon fill="white" stroke="transparent" points="203.5,-219 102.5,-219 102.5,-170 203.5,-170 203.5,-219"/>
<text text-anchor="start" x="108" y="-206.5" font-family="Helvetica,sans-Serif" font-size="10.00">BPMN::CatchEvent</text>
<text text-anchor="start" x="111" y="-191.5" font-family="Helvetica,sans-Serif" font-size="10.00">+</text>
<text text-anchor="start" x="128" y="-191.5" font-family="Helvetica,sans-Serif" font-size="10.00">element</text>
<text text-anchor="start" x="111" y="-176.5" font-family="Helvetica,sans-Serif" font-size="10.00">+</text>
<text text-anchor="start" x="128" y="-176.5" font-family="Helvetica,sans-Serif" font-size="10.00">CatchEvent()</text>
<polygon fill="#666666" stroke="#666666" points="103,-201.5 103,-201.5 204,-201.5 204,-201.5 103,-201.5"/>
<polygon fill="#666666" stroke="#666666" points="103,-186.5 103,-186.5 126,-186.5 126,-186.5 103,-186.5"/>
<polygon fill="#666666" stroke="#666666" points="126,-186.5 126,-186.5 204,-186.5 204,-186.5 126,-186.5"/>
<polygon fill="none" stroke="#666666" points="102.5,-170 102.5,-219 203.5,-219 203.5,-170 102.5,-170"/>
</a>
</g>
</g>
<!-- Node2&#45;&gt;Node1 -->
<g id="edge1_Node000001_Node000002" class="edge">
<title>Node2&#45;&gt;Node1</title>
<g id="a_edge1_Node000001_Node000002"><a xlink:title=" ">
<path fill="none" stroke="#63b8ff" d="M153,-159.77C153,-151.17 153,-142.1 153,-134.12"/>
<polygon fill="none" stroke="#63b8ff" points="149.5,-159.94 153,-169.94 156.5,-159.94 149.5,-159.94"/>
</a>
</g>
</g>
<!-- Node3 -->
<g id="Node000003" class="node">
<title>Node3</title>
<g id="a_Node000003"><a xlink:href="classBPMN_1_1Event.html" target="_top" xlink:title=" ">
<polygon fill="white" stroke="transparent" points="190,-304 116,-304 116,-255 190,-255 190,-304"/>
<text text-anchor="start" x="121" y="-291.5" font-family="Helvetica,sans-Serif" font-size="10.00">BPMN::Event</text>
<text text-anchor="start" x="123" y="-276.5" font-family="Helvetica,sans-Serif" font-size="10.00">+</text>
<text text-anchor="start" x="139" y="-276.5" font-family="Helvetica,sans-Serif" font-size="10.00">element</text>
<text text-anchor="start" x="123" y="-261.5" font-family="Helvetica,sans-Serif" font-size="10.00">+</text>
<text text-anchor="start" x="139" y="-261.5" font-family="Helvetica,sans-Serif" font-size="10.00">Event()</text>
<polygon fill="#666666" stroke="#666666" points="116,-286.5 116,-286.5 190,-286.5 190,-286.5 116,-286.5"/>
<polygon fill="#666666" stroke="#666666" points="116,-271.5 116,-271.5 137,-271.5 137,-271.5 116,-271.5"/>
<polygon fill="#666666" stroke="#666666" points="137,-271.5 137,-271.5 190,-271.5 190,-271.5 137,-271.5"/>
<polygon fill="none" stroke="#666666" points="116,-255 116,-304 190,-304 190,-255 116,-255"/>
</a>
</g>
</g>
<!-- Node3&#45;&gt;Node2 -->
<g id="edge2_Node000002_Node000003" class="edge">
<title>Node3&#45;&gt;Node2</title>
<g id="a_edge2_Node000002_Node000003"><a xlink:title=" ">
<path fill="none" stroke="#63b8ff" d="M153,-244.77C153,-236.17 153,-227.1 153,-219.12"/>
<polygon fill="none" stroke="#63b8ff" points="149.5,-244.94 153,-254.94 156.5,-244.94 149.5,-244.94"/>
</a>
</g>
</g>
<!-- Node4 -->
<g id="Node000004" class="node">
<title>Node4</title>
<g id="a_Node000004"><a xlink:href="classBPMN_1_1FlowNode.html" target="_top" xlink:title="Base class for BPMN elements that may contain incoming and outgoing sequence flows.">
<polygon fill="white" stroke="transparent" points="200.5,-434 105.5,-434 105.5,-340 200.5,-340 200.5,-434"/>
<text text-anchor="start" x="111" y="-422" font-family="Helvetica,sans-Serif" font-size="10.00">BPMN::FlowNode</text>
<text text-anchor="start" x="114" y="-407" font-family="Helvetica,sans-Serif" font-size="10.00">+</text>
<text text-anchor="start" x="131" y="-407" font-family="Helvetica,sans-Serif" font-size="10.00">element</text>
<text text-anchor="start" x="114" y="-392" font-family="Helvetica,sans-Serif" font-size="10.00">+</text>
<text text-anchor="start" x="131" y="-392" font-family="Helvetica,sans-Serif" font-size="10.00">name</text>
<text text-anchor="start" x="114" y="-377" font-family="Helvetica,sans-Serif" font-size="10.00">+</text>
<text text-anchor="start" x="131" y="-377" font-family="Helvetica,sans-Serif" font-size="10.00">incoming</text>
<text text-anchor="start" x="114" y="-362" font-family="Helvetica,sans-Serif" font-size="10.00">+</text>
<text text-anchor="start" x="131" y="-362" font-family="Helvetica,sans-Serif" font-size="10.00">outgoing</text>
<text text-anchor="start" x="114" y="-347" font-family="Helvetica,sans-Serif" font-size="10.00">+</text>
<text text-anchor="start" x="131" y="-347" font-family="Helvetica,sans-Serif" font-size="10.00">FlowNode()</text>
<polygon fill="#666666" stroke="#666666" points="106,-417 106,-417 201,-417 201,-417 106,-417"/>
<polygon fill="#666666" stroke="#666666" points="106,-357 106,-357 129,-357 129,-357 106,-357"/>
<polygon fill="#666666" stroke="#666666" points="129,-357 129,-357 201,-357 201,-357 129,-357"/>
<polygon fill="none" stroke="#666666" points="105.5,-340 105.5,-434 200.5,-434 200.5,-340 105.5,-340"/>
</a>
</g>
</g>
<!-- Node4&#45;&gt;Node3 -->
<g id="edge3_Node000003_Node000004" class="edge">
<title>Node4&#45;&gt;Node3</title>
<g id="a_edge3_Node000003_Node000004"><a xlink:title=" ">
<path fill="none" stroke="#63b8ff" d="M153,-329.59C153,-320.62 153,-311.79 153,-304.15"/>
<polygon fill="none" stroke="#63b8ff" points="149.5,-329.73 153,-339.73 156.5,-329.73 149.5,-329.73"/>
</a>
</g>
</g>
<!-- Node5 -->
<g id="Node000005" class="node">
<title>Node5</title>
<g id="a_Node000005"><a xlink:href="classBPMN_1_1ChildNode.html" target="_top" xlink:title="Base class for BPMN elements within a Scope.">
<polygon fill="white" stroke="transparent" points="201,-549 105,-549 105,-470 201,-470 201,-549"/>
<text text-anchor="start" x="110" y="-536.5" font-family="Helvetica,sans-Serif" font-size="10.00">BPMN::ChildNode</text>
<text text-anchor="start" x="113" y="-521.5" font-family="Helvetica,sans-Serif" font-size="10.00">+</text>
<text text-anchor="start" x="130" y="-521.5" font-family="Helvetica,sans-Serif" font-size="10.00">parent</text>
<text text-anchor="start" x="113" y="-506.5" font-family="Helvetica,sans-Serif" font-size="10.00">+</text>
<text text-anchor="start" x="130" y="-506.5" font-family="Helvetica,sans-Serif" font-size="10.00">ChildNode()</text>
<text text-anchor="start" x="113" y="-491.5" font-family="Helvetica,sans-Serif" font-size="10.00">+</text>
<text text-anchor="start" x="130" y="-491.5" font-family="Helvetica,sans-Serif" font-size="10.00">ancestor()</text>
<text text-anchor="start" x="113" y="-476.5" font-family="Helvetica,sans-Serif" font-size="10.00">+</text>
<text text-anchor="start" x="130" y="-476.5" font-family="Helvetica,sans-Serif" font-size="10.00">ancestor()</text>
<polygon fill="#666666" stroke="#666666" points="105,-531.5 105,-531.5 201,-531.5 201,-531.5 105,-531.5"/>
<polygon fill="#666666" stroke="#666666" points="105,-516.5 105,-516.5 128,-516.5 128,-516.5 105,-516.5"/>
<polygon fill="#666666" stroke="#666666" points="128,-516.5 128,-516.5 201,-516.5 201,-516.5 128,-516.5"/>
<polygon fill="none" stroke="#666666" points="105,-470 105,-549 201,-549 201,-470 105,-470"/>
</a>
</g>
</g>
<!-- Node5&#45;&gt;Node4 -->
<g id="edge4_Node000004_Node000005" class="edge">
<title>Node5&#45;&gt;Node4</title>
<g id="a_edge4_Node000004_Node000005"><a xlink:title=" ">
<path fill="none" stroke="#63b8ff" d="M153,-459.68C153,-451.3 153,-442.61 153,-434.29"/>
<polygon fill="none" stroke="#63b8ff" points="149.5,-459.71 153,-469.71 156.5,-459.71 149.5,-459.71"/>
</a>
</g>
</g>
<!-- Node6 -->
<g id="Node000006" class="node">
<title>Node6</title>
<g id="a_Node000006"><a xlink:href="classBPMN_1_1Node.html" target="_top" xlink:title="Base class for all nodes in a BPMN model.">
<polygon fill="white" stroke="transparent" points="188.5,-709 117.5,-709 117.5,-585 188.5,-585 188.5,-709"/>
<text text-anchor="start" x="123" y="-697" font-family="Helvetica,sans-Serif" font-size="10.00">BPMN::Node</text>
<text text-anchor="start" x="123" y="-682" font-family="Helvetica,sans-Serif" font-size="10.00">+</text>
<text text-anchor="start" x="137" y="-682" font-family="Helvetica,sans-Serif" font-size="10.00">receiving</text>
<text text-anchor="start" x="123" y="-667" font-family="Helvetica,sans-Serif" font-size="10.00">+</text>
<text text-anchor="start" x="137" y="-667" font-family="Helvetica,sans-Serif" font-size="10.00">sending</text>
<text text-anchor="start" x="123" y="-652" font-family="Helvetica,sans-Serif" font-size="10.00">+</text>
<text text-anchor="start" x="137" y="-652" font-family="Helvetica,sans-Serif" font-size="10.00">Node()</text>
<text text-anchor="start" x="123" y="-637" font-family="Helvetica,sans-Serif" font-size="10.00">+</text>
<text text-anchor="start" x="137" y="-637" font-family="Helvetica,sans-Serif" font-size="10.00">find()</text>
<text text-anchor="start" x="123" y="-622" font-family="Helvetica,sans-Serif" font-size="10.00">+</text>
<text text-anchor="start" x="137" y="-622" font-family="Helvetica,sans-Serif" font-size="10.00">find()</text>
<text text-anchor="start" x="123" y="-607" font-family="Helvetica,sans-Serif" font-size="10.00">+</text>
<text text-anchor="start" x="137" y="-607" font-family="Helvetica,sans-Serif" font-size="10.00">find_all()</text>
<text text-anchor="start" x="123" y="-592" font-family="Helvetica,sans-Serif" font-size="10.00">+</text>
<text text-anchor="start" x="137" y="-592" font-family="Helvetica,sans-Serif" font-size="10.00">find_all()</text>
<polygon fill="#666666" stroke="#666666" points="118,-692 118,-692 189,-692 189,-692 118,-692"/>
<polygon fill="#666666" stroke="#666666" points="118,-662 118,-662 135,-662 135,-662 118,-662"/>
<polygon fill="#666666" stroke="#666666" points="135,-662 135,-662 189,-662 189,-662 135,-662"/>
<polygon fill="none" stroke="#666666" points="117.5,-585 117.5,-709 188.5,-709 188.5,-585 117.5,-585"/>
</a>
</g>
</g>
<!-- Node6&#45;&gt;Node5 -->
<g id="edge5_Node000005_Node000006" class="edge">
<title>Node6&#45;&gt;Node5</title>
<g id="a_edge5_Node000005_Node000006"><a xlink:title=" ">
<path fill="none" stroke="#63b8ff" d="M153,-574.93C153,-566.02 153,-557.19 153,-549.05"/>
<polygon fill="none" stroke="#63b8ff" points="149.5,-574.99 153,-584.99 156.5,-574.99 149.5,-574.99"/>
</a>
</g>
</g>
<!-- Node7 -->
<g id="Node000007" class="node">
<title>Node7</title>
<g id="a_Node000007"><a xlink:href="classBPMN_1_1BaseElement.html" target="_top" xlink:title="Base class for all core BPMN elements.">
<polygon fill="white" stroke="transparent" points="210.5,-884 95.5,-884 95.5,-745 210.5,-745 210.5,-884"/>
<text text-anchor="start" x="103.5" y="-871.5" font-family="Helvetica,sans-Serif" font-size="10.00">BPMN::BaseElement</text>
<text text-anchor="start" x="100" y="-856.5" font-family="Helvetica,sans-Serif" font-size="10.00">+</text>
<text text-anchor="start" x="113" y="-856.5" font-family="Helvetica,sans-Serif" font-size="10.00">element</text>
<text text-anchor="start" x="100" y="-841.5" font-family="Helvetica,sans-Serif" font-size="10.00">+</text>
<text text-anchor="start" x="113" y="-841.5" font-family="Helvetica,sans-Serif" font-size="10.00">id</text>
<text text-anchor="start" x="100" y="-826.5" font-family="Helvetica,sans-Serif" font-size="10.00">+</text>
<text text-anchor="start" x="113" y="-826.5" font-family="Helvetica,sans-Serif" font-size="10.00">extensionElements</text>
<text text-anchor="start" x="100" y="-811.5" font-family="Helvetica,sans-Serif" font-size="10.00">+</text>
<text text-anchor="start" x="113" y="-811.5" font-family="Helvetica,sans-Serif" font-size="10.00">BaseElement()</text>
<text text-anchor="start" x="100" y="-796.5" font-family="Helvetica,sans-Serif" font-size="10.00">+</text>
<text text-anchor="start" x="113" y="-796.5" font-family="Helvetica,sans-Serif" font-size="10.00">is()</text>
<text text-anchor="start" x="100" y="-781.5" font-family="Helvetica,sans-Serif" font-size="10.00">+</text>
<text text-anchor="start" x="113" y="-781.5" font-family="Helvetica,sans-Serif" font-size="10.00">is()</text>
<text text-anchor="start" x="100" y="-766.5" font-family="Helvetica,sans-Serif" font-size="10.00">+</text>
<text text-anchor="start" x="113" y="-766.5" font-family="Helvetica,sans-Serif" font-size="10.00">get()</text>
<text text-anchor="start" x="100" y="-751.5" font-family="Helvetica,sans-Serif" font-size="10.00">+</text>
<text text-anchor="start" x="113" y="-751.5" font-family="Helvetica,sans-Serif" font-size="10.00">get()</text>
<polygon fill="#666666" stroke="#666666" points="96,-866.5 96,-866.5 211,-866.5 211,-866.5 96,-866.5"/>
<polygon fill="#666666" stroke="#666666" points="96,-821.5 96,-821.5 111,-821.5 111,-821.5 96,-821.5"/>
<polygon fill="#666666" stroke="#666666" points="111,-821.5 111,-821.5 211,-821.5 211,-821.5 111,-821.5"/>
<polygon fill="none" stroke="#666666" points="95.5,-745 95.5,-884 210.5,-884 210.5,-745 95.5,-745"/>
</a>
</g>
</g>
<!-- Node7&#45;&gt;Node6 -->
<g id="edge6_Node000006_Node000007" class="edge">
<title>Node7&#45;&gt;Node6</title>
<g id="a_edge6_Node000006_Node000007"><a xlink:title=" ">
<path fill="none" stroke="#63b8ff" d="M153,-734.71C153,-726.12 153,-717.47 153,-709.14"/>
<polygon fill="none" stroke="#63b8ff" points="149.5,-734.75 153,-744.75 156.5,-734.75 149.5,-734.75"/>
</a>
</g>
</g>
<!-- Node8 -->
<g id="Node000008" class="node">
<title>Node8</title>
<g id="a_Node000008"><a xlink:href="classBPMN_1_1Element.html" target="_top" xlink:title="Abstract base class for all elements in a BPMN model.">
<polygon fill="white" stroke="transparent" points="196,-1029 110,-1029 110,-920 196,-920 196,-1029"/>
<text text-anchor="start" x="115" y="-1016.5" font-family="Helvetica,sans-Serif" font-size="10.00">BPMN::Element</text>
<text text-anchor="start" x="151" y="-1001.5" font-family="Helvetica,sans-Serif" font-size="10.00"> </text>
<text text-anchor="start" x="115" y="-986.5" font-family="Helvetica,sans-Serif" font-size="10.00">+</text>
<text text-anchor="start" x="129" y="-986.5" font-family="Helvetica,sans-Serif" font-size="10.00">~Element()</text>
<text text-anchor="start" x="115" y="-971.5" font-family="Helvetica,sans-Serif" font-size="10.00">+</text>
<text text-anchor="start" x="129" y="-971.5" font-family="Helvetica,sans-Serif" font-size="10.00">represents()</text>
<text text-anchor="start" x="115" y="-956.5" font-family="Helvetica,sans-Serif" font-size="10.00">+</text>
<text text-anchor="start" x="129" y="-956.5" font-family="Helvetica,sans-Serif" font-size="10.00">represents()</text>
<text text-anchor="start" x="115" y="-941.5" font-family="Helvetica,sans-Serif" font-size="10.00">+</text>
<text text-anchor="start" x="129" y="-941.5" font-family="Helvetica,sans-Serif" font-size="10.00">as()</text>
<text text-anchor="start" x="115" y="-926.5" font-family="Helvetica,sans-Serif" font-size="10.00">+</text>
<text text-anchor="start" x="129" y="-926.5" font-family="Helvetica,sans-Serif" font-size="10.00">as()</text>
<polygon fill="#666666" stroke="#666666" points="110,-1011.5 110,-1011.5 196,-1011.5 196,-1011.5 110,-1011.5"/>
<polygon fill="#666666" stroke="#666666" points="110,-996.5 110,-996.5 196,-996.5 196,-996.5 110,-996.5"/>
<polygon fill="none" stroke="#666666" points="110,-920 110,-1029 196,-1029 196,-920 110,-920"/>
</a>
</g>
</g>
<!-- Node8&#45;&gt;Node7 -->
<g id="edge7_Node000007_Node000008" class="edge">
<title>Node8&#45;&gt;Node7</title>
<g id="a_edge7_Node000007_Node000008"><a xlink:title=" ">
<path fill="none" stroke="#63b8ff" d="M153,-909.55C153,-901.23 153,-892.67 153,-884.28"/>
<polygon fill="none" stroke="#63b8ff" points="149.5,-909.57 153,-919.57 156.5,-909.57 149.5,-909.57"/>
</a>
</g>
</g>
</g>
</svg>
