<?xml version="1.0" encoding="UTF-8" standalone="no"?>
<!DOCTYPE svg PUBLIC "-//W3C//DTD SVG 1.1//EN"
 "http://www.w3.org/Graphics/SVG/1.1/DTD/svg11.dtd">
<!-- Generated by graphviz version 2.43.0 (0)
 -->
<!-- Title: BPMN::Activity Pages: 1 -->
<svg width="1173pt" height="778pt"
 viewBox="0.00 0.00 1172.50 778.00" xmlns="http://www.w3.org/2000/svg" xmlns:xlink="http://www.w3.org/1999/xlink">
<g id="graph0" class="graph" transform="scale(1 1) rotate(0) translate(4 774)">
<title>BPMN::Activity</title>
<!-- Node1 -->
<g id="node1" class="node">
<title>Node1</title>
<g id="a_node1"><a xlink:title=" ">
<polygon fill="#bfbfbf" stroke="black" points="157,-188.5 157,-267.5 264,-267.5 264,-188.5 157,-188.5"/>
<text text-anchor="middle" x="210.5" y="-255.5" font-family="Helvetica,sans-Serif" font-size="10.00">BPMN::Activity</text>
<polyline fill="none" stroke="black" points="157,-248.5 264,-248.5 "/>
<text text-anchor="start" x="165" y="-236.5" font-family="Helvetica,sans-Serif" font-size="10.00">+ boundaryEvents</text>
<text text-anchor="start" x="165" y="-225.5" font-family="Helvetica,sans-Serif" font-size="10.00">+ compensatedBy</text>
<text text-anchor="start" x="165" y="-214.5" font-family="Helvetica,sans-Serif" font-size="10.00">+ element</text>
<polyline fill="none" stroke="black" points="157,-207.5 264,-207.5 "/>
<text text-anchor="start" x="165" y="-195.5" font-family="Helvetica,sans-Serif" font-size="10.00">+ Activity()</text>
</a>
</g>
</g>
<!-- Node5 -->
<g id="node5" class="node">
<title>Node5</title>
<g id="a_node5"><a xlink:href="classBPMN_1_1CallActivity.html" target="_top" xlink:title=" ">
<polygon fill="none" stroke="black" points="30.5,-94.5 30.5,-151.5 138.5,-151.5 138.5,-94.5 30.5,-94.5"/>
<text text-anchor="middle" x="84.5" y="-139.5" font-family="Helvetica,sans-Serif" font-size="10.00">BPMN::CallActivity</text>
<polyline fill="none" stroke="black" points="30.5,-132.5 138.5,-132.5 "/>
<text text-anchor="start" x="38.5" y="-120.5" font-family="Helvetica,sans-Serif" font-size="10.00">+ element</text>
<polyline fill="none" stroke="black" points="30.5,-113.5 138.5,-113.5 "/>
<text text-anchor="start" x="38.5" y="-101.5" font-family="Helvetica,sans-Serif" font-size="10.00">+ CallActivity()</text>
</a>
</g>
</g>
<!-- Node1&#45;&gt;Node5 -->
<g id="edge4" class="edge">
<title>Node1&#45;&gt;Node5</title>
<path fill="none" stroke="midnightblue" d="M155.43,-181.98C142.78,-171.64 129.7,-160.95 118.27,-151.61"/>
<polygon fill="none" stroke="midnightblue" points="153.27,-184.73 163.22,-188.35 157.7,-179.31 153.27,-184.73"/>
</g>
<!-- Node6 -->
<g id="node6" class="node">
<title>Node6</title>
<g id="a_node6"><a xlink:href="classBPMN_1_1SubProcess.html" target="_top" xlink:title=" ">
<polygon fill="none" stroke="black" points="157,-94.5 157,-151.5 264,-151.5 264,-94.5 157,-94.5"/>
<text text-anchor="middle" x="210.5" y="-139.5" font-family="Helvetica,sans-Serif" font-size="10.00">BPMN::SubProcess</text>
<polyline fill="none" stroke="black" points="157,-132.5 264,-132.5 "/>
<text text-anchor="start" x="165" y="-120.5" font-family="Helvetica,sans-Serif" font-size="10.00">+ element</text>
<polyline fill="none" stroke="black" points="157,-113.5 264,-113.5 "/>
<text text-anchor="start" x="165" y="-101.5" font-family="Helvetica,sans-Serif" font-size="10.00">+ SubProcess()</text>
</a>
</g>
</g>
<!-- Node1&#45;&gt;Node6 -->
<g id="edge5" class="edge">
<title>Node1&#45;&gt;Node6</title>
<path fill="none" stroke="midnightblue" d="M210.5,-178.16C210.5,-169.04 210.5,-159.81 210.5,-151.61"/>
<polygon fill="none" stroke="midnightblue" points="207,-178.35 210.5,-188.35 214,-178.35 207,-178.35"/>
</g>
<!-- Node9 -->
<g id="node9" class="node">
<title>Node9</title>
<g id="a_node9"><a xlink:href="classBPMN_1_1Task.html" target="_top" xlink:title=" ">
<polygon fill="none" stroke="black" points="649.5,-94.5 649.5,-151.5 723.5,-151.5 723.5,-94.5 649.5,-94.5"/>
<text text-anchor="middle" x="686.5" y="-139.5" font-family="Helvetica,sans-Serif" font-size="10.00">BPMN::Task</text>
<polyline fill="none" stroke="black" points="649.5,-132.5 723.5,-132.5 "/>
<text text-anchor="start" x="657.5" y="-120.5" font-family="Helvetica,sans-Serif" font-size="10.00">+ element</text>
<polyline fill="none" stroke="black" points="649.5,-113.5 723.5,-113.5 "/>
<text text-anchor="start" x="657.5" y="-101.5" font-family="Helvetica,sans-Serif" font-size="10.00">+ Task()</text>
</a>
</g>
</g>
<!-- Node1&#45;&gt;Node9 -->
<g id="edge8" class="edge">
<title>Node1&#45;&gt;Node9</title>
<path fill="none" stroke="midnightblue" d="M274.23,-213.21C375.08,-191.39 568.29,-149.58 649.31,-132.05"/>
<polygon fill="none" stroke="midnightblue" points="273.21,-209.85 264.18,-215.38 274.69,-216.69 273.21,-209.85"/>
</g>
<!-- Node2 -->
<g id="node2" class="node">
<title>Node2</title>
<g id="a_node2"><a xlink:href="classBPMN_1_1FlowNode.html" target="_top" xlink:title="Base class for BPMN elements that may contain incoming and outgoing sequence flows.">
<polygon fill="none" stroke="black" points="160,-304.5 160,-394.5 261,-394.5 261,-304.5 160,-304.5"/>
<text text-anchor="middle" x="210.5" y="-382.5" font-family="Helvetica,sans-Serif" font-size="10.00">BPMN::FlowNode</text>
<polyline fill="none" stroke="black" points="160,-375.5 261,-375.5 "/>
<text text-anchor="start" x="168" y="-363.5" font-family="Helvetica,sans-Serif" font-size="10.00">+ element</text>
<text text-anchor="start" x="168" y="-352.5" font-family="Helvetica,sans-Serif" font-size="10.00">+ name</text>
<text text-anchor="start" x="168" y="-341.5" font-family="Helvetica,sans-Serif" font-size="10.00">+ incoming</text>
<text text-anchor="start" x="168" y="-330.5" font-family="Helvetica,sans-Serif" font-size="10.00">+ outgoing</text>
<polyline fill="none" stroke="black" points="160,-323.5 261,-323.5 "/>
<text text-anchor="start" x="168" y="-311.5" font-family="Helvetica,sans-Serif" font-size="10.00">+ FlowNode()</text>
</a>
</g>
</g>
<!-- Node2&#45;&gt;Node1 -->
<g id="edge1" class="edge">
<title>Node2&#45;&gt;Node1</title>
<path fill="none" stroke="midnightblue" d="M210.5,-294.08C210.5,-285.23 210.5,-276.23 210.5,-267.86"/>
<polygon fill="none" stroke="midnightblue" points="207,-294.34 210.5,-304.34 214,-294.34 207,-294.34"/>
</g>
<!-- Node3 -->
<g id="node3" class="node">
<title>Node3</title>
<g id="a_node3"><a xlink:href="classBPMN_1_1ChildNode.html" target="_top" xlink:title="Base class for BPMN elements within a Scope.">
<polygon fill="none" stroke="black" points="159.5,-431.5 159.5,-488.5 261.5,-488.5 261.5,-431.5 159.5,-431.5"/>
<text text-anchor="middle" x="210.5" y="-476.5" font-family="Helvetica,sans-Serif" font-size="10.00">BPMN::ChildNode</text>
<polyline fill="none" stroke="black" points="159.5,-469.5 261.5,-469.5 "/>
<text text-anchor="start" x="167.5" y="-457.5" font-family="Helvetica,sans-Serif" font-size="10.00">+ parent</text>
<polyline fill="none" stroke="black" points="159.5,-450.5 261.5,-450.5 "/>
<text text-anchor="start" x="167.5" y="-438.5" font-family="Helvetica,sans-Serif" font-size="10.00">+ ChildNode()</text>
</a>
</g>
</g>
<!-- Node3&#45;&gt;Node2 -->
<g id="edge2" class="edge">
<title>Node3&#45;&gt;Node2</title>
<path fill="none" stroke="midnightblue" d="M210.5,-421.21C210.5,-412.61 210.5,-403.39 210.5,-394.55"/>
<polygon fill="none" stroke="midnightblue" points="207,-421.34 210.5,-431.34 214,-421.34 207,-421.34"/>
</g>
<!-- Node4 -->
<g id="node4" class="node">
<title>Node4</title>
<g id="a_node4"><a xlink:href="classBPMN_1_1Node.html" target="_top" xlink:title="Base class for all elements in a BPMN model.">
<polygon fill="none" stroke="black" points="149.5,-525.5 149.5,-769.5 271.5,-769.5 271.5,-525.5 149.5,-525.5"/>
<text text-anchor="middle" x="210.5" y="-757.5" font-family="Helvetica,sans-Serif" font-size="10.00">BPMN::Node</text>
<polyline fill="none" stroke="black" points="149.5,-750.5 271.5,-750.5 "/>
<text text-anchor="start" x="157.5" y="-738.5" font-family="Helvetica,sans-Serif" font-size="10.00">+ id</text>
<text text-anchor="start" x="157.5" y="-727.5" font-family="Helvetica,sans-Serif" font-size="10.00">+ receiving</text>
<text text-anchor="start" x="157.5" y="-716.5" font-family="Helvetica,sans-Serif" font-size="10.00">+ sending</text>
<text text-anchor="start" x="157.5" y="-705.5" font-family="Helvetica,sans-Serif" font-size="10.00">+ element</text>
<text text-anchor="start" x="157.5" y="-694.5" font-family="Helvetica,sans-Serif" font-size="10.00">+ extensionElements</text>
<polyline fill="none" stroke="black" points="149.5,-687.5 271.5,-687.5 "/>
<text text-anchor="start" x="157.5" y="-675.5" font-family="Helvetica,sans-Serif" font-size="10.00">+ Node()</text>
<text text-anchor="start" x="157.5" y="-664.5" font-family="Helvetica,sans-Serif" font-size="10.00">+ ~Node()</text>
<text text-anchor="start" x="157.5" y="-653.5" font-family="Helvetica,sans-Serif" font-size="10.00">+ is()</text>
<text text-anchor="start" x="157.5" y="-642.5" font-family="Helvetica,sans-Serif" font-size="10.00">+ is()</text>
<text text-anchor="start" x="157.5" y="-631.5" font-family="Helvetica,sans-Serif" font-size="10.00">+ get()</text>
<text text-anchor="start" x="157.5" y="-620.5" font-family="Helvetica,sans-Serif" font-size="10.00">+ get()</text>
<text text-anchor="start" x="157.5" y="-609.5" font-family="Helvetica,sans-Serif" font-size="10.00">+ represents()</text>
<text text-anchor="start" x="157.5" y="-598.5" font-family="Helvetica,sans-Serif" font-size="10.00">+ represents()</text>
<text text-anchor="start" x="157.5" y="-587.5" font-family="Helvetica,sans-Serif" font-size="10.00">+ as()</text>
<text text-anchor="start" x="157.5" y="-576.5" font-family="Helvetica,sans-Serif" font-size="10.00">+ as()</text>
<text text-anchor="start" x="157.5" y="-565.5" font-family="Helvetica,sans-Serif" font-size="10.00">+ find()</text>
<text text-anchor="start" x="157.5" y="-554.5" font-family="Helvetica,sans-Serif" font-size="10.00">+ find()</text>
<text text-anchor="start" x="157.5" y="-543.5" font-family="Helvetica,sans-Serif" font-size="10.00">+ find_all()</text>
<text text-anchor="start" x="157.5" y="-532.5" font-family="Helvetica,sans-Serif" font-size="10.00">+ find_all()</text>
</a>
</g>
</g>
<!-- Node4&#45;&gt;Node3 -->
<g id="edge3" class="edge">
<title>Node4&#45;&gt;Node3</title>
<path fill="none" stroke="midnightblue" d="M210.5,-515.34C210.5,-505.53 210.5,-496.42 210.5,-488.57"/>
<polygon fill="none" stroke="midnightblue" points="207,-515.36 210.5,-525.36 214,-515.36 207,-515.36"/>
</g>
<!-- Node7 -->
<g id="node7" class="node">
<title>Node7</title>
<g id="a_node7"><a xlink:href="classBPMN_1_1AdHocSubProcess.html" target="_top" xlink:title=" ">
<polygon fill="none" stroke="black" points="0,-0.5 0,-57.5 139,-57.5 139,-0.5 0,-0.5"/>
<text text-anchor="middle" x="69.5" y="-45.5" font-family="Helvetica,sans-Serif" font-size="10.00">BPMN::AdHocSubProcess</text>
<polyline fill="none" stroke="black" points="0,-38.5 139,-38.5 "/>
<text text-anchor="start" x="8" y="-26.5" font-family="Helvetica,sans-Serif" font-size="10.00">+ element</text>
<polyline fill="none" stroke="black" points="0,-19.5 139,-19.5 "/>
<text text-anchor="start" x="8" y="-7.5" font-family="Helvetica,sans-Serif" font-size="10.00">+ AdHocSubProcess()</text>
</a>
</g>
</g>
<!-- Node6&#45;&gt;Node7 -->
<g id="edge6" class="edge">
<title>Node6&#45;&gt;Node7</title>
<path fill="none" stroke="midnightblue" d="M159.64,-88.82C143.94,-78.57 126.83,-67.41 111.77,-57.58"/>
<polygon fill="none" stroke="midnightblue" points="157.91,-91.86 168.2,-94.4 161.73,-86 157.91,-91.86"/>
</g>
<!-- Node8 -->
<g id="node8" class="node">
<title>Node8</title>
<g id="a_node8"><a xlink:href="classBPMN_1_1Transaction.html" target="_top" xlink:title=" ">
<polygon fill="none" stroke="black" points="157,-0.5 157,-57.5 264,-57.5 264,-0.5 157,-0.5"/>
<text text-anchor="middle" x="210.5" y="-45.5" font-family="Helvetica,sans-Serif" font-size="10.00">BPMN::Transaction</text>
<polyline fill="none" stroke="black" points="157,-38.5 264,-38.5 "/>
<text text-anchor="start" x="165" y="-26.5" font-family="Helvetica,sans-Serif" font-size="10.00">+ element</text>
<polyline fill="none" stroke="black" points="157,-19.5 264,-19.5 "/>
<text text-anchor="start" x="165" y="-7.5" font-family="Helvetica,sans-Serif" font-size="10.00">+ Transaction()</text>
</a>
</g>
</g>
<!-- Node6&#45;&gt;Node8 -->
<g id="edge7" class="edge">
<title>Node6&#45;&gt;Node8</title>
<path fill="none" stroke="midnightblue" d="M210.5,-84.21C210.5,-75.29 210.5,-65.95 210.5,-57.58"/>
<polygon fill="none" stroke="midnightblue" points="207,-84.4 210.5,-94.4 214,-84.4 207,-84.4"/>
</g>
<!-- Node10 -->
<g id="node10" class="node">
<title>Node10</title>
<g id="a_node10"><a xlink:href="classBPMN_1_1BusinessRuleTask.html" target="_top" xlink:title=" ">
<polygon fill="none" stroke="black" points="282,-0.5 282,-57.5 421,-57.5 421,-0.5 282,-0.5"/>
<text text-anchor="middle" x="351.5" y="-45.5" font-family="Helvetica,sans-Serif" font-size="10.00">BPMN::BusinessRuleTask</text>
<polyline fill="none" stroke="black" points="282,-38.5 421,-38.5 "/>
<text text-anchor="start" x="290" y="-26.5" font-family="Helvetica,sans-Serif" font-size="10.00">+ element</text>
<polyline fill="none" stroke="black" points="282,-19.5 421,-19.5 "/>
<text text-anchor="start" x="290" y="-7.5" font-family="Helvetica,sans-Serif" font-size="10.00">+ BusinessRuleTask()</text>
</a>
</g>
</g>
<!-- Node9&#45;&gt;Node10 -->
<g id="edge9" class="edge">
<title>Node9&#45;&gt;Node10</title>
<path fill="none" stroke="midnightblue" d="M639.45,-111.66C587.82,-99.98 502.67,-79.76 430.5,-58 427.43,-57.08 424.31,-56.1 421.17,-55.1"/>
<polygon fill="none" stroke="midnightblue" points="638.79,-115.1 649.31,-113.88 640.33,-108.27 638.79,-115.1"/>
</g>
<!-- Node11 -->
<g id="node11" class="node">
<title>Node11</title>
<g id="a_node11"><a xlink:href="classBPMN_1_1ManualTask.html" target="_top" xlink:title=" ">
<polygon fill="none" stroke="black" points="439.5,-0.5 439.5,-57.5 549.5,-57.5 549.5,-0.5 439.5,-0.5"/>
<text text-anchor="middle" x="494.5" y="-45.5" font-family="Helvetica,sans-Serif" font-size="10.00">BPMN::ManualTask</text>
<polyline fill="none" stroke="black" points="439.5,-38.5 549.5,-38.5 "/>
<text text-anchor="start" x="447.5" y="-26.5" font-family="Helvetica,sans-Serif" font-size="10.00">+ element</text>
<polyline fill="none" stroke="black" points="439.5,-19.5 549.5,-19.5 "/>
<text text-anchor="start" x="447.5" y="-7.5" font-family="Helvetica,sans-Serif" font-size="10.00">+ ManualTask()</text>
</a>
</g>
</g>
<!-- Node9&#45;&gt;Node11 -->
<g id="edge10" class="edge">
<title>Node9&#45;&gt;Node11</title>
<path fill="none" stroke="midnightblue" d="M640.16,-99.8C612.89,-86.73 578.25,-70.13 549.58,-56.39"/>
<polygon fill="none" stroke="midnightblue" points="638.95,-103.1 649.48,-104.26 641.97,-96.78 638.95,-103.1"/>
</g>
<!-- Node12 -->
<g id="node12" class="node">
<title>Node12</title>
<g id="a_node12"><a xlink:href="classBPMN_1_1ReceiveTask.html" target="_top" xlink:title=" ">
<polygon fill="none" stroke="black" points="568,-0.5 568,-57.5 681,-57.5 681,-0.5 568,-0.5"/>
<text text-anchor="middle" x="624.5" y="-45.5" font-family="Helvetica,sans-Serif" font-size="10.00">BPMN::ReceiveTask</text>
<polyline fill="none" stroke="black" points="568,-38.5 681,-38.5 "/>
<text text-anchor="start" x="576" y="-26.5" font-family="Helvetica,sans-Serif" font-size="10.00">+ element</text>
<polyline fill="none" stroke="black" points="568,-19.5 681,-19.5 "/>
<text text-anchor="start" x="576" y="-7.5" font-family="Helvetica,sans-Serif" font-size="10.00">+ ReceiveTask()</text>
</a>
</g>
</g>
<!-- Node9&#45;&gt;Node12 -->
<g id="edge11" class="edge">
<title>Node9&#45;&gt;Node12</title>
<path fill="none" stroke="midnightblue" d="M662.2,-85.95C655.85,-76.52 649.1,-66.5 643.09,-57.58"/>
<polygon fill="none" stroke="midnightblue" points="659.41,-88.06 667.9,-94.4 665.21,-84.15 659.41,-88.06"/>
</g>
<!-- Node13 -->
<g id="node13" class="node">
<title>Node13</title>
<g id="a_node13"><a xlink:href="classBPMN_1_1ScriptTask.html" target="_top" xlink:title=" ">
<polygon fill="none" stroke="black" points="699,-0.5 699,-57.5 800,-57.5 800,-0.5 699,-0.5"/>
<text text-anchor="middle" x="749.5" y="-45.5" font-family="Helvetica,sans-Serif" font-size="10.00">BPMN::ScriptTask</text>
<polyline fill="none" stroke="black" points="699,-38.5 800,-38.5 "/>
<text text-anchor="start" x="707" y="-26.5" font-family="Helvetica,sans-Serif" font-size="10.00">+ element</text>
<polyline fill="none" stroke="black" points="699,-19.5 800,-19.5 "/>
<text text-anchor="start" x="707" y="-7.5" font-family="Helvetica,sans-Serif" font-size="10.00">+ ScriptTask()</text>
</a>
</g>
</g>
<!-- Node9&#45;&gt;Node13 -->
<g id="edge12" class="edge">
<title>Node9&#45;&gt;Node13</title>
<path fill="none" stroke="midnightblue" d="M711.19,-85.95C717.65,-76.52 724.51,-66.5 730.61,-57.58"/>
<polygon fill="none" stroke="midnightblue" points="708.16,-84.17 705.4,-94.4 713.94,-88.12 708.16,-84.17"/>
</g>
<!-- Node14 -->
<g id="node14" class="node">
<title>Node14</title>
<g id="a_node14"><a xlink:href="classBPMN_1_1SendTask.html" target="_top" xlink:title=" ">
<polygon fill="none" stroke="black" points="818.5,-0.5 818.5,-57.5 916.5,-57.5 916.5,-0.5 818.5,-0.5"/>
<text text-anchor="middle" x="867.5" y="-45.5" font-family="Helvetica,sans-Serif" font-size="10.00">BPMN::SendTask</text>
<polyline fill="none" stroke="black" points="818.5,-38.5 916.5,-38.5 "/>
<text text-anchor="start" x="826.5" y="-26.5" font-family="Helvetica,sans-Serif" font-size="10.00">+ element</text>
<polyline fill="none" stroke="black" points="818.5,-19.5 916.5,-19.5 "/>
<text text-anchor="start" x="826.5" y="-7.5" font-family="Helvetica,sans-Serif" font-size="10.00">+ SendTask()</text>
</a>
</g>
</g>
<!-- Node9&#45;&gt;Node14 -->
<g id="edge13" class="edge">
<title>Node9&#45;&gt;Node14</title>
<path fill="none" stroke="midnightblue" d="M732.56,-98.59C758.82,-85.24 791.72,-68.52 818.46,-54.93"/>
<polygon fill="none" stroke="midnightblue" points="730.89,-95.51 723.56,-103.16 734.07,-101.75 730.89,-95.51"/>
</g>
<!-- Node15 -->
<g id="node15" class="node">
<title>Node15</title>
<g id="a_node15"><a xlink:href="classBPMN_1_1UntypedTask.html" target="_top" xlink:title=" ">
<polygon fill="none" stroke="black" points="935,-0.5 935,-57.5 1050,-57.5 1050,-0.5 935,-0.5"/>
<text text-anchor="middle" x="992.5" y="-45.5" font-family="Helvetica,sans-Serif" font-size="10.00">BPMN::UntypedTask</text>
<polyline fill="none" stroke="black" points="935,-38.5 1050,-38.5 "/>
<text text-anchor="middle" x="992.5" y="-26.5" font-family="Helvetica,sans-Serif" font-size="10.00"> </text>
<polyline fill="none" stroke="black" points="935,-19.5 1050,-19.5 "/>
<text text-anchor="start" x="943" y="-7.5" font-family="Helvetica,sans-Serif" font-size="10.00">+ UntypedTask()</text>
</a>
</g>
</g>
<!-- Node9&#45;&gt;Node15 -->
<g id="edge14" class="edge">
<title>Node9&#45;&gt;Node15</title>
<path fill="none" stroke="midnightblue" d="M733.73,-111.33C782.35,-99.9 860.03,-80.33 925.5,-58 928.6,-56.94 931.77,-55.81 934.95,-54.63"/>
<polygon fill="none" stroke="midnightblue" points="732.75,-107.97 723.81,-113.65 734.34,-114.79 732.75,-107.97"/>
</g>
<!-- Node16 -->
<g id="node16" class="node">
<title>Node16</title>
<g id="a_node16"><a xlink:href="classBPMN_1_1UserTask.html" target="_top" xlink:title=" ">
<polygon fill="none" stroke="black" points="1068.5,-0.5 1068.5,-57.5 1164.5,-57.5 1164.5,-0.5 1068.5,-0.5"/>
<text text-anchor="middle" x="1116.5" y="-45.5" font-family="Helvetica,sans-Serif" font-size="10.00">BPMN::UserTask</text>
<polyline fill="none" stroke="black" points="1068.5,-38.5 1164.5,-38.5 "/>
<text text-anchor="start" x="1076.5" y="-26.5" font-family="Helvetica,sans-Serif" font-size="10.00">+ element</text>
<polyline fill="none" stroke="black" points="1068.5,-19.5 1164.5,-19.5 "/>
<text text-anchor="start" x="1076.5" y="-7.5" font-family="Helvetica,sans-Serif" font-size="10.00">+ UserTask()</text>
</a>
</g>
</g>
<!-- Node9&#45;&gt;Node16 -->
<g id="edge15" class="edge">
<title>Node9&#45;&gt;Node16</title>
<path fill="none" stroke="midnightblue" d="M733.69,-118.27C805.5,-111.62 945.86,-94.81 1059.5,-58 1062.44,-57.05 1065.41,-55.97 1068.39,-54.8"/>
<polygon fill="none" stroke="midnightblue" points="733.25,-114.79 723.61,-119.17 733.88,-121.76 733.25,-114.79"/>
</g>
</g>
</svg>
