<?xml version="1.0" encoding="UTF-8" standalone="no"?>
<!DOCTYPE svg PUBLIC "-//W3C//DTD SVG 1.1//EN"
 "http://www.w3.org/Graphics/SVG/1.1/DTD/svg11.dtd">
<!-- Generated by graphviz version 2.43.0 (0)
 -->
<!-- Title: BPMN::SubProcess Pages: 1 -->
<svg width="318pt" height="855pt"
 viewBox="0.00 0.00 317.50 855.00" xmlns="http://www.w3.org/2000/svg" xmlns:xlink="http://www.w3.org/1999/xlink">
<g id="graph0" class="graph" transform="scale(1 1) rotate(0) translate(4 851)">
<title>BPMN::SubProcess</title>
<!-- Node1 -->
<g id="node1" class="node">
<title>Node1</title>
<g id="a_node1"><a xlink:title=" ">
<polygon fill="#bfbfbf" stroke="black" points="86,-94.5 86,-162.5 193,-162.5 193,-94.5 86,-94.5"/>
<text text-anchor="middle" x="139.5" y="-150.5" font-family="Helvetica,sans-Serif" font-size="10.00">BPMN::SubProcess</text>
<polyline fill="none" stroke="black" points="86,-143.5 193,-143.5 "/>
<text text-anchor="start" x="94" y="-131.5" font-family="Helvetica,sans-Serif" font-size="10.00">+ startEvent</text>
<text text-anchor="start" x="94" y="-120.5" font-family="Helvetica,sans-Serif" font-size="10.00">+ element</text>
<polyline fill="none" stroke="black" points="86,-113.5 193,-113.5 "/>
<text text-anchor="start" x="94" y="-101.5" font-family="Helvetica,sans-Serif" font-size="10.00">+ SubProcess()</text>
</a>
</g>
</g>
<!-- Node7 -->
<g id="node7" class="node">
<title>Node7</title>
<g id="a_node7"><a xlink:href="classBPMN_1_1AdHocSubProcess.html" target="_top" xlink:title=" ">
<polygon fill="none" stroke="black" points="0,-0.5 0,-57.5 139,-57.5 139,-0.5 0,-0.5"/>
<text text-anchor="middle" x="69.5" y="-45.5" font-family="Helvetica,sans-Serif" font-size="10.00">BPMN::AdHocSubProcess</text>
<polyline fill="none" stroke="black" points="0,-38.5 139,-38.5 "/>
<text text-anchor="start" x="8" y="-26.5" font-family="Helvetica,sans-Serif" font-size="10.00">+ element</text>
<polyline fill="none" stroke="black" points="0,-19.5 139,-19.5 "/>
<text text-anchor="start" x="8" y="-7.5" font-family="Helvetica,sans-Serif" font-size="10.00">+ AdHocSubProcess()</text>
</a>
</g>
</g>
<!-- Node1&#45;&gt;Node7 -->
<g id="edge7" class="edge">
<title>Node1&#45;&gt;Node7</title>
<path fill="none" stroke="midnightblue" d="M109.85,-86.2C102.96,-76.61 95.79,-66.62 89.44,-57.78"/>
<polygon fill="none" stroke="midnightblue" points="107.13,-88.41 115.8,-94.49 112.81,-84.33 107.13,-88.41"/>
</g>
<!-- Node8 -->
<g id="node8" class="node">
<title>Node8</title>
<g id="a_node8"><a xlink:href="classBPMN_1_1Transaction.html" target="_top" xlink:title=" ">
<polygon fill="none" stroke="black" points="157,-0.5 157,-57.5 264,-57.5 264,-0.5 157,-0.5"/>
<text text-anchor="middle" x="210.5" y="-45.5" font-family="Helvetica,sans-Serif" font-size="10.00">BPMN::Transaction</text>
<polyline fill="none" stroke="black" points="157,-38.5 264,-38.5 "/>
<text text-anchor="start" x="165" y="-26.5" font-family="Helvetica,sans-Serif" font-size="10.00">+ element</text>
<polyline fill="none" stroke="black" points="157,-19.5 264,-19.5 "/>
<text text-anchor="start" x="165" y="-7.5" font-family="Helvetica,sans-Serif" font-size="10.00">+ Transaction()</text>
</a>
</g>
</g>
<!-- Node1&#45;&gt;Node8 -->
<g id="edge8" class="edge">
<title>Node1&#45;&gt;Node8</title>
<path fill="none" stroke="midnightblue" d="M169.57,-86.2C176.56,-76.61 183.83,-66.62 190.27,-57.78"/>
<polygon fill="none" stroke="midnightblue" points="166.59,-84.35 163.54,-94.49 172.25,-88.47 166.59,-84.35"/>
</g>
<!-- Node2 -->
<g id="node2" class="node">
<title>Node2</title>
<g id="a_node2"><a xlink:href="classBPMN_1_1Activity.html" target="_top" xlink:title=" ">
<polygon fill="none" stroke="black" points="34.5,-199.5 34.5,-289.5 156.5,-289.5 156.5,-199.5 34.5,-199.5"/>
<text text-anchor="middle" x="95.5" y="-277.5" font-family="Helvetica,sans-Serif" font-size="10.00">BPMN::Activity</text>
<polyline fill="none" stroke="black" points="34.5,-270.5 156.5,-270.5 "/>
<text text-anchor="start" x="42.5" y="-258.5" font-family="Helvetica,sans-Serif" font-size="10.00">+ boundaryEvents</text>
<text text-anchor="start" x="42.5" y="-247.5" font-family="Helvetica,sans-Serif" font-size="10.00">+ compensatedBy</text>
<text text-anchor="start" x="42.5" y="-236.5" font-family="Helvetica,sans-Serif" font-size="10.00">+ isForCompensation</text>
<text text-anchor="start" x="42.5" y="-225.5" font-family="Helvetica,sans-Serif" font-size="10.00">+ element</text>
<polyline fill="none" stroke="black" points="34.5,-218.5 156.5,-218.5 "/>
<text text-anchor="start" x="42.5" y="-206.5" font-family="Helvetica,sans-Serif" font-size="10.00">+ Activity()</text>
</a>
</g>
</g>
<!-- Node2&#45;&gt;Node1 -->
<g id="edge1" class="edge">
<title>Node2&#45;&gt;Node1</title>
<path fill="none" stroke="midnightblue" d="M116.19,-189.9C119.75,-180.68 123.35,-171.34 126.63,-162.85"/>
<polygon fill="none" stroke="midnightblue" points="112.85,-188.84 112.51,-199.42 119.38,-191.36 112.85,-188.84"/>
</g>
<!-- Node3 -->
<g id="node3" class="node">
<title>Node3</title>
<g id="a_node3"><a xlink:href="classBPMN_1_1FlowNode.html" target="_top" xlink:title="Base class for BPMN elements that may contain incoming and outgoing sequence flows.">
<polygon fill="none" stroke="black" points="10,-354 10,-444 111,-444 111,-354 10,-354"/>
<text text-anchor="middle" x="60.5" y="-432" font-family="Helvetica,sans-Serif" font-size="10.00">BPMN::FlowNode</text>
<polyline fill="none" stroke="black" points="10,-425 111,-425 "/>
<text text-anchor="start" x="18" y="-413" font-family="Helvetica,sans-Serif" font-size="10.00">+ element</text>
<text text-anchor="start" x="18" y="-402" font-family="Helvetica,sans-Serif" font-size="10.00">+ name</text>
<text text-anchor="start" x="18" y="-391" font-family="Helvetica,sans-Serif" font-size="10.00">+ incoming</text>
<text text-anchor="start" x="18" y="-380" font-family="Helvetica,sans-Serif" font-size="10.00">+ outgoing</text>
<polyline fill="none" stroke="black" points="10,-373 111,-373 "/>
<text text-anchor="start" x="18" y="-361" font-family="Helvetica,sans-Serif" font-size="10.00">+ FlowNode()</text>
</a>
</g>
</g>
<!-- Node3&#45;&gt;Node2 -->
<g id="edge2" class="edge">
<title>Node3&#45;&gt;Node2</title>
<path fill="none" stroke="midnightblue" d="M72.97,-343.67C77.05,-325.91 81.52,-306.41 85.4,-289.51"/>
<polygon fill="none" stroke="midnightblue" points="69.45,-343.36 70.62,-353.89 76.27,-344.93 69.45,-343.36"/>
</g>
<!-- Node4 -->
<g id="node4" class="node">
<title>Node4</title>
<g id="a_node4"><a xlink:href="classBPMN_1_1ChildNode.html" target="_top" xlink:title="Base class for BPMN elements within a Scope.">
<polygon fill="none" stroke="black" points="49.5,-508.5 49.5,-565.5 151.5,-565.5 151.5,-508.5 49.5,-508.5"/>
<text text-anchor="middle" x="100.5" y="-553.5" font-family="Helvetica,sans-Serif" font-size="10.00">BPMN::ChildNode</text>
<polyline fill="none" stroke="black" points="49.5,-546.5 151.5,-546.5 "/>
<text text-anchor="start" x="57.5" y="-534.5" font-family="Helvetica,sans-Serif" font-size="10.00">+ parent</text>
<polyline fill="none" stroke="black" points="49.5,-527.5 151.5,-527.5 "/>
<text text-anchor="start" x="57.5" y="-515.5" font-family="Helvetica,sans-Serif" font-size="10.00">+ ChildNode()</text>
</a>
</g>
</g>
<!-- Node4&#45;&gt;Node3 -->
<g id="edge3" class="edge">
<title>Node4&#45;&gt;Node3</title>
<path fill="none" stroke="midnightblue" d="M89.46,-498.45C84.5,-481.61 78.63,-461.63 73.46,-444.08"/>
<polygon fill="none" stroke="midnightblue" points="86.23,-499.87 92.41,-508.48 92.94,-497.9 86.23,-499.87"/>
</g>
<!-- Node5 -->
<g id="node5" class="node">
<title>Node5</title>
<g id="a_node5"><a xlink:href="classBPMN_1_1Node.html" target="_top" xlink:title="Base class for all elements in a BPMN model.">
<polygon fill="none" stroke="black" points="78.5,-602.5 78.5,-846.5 200.5,-846.5 200.5,-602.5 78.5,-602.5"/>
<text text-anchor="middle" x="139.5" y="-834.5" font-family="Helvetica,sans-Serif" font-size="10.00">BPMN::Node</text>
<polyline fill="none" stroke="black" points="78.5,-827.5 200.5,-827.5 "/>
<text text-anchor="start" x="86.5" y="-815.5" font-family="Helvetica,sans-Serif" font-size="10.00">+ id</text>
<text text-anchor="start" x="86.5" y="-804.5" font-family="Helvetica,sans-Serif" font-size="10.00">+ receiving</text>
<text text-anchor="start" x="86.5" y="-793.5" font-family="Helvetica,sans-Serif" font-size="10.00">+ sending</text>
<text text-anchor="start" x="86.5" y="-782.5" font-family="Helvetica,sans-Serif" font-size="10.00">+ element</text>
<text text-anchor="start" x="86.5" y="-771.5" font-family="Helvetica,sans-Serif" font-size="10.00">+ extensionElements</text>
<polyline fill="none" stroke="black" points="78.5,-764.5 200.5,-764.5 "/>
<text text-anchor="start" x="86.5" y="-752.5" font-family="Helvetica,sans-Serif" font-size="10.00">+ Node()</text>
<text text-anchor="start" x="86.5" y="-741.5" font-family="Helvetica,sans-Serif" font-size="10.00">+ ~Node()</text>
<text text-anchor="start" x="86.5" y="-730.5" font-family="Helvetica,sans-Serif" font-size="10.00">+ is()</text>
<text text-anchor="start" x="86.5" y="-719.5" font-family="Helvetica,sans-Serif" font-size="10.00">+ is()</text>
<text text-anchor="start" x="86.5" y="-708.5" font-family="Helvetica,sans-Serif" font-size="10.00">+ get()</text>
<text text-anchor="start" x="86.5" y="-697.5" font-family="Helvetica,sans-Serif" font-size="10.00">+ get()</text>
<text text-anchor="start" x="86.5" y="-686.5" font-family="Helvetica,sans-Serif" font-size="10.00">+ represents()</text>
<text text-anchor="start" x="86.5" y="-675.5" font-family="Helvetica,sans-Serif" font-size="10.00">+ represents()</text>
<text text-anchor="start" x="86.5" y="-664.5" font-family="Helvetica,sans-Serif" font-size="10.00">+ as()</text>
<text text-anchor="start" x="86.5" y="-653.5" font-family="Helvetica,sans-Serif" font-size="10.00">+ as()</text>
<text text-anchor="start" x="86.5" y="-642.5" font-family="Helvetica,sans-Serif" font-size="10.00">+ find()</text>
<text text-anchor="start" x="86.5" y="-631.5" font-family="Helvetica,sans-Serif" font-size="10.00">+ find()</text>
<text text-anchor="start" x="86.5" y="-620.5" font-family="Helvetica,sans-Serif" font-size="10.00">+ find_all()</text>
<text text-anchor="start" x="86.5" y="-609.5" font-family="Helvetica,sans-Serif" font-size="10.00">+ find_all()</text>
</a>
</g>
</g>
<!-- Node5&#45;&gt;Node4 -->
<g id="edge4" class="edge">
<title>Node5&#45;&gt;Node4</title>
<path fill="none" stroke="midnightblue" d="M111.92,-592.34C109.86,-582.53 107.95,-573.42 106.3,-565.57"/>
<polygon fill="none" stroke="midnightblue" points="108.55,-593.29 114.03,-602.36 115.4,-591.85 108.55,-593.29"/>
</g>
<!-- Node6 -->
<g id="node6" class="node">
<title>Node6</title>
<g id="a_node6"><a xlink:href="classBPMN_1_1Scope.html" target="_top" xlink:title="Base class for BPMN elements that may contain a ChildNode elements.">
<polygon fill="none" stroke="black" points="129.5,-326.5 129.5,-471.5 309.5,-471.5 309.5,-326.5 129.5,-326.5"/>
<text text-anchor="middle" x="219.5" y="-459.5" font-family="Helvetica,sans-Serif" font-size="10.00">BPMN::Scope</text>
<polyline fill="none" stroke="black" points="129.5,-452.5 309.5,-452.5 "/>
<text text-anchor="start" x="137.5" y="-440.5" font-family="Helvetica,sans-Serif" font-size="10.00">+ childNodes</text>
<text text-anchor="start" x="137.5" y="-429.5" font-family="Helvetica,sans-Serif" font-size="10.00">+ flowNodes</text>
<text text-anchor="start" x="137.5" y="-418.5" font-family="Helvetica,sans-Serif" font-size="10.00">+ eventSubProcesses</text>
<text text-anchor="start" x="137.5" y="-407.5" font-family="Helvetica,sans-Serif" font-size="10.00">+ startEvents</text>
<text text-anchor="start" x="137.5" y="-396.5" font-family="Helvetica,sans-Serif" font-size="10.00">+ sequenceFlows</text>
<text text-anchor="start" x="137.5" y="-385.5" font-family="Helvetica,sans-Serif" font-size="10.00">+ compensationActivities</text>
<text text-anchor="start" x="137.5" y="-374.5" font-family="Helvetica,sans-Serif" font-size="10.00">+ compensationEventSubProcess</text>
<polyline fill="none" stroke="black" points="129.5,-367.5 309.5,-367.5 "/>
<text text-anchor="start" x="137.5" y="-355.5" font-family="Helvetica,sans-Serif" font-size="10.00">+ Scope()</text>
<text text-anchor="start" x="137.5" y="-344.5" font-family="Helvetica,sans-Serif" font-size="10.00"># add()</text>
<text text-anchor="start" x="137.5" y="-333.5" font-family="Helvetica,sans-Serif" font-size="10.00"># add()</text>
</a>
</g>
</g>
<!-- Node5&#45;&gt;Node6 -->
<g id="edge6" class="edge">
<title>Node5&#45;&gt;Node6</title>
<path fill="none" stroke="midnightblue" d="M171.95,-592.28C182.13,-551.1 192.99,-507.18 201.76,-471.73"/>
<polygon fill="none" stroke="midnightblue" points="168.52,-591.57 169.52,-602.12 175.32,-593.25 168.52,-591.57"/>
</g>
<!-- Node6&#45;&gt;Node1 -->
<g id="edge5" class="edge">
<title>Node6&#45;&gt;Node1</title>
<path fill="none" stroke="midnightblue" d="M199.12,-316.14C189.65,-280 177.78,-237.16 165.5,-199 161.63,-186.98 156.91,-173.98 152.57,-162.51"/>
<polygon fill="none" stroke="midnightblue" points="195.82,-317.35 201.73,-326.15 202.59,-315.59 195.82,-317.35"/>
</g>
</g>
</svg>
