<?xml version="1.0" encoding="UTF-8" standalone="no"?>
<!DOCTYPE svg PUBLIC "-//W3C//DTD SVG 1.1//EN"
 "http://www.w3.org/Graphics/SVG/1.1/DTD/svg11.dtd">
<!-- Generated by graphviz version 2.43.0 (0)
 -->
<!-- Title: BPMN::CancelEndEvent Pages: 1 -->
<svg width="139pt" height="745pt"
 viewBox="0.00 0.00 139.00 745.00" xmlns="http://www.w3.org/2000/svg" xmlns:xlink="http://www.w3.org/1999/xlink">
<g id="graph0" class="graph" transform="scale(1 1) rotate(0) translate(4 741)">
<title>BPMN::CancelEndEvent</title>
<!-- Node1 -->
<g id="node1" class="node">
<title>Node1</title>
<g id="a_node1"><a xlink:title=" ">
<polygon fill="#bfbfbf" stroke="black" points="0,-0.5 0,-57.5 131,-57.5 131,-0.5 0,-0.5"/>
<text text-anchor="middle" x="65.5" y="-45.5" font-family="Helvetica,sans-Serif" font-size="10.00">BPMN::CancelEndEvent</text>
<polyline fill="none" stroke="black" points="0,-38.5 131,-38.5 "/>
<text text-anchor="start" x="8" y="-26.5" font-family="Helvetica,sans-Serif" font-size="10.00">+ element</text>
<polyline fill="none" stroke="black" points="0,-19.5 131,-19.5 "/>
<text text-anchor="start" x="8" y="-7.5" font-family="Helvetica,sans-Serif" font-size="10.00">+ CancelEndEvent()</text>
</a>
</g>
</g>
<!-- Node2 -->
<g id="node2" class="node">
<title>Node2</title>
<g id="a_node2"><a xlink:href="classBPMN_1_1ThrowEvent.html" target="_top" xlink:title=" ">
<polygon fill="none" stroke="black" points="10.5,-94.5 10.5,-151.5 120.5,-151.5 120.5,-94.5 10.5,-94.5"/>
<text text-anchor="middle" x="65.5" y="-139.5" font-family="Helvetica,sans-Serif" font-size="10.00">BPMN::ThrowEvent</text>
<polyline fill="none" stroke="black" points="10.5,-132.5 120.5,-132.5 "/>
<text text-anchor="start" x="18.5" y="-120.5" font-family="Helvetica,sans-Serif" font-size="10.00">+ element</text>
<polyline fill="none" stroke="black" points="10.5,-113.5 120.5,-113.5 "/>
<text text-anchor="start" x="18.5" y="-101.5" font-family="Helvetica,sans-Serif" font-size="10.00">+ ThrowEvent()</text>
</a>
</g>
</g>
<!-- Node2&#45;&gt;Node1 -->
<g id="edge1" class="edge">
<title>Node2&#45;&gt;Node1</title>
<path fill="none" stroke="midnightblue" d="M65.5,-84.21C65.5,-75.29 65.5,-65.95 65.5,-57.58"/>
<polygon fill="none" stroke="midnightblue" points="62,-84.4 65.5,-94.4 69,-84.4 62,-84.4"/>
</g>
<!-- Node3 -->
<g id="node3" class="node">
<title>Node3</title>
<g id="a_node3"><a xlink:href="classBPMN_1_1Event.html" target="_top" xlink:title=" ">
<polygon fill="none" stroke="black" points="25.5,-188.5 25.5,-245.5 105.5,-245.5 105.5,-188.5 25.5,-188.5"/>
<text text-anchor="middle" x="65.5" y="-233.5" font-family="Helvetica,sans-Serif" font-size="10.00">BPMN::Event</text>
<polyline fill="none" stroke="black" points="25.5,-226.5 105.5,-226.5 "/>
<text text-anchor="start" x="33.5" y="-214.5" font-family="Helvetica,sans-Serif" font-size="10.00">+ element</text>
<polyline fill="none" stroke="black" points="25.5,-207.5 105.5,-207.5 "/>
<text text-anchor="start" x="33.5" y="-195.5" font-family="Helvetica,sans-Serif" font-size="10.00">+ Event()</text>
</a>
</g>
</g>
<!-- Node3&#45;&gt;Node2 -->
<g id="edge2" class="edge">
<title>Node3&#45;&gt;Node2</title>
<path fill="none" stroke="midnightblue" d="M65.5,-178.21C65.5,-169.29 65.5,-159.95 65.5,-151.58"/>
<polygon fill="none" stroke="midnightblue" points="62,-178.4 65.5,-188.4 69,-178.4 62,-178.4"/>
</g>
<!-- Node4 -->
<g id="node4" class="node">
<title>Node4</title>
<g id="a_node4"><a xlink:href="classBPMN_1_1FlowNode.html" target="_top" xlink:title="Represents a flow node in a BPMN process.">
<polygon fill="none" stroke="black" points="15,-282.5 15,-361.5 116,-361.5 116,-282.5 15,-282.5"/>
<text text-anchor="middle" x="65.5" y="-349.5" font-family="Helvetica,sans-Serif" font-size="10.00">BPMN::FlowNode</text>
<polyline fill="none" stroke="black" points="15,-342.5 116,-342.5 "/>
<text text-anchor="start" x="23" y="-330.5" font-family="Helvetica,sans-Serif" font-size="10.00">+ element</text>
<text text-anchor="start" x="23" y="-319.5" font-family="Helvetica,sans-Serif" font-size="10.00">+ incoming</text>
<text text-anchor="start" x="23" y="-308.5" font-family="Helvetica,sans-Serif" font-size="10.00">+ outgoing</text>
<polyline fill="none" stroke="black" points="15,-301.5 116,-301.5 "/>
<text text-anchor="start" x="23" y="-289.5" font-family="Helvetica,sans-Serif" font-size="10.00">+ FlowNode()</text>
</a>
</g>
</g>
<!-- Node4&#45;&gt;Node3 -->
<g id="edge3" class="edge">
<title>Node4&#45;&gt;Node3</title>
<path fill="none" stroke="midnightblue" d="M65.5,-272.16C65.5,-263.04 65.5,-253.81 65.5,-245.61"/>
<polygon fill="none" stroke="midnightblue" points="62,-272.35 65.5,-282.35 69,-272.35 62,-272.35"/>
</g>
<!-- Node5 -->
<g id="node5" class="node">
<title>Node5</title>
<g id="a_node5"><a xlink:href="classBPMN_1_1ChildNode.html" target="_top" xlink:title="Represents a node in a BPMN process that has a parent.">
<polygon fill="none" stroke="black" points="14.5,-398.5 14.5,-455.5 116.5,-455.5 116.5,-398.5 14.5,-398.5"/>
<text text-anchor="middle" x="65.5" y="-443.5" font-family="Helvetica,sans-Serif" font-size="10.00">BPMN::ChildNode</text>
<polyline fill="none" stroke="black" points="14.5,-436.5 116.5,-436.5 "/>
<text text-anchor="start" x="22.5" y="-424.5" font-family="Helvetica,sans-Serif" font-size="10.00">+ parent</text>
<polyline fill="none" stroke="black" points="14.5,-417.5 116.5,-417.5 "/>
<text text-anchor="start" x="22.5" y="-405.5" font-family="Helvetica,sans-Serif" font-size="10.00">+ ChildNode()</text>
</a>
</g>
</g>
<!-- Node5&#45;&gt;Node4 -->
<g id="edge4" class="edge">
<title>Node5&#45;&gt;Node4</title>
<path fill="none" stroke="midnightblue" d="M65.5,-388.16C65.5,-379.47 65.5,-370.23 65.5,-361.52"/>
<polygon fill="none" stroke="midnightblue" points="62,-388.4 65.5,-398.4 69,-388.4 62,-388.4"/>
</g>
<!-- Node6 -->
<g id="node6" class="node">
<title>Node6</title>
<g id="a_node6"><a xlink:href="classBPMN_1_1Node.html" target="_top" xlink:title="Represents a node in a BPMN process.">
<polygon fill="none" stroke="black" points="4.5,-492.5 4.5,-736.5 126.5,-736.5 126.5,-492.5 4.5,-492.5"/>
<text text-anchor="middle" x="65.5" y="-724.5" font-family="Helvetica,sans-Serif" font-size="10.00">BPMN::Node</text>
<polyline fill="none" stroke="black" points="4.5,-717.5 126.5,-717.5 "/>
<text text-anchor="start" x="12.5" y="-705.5" font-family="Helvetica,sans-Serif" font-size="10.00">+ id</text>
<text text-anchor="start" x="12.5" y="-694.5" font-family="Helvetica,sans-Serif" font-size="10.00">+ receiving</text>
<text text-anchor="start" x="12.5" y="-683.5" font-family="Helvetica,sans-Serif" font-size="10.00">+ sending</text>
<text text-anchor="start" x="12.5" y="-672.5" font-family="Helvetica,sans-Serif" font-size="10.00">+ element</text>
<text text-anchor="start" x="12.5" y="-661.5" font-family="Helvetica,sans-Serif" font-size="10.00">+ extensionElements</text>
<polyline fill="none" stroke="black" points="4.5,-654.5 126.5,-654.5 "/>
<text text-anchor="start" x="12.5" y="-642.5" font-family="Helvetica,sans-Serif" font-size="10.00">+ Node()</text>
<text text-anchor="start" x="12.5" y="-631.5" font-family="Helvetica,sans-Serif" font-size="10.00">+ ~Node()</text>
<text text-anchor="start" x="12.5" y="-620.5" font-family="Helvetica,sans-Serif" font-size="10.00">+ is()</text>
<text text-anchor="start" x="12.5" y="-609.5" font-family="Helvetica,sans-Serif" font-size="10.00">+ is()</text>
<text text-anchor="start" x="12.5" y="-598.5" font-family="Helvetica,sans-Serif" font-size="10.00">+ get()</text>
<text text-anchor="start" x="12.5" y="-587.5" font-family="Helvetica,sans-Serif" font-size="10.00">+ get()</text>
<text text-anchor="start" x="12.5" y="-576.5" font-family="Helvetica,sans-Serif" font-size="10.00">+ represents()</text>
<text text-anchor="start" x="12.5" y="-565.5" font-family="Helvetica,sans-Serif" font-size="10.00">+ represents()</text>
<text text-anchor="start" x="12.5" y="-554.5" font-family="Helvetica,sans-Serif" font-size="10.00">+ as()</text>
<text text-anchor="start" x="12.5" y="-543.5" font-family="Helvetica,sans-Serif" font-size="10.00">+ as()</text>
<text text-anchor="start" x="12.5" y="-532.5" font-family="Helvetica,sans-Serif" font-size="10.00">+ find()</text>
<text text-anchor="start" x="12.5" y="-521.5" font-family="Helvetica,sans-Serif" font-size="10.00">+ find()</text>
<text text-anchor="start" x="12.5" y="-510.5" font-family="Helvetica,sans-Serif" font-size="10.00">+ find_all()</text>
<text text-anchor="start" x="12.5" y="-499.5" font-family="Helvetica,sans-Serif" font-size="10.00">+ find_all()</text>
</a>
</g>
</g>
<!-- Node6&#45;&gt;Node5 -->
<g id="edge5" class="edge">
<title>Node6&#45;&gt;Node5</title>
<path fill="none" stroke="midnightblue" d="M65.5,-482.34C65.5,-472.53 65.5,-463.42 65.5,-455.57"/>
<polygon fill="none" stroke="midnightblue" points="62,-482.36 65.5,-492.36 69,-482.36 62,-482.36"/>
</g>
</g>
</svg>
