<?xml version="1.0" encoding="UTF-8" standalone="no"?>
<!DOCTYPE svg PUBLIC "-//W3C//DTD SVG 1.1//EN"
 "http://www.w3.org/Graphics/SVG/1.1/DTD/svg11.dtd">
<!-- Generated by graphviz version 2.43.0 (0)
 -->
<!-- Title: BPMN::Scope Pages: 1 -->
<svg width="445pt" height="634pt"
 viewBox="0.00 0.00 445.00 634.00" xmlns="http://www.w3.org/2000/svg" xmlns:xlink="http://www.w3.org/1999/xlink">
<g id="graph0" class="graph" transform="scale(1 1) rotate(0) translate(4 630)">
<title>BPMN::Scope</title>
<!-- Node1 -->
<g id="node1" class="node">
<title>Node1</title>
<g id="a_node1"><a xlink:title="Base class for BPMN elements that may contain a ChildNode elements.">
<polygon fill="#bfbfbf" stroke="black" points="107.5,-199.5 107.5,-344.5 287.5,-344.5 287.5,-199.5 107.5,-199.5"/>
<text text-anchor="middle" x="197.5" y="-332.5" font-family="Helvetica,sans-Serif" font-size="10.00">BPMN::Scope</text>
<polyline fill="none" stroke="black" points="107.5,-325.5 287.5,-325.5 "/>
<text text-anchor="start" x="115.5" y="-313.5" font-family="Helvetica,sans-Serif" font-size="10.00">+ childNodes</text>
<text text-anchor="start" x="115.5" y="-302.5" font-family="Helvetica,sans-Serif" font-size="10.00">+ flowNodes</text>
<text text-anchor="start" x="115.5" y="-291.5" font-family="Helvetica,sans-Serif" font-size="10.00">+ eventSubProcesses</text>
<text text-anchor="start" x="115.5" y="-280.5" font-family="Helvetica,sans-Serif" font-size="10.00">+ startEvents</text>
<text text-anchor="start" x="115.5" y="-269.5" font-family="Helvetica,sans-Serif" font-size="10.00">+ sequenceFlows</text>
<text text-anchor="start" x="115.5" y="-258.5" font-family="Helvetica,sans-Serif" font-size="10.00">+ compensationActivities</text>
<text text-anchor="start" x="115.5" y="-247.5" font-family="Helvetica,sans-Serif" font-size="10.00">+ compensationEventSubProcess</text>
<polyline fill="none" stroke="black" points="107.5,-240.5 287.5,-240.5 "/>
<text text-anchor="start" x="115.5" y="-228.5" font-family="Helvetica,sans-Serif" font-size="10.00">+ Scope()</text>
<text text-anchor="start" x="115.5" y="-217.5" font-family="Helvetica,sans-Serif" font-size="10.00"># add()</text>
<text text-anchor="start" x="115.5" y="-206.5" font-family="Helvetica,sans-Serif" font-size="10.00"># add()</text>
</a>
</g>
</g>
<!-- Node3 -->
<g id="node3" class="node">
<title>Node3</title>
<g id="a_node3"><a xlink:href="classBPMN_1_1EventSubProcess.html" target="_top" xlink:title=" ">
<polygon fill="none" stroke="black" points="0,-94.5 0,-162.5 135,-162.5 135,-94.5 0,-94.5"/>
<text text-anchor="middle" x="67.5" y="-150.5" font-family="Helvetica,sans-Serif" font-size="10.00">BPMN::EventSubProcess</text>
<polyline fill="none" stroke="black" points="0,-143.5 135,-143.5 "/>
<text text-anchor="start" x="8" y="-131.5" font-family="Helvetica,sans-Serif" font-size="10.00">+ startEvent</text>
<text text-anchor="start" x="8" y="-120.5" font-family="Helvetica,sans-Serif" font-size="10.00">+ element</text>
<polyline fill="none" stroke="black" points="0,-113.5 135,-113.5 "/>
<text text-anchor="start" x="8" y="-101.5" font-family="Helvetica,sans-Serif" font-size="10.00">+ EventSubProcess()</text>
</a>
</g>
</g>
<!-- Node1&#45;&gt;Node3 -->
<g id="edge2" class="edge">
<title>Node1&#45;&gt;Node3</title>
<path fill="none" stroke="midnightblue" d="M124.82,-191.89C115.35,-181.58 106.1,-171.52 97.89,-162.58"/>
<polygon fill="none" stroke="midnightblue" points="122.4,-194.42 131.74,-199.42 127.55,-189.69 122.4,-194.42"/>
</g>
<!-- Node4 -->
<g id="node4" class="node">
<title>Node4</title>
<g id="a_node4"><a xlink:href="classBPMN_1_1Process.html" target="_top" xlink:title=" ">
<polygon fill="none" stroke="black" points="153,-100 153,-157 242,-157 242,-100 153,-100"/>
<text text-anchor="middle" x="197.5" y="-145" font-family="Helvetica,sans-Serif" font-size="10.00">BPMN::Process</text>
<polyline fill="none" stroke="black" points="153,-138 242,-138 "/>
<text text-anchor="start" x="161" y="-126" font-family="Helvetica,sans-Serif" font-size="10.00">+ element</text>
<polyline fill="none" stroke="black" points="153,-119 242,-119 "/>
<text text-anchor="start" x="161" y="-107" font-family="Helvetica,sans-Serif" font-size="10.00">+ Process()</text>
</a>
</g>
</g>
<!-- Node1&#45;&gt;Node4 -->
<g id="edge3" class="edge">
<title>Node1&#45;&gt;Node4</title>
<path fill="none" stroke="midnightblue" d="M197.5,-189.21C197.5,-177.67 197.5,-166.54 197.5,-157.07"/>
<polygon fill="none" stroke="midnightblue" points="194,-189.42 197.5,-199.42 201,-189.42 194,-189.42"/>
</g>
<!-- Node5 -->
<g id="node5" class="node">
<title>Node5</title>
<g id="a_node5"><a xlink:href="classBPMN_1_1SubProcess.html" target="_top" xlink:title=" ">
<polygon fill="none" stroke="black" points="260,-94.5 260,-162.5 367,-162.5 367,-94.5 260,-94.5"/>
<text text-anchor="middle" x="313.5" y="-150.5" font-family="Helvetica,sans-Serif" font-size="10.00">BPMN::SubProcess</text>
<polyline fill="none" stroke="black" points="260,-143.5 367,-143.5 "/>
<text text-anchor="start" x="268" y="-131.5" font-family="Helvetica,sans-Serif" font-size="10.00">+ startEvent</text>
<text text-anchor="start" x="268" y="-120.5" font-family="Helvetica,sans-Serif" font-size="10.00">+ element</text>
<polyline fill="none" stroke="black" points="260,-113.5 367,-113.5 "/>
<text text-anchor="start" x="268" y="-101.5" font-family="Helvetica,sans-Serif" font-size="10.00">+ SubProcess()</text>
</a>
</g>
</g>
<!-- Node1&#45;&gt;Node5 -->
<g id="edge4" class="edge">
<title>Node1&#45;&gt;Node5</title>
<path fill="none" stroke="midnightblue" d="M262.6,-191.59C270.96,-181.39 279.13,-171.43 286.38,-162.58"/>
<polygon fill="none" stroke="midnightblue" points="259.81,-189.47 256.18,-199.42 265.23,-193.91 259.81,-189.47"/>
</g>
<!-- Node2 -->
<g id="node2" class="node">
<title>Node2</title>
<g id="a_node2"><a xlink:href="classBPMN_1_1Node.html" target="_top" xlink:title="Base class for all elements in a BPMN model.">
<polygon fill="none" stroke="black" points="136.5,-381.5 136.5,-625.5 258.5,-625.5 258.5,-381.5 136.5,-381.5"/>
<text text-anchor="middle" x="197.5" y="-613.5" font-family="Helvetica,sans-Serif" font-size="10.00">BPMN::Node</text>
<polyline fill="none" stroke="black" points="136.5,-606.5 258.5,-606.5 "/>
<text text-anchor="start" x="144.5" y="-594.5" font-family="Helvetica,sans-Serif" font-size="10.00">+ id</text>
<text text-anchor="start" x="144.5" y="-583.5" font-family="Helvetica,sans-Serif" font-size="10.00">+ receiving</text>
<text text-anchor="start" x="144.5" y="-572.5" font-family="Helvetica,sans-Serif" font-size="10.00">+ sending</text>
<text text-anchor="start" x="144.5" y="-561.5" font-family="Helvetica,sans-Serif" font-size="10.00">+ element</text>
<text text-anchor="start" x="144.5" y="-550.5" font-family="Helvetica,sans-Serif" font-size="10.00">+ extensionElements</text>
<polyline fill="none" stroke="black" points="136.5,-543.5 258.5,-543.5 "/>
<text text-anchor="start" x="144.5" y="-531.5" font-family="Helvetica,sans-Serif" font-size="10.00">+ Node()</text>
<text text-anchor="start" x="144.5" y="-520.5" font-family="Helvetica,sans-Serif" font-size="10.00">+ ~Node()</text>
<text text-anchor="start" x="144.5" y="-509.5" font-family="Helvetica,sans-Serif" font-size="10.00">+ is()</text>
<text text-anchor="start" x="144.5" y="-498.5" font-family="Helvetica,sans-Serif" font-size="10.00">+ is()</text>
<text text-anchor="start" x="144.5" y="-487.5" font-family="Helvetica,sans-Serif" font-size="10.00">+ get()</text>
<text text-anchor="start" x="144.5" y="-476.5" font-family="Helvetica,sans-Serif" font-size="10.00">+ get()</text>
<text text-anchor="start" x="144.5" y="-465.5" font-family="Helvetica,sans-Serif" font-size="10.00">+ represents()</text>
<text text-anchor="start" x="144.5" y="-454.5" font-family="Helvetica,sans-Serif" font-size="10.00">+ represents()</text>
<text text-anchor="start" x="144.5" y="-443.5" font-family="Helvetica,sans-Serif" font-size="10.00">+ as()</text>
<text text-anchor="start" x="144.5" y="-432.5" font-family="Helvetica,sans-Serif" font-size="10.00">+ as()</text>
<text text-anchor="start" x="144.5" y="-421.5" font-family="Helvetica,sans-Serif" font-size="10.00">+ find()</text>
<text text-anchor="start" x="144.5" y="-410.5" font-family="Helvetica,sans-Serif" font-size="10.00">+ find()</text>
<text text-anchor="start" x="144.5" y="-399.5" font-family="Helvetica,sans-Serif" font-size="10.00">+ find_all()</text>
<text text-anchor="start" x="144.5" y="-388.5" font-family="Helvetica,sans-Serif" font-size="10.00">+ find_all()</text>
</a>
</g>
</g>
<!-- Node2&#45;&gt;Node1 -->
<g id="edge1" class="edge">
<title>Node2&#45;&gt;Node1</title>
<path fill="none" stroke="midnightblue" d="M197.5,-371.15C197.5,-362.14 197.5,-353.27 197.5,-344.77"/>
<polygon fill="none" stroke="midnightblue" points="194,-371.37 197.5,-381.37 201,-371.37 194,-371.37"/>
</g>
<!-- Node6 -->
<g id="node6" class="node">
<title>Node6</title>
<g id="a_node6"><a xlink:href="classBPMN_1_1AdHocSubProcess.html" target="_top" xlink:title=" ">
<polygon fill="none" stroke="black" points="173,-0.5 173,-57.5 312,-57.5 312,-0.5 173,-0.5"/>
<text text-anchor="middle" x="242.5" y="-45.5" font-family="Helvetica,sans-Serif" font-size="10.00">BPMN::AdHocSubProcess</text>
<polyline fill="none" stroke="black" points="173,-38.5 312,-38.5 "/>
<text text-anchor="start" x="181" y="-26.5" font-family="Helvetica,sans-Serif" font-size="10.00">+ element</text>
<polyline fill="none" stroke="black" points="173,-19.5 312,-19.5 "/>
<text text-anchor="start" x="181" y="-7.5" font-family="Helvetica,sans-Serif" font-size="10.00">+ AdHocSubProcess()</text>
</a>
</g>
</g>
<!-- Node5&#45;&gt;Node6 -->
<g id="edge5" class="edge">
<title>Node5&#45;&gt;Node6</title>
<path fill="none" stroke="midnightblue" d="M283.43,-86.2C276.44,-76.61 269.17,-66.62 262.73,-57.78"/>
<polygon fill="none" stroke="midnightblue" points="280.75,-88.47 289.46,-94.49 286.41,-84.35 280.75,-88.47"/>
</g>
<!-- Node7 -->
<g id="node7" class="node">
<title>Node7</title>
<g id="a_node7"><a xlink:href="classBPMN_1_1Transaction.html" target="_top" xlink:title=" ">
<polygon fill="none" stroke="black" points="330,-0.5 330,-57.5 437,-57.5 437,-0.5 330,-0.5"/>
<text text-anchor="middle" x="383.5" y="-45.5" font-family="Helvetica,sans-Serif" font-size="10.00">BPMN::Transaction</text>
<polyline fill="none" stroke="black" points="330,-38.5 437,-38.5 "/>
<text text-anchor="start" x="338" y="-26.5" font-family="Helvetica,sans-Serif" font-size="10.00">+ element</text>
<polyline fill="none" stroke="black" points="330,-19.5 437,-19.5 "/>
<text text-anchor="start" x="338" y="-7.5" font-family="Helvetica,sans-Serif" font-size="10.00">+ Transaction()</text>
</a>
</g>
</g>
<!-- Node5&#45;&gt;Node7 -->
<g id="edge6" class="edge">
<title>Node5&#45;&gt;Node7</title>
<path fill="none" stroke="midnightblue" d="M343.15,-86.2C350.04,-76.61 357.21,-66.62 363.56,-57.78"/>
<polygon fill="none" stroke="midnightblue" points="340.19,-84.33 337.2,-94.49 345.87,-88.41 340.19,-84.33"/>
</g>
</g>
</svg>
