<?xml version="1.0" encoding="UTF-8" standalone="no"?>
<!DOCTYPE svg PUBLIC "-//W3C//DTD SVG 1.1//EN"
 "http://www.w3.org/Graphics/SVG/1.1/DTD/svg11.dtd">
<!-- Generated by graphviz version 2.43.0 (0)
 -->
<!-- Title: BPMN::TypedStartEvent Pages: 1 -->
<svg width="1129pt" height="1016pt"
 viewBox="0.00 0.00 1128.50 1016.00" xmlns="http://www.w3.org/2000/svg" xmlns:xlink="http://www.w3.org/1999/xlink">
<g id="graph0" class="graph" transform="scale(1 1) rotate(0) translate(4 1012)">
<title>BPMN::TypedStartEvent</title>
<!-- Node1 -->
<g id="node1" class="node">
<title>Node1</title>
<g id="a_node1"><a xlink:title="Base class for all start events with an event definition.">
<polygon fill="#bfbfbf" stroke="black" points="513.5,-94.5 513.5,-151.5 644.5,-151.5 644.5,-94.5 513.5,-94.5"/>
<text text-anchor="middle" x="579" y="-139.5" font-family="Helvetica,sans-Serif" font-size="10.00">BPMN::TypedStartEvent</text>
<polyline fill="none" stroke="black" points="513.5,-132.5 644.5,-132.5 "/>
<text text-anchor="start" x="521.5" y="-120.5" font-family="Helvetica,sans-Serif" font-size="10.00">+ isInterrupting</text>
<polyline fill="none" stroke="black" points="513.5,-113.5 644.5,-113.5 "/>
<text text-anchor="start" x="521.5" y="-101.5" font-family="Helvetica,sans-Serif" font-size="10.00">+ TypedStartEvent()</text>
</a>
</g>
</g>
<!-- Node9 -->
<g id="node9" class="node">
<title>Node9</title>
<g id="a_node9"><a xlink:href="classBPMN_1_1CompensateStartEvent.html" target="_top" xlink:title=" ">
<polygon fill="none" stroke="black" points="0,-0.5 0,-57.5 164,-57.5 164,-0.5 0,-0.5"/>
<text text-anchor="middle" x="82" y="-45.5" font-family="Helvetica,sans-Serif" font-size="10.00">BPMN::CompensateStartEvent</text>
<polyline fill="none" stroke="black" points="0,-38.5 164,-38.5 "/>
<text text-anchor="middle" x="82" y="-26.5" font-family="Helvetica,sans-Serif" font-size="10.00"> </text>
<polyline fill="none" stroke="black" points="0,-19.5 164,-19.5 "/>
<text text-anchor="start" x="8" y="-7.5" font-family="Helvetica,sans-Serif" font-size="10.00">+ CompensateStartEvent()</text>
</a>
</g>
</g>
<!-- Node1&#45;&gt;Node9 -->
<g id="edge8" class="edge">
<title>Node1&#45;&gt;Node9</title>
<path fill="none" stroke="midnightblue" d="M503.43,-113.35C421.43,-103.21 286.95,-84.37 173,-58 170.1,-57.33 167.16,-56.61 164.2,-55.86"/>
<polygon fill="none" stroke="midnightblue" points="503.06,-116.83 513.41,-114.57 503.91,-109.88 503.06,-116.83"/>
</g>
<!-- Node10 -->
<g id="node10" class="node">
<title>Node10</title>
<g id="a_node10"><a xlink:href="classBPMN_1_1ConditionalStartEvent.html" target="_top" xlink:title=" ">
<polygon fill="none" stroke="black" points="182,-0.5 182,-57.5 340,-57.5 340,-0.5 182,-0.5"/>
<text text-anchor="middle" x="261" y="-45.5" font-family="Helvetica,sans-Serif" font-size="10.00">BPMN::ConditionalStartEvent</text>
<polyline fill="none" stroke="black" points="182,-38.5 340,-38.5 "/>
<text text-anchor="start" x="190" y="-26.5" font-family="Helvetica,sans-Serif" font-size="10.00">+ element</text>
<polyline fill="none" stroke="black" points="182,-19.5 340,-19.5 "/>
<text text-anchor="start" x="190" y="-7.5" font-family="Helvetica,sans-Serif" font-size="10.00">+ ConditionalStartEvent()</text>
</a>
</g>
</g>
<!-- Node1&#45;&gt;Node10 -->
<g id="edge9" class="edge">
<title>Node1&#45;&gt;Node10</title>
<path fill="none" stroke="midnightblue" d="M503.7,-101.79C458.69,-89.53 400.44,-73.33 349,-58 346.08,-57.13 343.11,-56.23 340.11,-55.32"/>
<polygon fill="none" stroke="midnightblue" points="502.82,-105.18 513.38,-104.43 504.65,-98.43 502.82,-105.18"/>
</g>
<!-- Node11 -->
<g id="node11" class="node">
<title>Node11</title>
<g id="a_node11"><a xlink:href="classBPMN_1_1ErrorStartEvent.html" target="_top" xlink:title=" ">
<polygon fill="none" stroke="black" points="358,-0.5 358,-57.5 484,-57.5 484,-0.5 358,-0.5"/>
<text text-anchor="middle" x="421" y="-45.5" font-family="Helvetica,sans-Serif" font-size="10.00">BPMN::ErrorStartEvent</text>
<polyline fill="none" stroke="black" points="358,-38.5 484,-38.5 "/>
<text text-anchor="middle" x="421" y="-26.5" font-family="Helvetica,sans-Serif" font-size="10.00"> </text>
<polyline fill="none" stroke="black" points="358,-19.5 484,-19.5 "/>
<text text-anchor="start" x="366" y="-7.5" font-family="Helvetica,sans-Serif" font-size="10.00">+ ErrorStartEvent()</text>
</a>
</g>
</g>
<!-- Node1&#45;&gt;Node11 -->
<g id="edge10" class="edge">
<title>Node1&#45;&gt;Node11</title>
<path fill="none" stroke="midnightblue" d="M522.5,-89.1C504.77,-78.78 485.4,-67.5 468.37,-57.58"/>
<polygon fill="none" stroke="midnightblue" points="521.19,-92.39 531.59,-94.4 524.71,-86.34 521.19,-92.39"/>
</g>
<!-- Node12 -->
<g id="node12" class="node">
<title>Node12</title>
<g id="a_node12"><a xlink:href="classBPMN_1_1EscalationStartEvent.html" target="_top" xlink:title=" ">
<polygon fill="none" stroke="black" points="502.5,-0.5 502.5,-57.5 655.5,-57.5 655.5,-0.5 502.5,-0.5"/>
<text text-anchor="middle" x="579" y="-45.5" font-family="Helvetica,sans-Serif" font-size="10.00">BPMN::EscalationStartEvent</text>
<polyline fill="none" stroke="black" points="502.5,-38.5 655.5,-38.5 "/>
<text text-anchor="middle" x="579" y="-26.5" font-family="Helvetica,sans-Serif" font-size="10.00"> </text>
<polyline fill="none" stroke="black" points="502.5,-19.5 655.5,-19.5 "/>
<text text-anchor="start" x="510.5" y="-7.5" font-family="Helvetica,sans-Serif" font-size="10.00">+ EscalationStartEvent()</text>
</a>
</g>
</g>
<!-- Node1&#45;&gt;Node12 -->
<g id="edge11" class="edge">
<title>Node1&#45;&gt;Node12</title>
<path fill="none" stroke="midnightblue" d="M579,-84.21C579,-75.29 579,-65.95 579,-57.58"/>
<polygon fill="none" stroke="midnightblue" points="575.5,-84.4 579,-94.4 582.5,-84.4 575.5,-84.4"/>
</g>
<!-- Node13 -->
<g id="node13" class="node">
<title>Node13</title>
<g id="a_node13"><a xlink:href="classBPMN_1_1MessageStartEvent.html" target="_top" xlink:title=" ">
<polygon fill="none" stroke="black" points="674,-0.5 674,-57.5 820,-57.5 820,-0.5 674,-0.5"/>
<text text-anchor="middle" x="747" y="-45.5" font-family="Helvetica,sans-Serif" font-size="10.00">BPMN::MessageStartEvent</text>
<polyline fill="none" stroke="black" points="674,-38.5 820,-38.5 "/>
<text text-anchor="start" x="682" y="-26.5" font-family="Helvetica,sans-Serif" font-size="10.00">+ element</text>
<polyline fill="none" stroke="black" points="674,-19.5 820,-19.5 "/>
<text text-anchor="start" x="682" y="-7.5" font-family="Helvetica,sans-Serif" font-size="10.00">+ MessageStartEvent()</text>
</a>
</g>
</g>
<!-- Node1&#45;&gt;Node13 -->
<g id="edge12" class="edge">
<title>Node1&#45;&gt;Node13</title>
<path fill="none" stroke="midnightblue" d="M638.3,-89.53C657.36,-79.09 678.28,-67.63 696.63,-57.58"/>
<polygon fill="none" stroke="midnightblue" points="636.5,-86.52 629.41,-94.4 639.86,-92.66 636.5,-86.52"/>
</g>
<!-- Node14 -->
<g id="node14" class="node">
<title>Node14</title>
<g id="a_node14"><a xlink:href="classBPMN_1_1SignalStartEvent.html" target="_top" xlink:title=" ">
<polygon fill="none" stroke="black" points="838.5,-0.5 838.5,-57.5 971.5,-57.5 971.5,-0.5 838.5,-0.5"/>
<text text-anchor="middle" x="905" y="-45.5" font-family="Helvetica,sans-Serif" font-size="10.00">BPMN::SignalStartEvent</text>
<polyline fill="none" stroke="black" points="838.5,-38.5 971.5,-38.5 "/>
<text text-anchor="start" x="846.5" y="-26.5" font-family="Helvetica,sans-Serif" font-size="10.00">+ element</text>
<polyline fill="none" stroke="black" points="838.5,-19.5 971.5,-19.5 "/>
<text text-anchor="start" x="846.5" y="-7.5" font-family="Helvetica,sans-Serif" font-size="10.00">+ SignalStartEvent()</text>
</a>
</g>
</g>
<!-- Node1&#45;&gt;Node14 -->
<g id="edge13" class="edge">
<title>Node1&#45;&gt;Node14</title>
<path fill="none" stroke="midnightblue" d="M654.27,-104.86C704.19,-92.97 770.95,-76.07 829,-58 832.09,-57.04 835.23,-56.02 838.4,-54.97"/>
<polygon fill="none" stroke="midnightblue" points="653.45,-101.46 644.52,-107.17 655.06,-108.27 653.45,-101.46"/>
</g>
<!-- Node15 -->
<g id="node15" class="node">
<title>Node15</title>
<g id="a_node15"><a xlink:href="classBPMN_1_1TimerStartEvent.html" target="_top" xlink:title=" ">
<polygon fill="none" stroke="black" points="989.5,-0.5 989.5,-57.5 1120.5,-57.5 1120.5,-0.5 989.5,-0.5"/>
<text text-anchor="middle" x="1055" y="-45.5" font-family="Helvetica,sans-Serif" font-size="10.00">BPMN::TimerStartEvent</text>
<polyline fill="none" stroke="black" points="989.5,-38.5 1120.5,-38.5 "/>
<text text-anchor="start" x="997.5" y="-26.5" font-family="Helvetica,sans-Serif" font-size="10.00">+ element</text>
<polyline fill="none" stroke="black" points="989.5,-19.5 1120.5,-19.5 "/>
<text text-anchor="start" x="997.5" y="-7.5" font-family="Helvetica,sans-Serif" font-size="10.00">+ TimerStartEvent()</text>
</a>
</g>
</g>
<!-- Node1&#45;&gt;Node15 -->
<g id="edge14" class="edge">
<title>Node1&#45;&gt;Node15</title>
<path fill="none" stroke="midnightblue" d="M654.78,-114.6C736.31,-105.56 869.33,-87.68 981,-58 983.79,-57.26 986.62,-56.45 989.46,-55.59"/>
<polygon fill="none" stroke="midnightblue" points="654.16,-111.14 644.6,-115.71 654.92,-118.1 654.16,-111.14"/>
</g>
<!-- Node2 -->
<g id="node2" class="node">
<title>Node2</title>
<g id="a_node2"><a xlink:href="classBPMN_1_1CatchEvent.html" target="_top" xlink:title=" ">
<polygon fill="none" stroke="black" points="525.5,-188.5 525.5,-245.5 632.5,-245.5 632.5,-188.5 525.5,-188.5"/>
<text text-anchor="middle" x="579" y="-233.5" font-family="Helvetica,sans-Serif" font-size="10.00">BPMN::CatchEvent</text>
<polyline fill="none" stroke="black" points="525.5,-226.5 632.5,-226.5 "/>
<text text-anchor="start" x="533.5" y="-214.5" font-family="Helvetica,sans-Serif" font-size="10.00">+ element</text>
<polyline fill="none" stroke="black" points="525.5,-207.5 632.5,-207.5 "/>
<text text-anchor="start" x="533.5" y="-195.5" font-family="Helvetica,sans-Serif" font-size="10.00">+ CatchEvent()</text>
</a>
</g>
</g>
<!-- Node2&#45;&gt;Node1 -->
<g id="edge1" class="edge">
<title>Node2&#45;&gt;Node1</title>
<path fill="none" stroke="midnightblue" d="M579,-178.21C579,-169.29 579,-159.95 579,-151.58"/>
<polygon fill="none" stroke="midnightblue" points="575.5,-178.4 579,-188.4 582.5,-178.4 575.5,-178.4"/>
</g>
<!-- Node3 -->
<g id="node3" class="node">
<title>Node3</title>
<g id="a_node3"><a xlink:href="classBPMN_1_1Event.html" target="_top" xlink:title=" ">
<polygon fill="none" stroke="black" points="539,-282.5 539,-339.5 619,-339.5 619,-282.5 539,-282.5"/>
<text text-anchor="middle" x="579" y="-327.5" font-family="Helvetica,sans-Serif" font-size="10.00">BPMN::Event</text>
<polyline fill="none" stroke="black" points="539,-320.5 619,-320.5 "/>
<text text-anchor="start" x="547" y="-308.5" font-family="Helvetica,sans-Serif" font-size="10.00">+ element</text>
<polyline fill="none" stroke="black" points="539,-301.5 619,-301.5 "/>
<text text-anchor="start" x="547" y="-289.5" font-family="Helvetica,sans-Serif" font-size="10.00">+ Event()</text>
</a>
</g>
</g>
<!-- Node3&#45;&gt;Node2 -->
<g id="edge2" class="edge">
<title>Node3&#45;&gt;Node2</title>
<path fill="none" stroke="midnightblue" d="M579,-272.21C579,-263.29 579,-253.95 579,-245.58"/>
<polygon fill="none" stroke="midnightblue" points="575.5,-272.4 579,-282.4 582.5,-272.4 575.5,-272.4"/>
</g>
<!-- Node4 -->
<g id="node4" class="node">
<title>Node4</title>
<g id="a_node4"><a xlink:href="classBPMN_1_1FlowNode.html" target="_top" xlink:title="Base class for BPMN elements that may contain incoming and outgoing sequence flows.">
<polygon fill="none" stroke="black" points="528.5,-376.5 528.5,-466.5 629.5,-466.5 629.5,-376.5 528.5,-376.5"/>
<text text-anchor="middle" x="579" y="-454.5" font-family="Helvetica,sans-Serif" font-size="10.00">BPMN::FlowNode</text>
<polyline fill="none" stroke="black" points="528.5,-447.5 629.5,-447.5 "/>
<text text-anchor="start" x="536.5" y="-435.5" font-family="Helvetica,sans-Serif" font-size="10.00">+ element</text>
<text text-anchor="start" x="536.5" y="-424.5" font-family="Helvetica,sans-Serif" font-size="10.00">+ name</text>
<text text-anchor="start" x="536.5" y="-413.5" font-family="Helvetica,sans-Serif" font-size="10.00">+ incoming</text>
<text text-anchor="start" x="536.5" y="-402.5" font-family="Helvetica,sans-Serif" font-size="10.00">+ outgoing</text>
<polyline fill="none" stroke="black" points="528.5,-395.5 629.5,-395.5 "/>
<text text-anchor="start" x="536.5" y="-383.5" font-family="Helvetica,sans-Serif" font-size="10.00">+ FlowNode()</text>
</a>
</g>
</g>
<!-- Node4&#45;&gt;Node3 -->
<g id="edge3" class="edge">
<title>Node4&#45;&gt;Node3</title>
<path fill="none" stroke="midnightblue" d="M579,-366.35C579,-357.07 579,-347.79 579,-339.59"/>
<polygon fill="none" stroke="midnightblue" points="575.5,-366.37 579,-376.37 582.5,-366.37 575.5,-366.37"/>
</g>
<!-- Node5 -->
<g id="node5" class="node">
<title>Node5</title>
<g id="a_node5"><a xlink:href="classBPMN_1_1ChildNode.html" target="_top" xlink:title="Base class for BPMN elements within a Scope.">
<polygon fill="none" stroke="black" points="528,-503.5 528,-560.5 630,-560.5 630,-503.5 528,-503.5"/>
<text text-anchor="middle" x="579" y="-548.5" font-family="Helvetica,sans-Serif" font-size="10.00">BPMN::ChildNode</text>
<polyline fill="none" stroke="black" points="528,-541.5 630,-541.5 "/>
<text text-anchor="start" x="536" y="-529.5" font-family="Helvetica,sans-Serif" font-size="10.00">+ parent</text>
<polyline fill="none" stroke="black" points="528,-522.5 630,-522.5 "/>
<text text-anchor="start" x="536" y="-510.5" font-family="Helvetica,sans-Serif" font-size="10.00">+ ChildNode()</text>
</a>
</g>
</g>
<!-- Node5&#45;&gt;Node4 -->
<g id="edge4" class="edge">
<title>Node5&#45;&gt;Node4</title>
<path fill="none" stroke="midnightblue" d="M579,-493.21C579,-484.61 579,-475.39 579,-466.55"/>
<polygon fill="none" stroke="midnightblue" points="575.5,-493.34 579,-503.34 582.5,-493.34 575.5,-493.34"/>
</g>
<!-- Node6 -->
<g id="node6" class="node">
<title>Node6</title>
<g id="a_node6"><a xlink:href="classBPMN_1_1Node.html" target="_top" xlink:title="Base class for all nodes in a BPMN model.">
<polygon fill="none" stroke="black" points="540.5,-597.5 540.5,-709.5 617.5,-709.5 617.5,-597.5 540.5,-597.5"/>
<text text-anchor="middle" x="579" y="-697.5" font-family="Helvetica,sans-Serif" font-size="10.00">BPMN::Node</text>
<polyline fill="none" stroke="black" points="540.5,-690.5 617.5,-690.5 "/>
<text text-anchor="start" x="548.5" y="-678.5" font-family="Helvetica,sans-Serif" font-size="10.00">+ receiving</text>
<text text-anchor="start" x="548.5" y="-667.5" font-family="Helvetica,sans-Serif" font-size="10.00">+ sending</text>
<polyline fill="none" stroke="black" points="540.5,-660.5 617.5,-660.5 "/>
<text text-anchor="start" x="548.5" y="-648.5" font-family="Helvetica,sans-Serif" font-size="10.00">+ Node()</text>
<text text-anchor="start" x="548.5" y="-637.5" font-family="Helvetica,sans-Serif" font-size="10.00">+ find()</text>
<text text-anchor="start" x="548.5" y="-626.5" font-family="Helvetica,sans-Serif" font-size="10.00">+ find()</text>
<text text-anchor="start" x="548.5" y="-615.5" font-family="Helvetica,sans-Serif" font-size="10.00">+ find_all()</text>
<text text-anchor="start" x="548.5" y="-604.5" font-family="Helvetica,sans-Serif" font-size="10.00">+ find_all()</text>
</a>
</g>
</g>
<!-- Node6&#45;&gt;Node5 -->
<g id="edge5" class="edge">
<title>Node6&#45;&gt;Node5</title>
<path fill="none" stroke="midnightblue" d="M579,-587.15C579,-577.82 579,-568.67 579,-560.63"/>
<polygon fill="none" stroke="midnightblue" points="575.5,-587.3 579,-597.3 582.5,-587.3 575.5,-587.3"/>
</g>
<!-- Node7 -->
<g id="node7" class="node">
<title>Node7</title>
<g id="a_node7"><a xlink:href="classBPMN_1_1BaseElement.html" target="_top" xlink:title="Base class for all core BPMN elements.">
<polygon fill="none" stroke="black" points="518,-746.5 518,-869.5 640,-869.5 640,-746.5 518,-746.5"/>
<text text-anchor="middle" x="579" y="-857.5" font-family="Helvetica,sans-Serif" font-size="10.00">BPMN::BaseElement</text>
<polyline fill="none" stroke="black" points="518,-850.5 640,-850.5 "/>
<text text-anchor="start" x="526" y="-838.5" font-family="Helvetica,sans-Serif" font-size="10.00">+ element</text>
<text text-anchor="start" x="526" y="-827.5" font-family="Helvetica,sans-Serif" font-size="10.00">+ id</text>
<text text-anchor="start" x="526" y="-816.5" font-family="Helvetica,sans-Serif" font-size="10.00">+ extensionElements</text>
<polyline fill="none" stroke="black" points="518,-809.5 640,-809.5 "/>
<text text-anchor="start" x="526" y="-797.5" font-family="Helvetica,sans-Serif" font-size="10.00">+ BaseElement()</text>
<text text-anchor="start" x="526" y="-786.5" font-family="Helvetica,sans-Serif" font-size="10.00">+ is()</text>
<text text-anchor="start" x="526" y="-775.5" font-family="Helvetica,sans-Serif" font-size="10.00">+ is()</text>
<text text-anchor="start" x="526" y="-764.5" font-family="Helvetica,sans-Serif" font-size="10.00">+ get()</text>
<text text-anchor="start" x="526" y="-753.5" font-family="Helvetica,sans-Serif" font-size="10.00">+ get()</text>
</a>
</g>
</g>
<!-- Node7&#45;&gt;Node6 -->
<g id="edge6" class="edge">
<title>Node7&#45;&gt;Node6</title>
<path fill="none" stroke="midnightblue" d="M579,-736.25C579,-727.29 579,-718.23 579,-709.56"/>
<polygon fill="none" stroke="midnightblue" points="575.5,-736.29 579,-746.29 582.5,-736.29 575.5,-736.29"/>
</g>
<!-- Node8 -->
<g id="node8" class="node">
<title>Node8</title>
<g id="a_node8"><a xlink:href="classBPMN_1_1Element.html" target="_top" xlink:title="Abstract base class for all elements in a BPMN model.">
<polygon fill="none" stroke="black" points="533,-906.5 533,-1007.5 625,-1007.5 625,-906.5 533,-906.5"/>
<text text-anchor="middle" x="579" y="-995.5" font-family="Helvetica,sans-Serif" font-size="10.00">BPMN::Element</text>
<polyline fill="none" stroke="black" points="533,-988.5 625,-988.5 "/>
<text text-anchor="middle" x="579" y="-976.5" font-family="Helvetica,sans-Serif" font-size="10.00"> </text>
<polyline fill="none" stroke="black" points="533,-969.5 625,-969.5 "/>
<text text-anchor="start" x="541" y="-957.5" font-family="Helvetica,sans-Serif" font-size="10.00">+ ~Element()</text>
<text text-anchor="start" x="541" y="-946.5" font-family="Helvetica,sans-Serif" font-size="10.00">+ represents()</text>
<text text-anchor="start" x="541" y="-935.5" font-family="Helvetica,sans-Serif" font-size="10.00">+ represents()</text>
<text text-anchor="start" x="541" y="-924.5" font-family="Helvetica,sans-Serif" font-size="10.00">+ as()</text>
<text text-anchor="start" x="541" y="-913.5" font-family="Helvetica,sans-Serif" font-size="10.00">+ as()</text>
</a>
</g>
</g>
<!-- Node8&#45;&gt;Node7 -->
<g id="edge7" class="edge">
<title>Node8&#45;&gt;Node7</title>
<path fill="none" stroke="midnightblue" d="M579,-896.14C579,-887.41 579,-878.42 579,-869.67"/>
<polygon fill="none" stroke="midnightblue" points="575.5,-896.23 579,-906.23 582.5,-896.23 575.5,-896.23"/>
</g>
</g>
</svg>
