<?xml version="1.0" encoding="UTF-8" standalone="no"?>
<!DOCTYPE svg PUBLIC "-//W3C//DTD SVG 1.1//EN"
 "http://www.w3.org/Graphics/SVG/1.1/DTD/svg11.dtd">
<!-- Generated by graphviz version 14.1.2 (0)
 -->
<!-- Title: XML::bpmn::tGateway Pages: 1 -->
<svg width="888pt" height="1240pt"
 viewBox="0.00 0.00 888.00 1240.00" xmlns="http://www.w3.org/2000/svg" xmlns:xlink="http://www.w3.org/1999/xlink">
<g id="graph0" class="graph" transform="scale(1 1) rotate(0) translate(4 1236.25)">
<title>XML::bpmn::tGateway</title>
<!-- Node1 -->
<g id="Node000001" class="node">
<title>Node1</title>
<g id="a_Node000001"><a xlink:title=" ">
<polygon fill="#999999" stroke="none" points="508.75,-285 392.75,-285 392.75,-214 508.75,-214 508.75,-285"/>
<text xml:space="preserve" text-anchor="start" x="396.75" y="-271.5" font-family="Helvetica,sans-Serif" font-size="10.00">XML::bpmn::tGateway</text>
<text xml:space="preserve" text-anchor="start" x="399.12" y="-254.75" font-family="Helvetica,sans-Serif" font-size="10.00">+</text>
<text xml:space="preserve" text-anchor="start" x="413.75" y="-254.75" font-family="Helvetica,sans-Serif" font-size="10.00">gatewayDirection</text>
<text xml:space="preserve" text-anchor="start" x="399.12" y="-238" font-family="Helvetica,sans-Serif" font-size="10.00">+</text>
<text xml:space="preserve" text-anchor="start" x="413.75" y="-238" font-family="Helvetica,sans-Serif" font-size="10.00">defaults</text>
<text xml:space="preserve" text-anchor="start" x="399.12" y="-221.25" font-family="Helvetica,sans-Serif" font-size="10.00">#</text>
<text xml:space="preserve" text-anchor="start" x="413.75" y="-221.25" font-family="Helvetica,sans-Serif" font-size="10.00">tGateway()</text>
<polygon fill="#666666" stroke="#666666" points="392.75,-266.25 392.75,-266.25 508.75,-266.25 508.75,-266.25 392.75,-266.25"/>
<polygon fill="#666666" stroke="#666666" points="392.75,-232.75 392.75,-232.75 411.75,-232.75 411.75,-232.75 392.75,-232.75"/>
<polygon fill="#666666" stroke="#666666" points="411.75,-232.75 411.75,-232.75 508.75,-232.75 508.75,-232.75 411.75,-232.75"/>
<polygon fill="none" stroke="#666666" points="392.75,-214 392.75,-285 508.75,-285 508.75,-214 392.75,-214"/>
</a>
</g>
</g>
<!-- Node6 -->
<g id="Node000006" class="node">
<title>Node6</title>
<g id="a_Node000006"><a xlink:href="classXML_1_1bpmn_1_1tComplexGateway.html" target="_top" xlink:title=" ">
<polygon fill="white" stroke="none" points="159.5,-178 0,-178 0,-90.25 159.5,-90.25 159.5,-178"/>
<text xml:space="preserve" text-anchor="start" x="4" y="-164.5" font-family="Helvetica,sans-Serif" font-size="10.00">XML::bpmn::tComplexGateway</text>
<text xml:space="preserve" text-anchor="start" x="14.25" y="-147.75" font-family="Helvetica,sans-Serif" font-size="10.00">+</text>
<text xml:space="preserve" text-anchor="start" x="36.75" y="-147.75" font-family="Helvetica,sans-Serif" font-size="10.00">activationCondition</text>
<text xml:space="preserve" text-anchor="start" x="14.25" y="-131" font-family="Helvetica,sans-Serif" font-size="10.00">+</text>
<text xml:space="preserve" text-anchor="start" x="36.75" y="-131" font-family="Helvetica,sans-Serif" font-size="10.00">default_</text>
<text xml:space="preserve" text-anchor="start" x="14.25" y="-114.25" font-family="Helvetica,sans-Serif" font-size="10.00">+</text>
<text xml:space="preserve" text-anchor="start" x="36.75" y="-114.25" font-family="Helvetica,sans-Serif" font-size="10.00">defaults</text>
<text xml:space="preserve" text-anchor="start" x="14.25" y="-97.5" font-family="Helvetica,sans-Serif" font-size="10.00">#</text>
<text xml:space="preserve" text-anchor="start" x="36.75" y="-97.5" font-family="Helvetica,sans-Serif" font-size="10.00">tComplexGateway()</text>
<polygon fill="#666666" stroke="#666666" points="0,-159.25 0,-159.25 159.5,-159.25 159.5,-159.25 0,-159.25"/>
<polygon fill="#666666" stroke="#666666" points="0,-109 0,-109 34.75,-109 34.75,-109 0,-109"/>
<polygon fill="#666666" stroke="#666666" points="34.75,-109 34.75,-109 159.5,-109 159.5,-109 34.75,-109"/>
<polygon fill="none" stroke="#666666" points="0,-90.25 0,-178 159.5,-178 159.5,-90.25 0,-90.25"/>
</a>
</g>
</g>
<!-- Node1&#45;&gt;Node6 -->
<g id="edge5_Node000001_Node000006" class="edge">
<title>Node1&#45;&gt;Node6</title>
<g id="a_edge5_Node000001_Node000006"><a xlink:title=" ">
<path fill="none" stroke="#63b8ff" d="M381.82,-235.38C323.99,-223.4 239.71,-203.66 168.75,-178 165.69,-176.89 162.59,-175.71 159.47,-174.48"/>
<polygon fill="none" stroke="#63b8ff" points="381.03,-238.79 391.53,-237.36 382.44,-231.93 381.03,-238.79"/>
</a>
</g>
</g>
<!-- Node8 -->
<g id="Node000008" class="node">
<title>Node8</title>
<g id="a_Node000008"><a xlink:href="classXML_1_1bpmn_1_1tEventBasedGateway.html" target="_top" xlink:title=" ">
<polygon fill="white" stroke="none" points="351.62,-178 177.88,-178 177.88,-90.25 351.62,-90.25 351.62,-178"/>
<text xml:space="preserve" text-anchor="start" x="181.88" y="-164.5" font-family="Helvetica,sans-Serif" font-size="10.00">XML::bpmn::tEventBasedGateway</text>
<text xml:space="preserve" text-anchor="start" x="192.12" y="-147.75" font-family="Helvetica,sans-Serif" font-size="10.00">+</text>
<text xml:space="preserve" text-anchor="start" x="214.62" y="-147.75" font-family="Helvetica,sans-Serif" font-size="10.00">instantiate</text>
<text xml:space="preserve" text-anchor="start" x="192.12" y="-131" font-family="Helvetica,sans-Serif" font-size="10.00">+</text>
<text xml:space="preserve" text-anchor="start" x="214.62" y="-131" font-family="Helvetica,sans-Serif" font-size="10.00">eventGatewayType</text>
<text xml:space="preserve" text-anchor="start" x="192.12" y="-114.25" font-family="Helvetica,sans-Serif" font-size="10.00">+</text>
<text xml:space="preserve" text-anchor="start" x="214.62" y="-114.25" font-family="Helvetica,sans-Serif" font-size="10.00">defaults</text>
<text xml:space="preserve" text-anchor="start" x="192.12" y="-97.5" font-family="Helvetica,sans-Serif" font-size="10.00">#</text>
<text xml:space="preserve" text-anchor="start" x="214.62" y="-97.5" font-family="Helvetica,sans-Serif" font-size="10.00">tEventBasedGateway()</text>
<polygon fill="#666666" stroke="#666666" points="177.88,-159.25 177.88,-159.25 351.62,-159.25 351.62,-159.25 177.88,-159.25"/>
<polygon fill="#666666" stroke="#666666" points="177.88,-109 177.88,-109 212.62,-109 212.62,-109 177.88,-109"/>
<polygon fill="#666666" stroke="#666666" points="212.62,-109 212.62,-109 351.62,-109 351.62,-109 212.62,-109"/>
<polygon fill="none" stroke="#666666" points="177.88,-90.25 177.88,-178 351.62,-178 351.62,-90.25 177.88,-90.25"/>
</a>
</g>
</g>
<!-- Node1&#45;&gt;Node8 -->
<g id="edge7_Node000001_Node000008" class="edge">
<title>Node1&#45;&gt;Node8</title>
<g id="a_edge7_Node000001_Node000008"><a xlink:title=" ">
<path fill="none" stroke="#63b8ff" d="M384.81,-208.31C368.62,-198.44 351.23,-187.84 334.85,-177.85"/>
<polygon fill="none" stroke="#63b8ff" points="382.53,-211.02 392.89,-213.23 386.18,-205.04 382.53,-211.02"/>
</a>
</g>
</g>
<!-- Node10 -->
<g id="Node000010" class="node">
<title>Node10</title>
<g id="a_Node000010"><a xlink:href="classXML_1_1bpmn_1_1tExclusiveGateway.html" target="_top" xlink:title=" ">
<polygon fill="white" stroke="none" points="532,-169.62 369.5,-169.62 369.5,-98.62 532,-98.62 532,-169.62"/>
<text xml:space="preserve" text-anchor="start" x="373.5" y="-156.12" font-family="Helvetica,sans-Serif" font-size="10.00">XML::bpmn::tExclusiveGateway</text>
<text xml:space="preserve" text-anchor="start" x="383.75" y="-139.38" font-family="Helvetica,sans-Serif" font-size="10.00">+</text>
<text xml:space="preserve" text-anchor="start" x="406.25" y="-139.38" font-family="Helvetica,sans-Serif" font-size="10.00">default_</text>
<text xml:space="preserve" text-anchor="start" x="383.75" y="-122.62" font-family="Helvetica,sans-Serif" font-size="10.00">+</text>
<text xml:space="preserve" text-anchor="start" x="406.25" y="-122.62" font-family="Helvetica,sans-Serif" font-size="10.00">defaults</text>
<text xml:space="preserve" text-anchor="start" x="383.75" y="-105.88" font-family="Helvetica,sans-Serif" font-size="10.00">#</text>
<text xml:space="preserve" text-anchor="start" x="406.25" y="-105.88" font-family="Helvetica,sans-Serif" font-size="10.00">tExclusiveGateway()</text>
<polygon fill="#666666" stroke="#666666" points="369.5,-150.88 369.5,-150.88 532,-150.88 532,-150.88 369.5,-150.88"/>
<polygon fill="#666666" stroke="#666666" points="369.5,-117.38 369.5,-117.38 404.25,-117.38 404.25,-117.38 369.5,-117.38"/>
<polygon fill="#666666" stroke="#666666" points="404.25,-117.38 404.25,-117.38 532,-117.38 532,-117.38 404.25,-117.38"/>
<polygon fill="none" stroke="#666666" points="369.5,-98.62 369.5,-169.62 532,-169.62 532,-98.62 369.5,-98.62"/>
</a>
</g>
</g>
<!-- Node1&#45;&gt;Node10 -->
<g id="edge9_Node000001_Node000010" class="edge">
<title>Node1&#45;&gt;Node10</title>
<g id="a_edge9_Node000001_Node000010"><a xlink:title=" ">
<path fill="none" stroke="#63b8ff" d="M450.75,-202.82C450.75,-191.64 450.75,-179.87 450.75,-169.33"/>
<polygon fill="none" stroke="#63b8ff" points="447.25,-202.66 450.75,-212.66 454.25,-202.66 447.25,-202.66"/>
</a>
</g>
</g>
<!-- Node12 -->
<g id="Node000012" class="node">
<title>Node12</title>
<g id="a_Node000012"><a xlink:href="classXML_1_1bpmn_1_1tInclusiveGateway.html" target="_top" xlink:title=" ">
<polygon fill="white" stroke="none" points="709.5,-169.62 550,-169.62 550,-98.62 709.5,-98.62 709.5,-169.62"/>
<text xml:space="preserve" text-anchor="start" x="554" y="-156.12" font-family="Helvetica,sans-Serif" font-size="10.00">XML::bpmn::tInclusiveGateway</text>
<text xml:space="preserve" text-anchor="start" x="564.25" y="-139.38" font-family="Helvetica,sans-Serif" font-size="10.00">+</text>
<text xml:space="preserve" text-anchor="start" x="586.75" y="-139.38" font-family="Helvetica,sans-Serif" font-size="10.00">default_</text>
<text xml:space="preserve" text-anchor="start" x="564.25" y="-122.62" font-family="Helvetica,sans-Serif" font-size="10.00">+</text>
<text xml:space="preserve" text-anchor="start" x="586.75" y="-122.62" font-family="Helvetica,sans-Serif" font-size="10.00">defaults</text>
<text xml:space="preserve" text-anchor="start" x="564.25" y="-105.88" font-family="Helvetica,sans-Serif" font-size="10.00">#</text>
<text xml:space="preserve" text-anchor="start" x="586.75" y="-105.88" font-family="Helvetica,sans-Serif" font-size="10.00">tInclusiveGateway()</text>
<polygon fill="#666666" stroke="#666666" points="550,-150.88 550,-150.88 709.5,-150.88 709.5,-150.88 550,-150.88"/>
<polygon fill="#666666" stroke="#666666" points="550,-117.38 550,-117.38 584.75,-117.38 584.75,-117.38 550,-117.38"/>
<polygon fill="#666666" stroke="#666666" points="584.75,-117.38 584.75,-117.38 709.5,-117.38 709.5,-117.38 584.75,-117.38"/>
<polygon fill="none" stroke="#666666" points="550,-98.62 550,-169.62 709.5,-169.62 709.5,-98.62 550,-98.62"/>
</a>
</g>
</g>
<!-- Node1&#45;&gt;Node12 -->
<g id="edge11_Node000001_Node000012" class="edge">
<title>Node1&#45;&gt;Node12</title>
<g id="a_edge11_Node000001_Node000012"><a xlink:title=" ">
<path fill="none" stroke="#63b8ff" d="M514.55,-208.09C534.46,-195.48 556.23,-181.69 575.43,-169.53"/>
<polygon fill="none" stroke="#63b8ff" points="512.8,-205.06 506.22,-213.37 516.54,-210.97 512.8,-205.06"/>
</a>
</g>
</g>
<!-- Node14 -->
<g id="Node000014" class="node">
<title>Node14</title>
<g id="a_Node000014"><a xlink:href="classXML_1_1bpmn_1_1tParallelGateway.html" target="_top" xlink:title=" ">
<polygon fill="white" stroke="none" points="879.75,-161.25 727.75,-161.25 727.75,-107 879.75,-107 879.75,-161.25"/>
<text xml:space="preserve" text-anchor="start" x="731.75" y="-147.75" font-family="Helvetica,sans-Serif" font-size="10.00">XML::bpmn::tParallelGateway</text>
<text xml:space="preserve" text-anchor="start" x="742" y="-131" font-family="Helvetica,sans-Serif" font-size="10.00">+</text>
<text xml:space="preserve" text-anchor="start" x="764.5" y="-131" font-family="Helvetica,sans-Serif" font-size="10.00">defaults</text>
<text xml:space="preserve" text-anchor="start" x="742" y="-114.25" font-family="Helvetica,sans-Serif" font-size="10.00">#</text>
<text xml:space="preserve" text-anchor="start" x="764.5" y="-114.25" font-family="Helvetica,sans-Serif" font-size="10.00">tParallelGateway()</text>
<polygon fill="#666666" stroke="#666666" points="727.75,-142.5 727.75,-142.5 879.75,-142.5 879.75,-142.5 727.75,-142.5"/>
<polygon fill="#666666" stroke="#666666" points="727.75,-125.75 727.75,-125.75 762.5,-125.75 762.5,-125.75 727.75,-125.75"/>
<polygon fill="#666666" stroke="#666666" points="762.5,-125.75 762.5,-125.75 879.75,-125.75 879.75,-125.75 762.5,-125.75"/>
<polygon fill="none" stroke="#666666" points="727.75,-107 727.75,-161.25 879.75,-161.25 879.75,-107 727.75,-107"/>
</a>
</g>
</g>
<!-- Node1&#45;&gt;Node14 -->
<g id="edge13_Node000001_Node000014" class="edge">
<title>Node1&#45;&gt;Node14</title>
<g id="a_edge13_Node000001_Node000014"><a xlink:title=" ">
<path fill="none" stroke="#63b8ff" d="M519.56,-234.58C574.44,-222.49 652.77,-203 718.75,-178 731.27,-173.26 744.38,-167.22 756.44,-161.19"/>
<polygon fill="none" stroke="#63b8ff" points="519.07,-231.11 510.04,-236.65 520.56,-237.95 519.07,-231.11"/>
</a>
</g>
</g>
<!-- Node2 -->
<g id="Node000002" class="node">
<title>Node2</title>
<g id="a_Node000002"><a xlink:href="classXML_1_1bpmn_1_1tFlowNode.html" target="_top" xlink:title=" ">
<polygon fill="white" stroke="none" points="511.38,-408.75 390.12,-408.75 390.12,-321 511.38,-321 511.38,-408.75"/>
<text xml:space="preserve" text-anchor="start" x="394.12" y="-395.25" font-family="Helvetica,sans-Serif" font-size="10.00">XML::bpmn::tFlowNode</text>
<text xml:space="preserve" text-anchor="start" x="404.38" y="-378.5" font-family="Helvetica,sans-Serif" font-size="10.00">+</text>
<text xml:space="preserve" text-anchor="start" x="426.88" y="-378.5" font-family="Helvetica,sans-Serif" font-size="10.00">incoming</text>
<text xml:space="preserve" text-anchor="start" x="404.38" y="-361.75" font-family="Helvetica,sans-Serif" font-size="10.00">+</text>
<text xml:space="preserve" text-anchor="start" x="426.88" y="-361.75" font-family="Helvetica,sans-Serif" font-size="10.00">outgoing</text>
<text xml:space="preserve" text-anchor="start" x="404.38" y="-345" font-family="Helvetica,sans-Serif" font-size="10.00">+</text>
<text xml:space="preserve" text-anchor="start" x="426.88" y="-345" font-family="Helvetica,sans-Serif" font-size="10.00">defaults</text>
<text xml:space="preserve" text-anchor="start" x="404.38" y="-328.25" font-family="Helvetica,sans-Serif" font-size="10.00">#</text>
<text xml:space="preserve" text-anchor="start" x="426.88" y="-328.25" font-family="Helvetica,sans-Serif" font-size="10.00">tFlowNode()</text>
<polygon fill="#666666" stroke="#666666" points="390.12,-390 390.12,-390 511.38,-390 511.38,-390 390.12,-390"/>
<polygon fill="#666666" stroke="#666666" points="390.12,-339.75 390.12,-339.75 424.88,-339.75 424.88,-339.75 390.12,-339.75"/>
<polygon fill="#666666" stroke="#666666" points="424.88,-339.75 424.88,-339.75 511.38,-339.75 511.38,-339.75 424.88,-339.75"/>
<polygon fill="none" stroke="#666666" points="390.12,-321 390.12,-408.75 511.38,-408.75 511.38,-321 390.12,-321"/>
</a>
</g>
</g>
<!-- Node2&#45;&gt;Node1 -->
<g id="edge1_Node000001_Node000002" class="edge">
<title>Node2&#45;&gt;Node1</title>
<g id="a_edge1_Node000001_Node000002"><a xlink:title=" ">
<path fill="none" stroke="#63b8ff" d="M450.75,-309.66C450.75,-301.25 450.75,-292.76 450.75,-284.95"/>
<polygon fill="none" stroke="#63b8ff" points="447.25,-309.5 450.75,-319.5 454.25,-309.5 447.25,-309.5"/>
</a>
</g>
</g>
<!-- Node3 -->
<g id="Node000003" class="node">
<title>Node3</title>
<g id="a_Node000003"><a xlink:href="classXML_1_1bpmn_1_1tFlowElement.html" target="_top" xlink:title=" ">
<polygon fill="white" stroke="none" points="518.88,-566 382.62,-566 382.62,-444.75 518.88,-444.75 518.88,-566"/>
<text xml:space="preserve" text-anchor="start" x="386.62" y="-552.5" font-family="Helvetica,sans-Serif" font-size="10.00">XML::bpmn::tFlowElement</text>
<text xml:space="preserve" text-anchor="start" x="394.06" y="-535.75" font-family="Helvetica,sans-Serif" font-size="10.00">+</text>
<text xml:space="preserve" text-anchor="start" x="413.75" y="-535.75" font-family="Helvetica,sans-Serif" font-size="10.00">auditing</text>
<text xml:space="preserve" text-anchor="start" x="394.06" y="-519" font-family="Helvetica,sans-Serif" font-size="10.00">+</text>
<text xml:space="preserve" text-anchor="start" x="413.75" y="-519" font-family="Helvetica,sans-Serif" font-size="10.00">monitoring</text>
<text xml:space="preserve" text-anchor="start" x="394.06" y="-502.25" font-family="Helvetica,sans-Serif" font-size="10.00">+</text>
<text xml:space="preserve" text-anchor="start" x="413.75" y="-502.25" font-family="Helvetica,sans-Serif" font-size="10.00">categoryValueRef</text>
<text xml:space="preserve" text-anchor="start" x="394.06" y="-485.5" font-family="Helvetica,sans-Serif" font-size="10.00">+</text>
<text xml:space="preserve" text-anchor="start" x="413.75" y="-485.5" font-family="Helvetica,sans-Serif" font-size="10.00">name</text>
<text xml:space="preserve" text-anchor="start" x="394.06" y="-468.75" font-family="Helvetica,sans-Serif" font-size="10.00">+</text>
<text xml:space="preserve" text-anchor="start" x="413.75" y="-468.75" font-family="Helvetica,sans-Serif" font-size="10.00">defaults</text>
<text xml:space="preserve" text-anchor="start" x="394.06" y="-452" font-family="Helvetica,sans-Serif" font-size="10.00">#</text>
<text xml:space="preserve" text-anchor="start" x="413.75" y="-452" font-family="Helvetica,sans-Serif" font-size="10.00">tFlowElement()</text>
<polygon fill="#666666" stroke="#666666" points="382.62,-547.25 382.62,-547.25 518.88,-547.25 518.88,-547.25 382.62,-547.25"/>
<polygon fill="#666666" stroke="#666666" points="382.62,-463.5 382.62,-463.5 411.75,-463.5 411.75,-463.5 382.62,-463.5"/>
<polygon fill="#666666" stroke="#666666" points="411.75,-463.5 411.75,-463.5 518.88,-463.5 518.88,-463.5 411.75,-463.5"/>
<polygon fill="none" stroke="#666666" points="382.62,-444.75 382.62,-566 518.88,-566 518.88,-444.75 382.62,-444.75"/>
</a>
</g>
</g>
<!-- Node3&#45;&gt;Node2 -->
<g id="edge2_Node000002_Node000003" class="edge">
<title>Node3&#45;&gt;Node2</title>
<g id="a_edge2_Node000002_Node000003"><a xlink:title=" ">
<path fill="none" stroke="#63b8ff" d="M450.75,-433.35C450.75,-424.91 450.75,-416.51 450.75,-408.64"/>
<polygon fill="none" stroke="#63b8ff" points="447.25,-433.32 450.75,-443.32 454.25,-433.32 447.25,-433.32"/>
</a>
</g>
</g>
<!-- Node4 -->
<g id="Node000004" class="node">
<title>Node4</title>
<g id="a_Node000004"><a xlink:href="classXML_1_1bpmn_1_1tBaseElement.html" target="_top" xlink:title=" ">
<polygon fill="white" stroke="none" points="519.25,-706.5 382.25,-706.5 382.25,-602 519.25,-602 519.25,-706.5"/>
<text xml:space="preserve" text-anchor="start" x="386.25" y="-693" font-family="Helvetica,sans-Serif" font-size="10.00">XML::bpmn::tBaseElement</text>
<text xml:space="preserve" text-anchor="start" x="392" y="-676.25" font-family="Helvetica,sans-Serif" font-size="10.00">+</text>
<text xml:space="preserve" text-anchor="start" x="410" y="-676.25" font-family="Helvetica,sans-Serif" font-size="10.00">documentation</text>
<text xml:space="preserve" text-anchor="start" x="392" y="-659.5" font-family="Helvetica,sans-Serif" font-size="10.00">+</text>
<text xml:space="preserve" text-anchor="start" x="410" y="-659.5" font-family="Helvetica,sans-Serif" font-size="10.00">extensionElements</text>
<text xml:space="preserve" text-anchor="start" x="392" y="-642.75" font-family="Helvetica,sans-Serif" font-size="10.00">+</text>
<text xml:space="preserve" text-anchor="start" x="410" y="-642.75" font-family="Helvetica,sans-Serif" font-size="10.00">id</text>
<text xml:space="preserve" text-anchor="start" x="392" y="-626" font-family="Helvetica,sans-Serif" font-size="10.00">+</text>
<text xml:space="preserve" text-anchor="start" x="410" y="-626" font-family="Helvetica,sans-Serif" font-size="10.00">defaults</text>
<text xml:space="preserve" text-anchor="start" x="392" y="-609.25" font-family="Helvetica,sans-Serif" font-size="10.00">#</text>
<text xml:space="preserve" text-anchor="start" x="410" y="-609.25" font-family="Helvetica,sans-Serif" font-size="10.00">tBaseElement()</text>
<polygon fill="#666666" stroke="#666666" points="382.25,-687.75 382.25,-687.75 519.25,-687.75 519.25,-687.75 382.25,-687.75"/>
<polygon fill="#666666" stroke="#666666" points="382.25,-620.75 382.25,-620.75 408,-620.75 408,-620.75 382.25,-620.75"/>
<polygon fill="#666666" stroke="#666666" points="408,-620.75 408,-620.75 519.25,-620.75 519.25,-620.75 408,-620.75"/>
<polygon fill="none" stroke="#666666" points="382.25,-602 382.25,-706.5 519.25,-706.5 519.25,-602 382.25,-602"/>
</a>
</g>
</g>
<!-- Node4&#45;&gt;Node3 -->
<g id="edge3_Node000003_Node000004" class="edge">
<title>Node4&#45;&gt;Node3</title>
<g id="a_edge3_Node000003_Node000004"><a xlink:title=" ">
<path fill="none" stroke="#63b8ff" d="M450.75,-591.06C450.75,-582.69 450.75,-574.13 450.75,-565.82"/>
<polygon fill="none" stroke="#63b8ff" points="447.25,-590.78 450.75,-600.78 454.25,-590.78 447.25,-590.78"/>
</a>
</g>
</g>
<!-- Node5 -->
<g id="Node000005" class="node">
<title>Node5</title>
<g id="a_Node000005"><a xlink:href="classXML_1_1XMLObject.html" target="_top" xlink:title="A class representing a node in an XML&#45;tree.">
<polygon fill="white" stroke="none" points="536.62,-1232.25 364.88,-1232.25 364.88,-742.5 536.62,-742.5 536.62,-1232.25"/>
<text xml:space="preserve" text-anchor="start" x="411" y="-1218.75" font-family="Helvetica,sans-Serif" font-size="10.00">XML::XMLObject</text>
<text xml:space="preserve" text-anchor="start" x="368.88" y="-1202" font-family="Helvetica,sans-Serif" font-size="10.00">+</text>
<text xml:space="preserve" text-anchor="start" x="381.12" y="-1202" font-family="Helvetica,sans-Serif" font-size="10.00">xmlns</text>
<text xml:space="preserve" text-anchor="start" x="368.88" y="-1185.25" font-family="Helvetica,sans-Serif" font-size="10.00">+</text>
<text xml:space="preserve" text-anchor="start" x="381.12" y="-1185.25" font-family="Helvetica,sans-Serif" font-size="10.00">className</text>
<text xml:space="preserve" text-anchor="start" x="368.88" y="-1168.5" font-family="Helvetica,sans-Serif" font-size="10.00">+</text>
<text xml:space="preserve" text-anchor="start" x="381.12" y="-1168.5" font-family="Helvetica,sans-Serif" font-size="10.00">prefix</text>
<text xml:space="preserve" text-anchor="start" x="368.88" y="-1151.75" font-family="Helvetica,sans-Serif" font-size="10.00">+</text>
<text xml:space="preserve" text-anchor="start" x="381.12" y="-1151.75" font-family="Helvetica,sans-Serif" font-size="10.00">elementName</text>
<text xml:space="preserve" text-anchor="start" x="368.88" y="-1135" font-family="Helvetica,sans-Serif" font-size="10.00">+</text>
<text xml:space="preserve" text-anchor="start" x="381.12" y="-1135" font-family="Helvetica,sans-Serif" font-size="10.00">textContent</text>
<text xml:space="preserve" text-anchor="start" x="368.88" y="-1118.25" font-family="Helvetica,sans-Serif" font-size="10.00">+</text>
<text xml:space="preserve" text-anchor="start" x="381.12" y="-1118.25" font-family="Helvetica,sans-Serif" font-size="10.00">children</text>
<text xml:space="preserve" text-anchor="start" x="368.88" y="-1101.5" font-family="Helvetica,sans-Serif" font-size="10.00">+</text>
<text xml:space="preserve" text-anchor="start" x="381.12" y="-1101.5" font-family="Helvetica,sans-Serif" font-size="10.00">attributes</text>
<text xml:space="preserve" text-anchor="start" x="368.88" y="-1084.75" font-family="Helvetica,sans-Serif" font-size="10.00">+</text>
<text xml:space="preserve" text-anchor="start" x="381.12" y="-1084.75" font-family="Helvetica,sans-Serif" font-size="10.00">defaults</text>
<text xml:space="preserve" text-anchor="start" x="368.88" y="-1068" font-family="Helvetica,sans-Serif" font-size="10.00">#</text>
<text xml:space="preserve" text-anchor="start" x="381.12" y="-1068" font-family="Helvetica,sans-Serif" font-size="10.00">factory</text>
<text xml:space="preserve" text-anchor="start" x="368.88" y="-1051.25" font-family="Helvetica,sans-Serif" font-size="10.00">+</text>
<text xml:space="preserve" text-anchor="start" x="381.12" y="-1051.25" font-family="Helvetica,sans-Serif" font-size="10.00">~XMLObject()</text>
<text xml:space="preserve" text-anchor="start" x="368.88" y="-1034.5" font-family="Helvetica,sans-Serif" font-size="10.00">+</text>
<text xml:space="preserve" text-anchor="start" x="381.12" y="-1034.5" font-family="Helvetica,sans-Serif" font-size="10.00">is()</text>
<text xml:space="preserve" text-anchor="start" x="368.88" y="-1017.75" font-family="Helvetica,sans-Serif" font-size="10.00">+</text>
<text xml:space="preserve" text-anchor="start" x="381.12" y="-1017.75" font-family="Helvetica,sans-Serif" font-size="10.00">get()</text>
<text xml:space="preserve" text-anchor="start" x="368.88" y="-1001" font-family="Helvetica,sans-Serif" font-size="10.00">+</text>
<text xml:space="preserve" text-anchor="start" x="381.12" y="-1001" font-family="Helvetica,sans-Serif" font-size="10.00">find()</text>
<text xml:space="preserve" text-anchor="start" x="368.88" y="-984.25" font-family="Helvetica,sans-Serif" font-size="10.00">+</text>
<text xml:space="preserve" text-anchor="start" x="381.12" y="-984.25" font-family="Helvetica,sans-Serif" font-size="10.00">stringify()</text>
<text xml:space="preserve" text-anchor="start" x="368.88" y="-967.5" font-family="Helvetica,sans-Serif" font-size="10.00">+</text>
<text xml:space="preserve" text-anchor="start" x="381.12" y="-967.5" font-family="Helvetica,sans-Serif" font-size="10.00">format()</text>
<text xml:space="preserve" text-anchor="start" x="368.88" y="-950.75" font-family="Helvetica,sans-Serif" font-size="10.00">+</text>
<text xml:space="preserve" text-anchor="start" x="381.12" y="-950.75" font-family="Helvetica,sans-Serif" font-size="10.00">getRequiredChild()</text>
<text xml:space="preserve" text-anchor="start" x="368.88" y="-934" font-family="Helvetica,sans-Serif" font-size="10.00">+</text>
<text xml:space="preserve" text-anchor="start" x="381.12" y="-934" font-family="Helvetica,sans-Serif" font-size="10.00">getOptionalChild()</text>
<text xml:space="preserve" text-anchor="start" x="368.88" y="-917.25" font-family="Helvetica,sans-Serif" font-size="10.00">+</text>
<text xml:space="preserve" text-anchor="start" x="381.12" y="-917.25" font-family="Helvetica,sans-Serif" font-size="10.00">getChildren()</text>
<text xml:space="preserve" text-anchor="start" x="368.88" y="-900.5" font-family="Helvetica,sans-Serif" font-size="10.00">+</text>
<text xml:space="preserve" text-anchor="start" x="381.12" y="-900.5" font-family="Helvetica,sans-Serif" font-size="10.00">getRequiredChildByName()</text>
<text xml:space="preserve" text-anchor="start" x="368.88" y="-883.75" font-family="Helvetica,sans-Serif" font-size="10.00">+</text>
<text xml:space="preserve" text-anchor="start" x="381.12" y="-883.75" font-family="Helvetica,sans-Serif" font-size="10.00">getOptionalChildByName()</text>
<text xml:space="preserve" text-anchor="start" x="368.88" y="-867" font-family="Helvetica,sans-Serif" font-size="10.00">+</text>
<text xml:space="preserve" text-anchor="start" x="381.12" y="-867" font-family="Helvetica,sans-Serif" font-size="10.00">getChildrenByName()</text>
<text xml:space="preserve" text-anchor="start" x="368.88" y="-850.25" font-family="Helvetica,sans-Serif" font-size="10.00">+</text>
<text xml:space="preserve" text-anchor="start" x="381.12" y="-850.25" font-family="Helvetica,sans-Serif" font-size="10.00">getRequiredAttributeByName()</text>
<text xml:space="preserve" text-anchor="start" x="368.88" y="-833.5" font-family="Helvetica,sans-Serif" font-size="10.00">+</text>
<text xml:space="preserve" text-anchor="start" x="381.12" y="-833.5" font-family="Helvetica,sans-Serif" font-size="10.00">getOptionalAttributeByName()</text>
<text xml:space="preserve" text-anchor="start" x="368.88" y="-816.75" font-family="Helvetica,sans-Serif" font-size="10.00">+</text>
<text xml:space="preserve" text-anchor="start" x="381.12" y="-816.75" font-family="Helvetica,sans-Serif" font-size="10.00">createFromStream()</text>
<text xml:space="preserve" text-anchor="start" x="368.88" y="-800" font-family="Helvetica,sans-Serif" font-size="10.00">+</text>
<text xml:space="preserve" text-anchor="start" x="381.12" y="-800" font-family="Helvetica,sans-Serif" font-size="10.00">createFromString()</text>
<text xml:space="preserve" text-anchor="start" x="368.88" y="-783.25" font-family="Helvetica,sans-Serif" font-size="10.00">+</text>
<text xml:space="preserve" text-anchor="start" x="381.12" y="-783.25" font-family="Helvetica,sans-Serif" font-size="10.00">createFromFile()</text>
<text xml:space="preserve" text-anchor="start" x="368.88" y="-766.5" font-family="Helvetica,sans-Serif" font-size="10.00">#</text>
<text xml:space="preserve" text-anchor="start" x="381.12" y="-766.5" font-family="Helvetica,sans-Serif" font-size="10.00">XMLObject()</text>
<text xml:space="preserve" text-anchor="start" x="368.88" y="-749.75" font-family="Helvetica,sans-Serif" font-size="10.00">#</text>
<text xml:space="preserve" text-anchor="start" x="381.12" y="-749.75" font-family="Helvetica,sans-Serif" font-size="10.00">createObject()</text>
<polygon fill="#666666" stroke="#666666" points="364.88,-1213.5 364.88,-1213.5 536.62,-1213.5 536.62,-1213.5 364.88,-1213.5"/>
<polygon fill="#666666" stroke="#666666" points="364.88,-1062.75 364.88,-1062.75 379.12,-1062.75 379.12,-1062.75 364.88,-1062.75"/>
<polygon fill="#666666" stroke="#666666" points="379.12,-1062.75 379.12,-1062.75 536.62,-1062.75 536.62,-1062.75 379.12,-1062.75"/>
<polygon fill="none" stroke="#666666" points="364.88,-742.5 364.88,-1232.25 536.62,-1232.25 536.62,-742.5 364.88,-742.5"/>
</a>
</g>
</g>
<!-- Node5&#45;&gt;Node4 -->
<g id="edge4_Node000004_Node000005" class="edge">
<title>Node5&#45;&gt;Node4</title>
<g id="a_edge4_Node000004_Node000005"><a xlink:title=" ">
<path fill="none" stroke="#63b8ff" d="M450.75,-731.43C450.75,-722.4 450.75,-713.88 450.75,-706.03"/>
<polygon fill="none" stroke="#63b8ff" points="447.25,-731.17 450.75,-741.17 454.25,-731.17 447.25,-731.17"/>
</a>
</g>
</g>
<!-- Node7 -->
<g id="Node000007" class="node">
<title>Node7</title>
<g id="a_Node000007"><a xlink:href="classXML_1_1bpmn_1_1complexGateway.html" target="_top" xlink:title=" ">
<polygon fill="white" stroke="none" points="156.88,-54.25 2.62,-54.25 2.62,0 156.88,0 156.88,-54.25"/>
<text xml:space="preserve" text-anchor="start" x="6.62" y="-40.75" font-family="Helvetica,sans-Serif" font-size="10.00">XML::bpmn::complexGateway</text>
<text xml:space="preserve" text-anchor="start" x="16.88" y="-24" font-family="Helvetica,sans-Serif" font-size="10.00">+</text>
<text xml:space="preserve" text-anchor="start" x="39.38" y="-24" font-family="Helvetica,sans-Serif" font-size="10.00">defaults</text>
<text xml:space="preserve" text-anchor="start" x="16.88" y="-7.25" font-family="Helvetica,sans-Serif" font-size="10.00">#</text>
<text xml:space="preserve" text-anchor="start" x="39.38" y="-7.25" font-family="Helvetica,sans-Serif" font-size="10.00">complexGateway()</text>
<polygon fill="#666666" stroke="#666666" points="2.62,-35.5 2.62,-35.5 156.88,-35.5 156.88,-35.5 2.62,-35.5"/>
<polygon fill="#666666" stroke="#666666" points="2.62,-18.75 2.62,-18.75 37.38,-18.75 37.38,-18.75 2.62,-18.75"/>
<polygon fill="#666666" stroke="#666666" points="37.38,-18.75 37.38,-18.75 156.88,-18.75 156.88,-18.75 37.38,-18.75"/>
<polygon fill="none" stroke="#666666" points="2.62,0 2.62,-54.25 156.88,-54.25 156.88,0 2.62,0"/>
</a>
</g>
</g>
<!-- Node6&#45;&gt;Node7 -->
<g id="edge6_Node000006_Node000007" class="edge">
<title>Node6&#45;&gt;Node7</title>
<g id="a_edge6_Node000006_Node000007"><a xlink:title=" ">
<path fill="none" stroke="#63b8ff" d="M79.75,-79.08C79.75,-70.42 79.75,-61.82 79.75,-54.21"/>
<polygon fill="none" stroke="#63b8ff" points="76.25,-78.9 79.75,-88.9 83.25,-78.9 76.25,-78.9"/>
</a>
</g>
</g>
<!-- Node9 -->
<g id="Node000009" class="node">
<title>Node9</title>
<g id="a_Node000009"><a xlink:href="classXML_1_1bpmn_1_1eventBasedGateway.html" target="_top" xlink:title=" ">
<polygon fill="white" stroke="none" points="349.75,-54.25 179.75,-54.25 179.75,0 349.75,0 349.75,-54.25"/>
<text xml:space="preserve" text-anchor="start" x="183.75" y="-40.75" font-family="Helvetica,sans-Serif" font-size="10.00">XML::bpmn::eventBasedGateway</text>
<text xml:space="preserve" text-anchor="start" x="194" y="-24" font-family="Helvetica,sans-Serif" font-size="10.00">+</text>
<text xml:space="preserve" text-anchor="start" x="216.5" y="-24" font-family="Helvetica,sans-Serif" font-size="10.00">defaults</text>
<text xml:space="preserve" text-anchor="start" x="194" y="-7.25" font-family="Helvetica,sans-Serif" font-size="10.00">#</text>
<text xml:space="preserve" text-anchor="start" x="216.5" y="-7.25" font-family="Helvetica,sans-Serif" font-size="10.00">eventBasedGateway()</text>
<polygon fill="#666666" stroke="#666666" points="179.75,-35.5 179.75,-35.5 349.75,-35.5 349.75,-35.5 179.75,-35.5"/>
<polygon fill="#666666" stroke="#666666" points="179.75,-18.75 179.75,-18.75 214.5,-18.75 214.5,-18.75 179.75,-18.75"/>
<polygon fill="#666666" stroke="#666666" points="214.5,-18.75 214.5,-18.75 349.75,-18.75 349.75,-18.75 214.5,-18.75"/>
<polygon fill="none" stroke="#666666" points="179.75,0 179.75,-54.25 349.75,-54.25 349.75,0 179.75,0"/>
</a>
</g>
</g>
<!-- Node8&#45;&gt;Node9 -->
<g id="edge8_Node000008_Node000009" class="edge">
<title>Node8&#45;&gt;Node9</title>
<g id="a_edge8_Node000008_Node000009"><a xlink:title=" ">
<path fill="none" stroke="#63b8ff" d="M264.75,-79.08C264.75,-70.42 264.75,-61.82 264.75,-54.21"/>
<polygon fill="none" stroke="#63b8ff" points="261.25,-78.9 264.75,-88.9 268.25,-78.9 261.25,-78.9"/>
</a>
</g>
</g>
<!-- Node11 -->
<g id="Node000011" class="node">
<title>Node11</title>
<g id="a_Node000011"><a xlink:href="classXML_1_1bpmn_1_1exclusiveGateway.html" target="_top" xlink:title=" ">
<polygon fill="white" stroke="none" points="530.12,-54.25 371.38,-54.25 371.38,0 530.12,0 530.12,-54.25"/>
<text xml:space="preserve" text-anchor="start" x="375.38" y="-40.75" font-family="Helvetica,sans-Serif" font-size="10.00">XML::bpmn::exclusiveGateway</text>
<text xml:space="preserve" text-anchor="start" x="385.62" y="-24" font-family="Helvetica,sans-Serif" font-size="10.00">+</text>
<text xml:space="preserve" text-anchor="start" x="408.12" y="-24" font-family="Helvetica,sans-Serif" font-size="10.00">defaults</text>
<text xml:space="preserve" text-anchor="start" x="385.62" y="-7.25" font-family="Helvetica,sans-Serif" font-size="10.00">#</text>
<text xml:space="preserve" text-anchor="start" x="408.12" y="-7.25" font-family="Helvetica,sans-Serif" font-size="10.00">exclusiveGateway()</text>
<polygon fill="#666666" stroke="#666666" points="371.38,-35.5 371.38,-35.5 530.12,-35.5 530.12,-35.5 371.38,-35.5"/>
<polygon fill="#666666" stroke="#666666" points="371.38,-18.75 371.38,-18.75 406.12,-18.75 406.12,-18.75 371.38,-18.75"/>
<polygon fill="#666666" stroke="#666666" points="406.12,-18.75 406.12,-18.75 530.12,-18.75 530.12,-18.75 406.12,-18.75"/>
<polygon fill="none" stroke="#666666" points="371.38,0 371.38,-54.25 530.12,-54.25 530.12,0 371.38,0"/>
</a>
</g>
</g>
<!-- Node10&#45;&gt;Node11 -->
<g id="edge10_Node000010_Node000011" class="edge">
<title>Node10&#45;&gt;Node11</title>
<g id="a_edge10_Node000010_Node000011"><a xlink:title=" ">
<path fill="none" stroke="#63b8ff" d="M450.75,-87.48C450.75,-75.99 450.75,-64.05 450.75,-53.92"/>
<polygon fill="none" stroke="#63b8ff" points="447.25,-87.23 450.75,-97.23 454.25,-87.23 447.25,-87.23"/>
</a>
</g>
</g>
<!-- Node13 -->
<g id="Node000013" class="node">
<title>Node13</title>
<g id="a_Node000013"><a xlink:href="classXML_1_1bpmn_1_1inclusiveGateway.html" target="_top" xlink:title=" ">
<polygon fill="white" stroke="none" points="707.62,-54.25 551.88,-54.25 551.88,0 707.62,0 707.62,-54.25"/>
<text xml:space="preserve" text-anchor="start" x="555.88" y="-40.75" font-family="Helvetica,sans-Serif" font-size="10.00">XML::bpmn::inclusiveGateway</text>
<text xml:space="preserve" text-anchor="start" x="566.12" y="-24" font-family="Helvetica,sans-Serif" font-size="10.00">+</text>
<text xml:space="preserve" text-anchor="start" x="588.62" y="-24" font-family="Helvetica,sans-Serif" font-size="10.00">defaults</text>
<text xml:space="preserve" text-anchor="start" x="566.12" y="-7.25" font-family="Helvetica,sans-Serif" font-size="10.00">#</text>
<text xml:space="preserve" text-anchor="start" x="588.62" y="-7.25" font-family="Helvetica,sans-Serif" font-size="10.00">inclusiveGateway()</text>
<polygon fill="#666666" stroke="#666666" points="551.88,-35.5 551.88,-35.5 707.62,-35.5 707.62,-35.5 551.88,-35.5"/>
<polygon fill="#666666" stroke="#666666" points="551.88,-18.75 551.88,-18.75 586.62,-18.75 586.62,-18.75 551.88,-18.75"/>
<polygon fill="#666666" stroke="#666666" points="586.62,-18.75 586.62,-18.75 707.62,-18.75 707.62,-18.75 586.62,-18.75"/>
<polygon fill="none" stroke="#666666" points="551.88,0 551.88,-54.25 707.62,-54.25 707.62,0 551.88,0"/>
</a>
</g>
</g>
<!-- Node12&#45;&gt;Node13 -->
<g id="edge12_Node000012_Node000013" class="edge">
<title>Node12&#45;&gt;Node13</title>
<g id="a_edge12_Node000012_Node000013"><a xlink:title=" ">
<path fill="none" stroke="#63b8ff" d="M629.75,-87.48C629.75,-75.99 629.75,-64.05 629.75,-53.92"/>
<polygon fill="none" stroke="#63b8ff" points="626.25,-87.23 629.75,-97.23 633.25,-87.23 626.25,-87.23"/>
</a>
</g>
</g>
<!-- Node15 -->
<g id="Node000015" class="node">
<title>Node15</title>
<g id="a_Node000015"><a xlink:href="classXML_1_1bpmn_1_1parallelGateway.html" target="_top" xlink:title=" ">
<polygon fill="white" stroke="none" points="878.25,-54.25 729.25,-54.25 729.25,0 878.25,0 878.25,-54.25"/>
<text xml:space="preserve" text-anchor="start" x="733.25" y="-40.75" font-family="Helvetica,sans-Serif" font-size="10.00">XML::bpmn::parallelGateway</text>
<text xml:space="preserve" text-anchor="start" x="743.5" y="-24" font-family="Helvetica,sans-Serif" font-size="10.00">+</text>
<text xml:space="preserve" text-anchor="start" x="766" y="-24" font-family="Helvetica,sans-Serif" font-size="10.00">defaults</text>
<text xml:space="preserve" text-anchor="start" x="743.5" y="-7.25" font-family="Helvetica,sans-Serif" font-size="10.00">#</text>
<text xml:space="preserve" text-anchor="start" x="766" y="-7.25" font-family="Helvetica,sans-Serif" font-size="10.00">parallelGateway()</text>
<polygon fill="#666666" stroke="#666666" points="729.25,-35.5 729.25,-35.5 878.25,-35.5 878.25,-35.5 729.25,-35.5"/>
<polygon fill="#666666" stroke="#666666" points="729.25,-18.75 729.25,-18.75 764,-18.75 764,-18.75 729.25,-18.75"/>
<polygon fill="#666666" stroke="#666666" points="764,-18.75 764,-18.75 878.25,-18.75 878.25,-18.75 764,-18.75"/>
<polygon fill="none" stroke="#666666" points="729.25,0 729.25,-54.25 878.25,-54.25 878.25,0 729.25,0"/>
</a>
</g>
</g>
<!-- Node14&#45;&gt;Node15 -->
<g id="edge14_Node000014_Node000015" class="edge">
<title>Node14&#45;&gt;Node15</title>
<g id="a_edge14_Node000014_Node000015"><a xlink:title=" ">
<path fill="none" stroke="#63b8ff" d="M803.75,-96.01C803.75,-82.17 803.75,-66.78 803.75,-54.15"/>
<polygon fill="none" stroke="#63b8ff" points="800.25,-95.66 803.75,-105.66 807.25,-95.66 800.25,-95.66"/>
</a>
</g>
</g>
</g>
</svg>
