<?xml version="1.0" encoding="UTF-8" standalone="no"?>
<!DOCTYPE svg PUBLIC "-//W3C//DTD SVG 1.1//EN"
 "http://www.w3.org/Graphics/SVG/1.1/DTD/svg11.dtd">
<!-- Generated by graphviz version 2.43.0 (0)
 -->
<!-- Title: BPMN::TimerCatchEvent Pages: 1 -->
<svg width="312pt" height="933pt"
 viewBox="0.00 0.00 312.00 933.00" xmlns="http://www.w3.org/2000/svg" xmlns:xlink="http://www.w3.org/1999/xlink">
<g id="graph0" class="graph" transform="scale(1 1) rotate(0) translate(4 929)">
<title>BPMN::TimerCatchEvent</title>
<!-- Node1 -->
<g id="node1" class="node">
<title>Node1</title>
<g id="a_node1"><a xlink:title=" ">
<polygon fill="#bfbfbf" stroke="black" points="89.5,-94.5 89.5,-151.5 225.5,-151.5 225.5,-94.5 89.5,-94.5"/>
<text text-anchor="middle" x="157.5" y="-139.5" font-family="Helvetica,sans-Serif" font-size="10.00">BPMN::TimerCatchEvent</text>
<polyline fill="none" stroke="black" points="89.5,-132.5 225.5,-132.5 "/>
<text text-anchor="middle" x="157.5" y="-120.5" font-family="Helvetica,sans-Serif" font-size="10.00"> </text>
<polyline fill="none" stroke="black" points="89.5,-113.5 225.5,-113.5 "/>
<text text-anchor="start" x="97.5" y="-101.5" font-family="Helvetica,sans-Serif" font-size="10.00">+ TimerCatchEvent()</text>
</a>
</g>
</g>
<!-- Node8 -->
<g id="node8" class="node">
<title>Node8</title>
<g id="a_node8"><a xlink:href="classBPMN_1_1TimerBoundaryEvent.html" target="_top" xlink:title=" ">
<polygon fill="none" stroke="black" points="0,-0.5 0,-57.5 155,-57.5 155,-0.5 0,-0.5"/>
<text text-anchor="middle" x="77.5" y="-45.5" font-family="Helvetica,sans-Serif" font-size="10.00">BPMN::TimerBoundaryEvent</text>
<polyline fill="none" stroke="black" points="0,-38.5 155,-38.5 "/>
<text text-anchor="start" x="8" y="-26.5" font-family="Helvetica,sans-Serif" font-size="10.00">+ element</text>
<polyline fill="none" stroke="black" points="0,-19.5 155,-19.5 "/>
<text text-anchor="start" x="8" y="-7.5" font-family="Helvetica,sans-Serif" font-size="10.00">+ TimerBoundaryEvent()</text>
</a>
</g>
</g>
<!-- Node1&#45;&gt;Node8 -->
<g id="edge7" class="edge">
<title>Node1&#45;&gt;Node8</title>
<path fill="none" stroke="midnightblue" d="M126.9,-86.81C118.48,-77.13 109.47,-66.77 101.49,-57.58"/>
<polygon fill="none" stroke="midnightblue" points="124.29,-89.15 133.5,-94.4 129.58,-84.55 124.29,-89.15"/>
</g>
<!-- Node9 -->
<g id="node9" class="node">
<title>Node9</title>
<g id="a_node9"><a xlink:href="classBPMN_1_1TimerStartEvent.html" target="_top" xlink:title=" ">
<polygon fill="none" stroke="black" points="173,-0.5 173,-57.5 304,-57.5 304,-0.5 173,-0.5"/>
<text text-anchor="middle" x="238.5" y="-45.5" font-family="Helvetica,sans-Serif" font-size="10.00">BPMN::TimerStartEvent</text>
<polyline fill="none" stroke="black" points="173,-38.5 304,-38.5 "/>
<text text-anchor="start" x="181" y="-26.5" font-family="Helvetica,sans-Serif" font-size="10.00">+ element</text>
<polyline fill="none" stroke="black" points="173,-19.5 304,-19.5 "/>
<text text-anchor="start" x="181" y="-7.5" font-family="Helvetica,sans-Serif" font-size="10.00">+ TimerStartEvent()</text>
</a>
</g>
</g>
<!-- Node1&#45;&gt;Node9 -->
<g id="edge8" class="edge">
<title>Node1&#45;&gt;Node9</title>
<path fill="none" stroke="midnightblue" d="M188.48,-86.81C197.01,-77.13 206.13,-66.77 214.21,-57.58"/>
<polygon fill="none" stroke="midnightblue" points="185.78,-84.58 181.8,-94.4 191.04,-89.2 185.78,-84.58"/>
</g>
<!-- Node2 -->
<g id="node2" class="node">
<title>Node2</title>
<g id="a_node2"><a xlink:href="classBPMN_1_1CatchEvent.html" target="_top" xlink:title=" ">
<polygon fill="none" stroke="black" points="104,-188.5 104,-245.5 211,-245.5 211,-188.5 104,-188.5"/>
<text text-anchor="middle" x="157.5" y="-233.5" font-family="Helvetica,sans-Serif" font-size="10.00">BPMN::CatchEvent</text>
<polyline fill="none" stroke="black" points="104,-226.5 211,-226.5 "/>
<text text-anchor="start" x="112" y="-214.5" font-family="Helvetica,sans-Serif" font-size="10.00">+ element</text>
<polyline fill="none" stroke="black" points="104,-207.5 211,-207.5 "/>
<text text-anchor="start" x="112" y="-195.5" font-family="Helvetica,sans-Serif" font-size="10.00">+ CatchEvent()</text>
</a>
</g>
</g>
<!-- Node2&#45;&gt;Node1 -->
<g id="edge1" class="edge">
<title>Node2&#45;&gt;Node1</title>
<path fill="none" stroke="midnightblue" d="M157.5,-178.21C157.5,-169.29 157.5,-159.95 157.5,-151.58"/>
<polygon fill="none" stroke="midnightblue" points="154,-178.4 157.5,-188.4 161,-178.4 154,-178.4"/>
</g>
<!-- Node3 -->
<g id="node3" class="node">
<title>Node3</title>
<g id="a_node3"><a xlink:href="classBPMN_1_1Event.html" target="_top" xlink:title=" ">
<polygon fill="none" stroke="black" points="117.5,-282.5 117.5,-339.5 197.5,-339.5 197.5,-282.5 117.5,-282.5"/>
<text text-anchor="middle" x="157.5" y="-327.5" font-family="Helvetica,sans-Serif" font-size="10.00">BPMN::Event</text>
<polyline fill="none" stroke="black" points="117.5,-320.5 197.5,-320.5 "/>
<text text-anchor="start" x="125.5" y="-308.5" font-family="Helvetica,sans-Serif" font-size="10.00">+ element</text>
<polyline fill="none" stroke="black" points="117.5,-301.5 197.5,-301.5 "/>
<text text-anchor="start" x="125.5" y="-289.5" font-family="Helvetica,sans-Serif" font-size="10.00">+ Event()</text>
</a>
</g>
</g>
<!-- Node3&#45;&gt;Node2 -->
<g id="edge2" class="edge">
<title>Node3&#45;&gt;Node2</title>
<path fill="none" stroke="midnightblue" d="M157.5,-272.21C157.5,-263.29 157.5,-253.95 157.5,-245.58"/>
<polygon fill="none" stroke="midnightblue" points="154,-272.4 157.5,-282.4 161,-272.4 154,-272.4"/>
</g>
<!-- Node4 -->
<g id="node4" class="node">
<title>Node4</title>
<g id="a_node4"><a xlink:href="classBPMN_1_1FlowNode.html" target="_top" xlink:title="Base class for BPMN elements that may contain incoming and outgoing sequence flows.">
<polygon fill="none" stroke="black" points="107,-376.5 107,-466.5 208,-466.5 208,-376.5 107,-376.5"/>
<text text-anchor="middle" x="157.5" y="-454.5" font-family="Helvetica,sans-Serif" font-size="10.00">BPMN::FlowNode</text>
<polyline fill="none" stroke="black" points="107,-447.5 208,-447.5 "/>
<text text-anchor="start" x="115" y="-435.5" font-family="Helvetica,sans-Serif" font-size="10.00">+ element</text>
<text text-anchor="start" x="115" y="-424.5" font-family="Helvetica,sans-Serif" font-size="10.00">+ name</text>
<text text-anchor="start" x="115" y="-413.5" font-family="Helvetica,sans-Serif" font-size="10.00">+ incoming</text>
<text text-anchor="start" x="115" y="-402.5" font-family="Helvetica,sans-Serif" font-size="10.00">+ outgoing</text>
<polyline fill="none" stroke="black" points="107,-395.5 208,-395.5 "/>
<text text-anchor="start" x="115" y="-383.5" font-family="Helvetica,sans-Serif" font-size="10.00">+ FlowNode()</text>
</a>
</g>
</g>
<!-- Node4&#45;&gt;Node3 -->
<g id="edge3" class="edge">
<title>Node4&#45;&gt;Node3</title>
<path fill="none" stroke="midnightblue" d="M157.5,-366.35C157.5,-357.07 157.5,-347.79 157.5,-339.59"/>
<polygon fill="none" stroke="midnightblue" points="154,-366.37 157.5,-376.37 161,-366.37 154,-366.37"/>
</g>
<!-- Node5 -->
<g id="node5" class="node">
<title>Node5</title>
<g id="a_node5"><a xlink:href="classBPMN_1_1ChildNode.html" target="_top" xlink:title="Base class for BPMN elements within a Scope.">
<polygon fill="none" stroke="black" points="106.5,-503.5 106.5,-560.5 208.5,-560.5 208.5,-503.5 106.5,-503.5"/>
<text text-anchor="middle" x="157.5" y="-548.5" font-family="Helvetica,sans-Serif" font-size="10.00">BPMN::ChildNode</text>
<polyline fill="none" stroke="black" points="106.5,-541.5 208.5,-541.5 "/>
<text text-anchor="start" x="114.5" y="-529.5" font-family="Helvetica,sans-Serif" font-size="10.00">+ parent</text>
<polyline fill="none" stroke="black" points="106.5,-522.5 208.5,-522.5 "/>
<text text-anchor="start" x="114.5" y="-510.5" font-family="Helvetica,sans-Serif" font-size="10.00">+ ChildNode()</text>
</a>
</g>
</g>
<!-- Node5&#45;&gt;Node4 -->
<g id="edge4" class="edge">
<title>Node5&#45;&gt;Node4</title>
<path fill="none" stroke="midnightblue" d="M157.5,-493.21C157.5,-484.61 157.5,-475.39 157.5,-466.55"/>
<polygon fill="none" stroke="midnightblue" points="154,-493.34 157.5,-503.34 161,-493.34 154,-493.34"/>
</g>
<!-- Node6 -->
<g id="node6" class="node">
<title>Node6</title>
<g id="a_node6"><a xlink:href="classBPMN_1_1Node.html" target="_top" xlink:title="Base class for all nodes in a BPMN model.">
<polygon fill="none" stroke="black" points="119,-597.5 119,-709.5 196,-709.5 196,-597.5 119,-597.5"/>
<text text-anchor="middle" x="157.5" y="-697.5" font-family="Helvetica,sans-Serif" font-size="10.00">BPMN::Node</text>
<polyline fill="none" stroke="black" points="119,-690.5 196,-690.5 "/>
<text text-anchor="start" x="127" y="-678.5" font-family="Helvetica,sans-Serif" font-size="10.00">+ receiving</text>
<text text-anchor="start" x="127" y="-667.5" font-family="Helvetica,sans-Serif" font-size="10.00">+ sending</text>
<polyline fill="none" stroke="black" points="119,-660.5 196,-660.5 "/>
<text text-anchor="start" x="127" y="-648.5" font-family="Helvetica,sans-Serif" font-size="10.00">+ Node()</text>
<text text-anchor="start" x="127" y="-637.5" font-family="Helvetica,sans-Serif" font-size="10.00">+ find()</text>
<text text-anchor="start" x="127" y="-626.5" font-family="Helvetica,sans-Serif" font-size="10.00">+ find()</text>
<text text-anchor="start" x="127" y="-615.5" font-family="Helvetica,sans-Serif" font-size="10.00">+ find_all()</text>
<text text-anchor="start" x="127" y="-604.5" font-family="Helvetica,sans-Serif" font-size="10.00">+ find_all()</text>
</a>
</g>
</g>
<!-- Node6&#45;&gt;Node5 -->
<g id="edge5" class="edge">
<title>Node6&#45;&gt;Node5</title>
<path fill="none" stroke="midnightblue" d="M157.5,-587.15C157.5,-577.82 157.5,-568.67 157.5,-560.63"/>
<polygon fill="none" stroke="midnightblue" points="154,-587.3 157.5,-597.3 161,-587.3 154,-587.3"/>
</g>
<!-- Node7 -->
<g id="node7" class="node">
<title>Node7</title>
<g id="a_node7"><a xlink:href="classBPMN_1_1BaseElement.html" target="_top" xlink:title="Base class for all elements in a BPMN model.">
<polygon fill="none" stroke="black" points="96.5,-746.5 96.5,-924.5 218.5,-924.5 218.5,-746.5 96.5,-746.5"/>
<text text-anchor="middle" x="157.5" y="-912.5" font-family="Helvetica,sans-Serif" font-size="10.00">BPMN::BaseElement</text>
<polyline fill="none" stroke="black" points="96.5,-905.5 218.5,-905.5 "/>
<text text-anchor="start" x="104.5" y="-893.5" font-family="Helvetica,sans-Serif" font-size="10.00">+ id</text>
<text text-anchor="start" x="104.5" y="-882.5" font-family="Helvetica,sans-Serif" font-size="10.00">+ element</text>
<text text-anchor="start" x="104.5" y="-871.5" font-family="Helvetica,sans-Serif" font-size="10.00">+ extensionElements</text>
<polyline fill="none" stroke="black" points="96.5,-864.5 218.5,-864.5 "/>
<text text-anchor="start" x="104.5" y="-852.5" font-family="Helvetica,sans-Serif" font-size="10.00">+ BaseElement()</text>
<text text-anchor="start" x="104.5" y="-841.5" font-family="Helvetica,sans-Serif" font-size="10.00">+ ~BaseElement()</text>
<text text-anchor="start" x="104.5" y="-830.5" font-family="Helvetica,sans-Serif" font-size="10.00">+ is()</text>
<text text-anchor="start" x="104.5" y="-819.5" font-family="Helvetica,sans-Serif" font-size="10.00">+ is()</text>
<text text-anchor="start" x="104.5" y="-808.5" font-family="Helvetica,sans-Serif" font-size="10.00">+ get()</text>
<text text-anchor="start" x="104.5" y="-797.5" font-family="Helvetica,sans-Serif" font-size="10.00">+ get()</text>
<text text-anchor="start" x="104.5" y="-786.5" font-family="Helvetica,sans-Serif" font-size="10.00">+ represents()</text>
<text text-anchor="start" x="104.5" y="-775.5" font-family="Helvetica,sans-Serif" font-size="10.00">+ represents()</text>
<text text-anchor="start" x="104.5" y="-764.5" font-family="Helvetica,sans-Serif" font-size="10.00">+ as()</text>
<text text-anchor="start" x="104.5" y="-753.5" font-family="Helvetica,sans-Serif" font-size="10.00">+ as()</text>
</a>
</g>
</g>
<!-- Node7&#45;&gt;Node6 -->
<g id="edge6" class="edge">
<title>Node7&#45;&gt;Node6</title>
<path fill="none" stroke="midnightblue" d="M157.5,-736.12C157.5,-727.1 157.5,-718.18 157.5,-709.75"/>
<polygon fill="none" stroke="midnightblue" points="154,-736.35 157.5,-746.35 161,-736.35 154,-736.35"/>
</g>
</g>
</svg>
