<?xml version="1.0" encoding="UTF-8" standalone="no"?>
<!DOCTYPE svg PUBLIC "-//W3C//DTD SVG 1.1//EN"
 "http://www.w3.org/Graphics/SVG/1.1/DTD/svg11.dtd">
<!-- Generated by graphviz version 2.43.0 (0)
 -->
<!-- Title: BPMN::ConditionalStartEvent Pages: 1 -->
<svg width="320pt" height="1016pt"
 viewBox="0.00 0.00 320.00 1016.00" xmlns="http://www.w3.org/2000/svg" xmlns:xlink="http://www.w3.org/1999/xlink">
<g id="graph0" class="graph" transform="scale(1 1) rotate(0) translate(4 1012)">
<title>BPMN::ConditionalStartEvent</title>
<!-- Node1 -->
<g id="node1" class="node">
<title>Node1</title>
<g id="a_node1"><a xlink:title=" ">
<polygon fill="#bfbfbf" stroke="black" points="84.5,-0.5 84.5,-57.5 242.5,-57.5 242.5,-0.5 84.5,-0.5"/>
<text text-anchor="middle" x="163.5" y="-45.5" font-family="Helvetica,sans-Serif" font-size="10.00">BPMN::ConditionalStartEvent</text>
<polyline fill="none" stroke="black" points="84.5,-38.5 242.5,-38.5 "/>
<text text-anchor="start" x="92.5" y="-26.5" font-family="Helvetica,sans-Serif" font-size="10.00">+ element</text>
<polyline fill="none" stroke="black" points="84.5,-19.5 242.5,-19.5 "/>
<text text-anchor="start" x="92.5" y="-7.5" font-family="Helvetica,sans-Serif" font-size="10.00">+ ConditionalStartEvent()</text>
</a>
</g>
</g>
<!-- Node2 -->
<g id="node2" class="node">
<title>Node2</title>
<g id="a_node2"><a xlink:href="classBPMN_1_1ConditionalCatchEvent.html" target="_top" xlink:title=" ">
<polygon fill="none" stroke="black" points="0,-94.5 0,-151.5 163,-151.5 163,-94.5 0,-94.5"/>
<text text-anchor="middle" x="81.5" y="-139.5" font-family="Helvetica,sans-Serif" font-size="10.00">BPMN::ConditionalCatchEvent</text>
<polyline fill="none" stroke="black" points="0,-132.5 163,-132.5 "/>
<text text-anchor="middle" x="81.5" y="-120.5" font-family="Helvetica,sans-Serif" font-size="10.00"> </text>
<polyline fill="none" stroke="black" points="0,-113.5 163,-113.5 "/>
<text text-anchor="start" x="8" y="-101.5" font-family="Helvetica,sans-Serif" font-size="10.00">+ ConditionalCatchEvent()</text>
</a>
</g>
</g>
<!-- Node2&#45;&gt;Node1 -->
<g id="edge1" class="edge">
<title>Node2&#45;&gt;Node1</title>
<path fill="none" stroke="midnightblue" d="M112.86,-86.81C121.49,-77.13 130.73,-66.77 138.91,-57.58"/>
<polygon fill="none" stroke="midnightblue" points="110.14,-84.6 106.1,-94.4 115.37,-89.26 110.14,-84.6"/>
</g>
<!-- Node3 -->
<g id="node3" class="node">
<title>Node3</title>
<g id="a_node3"><a xlink:href="classBPMN_1_1CatchEvent.html" target="_top" xlink:title=" ">
<polygon fill="none" stroke="black" points="110,-188.5 110,-245.5 217,-245.5 217,-188.5 110,-188.5"/>
<text text-anchor="middle" x="163.5" y="-233.5" font-family="Helvetica,sans-Serif" font-size="10.00">BPMN::CatchEvent</text>
<polyline fill="none" stroke="black" points="110,-226.5 217,-226.5 "/>
<text text-anchor="start" x="118" y="-214.5" font-family="Helvetica,sans-Serif" font-size="10.00">+ element</text>
<polyline fill="none" stroke="black" points="110,-207.5 217,-207.5 "/>
<text text-anchor="start" x="118" y="-195.5" font-family="Helvetica,sans-Serif" font-size="10.00">+ CatchEvent()</text>
</a>
</g>
</g>
<!-- Node3&#45;&gt;Node2 -->
<g id="edge2" class="edge">
<title>Node3&#45;&gt;Node2</title>
<path fill="none" stroke="midnightblue" d="M132.14,-180.81C123.51,-171.13 114.27,-160.77 106.09,-151.58"/>
<polygon fill="none" stroke="midnightblue" points="129.63,-183.26 138.9,-188.4 134.86,-178.6 129.63,-183.26"/>
</g>
<!-- Node10 -->
<g id="node10" class="node">
<title>Node10</title>
<g id="a_node10"><a xlink:href="classBPMN_1_1TypedStartEvent.html" target="_top" xlink:title="Base class for all start events with an event definition.">
<polygon fill="none" stroke="black" points="181,-94.5 181,-151.5 312,-151.5 312,-94.5 181,-94.5"/>
<text text-anchor="middle" x="246.5" y="-139.5" font-family="Helvetica,sans-Serif" font-size="10.00">BPMN::TypedStartEvent</text>
<polyline fill="none" stroke="black" points="181,-132.5 312,-132.5 "/>
<text text-anchor="start" x="189" y="-120.5" font-family="Helvetica,sans-Serif" font-size="10.00">+ isInterrupting</text>
<polyline fill="none" stroke="black" points="181,-113.5 312,-113.5 "/>
<text text-anchor="start" x="189" y="-101.5" font-family="Helvetica,sans-Serif" font-size="10.00">+ TypedStartEvent()</text>
</a>
</g>
</g>
<!-- Node3&#45;&gt;Node10 -->
<g id="edge10" class="edge">
<title>Node3&#45;&gt;Node10</title>
<path fill="none" stroke="midnightblue" d="M195.25,-180.81C203.98,-171.13 213.33,-160.77 221.61,-151.58"/>
<polygon fill="none" stroke="midnightblue" points="192.5,-178.63 188.4,-188.4 197.7,-183.32 192.5,-178.63"/>
</g>
<!-- Node4 -->
<g id="node4" class="node">
<title>Node4</title>
<g id="a_node4"><a xlink:href="classBPMN_1_1Event.html" target="_top" xlink:title=" ">
<polygon fill="none" stroke="black" points="123.5,-282.5 123.5,-339.5 203.5,-339.5 203.5,-282.5 123.5,-282.5"/>
<text text-anchor="middle" x="163.5" y="-327.5" font-family="Helvetica,sans-Serif" font-size="10.00">BPMN::Event</text>
<polyline fill="none" stroke="black" points="123.5,-320.5 203.5,-320.5 "/>
<text text-anchor="start" x="131.5" y="-308.5" font-family="Helvetica,sans-Serif" font-size="10.00">+ element</text>
<polyline fill="none" stroke="black" points="123.5,-301.5 203.5,-301.5 "/>
<text text-anchor="start" x="131.5" y="-289.5" font-family="Helvetica,sans-Serif" font-size="10.00">+ Event()</text>
</a>
</g>
</g>
<!-- Node4&#45;&gt;Node3 -->
<g id="edge3" class="edge">
<title>Node4&#45;&gt;Node3</title>
<path fill="none" stroke="midnightblue" d="M163.5,-272.21C163.5,-263.29 163.5,-253.95 163.5,-245.58"/>
<polygon fill="none" stroke="midnightblue" points="160,-272.4 163.5,-282.4 167,-272.4 160,-272.4"/>
</g>
<!-- Node5 -->
<g id="node5" class="node">
<title>Node5</title>
<g id="a_node5"><a xlink:href="classBPMN_1_1FlowNode.html" target="_top" xlink:title="Base class for BPMN elements that may contain incoming and outgoing sequence flows.">
<polygon fill="none" stroke="black" points="113,-376.5 113,-466.5 214,-466.5 214,-376.5 113,-376.5"/>
<text text-anchor="middle" x="163.5" y="-454.5" font-family="Helvetica,sans-Serif" font-size="10.00">BPMN::FlowNode</text>
<polyline fill="none" stroke="black" points="113,-447.5 214,-447.5 "/>
<text text-anchor="start" x="121" y="-435.5" font-family="Helvetica,sans-Serif" font-size="10.00">+ element</text>
<text text-anchor="start" x="121" y="-424.5" font-family="Helvetica,sans-Serif" font-size="10.00">+ name</text>
<text text-anchor="start" x="121" y="-413.5" font-family="Helvetica,sans-Serif" font-size="10.00">+ incoming</text>
<text text-anchor="start" x="121" y="-402.5" font-family="Helvetica,sans-Serif" font-size="10.00">+ outgoing</text>
<polyline fill="none" stroke="black" points="113,-395.5 214,-395.5 "/>
<text text-anchor="start" x="121" y="-383.5" font-family="Helvetica,sans-Serif" font-size="10.00">+ FlowNode()</text>
</a>
</g>
</g>
<!-- Node5&#45;&gt;Node4 -->
<g id="edge4" class="edge">
<title>Node5&#45;&gt;Node4</title>
<path fill="none" stroke="midnightblue" d="M163.5,-366.35C163.5,-357.07 163.5,-347.79 163.5,-339.59"/>
<polygon fill="none" stroke="midnightblue" points="160,-366.37 163.5,-376.37 167,-366.37 160,-366.37"/>
</g>
<!-- Node6 -->
<g id="node6" class="node">
<title>Node6</title>
<g id="a_node6"><a xlink:href="classBPMN_1_1ChildNode.html" target="_top" xlink:title="Base class for BPMN elements within a Scope.">
<polygon fill="none" stroke="black" points="112.5,-503.5 112.5,-560.5 214.5,-560.5 214.5,-503.5 112.5,-503.5"/>
<text text-anchor="middle" x="163.5" y="-548.5" font-family="Helvetica,sans-Serif" font-size="10.00">BPMN::ChildNode</text>
<polyline fill="none" stroke="black" points="112.5,-541.5 214.5,-541.5 "/>
<text text-anchor="start" x="120.5" y="-529.5" font-family="Helvetica,sans-Serif" font-size="10.00">+ parent</text>
<polyline fill="none" stroke="black" points="112.5,-522.5 214.5,-522.5 "/>
<text text-anchor="start" x="120.5" y="-510.5" font-family="Helvetica,sans-Serif" font-size="10.00">+ ChildNode()</text>
</a>
</g>
</g>
<!-- Node6&#45;&gt;Node5 -->
<g id="edge5" class="edge">
<title>Node6&#45;&gt;Node5</title>
<path fill="none" stroke="midnightblue" d="M163.5,-493.21C163.5,-484.61 163.5,-475.39 163.5,-466.55"/>
<polygon fill="none" stroke="midnightblue" points="160,-493.34 163.5,-503.34 167,-493.34 160,-493.34"/>
</g>
<!-- Node7 -->
<g id="node7" class="node">
<title>Node7</title>
<g id="a_node7"><a xlink:href="classBPMN_1_1Node.html" target="_top" xlink:title="Base class for all nodes in a BPMN model.">
<polygon fill="none" stroke="black" points="125,-597.5 125,-709.5 202,-709.5 202,-597.5 125,-597.5"/>
<text text-anchor="middle" x="163.5" y="-697.5" font-family="Helvetica,sans-Serif" font-size="10.00">BPMN::Node</text>
<polyline fill="none" stroke="black" points="125,-690.5 202,-690.5 "/>
<text text-anchor="start" x="133" y="-678.5" font-family="Helvetica,sans-Serif" font-size="10.00">+ receiving</text>
<text text-anchor="start" x="133" y="-667.5" font-family="Helvetica,sans-Serif" font-size="10.00">+ sending</text>
<polyline fill="none" stroke="black" points="125,-660.5 202,-660.5 "/>
<text text-anchor="start" x="133" y="-648.5" font-family="Helvetica,sans-Serif" font-size="10.00">+ Node()</text>
<text text-anchor="start" x="133" y="-637.5" font-family="Helvetica,sans-Serif" font-size="10.00">+ find()</text>
<text text-anchor="start" x="133" y="-626.5" font-family="Helvetica,sans-Serif" font-size="10.00">+ find()</text>
<text text-anchor="start" x="133" y="-615.5" font-family="Helvetica,sans-Serif" font-size="10.00">+ find_all()</text>
<text text-anchor="start" x="133" y="-604.5" font-family="Helvetica,sans-Serif" font-size="10.00">+ find_all()</text>
</a>
</g>
</g>
<!-- Node7&#45;&gt;Node6 -->
<g id="edge6" class="edge">
<title>Node7&#45;&gt;Node6</title>
<path fill="none" stroke="midnightblue" d="M163.5,-587.15C163.5,-577.82 163.5,-568.67 163.5,-560.63"/>
<polygon fill="none" stroke="midnightblue" points="160,-587.3 163.5,-597.3 167,-587.3 160,-587.3"/>
</g>
<!-- Node8 -->
<g id="node8" class="node">
<title>Node8</title>
<g id="a_node8"><a xlink:href="classBPMN_1_1BaseElement.html" target="_top" xlink:title="Base class for all core BPMN elements.">
<polygon fill="none" stroke="black" points="102.5,-746.5 102.5,-869.5 224.5,-869.5 224.5,-746.5 102.5,-746.5"/>
<text text-anchor="middle" x="163.5" y="-857.5" font-family="Helvetica,sans-Serif" font-size="10.00">BPMN::BaseElement</text>
<polyline fill="none" stroke="black" points="102.5,-850.5 224.5,-850.5 "/>
<text text-anchor="start" x="110.5" y="-838.5" font-family="Helvetica,sans-Serif" font-size="10.00">+ element</text>
<text text-anchor="start" x="110.5" y="-827.5" font-family="Helvetica,sans-Serif" font-size="10.00">+ id</text>
<text text-anchor="start" x="110.5" y="-816.5" font-family="Helvetica,sans-Serif" font-size="10.00">+ extensionElements</text>
<polyline fill="none" stroke="black" points="102.5,-809.5 224.5,-809.5 "/>
<text text-anchor="start" x="110.5" y="-797.5" font-family="Helvetica,sans-Serif" font-size="10.00">+ BaseElement()</text>
<text text-anchor="start" x="110.5" y="-786.5" font-family="Helvetica,sans-Serif" font-size="10.00">+ is()</text>
<text text-anchor="start" x="110.5" y="-775.5" font-family="Helvetica,sans-Serif" font-size="10.00">+ is()</text>
<text text-anchor="start" x="110.5" y="-764.5" font-family="Helvetica,sans-Serif" font-size="10.00">+ get()</text>
<text text-anchor="start" x="110.5" y="-753.5" font-family="Helvetica,sans-Serif" font-size="10.00">+ get()</text>
</a>
</g>
</g>
<!-- Node8&#45;&gt;Node7 -->
<g id="edge7" class="edge">
<title>Node8&#45;&gt;Node7</title>
<path fill="none" stroke="midnightblue" d="M163.5,-736.25C163.5,-727.29 163.5,-718.23 163.5,-709.56"/>
<polygon fill="none" stroke="midnightblue" points="160,-736.29 163.5,-746.29 167,-736.29 160,-736.29"/>
</g>
<!-- Node9 -->
<g id="node9" class="node">
<title>Node9</title>
<g id="a_node9"><a xlink:href="classBPMN_1_1Element.html" target="_top" xlink:title="Abstract base class for all elements in a BPMN model.">
<polygon fill="none" stroke="black" points="117.5,-906.5 117.5,-1007.5 209.5,-1007.5 209.5,-906.5 117.5,-906.5"/>
<text text-anchor="middle" x="163.5" y="-995.5" font-family="Helvetica,sans-Serif" font-size="10.00">BPMN::Element</text>
<polyline fill="none" stroke="black" points="117.5,-988.5 209.5,-988.5 "/>
<text text-anchor="middle" x="163.5" y="-976.5" font-family="Helvetica,sans-Serif" font-size="10.00"> </text>
<polyline fill="none" stroke="black" points="117.5,-969.5 209.5,-969.5 "/>
<text text-anchor="start" x="125.5" y="-957.5" font-family="Helvetica,sans-Serif" font-size="10.00">+ ~Element()</text>
<text text-anchor="start" x="125.5" y="-946.5" font-family="Helvetica,sans-Serif" font-size="10.00">+ represents()</text>
<text text-anchor="start" x="125.5" y="-935.5" font-family="Helvetica,sans-Serif" font-size="10.00">+ represents()</text>
<text text-anchor="start" x="125.5" y="-924.5" font-family="Helvetica,sans-Serif" font-size="10.00">+ as()</text>
<text text-anchor="start" x="125.5" y="-913.5" font-family="Helvetica,sans-Serif" font-size="10.00">+ as()</text>
</a>
</g>
</g>
<!-- Node9&#45;&gt;Node8 -->
<g id="edge8" class="edge">
<title>Node9&#45;&gt;Node8</title>
<path fill="none" stroke="midnightblue" d="M163.5,-896.14C163.5,-887.41 163.5,-878.42 163.5,-869.67"/>
<polygon fill="none" stroke="midnightblue" points="160,-896.23 163.5,-906.23 167,-896.23 160,-896.23"/>
</g>
<!-- Node10&#45;&gt;Node1 -->
<g id="edge9" class="edge">
<title>Node10&#45;&gt;Node1</title>
<path fill="none" stroke="midnightblue" d="M214.75,-86.81C206.02,-77.13 196.67,-66.77 188.39,-57.58"/>
<polygon fill="none" stroke="midnightblue" points="212.3,-89.32 221.6,-94.4 217.5,-84.63 212.3,-89.32"/>
</g>
</g>
</svg>
