<?xml version="1.0" encoding="UTF-8" standalone="no"?>
<!DOCTYPE svg PUBLIC "-//W3C//DTD SVG 1.1//EN"
 "http://www.w3.org/Graphics/SVG/1.1/DTD/svg11.dtd">
<!-- Generated by graphviz version 2.43.0 (0)
 -->
<!-- Title: BPMN::EscalationBoundaryEvent Pages: 1 -->
<svg width="197pt" height="1049pt"
 viewBox="0.00 0.00 197.00 1049.00" xmlns="http://www.w3.org/2000/svg" xmlns:xlink="http://www.w3.org/1999/xlink">
<g id="graph0" class="graph" transform="scale(1 1) rotate(0) translate(4 1045)">
<title>BPMN::EscalationBoundaryEvent</title>
<!-- Node1 -->
<g id="node1" class="node">
<title>Node1</title>
<g id="a_node1"><a xlink:title=" ">
<polygon fill="#bfbfbf" stroke="black" points="0,-0.5 0,-68.5 160,-68.5 160,-0.5 0,-0.5"/>
<text text-anchor="start" x="8" y="-56.5" font-family="Helvetica,sans-Serif" font-size="10.00">BPMN::EscalationBoundary</text>
<text text-anchor="middle" x="80" y="-45.5" font-family="Helvetica,sans-Serif" font-size="10.00">Event</text>
<polyline fill="none" stroke="black" points="0,-38.5 160,-38.5 "/>
<text text-anchor="start" x="8" y="-26.5" font-family="Helvetica,sans-Serif" font-size="10.00">+ element</text>
<polyline fill="none" stroke="black" points="0,-19.5 160,-19.5 "/>
<text text-anchor="start" x="8" y="-7.5" font-family="Helvetica,sans-Serif" font-size="10.00">+ EscalationBoundaryEvent()</text>
</a>
</g>
</g>
<!-- Node2 -->
<g id="node2" class="node">
<title>Node2</title>
<g id="a_node2"><a xlink:href="classBPMN_1_1BoundaryEvent.html" target="_top" xlink:title="Base class for all boundary events attached to an Activity.">
<polygon fill="none" stroke="black" points="63,-105.5 63,-184.5 189,-184.5 189,-105.5 63,-105.5"/>
<text text-anchor="middle" x="126" y="-172.5" font-family="Helvetica,sans-Serif" font-size="10.00">BPMN::BoundaryEvent</text>
<polyline fill="none" stroke="black" points="63,-165.5 189,-165.5 "/>
<text text-anchor="start" x="71" y="-153.5" font-family="Helvetica,sans-Serif" font-size="10.00">+ isInterrupting</text>
<text text-anchor="start" x="71" y="-142.5" font-family="Helvetica,sans-Serif" font-size="10.00">+ attachedTo</text>
<polyline fill="none" stroke="black" points="63,-135.5 189,-135.5 "/>
<text text-anchor="start" x="71" y="-123.5" font-family="Helvetica,sans-Serif" font-size="10.00">+ BoundaryEvent()</text>
<text text-anchor="start" x="71" y="-112.5" font-family="Helvetica,sans-Serif" font-size="10.00"># resolveReference()</text>
</a>
</g>
</g>
<!-- Node2&#45;&gt;Node1 -->
<g id="edge1" class="edge">
<title>Node2&#45;&gt;Node1</title>
<path fill="none" stroke="midnightblue" d="M105.75,-96.23C101.78,-86.88 97.71,-77.28 94.01,-68.54"/>
<polygon fill="none" stroke="midnightblue" points="102.53,-97.6 109.65,-105.44 108.97,-94.87 102.53,-97.6"/>
</g>
<!-- Node3 -->
<g id="node3" class="node">
<title>Node3</title>
<g id="a_node3"><a xlink:href="classBPMN_1_1CatchEvent.html" target="_top" xlink:title=" ">
<polygon fill="none" stroke="black" points="26.5,-221.5 26.5,-278.5 133.5,-278.5 133.5,-221.5 26.5,-221.5"/>
<text text-anchor="middle" x="80" y="-266.5" font-family="Helvetica,sans-Serif" font-size="10.00">BPMN::CatchEvent</text>
<polyline fill="none" stroke="black" points="26.5,-259.5 133.5,-259.5 "/>
<text text-anchor="start" x="34.5" y="-247.5" font-family="Helvetica,sans-Serif" font-size="10.00">+ element</text>
<polyline fill="none" stroke="black" points="26.5,-240.5 133.5,-240.5 "/>
<text text-anchor="start" x="34.5" y="-228.5" font-family="Helvetica,sans-Serif" font-size="10.00">+ CatchEvent()</text>
</a>
</g>
</g>
<!-- Node3&#45;&gt;Node1 -->
<g id="edge9" class="edge">
<title>Node3&#45;&gt;Node1</title>
<path fill="none" stroke="midnightblue" d="M62.14,-211.94C58.77,-203.29 55.75,-193.98 54,-185 47.18,-150.1 47.67,-139.99 54,-105 56.2,-92.83 60.41,-80.01 64.81,-68.75"/>
<polygon fill="none" stroke="midnightblue" points="58.99,-213.47 66.05,-221.37 65.46,-210.79 58.99,-213.47"/>
</g>
<!-- Node3&#45;&gt;Node2 -->
<g id="edge2" class="edge">
<title>Node3&#45;&gt;Node2</title>
<path fill="none" stroke="midnightblue" d="M96.52,-212.01C100.51,-203.08 104.78,-193.52 108.8,-184.52"/>
<polygon fill="none" stroke="midnightblue" points="93.21,-210.84 92.33,-221.4 99.6,-213.69 93.21,-210.84"/>
</g>
<!-- Node4 -->
<g id="node4" class="node">
<title>Node4</title>
<g id="a_node4"><a xlink:href="classBPMN_1_1Event.html" target="_top" xlink:title=" ">
<polygon fill="none" stroke="black" points="40,-315.5 40,-372.5 120,-372.5 120,-315.5 40,-315.5"/>
<text text-anchor="middle" x="80" y="-360.5" font-family="Helvetica,sans-Serif" font-size="10.00">BPMN::Event</text>
<polyline fill="none" stroke="black" points="40,-353.5 120,-353.5 "/>
<text text-anchor="start" x="48" y="-341.5" font-family="Helvetica,sans-Serif" font-size="10.00">+ element</text>
<polyline fill="none" stroke="black" points="40,-334.5 120,-334.5 "/>
<text text-anchor="start" x="48" y="-322.5" font-family="Helvetica,sans-Serif" font-size="10.00">+ Event()</text>
</a>
</g>
</g>
<!-- Node4&#45;&gt;Node3 -->
<g id="edge3" class="edge">
<title>Node4&#45;&gt;Node3</title>
<path fill="none" stroke="midnightblue" d="M80,-305.21C80,-296.29 80,-286.95 80,-278.58"/>
<polygon fill="none" stroke="midnightblue" points="76.5,-305.4 80,-315.4 83.5,-305.4 76.5,-305.4"/>
</g>
<!-- Node5 -->
<g id="node5" class="node">
<title>Node5</title>
<g id="a_node5"><a xlink:href="classBPMN_1_1FlowNode.html" target="_top" xlink:title="Base class for BPMN elements that may contain incoming and outgoing sequence flows.">
<polygon fill="none" stroke="black" points="29.5,-409.5 29.5,-499.5 130.5,-499.5 130.5,-409.5 29.5,-409.5"/>
<text text-anchor="middle" x="80" y="-487.5" font-family="Helvetica,sans-Serif" font-size="10.00">BPMN::FlowNode</text>
<polyline fill="none" stroke="black" points="29.5,-480.5 130.5,-480.5 "/>
<text text-anchor="start" x="37.5" y="-468.5" font-family="Helvetica,sans-Serif" font-size="10.00">+ element</text>
<text text-anchor="start" x="37.5" y="-457.5" font-family="Helvetica,sans-Serif" font-size="10.00">+ name</text>
<text text-anchor="start" x="37.5" y="-446.5" font-family="Helvetica,sans-Serif" font-size="10.00">+ incoming</text>
<text text-anchor="start" x="37.5" y="-435.5" font-family="Helvetica,sans-Serif" font-size="10.00">+ outgoing</text>
<polyline fill="none" stroke="black" points="29.5,-428.5 130.5,-428.5 "/>
<text text-anchor="start" x="37.5" y="-416.5" font-family="Helvetica,sans-Serif" font-size="10.00">+ FlowNode()</text>
</a>
</g>
</g>
<!-- Node5&#45;&gt;Node4 -->
<g id="edge4" class="edge">
<title>Node5&#45;&gt;Node4</title>
<path fill="none" stroke="midnightblue" d="M80,-399.35C80,-390.07 80,-380.79 80,-372.59"/>
<polygon fill="none" stroke="midnightblue" points="76.5,-399.37 80,-409.37 83.5,-399.37 76.5,-399.37"/>
</g>
<!-- Node6 -->
<g id="node6" class="node">
<title>Node6</title>
<g id="a_node6"><a xlink:href="classBPMN_1_1ChildNode.html" target="_top" xlink:title="Base class for BPMN elements within a Scope.">
<polygon fill="none" stroke="black" points="29,-536.5 29,-593.5 131,-593.5 131,-536.5 29,-536.5"/>
<text text-anchor="middle" x="80" y="-581.5" font-family="Helvetica,sans-Serif" font-size="10.00">BPMN::ChildNode</text>
<polyline fill="none" stroke="black" points="29,-574.5 131,-574.5 "/>
<text text-anchor="start" x="37" y="-562.5" font-family="Helvetica,sans-Serif" font-size="10.00">+ parent</text>
<polyline fill="none" stroke="black" points="29,-555.5 131,-555.5 "/>
<text text-anchor="start" x="37" y="-543.5" font-family="Helvetica,sans-Serif" font-size="10.00">+ ChildNode()</text>
</a>
</g>
</g>
<!-- Node6&#45;&gt;Node5 -->
<g id="edge5" class="edge">
<title>Node6&#45;&gt;Node5</title>
<path fill="none" stroke="midnightblue" d="M80,-526.21C80,-517.61 80,-508.39 80,-499.55"/>
<polygon fill="none" stroke="midnightblue" points="76.5,-526.34 80,-536.34 83.5,-526.34 76.5,-526.34"/>
</g>
<!-- Node7 -->
<g id="node7" class="node">
<title>Node7</title>
<g id="a_node7"><a xlink:href="classBPMN_1_1Node.html" target="_top" xlink:title="Base class for all nodes in a BPMN model.">
<polygon fill="none" stroke="black" points="41.5,-630.5 41.5,-742.5 118.5,-742.5 118.5,-630.5 41.5,-630.5"/>
<text text-anchor="middle" x="80" y="-730.5" font-family="Helvetica,sans-Serif" font-size="10.00">BPMN::Node</text>
<polyline fill="none" stroke="black" points="41.5,-723.5 118.5,-723.5 "/>
<text text-anchor="start" x="49.5" y="-711.5" font-family="Helvetica,sans-Serif" font-size="10.00">+ receiving</text>
<text text-anchor="start" x="49.5" y="-700.5" font-family="Helvetica,sans-Serif" font-size="10.00">+ sending</text>
<polyline fill="none" stroke="black" points="41.5,-693.5 118.5,-693.5 "/>
<text text-anchor="start" x="49.5" y="-681.5" font-family="Helvetica,sans-Serif" font-size="10.00">+ Node()</text>
<text text-anchor="start" x="49.5" y="-670.5" font-family="Helvetica,sans-Serif" font-size="10.00">+ find()</text>
<text text-anchor="start" x="49.5" y="-659.5" font-family="Helvetica,sans-Serif" font-size="10.00">+ find()</text>
<text text-anchor="start" x="49.5" y="-648.5" font-family="Helvetica,sans-Serif" font-size="10.00">+ find_all()</text>
<text text-anchor="start" x="49.5" y="-637.5" font-family="Helvetica,sans-Serif" font-size="10.00">+ find_all()</text>
</a>
</g>
</g>
<!-- Node7&#45;&gt;Node6 -->
<g id="edge6" class="edge">
<title>Node7&#45;&gt;Node6</title>
<path fill="none" stroke="midnightblue" d="M80,-620.15C80,-610.82 80,-601.67 80,-593.63"/>
<polygon fill="none" stroke="midnightblue" points="76.5,-620.3 80,-630.3 83.5,-620.3 76.5,-620.3"/>
</g>
<!-- Node8 -->
<g id="node8" class="node">
<title>Node8</title>
<g id="a_node8"><a xlink:href="classBPMN_1_1BaseElement.html" target="_top" xlink:title="Base class for all core BPMN elements.">
<polygon fill="none" stroke="black" points="19,-779.5 19,-902.5 141,-902.5 141,-779.5 19,-779.5"/>
<text text-anchor="middle" x="80" y="-890.5" font-family="Helvetica,sans-Serif" font-size="10.00">BPMN::BaseElement</text>
<polyline fill="none" stroke="black" points="19,-883.5 141,-883.5 "/>
<text text-anchor="start" x="27" y="-871.5" font-family="Helvetica,sans-Serif" font-size="10.00">+ element</text>
<text text-anchor="start" x="27" y="-860.5" font-family="Helvetica,sans-Serif" font-size="10.00">+ id</text>
<text text-anchor="start" x="27" y="-849.5" font-family="Helvetica,sans-Serif" font-size="10.00">+ extensionElements</text>
<polyline fill="none" stroke="black" points="19,-842.5 141,-842.5 "/>
<text text-anchor="start" x="27" y="-830.5" font-family="Helvetica,sans-Serif" font-size="10.00">+ BaseElement()</text>
<text text-anchor="start" x="27" y="-819.5" font-family="Helvetica,sans-Serif" font-size="10.00">+ is()</text>
<text text-anchor="start" x="27" y="-808.5" font-family="Helvetica,sans-Serif" font-size="10.00">+ is()</text>
<text text-anchor="start" x="27" y="-797.5" font-family="Helvetica,sans-Serif" font-size="10.00">+ get()</text>
<text text-anchor="start" x="27" y="-786.5" font-family="Helvetica,sans-Serif" font-size="10.00">+ get()</text>
</a>
</g>
</g>
<!-- Node8&#45;&gt;Node7 -->
<g id="edge7" class="edge">
<title>Node8&#45;&gt;Node7</title>
<path fill="none" stroke="midnightblue" d="M80,-769.25C80,-760.29 80,-751.23 80,-742.56"/>
<polygon fill="none" stroke="midnightblue" points="76.5,-769.29 80,-779.29 83.5,-769.29 76.5,-769.29"/>
</g>
<!-- Node9 -->
<g id="node9" class="node">
<title>Node9</title>
<g id="a_node9"><a xlink:href="classBPMN_1_1Element.html" target="_top" xlink:title="Abstract base class for all elements in a BPMN model.">
<polygon fill="none" stroke="black" points="34,-939.5 34,-1040.5 126,-1040.5 126,-939.5 34,-939.5"/>
<text text-anchor="middle" x="80" y="-1028.5" font-family="Helvetica,sans-Serif" font-size="10.00">BPMN::Element</text>
<polyline fill="none" stroke="black" points="34,-1021.5 126,-1021.5 "/>
<text text-anchor="middle" x="80" y="-1009.5" font-family="Helvetica,sans-Serif" font-size="10.00"> </text>
<polyline fill="none" stroke="black" points="34,-1002.5 126,-1002.5 "/>
<text text-anchor="start" x="42" y="-990.5" font-family="Helvetica,sans-Serif" font-size="10.00">+ ~Element()</text>
<text text-anchor="start" x="42" y="-979.5" font-family="Helvetica,sans-Serif" font-size="10.00">+ represents()</text>
<text text-anchor="start" x="42" y="-968.5" font-family="Helvetica,sans-Serif" font-size="10.00">+ represents()</text>
<text text-anchor="start" x="42" y="-957.5" font-family="Helvetica,sans-Serif" font-size="10.00">+ as()</text>
<text text-anchor="start" x="42" y="-946.5" font-family="Helvetica,sans-Serif" font-size="10.00">+ as()</text>
</a>
</g>
</g>
<!-- Node9&#45;&gt;Node8 -->
<g id="edge8" class="edge">
<title>Node9&#45;&gt;Node8</title>
<path fill="none" stroke="midnightblue" d="M80,-929.14C80,-920.41 80,-911.42 80,-902.67"/>
<polygon fill="none" stroke="midnightblue" points="76.5,-929.23 80,-939.23 83.5,-929.23 76.5,-929.23"/>
</g>
</g>
</svg>
