<?xml version="1.0" encoding="UTF-8" standalone="no"?>
<!DOCTYPE svg PUBLIC "-//W3C//DTD SVG 1.1//EN"
 "http://www.w3.org/Graphics/SVG/1.1/DTD/svg11.dtd">
<!-- Generated by graphviz version 2.43.0 (0)
 -->
<!-- Title: XML::bpmn::intermediateThrowEvent Pages: 1 -->
<svg width="172pt" height="1244pt"
 viewBox="0.00 0.00 172.00 1244.00" xmlns="http://www.w3.org/2000/svg" xmlns:xlink="http://www.w3.org/1999/xlink">
<g id="graph0" class="graph" transform="scale(1 1) rotate(0) translate(4 1240)">
<title>XML::bpmn::intermediateThrowEvent</title>
<!-- Node1 -->
<g id="Node000001" class="node">
<title>Node1</title>
<g id="a_Node000001"><a xlink:title=" ">
<polygon fill="#999999" stroke="transparent" points="164,-60 0,-60 0,0 164,0 164,-60"/>
<text text-anchor="start" x="5" y="-48" font-family="Helvetica,sans-Serif" font-size="10.00">XML::bpmn::intermediateThrow</text>
<text text-anchor="start" x="68" y="-37" font-family="Helvetica,sans-Serif" font-size="10.00">Event</text>
<text text-anchor="start" x="7.5" y="-22" font-family="Helvetica,sans-Serif" font-size="10.00">+</text>
<text text-anchor="start" x="24" y="-22" font-family="Helvetica,sans-Serif" font-size="10.00">defaults</text>
<text text-anchor="start" x="7.5" y="-7" font-family="Helvetica,sans-Serif" font-size="10.00">#</text>
<text text-anchor="start" x="24" y="-7" font-family="Helvetica,sans-Serif" font-size="10.00">intermediateThrowEvent()</text>
<polygon fill="#666666" stroke="#666666" points="0,-32 0,-32 164,-32 164,-32 0,-32"/>
<polygon fill="#666666" stroke="#666666" points="0,-17 0,-17 22,-17 22,-17 0,-17"/>
<polygon fill="#666666" stroke="#666666" points="22,-17 22,-17 164,-17 164,-17 22,-17"/>
<polygon fill="none" stroke="#666666" points="0,0 0,-60 164,-60 164,0 0,0"/>
</a>
</g>
</g>
<!-- Node2 -->
<g id="Node000002" class="node">
<title>Node2</title>
<g id="a_Node000002"><a xlink:href="classXML_1_1bpmn_1_1tIntermediateThrowEvent.html" target="_top" xlink:title=" ">
<polygon fill="white" stroke="transparent" points="159,-156 5,-156 5,-96 159,-96 159,-156"/>
<text text-anchor="start" x="18" y="-144" font-family="Helvetica,sans-Serif" font-size="10.00">XML::bpmn::tIntermediate</text>
<text text-anchor="start" x="53" y="-133" font-family="Helvetica,sans-Serif" font-size="10.00">ThrowEvent</text>
<text text-anchor="start" x="9" y="-118" font-family="Helvetica,sans-Serif" font-size="10.00">+</text>
<text text-anchor="start" x="22" y="-118" font-family="Helvetica,sans-Serif" font-size="10.00">defaults</text>
<text text-anchor="start" x="9" y="-103" font-family="Helvetica,sans-Serif" font-size="10.00">#</text>
<text text-anchor="start" x="22" y="-103" font-family="Helvetica,sans-Serif" font-size="10.00">tIntermediateThrowEvent()</text>
<polygon fill="#666666" stroke="#666666" points="5,-128 5,-128 159,-128 159,-128 5,-128"/>
<polygon fill="#666666" stroke="#666666" points="5,-113 5,-113 20,-113 20,-113 5,-113"/>
<polygon fill="#666666" stroke="#666666" points="20,-113 20,-113 159,-113 159,-113 20,-113"/>
<polygon fill="none" stroke="#666666" points="5,-96 5,-156 159,-156 159,-96 5,-96"/>
</a>
</g>
</g>
<!-- Node2&#45;&gt;Node1 -->
<g id="edge1_Node000001_Node000002" class="edge">
<title>Node2&#45;&gt;Node1</title>
<g id="a_edge1_Node000001_Node000002"><a xlink:title=" ">
<path fill="none" stroke="#63b8ff" d="M82,-85.63C82,-77.11 82,-68.25 82,-60.21"/>
<polygon fill="none" stroke="#63b8ff" points="78.5,-85.77 82,-95.77 85.5,-85.77 78.5,-85.77"/>
</a>
</g>
</g>
<!-- Node3 -->
<g id="Node000003" class="node">
<title>Node3</title>
<g id="a_Node000003"><a xlink:href="classXML_1_1bpmn_1_1tThrowEvent.html" target="_top" xlink:title=" ">
<polygon fill="white" stroke="transparent" points="148.5,-316 15.5,-316 15.5,-192 148.5,-192 148.5,-316"/>
<text text-anchor="start" x="21" y="-304" font-family="Helvetica,sans-Serif" font-size="10.00">XML::bpmn::tThrowEvent</text>
<text text-anchor="start" x="22" y="-289" font-family="Helvetica,sans-Serif" font-size="10.00">+</text>
<text text-anchor="start" x="37" y="-289" font-family="Helvetica,sans-Serif" font-size="10.00">dataInput</text>
<text text-anchor="start" x="22" y="-274" font-family="Helvetica,sans-Serif" font-size="10.00">+</text>
<text text-anchor="start" x="37" y="-274" font-family="Helvetica,sans-Serif" font-size="10.00">dataInputAssociation</text>
<text text-anchor="start" x="22" y="-259" font-family="Helvetica,sans-Serif" font-size="10.00">+</text>
<text text-anchor="start" x="37" y="-259" font-family="Helvetica,sans-Serif" font-size="10.00">inputSet</text>
<text text-anchor="start" x="22" y="-244" font-family="Helvetica,sans-Serif" font-size="10.00">+</text>
<text text-anchor="start" x="37" y="-244" font-family="Helvetica,sans-Serif" font-size="10.00">eventDefinition</text>
<text text-anchor="start" x="22" y="-229" font-family="Helvetica,sans-Serif" font-size="10.00">+</text>
<text text-anchor="start" x="37" y="-229" font-family="Helvetica,sans-Serif" font-size="10.00">eventDefinitionRef</text>
<text text-anchor="start" x="22" y="-214" font-family="Helvetica,sans-Serif" font-size="10.00">+</text>
<text text-anchor="start" x="37" y="-214" font-family="Helvetica,sans-Serif" font-size="10.00">defaults</text>
<text text-anchor="start" x="22" y="-199" font-family="Helvetica,sans-Serif" font-size="10.00">#</text>
<text text-anchor="start" x="37" y="-199" font-family="Helvetica,sans-Serif" font-size="10.00">tThrowEvent()</text>
<polygon fill="#666666" stroke="#666666" points="16,-299 16,-299 149,-299 149,-299 16,-299"/>
<polygon fill="#666666" stroke="#666666" points="16,-209 16,-209 35,-209 35,-209 16,-209"/>
<polygon fill="#666666" stroke="#666666" points="35,-209 35,-209 149,-209 149,-209 35,-209"/>
<polygon fill="none" stroke="#666666" points="15.5,-192 15.5,-316 148.5,-316 148.5,-192 15.5,-192"/>
</a>
</g>
</g>
<!-- Node3&#45;&gt;Node2 -->
<g id="edge2_Node000002_Node000003" class="edge">
<title>Node3&#45;&gt;Node2</title>
<g id="a_edge2_Node000002_Node000003"><a xlink:title=" ">
<path fill="none" stroke="#63b8ff" d="M82,-181.68C82,-172.73 82,-164 82,-156.24"/>
<polygon fill="none" stroke="#63b8ff" points="78.5,-181.85 82,-191.85 85.5,-181.85 78.5,-181.85"/>
</a>
</g>
</g>
<!-- Node4 -->
<g id="Node000004" class="node">
<title>Node4</title>
<g id="a_Node000004"><a xlink:href="classXML_1_1bpmn_1_1tEvent.html" target="_top" xlink:title=" ">
<polygon fill="white" stroke="transparent" points="133.5,-416 30.5,-416 30.5,-352 133.5,-352 133.5,-416"/>
<text text-anchor="start" x="36" y="-404" font-family="Helvetica,sans-Serif" font-size="10.00">XML::bpmn::tEvent</text>
<text text-anchor="start" x="45" y="-389" font-family="Helvetica,sans-Serif" font-size="10.00">+</text>
<text text-anchor="start" x="68" y="-389" font-family="Helvetica,sans-Serif" font-size="10.00">property</text>
<text text-anchor="start" x="45" y="-374" font-family="Helvetica,sans-Serif" font-size="10.00">+</text>
<text text-anchor="start" x="68" y="-374" font-family="Helvetica,sans-Serif" font-size="10.00">defaults</text>
<text text-anchor="start" x="45" y="-359" font-family="Helvetica,sans-Serif" font-size="10.00">#</text>
<text text-anchor="start" x="68" y="-359" font-family="Helvetica,sans-Serif" font-size="10.00">tEvent()</text>
<polygon fill="#666666" stroke="#666666" points="31,-399 31,-399 134,-399 134,-399 31,-399"/>
<polygon fill="#666666" stroke="#666666" points="31,-369 31,-369 66,-369 66,-369 31,-369"/>
<polygon fill="#666666" stroke="#666666" points="66,-369 66,-369 134,-369 134,-369 66,-369"/>
<polygon fill="none" stroke="#666666" points="30.5,-352 30.5,-416 133.5,-416 133.5,-352 30.5,-352"/>
</a>
</g>
</g>
<!-- Node4&#45;&gt;Node3 -->
<g id="edge3_Node000003_Node000004" class="edge">
<title>Node4&#45;&gt;Node3</title>
<g id="a_edge3_Node000003_Node000004"><a xlink:title=" ">
<path fill="none" stroke="#63b8ff" d="M82,-341.66C82,-333.47 82,-324.71 82,-316.02"/>
<polygon fill="none" stroke="#63b8ff" points="78.5,-341.69 82,-351.69 85.5,-341.69 78.5,-341.69"/>
</a>
</g>
</g>
<!-- Node5 -->
<g id="Node000005" class="node">
<title>Node5</title>
<g id="a_Node000005"><a xlink:href="classXML_1_1bpmn_1_1tFlowNode.html" target="_top" xlink:title=" ">
<polygon fill="white" stroke="transparent" points="144,-531 20,-531 20,-452 144,-452 144,-531"/>
<text text-anchor="start" x="25" y="-518.5" font-family="Helvetica,sans-Serif" font-size="10.00">XML::bpmn::tFlowNode</text>
<text text-anchor="start" x="34.5" y="-503.5" font-family="Helvetica,sans-Serif" font-size="10.00">+</text>
<text text-anchor="start" x="58" y="-503.5" font-family="Helvetica,sans-Serif" font-size="10.00">incoming</text>
<text text-anchor="start" x="34.5" y="-488.5" font-family="Helvetica,sans-Serif" font-size="10.00">+</text>
<text text-anchor="start" x="58" y="-488.5" font-family="Helvetica,sans-Serif" font-size="10.00">outgoing</text>
<text text-anchor="start" x="34.5" y="-473.5" font-family="Helvetica,sans-Serif" font-size="10.00">+</text>
<text text-anchor="start" x="58" y="-473.5" font-family="Helvetica,sans-Serif" font-size="10.00">defaults</text>
<text text-anchor="start" x="34.5" y="-458.5" font-family="Helvetica,sans-Serif" font-size="10.00">#</text>
<text text-anchor="start" x="58" y="-458.5" font-family="Helvetica,sans-Serif" font-size="10.00">tFlowNode()</text>
<polygon fill="#666666" stroke="#666666" points="20,-513.5 20,-513.5 144,-513.5 144,-513.5 20,-513.5"/>
<polygon fill="#666666" stroke="#666666" points="20,-468.5 20,-468.5 56,-468.5 56,-468.5 20,-468.5"/>
<polygon fill="#666666" stroke="#666666" points="56,-468.5 56,-468.5 144,-468.5 144,-468.5 56,-468.5"/>
<polygon fill="none" stroke="#666666" points="20,-452 20,-531 144,-531 144,-452 20,-452"/>
</a>
</g>
</g>
<!-- Node5&#45;&gt;Node4 -->
<g id="edge4_Node000004_Node000005" class="edge">
<title>Node5&#45;&gt;Node4</title>
<g id="a_edge4_Node000004_Node000005"><a xlink:title=" ">
<path fill="none" stroke="#63b8ff" d="M82,-441.71C82,-433 82,-424.14 82,-416.09"/>
<polygon fill="none" stroke="#63b8ff" points="78.5,-441.81 82,-451.81 85.5,-441.81 78.5,-441.81"/>
</a>
</g>
</g>
<!-- Node6 -->
<g id="Node000006" class="node">
<title>Node6</title>
<g id="a_Node000006"><a xlink:href="classXML_1_1bpmn_1_1tFlowElement.html" target="_top" xlink:title=" ">
<polygon fill="white" stroke="transparent" points="151.5,-676 12.5,-676 12.5,-567 151.5,-567 151.5,-676"/>
<text text-anchor="start" x="18" y="-663.5" font-family="Helvetica,sans-Serif" font-size="10.00">XML::bpmn::tFlowElement</text>
<text text-anchor="start" x="24.5" y="-648.5" font-family="Helvetica,sans-Serif" font-size="10.00">+</text>
<text text-anchor="start" x="45" y="-648.5" font-family="Helvetica,sans-Serif" font-size="10.00">auditing</text>
<text text-anchor="start" x="24.5" y="-633.5" font-family="Helvetica,sans-Serif" font-size="10.00">+</text>
<text text-anchor="start" x="45" y="-633.5" font-family="Helvetica,sans-Serif" font-size="10.00">monitoring</text>
<text text-anchor="start" x="24.5" y="-618.5" font-family="Helvetica,sans-Serif" font-size="10.00">+</text>
<text text-anchor="start" x="45" y="-618.5" font-family="Helvetica,sans-Serif" font-size="10.00">categoryValueRef</text>
<text text-anchor="start" x="24.5" y="-603.5" font-family="Helvetica,sans-Serif" font-size="10.00">+</text>
<text text-anchor="start" x="45" y="-603.5" font-family="Helvetica,sans-Serif" font-size="10.00">name</text>
<text text-anchor="start" x="24.5" y="-588.5" font-family="Helvetica,sans-Serif" font-size="10.00">+</text>
<text text-anchor="start" x="45" y="-588.5" font-family="Helvetica,sans-Serif" font-size="10.00">defaults</text>
<text text-anchor="start" x="24.5" y="-573.5" font-family="Helvetica,sans-Serif" font-size="10.00">#</text>
<text text-anchor="start" x="45" y="-573.5" font-family="Helvetica,sans-Serif" font-size="10.00">tFlowElement()</text>
<polygon fill="#666666" stroke="#666666" points="13,-658.5 13,-658.5 152,-658.5 152,-658.5 13,-658.5"/>
<polygon fill="#666666" stroke="#666666" points="13,-583.5 13,-583.5 43,-583.5 43,-583.5 13,-583.5"/>
<polygon fill="#666666" stroke="#666666" points="43,-583.5 43,-583.5 152,-583.5 152,-583.5 43,-583.5"/>
<polygon fill="none" stroke="#666666" points="12.5,-567 12.5,-676 151.5,-676 151.5,-567 12.5,-567"/>
</a>
</g>
</g>
<!-- Node6&#45;&gt;Node5 -->
<g id="edge5_Node000005_Node000006" class="edge">
<title>Node6&#45;&gt;Node5</title>
<g id="a_edge5_Node000005_Node000006"><a xlink:title=" ">
<path fill="none" stroke="#63b8ff" d="M82,-556.7C82,-547.93 82,-539.16 82,-531.03"/>
<polygon fill="none" stroke="#63b8ff" points="78.5,-556.96 82,-566.96 85.5,-556.96 78.5,-556.96"/>
</a>
</g>
</g>
<!-- Node7 -->
<g id="Node000007" class="node">
<title>Node7</title>
<g id="a_Node000007"><a xlink:href="classXML_1_1bpmn_1_1tBaseElement.html" target="_top" xlink:title=" ">
<polygon fill="white" stroke="transparent" points="152,-806 12,-806 12,-712 152,-712 152,-806"/>
<text text-anchor="start" x="17" y="-794" font-family="Helvetica,sans-Serif" font-size="10.00">XML::bpmn::tBaseElement</text>
<text text-anchor="start" x="22" y="-779" font-family="Helvetica,sans-Serif" font-size="10.00">+</text>
<text text-anchor="start" x="41" y="-779" font-family="Helvetica,sans-Serif" font-size="10.00">documentation</text>
<text text-anchor="start" x="22" y="-764" font-family="Helvetica,sans-Serif" font-size="10.00">+</text>
<text text-anchor="start" x="41" y="-764" font-family="Helvetica,sans-Serif" font-size="10.00">extensionElements</text>
<text text-anchor="start" x="22" y="-749" font-family="Helvetica,sans-Serif" font-size="10.00">+</text>
<text text-anchor="start" x="41" y="-749" font-family="Helvetica,sans-Serif" font-size="10.00">id</text>
<text text-anchor="start" x="22" y="-734" font-family="Helvetica,sans-Serif" font-size="10.00">+</text>
<text text-anchor="start" x="41" y="-734" font-family="Helvetica,sans-Serif" font-size="10.00">defaults</text>
<text text-anchor="start" x="22" y="-719" font-family="Helvetica,sans-Serif" font-size="10.00">#</text>
<text text-anchor="start" x="41" y="-719" font-family="Helvetica,sans-Serif" font-size="10.00">tBaseElement()</text>
<polygon fill="#666666" stroke="#666666" points="12,-789 12,-789 152,-789 152,-789 12,-789"/>
<polygon fill="#666666" stroke="#666666" points="12,-729 12,-729 39,-729 39,-729 12,-729"/>
<polygon fill="#666666" stroke="#666666" points="39,-729 39,-729 152,-729 152,-729 39,-729"/>
<polygon fill="none" stroke="#666666" points="12,-712 12,-806 152,-806 152,-712 12,-712"/>
</a>
</g>
</g>
<!-- Node7&#45;&gt;Node6 -->
<g id="edge6_Node000006_Node000007" class="edge">
<title>Node7&#45;&gt;Node6</title>
<g id="a_edge6_Node000006_Node000007"><a xlink:title=" ">
<path fill="none" stroke="#63b8ff" d="M82,-701.58C82,-693.12 82,-684.41 82,-676.01"/>
<polygon fill="none" stroke="#63b8ff" points="78.5,-701.75 82,-711.75 85.5,-701.75 78.5,-701.75"/>
</a>
</g>
</g>
<!-- Node8 -->
<g id="Node000008" class="node">
<title>Node8</title>
<g id="a_Node000008"><a xlink:href="classXML_1_1XMLObject.html" target="_top" xlink:title="A class representing a node in an XML&#45;tree.">
<polygon fill="white" stroke="transparent" points="142,-1236 22,-1236 22,-842 142,-842 142,-1236"/>
<text text-anchor="start" x="42" y="-1224" font-family="Helvetica,sans-Serif" font-size="10.00">XML::XMLObject</text>
<text text-anchor="start" x="26" y="-1209" font-family="Helvetica,sans-Serif" font-size="10.00">+</text>
<text text-anchor="start" x="39" y="-1209" font-family="Helvetica,sans-Serif" font-size="10.00">xmlns</text>
<text text-anchor="start" x="26" y="-1194" font-family="Helvetica,sans-Serif" font-size="10.00">+</text>
<text text-anchor="start" x="39" y="-1194" font-family="Helvetica,sans-Serif" font-size="10.00">className</text>
<text text-anchor="start" x="26" y="-1179" font-family="Helvetica,sans-Serif" font-size="10.00">+</text>
<text text-anchor="start" x="39" y="-1179" font-family="Helvetica,sans-Serif" font-size="10.00">prefix</text>
<text text-anchor="start" x="26" y="-1164" font-family="Helvetica,sans-Serif" font-size="10.00">+</text>
<text text-anchor="start" x="39" y="-1164" font-family="Helvetica,sans-Serif" font-size="10.00">elementName</text>
<text text-anchor="start" x="26" y="-1149" font-family="Helvetica,sans-Serif" font-size="10.00">+</text>
<text text-anchor="start" x="39" y="-1149" font-family="Helvetica,sans-Serif" font-size="10.00">textContent</text>
<text text-anchor="start" x="26" y="-1134" font-family="Helvetica,sans-Serif" font-size="10.00">+</text>
<text text-anchor="start" x="39" y="-1134" font-family="Helvetica,sans-Serif" font-size="10.00">children</text>
<text text-anchor="start" x="26" y="-1119" font-family="Helvetica,sans-Serif" font-size="10.00">+</text>
<text text-anchor="start" x="39" y="-1119" font-family="Helvetica,sans-Serif" font-size="10.00">attributes</text>
<text text-anchor="start" x="26" y="-1104" font-family="Helvetica,sans-Serif" font-size="10.00">+</text>
<text text-anchor="start" x="39" y="-1104" font-family="Helvetica,sans-Serif" font-size="10.00">defaults</text>
<text text-anchor="start" x="26" y="-1089" font-family="Helvetica,sans-Serif" font-size="10.00">#</text>
<text text-anchor="start" x="39" y="-1089" font-family="Helvetica,sans-Serif" font-size="10.00">factory</text>
<text text-anchor="start" x="26" y="-1074" font-family="Helvetica,sans-Serif" font-size="10.00">+</text>
<text text-anchor="start" x="39" y="-1074" font-family="Helvetica,sans-Serif" font-size="10.00">~XMLObject()</text>
<text text-anchor="start" x="26" y="-1059" font-family="Helvetica,sans-Serif" font-size="10.00">+</text>
<text text-anchor="start" x="39" y="-1059" font-family="Helvetica,sans-Serif" font-size="10.00">is()</text>
<text text-anchor="start" x="26" y="-1044" font-family="Helvetica,sans-Serif" font-size="10.00">+</text>
<text text-anchor="start" x="39" y="-1044" font-family="Helvetica,sans-Serif" font-size="10.00">is()</text>
<text text-anchor="start" x="26" y="-1029" font-family="Helvetica,sans-Serif" font-size="10.00">+</text>
<text text-anchor="start" x="39" y="-1029" font-family="Helvetica,sans-Serif" font-size="10.00">get()</text>
<text text-anchor="start" x="26" y="-1014" font-family="Helvetica,sans-Serif" font-size="10.00">+</text>
<text text-anchor="start" x="39" y="-1014" font-family="Helvetica,sans-Serif" font-size="10.00">get()</text>
<text text-anchor="start" x="26" y="-999" font-family="Helvetica,sans-Serif" font-size="10.00">+</text>
<text text-anchor="start" x="39" y="-999" font-family="Helvetica,sans-Serif" font-size="10.00">find()</text>
<text text-anchor="start" x="26" y="-984" font-family="Helvetica,sans-Serif" font-size="10.00">+</text>
<text text-anchor="start" x="39" y="-984" font-family="Helvetica,sans-Serif" font-size="10.00">find()</text>
<text text-anchor="start" x="26" y="-969" font-family="Helvetica,sans-Serif" font-size="10.00">+</text>
<text text-anchor="start" x="39" y="-969" font-family="Helvetica,sans-Serif" font-size="10.00">stringify()</text>
<text text-anchor="start" x="26" y="-954" font-family="Helvetica,sans-Serif" font-size="10.00">+</text>
<text text-anchor="start" x="39" y="-954" font-family="Helvetica,sans-Serif" font-size="10.00">format()</text>
<text text-anchor="start" x="26" y="-939" font-family="Helvetica,sans-Serif" font-size="10.00">+</text>
<text text-anchor="start" x="39" y="-939" font-family="Helvetica,sans-Serif" font-size="10.00">getRequiredChild()</text>
<text text-anchor="start" x="39" y="-924" font-family="Helvetica,sans-Serif" font-size="10.00">and 7 more...</text>
<text text-anchor="start" x="26" y="-909" font-family="Helvetica,sans-Serif" font-size="10.00">+</text>
<text text-anchor="start" x="39" y="-909" font-family="Helvetica,sans-Serif" font-size="10.00">createFromStream()</text>
<text text-anchor="start" x="26" y="-894" font-family="Helvetica,sans-Serif" font-size="10.00">+</text>
<text text-anchor="start" x="39" y="-894" font-family="Helvetica,sans-Serif" font-size="10.00">createFromString()</text>
<text text-anchor="start" x="26" y="-879" font-family="Helvetica,sans-Serif" font-size="10.00">+</text>
<text text-anchor="start" x="39" y="-879" font-family="Helvetica,sans-Serif" font-size="10.00">createFromFile()</text>
<text text-anchor="start" x="26" y="-864" font-family="Helvetica,sans-Serif" font-size="10.00">#</text>
<text text-anchor="start" x="39" y="-864" font-family="Helvetica,sans-Serif" font-size="10.00">XMLObject()</text>
<text text-anchor="start" x="26" y="-849" font-family="Helvetica,sans-Serif" font-size="10.00">#</text>
<text text-anchor="start" x="39" y="-849" font-family="Helvetica,sans-Serif" font-size="10.00">createObject()</text>
<polygon fill="#666666" stroke="#666666" points="22,-1219 22,-1219 142,-1219 142,-1219 22,-1219"/>
<polygon fill="#666666" stroke="#666666" points="22,-1084 22,-1084 37,-1084 37,-1084 22,-1084"/>
<polygon fill="#666666" stroke="#666666" points="37,-1084 37,-1084 142,-1084 142,-1084 37,-1084"/>
<polygon fill="none" stroke="#666666" points="22,-842 22,-1236 142,-1236 142,-842 22,-842"/>
</a>
</g>
</g>
<!-- Node8&#45;&gt;Node7 -->
<g id="edge7_Node000007_Node000008" class="edge">
<title>Node8&#45;&gt;Node7</title>
<g id="a_edge7_Node000007_Node000008"><a xlink:title=" ">
<path fill="none" stroke="#63b8ff" d="M82,-831.78C82,-822.62 82,-813.97 82,-806.06"/>
<polygon fill="none" stroke="#63b8ff" points="78.5,-831.91 82,-841.91 85.5,-831.91 78.5,-831.91"/>
</a>
</g>
</g>
</g>
</svg>
