<?xml version="1.0" encoding="UTF-8" standalone="no"?>
<!DOCTYPE svg PUBLIC "-//W3C//DTD SVG 1.1//EN"
 "http://www.w3.org/Graphics/SVG/1.1/DTD/svg11.dtd">
<!-- Generated by graphviz version 2.43.0 (0)
 -->
<!-- Title: XML::bpmn::tCatchEvent Pages: 1 -->
<svg width="640pt" height="1186pt"
 viewBox="0.00 0.00 639.50 1186.00" xmlns="http://www.w3.org/2000/svg" xmlns:xlink="http://www.w3.org/1999/xlink">
<g id="graph0" class="graph" transform="scale(1 1) rotate(0) translate(4 1182)">
<title>XML::bpmn::tCatchEvent</title>
<!-- Node1 -->
<g id="node1" class="node">
<title>Node1</title>
<g id="a_node1"><a xlink:title=" ">
<polygon fill="#bfbfbf" stroke="black" points="244,-221.5 244,-344.5 383,-344.5 383,-221.5 244,-221.5"/>
<text text-anchor="middle" x="313.5" y="-332.5" font-family="Helvetica,sans-Serif" font-size="10.00">XML::bpmn::tCatchEvent</text>
<polyline fill="none" stroke="black" points="244,-325.5 383,-325.5 "/>
<text text-anchor="start" x="252" y="-313.5" font-family="Helvetica,sans-Serif" font-size="10.00">+ dataOutput</text>
<text text-anchor="start" x="252" y="-302.5" font-family="Helvetica,sans-Serif" font-size="10.00">+ dataOutputAssociation</text>
<text text-anchor="start" x="252" y="-291.5" font-family="Helvetica,sans-Serif" font-size="10.00">+ outputSet</text>
<text text-anchor="start" x="252" y="-280.5" font-family="Helvetica,sans-Serif" font-size="10.00">+ eventDefinition</text>
<text text-anchor="start" x="252" y="-269.5" font-family="Helvetica,sans-Serif" font-size="10.00">+ eventDefinitionRef</text>
<text text-anchor="start" x="252" y="-258.5" font-family="Helvetica,sans-Serif" font-size="10.00">+ parallelMultiple</text>
<text text-anchor="start" x="252" y="-247.5" font-family="Helvetica,sans-Serif" font-size="10.00">+ defaults</text>
<polyline fill="none" stroke="black" points="244,-240.5 383,-240.5 "/>
<text text-anchor="start" x="252" y="-228.5" font-family="Helvetica,sans-Serif" font-size="10.00"># tCatchEvent()</text>
</a>
</g>
</g>
<!-- Node7 -->
<g id="node7" class="node">
<title>Node7</title>
<g id="a_node7"><a xlink:href="classXML_1_1bpmn_1_1catchEvent.html" target="_top" xlink:title=" ">
<polygon fill="none" stroke="black" points="0,-116.5 0,-173.5 131,-173.5 131,-116.5 0,-116.5"/>
<text text-anchor="middle" x="65.5" y="-161.5" font-family="Helvetica,sans-Serif" font-size="10.00">XML::bpmn::catchEvent</text>
<polyline fill="none" stroke="black" points="0,-154.5 131,-154.5 "/>
<text text-anchor="start" x="8" y="-142.5" font-family="Helvetica,sans-Serif" font-size="10.00">+ defaults</text>
<polyline fill="none" stroke="black" points="0,-135.5 131,-135.5 "/>
<text text-anchor="start" x="8" y="-123.5" font-family="Helvetica,sans-Serif" font-size="10.00"># catchEvent()</text>
</a>
</g>
</g>
<!-- Node1&#45;&gt;Node7 -->
<g id="edge6" class="edge">
<title>Node1&#45;&gt;Node7</title>
<path fill="none" stroke="midnightblue" d="M234.55,-238.7C195.66,-217.38 149.94,-192.31 115.86,-173.62"/>
<polygon fill="none" stroke="midnightblue" points="233.31,-242.01 243.76,-243.75 236.67,-235.88 233.31,-242.01"/>
</g>
<!-- Node8 -->
<g id="node8" class="node">
<title>Node8</title>
<g id="a_node8"><a xlink:href="classXML_1_1bpmn_1_1tBoundaryEvent.html" target="_top" xlink:title=" ">
<polygon fill="none" stroke="black" points="149,-105.5 149,-184.5 304,-184.5 304,-105.5 149,-105.5"/>
<text text-anchor="middle" x="226.5" y="-172.5" font-family="Helvetica,sans-Serif" font-size="10.00">XML::bpmn::tBoundaryEvent</text>
<polyline fill="none" stroke="black" points="149,-165.5 304,-165.5 "/>
<text text-anchor="start" x="157" y="-153.5" font-family="Helvetica,sans-Serif" font-size="10.00">+ cancelActivity</text>
<text text-anchor="start" x="157" y="-142.5" font-family="Helvetica,sans-Serif" font-size="10.00">+ attachedToRef</text>
<text text-anchor="start" x="157" y="-131.5" font-family="Helvetica,sans-Serif" font-size="10.00">+ defaults</text>
<polyline fill="none" stroke="black" points="149,-124.5 304,-124.5 "/>
<text text-anchor="start" x="157" y="-112.5" font-family="Helvetica,sans-Serif" font-size="10.00"># tBoundaryEvent()</text>
</a>
</g>
</g>
<!-- Node1&#45;&gt;Node8 -->
<g id="edge7" class="edge">
<title>Node1&#45;&gt;Node8</title>
<path fill="none" stroke="midnightblue" d="M269.15,-212.67C262.96,-203 256.8,-193.36 251.15,-184.54"/>
<polygon fill="none" stroke="midnightblue" points="266.24,-214.62 274.58,-221.16 272.14,-210.85 266.24,-214.62"/>
</g>
<!-- Node10 -->
<g id="node10" class="node">
<title>Node10</title>
<g id="a_node10"><a xlink:href="classXML_1_1bpmn_1_1tIntermediateCatchEvent.html" target="_top" xlink:title=" ">
<polygon fill="none" stroke="black" points="322.5,-111 322.5,-179 480.5,-179 480.5,-111 322.5,-111"/>
<text text-anchor="start" x="330.5" y="-167" font-family="Helvetica,sans-Serif" font-size="10.00">XML::bpmn::tIntermediate</text>
<text text-anchor="middle" x="401.5" y="-156" font-family="Helvetica,sans-Serif" font-size="10.00">CatchEvent</text>
<polyline fill="none" stroke="black" points="322.5,-149 480.5,-149 "/>
<text text-anchor="start" x="330.5" y="-137" font-family="Helvetica,sans-Serif" font-size="10.00">+ defaults</text>
<polyline fill="none" stroke="black" points="322.5,-130 480.5,-130 "/>
<text text-anchor="start" x="330.5" y="-118" font-family="Helvetica,sans-Serif" font-size="10.00"># tIntermediateCatchEvent()</text>
</a>
</g>
</g>
<!-- Node1&#45;&gt;Node10 -->
<g id="edge9" class="edge">
<title>Node1&#45;&gt;Node10</title>
<path fill="none" stroke="midnightblue" d="M358.36,-212.68C365.9,-201.01 373.42,-189.4 380.01,-179.21"/>
<polygon fill="none" stroke="midnightblue" points="355.36,-210.86 352.87,-221.16 361.24,-214.67 355.36,-210.86"/>
</g>
<!-- Node12 -->
<g id="node12" class="node">
<title>Node12</title>
<g id="a_node12"><a xlink:href="classXML_1_1bpmn_1_1tStartEvent.html" target="_top" xlink:title=" ">
<polygon fill="none" stroke="black" points="499.5,-111 499.5,-179 631.5,-179 631.5,-111 499.5,-111"/>
<text text-anchor="middle" x="565.5" y="-167" font-family="Helvetica,sans-Serif" font-size="10.00">XML::bpmn::tStartEvent</text>
<polyline fill="none" stroke="black" points="499.5,-160 631.5,-160 "/>
<text text-anchor="start" x="507.5" y="-148" font-family="Helvetica,sans-Serif" font-size="10.00">+ isInterrupting</text>
<text text-anchor="start" x="507.5" y="-137" font-family="Helvetica,sans-Serif" font-size="10.00">+ defaults</text>
<polyline fill="none" stroke="black" points="499.5,-130 631.5,-130 "/>
<text text-anchor="start" x="507.5" y="-118" font-family="Helvetica,sans-Serif" font-size="10.00"># tStartEvent()</text>
</a>
</g>
</g>
<!-- Node1&#45;&gt;Node12 -->
<g id="edge11" class="edge">
<title>Node1&#45;&gt;Node12</title>
<path fill="none" stroke="midnightblue" d="M392.09,-239.59C428.28,-220.05 470.59,-197.22 504.35,-179"/>
<polygon fill="none" stroke="midnightblue" points="390.17,-236.65 383.03,-244.48 393.49,-242.81 390.17,-236.65"/>
</g>
<!-- Node2 -->
<g id="node2" class="node">
<title>Node2</title>
<g id="a_node2"><a xlink:href="classXML_1_1bpmn_1_1tEvent.html" target="_top" xlink:title=" ">
<polygon fill="none" stroke="black" points="259,-381.5 259,-449.5 368,-449.5 368,-381.5 259,-381.5"/>
<text text-anchor="middle" x="313.5" y="-437.5" font-family="Helvetica,sans-Serif" font-size="10.00">XML::bpmn::tEvent</text>
<polyline fill="none" stroke="black" points="259,-430.5 368,-430.5 "/>
<text text-anchor="start" x="267" y="-418.5" font-family="Helvetica,sans-Serif" font-size="10.00">+ property</text>
<text text-anchor="start" x="267" y="-407.5" font-family="Helvetica,sans-Serif" font-size="10.00">+ defaults</text>
<polyline fill="none" stroke="black" points="259,-400.5 368,-400.5 "/>
<text text-anchor="start" x="267" y="-388.5" font-family="Helvetica,sans-Serif" font-size="10.00"># tEvent()</text>
</a>
</g>
</g>
<!-- Node2&#45;&gt;Node1 -->
<g id="edge1" class="edge">
<title>Node2&#45;&gt;Node1</title>
<path fill="none" stroke="midnightblue" d="M313.5,-371.17C313.5,-362.65 313.5,-353.57 313.5,-344.61"/>
<polygon fill="none" stroke="midnightblue" points="310,-371.23 313.5,-381.23 317,-371.23 310,-371.23"/>
</g>
<!-- Node3 -->
<g id="node3" class="node">
<title>Node3</title>
<g id="a_node3"><a xlink:href="classXML_1_1bpmn_1_1tFlowNode.html" target="_top" xlink:title=" ">
<polygon fill="none" stroke="black" points="248.5,-486.5 248.5,-565.5 378.5,-565.5 378.5,-486.5 248.5,-486.5"/>
<text text-anchor="middle" x="313.5" y="-553.5" font-family="Helvetica,sans-Serif" font-size="10.00">XML::bpmn::tFlowNode</text>
<polyline fill="none" stroke="black" points="248.5,-546.5 378.5,-546.5 "/>
<text text-anchor="start" x="256.5" y="-534.5" font-family="Helvetica,sans-Serif" font-size="10.00">+ incoming</text>
<text text-anchor="start" x="256.5" y="-523.5" font-family="Helvetica,sans-Serif" font-size="10.00">+ outgoing</text>
<text text-anchor="start" x="256.5" y="-512.5" font-family="Helvetica,sans-Serif" font-size="10.00">+ defaults</text>
<polyline fill="none" stroke="black" points="248.5,-505.5 378.5,-505.5 "/>
<text text-anchor="start" x="256.5" y="-493.5" font-family="Helvetica,sans-Serif" font-size="10.00"># tFlowNode()</text>
</a>
</g>
</g>
<!-- Node3&#45;&gt;Node2 -->
<g id="edge2" class="edge">
<title>Node3&#45;&gt;Node2</title>
<path fill="none" stroke="midnightblue" d="M313.5,-476.35C313.5,-467.28 313.5,-458 313.5,-449.54"/>
<polygon fill="none" stroke="midnightblue" points="310,-476.44 313.5,-486.44 317,-476.44 310,-476.44"/>
</g>
<!-- Node4 -->
<g id="node4" class="node">
<title>Node4</title>
<g id="a_node4"><a xlink:href="classXML_1_1bpmn_1_1tFlowElement.html" target="_top" xlink:title=" ">
<polygon fill="none" stroke="black" points="241,-602.5 241,-703.5 386,-703.5 386,-602.5 241,-602.5"/>
<text text-anchor="middle" x="313.5" y="-691.5" font-family="Helvetica,sans-Serif" font-size="10.00">XML::bpmn::tFlowElement</text>
<polyline fill="none" stroke="black" points="241,-684.5 386,-684.5 "/>
<text text-anchor="start" x="249" y="-672.5" font-family="Helvetica,sans-Serif" font-size="10.00">+ auditing</text>
<text text-anchor="start" x="249" y="-661.5" font-family="Helvetica,sans-Serif" font-size="10.00">+ monitoring</text>
<text text-anchor="start" x="249" y="-650.5" font-family="Helvetica,sans-Serif" font-size="10.00">+ categoryValueRef</text>
<text text-anchor="start" x="249" y="-639.5" font-family="Helvetica,sans-Serif" font-size="10.00">+ name</text>
<text text-anchor="start" x="249" y="-628.5" font-family="Helvetica,sans-Serif" font-size="10.00">+ defaults</text>
<polyline fill="none" stroke="black" points="241,-621.5 386,-621.5 "/>
<text text-anchor="start" x="249" y="-609.5" font-family="Helvetica,sans-Serif" font-size="10.00"># tFlowElement()</text>
</a>
</g>
</g>
<!-- Node4&#45;&gt;Node3 -->
<g id="edge3" class="edge">
<title>Node4&#45;&gt;Node3</title>
<path fill="none" stroke="midnightblue" d="M313.5,-592.19C313.5,-583.22 313.5,-574.18 313.5,-565.81"/>
<polygon fill="none" stroke="midnightblue" points="310,-592.24 313.5,-602.24 317,-592.24 310,-592.24"/>
</g>
<!-- Node5 -->
<g id="node5" class="node">
<title>Node5</title>
<g id="a_node5"><a xlink:href="classXML_1_1bpmn_1_1tBaseElement.html" target="_top" xlink:title=" ">
<polygon fill="none" stroke="black" points="240.5,-740.5 240.5,-830.5 386.5,-830.5 386.5,-740.5 240.5,-740.5"/>
<text text-anchor="middle" x="313.5" y="-818.5" font-family="Helvetica,sans-Serif" font-size="10.00">XML::bpmn::tBaseElement</text>
<polyline fill="none" stroke="black" points="240.5,-811.5 386.5,-811.5 "/>
<text text-anchor="start" x="248.5" y="-799.5" font-family="Helvetica,sans-Serif" font-size="10.00">+ documentation</text>
<text text-anchor="start" x="248.5" y="-788.5" font-family="Helvetica,sans-Serif" font-size="10.00">+ extensionElements</text>
<text text-anchor="start" x="248.5" y="-777.5" font-family="Helvetica,sans-Serif" font-size="10.00">+ id</text>
<text text-anchor="start" x="248.5" y="-766.5" font-family="Helvetica,sans-Serif" font-size="10.00">+ defaults</text>
<polyline fill="none" stroke="black" points="240.5,-759.5 386.5,-759.5 "/>
<text text-anchor="start" x="248.5" y="-747.5" font-family="Helvetica,sans-Serif" font-size="10.00"># tBaseElement()</text>
</a>
</g>
</g>
<!-- Node5&#45;&gt;Node4 -->
<g id="edge4" class="edge">
<title>Node5&#45;&gt;Node4</title>
<path fill="none" stroke="midnightblue" d="M313.5,-730.13C313.5,-721.31 313.5,-712.22 313.5,-703.52"/>
<polygon fill="none" stroke="midnightblue" points="310,-730.32 313.5,-740.32 317,-730.32 310,-730.32"/>
</g>
<!-- Node6 -->
<g id="node6" class="node">
<title>Node6</title>
<g id="a_node6"><a xlink:href="classXML_1_1XMLObject.html" target="_top" xlink:title="A class representing a node in an XML&#45;tree.">
<polygon fill="none" stroke="black" points="250.5,-867.5 250.5,-1177.5 376.5,-1177.5 376.5,-867.5 250.5,-867.5"/>
<text text-anchor="middle" x="313.5" y="-1165.5" font-family="Helvetica,sans-Serif" font-size="10.00">XML::XMLObject</text>
<polyline fill="none" stroke="black" points="250.5,-1158.5 376.5,-1158.5 "/>
<text text-anchor="start" x="258.5" y="-1146.5" font-family="Helvetica,sans-Serif" font-size="10.00">+ xmlns</text>
<text text-anchor="start" x="258.5" y="-1135.5" font-family="Helvetica,sans-Serif" font-size="10.00">+ className</text>
<text text-anchor="start" x="258.5" y="-1124.5" font-family="Helvetica,sans-Serif" font-size="10.00">+ prefix</text>
<text text-anchor="start" x="258.5" y="-1113.5" font-family="Helvetica,sans-Serif" font-size="10.00">+ elementName</text>
<text text-anchor="start" x="258.5" y="-1102.5" font-family="Helvetica,sans-Serif" font-size="10.00">+ textContent</text>
<text text-anchor="start" x="258.5" y="-1091.5" font-family="Helvetica,sans-Serif" font-size="10.00">+ children</text>
<text text-anchor="start" x="258.5" y="-1080.5" font-family="Helvetica,sans-Serif" font-size="10.00">+ attributes</text>
<text text-anchor="start" x="258.5" y="-1069.5" font-family="Helvetica,sans-Serif" font-size="10.00">+ defaults</text>
<text text-anchor="start" x="258.5" y="-1058.5" font-family="Helvetica,sans-Serif" font-size="10.00"># factory</text>
<polyline fill="none" stroke="black" points="250.5,-1051.5 376.5,-1051.5 "/>
<text text-anchor="start" x="258.5" y="-1039.5" font-family="Helvetica,sans-Serif" font-size="10.00">+ ~XMLObject()</text>
<text text-anchor="start" x="258.5" y="-1028.5" font-family="Helvetica,sans-Serif" font-size="10.00">+ is()</text>
<text text-anchor="start" x="258.5" y="-1017.5" font-family="Helvetica,sans-Serif" font-size="10.00">+ is()</text>
<text text-anchor="start" x="258.5" y="-1006.5" font-family="Helvetica,sans-Serif" font-size="10.00">+ get()</text>
<text text-anchor="start" x="258.5" y="-995.5" font-family="Helvetica,sans-Serif" font-size="10.00">+ get()</text>
<text text-anchor="start" x="258.5" y="-984.5" font-family="Helvetica,sans-Serif" font-size="10.00">+ find()</text>
<text text-anchor="start" x="258.5" y="-973.5" font-family="Helvetica,sans-Serif" font-size="10.00">+ find()</text>
<text text-anchor="start" x="258.5" y="-962.5" font-family="Helvetica,sans-Serif" font-size="10.00">+ stringify()</text>
<text text-anchor="start" x="258.5" y="-951.5" font-family="Helvetica,sans-Serif" font-size="10.00">+ format()</text>
<text text-anchor="start" x="258.5" y="-940.5" font-family="Helvetica,sans-Serif" font-size="10.00">+ getRequiredChild()</text>
<text text-anchor="start" x="258.5" y="-929.5" font-family="Helvetica,sans-Serif" font-size="10.00">and 7 more...</text>
<text text-anchor="start" x="258.5" y="-918.5" font-family="Helvetica,sans-Serif" font-size="10.00">+ createFromStream()</text>
<text text-anchor="start" x="258.5" y="-907.5" font-family="Helvetica,sans-Serif" font-size="10.00">+ createFromString()</text>
<text text-anchor="start" x="258.5" y="-896.5" font-family="Helvetica,sans-Serif" font-size="10.00">+ createFromFile()</text>
<text text-anchor="start" x="258.5" y="-885.5" font-family="Helvetica,sans-Serif" font-size="10.00"># XMLObject()</text>
<text text-anchor="start" x="258.5" y="-874.5" font-family="Helvetica,sans-Serif" font-size="10.00"># createObject()</text>
</a>
</g>
</g>
<!-- Node6&#45;&gt;Node5 -->
<g id="edge5" class="edge">
<title>Node6&#45;&gt;Node5</title>
<path fill="none" stroke="midnightblue" d="M313.5,-857.35C313.5,-847.89 313.5,-838.91 313.5,-830.72"/>
<polygon fill="none" stroke="midnightblue" points="310,-857.37 313.5,-867.37 317,-857.37 310,-857.37"/>
</g>
<!-- Node9 -->
<g id="node9" class="node">
<title>Node9</title>
<g id="a_node9"><a xlink:href="classXML_1_1bpmn_1_1boundaryEvent.html" target="_top" xlink:title=" ">
<polygon fill="none" stroke="black" points="148,-6 148,-63 299,-63 299,-6 148,-6"/>
<text text-anchor="middle" x="223.5" y="-51" font-family="Helvetica,sans-Serif" font-size="10.00">XML::bpmn::boundaryEvent</text>
<polyline fill="none" stroke="black" points="148,-44 299,-44 "/>
<text text-anchor="start" x="156" y="-32" font-family="Helvetica,sans-Serif" font-size="10.00">+ defaults</text>
<polyline fill="none" stroke="black" points="148,-25 299,-25 "/>
<text text-anchor="start" x="156" y="-13" font-family="Helvetica,sans-Serif" font-size="10.00"># boundaryEvent()</text>
</a>
</g>
</g>
<!-- Node8&#45;&gt;Node9 -->
<g id="edge8" class="edge">
<title>Node8&#45;&gt;Node9</title>
<path fill="none" stroke="midnightblue" d="M225.16,-95.39C224.85,-84.3 224.53,-72.88 224.26,-63.03"/>
<polygon fill="none" stroke="midnightblue" points="221.66,-95.54 225.43,-105.44 228.66,-95.35 221.66,-95.54"/>
</g>
<!-- Node11 -->
<g id="node11" class="node">
<title>Node11</title>
<g id="a_node11"><a xlink:href="classXML_1_1bpmn_1_1intermediateCatchEvent.html" target="_top" xlink:title=" ">
<polygon fill="none" stroke="black" points="317.5,-0.5 317.5,-68.5 485.5,-68.5 485.5,-0.5 317.5,-0.5"/>
<text text-anchor="start" x="325.5" y="-56.5" font-family="Helvetica,sans-Serif" font-size="10.00">XML::bpmn::intermediateCatch</text>
<text text-anchor="middle" x="401.5" y="-45.5" font-family="Helvetica,sans-Serif" font-size="10.00">Event</text>
<polyline fill="none" stroke="black" points="317.5,-38.5 485.5,-38.5 "/>
<text text-anchor="start" x="325.5" y="-26.5" font-family="Helvetica,sans-Serif" font-size="10.00">+ defaults</text>
<polyline fill="none" stroke="black" points="317.5,-19.5 485.5,-19.5 "/>
<text text-anchor="start" x="325.5" y="-7.5" font-family="Helvetica,sans-Serif" font-size="10.00"># intermediateCatchEvent()</text>
</a>
</g>
</g>
<!-- Node10&#45;&gt;Node11 -->
<g id="edge10" class="edge">
<title>Node10&#45;&gt;Node11</title>
<path fill="none" stroke="midnightblue" d="M401.5,-100.54C401.5,-89.97 401.5,-78.83 401.5,-68.81"/>
<polygon fill="none" stroke="midnightblue" points="398,-100.86 401.5,-110.86 405,-100.86 398,-100.86"/>
</g>
<!-- Node13 -->
<g id="node13" class="node">
<title>Node13</title>
<g id="a_node13"><a xlink:href="classXML_1_1bpmn_1_1startEvent.html" target="_top" xlink:title=" ">
<polygon fill="none" stroke="black" points="503.5,-6 503.5,-63 631.5,-63 631.5,-6 503.5,-6"/>
<text text-anchor="middle" x="567.5" y="-51" font-family="Helvetica,sans-Serif" font-size="10.00">XML::bpmn::startEvent</text>
<polyline fill="none" stroke="black" points="503.5,-44 631.5,-44 "/>
<text text-anchor="start" x="511.5" y="-32" font-family="Helvetica,sans-Serif" font-size="10.00">+ defaults</text>
<polyline fill="none" stroke="black" points="503.5,-25 631.5,-25 "/>
<text text-anchor="start" x="511.5" y="-13" font-family="Helvetica,sans-Serif" font-size="10.00"># startEvent()</text>
</a>
</g>
</g>
<!-- Node12&#45;&gt;Node13 -->
<g id="edge12" class="edge">
<title>Node12&#45;&gt;Node13</title>
<path fill="none" stroke="midnightblue" d="M566.3,-100.56C566.53,-88.01 566.78,-74.65 566.99,-63.33"/>
<polygon fill="none" stroke="midnightblue" points="562.8,-100.79 566.11,-110.86 569.79,-100.92 562.8,-100.79"/>
</g>
</g>
</svg>
