<?xml version="1.0" encoding="UTF-8" standalone="no"?>
<!DOCTYPE svg PUBLIC "-//W3C//DTD SVG 1.1//EN"
 "http://www.w3.org/Graphics/SVG/1.1/DTD/svg11.dtd">
<!-- Generated by graphviz version 2.43.0 (0)
 -->
<!-- Title: BPMN::TimerBoundaryEvent Pages: 1 -->
<svg width="276pt" height="1067pt"
 viewBox="0.00 0.00 276.00 1067.00" xmlns="http://www.w3.org/2000/svg" xmlns:xlink="http://www.w3.org/1999/xlink">
<g id="graph0" class="graph" transform="scale(1 1) rotate(0) translate(4 1063)">
<title>BPMN::TimerBoundaryEvent</title>
<!-- Node1 -->
<g id="Node000001" class="node">
<title>Node1</title>
<g id="a_Node000001"><a xlink:title=" ">
<polygon fill="#999999" stroke="transparent" points="210.5,-49 61.5,-49 61.5,0 210.5,0 210.5,-49"/>
<text text-anchor="start" x="67" y="-36.5" font-family="Helvetica,sans-Serif" font-size="10.00">BPMN::TimerBoundaryEvent</text>
<text text-anchor="start" x="70" y="-21.5" font-family="Helvetica,sans-Serif" font-size="10.00">+</text>
<text text-anchor="start" x="87" y="-21.5" font-family="Helvetica,sans-Serif" font-size="10.00">element</text>
<text text-anchor="start" x="70" y="-6.5" font-family="Helvetica,sans-Serif" font-size="10.00">+</text>
<text text-anchor="start" x="87" y="-6.5" font-family="Helvetica,sans-Serif" font-size="10.00">TimerBoundaryEvent()</text>
<polygon fill="#666666" stroke="#666666" points="62,-31.5 62,-31.5 211,-31.5 211,-31.5 62,-31.5"/>
<polygon fill="#666666" stroke="#666666" points="62,-16.5 62,-16.5 85,-16.5 85,-16.5 62,-16.5"/>
<polygon fill="#666666" stroke="#666666" points="85,-16.5 85,-16.5 211,-16.5 211,-16.5 85,-16.5"/>
<polygon fill="none" stroke="#666666" points="61.5,0 61.5,-49 210.5,-49 210.5,0 61.5,0"/>
</a>
</g>
</g>
<!-- Node2 -->
<g id="Node000002" class="node">
<title>Node2</title>
<g id="a_Node000002"><a xlink:href="classBPMN_1_1TimerCatchEvent.html" target="_top" xlink:title=" ">
<polygon fill="white" stroke="transparent" points="130,-149 0,-149 0,-100 130,-100 130,-149"/>
<text text-anchor="start" x="5" y="-136.5" font-family="Helvetica,sans-Serif" font-size="10.00">BPMN::TimerCatchEvent</text>
<text text-anchor="start" x="63" y="-121.5" font-family="Helvetica,sans-Serif" font-size="10.00"> </text>
<text text-anchor="start" x="8" y="-106.5" font-family="Helvetica,sans-Serif" font-size="10.00">+</text>
<text text-anchor="start" x="25" y="-106.5" font-family="Helvetica,sans-Serif" font-size="10.00">TimerCatchEvent()</text>
<polygon fill="#666666" stroke="#666666" points="0,-131.5 0,-131.5 130,-131.5 130,-131.5 0,-131.5"/>
<polygon fill="#666666" stroke="#666666" points="0,-116.5 0,-116.5 130,-116.5 130,-116.5 0,-116.5"/>
<polygon fill="none" stroke="#666666" points="0,-100 0,-149 130,-149 130,-100 0,-100"/>
</a>
</g>
</g>
<!-- Node2&#45;&gt;Node1 -->
<g id="edge1_Node000001_Node000002" class="edge">
<title>Node2&#45;&gt;Node1</title>
<g id="a_edge1_Node000001_Node000002"><a xlink:title=" ">
<path fill="none" stroke="#63b8ff" d="M88.2,-91.47C98.23,-77.63 109.75,-61.73 118.97,-49"/>
<polygon fill="none" stroke="#63b8ff" points="85.22,-89.63 82.19,-99.78 90.89,-93.73 85.22,-89.63"/>
</a>
</g>
</g>
<!-- Node3 -->
<g id="Node000003" class="node">
<title>Node3</title>
<g id="a_Node000003"><a xlink:href="classBPMN_1_1CatchEvent.html" target="_top" xlink:title=" ">
<polygon fill="white" stroke="transparent" points="186.5,-249 85.5,-249 85.5,-200 186.5,-200 186.5,-249"/>
<text text-anchor="start" x="91" y="-236.5" font-family="Helvetica,sans-Serif" font-size="10.00">BPMN::CatchEvent</text>
<text text-anchor="start" x="94" y="-221.5" font-family="Helvetica,sans-Serif" font-size="10.00">+</text>
<text text-anchor="start" x="111" y="-221.5" font-family="Helvetica,sans-Serif" font-size="10.00">element</text>
<text text-anchor="start" x="94" y="-206.5" font-family="Helvetica,sans-Serif" font-size="10.00">+</text>
<text text-anchor="start" x="111" y="-206.5" font-family="Helvetica,sans-Serif" font-size="10.00">CatchEvent()</text>
<polygon fill="#666666" stroke="#666666" points="86,-231.5 86,-231.5 187,-231.5 187,-231.5 86,-231.5"/>
<polygon fill="#666666" stroke="#666666" points="86,-216.5 86,-216.5 109,-216.5 109,-216.5 86,-216.5"/>
<polygon fill="#666666" stroke="#666666" points="109,-216.5 109,-216.5 187,-216.5 187,-216.5 109,-216.5"/>
<polygon fill="none" stroke="#666666" points="85.5,-200 85.5,-249 186.5,-249 186.5,-200 85.5,-200"/>
</a>
</g>
</g>
<!-- Node3&#45;&gt;Node2 -->
<g id="edge2_Node000002_Node000003" class="edge">
<title>Node3&#45;&gt;Node2</title>
<g id="a_edge2_Node000002_Node000003"><a xlink:title=" ">
<path fill="none" stroke="#63b8ff" d="M112.8,-191.47C102.77,-177.63 91.25,-161.73 82.03,-149"/>
<polygon fill="none" stroke="#63b8ff" points="110.11,-193.73 118.81,-199.78 115.78,-189.63 110.11,-193.73"/>
</a>
</g>
</g>
<!-- Node10 -->
<g id="Node000010" class="node">
<title>Node10</title>
<g id="a_Node000010"><a xlink:href="classBPMN_1_1BoundaryEvent.html" target="_top" xlink:title="Base class for all boundary events attached to an Activity.">
<polygon fill="white" stroke="transparent" points="268,-164 148,-164 148,-85 268,-85 268,-164"/>
<text text-anchor="start" x="153" y="-151.5" font-family="Helvetica,sans-Serif" font-size="10.00">BPMN::BoundaryEvent</text>
<text text-anchor="start" x="153" y="-136.5" font-family="Helvetica,sans-Serif" font-size="10.00">+</text>
<text text-anchor="start" x="167" y="-136.5" font-family="Helvetica,sans-Serif" font-size="10.00">isInterrupting</text>
<text text-anchor="start" x="153" y="-121.5" font-family="Helvetica,sans-Serif" font-size="10.00">+</text>
<text text-anchor="start" x="167" y="-121.5" font-family="Helvetica,sans-Serif" font-size="10.00">attachedTo</text>
<text text-anchor="start" x="153" y="-106.5" font-family="Helvetica,sans-Serif" font-size="10.00">+</text>
<text text-anchor="start" x="167" y="-106.5" font-family="Helvetica,sans-Serif" font-size="10.00">BoundaryEvent()</text>
<text text-anchor="start" x="153" y="-91.5" font-family="Helvetica,sans-Serif" font-size="10.00">#</text>
<text text-anchor="start" x="167" y="-91.5" font-family="Helvetica,sans-Serif" font-size="10.00">resolveReference()</text>
<polygon fill="#666666" stroke="#666666" points="148,-146.5 148,-146.5 268,-146.5 268,-146.5 148,-146.5"/>
<polygon fill="#666666" stroke="#666666" points="148,-116.5 148,-116.5 165,-116.5 165,-116.5 148,-116.5"/>
<polygon fill="#666666" stroke="#666666" points="165,-116.5 165,-116.5 268,-116.5 268,-116.5 165,-116.5"/>
<polygon fill="none" stroke="#666666" points="148,-85 148,-164 268,-164 268,-85 148,-85"/>
</a>
</g>
</g>
<!-- Node3&#45;&gt;Node10 -->
<g id="edge10_Node000010_Node000003" class="edge">
<title>Node3&#45;&gt;Node10</title>
<g id="a_edge10_Node000010_Node000003"><a xlink:title=" ">
<path fill="none" stroke="#63b8ff" d="M159.37,-191.7C165.79,-182.96 172.82,-173.38 179.5,-164.29"/>
<polygon fill="none" stroke="#63b8ff" points="156.53,-189.65 153.43,-199.78 162.17,-193.79 156.53,-189.65"/>
</a>
</g>
</g>
<!-- Node4 -->
<g id="Node000004" class="node">
<title>Node4</title>
<g id="a_Node000004"><a xlink:href="classBPMN_1_1Event.html" target="_top" xlink:title=" ">
<polygon fill="white" stroke="transparent" points="173,-334 99,-334 99,-285 173,-285 173,-334"/>
<text text-anchor="start" x="104" y="-321.5" font-family="Helvetica,sans-Serif" font-size="10.00">BPMN::Event</text>
<text text-anchor="start" x="106" y="-306.5" font-family="Helvetica,sans-Serif" font-size="10.00">+</text>
<text text-anchor="start" x="122" y="-306.5" font-family="Helvetica,sans-Serif" font-size="10.00">element</text>
<text text-anchor="start" x="106" y="-291.5" font-family="Helvetica,sans-Serif" font-size="10.00">+</text>
<text text-anchor="start" x="122" y="-291.5" font-family="Helvetica,sans-Serif" font-size="10.00">Event()</text>
<polygon fill="#666666" stroke="#666666" points="99,-316.5 99,-316.5 173,-316.5 173,-316.5 99,-316.5"/>
<polygon fill="#666666" stroke="#666666" points="99,-301.5 99,-301.5 120,-301.5 120,-301.5 99,-301.5"/>
<polygon fill="#666666" stroke="#666666" points="120,-301.5 120,-301.5 173,-301.5 173,-301.5 120,-301.5"/>
<polygon fill="none" stroke="#666666" points="99,-285 99,-334 173,-334 173,-285 99,-285"/>
</a>
</g>
</g>
<!-- Node4&#45;&gt;Node3 -->
<g id="edge3_Node000003_Node000004" class="edge">
<title>Node4&#45;&gt;Node3</title>
<g id="a_edge3_Node000003_Node000004"><a xlink:title=" ">
<path fill="none" stroke="#63b8ff" d="M136,-274.77C136,-266.17 136,-257.1 136,-249.12"/>
<polygon fill="none" stroke="#63b8ff" points="132.5,-274.94 136,-284.94 139.5,-274.94 132.5,-274.94"/>
</a>
</g>
</g>
<!-- Node5 -->
<g id="Node000005" class="node">
<title>Node5</title>
<g id="a_Node000005"><a xlink:href="classBPMN_1_1FlowNode.html" target="_top" xlink:title="Base class for BPMN elements that may contain incoming and outgoing sequence flows.">
<polygon fill="white" stroke="transparent" points="183.5,-464 88.5,-464 88.5,-370 183.5,-370 183.5,-464"/>
<text text-anchor="start" x="94" y="-452" font-family="Helvetica,sans-Serif" font-size="10.00">BPMN::FlowNode</text>
<text text-anchor="start" x="97" y="-437" font-family="Helvetica,sans-Serif" font-size="10.00">+</text>
<text text-anchor="start" x="114" y="-437" font-family="Helvetica,sans-Serif" font-size="10.00">element</text>
<text text-anchor="start" x="97" y="-422" font-family="Helvetica,sans-Serif" font-size="10.00">+</text>
<text text-anchor="start" x="114" y="-422" font-family="Helvetica,sans-Serif" font-size="10.00">name</text>
<text text-anchor="start" x="97" y="-407" font-family="Helvetica,sans-Serif" font-size="10.00">+</text>
<text text-anchor="start" x="114" y="-407" font-family="Helvetica,sans-Serif" font-size="10.00">incoming</text>
<text text-anchor="start" x="97" y="-392" font-family="Helvetica,sans-Serif" font-size="10.00">+</text>
<text text-anchor="start" x="114" y="-392" font-family="Helvetica,sans-Serif" font-size="10.00">outgoing</text>
<text text-anchor="start" x="97" y="-377" font-family="Helvetica,sans-Serif" font-size="10.00">+</text>
<text text-anchor="start" x="114" y="-377" font-family="Helvetica,sans-Serif" font-size="10.00">FlowNode()</text>
<polygon fill="#666666" stroke="#666666" points="89,-447 89,-447 184,-447 184,-447 89,-447"/>
<polygon fill="#666666" stroke="#666666" points="89,-387 89,-387 112,-387 112,-387 89,-387"/>
<polygon fill="#666666" stroke="#666666" points="112,-387 112,-387 184,-387 184,-387 112,-387"/>
<polygon fill="none" stroke="#666666" points="88.5,-370 88.5,-464 183.5,-464 183.5,-370 88.5,-370"/>
</a>
</g>
</g>
<!-- Node5&#45;&gt;Node4 -->
<g id="edge4_Node000004_Node000005" class="edge">
<title>Node5&#45;&gt;Node4</title>
<g id="a_edge4_Node000004_Node000005"><a xlink:title=" ">
<path fill="none" stroke="#63b8ff" d="M136,-359.59C136,-350.62 136,-341.79 136,-334.15"/>
<polygon fill="none" stroke="#63b8ff" points="132.5,-359.73 136,-369.73 139.5,-359.73 132.5,-359.73"/>
</a>
</g>
</g>
<!-- Node6 -->
<g id="Node000006" class="node">
<title>Node6</title>
<g id="a_Node000006"><a xlink:href="classBPMN_1_1ChildNode.html" target="_top" xlink:title="Base class for BPMN elements within a Scope.">
<polygon fill="white" stroke="transparent" points="184,-579 88,-579 88,-500 184,-500 184,-579"/>
<text text-anchor="start" x="93" y="-566.5" font-family="Helvetica,sans-Serif" font-size="10.00">BPMN::ChildNode</text>
<text text-anchor="start" x="96" y="-551.5" font-family="Helvetica,sans-Serif" font-size="10.00">+</text>
<text text-anchor="start" x="113" y="-551.5" font-family="Helvetica,sans-Serif" font-size="10.00">parent</text>
<text text-anchor="start" x="96" y="-536.5" font-family="Helvetica,sans-Serif" font-size="10.00">+</text>
<text text-anchor="start" x="113" y="-536.5" font-family="Helvetica,sans-Serif" font-size="10.00">ChildNode()</text>
<text text-anchor="start" x="96" y="-521.5" font-family="Helvetica,sans-Serif" font-size="10.00">+</text>
<text text-anchor="start" x="113" y="-521.5" font-family="Helvetica,sans-Serif" font-size="10.00">ancestor()</text>
<text text-anchor="start" x="96" y="-506.5" font-family="Helvetica,sans-Serif" font-size="10.00">+</text>
<text text-anchor="start" x="113" y="-506.5" font-family="Helvetica,sans-Serif" font-size="10.00">ancestor()</text>
<polygon fill="#666666" stroke="#666666" points="88,-561.5 88,-561.5 184,-561.5 184,-561.5 88,-561.5"/>
<polygon fill="#666666" stroke="#666666" points="88,-546.5 88,-546.5 111,-546.5 111,-546.5 88,-546.5"/>
<polygon fill="#666666" stroke="#666666" points="111,-546.5 111,-546.5 184,-546.5 184,-546.5 111,-546.5"/>
<polygon fill="none" stroke="#666666" points="88,-500 88,-579 184,-579 184,-500 88,-500"/>
</a>
</g>
</g>
<!-- Node6&#45;&gt;Node5 -->
<g id="edge5_Node000005_Node000006" class="edge">
<title>Node6&#45;&gt;Node5</title>
<g id="a_edge5_Node000005_Node000006"><a xlink:title=" ">
<path fill="none" stroke="#63b8ff" d="M136,-489.68C136,-481.3 136,-472.61 136,-464.29"/>
<polygon fill="none" stroke="#63b8ff" points="132.5,-489.71 136,-499.71 139.5,-489.71 132.5,-489.71"/>
</a>
</g>
</g>
<!-- Node7 -->
<g id="Node000007" class="node">
<title>Node7</title>
<g id="a_Node000007"><a xlink:href="classBPMN_1_1Node.html" target="_top" xlink:title="Base class for all nodes in a BPMN model.">
<polygon fill="white" stroke="transparent" points="171.5,-739 100.5,-739 100.5,-615 171.5,-615 171.5,-739"/>
<text text-anchor="start" x="106" y="-727" font-family="Helvetica,sans-Serif" font-size="10.00">BPMN::Node</text>
<text text-anchor="start" x="106" y="-712" font-family="Helvetica,sans-Serif" font-size="10.00">+</text>
<text text-anchor="start" x="120" y="-712" font-family="Helvetica,sans-Serif" font-size="10.00">receiving</text>
<text text-anchor="start" x="106" y="-697" font-family="Helvetica,sans-Serif" font-size="10.00">+</text>
<text text-anchor="start" x="120" y="-697" font-family="Helvetica,sans-Serif" font-size="10.00">sending</text>
<text text-anchor="start" x="106" y="-682" font-family="Helvetica,sans-Serif" font-size="10.00">+</text>
<text text-anchor="start" x="120" y="-682" font-family="Helvetica,sans-Serif" font-size="10.00">Node()</text>
<text text-anchor="start" x="106" y="-667" font-family="Helvetica,sans-Serif" font-size="10.00">+</text>
<text text-anchor="start" x="120" y="-667" font-family="Helvetica,sans-Serif" font-size="10.00">find()</text>
<text text-anchor="start" x="106" y="-652" font-family="Helvetica,sans-Serif" font-size="10.00">+</text>
<text text-anchor="start" x="120" y="-652" font-family="Helvetica,sans-Serif" font-size="10.00">find()</text>
<text text-anchor="start" x="106" y="-637" font-family="Helvetica,sans-Serif" font-size="10.00">+</text>
<text text-anchor="start" x="120" y="-637" font-family="Helvetica,sans-Serif" font-size="10.00">find_all()</text>
<text text-anchor="start" x="106" y="-622" font-family="Helvetica,sans-Serif" font-size="10.00">+</text>
<text text-anchor="start" x="120" y="-622" font-family="Helvetica,sans-Serif" font-size="10.00">find_all()</text>
<polygon fill="#666666" stroke="#666666" points="101,-722 101,-722 172,-722 172,-722 101,-722"/>
<polygon fill="#666666" stroke="#666666" points="101,-692 101,-692 118,-692 118,-692 101,-692"/>
<polygon fill="#666666" stroke="#666666" points="118,-692 118,-692 172,-692 172,-692 118,-692"/>
<polygon fill="none" stroke="#666666" points="100.5,-615 100.5,-739 171.5,-739 171.5,-615 100.5,-615"/>
</a>
</g>
</g>
<!-- Node7&#45;&gt;Node6 -->
<g id="edge6_Node000006_Node000007" class="edge">
<title>Node7&#45;&gt;Node6</title>
<g id="a_edge6_Node000006_Node000007"><a xlink:title=" ">
<path fill="none" stroke="#63b8ff" d="M136,-604.93C136,-596.02 136,-587.19 136,-579.05"/>
<polygon fill="none" stroke="#63b8ff" points="132.5,-604.99 136,-614.99 139.5,-604.99 132.5,-604.99"/>
</a>
</g>
</g>
<!-- Node8 -->
<g id="Node000008" class="node">
<title>Node8</title>
<g id="a_Node000008"><a xlink:href="classBPMN_1_1BaseElement.html" target="_top" xlink:title="Base class for all core BPMN elements.">
<polygon fill="white" stroke="transparent" points="193.5,-914 78.5,-914 78.5,-775 193.5,-775 193.5,-914"/>
<text text-anchor="start" x="86.5" y="-901.5" font-family="Helvetica,sans-Serif" font-size="10.00">BPMN::BaseElement</text>
<text text-anchor="start" x="83" y="-886.5" font-family="Helvetica,sans-Serif" font-size="10.00">+</text>
<text text-anchor="start" x="96" y="-886.5" font-family="Helvetica,sans-Serif" font-size="10.00">element</text>
<text text-anchor="start" x="83" y="-871.5" font-family="Helvetica,sans-Serif" font-size="10.00">+</text>
<text text-anchor="start" x="96" y="-871.5" font-family="Helvetica,sans-Serif" font-size="10.00">id</text>
<text text-anchor="start" x="83" y="-856.5" font-family="Helvetica,sans-Serif" font-size="10.00">+</text>
<text text-anchor="start" x="96" y="-856.5" font-family="Helvetica,sans-Serif" font-size="10.00">extensionElements</text>
<text text-anchor="start" x="83" y="-841.5" font-family="Helvetica,sans-Serif" font-size="10.00">+</text>
<text text-anchor="start" x="96" y="-841.5" font-family="Helvetica,sans-Serif" font-size="10.00">BaseElement()</text>
<text text-anchor="start" x="83" y="-826.5" font-family="Helvetica,sans-Serif" font-size="10.00">+</text>
<text text-anchor="start" x="96" y="-826.5" font-family="Helvetica,sans-Serif" font-size="10.00">is()</text>
<text text-anchor="start" x="83" y="-811.5" font-family="Helvetica,sans-Serif" font-size="10.00">+</text>
<text text-anchor="start" x="96" y="-811.5" font-family="Helvetica,sans-Serif" font-size="10.00">is()</text>
<text text-anchor="start" x="83" y="-796.5" font-family="Helvetica,sans-Serif" font-size="10.00">+</text>
<text text-anchor="start" x="96" y="-796.5" font-family="Helvetica,sans-Serif" font-size="10.00">get()</text>
<text text-anchor="start" x="83" y="-781.5" font-family="Helvetica,sans-Serif" font-size="10.00">+</text>
<text text-anchor="start" x="96" y="-781.5" font-family="Helvetica,sans-Serif" font-size="10.00">get()</text>
<polygon fill="#666666" stroke="#666666" points="79,-896.5 79,-896.5 194,-896.5 194,-896.5 79,-896.5"/>
<polygon fill="#666666" stroke="#666666" points="79,-851.5 79,-851.5 94,-851.5 94,-851.5 79,-851.5"/>
<polygon fill="#666666" stroke="#666666" points="94,-851.5 94,-851.5 194,-851.5 194,-851.5 94,-851.5"/>
<polygon fill="none" stroke="#666666" points="78.5,-775 78.5,-914 193.5,-914 193.5,-775 78.5,-775"/>
</a>
</g>
</g>
<!-- Node8&#45;&gt;Node7 -->
<g id="edge7_Node000007_Node000008" class="edge">
<title>Node8&#45;&gt;Node7</title>
<g id="a_edge7_Node000007_Node000008"><a xlink:title=" ">
<path fill="none" stroke="#63b8ff" d="M136,-764.71C136,-756.12 136,-747.47 136,-739.14"/>
<polygon fill="none" stroke="#63b8ff" points="132.5,-764.75 136,-774.75 139.5,-764.75 132.5,-764.75"/>
</a>
</g>
</g>
<!-- Node9 -->
<g id="Node000009" class="node">
<title>Node9</title>
<g id="a_Node000009"><a xlink:href="classBPMN_1_1Element.html" target="_top" xlink:title="Abstract base class for all elements in a BPMN model.">
<polygon fill="white" stroke="transparent" points="179,-1059 93,-1059 93,-950 179,-950 179,-1059"/>
<text text-anchor="start" x="98" y="-1046.5" font-family="Helvetica,sans-Serif" font-size="10.00">BPMN::Element</text>
<text text-anchor="start" x="134" y="-1031.5" font-family="Helvetica,sans-Serif" font-size="10.00"> </text>
<text text-anchor="start" x="98" y="-1016.5" font-family="Helvetica,sans-Serif" font-size="10.00">+</text>
<text text-anchor="start" x="112" y="-1016.5" font-family="Helvetica,sans-Serif" font-size="10.00">~Element()</text>
<text text-anchor="start" x="98" y="-1001.5" font-family="Helvetica,sans-Serif" font-size="10.00">+</text>
<text text-anchor="start" x="112" y="-1001.5" font-family="Helvetica,sans-Serif" font-size="10.00">represents()</text>
<text text-anchor="start" x="98" y="-986.5" font-family="Helvetica,sans-Serif" font-size="10.00">+</text>
<text text-anchor="start" x="112" y="-986.5" font-family="Helvetica,sans-Serif" font-size="10.00">represents()</text>
<text text-anchor="start" x="98" y="-971.5" font-family="Helvetica,sans-Serif" font-size="10.00">+</text>
<text text-anchor="start" x="112" y="-971.5" font-family="Helvetica,sans-Serif" font-size="10.00">as()</text>
<text text-anchor="start" x="98" y="-956.5" font-family="Helvetica,sans-Serif" font-size="10.00">+</text>
<text text-anchor="start" x="112" y="-956.5" font-family="Helvetica,sans-Serif" font-size="10.00">as()</text>
<polygon fill="#666666" stroke="#666666" points="93,-1041.5 93,-1041.5 179,-1041.5 179,-1041.5 93,-1041.5"/>
<polygon fill="#666666" stroke="#666666" points="93,-1026.5 93,-1026.5 179,-1026.5 179,-1026.5 93,-1026.5"/>
<polygon fill="none" stroke="#666666" points="93,-950 93,-1059 179,-1059 179,-950 93,-950"/>
</a>
</g>
</g>
<!-- Node9&#45;&gt;Node8 -->
<g id="edge8_Node000008_Node000009" class="edge">
<title>Node9&#45;&gt;Node8</title>
<g id="a_edge8_Node000008_Node000009"><a xlink:title=" ">
<path fill="none" stroke="#63b8ff" d="M136,-939.55C136,-931.23 136,-922.67 136,-914.28"/>
<polygon fill="none" stroke="#63b8ff" points="132.5,-939.57 136,-949.57 139.5,-939.57 132.5,-939.57"/>
</a>
</g>
</g>
<!-- Node10&#45;&gt;Node1 -->
<g id="edge9_Node000001_Node000010" class="edge">
<title>Node10&#45;&gt;Node1</title>
<g id="a_edge9_Node000001_Node000010"><a xlink:title=" ">
<path fill="none" stroke="#63b8ff" d="M173.43,-76.45C166.43,-66.92 159.35,-57.29 153.27,-49"/>
<polygon fill="none" stroke="#63b8ff" points="170.8,-78.78 179.54,-84.77 176.44,-74.64 170.8,-78.78"/>
</a>
</g>
</g>
</g>
</svg>
