<?xml version="1.0" encoding="UTF-8" standalone="no"?>
<!DOCTYPE svg PUBLIC "-//W3C//DTD SVG 1.1//EN"
 "http://www.w3.org/Graphics/SVG/1.1/DTD/svg11.dtd">
<!-- Generated by graphviz version 2.43.0 (0)
 -->
<!-- Title: BPMN::SubProcess Pages: 1 -->
<svg width="308pt" height="1054pt"
 viewBox="0.00 0.00 307.50 1054.00" xmlns="http://www.w3.org/2000/svg" xmlns:xlink="http://www.w3.org/1999/xlink">
<g id="graph0" class="graph" transform="scale(1 1) rotate(0) translate(4 1050)">
<title>BPMN::SubProcess</title>
<!-- Node1 -->
<g id="node1" class="node">
<title>Node1</title>
<g id="a_node1"><a xlink:title=" ">
<polygon fill="#bfbfbf" stroke="black" points="76,-94.5 76,-162.5 183,-162.5 183,-94.5 76,-94.5"/>
<text text-anchor="middle" x="129.5" y="-150.5" font-family="Helvetica,sans-Serif" font-size="10.00">BPMN::SubProcess</text>
<polyline fill="none" stroke="black" points="76,-143.5 183,-143.5 "/>
<text text-anchor="start" x="84" y="-131.5" font-family="Helvetica,sans-Serif" font-size="10.00">+ startEvent</text>
<text text-anchor="start" x="84" y="-120.5" font-family="Helvetica,sans-Serif" font-size="10.00">+ element</text>
<polyline fill="none" stroke="black" points="76,-113.5 183,-113.5 "/>
<text text-anchor="start" x="84" y="-101.5" font-family="Helvetica,sans-Serif" font-size="10.00">+ SubProcess()</text>
</a>
</g>
</g>
<!-- Node9 -->
<g id="node9" class="node">
<title>Node9</title>
<g id="a_node9"><a xlink:href="classBPMN_1_1Transaction.html" target="_top" xlink:title=" ">
<polygon fill="none" stroke="black" points="76,-0.5 76,-57.5 183,-57.5 183,-0.5 76,-0.5"/>
<text text-anchor="middle" x="129.5" y="-45.5" font-family="Helvetica,sans-Serif" font-size="10.00">BPMN::Transaction</text>
<polyline fill="none" stroke="black" points="76,-38.5 183,-38.5 "/>
<text text-anchor="start" x="84" y="-26.5" font-family="Helvetica,sans-Serif" font-size="10.00">+ element</text>
<polyline fill="none" stroke="black" points="76,-19.5 183,-19.5 "/>
<text text-anchor="start" x="84" y="-7.5" font-family="Helvetica,sans-Serif" font-size="10.00">+ Transaction()</text>
</a>
</g>
</g>
<!-- Node1&#45;&gt;Node9 -->
<g id="edge9" class="edge">
<title>Node1&#45;&gt;Node9</title>
<path fill="none" stroke="midnightblue" d="M129.5,-84.45C129.5,-75.4 129.5,-66.09 129.5,-57.78"/>
<polygon fill="none" stroke="midnightblue" points="126,-84.49 129.5,-94.49 133,-84.49 126,-84.49"/>
</g>
<!-- Node2 -->
<g id="node2" class="node">
<title>Node2</title>
<g id="a_node2"><a xlink:href="classBPMN_1_1Activity.html" target="_top" xlink:title=" ">
<polygon fill="none" stroke="black" points="24.5,-199.5 24.5,-300.5 146.5,-300.5 146.5,-199.5 24.5,-199.5"/>
<text text-anchor="middle" x="85.5" y="-288.5" font-family="Helvetica,sans-Serif" font-size="10.00">BPMN::Activity</text>
<polyline fill="none" stroke="black" points="24.5,-281.5 146.5,-281.5 "/>
<text text-anchor="start" x="32.5" y="-269.5" font-family="Helvetica,sans-Serif" font-size="10.00">+ boundaryEvents</text>
<text text-anchor="start" x="32.5" y="-258.5" font-family="Helvetica,sans-Serif" font-size="10.00">+ compensatedBy</text>
<text text-anchor="start" x="32.5" y="-247.5" font-family="Helvetica,sans-Serif" font-size="10.00">+ isForCompensation</text>
<text text-anchor="start" x="32.5" y="-236.5" font-family="Helvetica,sans-Serif" font-size="10.00">+ loopCharacteristics</text>
<text text-anchor="start" x="32.5" y="-225.5" font-family="Helvetica,sans-Serif" font-size="10.00">+ element</text>
<polyline fill="none" stroke="black" points="24.5,-218.5 146.5,-218.5 "/>
<text text-anchor="start" x="32.5" y="-206.5" font-family="Helvetica,sans-Serif" font-size="10.00">+ Activity()</text>
</a>
</g>
</g>
<!-- Node2&#45;&gt;Node1 -->
<g id="edge1" class="edge">
<title>Node2&#45;&gt;Node1</title>
<path fill="none" stroke="midnightblue" d="M107.31,-189.76C110.72,-180.5 114.14,-171.23 117.23,-162.83"/>
<polygon fill="none" stroke="midnightblue" points="103.95,-188.77 103.78,-199.36 110.52,-191.18 103.95,-188.77"/>
</g>
<!-- Node3 -->
<g id="node3" class="node">
<title>Node3</title>
<g id="a_node3"><a xlink:href="classBPMN_1_1FlowNode.html" target="_top" xlink:title="Base class for BPMN elements that may contain incoming and outgoing sequence flows.">
<polygon fill="none" stroke="black" points="0,-376 0,-466 101,-466 101,-376 0,-376"/>
<text text-anchor="middle" x="50.5" y="-454" font-family="Helvetica,sans-Serif" font-size="10.00">BPMN::FlowNode</text>
<polyline fill="none" stroke="black" points="0,-447 101,-447 "/>
<text text-anchor="start" x="8" y="-435" font-family="Helvetica,sans-Serif" font-size="10.00">+ element</text>
<text text-anchor="start" x="8" y="-424" font-family="Helvetica,sans-Serif" font-size="10.00">+ name</text>
<text text-anchor="start" x="8" y="-413" font-family="Helvetica,sans-Serif" font-size="10.00">+ incoming</text>
<text text-anchor="start" x="8" y="-402" font-family="Helvetica,sans-Serif" font-size="10.00">+ outgoing</text>
<polyline fill="none" stroke="black" points="0,-395 101,-395 "/>
<text text-anchor="start" x="8" y="-383" font-family="Helvetica,sans-Serif" font-size="10.00">+ FlowNode()</text>
</a>
</g>
</g>
<!-- Node3&#45;&gt;Node2 -->
<g id="edge2" class="edge">
<title>Node3&#45;&gt;Node2</title>
<path fill="none" stroke="midnightblue" d="M61.76,-365.62C66.08,-344.79 70.97,-321.15 75.19,-300.77"/>
<polygon fill="none" stroke="midnightblue" points="58.3,-365.1 59.7,-375.6 65.15,-366.51 58.3,-365.1"/>
</g>
<!-- Node4 -->
<g id="node4" class="node">
<title>Node4</title>
<g id="a_node4"><a xlink:href="classBPMN_1_1ChildNode.html" target="_top" xlink:title="Base class for BPMN elements within a Scope.">
<polygon fill="none" stroke="black" points="39.5,-541.5 39.5,-598.5 141.5,-598.5 141.5,-541.5 39.5,-541.5"/>
<text text-anchor="middle" x="90.5" y="-586.5" font-family="Helvetica,sans-Serif" font-size="10.00">BPMN::ChildNode</text>
<polyline fill="none" stroke="black" points="39.5,-579.5 141.5,-579.5 "/>
<text text-anchor="start" x="47.5" y="-567.5" font-family="Helvetica,sans-Serif" font-size="10.00">+ parent</text>
<polyline fill="none" stroke="black" points="39.5,-560.5 141.5,-560.5 "/>
<text text-anchor="start" x="47.5" y="-548.5" font-family="Helvetica,sans-Serif" font-size="10.00">+ ChildNode()</text>
</a>
</g>
</g>
<!-- Node4&#45;&gt;Node3 -->
<g id="edge3" class="edge">
<title>Node4&#45;&gt;Node3</title>
<path fill="none" stroke="midnightblue" d="M80.28,-531.43C74.87,-511.57 68.2,-487.06 62.55,-466.28"/>
<polygon fill="none" stroke="midnightblue" points="76.97,-532.62 82.98,-541.35 83.73,-530.78 76.97,-532.62"/>
</g>
<!-- Node5 -->
<g id="node5" class="node">
<title>Node5</title>
<g id="a_node5"><a xlink:href="classBPMN_1_1Node.html" target="_top" xlink:title="Base class for all nodes in a BPMN model.">
<polygon fill="none" stroke="black" points="91,-635.5 91,-747.5 168,-747.5 168,-635.5 91,-635.5"/>
<text text-anchor="middle" x="129.5" y="-735.5" font-family="Helvetica,sans-Serif" font-size="10.00">BPMN::Node</text>
<polyline fill="none" stroke="black" points="91,-728.5 168,-728.5 "/>
<text text-anchor="start" x="99" y="-716.5" font-family="Helvetica,sans-Serif" font-size="10.00">+ receiving</text>
<text text-anchor="start" x="99" y="-705.5" font-family="Helvetica,sans-Serif" font-size="10.00">+ sending</text>
<polyline fill="none" stroke="black" points="91,-698.5 168,-698.5 "/>
<text text-anchor="start" x="99" y="-686.5" font-family="Helvetica,sans-Serif" font-size="10.00">+ Node()</text>
<text text-anchor="start" x="99" y="-675.5" font-family="Helvetica,sans-Serif" font-size="10.00">+ find()</text>
<text text-anchor="start" x="99" y="-664.5" font-family="Helvetica,sans-Serif" font-size="10.00">+ find()</text>
<text text-anchor="start" x="99" y="-653.5" font-family="Helvetica,sans-Serif" font-size="10.00">+ find_all()</text>
<text text-anchor="start" x="99" y="-642.5" font-family="Helvetica,sans-Serif" font-size="10.00">+ find_all()</text>
</a>
</g>
</g>
<!-- Node5&#45;&gt;Node4 -->
<g id="edge4" class="edge">
<title>Node5&#45;&gt;Node4</title>
<path fill="none" stroke="midnightblue" d="M108.37,-625.74C105.25,-616.21 102.2,-606.84 99.52,-598.63"/>
<polygon fill="none" stroke="midnightblue" points="105.05,-626.88 111.48,-635.3 111.71,-624.7 105.05,-626.88"/>
</g>
<!-- Node8 -->
<g id="node8" class="node">
<title>Node8</title>
<g id="a_node8"><a xlink:href="classBPMN_1_1Scope.html" target="_top" xlink:title="Base class for BPMN elements that may contain a ChildNode elements.">
<polygon fill="none" stroke="black" points="119.5,-337.5 119.5,-504.5 299.5,-504.5 299.5,-337.5 119.5,-337.5"/>
<text text-anchor="middle" x="209.5" y="-492.5" font-family="Helvetica,sans-Serif" font-size="10.00">BPMN::Scope</text>
<polyline fill="none" stroke="black" points="119.5,-485.5 299.5,-485.5 "/>
<text text-anchor="start" x="127.5" y="-473.5" font-family="Helvetica,sans-Serif" font-size="10.00">+ childNodes</text>
<text text-anchor="start" x="127.5" y="-462.5" font-family="Helvetica,sans-Serif" font-size="10.00">+ flowNodes</text>
<text text-anchor="start" x="127.5" y="-451.5" font-family="Helvetica,sans-Serif" font-size="10.00">+ eventSubProcesses</text>
<text text-anchor="start" x="127.5" y="-440.5" font-family="Helvetica,sans-Serif" font-size="10.00">+ startNodes</text>
<text text-anchor="start" x="127.5" y="-429.5" font-family="Helvetica,sans-Serif" font-size="10.00">+ sequenceFlows</text>
<text text-anchor="start" x="127.5" y="-418.5" font-family="Helvetica,sans-Serif" font-size="10.00">+ compensationActivities</text>
<text text-anchor="start" x="127.5" y="-407.5" font-family="Helvetica,sans-Serif" font-size="10.00">+ compensationEventSubProcess</text>
<text text-anchor="start" x="127.5" y="-396.5" font-family="Helvetica,sans-Serif" font-size="10.00">+ dataObjects</text>
<polyline fill="none" stroke="black" points="119.5,-389.5 299.5,-389.5 "/>
<text text-anchor="start" x="127.5" y="-377.5" font-family="Helvetica,sans-Serif" font-size="10.00">+ Scope()</text>
<text text-anchor="start" x="127.5" y="-366.5" font-family="Helvetica,sans-Serif" font-size="10.00"># add()</text>
<text text-anchor="start" x="127.5" y="-355.5" font-family="Helvetica,sans-Serif" font-size="10.00"># add()</text>
<text text-anchor="start" x="127.5" y="-344.5" font-family="Helvetica,sans-Serif" font-size="10.00"># add()</text>
</a>
</g>
</g>
<!-- Node5&#45;&gt;Node8 -->
<g id="edge8" class="edge">
<title>Node5&#45;&gt;Node8</title>
<path fill="none" stroke="midnightblue" d="M148.96,-625.2C159.78,-588.87 173.36,-543.3 184.91,-504.52"/>
<polygon fill="none" stroke="midnightblue" points="145.48,-624.61 145.98,-635.19 152.19,-626.61 145.48,-624.61"/>
</g>
<!-- Node6 -->
<g id="node6" class="node">
<title>Node6</title>
<g id="a_node6"><a xlink:href="classBPMN_1_1BaseElement.html" target="_top" xlink:title="Base class for all core BPMN elements.">
<polygon fill="none" stroke="black" points="68.5,-784.5 68.5,-907.5 190.5,-907.5 190.5,-784.5 68.5,-784.5"/>
<text text-anchor="middle" x="129.5" y="-895.5" font-family="Helvetica,sans-Serif" font-size="10.00">BPMN::BaseElement</text>
<polyline fill="none" stroke="black" points="68.5,-888.5 190.5,-888.5 "/>
<text text-anchor="start" x="76.5" y="-876.5" font-family="Helvetica,sans-Serif" font-size="10.00">+ element</text>
<text text-anchor="start" x="76.5" y="-865.5" font-family="Helvetica,sans-Serif" font-size="10.00">+ id</text>
<text text-anchor="start" x="76.5" y="-854.5" font-family="Helvetica,sans-Serif" font-size="10.00">+ extensionElements</text>
<polyline fill="none" stroke="black" points="68.5,-847.5 190.5,-847.5 "/>
<text text-anchor="start" x="76.5" y="-835.5" font-family="Helvetica,sans-Serif" font-size="10.00">+ BaseElement()</text>
<text text-anchor="start" x="76.5" y="-824.5" font-family="Helvetica,sans-Serif" font-size="10.00">+ is()</text>
<text text-anchor="start" x="76.5" y="-813.5" font-family="Helvetica,sans-Serif" font-size="10.00">+ is()</text>
<text text-anchor="start" x="76.5" y="-802.5" font-family="Helvetica,sans-Serif" font-size="10.00">+ get()</text>
<text text-anchor="start" x="76.5" y="-791.5" font-family="Helvetica,sans-Serif" font-size="10.00">+ get()</text>
</a>
</g>
</g>
<!-- Node6&#45;&gt;Node5 -->
<g id="edge5" class="edge">
<title>Node6&#45;&gt;Node5</title>
<path fill="none" stroke="midnightblue" d="M129.5,-774.25C129.5,-765.29 129.5,-756.23 129.5,-747.56"/>
<polygon fill="none" stroke="midnightblue" points="126,-774.29 129.5,-784.29 133,-774.29 126,-774.29"/>
</g>
<!-- Node7 -->
<g id="node7" class="node">
<title>Node7</title>
<g id="a_node7"><a xlink:href="classBPMN_1_1Element.html" target="_top" xlink:title="Abstract base class for all elements in a BPMN model.">
<polygon fill="none" stroke="black" points="83.5,-944.5 83.5,-1045.5 175.5,-1045.5 175.5,-944.5 83.5,-944.5"/>
<text text-anchor="middle" x="129.5" y="-1033.5" font-family="Helvetica,sans-Serif" font-size="10.00">BPMN::Element</text>
<polyline fill="none" stroke="black" points="83.5,-1026.5 175.5,-1026.5 "/>
<text text-anchor="middle" x="129.5" y="-1014.5" font-family="Helvetica,sans-Serif" font-size="10.00"> </text>
<polyline fill="none" stroke="black" points="83.5,-1007.5 175.5,-1007.5 "/>
<text text-anchor="start" x="91.5" y="-995.5" font-family="Helvetica,sans-Serif" font-size="10.00">+ ~Element()</text>
<text text-anchor="start" x="91.5" y="-984.5" font-family="Helvetica,sans-Serif" font-size="10.00">+ represents()</text>
<text text-anchor="start" x="91.5" y="-973.5" font-family="Helvetica,sans-Serif" font-size="10.00">+ represents()</text>
<text text-anchor="start" x="91.5" y="-962.5" font-family="Helvetica,sans-Serif" font-size="10.00">+ as()</text>
<text text-anchor="start" x="91.5" y="-951.5" font-family="Helvetica,sans-Serif" font-size="10.00">+ as()</text>
</a>
</g>
</g>
<!-- Node7&#45;&gt;Node6 -->
<g id="edge6" class="edge">
<title>Node7&#45;&gt;Node6</title>
<path fill="none" stroke="midnightblue" d="M129.5,-934.14C129.5,-925.41 129.5,-916.42 129.5,-907.67"/>
<polygon fill="none" stroke="midnightblue" points="126,-934.23 129.5,-944.23 133,-934.23 126,-934.23"/>
</g>
<!-- Node8&#45;&gt;Node1 -->
<g id="edge7" class="edge">
<title>Node8&#45;&gt;Node1</title>
<path fill="none" stroke="midnightblue" d="M189.42,-327.29C180.14,-287.5 168.34,-240.67 155.5,-199 151.82,-187.06 147.2,-174.19 142.87,-162.81"/>
<polygon fill="none" stroke="midnightblue" points="186.06,-328.29 191.73,-337.24 192.88,-326.71 186.06,-328.29"/>
</g>
</g>
</svg>
