<?xml version="1.0" encoding="UTF-8" standalone="no"?>
<!DOCTYPE svg PUBLIC "-//W3C//DTD SVG 1.1//EN"
 "http://www.w3.org/Graphics/SVG/1.1/DTD/svg11.dtd">
<!-- Generated by graphviz version 2.43.0 (0)
 -->
<!-- Title: XML::bpmn::timerEventDefinition Pages: 1 -->
<svg width="187pt" height="962pt"
 viewBox="0.00 0.00 187.00 962.00" xmlns="http://www.w3.org/2000/svg" xmlns:xlink="http://www.w3.org/1999/xlink">
<g id="graph0" class="graph" transform="scale(1 1) rotate(0) translate(4 958)">
<title>XML::bpmn::timerEventDefinition</title>
<!-- Node1 -->
<g id="Node000001" class="node">
<title>Node1</title>
<g id="a_Node000001"><a xlink:title=" ">
<polygon fill="#999999" stroke="transparent" points="176,-49 3,-49 3,0 176,0 176,-49"/>
<text text-anchor="start" x="8.5" y="-36.5" font-family="Helvetica,sans-Serif" font-size="10.00">XML::bpmn::timerEventDefinition</text>
<text text-anchor="start" x="18" y="-21.5" font-family="Helvetica,sans-Serif" font-size="10.00">+</text>
<text text-anchor="start" x="41.5" y="-21.5" font-family="Helvetica,sans-Serif" font-size="10.00">defaults</text>
<text text-anchor="start" x="18" y="-6.5" font-family="Helvetica,sans-Serif" font-size="10.00">#</text>
<text text-anchor="start" x="41.5" y="-6.5" font-family="Helvetica,sans-Serif" font-size="10.00">timerEventDefinition()</text>
<polygon fill="#666666" stroke="#666666" points="3.5,-31.5 3.5,-31.5 176.5,-31.5 176.5,-31.5 3.5,-31.5"/>
<polygon fill="#666666" stroke="#666666" points="3.5,-16.5 3.5,-16.5 39.5,-16.5 39.5,-16.5 3.5,-16.5"/>
<polygon fill="#666666" stroke="#666666" points="39.5,-16.5 39.5,-16.5 176.5,-16.5 176.5,-16.5 39.5,-16.5"/>
<polygon fill="none" stroke="#666666" points="3,0 3,-49 176,-49 176,0 3,0"/>
</a>
</g>
</g>
<!-- Node2 -->
<g id="Node000002" class="node">
<title>Node2</title>
<g id="a_Node000002"><a xlink:href="classXML_1_1bpmn_1_1tTimerEventDefinition.html" target="_top" xlink:title=" ">
<polygon fill="white" stroke="transparent" points="179,-179 0,-179 0,-85 179,-85 179,-179"/>
<text text-anchor="start" x="5.5" y="-167" font-family="Helvetica,sans-Serif" font-size="10.00">XML::bpmn::tTimerEventDefinition</text>
<text text-anchor="start" x="15" y="-152" font-family="Helvetica,sans-Serif" font-size="10.00">+</text>
<text text-anchor="start" x="38.5" y="-152" font-family="Helvetica,sans-Serif" font-size="10.00">timeDate</text>
<text text-anchor="start" x="15" y="-137" font-family="Helvetica,sans-Serif" font-size="10.00">+</text>
<text text-anchor="start" x="38.5" y="-137" font-family="Helvetica,sans-Serif" font-size="10.00">timeDuration</text>
<text text-anchor="start" x="15" y="-122" font-family="Helvetica,sans-Serif" font-size="10.00">+</text>
<text text-anchor="start" x="38.5" y="-122" font-family="Helvetica,sans-Serif" font-size="10.00">timeCycle</text>
<text text-anchor="start" x="15" y="-107" font-family="Helvetica,sans-Serif" font-size="10.00">+</text>
<text text-anchor="start" x="38.5" y="-107" font-family="Helvetica,sans-Serif" font-size="10.00">defaults</text>
<text text-anchor="start" x="15" y="-92" font-family="Helvetica,sans-Serif" font-size="10.00">#</text>
<text text-anchor="start" x="38.5" y="-92" font-family="Helvetica,sans-Serif" font-size="10.00">tTimerEventDefinition()</text>
<polygon fill="#666666" stroke="#666666" points="0.5,-162 0.5,-162 179.5,-162 179.5,-162 0.5,-162"/>
<polygon fill="#666666" stroke="#666666" points="0.5,-102 0.5,-102 36.5,-102 36.5,-102 0.5,-102"/>
<polygon fill="#666666" stroke="#666666" points="36.5,-102 36.5,-102 179.5,-102 179.5,-102 36.5,-102"/>
<polygon fill="none" stroke="#666666" points="0,-85 0,-179 179,-179 179,-85 0,-85"/>
</a>
</g>
</g>
<!-- Node2&#45;&gt;Node1 -->
<g id="edge1_Node000001_Node000002" class="edge">
<title>Node2&#45;&gt;Node1</title>
<g id="a_edge1_Node000001_Node000002"><a xlink:title=" ">
<path fill="none" stroke="#63b8ff" d="M89.5,-74.59C89.5,-65.62 89.5,-56.79 89.5,-49.15"/>
<polygon fill="none" stroke="#63b8ff" points="86,-74.73 89.5,-84.73 93,-74.73 86,-74.73"/>
</a>
</g>
</g>
<!-- Node3 -->
<g id="Node000003" class="node">
<title>Node3</title>
<g id="a_Node000003"><a xlink:href="classXML_1_1bpmn_1_1tEventDefinition.html" target="_top" xlink:title=" ">
<polygon fill="white" stroke="transparent" points="164.5,-264 14.5,-264 14.5,-215 164.5,-215 164.5,-264"/>
<text text-anchor="start" x="19.5" y="-251.5" font-family="Helvetica,sans-Serif" font-size="10.00">XML::bpmn::tEventDefinition</text>
<text text-anchor="start" x="29" y="-236.5" font-family="Helvetica,sans-Serif" font-size="10.00">+</text>
<text text-anchor="start" x="52.5" y="-236.5" font-family="Helvetica,sans-Serif" font-size="10.00">defaults</text>
<text text-anchor="start" x="29" y="-221.5" font-family="Helvetica,sans-Serif" font-size="10.00">#</text>
<text text-anchor="start" x="52.5" y="-221.5" font-family="Helvetica,sans-Serif" font-size="10.00">tEventDefinition()</text>
<polygon fill="#666666" stroke="#666666" points="14.5,-246.5 14.5,-246.5 164.5,-246.5 164.5,-246.5 14.5,-246.5"/>
<polygon fill="#666666" stroke="#666666" points="14.5,-231.5 14.5,-231.5 50.5,-231.5 50.5,-231.5 14.5,-231.5"/>
<polygon fill="#666666" stroke="#666666" points="50.5,-231.5 50.5,-231.5 164.5,-231.5 164.5,-231.5 50.5,-231.5"/>
<polygon fill="none" stroke="#666666" points="14.5,-215 14.5,-264 164.5,-264 164.5,-215 14.5,-215"/>
</a>
</g>
</g>
<!-- Node3&#45;&gt;Node2 -->
<g id="edge2_Node000002_Node000003" class="edge">
<title>Node3&#45;&gt;Node2</title>
<g id="a_edge2_Node000002_Node000003"><a xlink:title=" ">
<path fill="none" stroke="#63b8ff" d="M89.5,-204.61C89.5,-196.48 89.5,-187.66 89.5,-179.08"/>
<polygon fill="none" stroke="#63b8ff" points="86,-204.82 89.5,-214.82 93,-204.82 86,-204.82"/>
</a>
</g>
</g>
<!-- Node4 -->
<g id="Node000004" class="node">
<title>Node4</title>
<g id="a_Node000004"><a xlink:href="classXML_1_1bpmn_1_1tRootElement.html" target="_top" xlink:title=" ">
<polygon fill="white" stroke="transparent" points="158.5,-349 20.5,-349 20.5,-300 158.5,-300 158.5,-349"/>
<text text-anchor="start" x="25.5" y="-336.5" font-family="Helvetica,sans-Serif" font-size="10.00">XML::bpmn::tRootElement</text>
<text text-anchor="start" x="35" y="-321.5" font-family="Helvetica,sans-Serif" font-size="10.00">+</text>
<text text-anchor="start" x="58.5" y="-321.5" font-family="Helvetica,sans-Serif" font-size="10.00">defaults</text>
<text text-anchor="start" x="35" y="-306.5" font-family="Helvetica,sans-Serif" font-size="10.00">#</text>
<text text-anchor="start" x="58.5" y="-306.5" font-family="Helvetica,sans-Serif" font-size="10.00">tRootElement()</text>
<polygon fill="#666666" stroke="#666666" points="20.5,-331.5 20.5,-331.5 158.5,-331.5 158.5,-331.5 20.5,-331.5"/>
<polygon fill="#666666" stroke="#666666" points="20.5,-316.5 20.5,-316.5 56.5,-316.5 56.5,-316.5 20.5,-316.5"/>
<polygon fill="#666666" stroke="#666666" points="56.5,-316.5 56.5,-316.5 158.5,-316.5 158.5,-316.5 56.5,-316.5"/>
<polygon fill="none" stroke="#666666" points="20.5,-300 20.5,-349 158.5,-349 158.5,-300 20.5,-300"/>
</a>
</g>
</g>
<!-- Node4&#45;&gt;Node3 -->
<g id="edge3_Node000003_Node000004" class="edge">
<title>Node4&#45;&gt;Node3</title>
<g id="a_edge3_Node000003_Node000004"><a xlink:title=" ">
<path fill="none" stroke="#63b8ff" d="M89.5,-289.77C89.5,-281.17 89.5,-272.1 89.5,-264.12"/>
<polygon fill="none" stroke="#63b8ff" points="86,-289.94 89.5,-299.94 93,-289.94 86,-289.94"/>
</a>
</g>
</g>
<!-- Node5 -->
<g id="Node000005" class="node">
<title>Node5</title>
<g id="a_Node000005"><a xlink:href="classXML_1_1bpmn_1_1tBaseElement.html" target="_top" xlink:title=" ">
<polygon fill="white" stroke="transparent" points="159.5,-479 19.5,-479 19.5,-385 159.5,-385 159.5,-479"/>
<text text-anchor="start" x="24.5" y="-467" font-family="Helvetica,sans-Serif" font-size="10.00">XML::bpmn::tBaseElement</text>
<text text-anchor="start" x="29.5" y="-452" font-family="Helvetica,sans-Serif" font-size="10.00">+</text>
<text text-anchor="start" x="48.5" y="-452" font-family="Helvetica,sans-Serif" font-size="10.00">documentation</text>
<text text-anchor="start" x="29.5" y="-437" font-family="Helvetica,sans-Serif" font-size="10.00">+</text>
<text text-anchor="start" x="48.5" y="-437" font-family="Helvetica,sans-Serif" font-size="10.00">extensionElements</text>
<text text-anchor="start" x="29.5" y="-422" font-family="Helvetica,sans-Serif" font-size="10.00">+</text>
<text text-anchor="start" x="48.5" y="-422" font-family="Helvetica,sans-Serif" font-size="10.00">id</text>
<text text-anchor="start" x="29.5" y="-407" font-family="Helvetica,sans-Serif" font-size="10.00">+</text>
<text text-anchor="start" x="48.5" y="-407" font-family="Helvetica,sans-Serif" font-size="10.00">defaults</text>
<text text-anchor="start" x="29.5" y="-392" font-family="Helvetica,sans-Serif" font-size="10.00">#</text>
<text text-anchor="start" x="48.5" y="-392" font-family="Helvetica,sans-Serif" font-size="10.00">tBaseElement()</text>
<polygon fill="#666666" stroke="#666666" points="19.5,-462 19.5,-462 159.5,-462 159.5,-462 19.5,-462"/>
<polygon fill="#666666" stroke="#666666" points="19.5,-402 19.5,-402 46.5,-402 46.5,-402 19.5,-402"/>
<polygon fill="#666666" stroke="#666666" points="46.5,-402 46.5,-402 159.5,-402 159.5,-402 46.5,-402"/>
<polygon fill="none" stroke="#666666" points="19.5,-385 19.5,-479 159.5,-479 159.5,-385 19.5,-385"/>
</a>
</g>
</g>
<!-- Node5&#45;&gt;Node4 -->
<g id="edge4_Node000004_Node000005" class="edge">
<title>Node5&#45;&gt;Node4</title>
<g id="a_edge4_Node000004_Node000005"><a xlink:title=" ">
<path fill="none" stroke="#63b8ff" d="M89.5,-374.59C89.5,-365.62 89.5,-356.79 89.5,-349.15"/>
<polygon fill="none" stroke="#63b8ff" points="86,-374.73 89.5,-384.73 93,-374.73 86,-374.73"/>
</a>
</g>
</g>
<!-- Node6 -->
<g id="Node000006" class="node">
<title>Node6</title>
<g id="a_Node000006"><a xlink:href="classXML_1_1XMLObject.html" target="_top" xlink:title="A class representing a node in an XML&#45;tree.">
<polygon fill="white" stroke="transparent" points="176,-954 3,-954 3,-515 176,-515 176,-954"/>
<text text-anchor="start" x="50" y="-941.5" font-family="Helvetica,sans-Serif" font-size="10.00">XML::XMLObject</text>
<text text-anchor="start" x="7.5" y="-926.5" font-family="Helvetica,sans-Serif" font-size="10.00">+</text>
<text text-anchor="start" x="20.5" y="-926.5" font-family="Helvetica,sans-Serif" font-size="10.00">xmlns</text>
<text text-anchor="start" x="7.5" y="-911.5" font-family="Helvetica,sans-Serif" font-size="10.00">+</text>
<text text-anchor="start" x="20.5" y="-911.5" font-family="Helvetica,sans-Serif" font-size="10.00">className</text>
<text text-anchor="start" x="7.5" y="-896.5" font-family="Helvetica,sans-Serif" font-size="10.00">+</text>
<text text-anchor="start" x="20.5" y="-896.5" font-family="Helvetica,sans-Serif" font-size="10.00">prefix</text>
<text text-anchor="start" x="7.5" y="-881.5" font-family="Helvetica,sans-Serif" font-size="10.00">+</text>
<text text-anchor="start" x="20.5" y="-881.5" font-family="Helvetica,sans-Serif" font-size="10.00">elementName</text>
<text text-anchor="start" x="7.5" y="-866.5" font-family="Helvetica,sans-Serif" font-size="10.00">+</text>
<text text-anchor="start" x="20.5" y="-866.5" font-family="Helvetica,sans-Serif" font-size="10.00">textContent</text>
<text text-anchor="start" x="7.5" y="-851.5" font-family="Helvetica,sans-Serif" font-size="10.00">+</text>
<text text-anchor="start" x="20.5" y="-851.5" font-family="Helvetica,sans-Serif" font-size="10.00">children</text>
<text text-anchor="start" x="7.5" y="-836.5" font-family="Helvetica,sans-Serif" font-size="10.00">+</text>
<text text-anchor="start" x="20.5" y="-836.5" font-family="Helvetica,sans-Serif" font-size="10.00">attributes</text>
<text text-anchor="start" x="7.5" y="-821.5" font-family="Helvetica,sans-Serif" font-size="10.00">+</text>
<text text-anchor="start" x="20.5" y="-821.5" font-family="Helvetica,sans-Serif" font-size="10.00">defaults</text>
<text text-anchor="start" x="7.5" y="-806.5" font-family="Helvetica,sans-Serif" font-size="10.00">#</text>
<text text-anchor="start" x="20.5" y="-806.5" font-family="Helvetica,sans-Serif" font-size="10.00">factory</text>
<text text-anchor="start" x="7.5" y="-791.5" font-family="Helvetica,sans-Serif" font-size="10.00">+</text>
<text text-anchor="start" x="20.5" y="-791.5" font-family="Helvetica,sans-Serif" font-size="10.00">~XMLObject()</text>
<text text-anchor="start" x="7.5" y="-776.5" font-family="Helvetica,sans-Serif" font-size="10.00">+</text>
<text text-anchor="start" x="20.5" y="-776.5" font-family="Helvetica,sans-Serif" font-size="10.00">is()</text>
<text text-anchor="start" x="7.5" y="-761.5" font-family="Helvetica,sans-Serif" font-size="10.00">+</text>
<text text-anchor="start" x="20.5" y="-761.5" font-family="Helvetica,sans-Serif" font-size="10.00">get()</text>
<text text-anchor="start" x="7.5" y="-746.5" font-family="Helvetica,sans-Serif" font-size="10.00">+</text>
<text text-anchor="start" x="20.5" y="-746.5" font-family="Helvetica,sans-Serif" font-size="10.00">find()</text>
<text text-anchor="start" x="7.5" y="-731.5" font-family="Helvetica,sans-Serif" font-size="10.00">+</text>
<text text-anchor="start" x="20.5" y="-731.5" font-family="Helvetica,sans-Serif" font-size="10.00">stringify()</text>
<text text-anchor="start" x="7.5" y="-716.5" font-family="Helvetica,sans-Serif" font-size="10.00">+</text>
<text text-anchor="start" x="20.5" y="-716.5" font-family="Helvetica,sans-Serif" font-size="10.00">format()</text>
<text text-anchor="start" x="7.5" y="-701.5" font-family="Helvetica,sans-Serif" font-size="10.00">+</text>
<text text-anchor="start" x="20.5" y="-701.5" font-family="Helvetica,sans-Serif" font-size="10.00">getRequiredChild()</text>
<text text-anchor="start" x="7.5" y="-686.5" font-family="Helvetica,sans-Serif" font-size="10.00">+</text>
<text text-anchor="start" x="20.5" y="-686.5" font-family="Helvetica,sans-Serif" font-size="10.00">getOptionalChild()</text>
<text text-anchor="start" x="7.5" y="-671.5" font-family="Helvetica,sans-Serif" font-size="10.00">+</text>
<text text-anchor="start" x="20.5" y="-671.5" font-family="Helvetica,sans-Serif" font-size="10.00">getChildren()</text>
<text text-anchor="start" x="7.5" y="-656.5" font-family="Helvetica,sans-Serif" font-size="10.00">+</text>
<text text-anchor="start" x="20.5" y="-656.5" font-family="Helvetica,sans-Serif" font-size="10.00">getRequiredChildByName()</text>
<text text-anchor="start" x="7.5" y="-641.5" font-family="Helvetica,sans-Serif" font-size="10.00">+</text>
<text text-anchor="start" x="20.5" y="-641.5" font-family="Helvetica,sans-Serif" font-size="10.00">getOptionalChildByName()</text>
<text text-anchor="start" x="7.5" y="-626.5" font-family="Helvetica,sans-Serif" font-size="10.00">+</text>
<text text-anchor="start" x="20.5" y="-626.5" font-family="Helvetica,sans-Serif" font-size="10.00">getChildrenByName()</text>
<text text-anchor="start" x="7.5" y="-611.5" font-family="Helvetica,sans-Serif" font-size="10.00">+</text>
<text text-anchor="start" x="20.5" y="-611.5" font-family="Helvetica,sans-Serif" font-size="10.00">getRequiredAttributeByName()</text>
<text text-anchor="start" x="7.5" y="-596.5" font-family="Helvetica,sans-Serif" font-size="10.00">+</text>
<text text-anchor="start" x="20.5" y="-596.5" font-family="Helvetica,sans-Serif" font-size="10.00">getOptionalAttributeByName()</text>
<text text-anchor="start" x="7.5" y="-581.5" font-family="Helvetica,sans-Serif" font-size="10.00">+</text>
<text text-anchor="start" x="20.5" y="-581.5" font-family="Helvetica,sans-Serif" font-size="10.00">createFromStream()</text>
<text text-anchor="start" x="7.5" y="-566.5" font-family="Helvetica,sans-Serif" font-size="10.00">+</text>
<text text-anchor="start" x="20.5" y="-566.5" font-family="Helvetica,sans-Serif" font-size="10.00">createFromString()</text>
<text text-anchor="start" x="7.5" y="-551.5" font-family="Helvetica,sans-Serif" font-size="10.00">+</text>
<text text-anchor="start" x="20.5" y="-551.5" font-family="Helvetica,sans-Serif" font-size="10.00">createFromFile()</text>
<text text-anchor="start" x="7.5" y="-536.5" font-family="Helvetica,sans-Serif" font-size="10.00">#</text>
<text text-anchor="start" x="20.5" y="-536.5" font-family="Helvetica,sans-Serif" font-size="10.00">XMLObject()</text>
<text text-anchor="start" x="7.5" y="-521.5" font-family="Helvetica,sans-Serif" font-size="10.00">#</text>
<text text-anchor="start" x="20.5" y="-521.5" font-family="Helvetica,sans-Serif" font-size="10.00">createObject()</text>
<polygon fill="#666666" stroke="#666666" points="3.5,-936.5 3.5,-936.5 176.5,-936.5 176.5,-936.5 3.5,-936.5"/>
<polygon fill="#666666" stroke="#666666" points="3.5,-801.5 3.5,-801.5 18.5,-801.5 18.5,-801.5 3.5,-801.5"/>
<polygon fill="#666666" stroke="#666666" points="18.5,-801.5 18.5,-801.5 176.5,-801.5 176.5,-801.5 18.5,-801.5"/>
<polygon fill="none" stroke="#666666" points="3,-515 3,-954 176,-954 176,-515 3,-515"/>
</a>
</g>
</g>
<!-- Node6&#45;&gt;Node5 -->
<g id="edge5_Node000005_Node000006" class="edge">
<title>Node6&#45;&gt;Node5</title>
<g id="a_edge5_Node000005_Node000006"><a xlink:title=" ">
<path fill="none" stroke="#63b8ff" d="M89.5,-504.65C89.5,-495.56 89.5,-487 89.5,-479.18"/>
<polygon fill="none" stroke="#63b8ff" points="86,-504.72 89.5,-514.72 93,-504.72 86,-504.72"/>
</a>
</g>
</g>
</g>
</svg>
