<?xml version="1.0" encoding="UTF-8" standalone="no"?>
<!DOCTYPE svg PUBLIC "-//W3C//DTD SVG 1.1//EN"
 "http://www.w3.org/Graphics/SVG/1.1/DTD/svg11.dtd">
<!-- Generated by graphviz version 2.43.0 (0)
 -->
<!-- Title: XML::bpmn::tCallableElement Pages: 1 -->
<svg width="826pt" height="1253pt"
 viewBox="0.00 0.00 826.00 1253.00" xmlns="http://www.w3.org/2000/svg" xmlns:xlink="http://www.w3.org/1999/xlink">
<g id="graph0" class="graph" transform="scale(1 1) rotate(0) translate(4 1249)">
<title>XML::bpmn::tCallableElement</title>
<!-- Node1 -->
<g id="Node000001" class="node">
<title>Node1</title>
<g id="a_Node000001"><a xlink:title=" ">
<polygon fill="#999999" stroke="transparent" points="470,-600 315,-600 315,-491 470,-491 470,-600"/>
<text text-anchor="start" x="320.5" y="-587.5" font-family="Helvetica,sans-Serif" font-size="10.00">XML::bpmn::tCallableElement</text>
<text text-anchor="start" x="325.5" y="-572.5" font-family="Helvetica,sans-Serif" font-size="10.00">+</text>
<text text-anchor="start" x="344.5" y="-572.5" font-family="Helvetica,sans-Serif" font-size="10.00">supportedInterfaceRef</text>
<text text-anchor="start" x="325.5" y="-557.5" font-family="Helvetica,sans-Serif" font-size="10.00">+</text>
<text text-anchor="start" x="344.5" y="-557.5" font-family="Helvetica,sans-Serif" font-size="10.00">ioSpecification</text>
<text text-anchor="start" x="325.5" y="-542.5" font-family="Helvetica,sans-Serif" font-size="10.00">+</text>
<text text-anchor="start" x="344.5" y="-542.5" font-family="Helvetica,sans-Serif" font-size="10.00">ioBinding</text>
<text text-anchor="start" x="325.5" y="-527.5" font-family="Helvetica,sans-Serif" font-size="10.00">+</text>
<text text-anchor="start" x="344.5" y="-527.5" font-family="Helvetica,sans-Serif" font-size="10.00">name</text>
<text text-anchor="start" x="325.5" y="-512.5" font-family="Helvetica,sans-Serif" font-size="10.00">+</text>
<text text-anchor="start" x="344.5" y="-512.5" font-family="Helvetica,sans-Serif" font-size="10.00">defaults</text>
<text text-anchor="start" x="325.5" y="-497.5" font-family="Helvetica,sans-Serif" font-size="10.00">#</text>
<text text-anchor="start" x="344.5" y="-497.5" font-family="Helvetica,sans-Serif" font-size="10.00">tCallableElement()</text>
<polygon fill="#666666" stroke="#666666" points="315.5,-582.5 315.5,-582.5 470.5,-582.5 470.5,-582.5 315.5,-582.5"/>
<polygon fill="#666666" stroke="#666666" points="315.5,-507.5 315.5,-507.5 342.5,-507.5 342.5,-507.5 315.5,-507.5"/>
<polygon fill="#666666" stroke="#666666" points="342.5,-507.5 342.5,-507.5 470.5,-507.5 470.5,-507.5 342.5,-507.5"/>
<polygon fill="none" stroke="#666666" points="315,-491 315,-600 470,-600 470,-491 315,-491"/>
</a>
</g>
</g>
<!-- Node5 -->
<g id="Node000005" class="node">
<title>Node5</title>
<g id="a_Node000005"><a xlink:href="classXML_1_1bpmn_1_1callableElement.html" target="_top" xlink:title=" ">
<polygon fill="white" stroke="transparent" points="310.5,-357.5 160.5,-357.5 160.5,-308.5 310.5,-308.5 310.5,-357.5"/>
<text text-anchor="start" x="165.5" y="-345" font-family="Helvetica,sans-Serif" font-size="10.00">XML::bpmn::callableElement</text>
<text text-anchor="start" x="175" y="-330" font-family="Helvetica,sans-Serif" font-size="10.00">+</text>
<text text-anchor="start" x="198.5" y="-330" font-family="Helvetica,sans-Serif" font-size="10.00">defaults</text>
<text text-anchor="start" x="175" y="-315" font-family="Helvetica,sans-Serif" font-size="10.00">#</text>
<text text-anchor="start" x="198.5" y="-315" font-family="Helvetica,sans-Serif" font-size="10.00">callableElement()</text>
<polygon fill="#666666" stroke="#666666" points="160.5,-340 160.5,-340 310.5,-340 310.5,-340 160.5,-340"/>
<polygon fill="#666666" stroke="#666666" points="160.5,-325 160.5,-325 196.5,-325 196.5,-325 160.5,-325"/>
<polygon fill="#666666" stroke="#666666" points="196.5,-325 196.5,-325 310.5,-325 310.5,-325 196.5,-325"/>
<polygon fill="none" stroke="#666666" points="160.5,-308.5 160.5,-357.5 310.5,-357.5 310.5,-308.5 160.5,-308.5"/>
</a>
</g>
</g>
<!-- Node1&#45;&gt;Node5 -->
<g id="edge4_Node000001_Node000005" class="edge">
<title>Node1&#45;&gt;Node5</title>
<g id="a_edge4_Node000001_Node000005"><a xlink:title=" ">
<path fill="none" stroke="#63b8ff" d="M341,-482.62C333.67,-473.45 326.31,-464.04 319.5,-455 294.58,-421.91 267.56,-382.24 251.08,-357.58"/>
<polygon fill="none" stroke="#63b8ff" points="338.43,-485.01 347.42,-490.61 343.88,-480.62 338.43,-485.01"/>
</a>
</g>
</g>
<!-- Node6 -->
<g id="Node000006" class="node">
<title>Node6</title>
<g id="a_Node000006"><a xlink:href="classXML_1_1bpmn_1_1tGlobalTask.html" target="_top" xlink:title=" ">
<polygon fill="white" stroke="transparent" points="456.5,-365 328.5,-365 328.5,-301 456.5,-301 456.5,-365"/>
<text text-anchor="start" x="333.5" y="-353" font-family="Helvetica,sans-Serif" font-size="10.00">XML::bpmn::tGlobalTask</text>
<text text-anchor="start" x="343" y="-338" font-family="Helvetica,sans-Serif" font-size="10.00">+</text>
<text text-anchor="start" x="366.5" y="-338" font-family="Helvetica,sans-Serif" font-size="10.00">resourceRole</text>
<text text-anchor="start" x="343" y="-323" font-family="Helvetica,sans-Serif" font-size="10.00">+</text>
<text text-anchor="start" x="366.5" y="-323" font-family="Helvetica,sans-Serif" font-size="10.00">defaults</text>
<text text-anchor="start" x="343" y="-308" font-family="Helvetica,sans-Serif" font-size="10.00">#</text>
<text text-anchor="start" x="366.5" y="-308" font-family="Helvetica,sans-Serif" font-size="10.00">tGlobalTask()</text>
<polygon fill="#666666" stroke="#666666" points="328.5,-348 328.5,-348 456.5,-348 456.5,-348 328.5,-348"/>
<polygon fill="#666666" stroke="#666666" points="328.5,-318 328.5,-318 364.5,-318 364.5,-318 328.5,-318"/>
<polygon fill="#666666" stroke="#666666" points="364.5,-318 364.5,-318 456.5,-318 456.5,-318 364.5,-318"/>
<polygon fill="none" stroke="#666666" points="328.5,-301 328.5,-365 456.5,-365 456.5,-301 328.5,-301"/>
</a>
</g>
</g>
<!-- Node1&#45;&gt;Node6 -->
<g id="edge5_Node000001_Node000006" class="edge">
<title>Node1&#45;&gt;Node6</title>
<g id="a_edge5_Node000001_Node000006"><a xlink:title=" ">
<path fill="none" stroke="#63b8ff" d="M392.5,-480.79C392.5,-442.46 392.5,-395.37 392.5,-365.03"/>
<polygon fill="none" stroke="#63b8ff" points="389,-480.84 392.5,-490.84 396,-480.84 389,-480.84"/>
</a>
</g>
</g>
<!-- Node16 -->
<g id="Node000016" class="node">
<title>Node16</title>
<g id="a_Node000016"><a xlink:href="classXML_1_1bpmn_1_1tProcess.html" target="_top" xlink:title=" ">
<polygon fill="white" stroke="transparent" points="632.5,-455 474.5,-455 474.5,-211 632.5,-211 632.5,-455"/>
<text text-anchor="start" x="502" y="-443" font-family="Helvetica,sans-Serif" font-size="10.00">XML::bpmn::tProcess</text>
<text text-anchor="start" x="478.5" y="-428" font-family="Helvetica,sans-Serif" font-size="10.00">+</text>
<text text-anchor="start" x="491.5" y="-428" font-family="Helvetica,sans-Serif" font-size="10.00">auditing</text>
<text text-anchor="start" x="478.5" y="-413" font-family="Helvetica,sans-Serif" font-size="10.00">+</text>
<text text-anchor="start" x="491.5" y="-413" font-family="Helvetica,sans-Serif" font-size="10.00">monitoring</text>
<text text-anchor="start" x="478.5" y="-398" font-family="Helvetica,sans-Serif" font-size="10.00">+</text>
<text text-anchor="start" x="491.5" y="-398" font-family="Helvetica,sans-Serif" font-size="10.00">property</text>
<text text-anchor="start" x="478.5" y="-383" font-family="Helvetica,sans-Serif" font-size="10.00">+</text>
<text text-anchor="start" x="491.5" y="-383" font-family="Helvetica,sans-Serif" font-size="10.00">laneSet</text>
<text text-anchor="start" x="478.5" y="-368" font-family="Helvetica,sans-Serif" font-size="10.00">+</text>
<text text-anchor="start" x="491.5" y="-368" font-family="Helvetica,sans-Serif" font-size="10.00">flowElement</text>
<text text-anchor="start" x="478.5" y="-353" font-family="Helvetica,sans-Serif" font-size="10.00">+</text>
<text text-anchor="start" x="491.5" y="-353" font-family="Helvetica,sans-Serif" font-size="10.00">artifact</text>
<text text-anchor="start" x="478.5" y="-338" font-family="Helvetica,sans-Serif" font-size="10.00">+</text>
<text text-anchor="start" x="491.5" y="-338" font-family="Helvetica,sans-Serif" font-size="10.00">resourceRole</text>
<text text-anchor="start" x="478.5" y="-323" font-family="Helvetica,sans-Serif" font-size="10.00">+</text>
<text text-anchor="start" x="491.5" y="-323" font-family="Helvetica,sans-Serif" font-size="10.00">correlationSubscription</text>
<text text-anchor="start" x="478.5" y="-308" font-family="Helvetica,sans-Serif" font-size="10.00">+</text>
<text text-anchor="start" x="491.5" y="-308" font-family="Helvetica,sans-Serif" font-size="10.00">supports</text>
<text text-anchor="start" x="478.5" y="-293" font-family="Helvetica,sans-Serif" font-size="10.00">+</text>
<text text-anchor="start" x="491.5" y="-293" font-family="Helvetica,sans-Serif" font-size="10.00">processType</text>
<text text-anchor="start" x="478.5" y="-278" font-family="Helvetica,sans-Serif" font-size="10.00">+</text>
<text text-anchor="start" x="491.5" y="-278" font-family="Helvetica,sans-Serif" font-size="10.00">isClosed</text>
<text text-anchor="start" x="478.5" y="-263" font-family="Helvetica,sans-Serif" font-size="10.00">+</text>
<text text-anchor="start" x="491.5" y="-263" font-family="Helvetica,sans-Serif" font-size="10.00">isExecutable</text>
<text text-anchor="start" x="478.5" y="-248" font-family="Helvetica,sans-Serif" font-size="10.00">+</text>
<text text-anchor="start" x="491.5" y="-248" font-family="Helvetica,sans-Serif" font-size="10.00">definitionalCollaborationRef</text>
<text text-anchor="start" x="478.5" y="-233" font-family="Helvetica,sans-Serif" font-size="10.00">+</text>
<text text-anchor="start" x="491.5" y="-233" font-family="Helvetica,sans-Serif" font-size="10.00">defaults</text>
<text text-anchor="start" x="478.5" y="-218" font-family="Helvetica,sans-Serif" font-size="10.00">#</text>
<text text-anchor="start" x="491.5" y="-218" font-family="Helvetica,sans-Serif" font-size="10.00">tProcess()</text>
<polygon fill="#666666" stroke="#666666" points="474.5,-438 474.5,-438 632.5,-438 632.5,-438 474.5,-438"/>
<polygon fill="#666666" stroke="#666666" points="474.5,-228 474.5,-228 489.5,-228 489.5,-228 474.5,-228"/>
<polygon fill="#666666" stroke="#666666" points="489.5,-228 489.5,-228 632.5,-228 632.5,-228 489.5,-228"/>
<polygon fill="none" stroke="#666666" points="474.5,-211 474.5,-455 632.5,-455 632.5,-211 474.5,-211"/>
</a>
</g>
</g>
<!-- Node1&#45;&gt;Node16 -->
<g id="edge15_Node000001_Node000016" class="edge">
<title>Node1&#45;&gt;Node16</title>
<g id="a_edge15_Node000001_Node000016"><a xlink:title=" ">
<path fill="none" stroke="#63b8ff" d="M443.29,-483.14C450.82,-473.78 458.42,-464.18 465.5,-455 468.43,-451.19 471.4,-447.31 474.39,-443.37"/>
<polygon fill="none" stroke="#63b8ff" points="440.56,-480.96 437,-490.93 446,-485.36 440.56,-480.96"/>
</a>
</g>
</g>
<!-- Node2 -->
<g id="Node000002" class="node">
<title>Node2</title>
<g id="a_Node000002"><a xlink:href="classXML_1_1bpmn_1_1tRootElement.html" target="_top" xlink:title=" ">
<polygon fill="white" stroke="transparent" points="461.5,-685 323.5,-685 323.5,-636 461.5,-636 461.5,-685"/>
<text text-anchor="start" x="328.5" y="-672.5" font-family="Helvetica,sans-Serif" font-size="10.00">XML::bpmn::tRootElement</text>
<text text-anchor="start" x="338" y="-657.5" font-family="Helvetica,sans-Serif" font-size="10.00">+</text>
<text text-anchor="start" x="361.5" y="-657.5" font-family="Helvetica,sans-Serif" font-size="10.00">defaults</text>
<text text-anchor="start" x="338" y="-642.5" font-family="Helvetica,sans-Serif" font-size="10.00">#</text>
<text text-anchor="start" x="361.5" y="-642.5" font-family="Helvetica,sans-Serif" font-size="10.00">tRootElement()</text>
<polygon fill="#666666" stroke="#666666" points="323.5,-667.5 323.5,-667.5 461.5,-667.5 461.5,-667.5 323.5,-667.5"/>
<polygon fill="#666666" stroke="#666666" points="323.5,-652.5 323.5,-652.5 359.5,-652.5 359.5,-652.5 323.5,-652.5"/>
<polygon fill="#666666" stroke="#666666" points="359.5,-652.5 359.5,-652.5 461.5,-652.5 461.5,-652.5 359.5,-652.5"/>
<polygon fill="none" stroke="#666666" points="323.5,-636 323.5,-685 461.5,-685 461.5,-636 323.5,-636"/>
</a>
</g>
</g>
<!-- Node2&#45;&gt;Node1 -->
<g id="edge1_Node000001_Node000002" class="edge">
<title>Node2&#45;&gt;Node1</title>
<g id="a_edge1_Node000001_Node000002"><a xlink:title=" ">
<path fill="none" stroke="#63b8ff" d="M392.5,-625.79C392.5,-617.79 392.5,-609.06 392.5,-600.41"/>
<polygon fill="none" stroke="#63b8ff" points="389,-625.81 392.5,-635.81 396,-625.81 389,-625.81"/>
</a>
</g>
</g>
<!-- Node3 -->
<g id="Node000003" class="node">
<title>Node3</title>
<g id="a_Node000003"><a xlink:href="classXML_1_1bpmn_1_1tBaseElement.html" target="_top" xlink:title=" ">
<polygon fill="white" stroke="transparent" points="462.5,-815 322.5,-815 322.5,-721 462.5,-721 462.5,-815"/>
<text text-anchor="start" x="327.5" y="-803" font-family="Helvetica,sans-Serif" font-size="10.00">XML::bpmn::tBaseElement</text>
<text text-anchor="start" x="332.5" y="-788" font-family="Helvetica,sans-Serif" font-size="10.00">+</text>
<text text-anchor="start" x="351.5" y="-788" font-family="Helvetica,sans-Serif" font-size="10.00">documentation</text>
<text text-anchor="start" x="332.5" y="-773" font-family="Helvetica,sans-Serif" font-size="10.00">+</text>
<text text-anchor="start" x="351.5" y="-773" font-family="Helvetica,sans-Serif" font-size="10.00">extensionElements</text>
<text text-anchor="start" x="332.5" y="-758" font-family="Helvetica,sans-Serif" font-size="10.00">+</text>
<text text-anchor="start" x="351.5" y="-758" font-family="Helvetica,sans-Serif" font-size="10.00">id</text>
<text text-anchor="start" x="332.5" y="-743" font-family="Helvetica,sans-Serif" font-size="10.00">+</text>
<text text-anchor="start" x="351.5" y="-743" font-family="Helvetica,sans-Serif" font-size="10.00">defaults</text>
<text text-anchor="start" x="332.5" y="-728" font-family="Helvetica,sans-Serif" font-size="10.00">#</text>
<text text-anchor="start" x="351.5" y="-728" font-family="Helvetica,sans-Serif" font-size="10.00">tBaseElement()</text>
<polygon fill="#666666" stroke="#666666" points="322.5,-798 322.5,-798 462.5,-798 462.5,-798 322.5,-798"/>
<polygon fill="#666666" stroke="#666666" points="322.5,-738 322.5,-738 349.5,-738 349.5,-738 322.5,-738"/>
<polygon fill="#666666" stroke="#666666" points="349.5,-738 349.5,-738 462.5,-738 462.5,-738 349.5,-738"/>
<polygon fill="none" stroke="#666666" points="322.5,-721 322.5,-815 462.5,-815 462.5,-721 322.5,-721"/>
</a>
</g>
</g>
<!-- Node3&#45;&gt;Node2 -->
<g id="edge2_Node000002_Node000003" class="edge">
<title>Node3&#45;&gt;Node2</title>
<g id="a_edge2_Node000002_Node000003"><a xlink:title=" ">
<path fill="none" stroke="#63b8ff" d="M392.5,-710.59C392.5,-701.62 392.5,-692.79 392.5,-685.15"/>
<polygon fill="none" stroke="#63b8ff" points="389,-710.73 392.5,-720.73 396,-710.73 389,-710.73"/>
</a>
</g>
</g>
<!-- Node4 -->
<g id="Node000004" class="node">
<title>Node4</title>
<g id="a_Node000004"><a xlink:href="classXML_1_1XMLObject.html" target="_top" xlink:title="A class representing a node in an XML&#45;tree.">
<polygon fill="white" stroke="transparent" points="452.5,-1245 332.5,-1245 332.5,-851 452.5,-851 452.5,-1245"/>
<text text-anchor="start" x="352.5" y="-1233" font-family="Helvetica,sans-Serif" font-size="10.00">XML::XMLObject</text>
<text text-anchor="start" x="336.5" y="-1218" font-family="Helvetica,sans-Serif" font-size="10.00">+</text>
<text text-anchor="start" x="349.5" y="-1218" font-family="Helvetica,sans-Serif" font-size="10.00">xmlns</text>
<text text-anchor="start" x="336.5" y="-1203" font-family="Helvetica,sans-Serif" font-size="10.00">+</text>
<text text-anchor="start" x="349.5" y="-1203" font-family="Helvetica,sans-Serif" font-size="10.00">className</text>
<text text-anchor="start" x="336.5" y="-1188" font-family="Helvetica,sans-Serif" font-size="10.00">+</text>
<text text-anchor="start" x="349.5" y="-1188" font-family="Helvetica,sans-Serif" font-size="10.00">prefix</text>
<text text-anchor="start" x="336.5" y="-1173" font-family="Helvetica,sans-Serif" font-size="10.00">+</text>
<text text-anchor="start" x="349.5" y="-1173" font-family="Helvetica,sans-Serif" font-size="10.00">elementName</text>
<text text-anchor="start" x="336.5" y="-1158" font-family="Helvetica,sans-Serif" font-size="10.00">+</text>
<text text-anchor="start" x="349.5" y="-1158" font-family="Helvetica,sans-Serif" font-size="10.00">textContent</text>
<text text-anchor="start" x="336.5" y="-1143" font-family="Helvetica,sans-Serif" font-size="10.00">+</text>
<text text-anchor="start" x="349.5" y="-1143" font-family="Helvetica,sans-Serif" font-size="10.00">children</text>
<text text-anchor="start" x="336.5" y="-1128" font-family="Helvetica,sans-Serif" font-size="10.00">+</text>
<text text-anchor="start" x="349.5" y="-1128" font-family="Helvetica,sans-Serif" font-size="10.00">attributes</text>
<text text-anchor="start" x="336.5" y="-1113" font-family="Helvetica,sans-Serif" font-size="10.00">+</text>
<text text-anchor="start" x="349.5" y="-1113" font-family="Helvetica,sans-Serif" font-size="10.00">defaults</text>
<text text-anchor="start" x="336.5" y="-1098" font-family="Helvetica,sans-Serif" font-size="10.00">#</text>
<text text-anchor="start" x="349.5" y="-1098" font-family="Helvetica,sans-Serif" font-size="10.00">factory</text>
<text text-anchor="start" x="336.5" y="-1083" font-family="Helvetica,sans-Serif" font-size="10.00">+</text>
<text text-anchor="start" x="349.5" y="-1083" font-family="Helvetica,sans-Serif" font-size="10.00">~XMLObject()</text>
<text text-anchor="start" x="336.5" y="-1068" font-family="Helvetica,sans-Serif" font-size="10.00">+</text>
<text text-anchor="start" x="349.5" y="-1068" font-family="Helvetica,sans-Serif" font-size="10.00">is()</text>
<text text-anchor="start" x="336.5" y="-1053" font-family="Helvetica,sans-Serif" font-size="10.00">+</text>
<text text-anchor="start" x="349.5" y="-1053" font-family="Helvetica,sans-Serif" font-size="10.00">is()</text>
<text text-anchor="start" x="336.5" y="-1038" font-family="Helvetica,sans-Serif" font-size="10.00">+</text>
<text text-anchor="start" x="349.5" y="-1038" font-family="Helvetica,sans-Serif" font-size="10.00">get()</text>
<text text-anchor="start" x="336.5" y="-1023" font-family="Helvetica,sans-Serif" font-size="10.00">+</text>
<text text-anchor="start" x="349.5" y="-1023" font-family="Helvetica,sans-Serif" font-size="10.00">get()</text>
<text text-anchor="start" x="336.5" y="-1008" font-family="Helvetica,sans-Serif" font-size="10.00">+</text>
<text text-anchor="start" x="349.5" y="-1008" font-family="Helvetica,sans-Serif" font-size="10.00">find()</text>
<text text-anchor="start" x="336.5" y="-993" font-family="Helvetica,sans-Serif" font-size="10.00">+</text>
<text text-anchor="start" x="349.5" y="-993" font-family="Helvetica,sans-Serif" font-size="10.00">find()</text>
<text text-anchor="start" x="336.5" y="-978" font-family="Helvetica,sans-Serif" font-size="10.00">+</text>
<text text-anchor="start" x="349.5" y="-978" font-family="Helvetica,sans-Serif" font-size="10.00">stringify()</text>
<text text-anchor="start" x="336.5" y="-963" font-family="Helvetica,sans-Serif" font-size="10.00">+</text>
<text text-anchor="start" x="349.5" y="-963" font-family="Helvetica,sans-Serif" font-size="10.00">format()</text>
<text text-anchor="start" x="336.5" y="-948" font-family="Helvetica,sans-Serif" font-size="10.00">+</text>
<text text-anchor="start" x="349.5" y="-948" font-family="Helvetica,sans-Serif" font-size="10.00">getRequiredChild()</text>
<text text-anchor="start" x="349.5" y="-933" font-family="Helvetica,sans-Serif" font-size="10.00">and 7 more...</text>
<text text-anchor="start" x="336.5" y="-918" font-family="Helvetica,sans-Serif" font-size="10.00">+</text>
<text text-anchor="start" x="349.5" y="-918" font-family="Helvetica,sans-Serif" font-size="10.00">createFromStream()</text>
<text text-anchor="start" x="336.5" y="-903" font-family="Helvetica,sans-Serif" font-size="10.00">+</text>
<text text-anchor="start" x="349.5" y="-903" font-family="Helvetica,sans-Serif" font-size="10.00">createFromString()</text>
<text text-anchor="start" x="336.5" y="-888" font-family="Helvetica,sans-Serif" font-size="10.00">+</text>
<text text-anchor="start" x="349.5" y="-888" font-family="Helvetica,sans-Serif" font-size="10.00">createFromFile()</text>
<text text-anchor="start" x="336.5" y="-873" font-family="Helvetica,sans-Serif" font-size="10.00">#</text>
<text text-anchor="start" x="349.5" y="-873" font-family="Helvetica,sans-Serif" font-size="10.00">XMLObject()</text>
<text text-anchor="start" x="336.5" y="-858" font-family="Helvetica,sans-Serif" font-size="10.00">#</text>
<text text-anchor="start" x="349.5" y="-858" font-family="Helvetica,sans-Serif" font-size="10.00">createObject()</text>
<polygon fill="#666666" stroke="#666666" points="332.5,-1228 332.5,-1228 452.5,-1228 452.5,-1228 332.5,-1228"/>
<polygon fill="#666666" stroke="#666666" points="332.5,-1093 332.5,-1093 347.5,-1093 347.5,-1093 332.5,-1093"/>
<polygon fill="#666666" stroke="#666666" points="347.5,-1093 347.5,-1093 452.5,-1093 452.5,-1093 347.5,-1093"/>
<polygon fill="none" stroke="#666666" points="332.5,-851 332.5,-1245 452.5,-1245 452.5,-851 332.5,-851"/>
</a>
</g>
</g>
<!-- Node4&#45;&gt;Node3 -->
<g id="edge3_Node000003_Node000004" class="edge">
<title>Node4&#45;&gt;Node3</title>
<g id="a_edge3_Node000003_Node000004"><a xlink:title=" ">
<path fill="none" stroke="#63b8ff" d="M392.5,-840.78C392.5,-831.62 392.5,-822.97 392.5,-815.06"/>
<polygon fill="none" stroke="#63b8ff" points="389,-840.91 392.5,-850.91 396,-840.91 389,-840.91"/>
</a>
</g>
</g>
<!-- Node7 -->
<g id="Node000007" class="node">
<title>Node7</title>
<g id="a_Node000007"><a xlink:href="classXML_1_1bpmn_1_1globalTask.html" target="_top" xlink:title=" ">
<polygon fill="white" stroke="transparent" points="123,-160 0,-160 0,-111 123,-111 123,-160"/>
<text text-anchor="start" x="5.5" y="-147.5" font-family="Helvetica,sans-Serif" font-size="10.00">XML::bpmn::globalTask</text>
<text text-anchor="start" x="15" y="-132.5" font-family="Helvetica,sans-Serif" font-size="10.00">+</text>
<text text-anchor="start" x="38.5" y="-132.5" font-family="Helvetica,sans-Serif" font-size="10.00">defaults</text>
<text text-anchor="start" x="15" y="-117.5" font-family="Helvetica,sans-Serif" font-size="10.00">#</text>
<text text-anchor="start" x="38.5" y="-117.5" font-family="Helvetica,sans-Serif" font-size="10.00">globalTask()</text>
<polygon fill="#666666" stroke="#666666" points="0.5,-142.5 0.5,-142.5 123.5,-142.5 123.5,-142.5 0.5,-142.5"/>
<polygon fill="#666666" stroke="#666666" points="0.5,-127.5 0.5,-127.5 36.5,-127.5 36.5,-127.5 0.5,-127.5"/>
<polygon fill="#666666" stroke="#666666" points="36.5,-127.5 36.5,-127.5 123.5,-127.5 123.5,-127.5 36.5,-127.5"/>
<polygon fill="none" stroke="#666666" points="0,-111 0,-160 123,-160 123,-111 0,-111"/>
</a>
</g>
</g>
<!-- Node6&#45;&gt;Node7 -->
<g id="edge6_Node000006_Node000007" class="edge">
<title>Node6&#45;&gt;Node7</title>
<g id="a_edge6_Node000006_Node000007"><a xlink:title=" ">
<path fill="none" stroke="#63b8ff" d="M378.1,-291.2C366.46,-264.25 347.38,-230.42 319.5,-211 249.7,-162.36 211.53,-203.85 131.5,-175 120.67,-171.1 109.51,-165.68 99.36,-160.13"/>
<polygon fill="none" stroke="#63b8ff" points="375,-292.87 382.05,-300.78 381.47,-290.2 375,-292.87"/>
</a>
</g>
</g>
<!-- Node8 -->
<g id="Node000008" class="node">
<title>Node8</title>
<g id="a_Node000008"><a xlink:href="classXML_1_1bpmn_1_1tGlobalBusinessRuleTask.html" target="_top" xlink:title=" ">
<polygon fill="white" stroke="transparent" points="292,-173 141,-173 141,-98 292,-98 292,-173"/>
<text text-anchor="start" x="147" y="-160.5" font-family="Helvetica,sans-Serif" font-size="10.00">XML::bpmn::tGlobalBusiness</text>
<text text-anchor="start" x="195" y="-149.5" font-family="Helvetica,sans-Serif" font-size="10.00">RuleTask</text>
<text text-anchor="start" x="145.5" y="-134.5" font-family="Helvetica,sans-Serif" font-size="10.00">+</text>
<text text-anchor="start" x="158.5" y="-134.5" font-family="Helvetica,sans-Serif" font-size="10.00">implementation</text>
<text text-anchor="start" x="145.5" y="-119.5" font-family="Helvetica,sans-Serif" font-size="10.00">+</text>
<text text-anchor="start" x="158.5" y="-119.5" font-family="Helvetica,sans-Serif" font-size="10.00">defaults</text>
<text text-anchor="start" x="145.5" y="-104.5" font-family="Helvetica,sans-Serif" font-size="10.00">#</text>
<text text-anchor="start" x="158.5" y="-104.5" font-family="Helvetica,sans-Serif" font-size="10.00">tGlobalBusinessRuleTask()</text>
<polygon fill="#666666" stroke="#666666" points="141.5,-144.5 141.5,-144.5 292.5,-144.5 292.5,-144.5 141.5,-144.5"/>
<polygon fill="#666666" stroke="#666666" points="141.5,-114.5 141.5,-114.5 156.5,-114.5 156.5,-114.5 141.5,-114.5"/>
<polygon fill="#666666" stroke="#666666" points="156.5,-114.5 156.5,-114.5 292.5,-114.5 292.5,-114.5 156.5,-114.5"/>
<polygon fill="none" stroke="#666666" points="141,-98 141,-173 292,-173 292,-98 141,-98"/>
</a>
</g>
</g>
<!-- Node6&#45;&gt;Node8 -->
<g id="edge7_Node000006_Node000008" class="edge">
<title>Node6&#45;&gt;Node8</title>
<g id="a_edge7_Node000006_Node000008"><a xlink:title=" ">
<path fill="none" stroke="#63b8ff" d="M373.44,-291.68C360.43,-266.74 341.59,-235.02 319.5,-211 306.72,-197.11 290.99,-184.19 275.71,-173.14"/>
<polygon fill="none" stroke="#63b8ff" points="370.47,-293.56 378.13,-300.87 376.7,-290.38 370.47,-293.56"/>
</a>
</g>
</g>
<!-- Node10 -->
<g id="Node000010" class="node">
<title>Node10</title>
<g id="a_Node000010"><a xlink:href="classXML_1_1bpmn_1_1tGlobalManualTask.html" target="_top" xlink:title=" ">
<polygon fill="white" stroke="transparent" points="474.5,-160 310.5,-160 310.5,-111 474.5,-111 474.5,-160"/>
<text text-anchor="start" x="315.5" y="-147.5" font-family="Helvetica,sans-Serif" font-size="10.00">XML::bpmn::tGlobalManualTask</text>
<text text-anchor="start" x="325" y="-132.5" font-family="Helvetica,sans-Serif" font-size="10.00">+</text>
<text text-anchor="start" x="348.5" y="-132.5" font-family="Helvetica,sans-Serif" font-size="10.00">defaults</text>
<text text-anchor="start" x="325" y="-117.5" font-family="Helvetica,sans-Serif" font-size="10.00">#</text>
<text text-anchor="start" x="348.5" y="-117.5" font-family="Helvetica,sans-Serif" font-size="10.00">tGlobalManualTask()</text>
<polygon fill="#666666" stroke="#666666" points="310.5,-142.5 310.5,-142.5 474.5,-142.5 474.5,-142.5 310.5,-142.5"/>
<polygon fill="#666666" stroke="#666666" points="310.5,-127.5 310.5,-127.5 346.5,-127.5 346.5,-127.5 310.5,-127.5"/>
<polygon fill="#666666" stroke="#666666" points="346.5,-127.5 346.5,-127.5 474.5,-127.5 474.5,-127.5 346.5,-127.5"/>
<polygon fill="none" stroke="#666666" points="310.5,-111 310.5,-160 474.5,-160 474.5,-111 310.5,-111"/>
</a>
</g>
</g>
<!-- Node6&#45;&gt;Node10 -->
<g id="edge9_Node000006_Node000010" class="edge">
<title>Node6&#45;&gt;Node10</title>
<g id="a_edge9_Node000006_Node000010"><a xlink:title=" ">
<path fill="none" stroke="#63b8ff" d="M392.5,-290.44C392.5,-250.77 392.5,-192.42 392.5,-160.15"/>
<polygon fill="none" stroke="#63b8ff" points="389,-290.59 392.5,-300.59 396,-290.59 389,-290.59"/>
</a>
</g>
</g>
<!-- Node12 -->
<g id="Node000012" class="node">
<title>Node12</title>
<g id="a_Node000012"><a xlink:href="classXML_1_1bpmn_1_1tGlobalScriptTask.html" target="_top" xlink:title=" ">
<polygon fill="white" stroke="transparent" points="648.5,-175 492.5,-175 492.5,-96 648.5,-96 648.5,-175"/>
<text text-anchor="start" x="497.5" y="-162.5" font-family="Helvetica,sans-Serif" font-size="10.00">XML::bpmn::tGlobalScriptTask</text>
<text text-anchor="start" x="507" y="-147.5" font-family="Helvetica,sans-Serif" font-size="10.00">+</text>
<text text-anchor="start" x="530.5" y="-147.5" font-family="Helvetica,sans-Serif" font-size="10.00">script</text>
<text text-anchor="start" x="507" y="-132.5" font-family="Helvetica,sans-Serif" font-size="10.00">+</text>
<text text-anchor="start" x="530.5" y="-132.5" font-family="Helvetica,sans-Serif" font-size="10.00">scriptLanguage</text>
<text text-anchor="start" x="507" y="-117.5" font-family="Helvetica,sans-Serif" font-size="10.00">+</text>
<text text-anchor="start" x="530.5" y="-117.5" font-family="Helvetica,sans-Serif" font-size="10.00">defaults</text>
<text text-anchor="start" x="507" y="-102.5" font-family="Helvetica,sans-Serif" font-size="10.00">#</text>
<text text-anchor="start" x="530.5" y="-102.5" font-family="Helvetica,sans-Serif" font-size="10.00">tGlobalScriptTask()</text>
<polygon fill="#666666" stroke="#666666" points="492.5,-157.5 492.5,-157.5 648.5,-157.5 648.5,-157.5 492.5,-157.5"/>
<polygon fill="#666666" stroke="#666666" points="492.5,-112.5 492.5,-112.5 528.5,-112.5 528.5,-112.5 492.5,-112.5"/>
<polygon fill="#666666" stroke="#666666" points="528.5,-112.5 528.5,-112.5 648.5,-112.5 648.5,-112.5 528.5,-112.5"/>
<polygon fill="none" stroke="#666666" points="492.5,-96 492.5,-175 648.5,-175 648.5,-96 492.5,-96"/>
</a>
</g>
</g>
<!-- Node6&#45;&gt;Node12 -->
<g id="edge11_Node000006_Node000012" class="edge">
<title>Node6&#45;&gt;Node12</title>
<g id="a_edge11_Node000006_Node000012"><a xlink:title=" ">
<path fill="none" stroke="#63b8ff" d="M411.48,-291.61C424.46,-266.64 443.3,-234.91 465.5,-211 477.67,-197.9 492.48,-185.71 507.1,-175.14"/>
<polygon fill="none" stroke="#63b8ff" points="408.22,-290.32 406.8,-300.82 414.46,-293.49 408.22,-290.32"/>
</a>
</g>
</g>
<!-- Node14 -->
<g id="Node000014" class="node">
<title>Node14</title>
<g id="a_Node000014"><a xlink:href="classXML_1_1bpmn_1_1tGlobalUserTask.html" target="_top" xlink:title=" ">
<polygon fill="white" stroke="transparent" points="818,-175 667,-175 667,-96 818,-96 818,-175"/>
<text text-anchor="start" x="672.5" y="-162.5" font-family="Helvetica,sans-Serif" font-size="10.00">XML::bpmn::tGlobalUserTask</text>
<text text-anchor="start" x="682" y="-147.5" font-family="Helvetica,sans-Serif" font-size="10.00">+</text>
<text text-anchor="start" x="705.5" y="-147.5" font-family="Helvetica,sans-Serif" font-size="10.00">rendering</text>
<text text-anchor="start" x="682" y="-132.5" font-family="Helvetica,sans-Serif" font-size="10.00">+</text>
<text text-anchor="start" x="705.5" y="-132.5" font-family="Helvetica,sans-Serif" font-size="10.00">implementation</text>
<text text-anchor="start" x="682" y="-117.5" font-family="Helvetica,sans-Serif" font-size="10.00">+</text>
<text text-anchor="start" x="705.5" y="-117.5" font-family="Helvetica,sans-Serif" font-size="10.00">defaults</text>
<text text-anchor="start" x="682" y="-102.5" font-family="Helvetica,sans-Serif" font-size="10.00">#</text>
<text text-anchor="start" x="705.5" y="-102.5" font-family="Helvetica,sans-Serif" font-size="10.00">tGlobalUserTask()</text>
<polygon fill="#666666" stroke="#666666" points="667.5,-157.5 667.5,-157.5 818.5,-157.5 818.5,-157.5 667.5,-157.5"/>
<polygon fill="#666666" stroke="#666666" points="667.5,-112.5 667.5,-112.5 703.5,-112.5 703.5,-112.5 667.5,-112.5"/>
<polygon fill="#666666" stroke="#666666" points="703.5,-112.5 703.5,-112.5 818.5,-112.5 818.5,-112.5 703.5,-112.5"/>
<polygon fill="none" stroke="#666666" points="667,-96 667,-175 818,-175 818,-96 667,-96"/>
</a>
</g>
</g>
<!-- Node6&#45;&gt;Node14 -->
<g id="edge13_Node000006_Node000014" class="edge">
<title>Node6&#45;&gt;Node14</title>
<g id="a_edge13_Node000006_Node000014"><a xlink:title=" ">
<path fill="none" stroke="#63b8ff" d="M406.88,-291.17C418.51,-264.2 437.59,-230.37 465.5,-211 536.83,-161.5 574.7,-201.1 657.5,-175 660.59,-174.03 663.72,-172.97 666.85,-171.85"/>
<polygon fill="none" stroke="#63b8ff" points="403.5,-290.17 402.93,-300.75 409.97,-292.84 403.5,-290.17"/>
</a>
</g>
</g>
<!-- Node9 -->
<g id="Node000009" class="node">
<title>Node9</title>
<g id="a_Node000009"><a xlink:href="classXML_1_1bpmn_1_1globalBusinessRuleTask.html" target="_top" xlink:title=" ">
<polygon fill="white" stroke="transparent" points="289.5,-60 143.5,-60 143.5,0 289.5,0 289.5,-60"/>
<text text-anchor="start" x="149" y="-48" font-family="Helvetica,sans-Serif" font-size="10.00">XML::bpmn::globalBusiness</text>
<text text-anchor="start" x="194.5" y="-37" font-family="Helvetica,sans-Serif" font-size="10.00">RuleTask</text>
<text text-anchor="start" x="147.5" y="-22" font-family="Helvetica,sans-Serif" font-size="10.00">+</text>
<text text-anchor="start" x="160.5" y="-22" font-family="Helvetica,sans-Serif" font-size="10.00">defaults</text>
<text text-anchor="start" x="147.5" y="-7" font-family="Helvetica,sans-Serif" font-size="10.00">#</text>
<text text-anchor="start" x="160.5" y="-7" font-family="Helvetica,sans-Serif" font-size="10.00">globalBusinessRuleTask()</text>
<polygon fill="#666666" stroke="#666666" points="143.5,-32 143.5,-32 289.5,-32 289.5,-32 143.5,-32"/>
<polygon fill="#666666" stroke="#666666" points="143.5,-17 143.5,-17 158.5,-17 158.5,-17 143.5,-17"/>
<polygon fill="#666666" stroke="#666666" points="158.5,-17 158.5,-17 289.5,-17 289.5,-17 158.5,-17"/>
<polygon fill="none" stroke="#666666" points="143.5,0 143.5,-60 289.5,-60 289.5,0 143.5,0"/>
</a>
</g>
</g>
<!-- Node8&#45;&gt;Node9 -->
<g id="edge8_Node000008_Node000009" class="edge">
<title>Node8&#45;&gt;Node9</title>
<g id="a_edge8_Node000008_Node000009"><a xlink:title=" ">
<path fill="none" stroke="#63b8ff" d="M216.5,-87.7C216.5,-78.33 216.5,-68.75 216.5,-60.19"/>
<polygon fill="none" stroke="#63b8ff" points="213,-87.72 216.5,-97.72 220,-87.72 213,-87.72"/>
</a>
</g>
</g>
<!-- Node11 -->
<g id="Node000011" class="node">
<title>Node11</title>
<g id="a_Node000011"><a xlink:href="classXML_1_1bpmn_1_1globalManualTask.html" target="_top" xlink:title=" ">
<polygon fill="white" stroke="transparent" points="472,-54.5 313,-54.5 313,-5.5 472,-5.5 472,-54.5"/>
<text text-anchor="start" x="318.5" y="-42" font-family="Helvetica,sans-Serif" font-size="10.00">XML::bpmn::globalManualTask</text>
<text text-anchor="start" x="328" y="-27" font-family="Helvetica,sans-Serif" font-size="10.00">+</text>
<text text-anchor="start" x="351.5" y="-27" font-family="Helvetica,sans-Serif" font-size="10.00">defaults</text>
<text text-anchor="start" x="328" y="-12" font-family="Helvetica,sans-Serif" font-size="10.00">#</text>
<text text-anchor="start" x="351.5" y="-12" font-family="Helvetica,sans-Serif" font-size="10.00">globalManualTask()</text>
<polygon fill="#666666" stroke="#666666" points="313.5,-37 313.5,-37 472.5,-37 472.5,-37 313.5,-37"/>
<polygon fill="#666666" stroke="#666666" points="313.5,-22 313.5,-22 349.5,-22 349.5,-22 313.5,-22"/>
<polygon fill="#666666" stroke="#666666" points="349.5,-22 349.5,-22 472.5,-22 472.5,-22 349.5,-22"/>
<polygon fill="none" stroke="#666666" points="313,-5.5 313,-54.5 472,-54.5 472,-5.5 313,-5.5"/>
</a>
</g>
</g>
<!-- Node10&#45;&gt;Node11 -->
<g id="edge10_Node000010_Node000011" class="edge">
<title>Node10&#45;&gt;Node11</title>
<g id="a_edge10_Node000010_Node000011"><a xlink:title=" ">
<path fill="none" stroke="#63b8ff" d="M392.5,-100.33C392.5,-85.36 392.5,-68.16 392.5,-54.63"/>
<polygon fill="none" stroke="#63b8ff" points="389,-100.75 392.5,-110.76 396,-100.76 389,-100.75"/>
</a>
</g>
</g>
<!-- Node13 -->
<g id="Node000013" class="node">
<title>Node13</title>
<g id="a_Node000013"><a xlink:href="classXML_1_1bpmn_1_1globalScriptTask.html" target="_top" xlink:title=" ">
<polygon fill="white" stroke="transparent" points="646,-54.5 495,-54.5 495,-5.5 646,-5.5 646,-54.5"/>
<text text-anchor="start" x="500.5" y="-42" font-family="Helvetica,sans-Serif" font-size="10.00">XML::bpmn::globalScriptTask</text>
<text text-anchor="start" x="510" y="-27" font-family="Helvetica,sans-Serif" font-size="10.00">+</text>
<text text-anchor="start" x="533.5" y="-27" font-family="Helvetica,sans-Serif" font-size="10.00">defaults</text>
<text text-anchor="start" x="510" y="-12" font-family="Helvetica,sans-Serif" font-size="10.00">#</text>
<text text-anchor="start" x="533.5" y="-12" font-family="Helvetica,sans-Serif" font-size="10.00">globalScriptTask()</text>
<polygon fill="#666666" stroke="#666666" points="495.5,-37 495.5,-37 646.5,-37 646.5,-37 495.5,-37"/>
<polygon fill="#666666" stroke="#666666" points="495.5,-22 495.5,-22 531.5,-22 531.5,-22 495.5,-22"/>
<polygon fill="#666666" stroke="#666666" points="531.5,-22 531.5,-22 646.5,-22 646.5,-22 531.5,-22"/>
<polygon fill="none" stroke="#666666" points="495,-5.5 495,-54.5 646,-54.5 646,-5.5 495,-5.5"/>
</a>
</g>
</g>
<!-- Node12&#45;&gt;Node13 -->
<g id="edge12_Node000012_Node000013" class="edge">
<title>Node12&#45;&gt;Node13</title>
<g id="a_edge12_Node000012_Node000013"><a xlink:title=" ">
<path fill="none" stroke="#63b8ff" d="M570.5,-85.68C570.5,-74.83 570.5,-63.81 570.5,-54.54"/>
<polygon fill="none" stroke="#63b8ff" points="567,-85.96 570.5,-95.96 574,-85.96 567,-85.96"/>
</a>
</g>
</g>
<!-- Node15 -->
<g id="Node000015" class="node">
<title>Node15</title>
<g id="a_Node000015"><a xlink:href="classXML_1_1bpmn_1_1globalUserTask.html" target="_top" xlink:title=" ">
<polygon fill="white" stroke="transparent" points="815.5,-54.5 669.5,-54.5 669.5,-5.5 815.5,-5.5 815.5,-54.5"/>
<text text-anchor="start" x="674.5" y="-42" font-family="Helvetica,sans-Serif" font-size="10.00">XML::bpmn::globalUserTask</text>
<text text-anchor="start" x="684" y="-27" font-family="Helvetica,sans-Serif" font-size="10.00">+</text>
<text text-anchor="start" x="707.5" y="-27" font-family="Helvetica,sans-Serif" font-size="10.00">defaults</text>
<text text-anchor="start" x="684" y="-12" font-family="Helvetica,sans-Serif" font-size="10.00">#</text>
<text text-anchor="start" x="707.5" y="-12" font-family="Helvetica,sans-Serif" font-size="10.00">globalUserTask()</text>
<polygon fill="#666666" stroke="#666666" points="669.5,-37 669.5,-37 815.5,-37 815.5,-37 669.5,-37"/>
<polygon fill="#666666" stroke="#666666" points="669.5,-22 669.5,-22 705.5,-22 705.5,-22 669.5,-22"/>
<polygon fill="#666666" stroke="#666666" points="705.5,-22 705.5,-22 815.5,-22 815.5,-22 705.5,-22"/>
<polygon fill="none" stroke="#666666" points="669.5,-5.5 669.5,-54.5 815.5,-54.5 815.5,-5.5 669.5,-5.5"/>
</a>
</g>
</g>
<!-- Node14&#45;&gt;Node15 -->
<g id="edge14_Node000014_Node000015" class="edge">
<title>Node14&#45;&gt;Node15</title>
<g id="a_edge14_Node000014_Node000015"><a xlink:title=" ">
<path fill="none" stroke="#63b8ff" d="M742.5,-85.68C742.5,-74.83 742.5,-63.81 742.5,-54.54"/>
<polygon fill="none" stroke="#63b8ff" points="739,-85.96 742.5,-95.96 746,-85.96 739,-85.96"/>
</a>
</g>
</g>
</g>
</svg>
