<?xml version="1.0" encoding="UTF-8" standalone="no"?>
<!DOCTYPE svg PUBLIC "-//W3C//DTD SVG 1.1//EN"
 "http://www.w3.org/Graphics/SVG/1.1/DTD/svg11.dtd">
<!-- Generated by graphviz version 2.43.0 (0)
 -->
<!-- Title: XML::bpmn::participantMultiplicity Pages: 1 -->
<svg width="190pt" height="732pt"
 viewBox="0.00 0.00 190.00 732.00" xmlns="http://www.w3.org/2000/svg" xmlns:xlink="http://www.w3.org/1999/xlink">
<g id="graph0" class="graph" transform="scale(1 1) rotate(0) translate(4 728)">
<title>XML::bpmn::participantMultiplicity</title>
<!-- Node1 -->
<g id="Node000001" class="node">
<title>Node1</title>
<g id="a_Node000001"><a xlink:title=" ">
<polygon fill="#999999" stroke="transparent" points="180.5,-49 1.5,-49 1.5,0 180.5,0 180.5,-49"/>
<text text-anchor="start" x="7" y="-36.5" font-family="Helvetica,sans-Serif" font-size="10.00">XML::bpmn::participantMultiplicity</text>
<text text-anchor="start" x="16.5" y="-21.5" font-family="Helvetica,sans-Serif" font-size="10.00">+</text>
<text text-anchor="start" x="40" y="-21.5" font-family="Helvetica,sans-Serif" font-size="10.00">defaults</text>
<text text-anchor="start" x="16.5" y="-6.5" font-family="Helvetica,sans-Serif" font-size="10.00">#</text>
<text text-anchor="start" x="40" y="-6.5" font-family="Helvetica,sans-Serif" font-size="10.00">participantMultiplicity()</text>
<polygon fill="#666666" stroke="#666666" points="2,-31.5 2,-31.5 181,-31.5 181,-31.5 2,-31.5"/>
<polygon fill="#666666" stroke="#666666" points="2,-16.5 2,-16.5 38,-16.5 38,-16.5 2,-16.5"/>
<polygon fill="#666666" stroke="#666666" points="38,-16.5 38,-16.5 181,-16.5 181,-16.5 38,-16.5"/>
<polygon fill="none" stroke="#666666" points="1.5,0 1.5,-49 180.5,-49 180.5,0 1.5,0"/>
</a>
</g>
</g>
<!-- Node2 -->
<g id="Node000002" class="node">
<title>Node2</title>
<g id="a_Node000002"><a xlink:href="classXML_1_1bpmn_1_1tParticipantMultiplicity.html" target="_top" xlink:title=" ">
<polygon fill="white" stroke="transparent" points="182,-164 0,-164 0,-85 182,-85 182,-164"/>
<text text-anchor="start" x="5" y="-151.5" font-family="Helvetica,sans-Serif" font-size="10.00">XML::bpmn::tParticipantMultiplicity</text>
<text text-anchor="start" x="14.5" y="-136.5" font-family="Helvetica,sans-Serif" font-size="10.00">+</text>
<text text-anchor="start" x="38" y="-136.5" font-family="Helvetica,sans-Serif" font-size="10.00">minimum</text>
<text text-anchor="start" x="14.5" y="-121.5" font-family="Helvetica,sans-Serif" font-size="10.00">+</text>
<text text-anchor="start" x="38" y="-121.5" font-family="Helvetica,sans-Serif" font-size="10.00">maximum</text>
<text text-anchor="start" x="14.5" y="-106.5" font-family="Helvetica,sans-Serif" font-size="10.00">+</text>
<text text-anchor="start" x="38" y="-106.5" font-family="Helvetica,sans-Serif" font-size="10.00">defaults</text>
<text text-anchor="start" x="14.5" y="-91.5" font-family="Helvetica,sans-Serif" font-size="10.00">#</text>
<text text-anchor="start" x="38" y="-91.5" font-family="Helvetica,sans-Serif" font-size="10.00">tParticipantMultiplicity()</text>
<polygon fill="#666666" stroke="#666666" points="0,-146.5 0,-146.5 182,-146.5 182,-146.5 0,-146.5"/>
<polygon fill="#666666" stroke="#666666" points="0,-101.5 0,-101.5 36,-101.5 36,-101.5 0,-101.5"/>
<polygon fill="#666666" stroke="#666666" points="36,-101.5 36,-101.5 182,-101.5 182,-101.5 36,-101.5"/>
<polygon fill="none" stroke="#666666" points="0,-85 0,-164 182,-164 182,-85 0,-85"/>
</a>
</g>
</g>
<!-- Node2&#45;&gt;Node1 -->
<g id="edge1_Node000001_Node000002" class="edge">
<title>Node2&#45;&gt;Node1</title>
<g id="a_edge1_Node000001_Node000002"><a xlink:title=" ">
<path fill="none" stroke="#63b8ff" d="M91,-74.72C91,-65.75 91,-56.78 91,-49"/>
<polygon fill="none" stroke="#63b8ff" points="87.5,-74.77 91,-84.77 94.5,-74.77 87.5,-74.77"/>
</a>
</g>
</g>
<!-- Node3 -->
<g id="Node000003" class="node">
<title>Node3</title>
<g id="a_Node000003"><a xlink:href="classXML_1_1bpmn_1_1tBaseElement.html" target="_top" xlink:title=" ">
<polygon fill="white" stroke="transparent" points="161,-294 21,-294 21,-200 161,-200 161,-294"/>
<text text-anchor="start" x="26" y="-282" font-family="Helvetica,sans-Serif" font-size="10.00">XML::bpmn::tBaseElement</text>
<text text-anchor="start" x="31" y="-267" font-family="Helvetica,sans-Serif" font-size="10.00">+</text>
<text text-anchor="start" x="50" y="-267" font-family="Helvetica,sans-Serif" font-size="10.00">documentation</text>
<text text-anchor="start" x="31" y="-252" font-family="Helvetica,sans-Serif" font-size="10.00">+</text>
<text text-anchor="start" x="50" y="-252" font-family="Helvetica,sans-Serif" font-size="10.00">extensionElements</text>
<text text-anchor="start" x="31" y="-237" font-family="Helvetica,sans-Serif" font-size="10.00">+</text>
<text text-anchor="start" x="50" y="-237" font-family="Helvetica,sans-Serif" font-size="10.00">id</text>
<text text-anchor="start" x="31" y="-222" font-family="Helvetica,sans-Serif" font-size="10.00">+</text>
<text text-anchor="start" x="50" y="-222" font-family="Helvetica,sans-Serif" font-size="10.00">defaults</text>
<text text-anchor="start" x="31" y="-207" font-family="Helvetica,sans-Serif" font-size="10.00">#</text>
<text text-anchor="start" x="50" y="-207" font-family="Helvetica,sans-Serif" font-size="10.00">tBaseElement()</text>
<polygon fill="#666666" stroke="#666666" points="21,-277 21,-277 161,-277 161,-277 21,-277"/>
<polygon fill="#666666" stroke="#666666" points="21,-217 21,-217 48,-217 48,-217 21,-217"/>
<polygon fill="#666666" stroke="#666666" points="48,-217 48,-217 161,-217 161,-217 48,-217"/>
<polygon fill="none" stroke="#666666" points="21,-200 21,-294 161,-294 161,-200 21,-200"/>
</a>
</g>
</g>
<!-- Node3&#45;&gt;Node2 -->
<g id="edge2_Node000002_Node000003" class="edge">
<title>Node3&#45;&gt;Node2</title>
<g id="a_edge2_Node000002_Node000003"><a xlink:title=" ">
<path fill="none" stroke="#63b8ff" d="M91,-189.49C91,-180.99 91,-172.39 91,-164.37"/>
<polygon fill="none" stroke="#63b8ff" points="87.5,-189.76 91,-199.76 94.5,-189.76 87.5,-189.76"/>
</a>
</g>
</g>
<!-- Node4 -->
<g id="Node000004" class="node">
<title>Node4</title>
<g id="a_Node000004"><a xlink:href="classXML_1_1XMLObject.html" target="_top" xlink:title="A class representing a node in an XML&#45;tree.">
<polygon fill="white" stroke="transparent" points="151,-724 31,-724 31,-330 151,-330 151,-724"/>
<text text-anchor="start" x="51" y="-712" font-family="Helvetica,sans-Serif" font-size="10.00">XML::XMLObject</text>
<text text-anchor="start" x="35" y="-697" font-family="Helvetica,sans-Serif" font-size="10.00">+</text>
<text text-anchor="start" x="48" y="-697" font-family="Helvetica,sans-Serif" font-size="10.00">xmlns</text>
<text text-anchor="start" x="35" y="-682" font-family="Helvetica,sans-Serif" font-size="10.00">+</text>
<text text-anchor="start" x="48" y="-682" font-family="Helvetica,sans-Serif" font-size="10.00">className</text>
<text text-anchor="start" x="35" y="-667" font-family="Helvetica,sans-Serif" font-size="10.00">+</text>
<text text-anchor="start" x="48" y="-667" font-family="Helvetica,sans-Serif" font-size="10.00">prefix</text>
<text text-anchor="start" x="35" y="-652" font-family="Helvetica,sans-Serif" font-size="10.00">+</text>
<text text-anchor="start" x="48" y="-652" font-family="Helvetica,sans-Serif" font-size="10.00">elementName</text>
<text text-anchor="start" x="35" y="-637" font-family="Helvetica,sans-Serif" font-size="10.00">+</text>
<text text-anchor="start" x="48" y="-637" font-family="Helvetica,sans-Serif" font-size="10.00">textContent</text>
<text text-anchor="start" x="35" y="-622" font-family="Helvetica,sans-Serif" font-size="10.00">+</text>
<text text-anchor="start" x="48" y="-622" font-family="Helvetica,sans-Serif" font-size="10.00">children</text>
<text text-anchor="start" x="35" y="-607" font-family="Helvetica,sans-Serif" font-size="10.00">+</text>
<text text-anchor="start" x="48" y="-607" font-family="Helvetica,sans-Serif" font-size="10.00">attributes</text>
<text text-anchor="start" x="35" y="-592" font-family="Helvetica,sans-Serif" font-size="10.00">+</text>
<text text-anchor="start" x="48" y="-592" font-family="Helvetica,sans-Serif" font-size="10.00">defaults</text>
<text text-anchor="start" x="35" y="-577" font-family="Helvetica,sans-Serif" font-size="10.00">#</text>
<text text-anchor="start" x="48" y="-577" font-family="Helvetica,sans-Serif" font-size="10.00">factory</text>
<text text-anchor="start" x="35" y="-562" font-family="Helvetica,sans-Serif" font-size="10.00">+</text>
<text text-anchor="start" x="48" y="-562" font-family="Helvetica,sans-Serif" font-size="10.00">~XMLObject()</text>
<text text-anchor="start" x="35" y="-547" font-family="Helvetica,sans-Serif" font-size="10.00">+</text>
<text text-anchor="start" x="48" y="-547" font-family="Helvetica,sans-Serif" font-size="10.00">is()</text>
<text text-anchor="start" x="35" y="-532" font-family="Helvetica,sans-Serif" font-size="10.00">+</text>
<text text-anchor="start" x="48" y="-532" font-family="Helvetica,sans-Serif" font-size="10.00">is()</text>
<text text-anchor="start" x="35" y="-517" font-family="Helvetica,sans-Serif" font-size="10.00">+</text>
<text text-anchor="start" x="48" y="-517" font-family="Helvetica,sans-Serif" font-size="10.00">get()</text>
<text text-anchor="start" x="35" y="-502" font-family="Helvetica,sans-Serif" font-size="10.00">+</text>
<text text-anchor="start" x="48" y="-502" font-family="Helvetica,sans-Serif" font-size="10.00">get()</text>
<text text-anchor="start" x="35" y="-487" font-family="Helvetica,sans-Serif" font-size="10.00">+</text>
<text text-anchor="start" x="48" y="-487" font-family="Helvetica,sans-Serif" font-size="10.00">find()</text>
<text text-anchor="start" x="35" y="-472" font-family="Helvetica,sans-Serif" font-size="10.00">+</text>
<text text-anchor="start" x="48" y="-472" font-family="Helvetica,sans-Serif" font-size="10.00">find()</text>
<text text-anchor="start" x="35" y="-457" font-family="Helvetica,sans-Serif" font-size="10.00">+</text>
<text text-anchor="start" x="48" y="-457" font-family="Helvetica,sans-Serif" font-size="10.00">stringify()</text>
<text text-anchor="start" x="35" y="-442" font-family="Helvetica,sans-Serif" font-size="10.00">+</text>
<text text-anchor="start" x="48" y="-442" font-family="Helvetica,sans-Serif" font-size="10.00">format()</text>
<text text-anchor="start" x="35" y="-427" font-family="Helvetica,sans-Serif" font-size="10.00">+</text>
<text text-anchor="start" x="48" y="-427" font-family="Helvetica,sans-Serif" font-size="10.00">getRequiredChild()</text>
<text text-anchor="start" x="48" y="-412" font-family="Helvetica,sans-Serif" font-size="10.00">and 7 more...</text>
<text text-anchor="start" x="35" y="-397" font-family="Helvetica,sans-Serif" font-size="10.00">+</text>
<text text-anchor="start" x="48" y="-397" font-family="Helvetica,sans-Serif" font-size="10.00">createFromStream()</text>
<text text-anchor="start" x="35" y="-382" font-family="Helvetica,sans-Serif" font-size="10.00">+</text>
<text text-anchor="start" x="48" y="-382" font-family="Helvetica,sans-Serif" font-size="10.00">createFromString()</text>
<text text-anchor="start" x="35" y="-367" font-family="Helvetica,sans-Serif" font-size="10.00">+</text>
<text text-anchor="start" x="48" y="-367" font-family="Helvetica,sans-Serif" font-size="10.00">createFromFile()</text>
<text text-anchor="start" x="35" y="-352" font-family="Helvetica,sans-Serif" font-size="10.00">#</text>
<text text-anchor="start" x="48" y="-352" font-family="Helvetica,sans-Serif" font-size="10.00">XMLObject()</text>
<text text-anchor="start" x="35" y="-337" font-family="Helvetica,sans-Serif" font-size="10.00">#</text>
<text text-anchor="start" x="48" y="-337" font-family="Helvetica,sans-Serif" font-size="10.00">createObject()</text>
<polygon fill="#666666" stroke="#666666" points="31,-707 31,-707 151,-707 151,-707 31,-707"/>
<polygon fill="#666666" stroke="#666666" points="31,-572 31,-572 46,-572 46,-572 31,-572"/>
<polygon fill="#666666" stroke="#666666" points="46,-572 46,-572 151,-572 151,-572 46,-572"/>
<polygon fill="none" stroke="#666666" points="31,-330 31,-724 151,-724 151,-330 31,-330"/>
</a>
</g>
</g>
<!-- Node4&#45;&gt;Node3 -->
<g id="edge3_Node000003_Node000004" class="edge">
<title>Node4&#45;&gt;Node3</title>
<g id="a_edge3_Node000003_Node000004"><a xlink:title=" ">
<path fill="none" stroke="#63b8ff" d="M91,-319.78C91,-310.62 91,-301.97 91,-294.06"/>
<polygon fill="none" stroke="#63b8ff" points="87.5,-319.91 91,-329.91 94.5,-319.91 87.5,-319.91"/>
</a>
</g>
</g>
</g>
</svg>
