<?xml version="1.0" encoding="UTF-8" standalone="no"?>
<!DOCTYPE svg PUBLIC "-//W3C//DTD SVG 1.1//EN"
 "http://www.w3.org/Graphics/SVG/1.1/DTD/svg11.dtd">
<!-- Generated by graphviz version 2.43.0 (0)
 -->
<!-- Title: XML::bpmn::tActivity Pages: 1 -->
<svg width="1731pt" height="1274pt"
 viewBox="0.00 0.00 1730.50 1274.00" xmlns="http://www.w3.org/2000/svg" xmlns:xlink="http://www.w3.org/1999/xlink">
<g id="graph0" class="graph" transform="scale(1 1) rotate(0) translate(4 1270)">
<title>XML::bpmn::tActivity</title>
<!-- Node1 -->
<g id="node1" class="node">
<title>Node1</title>
<g id="a_node1"><a xlink:title=" ">
<polygon fill="#bfbfbf" stroke="black" points="314.5,-370.5 314.5,-537.5 453.5,-537.5 453.5,-370.5 314.5,-370.5"/>
<text text-anchor="middle" x="384" y="-525.5" font-family="Helvetica,sans-Serif" font-size="10.00">XML::bpmn::tActivity</text>
<polyline fill="none" stroke="black" points="314.5,-518.5 453.5,-518.5 "/>
<text text-anchor="start" x="322.5" y="-506.5" font-family="Helvetica,sans-Serif" font-size="10.00">+ ioSpecification</text>
<text text-anchor="start" x="322.5" y="-495.5" font-family="Helvetica,sans-Serif" font-size="10.00">+ property</text>
<text text-anchor="start" x="322.5" y="-484.5" font-family="Helvetica,sans-Serif" font-size="10.00">+ dataInputAssociation</text>
<text text-anchor="start" x="322.5" y="-473.5" font-family="Helvetica,sans-Serif" font-size="10.00">+ dataOutputAssociation</text>
<text text-anchor="start" x="322.5" y="-462.5" font-family="Helvetica,sans-Serif" font-size="10.00">+ resourceRole</text>
<text text-anchor="start" x="322.5" y="-451.5" font-family="Helvetica,sans-Serif" font-size="10.00">+ loopCharacteristics</text>
<text text-anchor="start" x="322.5" y="-440.5" font-family="Helvetica,sans-Serif" font-size="10.00">+ isForCompensation</text>
<text text-anchor="start" x="322.5" y="-429.5" font-family="Helvetica,sans-Serif" font-size="10.00">+ startQuantity</text>
<text text-anchor="start" x="322.5" y="-418.5" font-family="Helvetica,sans-Serif" font-size="10.00">+ completionQuantity</text>
<text text-anchor="start" x="322.5" y="-407.5" font-family="Helvetica,sans-Serif" font-size="10.00">+ default_</text>
<text text-anchor="start" x="322.5" y="-396.5" font-family="Helvetica,sans-Serif" font-size="10.00">+ defaults</text>
<polyline fill="none" stroke="black" points="314.5,-389.5 453.5,-389.5 "/>
<text text-anchor="start" x="322.5" y="-377.5" font-family="Helvetica,sans-Serif" font-size="10.00"># tActivity()</text>
</a>
</g>
</g>
<!-- Node6 -->
<g id="node6" class="node">
<title>Node6</title>
<g id="a_node6"><a xlink:href="classXML_1_1bpmn_1_1tCallActivity.html" target="_top" xlink:title=" ">
<polygon fill="none" stroke="black" points="79.5,-249 79.5,-317 216.5,-317 216.5,-249 79.5,-249"/>
<text text-anchor="middle" x="148" y="-305" font-family="Helvetica,sans-Serif" font-size="10.00">XML::bpmn::tCallActivity</text>
<polyline fill="none" stroke="black" points="79.5,-298 216.5,-298 "/>
<text text-anchor="start" x="87.5" y="-286" font-family="Helvetica,sans-Serif" font-size="10.00">+ calledElement</text>
<text text-anchor="start" x="87.5" y="-275" font-family="Helvetica,sans-Serif" font-size="10.00">+ defaults</text>
<polyline fill="none" stroke="black" points="79.5,-268 216.5,-268 "/>
<text text-anchor="start" x="87.5" y="-256" font-family="Helvetica,sans-Serif" font-size="10.00"># tCallActivity()</text>
</a>
</g>
</g>
<!-- Node1&#45;&gt;Node6 -->
<g id="edge5" class="edge">
<title>Node1&#45;&gt;Node6</title>
<path fill="none" stroke="midnightblue" d="M306.18,-397.27C269.15,-370.75 226.12,-339.94 194.3,-317.16"/>
<polygon fill="none" stroke="midnightblue" points="304.3,-400.23 314.47,-403.21 308.38,-394.54 304.3,-400.23"/>
</g>
<!-- Node8 -->
<g id="node8" class="node">
<title>Node8</title>
<g id="a_node8"><a xlink:href="classXML_1_1bpmn_1_1tSubProcess.html" target="_top" xlink:title=" ">
<polygon fill="none" stroke="black" points="315.5,-232.5 315.5,-333.5 452.5,-333.5 452.5,-232.5 315.5,-232.5"/>
<text text-anchor="middle" x="384" y="-321.5" font-family="Helvetica,sans-Serif" font-size="10.00">XML::bpmn::tSubProcess</text>
<polyline fill="none" stroke="black" points="315.5,-314.5 452.5,-314.5 "/>
<text text-anchor="start" x="323.5" y="-302.5" font-family="Helvetica,sans-Serif" font-size="10.00">+ laneSet</text>
<text text-anchor="start" x="323.5" y="-291.5" font-family="Helvetica,sans-Serif" font-size="10.00">+ flowElement</text>
<text text-anchor="start" x="323.5" y="-280.5" font-family="Helvetica,sans-Serif" font-size="10.00">+ artifact</text>
<text text-anchor="start" x="323.5" y="-269.5" font-family="Helvetica,sans-Serif" font-size="10.00">+ triggeredByEvent</text>
<text text-anchor="start" x="323.5" y="-258.5" font-family="Helvetica,sans-Serif" font-size="10.00">+ defaults</text>
<polyline fill="none" stroke="black" points="315.5,-251.5 452.5,-251.5 "/>
<text text-anchor="start" x="323.5" y="-239.5" font-family="Helvetica,sans-Serif" font-size="10.00"># tSubProcess()</text>
</a>
</g>
</g>
<!-- Node1&#45;&gt;Node8 -->
<g id="edge7" class="edge">
<title>Node1&#45;&gt;Node8</title>
<path fill="none" stroke="midnightblue" d="M384,-360.47C384,-351.28 384,-342.21 384,-333.71"/>
<polygon fill="none" stroke="midnightblue" points="380.5,-360.48 384,-370.48 387.5,-360.48 380.5,-360.48"/>
</g>
<!-- Node13 -->
<g id="node13" class="node">
<title>Node13</title>
<g id="a_node13"><a xlink:href="classXML_1_1bpmn_1_1tTask.html" target="_top" xlink:title=" ">
<polygon fill="none" stroke="black" points="1082.5,-254.5 1082.5,-311.5 1185.5,-311.5 1185.5,-254.5 1082.5,-254.5"/>
<text text-anchor="middle" x="1134" y="-299.5" font-family="Helvetica,sans-Serif" font-size="10.00">XML::bpmn::tTask</text>
<polyline fill="none" stroke="black" points="1082.5,-292.5 1185.5,-292.5 "/>
<text text-anchor="start" x="1090.5" y="-280.5" font-family="Helvetica,sans-Serif" font-size="10.00">+ defaults</text>
<polyline fill="none" stroke="black" points="1082.5,-273.5 1185.5,-273.5 "/>
<text text-anchor="start" x="1090.5" y="-261.5" font-family="Helvetica,sans-Serif" font-size="10.00"># tTask()</text>
</a>
</g>
</g>
<!-- Node1&#45;&gt;Node13 -->
<g id="edge12" class="edge">
<title>Node1&#45;&gt;Node13</title>
<path fill="none" stroke="midnightblue" d="M463.44,-435.1C617.66,-400.35 953.73,-324.62 1082.43,-295.62"/>
<polygon fill="none" stroke="midnightblue" points="462.53,-431.72 453.55,-437.33 464.07,-438.54 462.53,-431.72"/>
</g>
<!-- Node2 -->
<g id="node2" class="node">
<title>Node2</title>
<g id="a_node2"><a xlink:href="classXML_1_1bpmn_1_1tFlowNode.html" target="_top" xlink:title=" ">
<polygon fill="none" stroke="black" points="319,-574.5 319,-653.5 449,-653.5 449,-574.5 319,-574.5"/>
<text text-anchor="middle" x="384" y="-641.5" font-family="Helvetica,sans-Serif" font-size="10.00">XML::bpmn::tFlowNode</text>
<polyline fill="none" stroke="black" points="319,-634.5 449,-634.5 "/>
<text text-anchor="start" x="327" y="-622.5" font-family="Helvetica,sans-Serif" font-size="10.00">+ incoming</text>
<text text-anchor="start" x="327" y="-611.5" font-family="Helvetica,sans-Serif" font-size="10.00">+ outgoing</text>
<text text-anchor="start" x="327" y="-600.5" font-family="Helvetica,sans-Serif" font-size="10.00">+ defaults</text>
<polyline fill="none" stroke="black" points="319,-593.5 449,-593.5 "/>
<text text-anchor="start" x="327" y="-581.5" font-family="Helvetica,sans-Serif" font-size="10.00"># tFlowNode()</text>
</a>
</g>
</g>
<!-- Node2&#45;&gt;Node1 -->
<g id="edge1" class="edge">
<title>Node2&#45;&gt;Node1</title>
<path fill="none" stroke="midnightblue" d="M384,-564.26C384,-555.74 384,-546.67 384,-537.53"/>
<polygon fill="none" stroke="midnightblue" points="380.5,-564.35 384,-574.35 387.5,-564.35 380.5,-564.35"/>
</g>
<!-- Node3 -->
<g id="node3" class="node">
<title>Node3</title>
<g id="a_node3"><a xlink:href="classXML_1_1bpmn_1_1tFlowElement.html" target="_top" xlink:title=" ">
<polygon fill="none" stroke="black" points="311.5,-690.5 311.5,-791.5 456.5,-791.5 456.5,-690.5 311.5,-690.5"/>
<text text-anchor="middle" x="384" y="-779.5" font-family="Helvetica,sans-Serif" font-size="10.00">XML::bpmn::tFlowElement</text>
<polyline fill="none" stroke="black" points="311.5,-772.5 456.5,-772.5 "/>
<text text-anchor="start" x="319.5" y="-760.5" font-family="Helvetica,sans-Serif" font-size="10.00">+ auditing</text>
<text text-anchor="start" x="319.5" y="-749.5" font-family="Helvetica,sans-Serif" font-size="10.00">+ monitoring</text>
<text text-anchor="start" x="319.5" y="-738.5" font-family="Helvetica,sans-Serif" font-size="10.00">+ categoryValueRef</text>
<text text-anchor="start" x="319.5" y="-727.5" font-family="Helvetica,sans-Serif" font-size="10.00">+ name</text>
<text text-anchor="start" x="319.5" y="-716.5" font-family="Helvetica,sans-Serif" font-size="10.00">+ defaults</text>
<polyline fill="none" stroke="black" points="311.5,-709.5 456.5,-709.5 "/>
<text text-anchor="start" x="319.5" y="-697.5" font-family="Helvetica,sans-Serif" font-size="10.00"># tFlowElement()</text>
</a>
</g>
</g>
<!-- Node3&#45;&gt;Node2 -->
<g id="edge2" class="edge">
<title>Node3&#45;&gt;Node2</title>
<path fill="none" stroke="midnightblue" d="M384,-680.19C384,-671.22 384,-662.18 384,-653.81"/>
<polygon fill="none" stroke="midnightblue" points="380.5,-680.24 384,-690.24 387.5,-680.24 380.5,-680.24"/>
</g>
<!-- Node4 -->
<g id="node4" class="node">
<title>Node4</title>
<g id="a_node4"><a xlink:href="classXML_1_1bpmn_1_1tBaseElement.html" target="_top" xlink:title=" ">
<polygon fill="none" stroke="black" points="311,-828.5 311,-918.5 457,-918.5 457,-828.5 311,-828.5"/>
<text text-anchor="middle" x="384" y="-906.5" font-family="Helvetica,sans-Serif" font-size="10.00">XML::bpmn::tBaseElement</text>
<polyline fill="none" stroke="black" points="311,-899.5 457,-899.5 "/>
<text text-anchor="start" x="319" y="-887.5" font-family="Helvetica,sans-Serif" font-size="10.00">+ documentation</text>
<text text-anchor="start" x="319" y="-876.5" font-family="Helvetica,sans-Serif" font-size="10.00">+ extensionElements</text>
<text text-anchor="start" x="319" y="-865.5" font-family="Helvetica,sans-Serif" font-size="10.00">+ id</text>
<text text-anchor="start" x="319" y="-854.5" font-family="Helvetica,sans-Serif" font-size="10.00">+ defaults</text>
<polyline fill="none" stroke="black" points="311,-847.5 457,-847.5 "/>
<text text-anchor="start" x="319" y="-835.5" font-family="Helvetica,sans-Serif" font-size="10.00"># tBaseElement()</text>
</a>
</g>
</g>
<!-- Node4&#45;&gt;Node3 -->
<g id="edge3" class="edge">
<title>Node4&#45;&gt;Node3</title>
<path fill="none" stroke="midnightblue" d="M384,-818.13C384,-809.31 384,-800.22 384,-791.52"/>
<polygon fill="none" stroke="midnightblue" points="380.5,-818.32 384,-828.32 387.5,-818.32 380.5,-818.32"/>
</g>
<!-- Node5 -->
<g id="node5" class="node">
<title>Node5</title>
<g id="a_node5"><a xlink:href="classXML_1_1XMLObject.html" target="_top" xlink:title=" ">
<polygon fill="none" stroke="black" points="321,-955.5 321,-1265.5 447,-1265.5 447,-955.5 321,-955.5"/>
<text text-anchor="middle" x="384" y="-1253.5" font-family="Helvetica,sans-Serif" font-size="10.00">XML::XMLObject</text>
<polyline fill="none" stroke="black" points="321,-1246.5 447,-1246.5 "/>
<text text-anchor="start" x="329" y="-1234.5" font-family="Helvetica,sans-Serif" font-size="10.00">+ xmlns</text>
<text text-anchor="start" x="329" y="-1223.5" font-family="Helvetica,sans-Serif" font-size="10.00">+ className</text>
<text text-anchor="start" x="329" y="-1212.5" font-family="Helvetica,sans-Serif" font-size="10.00">+ prefix</text>
<text text-anchor="start" x="329" y="-1201.5" font-family="Helvetica,sans-Serif" font-size="10.00">+ elementName</text>
<text text-anchor="start" x="329" y="-1190.5" font-family="Helvetica,sans-Serif" font-size="10.00">+ textContent</text>
<text text-anchor="start" x="329" y="-1179.5" font-family="Helvetica,sans-Serif" font-size="10.00">+ children</text>
<text text-anchor="start" x="329" y="-1168.5" font-family="Helvetica,sans-Serif" font-size="10.00">+ attributes</text>
<text text-anchor="start" x="329" y="-1157.5" font-family="Helvetica,sans-Serif" font-size="10.00">+ defaults</text>
<text text-anchor="start" x="329" y="-1146.5" font-family="Helvetica,sans-Serif" font-size="10.00"># factory</text>
<polyline fill="none" stroke="black" points="321,-1139.5 447,-1139.5 "/>
<text text-anchor="start" x="329" y="-1127.5" font-family="Helvetica,sans-Serif" font-size="10.00">+ ~XMLObject()</text>
<text text-anchor="start" x="329" y="-1116.5" font-family="Helvetica,sans-Serif" font-size="10.00">+ is()</text>
<text text-anchor="start" x="329" y="-1105.5" font-family="Helvetica,sans-Serif" font-size="10.00">+ is()</text>
<text text-anchor="start" x="329" y="-1094.5" font-family="Helvetica,sans-Serif" font-size="10.00">+ get()</text>
<text text-anchor="start" x="329" y="-1083.5" font-family="Helvetica,sans-Serif" font-size="10.00">+ get()</text>
<text text-anchor="start" x="329" y="-1072.5" font-family="Helvetica,sans-Serif" font-size="10.00">+ find()</text>
<text text-anchor="start" x="329" y="-1061.5" font-family="Helvetica,sans-Serif" font-size="10.00">+ find()</text>
<text text-anchor="start" x="329" y="-1050.5" font-family="Helvetica,sans-Serif" font-size="10.00">+ stringify()</text>
<text text-anchor="start" x="329" y="-1039.5" font-family="Helvetica,sans-Serif" font-size="10.00">+ getRequiredChild()</text>
<text text-anchor="start" x="329" y="-1028.5" font-family="Helvetica,sans-Serif" font-size="10.00">+ getOptionalChild()</text>
<text text-anchor="start" x="329" y="-1017.5" font-family="Helvetica,sans-Serif" font-size="10.00">and 6 more...</text>
<text text-anchor="start" x="329" y="-1006.5" font-family="Helvetica,sans-Serif" font-size="10.00">+ createFromStream()</text>
<text text-anchor="start" x="329" y="-995.5" font-family="Helvetica,sans-Serif" font-size="10.00">+ createFromString()</text>
<text text-anchor="start" x="329" y="-984.5" font-family="Helvetica,sans-Serif" font-size="10.00">+ createFromFile()</text>
<text text-anchor="start" x="329" y="-973.5" font-family="Helvetica,sans-Serif" font-size="10.00"># XMLObject()</text>
<text text-anchor="start" x="329" y="-962.5" font-family="Helvetica,sans-Serif" font-size="10.00"># createObject()</text>
</a>
</g>
</g>
<!-- Node5&#45;&gt;Node4 -->
<g id="edge4" class="edge">
<title>Node5&#45;&gt;Node4</title>
<path fill="none" stroke="midnightblue" d="M384,-945.35C384,-935.89 384,-926.91 384,-918.72"/>
<polygon fill="none" stroke="midnightblue" points="380.5,-945.37 384,-955.37 387.5,-945.37 380.5,-945.37"/>
</g>
<!-- Node7 -->
<g id="node7" class="node">
<title>Node7</title>
<g id="a_node7"><a xlink:href="classXML_1_1bpmn_1_1callActivity.html" target="_top" xlink:title=" ">
<polygon fill="none" stroke="black" points="0,-116.5 0,-173.5 132,-173.5 132,-116.5 0,-116.5"/>
<text text-anchor="middle" x="66" y="-161.5" font-family="Helvetica,sans-Serif" font-size="10.00">XML::bpmn::callActivity</text>
<polyline fill="none" stroke="black" points="0,-154.5 132,-154.5 "/>
<text text-anchor="start" x="8" y="-142.5" font-family="Helvetica,sans-Serif" font-size="10.00">+ defaults</text>
<polyline fill="none" stroke="black" points="0,-135.5 132,-135.5 "/>
<text text-anchor="start" x="8" y="-123.5" font-family="Helvetica,sans-Serif" font-size="10.00"># callActivity()</text>
</a>
</g>
</g>
<!-- Node6&#45;&gt;Node7 -->
<g id="edge6" class="edge">
<title>Node6&#45;&gt;Node7</title>
<path fill="none" stroke="midnightblue" d="M122.74,-240.1C109.76,-218.58 94.31,-192.96 82.81,-173.88"/>
<polygon fill="none" stroke="midnightblue" points="119.78,-241.97 127.94,-248.73 125.77,-238.36 119.78,-241.97"/>
</g>
<!-- Node9 -->
<g id="node9" class="node">
<title>Node9</title>
<g id="a_node9"><a xlink:href="classXML_1_1bpmn_1_1subProcess.html" target="_top" xlink:title=" ">
<polygon fill="none" stroke="black" points="150,-116.5 150,-173.5 282,-173.5 282,-116.5 150,-116.5"/>
<text text-anchor="middle" x="216" y="-161.5" font-family="Helvetica,sans-Serif" font-size="10.00">XML::bpmn::subProcess</text>
<polyline fill="none" stroke="black" points="150,-154.5 282,-154.5 "/>
<text text-anchor="start" x="158" y="-142.5" font-family="Helvetica,sans-Serif" font-size="10.00">+ defaults</text>
<polyline fill="none" stroke="black" points="150,-135.5 282,-135.5 "/>
<text text-anchor="start" x="158" y="-123.5" font-family="Helvetica,sans-Serif" font-size="10.00"># subProcess()</text>
</a>
</g>
</g>
<!-- Node8&#45;&gt;Node9 -->
<g id="edge8" class="edge">
<title>Node8&#45;&gt;Node9</title>
<path fill="none" stroke="midnightblue" d="M314.61,-225.83C292.41,-207.86 268.81,-188.75 250.26,-173.73"/>
<polygon fill="none" stroke="midnightblue" points="312.42,-228.56 322.4,-232.13 316.83,-223.12 312.42,-228.56"/>
</g>
<!-- Node10 -->
<g id="node10" class="node">
<title>Node10</title>
<g id="a_node10"><a xlink:href="classXML_1_1bpmn_1_1tAdHocSubProcess.html" target="_top" xlink:title=" ">
<polygon fill="none" stroke="black" points="300,-100 300,-190 468,-190 468,-100 300,-100"/>
<text text-anchor="middle" x="384" y="-178" font-family="Helvetica,sans-Serif" font-size="10.00">XML::bpmn::tAdHocSubProcess</text>
<polyline fill="none" stroke="black" points="300,-171 468,-171 "/>
<text text-anchor="start" x="308" y="-159" font-family="Helvetica,sans-Serif" font-size="10.00">+ completionCondition</text>
<text text-anchor="start" x="308" y="-148" font-family="Helvetica,sans-Serif" font-size="10.00">+ cancelRemainingInstances</text>
<text text-anchor="start" x="308" y="-137" font-family="Helvetica,sans-Serif" font-size="10.00">+ ordering</text>
<text text-anchor="start" x="308" y="-126" font-family="Helvetica,sans-Serif" font-size="10.00">+ defaults</text>
<polyline fill="none" stroke="black" points="300,-119 468,-119 "/>
<text text-anchor="start" x="308" y="-107" font-family="Helvetica,sans-Serif" font-size="10.00"># tAdHocSubProcess()</text>
</a>
</g>
</g>
<!-- Node8&#45;&gt;Node10 -->
<g id="edge9" class="edge">
<title>Node8&#45;&gt;Node10</title>
<path fill="none" stroke="midnightblue" d="M384,-221.95C384,-211.21 384,-200.21 384,-190.02"/>
<polygon fill="none" stroke="midnightblue" points="380.5,-222.13 384,-232.13 387.5,-222.13 380.5,-222.13"/>
</g>
<!-- Node12 -->
<g id="node12" class="node">
<title>Node12</title>
<g id="a_node12"><a xlink:href="classXML_1_1bpmn_1_1tTransaction.html" target="_top" xlink:title=" ">
<polygon fill="none" stroke="black" points="486.5,-111 486.5,-179 623.5,-179 623.5,-111 486.5,-111"/>
<text text-anchor="middle" x="555" y="-167" font-family="Helvetica,sans-Serif" font-size="10.00">XML::bpmn::tTransaction</text>
<polyline fill="none" stroke="black" points="486.5,-160 623.5,-160 "/>
<text text-anchor="start" x="494.5" y="-148" font-family="Helvetica,sans-Serif" font-size="10.00">+ method</text>
<text text-anchor="start" x="494.5" y="-137" font-family="Helvetica,sans-Serif" font-size="10.00">+ defaults</text>
<polyline fill="none" stroke="black" points="486.5,-130 623.5,-130 "/>
<text text-anchor="start" x="494.5" y="-118" font-family="Helvetica,sans-Serif" font-size="10.00"># tTransaction()</text>
</a>
</g>
</g>
<!-- Node8&#45;&gt;Node12 -->
<g id="edge11" class="edge">
<title>Node8&#45;&gt;Node12</title>
<path fill="none" stroke="midnightblue" d="M454.59,-225.86C474.58,-209.96 495.68,-193.18 513.36,-179.12"/>
<polygon fill="none" stroke="midnightblue" points="452.35,-223.17 446.7,-232.13 456.71,-228.65 452.35,-223.17"/>
</g>
<!-- Node11 -->
<g id="node11" class="node">
<title>Node11</title>
<g id="a_node11"><a xlink:href="classXML_1_1bpmn_1_1adHocSubProcess.html" target="_top" xlink:title=" ">
<polygon fill="none" stroke="black" points="302,-0.5 302,-57.5 466,-57.5 466,-0.5 302,-0.5"/>
<text text-anchor="middle" x="384" y="-45.5" font-family="Helvetica,sans-Serif" font-size="10.00">XML::bpmn::adHocSubProcess</text>
<polyline fill="none" stroke="black" points="302,-38.5 466,-38.5 "/>
<text text-anchor="start" x="310" y="-26.5" font-family="Helvetica,sans-Serif" font-size="10.00">+ defaults</text>
<polyline fill="none" stroke="black" points="302,-19.5 466,-19.5 "/>
<text text-anchor="start" x="310" y="-7.5" font-family="Helvetica,sans-Serif" font-size="10.00"># adHocSubProcess()</text>
</a>
</g>
</g>
<!-- Node10&#45;&gt;Node11 -->
<g id="edge10" class="edge">
<title>Node10&#45;&gt;Node11</title>
<path fill="none" stroke="midnightblue" d="M384,-89.83C384,-78.74 384,-67.51 384,-57.82"/>
<polygon fill="none" stroke="midnightblue" points="380.5,-89.92 384,-99.92 387.5,-89.92 380.5,-89.92"/>
</g>
<!-- Node14 -->
<g id="node14" class="node">
<title>Node14</title>
<g id="a_node14"><a xlink:href="classXML_1_1bpmn_1_1tBusinessRuleTask.html" target="_top" xlink:title=" ">
<polygon fill="none" stroke="black" points="642,-111 642,-179 810,-179 810,-111 642,-111"/>
<text text-anchor="middle" x="726" y="-167" font-family="Helvetica,sans-Serif" font-size="10.00">XML::bpmn::tBusinessRuleTask</text>
<polyline fill="none" stroke="black" points="642,-160 810,-160 "/>
<text text-anchor="start" x="650" y="-148" font-family="Helvetica,sans-Serif" font-size="10.00">+ implementation</text>
<text text-anchor="start" x="650" y="-137" font-family="Helvetica,sans-Serif" font-size="10.00">+ defaults</text>
<polyline fill="none" stroke="black" points="642,-130 810,-130 "/>
<text text-anchor="start" x="650" y="-118" font-family="Helvetica,sans-Serif" font-size="10.00"># tBusinessRuleTask()</text>
</a>
</g>
</g>
<!-- Node13&#45;&gt;Node14 -->
<g id="edge13" class="edge">
<title>Node13&#45;&gt;Node14</title>
<path fill="none" stroke="midnightblue" d="M1072.37,-269.53C1007.88,-255.47 904.33,-230.07 819,-196 806.91,-191.17 794.38,-185.18 782.57,-179.03"/>
<polygon fill="none" stroke="midnightblue" points="1071.86,-273 1082.38,-271.68 1073.34,-266.15 1071.86,-273"/>
</g>
<!-- Node16 -->
<g id="node16" class="node">
<title>Node16</title>
<g id="a_node16"><a xlink:href="classXML_1_1bpmn_1_1tManualTask.html" target="_top" xlink:title=" ">
<polygon fill="none" stroke="black" points="828.5,-116.5 828.5,-173.5 967.5,-173.5 967.5,-116.5 828.5,-116.5"/>
<text text-anchor="middle" x="898" y="-161.5" font-family="Helvetica,sans-Serif" font-size="10.00">XML::bpmn::tManualTask</text>
<polyline fill="none" stroke="black" points="828.5,-154.5 967.5,-154.5 "/>
<text text-anchor="start" x="836.5" y="-142.5" font-family="Helvetica,sans-Serif" font-size="10.00">+ defaults</text>
<polyline fill="none" stroke="black" points="828.5,-135.5 967.5,-135.5 "/>
<text text-anchor="start" x="836.5" y="-123.5" font-family="Helvetica,sans-Serif" font-size="10.00"># tManualTask()</text>
</a>
</g>
</g>
<!-- Node13&#45;&gt;Node16 -->
<g id="edge15" class="edge">
<title>Node13&#45;&gt;Node16</title>
<path fill="none" stroke="midnightblue" d="M1073.38,-249.95C1044.03,-234.14 1008.42,-214.52 977,-196 965.11,-188.99 952.41,-181.13 940.75,-173.74"/>
<polygon fill="none" stroke="midnightblue" points="1071.81,-253.08 1082.28,-254.73 1075.12,-246.91 1071.81,-253.08"/>
</g>
<!-- Node18 -->
<g id="node18" class="node">
<title>Node18</title>
<g id="a_node18"><a xlink:href="classXML_1_1bpmn_1_1tReceiveTask.html" target="_top" xlink:title=" ">
<polygon fill="none" stroke="black" points="986,-94.5 986,-195.5 1128,-195.5 1128,-94.5 986,-94.5"/>
<text text-anchor="middle" x="1057" y="-183.5" font-family="Helvetica,sans-Serif" font-size="10.00">XML::bpmn::tReceiveTask</text>
<polyline fill="none" stroke="black" points="986,-176.5 1128,-176.5 "/>
<text text-anchor="start" x="994" y="-164.5" font-family="Helvetica,sans-Serif" font-size="10.00">+ implementation</text>
<text text-anchor="start" x="994" y="-153.5" font-family="Helvetica,sans-Serif" font-size="10.00">+ instantiate</text>
<text text-anchor="start" x="994" y="-142.5" font-family="Helvetica,sans-Serif" font-size="10.00">+ messageRef</text>
<text text-anchor="start" x="994" y="-131.5" font-family="Helvetica,sans-Serif" font-size="10.00">+ operationRef</text>
<text text-anchor="start" x="994" y="-120.5" font-family="Helvetica,sans-Serif" font-size="10.00">+ defaults</text>
<polyline fill="none" stroke="black" points="986,-113.5 1128,-113.5 "/>
<text text-anchor="start" x="994" y="-101.5" font-family="Helvetica,sans-Serif" font-size="10.00"># tReceiveTask()</text>
</a>
</g>
</g>
<!-- Node13&#45;&gt;Node18 -->
<g id="edge17" class="edge">
<title>Node13&#45;&gt;Node18</title>
<path fill="none" stroke="midnightblue" d="M1113.26,-245.37C1104.63,-230.12 1094.47,-212.18 1085.18,-195.76"/>
<polygon fill="none" stroke="midnightblue" points="1110.45,-247.5 1118.42,-254.48 1116.54,-244.05 1110.45,-247.5"/>
</g>
<!-- Node20 -->
<g id="node20" class="node">
<title>Node20</title>
<g id="a_node20"><a xlink:href="classXML_1_1bpmn_1_1tScriptTask.html" target="_top" xlink:title=" ">
<polygon fill="none" stroke="black" points="1146.5,-105.5 1146.5,-184.5 1277.5,-184.5 1277.5,-105.5 1146.5,-105.5"/>
<text text-anchor="middle" x="1212" y="-172.5" font-family="Helvetica,sans-Serif" font-size="10.00">XML::bpmn::tScriptTask</text>
<polyline fill="none" stroke="black" points="1146.5,-165.5 1277.5,-165.5 "/>
<text text-anchor="start" x="1154.5" y="-153.5" font-family="Helvetica,sans-Serif" font-size="10.00">+ script</text>
<text text-anchor="start" x="1154.5" y="-142.5" font-family="Helvetica,sans-Serif" font-size="10.00">+ scriptFormat</text>
<text text-anchor="start" x="1154.5" y="-131.5" font-family="Helvetica,sans-Serif" font-size="10.00">+ defaults</text>
<polyline fill="none" stroke="black" points="1146.5,-124.5 1277.5,-124.5 "/>
<text text-anchor="start" x="1154.5" y="-112.5" font-family="Helvetica,sans-Serif" font-size="10.00"># tScriptTask()</text>
</a>
</g>
</g>
<!-- Node13&#45;&gt;Node20 -->
<g id="edge19" class="edge">
<title>Node13&#45;&gt;Node20</title>
<path fill="none" stroke="midnightblue" d="M1154.88,-245.59C1165.69,-226.74 1178.9,-203.72 1189.88,-184.56"/>
<polygon fill="none" stroke="midnightblue" points="1151.72,-244.06 1149.78,-254.48 1157.8,-247.55 1151.72,-244.06"/>
</g>
<!-- Node22 -->
<g id="node22" class="node">
<title>Node22</title>
<g id="a_node22"><a xlink:href="classXML_1_1bpmn_1_1tSendTask.html" target="_top" xlink:title=" ">
<polygon fill="none" stroke="black" points="1295.5,-100 1295.5,-190 1422.5,-190 1422.5,-100 1295.5,-100"/>
<text text-anchor="middle" x="1359" y="-178" font-family="Helvetica,sans-Serif" font-size="10.00">XML::bpmn::tSendTask</text>
<polyline fill="none" stroke="black" points="1295.5,-171 1422.5,-171 "/>
<text text-anchor="start" x="1303.5" y="-159" font-family="Helvetica,sans-Serif" font-size="10.00">+ implementation</text>
<text text-anchor="start" x="1303.5" y="-148" font-family="Helvetica,sans-Serif" font-size="10.00">+ messageRef</text>
<text text-anchor="start" x="1303.5" y="-137" font-family="Helvetica,sans-Serif" font-size="10.00">+ operationRef</text>
<text text-anchor="start" x="1303.5" y="-126" font-family="Helvetica,sans-Serif" font-size="10.00">+ defaults</text>
<polyline fill="none" stroke="black" points="1295.5,-119 1422.5,-119 "/>
<text text-anchor="start" x="1303.5" y="-107" font-family="Helvetica,sans-Serif" font-size="10.00"># tSendTask()</text>
</a>
</g>
</g>
<!-- Node13&#45;&gt;Node22 -->
<g id="edge21" class="edge">
<title>Node13&#45;&gt;Node22</title>
<path fill="none" stroke="midnightblue" d="M1194.25,-249.47C1222.44,-233.85 1256.29,-214.53 1286,-196 1289,-194.13 1292.05,-192.19 1295.11,-190.21"/>
<polygon fill="none" stroke="midnightblue" points="1192.37,-246.51 1185.3,-254.4 1195.75,-252.64 1192.37,-246.51"/>
</g>
<!-- Node24 -->
<g id="node24" class="node">
<title>Node24</title>
<g id="a_node24"><a xlink:href="classXML_1_1bpmn_1_1tServiceTask.html" target="_top" xlink:title=" ">
<polygon fill="none" stroke="black" points="1440.5,-105.5 1440.5,-184.5 1579.5,-184.5 1579.5,-105.5 1440.5,-105.5"/>
<text text-anchor="middle" x="1510" y="-172.5" font-family="Helvetica,sans-Serif" font-size="10.00">XML::bpmn::tServiceTask</text>
<polyline fill="none" stroke="black" points="1440.5,-165.5 1579.5,-165.5 "/>
<text text-anchor="start" x="1448.5" y="-153.5" font-family="Helvetica,sans-Serif" font-size="10.00">+ implementation</text>
<text text-anchor="start" x="1448.5" y="-142.5" font-family="Helvetica,sans-Serif" font-size="10.00">+ operationRef</text>
<text text-anchor="start" x="1448.5" y="-131.5" font-family="Helvetica,sans-Serif" font-size="10.00">+ defaults</text>
<polyline fill="none" stroke="black" points="1440.5,-124.5 1579.5,-124.5 "/>
<text text-anchor="start" x="1448.5" y="-112.5" font-family="Helvetica,sans-Serif" font-size="10.00"># tServiceTask()</text>
</a>
</g>
</g>
<!-- Node13&#45;&gt;Node24 -->
<g id="edge23" class="edge">
<title>Node13&#45;&gt;Node24</title>
<path fill="none" stroke="midnightblue" d="M1195.65,-269.51C1257,-255.85 1352.99,-231.12 1431,-196 1438.4,-192.67 1445.92,-188.73 1453.24,-184.55"/>
<polygon fill="none" stroke="midnightblue" points="1194.75,-266.12 1185.74,-271.68 1196.25,-272.96 1194.75,-266.12"/>
</g>
<!-- Node26 -->
<g id="node26" class="node">
<title>Node26</title>
<g id="a_node26"><a xlink:href="classXML_1_1bpmn_1_1tUserTask.html" target="_top" xlink:title=" ">
<polygon fill="none" stroke="black" points="1597.5,-105.5 1597.5,-184.5 1722.5,-184.5 1722.5,-105.5 1597.5,-105.5"/>
<text text-anchor="middle" x="1660" y="-172.5" font-family="Helvetica,sans-Serif" font-size="10.00">XML::bpmn::tUserTask</text>
<polyline fill="none" stroke="black" points="1597.5,-165.5 1722.5,-165.5 "/>
<text text-anchor="start" x="1605.5" y="-153.5" font-family="Helvetica,sans-Serif" font-size="10.00">+ rendering</text>
<text text-anchor="start" x="1605.5" y="-142.5" font-family="Helvetica,sans-Serif" font-size="10.00">+ implementation</text>
<text text-anchor="start" x="1605.5" y="-131.5" font-family="Helvetica,sans-Serif" font-size="10.00">+ defaults</text>
<polyline fill="none" stroke="black" points="1597.5,-124.5 1722.5,-124.5 "/>
<text text-anchor="start" x="1605.5" y="-112.5" font-family="Helvetica,sans-Serif" font-size="10.00"># tUserTask()</text>
</a>
</g>
</g>
<!-- Node13&#45;&gt;Node26 -->
<g id="edge25" class="edge">
<title>Node13&#45;&gt;Node26</title>
<path fill="none" stroke="midnightblue" d="M1195.7,-278.48C1285.28,-271.58 1455.15,-251.71 1588,-196 1595.44,-192.88 1602.88,-188.91 1610.01,-184.57"/>
<polygon fill="none" stroke="midnightblue" points="1195.42,-274.99 1185.71,-279.22 1195.94,-281.97 1195.42,-274.99"/>
</g>
<!-- Node15 -->
<g id="node15" class="node">
<title>Node15</title>
<g id="a_node15"><a xlink:href="classXML_1_1bpmn_1_1businessRuleTask.html" target="_top" xlink:title=" ">
<polygon fill="none" stroke="black" points="644,-0.5 644,-57.5 808,-57.5 808,-0.5 644,-0.5"/>
<text text-anchor="middle" x="726" y="-45.5" font-family="Helvetica,sans-Serif" font-size="10.00">XML::bpmn::businessRuleTask</text>
<polyline fill="none" stroke="black" points="644,-38.5 808,-38.5 "/>
<text text-anchor="start" x="652" y="-26.5" font-family="Helvetica,sans-Serif" font-size="10.00">+ defaults</text>
<polyline fill="none" stroke="black" points="644,-19.5 808,-19.5 "/>
<text text-anchor="start" x="652" y="-7.5" font-family="Helvetica,sans-Serif" font-size="10.00"># businessRuleTask()</text>
</a>
</g>
</g>
<!-- Node14&#45;&gt;Node15 -->
<g id="edge14" class="edge">
<title>Node14&#45;&gt;Node15</title>
<path fill="none" stroke="midnightblue" d="M726,-100.53C726,-86.17 726,-70.6 726,-57.74"/>
<polygon fill="none" stroke="midnightblue" points="722.5,-100.72 726,-110.72 729.5,-100.72 722.5,-100.72"/>
</g>
<!-- Node17 -->
<g id="node17" class="node">
<title>Node17</title>
<g id="a_node17"><a xlink:href="classXML_1_1bpmn_1_1manualTask.html" target="_top" xlink:title=" ">
<polygon fill="none" stroke="black" points="830,-0.5 830,-57.5 966,-57.5 966,-0.5 830,-0.5"/>
<text text-anchor="middle" x="898" y="-45.5" font-family="Helvetica,sans-Serif" font-size="10.00">XML::bpmn::manualTask</text>
<polyline fill="none" stroke="black" points="830,-38.5 966,-38.5 "/>
<text text-anchor="start" x="838" y="-26.5" font-family="Helvetica,sans-Serif" font-size="10.00">+ defaults</text>
<polyline fill="none" stroke="black" points="830,-19.5 966,-19.5 "/>
<text text-anchor="start" x="838" y="-7.5" font-family="Helvetica,sans-Serif" font-size="10.00"># manualTask()</text>
</a>
</g>
</g>
<!-- Node16&#45;&gt;Node17 -->
<g id="edge16" class="edge">
<title>Node16&#45;&gt;Node17</title>
<path fill="none" stroke="midnightblue" d="M898,-106.36C898,-90.5 898,-72.35 898,-57.74"/>
<polygon fill="none" stroke="midnightblue" points="894.5,-106.4 898,-116.4 901.5,-106.4 894.5,-106.4"/>
</g>
<!-- Node19 -->
<g id="node19" class="node">
<title>Node19</title>
<g id="a_node19"><a xlink:href="classXML_1_1bpmn_1_1receiveTask.html" target="_top" xlink:title=" ">
<polygon fill="none" stroke="black" points="989.5,-0.5 989.5,-57.5 1124.5,-57.5 1124.5,-0.5 989.5,-0.5"/>
<text text-anchor="middle" x="1057" y="-45.5" font-family="Helvetica,sans-Serif" font-size="10.00">XML::bpmn::receiveTask</text>
<polyline fill="none" stroke="black" points="989.5,-38.5 1124.5,-38.5 "/>
<text text-anchor="start" x="997.5" y="-26.5" font-family="Helvetica,sans-Serif" font-size="10.00">+ defaults</text>
<polyline fill="none" stroke="black" points="989.5,-19.5 1124.5,-19.5 "/>
<text text-anchor="start" x="997.5" y="-7.5" font-family="Helvetica,sans-Serif" font-size="10.00"># receiveTask()</text>
</a>
</g>
</g>
<!-- Node18&#45;&gt;Node19 -->
<g id="edge18" class="edge">
<title>Node18&#45;&gt;Node19</title>
<path fill="none" stroke="midnightblue" d="M1057,-84.23C1057,-74.92 1057,-65.71 1057,-57.59"/>
<polygon fill="none" stroke="midnightblue" points="1053.5,-84.33 1057,-94.33 1060.5,-84.33 1053.5,-84.33"/>
</g>
<!-- Node21 -->
<g id="node21" class="node">
<title>Node21</title>
<g id="a_node21"><a xlink:href="classXML_1_1bpmn_1_1scriptTask.html" target="_top" xlink:title=" ">
<polygon fill="none" stroke="black" points="1149,-0.5 1149,-57.5 1275,-57.5 1275,-0.5 1149,-0.5"/>
<text text-anchor="middle" x="1212" y="-45.5" font-family="Helvetica,sans-Serif" font-size="10.00">XML::bpmn::scriptTask</text>
<polyline fill="none" stroke="black" points="1149,-38.5 1275,-38.5 "/>
<text text-anchor="start" x="1157" y="-26.5" font-family="Helvetica,sans-Serif" font-size="10.00">+ defaults</text>
<polyline fill="none" stroke="black" points="1149,-19.5 1275,-19.5 "/>
<text text-anchor="start" x="1157" y="-7.5" font-family="Helvetica,sans-Serif" font-size="10.00"># scriptTask()</text>
</a>
</g>
</g>
<!-- Node20&#45;&gt;Node21 -->
<g id="edge20" class="edge">
<title>Node20&#45;&gt;Node21</title>
<path fill="none" stroke="midnightblue" d="M1212,-95.29C1212,-82.46 1212,-69.05 1212,-57.75"/>
<polygon fill="none" stroke="midnightblue" points="1208.5,-95.4 1212,-105.4 1215.5,-95.4 1208.5,-95.4"/>
</g>
<!-- Node23 -->
<g id="node23" class="node">
<title>Node23</title>
<g id="a_node23"><a xlink:href="classXML_1_1bpmn_1_1sendTask.html" target="_top" xlink:title=" ">
<polygon fill="none" stroke="black" points="1298,-0.5 1298,-57.5 1420,-57.5 1420,-0.5 1298,-0.5"/>
<text text-anchor="middle" x="1359" y="-45.5" font-family="Helvetica,sans-Serif" font-size="10.00">XML::bpmn::sendTask</text>
<polyline fill="none" stroke="black" points="1298,-38.5 1420,-38.5 "/>
<text text-anchor="start" x="1306" y="-26.5" font-family="Helvetica,sans-Serif" font-size="10.00">+ defaults</text>
<polyline fill="none" stroke="black" points="1298,-19.5 1420,-19.5 "/>
<text text-anchor="start" x="1306" y="-7.5" font-family="Helvetica,sans-Serif" font-size="10.00"># sendTask()</text>
</a>
</g>
</g>
<!-- Node22&#45;&gt;Node23 -->
<g id="edge22" class="edge">
<title>Node22&#45;&gt;Node23</title>
<path fill="none" stroke="midnightblue" d="M1359,-89.83C1359,-78.74 1359,-67.51 1359,-57.82"/>
<polygon fill="none" stroke="midnightblue" points="1355.5,-89.92 1359,-99.92 1362.5,-89.92 1355.5,-89.92"/>
</g>
<!-- Node25 -->
<g id="node25" class="node">
<title>Node25</title>
<g id="a_node25"><a xlink:href="classXML_1_1bpmn_1_1serviceTask.html" target="_top" xlink:title=" ">
<polygon fill="none" stroke="black" points="1443,-0.5 1443,-57.5 1577,-57.5 1577,-0.5 1443,-0.5"/>
<text text-anchor="middle" x="1510" y="-45.5" font-family="Helvetica,sans-Serif" font-size="10.00">XML::bpmn::serviceTask</text>
<polyline fill="none" stroke="black" points="1443,-38.5 1577,-38.5 "/>
<text text-anchor="start" x="1451" y="-26.5" font-family="Helvetica,sans-Serif" font-size="10.00">+ defaults</text>
<polyline fill="none" stroke="black" points="1443,-19.5 1577,-19.5 "/>
<text text-anchor="start" x="1451" y="-7.5" font-family="Helvetica,sans-Serif" font-size="10.00"># serviceTask()</text>
</a>
</g>
</g>
<!-- Node24&#45;&gt;Node25 -->
<g id="edge24" class="edge">
<title>Node24&#45;&gt;Node25</title>
<path fill="none" stroke="midnightblue" d="M1510,-95.29C1510,-82.46 1510,-69.05 1510,-57.75"/>
<polygon fill="none" stroke="midnightblue" points="1506.5,-95.4 1510,-105.4 1513.5,-95.4 1506.5,-95.4"/>
</g>
<!-- Node27 -->
<g id="node27" class="node">
<title>Node27</title>
<g id="a_node27"><a xlink:href="classXML_1_1bpmn_1_1userTask.html" target="_top" xlink:title=" ">
<polygon fill="none" stroke="black" points="1600,-0.5 1600,-57.5 1720,-57.5 1720,-0.5 1600,-0.5"/>
<text text-anchor="middle" x="1660" y="-45.5" font-family="Helvetica,sans-Serif" font-size="10.00">XML::bpmn::userTask</text>
<polyline fill="none" stroke="black" points="1600,-38.5 1720,-38.5 "/>
<text text-anchor="start" x="1608" y="-26.5" font-family="Helvetica,sans-Serif" font-size="10.00">+ defaults</text>
<polyline fill="none" stroke="black" points="1600,-19.5 1720,-19.5 "/>
<text text-anchor="start" x="1608" y="-7.5" font-family="Helvetica,sans-Serif" font-size="10.00"># userTask()</text>
</a>
</g>
</g>
<!-- Node26&#45;&gt;Node27 -->
<g id="edge26" class="edge">
<title>Node26&#45;&gt;Node27</title>
<path fill="none" stroke="midnightblue" d="M1660,-95.29C1660,-82.46 1660,-69.05 1660,-57.75"/>
<polygon fill="none" stroke="midnightblue" points="1656.5,-95.4 1660,-105.4 1663.5,-95.4 1656.5,-95.4"/>
</g>
</g>
</svg>
