<?xml version="1.0" encoding="UTF-8" standalone="no"?>
<!DOCTYPE svg PUBLIC "-//W3C//DTD SVG 1.1//EN"
 "http://www.w3.org/Graphics/SVG/1.1/DTD/svg11.dtd">
<!-- Generated by graphviz version 2.43.0 (0)
 -->
<!-- Title: BPMN::MessageCatchEvent Pages: 1 -->
<svg width="456pt" height="1037pt"
 viewBox="0.00 0.00 455.50 1037.00" xmlns="http://www.w3.org/2000/svg" xmlns:xlink="http://www.w3.org/1999/xlink">
<g id="graph0" class="graph" transform="scale(1 1) rotate(0) translate(4 1033)">
<title>BPMN::MessageCatchEvent</title>
<!-- Node1 -->
<g id="Node000001" class="node">
<title>Node1</title>
<g id="a_Node000001"><a xlink:title=" ">
<polygon fill="#999999" stroke="transparent" points="324.5,-134 179.5,-134 179.5,-85 324.5,-85 324.5,-134"/>
<text text-anchor="start" x="185" y="-121.5" font-family="Helvetica,sans-Serif" font-size="10.00">BPMN::MessageCatchEvent</text>
<text text-anchor="start" x="250.5" y="-106.5" font-family="Helvetica,sans-Serif" font-size="10.00"> </text>
<text text-anchor="start" x="188" y="-91.5" font-family="Helvetica,sans-Serif" font-size="10.00">+</text>
<text text-anchor="start" x="205" y="-91.5" font-family="Helvetica,sans-Serif" font-size="10.00">MessageCatchEvent()</text>
<polygon fill="#666666" stroke="#666666" points="180,-116.5 180,-116.5 325,-116.5 325,-116.5 180,-116.5"/>
<polygon fill="#666666" stroke="#666666" points="180,-101.5 180,-101.5 325,-101.5 325,-101.5 180,-101.5"/>
<polygon fill="none" stroke="#666666" points="179.5,-85 179.5,-134 324.5,-134 324.5,-85 179.5,-85"/>
</a>
</g>
</g>
<!-- Node9 -->
<g id="Node000009" class="node">
<title>Node9</title>
<g id="a_Node000009"><a xlink:href="classBPMN_1_1MessageBoundaryEvent.html" target="_top" xlink:title=" ">
<polygon fill="white" stroke="transparent" points="164,-49 0,-49 0,0 164,0 164,-49"/>
<text text-anchor="start" x="5" y="-36.5" font-family="Helvetica,sans-Serif" font-size="10.00">BPMN::MessageBoundaryEvent</text>
<text text-anchor="start" x="8" y="-21.5" font-family="Helvetica,sans-Serif" font-size="10.00">+</text>
<text text-anchor="start" x="25" y="-21.5" font-family="Helvetica,sans-Serif" font-size="10.00">element</text>
<text text-anchor="start" x="8" y="-6.5" font-family="Helvetica,sans-Serif" font-size="10.00">+</text>
<text text-anchor="start" x="25" y="-6.5" font-family="Helvetica,sans-Serif" font-size="10.00">MessageBoundaryEvent()</text>
<polygon fill="#666666" stroke="#666666" points="0,-31.5 0,-31.5 164,-31.5 164,-31.5 0,-31.5"/>
<polygon fill="#666666" stroke="#666666" points="0,-16.5 0,-16.5 23,-16.5 23,-16.5 0,-16.5"/>
<polygon fill="#666666" stroke="#666666" points="23,-16.5 23,-16.5 164,-16.5 164,-16.5 23,-16.5"/>
<polygon fill="none" stroke="#666666" points="0,0 0,-49 164,-49 164,0 0,0"/>
</a>
</g>
</g>
<!-- Node1&#45;&gt;Node9 -->
<g id="edge8_Node000001_Node000009" class="edge">
<title>Node1&#45;&gt;Node9</title>
<g id="a_edge8_Node000001_Node000009"><a xlink:title=" ">
<path fill="none" stroke="#63b8ff" d="M194.65,-80.5C173.78,-70.31 150.4,-58.9 130.38,-49.12"/>
<polygon fill="none" stroke="#63b8ff" points="193.22,-83.7 203.74,-84.94 196.29,-77.4 193.22,-83.7"/>
</a>
</g>
</g>
<!-- Node10 -->
<g id="Node000010" class="node">
<title>Node10</title>
<g id="a_Node000010"><a xlink:href="classBPMN_1_1MessageStartEvent.html" target="_top" xlink:title=" ">
<polygon fill="white" stroke="transparent" points="322,-49 182,-49 182,0 322,0 322,-49"/>
<text text-anchor="start" x="187" y="-36.5" font-family="Helvetica,sans-Serif" font-size="10.00">BPMN::MessageStartEvent</text>
<text text-anchor="start" x="190" y="-21.5" font-family="Helvetica,sans-Serif" font-size="10.00">+</text>
<text text-anchor="start" x="207" y="-21.5" font-family="Helvetica,sans-Serif" font-size="10.00">element</text>
<text text-anchor="start" x="190" y="-6.5" font-family="Helvetica,sans-Serif" font-size="10.00">+</text>
<text text-anchor="start" x="207" y="-6.5" font-family="Helvetica,sans-Serif" font-size="10.00">MessageStartEvent()</text>
<polygon fill="#666666" stroke="#666666" points="182,-31.5 182,-31.5 322,-31.5 322,-31.5 182,-31.5"/>
<polygon fill="#666666" stroke="#666666" points="182,-16.5 182,-16.5 205,-16.5 205,-16.5 182,-16.5"/>
<polygon fill="#666666" stroke="#666666" points="205,-16.5 205,-16.5 322,-16.5 322,-16.5 205,-16.5"/>
<polygon fill="none" stroke="#666666" points="182,0 182,-49 322,-49 322,0 182,0"/>
</a>
</g>
</g>
<!-- Node1&#45;&gt;Node10 -->
<g id="edge9_Node000001_Node000010" class="edge">
<title>Node1&#45;&gt;Node10</title>
<g id="a_edge9_Node000001_Node000010"><a xlink:title=" ">
<path fill="none" stroke="#63b8ff" d="M252,-74.77C252,-66.17 252,-57.1 252,-49.12"/>
<polygon fill="none" stroke="#63b8ff" points="248.5,-74.94 252,-84.94 255.5,-74.94 248.5,-74.94"/>
</a>
</g>
</g>
<!-- Node11 -->
<g id="Node000011" class="node">
<title>Node11</title>
<g id="a_Node000011"><a xlink:href="classBPMN_1_1ReceiveTask.html" target="_top" xlink:title=" ">
<polygon fill="white" stroke="transparent" points="447.5,-49 340.5,-49 340.5,0 447.5,0 447.5,-49"/>
<text text-anchor="start" x="346" y="-36.5" font-family="Helvetica,sans-Serif" font-size="10.00">BPMN::ReceiveTask</text>
<text text-anchor="start" x="349" y="-21.5" font-family="Helvetica,sans-Serif" font-size="10.00">+</text>
<text text-anchor="start" x="366" y="-21.5" font-family="Helvetica,sans-Serif" font-size="10.00">element</text>
<text text-anchor="start" x="349" y="-6.5" font-family="Helvetica,sans-Serif" font-size="10.00">+</text>
<text text-anchor="start" x="366" y="-6.5" font-family="Helvetica,sans-Serif" font-size="10.00">ReceiveTask()</text>
<polygon fill="#666666" stroke="#666666" points="341,-31.5 341,-31.5 448,-31.5 448,-31.5 341,-31.5"/>
<polygon fill="#666666" stroke="#666666" points="341,-16.5 341,-16.5 364,-16.5 364,-16.5 341,-16.5"/>
<polygon fill="#666666" stroke="#666666" points="364,-16.5 364,-16.5 448,-16.5 448,-16.5 364,-16.5"/>
<polygon fill="none" stroke="#666666" points="340.5,0 340.5,-49 447.5,-49 447.5,0 340.5,0"/>
</a>
</g>
</g>
<!-- Node1&#45;&gt;Node11 -->
<g id="edge10_Node000001_Node000011" class="edge">
<title>Node1&#45;&gt;Node11</title>
<g id="a_edge10_Node000001_Node000011"><a xlink:title=" ">
<path fill="none" stroke="#63b8ff" d="M301.08,-79.81C318.21,-69.8 337.24,-58.68 353.59,-49.12"/>
<polygon fill="none" stroke="#63b8ff" points="299.18,-76.87 292.31,-84.94 302.71,-82.91 299.18,-76.87"/>
</a>
</g>
</g>
<!-- Node2 -->
<g id="Node000002" class="node">
<title>Node2</title>
<g id="a_Node000002"><a xlink:href="classBPMN_1_1CatchEvent.html" target="_top" xlink:title=" ">
<polygon fill="white" stroke="transparent" points="302.5,-219 201.5,-219 201.5,-170 302.5,-170 302.5,-219"/>
<text text-anchor="start" x="207" y="-206.5" font-family="Helvetica,sans-Serif" font-size="10.00">BPMN::CatchEvent</text>
<text text-anchor="start" x="210" y="-191.5" font-family="Helvetica,sans-Serif" font-size="10.00">+</text>
<text text-anchor="start" x="227" y="-191.5" font-family="Helvetica,sans-Serif" font-size="10.00">element</text>
<text text-anchor="start" x="210" y="-176.5" font-family="Helvetica,sans-Serif" font-size="10.00">+</text>
<text text-anchor="start" x="227" y="-176.5" font-family="Helvetica,sans-Serif" font-size="10.00">CatchEvent()</text>
<polygon fill="#666666" stroke="#666666" points="202,-201.5 202,-201.5 303,-201.5 303,-201.5 202,-201.5"/>
<polygon fill="#666666" stroke="#666666" points="202,-186.5 202,-186.5 225,-186.5 225,-186.5 202,-186.5"/>
<polygon fill="#666666" stroke="#666666" points="225,-186.5 225,-186.5 303,-186.5 303,-186.5 225,-186.5"/>
<polygon fill="none" stroke="#666666" points="201.5,-170 201.5,-219 302.5,-219 302.5,-170 201.5,-170"/>
</a>
</g>
</g>
<!-- Node2&#45;&gt;Node1 -->
<g id="edge1_Node000001_Node000002" class="edge">
<title>Node2&#45;&gt;Node1</title>
<g id="a_edge1_Node000001_Node000002"><a xlink:title=" ">
<path fill="none" stroke="#63b8ff" d="M252,-159.77C252,-151.17 252,-142.1 252,-134.12"/>
<polygon fill="none" stroke="#63b8ff" points="248.5,-159.94 252,-169.94 255.5,-159.94 248.5,-159.94"/>
</a>
</g>
</g>
<!-- Node3 -->
<g id="Node000003" class="node">
<title>Node3</title>
<g id="a_Node000003"><a xlink:href="classBPMN_1_1Event.html" target="_top" xlink:title=" ">
<polygon fill="white" stroke="transparent" points="289,-304 215,-304 215,-255 289,-255 289,-304"/>
<text text-anchor="start" x="220" y="-291.5" font-family="Helvetica,sans-Serif" font-size="10.00">BPMN::Event</text>
<text text-anchor="start" x="222" y="-276.5" font-family="Helvetica,sans-Serif" font-size="10.00">+</text>
<text text-anchor="start" x="238" y="-276.5" font-family="Helvetica,sans-Serif" font-size="10.00">element</text>
<text text-anchor="start" x="222" y="-261.5" font-family="Helvetica,sans-Serif" font-size="10.00">+</text>
<text text-anchor="start" x="238" y="-261.5" font-family="Helvetica,sans-Serif" font-size="10.00">Event()</text>
<polygon fill="#666666" stroke="#666666" points="215,-286.5 215,-286.5 289,-286.5 289,-286.5 215,-286.5"/>
<polygon fill="#666666" stroke="#666666" points="215,-271.5 215,-271.5 236,-271.5 236,-271.5 215,-271.5"/>
<polygon fill="#666666" stroke="#666666" points="236,-271.5 236,-271.5 289,-271.5 289,-271.5 236,-271.5"/>
<polygon fill="none" stroke="#666666" points="215,-255 215,-304 289,-304 289,-255 215,-255"/>
</a>
</g>
</g>
<!-- Node3&#45;&gt;Node2 -->
<g id="edge2_Node000002_Node000003" class="edge">
<title>Node3&#45;&gt;Node2</title>
<g id="a_edge2_Node000002_Node000003"><a xlink:title=" ">
<path fill="none" stroke="#63b8ff" d="M252,-244.77C252,-236.17 252,-227.1 252,-219.12"/>
<polygon fill="none" stroke="#63b8ff" points="248.5,-244.94 252,-254.94 255.5,-244.94 248.5,-244.94"/>
</a>
</g>
</g>
<!-- Node4 -->
<g id="Node000004" class="node">
<title>Node4</title>
<g id="a_Node000004"><a xlink:href="classBPMN_1_1FlowNode.html" target="_top" xlink:title="Base class for BPMN elements that may contain incoming and outgoing sequence flows.">
<polygon fill="white" stroke="transparent" points="299.5,-434 204.5,-434 204.5,-340 299.5,-340 299.5,-434"/>
<text text-anchor="start" x="210" y="-422" font-family="Helvetica,sans-Serif" font-size="10.00">BPMN::FlowNode</text>
<text text-anchor="start" x="213" y="-407" font-family="Helvetica,sans-Serif" font-size="10.00">+</text>
<text text-anchor="start" x="230" y="-407" font-family="Helvetica,sans-Serif" font-size="10.00">element</text>
<text text-anchor="start" x="213" y="-392" font-family="Helvetica,sans-Serif" font-size="10.00">+</text>
<text text-anchor="start" x="230" y="-392" font-family="Helvetica,sans-Serif" font-size="10.00">name</text>
<text text-anchor="start" x="213" y="-377" font-family="Helvetica,sans-Serif" font-size="10.00">+</text>
<text text-anchor="start" x="230" y="-377" font-family="Helvetica,sans-Serif" font-size="10.00">incoming</text>
<text text-anchor="start" x="213" y="-362" font-family="Helvetica,sans-Serif" font-size="10.00">+</text>
<text text-anchor="start" x="230" y="-362" font-family="Helvetica,sans-Serif" font-size="10.00">outgoing</text>
<text text-anchor="start" x="213" y="-347" font-family="Helvetica,sans-Serif" font-size="10.00">+</text>
<text text-anchor="start" x="230" y="-347" font-family="Helvetica,sans-Serif" font-size="10.00">FlowNode()</text>
<polygon fill="#666666" stroke="#666666" points="205,-417 205,-417 300,-417 300,-417 205,-417"/>
<polygon fill="#666666" stroke="#666666" points="205,-357 205,-357 228,-357 228,-357 205,-357"/>
<polygon fill="#666666" stroke="#666666" points="228,-357 228,-357 300,-357 300,-357 228,-357"/>
<polygon fill="none" stroke="#666666" points="204.5,-340 204.5,-434 299.5,-434 299.5,-340 204.5,-340"/>
</a>
</g>
</g>
<!-- Node4&#45;&gt;Node3 -->
<g id="edge3_Node000003_Node000004" class="edge">
<title>Node4&#45;&gt;Node3</title>
<g id="a_edge3_Node000003_Node000004"><a xlink:title=" ">
<path fill="none" stroke="#63b8ff" d="M252,-329.59C252,-320.62 252,-311.79 252,-304.15"/>
<polygon fill="none" stroke="#63b8ff" points="248.5,-329.73 252,-339.73 255.5,-329.73 248.5,-329.73"/>
</a>
</g>
</g>
<!-- Node5 -->
<g id="Node000005" class="node">
<title>Node5</title>
<g id="a_Node000005"><a xlink:href="classBPMN_1_1ChildNode.html" target="_top" xlink:title="Base class for BPMN elements within a Scope.">
<polygon fill="white" stroke="transparent" points="300,-549 204,-549 204,-470 300,-470 300,-549"/>
<text text-anchor="start" x="209" y="-536.5" font-family="Helvetica,sans-Serif" font-size="10.00">BPMN::ChildNode</text>
<text text-anchor="start" x="212" y="-521.5" font-family="Helvetica,sans-Serif" font-size="10.00">+</text>
<text text-anchor="start" x="229" y="-521.5" font-family="Helvetica,sans-Serif" font-size="10.00">parent</text>
<text text-anchor="start" x="212" y="-506.5" font-family="Helvetica,sans-Serif" font-size="10.00">+</text>
<text text-anchor="start" x="229" y="-506.5" font-family="Helvetica,sans-Serif" font-size="10.00">ChildNode()</text>
<text text-anchor="start" x="212" y="-491.5" font-family="Helvetica,sans-Serif" font-size="10.00">+</text>
<text text-anchor="start" x="229" y="-491.5" font-family="Helvetica,sans-Serif" font-size="10.00">ancestor()</text>
<text text-anchor="start" x="212" y="-476.5" font-family="Helvetica,sans-Serif" font-size="10.00">+</text>
<text text-anchor="start" x="229" y="-476.5" font-family="Helvetica,sans-Serif" font-size="10.00">ancestor()</text>
<polygon fill="#666666" stroke="#666666" points="204,-531.5 204,-531.5 300,-531.5 300,-531.5 204,-531.5"/>
<polygon fill="#666666" stroke="#666666" points="204,-516.5 204,-516.5 227,-516.5 227,-516.5 204,-516.5"/>
<polygon fill="#666666" stroke="#666666" points="227,-516.5 227,-516.5 300,-516.5 300,-516.5 227,-516.5"/>
<polygon fill="none" stroke="#666666" points="204,-470 204,-549 300,-549 300,-470 204,-470"/>
</a>
</g>
</g>
<!-- Node5&#45;&gt;Node4 -->
<g id="edge4_Node000004_Node000005" class="edge">
<title>Node5&#45;&gt;Node4</title>
<g id="a_edge4_Node000004_Node000005"><a xlink:title=" ">
<path fill="none" stroke="#63b8ff" d="M252,-459.68C252,-451.3 252,-442.61 252,-434.29"/>
<polygon fill="none" stroke="#63b8ff" points="248.5,-459.71 252,-469.71 255.5,-459.71 248.5,-459.71"/>
</a>
</g>
</g>
<!-- Node6 -->
<g id="Node000006" class="node">
<title>Node6</title>
<g id="a_Node000006"><a xlink:href="classBPMN_1_1Node.html" target="_top" xlink:title="Base class for all nodes in a BPMN model.">
<polygon fill="white" stroke="transparent" points="287.5,-709 216.5,-709 216.5,-585 287.5,-585 287.5,-709"/>
<text text-anchor="start" x="222" y="-697" font-family="Helvetica,sans-Serif" font-size="10.00">BPMN::Node</text>
<text text-anchor="start" x="222" y="-682" font-family="Helvetica,sans-Serif" font-size="10.00">+</text>
<text text-anchor="start" x="236" y="-682" font-family="Helvetica,sans-Serif" font-size="10.00">receiving</text>
<text text-anchor="start" x="222" y="-667" font-family="Helvetica,sans-Serif" font-size="10.00">+</text>
<text text-anchor="start" x="236" y="-667" font-family="Helvetica,sans-Serif" font-size="10.00">sending</text>
<text text-anchor="start" x="222" y="-652" font-family="Helvetica,sans-Serif" font-size="10.00">+</text>
<text text-anchor="start" x="236" y="-652" font-family="Helvetica,sans-Serif" font-size="10.00">Node()</text>
<text text-anchor="start" x="222" y="-637" font-family="Helvetica,sans-Serif" font-size="10.00">+</text>
<text text-anchor="start" x="236" y="-637" font-family="Helvetica,sans-Serif" font-size="10.00">find()</text>
<text text-anchor="start" x="222" y="-622" font-family="Helvetica,sans-Serif" font-size="10.00">+</text>
<text text-anchor="start" x="236" y="-622" font-family="Helvetica,sans-Serif" font-size="10.00">find()</text>
<text text-anchor="start" x="222" y="-607" font-family="Helvetica,sans-Serif" font-size="10.00">+</text>
<text text-anchor="start" x="236" y="-607" font-family="Helvetica,sans-Serif" font-size="10.00">find_all()</text>
<text text-anchor="start" x="222" y="-592" font-family="Helvetica,sans-Serif" font-size="10.00">+</text>
<text text-anchor="start" x="236" y="-592" font-family="Helvetica,sans-Serif" font-size="10.00">find_all()</text>
<polygon fill="#666666" stroke="#666666" points="217,-692 217,-692 288,-692 288,-692 217,-692"/>
<polygon fill="#666666" stroke="#666666" points="217,-662 217,-662 234,-662 234,-662 217,-662"/>
<polygon fill="#666666" stroke="#666666" points="234,-662 234,-662 288,-662 288,-662 234,-662"/>
<polygon fill="none" stroke="#666666" points="216.5,-585 216.5,-709 287.5,-709 287.5,-585 216.5,-585"/>
</a>
</g>
</g>
<!-- Node6&#45;&gt;Node5 -->
<g id="edge5_Node000005_Node000006" class="edge">
<title>Node6&#45;&gt;Node5</title>
<g id="a_edge5_Node000005_Node000006"><a xlink:title=" ">
<path fill="none" stroke="#63b8ff" d="M252,-574.93C252,-566.02 252,-557.19 252,-549.05"/>
<polygon fill="none" stroke="#63b8ff" points="248.5,-574.99 252,-584.99 255.5,-574.99 248.5,-574.99"/>
</a>
</g>
</g>
<!-- Node7 -->
<g id="Node000007" class="node">
<title>Node7</title>
<g id="a_Node000007"><a xlink:href="classBPMN_1_1BaseElement.html" target="_top" xlink:title="Base class for all core BPMN elements.">
<polygon fill="white" stroke="transparent" points="309.5,-884 194.5,-884 194.5,-745 309.5,-745 309.5,-884"/>
<text text-anchor="start" x="202.5" y="-871.5" font-family="Helvetica,sans-Serif" font-size="10.00">BPMN::BaseElement</text>
<text text-anchor="start" x="199" y="-856.5" font-family="Helvetica,sans-Serif" font-size="10.00">+</text>
<text text-anchor="start" x="212" y="-856.5" font-family="Helvetica,sans-Serif" font-size="10.00">element</text>
<text text-anchor="start" x="199" y="-841.5" font-family="Helvetica,sans-Serif" font-size="10.00">+</text>
<text text-anchor="start" x="212" y="-841.5" font-family="Helvetica,sans-Serif" font-size="10.00">id</text>
<text text-anchor="start" x="199" y="-826.5" font-family="Helvetica,sans-Serif" font-size="10.00">+</text>
<text text-anchor="start" x="212" y="-826.5" font-family="Helvetica,sans-Serif" font-size="10.00">extensionElements</text>
<text text-anchor="start" x="199" y="-811.5" font-family="Helvetica,sans-Serif" font-size="10.00">+</text>
<text text-anchor="start" x="212" y="-811.5" font-family="Helvetica,sans-Serif" font-size="10.00">BaseElement()</text>
<text text-anchor="start" x="199" y="-796.5" font-family="Helvetica,sans-Serif" font-size="10.00">+</text>
<text text-anchor="start" x="212" y="-796.5" font-family="Helvetica,sans-Serif" font-size="10.00">is()</text>
<text text-anchor="start" x="199" y="-781.5" font-family="Helvetica,sans-Serif" font-size="10.00">+</text>
<text text-anchor="start" x="212" y="-781.5" font-family="Helvetica,sans-Serif" font-size="10.00">is()</text>
<text text-anchor="start" x="199" y="-766.5" font-family="Helvetica,sans-Serif" font-size="10.00">+</text>
<text text-anchor="start" x="212" y="-766.5" font-family="Helvetica,sans-Serif" font-size="10.00">get()</text>
<text text-anchor="start" x="199" y="-751.5" font-family="Helvetica,sans-Serif" font-size="10.00">+</text>
<text text-anchor="start" x="212" y="-751.5" font-family="Helvetica,sans-Serif" font-size="10.00">get()</text>
<polygon fill="#666666" stroke="#666666" points="195,-866.5 195,-866.5 310,-866.5 310,-866.5 195,-866.5"/>
<polygon fill="#666666" stroke="#666666" points="195,-821.5 195,-821.5 210,-821.5 210,-821.5 195,-821.5"/>
<polygon fill="#666666" stroke="#666666" points="210,-821.5 210,-821.5 310,-821.5 310,-821.5 210,-821.5"/>
<polygon fill="none" stroke="#666666" points="194.5,-745 194.5,-884 309.5,-884 309.5,-745 194.5,-745"/>
</a>
</g>
</g>
<!-- Node7&#45;&gt;Node6 -->
<g id="edge6_Node000006_Node000007" class="edge">
<title>Node7&#45;&gt;Node6</title>
<g id="a_edge6_Node000006_Node000007"><a xlink:title=" ">
<path fill="none" stroke="#63b8ff" d="M252,-734.71C252,-726.12 252,-717.47 252,-709.14"/>
<polygon fill="none" stroke="#63b8ff" points="248.5,-734.75 252,-744.75 255.5,-734.75 248.5,-734.75"/>
</a>
</g>
</g>
<!-- Node8 -->
<g id="Node000008" class="node">
<title>Node8</title>
<g id="a_Node000008"><a xlink:href="classBPMN_1_1Element.html" target="_top" xlink:title="Abstract base class for all elements in a BPMN model.">
<polygon fill="white" stroke="transparent" points="295,-1029 209,-1029 209,-920 295,-920 295,-1029"/>
<text text-anchor="start" x="214" y="-1016.5" font-family="Helvetica,sans-Serif" font-size="10.00">BPMN::Element</text>
<text text-anchor="start" x="250" y="-1001.5" font-family="Helvetica,sans-Serif" font-size="10.00"> </text>
<text text-anchor="start" x="214" y="-986.5" font-family="Helvetica,sans-Serif" font-size="10.00">+</text>
<text text-anchor="start" x="228" y="-986.5" font-family="Helvetica,sans-Serif" font-size="10.00">~Element()</text>
<text text-anchor="start" x="214" y="-971.5" font-family="Helvetica,sans-Serif" font-size="10.00">+</text>
<text text-anchor="start" x="228" y="-971.5" font-family="Helvetica,sans-Serif" font-size="10.00">represents()</text>
<text text-anchor="start" x="214" y="-956.5" font-family="Helvetica,sans-Serif" font-size="10.00">+</text>
<text text-anchor="start" x="228" y="-956.5" font-family="Helvetica,sans-Serif" font-size="10.00">represents()</text>
<text text-anchor="start" x="214" y="-941.5" font-family="Helvetica,sans-Serif" font-size="10.00">+</text>
<text text-anchor="start" x="228" y="-941.5" font-family="Helvetica,sans-Serif" font-size="10.00">as()</text>
<text text-anchor="start" x="214" y="-926.5" font-family="Helvetica,sans-Serif" font-size="10.00">+</text>
<text text-anchor="start" x="228" y="-926.5" font-family="Helvetica,sans-Serif" font-size="10.00">as()</text>
<polygon fill="#666666" stroke="#666666" points="209,-1011.5 209,-1011.5 295,-1011.5 295,-1011.5 209,-1011.5"/>
<polygon fill="#666666" stroke="#666666" points="209,-996.5 209,-996.5 295,-996.5 295,-996.5 209,-996.5"/>
<polygon fill="none" stroke="#666666" points="209,-920 209,-1029 295,-1029 295,-920 209,-920"/>
</a>
</g>
</g>
<!-- Node8&#45;&gt;Node7 -->
<g id="edge7_Node000007_Node000008" class="edge">
<title>Node8&#45;&gt;Node7</title>
<g id="a_edge7_Node000007_Node000008"><a xlink:title=" ">
<path fill="none" stroke="#63b8ff" d="M252,-909.55C252,-901.23 252,-892.67 252,-884.28"/>
<polygon fill="none" stroke="#63b8ff" points="248.5,-909.57 252,-919.57 255.5,-909.57 248.5,-909.57"/>
</a>
</g>
</g>
</g>
</svg>
