<?xml version="1.0" encoding="UTF-8" standalone="no"?>
<!DOCTYPE svg PUBLIC "-//W3C//DTD SVG 1.1//EN"
 "http://www.w3.org/Graphics/SVG/1.1/DTD/svg11.dtd">
<!-- Generated by graphviz version 2.43.0 (0)
 -->
<!-- Title: BPMN::Activity Pages: 1 -->
<svg width="1148pt" height="977pt"
 viewBox="0.00 0.00 1147.50 977.00" xmlns="http://www.w3.org/2000/svg" xmlns:xlink="http://www.w3.org/1999/xlink">
<g id="graph0" class="graph" transform="scale(1 1) rotate(0) translate(4 973)">
<title>BPMN::Activity</title>
<!-- Node1 -->
<g id="node1" class="node">
<title>Node1</title>
<g id="a_node1"><a xlink:title=" ">
<polygon fill="#bfbfbf" stroke="black" points="213.5,-199.5 213.5,-300.5 335.5,-300.5 335.5,-199.5 213.5,-199.5"/>
<text text-anchor="middle" x="274.5" y="-288.5" font-family="Helvetica,sans-Serif" font-size="10.00">BPMN::Activity</text>
<polyline fill="none" stroke="black" points="213.5,-281.5 335.5,-281.5 "/>
<text text-anchor="start" x="221.5" y="-269.5" font-family="Helvetica,sans-Serif" font-size="10.00">+ boundaryEvents</text>
<text text-anchor="start" x="221.5" y="-258.5" font-family="Helvetica,sans-Serif" font-size="10.00">+ compensatedBy</text>
<text text-anchor="start" x="221.5" y="-247.5" font-family="Helvetica,sans-Serif" font-size="10.00">+ isForCompensation</text>
<text text-anchor="start" x="221.5" y="-236.5" font-family="Helvetica,sans-Serif" font-size="10.00">+ loopCharacteristics</text>
<text text-anchor="start" x="221.5" y="-225.5" font-family="Helvetica,sans-Serif" font-size="10.00">+ element</text>
<polyline fill="none" stroke="black" points="213.5,-218.5 335.5,-218.5 "/>
<text text-anchor="start" x="221.5" y="-206.5" font-family="Helvetica,sans-Serif" font-size="10.00">+ Activity()</text>
</a>
</g>
</g>
<!-- Node7 -->
<g id="node7" class="node">
<title>Node7</title>
<g id="a_node7"><a xlink:href="classBPMN_1_1AdHocSubProcess.html" target="_top" xlink:title=" ">
<polygon fill="none" stroke="black" points="0,-94.5 0,-162.5 139,-162.5 139,-94.5 0,-94.5"/>
<text text-anchor="middle" x="69.5" y="-150.5" font-family="Helvetica,sans-Serif" font-size="10.00">BPMN::AdHocSubProcess</text>
<polyline fill="none" stroke="black" points="0,-143.5 139,-143.5 "/>
<text text-anchor="start" x="8" y="-131.5" font-family="Helvetica,sans-Serif" font-size="10.00">+ isSequential</text>
<text text-anchor="start" x="8" y="-120.5" font-family="Helvetica,sans-Serif" font-size="10.00">+ element</text>
<polyline fill="none" stroke="black" points="0,-113.5 139,-113.5 "/>
<text text-anchor="start" x="8" y="-101.5" font-family="Helvetica,sans-Serif" font-size="10.00">+ AdHocSubProcess()</text>
</a>
</g>
</g>
<!-- Node1&#45;&gt;Node7 -->
<g id="edge6" class="edge">
<title>Node1&#45;&gt;Node7</title>
<path fill="none" stroke="midnightblue" d="M204.39,-208.13C178.89,-193.27 150.41,-176.66 126.21,-162.56"/>
<polygon fill="none" stroke="midnightblue" points="202.87,-211.3 213.27,-213.31 206.39,-205.25 202.87,-211.3"/>
</g>
<!-- Node8 -->
<g id="node8" class="node">
<title>Node8</title>
<g id="a_node8"><a xlink:href="classBPMN_1_1CallActivity.html" target="_top" xlink:title=" ">
<polygon fill="none" stroke="black" points="157.5,-100 157.5,-157 265.5,-157 265.5,-100 157.5,-100"/>
<text text-anchor="middle" x="211.5" y="-145" font-family="Helvetica,sans-Serif" font-size="10.00">BPMN::CallActivity</text>
<polyline fill="none" stroke="black" points="157.5,-138 265.5,-138 "/>
<text text-anchor="start" x="165.5" y="-126" font-family="Helvetica,sans-Serif" font-size="10.00">+ element</text>
<polyline fill="none" stroke="black" points="157.5,-119 265.5,-119 "/>
<text text-anchor="start" x="165.5" y="-107" font-family="Helvetica,sans-Serif" font-size="10.00">+ CallActivity()</text>
</a>
</g>
</g>
<!-- Node1&#45;&gt;Node8 -->
<g id="edge7" class="edge">
<title>Node1&#45;&gt;Node8</title>
<path fill="none" stroke="midnightblue" d="M243.5,-190.19C237.45,-178.71 231.37,-167.19 226.16,-157.31"/>
<polygon fill="none" stroke="midnightblue" points="240.57,-192.15 248.33,-199.36 246.76,-188.88 240.57,-192.15"/>
</g>
<!-- Node9 -->
<g id="node9" class="node">
<title>Node9</title>
<g id="a_node9"><a xlink:href="classBPMN_1_1SubProcess.html" target="_top" xlink:title=" ">
<polygon fill="none" stroke="black" points="284,-94.5 284,-162.5 391,-162.5 391,-94.5 284,-94.5"/>
<text text-anchor="middle" x="337.5" y="-150.5" font-family="Helvetica,sans-Serif" font-size="10.00">BPMN::SubProcess</text>
<polyline fill="none" stroke="black" points="284,-143.5 391,-143.5 "/>
<text text-anchor="start" x="292" y="-131.5" font-family="Helvetica,sans-Serif" font-size="10.00">+ startEvent</text>
<text text-anchor="start" x="292" y="-120.5" font-family="Helvetica,sans-Serif" font-size="10.00">+ element</text>
<polyline fill="none" stroke="black" points="284,-113.5 391,-113.5 "/>
<text text-anchor="start" x="292" y="-101.5" font-family="Helvetica,sans-Serif" font-size="10.00">+ SubProcess()</text>
</a>
</g>
</g>
<!-- Node1&#45;&gt;Node9 -->
<g id="edge8" class="edge">
<title>Node1&#45;&gt;Node9</title>
<path fill="none" stroke="midnightblue" d="M305.42,-190.34C310.41,-180.89 315.41,-171.4 319.93,-162.83"/>
<polygon fill="none" stroke="midnightblue" points="302.24,-188.88 300.67,-199.36 308.43,-192.15 302.24,-188.88"/>
</g>
<!-- Node11 -->
<g id="node11" class="node">
<title>Node11</title>
<g id="a_node11"><a xlink:href="classBPMN_1_1Task.html" target="_top" xlink:title=" ">
<polygon fill="none" stroke="black" points="624.5,-100 624.5,-157 698.5,-157 698.5,-100 624.5,-100"/>
<text text-anchor="middle" x="661.5" y="-145" font-family="Helvetica,sans-Serif" font-size="10.00">BPMN::Task</text>
<polyline fill="none" stroke="black" points="624.5,-138 698.5,-138 "/>
<text text-anchor="start" x="632.5" y="-126" font-family="Helvetica,sans-Serif" font-size="10.00">+ element</text>
<polyline fill="none" stroke="black" points="624.5,-119 698.5,-119 "/>
<text text-anchor="start" x="632.5" y="-107" font-family="Helvetica,sans-Serif" font-size="10.00">+ Task()</text>
</a>
</g>
</g>
<!-- Node1&#45;&gt;Node11 -->
<g id="edge10" class="edge">
<title>Node1&#45;&gt;Node11</title>
<path fill="none" stroke="midnightblue" d="M345.6,-227.04C427.9,-201.63 560.32,-160.74 624.4,-140.96"/>
<polygon fill="none" stroke="midnightblue" points="344.34,-223.77 335.82,-230.06 346.41,-230.46 344.34,-223.77"/>
</g>
<!-- Node2 -->
<g id="node2" class="node">
<title>Node2</title>
<g id="a_node2"><a xlink:href="classBPMN_1_1FlowNode.html" target="_top" xlink:title="Base class for BPMN elements that may contain incoming and outgoing sequence flows.">
<polygon fill="none" stroke="black" points="224,-337.5 224,-427.5 325,-427.5 325,-337.5 224,-337.5"/>
<text text-anchor="middle" x="274.5" y="-415.5" font-family="Helvetica,sans-Serif" font-size="10.00">BPMN::FlowNode</text>
<polyline fill="none" stroke="black" points="224,-408.5 325,-408.5 "/>
<text text-anchor="start" x="232" y="-396.5" font-family="Helvetica,sans-Serif" font-size="10.00">+ element</text>
<text text-anchor="start" x="232" y="-385.5" font-family="Helvetica,sans-Serif" font-size="10.00">+ name</text>
<text text-anchor="start" x="232" y="-374.5" font-family="Helvetica,sans-Serif" font-size="10.00">+ incoming</text>
<text text-anchor="start" x="232" y="-363.5" font-family="Helvetica,sans-Serif" font-size="10.00">+ outgoing</text>
<polyline fill="none" stroke="black" points="224,-356.5 325,-356.5 "/>
<text text-anchor="start" x="232" y="-344.5" font-family="Helvetica,sans-Serif" font-size="10.00">+ FlowNode()</text>
</a>
</g>
</g>
<!-- Node2&#45;&gt;Node1 -->
<g id="edge1" class="edge">
<title>Node2&#45;&gt;Node1</title>
<path fill="none" stroke="midnightblue" d="M274.5,-327.13C274.5,-318.31 274.5,-309.22 274.5,-300.52"/>
<polygon fill="none" stroke="midnightblue" points="271,-327.32 274.5,-337.32 278,-327.32 271,-327.32"/>
</g>
<!-- Node3 -->
<g id="node3" class="node">
<title>Node3</title>
<g id="a_node3"><a xlink:href="classBPMN_1_1ChildNode.html" target="_top" xlink:title="Base class for BPMN elements within a Scope.">
<polygon fill="none" stroke="black" points="223.5,-464.5 223.5,-521.5 325.5,-521.5 325.5,-464.5 223.5,-464.5"/>
<text text-anchor="middle" x="274.5" y="-509.5" font-family="Helvetica,sans-Serif" font-size="10.00">BPMN::ChildNode</text>
<polyline fill="none" stroke="black" points="223.5,-502.5 325.5,-502.5 "/>
<text text-anchor="start" x="231.5" y="-490.5" font-family="Helvetica,sans-Serif" font-size="10.00">+ parent</text>
<polyline fill="none" stroke="black" points="223.5,-483.5 325.5,-483.5 "/>
<text text-anchor="start" x="231.5" y="-471.5" font-family="Helvetica,sans-Serif" font-size="10.00">+ ChildNode()</text>
</a>
</g>
</g>
<!-- Node3&#45;&gt;Node2 -->
<g id="edge2" class="edge">
<title>Node3&#45;&gt;Node2</title>
<path fill="none" stroke="midnightblue" d="M274.5,-454.21C274.5,-445.61 274.5,-436.39 274.5,-427.55"/>
<polygon fill="none" stroke="midnightblue" points="271,-454.34 274.5,-464.34 278,-454.34 271,-454.34"/>
</g>
<!-- Node4 -->
<g id="node4" class="node">
<title>Node4</title>
<g id="a_node4"><a xlink:href="classBPMN_1_1Node.html" target="_top" xlink:title="Base class for all nodes in a BPMN model.">
<polygon fill="none" stroke="black" points="236,-558.5 236,-670.5 313,-670.5 313,-558.5 236,-558.5"/>
<text text-anchor="middle" x="274.5" y="-658.5" font-family="Helvetica,sans-Serif" font-size="10.00">BPMN::Node</text>
<polyline fill="none" stroke="black" points="236,-651.5 313,-651.5 "/>
<text text-anchor="start" x="244" y="-639.5" font-family="Helvetica,sans-Serif" font-size="10.00">+ receiving</text>
<text text-anchor="start" x="244" y="-628.5" font-family="Helvetica,sans-Serif" font-size="10.00">+ sending</text>
<polyline fill="none" stroke="black" points="236,-621.5 313,-621.5 "/>
<text text-anchor="start" x="244" y="-609.5" font-family="Helvetica,sans-Serif" font-size="10.00">+ Node()</text>
<text text-anchor="start" x="244" y="-598.5" font-family="Helvetica,sans-Serif" font-size="10.00">+ find()</text>
<text text-anchor="start" x="244" y="-587.5" font-family="Helvetica,sans-Serif" font-size="10.00">+ find()</text>
<text text-anchor="start" x="244" y="-576.5" font-family="Helvetica,sans-Serif" font-size="10.00">+ find_all()</text>
<text text-anchor="start" x="244" y="-565.5" font-family="Helvetica,sans-Serif" font-size="10.00">+ find_all()</text>
</a>
</g>
</g>
<!-- Node4&#45;&gt;Node3 -->
<g id="edge3" class="edge">
<title>Node4&#45;&gt;Node3</title>
<path fill="none" stroke="midnightblue" d="M274.5,-548.15C274.5,-538.82 274.5,-529.67 274.5,-521.63"/>
<polygon fill="none" stroke="midnightblue" points="271,-548.3 274.5,-558.3 278,-548.3 271,-548.3"/>
</g>
<!-- Node5 -->
<g id="node5" class="node">
<title>Node5</title>
<g id="a_node5"><a xlink:href="classBPMN_1_1BaseElement.html" target="_top" xlink:title="Base class for all core BPMN elements.">
<polygon fill="none" stroke="black" points="213.5,-707.5 213.5,-830.5 335.5,-830.5 335.5,-707.5 213.5,-707.5"/>
<text text-anchor="middle" x="274.5" y="-818.5" font-family="Helvetica,sans-Serif" font-size="10.00">BPMN::BaseElement</text>
<polyline fill="none" stroke="black" points="213.5,-811.5 335.5,-811.5 "/>
<text text-anchor="start" x="221.5" y="-799.5" font-family="Helvetica,sans-Serif" font-size="10.00">+ element</text>
<text text-anchor="start" x="221.5" y="-788.5" font-family="Helvetica,sans-Serif" font-size="10.00">+ id</text>
<text text-anchor="start" x="221.5" y="-777.5" font-family="Helvetica,sans-Serif" font-size="10.00">+ extensionElements</text>
<polyline fill="none" stroke="black" points="213.5,-770.5 335.5,-770.5 "/>
<text text-anchor="start" x="221.5" y="-758.5" font-family="Helvetica,sans-Serif" font-size="10.00">+ BaseElement()</text>
<text text-anchor="start" x="221.5" y="-747.5" font-family="Helvetica,sans-Serif" font-size="10.00">+ is()</text>
<text text-anchor="start" x="221.5" y="-736.5" font-family="Helvetica,sans-Serif" font-size="10.00">+ is()</text>
<text text-anchor="start" x="221.5" y="-725.5" font-family="Helvetica,sans-Serif" font-size="10.00">+ get()</text>
<text text-anchor="start" x="221.5" y="-714.5" font-family="Helvetica,sans-Serif" font-size="10.00">+ get()</text>
</a>
</g>
</g>
<!-- Node5&#45;&gt;Node4 -->
<g id="edge4" class="edge">
<title>Node5&#45;&gt;Node4</title>
<path fill="none" stroke="midnightblue" d="M274.5,-697.25C274.5,-688.29 274.5,-679.23 274.5,-670.56"/>
<polygon fill="none" stroke="midnightblue" points="271,-697.29 274.5,-707.29 278,-697.29 271,-697.29"/>
</g>
<!-- Node6 -->
<g id="node6" class="node">
<title>Node6</title>
<g id="a_node6"><a xlink:href="classBPMN_1_1Element.html" target="_top" xlink:title="Abstract base class for all elements in a BPMN model.">
<polygon fill="none" stroke="black" points="228.5,-867.5 228.5,-968.5 320.5,-968.5 320.5,-867.5 228.5,-867.5"/>
<text text-anchor="middle" x="274.5" y="-956.5" font-family="Helvetica,sans-Serif" font-size="10.00">BPMN::Element</text>
<polyline fill="none" stroke="black" points="228.5,-949.5 320.5,-949.5 "/>
<text text-anchor="middle" x="274.5" y="-937.5" font-family="Helvetica,sans-Serif" font-size="10.00"> </text>
<polyline fill="none" stroke="black" points="228.5,-930.5 320.5,-930.5 "/>
<text text-anchor="start" x="236.5" y="-918.5" font-family="Helvetica,sans-Serif" font-size="10.00">+ ~Element()</text>
<text text-anchor="start" x="236.5" y="-907.5" font-family="Helvetica,sans-Serif" font-size="10.00">+ represents()</text>
<text text-anchor="start" x="236.5" y="-896.5" font-family="Helvetica,sans-Serif" font-size="10.00">+ represents()</text>
<text text-anchor="start" x="236.5" y="-885.5" font-family="Helvetica,sans-Serif" font-size="10.00">+ as()</text>
<text text-anchor="start" x="236.5" y="-874.5" font-family="Helvetica,sans-Serif" font-size="10.00">+ as()</text>
</a>
</g>
</g>
<!-- Node6&#45;&gt;Node5 -->
<g id="edge5" class="edge">
<title>Node6&#45;&gt;Node5</title>
<path fill="none" stroke="midnightblue" d="M274.5,-857.14C274.5,-848.41 274.5,-839.42 274.5,-830.67"/>
<polygon fill="none" stroke="midnightblue" points="271,-857.23 274.5,-867.23 278,-857.23 271,-857.23"/>
</g>
<!-- Node10 -->
<g id="node10" class="node">
<title>Node10</title>
<g id="a_node10"><a xlink:href="classBPMN_1_1Transaction.html" target="_top" xlink:title=" ">
<polygon fill="none" stroke="black" points="132,-0.5 132,-57.5 239,-57.5 239,-0.5 132,-0.5"/>
<text text-anchor="middle" x="185.5" y="-45.5" font-family="Helvetica,sans-Serif" font-size="10.00">BPMN::Transaction</text>
<polyline fill="none" stroke="black" points="132,-38.5 239,-38.5 "/>
<text text-anchor="start" x="140" y="-26.5" font-family="Helvetica,sans-Serif" font-size="10.00">+ element</text>
<polyline fill="none" stroke="black" points="132,-19.5 239,-19.5 "/>
<text text-anchor="start" x="140" y="-7.5" font-family="Helvetica,sans-Serif" font-size="10.00">+ Transaction()</text>
</a>
</g>
</g>
<!-- Node9&#45;&gt;Node10 -->
<g id="edge9" class="edge">
<title>Node9&#45;&gt;Node10</title>
<path fill="none" stroke="midnightblue" d="M277.18,-88.81C261.01,-78.43 243.85,-67.43 228.8,-57.78"/>
<polygon fill="none" stroke="midnightblue" points="275.73,-92.04 286.04,-94.49 279.51,-86.15 275.73,-92.04"/>
</g>
<!-- Node12 -->
<g id="node12" class="node">
<title>Node12</title>
<g id="a_node12"><a xlink:href="classBPMN_1_1BusinessRuleTask.html" target="_top" xlink:title=" ">
<polygon fill="none" stroke="black" points="257,-0.5 257,-57.5 396,-57.5 396,-0.5 257,-0.5"/>
<text text-anchor="middle" x="326.5" y="-45.5" font-family="Helvetica,sans-Serif" font-size="10.00">BPMN::BusinessRuleTask</text>
<polyline fill="none" stroke="black" points="257,-38.5 396,-38.5 "/>
<text text-anchor="start" x="265" y="-26.5" font-family="Helvetica,sans-Serif" font-size="10.00">+ element</text>
<polyline fill="none" stroke="black" points="257,-19.5 396,-19.5 "/>
<text text-anchor="start" x="265" y="-7.5" font-family="Helvetica,sans-Serif" font-size="10.00">+ BusinessRuleTask()</text>
</a>
</g>
</g>
<!-- Node11&#45;&gt;Node12 -->
<g id="edge11" class="edge">
<title>Node11&#45;&gt;Node12</title>
<path fill="none" stroke="midnightblue" d="M614.51,-115.88C562.93,-102.86 477.82,-80.6 405.5,-58 402.44,-57.05 399.33,-56.05 396.19,-55.02"/>
<polygon fill="none" stroke="midnightblue" points="613.81,-119.31 624.36,-118.36 615.52,-112.52 613.81,-119.31"/>
</g>
<!-- Node13 -->
<g id="node13" class="node">
<title>Node13</title>
<g id="a_node13"><a xlink:href="classBPMN_1_1ManualTask.html" target="_top" xlink:title=" ">
<polygon fill="none" stroke="black" points="414.5,-0.5 414.5,-57.5 524.5,-57.5 524.5,-0.5 414.5,-0.5"/>
<text text-anchor="middle" x="469.5" y="-45.5" font-family="Helvetica,sans-Serif" font-size="10.00">BPMN::ManualTask</text>
<polyline fill="none" stroke="black" points="414.5,-38.5 524.5,-38.5 "/>
<text text-anchor="start" x="422.5" y="-26.5" font-family="Helvetica,sans-Serif" font-size="10.00">+ element</text>
<polyline fill="none" stroke="black" points="414.5,-19.5 524.5,-19.5 "/>
<text text-anchor="start" x="422.5" y="-7.5" font-family="Helvetica,sans-Serif" font-size="10.00">+ ManualTask()</text>
</a>
</g>
</g>
<!-- Node11&#45;&gt;Node13 -->
<g id="edge12" class="edge">
<title>Node11&#45;&gt;Node13</title>
<path fill="none" stroke="midnightblue" d="M615.45,-104.12C587.9,-90.13 552.75,-72.28 523.85,-57.6"/>
<polygon fill="none" stroke="midnightblue" points="613.98,-107.29 624.48,-108.7 617.15,-101.05 613.98,-107.29"/>
</g>
<!-- Node14 -->
<g id="node14" class="node">
<title>Node14</title>
<g id="a_node14"><a xlink:href="classBPMN_1_1ReceiveTask.html" target="_top" xlink:title=" ">
<polygon fill="none" stroke="black" points="543,-0.5 543,-57.5 656,-57.5 656,-0.5 543,-0.5"/>
<text text-anchor="middle" x="599.5" y="-45.5" font-family="Helvetica,sans-Serif" font-size="10.00">BPMN::ReceiveTask</text>
<polyline fill="none" stroke="black" points="543,-38.5 656,-38.5 "/>
<text text-anchor="start" x="551" y="-26.5" font-family="Helvetica,sans-Serif" font-size="10.00">+ element</text>
<polyline fill="none" stroke="black" points="543,-19.5 656,-19.5 "/>
<text text-anchor="start" x="551" y="-7.5" font-family="Helvetica,sans-Serif" font-size="10.00">+ ReceiveTask()</text>
</a>
</g>
</g>
<!-- Node11&#45;&gt;Node14 -->
<g id="edge13" class="edge">
<title>Node11&#45;&gt;Node14</title>
<path fill="none" stroke="midnightblue" d="M638.41,-91.19C631.38,-80.13 623.76,-68.15 617.14,-57.75"/>
<polygon fill="none" stroke="midnightblue" points="635.58,-93.26 643.9,-99.82 641.49,-89.5 635.58,-93.26"/>
</g>
<!-- Node15 -->
<g id="node15" class="node">
<title>Node15</title>
<g id="a_node15"><a xlink:href="classBPMN_1_1ScriptTask.html" target="_top" xlink:title=" ">
<polygon fill="none" stroke="black" points="674,-0.5 674,-57.5 775,-57.5 775,-0.5 674,-0.5"/>
<text text-anchor="middle" x="724.5" y="-45.5" font-family="Helvetica,sans-Serif" font-size="10.00">BPMN::ScriptTask</text>
<polyline fill="none" stroke="black" points="674,-38.5 775,-38.5 "/>
<text text-anchor="start" x="682" y="-26.5" font-family="Helvetica,sans-Serif" font-size="10.00">+ element</text>
<polyline fill="none" stroke="black" points="674,-19.5 775,-19.5 "/>
<text text-anchor="start" x="682" y="-7.5" font-family="Helvetica,sans-Serif" font-size="10.00">+ ScriptTask()</text>
</a>
</g>
</g>
<!-- Node11&#45;&gt;Node15 -->
<g id="edge14" class="edge">
<title>Node11&#45;&gt;Node15</title>
<path fill="none" stroke="midnightblue" d="M684.96,-91.19C692.11,-80.13 699.85,-68.15 706.57,-57.75"/>
<polygon fill="none" stroke="midnightblue" points="681.87,-89.52 679.38,-99.82 687.75,-93.32 681.87,-89.52"/>
</g>
<!-- Node16 -->
<g id="node16" class="node">
<title>Node16</title>
<g id="a_node16"><a xlink:href="classBPMN_1_1SendTask.html" target="_top" xlink:title=" ">
<polygon fill="none" stroke="black" points="793.5,-0.5 793.5,-57.5 891.5,-57.5 891.5,-0.5 793.5,-0.5"/>
<text text-anchor="middle" x="842.5" y="-45.5" font-family="Helvetica,sans-Serif" font-size="10.00">BPMN::SendTask</text>
<polyline fill="none" stroke="black" points="793.5,-38.5 891.5,-38.5 "/>
<text text-anchor="start" x="801.5" y="-26.5" font-family="Helvetica,sans-Serif" font-size="10.00">+ element</text>
<polyline fill="none" stroke="black" points="793.5,-19.5 891.5,-19.5 "/>
<text text-anchor="start" x="801.5" y="-7.5" font-family="Helvetica,sans-Serif" font-size="10.00">+ SendTask()</text>
</a>
</g>
</g>
<!-- Node11&#45;&gt;Node16 -->
<g id="edge15" class="edge">
<title>Node11&#45;&gt;Node16</title>
<path fill="none" stroke="midnightblue" d="M707.56,-102.69C733.82,-88.54 766.72,-70.82 793.46,-56.42"/>
<polygon fill="none" stroke="midnightblue" points="705.71,-99.71 698.56,-107.53 709.03,-105.87 705.71,-99.71"/>
</g>
<!-- Node17 -->
<g id="node17" class="node">
<title>Node17</title>
<g id="a_node17"><a xlink:href="classBPMN_1_1UntypedTask.html" target="_top" xlink:title=" ">
<polygon fill="none" stroke="black" points="910,-0.5 910,-57.5 1025,-57.5 1025,-0.5 910,-0.5"/>
<text text-anchor="middle" x="967.5" y="-45.5" font-family="Helvetica,sans-Serif" font-size="10.00">BPMN::UntypedTask</text>
<polyline fill="none" stroke="black" points="910,-38.5 1025,-38.5 "/>
<text text-anchor="middle" x="967.5" y="-26.5" font-family="Helvetica,sans-Serif" font-size="10.00"> </text>
<polyline fill="none" stroke="black" points="910,-19.5 1025,-19.5 "/>
<text text-anchor="start" x="918" y="-7.5" font-family="Helvetica,sans-Serif" font-size="10.00">+ UntypedTask()</text>
</a>
</g>
</g>
<!-- Node11&#45;&gt;Node17 -->
<g id="edge16" class="edge">
<title>Node11&#45;&gt;Node17</title>
<path fill="none" stroke="midnightblue" d="M708.67,-115.47C757.24,-102.69 834.88,-81.17 900.5,-58 903.59,-56.91 906.74,-55.75 909.92,-54.55"/>
<polygon fill="none" stroke="midnightblue" points="707.55,-112.15 698.76,-118.06 709.32,-118.92 707.55,-112.15"/>
</g>
<!-- Node18 -->
<g id="node18" class="node">
<title>Node18</title>
<g id="a_node18"><a xlink:href="classBPMN_1_1UserTask.html" target="_top" xlink:title=" ">
<polygon fill="none" stroke="black" points="1043.5,-0.5 1043.5,-57.5 1139.5,-57.5 1139.5,-0.5 1043.5,-0.5"/>
<text text-anchor="middle" x="1091.5" y="-45.5" font-family="Helvetica,sans-Serif" font-size="10.00">BPMN::UserTask</text>
<polyline fill="none" stroke="black" points="1043.5,-38.5 1139.5,-38.5 "/>
<text text-anchor="start" x="1051.5" y="-26.5" font-family="Helvetica,sans-Serif" font-size="10.00">+ element</text>
<polyline fill="none" stroke="black" points="1043.5,-19.5 1139.5,-19.5 "/>
<text text-anchor="start" x="1051.5" y="-7.5" font-family="Helvetica,sans-Serif" font-size="10.00">+ UserTask()</text>
</a>
</g>
</g>
<!-- Node11&#45;&gt;Node18 -->
<g id="edge17" class="edge">
<title>Node11&#45;&gt;Node18</title>
<path fill="none" stroke="midnightblue" d="M708.69,-122.88C780.49,-114.92 920.84,-95.72 1034.5,-58 1037.43,-57.03 1040.4,-55.93 1043.37,-54.75"/>
<polygon fill="none" stroke="midnightblue" points="708.17,-119.41 698.6,-123.97 708.92,-126.37 708.17,-119.41"/>
</g>
</g>
</svg>
