<?xml version="1.0" encoding="UTF-8" standalone="no"?>
<!DOCTYPE svg PUBLIC "-//W3C//DTD SVG 1.1//EN"
 "http://www.w3.org/Graphics/SVG/1.1/DTD/svg11.dtd">
<!-- Generated by graphviz version 2.43.0 (0)
 -->
<!-- Title: XML::bpmn::tChoreography Pages: 1 -->
<svg width="374pt" height="1070pt"
 viewBox="0.00 0.00 373.50 1070.00" xmlns="http://www.w3.org/2000/svg" xmlns:xlink="http://www.w3.org/1999/xlink">
<g id="graph0" class="graph" transform="scale(1 1) rotate(0) translate(4 1066)">
<title>XML::bpmn::tChoreography</title>
<!-- Node1 -->
<g id="node1" class="node">
<title>Node1</title>
<g id="a_node1"><a xlink:title=" ">
<polygon fill="#bfbfbf" stroke="black" points="93.5,-199.5 93.5,-267.5 242.5,-267.5 242.5,-199.5 93.5,-199.5"/>
<text text-anchor="middle" x="168" y="-255.5" font-family="Helvetica,sans-Serif" font-size="10.00">XML::bpmn::tChoreography</text>
<polyline fill="none" stroke="black" points="93.5,-248.5 242.5,-248.5 "/>
<text text-anchor="start" x="101.5" y="-236.5" font-family="Helvetica,sans-Serif" font-size="10.00">+ flowElement</text>
<text text-anchor="start" x="101.5" y="-225.5" font-family="Helvetica,sans-Serif" font-size="10.00">+ defaults</text>
<polyline fill="none" stroke="black" points="93.5,-218.5 242.5,-218.5 "/>
<text text-anchor="start" x="101.5" y="-206.5" font-family="Helvetica,sans-Serif" font-size="10.00"># tChoreography()</text>
</a>
</g>
</g>
<!-- Node6 -->
<g id="node6" class="node">
<title>Node6</title>
<g id="a_node6"><a xlink:href="classXML_1_1bpmn_1_1choreography.html" target="_top" xlink:title=" ">
<polygon fill="none" stroke="black" points="0,-100 0,-157 144,-157 144,-100 0,-100"/>
<text text-anchor="middle" x="72" y="-145" font-family="Helvetica,sans-Serif" font-size="10.00">XML::bpmn::choreography</text>
<polyline fill="none" stroke="black" points="0,-138 144,-138 "/>
<text text-anchor="start" x="8" y="-126" font-family="Helvetica,sans-Serif" font-size="10.00">+ defaults</text>
<polyline fill="none" stroke="black" points="0,-119 144,-119 "/>
<text text-anchor="start" x="8" y="-107" font-family="Helvetica,sans-Serif" font-size="10.00"># choreography()</text>
</a>
</g>
</g>
<!-- Node1&#45;&gt;Node6 -->
<g id="edge5" class="edge">
<title>Node1&#45;&gt;Node6</title>
<path fill="none" stroke="midnightblue" d="M130.09,-191.82C119.23,-180.17 107.64,-167.74 97.7,-157.08"/>
<polygon fill="none" stroke="midnightblue" points="127.72,-194.41 137.1,-199.34 132.84,-189.64 127.72,-194.41"/>
</g>
<!-- Node7 -->
<g id="node7" class="node">
<title>Node7</title>
<g id="a_node7"><a xlink:href="classXML_1_1bpmn_1_1tGlobalChoreographyTask.html" target="_top" xlink:title=" ">
<polygon fill="none" stroke="black" points="162.5,-94.5 162.5,-162.5 365.5,-162.5 365.5,-94.5 162.5,-94.5"/>
<text text-anchor="middle" x="264" y="-150.5" font-family="Helvetica,sans-Serif" font-size="10.00">XML::bpmn::tGlobalChoreographyTask</text>
<polyline fill="none" stroke="black" points="162.5,-143.5 365.5,-143.5 "/>
<text text-anchor="start" x="170.5" y="-131.5" font-family="Helvetica,sans-Serif" font-size="10.00">+ initiatingParticipantRef</text>
<text text-anchor="start" x="170.5" y="-120.5" font-family="Helvetica,sans-Serif" font-size="10.00">+ defaults</text>
<polyline fill="none" stroke="black" points="162.5,-113.5 365.5,-113.5 "/>
<text text-anchor="start" x="170.5" y="-101.5" font-family="Helvetica,sans-Serif" font-size="10.00"># tGlobalChoreographyTask()</text>
</a>
</g>
</g>
<!-- Node1&#45;&gt;Node7 -->
<g id="edge6" class="edge">
<title>Node1&#45;&gt;Node7</title>
<path fill="none" stroke="midnightblue" d="M205.73,-192.02C214.82,-182.27 224.42,-171.96 233.15,-162.59"/>
<polygon fill="none" stroke="midnightblue" points="203.16,-189.64 198.9,-199.34 208.28,-194.41 203.16,-189.64"/>
</g>
<!-- Node2 -->
<g id="node2" class="node">
<title>Node2</title>
<g id="a_node2"><a xlink:href="classXML_1_1bpmn_1_1tCollaboration.html" target="_top" xlink:title=" ">
<polygon fill="none" stroke="black" points="92,-304.5 92,-493.5 244,-493.5 244,-304.5 92,-304.5"/>
<text text-anchor="middle" x="168" y="-481.5" font-family="Helvetica,sans-Serif" font-size="10.00">XML::bpmn::tCollaboration</text>
<polyline fill="none" stroke="black" points="92,-474.5 244,-474.5 "/>
<text text-anchor="start" x="100" y="-462.5" font-family="Helvetica,sans-Serif" font-size="10.00">+ participant</text>
<text text-anchor="start" x="100" y="-451.5" font-family="Helvetica,sans-Serif" font-size="10.00">+ messageFlow</text>
<text text-anchor="start" x="100" y="-440.5" font-family="Helvetica,sans-Serif" font-size="10.00">+ artifact</text>
<text text-anchor="start" x="100" y="-429.5" font-family="Helvetica,sans-Serif" font-size="10.00">+ conversationNode</text>
<text text-anchor="start" x="100" y="-418.5" font-family="Helvetica,sans-Serif" font-size="10.00">+ conversationAssociation</text>
<text text-anchor="start" x="100" y="-407.5" font-family="Helvetica,sans-Serif" font-size="10.00">+ participantAssociation</text>
<text text-anchor="start" x="100" y="-396.5" font-family="Helvetica,sans-Serif" font-size="10.00">+ messageFlowAssociation</text>
<text text-anchor="start" x="100" y="-385.5" font-family="Helvetica,sans-Serif" font-size="10.00">+ correlationKey</text>
<text text-anchor="start" x="100" y="-374.5" font-family="Helvetica,sans-Serif" font-size="10.00">+ choreographyRef</text>
<text text-anchor="start" x="100" y="-363.5" font-family="Helvetica,sans-Serif" font-size="10.00">+ conversationLink</text>
<text text-anchor="start" x="100" y="-352.5" font-family="Helvetica,sans-Serif" font-size="10.00">+ name</text>
<text text-anchor="start" x="100" y="-341.5" font-family="Helvetica,sans-Serif" font-size="10.00">+ isClosed</text>
<text text-anchor="start" x="100" y="-330.5" font-family="Helvetica,sans-Serif" font-size="10.00">+ defaults</text>
<polyline fill="none" stroke="black" points="92,-323.5 244,-323.5 "/>
<text text-anchor="start" x="100" y="-311.5" font-family="Helvetica,sans-Serif" font-size="10.00"># tCollaboration()</text>
</a>
</g>
</g>
<!-- Node2&#45;&gt;Node1 -->
<g id="edge1" class="edge">
<title>Node2&#45;&gt;Node1</title>
<path fill="none" stroke="midnightblue" d="M168,-294.27C168,-284.75 168,-275.67 168,-267.58"/>
<polygon fill="none" stroke="midnightblue" points="164.5,-294.31 168,-304.31 171.5,-294.31 164.5,-294.31"/>
</g>
<!-- Node3 -->
<g id="node3" class="node">
<title>Node3</title>
<g id="a_node3"><a xlink:href="classXML_1_1bpmn_1_1tRootElement.html" target="_top" xlink:title=" ">
<polygon fill="none" stroke="black" points="96,-530.5 96,-587.5 240,-587.5 240,-530.5 96,-530.5"/>
<text text-anchor="middle" x="168" y="-575.5" font-family="Helvetica,sans-Serif" font-size="10.00">XML::bpmn::tRootElement</text>
<polyline fill="none" stroke="black" points="96,-568.5 240,-568.5 "/>
<text text-anchor="start" x="104" y="-556.5" font-family="Helvetica,sans-Serif" font-size="10.00">+ defaults</text>
<polyline fill="none" stroke="black" points="96,-549.5 240,-549.5 "/>
<text text-anchor="start" x="104" y="-537.5" font-family="Helvetica,sans-Serif" font-size="10.00"># tRootElement()</text>
</a>
</g>
</g>
<!-- Node3&#45;&gt;Node2 -->
<g id="edge2" class="edge">
<title>Node3&#45;&gt;Node2</title>
<path fill="none" stroke="midnightblue" d="M168,-520.22C168,-512.01 168,-502.99 168,-493.68"/>
<polygon fill="none" stroke="midnightblue" points="164.5,-520.48 168,-530.48 171.5,-520.48 164.5,-520.48"/>
</g>
<!-- Node4 -->
<g id="node4" class="node">
<title>Node4</title>
<g id="a_node4"><a xlink:href="classXML_1_1bpmn_1_1tBaseElement.html" target="_top" xlink:title=" ">
<polygon fill="none" stroke="black" points="95,-624.5 95,-714.5 241,-714.5 241,-624.5 95,-624.5"/>
<text text-anchor="middle" x="168" y="-702.5" font-family="Helvetica,sans-Serif" font-size="10.00">XML::bpmn::tBaseElement</text>
<polyline fill="none" stroke="black" points="95,-695.5 241,-695.5 "/>
<text text-anchor="start" x="103" y="-683.5" font-family="Helvetica,sans-Serif" font-size="10.00">+ documentation</text>
<text text-anchor="start" x="103" y="-672.5" font-family="Helvetica,sans-Serif" font-size="10.00">+ extensionElements</text>
<text text-anchor="start" x="103" y="-661.5" font-family="Helvetica,sans-Serif" font-size="10.00">+ id</text>
<text text-anchor="start" x="103" y="-650.5" font-family="Helvetica,sans-Serif" font-size="10.00">+ defaults</text>
<polyline fill="none" stroke="black" points="95,-643.5 241,-643.5 "/>
<text text-anchor="start" x="103" y="-631.5" font-family="Helvetica,sans-Serif" font-size="10.00"># tBaseElement()</text>
</a>
</g>
</g>
<!-- Node4&#45;&gt;Node3 -->
<g id="edge3" class="edge">
<title>Node4&#45;&gt;Node3</title>
<path fill="none" stroke="midnightblue" d="M168,-614.35C168,-605.07 168,-595.79 168,-587.59"/>
<polygon fill="none" stroke="midnightblue" points="164.5,-614.37 168,-624.37 171.5,-614.37 164.5,-614.37"/>
</g>
<!-- Node5 -->
<g id="node5" class="node">
<title>Node5</title>
<g id="a_node5"><a xlink:href="classXML_1_1XMLObject.html" target="_top" xlink:title="A class representing a node in an XML&#45;tree.">
<polygon fill="none" stroke="black" points="105,-751.5 105,-1061.5 231,-1061.5 231,-751.5 105,-751.5"/>
<text text-anchor="middle" x="168" y="-1049.5" font-family="Helvetica,sans-Serif" font-size="10.00">XML::XMLObject</text>
<polyline fill="none" stroke="black" points="105,-1042.5 231,-1042.5 "/>
<text text-anchor="start" x="113" y="-1030.5" font-family="Helvetica,sans-Serif" font-size="10.00">+ xmlns</text>
<text text-anchor="start" x="113" y="-1019.5" font-family="Helvetica,sans-Serif" font-size="10.00">+ className</text>
<text text-anchor="start" x="113" y="-1008.5" font-family="Helvetica,sans-Serif" font-size="10.00">+ prefix</text>
<text text-anchor="start" x="113" y="-997.5" font-family="Helvetica,sans-Serif" font-size="10.00">+ elementName</text>
<text text-anchor="start" x="113" y="-986.5" font-family="Helvetica,sans-Serif" font-size="10.00">+ textContent</text>
<text text-anchor="start" x="113" y="-975.5" font-family="Helvetica,sans-Serif" font-size="10.00">+ children</text>
<text text-anchor="start" x="113" y="-964.5" font-family="Helvetica,sans-Serif" font-size="10.00">+ attributes</text>
<text text-anchor="start" x="113" y="-953.5" font-family="Helvetica,sans-Serif" font-size="10.00">+ defaults</text>
<text text-anchor="start" x="113" y="-942.5" font-family="Helvetica,sans-Serif" font-size="10.00"># factory</text>
<polyline fill="none" stroke="black" points="105,-935.5 231,-935.5 "/>
<text text-anchor="start" x="113" y="-923.5" font-family="Helvetica,sans-Serif" font-size="10.00">+ ~XMLObject()</text>
<text text-anchor="start" x="113" y="-912.5" font-family="Helvetica,sans-Serif" font-size="10.00">+ is()</text>
<text text-anchor="start" x="113" y="-901.5" font-family="Helvetica,sans-Serif" font-size="10.00">+ is()</text>
<text text-anchor="start" x="113" y="-890.5" font-family="Helvetica,sans-Serif" font-size="10.00">+ get()</text>
<text text-anchor="start" x="113" y="-879.5" font-family="Helvetica,sans-Serif" font-size="10.00">+ get()</text>
<text text-anchor="start" x="113" y="-868.5" font-family="Helvetica,sans-Serif" font-size="10.00">+ find()</text>
<text text-anchor="start" x="113" y="-857.5" font-family="Helvetica,sans-Serif" font-size="10.00">+ find()</text>
<text text-anchor="start" x="113" y="-846.5" font-family="Helvetica,sans-Serif" font-size="10.00">+ stringify()</text>
<text text-anchor="start" x="113" y="-835.5" font-family="Helvetica,sans-Serif" font-size="10.00">+ getRequiredChild()</text>
<text text-anchor="start" x="113" y="-824.5" font-family="Helvetica,sans-Serif" font-size="10.00">+ getOptionalChild()</text>
<text text-anchor="start" x="113" y="-813.5" font-family="Helvetica,sans-Serif" font-size="10.00">and 6 more...</text>
<text text-anchor="start" x="113" y="-802.5" font-family="Helvetica,sans-Serif" font-size="10.00">+ createFromStream()</text>
<text text-anchor="start" x="113" y="-791.5" font-family="Helvetica,sans-Serif" font-size="10.00">+ createFromString()</text>
<text text-anchor="start" x="113" y="-780.5" font-family="Helvetica,sans-Serif" font-size="10.00">+ createFromFile()</text>
<text text-anchor="start" x="113" y="-769.5" font-family="Helvetica,sans-Serif" font-size="10.00"># XMLObject()</text>
<text text-anchor="start" x="113" y="-758.5" font-family="Helvetica,sans-Serif" font-size="10.00"># createObject()</text>
</a>
</g>
</g>
<!-- Node5&#45;&gt;Node4 -->
<g id="edge4" class="edge">
<title>Node5&#45;&gt;Node4</title>
<path fill="none" stroke="midnightblue" d="M168,-741.35C168,-731.89 168,-722.91 168,-714.72"/>
<polygon fill="none" stroke="midnightblue" points="164.5,-741.37 168,-751.37 171.5,-741.37 164.5,-741.37"/>
</g>
<!-- Node8 -->
<g id="node8" class="node">
<title>Node8</title>
<g id="a_node8"><a xlink:href="classXML_1_1bpmn_1_1globalChoreographyTask.html" target="_top" xlink:title=" ">
<polygon fill="none" stroke="black" points="165.5,-0.5 165.5,-57.5 362.5,-57.5 362.5,-0.5 165.5,-0.5"/>
<text text-anchor="middle" x="264" y="-45.5" font-family="Helvetica,sans-Serif" font-size="10.00">XML::bpmn::globalChoreographyTask</text>
<polyline fill="none" stroke="black" points="165.5,-38.5 362.5,-38.5 "/>
<text text-anchor="start" x="173.5" y="-26.5" font-family="Helvetica,sans-Serif" font-size="10.00">+ defaults</text>
<polyline fill="none" stroke="black" points="165.5,-19.5 362.5,-19.5 "/>
<text text-anchor="start" x="173.5" y="-7.5" font-family="Helvetica,sans-Serif" font-size="10.00"># globalChoreographyTask()</text>
</a>
</g>
</g>
<!-- Node7&#45;&gt;Node8 -->
<g id="edge7" class="edge">
<title>Node7&#45;&gt;Node8</title>
<path fill="none" stroke="midnightblue" d="M264,-84.45C264,-75.4 264,-66.09 264,-57.78"/>
<polygon fill="none" stroke="midnightblue" points="260.5,-84.49 264,-94.49 267.5,-84.49 260.5,-84.49"/>
</g>
</g>
</svg>
