<?xml version="1.0" encoding="UTF-8" standalone="no"?>
<!DOCTYPE svg PUBLIC "-//W3C//DTD SVG 1.1//EN"
 "http://www.w3.org/Graphics/SVG/1.1/DTD/svg11.dtd">
<!-- Generated by graphviz version 14.1.2 (0)
 -->
<!-- Title: XML::bpmn::tGlobalTask Pages: 1 -->
<svg width="814pt" height="1220pt"
 viewBox="0.00 0.00 814.00 1220.00" xmlns="http://www.w3.org/2000/svg" xmlns:xlink="http://www.w3.org/1999/xlink">
<g id="graph0" class="graph" transform="scale(1 1) rotate(0) translate(4 1215.5)">
<title>XML::bpmn::tGlobalTask</title>
<!-- Node1 -->
<g id="Node000001" class="node">
<title>Node1</title>
<g id="a_Node000001"><a xlink:title=" ">
<polygon fill="#999999" stroke="none" points="450.12,-297.75 324.38,-297.75 324.38,-226.75 450.12,-226.75 450.12,-297.75"/>
<text xml:space="preserve" text-anchor="start" x="328.38" y="-284.25" font-family="Helvetica,sans-Serif" font-size="10.00">XML::bpmn::tGlobalTask</text>
<text xml:space="preserve" text-anchor="start" x="338.62" y="-267.5" font-family="Helvetica,sans-Serif" font-size="10.00">+</text>
<text xml:space="preserve" text-anchor="start" x="361.12" y="-267.5" font-family="Helvetica,sans-Serif" font-size="10.00">resourceRole</text>
<text xml:space="preserve" text-anchor="start" x="338.62" y="-250.75" font-family="Helvetica,sans-Serif" font-size="10.00">+</text>
<text xml:space="preserve" text-anchor="start" x="361.12" y="-250.75" font-family="Helvetica,sans-Serif" font-size="10.00">defaults</text>
<text xml:space="preserve" text-anchor="start" x="338.62" y="-234" font-family="Helvetica,sans-Serif" font-size="10.00">#</text>
<text xml:space="preserve" text-anchor="start" x="361.12" y="-234" font-family="Helvetica,sans-Serif" font-size="10.00">tGlobalTask()</text>
<polygon fill="#666666" stroke="#666666" points="324.38,-279 324.38,-279 450.12,-279 450.12,-279 324.38,-279"/>
<polygon fill="#666666" stroke="#666666" points="324.38,-245.5 324.38,-245.5 359.12,-245.5 359.12,-245.5 324.38,-245.5"/>
<polygon fill="#666666" stroke="#666666" points="359.12,-245.5 359.12,-245.5 450.12,-245.5 450.12,-245.5 359.12,-245.5"/>
<polygon fill="none" stroke="#666666" points="324.38,-226.75 324.38,-297.75 450.12,-297.75 450.12,-226.75 324.38,-226.75"/>
</a>
</g>
</g>
<!-- Node6 -->
<g id="Node000006" class="node">
<title>Node6</title>
<g id="a_Node000006"><a xlink:href="classXML_1_1bpmn_1_1globalTask.html" target="_top" xlink:title=" ">
<polygon fill="white" stroke="none" points="120.5,-174 0,-174 0,-119.75 120.5,-119.75 120.5,-174"/>
<text xml:space="preserve" text-anchor="start" x="4" y="-160.5" font-family="Helvetica,sans-Serif" font-size="10.00">XML::bpmn::globalTask</text>
<text xml:space="preserve" text-anchor="start" x="14.25" y="-143.75" font-family="Helvetica,sans-Serif" font-size="10.00">+</text>
<text xml:space="preserve" text-anchor="start" x="36.75" y="-143.75" font-family="Helvetica,sans-Serif" font-size="10.00">defaults</text>
<text xml:space="preserve" text-anchor="start" x="14.25" y="-127" font-family="Helvetica,sans-Serif" font-size="10.00">#</text>
<text xml:space="preserve" text-anchor="start" x="36.75" y="-127" font-family="Helvetica,sans-Serif" font-size="10.00">globalTask()</text>
<polygon fill="#666666" stroke="#666666" points="0,-155.25 0,-155.25 120.5,-155.25 120.5,-155.25 0,-155.25"/>
<polygon fill="#666666" stroke="#666666" points="0,-138.5 0,-138.5 34.75,-138.5 34.75,-138.5 0,-138.5"/>
<polygon fill="#666666" stroke="#666666" points="34.75,-138.5 34.75,-138.5 120.5,-138.5 120.5,-138.5 34.75,-138.5"/>
<polygon fill="none" stroke="#666666" points="0,-119.75 0,-174 120.5,-174 120.5,-119.75 0,-119.75"/>
</a>
</g>
</g>
<!-- Node1&#45;&gt;Node6 -->
<g id="edge5_Node000001_Node000006" class="edge">
<title>Node1&#45;&gt;Node6</title>
<g id="a_edge5_Node000001_Node000006"><a xlink:title=" ">
<path fill="none" stroke="#63b8ff" d="M313.61,-247.08C260.93,-235.53 189.05,-216.84 129.25,-190.75 118.65,-186.13 107.76,-180.06 97.86,-173.96"/>
<polygon fill="none" stroke="#63b8ff" points="312.56,-250.43 323.07,-249.12 314.03,-243.59 312.56,-250.43"/>
</a>
</g>
</g>
<!-- Node7 -->
<g id="Node000007" class="node">
<title>Node7</title>
<g id="a_Node000007"><a xlink:href="classXML_1_1bpmn_1_1tGlobalBusinessRuleTask.html" target="_top" xlink:title=" ">
<polygon fill="white" stroke="none" points="288.25,-188.75 138.25,-188.75 138.25,-105 288.25,-105 288.25,-188.75"/>
<text xml:space="preserve" text-anchor="start" x="143.5" y="-175.25" font-family="Helvetica,sans-Serif" font-size="10.00">XML::bpmn::tGlobalBusiness</text>
<text xml:space="preserve" text-anchor="start" x="191.5" y="-162.5" font-family="Helvetica,sans-Serif" font-size="10.00">RuleTask</text>
<text xml:space="preserve" text-anchor="start" x="142.25" y="-145.75" font-family="Helvetica,sans-Serif" font-size="10.00">+</text>
<text xml:space="preserve" text-anchor="start" x="154.5" y="-145.75" font-family="Helvetica,sans-Serif" font-size="10.00">implementation</text>
<text xml:space="preserve" text-anchor="start" x="142.25" y="-129" font-family="Helvetica,sans-Serif" font-size="10.00">+</text>
<text xml:space="preserve" text-anchor="start" x="154.5" y="-129" font-family="Helvetica,sans-Serif" font-size="10.00">defaults</text>
<text xml:space="preserve" text-anchor="start" x="142.25" y="-112.25" font-family="Helvetica,sans-Serif" font-size="10.00">#</text>
<text xml:space="preserve" text-anchor="start" x="154.5" y="-112.25" font-family="Helvetica,sans-Serif" font-size="10.00">tGlobalBusinessRuleTask()</text>
<polygon fill="#666666" stroke="#666666" points="138.25,-157.25 138.25,-157.25 288.25,-157.25 288.25,-157.25 138.25,-157.25"/>
<polygon fill="#666666" stroke="#666666" points="138.25,-123.75 138.25,-123.75 152.5,-123.75 152.5,-123.75 138.25,-123.75"/>
<polygon fill="#666666" stroke="#666666" points="152.5,-123.75 152.5,-123.75 288.25,-123.75 288.25,-123.75 152.5,-123.75"/>
<polygon fill="none" stroke="#666666" points="138.25,-105 138.25,-188.75 288.25,-188.75 288.25,-105 138.25,-105"/>
</a>
</g>
</g>
<!-- Node1&#45;&gt;Node7 -->
<g id="edge6_Node000001_Node000007" class="edge">
<title>Node1&#45;&gt;Node7</title>
<g id="a_edge6_Node000001_Node000007"><a xlink:title=" ">
<path fill="none" stroke="#63b8ff" d="M325.28,-220.87C309.23,-210.42 291.94,-199.15 275.86,-188.67"/>
<polygon fill="none" stroke="#63b8ff" points="323.01,-223.57 333.3,-226.1 326.84,-217.71 323.01,-223.57"/>
</a>
</g>
</g>
<!-- Node9 -->
<g id="Node000009" class="node">
<title>Node9</title>
<g id="a_Node000009"><a xlink:href="classXML_1_1bpmn_1_1tGlobalManualTask.html" target="_top" xlink:title=" ">
<polygon fill="white" stroke="none" points="468.12,-174 306.38,-174 306.38,-119.75 468.12,-119.75 468.12,-174"/>
<text xml:space="preserve" text-anchor="start" x="310.38" y="-160.5" font-family="Helvetica,sans-Serif" font-size="10.00">XML::bpmn::tGlobalManualTask</text>
<text xml:space="preserve" text-anchor="start" x="320.62" y="-143.75" font-family="Helvetica,sans-Serif" font-size="10.00">+</text>
<text xml:space="preserve" text-anchor="start" x="343.12" y="-143.75" font-family="Helvetica,sans-Serif" font-size="10.00">defaults</text>
<text xml:space="preserve" text-anchor="start" x="320.62" y="-127" font-family="Helvetica,sans-Serif" font-size="10.00">#</text>
<text xml:space="preserve" text-anchor="start" x="343.12" y="-127" font-family="Helvetica,sans-Serif" font-size="10.00">tGlobalManualTask()</text>
<polygon fill="#666666" stroke="#666666" points="306.38,-155.25 306.38,-155.25 468.12,-155.25 468.12,-155.25 306.38,-155.25"/>
<polygon fill="#666666" stroke="#666666" points="306.38,-138.5 306.38,-138.5 341.12,-138.5 341.12,-138.5 306.38,-138.5"/>
<polygon fill="#666666" stroke="#666666" points="341.12,-138.5 341.12,-138.5 468.12,-138.5 468.12,-138.5 341.12,-138.5"/>
<polygon fill="none" stroke="#666666" points="306.38,-119.75 306.38,-174 468.12,-174 468.12,-119.75 306.38,-119.75"/>
</a>
</g>
</g>
<!-- Node1&#45;&gt;Node9 -->
<g id="edge8_Node000001_Node000009" class="edge">
<title>Node1&#45;&gt;Node9</title>
<g id="a_edge8_Node000001_Node000009"><a xlink:title=" ">
<path fill="none" stroke="#63b8ff" d="M387.25,-215.76C387.25,-201.49 387.25,-186.23 387.25,-173.8"/>
<polygon fill="none" stroke="#63b8ff" points="383.75,-215.41 387.25,-225.41 390.75,-215.41 383.75,-215.41"/>
</a>
</g>
</g>
<!-- Node11 -->
<g id="Node000011" class="node">
<title>Node11</title>
<g id="a_Node000011"><a xlink:href="classXML_1_1bpmn_1_1tGlobalScriptTask.html" target="_top" xlink:title=" ">
<polygon fill="white" stroke="none" points="640,-190.75 486.5,-190.75 486.5,-103 640,-103 640,-190.75"/>
<text xml:space="preserve" text-anchor="start" x="490.5" y="-177.25" font-family="Helvetica,sans-Serif" font-size="10.00">XML::bpmn::tGlobalScriptTask</text>
<text xml:space="preserve" text-anchor="start" x="500.75" y="-160.5" font-family="Helvetica,sans-Serif" font-size="10.00">+</text>
<text xml:space="preserve" text-anchor="start" x="523.25" y="-160.5" font-family="Helvetica,sans-Serif" font-size="10.00">script</text>
<text xml:space="preserve" text-anchor="start" x="500.75" y="-143.75" font-family="Helvetica,sans-Serif" font-size="10.00">+</text>
<text xml:space="preserve" text-anchor="start" x="523.25" y="-143.75" font-family="Helvetica,sans-Serif" font-size="10.00">scriptLanguage</text>
<text xml:space="preserve" text-anchor="start" x="500.75" y="-127" font-family="Helvetica,sans-Serif" font-size="10.00">+</text>
<text xml:space="preserve" text-anchor="start" x="523.25" y="-127" font-family="Helvetica,sans-Serif" font-size="10.00">defaults</text>
<text xml:space="preserve" text-anchor="start" x="500.75" y="-110.25" font-family="Helvetica,sans-Serif" font-size="10.00">#</text>
<text xml:space="preserve" text-anchor="start" x="523.25" y="-110.25" font-family="Helvetica,sans-Serif" font-size="10.00">tGlobalScriptTask()</text>
<polygon fill="#666666" stroke="#666666" points="486.5,-172 486.5,-172 640,-172 640,-172 486.5,-172"/>
<polygon fill="#666666" stroke="#666666" points="486.5,-121.75 486.5,-121.75 521.25,-121.75 521.25,-121.75 486.5,-121.75"/>
<polygon fill="#666666" stroke="#666666" points="521.25,-121.75 521.25,-121.75 640,-121.75 640,-121.75 521.25,-121.75"/>
<polygon fill="none" stroke="#666666" points="486.5,-103 486.5,-190.75 640,-190.75 640,-103 486.5,-103"/>
</a>
</g>
</g>
<!-- Node1&#45;&gt;Node11 -->
<g id="edge10_Node000001_Node000011" class="edge">
<title>Node1&#45;&gt;Node11</title>
<g id="a_edge10_Node000001_Node000011"><a xlink:title=" ">
<path fill="none" stroke="#63b8ff" d="M449.84,-220.93C465.05,-211.13 481.37,-200.62 496.75,-190.71"/>
<polygon fill="none" stroke="#63b8ff" points="448.32,-217.75 441.81,-226.11 452.11,-223.63 448.32,-217.75"/>
</a>
</g>
</g>
<!-- Node13 -->
<g id="Node000013" class="node">
<title>Node13</title>
<g id="a_Node000013"><a xlink:href="classXML_1_1bpmn_1_1tGlobalUserTask.html" target="_top" xlink:title=" ">
<polygon fill="white" stroke="none" points="806.38,-190.75 658.12,-190.75 658.12,-103 806.38,-103 806.38,-190.75"/>
<text xml:space="preserve" text-anchor="start" x="662.12" y="-177.25" font-family="Helvetica,sans-Serif" font-size="10.00">XML::bpmn::tGlobalUserTask</text>
<text xml:space="preserve" text-anchor="start" x="672.38" y="-160.5" font-family="Helvetica,sans-Serif" font-size="10.00">+</text>
<text xml:space="preserve" text-anchor="start" x="694.88" y="-160.5" font-family="Helvetica,sans-Serif" font-size="10.00">rendering</text>
<text xml:space="preserve" text-anchor="start" x="672.38" y="-143.75" font-family="Helvetica,sans-Serif" font-size="10.00">+</text>
<text xml:space="preserve" text-anchor="start" x="694.88" y="-143.75" font-family="Helvetica,sans-Serif" font-size="10.00">implementation</text>
<text xml:space="preserve" text-anchor="start" x="672.38" y="-127" font-family="Helvetica,sans-Serif" font-size="10.00">+</text>
<text xml:space="preserve" text-anchor="start" x="694.88" y="-127" font-family="Helvetica,sans-Serif" font-size="10.00">defaults</text>
<text xml:space="preserve" text-anchor="start" x="672.38" y="-110.25" font-family="Helvetica,sans-Serif" font-size="10.00">#</text>
<text xml:space="preserve" text-anchor="start" x="694.88" y="-110.25" font-family="Helvetica,sans-Serif" font-size="10.00">tGlobalUserTask()</text>
<polygon fill="#666666" stroke="#666666" points="658.12,-172 658.12,-172 806.38,-172 806.38,-172 658.12,-172"/>
<polygon fill="#666666" stroke="#666666" points="658.12,-121.75 658.12,-121.75 692.88,-121.75 692.88,-121.75 658.12,-121.75"/>
<polygon fill="#666666" stroke="#666666" points="692.88,-121.75 692.88,-121.75 806.38,-121.75 806.38,-121.75 692.88,-121.75"/>
<polygon fill="none" stroke="#666666" points="658.12,-103 658.12,-190.75 806.38,-190.75 806.38,-103 658.12,-103"/>
</a>
</g>
</g>
<!-- Node1&#45;&gt;Node13 -->
<g id="edge12_Node000001_Node000013" class="edge">
<title>Node1&#45;&gt;Node13</title>
<g id="a_edge12_Node000001_Node000013"><a xlink:title=" ">
<path fill="none" stroke="#63b8ff" d="M461.17,-245.82C514.4,-233.64 587.44,-214.71 649.25,-190.75 652.27,-189.58 655.33,-188.33 658.4,-187.02"/>
<polygon fill="none" stroke="#63b8ff" points="460.58,-242.36 451.6,-247.98 462.12,-249.19 460.58,-242.36"/>
</a>
</g>
</g>
<!-- Node2 -->
<g id="Node000002" class="node">
<title>Node2</title>
<g id="a_Node000002"><a xlink:href="classXML_1_1bpmn_1_1tCallableElement.html" target="_top" xlink:title=" ">
<polygon fill="white" stroke="none" points="463.62,-455 310.88,-455 310.88,-333.75 463.62,-333.75 463.62,-455"/>
<text xml:space="preserve" text-anchor="start" x="314.88" y="-441.5" font-family="Helvetica,sans-Serif" font-size="10.00">XML::bpmn::tCallableElement</text>
<text xml:space="preserve" text-anchor="start" x="320.81" y="-424.75" font-family="Helvetica,sans-Serif" font-size="10.00">+</text>
<text xml:space="preserve" text-anchor="start" x="339" y="-424.75" font-family="Helvetica,sans-Serif" font-size="10.00">supportedInterfaceRef</text>
<text xml:space="preserve" text-anchor="start" x="320.81" y="-408" font-family="Helvetica,sans-Serif" font-size="10.00">+</text>
<text xml:space="preserve" text-anchor="start" x="339" y="-408" font-family="Helvetica,sans-Serif" font-size="10.00">ioSpecification</text>
<text xml:space="preserve" text-anchor="start" x="320.81" y="-391.25" font-family="Helvetica,sans-Serif" font-size="10.00">+</text>
<text xml:space="preserve" text-anchor="start" x="339" y="-391.25" font-family="Helvetica,sans-Serif" font-size="10.00">ioBinding</text>
<text xml:space="preserve" text-anchor="start" x="320.81" y="-374.5" font-family="Helvetica,sans-Serif" font-size="10.00">+</text>
<text xml:space="preserve" text-anchor="start" x="339" y="-374.5" font-family="Helvetica,sans-Serif" font-size="10.00">name</text>
<text xml:space="preserve" text-anchor="start" x="320.81" y="-357.75" font-family="Helvetica,sans-Serif" font-size="10.00">+</text>
<text xml:space="preserve" text-anchor="start" x="339" y="-357.75" font-family="Helvetica,sans-Serif" font-size="10.00">defaults</text>
<text xml:space="preserve" text-anchor="start" x="320.81" y="-341" font-family="Helvetica,sans-Serif" font-size="10.00">#</text>
<text xml:space="preserve" text-anchor="start" x="339" y="-341" font-family="Helvetica,sans-Serif" font-size="10.00">tCallableElement()</text>
<polygon fill="#666666" stroke="#666666" points="310.88,-436.25 310.88,-436.25 463.62,-436.25 463.62,-436.25 310.88,-436.25"/>
<polygon fill="#666666" stroke="#666666" points="310.88,-352.5 310.88,-352.5 337,-352.5 337,-352.5 310.88,-352.5"/>
<polygon fill="#666666" stroke="#666666" points="337,-352.5 337,-352.5 463.62,-352.5 463.62,-352.5 337,-352.5"/>
<polygon fill="none" stroke="#666666" points="310.88,-333.75 310.88,-455 463.62,-455 463.62,-333.75 310.88,-333.75"/>
</a>
</g>
</g>
<!-- Node2&#45;&gt;Node1 -->
<g id="edge1_Node000001_Node000002" class="edge">
<title>Node2&#45;&gt;Node1</title>
<g id="a_edge1_Node000001_Node000002"><a xlink:title=" ">
<path fill="none" stroke="#63b8ff" d="M387.25,-322.6C387.25,-313.93 387.25,-305.4 387.25,-297.63"/>
<polygon fill="none" stroke="#63b8ff" points="383.75,-322.51 387.25,-332.51 390.75,-322.51 383.75,-322.51"/>
</a>
</g>
</g>
<!-- Node3 -->
<g id="Node000003" class="node">
<title>Node3</title>
<g id="a_Node000003"><a xlink:href="classXML_1_1bpmn_1_1tRootElement.html" target="_top" xlink:title=" ">
<polygon fill="white" stroke="none" points="455,-545.25 319.5,-545.25 319.5,-491 455,-491 455,-545.25"/>
<text xml:space="preserve" text-anchor="start" x="323.5" y="-531.75" font-family="Helvetica,sans-Serif" font-size="10.00">XML::bpmn::tRootElement</text>
<text xml:space="preserve" text-anchor="start" x="333.75" y="-515" font-family="Helvetica,sans-Serif" font-size="10.00">+</text>
<text xml:space="preserve" text-anchor="start" x="356.25" y="-515" font-family="Helvetica,sans-Serif" font-size="10.00">defaults</text>
<text xml:space="preserve" text-anchor="start" x="333.75" y="-498.25" font-family="Helvetica,sans-Serif" font-size="10.00">#</text>
<text xml:space="preserve" text-anchor="start" x="356.25" y="-498.25" font-family="Helvetica,sans-Serif" font-size="10.00">tRootElement()</text>
<polygon fill="#666666" stroke="#666666" points="319.5,-526.5 319.5,-526.5 455,-526.5 455,-526.5 319.5,-526.5"/>
<polygon fill="#666666" stroke="#666666" points="319.5,-509.75 319.5,-509.75 354.25,-509.75 354.25,-509.75 319.5,-509.75"/>
<polygon fill="#666666" stroke="#666666" points="354.25,-509.75 354.25,-509.75 455,-509.75 455,-509.75 354.25,-509.75"/>
<polygon fill="none" stroke="#666666" points="319.5,-491 319.5,-545.25 455,-545.25 455,-491 319.5,-491"/>
</a>
</g>
</g>
<!-- Node3&#45;&gt;Node2 -->
<g id="edge2_Node000002_Node000003" class="edge">
<title>Node3&#45;&gt;Node2</title>
<g id="a_edge2_Node000002_Node000003"><a xlink:title=" ">
<path fill="none" stroke="#63b8ff" d="M387.25,-479.67C387.25,-471.83 387.25,-463.39 387.25,-454.97"/>
<polygon fill="none" stroke="#63b8ff" points="383.75,-479.49 387.25,-489.49 390.75,-479.49 383.75,-479.49"/>
</a>
</g>
</g>
<!-- Node4 -->
<g id="Node000004" class="node">
<title>Node4</title>
<g id="a_Node000004"><a xlink:href="classXML_1_1bpmn_1_1tBaseElement.html" target="_top" xlink:title=" ">
<polygon fill="white" stroke="none" points="455.75,-685.75 318.75,-685.75 318.75,-581.25 455.75,-581.25 455.75,-685.75"/>
<text xml:space="preserve" text-anchor="start" x="322.75" y="-672.25" font-family="Helvetica,sans-Serif" font-size="10.00">XML::bpmn::tBaseElement</text>
<text xml:space="preserve" text-anchor="start" x="328.5" y="-655.5" font-family="Helvetica,sans-Serif" font-size="10.00">+</text>
<text xml:space="preserve" text-anchor="start" x="346.5" y="-655.5" font-family="Helvetica,sans-Serif" font-size="10.00">documentation</text>
<text xml:space="preserve" text-anchor="start" x="328.5" y="-638.75" font-family="Helvetica,sans-Serif" font-size="10.00">+</text>
<text xml:space="preserve" text-anchor="start" x="346.5" y="-638.75" font-family="Helvetica,sans-Serif" font-size="10.00">extensionElements</text>
<text xml:space="preserve" text-anchor="start" x="328.5" y="-622" font-family="Helvetica,sans-Serif" font-size="10.00">+</text>
<text xml:space="preserve" text-anchor="start" x="346.5" y="-622" font-family="Helvetica,sans-Serif" font-size="10.00">id</text>
<text xml:space="preserve" text-anchor="start" x="328.5" y="-605.25" font-family="Helvetica,sans-Serif" font-size="10.00">+</text>
<text xml:space="preserve" text-anchor="start" x="346.5" y="-605.25" font-family="Helvetica,sans-Serif" font-size="10.00">defaults</text>
<text xml:space="preserve" text-anchor="start" x="328.5" y="-588.5" font-family="Helvetica,sans-Serif" font-size="10.00">#</text>
<text xml:space="preserve" text-anchor="start" x="346.5" y="-588.5" font-family="Helvetica,sans-Serif" font-size="10.00">tBaseElement()</text>
<polygon fill="#666666" stroke="#666666" points="318.75,-667 318.75,-667 455.75,-667 455.75,-667 318.75,-667"/>
<polygon fill="#666666" stroke="#666666" points="318.75,-600 318.75,-600 344.5,-600 344.5,-600 318.75,-600"/>
<polygon fill="#666666" stroke="#666666" points="344.5,-600 344.5,-600 455.75,-600 455.75,-600 344.5,-600"/>
<polygon fill="none" stroke="#666666" points="318.75,-581.25 318.75,-685.75 455.75,-685.75 455.75,-581.25 318.75,-581.25"/>
</a>
</g>
</g>
<!-- Node4&#45;&gt;Node3 -->
<g id="edge3_Node000003_Node000004" class="edge">
<title>Node4&#45;&gt;Node3</title>
<g id="a_edge3_Node000003_Node000004"><a xlink:title=" ">
<path fill="none" stroke="#63b8ff" d="M387.25,-570.22C387.25,-561.37 387.25,-552.71 387.25,-545.11"/>
<polygon fill="none" stroke="#63b8ff" points="383.75,-569.94 387.25,-579.94 390.75,-569.94 383.75,-569.94"/>
</a>
</g>
</g>
<!-- Node5 -->
<g id="Node000005" class="node">
<title>Node5</title>
<g id="a_Node000005"><a xlink:href="classXML_1_1XMLObject.html" target="_top" xlink:title="A class representing a node in an XML&#45;tree.">
<polygon fill="white" stroke="none" points="473.12,-1211.5 301.38,-1211.5 301.38,-721.75 473.12,-721.75 473.12,-1211.5"/>
<text xml:space="preserve" text-anchor="start" x="347.5" y="-1198" font-family="Helvetica,sans-Serif" font-size="10.00">XML::XMLObject</text>
<text xml:space="preserve" text-anchor="start" x="305.38" y="-1181.25" font-family="Helvetica,sans-Serif" font-size="10.00">+</text>
<text xml:space="preserve" text-anchor="start" x="317.62" y="-1181.25" font-family="Helvetica,sans-Serif" font-size="10.00">xmlns</text>
<text xml:space="preserve" text-anchor="start" x="305.38" y="-1164.5" font-family="Helvetica,sans-Serif" font-size="10.00">+</text>
<text xml:space="preserve" text-anchor="start" x="317.62" y="-1164.5" font-family="Helvetica,sans-Serif" font-size="10.00">className</text>
<text xml:space="preserve" text-anchor="start" x="305.38" y="-1147.75" font-family="Helvetica,sans-Serif" font-size="10.00">+</text>
<text xml:space="preserve" text-anchor="start" x="317.62" y="-1147.75" font-family="Helvetica,sans-Serif" font-size="10.00">prefix</text>
<text xml:space="preserve" text-anchor="start" x="305.38" y="-1131" font-family="Helvetica,sans-Serif" font-size="10.00">+</text>
<text xml:space="preserve" text-anchor="start" x="317.62" y="-1131" font-family="Helvetica,sans-Serif" font-size="10.00">elementName</text>
<text xml:space="preserve" text-anchor="start" x="305.38" y="-1114.25" font-family="Helvetica,sans-Serif" font-size="10.00">+</text>
<text xml:space="preserve" text-anchor="start" x="317.62" y="-1114.25" font-family="Helvetica,sans-Serif" font-size="10.00">textContent</text>
<text xml:space="preserve" text-anchor="start" x="305.38" y="-1097.5" font-family="Helvetica,sans-Serif" font-size="10.00">+</text>
<text xml:space="preserve" text-anchor="start" x="317.62" y="-1097.5" font-family="Helvetica,sans-Serif" font-size="10.00">children</text>
<text xml:space="preserve" text-anchor="start" x="305.38" y="-1080.75" font-family="Helvetica,sans-Serif" font-size="10.00">+</text>
<text xml:space="preserve" text-anchor="start" x="317.62" y="-1080.75" font-family="Helvetica,sans-Serif" font-size="10.00">attributes</text>
<text xml:space="preserve" text-anchor="start" x="305.38" y="-1064" font-family="Helvetica,sans-Serif" font-size="10.00">+</text>
<text xml:space="preserve" text-anchor="start" x="317.62" y="-1064" font-family="Helvetica,sans-Serif" font-size="10.00">defaults</text>
<text xml:space="preserve" text-anchor="start" x="305.38" y="-1047.25" font-family="Helvetica,sans-Serif" font-size="10.00">#</text>
<text xml:space="preserve" text-anchor="start" x="317.62" y="-1047.25" font-family="Helvetica,sans-Serif" font-size="10.00">factory</text>
<text xml:space="preserve" text-anchor="start" x="305.38" y="-1030.5" font-family="Helvetica,sans-Serif" font-size="10.00">+</text>
<text xml:space="preserve" text-anchor="start" x="317.62" y="-1030.5" font-family="Helvetica,sans-Serif" font-size="10.00">~XMLObject()</text>
<text xml:space="preserve" text-anchor="start" x="305.38" y="-1013.75" font-family="Helvetica,sans-Serif" font-size="10.00">+</text>
<text xml:space="preserve" text-anchor="start" x="317.62" y="-1013.75" font-family="Helvetica,sans-Serif" font-size="10.00">is()</text>
<text xml:space="preserve" text-anchor="start" x="305.38" y="-997" font-family="Helvetica,sans-Serif" font-size="10.00">+</text>
<text xml:space="preserve" text-anchor="start" x="317.62" y="-997" font-family="Helvetica,sans-Serif" font-size="10.00">get()</text>
<text xml:space="preserve" text-anchor="start" x="305.38" y="-980.25" font-family="Helvetica,sans-Serif" font-size="10.00">+</text>
<text xml:space="preserve" text-anchor="start" x="317.62" y="-980.25" font-family="Helvetica,sans-Serif" font-size="10.00">find()</text>
<text xml:space="preserve" text-anchor="start" x="305.38" y="-963.5" font-family="Helvetica,sans-Serif" font-size="10.00">+</text>
<text xml:space="preserve" text-anchor="start" x="317.62" y="-963.5" font-family="Helvetica,sans-Serif" font-size="10.00">stringify()</text>
<text xml:space="preserve" text-anchor="start" x="305.38" y="-946.75" font-family="Helvetica,sans-Serif" font-size="10.00">+</text>
<text xml:space="preserve" text-anchor="start" x="317.62" y="-946.75" font-family="Helvetica,sans-Serif" font-size="10.00">format()</text>
<text xml:space="preserve" text-anchor="start" x="305.38" y="-930" font-family="Helvetica,sans-Serif" font-size="10.00">+</text>
<text xml:space="preserve" text-anchor="start" x="317.62" y="-930" font-family="Helvetica,sans-Serif" font-size="10.00">getRequiredChild()</text>
<text xml:space="preserve" text-anchor="start" x="305.38" y="-913.25" font-family="Helvetica,sans-Serif" font-size="10.00">+</text>
<text xml:space="preserve" text-anchor="start" x="317.62" y="-913.25" font-family="Helvetica,sans-Serif" font-size="10.00">getOptionalChild()</text>
<text xml:space="preserve" text-anchor="start" x="305.38" y="-896.5" font-family="Helvetica,sans-Serif" font-size="10.00">+</text>
<text xml:space="preserve" text-anchor="start" x="317.62" y="-896.5" font-family="Helvetica,sans-Serif" font-size="10.00">getChildren()</text>
<text xml:space="preserve" text-anchor="start" x="305.38" y="-879.75" font-family="Helvetica,sans-Serif" font-size="10.00">+</text>
<text xml:space="preserve" text-anchor="start" x="317.62" y="-879.75" font-family="Helvetica,sans-Serif" font-size="10.00">getRequiredChildByName()</text>
<text xml:space="preserve" text-anchor="start" x="305.38" y="-863" font-family="Helvetica,sans-Serif" font-size="10.00">+</text>
<text xml:space="preserve" text-anchor="start" x="317.62" y="-863" font-family="Helvetica,sans-Serif" font-size="10.00">getOptionalChildByName()</text>
<text xml:space="preserve" text-anchor="start" x="305.38" y="-846.25" font-family="Helvetica,sans-Serif" font-size="10.00">+</text>
<text xml:space="preserve" text-anchor="start" x="317.62" y="-846.25" font-family="Helvetica,sans-Serif" font-size="10.00">getChildrenByName()</text>
<text xml:space="preserve" text-anchor="start" x="305.38" y="-829.5" font-family="Helvetica,sans-Serif" font-size="10.00">+</text>
<text xml:space="preserve" text-anchor="start" x="317.62" y="-829.5" font-family="Helvetica,sans-Serif" font-size="10.00">getRequiredAttributeByName()</text>
<text xml:space="preserve" text-anchor="start" x="305.38" y="-812.75" font-family="Helvetica,sans-Serif" font-size="10.00">+</text>
<text xml:space="preserve" text-anchor="start" x="317.62" y="-812.75" font-family="Helvetica,sans-Serif" font-size="10.00">getOptionalAttributeByName()</text>
<text xml:space="preserve" text-anchor="start" x="305.38" y="-796" font-family="Helvetica,sans-Serif" font-size="10.00">+</text>
<text xml:space="preserve" text-anchor="start" x="317.62" y="-796" font-family="Helvetica,sans-Serif" font-size="10.00">createFromStream()</text>
<text xml:space="preserve" text-anchor="start" x="305.38" y="-779.25" font-family="Helvetica,sans-Serif" font-size="10.00">+</text>
<text xml:space="preserve" text-anchor="start" x="317.62" y="-779.25" font-family="Helvetica,sans-Serif" font-size="10.00">createFromString()</text>
<text xml:space="preserve" text-anchor="start" x="305.38" y="-762.5" font-family="Helvetica,sans-Serif" font-size="10.00">+</text>
<text xml:space="preserve" text-anchor="start" x="317.62" y="-762.5" font-family="Helvetica,sans-Serif" font-size="10.00">createFromFile()</text>
<text xml:space="preserve" text-anchor="start" x="305.38" y="-745.75" font-family="Helvetica,sans-Serif" font-size="10.00">#</text>
<text xml:space="preserve" text-anchor="start" x="317.62" y="-745.75" font-family="Helvetica,sans-Serif" font-size="10.00">XMLObject()</text>
<text xml:space="preserve" text-anchor="start" x="305.38" y="-729" font-family="Helvetica,sans-Serif" font-size="10.00">#</text>
<text xml:space="preserve" text-anchor="start" x="317.62" y="-729" font-family="Helvetica,sans-Serif" font-size="10.00">createObject()</text>
<polygon fill="#666666" stroke="#666666" points="301.38,-1192.75 301.38,-1192.75 473.12,-1192.75 473.12,-1192.75 301.38,-1192.75"/>
<polygon fill="#666666" stroke="#666666" points="301.38,-1042 301.38,-1042 315.62,-1042 315.62,-1042 301.38,-1042"/>
<polygon fill="#666666" stroke="#666666" points="315.62,-1042 315.62,-1042 473.12,-1042 473.12,-1042 315.62,-1042"/>
<polygon fill="none" stroke="#666666" points="301.38,-721.75 301.38,-1211.5 473.12,-1211.5 473.12,-721.75 301.38,-721.75"/>
</a>
</g>
</g>
<!-- Node5&#45;&gt;Node4 -->
<g id="edge4_Node000004_Node000005" class="edge">
<title>Node5&#45;&gt;Node4</title>
<g id="a_edge4_Node000004_Node000005"><a xlink:title=" ">
<path fill="none" stroke="#63b8ff" d="M387.25,-710.68C387.25,-701.65 387.25,-693.13 387.25,-685.28"/>
<polygon fill="none" stroke="#63b8ff" points="383.75,-710.42 387.25,-720.42 390.75,-710.42 383.75,-710.42"/>
</a>
</g>
</g>
<!-- Node8 -->
<g id="Node000008" class="node">
<title>Node8</title>
<g id="a_Node000008"><a xlink:href="classXML_1_1bpmn_1_1globalBusinessRuleTask.html" target="_top" xlink:title=" ">
<polygon fill="white" stroke="none" points="285.62,-67 140.88,-67 140.88,0 285.62,0 285.62,-67"/>
<text xml:space="preserve" text-anchor="start" x="146.12" y="-53.5" font-family="Helvetica,sans-Serif" font-size="10.00">XML::bpmn::globalBusiness</text>
<text xml:space="preserve" text-anchor="start" x="191.5" y="-40.75" font-family="Helvetica,sans-Serif" font-size="10.00">RuleTask</text>
<text xml:space="preserve" text-anchor="start" x="144.88" y="-24" font-family="Helvetica,sans-Serif" font-size="10.00">+</text>
<text xml:space="preserve" text-anchor="start" x="157.12" y="-24" font-family="Helvetica,sans-Serif" font-size="10.00">defaults</text>
<text xml:space="preserve" text-anchor="start" x="144.88" y="-7.25" font-family="Helvetica,sans-Serif" font-size="10.00">#</text>
<text xml:space="preserve" text-anchor="start" x="157.12" y="-7.25" font-family="Helvetica,sans-Serif" font-size="10.00">globalBusinessRuleTask()</text>
<polygon fill="#666666" stroke="#666666" points="140.88,-35.5 140.88,-35.5 285.62,-35.5 285.62,-35.5 140.88,-35.5"/>
<polygon fill="#666666" stroke="#666666" points="140.88,-18.75 140.88,-18.75 155.12,-18.75 155.12,-18.75 140.88,-18.75"/>
<polygon fill="#666666" stroke="#666666" points="155.12,-18.75 155.12,-18.75 285.62,-18.75 285.62,-18.75 155.12,-18.75"/>
<polygon fill="none" stroke="#666666" points="140.88,0 140.88,-67 285.62,-67 285.62,0 140.88,0"/>
</a>
</g>
</g>
<!-- Node7&#45;&gt;Node8 -->
<g id="edge7_Node000007_Node000008" class="edge">
<title>Node7&#45;&gt;Node8</title>
<g id="a_edge7_Node000007_Node000008"><a xlink:title=" ">
<path fill="none" stroke="#63b8ff" d="M213.25,-93.65C213.25,-84.56 213.25,-75.34 213.25,-66.97"/>
<polygon fill="none" stroke="#63b8ff" points="209.75,-93.52 213.25,-103.52 216.75,-93.52 209.75,-93.52"/>
</a>
</g>
</g>
<!-- Node10 -->
<g id="Node000010" class="node">
<title>Node10</title>
<g id="a_Node000010"><a xlink:href="classXML_1_1bpmn_1_1globalManualTask.html" target="_top" xlink:title=" ">
<polygon fill="white" stroke="none" points="465.5,-60.62 309,-60.62 309,-6.38 465.5,-6.38 465.5,-60.62"/>
<text xml:space="preserve" text-anchor="start" x="313" y="-47.12" font-family="Helvetica,sans-Serif" font-size="10.00">XML::bpmn::globalManualTask</text>
<text xml:space="preserve" text-anchor="start" x="323.25" y="-30.38" font-family="Helvetica,sans-Serif" font-size="10.00">+</text>
<text xml:space="preserve" text-anchor="start" x="345.75" y="-30.38" font-family="Helvetica,sans-Serif" font-size="10.00">defaults</text>
<text xml:space="preserve" text-anchor="start" x="323.25" y="-13.62" font-family="Helvetica,sans-Serif" font-size="10.00">#</text>
<text xml:space="preserve" text-anchor="start" x="345.75" y="-13.62" font-family="Helvetica,sans-Serif" font-size="10.00">globalManualTask()</text>
<polygon fill="#666666" stroke="#666666" points="309,-41.88 309,-41.88 465.5,-41.88 465.5,-41.88 309,-41.88"/>
<polygon fill="#666666" stroke="#666666" points="309,-25.12 309,-25.12 343.75,-25.12 343.75,-25.12 309,-25.12"/>
<polygon fill="#666666" stroke="#666666" points="343.75,-25.12 343.75,-25.12 465.5,-25.12 465.5,-25.12 343.75,-25.12"/>
<polygon fill="none" stroke="#666666" points="309,-6.38 309,-60.62 465.5,-60.62 465.5,-6.38 309,-6.38"/>
</a>
</g>
</g>
<!-- Node9&#45;&gt;Node10 -->
<g id="edge9_Node000009_Node000010" class="edge">
<title>Node9&#45;&gt;Node10</title>
<g id="a_edge9_Node000009_Node000010"><a xlink:title=" ">
<path fill="none" stroke="#63b8ff" d="M387.25,-108.26C387.25,-92.54 387.25,-74.66 387.25,-60.45"/>
<polygon fill="none" stroke="#63b8ff" points="383.75,-108.25 387.25,-118.25 390.75,-108.25 383.75,-108.25"/>
</a>
</g>
</g>
<!-- Node12 -->
<g id="Node000012" class="node">
<title>Node12</title>
<g id="a_Node000012"><a xlink:href="classXML_1_1bpmn_1_1globalScriptTask.html" target="_top" xlink:title=" ">
<polygon fill="white" stroke="none" points="637.38,-60.62 489.12,-60.62 489.12,-6.38 637.38,-6.38 637.38,-60.62"/>
<text xml:space="preserve" text-anchor="start" x="493.12" y="-47.12" font-family="Helvetica,sans-Serif" font-size="10.00">XML::bpmn::globalScriptTask</text>
<text xml:space="preserve" text-anchor="start" x="503.38" y="-30.38" font-family="Helvetica,sans-Serif" font-size="10.00">+</text>
<text xml:space="preserve" text-anchor="start" x="525.88" y="-30.38" font-family="Helvetica,sans-Serif" font-size="10.00">defaults</text>
<text xml:space="preserve" text-anchor="start" x="503.38" y="-13.62" font-family="Helvetica,sans-Serif" font-size="10.00">#</text>
<text xml:space="preserve" text-anchor="start" x="525.88" y="-13.62" font-family="Helvetica,sans-Serif" font-size="10.00">globalScriptTask()</text>
<polygon fill="#666666" stroke="#666666" points="489.12,-41.88 489.12,-41.88 637.38,-41.88 637.38,-41.88 489.12,-41.88"/>
<polygon fill="#666666" stroke="#666666" points="489.12,-25.12 489.12,-25.12 523.88,-25.12 523.88,-25.12 489.12,-25.12"/>
<polygon fill="#666666" stroke="#666666" points="523.88,-25.12 523.88,-25.12 637.38,-25.12 637.38,-25.12 523.88,-25.12"/>
<polygon fill="none" stroke="#666666" points="489.12,-6.38 489.12,-60.62 637.38,-60.62 637.38,-6.38 489.12,-6.38"/>
</a>
</g>
</g>
<!-- Node11&#45;&gt;Node12 -->
<g id="edge11_Node000011_Node000012" class="edge">
<title>Node11&#45;&gt;Node12</title>
<g id="a_edge11_Node000011_Node000012"><a xlink:title=" ">
<path fill="none" stroke="#63b8ff" d="M563.25,-91.86C563.25,-80.94 563.25,-69.94 563.25,-60.53"/>
<polygon fill="none" stroke="#63b8ff" points="559.75,-91.62 563.25,-101.62 566.75,-91.62 559.75,-91.62"/>
</a>
</g>
</g>
<!-- Node14 -->
<g id="Node000014" class="node">
<title>Node14</title>
<g id="a_Node000014"><a xlink:href="classXML_1_1bpmn_1_1globalUserTask.html" target="_top" xlink:title=" ">
<polygon fill="white" stroke="none" points="803.75,-60.62 660.75,-60.62 660.75,-6.38 803.75,-6.38 803.75,-60.62"/>
<text xml:space="preserve" text-anchor="start" x="664.75" y="-47.12" font-family="Helvetica,sans-Serif" font-size="10.00">XML::bpmn::globalUserTask</text>
<text xml:space="preserve" text-anchor="start" x="675" y="-30.38" font-family="Helvetica,sans-Serif" font-size="10.00">+</text>
<text xml:space="preserve" text-anchor="start" x="697.5" y="-30.38" font-family="Helvetica,sans-Serif" font-size="10.00">defaults</text>
<text xml:space="preserve" text-anchor="start" x="675" y="-13.62" font-family="Helvetica,sans-Serif" font-size="10.00">#</text>
<text xml:space="preserve" text-anchor="start" x="697.5" y="-13.62" font-family="Helvetica,sans-Serif" font-size="10.00">globalUserTask()</text>
<polygon fill="#666666" stroke="#666666" points="660.75,-41.88 660.75,-41.88 803.75,-41.88 803.75,-41.88 660.75,-41.88"/>
<polygon fill="#666666" stroke="#666666" points="660.75,-25.12 660.75,-25.12 695.5,-25.12 695.5,-25.12 660.75,-25.12"/>
<polygon fill="#666666" stroke="#666666" points="695.5,-25.12 695.5,-25.12 803.75,-25.12 803.75,-25.12 695.5,-25.12"/>
<polygon fill="none" stroke="#666666" points="660.75,-6.38 660.75,-60.62 803.75,-60.62 803.75,-6.38 660.75,-6.38"/>
</a>
</g>
</g>
<!-- Node13&#45;&gt;Node14 -->
<g id="edge13_Node000013_Node000014" class="edge">
<title>Node13&#45;&gt;Node14</title>
<g id="a_edge13_Node000013_Node000014"><a xlink:title=" ">
<path fill="none" stroke="#63b8ff" d="M732.25,-91.86C732.25,-80.94 732.25,-69.94 732.25,-60.53"/>
<polygon fill="none" stroke="#63b8ff" points="728.75,-91.62 732.25,-101.62 735.75,-91.62 728.75,-91.62"/>
</a>
</g>
</g>
</g>
</svg>
