<?xml version="1.0" encoding="UTF-8" standalone="no"?>
<!DOCTYPE svg PUBLIC "-//W3C//DTD SVG 1.1//EN"
 "http://www.w3.org/Graphics/SVG/1.1/DTD/svg11.dtd">
<!-- Generated by graphviz version 2.43.0 (0)
 -->
<!-- Title: BPMN::Task Pages: 1 -->
<svg width="889pt" height="966pt"
 viewBox="0.00 0.00 889.00 966.00" xmlns="http://www.w3.org/2000/svg" xmlns:xlink="http://www.w3.org/1999/xlink">
<g id="graph0" class="graph" transform="scale(1 1) rotate(0) translate(4 962)">
<title>BPMN::Task</title>
<!-- Node1 -->
<g id="node1" class="node">
<title>Node1</title>
<g id="a_node1"><a xlink:title=" ">
<polygon fill="#bfbfbf" stroke="black" points="438,-94.5 438,-151.5 512,-151.5 512,-94.5 438,-94.5"/>
<text text-anchor="middle" x="475" y="-139.5" font-family="Helvetica,sans-Serif" font-size="10.00">BPMN::Task</text>
<polyline fill="none" stroke="black" points="438,-132.5 512,-132.5 "/>
<text text-anchor="start" x="446" y="-120.5" font-family="Helvetica,sans-Serif" font-size="10.00">+ element</text>
<polyline fill="none" stroke="black" points="438,-113.5 512,-113.5 "/>
<text text-anchor="start" x="446" y="-101.5" font-family="Helvetica,sans-Serif" font-size="10.00">+ Task()</text>
</a>
</g>
</g>
<!-- Node8 -->
<g id="node8" class="node">
<title>Node8</title>
<g id="a_node8"><a xlink:href="classBPMN_1_1AbstractTask.html" target="_top" xlink:title=" ">
<polygon fill="none" stroke="black" points="0,-0.5 0,-57.5 114,-57.5 114,-0.5 0,-0.5"/>
<text text-anchor="middle" x="57" y="-45.5" font-family="Helvetica,sans-Serif" font-size="10.00">BPMN::AbstractTask</text>
<polyline fill="none" stroke="black" points="0,-38.5 114,-38.5 "/>
<text text-anchor="middle" x="57" y="-26.5" font-family="Helvetica,sans-Serif" font-size="10.00"> </text>
<polyline fill="none" stroke="black" points="0,-19.5 114,-19.5 "/>
<text text-anchor="start" x="8" y="-7.5" font-family="Helvetica,sans-Serif" font-size="10.00">+ AbstractTask()</text>
</a>
</g>
</g>
<!-- Node1&#45;&gt;Node8 -->
<g id="edge7" class="edge">
<title>Node1&#45;&gt;Node8</title>
<path fill="none" stroke="midnightblue" d="M427.87,-116.8C359.6,-108.51 229.7,-89.9 123,-58 120.14,-57.14 117.23,-56.2 114.32,-55.2"/>
<polygon fill="none" stroke="midnightblue" points="427.54,-120.28 437.89,-117.99 428.37,-113.33 427.54,-120.28"/>
</g>
<!-- Node9 -->
<g id="node9" class="node">
<title>Node9</title>
<g id="a_node9"><a xlink:href="classBPMN_1_1BusinessRuleTask.html" target="_top" xlink:title=" ">
<polygon fill="none" stroke="black" points="132.5,-0.5 132.5,-57.5 271.5,-57.5 271.5,-0.5 132.5,-0.5"/>
<text text-anchor="middle" x="202" y="-45.5" font-family="Helvetica,sans-Serif" font-size="10.00">BPMN::BusinessRuleTask</text>
<polyline fill="none" stroke="black" points="132.5,-38.5 271.5,-38.5 "/>
<text text-anchor="start" x="140.5" y="-26.5" font-family="Helvetica,sans-Serif" font-size="10.00">+ element</text>
<polyline fill="none" stroke="black" points="132.5,-19.5 271.5,-19.5 "/>
<text text-anchor="start" x="140.5" y="-7.5" font-family="Helvetica,sans-Serif" font-size="10.00">+ BusinessRuleTask()</text>
</a>
</g>
</g>
<!-- Node1&#45;&gt;Node9 -->
<g id="edge8" class="edge">
<title>Node1&#45;&gt;Node9</title>
<path fill="none" stroke="midnightblue" d="M428.13,-106.86C388.78,-94.07 331.11,-75.15 281,-58 277.97,-56.96 274.88,-55.9 271.76,-54.82"/>
<polygon fill="none" stroke="midnightblue" points="427.14,-110.21 437.73,-109.97 429.3,-103.56 427.14,-110.21"/>
</g>
<!-- Node10 -->
<g id="node10" class="node">
<title>Node10</title>
<g id="a_node10"><a xlink:href="classBPMN_1_1ManualTask.html" target="_top" xlink:title=" ">
<polygon fill="none" stroke="black" points="290,-0.5 290,-57.5 400,-57.5 400,-0.5 290,-0.5"/>
<text text-anchor="middle" x="345" y="-45.5" font-family="Helvetica,sans-Serif" font-size="10.00">BPMN::ManualTask</text>
<polyline fill="none" stroke="black" points="290,-38.5 400,-38.5 "/>
<text text-anchor="start" x="298" y="-26.5" font-family="Helvetica,sans-Serif" font-size="10.00">+ element</text>
<polyline fill="none" stroke="black" points="290,-19.5 400,-19.5 "/>
<text text-anchor="start" x="298" y="-7.5" font-family="Helvetica,sans-Serif" font-size="10.00">+ ManualTask()</text>
</a>
</g>
</g>
<!-- Node1&#45;&gt;Node10 -->
<g id="edge9" class="edge">
<title>Node1&#45;&gt;Node10</title>
<path fill="none" stroke="midnightblue" d="M429.26,-89.63C414.5,-79.19 398.3,-67.72 384.07,-57.65"/>
<polygon fill="none" stroke="midnightblue" points="427.56,-92.72 437.75,-95.64 431.61,-87 427.56,-92.72"/>
</g>
<!-- Node11 -->
<g id="node11" class="node">
<title>Node11</title>
<g id="a_node11"><a xlink:href="classBPMN_1_1ReceiveTask.html" target="_top" xlink:title=" ">
<polygon fill="none" stroke="black" points="418.5,-0.5 418.5,-57.5 531.5,-57.5 531.5,-0.5 418.5,-0.5"/>
<text text-anchor="middle" x="475" y="-45.5" font-family="Helvetica,sans-Serif" font-size="10.00">BPMN::ReceiveTask</text>
<polyline fill="none" stroke="black" points="418.5,-38.5 531.5,-38.5 "/>
<text text-anchor="start" x="426.5" y="-26.5" font-family="Helvetica,sans-Serif" font-size="10.00">+ element</text>
<polyline fill="none" stroke="black" points="418.5,-19.5 531.5,-19.5 "/>
<text text-anchor="start" x="426.5" y="-7.5" font-family="Helvetica,sans-Serif" font-size="10.00">+ ReceiveTask()</text>
</a>
</g>
</g>
<!-- Node1&#45;&gt;Node11 -->
<g id="edge10" class="edge">
<title>Node1&#45;&gt;Node11</title>
<path fill="none" stroke="midnightblue" d="M475,-84.21C475,-75.29 475,-65.95 475,-57.58"/>
<polygon fill="none" stroke="midnightblue" points="471.5,-84.4 475,-94.4 478.5,-84.4 471.5,-84.4"/>
</g>
<!-- Node12 -->
<g id="node12" class="node">
<title>Node12</title>
<g id="a_node12"><a xlink:href="classBPMN_1_1ScriptTask.html" target="_top" xlink:title=" ">
<polygon fill="none" stroke="black" points="549.5,-0.5 549.5,-57.5 650.5,-57.5 650.5,-0.5 549.5,-0.5"/>
<text text-anchor="middle" x="600" y="-45.5" font-family="Helvetica,sans-Serif" font-size="10.00">BPMN::ScriptTask</text>
<polyline fill="none" stroke="black" points="549.5,-38.5 650.5,-38.5 "/>
<text text-anchor="start" x="557.5" y="-26.5" font-family="Helvetica,sans-Serif" font-size="10.00">+ element</text>
<polyline fill="none" stroke="black" points="549.5,-19.5 650.5,-19.5 "/>
<text text-anchor="start" x="557.5" y="-7.5" font-family="Helvetica,sans-Serif" font-size="10.00">+ ScriptTask()</text>
</a>
</g>
</g>
<!-- Node1&#45;&gt;Node12 -->
<g id="edge11" class="edge">
<title>Node1&#45;&gt;Node12</title>
<path fill="none" stroke="midnightblue" d="M520.53,-88.49C534.26,-78.38 549.17,-67.41 562.33,-57.73"/>
<polygon fill="none" stroke="midnightblue" points="518.14,-85.9 512.17,-94.65 522.29,-91.54 518.14,-85.9"/>
</g>
<!-- Node13 -->
<g id="node13" class="node">
<title>Node13</title>
<g id="a_node13"><a xlink:href="classBPMN_1_1SendTask.html" target="_top" xlink:title=" ">
<polygon fill="none" stroke="black" points="669,-0.5 669,-57.5 767,-57.5 767,-0.5 669,-0.5"/>
<text text-anchor="middle" x="718" y="-45.5" font-family="Helvetica,sans-Serif" font-size="10.00">BPMN::SendTask</text>
<polyline fill="none" stroke="black" points="669,-38.5 767,-38.5 "/>
<text text-anchor="start" x="677" y="-26.5" font-family="Helvetica,sans-Serif" font-size="10.00">+ element</text>
<polyline fill="none" stroke="black" points="669,-19.5 767,-19.5 "/>
<text text-anchor="start" x="677" y="-7.5" font-family="Helvetica,sans-Serif" font-size="10.00">+ SendTask()</text>
</a>
</g>
</g>
<!-- Node1&#45;&gt;Node13 -->
<g id="edge12" class="edge">
<title>Node1&#45;&gt;Node13</title>
<path fill="none" stroke="midnightblue" d="M522.04,-107.41C559.77,-95.3 613.86,-77.04 660,-58 662.89,-56.81 665.85,-55.54 668.82,-54.23"/>
<polygon fill="none" stroke="midnightblue" points="520.79,-104.13 512.33,-110.5 522.92,-110.8 520.79,-104.13"/>
</g>
<!-- Node14 -->
<g id="node14" class="node">
<title>Node14</title>
<g id="a_node14"><a xlink:href="classBPMN_1_1UserTask.html" target="_top" xlink:title=" ">
<polygon fill="none" stroke="black" points="785,-0.5 785,-57.5 881,-57.5 881,-0.5 785,-0.5"/>
<text text-anchor="middle" x="833" y="-45.5" font-family="Helvetica,sans-Serif" font-size="10.00">BPMN::UserTask</text>
<polyline fill="none" stroke="black" points="785,-38.5 881,-38.5 "/>
<text text-anchor="start" x="793" y="-26.5" font-family="Helvetica,sans-Serif" font-size="10.00">+ element</text>
<polyline fill="none" stroke="black" points="785,-19.5 881,-19.5 "/>
<text text-anchor="start" x="793" y="-7.5" font-family="Helvetica,sans-Serif" font-size="10.00">+ UserTask()</text>
</a>
</g>
</g>
<!-- Node1&#45;&gt;Node14 -->
<g id="edge13" class="edge">
<title>Node1&#45;&gt;Node14</title>
<path fill="none" stroke="midnightblue" d="M522.36,-115.63C582.49,-106.72 688.9,-88.13 776,-58 778.92,-56.99 781.88,-55.87 784.84,-54.67"/>
<polygon fill="none" stroke="midnightblue" points="521.79,-112.18 512.4,-117.09 522.8,-119.11 521.79,-112.18"/>
</g>
<!-- Node2 -->
<g id="node2" class="node">
<title>Node2</title>
<g id="a_node2"><a xlink:href="classBPMN_1_1Activity.html" target="_top" xlink:title=" ">
<polygon fill="none" stroke="black" points="414,-188.5 414,-289.5 536,-289.5 536,-188.5 414,-188.5"/>
<text text-anchor="middle" x="475" y="-277.5" font-family="Helvetica,sans-Serif" font-size="10.00">BPMN::Activity</text>
<polyline fill="none" stroke="black" points="414,-270.5 536,-270.5 "/>
<text text-anchor="start" x="422" y="-258.5" font-family="Helvetica,sans-Serif" font-size="10.00">+ boundaryEvents</text>
<text text-anchor="start" x="422" y="-247.5" font-family="Helvetica,sans-Serif" font-size="10.00">+ compensatedBy</text>
<text text-anchor="start" x="422" y="-236.5" font-family="Helvetica,sans-Serif" font-size="10.00">+ isForCompensation</text>
<text text-anchor="start" x="422" y="-225.5" font-family="Helvetica,sans-Serif" font-size="10.00">+ loopCharacteristics</text>
<text text-anchor="start" x="422" y="-214.5" font-family="Helvetica,sans-Serif" font-size="10.00">+ element</text>
<polyline fill="none" stroke="black" points="414,-207.5 536,-207.5 "/>
<text text-anchor="start" x="422" y="-195.5" font-family="Helvetica,sans-Serif" font-size="10.00">+ Activity()</text>
</a>
</g>
</g>
<!-- Node2&#45;&gt;Node1 -->
<g id="edge1" class="edge">
<title>Node2&#45;&gt;Node1</title>
<path fill="none" stroke="midnightblue" d="M475,-178.23C475,-168.92 475,-159.71 475,-151.59"/>
<polygon fill="none" stroke="midnightblue" points="471.5,-178.33 475,-188.33 478.5,-178.33 471.5,-178.33"/>
</g>
<!-- Node3 -->
<g id="node3" class="node">
<title>Node3</title>
<g id="a_node3"><a xlink:href="classBPMN_1_1FlowNode.html" target="_top" xlink:title="Base class for BPMN elements that may contain incoming and outgoing sequence flows.">
<polygon fill="none" stroke="black" points="424.5,-326.5 424.5,-416.5 525.5,-416.5 525.5,-326.5 424.5,-326.5"/>
<text text-anchor="middle" x="475" y="-404.5" font-family="Helvetica,sans-Serif" font-size="10.00">BPMN::FlowNode</text>
<polyline fill="none" stroke="black" points="424.5,-397.5 525.5,-397.5 "/>
<text text-anchor="start" x="432.5" y="-385.5" font-family="Helvetica,sans-Serif" font-size="10.00">+ element</text>
<text text-anchor="start" x="432.5" y="-374.5" font-family="Helvetica,sans-Serif" font-size="10.00">+ name</text>
<text text-anchor="start" x="432.5" y="-363.5" font-family="Helvetica,sans-Serif" font-size="10.00">+ incoming</text>
<text text-anchor="start" x="432.5" y="-352.5" font-family="Helvetica,sans-Serif" font-size="10.00">+ outgoing</text>
<polyline fill="none" stroke="black" points="424.5,-345.5 525.5,-345.5 "/>
<text text-anchor="start" x="432.5" y="-333.5" font-family="Helvetica,sans-Serif" font-size="10.00">+ FlowNode()</text>
</a>
</g>
</g>
<!-- Node3&#45;&gt;Node2 -->
<g id="edge2" class="edge">
<title>Node3&#45;&gt;Node2</title>
<path fill="none" stroke="midnightblue" d="M475,-316.13C475,-307.31 475,-298.22 475,-289.52"/>
<polygon fill="none" stroke="midnightblue" points="471.5,-316.32 475,-326.32 478.5,-316.32 471.5,-316.32"/>
</g>
<!-- Node4 -->
<g id="node4" class="node">
<title>Node4</title>
<g id="a_node4"><a xlink:href="classBPMN_1_1ChildNode.html" target="_top" xlink:title="Base class for BPMN elements within a Scope.">
<polygon fill="none" stroke="black" points="424,-453.5 424,-510.5 526,-510.5 526,-453.5 424,-453.5"/>
<text text-anchor="middle" x="475" y="-498.5" font-family="Helvetica,sans-Serif" font-size="10.00">BPMN::ChildNode</text>
<polyline fill="none" stroke="black" points="424,-491.5 526,-491.5 "/>
<text text-anchor="start" x="432" y="-479.5" font-family="Helvetica,sans-Serif" font-size="10.00">+ parent</text>
<polyline fill="none" stroke="black" points="424,-472.5 526,-472.5 "/>
<text text-anchor="start" x="432" y="-460.5" font-family="Helvetica,sans-Serif" font-size="10.00">+ ChildNode()</text>
</a>
</g>
</g>
<!-- Node4&#45;&gt;Node3 -->
<g id="edge3" class="edge">
<title>Node4&#45;&gt;Node3</title>
<path fill="none" stroke="midnightblue" d="M475,-443.21C475,-434.61 475,-425.39 475,-416.55"/>
<polygon fill="none" stroke="midnightblue" points="471.5,-443.34 475,-453.34 478.5,-443.34 471.5,-443.34"/>
</g>
<!-- Node5 -->
<g id="node5" class="node">
<title>Node5</title>
<g id="a_node5"><a xlink:href="classBPMN_1_1Node.html" target="_top" xlink:title="Base class for all nodes in a BPMN model.">
<polygon fill="none" stroke="black" points="436.5,-547.5 436.5,-659.5 513.5,-659.5 513.5,-547.5 436.5,-547.5"/>
<text text-anchor="middle" x="475" y="-647.5" font-family="Helvetica,sans-Serif" font-size="10.00">BPMN::Node</text>
<polyline fill="none" stroke="black" points="436.5,-640.5 513.5,-640.5 "/>
<text text-anchor="start" x="444.5" y="-628.5" font-family="Helvetica,sans-Serif" font-size="10.00">+ receiving</text>
<text text-anchor="start" x="444.5" y="-617.5" font-family="Helvetica,sans-Serif" font-size="10.00">+ sending</text>
<polyline fill="none" stroke="black" points="436.5,-610.5 513.5,-610.5 "/>
<text text-anchor="start" x="444.5" y="-598.5" font-family="Helvetica,sans-Serif" font-size="10.00">+ Node()</text>
<text text-anchor="start" x="444.5" y="-587.5" font-family="Helvetica,sans-Serif" font-size="10.00">+ find()</text>
<text text-anchor="start" x="444.5" y="-576.5" font-family="Helvetica,sans-Serif" font-size="10.00">+ find()</text>
<text text-anchor="start" x="444.5" y="-565.5" font-family="Helvetica,sans-Serif" font-size="10.00">+ find_all()</text>
<text text-anchor="start" x="444.5" y="-554.5" font-family="Helvetica,sans-Serif" font-size="10.00">+ find_all()</text>
</a>
</g>
</g>
<!-- Node5&#45;&gt;Node4 -->
<g id="edge4" class="edge">
<title>Node5&#45;&gt;Node4</title>
<path fill="none" stroke="midnightblue" d="M475,-537.15C475,-527.82 475,-518.67 475,-510.63"/>
<polygon fill="none" stroke="midnightblue" points="471.5,-537.3 475,-547.3 478.5,-537.3 471.5,-537.3"/>
</g>
<!-- Node6 -->
<g id="node6" class="node">
<title>Node6</title>
<g id="a_node6"><a xlink:href="classBPMN_1_1BaseElement.html" target="_top" xlink:title="Base class for all core BPMN elements.">
<polygon fill="none" stroke="black" points="414,-696.5 414,-819.5 536,-819.5 536,-696.5 414,-696.5"/>
<text text-anchor="middle" x="475" y="-807.5" font-family="Helvetica,sans-Serif" font-size="10.00">BPMN::BaseElement</text>
<polyline fill="none" stroke="black" points="414,-800.5 536,-800.5 "/>
<text text-anchor="start" x="422" y="-788.5" font-family="Helvetica,sans-Serif" font-size="10.00">+ element</text>
<text text-anchor="start" x="422" y="-777.5" font-family="Helvetica,sans-Serif" font-size="10.00">+ id</text>
<text text-anchor="start" x="422" y="-766.5" font-family="Helvetica,sans-Serif" font-size="10.00">+ extensionElements</text>
<polyline fill="none" stroke="black" points="414,-759.5 536,-759.5 "/>
<text text-anchor="start" x="422" y="-747.5" font-family="Helvetica,sans-Serif" font-size="10.00">+ BaseElement()</text>
<text text-anchor="start" x="422" y="-736.5" font-family="Helvetica,sans-Serif" font-size="10.00">+ is()</text>
<text text-anchor="start" x="422" y="-725.5" font-family="Helvetica,sans-Serif" font-size="10.00">+ is()</text>
<text text-anchor="start" x="422" y="-714.5" font-family="Helvetica,sans-Serif" font-size="10.00">+ get()</text>
<text text-anchor="start" x="422" y="-703.5" font-family="Helvetica,sans-Serif" font-size="10.00">+ get()</text>
</a>
</g>
</g>
<!-- Node6&#45;&gt;Node5 -->
<g id="edge5" class="edge">
<title>Node6&#45;&gt;Node5</title>
<path fill="none" stroke="midnightblue" d="M475,-686.25C475,-677.29 475,-668.23 475,-659.56"/>
<polygon fill="none" stroke="midnightblue" points="471.5,-686.29 475,-696.29 478.5,-686.29 471.5,-686.29"/>
</g>
<!-- Node7 -->
<g id="node7" class="node">
<title>Node7</title>
<g id="a_node7"><a xlink:href="classBPMN_1_1Element.html" target="_top" xlink:title="Abstract base class for all elements in a BPMN model.">
<polygon fill="none" stroke="black" points="429,-856.5 429,-957.5 521,-957.5 521,-856.5 429,-856.5"/>
<text text-anchor="middle" x="475" y="-945.5" font-family="Helvetica,sans-Serif" font-size="10.00">BPMN::Element</text>
<polyline fill="none" stroke="black" points="429,-938.5 521,-938.5 "/>
<text text-anchor="middle" x="475" y="-926.5" font-family="Helvetica,sans-Serif" font-size="10.00"> </text>
<polyline fill="none" stroke="black" points="429,-919.5 521,-919.5 "/>
<text text-anchor="start" x="437" y="-907.5" font-family="Helvetica,sans-Serif" font-size="10.00">+ ~Element()</text>
<text text-anchor="start" x="437" y="-896.5" font-family="Helvetica,sans-Serif" font-size="10.00">+ represents()</text>
<text text-anchor="start" x="437" y="-885.5" font-family="Helvetica,sans-Serif" font-size="10.00">+ represents()</text>
<text text-anchor="start" x="437" y="-874.5" font-family="Helvetica,sans-Serif" font-size="10.00">+ as()</text>
<text text-anchor="start" x="437" y="-863.5" font-family="Helvetica,sans-Serif" font-size="10.00">+ as()</text>
</a>
</g>
</g>
<!-- Node7&#45;&gt;Node6 -->
<g id="edge6" class="edge">
<title>Node7&#45;&gt;Node6</title>
<path fill="none" stroke="midnightblue" d="M475,-846.14C475,-837.41 475,-828.42 475,-819.67"/>
<polygon fill="none" stroke="midnightblue" points="471.5,-846.23 475,-856.23 478.5,-846.23 471.5,-846.23"/>
</g>
</g>
</svg>
