<?xml version="1.0" encoding="UTF-8" standalone="no"?>
<!DOCTYPE svg PUBLIC "-//W3C//DTD SVG 1.1//EN"
 "http://www.w3.org/Graphics/SVG/1.1/DTD/svg11.dtd">
<!-- Generated by graphviz version 2.43.0 (0)
 -->
<!-- Title: BPMN::BusinessRuleTask Pages: 1 -->
<svg width="147pt" height="767pt"
 viewBox="0.00 0.00 147.00 767.00" xmlns="http://www.w3.org/2000/svg" xmlns:xlink="http://www.w3.org/1999/xlink">
<g id="graph0" class="graph" transform="scale(1 1) rotate(0) translate(4 763)">
<title>BPMN::BusinessRuleTask</title>
<!-- Node1 -->
<g id="node1" class="node">
<title>Node1</title>
<g id="a_node1"><a xlink:title=" ">
<polygon fill="#bfbfbf" stroke="black" points="0,-0.5 0,-57.5 139,-57.5 139,-0.5 0,-0.5"/>
<text text-anchor="middle" x="69.5" y="-45.5" font-family="Helvetica,sans-Serif" font-size="10.00">BPMN::BusinessRuleTask</text>
<polyline fill="none" stroke="black" points="0,-38.5 139,-38.5 "/>
<text text-anchor="start" x="8" y="-26.5" font-family="Helvetica,sans-Serif" font-size="10.00">+ element</text>
<polyline fill="none" stroke="black" points="0,-19.5 139,-19.5 "/>
<text text-anchor="start" x="8" y="-7.5" font-family="Helvetica,sans-Serif" font-size="10.00">+ BusinessRuleTask()</text>
</a>
</g>
</g>
<!-- Node2 -->
<g id="node2" class="node">
<title>Node2</title>
<g id="a_node2"><a xlink:href="classBPMN_1_1Task.html" target="_top" xlink:title=" ">
<polygon fill="none" stroke="black" points="32.5,-94.5 32.5,-151.5 106.5,-151.5 106.5,-94.5 32.5,-94.5"/>
<text text-anchor="middle" x="69.5" y="-139.5" font-family="Helvetica,sans-Serif" font-size="10.00">BPMN::Task</text>
<polyline fill="none" stroke="black" points="32.5,-132.5 106.5,-132.5 "/>
<text text-anchor="start" x="40.5" y="-120.5" font-family="Helvetica,sans-Serif" font-size="10.00">+ element</text>
<polyline fill="none" stroke="black" points="32.5,-113.5 106.5,-113.5 "/>
<text text-anchor="start" x="40.5" y="-101.5" font-family="Helvetica,sans-Serif" font-size="10.00">+ Task()</text>
</a>
</g>
</g>
<!-- Node2&#45;&gt;Node1 -->
<g id="edge1" class="edge">
<title>Node2&#45;&gt;Node1</title>
<path fill="none" stroke="midnightblue" d="M69.5,-84.21C69.5,-75.29 69.5,-65.95 69.5,-57.58"/>
<polygon fill="none" stroke="midnightblue" points="66,-84.4 69.5,-94.4 73,-84.4 66,-84.4"/>
</g>
<!-- Node3 -->
<g id="node3" class="node">
<title>Node3</title>
<g id="a_node3"><a xlink:href="classBPMN_1_1Activity.html" target="_top" xlink:title=" ">
<polygon fill="none" stroke="black" points="16,-188.5 16,-256.5 123,-256.5 123,-188.5 16,-188.5"/>
<text text-anchor="middle" x="69.5" y="-244.5" font-family="Helvetica,sans-Serif" font-size="10.00">BPMN::Activity</text>
<polyline fill="none" stroke="black" points="16,-237.5 123,-237.5 "/>
<text text-anchor="start" x="24" y="-225.5" font-family="Helvetica,sans-Serif" font-size="10.00">+ boundaryEvents</text>
<text text-anchor="start" x="24" y="-214.5" font-family="Helvetica,sans-Serif" font-size="10.00">+ element</text>
<polyline fill="none" stroke="black" points="16,-207.5 123,-207.5 "/>
<text text-anchor="start" x="24" y="-195.5" font-family="Helvetica,sans-Serif" font-size="10.00">+ Activity()</text>
</a>
</g>
</g>
<!-- Node3&#45;&gt;Node2 -->
<g id="edge2" class="edge">
<title>Node3&#45;&gt;Node2</title>
<path fill="none" stroke="midnightblue" d="M69.5,-178.45C69.5,-169.4 69.5,-160.09 69.5,-151.78"/>
<polygon fill="none" stroke="midnightblue" points="66,-178.49 69.5,-188.49 73,-178.49 66,-178.49"/>
</g>
<!-- Node4 -->
<g id="node4" class="node">
<title>Node4</title>
<g id="a_node4"><a xlink:href="classBPMN_1_1FlowNode.html" target="_top" xlink:title="Represents a flow node in a BPMN process.">
<polygon fill="none" stroke="black" points="19,-293.5 19,-383.5 120,-383.5 120,-293.5 19,-293.5"/>
<text text-anchor="middle" x="69.5" y="-371.5" font-family="Helvetica,sans-Serif" font-size="10.00">BPMN::FlowNode</text>
<polyline fill="none" stroke="black" points="19,-364.5 120,-364.5 "/>
<text text-anchor="start" x="27" y="-352.5" font-family="Helvetica,sans-Serif" font-size="10.00">+ element</text>
<text text-anchor="start" x="27" y="-341.5" font-family="Helvetica,sans-Serif" font-size="10.00">+ name</text>
<text text-anchor="start" x="27" y="-330.5" font-family="Helvetica,sans-Serif" font-size="10.00">+ incoming</text>
<text text-anchor="start" x="27" y="-319.5" font-family="Helvetica,sans-Serif" font-size="10.00">+ outgoing</text>
<polyline fill="none" stroke="black" points="19,-312.5 120,-312.5 "/>
<text text-anchor="start" x="27" y="-300.5" font-family="Helvetica,sans-Serif" font-size="10.00">+ FlowNode()</text>
</a>
</g>
</g>
<!-- Node4&#45;&gt;Node3 -->
<g id="edge3" class="edge">
<title>Node4&#45;&gt;Node3</title>
<path fill="none" stroke="midnightblue" d="M69.5,-283.32C69.5,-274.28 69.5,-265.16 69.5,-256.85"/>
<polygon fill="none" stroke="midnightblue" points="66,-283.42 69.5,-293.42 73,-283.42 66,-283.42"/>
</g>
<!-- Node5 -->
<g id="node5" class="node">
<title>Node5</title>
<g id="a_node5"><a xlink:href="classBPMN_1_1ChildNode.html" target="_top" xlink:title="Represents a node in a BPMN process that has a parent.">
<polygon fill="none" stroke="black" points="18.5,-420.5 18.5,-477.5 120.5,-477.5 120.5,-420.5 18.5,-420.5"/>
<text text-anchor="middle" x="69.5" y="-465.5" font-family="Helvetica,sans-Serif" font-size="10.00">BPMN::ChildNode</text>
<polyline fill="none" stroke="black" points="18.5,-458.5 120.5,-458.5 "/>
<text text-anchor="start" x="26.5" y="-446.5" font-family="Helvetica,sans-Serif" font-size="10.00">+ parent</text>
<polyline fill="none" stroke="black" points="18.5,-439.5 120.5,-439.5 "/>
<text text-anchor="start" x="26.5" y="-427.5" font-family="Helvetica,sans-Serif" font-size="10.00">+ ChildNode()</text>
</a>
</g>
</g>
<!-- Node5&#45;&gt;Node4 -->
<g id="edge4" class="edge">
<title>Node5&#45;&gt;Node4</title>
<path fill="none" stroke="midnightblue" d="M69.5,-410.21C69.5,-401.61 69.5,-392.39 69.5,-383.55"/>
<polygon fill="none" stroke="midnightblue" points="66,-410.34 69.5,-420.34 73,-410.34 66,-410.34"/>
</g>
<!-- Node6 -->
<g id="node6" class="node">
<title>Node6</title>
<g id="a_node6"><a xlink:href="classBPMN_1_1Node.html" target="_top" xlink:title="Represents a node in a BPMN process.">
<polygon fill="none" stroke="black" points="8.5,-514.5 8.5,-758.5 130.5,-758.5 130.5,-514.5 8.5,-514.5"/>
<text text-anchor="middle" x="69.5" y="-746.5" font-family="Helvetica,sans-Serif" font-size="10.00">BPMN::Node</text>
<polyline fill="none" stroke="black" points="8.5,-739.5 130.5,-739.5 "/>
<text text-anchor="start" x="16.5" y="-727.5" font-family="Helvetica,sans-Serif" font-size="10.00">+ id</text>
<text text-anchor="start" x="16.5" y="-716.5" font-family="Helvetica,sans-Serif" font-size="10.00">+ receiving</text>
<text text-anchor="start" x="16.5" y="-705.5" font-family="Helvetica,sans-Serif" font-size="10.00">+ sending</text>
<text text-anchor="start" x="16.5" y="-694.5" font-family="Helvetica,sans-Serif" font-size="10.00">+ element</text>
<text text-anchor="start" x="16.5" y="-683.5" font-family="Helvetica,sans-Serif" font-size="10.00">+ extensionElements</text>
<polyline fill="none" stroke="black" points="8.5,-676.5 130.5,-676.5 "/>
<text text-anchor="start" x="16.5" y="-664.5" font-family="Helvetica,sans-Serif" font-size="10.00">+ Node()</text>
<text text-anchor="start" x="16.5" y="-653.5" font-family="Helvetica,sans-Serif" font-size="10.00">+ ~Node()</text>
<text text-anchor="start" x="16.5" y="-642.5" font-family="Helvetica,sans-Serif" font-size="10.00">+ is()</text>
<text text-anchor="start" x="16.5" y="-631.5" font-family="Helvetica,sans-Serif" font-size="10.00">+ is()</text>
<text text-anchor="start" x="16.5" y="-620.5" font-family="Helvetica,sans-Serif" font-size="10.00">+ get()</text>
<text text-anchor="start" x="16.5" y="-609.5" font-family="Helvetica,sans-Serif" font-size="10.00">+ get()</text>
<text text-anchor="start" x="16.5" y="-598.5" font-family="Helvetica,sans-Serif" font-size="10.00">+ represents()</text>
<text text-anchor="start" x="16.5" y="-587.5" font-family="Helvetica,sans-Serif" font-size="10.00">+ represents()</text>
<text text-anchor="start" x="16.5" y="-576.5" font-family="Helvetica,sans-Serif" font-size="10.00">+ as()</text>
<text text-anchor="start" x="16.5" y="-565.5" font-family="Helvetica,sans-Serif" font-size="10.00">+ as()</text>
<text text-anchor="start" x="16.5" y="-554.5" font-family="Helvetica,sans-Serif" font-size="10.00">+ find()</text>
<text text-anchor="start" x="16.5" y="-543.5" font-family="Helvetica,sans-Serif" font-size="10.00">+ find()</text>
<text text-anchor="start" x="16.5" y="-532.5" font-family="Helvetica,sans-Serif" font-size="10.00">+ find_all()</text>
<text text-anchor="start" x="16.5" y="-521.5" font-family="Helvetica,sans-Serif" font-size="10.00">+ find_all()</text>
</a>
</g>
</g>
<!-- Node6&#45;&gt;Node5 -->
<g id="edge5" class="edge">
<title>Node6&#45;&gt;Node5</title>
<path fill="none" stroke="midnightblue" d="M69.5,-504.34C69.5,-494.53 69.5,-485.42 69.5,-477.57"/>
<polygon fill="none" stroke="midnightblue" points="66,-504.36 69.5,-514.36 73,-504.36 66,-504.36"/>
</g>
</g>
</svg>
