<?xml version="1.0" encoding="UTF-8" standalone="no"?>
<!DOCTYPE svg PUBLIC "-//W3C//DTD SVG 1.1//EN"
 "http://www.w3.org/Graphics/SVG/1.1/DTD/svg11.dtd">
<!-- Generated by graphviz version 2.43.0 (0)
 -->
<!-- Title: BPMN::ThrowEvent Pages: 1 -->
<svg width="1376pt" height="1052pt"
 viewBox="0.00 0.00 1376.00 1052.00" xmlns="http://www.w3.org/2000/svg" xmlns:xlink="http://www.w3.org/1999/xlink">
<g id="graph0" class="graph" transform="scale(1 1) rotate(0) translate(4 1048)">
<title>BPMN::ThrowEvent</title>
<!-- Node1 -->
<g id="Node000001" class="node">
<title>Node1</title>
<g id="a_Node000001"><a xlink:title=" ">
<polygon fill="#999999" stroke="transparent" points="747.5,-234 643.5,-234 643.5,-185 747.5,-185 747.5,-234"/>
<text text-anchor="start" x="648.5" y="-221.5" font-family="Helvetica,sans-Serif" font-size="10.00">BPMN::ThrowEvent</text>
<text text-anchor="start" x="651.5" y="-206.5" font-family="Helvetica,sans-Serif" font-size="10.00">+</text>
<text text-anchor="start" x="668.5" y="-206.5" font-family="Helvetica,sans-Serif" font-size="10.00">element</text>
<text text-anchor="start" x="651.5" y="-191.5" font-family="Helvetica,sans-Serif" font-size="10.00">+</text>
<text text-anchor="start" x="668.5" y="-191.5" font-family="Helvetica,sans-Serif" font-size="10.00">ThrowEvent()</text>
<polygon fill="#666666" stroke="#666666" points="643.5,-216.5 643.5,-216.5 747.5,-216.5 747.5,-216.5 643.5,-216.5"/>
<polygon fill="#666666" stroke="#666666" points="643.5,-201.5 643.5,-201.5 666.5,-201.5 666.5,-201.5 643.5,-201.5"/>
<polygon fill="#666666" stroke="#666666" points="666.5,-201.5 666.5,-201.5 747.5,-201.5 747.5,-201.5 666.5,-201.5"/>
<polygon fill="none" stroke="#666666" points="643.5,-185 643.5,-234 747.5,-234 747.5,-185 643.5,-185"/>
</a>
</g>
</g>
<!-- Node8 -->
<g id="Node000008" class="node">
<title>Node8</title>
<g id="a_Node000008"><a xlink:href="classBPMN_1_1CancelEndEvent.html" target="_top" xlink:title=" ">
<polygon fill="white" stroke="transparent" points="125,-141.5 0,-141.5 0,-92.5 125,-92.5 125,-141.5"/>
<text text-anchor="start" x="5.5" y="-129" font-family="Helvetica,sans-Serif" font-size="10.00">BPMN::CancelEndEvent</text>
<text text-anchor="start" x="61" y="-114" font-family="Helvetica,sans-Serif" font-size="10.00"> </text>
<text text-anchor="start" x="8.5" y="-99" font-family="Helvetica,sans-Serif" font-size="10.00">+</text>
<text text-anchor="start" x="25.5" y="-99" font-family="Helvetica,sans-Serif" font-size="10.00">CancelEndEvent()</text>
<polygon fill="#666666" stroke="#666666" points="0.5,-124 0.5,-124 125.5,-124 125.5,-124 0.5,-124"/>
<polygon fill="#666666" stroke="#666666" points="0.5,-109 0.5,-109 125.5,-109 125.5,-109 0.5,-109"/>
<polygon fill="none" stroke="#666666" points="0,-92.5 0,-141.5 125,-141.5 125,-92.5 0,-92.5"/>
</a>
</g>
</g>
<!-- Node1&#45;&gt;Node8 -->
<g id="edge7_Node000001_Node000008" class="edge">
<title>Node1&#45;&gt;Node8</title>
<g id="a_edge7_Node000001_Node000008"><a xlink:title=" ">
<path fill="none" stroke="#63b8ff" d="M633.31,-208.08C528.48,-206.01 310.67,-195.86 133.5,-149 126.09,-147.04 118.46,-144.42 111.07,-141.52"/>
<polygon fill="none" stroke="#63b8ff" points="633.34,-211.58 643.4,-208.26 633.47,-204.58 633.34,-211.58"/>
</a>
</g>
</g>
<!-- Node9 -->
<g id="Node000009" class="node">
<title>Node9</title>
<g id="a_Node000009"><a xlink:href="classBPMN_1_1CompensateThrowEvent.html" target="_top" xlink:title=" ">
<polygon fill="white" stroke="transparent" points="308,-141.5 143,-141.5 143,-92.5 308,-92.5 308,-141.5"/>
<text text-anchor="start" x="148.5" y="-129" font-family="Helvetica,sans-Serif" font-size="10.00">BPMN::CompensateThrowEvent</text>
<text text-anchor="start" x="151.5" y="-114" font-family="Helvetica,sans-Serif" font-size="10.00">+</text>
<text text-anchor="start" x="168.5" y="-114" font-family="Helvetica,sans-Serif" font-size="10.00">activity</text>
<text text-anchor="start" x="151.5" y="-99" font-family="Helvetica,sans-Serif" font-size="10.00">+</text>
<text text-anchor="start" x="168.5" y="-99" font-family="Helvetica,sans-Serif" font-size="10.00">CompensateThrowEvent()</text>
<polygon fill="#666666" stroke="#666666" points="143.5,-124 143.5,-124 308.5,-124 308.5,-124 143.5,-124"/>
<polygon fill="#666666" stroke="#666666" points="143.5,-109 143.5,-109 166.5,-109 166.5,-109 143.5,-109"/>
<polygon fill="#666666" stroke="#666666" points="166.5,-109 166.5,-109 308.5,-109 308.5,-109 166.5,-109"/>
<polygon fill="none" stroke="#666666" points="143,-92.5 143,-141.5 308,-141.5 308,-92.5 143,-92.5"/>
</a>
</g>
</g>
<!-- Node1&#45;&gt;Node9 -->
<g id="edge8_Node000001_Node000009" class="edge">
<title>Node1&#45;&gt;Node9</title>
<g id="a_edge8_Node000001_Node000009"><a xlink:title=" ">
<path fill="none" stroke="#63b8ff" d="M633.14,-202.06C557.49,-193.47 426.43,-176.14 316.5,-149 307.91,-146.88 298.98,-144.31 290.21,-141.56"/>
<polygon fill="none" stroke="#63b8ff" points="633.12,-205.57 643.44,-203.21 633.9,-198.62 633.12,-205.57"/>
</a>
</g>
</g>
<!-- Node10 -->
<g id="Node000010" class="node">
<title>Node10</title>
<g id="a_Node000010"><a xlink:href="classBPMN_1_1ErrorEndEvent.html" target="_top" xlink:title=" ">
<polygon fill="white" stroke="transparent" points="441,-141.5 326,-141.5 326,-92.5 441,-92.5 441,-141.5"/>
<text text-anchor="start" x="331.5" y="-129" font-family="Helvetica,sans-Serif" font-size="10.00">BPMN::ErrorEndEvent</text>
<text text-anchor="start" x="382" y="-114" font-family="Helvetica,sans-Serif" font-size="10.00"> </text>
<text text-anchor="start" x="334.5" y="-99" font-family="Helvetica,sans-Serif" font-size="10.00">+</text>
<text text-anchor="start" x="351.5" y="-99" font-family="Helvetica,sans-Serif" font-size="10.00">ErrorEndEvent()</text>
<polygon fill="#666666" stroke="#666666" points="326.5,-124 326.5,-124 441.5,-124 441.5,-124 326.5,-124"/>
<polygon fill="#666666" stroke="#666666" points="326.5,-109 326.5,-109 441.5,-109 441.5,-109 326.5,-109"/>
<polygon fill="none" stroke="#666666" points="326,-92.5 326,-141.5 441,-141.5 441,-92.5 326,-92.5"/>
</a>
</g>
</g>
<!-- Node1&#45;&gt;Node10 -->
<g id="edge9_Node000001_Node000010" class="edge">
<title>Node1&#45;&gt;Node10</title>
<g id="a_edge9_Node000001_Node000010"><a xlink:title=" ">
<path fill="none" stroke="#63b8ff" d="M632.99,-196.83C582.9,-186.65 511.2,-170.19 450.5,-149 444.33,-146.85 437.96,-144.32 431.71,-141.66"/>
<polygon fill="none" stroke="#63b8ff" points="632.53,-200.31 643.03,-198.85 633.91,-193.45 632.53,-200.31"/>
</a>
</g>
</g>
<!-- Node11 -->
<g id="Node000011" class="node">
<title>Node11</title>
<g id="a_Node000011"><a xlink:href="classBPMN_1_1EscalationThrowEvent.html" target="_top" xlink:title=" ">
<polygon fill="white" stroke="transparent" points="613.5,-141.5 459.5,-141.5 459.5,-92.5 613.5,-92.5 613.5,-141.5"/>
<text text-anchor="start" x="464.5" y="-129" font-family="Helvetica,sans-Serif" font-size="10.00">BPMN::EscalationThrowEvent</text>
<text text-anchor="start" x="534.5" y="-114" font-family="Helvetica,sans-Serif" font-size="10.00"> </text>
<text text-anchor="start" x="467.5" y="-99" font-family="Helvetica,sans-Serif" font-size="10.00">+</text>
<text text-anchor="start" x="484.5" y="-99" font-family="Helvetica,sans-Serif" font-size="10.00">EscalationThrowEvent()</text>
<polygon fill="#666666" stroke="#666666" points="459.5,-124 459.5,-124 613.5,-124 613.5,-124 459.5,-124"/>
<polygon fill="#666666" stroke="#666666" points="459.5,-109 459.5,-109 613.5,-109 613.5,-109 459.5,-109"/>
<polygon fill="none" stroke="#666666" points="459.5,-92.5 459.5,-141.5 613.5,-141.5 613.5,-92.5 459.5,-92.5"/>
</a>
</g>
</g>
<!-- Node1&#45;&gt;Node11 -->
<g id="edge10_Node000001_Node000011" class="edge">
<title>Node1&#45;&gt;Node11</title>
<g id="a_edge10_Node000001_Node000011"><a xlink:title=" ">
<path fill="none" stroke="#63b8ff" d="M645.38,-179.97C623.67,-167.62 598.56,-153.32 577.93,-141.58"/>
<polygon fill="none" stroke="#63b8ff" points="643.72,-183.05 654.14,-184.96 647.18,-176.97 643.72,-183.05"/>
</a>
</g>
</g>
<!-- Node12 -->
<g id="Node000012" class="node">
<title>Node12</title>
<g id="a_Node000012"><a xlink:href="classBPMN_1_1LinkSourceEvent.html" target="_top" xlink:title=" ">
<polygon fill="white" stroke="transparent" points="759,-149 632,-149 632,-85 759,-85 759,-149"/>
<text text-anchor="start" x="637.5" y="-137" font-family="Helvetica,sans-Serif" font-size="10.00">BPMN::LinkSourceEvent</text>
<text text-anchor="start" x="640.5" y="-122" font-family="Helvetica,sans-Serif" font-size="10.00">+</text>
<text text-anchor="start" x="657.5" y="-122" font-family="Helvetica,sans-Serif" font-size="10.00">linkName</text>
<text text-anchor="start" x="640.5" y="-107" font-family="Helvetica,sans-Serif" font-size="10.00">+</text>
<text text-anchor="start" x="657.5" y="-107" font-family="Helvetica,sans-Serif" font-size="10.00">target</text>
<text text-anchor="start" x="640.5" y="-92" font-family="Helvetica,sans-Serif" font-size="10.00">+</text>
<text text-anchor="start" x="657.5" y="-92" font-family="Helvetica,sans-Serif" font-size="10.00">LinkSourceEvent()</text>
<polygon fill="#666666" stroke="#666666" points="632.5,-132 632.5,-132 759.5,-132 759.5,-132 632.5,-132"/>
<polygon fill="#666666" stroke="#666666" points="632.5,-102 632.5,-102 655.5,-102 655.5,-102 632.5,-102"/>
<polygon fill="#666666" stroke="#666666" points="655.5,-102 655.5,-102 759.5,-102 759.5,-102 655.5,-102"/>
<polygon fill="none" stroke="#666666" points="632,-85 632,-149 759,-149 759,-85 632,-85"/>
</a>
</g>
</g>
<!-- Node1&#45;&gt;Node12 -->
<g id="edge11_Node000001_Node000012" class="edge">
<title>Node1&#45;&gt;Node12</title>
<g id="a_edge11_Node000001_Node000012"><a xlink:title=" ">
<path fill="none" stroke="#63b8ff" d="M695.5,-174.54C695.5,-166.2 695.5,-157.31 695.5,-149.11"/>
<polygon fill="none" stroke="#63b8ff" points="692,-174.72 695.5,-184.72 699,-174.72 692,-174.72"/>
</a>
</g>
</g>
<!-- Node13 -->
<g id="Node000013" class="node">
<title>Node13</title>
<g id="a_Node000013"><a xlink:href="classBPMN_1_1MessageThrowEvent.html" target="_top" xlink:title=" ">
<polygon fill="white" stroke="transparent" points="924,-141.5 777,-141.5 777,-92.5 924,-92.5 924,-141.5"/>
<text text-anchor="start" x="782.5" y="-129" font-family="Helvetica,sans-Serif" font-size="10.00">BPMN::MessageThrowEvent</text>
<text text-anchor="start" x="849" y="-114" font-family="Helvetica,sans-Serif" font-size="10.00"> </text>
<text text-anchor="start" x="785.5" y="-99" font-family="Helvetica,sans-Serif" font-size="10.00">+</text>
<text text-anchor="start" x="802.5" y="-99" font-family="Helvetica,sans-Serif" font-size="10.00">MessageThrowEvent()</text>
<polygon fill="#666666" stroke="#666666" points="777.5,-124 777.5,-124 924.5,-124 924.5,-124 777.5,-124"/>
<polygon fill="#666666" stroke="#666666" points="777.5,-109 777.5,-109 924.5,-109 924.5,-109 777.5,-109"/>
<polygon fill="none" stroke="#666666" points="777,-92.5 777,-141.5 924,-141.5 924,-92.5 777,-92.5"/>
</a>
</g>
</g>
<!-- Node1&#45;&gt;Node13 -->
<g id="edge12_Node000001_Node000013" class="edge">
<title>Node1&#45;&gt;Node13</title>
<g id="a_edge12_Node000001_Node000013"><a xlink:title=" ">
<path fill="none" stroke="#63b8ff" d="M744.64,-179.81C765.74,-167.49 790.09,-153.27 810.11,-141.58"/>
<polygon fill="none" stroke="#63b8ff" points="742.69,-176.89 735.82,-184.96 746.22,-182.94 742.69,-176.89"/>
</a>
</g>
</g>
<!-- Node15 -->
<g id="Node000015" class="node">
<title>Node15</title>
<g id="a_Node000015"><a xlink:href="classBPMN_1_1SignalThrowEvent.html" target="_top" xlink:title=" ">
<polygon fill="white" stroke="transparent" points="1076.5,-141.5 942.5,-141.5 942.5,-92.5 1076.5,-92.5 1076.5,-141.5"/>
<text text-anchor="start" x="947.5" y="-129" font-family="Helvetica,sans-Serif" font-size="10.00">BPMN::SignalThrowEvent</text>
<text text-anchor="start" x="1007.5" y="-114" font-family="Helvetica,sans-Serif" font-size="10.00"> </text>
<text text-anchor="start" x="950.5" y="-99" font-family="Helvetica,sans-Serif" font-size="10.00">+</text>
<text text-anchor="start" x="967.5" y="-99" font-family="Helvetica,sans-Serif" font-size="10.00">SignalThrowEvent()</text>
<polygon fill="#666666" stroke="#666666" points="942.5,-124 942.5,-124 1076.5,-124 1076.5,-124 942.5,-124"/>
<polygon fill="#666666" stroke="#666666" points="942.5,-109 942.5,-109 1076.5,-109 1076.5,-109 942.5,-109"/>
<polygon fill="none" stroke="#666666" points="942.5,-92.5 942.5,-141.5 1076.5,-141.5 1076.5,-92.5 942.5,-92.5"/>
</a>
</g>
</g>
<!-- Node1&#45;&gt;Node15 -->
<g id="edge14_Node000001_Node000015" class="edge">
<title>Node1&#45;&gt;Node15</title>
<g id="a_edge14_Node000001_Node000015"><a xlink:title=" ">
<path fill="none" stroke="#63b8ff" d="M757.83,-195.3C806.01,-184.52 874.12,-167.98 932.5,-149 939.35,-146.77 946.47,-144.23 953.48,-141.59"/>
<polygon fill="none" stroke="#63b8ff" points="756.86,-191.93 747.86,-197.52 758.38,-198.77 756.86,-191.93"/>
</a>
</g>
</g>
<!-- Node16 -->
<g id="Node000016" class="node">
<title>Node16</title>
<g id="a_Node000016"><a xlink:href="classBPMN_1_1TerminateEvent.html" target="_top" xlink:title=" ">
<polygon fill="white" stroke="transparent" points="1216.5,-141.5 1094.5,-141.5 1094.5,-92.5 1216.5,-92.5 1216.5,-141.5"/>
<text text-anchor="start" x="1099.5" y="-129" font-family="Helvetica,sans-Serif" font-size="10.00">BPMN::TerminateEvent</text>
<text text-anchor="start" x="1153.5" y="-114" font-family="Helvetica,sans-Serif" font-size="10.00"> </text>
<text text-anchor="start" x="1102.5" y="-99" font-family="Helvetica,sans-Serif" font-size="10.00">+</text>
<text text-anchor="start" x="1119.5" y="-99" font-family="Helvetica,sans-Serif" font-size="10.00">TerminateEvent()</text>
<polygon fill="#666666" stroke="#666666" points="1094.5,-124 1094.5,-124 1216.5,-124 1216.5,-124 1094.5,-124"/>
<polygon fill="#666666" stroke="#666666" points="1094.5,-109 1094.5,-109 1216.5,-109 1216.5,-109 1094.5,-109"/>
<polygon fill="none" stroke="#666666" points="1094.5,-92.5 1094.5,-141.5 1216.5,-141.5 1216.5,-92.5 1094.5,-92.5"/>
</a>
</g>
</g>
<!-- Node1&#45;&gt;Node16 -->
<g id="edge15_Node000001_Node000016" class="edge">
<title>Node1&#45;&gt;Node16</title>
<g id="a_edge15_Node000001_Node000016"><a xlink:title=" ">
<path fill="none" stroke="#63b8ff" d="M757.68,-204.13C835.58,-197.49 972.56,-181.98 1085.5,-149 1092.52,-146.95 1099.75,-144.35 1106.78,-141.53"/>
<polygon fill="none" stroke="#63b8ff" points="757.23,-200.65 747.55,-204.97 757.81,-207.63 757.23,-200.65"/>
</a>
</g>
</g>
<!-- Node17 -->
<g id="Node000017" class="node">
<title>Node17</title>
<g id="a_Node000017"><a xlink:href="classBPMN_1_1UntypedEndEvent.html" target="_top" xlink:title=" ">
<polygon fill="white" stroke="transparent" points="1368,-141.5 1235,-141.5 1235,-92.5 1368,-92.5 1368,-141.5"/>
<text text-anchor="start" x="1240.5" y="-129" font-family="Helvetica,sans-Serif" font-size="10.00">BPMN::UntypedEndEvent</text>
<text text-anchor="start" x="1300" y="-114" font-family="Helvetica,sans-Serif" font-size="10.00"> </text>
<text text-anchor="start" x="1243.5" y="-99" font-family="Helvetica,sans-Serif" font-size="10.00">+</text>
<text text-anchor="start" x="1260.5" y="-99" font-family="Helvetica,sans-Serif" font-size="10.00">UntypedEndEvent()</text>
<polygon fill="#666666" stroke="#666666" points="1235.5,-124 1235.5,-124 1368.5,-124 1368.5,-124 1235.5,-124"/>
<polygon fill="#666666" stroke="#666666" points="1235.5,-109 1235.5,-109 1368.5,-109 1368.5,-109 1235.5,-109"/>
<polygon fill="none" stroke="#666666" points="1235,-92.5 1235,-141.5 1368,-141.5 1368,-92.5 1235,-92.5"/>
</a>
</g>
</g>
<!-- Node1&#45;&gt;Node17 -->
<g id="edge16_Node000001_Node000017" class="edge">
<title>Node1&#45;&gt;Node17</title>
<g id="a_edge16_Node000001_Node000017"><a xlink:title=" ">
<path fill="none" stroke="#63b8ff" d="M757.74,-207.04C857.8,-203.47 1059.98,-191.18 1225.5,-149 1233.23,-147.03 1241.22,-144.44 1248.98,-141.59"/>
<polygon fill="none" stroke="#63b8ff" points="757.38,-203.55 747.51,-207.39 757.62,-210.55 757.38,-203.55"/>
</a>
</g>
</g>
<!-- Node2 -->
<g id="Node000002" class="node">
<title>Node2</title>
<g id="a_Node000002"><a xlink:href="classBPMN_1_1Event.html" target="_top" xlink:title=" ">
<polygon fill="white" stroke="transparent" points="732.5,-319 658.5,-319 658.5,-270 732.5,-270 732.5,-319"/>
<text text-anchor="start" x="663.5" y="-306.5" font-family="Helvetica,sans-Serif" font-size="10.00">BPMN::Event</text>
<text text-anchor="start" x="665.5" y="-291.5" font-family="Helvetica,sans-Serif" font-size="10.00">+</text>
<text text-anchor="start" x="681.5" y="-291.5" font-family="Helvetica,sans-Serif" font-size="10.00">element</text>
<text text-anchor="start" x="665.5" y="-276.5" font-family="Helvetica,sans-Serif" font-size="10.00">+</text>
<text text-anchor="start" x="681.5" y="-276.5" font-family="Helvetica,sans-Serif" font-size="10.00">Event()</text>
<polygon fill="#666666" stroke="#666666" points="658.5,-301.5 658.5,-301.5 732.5,-301.5 732.5,-301.5 658.5,-301.5"/>
<polygon fill="#666666" stroke="#666666" points="658.5,-286.5 658.5,-286.5 679.5,-286.5 679.5,-286.5 658.5,-286.5"/>
<polygon fill="#666666" stroke="#666666" points="679.5,-286.5 679.5,-286.5 732.5,-286.5 732.5,-286.5 679.5,-286.5"/>
<polygon fill="none" stroke="#666666" points="658.5,-270 658.5,-319 732.5,-319 732.5,-270 658.5,-270"/>
</a>
</g>
</g>
<!-- Node2&#45;&gt;Node1 -->
<g id="edge1_Node000001_Node000002" class="edge">
<title>Node2&#45;&gt;Node1</title>
<g id="a_edge1_Node000001_Node000002"><a xlink:title=" ">
<path fill="none" stroke="#63b8ff" d="M695.5,-259.77C695.5,-251.17 695.5,-242.1 695.5,-234.12"/>
<polygon fill="none" stroke="#63b8ff" points="692,-259.94 695.5,-269.94 699,-259.94 692,-259.94"/>
</a>
</g>
</g>
<!-- Node3 -->
<g id="Node000003" class="node">
<title>Node3</title>
<g id="a_Node000003"><a xlink:href="classBPMN_1_1FlowNode.html" target="_top" xlink:title="Base class for BPMN elements that may contain incoming and outgoing sequence flows.">
<polygon fill="white" stroke="transparent" points="743,-449 648,-449 648,-355 743,-355 743,-449"/>
<text text-anchor="start" x="653.5" y="-437" font-family="Helvetica,sans-Serif" font-size="10.00">BPMN::FlowNode</text>
<text text-anchor="start" x="656.5" y="-422" font-family="Helvetica,sans-Serif" font-size="10.00">+</text>
<text text-anchor="start" x="673.5" y="-422" font-family="Helvetica,sans-Serif" font-size="10.00">element</text>
<text text-anchor="start" x="656.5" y="-407" font-family="Helvetica,sans-Serif" font-size="10.00">+</text>
<text text-anchor="start" x="673.5" y="-407" font-family="Helvetica,sans-Serif" font-size="10.00">name</text>
<text text-anchor="start" x="656.5" y="-392" font-family="Helvetica,sans-Serif" font-size="10.00">+</text>
<text text-anchor="start" x="673.5" y="-392" font-family="Helvetica,sans-Serif" font-size="10.00">incoming</text>
<text text-anchor="start" x="656.5" y="-377" font-family="Helvetica,sans-Serif" font-size="10.00">+</text>
<text text-anchor="start" x="673.5" y="-377" font-family="Helvetica,sans-Serif" font-size="10.00">outgoing</text>
<text text-anchor="start" x="656.5" y="-362" font-family="Helvetica,sans-Serif" font-size="10.00">+</text>
<text text-anchor="start" x="673.5" y="-362" font-family="Helvetica,sans-Serif" font-size="10.00">FlowNode()</text>
<polygon fill="#666666" stroke="#666666" points="648.5,-432 648.5,-432 743.5,-432 743.5,-432 648.5,-432"/>
<polygon fill="#666666" stroke="#666666" points="648.5,-372 648.5,-372 671.5,-372 671.5,-372 648.5,-372"/>
<polygon fill="#666666" stroke="#666666" points="671.5,-372 671.5,-372 743.5,-372 743.5,-372 671.5,-372"/>
<polygon fill="none" stroke="#666666" points="648,-355 648,-449 743,-449 743,-355 648,-355"/>
</a>
</g>
</g>
<!-- Node3&#45;&gt;Node2 -->
<g id="edge2_Node000002_Node000003" class="edge">
<title>Node3&#45;&gt;Node2</title>
<g id="a_edge2_Node000002_Node000003"><a xlink:title=" ">
<path fill="none" stroke="#63b8ff" d="M695.5,-344.59C695.5,-335.62 695.5,-326.79 695.5,-319.15"/>
<polygon fill="none" stroke="#63b8ff" points="692,-344.73 695.5,-354.73 699,-344.73 692,-344.73"/>
</a>
</g>
</g>
<!-- Node4 -->
<g id="Node000004" class="node">
<title>Node4</title>
<g id="a_Node000004"><a xlink:href="classBPMN_1_1ChildNode.html" target="_top" xlink:title="Base class for BPMN elements within a Scope.">
<polygon fill="white" stroke="transparent" points="743.5,-564 647.5,-564 647.5,-485 743.5,-485 743.5,-564"/>
<text text-anchor="start" x="652.5" y="-551.5" font-family="Helvetica,sans-Serif" font-size="10.00">BPMN::ChildNode</text>
<text text-anchor="start" x="655.5" y="-536.5" font-family="Helvetica,sans-Serif" font-size="10.00">+</text>
<text text-anchor="start" x="672.5" y="-536.5" font-family="Helvetica,sans-Serif" font-size="10.00">parent</text>
<text text-anchor="start" x="655.5" y="-521.5" font-family="Helvetica,sans-Serif" font-size="10.00">+</text>
<text text-anchor="start" x="672.5" y="-521.5" font-family="Helvetica,sans-Serif" font-size="10.00">ChildNode()</text>
<text text-anchor="start" x="655.5" y="-506.5" font-family="Helvetica,sans-Serif" font-size="10.00">+</text>
<text text-anchor="start" x="672.5" y="-506.5" font-family="Helvetica,sans-Serif" font-size="10.00">ancestor()</text>
<text text-anchor="start" x="655.5" y="-491.5" font-family="Helvetica,sans-Serif" font-size="10.00">+</text>
<text text-anchor="start" x="672.5" y="-491.5" font-family="Helvetica,sans-Serif" font-size="10.00">ancestor()</text>
<polygon fill="#666666" stroke="#666666" points="647.5,-546.5 647.5,-546.5 743.5,-546.5 743.5,-546.5 647.5,-546.5"/>
<polygon fill="#666666" stroke="#666666" points="647.5,-531.5 647.5,-531.5 670.5,-531.5 670.5,-531.5 647.5,-531.5"/>
<polygon fill="#666666" stroke="#666666" points="670.5,-531.5 670.5,-531.5 743.5,-531.5 743.5,-531.5 670.5,-531.5"/>
<polygon fill="none" stroke="#666666" points="647.5,-485 647.5,-564 743.5,-564 743.5,-485 647.5,-485"/>
</a>
</g>
</g>
<!-- Node4&#45;&gt;Node3 -->
<g id="edge3_Node000003_Node000004" class="edge">
<title>Node4&#45;&gt;Node3</title>
<g id="a_edge3_Node000003_Node000004"><a xlink:title=" ">
<path fill="none" stroke="#63b8ff" d="M695.5,-474.68C695.5,-466.3 695.5,-457.61 695.5,-449.29"/>
<polygon fill="none" stroke="#63b8ff" points="692,-474.71 695.5,-484.71 699,-474.71 692,-474.71"/>
</a>
</g>
</g>
<!-- Node5 -->
<g id="Node000005" class="node">
<title>Node5</title>
<g id="a_Node000005"><a xlink:href="classBPMN_1_1Node.html" target="_top" xlink:title="Base class for all nodes in a BPMN model.">
<polygon fill="white" stroke="transparent" points="731,-724 660,-724 660,-600 731,-600 731,-724"/>
<text text-anchor="start" x="665.5" y="-712" font-family="Helvetica,sans-Serif" font-size="10.00">BPMN::Node</text>
<text text-anchor="start" x="665.5" y="-697" font-family="Helvetica,sans-Serif" font-size="10.00">+</text>
<text text-anchor="start" x="679.5" y="-697" font-family="Helvetica,sans-Serif" font-size="10.00">receiving</text>
<text text-anchor="start" x="665.5" y="-682" font-family="Helvetica,sans-Serif" font-size="10.00">+</text>
<text text-anchor="start" x="679.5" y="-682" font-family="Helvetica,sans-Serif" font-size="10.00">sending</text>
<text text-anchor="start" x="665.5" y="-667" font-family="Helvetica,sans-Serif" font-size="10.00">+</text>
<text text-anchor="start" x="679.5" y="-667" font-family="Helvetica,sans-Serif" font-size="10.00">Node()</text>
<text text-anchor="start" x="665.5" y="-652" font-family="Helvetica,sans-Serif" font-size="10.00">+</text>
<text text-anchor="start" x="679.5" y="-652" font-family="Helvetica,sans-Serif" font-size="10.00">find()</text>
<text text-anchor="start" x="665.5" y="-637" font-family="Helvetica,sans-Serif" font-size="10.00">+</text>
<text text-anchor="start" x="679.5" y="-637" font-family="Helvetica,sans-Serif" font-size="10.00">find()</text>
<text text-anchor="start" x="665.5" y="-622" font-family="Helvetica,sans-Serif" font-size="10.00">+</text>
<text text-anchor="start" x="679.5" y="-622" font-family="Helvetica,sans-Serif" font-size="10.00">find_all()</text>
<text text-anchor="start" x="665.5" y="-607" font-family="Helvetica,sans-Serif" font-size="10.00">+</text>
<text text-anchor="start" x="679.5" y="-607" font-family="Helvetica,sans-Serif" font-size="10.00">find_all()</text>
<polygon fill="#666666" stroke="#666666" points="660.5,-707 660.5,-707 731.5,-707 731.5,-707 660.5,-707"/>
<polygon fill="#666666" stroke="#666666" points="660.5,-677 660.5,-677 677.5,-677 677.5,-677 660.5,-677"/>
<polygon fill="#666666" stroke="#666666" points="677.5,-677 677.5,-677 731.5,-677 731.5,-677 677.5,-677"/>
<polygon fill="none" stroke="#666666" points="660,-600 660,-724 731,-724 731,-600 660,-600"/>
</a>
</g>
</g>
<!-- Node5&#45;&gt;Node4 -->
<g id="edge4_Node000004_Node000005" class="edge">
<title>Node5&#45;&gt;Node4</title>
<g id="a_edge4_Node000004_Node000005"><a xlink:title=" ">
<path fill="none" stroke="#63b8ff" d="M695.5,-589.93C695.5,-581.02 695.5,-572.19 695.5,-564.05"/>
<polygon fill="none" stroke="#63b8ff" points="692,-589.99 695.5,-599.99 699,-589.99 692,-589.99"/>
</a>
</g>
</g>
<!-- Node6 -->
<g id="Node000006" class="node">
<title>Node6</title>
<g id="a_Node000006"><a xlink:href="classBPMN_1_1BaseElement.html" target="_top" xlink:title="Base class for all core BPMN elements.">
<polygon fill="white" stroke="transparent" points="753,-899 638,-899 638,-760 753,-760 753,-899"/>
<text text-anchor="start" x="646" y="-886.5" font-family="Helvetica,sans-Serif" font-size="10.00">BPMN::BaseElement</text>
<text text-anchor="start" x="642.5" y="-871.5" font-family="Helvetica,sans-Serif" font-size="10.00">+</text>
<text text-anchor="start" x="655.5" y="-871.5" font-family="Helvetica,sans-Serif" font-size="10.00">element</text>
<text text-anchor="start" x="642.5" y="-856.5" font-family="Helvetica,sans-Serif" font-size="10.00">+</text>
<text text-anchor="start" x="655.5" y="-856.5" font-family="Helvetica,sans-Serif" font-size="10.00">id</text>
<text text-anchor="start" x="642.5" y="-841.5" font-family="Helvetica,sans-Serif" font-size="10.00">+</text>
<text text-anchor="start" x="655.5" y="-841.5" font-family="Helvetica,sans-Serif" font-size="10.00">extensionElements</text>
<text text-anchor="start" x="642.5" y="-826.5" font-family="Helvetica,sans-Serif" font-size="10.00">+</text>
<text text-anchor="start" x="655.5" y="-826.5" font-family="Helvetica,sans-Serif" font-size="10.00">BaseElement()</text>
<text text-anchor="start" x="642.5" y="-811.5" font-family="Helvetica,sans-Serif" font-size="10.00">+</text>
<text text-anchor="start" x="655.5" y="-811.5" font-family="Helvetica,sans-Serif" font-size="10.00">is()</text>
<text text-anchor="start" x="642.5" y="-796.5" font-family="Helvetica,sans-Serif" font-size="10.00">+</text>
<text text-anchor="start" x="655.5" y="-796.5" font-family="Helvetica,sans-Serif" font-size="10.00">is()</text>
<text text-anchor="start" x="642.5" y="-781.5" font-family="Helvetica,sans-Serif" font-size="10.00">+</text>
<text text-anchor="start" x="655.5" y="-781.5" font-family="Helvetica,sans-Serif" font-size="10.00">get()</text>
<text text-anchor="start" x="642.5" y="-766.5" font-family="Helvetica,sans-Serif" font-size="10.00">+</text>
<text text-anchor="start" x="655.5" y="-766.5" font-family="Helvetica,sans-Serif" font-size="10.00">get()</text>
<polygon fill="#666666" stroke="#666666" points="638.5,-881.5 638.5,-881.5 753.5,-881.5 753.5,-881.5 638.5,-881.5"/>
<polygon fill="#666666" stroke="#666666" points="638.5,-836.5 638.5,-836.5 653.5,-836.5 653.5,-836.5 638.5,-836.5"/>
<polygon fill="#666666" stroke="#666666" points="653.5,-836.5 653.5,-836.5 753.5,-836.5 753.5,-836.5 653.5,-836.5"/>
<polygon fill="none" stroke="#666666" points="638,-760 638,-899 753,-899 753,-760 638,-760"/>
</a>
</g>
</g>
<!-- Node6&#45;&gt;Node5 -->
<g id="edge5_Node000005_Node000006" class="edge">
<title>Node6&#45;&gt;Node5</title>
<g id="a_edge5_Node000005_Node000006"><a xlink:title=" ">
<path fill="none" stroke="#63b8ff" d="M695.5,-749.71C695.5,-741.12 695.5,-732.47 695.5,-724.14"/>
<polygon fill="none" stroke="#63b8ff" points="692,-749.75 695.5,-759.75 699,-749.75 692,-749.75"/>
</a>
</g>
</g>
<!-- Node7 -->
<g id="Node000007" class="node">
<title>Node7</title>
<g id="a_Node000007"><a xlink:href="classBPMN_1_1Element.html" target="_top" xlink:title="Abstract base class for all elements in a BPMN model.">
<polygon fill="white" stroke="transparent" points="738.5,-1044 652.5,-1044 652.5,-935 738.5,-935 738.5,-1044"/>
<text text-anchor="start" x="657.5" y="-1031.5" font-family="Helvetica,sans-Serif" font-size="10.00">BPMN::Element</text>
<text text-anchor="start" x="693.5" y="-1016.5" font-family="Helvetica,sans-Serif" font-size="10.00"> </text>
<text text-anchor="start" x="657.5" y="-1001.5" font-family="Helvetica,sans-Serif" font-size="10.00">+</text>
<text text-anchor="start" x="671.5" y="-1001.5" font-family="Helvetica,sans-Serif" font-size="10.00">~Element()</text>
<text text-anchor="start" x="657.5" y="-986.5" font-family="Helvetica,sans-Serif" font-size="10.00">+</text>
<text text-anchor="start" x="671.5" y="-986.5" font-family="Helvetica,sans-Serif" font-size="10.00">represents()</text>
<text text-anchor="start" x="657.5" y="-971.5" font-family="Helvetica,sans-Serif" font-size="10.00">+</text>
<text text-anchor="start" x="671.5" y="-971.5" font-family="Helvetica,sans-Serif" font-size="10.00">represents()</text>
<text text-anchor="start" x="657.5" y="-956.5" font-family="Helvetica,sans-Serif" font-size="10.00">+</text>
<text text-anchor="start" x="671.5" y="-956.5" font-family="Helvetica,sans-Serif" font-size="10.00">as()</text>
<text text-anchor="start" x="657.5" y="-941.5" font-family="Helvetica,sans-Serif" font-size="10.00">+</text>
<text text-anchor="start" x="671.5" y="-941.5" font-family="Helvetica,sans-Serif" font-size="10.00">as()</text>
<polygon fill="#666666" stroke="#666666" points="652.5,-1026.5 652.5,-1026.5 738.5,-1026.5 738.5,-1026.5 652.5,-1026.5"/>
<polygon fill="#666666" stroke="#666666" points="652.5,-1011.5 652.5,-1011.5 738.5,-1011.5 738.5,-1011.5 652.5,-1011.5"/>
<polygon fill="none" stroke="#666666" points="652.5,-935 652.5,-1044 738.5,-1044 738.5,-935 652.5,-935"/>
</a>
</g>
</g>
<!-- Node7&#45;&gt;Node6 -->
<g id="edge6_Node000006_Node000007" class="edge">
<title>Node7&#45;&gt;Node6</title>
<g id="a_edge6_Node000006_Node000007"><a xlink:title=" ">
<path fill="none" stroke="#63b8ff" d="M695.5,-924.55C695.5,-916.23 695.5,-907.67 695.5,-899.28"/>
<polygon fill="none" stroke="#63b8ff" points="692,-924.57 695.5,-934.57 699,-924.57 692,-924.57"/>
</a>
</g>
</g>
<!-- Node14 -->
<g id="Node000014" class="node">
<title>Node14</title>
<g id="a_Node000014"><a xlink:href="classBPMN_1_1SendTask.html" target="_top" xlink:title=" ">
<polygon fill="white" stroke="transparent" points="896.5,-49 804.5,-49 804.5,0 896.5,0 896.5,-49"/>
<text text-anchor="start" x="809.5" y="-36.5" font-family="Helvetica,sans-Serif" font-size="10.00">BPMN::SendTask</text>
<text text-anchor="start" x="812.5" y="-21.5" font-family="Helvetica,sans-Serif" font-size="10.00">+</text>
<text text-anchor="start" x="829.5" y="-21.5" font-family="Helvetica,sans-Serif" font-size="10.00">element</text>
<text text-anchor="start" x="812.5" y="-6.5" font-family="Helvetica,sans-Serif" font-size="10.00">+</text>
<text text-anchor="start" x="829.5" y="-6.5" font-family="Helvetica,sans-Serif" font-size="10.00">SendTask()</text>
<polygon fill="#666666" stroke="#666666" points="804.5,-31.5 804.5,-31.5 896.5,-31.5 896.5,-31.5 804.5,-31.5"/>
<polygon fill="#666666" stroke="#666666" points="804.5,-16.5 804.5,-16.5 827.5,-16.5 827.5,-16.5 804.5,-16.5"/>
<polygon fill="#666666" stroke="#666666" points="827.5,-16.5 827.5,-16.5 896.5,-16.5 896.5,-16.5 827.5,-16.5"/>
<polygon fill="none" stroke="#666666" points="804.5,0 804.5,-49 896.5,-49 896.5,0 804.5,0"/>
</a>
</g>
</g>
<!-- Node13&#45;&gt;Node14 -->
<g id="edge13_Node000013_Node000014" class="edge">
<title>Node13&#45;&gt;Node14</title>
<g id="a_edge13_Node000013_Node000014"><a xlink:title=" ">
<path fill="none" stroke="#63b8ff" d="M850.5,-82.08C850.5,-71.11 850.5,-59.18 850.5,-49.12"/>
<polygon fill="none" stroke="#63b8ff" points="847,-82.22 850.5,-92.22 854,-82.22 847,-82.22"/>
</a>
</g>
</g>
</g>
</svg>
