<?xml version="1.0" encoding="UTF-8" standalone="no"?>
<!DOCTYPE svg PUBLIC "-//W3C//DTD SVG 1.1//EN"
 "http://www.w3.org/Graphics/SVG/1.1/DTD/svg11.dtd">
<!-- Generated by graphviz version 2.43.0 (0)
 -->
<!-- Title: XML::bpmn::sequenceFlow Pages: 1 -->
<svg width="154pt" height="907pt"
 viewBox="0.00 0.00 154.00 907.00" xmlns="http://www.w3.org/2000/svg" xmlns:xlink="http://www.w3.org/1999/xlink">
<g id="graph0" class="graph" transform="scale(1 1) rotate(0) translate(4 903)">
<title>XML::bpmn::sequenceFlow</title>
<!-- Node1 -->
<g id="Node000001" class="node">
<title>Node1</title>
<g id="a_Node000001"><a xlink:title=" ">
<polygon fill="#999999" stroke="transparent" points="143.5,-49 2.5,-49 2.5,0 143.5,0 143.5,-49"/>
<text text-anchor="start" x="8" y="-36.5" font-family="Helvetica,sans-Serif" font-size="10.00">XML::bpmn::sequenceFlow</text>
<text text-anchor="start" x="17.5" y="-21.5" font-family="Helvetica,sans-Serif" font-size="10.00">+</text>
<text text-anchor="start" x="41" y="-21.5" font-family="Helvetica,sans-Serif" font-size="10.00">defaults</text>
<text text-anchor="start" x="17.5" y="-6.5" font-family="Helvetica,sans-Serif" font-size="10.00">#</text>
<text text-anchor="start" x="41" y="-6.5" font-family="Helvetica,sans-Serif" font-size="10.00">sequenceFlow()</text>
<polygon fill="#666666" stroke="#666666" points="3,-31.5 3,-31.5 144,-31.5 144,-31.5 3,-31.5"/>
<polygon fill="#666666" stroke="#666666" points="3,-16.5 3,-16.5 39,-16.5 39,-16.5 3,-16.5"/>
<polygon fill="#666666" stroke="#666666" points="39,-16.5 39,-16.5 144,-16.5 144,-16.5 39,-16.5"/>
<polygon fill="none" stroke="#666666" points="2.5,0 2.5,-49 143.5,-49 143.5,0 2.5,0"/>
</a>
</g>
</g>
<!-- Node2 -->
<g id="Node000002" class="node">
<title>Node2</title>
<g id="a_Node000002"><a xlink:href="classXML_1_1bpmn_1_1tSequenceFlow.html" target="_top" xlink:title=" ">
<polygon fill="white" stroke="transparent" points="146,-194 0,-194 0,-85 146,-85 146,-194"/>
<text text-anchor="start" x="5" y="-181.5" font-family="Helvetica,sans-Serif" font-size="10.00">XML::bpmn::tSequenceFlow</text>
<text text-anchor="start" x="10.5" y="-166.5" font-family="Helvetica,sans-Serif" font-size="10.00">+</text>
<text text-anchor="start" x="30" y="-166.5" font-family="Helvetica,sans-Serif" font-size="10.00">conditionExpression</text>
<text text-anchor="start" x="10.5" y="-151.5" font-family="Helvetica,sans-Serif" font-size="10.00">+</text>
<text text-anchor="start" x="30" y="-151.5" font-family="Helvetica,sans-Serif" font-size="10.00">sourceRef</text>
<text text-anchor="start" x="10.5" y="-136.5" font-family="Helvetica,sans-Serif" font-size="10.00">+</text>
<text text-anchor="start" x="30" y="-136.5" font-family="Helvetica,sans-Serif" font-size="10.00">targetRef</text>
<text text-anchor="start" x="10.5" y="-121.5" font-family="Helvetica,sans-Serif" font-size="10.00">+</text>
<text text-anchor="start" x="30" y="-121.5" font-family="Helvetica,sans-Serif" font-size="10.00">isImmediate</text>
<text text-anchor="start" x="10.5" y="-106.5" font-family="Helvetica,sans-Serif" font-size="10.00">+</text>
<text text-anchor="start" x="30" y="-106.5" font-family="Helvetica,sans-Serif" font-size="10.00">defaults</text>
<text text-anchor="start" x="10.5" y="-91.5" font-family="Helvetica,sans-Serif" font-size="10.00">#</text>
<text text-anchor="start" x="30" y="-91.5" font-family="Helvetica,sans-Serif" font-size="10.00">tSequenceFlow()</text>
<polygon fill="#666666" stroke="#666666" points="0,-176.5 0,-176.5 146,-176.5 146,-176.5 0,-176.5"/>
<polygon fill="#666666" stroke="#666666" points="0,-101.5 0,-101.5 28,-101.5 28,-101.5 0,-101.5"/>
<polygon fill="#666666" stroke="#666666" points="28,-101.5 28,-101.5 146,-101.5 146,-101.5 28,-101.5"/>
<polygon fill="none" stroke="#666666" points="0,-85 0,-194 146,-194 146,-85 0,-85"/>
</a>
</g>
</g>
<!-- Node2&#45;&gt;Node1 -->
<g id="edge1_Node000001_Node000002" class="edge">
<title>Node2&#45;&gt;Node1</title>
<g id="a_edge1_Node000001_Node000002"><a xlink:title=" ">
<path fill="none" stroke="#63b8ff" d="M73,-74.69C73,-65.63 73,-56.82 73,-49.23"/>
<polygon fill="none" stroke="#63b8ff" points="69.5,-74.98 73,-84.98 76.5,-74.98 69.5,-74.98"/>
</a>
</g>
</g>
<!-- Node3 -->
<g id="Node000003" class="node">
<title>Node3</title>
<g id="a_Node000003"><a xlink:href="classXML_1_1bpmn_1_1tFlowElement.html" target="_top" xlink:title=" ">
<polygon fill="white" stroke="transparent" points="142.5,-339 3.5,-339 3.5,-230 142.5,-230 142.5,-339"/>
<text text-anchor="start" x="9" y="-326.5" font-family="Helvetica,sans-Serif" font-size="10.00">XML::bpmn::tFlowElement</text>
<text text-anchor="start" x="15.5" y="-311.5" font-family="Helvetica,sans-Serif" font-size="10.00">+</text>
<text text-anchor="start" x="36" y="-311.5" font-family="Helvetica,sans-Serif" font-size="10.00">auditing</text>
<text text-anchor="start" x="15.5" y="-296.5" font-family="Helvetica,sans-Serif" font-size="10.00">+</text>
<text text-anchor="start" x="36" y="-296.5" font-family="Helvetica,sans-Serif" font-size="10.00">monitoring</text>
<text text-anchor="start" x="15.5" y="-281.5" font-family="Helvetica,sans-Serif" font-size="10.00">+</text>
<text text-anchor="start" x="36" y="-281.5" font-family="Helvetica,sans-Serif" font-size="10.00">categoryValueRef</text>
<text text-anchor="start" x="15.5" y="-266.5" font-family="Helvetica,sans-Serif" font-size="10.00">+</text>
<text text-anchor="start" x="36" y="-266.5" font-family="Helvetica,sans-Serif" font-size="10.00">name</text>
<text text-anchor="start" x="15.5" y="-251.5" font-family="Helvetica,sans-Serif" font-size="10.00">+</text>
<text text-anchor="start" x="36" y="-251.5" font-family="Helvetica,sans-Serif" font-size="10.00">defaults</text>
<text text-anchor="start" x="15.5" y="-236.5" font-family="Helvetica,sans-Serif" font-size="10.00">#</text>
<text text-anchor="start" x="36" y="-236.5" font-family="Helvetica,sans-Serif" font-size="10.00">tFlowElement()</text>
<polygon fill="#666666" stroke="#666666" points="4,-321.5 4,-321.5 143,-321.5 143,-321.5 4,-321.5"/>
<polygon fill="#666666" stroke="#666666" points="4,-246.5 4,-246.5 34,-246.5 34,-246.5 4,-246.5"/>
<polygon fill="#666666" stroke="#666666" points="34,-246.5 34,-246.5 143,-246.5 143,-246.5 34,-246.5"/>
<polygon fill="none" stroke="#666666" points="3.5,-230 3.5,-339 142.5,-339 142.5,-230 3.5,-230"/>
</a>
</g>
</g>
<!-- Node3&#45;&gt;Node2 -->
<g id="edge2_Node000002_Node000003" class="edge">
<title>Node3&#45;&gt;Node2</title>
<g id="a_edge2_Node000002_Node000003"><a xlink:title=" ">
<path fill="none" stroke="#63b8ff" d="M73,-219.68C73,-211.25 73,-202.69 73,-194.46"/>
<polygon fill="none" stroke="#63b8ff" points="69.5,-219.85 73,-229.85 76.5,-219.85 69.5,-219.85"/>
</a>
</g>
</g>
<!-- Node4 -->
<g id="Node000004" class="node">
<title>Node4</title>
<g id="a_Node000004"><a xlink:href="classXML_1_1bpmn_1_1tBaseElement.html" target="_top" xlink:title=" ">
<polygon fill="white" stroke="transparent" points="143,-469 3,-469 3,-375 143,-375 143,-469"/>
<text text-anchor="start" x="8" y="-457" font-family="Helvetica,sans-Serif" font-size="10.00">XML::bpmn::tBaseElement</text>
<text text-anchor="start" x="13" y="-442" font-family="Helvetica,sans-Serif" font-size="10.00">+</text>
<text text-anchor="start" x="32" y="-442" font-family="Helvetica,sans-Serif" font-size="10.00">documentation</text>
<text text-anchor="start" x="13" y="-427" font-family="Helvetica,sans-Serif" font-size="10.00">+</text>
<text text-anchor="start" x="32" y="-427" font-family="Helvetica,sans-Serif" font-size="10.00">extensionElements</text>
<text text-anchor="start" x="13" y="-412" font-family="Helvetica,sans-Serif" font-size="10.00">+</text>
<text text-anchor="start" x="32" y="-412" font-family="Helvetica,sans-Serif" font-size="10.00">id</text>
<text text-anchor="start" x="13" y="-397" font-family="Helvetica,sans-Serif" font-size="10.00">+</text>
<text text-anchor="start" x="32" y="-397" font-family="Helvetica,sans-Serif" font-size="10.00">defaults</text>
<text text-anchor="start" x="13" y="-382" font-family="Helvetica,sans-Serif" font-size="10.00">#</text>
<text text-anchor="start" x="32" y="-382" font-family="Helvetica,sans-Serif" font-size="10.00">tBaseElement()</text>
<polygon fill="#666666" stroke="#666666" points="3,-452 3,-452 143,-452 143,-452 3,-452"/>
<polygon fill="#666666" stroke="#666666" points="3,-392 3,-392 30,-392 30,-392 3,-392"/>
<polygon fill="#666666" stroke="#666666" points="30,-392 30,-392 143,-392 143,-392 30,-392"/>
<polygon fill="none" stroke="#666666" points="3,-375 3,-469 143,-469 143,-375 3,-375"/>
</a>
</g>
</g>
<!-- Node4&#45;&gt;Node3 -->
<g id="edge3_Node000003_Node000004" class="edge">
<title>Node4&#45;&gt;Node3</title>
<g id="a_edge3_Node000003_Node000004"><a xlink:title=" ">
<path fill="none" stroke="#63b8ff" d="M73,-364.58C73,-356.12 73,-347.41 73,-339.01"/>
<polygon fill="none" stroke="#63b8ff" points="69.5,-364.75 73,-374.75 76.5,-364.75 69.5,-364.75"/>
</a>
</g>
</g>
<!-- Node5 -->
<g id="Node000005" class="node">
<title>Node5</title>
<g id="a_Node000005"><a xlink:href="classXML_1_1XMLObject.html" target="_top" xlink:title="A class representing a node in an XML&#45;tree.">
<polygon fill="white" stroke="transparent" points="133,-899 13,-899 13,-505 133,-505 133,-899"/>
<text text-anchor="start" x="33" y="-887" font-family="Helvetica,sans-Serif" font-size="10.00">XML::XMLObject</text>
<text text-anchor="start" x="17" y="-872" font-family="Helvetica,sans-Serif" font-size="10.00">+</text>
<text text-anchor="start" x="30" y="-872" font-family="Helvetica,sans-Serif" font-size="10.00">xmlns</text>
<text text-anchor="start" x="17" y="-857" font-family="Helvetica,sans-Serif" font-size="10.00">+</text>
<text text-anchor="start" x="30" y="-857" font-family="Helvetica,sans-Serif" font-size="10.00">className</text>
<text text-anchor="start" x="17" y="-842" font-family="Helvetica,sans-Serif" font-size="10.00">+</text>
<text text-anchor="start" x="30" y="-842" font-family="Helvetica,sans-Serif" font-size="10.00">prefix</text>
<text text-anchor="start" x="17" y="-827" font-family="Helvetica,sans-Serif" font-size="10.00">+</text>
<text text-anchor="start" x="30" y="-827" font-family="Helvetica,sans-Serif" font-size="10.00">elementName</text>
<text text-anchor="start" x="17" y="-812" font-family="Helvetica,sans-Serif" font-size="10.00">+</text>
<text text-anchor="start" x="30" y="-812" font-family="Helvetica,sans-Serif" font-size="10.00">textContent</text>
<text text-anchor="start" x="17" y="-797" font-family="Helvetica,sans-Serif" font-size="10.00">+</text>
<text text-anchor="start" x="30" y="-797" font-family="Helvetica,sans-Serif" font-size="10.00">children</text>
<text text-anchor="start" x="17" y="-782" font-family="Helvetica,sans-Serif" font-size="10.00">+</text>
<text text-anchor="start" x="30" y="-782" font-family="Helvetica,sans-Serif" font-size="10.00">attributes</text>
<text text-anchor="start" x="17" y="-767" font-family="Helvetica,sans-Serif" font-size="10.00">+</text>
<text text-anchor="start" x="30" y="-767" font-family="Helvetica,sans-Serif" font-size="10.00">defaults</text>
<text text-anchor="start" x="17" y="-752" font-family="Helvetica,sans-Serif" font-size="10.00">#</text>
<text text-anchor="start" x="30" y="-752" font-family="Helvetica,sans-Serif" font-size="10.00">factory</text>
<text text-anchor="start" x="17" y="-737" font-family="Helvetica,sans-Serif" font-size="10.00">+</text>
<text text-anchor="start" x="30" y="-737" font-family="Helvetica,sans-Serif" font-size="10.00">~XMLObject()</text>
<text text-anchor="start" x="17" y="-722" font-family="Helvetica,sans-Serif" font-size="10.00">+</text>
<text text-anchor="start" x="30" y="-722" font-family="Helvetica,sans-Serif" font-size="10.00">is()</text>
<text text-anchor="start" x="17" y="-707" font-family="Helvetica,sans-Serif" font-size="10.00">+</text>
<text text-anchor="start" x="30" y="-707" font-family="Helvetica,sans-Serif" font-size="10.00">is()</text>
<text text-anchor="start" x="17" y="-692" font-family="Helvetica,sans-Serif" font-size="10.00">+</text>
<text text-anchor="start" x="30" y="-692" font-family="Helvetica,sans-Serif" font-size="10.00">get()</text>
<text text-anchor="start" x="17" y="-677" font-family="Helvetica,sans-Serif" font-size="10.00">+</text>
<text text-anchor="start" x="30" y="-677" font-family="Helvetica,sans-Serif" font-size="10.00">get()</text>
<text text-anchor="start" x="17" y="-662" font-family="Helvetica,sans-Serif" font-size="10.00">+</text>
<text text-anchor="start" x="30" y="-662" font-family="Helvetica,sans-Serif" font-size="10.00">find()</text>
<text text-anchor="start" x="17" y="-647" font-family="Helvetica,sans-Serif" font-size="10.00">+</text>
<text text-anchor="start" x="30" y="-647" font-family="Helvetica,sans-Serif" font-size="10.00">find()</text>
<text text-anchor="start" x="17" y="-632" font-family="Helvetica,sans-Serif" font-size="10.00">+</text>
<text text-anchor="start" x="30" y="-632" font-family="Helvetica,sans-Serif" font-size="10.00">stringify()</text>
<text text-anchor="start" x="17" y="-617" font-family="Helvetica,sans-Serif" font-size="10.00">+</text>
<text text-anchor="start" x="30" y="-617" font-family="Helvetica,sans-Serif" font-size="10.00">format()</text>
<text text-anchor="start" x="17" y="-602" font-family="Helvetica,sans-Serif" font-size="10.00">+</text>
<text text-anchor="start" x="30" y="-602" font-family="Helvetica,sans-Serif" font-size="10.00">getRequiredChild()</text>
<text text-anchor="start" x="30" y="-587" font-family="Helvetica,sans-Serif" font-size="10.00">and 7 more...</text>
<text text-anchor="start" x="17" y="-572" font-family="Helvetica,sans-Serif" font-size="10.00">+</text>
<text text-anchor="start" x="30" y="-572" font-family="Helvetica,sans-Serif" font-size="10.00">createFromStream()</text>
<text text-anchor="start" x="17" y="-557" font-family="Helvetica,sans-Serif" font-size="10.00">+</text>
<text text-anchor="start" x="30" y="-557" font-family="Helvetica,sans-Serif" font-size="10.00">createFromString()</text>
<text text-anchor="start" x="17" y="-542" font-family="Helvetica,sans-Serif" font-size="10.00">+</text>
<text text-anchor="start" x="30" y="-542" font-family="Helvetica,sans-Serif" font-size="10.00">createFromFile()</text>
<text text-anchor="start" x="17" y="-527" font-family="Helvetica,sans-Serif" font-size="10.00">#</text>
<text text-anchor="start" x="30" y="-527" font-family="Helvetica,sans-Serif" font-size="10.00">XMLObject()</text>
<text text-anchor="start" x="17" y="-512" font-family="Helvetica,sans-Serif" font-size="10.00">#</text>
<text text-anchor="start" x="30" y="-512" font-family="Helvetica,sans-Serif" font-size="10.00">createObject()</text>
<polygon fill="#666666" stroke="#666666" points="13,-882 13,-882 133,-882 133,-882 13,-882"/>
<polygon fill="#666666" stroke="#666666" points="13,-747 13,-747 28,-747 28,-747 13,-747"/>
<polygon fill="#666666" stroke="#666666" points="28,-747 28,-747 133,-747 133,-747 28,-747"/>
<polygon fill="none" stroke="#666666" points="13,-505 13,-899 133,-899 133,-505 13,-505"/>
</a>
</g>
</g>
<!-- Node5&#45;&gt;Node4 -->
<g id="edge4_Node000004_Node000005" class="edge">
<title>Node5&#45;&gt;Node4</title>
<g id="a_edge4_Node000004_Node000005"><a xlink:title=" ">
<path fill="none" stroke="#63b8ff" d="M73,-494.78C73,-485.62 73,-476.97 73,-469.06"/>
<polygon fill="none" stroke="#63b8ff" points="69.5,-494.91 73,-504.91 76.5,-494.91 69.5,-494.91"/>
</a>
</g>
</g>
</g>
</svg>
