<?xml version="1.0" encoding="UTF-8" standalone="no"?>
<!DOCTYPE svg PUBLIC "-//W3C//DTD SVG 1.1//EN"
 "http://www.w3.org/Graphics/SVG/1.1/DTD/svg11.dtd">
<!-- Generated by graphviz version 2.43.0 (0)
 -->
<!-- Title: BPMN::CompensateStartEvent Pages: 1 -->
<svg width="172pt" height="1016pt"
 viewBox="0.00 0.00 172.00 1016.00" xmlns="http://www.w3.org/2000/svg" xmlns:xlink="http://www.w3.org/1999/xlink">
<g id="graph0" class="graph" transform="scale(1 1) rotate(0) translate(4 1012)">
<title>BPMN::CompensateStartEvent</title>
<!-- Node1 -->
<g id="node1" class="node">
<title>Node1</title>
<g id="a_node1"><a xlink:title=" ">
<polygon fill="#bfbfbf" stroke="black" points="0,-0.5 0,-57.5 164,-57.5 164,-0.5 0,-0.5"/>
<text text-anchor="middle" x="82" y="-45.5" font-family="Helvetica,sans-Serif" font-size="10.00">BPMN::CompensateStartEvent</text>
<polyline fill="none" stroke="black" points="0,-38.5 164,-38.5 "/>
<text text-anchor="middle" x="82" y="-26.5" font-family="Helvetica,sans-Serif" font-size="10.00"> </text>
<polyline fill="none" stroke="black" points="0,-19.5 164,-19.5 "/>
<text text-anchor="start" x="8" y="-7.5" font-family="Helvetica,sans-Serif" font-size="10.00">+ CompensateStartEvent()</text>
</a>
</g>
</g>
<!-- Node2 -->
<g id="node2" class="node">
<title>Node2</title>
<g id="a_node2"><a xlink:href="classBPMN_1_1TypedStartEvent.html" target="_top" xlink:title="Base class for all start events with an event definition.">
<polygon fill="none" stroke="black" points="16.5,-94.5 16.5,-151.5 147.5,-151.5 147.5,-94.5 16.5,-94.5"/>
<text text-anchor="middle" x="82" y="-139.5" font-family="Helvetica,sans-Serif" font-size="10.00">BPMN::TypedStartEvent</text>
<polyline fill="none" stroke="black" points="16.5,-132.5 147.5,-132.5 "/>
<text text-anchor="start" x="24.5" y="-120.5" font-family="Helvetica,sans-Serif" font-size="10.00">+ isInterrupting</text>
<polyline fill="none" stroke="black" points="16.5,-113.5 147.5,-113.5 "/>
<text text-anchor="start" x="24.5" y="-101.5" font-family="Helvetica,sans-Serif" font-size="10.00">+ TypedStartEvent()</text>
</a>
</g>
</g>
<!-- Node2&#45;&gt;Node1 -->
<g id="edge1" class="edge">
<title>Node2&#45;&gt;Node1</title>
<path fill="none" stroke="midnightblue" d="M82,-84.21C82,-75.29 82,-65.95 82,-57.58"/>
<polygon fill="none" stroke="midnightblue" points="78.5,-84.4 82,-94.4 85.5,-84.4 78.5,-84.4"/>
</g>
<!-- Node3 -->
<g id="node3" class="node">
<title>Node3</title>
<g id="a_node3"><a xlink:href="classBPMN_1_1CatchEvent.html" target="_top" xlink:title=" ">
<polygon fill="none" stroke="black" points="28.5,-188.5 28.5,-245.5 135.5,-245.5 135.5,-188.5 28.5,-188.5"/>
<text text-anchor="middle" x="82" y="-233.5" font-family="Helvetica,sans-Serif" font-size="10.00">BPMN::CatchEvent</text>
<polyline fill="none" stroke="black" points="28.5,-226.5 135.5,-226.5 "/>
<text text-anchor="start" x="36.5" y="-214.5" font-family="Helvetica,sans-Serif" font-size="10.00">+ element</text>
<polyline fill="none" stroke="black" points="28.5,-207.5 135.5,-207.5 "/>
<text text-anchor="start" x="36.5" y="-195.5" font-family="Helvetica,sans-Serif" font-size="10.00">+ CatchEvent()</text>
</a>
</g>
</g>
<!-- Node3&#45;&gt;Node2 -->
<g id="edge2" class="edge">
<title>Node3&#45;&gt;Node2</title>
<path fill="none" stroke="midnightblue" d="M82,-178.21C82,-169.29 82,-159.95 82,-151.58"/>
<polygon fill="none" stroke="midnightblue" points="78.5,-178.4 82,-188.4 85.5,-178.4 78.5,-178.4"/>
</g>
<!-- Node4 -->
<g id="node4" class="node">
<title>Node4</title>
<g id="a_node4"><a xlink:href="classBPMN_1_1Event.html" target="_top" xlink:title=" ">
<polygon fill="none" stroke="black" points="42,-282.5 42,-339.5 122,-339.5 122,-282.5 42,-282.5"/>
<text text-anchor="middle" x="82" y="-327.5" font-family="Helvetica,sans-Serif" font-size="10.00">BPMN::Event</text>
<polyline fill="none" stroke="black" points="42,-320.5 122,-320.5 "/>
<text text-anchor="start" x="50" y="-308.5" font-family="Helvetica,sans-Serif" font-size="10.00">+ element</text>
<polyline fill="none" stroke="black" points="42,-301.5 122,-301.5 "/>
<text text-anchor="start" x="50" y="-289.5" font-family="Helvetica,sans-Serif" font-size="10.00">+ Event()</text>
</a>
</g>
</g>
<!-- Node4&#45;&gt;Node3 -->
<g id="edge3" class="edge">
<title>Node4&#45;&gt;Node3</title>
<path fill="none" stroke="midnightblue" d="M82,-272.21C82,-263.29 82,-253.95 82,-245.58"/>
<polygon fill="none" stroke="midnightblue" points="78.5,-272.4 82,-282.4 85.5,-272.4 78.5,-272.4"/>
</g>
<!-- Node5 -->
<g id="node5" class="node">
<title>Node5</title>
<g id="a_node5"><a xlink:href="classBPMN_1_1FlowNode.html" target="_top" xlink:title="Base class for BPMN elements that may contain incoming and outgoing sequence flows.">
<polygon fill="none" stroke="black" points="31.5,-376.5 31.5,-466.5 132.5,-466.5 132.5,-376.5 31.5,-376.5"/>
<text text-anchor="middle" x="82" y="-454.5" font-family="Helvetica,sans-Serif" font-size="10.00">BPMN::FlowNode</text>
<polyline fill="none" stroke="black" points="31.5,-447.5 132.5,-447.5 "/>
<text text-anchor="start" x="39.5" y="-435.5" font-family="Helvetica,sans-Serif" font-size="10.00">+ element</text>
<text text-anchor="start" x="39.5" y="-424.5" font-family="Helvetica,sans-Serif" font-size="10.00">+ name</text>
<text text-anchor="start" x="39.5" y="-413.5" font-family="Helvetica,sans-Serif" font-size="10.00">+ incoming</text>
<text text-anchor="start" x="39.5" y="-402.5" font-family="Helvetica,sans-Serif" font-size="10.00">+ outgoing</text>
<polyline fill="none" stroke="black" points="31.5,-395.5 132.5,-395.5 "/>
<text text-anchor="start" x="39.5" y="-383.5" font-family="Helvetica,sans-Serif" font-size="10.00">+ FlowNode()</text>
</a>
</g>
</g>
<!-- Node5&#45;&gt;Node4 -->
<g id="edge4" class="edge">
<title>Node5&#45;&gt;Node4</title>
<path fill="none" stroke="midnightblue" d="M82,-366.35C82,-357.07 82,-347.79 82,-339.59"/>
<polygon fill="none" stroke="midnightblue" points="78.5,-366.37 82,-376.37 85.5,-366.37 78.5,-366.37"/>
</g>
<!-- Node6 -->
<g id="node6" class="node">
<title>Node6</title>
<g id="a_node6"><a xlink:href="classBPMN_1_1ChildNode.html" target="_top" xlink:title="Base class for BPMN elements within a Scope.">
<polygon fill="none" stroke="black" points="31,-503.5 31,-560.5 133,-560.5 133,-503.5 31,-503.5"/>
<text text-anchor="middle" x="82" y="-548.5" font-family="Helvetica,sans-Serif" font-size="10.00">BPMN::ChildNode</text>
<polyline fill="none" stroke="black" points="31,-541.5 133,-541.5 "/>
<text text-anchor="start" x="39" y="-529.5" font-family="Helvetica,sans-Serif" font-size="10.00">+ parent</text>
<polyline fill="none" stroke="black" points="31,-522.5 133,-522.5 "/>
<text text-anchor="start" x="39" y="-510.5" font-family="Helvetica,sans-Serif" font-size="10.00">+ ChildNode()</text>
</a>
</g>
</g>
<!-- Node6&#45;&gt;Node5 -->
<g id="edge5" class="edge">
<title>Node6&#45;&gt;Node5</title>
<path fill="none" stroke="midnightblue" d="M82,-493.21C82,-484.61 82,-475.39 82,-466.55"/>
<polygon fill="none" stroke="midnightblue" points="78.5,-493.34 82,-503.34 85.5,-493.34 78.5,-493.34"/>
</g>
<!-- Node7 -->
<g id="node7" class="node">
<title>Node7</title>
<g id="a_node7"><a xlink:href="classBPMN_1_1Node.html" target="_top" xlink:title="Base class for all nodes in a BPMN model.">
<polygon fill="none" stroke="black" points="43.5,-597.5 43.5,-709.5 120.5,-709.5 120.5,-597.5 43.5,-597.5"/>
<text text-anchor="middle" x="82" y="-697.5" font-family="Helvetica,sans-Serif" font-size="10.00">BPMN::Node</text>
<polyline fill="none" stroke="black" points="43.5,-690.5 120.5,-690.5 "/>
<text text-anchor="start" x="51.5" y="-678.5" font-family="Helvetica,sans-Serif" font-size="10.00">+ receiving</text>
<text text-anchor="start" x="51.5" y="-667.5" font-family="Helvetica,sans-Serif" font-size="10.00">+ sending</text>
<polyline fill="none" stroke="black" points="43.5,-660.5 120.5,-660.5 "/>
<text text-anchor="start" x="51.5" y="-648.5" font-family="Helvetica,sans-Serif" font-size="10.00">+ Node()</text>
<text text-anchor="start" x="51.5" y="-637.5" font-family="Helvetica,sans-Serif" font-size="10.00">+ find()</text>
<text text-anchor="start" x="51.5" y="-626.5" font-family="Helvetica,sans-Serif" font-size="10.00">+ find()</text>
<text text-anchor="start" x="51.5" y="-615.5" font-family="Helvetica,sans-Serif" font-size="10.00">+ find_all()</text>
<text text-anchor="start" x="51.5" y="-604.5" font-family="Helvetica,sans-Serif" font-size="10.00">+ find_all()</text>
</a>
</g>
</g>
<!-- Node7&#45;&gt;Node6 -->
<g id="edge6" class="edge">
<title>Node7&#45;&gt;Node6</title>
<path fill="none" stroke="midnightblue" d="M82,-587.15C82,-577.82 82,-568.67 82,-560.63"/>
<polygon fill="none" stroke="midnightblue" points="78.5,-587.3 82,-597.3 85.5,-587.3 78.5,-587.3"/>
</g>
<!-- Node8 -->
<g id="node8" class="node">
<title>Node8</title>
<g id="a_node8"><a xlink:href="classBPMN_1_1BaseElement.html" target="_top" xlink:title="Base class for all core BPMN elements.">
<polygon fill="none" stroke="black" points="21,-746.5 21,-869.5 143,-869.5 143,-746.5 21,-746.5"/>
<text text-anchor="middle" x="82" y="-857.5" font-family="Helvetica,sans-Serif" font-size="10.00">BPMN::BaseElement</text>
<polyline fill="none" stroke="black" points="21,-850.5 143,-850.5 "/>
<text text-anchor="start" x="29" y="-838.5" font-family="Helvetica,sans-Serif" font-size="10.00">+ element</text>
<text text-anchor="start" x="29" y="-827.5" font-family="Helvetica,sans-Serif" font-size="10.00">+ id</text>
<text text-anchor="start" x="29" y="-816.5" font-family="Helvetica,sans-Serif" font-size="10.00">+ extensionElements</text>
<polyline fill="none" stroke="black" points="21,-809.5 143,-809.5 "/>
<text text-anchor="start" x="29" y="-797.5" font-family="Helvetica,sans-Serif" font-size="10.00">+ BaseElement()</text>
<text text-anchor="start" x="29" y="-786.5" font-family="Helvetica,sans-Serif" font-size="10.00">+ is()</text>
<text text-anchor="start" x="29" y="-775.5" font-family="Helvetica,sans-Serif" font-size="10.00">+ is()</text>
<text text-anchor="start" x="29" y="-764.5" font-family="Helvetica,sans-Serif" font-size="10.00">+ get()</text>
<text text-anchor="start" x="29" y="-753.5" font-family="Helvetica,sans-Serif" font-size="10.00">+ get()</text>
</a>
</g>
</g>
<!-- Node8&#45;&gt;Node7 -->
<g id="edge7" class="edge">
<title>Node8&#45;&gt;Node7</title>
<path fill="none" stroke="midnightblue" d="M82,-736.25C82,-727.29 82,-718.23 82,-709.56"/>
<polygon fill="none" stroke="midnightblue" points="78.5,-736.29 82,-746.29 85.5,-736.29 78.5,-736.29"/>
</g>
<!-- Node9 -->
<g id="node9" class="node">
<title>Node9</title>
<g id="a_node9"><a xlink:href="classBPMN_1_1Element.html" target="_top" xlink:title="Abstract base class for all elements in a BPMN model.">
<polygon fill="none" stroke="black" points="36,-906.5 36,-1007.5 128,-1007.5 128,-906.5 36,-906.5"/>
<text text-anchor="middle" x="82" y="-995.5" font-family="Helvetica,sans-Serif" font-size="10.00">BPMN::Element</text>
<polyline fill="none" stroke="black" points="36,-988.5 128,-988.5 "/>
<text text-anchor="middle" x="82" y="-976.5" font-family="Helvetica,sans-Serif" font-size="10.00"> </text>
<polyline fill="none" stroke="black" points="36,-969.5 128,-969.5 "/>
<text text-anchor="start" x="44" y="-957.5" font-family="Helvetica,sans-Serif" font-size="10.00">+ ~Element()</text>
<text text-anchor="start" x="44" y="-946.5" font-family="Helvetica,sans-Serif" font-size="10.00">+ represents()</text>
<text text-anchor="start" x="44" y="-935.5" font-family="Helvetica,sans-Serif" font-size="10.00">+ represents()</text>
<text text-anchor="start" x="44" y="-924.5" font-family="Helvetica,sans-Serif" font-size="10.00">+ as()</text>
<text text-anchor="start" x="44" y="-913.5" font-family="Helvetica,sans-Serif" font-size="10.00">+ as()</text>
</a>
</g>
</g>
<!-- Node9&#45;&gt;Node8 -->
<g id="edge8" class="edge">
<title>Node9&#45;&gt;Node8</title>
<path fill="none" stroke="midnightblue" d="M82,-896.14C82,-887.41 82,-878.42 82,-869.67"/>
<polygon fill="none" stroke="midnightblue" points="78.5,-896.23 82,-906.23 85.5,-896.23 78.5,-896.23"/>
</g>
</g>
</svg>
