<?xml version="1.0" encoding="UTF-8" standalone="no"?>
<!DOCTYPE svg PUBLIC "-//W3C//DTD SVG 1.1//EN"
 "http://www.w3.org/Graphics/SVG/1.1/DTD/svg11.dtd">
<!-- Generated by graphviz version 2.43.0 (0)
 -->
<!-- Title: XML::bpmn::tResourceRole Pages: 1 -->
<svg width="399pt" height="960pt"
 viewBox="0.00 0.00 398.50 960.00" xmlns="http://www.w3.org/2000/svg" xmlns:xlink="http://www.w3.org/1999/xlink">
<g id="graph0" class="graph" transform="scale(1 1) rotate(0) translate(4 956)">
<title>XML::bpmn::tResourceRole</title>
<!-- Node1 -->
<g id="node1" class="node">
<title>Node1</title>
<g id="a_node1"><a xlink:title=" ">
<polygon fill="#bfbfbf" stroke="black" points="57,-376.5 57,-477.5 238,-477.5 238,-376.5 57,-376.5"/>
<text text-anchor="middle" x="147.5" y="-465.5" font-family="Helvetica,sans-Serif" font-size="10.00">XML::bpmn::tResourceRole</text>
<polyline fill="none" stroke="black" points="57,-458.5 238,-458.5 "/>
<text text-anchor="start" x="65" y="-446.5" font-family="Helvetica,sans-Serif" font-size="10.00">+ resourceAssignmentExpression</text>
<text text-anchor="start" x="65" y="-435.5" font-family="Helvetica,sans-Serif" font-size="10.00">+ resourceRef</text>
<text text-anchor="start" x="65" y="-424.5" font-family="Helvetica,sans-Serif" font-size="10.00">+ resourceParameterBinding</text>
<text text-anchor="start" x="65" y="-413.5" font-family="Helvetica,sans-Serif" font-size="10.00">+ name</text>
<text text-anchor="start" x="65" y="-402.5" font-family="Helvetica,sans-Serif" font-size="10.00">+ defaults</text>
<polyline fill="none" stroke="black" points="57,-395.5 238,-395.5 "/>
<text text-anchor="start" x="65" y="-383.5" font-family="Helvetica,sans-Serif" font-size="10.00"># tResourceRole()</text>
</a>
</g>
</g>
<!-- Node4 -->
<g id="node4" class="node">
<title>Node4</title>
<g id="a_node4"><a xlink:href="classXML_1_1bpmn_1_1resourceRole.html" target="_top" xlink:title=" ">
<polygon fill="none" stroke="black" points="0,-282.5 0,-339.5 141,-339.5 141,-282.5 0,-282.5"/>
<text text-anchor="middle" x="70.5" y="-327.5" font-family="Helvetica,sans-Serif" font-size="10.00">XML::bpmn::resourceRole</text>
<polyline fill="none" stroke="black" points="0,-320.5 141,-320.5 "/>
<text text-anchor="start" x="8" y="-308.5" font-family="Helvetica,sans-Serif" font-size="10.00">+ defaults</text>
<polyline fill="none" stroke="black" points="0,-301.5 141,-301.5 "/>
<text text-anchor="start" x="8" y="-289.5" font-family="Helvetica,sans-Serif" font-size="10.00"># resourceRole()</text>
</a>
</g>
</g>
<!-- Node1&#45;&gt;Node4 -->
<g id="edge3" class="edge">
<title>Node1&#45;&gt;Node4</title>
<path fill="none" stroke="midnightblue" d="M108.34,-368.02C101.64,-358.1 94.97,-348.23 89.13,-339.59"/>
<polygon fill="none" stroke="midnightblue" points="105.45,-370 113.95,-376.33 111.25,-366.08 105.45,-370"/>
</g>
<!-- Node5 -->
<g id="node5" class="node">
<title>Node5</title>
<g id="a_node5"><a xlink:href="classXML_1_1bpmn_1_1tPerformer.html" target="_top" xlink:title=" ">
<polygon fill="none" stroke="black" points="159.5,-282.5 159.5,-339.5 289.5,-339.5 289.5,-282.5 159.5,-282.5"/>
<text text-anchor="middle" x="224.5" y="-327.5" font-family="Helvetica,sans-Serif" font-size="10.00">XML::bpmn::tPerformer</text>
<polyline fill="none" stroke="black" points="159.5,-320.5 289.5,-320.5 "/>
<text text-anchor="start" x="167.5" y="-308.5" font-family="Helvetica,sans-Serif" font-size="10.00">+ defaults</text>
<polyline fill="none" stroke="black" points="159.5,-301.5 289.5,-301.5 "/>
<text text-anchor="start" x="167.5" y="-289.5" font-family="Helvetica,sans-Serif" font-size="10.00"># tPerformer()</text>
</a>
</g>
</g>
<!-- Node1&#45;&gt;Node5 -->
<g id="edge4" class="edge">
<title>Node1&#45;&gt;Node5</title>
<path fill="none" stroke="midnightblue" d="M186.66,-368.02C193.36,-358.1 200.03,-348.23 205.87,-339.59"/>
<polygon fill="none" stroke="midnightblue" points="183.75,-366.08 181.05,-376.33 189.55,-370 183.75,-366.08"/>
</g>
<!-- Node2 -->
<g id="node2" class="node">
<title>Node2</title>
<g id="a_node2"><a xlink:href="classXML_1_1bpmn_1_1tBaseElement.html" target="_top" xlink:title=" ">
<polygon fill="none" stroke="black" points="74.5,-514.5 74.5,-604.5 220.5,-604.5 220.5,-514.5 74.5,-514.5"/>
<text text-anchor="middle" x="147.5" y="-592.5" font-family="Helvetica,sans-Serif" font-size="10.00">XML::bpmn::tBaseElement</text>
<polyline fill="none" stroke="black" points="74.5,-585.5 220.5,-585.5 "/>
<text text-anchor="start" x="82.5" y="-573.5" font-family="Helvetica,sans-Serif" font-size="10.00">+ documentation</text>
<text text-anchor="start" x="82.5" y="-562.5" font-family="Helvetica,sans-Serif" font-size="10.00">+ extensionElements</text>
<text text-anchor="start" x="82.5" y="-551.5" font-family="Helvetica,sans-Serif" font-size="10.00">+ id</text>
<text text-anchor="start" x="82.5" y="-540.5" font-family="Helvetica,sans-Serif" font-size="10.00">+ defaults</text>
<polyline fill="none" stroke="black" points="74.5,-533.5 220.5,-533.5 "/>
<text text-anchor="start" x="82.5" y="-521.5" font-family="Helvetica,sans-Serif" font-size="10.00"># tBaseElement()</text>
</a>
</g>
</g>
<!-- Node2&#45;&gt;Node1 -->
<g id="edge1" class="edge">
<title>Node2&#45;&gt;Node1</title>
<path fill="none" stroke="midnightblue" d="M147.5,-504.13C147.5,-495.31 147.5,-486.22 147.5,-477.52"/>
<polygon fill="none" stroke="midnightblue" points="144,-504.32 147.5,-514.32 151,-504.32 144,-504.32"/>
</g>
<!-- Node3 -->
<g id="node3" class="node">
<title>Node3</title>
<g id="a_node3"><a xlink:href="classXML_1_1XMLObject.html" target="_top" xlink:title="A class representing a node in an XML&#45;tree.">
<polygon fill="none" stroke="black" points="84.5,-641.5 84.5,-951.5 210.5,-951.5 210.5,-641.5 84.5,-641.5"/>
<text text-anchor="middle" x="147.5" y="-939.5" font-family="Helvetica,sans-Serif" font-size="10.00">XML::XMLObject</text>
<polyline fill="none" stroke="black" points="84.5,-932.5 210.5,-932.5 "/>
<text text-anchor="start" x="92.5" y="-920.5" font-family="Helvetica,sans-Serif" font-size="10.00">+ xmlns</text>
<text text-anchor="start" x="92.5" y="-909.5" font-family="Helvetica,sans-Serif" font-size="10.00">+ className</text>
<text text-anchor="start" x="92.5" y="-898.5" font-family="Helvetica,sans-Serif" font-size="10.00">+ prefix</text>
<text text-anchor="start" x="92.5" y="-887.5" font-family="Helvetica,sans-Serif" font-size="10.00">+ elementName</text>
<text text-anchor="start" x="92.5" y="-876.5" font-family="Helvetica,sans-Serif" font-size="10.00">+ textContent</text>
<text text-anchor="start" x="92.5" y="-865.5" font-family="Helvetica,sans-Serif" font-size="10.00">+ children</text>
<text text-anchor="start" x="92.5" y="-854.5" font-family="Helvetica,sans-Serif" font-size="10.00">+ attributes</text>
<text text-anchor="start" x="92.5" y="-843.5" font-family="Helvetica,sans-Serif" font-size="10.00">+ defaults</text>
<text text-anchor="start" x="92.5" y="-832.5" font-family="Helvetica,sans-Serif" font-size="10.00"># factory</text>
<polyline fill="none" stroke="black" points="84.5,-825.5 210.5,-825.5 "/>
<text text-anchor="start" x="92.5" y="-813.5" font-family="Helvetica,sans-Serif" font-size="10.00">+ ~XMLObject()</text>
<text text-anchor="start" x="92.5" y="-802.5" font-family="Helvetica,sans-Serif" font-size="10.00">+ is()</text>
<text text-anchor="start" x="92.5" y="-791.5" font-family="Helvetica,sans-Serif" font-size="10.00">+ is()</text>
<text text-anchor="start" x="92.5" y="-780.5" font-family="Helvetica,sans-Serif" font-size="10.00">+ get()</text>
<text text-anchor="start" x="92.5" y="-769.5" font-family="Helvetica,sans-Serif" font-size="10.00">+ get()</text>
<text text-anchor="start" x="92.5" y="-758.5" font-family="Helvetica,sans-Serif" font-size="10.00">+ find()</text>
<text text-anchor="start" x="92.5" y="-747.5" font-family="Helvetica,sans-Serif" font-size="10.00">+ find()</text>
<text text-anchor="start" x="92.5" y="-736.5" font-family="Helvetica,sans-Serif" font-size="10.00">+ stringify()</text>
<text text-anchor="start" x="92.5" y="-725.5" font-family="Helvetica,sans-Serif" font-size="10.00">+ format()</text>
<text text-anchor="start" x="92.5" y="-714.5" font-family="Helvetica,sans-Serif" font-size="10.00">+ getRequiredChild()</text>
<text text-anchor="start" x="92.5" y="-703.5" font-family="Helvetica,sans-Serif" font-size="10.00">and 7 more...</text>
<text text-anchor="start" x="92.5" y="-692.5" font-family="Helvetica,sans-Serif" font-size="10.00">+ createFromStream()</text>
<text text-anchor="start" x="92.5" y="-681.5" font-family="Helvetica,sans-Serif" font-size="10.00">+ createFromString()</text>
<text text-anchor="start" x="92.5" y="-670.5" font-family="Helvetica,sans-Serif" font-size="10.00">+ createFromFile()</text>
<text text-anchor="start" x="92.5" y="-659.5" font-family="Helvetica,sans-Serif" font-size="10.00"># XMLObject()</text>
<text text-anchor="start" x="92.5" y="-648.5" font-family="Helvetica,sans-Serif" font-size="10.00"># createObject()</text>
</a>
</g>
</g>
<!-- Node3&#45;&gt;Node2 -->
<g id="edge2" class="edge">
<title>Node3&#45;&gt;Node2</title>
<path fill="none" stroke="midnightblue" d="M147.5,-631.35C147.5,-621.89 147.5,-612.91 147.5,-604.72"/>
<polygon fill="none" stroke="midnightblue" points="144,-631.37 147.5,-641.37 151,-631.37 144,-631.37"/>
</g>
<!-- Node6 -->
<g id="node6" class="node">
<title>Node6</title>
<g id="a_node6"><a xlink:href="classXML_1_1bpmn_1_1tHumanPerformer.html" target="_top" xlink:title=" ">
<polygon fill="none" stroke="black" points="142,-188.5 142,-245.5 307,-245.5 307,-188.5 142,-188.5"/>
<text text-anchor="middle" x="224.5" y="-233.5" font-family="Helvetica,sans-Serif" font-size="10.00">XML::bpmn::tHumanPerformer</text>
<polyline fill="none" stroke="black" points="142,-226.5 307,-226.5 "/>
<text text-anchor="start" x="150" y="-214.5" font-family="Helvetica,sans-Serif" font-size="10.00">+ defaults</text>
<polyline fill="none" stroke="black" points="142,-207.5 307,-207.5 "/>
<text text-anchor="start" x="150" y="-195.5" font-family="Helvetica,sans-Serif" font-size="10.00"># tHumanPerformer()</text>
</a>
</g>
</g>
<!-- Node5&#45;&gt;Node6 -->
<g id="edge5" class="edge">
<title>Node5&#45;&gt;Node6</title>
<path fill="none" stroke="midnightblue" d="M224.5,-272.21C224.5,-263.29 224.5,-253.95 224.5,-245.58"/>
<polygon fill="none" stroke="midnightblue" points="221,-272.4 224.5,-282.4 228,-272.4 221,-272.4"/>
</g>
<!-- Node7 -->
<g id="node7" class="node">
<title>Node7</title>
<g id="a_node7"><a xlink:href="classXML_1_1bpmn_1_1humanPerformer.html" target="_top" xlink:title=" ">
<polygon fill="none" stroke="black" points="56.5,-94.5 56.5,-151.5 216.5,-151.5 216.5,-94.5 56.5,-94.5"/>
<text text-anchor="middle" x="136.5" y="-139.5" font-family="Helvetica,sans-Serif" font-size="10.00">XML::bpmn::humanPerformer</text>
<polyline fill="none" stroke="black" points="56.5,-132.5 216.5,-132.5 "/>
<text text-anchor="start" x="64.5" y="-120.5" font-family="Helvetica,sans-Serif" font-size="10.00">+ defaults</text>
<polyline fill="none" stroke="black" points="56.5,-113.5 216.5,-113.5 "/>
<text text-anchor="start" x="64.5" y="-101.5" font-family="Helvetica,sans-Serif" font-size="10.00"># humanPerformer()</text>
</a>
</g>
</g>
<!-- Node6&#45;&gt;Node7 -->
<g id="edge6" class="edge">
<title>Node6&#45;&gt;Node7</title>
<path fill="none" stroke="midnightblue" d="M191.12,-181.1C181.78,-171.34 171.76,-160.86 162.88,-151.58"/>
<polygon fill="none" stroke="midnightblue" points="188.66,-183.59 198.1,-188.4 193.71,-178.75 188.66,-183.59"/>
</g>
<!-- Node8 -->
<g id="node8" class="node">
<title>Node8</title>
<g id="a_node8"><a xlink:href="classXML_1_1bpmn_1_1tPotentialOwner.html" target="_top" xlink:title=" ">
<polygon fill="none" stroke="black" points="234.5,-94.5 234.5,-151.5 390.5,-151.5 390.5,-94.5 234.5,-94.5"/>
<text text-anchor="middle" x="312.5" y="-139.5" font-family="Helvetica,sans-Serif" font-size="10.00">XML::bpmn::tPotentialOwner</text>
<polyline fill="none" stroke="black" points="234.5,-132.5 390.5,-132.5 "/>
<text text-anchor="start" x="242.5" y="-120.5" font-family="Helvetica,sans-Serif" font-size="10.00">+ defaults</text>
<polyline fill="none" stroke="black" points="234.5,-113.5 390.5,-113.5 "/>
<text text-anchor="start" x="242.5" y="-101.5" font-family="Helvetica,sans-Serif" font-size="10.00"># tPotentialOwner()</text>
</a>
</g>
</g>
<!-- Node6&#45;&gt;Node8 -->
<g id="edge7" class="edge">
<title>Node6&#45;&gt;Node8</title>
<path fill="none" stroke="midnightblue" d="M257.88,-181.1C267.22,-171.34 277.24,-160.86 286.12,-151.58"/>
<polygon fill="none" stroke="midnightblue" points="255.29,-178.75 250.9,-188.4 260.34,-183.59 255.29,-178.75"/>
</g>
<!-- Node9 -->
<g id="node9" class="node">
<title>Node9</title>
<g id="a_node9"><a xlink:href="classXML_1_1bpmn_1_1potentialOwner.html" target="_top" xlink:title=" ">
<polygon fill="none" stroke="black" points="236.5,-0.5 236.5,-57.5 388.5,-57.5 388.5,-0.5 236.5,-0.5"/>
<text text-anchor="middle" x="312.5" y="-45.5" font-family="Helvetica,sans-Serif" font-size="10.00">XML::bpmn::potentialOwner</text>
<polyline fill="none" stroke="black" points="236.5,-38.5 388.5,-38.5 "/>
<text text-anchor="start" x="244.5" y="-26.5" font-family="Helvetica,sans-Serif" font-size="10.00">+ defaults</text>
<polyline fill="none" stroke="black" points="236.5,-19.5 388.5,-19.5 "/>
<text text-anchor="start" x="244.5" y="-7.5" font-family="Helvetica,sans-Serif" font-size="10.00"># potentialOwner()</text>
</a>
</g>
</g>
<!-- Node8&#45;&gt;Node9 -->
<g id="edge8" class="edge">
<title>Node8&#45;&gt;Node9</title>
<path fill="none" stroke="midnightblue" d="M312.5,-84.21C312.5,-75.29 312.5,-65.95 312.5,-57.58"/>
<polygon fill="none" stroke="midnightblue" points="309,-84.4 312.5,-94.4 316,-84.4 309,-84.4"/>
</g>
</g>
</svg>
