<?xml version="1.0" encoding="UTF-8" standalone="no"?>
<!DOCTYPE svg PUBLIC "-//W3C//DTD SVG 1.1//EN"
 "http://www.w3.org/Graphics/SVG/1.1/DTD/svg11.dtd">
<!-- Generated by graphviz version 2.43.0 (0)
 -->
<!-- Title: BPMN::SignalStartEvent Pages: 1 -->
<svg width="282pt" height="1037pt"
 viewBox="0.00 0.00 282.00 1037.00" xmlns="http://www.w3.org/2000/svg" xmlns:xlink="http://www.w3.org/1999/xlink">
<g id="graph0" class="graph" transform="scale(1 1) rotate(0) translate(4 1033)">
<title>BPMN::SignalStartEvent</title>
<!-- Node1 -->
<g id="Node000001" class="node">
<title>Node1</title>
<g id="a_Node000001"><a xlink:title=" ">
<polygon fill="#999999" stroke="transparent" points="202,-49 75,-49 75,0 202,0 202,-49"/>
<text text-anchor="start" x="80.5" y="-36.5" font-family="Helvetica,sans-Serif" font-size="10.00">BPMN::SignalStartEvent</text>
<text text-anchor="start" x="83.5" y="-21.5" font-family="Helvetica,sans-Serif" font-size="10.00">+</text>
<text text-anchor="start" x="100.5" y="-21.5" font-family="Helvetica,sans-Serif" font-size="10.00">element</text>
<text text-anchor="start" x="83.5" y="-6.5" font-family="Helvetica,sans-Serif" font-size="10.00">+</text>
<text text-anchor="start" x="100.5" y="-6.5" font-family="Helvetica,sans-Serif" font-size="10.00">SignalStartEvent()</text>
<polygon fill="#666666" stroke="#666666" points="75.5,-31.5 75.5,-31.5 202.5,-31.5 202.5,-31.5 75.5,-31.5"/>
<polygon fill="#666666" stroke="#666666" points="75.5,-16.5 75.5,-16.5 98.5,-16.5 98.5,-16.5 75.5,-16.5"/>
<polygon fill="#666666" stroke="#666666" points="98.5,-16.5 98.5,-16.5 202.5,-16.5 202.5,-16.5 98.5,-16.5"/>
<polygon fill="none" stroke="#666666" points="75,0 75,-49 202,-49 202,0 75,0"/>
</a>
</g>
</g>
<!-- Node2 -->
<g id="Node000002" class="node">
<title>Node2</title>
<g id="a_Node000002"><a xlink:href="classBPMN_1_1SignalCatchEvent.html" target="_top" xlink:title=" ">
<polygon fill="white" stroke="transparent" points="131,-134 0,-134 0,-85 131,-85 131,-134"/>
<text text-anchor="start" x="5.5" y="-121.5" font-family="Helvetica,sans-Serif" font-size="10.00">BPMN::SignalCatchEvent</text>
<text text-anchor="start" x="64" y="-106.5" font-family="Helvetica,sans-Serif" font-size="10.00"> </text>
<text text-anchor="start" x="8.5" y="-91.5" font-family="Helvetica,sans-Serif" font-size="10.00">+</text>
<text text-anchor="start" x="25.5" y="-91.5" font-family="Helvetica,sans-Serif" font-size="10.00">SignalCatchEvent()</text>
<polygon fill="#666666" stroke="#666666" points="0.5,-116.5 0.5,-116.5 131.5,-116.5 131.5,-116.5 0.5,-116.5"/>
<polygon fill="#666666" stroke="#666666" points="0.5,-101.5 0.5,-101.5 131.5,-101.5 131.5,-101.5 0.5,-101.5"/>
<polygon fill="none" stroke="#666666" points="0,-85 0,-134 131,-134 131,-85 0,-85"/>
</a>
</g>
</g>
<!-- Node2&#45;&gt;Node1 -->
<g id="edge1_Node000001_Node000002" class="edge">
<title>Node2&#45;&gt;Node1</title>
<g id="a_edge1_Node000001_Node000002"><a xlink:title=" ">
<path fill="none" stroke="#63b8ff" d="M92.93,-77.31C101.14,-67.97 110.01,-57.89 117.72,-49.12"/>
<polygon fill="none" stroke="#63b8ff" points="90.2,-75.12 86.22,-84.94 95.46,-79.74 90.2,-75.12"/>
</a>
</g>
</g>
<!-- Node3 -->
<g id="Node000003" class="node">
<title>Node3</title>
<g id="a_Node000003"><a xlink:href="classBPMN_1_1CatchEvent.html" target="_top" xlink:title=" ">
<polygon fill="white" stroke="transparent" points="189,-219 88,-219 88,-170 189,-170 189,-219"/>
<text text-anchor="start" x="93.5" y="-206.5" font-family="Helvetica,sans-Serif" font-size="10.00">BPMN::CatchEvent</text>
<text text-anchor="start" x="96.5" y="-191.5" font-family="Helvetica,sans-Serif" font-size="10.00">+</text>
<text text-anchor="start" x="113.5" y="-191.5" font-family="Helvetica,sans-Serif" font-size="10.00">element</text>
<text text-anchor="start" x="96.5" y="-176.5" font-family="Helvetica,sans-Serif" font-size="10.00">+</text>
<text text-anchor="start" x="113.5" y="-176.5" font-family="Helvetica,sans-Serif" font-size="10.00">CatchEvent()</text>
<polygon fill="#666666" stroke="#666666" points="88.5,-201.5 88.5,-201.5 189.5,-201.5 189.5,-201.5 88.5,-201.5"/>
<polygon fill="#666666" stroke="#666666" points="88.5,-186.5 88.5,-186.5 111.5,-186.5 111.5,-186.5 88.5,-186.5"/>
<polygon fill="#666666" stroke="#666666" points="111.5,-186.5 111.5,-186.5 189.5,-186.5 189.5,-186.5 111.5,-186.5"/>
<polygon fill="none" stroke="#666666" points="88,-170 88,-219 189,-219 189,-170 88,-170"/>
</a>
</g>
</g>
<!-- Node3&#45;&gt;Node2 -->
<g id="edge2_Node000002_Node000003" class="edge">
<title>Node3&#45;&gt;Node2</title>
<g id="a_edge2_Node000002_Node000003"><a xlink:title=" ">
<path fill="none" stroke="#63b8ff" d="M111.07,-162.31C102.86,-152.97 93.99,-142.89 86.28,-134.12"/>
<polygon fill="none" stroke="#63b8ff" points="108.54,-164.74 117.78,-169.94 113.8,-160.12 108.54,-164.74"/>
</a>
</g>
</g>
<!-- Node10 -->
<g id="Node000010" class="node">
<title>Node10</title>
<g id="a_Node000010"><a xlink:href="classBPMN_1_1TypedStartEvent.html" target="_top" xlink:title="Base class for all start events with an event definition.">
<polygon fill="white" stroke="transparent" points="274,-134 149,-134 149,-85 274,-85 274,-134"/>
<text text-anchor="start" x="154.5" y="-121.5" font-family="Helvetica,sans-Serif" font-size="10.00">BPMN::TypedStartEvent</text>
<text text-anchor="start" x="157.5" y="-106.5" font-family="Helvetica,sans-Serif" font-size="10.00">+</text>
<text text-anchor="start" x="174.5" y="-106.5" font-family="Helvetica,sans-Serif" font-size="10.00">isInterrupting</text>
<text text-anchor="start" x="157.5" y="-91.5" font-family="Helvetica,sans-Serif" font-size="10.00">+</text>
<text text-anchor="start" x="174.5" y="-91.5" font-family="Helvetica,sans-Serif" font-size="10.00">TypedStartEvent()</text>
<polygon fill="#666666" stroke="#666666" points="149.5,-116.5 149.5,-116.5 274.5,-116.5 274.5,-116.5 149.5,-116.5"/>
<polygon fill="#666666" stroke="#666666" points="149.5,-101.5 149.5,-101.5 172.5,-101.5 172.5,-101.5 149.5,-101.5"/>
<polygon fill="#666666" stroke="#666666" points="172.5,-101.5 172.5,-101.5 274.5,-101.5 274.5,-101.5 172.5,-101.5"/>
<polygon fill="none" stroke="#666666" points="149,-85 149,-134 274,-134 274,-85 149,-85"/>
</a>
</g>
</g>
<!-- Node3&#45;&gt;Node10 -->
<g id="edge10_Node000010_Node000003" class="edge">
<title>Node3&#45;&gt;Node10</title>
<g id="a_edge10_Node000010_Node000003"><a xlink:title=" ">
<path fill="none" stroke="#63b8ff" d="M165.93,-162.31C174.14,-152.97 183.01,-142.89 190.72,-134.12"/>
<polygon fill="none" stroke="#63b8ff" points="163.2,-160.12 159.22,-169.94 168.46,-164.74 163.2,-160.12"/>
</a>
</g>
</g>
<!-- Node4 -->
<g id="Node000004" class="node">
<title>Node4</title>
<g id="a_Node000004"><a xlink:href="classBPMN_1_1Event.html" target="_top" xlink:title=" ">
<polygon fill="white" stroke="transparent" points="175.5,-304 101.5,-304 101.5,-255 175.5,-255 175.5,-304"/>
<text text-anchor="start" x="106.5" y="-291.5" font-family="Helvetica,sans-Serif" font-size="10.00">BPMN::Event</text>
<text text-anchor="start" x="108.5" y="-276.5" font-family="Helvetica,sans-Serif" font-size="10.00">+</text>
<text text-anchor="start" x="124.5" y="-276.5" font-family="Helvetica,sans-Serif" font-size="10.00">element</text>
<text text-anchor="start" x="108.5" y="-261.5" font-family="Helvetica,sans-Serif" font-size="10.00">+</text>
<text text-anchor="start" x="124.5" y="-261.5" font-family="Helvetica,sans-Serif" font-size="10.00">Event()</text>
<polygon fill="#666666" stroke="#666666" points="101.5,-286.5 101.5,-286.5 175.5,-286.5 175.5,-286.5 101.5,-286.5"/>
<polygon fill="#666666" stroke="#666666" points="101.5,-271.5 101.5,-271.5 122.5,-271.5 122.5,-271.5 101.5,-271.5"/>
<polygon fill="#666666" stroke="#666666" points="122.5,-271.5 122.5,-271.5 175.5,-271.5 175.5,-271.5 122.5,-271.5"/>
<polygon fill="none" stroke="#666666" points="101.5,-255 101.5,-304 175.5,-304 175.5,-255 101.5,-255"/>
</a>
</g>
</g>
<!-- Node4&#45;&gt;Node3 -->
<g id="edge3_Node000003_Node000004" class="edge">
<title>Node4&#45;&gt;Node3</title>
<g id="a_edge3_Node000003_Node000004"><a xlink:title=" ">
<path fill="none" stroke="#63b8ff" d="M138.5,-244.77C138.5,-236.17 138.5,-227.1 138.5,-219.12"/>
<polygon fill="none" stroke="#63b8ff" points="135,-244.94 138.5,-254.94 142,-244.94 135,-244.94"/>
</a>
</g>
</g>
<!-- Node5 -->
<g id="Node000005" class="node">
<title>Node5</title>
<g id="a_Node000005"><a xlink:href="classBPMN_1_1FlowNode.html" target="_top" xlink:title="Base class for BPMN elements that may contain incoming and outgoing sequence flows.">
<polygon fill="white" stroke="transparent" points="186,-434 91,-434 91,-340 186,-340 186,-434"/>
<text text-anchor="start" x="96.5" y="-422" font-family="Helvetica,sans-Serif" font-size="10.00">BPMN::FlowNode</text>
<text text-anchor="start" x="99.5" y="-407" font-family="Helvetica,sans-Serif" font-size="10.00">+</text>
<text text-anchor="start" x="116.5" y="-407" font-family="Helvetica,sans-Serif" font-size="10.00">element</text>
<text text-anchor="start" x="99.5" y="-392" font-family="Helvetica,sans-Serif" font-size="10.00">+</text>
<text text-anchor="start" x="116.5" y="-392" font-family="Helvetica,sans-Serif" font-size="10.00">name</text>
<text text-anchor="start" x="99.5" y="-377" font-family="Helvetica,sans-Serif" font-size="10.00">+</text>
<text text-anchor="start" x="116.5" y="-377" font-family="Helvetica,sans-Serif" font-size="10.00">incoming</text>
<text text-anchor="start" x="99.5" y="-362" font-family="Helvetica,sans-Serif" font-size="10.00">+</text>
<text text-anchor="start" x="116.5" y="-362" font-family="Helvetica,sans-Serif" font-size="10.00">outgoing</text>
<text text-anchor="start" x="99.5" y="-347" font-family="Helvetica,sans-Serif" font-size="10.00">+</text>
<text text-anchor="start" x="116.5" y="-347" font-family="Helvetica,sans-Serif" font-size="10.00">FlowNode()</text>
<polygon fill="#666666" stroke="#666666" points="91.5,-417 91.5,-417 186.5,-417 186.5,-417 91.5,-417"/>
<polygon fill="#666666" stroke="#666666" points="91.5,-357 91.5,-357 114.5,-357 114.5,-357 91.5,-357"/>
<polygon fill="#666666" stroke="#666666" points="114.5,-357 114.5,-357 186.5,-357 186.5,-357 114.5,-357"/>
<polygon fill="none" stroke="#666666" points="91,-340 91,-434 186,-434 186,-340 91,-340"/>
</a>
</g>
</g>
<!-- Node5&#45;&gt;Node4 -->
<g id="edge4_Node000004_Node000005" class="edge">
<title>Node5&#45;&gt;Node4</title>
<g id="a_edge4_Node000004_Node000005"><a xlink:title=" ">
<path fill="none" stroke="#63b8ff" d="M138.5,-329.59C138.5,-320.62 138.5,-311.79 138.5,-304.15"/>
<polygon fill="none" stroke="#63b8ff" points="135,-329.73 138.5,-339.73 142,-329.73 135,-329.73"/>
</a>
</g>
</g>
<!-- Node6 -->
<g id="Node000006" class="node">
<title>Node6</title>
<g id="a_Node000006"><a xlink:href="classBPMN_1_1ChildNode.html" target="_top" xlink:title="Base class for BPMN elements within a Scope.">
<polygon fill="white" stroke="transparent" points="186.5,-549 90.5,-549 90.5,-470 186.5,-470 186.5,-549"/>
<text text-anchor="start" x="95.5" y="-536.5" font-family="Helvetica,sans-Serif" font-size="10.00">BPMN::ChildNode</text>
<text text-anchor="start" x="98.5" y="-521.5" font-family="Helvetica,sans-Serif" font-size="10.00">+</text>
<text text-anchor="start" x="115.5" y="-521.5" font-family="Helvetica,sans-Serif" font-size="10.00">parent</text>
<text text-anchor="start" x="98.5" y="-506.5" font-family="Helvetica,sans-Serif" font-size="10.00">+</text>
<text text-anchor="start" x="115.5" y="-506.5" font-family="Helvetica,sans-Serif" font-size="10.00">ChildNode()</text>
<text text-anchor="start" x="98.5" y="-491.5" font-family="Helvetica,sans-Serif" font-size="10.00">+</text>
<text text-anchor="start" x="115.5" y="-491.5" font-family="Helvetica,sans-Serif" font-size="10.00">ancestor()</text>
<text text-anchor="start" x="98.5" y="-476.5" font-family="Helvetica,sans-Serif" font-size="10.00">+</text>
<text text-anchor="start" x="115.5" y="-476.5" font-family="Helvetica,sans-Serif" font-size="10.00">ancestor()</text>
<polygon fill="#666666" stroke="#666666" points="90.5,-531.5 90.5,-531.5 186.5,-531.5 186.5,-531.5 90.5,-531.5"/>
<polygon fill="#666666" stroke="#666666" points="90.5,-516.5 90.5,-516.5 113.5,-516.5 113.5,-516.5 90.5,-516.5"/>
<polygon fill="#666666" stroke="#666666" points="113.5,-516.5 113.5,-516.5 186.5,-516.5 186.5,-516.5 113.5,-516.5"/>
<polygon fill="none" stroke="#666666" points="90.5,-470 90.5,-549 186.5,-549 186.5,-470 90.5,-470"/>
</a>
</g>
</g>
<!-- Node6&#45;&gt;Node5 -->
<g id="edge5_Node000005_Node000006" class="edge">
<title>Node6&#45;&gt;Node5</title>
<g id="a_edge5_Node000005_Node000006"><a xlink:title=" ">
<path fill="none" stroke="#63b8ff" d="M138.5,-459.68C138.5,-451.3 138.5,-442.61 138.5,-434.29"/>
<polygon fill="none" stroke="#63b8ff" points="135,-459.71 138.5,-469.71 142,-459.71 135,-459.71"/>
</a>
</g>
</g>
<!-- Node7 -->
<g id="Node000007" class="node">
<title>Node7</title>
<g id="a_Node000007"><a xlink:href="classBPMN_1_1Node.html" target="_top" xlink:title="Base class for all nodes in a BPMN model.">
<polygon fill="white" stroke="transparent" points="174,-709 103,-709 103,-585 174,-585 174,-709"/>
<text text-anchor="start" x="108.5" y="-697" font-family="Helvetica,sans-Serif" font-size="10.00">BPMN::Node</text>
<text text-anchor="start" x="108.5" y="-682" font-family="Helvetica,sans-Serif" font-size="10.00">+</text>
<text text-anchor="start" x="122.5" y="-682" font-family="Helvetica,sans-Serif" font-size="10.00">receiving</text>
<text text-anchor="start" x="108.5" y="-667" font-family="Helvetica,sans-Serif" font-size="10.00">+</text>
<text text-anchor="start" x="122.5" y="-667" font-family="Helvetica,sans-Serif" font-size="10.00">sending</text>
<text text-anchor="start" x="108.5" y="-652" font-family="Helvetica,sans-Serif" font-size="10.00">+</text>
<text text-anchor="start" x="122.5" y="-652" font-family="Helvetica,sans-Serif" font-size="10.00">Node()</text>
<text text-anchor="start" x="108.5" y="-637" font-family="Helvetica,sans-Serif" font-size="10.00">+</text>
<text text-anchor="start" x="122.5" y="-637" font-family="Helvetica,sans-Serif" font-size="10.00">find()</text>
<text text-anchor="start" x="108.5" y="-622" font-family="Helvetica,sans-Serif" font-size="10.00">+</text>
<text text-anchor="start" x="122.5" y="-622" font-family="Helvetica,sans-Serif" font-size="10.00">find()</text>
<text text-anchor="start" x="108.5" y="-607" font-family="Helvetica,sans-Serif" font-size="10.00">+</text>
<text text-anchor="start" x="122.5" y="-607" font-family="Helvetica,sans-Serif" font-size="10.00">find_all()</text>
<text text-anchor="start" x="108.5" y="-592" font-family="Helvetica,sans-Serif" font-size="10.00">+</text>
<text text-anchor="start" x="122.5" y="-592" font-family="Helvetica,sans-Serif" font-size="10.00">find_all()</text>
<polygon fill="#666666" stroke="#666666" points="103.5,-692 103.5,-692 174.5,-692 174.5,-692 103.5,-692"/>
<polygon fill="#666666" stroke="#666666" points="103.5,-662 103.5,-662 120.5,-662 120.5,-662 103.5,-662"/>
<polygon fill="#666666" stroke="#666666" points="120.5,-662 120.5,-662 174.5,-662 174.5,-662 120.5,-662"/>
<polygon fill="none" stroke="#666666" points="103,-585 103,-709 174,-709 174,-585 103,-585"/>
</a>
</g>
</g>
<!-- Node7&#45;&gt;Node6 -->
<g id="edge6_Node000006_Node000007" class="edge">
<title>Node7&#45;&gt;Node6</title>
<g id="a_edge6_Node000006_Node000007"><a xlink:title=" ">
<path fill="none" stroke="#63b8ff" d="M138.5,-574.93C138.5,-566.02 138.5,-557.19 138.5,-549.05"/>
<polygon fill="none" stroke="#63b8ff" points="135,-574.99 138.5,-584.99 142,-574.99 135,-574.99"/>
</a>
</g>
</g>
<!-- Node8 -->
<g id="Node000008" class="node">
<title>Node8</title>
<g id="a_Node000008"><a xlink:href="classBPMN_1_1BaseElement.html" target="_top" xlink:title="Base class for all core BPMN elements.">
<polygon fill="white" stroke="transparent" points="196,-884 81,-884 81,-745 196,-745 196,-884"/>
<text text-anchor="start" x="89" y="-871.5" font-family="Helvetica,sans-Serif" font-size="10.00">BPMN::BaseElement</text>
<text text-anchor="start" x="85.5" y="-856.5" font-family="Helvetica,sans-Serif" font-size="10.00">+</text>
<text text-anchor="start" x="98.5" y="-856.5" font-family="Helvetica,sans-Serif" font-size="10.00">element</text>
<text text-anchor="start" x="85.5" y="-841.5" font-family="Helvetica,sans-Serif" font-size="10.00">+</text>
<text text-anchor="start" x="98.5" y="-841.5" font-family="Helvetica,sans-Serif" font-size="10.00">id</text>
<text text-anchor="start" x="85.5" y="-826.5" font-family="Helvetica,sans-Serif" font-size="10.00">+</text>
<text text-anchor="start" x="98.5" y="-826.5" font-family="Helvetica,sans-Serif" font-size="10.00">extensionElements</text>
<text text-anchor="start" x="85.5" y="-811.5" font-family="Helvetica,sans-Serif" font-size="10.00">+</text>
<text text-anchor="start" x="98.5" y="-811.5" font-family="Helvetica,sans-Serif" font-size="10.00">BaseElement()</text>
<text text-anchor="start" x="85.5" y="-796.5" font-family="Helvetica,sans-Serif" font-size="10.00">+</text>
<text text-anchor="start" x="98.5" y="-796.5" font-family="Helvetica,sans-Serif" font-size="10.00">is()</text>
<text text-anchor="start" x="85.5" y="-781.5" font-family="Helvetica,sans-Serif" font-size="10.00">+</text>
<text text-anchor="start" x="98.5" y="-781.5" font-family="Helvetica,sans-Serif" font-size="10.00">is()</text>
<text text-anchor="start" x="85.5" y="-766.5" font-family="Helvetica,sans-Serif" font-size="10.00">+</text>
<text text-anchor="start" x="98.5" y="-766.5" font-family="Helvetica,sans-Serif" font-size="10.00">get()</text>
<text text-anchor="start" x="85.5" y="-751.5" font-family="Helvetica,sans-Serif" font-size="10.00">+</text>
<text text-anchor="start" x="98.5" y="-751.5" font-family="Helvetica,sans-Serif" font-size="10.00">get()</text>
<polygon fill="#666666" stroke="#666666" points="81.5,-866.5 81.5,-866.5 196.5,-866.5 196.5,-866.5 81.5,-866.5"/>
<polygon fill="#666666" stroke="#666666" points="81.5,-821.5 81.5,-821.5 96.5,-821.5 96.5,-821.5 81.5,-821.5"/>
<polygon fill="#666666" stroke="#666666" points="96.5,-821.5 96.5,-821.5 196.5,-821.5 196.5,-821.5 96.5,-821.5"/>
<polygon fill="none" stroke="#666666" points="81,-745 81,-884 196,-884 196,-745 81,-745"/>
</a>
</g>
</g>
<!-- Node8&#45;&gt;Node7 -->
<g id="edge7_Node000007_Node000008" class="edge">
<title>Node8&#45;&gt;Node7</title>
<g id="a_edge7_Node000007_Node000008"><a xlink:title=" ">
<path fill="none" stroke="#63b8ff" d="M138.5,-734.71C138.5,-726.12 138.5,-717.47 138.5,-709.14"/>
<polygon fill="none" stroke="#63b8ff" points="135,-734.75 138.5,-744.75 142,-734.75 135,-734.75"/>
</a>
</g>
</g>
<!-- Node9 -->
<g id="Node000009" class="node">
<title>Node9</title>
<g id="a_Node000009"><a xlink:href="classBPMN_1_1Element.html" target="_top" xlink:title="Abstract base class for all elements in a BPMN model.">
<polygon fill="white" stroke="transparent" points="181.5,-1029 95.5,-1029 95.5,-920 181.5,-920 181.5,-1029"/>
<text text-anchor="start" x="100.5" y="-1016.5" font-family="Helvetica,sans-Serif" font-size="10.00">BPMN::Element</text>
<text text-anchor="start" x="136.5" y="-1001.5" font-family="Helvetica,sans-Serif" font-size="10.00"> </text>
<text text-anchor="start" x="100.5" y="-986.5" font-family="Helvetica,sans-Serif" font-size="10.00">+</text>
<text text-anchor="start" x="114.5" y="-986.5" font-family="Helvetica,sans-Serif" font-size="10.00">~Element()</text>
<text text-anchor="start" x="100.5" y="-971.5" font-family="Helvetica,sans-Serif" font-size="10.00">+</text>
<text text-anchor="start" x="114.5" y="-971.5" font-family="Helvetica,sans-Serif" font-size="10.00">represents()</text>
<text text-anchor="start" x="100.5" y="-956.5" font-family="Helvetica,sans-Serif" font-size="10.00">+</text>
<text text-anchor="start" x="114.5" y="-956.5" font-family="Helvetica,sans-Serif" font-size="10.00">represents()</text>
<text text-anchor="start" x="100.5" y="-941.5" font-family="Helvetica,sans-Serif" font-size="10.00">+</text>
<text text-anchor="start" x="114.5" y="-941.5" font-family="Helvetica,sans-Serif" font-size="10.00">as()</text>
<text text-anchor="start" x="100.5" y="-926.5" font-family="Helvetica,sans-Serif" font-size="10.00">+</text>
<text text-anchor="start" x="114.5" y="-926.5" font-family="Helvetica,sans-Serif" font-size="10.00">as()</text>
<polygon fill="#666666" stroke="#666666" points="95.5,-1011.5 95.5,-1011.5 181.5,-1011.5 181.5,-1011.5 95.5,-1011.5"/>
<polygon fill="#666666" stroke="#666666" points="95.5,-996.5 95.5,-996.5 181.5,-996.5 181.5,-996.5 95.5,-996.5"/>
<polygon fill="none" stroke="#666666" points="95.5,-920 95.5,-1029 181.5,-1029 181.5,-920 95.5,-920"/>
</a>
</g>
</g>
<!-- Node9&#45;&gt;Node8 -->
<g id="edge8_Node000008_Node000009" class="edge">
<title>Node9&#45;&gt;Node8</title>
<g id="a_edge8_Node000008_Node000009"><a xlink:title=" ">
<path fill="none" stroke="#63b8ff" d="M138.5,-909.55C138.5,-901.23 138.5,-892.67 138.5,-884.28"/>
<polygon fill="none" stroke="#63b8ff" points="135,-909.57 138.5,-919.57 142,-909.57 135,-909.57"/>
</a>
</g>
</g>
<!-- Node10&#45;&gt;Node1 -->
<g id="edge9_Node000001_Node000010" class="edge">
<title>Node10&#45;&gt;Node1</title>
<g id="a_edge9_Node000001_Node000010"><a xlink:title=" ">
<path fill="none" stroke="#63b8ff" d="M184.07,-77.31C175.86,-67.97 166.99,-57.89 159.28,-49.12"/>
<polygon fill="none" stroke="#63b8ff" points="181.54,-79.74 190.78,-84.94 186.8,-75.12 181.54,-79.74"/>
</a>
</g>
</g>
</g>
</svg>
