<?xml version="1.0" encoding="UTF-8" standalone="no"?>
<!DOCTYPE svg PUBLIC "-//W3C//DTD SVG 1.1//EN"
 "http://www.w3.org/Graphics/SVG/1.1/DTD/svg11.dtd">
<!-- Generated by graphviz version 2.43.0 (0)
 -->
<!-- Title: BPMN::Activity Pages: 1 -->
<svg width="1091pt" height="1027pt"
 viewBox="0.00 0.00 1090.50 1027.00" xmlns="http://www.w3.org/2000/svg" xmlns:xlink="http://www.w3.org/1999/xlink">
<g id="graph0" class="graph" transform="scale(1 1) rotate(0) translate(4 1023)">
<title>BPMN::Activity</title>
<!-- Node1 -->
<g id="Node000001" class="node">
<title>Node1</title>
<g id="a_Node000001"><a xlink:title=" ">
<polygon fill="#999999" stroke="transparent" points="320,-294 205,-294 205,-185 320,-185 320,-294"/>
<text text-anchor="start" x="226.5" y="-281.5" font-family="Helvetica,sans-Serif" font-size="10.00">BPMN::Activity</text>
<text text-anchor="start" x="209.5" y="-266.5" font-family="Helvetica,sans-Serif" font-size="10.00">+</text>
<text text-anchor="start" x="222.5" y="-266.5" font-family="Helvetica,sans-Serif" font-size="10.00">boundaryEvents</text>
<text text-anchor="start" x="209.5" y="-251.5" font-family="Helvetica,sans-Serif" font-size="10.00">+</text>
<text text-anchor="start" x="222.5" y="-251.5" font-family="Helvetica,sans-Serif" font-size="10.00">compensatedBy</text>
<text text-anchor="start" x="209.5" y="-236.5" font-family="Helvetica,sans-Serif" font-size="10.00">+</text>
<text text-anchor="start" x="222.5" y="-236.5" font-family="Helvetica,sans-Serif" font-size="10.00">isForCompensation</text>
<text text-anchor="start" x="209.5" y="-221.5" font-family="Helvetica,sans-Serif" font-size="10.00">+</text>
<text text-anchor="start" x="222.5" y="-221.5" font-family="Helvetica,sans-Serif" font-size="10.00">loopCharacteristics</text>
<text text-anchor="start" x="209.5" y="-206.5" font-family="Helvetica,sans-Serif" font-size="10.00">+</text>
<text text-anchor="start" x="222.5" y="-206.5" font-family="Helvetica,sans-Serif" font-size="10.00">element</text>
<text text-anchor="start" x="209.5" y="-191.5" font-family="Helvetica,sans-Serif" font-size="10.00">+</text>
<text text-anchor="start" x="222.5" y="-191.5" font-family="Helvetica,sans-Serif" font-size="10.00">Activity()</text>
<polygon fill="#666666" stroke="#666666" points="205.5,-276.5 205.5,-276.5 320.5,-276.5 320.5,-276.5 205.5,-276.5"/>
<polygon fill="#666666" stroke="#666666" points="205.5,-201.5 205.5,-201.5 220.5,-201.5 220.5,-201.5 205.5,-201.5"/>
<polygon fill="#666666" stroke="#666666" points="220.5,-201.5 220.5,-201.5 320.5,-201.5 320.5,-201.5 220.5,-201.5"/>
<polygon fill="none" stroke="#666666" points="205,-185 205,-294 320,-294 320,-185 205,-185"/>
</a>
</g>
</g>
<!-- Node7 -->
<g id="Node000007" class="node">
<title>Node7</title>
<g id="a_Node000007"><a xlink:href="classBPMN_1_1AdHocSubProcess.html" target="_top" xlink:title=" ">
<polygon fill="white" stroke="transparent" points="133,-149 0,-149 0,-85 133,-85 133,-149"/>
<text text-anchor="start" x="5.5" y="-137" font-family="Helvetica,sans-Serif" font-size="10.00">BPMN::AdHocSubProcess</text>
<text text-anchor="start" x="8.5" y="-122" font-family="Helvetica,sans-Serif" font-size="10.00">+</text>
<text text-anchor="start" x="25.5" y="-122" font-family="Helvetica,sans-Serif" font-size="10.00">isSequential</text>
<text text-anchor="start" x="8.5" y="-107" font-family="Helvetica,sans-Serif" font-size="10.00">+</text>
<text text-anchor="start" x="25.5" y="-107" font-family="Helvetica,sans-Serif" font-size="10.00">element</text>
<text text-anchor="start" x="8.5" y="-92" font-family="Helvetica,sans-Serif" font-size="10.00">+</text>
<text text-anchor="start" x="25.5" y="-92" font-family="Helvetica,sans-Serif" font-size="10.00">AdHocSubProcess()</text>
<polygon fill="#666666" stroke="#666666" points="0.5,-132 0.5,-132 133.5,-132 133.5,-132 0.5,-132"/>
<polygon fill="#666666" stroke="#666666" points="0.5,-102 0.5,-102 23.5,-102 23.5,-102 0.5,-102"/>
<polygon fill="#666666" stroke="#666666" points="23.5,-102 23.5,-102 133.5,-102 133.5,-102 23.5,-102"/>
<polygon fill="none" stroke="#666666" points="0,-85 0,-149 133,-149 133,-85 0,-85"/>
</a>
</g>
</g>
<!-- Node1&#45;&gt;Node7 -->
<g id="edge6_Node000001_Node000007" class="edge">
<title>Node1&#45;&gt;Node7</title>
<g id="a_edge6_Node000001_Node000007"><a xlink:title=" ">
<path fill="none" stroke="#63b8ff" d="M196.14,-197.7C170.34,-181.84 141.25,-163.96 117.18,-149.16"/>
<polygon fill="none" stroke="#63b8ff" points="194.4,-200.74 204.75,-203 198.07,-194.78 194.4,-200.74"/>
</a>
</g>
</g>
<!-- Node8 -->
<g id="Node000008" class="node">
<title>Node8</title>
<g id="a_Node000008"><a xlink:href="classBPMN_1_1CallActivity.html" target="_top" xlink:title=" ">
<polygon fill="white" stroke="transparent" points="253.5,-141.5 151.5,-141.5 151.5,-92.5 253.5,-92.5 253.5,-141.5"/>
<text text-anchor="start" x="156.5" y="-129" font-family="Helvetica,sans-Serif" font-size="10.00">BPMN::CallActivity</text>
<text text-anchor="start" x="159.5" y="-114" font-family="Helvetica,sans-Serif" font-size="10.00">+</text>
<text text-anchor="start" x="176.5" y="-114" font-family="Helvetica,sans-Serif" font-size="10.00">element</text>
<text text-anchor="start" x="159.5" y="-99" font-family="Helvetica,sans-Serif" font-size="10.00">+</text>
<text text-anchor="start" x="176.5" y="-99" font-family="Helvetica,sans-Serif" font-size="10.00">CallActivity()</text>
<polygon fill="#666666" stroke="#666666" points="151.5,-124 151.5,-124 253.5,-124 253.5,-124 151.5,-124"/>
<polygon fill="#666666" stroke="#666666" points="151.5,-109 151.5,-109 174.5,-109 174.5,-109 151.5,-109"/>
<polygon fill="#666666" stroke="#666666" points="174.5,-109 174.5,-109 253.5,-109 253.5,-109 174.5,-109"/>
<polygon fill="none" stroke="#666666" points="151.5,-92.5 151.5,-141.5 253.5,-141.5 253.5,-92.5 151.5,-92.5"/>
</a>
</g>
</g>
<!-- Node1&#45;&gt;Node8 -->
<g id="edge7_Node000001_Node000008" class="edge">
<title>Node1&#45;&gt;Node8</title>
<g id="a_edge7_Node000001_Node000008"><a xlink:title=" ">
<path fill="none" stroke="#63b8ff" d="M231.2,-175.64C225.14,-163.46 219.14,-151.42 214.21,-141.53"/>
<polygon fill="none" stroke="#63b8ff" points="228.24,-177.55 235.83,-184.95 234.51,-174.43 228.24,-177.55"/>
</a>
</g>
</g>
<!-- Node9 -->
<g id="Node000009" class="node">
<title>Node9</title>
<g id="a_Node000009"><a xlink:href="classBPMN_1_1SubProcess.html" target="_top" xlink:title=" ">
<polygon fill="white" stroke="transparent" points="373,-149 272,-149 272,-85 373,-85 373,-149"/>
<text text-anchor="start" x="277.5" y="-137" font-family="Helvetica,sans-Serif" font-size="10.00">BPMN::SubProcess</text>
<text text-anchor="start" x="280.5" y="-122" font-family="Helvetica,sans-Serif" font-size="10.00">+</text>
<text text-anchor="start" x="297.5" y="-122" font-family="Helvetica,sans-Serif" font-size="10.00">startEvent</text>
<text text-anchor="start" x="280.5" y="-107" font-family="Helvetica,sans-Serif" font-size="10.00">+</text>
<text text-anchor="start" x="297.5" y="-107" font-family="Helvetica,sans-Serif" font-size="10.00">element</text>
<text text-anchor="start" x="280.5" y="-92" font-family="Helvetica,sans-Serif" font-size="10.00">+</text>
<text text-anchor="start" x="297.5" y="-92" font-family="Helvetica,sans-Serif" font-size="10.00">SubProcess()</text>
<polygon fill="#666666" stroke="#666666" points="272.5,-132 272.5,-132 373.5,-132 373.5,-132 272.5,-132"/>
<polygon fill="#666666" stroke="#666666" points="272.5,-102 272.5,-102 295.5,-102 295.5,-102 272.5,-102"/>
<polygon fill="#666666" stroke="#666666" points="295.5,-102 295.5,-102 373.5,-102 373.5,-102 295.5,-102"/>
<polygon fill="none" stroke="#666666" points="272,-85 272,-149 373,-149 373,-85 272,-85"/>
</a>
</g>
</g>
<!-- Node1&#45;&gt;Node9 -->
<g id="edge8_Node000001_Node000009" class="edge">
<title>Node1&#45;&gt;Node9</title>
<g id="a_edge8_Node000001_Node000009"><a xlink:title=" ">
<path fill="none" stroke="#63b8ff" d="M293.74,-175.76C298.31,-166.57 302.85,-157.46 306.92,-149.28"/>
<polygon fill="none" stroke="#63b8ff" points="290.49,-174.43 289.17,-184.95 296.76,-177.55 290.49,-174.43"/>
</a>
</g>
</g>
<!-- Node11 -->
<g id="Node000011" class="node">
<title>Node11</title>
<g id="a_Node000011"><a xlink:href="classBPMN_1_1Task.html" target="_top" xlink:title=" ">
<polygon fill="white" stroke="transparent" points="669.5,-141.5 601.5,-141.5 601.5,-92.5 669.5,-92.5 669.5,-141.5"/>
<text text-anchor="start" x="606.5" y="-129" font-family="Helvetica,sans-Serif" font-size="10.00">BPMN::Task</text>
<text text-anchor="start" x="607" y="-114" font-family="Helvetica,sans-Serif" font-size="10.00">+</text>
<text text-anchor="start" x="621.5" y="-114" font-family="Helvetica,sans-Serif" font-size="10.00">element</text>
<text text-anchor="start" x="607" y="-99" font-family="Helvetica,sans-Serif" font-size="10.00">+</text>
<text text-anchor="start" x="621.5" y="-99" font-family="Helvetica,sans-Serif" font-size="10.00">Task()</text>
<polygon fill="#666666" stroke="#666666" points="601.5,-124 601.5,-124 669.5,-124 669.5,-124 601.5,-124"/>
<polygon fill="#666666" stroke="#666666" points="601.5,-109 601.5,-109 619.5,-109 619.5,-109 601.5,-109"/>
<polygon fill="#666666" stroke="#666666" points="619.5,-109 619.5,-109 669.5,-109 669.5,-109 619.5,-109"/>
<polygon fill="none" stroke="#666666" points="601.5,-92.5 601.5,-141.5 669.5,-141.5 669.5,-92.5 601.5,-92.5"/>
</a>
</g>
</g>
<!-- Node1&#45;&gt;Node11 -->
<g id="edge10_Node000001_Node000011" class="edge">
<title>Node1&#45;&gt;Node11</title>
<g id="a_edge10_Node000001_Node000011"><a xlink:title=" ">
<path fill="none" stroke="#63b8ff" d="M330.36,-216.58C410.39,-190.72 540.26,-148.77 601.49,-128.99"/>
<polygon fill="none" stroke="#63b8ff" points="328.81,-213.4 320.37,-219.8 330.96,-220.06 328.81,-213.4"/>
</a>
</g>
</g>
<!-- Node2 -->
<g id="Node000002" class="node">
<title>Node2</title>
<g id="a_Node000002"><a xlink:href="classBPMN_1_1FlowNode.html" target="_top" xlink:title="Base class for BPMN elements that may contain incoming and outgoing sequence flows.">
<polygon fill="white" stroke="transparent" points="310,-424 215,-424 215,-330 310,-330 310,-424"/>
<text text-anchor="start" x="220.5" y="-412" font-family="Helvetica,sans-Serif" font-size="10.00">BPMN::FlowNode</text>
<text text-anchor="start" x="223.5" y="-397" font-family="Helvetica,sans-Serif" font-size="10.00">+</text>
<text text-anchor="start" x="240.5" y="-397" font-family="Helvetica,sans-Serif" font-size="10.00">element</text>
<text text-anchor="start" x="223.5" y="-382" font-family="Helvetica,sans-Serif" font-size="10.00">+</text>
<text text-anchor="start" x="240.5" y="-382" font-family="Helvetica,sans-Serif" font-size="10.00">name</text>
<text text-anchor="start" x="223.5" y="-367" font-family="Helvetica,sans-Serif" font-size="10.00">+</text>
<text text-anchor="start" x="240.5" y="-367" font-family="Helvetica,sans-Serif" font-size="10.00">incoming</text>
<text text-anchor="start" x="223.5" y="-352" font-family="Helvetica,sans-Serif" font-size="10.00">+</text>
<text text-anchor="start" x="240.5" y="-352" font-family="Helvetica,sans-Serif" font-size="10.00">outgoing</text>
<text text-anchor="start" x="223.5" y="-337" font-family="Helvetica,sans-Serif" font-size="10.00">+</text>
<text text-anchor="start" x="240.5" y="-337" font-family="Helvetica,sans-Serif" font-size="10.00">FlowNode()</text>
<polygon fill="#666666" stroke="#666666" points="215.5,-407 215.5,-407 310.5,-407 310.5,-407 215.5,-407"/>
<polygon fill="#666666" stroke="#666666" points="215.5,-347 215.5,-347 238.5,-347 238.5,-347 215.5,-347"/>
<polygon fill="#666666" stroke="#666666" points="238.5,-347 238.5,-347 310.5,-347 310.5,-347 238.5,-347"/>
<polygon fill="none" stroke="#666666" points="215,-330 215,-424 310,-424 310,-330 215,-330"/>
</a>
</g>
</g>
<!-- Node2&#45;&gt;Node1 -->
<g id="edge1_Node000001_Node000002" class="edge">
<title>Node2&#45;&gt;Node1</title>
<g id="a_edge1_Node000001_Node000002"><a xlink:title=" ">
<path fill="none" stroke="#63b8ff" d="M262.5,-319.58C262.5,-311.12 262.5,-302.41 262.5,-294.01"/>
<polygon fill="none" stroke="#63b8ff" points="259,-319.75 262.5,-329.75 266,-319.75 259,-319.75"/>
</a>
</g>
</g>
<!-- Node3 -->
<g id="Node000003" class="node">
<title>Node3</title>
<g id="a_Node000003"><a xlink:href="classBPMN_1_1ChildNode.html" target="_top" xlink:title="Base class for BPMN elements within a Scope.">
<polygon fill="white" stroke="transparent" points="310.5,-539 214.5,-539 214.5,-460 310.5,-460 310.5,-539"/>
<text text-anchor="start" x="219.5" y="-526.5" font-family="Helvetica,sans-Serif" font-size="10.00">BPMN::ChildNode</text>
<text text-anchor="start" x="222.5" y="-511.5" font-family="Helvetica,sans-Serif" font-size="10.00">+</text>
<text text-anchor="start" x="239.5" y="-511.5" font-family="Helvetica,sans-Serif" font-size="10.00">parent</text>
<text text-anchor="start" x="222.5" y="-496.5" font-family="Helvetica,sans-Serif" font-size="10.00">+</text>
<text text-anchor="start" x="239.5" y="-496.5" font-family="Helvetica,sans-Serif" font-size="10.00">ChildNode()</text>
<text text-anchor="start" x="222.5" y="-481.5" font-family="Helvetica,sans-Serif" font-size="10.00">+</text>
<text text-anchor="start" x="239.5" y="-481.5" font-family="Helvetica,sans-Serif" font-size="10.00">ancestor()</text>
<text text-anchor="start" x="222.5" y="-466.5" font-family="Helvetica,sans-Serif" font-size="10.00">+</text>
<text text-anchor="start" x="239.5" y="-466.5" font-family="Helvetica,sans-Serif" font-size="10.00">ancestor()</text>
<polygon fill="#666666" stroke="#666666" points="214.5,-521.5 214.5,-521.5 310.5,-521.5 310.5,-521.5 214.5,-521.5"/>
<polygon fill="#666666" stroke="#666666" points="214.5,-506.5 214.5,-506.5 237.5,-506.5 237.5,-506.5 214.5,-506.5"/>
<polygon fill="#666666" stroke="#666666" points="237.5,-506.5 237.5,-506.5 310.5,-506.5 310.5,-506.5 237.5,-506.5"/>
<polygon fill="none" stroke="#666666" points="214.5,-460 214.5,-539 310.5,-539 310.5,-460 214.5,-460"/>
</a>
</g>
</g>
<!-- Node3&#45;&gt;Node2 -->
<g id="edge2_Node000002_Node000003" class="edge">
<title>Node3&#45;&gt;Node2</title>
<g id="a_edge2_Node000002_Node000003"><a xlink:title=" ">
<path fill="none" stroke="#63b8ff" d="M262.5,-449.68C262.5,-441.3 262.5,-432.61 262.5,-424.29"/>
<polygon fill="none" stroke="#63b8ff" points="259,-449.71 262.5,-459.71 266,-449.71 259,-449.71"/>
</a>
</g>
</g>
<!-- Node4 -->
<g id="Node000004" class="node">
<title>Node4</title>
<g id="a_Node000004"><a xlink:href="classBPMN_1_1Node.html" target="_top" xlink:title="Base class for all nodes in a BPMN model.">
<polygon fill="white" stroke="transparent" points="298,-699 227,-699 227,-575 298,-575 298,-699"/>
<text text-anchor="start" x="232.5" y="-687" font-family="Helvetica,sans-Serif" font-size="10.00">BPMN::Node</text>
<text text-anchor="start" x="232.5" y="-672" font-family="Helvetica,sans-Serif" font-size="10.00">+</text>
<text text-anchor="start" x="246.5" y="-672" font-family="Helvetica,sans-Serif" font-size="10.00">receiving</text>
<text text-anchor="start" x="232.5" y="-657" font-family="Helvetica,sans-Serif" font-size="10.00">+</text>
<text text-anchor="start" x="246.5" y="-657" font-family="Helvetica,sans-Serif" font-size="10.00">sending</text>
<text text-anchor="start" x="232.5" y="-642" font-family="Helvetica,sans-Serif" font-size="10.00">+</text>
<text text-anchor="start" x="246.5" y="-642" font-family="Helvetica,sans-Serif" font-size="10.00">Node()</text>
<text text-anchor="start" x="232.5" y="-627" font-family="Helvetica,sans-Serif" font-size="10.00">+</text>
<text text-anchor="start" x="246.5" y="-627" font-family="Helvetica,sans-Serif" font-size="10.00">find()</text>
<text text-anchor="start" x="232.5" y="-612" font-family="Helvetica,sans-Serif" font-size="10.00">+</text>
<text text-anchor="start" x="246.5" y="-612" font-family="Helvetica,sans-Serif" font-size="10.00">find()</text>
<text text-anchor="start" x="232.5" y="-597" font-family="Helvetica,sans-Serif" font-size="10.00">+</text>
<text text-anchor="start" x="246.5" y="-597" font-family="Helvetica,sans-Serif" font-size="10.00">find_all()</text>
<text text-anchor="start" x="232.5" y="-582" font-family="Helvetica,sans-Serif" font-size="10.00">+</text>
<text text-anchor="start" x="246.5" y="-582" font-family="Helvetica,sans-Serif" font-size="10.00">find_all()</text>
<polygon fill="#666666" stroke="#666666" points="227.5,-682 227.5,-682 298.5,-682 298.5,-682 227.5,-682"/>
<polygon fill="#666666" stroke="#666666" points="227.5,-652 227.5,-652 244.5,-652 244.5,-652 227.5,-652"/>
<polygon fill="#666666" stroke="#666666" points="244.5,-652 244.5,-652 298.5,-652 298.5,-652 244.5,-652"/>
<polygon fill="none" stroke="#666666" points="227,-575 227,-699 298,-699 298,-575 227,-575"/>
</a>
</g>
</g>
<!-- Node4&#45;&gt;Node3 -->
<g id="edge3_Node000003_Node000004" class="edge">
<title>Node4&#45;&gt;Node3</title>
<g id="a_edge3_Node000003_Node000004"><a xlink:title=" ">
<path fill="none" stroke="#63b8ff" d="M262.5,-564.93C262.5,-556.02 262.5,-547.19 262.5,-539.05"/>
<polygon fill="none" stroke="#63b8ff" points="259,-564.99 262.5,-574.99 266,-564.99 259,-564.99"/>
</a>
</g>
</g>
<!-- Node5 -->
<g id="Node000005" class="node">
<title>Node5</title>
<g id="a_Node000005"><a xlink:href="classBPMN_1_1BaseElement.html" target="_top" xlink:title="Base class for all core BPMN elements.">
<polygon fill="white" stroke="transparent" points="320,-874 205,-874 205,-735 320,-735 320,-874"/>
<text text-anchor="start" x="213" y="-861.5" font-family="Helvetica,sans-Serif" font-size="10.00">BPMN::BaseElement</text>
<text text-anchor="start" x="209.5" y="-846.5" font-family="Helvetica,sans-Serif" font-size="10.00">+</text>
<text text-anchor="start" x="222.5" y="-846.5" font-family="Helvetica,sans-Serif" font-size="10.00">element</text>
<text text-anchor="start" x="209.5" y="-831.5" font-family="Helvetica,sans-Serif" font-size="10.00">+</text>
<text text-anchor="start" x="222.5" y="-831.5" font-family="Helvetica,sans-Serif" font-size="10.00">id</text>
<text text-anchor="start" x="209.5" y="-816.5" font-family="Helvetica,sans-Serif" font-size="10.00">+</text>
<text text-anchor="start" x="222.5" y="-816.5" font-family="Helvetica,sans-Serif" font-size="10.00">extensionElements</text>
<text text-anchor="start" x="209.5" y="-801.5" font-family="Helvetica,sans-Serif" font-size="10.00">+</text>
<text text-anchor="start" x="222.5" y="-801.5" font-family="Helvetica,sans-Serif" font-size="10.00">BaseElement()</text>
<text text-anchor="start" x="209.5" y="-786.5" font-family="Helvetica,sans-Serif" font-size="10.00">+</text>
<text text-anchor="start" x="222.5" y="-786.5" font-family="Helvetica,sans-Serif" font-size="10.00">is()</text>
<text text-anchor="start" x="209.5" y="-771.5" font-family="Helvetica,sans-Serif" font-size="10.00">+</text>
<text text-anchor="start" x="222.5" y="-771.5" font-family="Helvetica,sans-Serif" font-size="10.00">is()</text>
<text text-anchor="start" x="209.5" y="-756.5" font-family="Helvetica,sans-Serif" font-size="10.00">+</text>
<text text-anchor="start" x="222.5" y="-756.5" font-family="Helvetica,sans-Serif" font-size="10.00">get()</text>
<text text-anchor="start" x="209.5" y="-741.5" font-family="Helvetica,sans-Serif" font-size="10.00">+</text>
<text text-anchor="start" x="222.5" y="-741.5" font-family="Helvetica,sans-Serif" font-size="10.00">get()</text>
<polygon fill="#666666" stroke="#666666" points="205.5,-856.5 205.5,-856.5 320.5,-856.5 320.5,-856.5 205.5,-856.5"/>
<polygon fill="#666666" stroke="#666666" points="205.5,-811.5 205.5,-811.5 220.5,-811.5 220.5,-811.5 205.5,-811.5"/>
<polygon fill="#666666" stroke="#666666" points="220.5,-811.5 220.5,-811.5 320.5,-811.5 320.5,-811.5 220.5,-811.5"/>
<polygon fill="none" stroke="#666666" points="205,-735 205,-874 320,-874 320,-735 205,-735"/>
</a>
</g>
</g>
<!-- Node5&#45;&gt;Node4 -->
<g id="edge4_Node000004_Node000005" class="edge">
<title>Node5&#45;&gt;Node4</title>
<g id="a_edge4_Node000004_Node000005"><a xlink:title=" ">
<path fill="none" stroke="#63b8ff" d="M262.5,-724.71C262.5,-716.12 262.5,-707.47 262.5,-699.14"/>
<polygon fill="none" stroke="#63b8ff" points="259,-724.75 262.5,-734.75 266,-724.75 259,-724.75"/>
</a>
</g>
</g>
<!-- Node6 -->
<g id="Node000006" class="node">
<title>Node6</title>
<g id="a_Node000006"><a xlink:href="classBPMN_1_1Element.html" target="_top" xlink:title="Abstract base class for all elements in a BPMN model.">
<polygon fill="white" stroke="transparent" points="305.5,-1019 219.5,-1019 219.5,-910 305.5,-910 305.5,-1019"/>
<text text-anchor="start" x="224.5" y="-1006.5" font-family="Helvetica,sans-Serif" font-size="10.00">BPMN::Element</text>
<text text-anchor="start" x="260.5" y="-991.5" font-family="Helvetica,sans-Serif" font-size="10.00"> </text>
<text text-anchor="start" x="224.5" y="-976.5" font-family="Helvetica,sans-Serif" font-size="10.00">+</text>
<text text-anchor="start" x="238.5" y="-976.5" font-family="Helvetica,sans-Serif" font-size="10.00">~Element()</text>
<text text-anchor="start" x="224.5" y="-961.5" font-family="Helvetica,sans-Serif" font-size="10.00">+</text>
<text text-anchor="start" x="238.5" y="-961.5" font-family="Helvetica,sans-Serif" font-size="10.00">represents()</text>
<text text-anchor="start" x="224.5" y="-946.5" font-family="Helvetica,sans-Serif" font-size="10.00">+</text>
<text text-anchor="start" x="238.5" y="-946.5" font-family="Helvetica,sans-Serif" font-size="10.00">represents()</text>
<text text-anchor="start" x="224.5" y="-931.5" font-family="Helvetica,sans-Serif" font-size="10.00">+</text>
<text text-anchor="start" x="238.5" y="-931.5" font-family="Helvetica,sans-Serif" font-size="10.00">as()</text>
<text text-anchor="start" x="224.5" y="-916.5" font-family="Helvetica,sans-Serif" font-size="10.00">+</text>
<text text-anchor="start" x="238.5" y="-916.5" font-family="Helvetica,sans-Serif" font-size="10.00">as()</text>
<polygon fill="#666666" stroke="#666666" points="219.5,-1001.5 219.5,-1001.5 305.5,-1001.5 305.5,-1001.5 219.5,-1001.5"/>
<polygon fill="#666666" stroke="#666666" points="219.5,-986.5 219.5,-986.5 305.5,-986.5 305.5,-986.5 219.5,-986.5"/>
<polygon fill="none" stroke="#666666" points="219.5,-910 219.5,-1019 305.5,-1019 305.5,-910 219.5,-910"/>
</a>
</g>
</g>
<!-- Node6&#45;&gt;Node5 -->
<g id="edge5_Node000005_Node000006" class="edge">
<title>Node6&#45;&gt;Node5</title>
<g id="a_edge5_Node000005_Node000006"><a xlink:title=" ">
<path fill="none" stroke="#63b8ff" d="M262.5,-899.55C262.5,-891.23 262.5,-882.67 262.5,-874.28"/>
<polygon fill="none" stroke="#63b8ff" points="259,-899.57 262.5,-909.57 266,-899.57 259,-899.57"/>
</a>
</g>
</g>
<!-- Node10 -->
<g id="Node000010" class="node">
<title>Node10</title>
<g id="a_Node000010"><a xlink:href="classBPMN_1_1Transaction.html" target="_top" xlink:title=" ">
<polygon fill="white" stroke="transparent" points="225,-49 124,-49 124,0 225,0 225,-49"/>
<text text-anchor="start" x="129.5" y="-36.5" font-family="Helvetica,sans-Serif" font-size="10.00">BPMN::Transaction</text>
<text text-anchor="start" x="132.5" y="-21.5" font-family="Helvetica,sans-Serif" font-size="10.00">+</text>
<text text-anchor="start" x="149.5" y="-21.5" font-family="Helvetica,sans-Serif" font-size="10.00">element</text>
<text text-anchor="start" x="132.5" y="-6.5" font-family="Helvetica,sans-Serif" font-size="10.00">+</text>
<text text-anchor="start" x="149.5" y="-6.5" font-family="Helvetica,sans-Serif" font-size="10.00">Transaction()</text>
<polygon fill="#666666" stroke="#666666" points="124.5,-31.5 124.5,-31.5 225.5,-31.5 225.5,-31.5 124.5,-31.5"/>
<polygon fill="#666666" stroke="#666666" points="124.5,-16.5 124.5,-16.5 147.5,-16.5 147.5,-16.5 124.5,-16.5"/>
<polygon fill="#666666" stroke="#666666" points="147.5,-16.5 147.5,-16.5 225.5,-16.5 225.5,-16.5 147.5,-16.5"/>
<polygon fill="none" stroke="#666666" points="124,0 124,-49 225,-49 225,0 124,0"/>
</a>
</g>
</g>
<!-- Node9&#45;&gt;Node10 -->
<g id="edge9_Node000009_Node000010" class="edge">
<title>Node9&#45;&gt;Node10</title>
<g id="a_edge9_Node000009_Node000010"><a xlink:title=" ">
<path fill="none" stroke="#63b8ff" d="M263.27,-79.78C246.38,-69.45 228.42,-58.47 213.11,-49.11"/>
<polygon fill="none" stroke="#63b8ff" points="261.62,-82.88 271.98,-85.11 265.28,-76.91 261.62,-82.88"/>
</a>
</g>
</g>
<!-- Node12 -->
<g id="Node000012" class="node">
<title>Node12</title>
<g id="a_Node000012"><a xlink:href="classBPMN_1_1AbstractTask.html" target="_top" xlink:title=" ">
<polygon fill="white" stroke="transparent" points="351.5,-49 243.5,-49 243.5,0 351.5,0 351.5,-49"/>
<text text-anchor="start" x="248.5" y="-36.5" font-family="Helvetica,sans-Serif" font-size="10.00">BPMN::AbstractTask</text>
<text text-anchor="start" x="295.5" y="-21.5" font-family="Helvetica,sans-Serif" font-size="10.00"> </text>
<text text-anchor="start" x="251.5" y="-6.5" font-family="Helvetica,sans-Serif" font-size="10.00">+</text>
<text text-anchor="start" x="268.5" y="-6.5" font-family="Helvetica,sans-Serif" font-size="10.00">AbstractTask()</text>
<polygon fill="#666666" stroke="#666666" points="243.5,-31.5 243.5,-31.5 351.5,-31.5 351.5,-31.5 243.5,-31.5"/>
<polygon fill="#666666" stroke="#666666" points="243.5,-16.5 243.5,-16.5 351.5,-16.5 351.5,-16.5 243.5,-16.5"/>
<polygon fill="none" stroke="#666666" points="243.5,0 243.5,-49 351.5,-49 351.5,0 243.5,0"/>
</a>
</g>
</g>
<!-- Node11&#45;&gt;Node12 -->
<g id="edge11_Node000011_Node000012" class="edge">
<title>Node11&#45;&gt;Node12</title>
<g id="a_edge11_Node000011_Node000012"><a xlink:title=" ">
<path fill="none" stroke="#63b8ff" d="M591.23,-106.9C536.52,-95.27 440.82,-73.67 360.5,-49 357.6,-48.11 354.64,-47.16 351.66,-46.16"/>
<polygon fill="none" stroke="#63b8ff" points="590.77,-110.38 601.28,-109.02 592.22,-103.53 590.77,-110.38"/>
</a>
</g>
</g>
<!-- Node13 -->
<g id="Node000013" class="node">
<title>Node13</title>
<g id="a_Node000013"><a xlink:href="classBPMN_1_1BusinessRuleTask.html" target="_top" xlink:title=" ">
<polygon fill="white" stroke="transparent" points="503,-49 370,-49 370,0 503,0 503,-49"/>
<text text-anchor="start" x="375.5" y="-36.5" font-family="Helvetica,sans-Serif" font-size="10.00">BPMN::BusinessRuleTask</text>
<text text-anchor="start" x="378.5" y="-21.5" font-family="Helvetica,sans-Serif" font-size="10.00">+</text>
<text text-anchor="start" x="395.5" y="-21.5" font-family="Helvetica,sans-Serif" font-size="10.00">element</text>
<text text-anchor="start" x="378.5" y="-6.5" font-family="Helvetica,sans-Serif" font-size="10.00">+</text>
<text text-anchor="start" x="395.5" y="-6.5" font-family="Helvetica,sans-Serif" font-size="10.00">BusinessRuleTask()</text>
<polygon fill="#666666" stroke="#666666" points="370.5,-31.5 370.5,-31.5 503.5,-31.5 503.5,-31.5 370.5,-31.5"/>
<polygon fill="#666666" stroke="#666666" points="370.5,-16.5 370.5,-16.5 393.5,-16.5 393.5,-16.5 370.5,-16.5"/>
<polygon fill="#666666" stroke="#666666" points="393.5,-16.5 393.5,-16.5 503.5,-16.5 503.5,-16.5 393.5,-16.5"/>
<polygon fill="none" stroke="#666666" points="370,0 370,-49 503,-49 503,0 370,0"/>
</a>
</g>
</g>
<!-- Node11&#45;&gt;Node13 -->
<g id="edge12_Node000011_Node000013" class="edge">
<title>Node11&#45;&gt;Node13</title>
<g id="a_edge12_Node000011_Node000013"><a xlink:title=" ">
<path fill="none" stroke="#63b8ff" d="M592.16,-96.29C561.58,-82.38 520.47,-63.69 488.18,-49"/>
<polygon fill="none" stroke="#63b8ff" points="590.74,-99.49 601.29,-100.44 593.64,-93.12 590.74,-99.49"/>
</a>
</g>
</g>
<!-- Node14 -->
<g id="Node000014" class="node">
<title>Node14</title>
<g id="a_Node000014"><a xlink:href="classBPMN_1_1ManualTask.html" target="_top" xlink:title=" ">
<polygon fill="white" stroke="transparent" points="625.5,-49 521.5,-49 521.5,0 625.5,0 625.5,-49"/>
<text text-anchor="start" x="526.5" y="-36.5" font-family="Helvetica,sans-Serif" font-size="10.00">BPMN::ManualTask</text>
<text text-anchor="start" x="529.5" y="-21.5" font-family="Helvetica,sans-Serif" font-size="10.00">+</text>
<text text-anchor="start" x="546.5" y="-21.5" font-family="Helvetica,sans-Serif" font-size="10.00">element</text>
<text text-anchor="start" x="529.5" y="-6.5" font-family="Helvetica,sans-Serif" font-size="10.00">+</text>
<text text-anchor="start" x="546.5" y="-6.5" font-family="Helvetica,sans-Serif" font-size="10.00">ManualTask()</text>
<polygon fill="#666666" stroke="#666666" points="521.5,-31.5 521.5,-31.5 625.5,-31.5 625.5,-31.5 521.5,-31.5"/>
<polygon fill="#666666" stroke="#666666" points="521.5,-16.5 521.5,-16.5 544.5,-16.5 544.5,-16.5 521.5,-16.5"/>
<polygon fill="#666666" stroke="#666666" points="544.5,-16.5 544.5,-16.5 625.5,-16.5 625.5,-16.5 544.5,-16.5"/>
<polygon fill="none" stroke="#666666" points="521.5,0 521.5,-49 625.5,-49 625.5,0 521.5,0"/>
</a>
</g>
</g>
<!-- Node11&#45;&gt;Node14 -->
<g id="edge13_Node000011_Node000014" class="edge">
<title>Node11&#45;&gt;Node14</title>
<g id="a_edge13_Node000011_Node000014"><a xlink:title=" ">
<path fill="none" stroke="#63b8ff" d="M613.42,-83.77C605.59,-72.34 596.93,-59.7 589.68,-49.12"/>
<polygon fill="none" stroke="#63b8ff" points="610.67,-85.95 619.21,-92.22 616.45,-81.99 610.67,-85.95"/>
</a>
</g>
</g>
<!-- Node15 -->
<g id="Node000015" class="node">
<title>Node15</title>
<g id="a_Node000015"><a xlink:href="classBPMN_1_1ReceiveTask.html" target="_top" xlink:title=" ">
<polygon fill="white" stroke="transparent" points="751,-49 644,-49 644,0 751,0 751,-49"/>
<text text-anchor="start" x="649.5" y="-36.5" font-family="Helvetica,sans-Serif" font-size="10.00">BPMN::ReceiveTask</text>
<text text-anchor="start" x="652.5" y="-21.5" font-family="Helvetica,sans-Serif" font-size="10.00">+</text>
<text text-anchor="start" x="669.5" y="-21.5" font-family="Helvetica,sans-Serif" font-size="10.00">element</text>
<text text-anchor="start" x="652.5" y="-6.5" font-family="Helvetica,sans-Serif" font-size="10.00">+</text>
<text text-anchor="start" x="669.5" y="-6.5" font-family="Helvetica,sans-Serif" font-size="10.00">ReceiveTask()</text>
<polygon fill="#666666" stroke="#666666" points="644.5,-31.5 644.5,-31.5 751.5,-31.5 751.5,-31.5 644.5,-31.5"/>
<polygon fill="#666666" stroke="#666666" points="644.5,-16.5 644.5,-16.5 667.5,-16.5 667.5,-16.5 644.5,-16.5"/>
<polygon fill="#666666" stroke="#666666" points="667.5,-16.5 667.5,-16.5 751.5,-16.5 751.5,-16.5 667.5,-16.5"/>
<polygon fill="none" stroke="#666666" points="644,0 644,-49 751,-49 751,0 644,0"/>
</a>
</g>
</g>
<!-- Node11&#45;&gt;Node15 -->
<g id="edge14_Node000011_Node000015" class="edge">
<title>Node11&#45;&gt;Node15</title>
<g id="a_edge14_Node000011_Node000015"><a xlink:title=" ">
<path fill="none" stroke="#63b8ff" d="M657.58,-83.77C665.41,-72.34 674.07,-59.7 681.32,-49.12"/>
<polygon fill="none" stroke="#63b8ff" points="654.55,-81.99 651.79,-92.22 660.33,-85.95 654.55,-81.99"/>
</a>
</g>
</g>
<!-- Node16 -->
<g id="Node000016" class="node">
<title>Node16</title>
<g id="a_Node000016"><a xlink:href="classBPMN_1_1ScriptTask.html" target="_top" xlink:title=" ">
<polygon fill="white" stroke="transparent" points="864,-49 769,-49 769,0 864,0 864,-49"/>
<text text-anchor="start" x="774.5" y="-36.5" font-family="Helvetica,sans-Serif" font-size="10.00">BPMN::ScriptTask</text>
<text text-anchor="start" x="777.5" y="-21.5" font-family="Helvetica,sans-Serif" font-size="10.00">+</text>
<text text-anchor="start" x="794.5" y="-21.5" font-family="Helvetica,sans-Serif" font-size="10.00">element</text>
<text text-anchor="start" x="777.5" y="-6.5" font-family="Helvetica,sans-Serif" font-size="10.00">+</text>
<text text-anchor="start" x="794.5" y="-6.5" font-family="Helvetica,sans-Serif" font-size="10.00">ScriptTask()</text>
<polygon fill="#666666" stroke="#666666" points="769.5,-31.5 769.5,-31.5 864.5,-31.5 864.5,-31.5 769.5,-31.5"/>
<polygon fill="#666666" stroke="#666666" points="769.5,-16.5 769.5,-16.5 792.5,-16.5 792.5,-16.5 769.5,-16.5"/>
<polygon fill="#666666" stroke="#666666" points="792.5,-16.5 792.5,-16.5 864.5,-16.5 864.5,-16.5 792.5,-16.5"/>
<polygon fill="none" stroke="#666666" points="769,0 769,-49 864,-49 864,0 769,0"/>
</a>
</g>
</g>
<!-- Node11&#45;&gt;Node16 -->
<g id="edge15_Node000011_Node000016" class="edge">
<title>Node11&#45;&gt;Node16</title>
<g id="a_edge15_Node000011_Node000016"><a xlink:title=" ">
<path fill="none" stroke="#63b8ff" d="M678.84,-94.33C706.11,-80.7 741.31,-63.1 769.29,-49.11"/>
<polygon fill="none" stroke="#63b8ff" points="676.92,-91.37 669.54,-98.98 680.05,-97.64 676.92,-91.37"/>
</a>
</g>
</g>
<!-- Node17 -->
<g id="Node000017" class="node">
<title>Node17</title>
<g id="a_Node000017"><a xlink:href="classBPMN_1_1SendTask.html" target="_top" xlink:title=" ">
<polygon fill="white" stroke="transparent" points="974.5,-49 882.5,-49 882.5,0 974.5,0 974.5,-49"/>
<text text-anchor="start" x="887.5" y="-36.5" font-family="Helvetica,sans-Serif" font-size="10.00">BPMN::SendTask</text>
<text text-anchor="start" x="890.5" y="-21.5" font-family="Helvetica,sans-Serif" font-size="10.00">+</text>
<text text-anchor="start" x="907.5" y="-21.5" font-family="Helvetica,sans-Serif" font-size="10.00">element</text>
<text text-anchor="start" x="890.5" y="-6.5" font-family="Helvetica,sans-Serif" font-size="10.00">+</text>
<text text-anchor="start" x="907.5" y="-6.5" font-family="Helvetica,sans-Serif" font-size="10.00">SendTask()</text>
<polygon fill="#666666" stroke="#666666" points="882.5,-31.5 882.5,-31.5 974.5,-31.5 974.5,-31.5 882.5,-31.5"/>
<polygon fill="#666666" stroke="#666666" points="882.5,-16.5 882.5,-16.5 905.5,-16.5 905.5,-16.5 882.5,-16.5"/>
<polygon fill="#666666" stroke="#666666" points="905.5,-16.5 905.5,-16.5 974.5,-16.5 974.5,-16.5 905.5,-16.5"/>
<polygon fill="none" stroke="#666666" points="882.5,0 882.5,-49 974.5,-49 974.5,0 882.5,0"/>
</a>
</g>
</g>
<!-- Node11&#45;&gt;Node17 -->
<g id="edge16_Node000011_Node000017" class="edge">
<title>Node11&#45;&gt;Node17</title>
<g id="a_edge16_Node000011_Node000017"><a xlink:title=" ">
<path fill="none" stroke="#63b8ff" d="M679.62,-105.4C727.81,-93.41 806.98,-72.46 873.5,-49 876.44,-47.96 879.44,-46.85 882.46,-45.68"/>
<polygon fill="none" stroke="#63b8ff" points="678.7,-102.03 669.83,-107.82 680.37,-108.82 678.7,-102.03"/>
</a>
</g>
</g>
<!-- Node18 -->
<g id="Node000018" class="node">
<title>Node18</title>
<g id="a_Node000018"><a xlink:href="classBPMN_1_1UserTask.html" target="_top" xlink:title=" ">
<polygon fill="white" stroke="transparent" points="1082.5,-49 992.5,-49 992.5,0 1082.5,0 1082.5,-49"/>
<text text-anchor="start" x="997.5" y="-36.5" font-family="Helvetica,sans-Serif" font-size="10.00">BPMN::UserTask</text>
<text text-anchor="start" x="1000.5" y="-21.5" font-family="Helvetica,sans-Serif" font-size="10.00">+</text>
<text text-anchor="start" x="1017.5" y="-21.5" font-family="Helvetica,sans-Serif" font-size="10.00">element</text>
<text text-anchor="start" x="1000.5" y="-6.5" font-family="Helvetica,sans-Serif" font-size="10.00">+</text>
<text text-anchor="start" x="1017.5" y="-6.5" font-family="Helvetica,sans-Serif" font-size="10.00">UserTask()</text>
<polygon fill="#666666" stroke="#666666" points="992.5,-31.5 992.5,-31.5 1082.5,-31.5 1082.5,-31.5 992.5,-31.5"/>
<polygon fill="#666666" stroke="#666666" points="992.5,-16.5 992.5,-16.5 1015.5,-16.5 1015.5,-16.5 992.5,-16.5"/>
<polygon fill="#666666" stroke="#666666" points="1015.5,-16.5 1015.5,-16.5 1082.5,-16.5 1082.5,-16.5 1015.5,-16.5"/>
<polygon fill="none" stroke="#666666" points="992.5,0 992.5,-49 1082.5,-49 1082.5,0 992.5,0"/>
</a>
</g>
</g>
<!-- Node11&#45;&gt;Node18 -->
<g id="edge17_Node000011_Node000018" class="edge">
<title>Node11&#45;&gt;Node18</title>
<g id="a_edge17_Node000011_Node000018"><a xlink:title=" ">
<path fill="none" stroke="#63b8ff" d="M679.88,-110.64C746.77,-101.86 876.95,-82 983.5,-49 986.43,-48.09 989.41,-47.08 992.4,-45.99"/>
<polygon fill="none" stroke="#63b8ff" points="679.17,-107.21 669.7,-111.96 680.07,-114.15 679.17,-107.21"/>
</a>
</g>
</g>
</g>
</svg>
