<?xml version="1.0" encoding="UTF-8" standalone="no"?>
<!DOCTYPE svg PUBLIC "-//W3C//DTD SVG 1.1//EN"
 "http://www.w3.org/Graphics/SVG/1.1/DTD/svg11.dtd">
<!-- Generated by graphviz version 2.43.0 (0)
 -->
<!-- Title: BPMN::ExclusiveGateway Pages: 1 -->
<svg width="144pt" height="882pt"
 viewBox="0.00 0.00 144.00 882.00" xmlns="http://www.w3.org/2000/svg" xmlns:xlink="http://www.w3.org/1999/xlink">
<g id="graph0" class="graph" transform="scale(1 1) rotate(0) translate(4 878)">
<title>BPMN::ExclusiveGateway</title>
<!-- Node1 -->
<g id="Node000001" class="node">
<title>Node1</title>
<g id="a_Node000001"><a xlink:title=" ">
<polygon fill="#999999" stroke="transparent" points="136,-64 0,-64 0,0 136,0 136,-64"/>
<text text-anchor="start" x="5" y="-52" font-family="Helvetica,sans-Serif" font-size="10.00">BPMN::ExclusiveGateway</text>
<text text-anchor="start" x="8" y="-37" font-family="Helvetica,sans-Serif" font-size="10.00">+</text>
<text text-anchor="start" x="25" y="-37" font-family="Helvetica,sans-Serif" font-size="10.00">element</text>
<text text-anchor="start" x="8" y="-22" font-family="Helvetica,sans-Serif" font-size="10.00">+</text>
<text text-anchor="start" x="25" y="-22" font-family="Helvetica,sans-Serif" font-size="10.00">defaultFlow</text>
<text text-anchor="start" x="8" y="-7" font-family="Helvetica,sans-Serif" font-size="10.00">+</text>
<text text-anchor="start" x="25" y="-7" font-family="Helvetica,sans-Serif" font-size="10.00">ExclusiveGateway()</text>
<polygon fill="#666666" stroke="#666666" points="0,-47 0,-47 136,-47 136,-47 0,-47"/>
<polygon fill="#666666" stroke="#666666" points="0,-17 0,-17 23,-17 23,-17 0,-17"/>
<polygon fill="#666666" stroke="#666666" points="23,-17 23,-17 136,-17 136,-17 23,-17"/>
<polygon fill="none" stroke="#666666" points="0,0 0,-64 136,-64 136,0 0,0"/>
</a>
</g>
</g>
<!-- Node2 -->
<g id="Node000002" class="node">
<title>Node2</title>
<g id="a_Node000002"><a xlink:href="classBPMN_1_1Gateway.html" target="_top" xlink:title=" ">
<polygon fill="white" stroke="transparent" points="112.5,-149 23.5,-149 23.5,-100 112.5,-100 112.5,-149"/>
<text text-anchor="start" x="29" y="-136.5" font-family="Helvetica,sans-Serif" font-size="10.00">BPMN::Gateway</text>
<text text-anchor="start" x="32" y="-121.5" font-family="Helvetica,sans-Serif" font-size="10.00">+</text>
<text text-anchor="start" x="49" y="-121.5" font-family="Helvetica,sans-Serif" font-size="10.00">element</text>
<text text-anchor="start" x="32" y="-106.5" font-family="Helvetica,sans-Serif" font-size="10.00">+</text>
<text text-anchor="start" x="49" y="-106.5" font-family="Helvetica,sans-Serif" font-size="10.00">Gateway()</text>
<polygon fill="#666666" stroke="#666666" points="24,-131.5 24,-131.5 113,-131.5 113,-131.5 24,-131.5"/>
<polygon fill="#666666" stroke="#666666" points="24,-116.5 24,-116.5 47,-116.5 47,-116.5 24,-116.5"/>
<polygon fill="#666666" stroke="#666666" points="47,-116.5 47,-116.5 113,-116.5 113,-116.5 47,-116.5"/>
<polygon fill="none" stroke="#666666" points="23.5,-100 23.5,-149 112.5,-149 112.5,-100 23.5,-100"/>
</a>
</g>
</g>
<!-- Node2&#45;&gt;Node1 -->
<g id="edge1_Node000001_Node000002" class="edge">
<title>Node2&#45;&gt;Node1</title>
<g id="a_edge1_Node000001_Node000002"><a xlink:title=" ">
<path fill="none" stroke="#63b8ff" d="M68,-89.54C68,-81.2 68,-72.31 68,-64.11"/>
<polygon fill="none" stroke="#63b8ff" points="64.5,-89.72 68,-99.72 71.5,-89.72 64.5,-89.72"/>
</a>
</g>
</g>
<!-- Node3 -->
<g id="Node000003" class="node">
<title>Node3</title>
<g id="a_Node000003"><a xlink:href="classBPMN_1_1FlowNode.html" target="_top" xlink:title="Base class for BPMN elements that may contain incoming and outgoing sequence flows.">
<polygon fill="white" stroke="transparent" points="115.5,-279 20.5,-279 20.5,-185 115.5,-185 115.5,-279"/>
<text text-anchor="start" x="26" y="-267" font-family="Helvetica,sans-Serif" font-size="10.00">BPMN::FlowNode</text>
<text text-anchor="start" x="29" y="-252" font-family="Helvetica,sans-Serif" font-size="10.00">+</text>
<text text-anchor="start" x="46" y="-252" font-family="Helvetica,sans-Serif" font-size="10.00">element</text>
<text text-anchor="start" x="29" y="-237" font-family="Helvetica,sans-Serif" font-size="10.00">+</text>
<text text-anchor="start" x="46" y="-237" font-family="Helvetica,sans-Serif" font-size="10.00">name</text>
<text text-anchor="start" x="29" y="-222" font-family="Helvetica,sans-Serif" font-size="10.00">+</text>
<text text-anchor="start" x="46" y="-222" font-family="Helvetica,sans-Serif" font-size="10.00">incoming</text>
<text text-anchor="start" x="29" y="-207" font-family="Helvetica,sans-Serif" font-size="10.00">+</text>
<text text-anchor="start" x="46" y="-207" font-family="Helvetica,sans-Serif" font-size="10.00">outgoing</text>
<text text-anchor="start" x="29" y="-192" font-family="Helvetica,sans-Serif" font-size="10.00">+</text>
<text text-anchor="start" x="46" y="-192" font-family="Helvetica,sans-Serif" font-size="10.00">FlowNode()</text>
<polygon fill="#666666" stroke="#666666" points="21,-262 21,-262 116,-262 116,-262 21,-262"/>
<polygon fill="#666666" stroke="#666666" points="21,-202 21,-202 44,-202 44,-202 21,-202"/>
<polygon fill="#666666" stroke="#666666" points="44,-202 44,-202 116,-202 116,-202 44,-202"/>
<polygon fill="none" stroke="#666666" points="20.5,-185 20.5,-279 115.5,-279 115.5,-185 20.5,-185"/>
</a>
</g>
</g>
<!-- Node3&#45;&gt;Node2 -->
<g id="edge2_Node000002_Node000003" class="edge">
<title>Node3&#45;&gt;Node2</title>
<g id="a_edge2_Node000002_Node000003"><a xlink:title=" ">
<path fill="none" stroke="#63b8ff" d="M68,-174.59C68,-165.62 68,-156.79 68,-149.15"/>
<polygon fill="none" stroke="#63b8ff" points="64.5,-174.73 68,-184.73 71.5,-174.73 64.5,-174.73"/>
</a>
</g>
</g>
<!-- Node4 -->
<g id="Node000004" class="node">
<title>Node4</title>
<g id="a_Node000004"><a xlink:href="classBPMN_1_1ChildNode.html" target="_top" xlink:title="Base class for BPMN elements within a Scope.">
<polygon fill="white" stroke="transparent" points="116,-394 20,-394 20,-315 116,-315 116,-394"/>
<text text-anchor="start" x="25" y="-381.5" font-family="Helvetica,sans-Serif" font-size="10.00">BPMN::ChildNode</text>
<text text-anchor="start" x="28" y="-366.5" font-family="Helvetica,sans-Serif" font-size="10.00">+</text>
<text text-anchor="start" x="45" y="-366.5" font-family="Helvetica,sans-Serif" font-size="10.00">parent</text>
<text text-anchor="start" x="28" y="-351.5" font-family="Helvetica,sans-Serif" font-size="10.00">+</text>
<text text-anchor="start" x="45" y="-351.5" font-family="Helvetica,sans-Serif" font-size="10.00">ChildNode()</text>
<text text-anchor="start" x="28" y="-336.5" font-family="Helvetica,sans-Serif" font-size="10.00">+</text>
<text text-anchor="start" x="45" y="-336.5" font-family="Helvetica,sans-Serif" font-size="10.00">ancestor()</text>
<text text-anchor="start" x="28" y="-321.5" font-family="Helvetica,sans-Serif" font-size="10.00">+</text>
<text text-anchor="start" x="45" y="-321.5" font-family="Helvetica,sans-Serif" font-size="10.00">ancestor()</text>
<polygon fill="#666666" stroke="#666666" points="20,-376.5 20,-376.5 116,-376.5 116,-376.5 20,-376.5"/>
<polygon fill="#666666" stroke="#666666" points="20,-361.5 20,-361.5 43,-361.5 43,-361.5 20,-361.5"/>
<polygon fill="#666666" stroke="#666666" points="43,-361.5 43,-361.5 116,-361.5 116,-361.5 43,-361.5"/>
<polygon fill="none" stroke="#666666" points="20,-315 20,-394 116,-394 116,-315 20,-315"/>
</a>
</g>
</g>
<!-- Node4&#45;&gt;Node3 -->
<g id="edge3_Node000003_Node000004" class="edge">
<title>Node4&#45;&gt;Node3</title>
<g id="a_edge3_Node000003_Node000004"><a xlink:title=" ">
<path fill="none" stroke="#63b8ff" d="M68,-304.68C68,-296.3 68,-287.61 68,-279.29"/>
<polygon fill="none" stroke="#63b8ff" points="64.5,-304.71 68,-314.71 71.5,-304.71 64.5,-304.71"/>
</a>
</g>
</g>
<!-- Node5 -->
<g id="Node000005" class="node">
<title>Node5</title>
<g id="a_Node000005"><a xlink:href="classBPMN_1_1Node.html" target="_top" xlink:title="Base class for all nodes in a BPMN model.">
<polygon fill="white" stroke="transparent" points="103.5,-554 32.5,-554 32.5,-430 103.5,-430 103.5,-554"/>
<text text-anchor="start" x="38" y="-542" font-family="Helvetica,sans-Serif" font-size="10.00">BPMN::Node</text>
<text text-anchor="start" x="38" y="-527" font-family="Helvetica,sans-Serif" font-size="10.00">+</text>
<text text-anchor="start" x="52" y="-527" font-family="Helvetica,sans-Serif" font-size="10.00">receiving</text>
<text text-anchor="start" x="38" y="-512" font-family="Helvetica,sans-Serif" font-size="10.00">+</text>
<text text-anchor="start" x="52" y="-512" font-family="Helvetica,sans-Serif" font-size="10.00">sending</text>
<text text-anchor="start" x="38" y="-497" font-family="Helvetica,sans-Serif" font-size="10.00">+</text>
<text text-anchor="start" x="52" y="-497" font-family="Helvetica,sans-Serif" font-size="10.00">Node()</text>
<text text-anchor="start" x="38" y="-482" font-family="Helvetica,sans-Serif" font-size="10.00">+</text>
<text text-anchor="start" x="52" y="-482" font-family="Helvetica,sans-Serif" font-size="10.00">find()</text>
<text text-anchor="start" x="38" y="-467" font-family="Helvetica,sans-Serif" font-size="10.00">+</text>
<text text-anchor="start" x="52" y="-467" font-family="Helvetica,sans-Serif" font-size="10.00">find()</text>
<text text-anchor="start" x="38" y="-452" font-family="Helvetica,sans-Serif" font-size="10.00">+</text>
<text text-anchor="start" x="52" y="-452" font-family="Helvetica,sans-Serif" font-size="10.00">find_all()</text>
<text text-anchor="start" x="38" y="-437" font-family="Helvetica,sans-Serif" font-size="10.00">+</text>
<text text-anchor="start" x="52" y="-437" font-family="Helvetica,sans-Serif" font-size="10.00">find_all()</text>
<polygon fill="#666666" stroke="#666666" points="33,-537 33,-537 104,-537 104,-537 33,-537"/>
<polygon fill="#666666" stroke="#666666" points="33,-507 33,-507 50,-507 50,-507 33,-507"/>
<polygon fill="#666666" stroke="#666666" points="50,-507 50,-507 104,-507 104,-507 50,-507"/>
<polygon fill="none" stroke="#666666" points="32.5,-430 32.5,-554 103.5,-554 103.5,-430 32.5,-430"/>
</a>
</g>
</g>
<!-- Node5&#45;&gt;Node4 -->
<g id="edge4_Node000004_Node000005" class="edge">
<title>Node5&#45;&gt;Node4</title>
<g id="a_edge4_Node000004_Node000005"><a xlink:title=" ">
<path fill="none" stroke="#63b8ff" d="M68,-419.93C68,-411.02 68,-402.19 68,-394.05"/>
<polygon fill="none" stroke="#63b8ff" points="64.5,-419.99 68,-429.99 71.5,-419.99 64.5,-419.99"/>
</a>
</g>
</g>
<!-- Node6 -->
<g id="Node000006" class="node">
<title>Node6</title>
<g id="a_Node000006"><a xlink:href="classBPMN_1_1BaseElement.html" target="_top" xlink:title="Base class for all core BPMN elements.">
<polygon fill="white" stroke="transparent" points="125.5,-729 10.5,-729 10.5,-590 125.5,-590 125.5,-729"/>
<text text-anchor="start" x="18.5" y="-716.5" font-family="Helvetica,sans-Serif" font-size="10.00">BPMN::BaseElement</text>
<text text-anchor="start" x="15" y="-701.5" font-family="Helvetica,sans-Serif" font-size="10.00">+</text>
<text text-anchor="start" x="28" y="-701.5" font-family="Helvetica,sans-Serif" font-size="10.00">element</text>
<text text-anchor="start" x="15" y="-686.5" font-family="Helvetica,sans-Serif" font-size="10.00">+</text>
<text text-anchor="start" x="28" y="-686.5" font-family="Helvetica,sans-Serif" font-size="10.00">id</text>
<text text-anchor="start" x="15" y="-671.5" font-family="Helvetica,sans-Serif" font-size="10.00">+</text>
<text text-anchor="start" x="28" y="-671.5" font-family="Helvetica,sans-Serif" font-size="10.00">extensionElements</text>
<text text-anchor="start" x="15" y="-656.5" font-family="Helvetica,sans-Serif" font-size="10.00">+</text>
<text text-anchor="start" x="28" y="-656.5" font-family="Helvetica,sans-Serif" font-size="10.00">BaseElement()</text>
<text text-anchor="start" x="15" y="-641.5" font-family="Helvetica,sans-Serif" font-size="10.00">+</text>
<text text-anchor="start" x="28" y="-641.5" font-family="Helvetica,sans-Serif" font-size="10.00">is()</text>
<text text-anchor="start" x="15" y="-626.5" font-family="Helvetica,sans-Serif" font-size="10.00">+</text>
<text text-anchor="start" x="28" y="-626.5" font-family="Helvetica,sans-Serif" font-size="10.00">is()</text>
<text text-anchor="start" x="15" y="-611.5" font-family="Helvetica,sans-Serif" font-size="10.00">+</text>
<text text-anchor="start" x="28" y="-611.5" font-family="Helvetica,sans-Serif" font-size="10.00">get()</text>
<text text-anchor="start" x="15" y="-596.5" font-family="Helvetica,sans-Serif" font-size="10.00">+</text>
<text text-anchor="start" x="28" y="-596.5" font-family="Helvetica,sans-Serif" font-size="10.00">get()</text>
<polygon fill="#666666" stroke="#666666" points="11,-711.5 11,-711.5 126,-711.5 126,-711.5 11,-711.5"/>
<polygon fill="#666666" stroke="#666666" points="11,-666.5 11,-666.5 26,-666.5 26,-666.5 11,-666.5"/>
<polygon fill="#666666" stroke="#666666" points="26,-666.5 26,-666.5 126,-666.5 126,-666.5 26,-666.5"/>
<polygon fill="none" stroke="#666666" points="10.5,-590 10.5,-729 125.5,-729 125.5,-590 10.5,-590"/>
</a>
</g>
</g>
<!-- Node6&#45;&gt;Node5 -->
<g id="edge5_Node000005_Node000006" class="edge">
<title>Node6&#45;&gt;Node5</title>
<g id="a_edge5_Node000005_Node000006"><a xlink:title=" ">
<path fill="none" stroke="#63b8ff" d="M68,-579.71C68,-571.12 68,-562.47 68,-554.14"/>
<polygon fill="none" stroke="#63b8ff" points="64.5,-579.75 68,-589.75 71.5,-579.75 64.5,-579.75"/>
</a>
</g>
</g>
<!-- Node7 -->
<g id="Node000007" class="node">
<title>Node7</title>
<g id="a_Node000007"><a xlink:href="classBPMN_1_1Element.html" target="_top" xlink:title="Abstract base class for all elements in a BPMN model.">
<polygon fill="white" stroke="transparent" points="111,-874 25,-874 25,-765 111,-765 111,-874"/>
<text text-anchor="start" x="30" y="-861.5" font-family="Helvetica,sans-Serif" font-size="10.00">BPMN::Element</text>
<text text-anchor="start" x="66" y="-846.5" font-family="Helvetica,sans-Serif" font-size="10.00"> </text>
<text text-anchor="start" x="30" y="-831.5" font-family="Helvetica,sans-Serif" font-size="10.00">+</text>
<text text-anchor="start" x="44" y="-831.5" font-family="Helvetica,sans-Serif" font-size="10.00">~Element()</text>
<text text-anchor="start" x="30" y="-816.5" font-family="Helvetica,sans-Serif" font-size="10.00">+</text>
<text text-anchor="start" x="44" y="-816.5" font-family="Helvetica,sans-Serif" font-size="10.00">represents()</text>
<text text-anchor="start" x="30" y="-801.5" font-family="Helvetica,sans-Serif" font-size="10.00">+</text>
<text text-anchor="start" x="44" y="-801.5" font-family="Helvetica,sans-Serif" font-size="10.00">represents()</text>
<text text-anchor="start" x="30" y="-786.5" font-family="Helvetica,sans-Serif" font-size="10.00">+</text>
<text text-anchor="start" x="44" y="-786.5" font-family="Helvetica,sans-Serif" font-size="10.00">as()</text>
<text text-anchor="start" x="30" y="-771.5" font-family="Helvetica,sans-Serif" font-size="10.00">+</text>
<text text-anchor="start" x="44" y="-771.5" font-family="Helvetica,sans-Serif" font-size="10.00">as()</text>
<polygon fill="#666666" stroke="#666666" points="25,-856.5 25,-856.5 111,-856.5 111,-856.5 25,-856.5"/>
<polygon fill="#666666" stroke="#666666" points="25,-841.5 25,-841.5 111,-841.5 111,-841.5 25,-841.5"/>
<polygon fill="none" stroke="#666666" points="25,-765 25,-874 111,-874 111,-765 25,-765"/>
</a>
</g>
</g>
<!-- Node7&#45;&gt;Node6 -->
<g id="edge6_Node000006_Node000007" class="edge">
<title>Node7&#45;&gt;Node6</title>
<g id="a_edge6_Node000006_Node000007"><a xlink:title=" ">
<path fill="none" stroke="#63b8ff" d="M68,-754.55C68,-746.23 68,-737.67 68,-729.28"/>
<polygon fill="none" stroke="#63b8ff" points="64.5,-754.57 68,-764.57 71.5,-754.57 64.5,-754.57"/>
</a>
</g>
</g>
</g>
</svg>
