<?xml version="1.0" encoding="UTF-8" standalone="no"?>
<!DOCTYPE svg PUBLIC "-//W3C//DTD SVG 1.1//EN"
 "http://www.w3.org/Graphics/SVG/1.1/DTD/svg11.dtd">
<!-- Generated by graphviz version 2.43.0 (0)
 -->
<!-- Title: XML::bpmn::messageFlow Pages: 1 -->
<svg width="150pt" height="762pt"
 viewBox="0.00 0.00 150.00 762.00" xmlns="http://www.w3.org/2000/svg" xmlns:xlink="http://www.w3.org/1999/xlink">
<g id="graph0" class="graph" transform="scale(1 1) rotate(0) translate(4 758)">
<title>XML::bpmn::messageFlow</title>
<!-- Node1 -->
<g id="Node000001" class="node">
<title>Node1</title>
<g id="a_Node000001"><a xlink:title=" ">
<polygon fill="#999999" stroke="transparent" points="140.5,-49 1.5,-49 1.5,0 140.5,0 140.5,-49"/>
<text text-anchor="start" x="7" y="-36.5" font-family="Helvetica,sans-Serif" font-size="10.00">XML::bpmn::messageFlow</text>
<text text-anchor="start" x="16.5" y="-21.5" font-family="Helvetica,sans-Serif" font-size="10.00">+</text>
<text text-anchor="start" x="40" y="-21.5" font-family="Helvetica,sans-Serif" font-size="10.00">defaults</text>
<text text-anchor="start" x="16.5" y="-6.5" font-family="Helvetica,sans-Serif" font-size="10.00">#</text>
<text text-anchor="start" x="40" y="-6.5" font-family="Helvetica,sans-Serif" font-size="10.00">messageFlow()</text>
<polygon fill="#666666" stroke="#666666" points="2,-31.5 2,-31.5 141,-31.5 141,-31.5 2,-31.5"/>
<polygon fill="#666666" stroke="#666666" points="2,-16.5 2,-16.5 38,-16.5 38,-16.5 2,-16.5"/>
<polygon fill="#666666" stroke="#666666" points="38,-16.5 38,-16.5 141,-16.5 141,-16.5 38,-16.5"/>
<polygon fill="none" stroke="#666666" points="1.5,0 1.5,-49 140.5,-49 140.5,0 1.5,0"/>
</a>
</g>
</g>
<!-- Node2 -->
<g id="Node000002" class="node">
<title>Node2</title>
<g id="a_Node000002"><a xlink:href="classXML_1_1bpmn_1_1tMessageFlow.html" target="_top" xlink:title=" ">
<polygon fill="white" stroke="transparent" points="142,-194 0,-194 0,-85 142,-85 142,-194"/>
<text text-anchor="start" x="5" y="-181.5" font-family="Helvetica,sans-Serif" font-size="10.00">XML::bpmn::tMessageFlow</text>
<text text-anchor="start" x="14.5" y="-166.5" font-family="Helvetica,sans-Serif" font-size="10.00">+</text>
<text text-anchor="start" x="38" y="-166.5" font-family="Helvetica,sans-Serif" font-size="10.00">name</text>
<text text-anchor="start" x="14.5" y="-151.5" font-family="Helvetica,sans-Serif" font-size="10.00">+</text>
<text text-anchor="start" x="38" y="-151.5" font-family="Helvetica,sans-Serif" font-size="10.00">sourceRef</text>
<text text-anchor="start" x="14.5" y="-136.5" font-family="Helvetica,sans-Serif" font-size="10.00">+</text>
<text text-anchor="start" x="38" y="-136.5" font-family="Helvetica,sans-Serif" font-size="10.00">targetRef</text>
<text text-anchor="start" x="14.5" y="-121.5" font-family="Helvetica,sans-Serif" font-size="10.00">+</text>
<text text-anchor="start" x="38" y="-121.5" font-family="Helvetica,sans-Serif" font-size="10.00">messageRef</text>
<text text-anchor="start" x="14.5" y="-106.5" font-family="Helvetica,sans-Serif" font-size="10.00">+</text>
<text text-anchor="start" x="38" y="-106.5" font-family="Helvetica,sans-Serif" font-size="10.00">defaults</text>
<text text-anchor="start" x="14.5" y="-91.5" font-family="Helvetica,sans-Serif" font-size="10.00">#</text>
<text text-anchor="start" x="38" y="-91.5" font-family="Helvetica,sans-Serif" font-size="10.00">tMessageFlow()</text>
<polygon fill="#666666" stroke="#666666" points="0,-176.5 0,-176.5 142,-176.5 142,-176.5 0,-176.5"/>
<polygon fill="#666666" stroke="#666666" points="0,-101.5 0,-101.5 36,-101.5 36,-101.5 0,-101.5"/>
<polygon fill="#666666" stroke="#666666" points="36,-101.5 36,-101.5 142,-101.5 142,-101.5 36,-101.5"/>
<polygon fill="none" stroke="#666666" points="0,-85 0,-194 142,-194 142,-85 0,-85"/>
</a>
</g>
</g>
<!-- Node2&#45;&gt;Node1 -->
<g id="edge1_Node000001_Node000002" class="edge">
<title>Node2&#45;&gt;Node1</title>
<g id="a_edge1_Node000001_Node000002"><a xlink:title=" ">
<path fill="none" stroke="#63b8ff" d="M71,-74.69C71,-65.63 71,-56.82 71,-49.23"/>
<polygon fill="none" stroke="#63b8ff" points="67.5,-74.98 71,-84.98 74.5,-74.98 67.5,-74.98"/>
</a>
</g>
</g>
<!-- Node3 -->
<g id="Node000003" class="node">
<title>Node3</title>
<g id="a_Node000003"><a xlink:href="classXML_1_1bpmn_1_1tBaseElement.html" target="_top" xlink:title=" ">
<polygon fill="white" stroke="transparent" points="141,-324 1,-324 1,-230 141,-230 141,-324"/>
<text text-anchor="start" x="6" y="-312" font-family="Helvetica,sans-Serif" font-size="10.00">XML::bpmn::tBaseElement</text>
<text text-anchor="start" x="11" y="-297" font-family="Helvetica,sans-Serif" font-size="10.00">+</text>
<text text-anchor="start" x="30" y="-297" font-family="Helvetica,sans-Serif" font-size="10.00">documentation</text>
<text text-anchor="start" x="11" y="-282" font-family="Helvetica,sans-Serif" font-size="10.00">+</text>
<text text-anchor="start" x="30" y="-282" font-family="Helvetica,sans-Serif" font-size="10.00">extensionElements</text>
<text text-anchor="start" x="11" y="-267" font-family="Helvetica,sans-Serif" font-size="10.00">+</text>
<text text-anchor="start" x="30" y="-267" font-family="Helvetica,sans-Serif" font-size="10.00">id</text>
<text text-anchor="start" x="11" y="-252" font-family="Helvetica,sans-Serif" font-size="10.00">+</text>
<text text-anchor="start" x="30" y="-252" font-family="Helvetica,sans-Serif" font-size="10.00">defaults</text>
<text text-anchor="start" x="11" y="-237" font-family="Helvetica,sans-Serif" font-size="10.00">#</text>
<text text-anchor="start" x="30" y="-237" font-family="Helvetica,sans-Serif" font-size="10.00">tBaseElement()</text>
<polygon fill="#666666" stroke="#666666" points="1,-307 1,-307 141,-307 141,-307 1,-307"/>
<polygon fill="#666666" stroke="#666666" points="1,-247 1,-247 28,-247 28,-247 1,-247"/>
<polygon fill="#666666" stroke="#666666" points="28,-247 28,-247 141,-247 141,-247 28,-247"/>
<polygon fill="none" stroke="#666666" points="1,-230 1,-324 141,-324 141,-230 1,-230"/>
</a>
</g>
</g>
<!-- Node3&#45;&gt;Node2 -->
<g id="edge2_Node000002_Node000003" class="edge">
<title>Node3&#45;&gt;Node2</title>
<g id="a_edge2_Node000002_Node000003"><a xlink:title=" ">
<path fill="none" stroke="#63b8ff" d="M71,-219.58C71,-211.12 71,-202.41 71,-194.01"/>
<polygon fill="none" stroke="#63b8ff" points="67.5,-219.75 71,-229.75 74.5,-219.75 67.5,-219.75"/>
</a>
</g>
</g>
<!-- Node4 -->
<g id="Node000004" class="node">
<title>Node4</title>
<g id="a_Node000004"><a xlink:href="classXML_1_1XMLObject.html" target="_top" xlink:title="A class representing a node in an XML&#45;tree.">
<polygon fill="white" stroke="transparent" points="131,-754 11,-754 11,-360 131,-360 131,-754"/>
<text text-anchor="start" x="31" y="-742" font-family="Helvetica,sans-Serif" font-size="10.00">XML::XMLObject</text>
<text text-anchor="start" x="15" y="-727" font-family="Helvetica,sans-Serif" font-size="10.00">+</text>
<text text-anchor="start" x="28" y="-727" font-family="Helvetica,sans-Serif" font-size="10.00">xmlns</text>
<text text-anchor="start" x="15" y="-712" font-family="Helvetica,sans-Serif" font-size="10.00">+</text>
<text text-anchor="start" x="28" y="-712" font-family="Helvetica,sans-Serif" font-size="10.00">className</text>
<text text-anchor="start" x="15" y="-697" font-family="Helvetica,sans-Serif" font-size="10.00">+</text>
<text text-anchor="start" x="28" y="-697" font-family="Helvetica,sans-Serif" font-size="10.00">prefix</text>
<text text-anchor="start" x="15" y="-682" font-family="Helvetica,sans-Serif" font-size="10.00">+</text>
<text text-anchor="start" x="28" y="-682" font-family="Helvetica,sans-Serif" font-size="10.00">elementName</text>
<text text-anchor="start" x="15" y="-667" font-family="Helvetica,sans-Serif" font-size="10.00">+</text>
<text text-anchor="start" x="28" y="-667" font-family="Helvetica,sans-Serif" font-size="10.00">textContent</text>
<text text-anchor="start" x="15" y="-652" font-family="Helvetica,sans-Serif" font-size="10.00">+</text>
<text text-anchor="start" x="28" y="-652" font-family="Helvetica,sans-Serif" font-size="10.00">children</text>
<text text-anchor="start" x="15" y="-637" font-family="Helvetica,sans-Serif" font-size="10.00">+</text>
<text text-anchor="start" x="28" y="-637" font-family="Helvetica,sans-Serif" font-size="10.00">attributes</text>
<text text-anchor="start" x="15" y="-622" font-family="Helvetica,sans-Serif" font-size="10.00">+</text>
<text text-anchor="start" x="28" y="-622" font-family="Helvetica,sans-Serif" font-size="10.00">defaults</text>
<text text-anchor="start" x="15" y="-607" font-family="Helvetica,sans-Serif" font-size="10.00">#</text>
<text text-anchor="start" x="28" y="-607" font-family="Helvetica,sans-Serif" font-size="10.00">factory</text>
<text text-anchor="start" x="15" y="-592" font-family="Helvetica,sans-Serif" font-size="10.00">+</text>
<text text-anchor="start" x="28" y="-592" font-family="Helvetica,sans-Serif" font-size="10.00">~XMLObject()</text>
<text text-anchor="start" x="15" y="-577" font-family="Helvetica,sans-Serif" font-size="10.00">+</text>
<text text-anchor="start" x="28" y="-577" font-family="Helvetica,sans-Serif" font-size="10.00">is()</text>
<text text-anchor="start" x="15" y="-562" font-family="Helvetica,sans-Serif" font-size="10.00">+</text>
<text text-anchor="start" x="28" y="-562" font-family="Helvetica,sans-Serif" font-size="10.00">is()</text>
<text text-anchor="start" x="15" y="-547" font-family="Helvetica,sans-Serif" font-size="10.00">+</text>
<text text-anchor="start" x="28" y="-547" font-family="Helvetica,sans-Serif" font-size="10.00">get()</text>
<text text-anchor="start" x="15" y="-532" font-family="Helvetica,sans-Serif" font-size="10.00">+</text>
<text text-anchor="start" x="28" y="-532" font-family="Helvetica,sans-Serif" font-size="10.00">get()</text>
<text text-anchor="start" x="15" y="-517" font-family="Helvetica,sans-Serif" font-size="10.00">+</text>
<text text-anchor="start" x="28" y="-517" font-family="Helvetica,sans-Serif" font-size="10.00">find()</text>
<text text-anchor="start" x="15" y="-502" font-family="Helvetica,sans-Serif" font-size="10.00">+</text>
<text text-anchor="start" x="28" y="-502" font-family="Helvetica,sans-Serif" font-size="10.00">find()</text>
<text text-anchor="start" x="15" y="-487" font-family="Helvetica,sans-Serif" font-size="10.00">+</text>
<text text-anchor="start" x="28" y="-487" font-family="Helvetica,sans-Serif" font-size="10.00">stringify()</text>
<text text-anchor="start" x="15" y="-472" font-family="Helvetica,sans-Serif" font-size="10.00">+</text>
<text text-anchor="start" x="28" y="-472" font-family="Helvetica,sans-Serif" font-size="10.00">format()</text>
<text text-anchor="start" x="15" y="-457" font-family="Helvetica,sans-Serif" font-size="10.00">+</text>
<text text-anchor="start" x="28" y="-457" font-family="Helvetica,sans-Serif" font-size="10.00">getRequiredChild()</text>
<text text-anchor="start" x="28" y="-442" font-family="Helvetica,sans-Serif" font-size="10.00">and 7 more...</text>
<text text-anchor="start" x="15" y="-427" font-family="Helvetica,sans-Serif" font-size="10.00">+</text>
<text text-anchor="start" x="28" y="-427" font-family="Helvetica,sans-Serif" font-size="10.00">createFromStream()</text>
<text text-anchor="start" x="15" y="-412" font-family="Helvetica,sans-Serif" font-size="10.00">+</text>
<text text-anchor="start" x="28" y="-412" font-family="Helvetica,sans-Serif" font-size="10.00">createFromString()</text>
<text text-anchor="start" x="15" y="-397" font-family="Helvetica,sans-Serif" font-size="10.00">+</text>
<text text-anchor="start" x="28" y="-397" font-family="Helvetica,sans-Serif" font-size="10.00">createFromFile()</text>
<text text-anchor="start" x="15" y="-382" font-family="Helvetica,sans-Serif" font-size="10.00">#</text>
<text text-anchor="start" x="28" y="-382" font-family="Helvetica,sans-Serif" font-size="10.00">XMLObject()</text>
<text text-anchor="start" x="15" y="-367" font-family="Helvetica,sans-Serif" font-size="10.00">#</text>
<text text-anchor="start" x="28" y="-367" font-family="Helvetica,sans-Serif" font-size="10.00">createObject()</text>
<polygon fill="#666666" stroke="#666666" points="11,-737 11,-737 131,-737 131,-737 11,-737"/>
<polygon fill="#666666" stroke="#666666" points="11,-602 11,-602 26,-602 26,-602 11,-602"/>
<polygon fill="#666666" stroke="#666666" points="26,-602 26,-602 131,-602 131,-602 26,-602"/>
<polygon fill="none" stroke="#666666" points="11,-360 11,-754 131,-754 131,-360 11,-360"/>
</a>
</g>
</g>
<!-- Node4&#45;&gt;Node3 -->
<g id="edge3_Node000003_Node000004" class="edge">
<title>Node4&#45;&gt;Node3</title>
<g id="a_edge3_Node000003_Node000004"><a xlink:title=" ">
<path fill="none" stroke="#63b8ff" d="M71,-349.78C71,-340.62 71,-331.97 71,-324.06"/>
<polygon fill="none" stroke="#63b8ff" points="67.5,-349.91 71,-359.91 74.5,-349.91 67.5,-349.91"/>
</a>
</g>
</g>
</g>
</svg>
