<?xml version="1.0" encoding="UTF-8" standalone="no"?>
<!DOCTYPE svg PUBLIC "-//W3C//DTD SVG 1.1//EN"
 "http://www.w3.org/Graphics/SVG/1.1/DTD/svg11.dtd">
<!-- Generated by graphviz version 2.43.0 (0)
 -->
<!-- Title: BPMN::EventBasedGateway Pages: 1 -->
<svg width="155pt" height="867pt"
 viewBox="0.00 0.00 155.00 867.00" xmlns="http://www.w3.org/2000/svg" xmlns:xlink="http://www.w3.org/1999/xlink">
<g id="graph0" class="graph" transform="scale(1 1) rotate(0) translate(4 863)">
<title>BPMN::EventBasedGateway</title>
<!-- Node1 -->
<g id="Node000001" class="node">
<title>Node1</title>
<g id="a_Node000001"><a xlink:title=" ">
<polygon fill="#999999" stroke="transparent" points="147,-49 0,-49 0,0 147,0 147,-49"/>
<text text-anchor="start" x="5.5" y="-36.5" font-family="Helvetica,sans-Serif" font-size="10.00">BPMN::EventBasedGateway</text>
<text text-anchor="start" x="8.5" y="-21.5" font-family="Helvetica,sans-Serif" font-size="10.00">+</text>
<text text-anchor="start" x="25.5" y="-21.5" font-family="Helvetica,sans-Serif" font-size="10.00">element</text>
<text text-anchor="start" x="8.5" y="-6.5" font-family="Helvetica,sans-Serif" font-size="10.00">+</text>
<text text-anchor="start" x="25.5" y="-6.5" font-family="Helvetica,sans-Serif" font-size="10.00">EventBasedGateway()</text>
<polygon fill="#666666" stroke="#666666" points="0.5,-31.5 0.5,-31.5 147.5,-31.5 147.5,-31.5 0.5,-31.5"/>
<polygon fill="#666666" stroke="#666666" points="0.5,-16.5 0.5,-16.5 23.5,-16.5 23.5,-16.5 0.5,-16.5"/>
<polygon fill="#666666" stroke="#666666" points="23.5,-16.5 23.5,-16.5 147.5,-16.5 147.5,-16.5 23.5,-16.5"/>
<polygon fill="none" stroke="#666666" points="0,0 0,-49 147,-49 147,0 0,0"/>
</a>
</g>
</g>
<!-- Node2 -->
<g id="Node000002" class="node">
<title>Node2</title>
<g id="a_Node000002"><a xlink:href="classBPMN_1_1Gateway.html" target="_top" xlink:title=" ">
<polygon fill="white" stroke="transparent" points="118,-134 29,-134 29,-85 118,-85 118,-134"/>
<text text-anchor="start" x="34.5" y="-121.5" font-family="Helvetica,sans-Serif" font-size="10.00">BPMN::Gateway</text>
<text text-anchor="start" x="37.5" y="-106.5" font-family="Helvetica,sans-Serif" font-size="10.00">+</text>
<text text-anchor="start" x="54.5" y="-106.5" font-family="Helvetica,sans-Serif" font-size="10.00">element</text>
<text text-anchor="start" x="37.5" y="-91.5" font-family="Helvetica,sans-Serif" font-size="10.00">+</text>
<text text-anchor="start" x="54.5" y="-91.5" font-family="Helvetica,sans-Serif" font-size="10.00">Gateway()</text>
<polygon fill="#666666" stroke="#666666" points="29.5,-116.5 29.5,-116.5 118.5,-116.5 118.5,-116.5 29.5,-116.5"/>
<polygon fill="#666666" stroke="#666666" points="29.5,-101.5 29.5,-101.5 52.5,-101.5 52.5,-101.5 29.5,-101.5"/>
<polygon fill="#666666" stroke="#666666" points="52.5,-101.5 52.5,-101.5 118.5,-101.5 118.5,-101.5 52.5,-101.5"/>
<polygon fill="none" stroke="#666666" points="29,-85 29,-134 118,-134 118,-85 29,-85"/>
</a>
</g>
</g>
<!-- Node2&#45;&gt;Node1 -->
<g id="edge1_Node000001_Node000002" class="edge">
<title>Node2&#45;&gt;Node1</title>
<g id="a_edge1_Node000001_Node000002"><a xlink:title=" ">
<path fill="none" stroke="#63b8ff" d="M73.5,-74.77C73.5,-66.17 73.5,-57.1 73.5,-49.12"/>
<polygon fill="none" stroke="#63b8ff" points="70,-74.94 73.5,-84.94 77,-74.94 70,-74.94"/>
</a>
</g>
</g>
<!-- Node3 -->
<g id="Node000003" class="node">
<title>Node3</title>
<g id="a_Node000003"><a xlink:href="classBPMN_1_1FlowNode.html" target="_top" xlink:title="Base class for BPMN elements that may contain incoming and outgoing sequence flows.">
<polygon fill="white" stroke="transparent" points="121,-264 26,-264 26,-170 121,-170 121,-264"/>
<text text-anchor="start" x="31.5" y="-252" font-family="Helvetica,sans-Serif" font-size="10.00">BPMN::FlowNode</text>
<text text-anchor="start" x="34.5" y="-237" font-family="Helvetica,sans-Serif" font-size="10.00">+</text>
<text text-anchor="start" x="51.5" y="-237" font-family="Helvetica,sans-Serif" font-size="10.00">element</text>
<text text-anchor="start" x="34.5" y="-222" font-family="Helvetica,sans-Serif" font-size="10.00">+</text>
<text text-anchor="start" x="51.5" y="-222" font-family="Helvetica,sans-Serif" font-size="10.00">name</text>
<text text-anchor="start" x="34.5" y="-207" font-family="Helvetica,sans-Serif" font-size="10.00">+</text>
<text text-anchor="start" x="51.5" y="-207" font-family="Helvetica,sans-Serif" font-size="10.00">incoming</text>
<text text-anchor="start" x="34.5" y="-192" font-family="Helvetica,sans-Serif" font-size="10.00">+</text>
<text text-anchor="start" x="51.5" y="-192" font-family="Helvetica,sans-Serif" font-size="10.00">outgoing</text>
<text text-anchor="start" x="34.5" y="-177" font-family="Helvetica,sans-Serif" font-size="10.00">+</text>
<text text-anchor="start" x="51.5" y="-177" font-family="Helvetica,sans-Serif" font-size="10.00">FlowNode()</text>
<polygon fill="#666666" stroke="#666666" points="26.5,-247 26.5,-247 121.5,-247 121.5,-247 26.5,-247"/>
<polygon fill="#666666" stroke="#666666" points="26.5,-187 26.5,-187 49.5,-187 49.5,-187 26.5,-187"/>
<polygon fill="#666666" stroke="#666666" points="49.5,-187 49.5,-187 121.5,-187 121.5,-187 49.5,-187"/>
<polygon fill="none" stroke="#666666" points="26,-170 26,-264 121,-264 121,-170 26,-170"/>
</a>
</g>
</g>
<!-- Node3&#45;&gt;Node2 -->
<g id="edge2_Node000002_Node000003" class="edge">
<title>Node3&#45;&gt;Node2</title>
<g id="a_edge2_Node000002_Node000003"><a xlink:title=" ">
<path fill="none" stroke="#63b8ff" d="M73.5,-159.59C73.5,-150.62 73.5,-141.79 73.5,-134.15"/>
<polygon fill="none" stroke="#63b8ff" points="70,-159.73 73.5,-169.73 77,-159.73 70,-159.73"/>
</a>
</g>
</g>
<!-- Node4 -->
<g id="Node000004" class="node">
<title>Node4</title>
<g id="a_Node000004"><a xlink:href="classBPMN_1_1ChildNode.html" target="_top" xlink:title="Base class for BPMN elements within a Scope.">
<polygon fill="white" stroke="transparent" points="121.5,-379 25.5,-379 25.5,-300 121.5,-300 121.5,-379"/>
<text text-anchor="start" x="30.5" y="-366.5" font-family="Helvetica,sans-Serif" font-size="10.00">BPMN::ChildNode</text>
<text text-anchor="start" x="33.5" y="-351.5" font-family="Helvetica,sans-Serif" font-size="10.00">+</text>
<text text-anchor="start" x="50.5" y="-351.5" font-family="Helvetica,sans-Serif" font-size="10.00">parent</text>
<text text-anchor="start" x="33.5" y="-336.5" font-family="Helvetica,sans-Serif" font-size="10.00">+</text>
<text text-anchor="start" x="50.5" y="-336.5" font-family="Helvetica,sans-Serif" font-size="10.00">ChildNode()</text>
<text text-anchor="start" x="33.5" y="-321.5" font-family="Helvetica,sans-Serif" font-size="10.00">+</text>
<text text-anchor="start" x="50.5" y="-321.5" font-family="Helvetica,sans-Serif" font-size="10.00">ancestor()</text>
<text text-anchor="start" x="33.5" y="-306.5" font-family="Helvetica,sans-Serif" font-size="10.00">+</text>
<text text-anchor="start" x="50.5" y="-306.5" font-family="Helvetica,sans-Serif" font-size="10.00">ancestor()</text>
<polygon fill="#666666" stroke="#666666" points="25.5,-361.5 25.5,-361.5 121.5,-361.5 121.5,-361.5 25.5,-361.5"/>
<polygon fill="#666666" stroke="#666666" points="25.5,-346.5 25.5,-346.5 48.5,-346.5 48.5,-346.5 25.5,-346.5"/>
<polygon fill="#666666" stroke="#666666" points="48.5,-346.5 48.5,-346.5 121.5,-346.5 121.5,-346.5 48.5,-346.5"/>
<polygon fill="none" stroke="#666666" points="25.5,-300 25.5,-379 121.5,-379 121.5,-300 25.5,-300"/>
</a>
</g>
</g>
<!-- Node4&#45;&gt;Node3 -->
<g id="edge3_Node000003_Node000004" class="edge">
<title>Node4&#45;&gt;Node3</title>
<g id="a_edge3_Node000003_Node000004"><a xlink:title=" ">
<path fill="none" stroke="#63b8ff" d="M73.5,-289.68C73.5,-281.3 73.5,-272.61 73.5,-264.29"/>
<polygon fill="none" stroke="#63b8ff" points="70,-289.71 73.5,-299.71 77,-289.71 70,-289.71"/>
</a>
</g>
</g>
<!-- Node5 -->
<g id="Node000005" class="node">
<title>Node5</title>
<g id="a_Node000005"><a xlink:href="classBPMN_1_1Node.html" target="_top" xlink:title="Base class for all nodes in a BPMN model.">
<polygon fill="white" stroke="transparent" points="109,-539 38,-539 38,-415 109,-415 109,-539"/>
<text text-anchor="start" x="43.5" y="-527" font-family="Helvetica,sans-Serif" font-size="10.00">BPMN::Node</text>
<text text-anchor="start" x="43.5" y="-512" font-family="Helvetica,sans-Serif" font-size="10.00">+</text>
<text text-anchor="start" x="57.5" y="-512" font-family="Helvetica,sans-Serif" font-size="10.00">receiving</text>
<text text-anchor="start" x="43.5" y="-497" font-family="Helvetica,sans-Serif" font-size="10.00">+</text>
<text text-anchor="start" x="57.5" y="-497" font-family="Helvetica,sans-Serif" font-size="10.00">sending</text>
<text text-anchor="start" x="43.5" y="-482" font-family="Helvetica,sans-Serif" font-size="10.00">+</text>
<text text-anchor="start" x="57.5" y="-482" font-family="Helvetica,sans-Serif" font-size="10.00">Node()</text>
<text text-anchor="start" x="43.5" y="-467" font-family="Helvetica,sans-Serif" font-size="10.00">+</text>
<text text-anchor="start" x="57.5" y="-467" font-family="Helvetica,sans-Serif" font-size="10.00">find()</text>
<text text-anchor="start" x="43.5" y="-452" font-family="Helvetica,sans-Serif" font-size="10.00">+</text>
<text text-anchor="start" x="57.5" y="-452" font-family="Helvetica,sans-Serif" font-size="10.00">find()</text>
<text text-anchor="start" x="43.5" y="-437" font-family="Helvetica,sans-Serif" font-size="10.00">+</text>
<text text-anchor="start" x="57.5" y="-437" font-family="Helvetica,sans-Serif" font-size="10.00">find_all()</text>
<text text-anchor="start" x="43.5" y="-422" font-family="Helvetica,sans-Serif" font-size="10.00">+</text>
<text text-anchor="start" x="57.5" y="-422" font-family="Helvetica,sans-Serif" font-size="10.00">find_all()</text>
<polygon fill="#666666" stroke="#666666" points="38.5,-522 38.5,-522 109.5,-522 109.5,-522 38.5,-522"/>
<polygon fill="#666666" stroke="#666666" points="38.5,-492 38.5,-492 55.5,-492 55.5,-492 38.5,-492"/>
<polygon fill="#666666" stroke="#666666" points="55.5,-492 55.5,-492 109.5,-492 109.5,-492 55.5,-492"/>
<polygon fill="none" stroke="#666666" points="38,-415 38,-539 109,-539 109,-415 38,-415"/>
</a>
</g>
</g>
<!-- Node5&#45;&gt;Node4 -->
<g id="edge4_Node000004_Node000005" class="edge">
<title>Node5&#45;&gt;Node4</title>
<g id="a_edge4_Node000004_Node000005"><a xlink:title=" ">
<path fill="none" stroke="#63b8ff" d="M73.5,-404.93C73.5,-396.02 73.5,-387.19 73.5,-379.05"/>
<polygon fill="none" stroke="#63b8ff" points="70,-404.99 73.5,-414.99 77,-404.99 70,-404.99"/>
</a>
</g>
</g>
<!-- Node6 -->
<g id="Node000006" class="node">
<title>Node6</title>
<g id="a_Node000006"><a xlink:href="classBPMN_1_1BaseElement.html" target="_top" xlink:title="Base class for all core BPMN elements.">
<polygon fill="white" stroke="transparent" points="131,-714 16,-714 16,-575 131,-575 131,-714"/>
<text text-anchor="start" x="24" y="-701.5" font-family="Helvetica,sans-Serif" font-size="10.00">BPMN::BaseElement</text>
<text text-anchor="start" x="20.5" y="-686.5" font-family="Helvetica,sans-Serif" font-size="10.00">+</text>
<text text-anchor="start" x="33.5" y="-686.5" font-family="Helvetica,sans-Serif" font-size="10.00">element</text>
<text text-anchor="start" x="20.5" y="-671.5" font-family="Helvetica,sans-Serif" font-size="10.00">+</text>
<text text-anchor="start" x="33.5" y="-671.5" font-family="Helvetica,sans-Serif" font-size="10.00">id</text>
<text text-anchor="start" x="20.5" y="-656.5" font-family="Helvetica,sans-Serif" font-size="10.00">+</text>
<text text-anchor="start" x="33.5" y="-656.5" font-family="Helvetica,sans-Serif" font-size="10.00">extensionElements</text>
<text text-anchor="start" x="20.5" y="-641.5" font-family="Helvetica,sans-Serif" font-size="10.00">+</text>
<text text-anchor="start" x="33.5" y="-641.5" font-family="Helvetica,sans-Serif" font-size="10.00">BaseElement()</text>
<text text-anchor="start" x="20.5" y="-626.5" font-family="Helvetica,sans-Serif" font-size="10.00">+</text>
<text text-anchor="start" x="33.5" y="-626.5" font-family="Helvetica,sans-Serif" font-size="10.00">is()</text>
<text text-anchor="start" x="20.5" y="-611.5" font-family="Helvetica,sans-Serif" font-size="10.00">+</text>
<text text-anchor="start" x="33.5" y="-611.5" font-family="Helvetica,sans-Serif" font-size="10.00">is()</text>
<text text-anchor="start" x="20.5" y="-596.5" font-family="Helvetica,sans-Serif" font-size="10.00">+</text>
<text text-anchor="start" x="33.5" y="-596.5" font-family="Helvetica,sans-Serif" font-size="10.00">get()</text>
<text text-anchor="start" x="20.5" y="-581.5" font-family="Helvetica,sans-Serif" font-size="10.00">+</text>
<text text-anchor="start" x="33.5" y="-581.5" font-family="Helvetica,sans-Serif" font-size="10.00">get()</text>
<polygon fill="#666666" stroke="#666666" points="16.5,-696.5 16.5,-696.5 131.5,-696.5 131.5,-696.5 16.5,-696.5"/>
<polygon fill="#666666" stroke="#666666" points="16.5,-651.5 16.5,-651.5 31.5,-651.5 31.5,-651.5 16.5,-651.5"/>
<polygon fill="#666666" stroke="#666666" points="31.5,-651.5 31.5,-651.5 131.5,-651.5 131.5,-651.5 31.5,-651.5"/>
<polygon fill="none" stroke="#666666" points="16,-575 16,-714 131,-714 131,-575 16,-575"/>
</a>
</g>
</g>
<!-- Node6&#45;&gt;Node5 -->
<g id="edge5_Node000005_Node000006" class="edge">
<title>Node6&#45;&gt;Node5</title>
<g id="a_edge5_Node000005_Node000006"><a xlink:title=" ">
<path fill="none" stroke="#63b8ff" d="M73.5,-564.71C73.5,-556.12 73.5,-547.47 73.5,-539.14"/>
<polygon fill="none" stroke="#63b8ff" points="70,-564.75 73.5,-574.75 77,-564.75 70,-564.75"/>
</a>
</g>
</g>
<!-- Node7 -->
<g id="Node000007" class="node">
<title>Node7</title>
<g id="a_Node000007"><a xlink:href="classBPMN_1_1Element.html" target="_top" xlink:title="Abstract base class for all elements in a BPMN model.">
<polygon fill="white" stroke="transparent" points="116.5,-859 30.5,-859 30.5,-750 116.5,-750 116.5,-859"/>
<text text-anchor="start" x="35.5" y="-846.5" font-family="Helvetica,sans-Serif" font-size="10.00">BPMN::Element</text>
<text text-anchor="start" x="71.5" y="-831.5" font-family="Helvetica,sans-Serif" font-size="10.00"> </text>
<text text-anchor="start" x="35.5" y="-816.5" font-family="Helvetica,sans-Serif" font-size="10.00">+</text>
<text text-anchor="start" x="49.5" y="-816.5" font-family="Helvetica,sans-Serif" font-size="10.00">~Element()</text>
<text text-anchor="start" x="35.5" y="-801.5" font-family="Helvetica,sans-Serif" font-size="10.00">+</text>
<text text-anchor="start" x="49.5" y="-801.5" font-family="Helvetica,sans-Serif" font-size="10.00">represents()</text>
<text text-anchor="start" x="35.5" y="-786.5" font-family="Helvetica,sans-Serif" font-size="10.00">+</text>
<text text-anchor="start" x="49.5" y="-786.5" font-family="Helvetica,sans-Serif" font-size="10.00">represents()</text>
<text text-anchor="start" x="35.5" y="-771.5" font-family="Helvetica,sans-Serif" font-size="10.00">+</text>
<text text-anchor="start" x="49.5" y="-771.5" font-family="Helvetica,sans-Serif" font-size="10.00">as()</text>
<text text-anchor="start" x="35.5" y="-756.5" font-family="Helvetica,sans-Serif" font-size="10.00">+</text>
<text text-anchor="start" x="49.5" y="-756.5" font-family="Helvetica,sans-Serif" font-size="10.00">as()</text>
<polygon fill="#666666" stroke="#666666" points="30.5,-841.5 30.5,-841.5 116.5,-841.5 116.5,-841.5 30.5,-841.5"/>
<polygon fill="#666666" stroke="#666666" points="30.5,-826.5 30.5,-826.5 116.5,-826.5 116.5,-826.5 30.5,-826.5"/>
<polygon fill="none" stroke="#666666" points="30.5,-750 30.5,-859 116.5,-859 116.5,-750 30.5,-750"/>
</a>
</g>
</g>
<!-- Node7&#45;&gt;Node6 -->
<g id="edge6_Node000006_Node000007" class="edge">
<title>Node7&#45;&gt;Node6</title>
<g id="a_edge6_Node000006_Node000007"><a xlink:title=" ">
<path fill="none" stroke="#63b8ff" d="M73.5,-739.55C73.5,-731.23 73.5,-722.67 73.5,-714.28"/>
<polygon fill="none" stroke="#63b8ff" points="70,-739.57 73.5,-749.57 77,-739.57 70,-739.57"/>
</a>
</g>
</g>
</g>
</svg>
