<?xml version="1.0" encoding="UTF-8" standalone="no"?>
<!DOCTYPE svg PUBLIC "-//W3C//DTD SVG 1.1//EN"
 "http://www.w3.org/Graphics/SVG/1.1/DTD/svg11.dtd">
<!-- Generated by graphviz version 2.43.0 (0)
 -->
<!-- Title: XML::bpmn::ioBinding Pages: 1 -->
<svg width="178pt" height="747pt"
 viewBox="0.00 0.00 178.00 747.00" xmlns="http://www.w3.org/2000/svg" xmlns:xlink="http://www.w3.org/1999/xlink">
<g id="graph0" class="graph" transform="scale(1 1) rotate(0) translate(4 743)">
<title>XML::bpmn::ioBinding</title>
<!-- Node1 -->
<g id="Node000001" class="node">
<title>Node1</title>
<g id="a_Node000001"><a xlink:title=" ">
<polygon fill="#999999" stroke="transparent" points="143.5,-49 26.5,-49 26.5,0 143.5,0 143.5,-49"/>
<text text-anchor="start" x="32" y="-36.5" font-family="Helvetica,sans-Serif" font-size="10.00">XML::bpmn::ioBinding</text>
<text text-anchor="start" x="41.5" y="-21.5" font-family="Helvetica,sans-Serif" font-size="10.00">+</text>
<text text-anchor="start" x="65" y="-21.5" font-family="Helvetica,sans-Serif" font-size="10.00">defaults</text>
<text text-anchor="start" x="41.5" y="-6.5" font-family="Helvetica,sans-Serif" font-size="10.00">#</text>
<text text-anchor="start" x="65" y="-6.5" font-family="Helvetica,sans-Serif" font-size="10.00">ioBinding()</text>
<polygon fill="#666666" stroke="#666666" points="27,-31.5 27,-31.5 144,-31.5 144,-31.5 27,-31.5"/>
<polygon fill="#666666" stroke="#666666" points="27,-16.5 27,-16.5 63,-16.5 63,-16.5 27,-16.5"/>
<polygon fill="#666666" stroke="#666666" points="63,-16.5 63,-16.5 144,-16.5 144,-16.5 63,-16.5"/>
<polygon fill="none" stroke="#666666" points="26.5,0 26.5,-49 143.5,-49 143.5,0 26.5,0"/>
</a>
</g>
</g>
<!-- Node2 -->
<g id="Node000002" class="node">
<title>Node2</title>
<g id="a_Node000002"><a xlink:href="classXML_1_1bpmn_1_1tInputOutputBinding.html" target="_top" xlink:title=" ">
<polygon fill="white" stroke="transparent" points="170,-179 0,-179 0,-85 170,-85 170,-179"/>
<text text-anchor="start" x="5" y="-167" font-family="Helvetica,sans-Serif" font-size="10.00">XML::bpmn::tInputOutputBinding</text>
<text text-anchor="start" x="14.5" y="-152" font-family="Helvetica,sans-Serif" font-size="10.00">+</text>
<text text-anchor="start" x="38" y="-152" font-family="Helvetica,sans-Serif" font-size="10.00">operationRef</text>
<text text-anchor="start" x="14.5" y="-137" font-family="Helvetica,sans-Serif" font-size="10.00">+</text>
<text text-anchor="start" x="38" y="-137" font-family="Helvetica,sans-Serif" font-size="10.00">inputDataRef</text>
<text text-anchor="start" x="14.5" y="-122" font-family="Helvetica,sans-Serif" font-size="10.00">+</text>
<text text-anchor="start" x="38" y="-122" font-family="Helvetica,sans-Serif" font-size="10.00">outputDataRef</text>
<text text-anchor="start" x="14.5" y="-107" font-family="Helvetica,sans-Serif" font-size="10.00">+</text>
<text text-anchor="start" x="38" y="-107" font-family="Helvetica,sans-Serif" font-size="10.00">defaults</text>
<text text-anchor="start" x="14.5" y="-92" font-family="Helvetica,sans-Serif" font-size="10.00">#</text>
<text text-anchor="start" x="38" y="-92" font-family="Helvetica,sans-Serif" font-size="10.00">tInputOutputBinding()</text>
<polygon fill="#666666" stroke="#666666" points="0,-162 0,-162 170,-162 170,-162 0,-162"/>
<polygon fill="#666666" stroke="#666666" points="0,-102 0,-102 36,-102 36,-102 0,-102"/>
<polygon fill="#666666" stroke="#666666" points="36,-102 36,-102 170,-102 170,-102 36,-102"/>
<polygon fill="none" stroke="#666666" points="0,-85 0,-179 170,-179 170,-85 0,-85"/>
</a>
</g>
</g>
<!-- Node2&#45;&gt;Node1 -->
<g id="edge1_Node000001_Node000002" class="edge">
<title>Node2&#45;&gt;Node1</title>
<g id="a_edge1_Node000001_Node000002"><a xlink:title=" ">
<path fill="none" stroke="#63b8ff" d="M85,-74.59C85,-65.62 85,-56.79 85,-49.15"/>
<polygon fill="none" stroke="#63b8ff" points="81.5,-74.73 85,-84.73 88.5,-74.73 81.5,-74.73"/>
</a>
</g>
</g>
<!-- Node3 -->
<g id="Node000003" class="node">
<title>Node3</title>
<g id="a_Node000003"><a xlink:href="classXML_1_1bpmn_1_1tBaseElement.html" target="_top" xlink:title=" ">
<polygon fill="white" stroke="transparent" points="155,-309 15,-309 15,-215 155,-215 155,-309"/>
<text text-anchor="start" x="20" y="-297" font-family="Helvetica,sans-Serif" font-size="10.00">XML::bpmn::tBaseElement</text>
<text text-anchor="start" x="25" y="-282" font-family="Helvetica,sans-Serif" font-size="10.00">+</text>
<text text-anchor="start" x="44" y="-282" font-family="Helvetica,sans-Serif" font-size="10.00">documentation</text>
<text text-anchor="start" x="25" y="-267" font-family="Helvetica,sans-Serif" font-size="10.00">+</text>
<text text-anchor="start" x="44" y="-267" font-family="Helvetica,sans-Serif" font-size="10.00">extensionElements</text>
<text text-anchor="start" x="25" y="-252" font-family="Helvetica,sans-Serif" font-size="10.00">+</text>
<text text-anchor="start" x="44" y="-252" font-family="Helvetica,sans-Serif" font-size="10.00">id</text>
<text text-anchor="start" x="25" y="-237" font-family="Helvetica,sans-Serif" font-size="10.00">+</text>
<text text-anchor="start" x="44" y="-237" font-family="Helvetica,sans-Serif" font-size="10.00">defaults</text>
<text text-anchor="start" x="25" y="-222" font-family="Helvetica,sans-Serif" font-size="10.00">#</text>
<text text-anchor="start" x="44" y="-222" font-family="Helvetica,sans-Serif" font-size="10.00">tBaseElement()</text>
<polygon fill="#666666" stroke="#666666" points="15,-292 15,-292 155,-292 155,-292 15,-292"/>
<polygon fill="#666666" stroke="#666666" points="15,-232 15,-232 42,-232 42,-232 15,-232"/>
<polygon fill="#666666" stroke="#666666" points="42,-232 42,-232 155,-232 155,-232 42,-232"/>
<polygon fill="none" stroke="#666666" points="15,-215 15,-309 155,-309 155,-215 15,-215"/>
</a>
</g>
</g>
<!-- Node3&#45;&gt;Node2 -->
<g id="edge2_Node000002_Node000003" class="edge">
<title>Node3&#45;&gt;Node2</title>
<g id="a_edge2_Node000002_Node000003"><a xlink:title=" ">
<path fill="none" stroke="#63b8ff" d="M85,-204.56C85,-196.06 85,-187.39 85,-179.14"/>
<polygon fill="none" stroke="#63b8ff" points="81.5,-204.79 85,-214.79 88.5,-204.79 81.5,-204.79"/>
</a>
</g>
</g>
<!-- Node4 -->
<g id="Node000004" class="node">
<title>Node4</title>
<g id="a_Node000004"><a xlink:href="classXML_1_1XMLObject.html" target="_top" xlink:title="A class representing a node in an XML&#45;tree.">
<polygon fill="white" stroke="transparent" points="145,-739 25,-739 25,-345 145,-345 145,-739"/>
<text text-anchor="start" x="45" y="-727" font-family="Helvetica,sans-Serif" font-size="10.00">XML::XMLObject</text>
<text text-anchor="start" x="29" y="-712" font-family="Helvetica,sans-Serif" font-size="10.00">+</text>
<text text-anchor="start" x="42" y="-712" font-family="Helvetica,sans-Serif" font-size="10.00">xmlns</text>
<text text-anchor="start" x="29" y="-697" font-family="Helvetica,sans-Serif" font-size="10.00">+</text>
<text text-anchor="start" x="42" y="-697" font-family="Helvetica,sans-Serif" font-size="10.00">className</text>
<text text-anchor="start" x="29" y="-682" font-family="Helvetica,sans-Serif" font-size="10.00">+</text>
<text text-anchor="start" x="42" y="-682" font-family="Helvetica,sans-Serif" font-size="10.00">prefix</text>
<text text-anchor="start" x="29" y="-667" font-family="Helvetica,sans-Serif" font-size="10.00">+</text>
<text text-anchor="start" x="42" y="-667" font-family="Helvetica,sans-Serif" font-size="10.00">elementName</text>
<text text-anchor="start" x="29" y="-652" font-family="Helvetica,sans-Serif" font-size="10.00">+</text>
<text text-anchor="start" x="42" y="-652" font-family="Helvetica,sans-Serif" font-size="10.00">textContent</text>
<text text-anchor="start" x="29" y="-637" font-family="Helvetica,sans-Serif" font-size="10.00">+</text>
<text text-anchor="start" x="42" y="-637" font-family="Helvetica,sans-Serif" font-size="10.00">children</text>
<text text-anchor="start" x="29" y="-622" font-family="Helvetica,sans-Serif" font-size="10.00">+</text>
<text text-anchor="start" x="42" y="-622" font-family="Helvetica,sans-Serif" font-size="10.00">attributes</text>
<text text-anchor="start" x="29" y="-607" font-family="Helvetica,sans-Serif" font-size="10.00">+</text>
<text text-anchor="start" x="42" y="-607" font-family="Helvetica,sans-Serif" font-size="10.00">defaults</text>
<text text-anchor="start" x="29" y="-592" font-family="Helvetica,sans-Serif" font-size="10.00">#</text>
<text text-anchor="start" x="42" y="-592" font-family="Helvetica,sans-Serif" font-size="10.00">factory</text>
<text text-anchor="start" x="29" y="-577" font-family="Helvetica,sans-Serif" font-size="10.00">+</text>
<text text-anchor="start" x="42" y="-577" font-family="Helvetica,sans-Serif" font-size="10.00">~XMLObject()</text>
<text text-anchor="start" x="29" y="-562" font-family="Helvetica,sans-Serif" font-size="10.00">+</text>
<text text-anchor="start" x="42" y="-562" font-family="Helvetica,sans-Serif" font-size="10.00">is()</text>
<text text-anchor="start" x="29" y="-547" font-family="Helvetica,sans-Serif" font-size="10.00">+</text>
<text text-anchor="start" x="42" y="-547" font-family="Helvetica,sans-Serif" font-size="10.00">is()</text>
<text text-anchor="start" x="29" y="-532" font-family="Helvetica,sans-Serif" font-size="10.00">+</text>
<text text-anchor="start" x="42" y="-532" font-family="Helvetica,sans-Serif" font-size="10.00">get()</text>
<text text-anchor="start" x="29" y="-517" font-family="Helvetica,sans-Serif" font-size="10.00">+</text>
<text text-anchor="start" x="42" y="-517" font-family="Helvetica,sans-Serif" font-size="10.00">get()</text>
<text text-anchor="start" x="29" y="-502" font-family="Helvetica,sans-Serif" font-size="10.00">+</text>
<text text-anchor="start" x="42" y="-502" font-family="Helvetica,sans-Serif" font-size="10.00">find()</text>
<text text-anchor="start" x="29" y="-487" font-family="Helvetica,sans-Serif" font-size="10.00">+</text>
<text text-anchor="start" x="42" y="-487" font-family="Helvetica,sans-Serif" font-size="10.00">find()</text>
<text text-anchor="start" x="29" y="-472" font-family="Helvetica,sans-Serif" font-size="10.00">+</text>
<text text-anchor="start" x="42" y="-472" font-family="Helvetica,sans-Serif" font-size="10.00">stringify()</text>
<text text-anchor="start" x="29" y="-457" font-family="Helvetica,sans-Serif" font-size="10.00">+</text>
<text text-anchor="start" x="42" y="-457" font-family="Helvetica,sans-Serif" font-size="10.00">format()</text>
<text text-anchor="start" x="29" y="-442" font-family="Helvetica,sans-Serif" font-size="10.00">+</text>
<text text-anchor="start" x="42" y="-442" font-family="Helvetica,sans-Serif" font-size="10.00">getRequiredChild()</text>
<text text-anchor="start" x="42" y="-427" font-family="Helvetica,sans-Serif" font-size="10.00">and 7 more...</text>
<text text-anchor="start" x="29" y="-412" font-family="Helvetica,sans-Serif" font-size="10.00">+</text>
<text text-anchor="start" x="42" y="-412" font-family="Helvetica,sans-Serif" font-size="10.00">createFromStream()</text>
<text text-anchor="start" x="29" y="-397" font-family="Helvetica,sans-Serif" font-size="10.00">+</text>
<text text-anchor="start" x="42" y="-397" font-family="Helvetica,sans-Serif" font-size="10.00">createFromString()</text>
<text text-anchor="start" x="29" y="-382" font-family="Helvetica,sans-Serif" font-size="10.00">+</text>
<text text-anchor="start" x="42" y="-382" font-family="Helvetica,sans-Serif" font-size="10.00">createFromFile()</text>
<text text-anchor="start" x="29" y="-367" font-family="Helvetica,sans-Serif" font-size="10.00">#</text>
<text text-anchor="start" x="42" y="-367" font-family="Helvetica,sans-Serif" font-size="10.00">XMLObject()</text>
<text text-anchor="start" x="29" y="-352" font-family="Helvetica,sans-Serif" font-size="10.00">#</text>
<text text-anchor="start" x="42" y="-352" font-family="Helvetica,sans-Serif" font-size="10.00">createObject()</text>
<polygon fill="#666666" stroke="#666666" points="25,-722 25,-722 145,-722 145,-722 25,-722"/>
<polygon fill="#666666" stroke="#666666" points="25,-587 25,-587 40,-587 40,-587 25,-587"/>
<polygon fill="#666666" stroke="#666666" points="40,-587 40,-587 145,-587 145,-587 40,-587"/>
<polygon fill="none" stroke="#666666" points="25,-345 25,-739 145,-739 145,-345 25,-345"/>
</a>
</g>
</g>
<!-- Node4&#45;&gt;Node3 -->
<g id="edge3_Node000003_Node000004" class="edge">
<title>Node4&#45;&gt;Node3</title>
<g id="a_edge3_Node000003_Node000004"><a xlink:title=" ">
<path fill="none" stroke="#63b8ff" d="M85,-334.78C85,-325.62 85,-316.97 85,-309.06"/>
<polygon fill="none" stroke="#63b8ff" points="81.5,-334.91 85,-344.91 88.5,-334.91 81.5,-334.91"/>
</a>
</g>
</g>
</g>
</svg>
