<?xml version="1.0" encoding="UTF-8" standalone="no"?>
<!DOCTYPE svg PUBLIC "-//W3C//DTD SVG 1.1//EN"
 "http://www.w3.org/Graphics/SVG/1.1/DTD/svg11.dtd">
<!-- Generated by graphviz version 2.43.0 (0)
 -->
<!-- Title: XML::bpmn::tComplexBehaviorDefinition Pages: 1 -->
<svg width="175pt" height="754pt"
 viewBox="0.00 0.00 175.00 754.00" xmlns="http://www.w3.org/2000/svg" xmlns:xlink="http://www.w3.org/1999/xlink">
<g id="graph0" class="graph" transform="scale(1 1) rotate(0) translate(4 750)">
<title>XML::bpmn::tComplexBehaviorDefinition</title>
<!-- Node1 -->
<g id="Node000001" class="node">
<title>Node1</title>
<g id="a_Node000001"><a xlink:title=" ">
<polygon fill="#999999" stroke="transparent" points="167,-186 0,-186 0,-96 167,-96 167,-186"/>
<text text-anchor="start" x="8" y="-174" font-family="Helvetica,sans-Serif" font-size="10.00">XML::bpmn::tComplexBehavior</text>
<text text-anchor="start" x="60" y="-163" font-family="Helvetica,sans-Serif" font-size="10.00">Definition</text>
<text text-anchor="start" x="4.5" y="-148" font-family="Helvetica,sans-Serif" font-size="10.00">+</text>
<text text-anchor="start" x="17.5" y="-148" font-family="Helvetica,sans-Serif" font-size="10.00">condition</text>
<text text-anchor="start" x="4.5" y="-133" font-family="Helvetica,sans-Serif" font-size="10.00">+</text>
<text text-anchor="start" x="17.5" y="-133" font-family="Helvetica,sans-Serif" font-size="10.00">event</text>
<text text-anchor="start" x="4.5" y="-118" font-family="Helvetica,sans-Serif" font-size="10.00">+</text>
<text text-anchor="start" x="17.5" y="-118" font-family="Helvetica,sans-Serif" font-size="10.00">defaults</text>
<text text-anchor="start" x="4.5" y="-103" font-family="Helvetica,sans-Serif" font-size="10.00">#</text>
<text text-anchor="start" x="17.5" y="-103" font-family="Helvetica,sans-Serif" font-size="10.00">tComplexBehaviorDefinition()</text>
<polygon fill="#666666" stroke="#666666" points="0.5,-158 0.5,-158 167.5,-158 167.5,-158 0.5,-158"/>
<polygon fill="#666666" stroke="#666666" points="0.5,-113 0.5,-113 15.5,-113 15.5,-113 0.5,-113"/>
<polygon fill="#666666" stroke="#666666" points="15.5,-113 15.5,-113 167.5,-113 167.5,-113 15.5,-113"/>
<polygon fill="none" stroke="#666666" points="0,-96 0,-186 167,-186 167,-96 0,-96"/>
</a>
</g>
</g>
<!-- Node4 -->
<g id="Node000004" class="node">
<title>Node4</title>
<g id="a_Node000004"><a xlink:href="classXML_1_1bpmn_1_1complexBehaviorDefinition.html" target="_top" xlink:title=" ">
<polygon fill="white" stroke="transparent" points="164.5,-60 2.5,-60 2.5,0 164.5,0 164.5,-60"/>
<text text-anchor="start" x="10" y="-48" font-family="Helvetica,sans-Serif" font-size="10.00">XML::bpmn::complexBehavior</text>
<text text-anchor="start" x="59.5" y="-37" font-family="Helvetica,sans-Serif" font-size="10.00">Definition</text>
<text text-anchor="start" x="6.5" y="-22" font-family="Helvetica,sans-Serif" font-size="10.00">+</text>
<text text-anchor="start" x="19.5" y="-22" font-family="Helvetica,sans-Serif" font-size="10.00">defaults</text>
<text text-anchor="start" x="6.5" y="-7" font-family="Helvetica,sans-Serif" font-size="10.00">#</text>
<text text-anchor="start" x="19.5" y="-7" font-family="Helvetica,sans-Serif" font-size="10.00">complexBehaviorDefinition()</text>
<polygon fill="#666666" stroke="#666666" points="2.5,-32 2.5,-32 164.5,-32 164.5,-32 2.5,-32"/>
<polygon fill="#666666" stroke="#666666" points="2.5,-17 2.5,-17 17.5,-17 17.5,-17 2.5,-17"/>
<polygon fill="#666666" stroke="#666666" points="17.5,-17 17.5,-17 164.5,-17 164.5,-17 17.5,-17"/>
<polygon fill="none" stroke="#666666" points="2.5,0 2.5,-60 164.5,-60 164.5,0 2.5,0"/>
</a>
</g>
</g>
<!-- Node1&#45;&gt;Node4 -->
<g id="edge3_Node000001_Node000004" class="edge">
<title>Node1&#45;&gt;Node4</title>
<g id="a_edge3_Node000001_Node000004"><a xlink:title=" ">
<path fill="none" stroke="#63b8ff" d="M83.5,-85.7C83.5,-76.89 83.5,-68.07 83.5,-60.17"/>
<polygon fill="none" stroke="#63b8ff" points="80,-85.98 83.5,-95.98 87,-85.98 80,-85.98"/>
</a>
</g>
</g>
<!-- Node2 -->
<g id="Node000002" class="node">
<title>Node2</title>
<g id="a_Node000002"><a xlink:href="classXML_1_1bpmn_1_1tBaseElement.html" target="_top" xlink:title=" ">
<polygon fill="white" stroke="transparent" points="153.5,-316 13.5,-316 13.5,-222 153.5,-222 153.5,-316"/>
<text text-anchor="start" x="18.5" y="-304" font-family="Helvetica,sans-Serif" font-size="10.00">XML::bpmn::tBaseElement</text>
<text text-anchor="start" x="23.5" y="-289" font-family="Helvetica,sans-Serif" font-size="10.00">+</text>
<text text-anchor="start" x="42.5" y="-289" font-family="Helvetica,sans-Serif" font-size="10.00">documentation</text>
<text text-anchor="start" x="23.5" y="-274" font-family="Helvetica,sans-Serif" font-size="10.00">+</text>
<text text-anchor="start" x="42.5" y="-274" font-family="Helvetica,sans-Serif" font-size="10.00">extensionElements</text>
<text text-anchor="start" x="23.5" y="-259" font-family="Helvetica,sans-Serif" font-size="10.00">+</text>
<text text-anchor="start" x="42.5" y="-259" font-family="Helvetica,sans-Serif" font-size="10.00">id</text>
<text text-anchor="start" x="23.5" y="-244" font-family="Helvetica,sans-Serif" font-size="10.00">+</text>
<text text-anchor="start" x="42.5" y="-244" font-family="Helvetica,sans-Serif" font-size="10.00">defaults</text>
<text text-anchor="start" x="23.5" y="-229" font-family="Helvetica,sans-Serif" font-size="10.00">#</text>
<text text-anchor="start" x="42.5" y="-229" font-family="Helvetica,sans-Serif" font-size="10.00">tBaseElement()</text>
<polygon fill="#666666" stroke="#666666" points="13.5,-299 13.5,-299 153.5,-299 153.5,-299 13.5,-299"/>
<polygon fill="#666666" stroke="#666666" points="13.5,-239 13.5,-239 40.5,-239 40.5,-239 13.5,-239"/>
<polygon fill="#666666" stroke="#666666" points="40.5,-239 40.5,-239 153.5,-239 153.5,-239 40.5,-239"/>
<polygon fill="none" stroke="#666666" points="13.5,-222 13.5,-316 153.5,-316 153.5,-222 13.5,-222"/>
</a>
</g>
</g>
<!-- Node2&#45;&gt;Node1 -->
<g id="edge1_Node000001_Node000002" class="edge">
<title>Node2&#45;&gt;Node1</title>
<g id="a_edge1_Node000001_Node000002"><a xlink:title=" ">
<path fill="none" stroke="#63b8ff" d="M83.5,-211.52C83.5,-203 83.5,-194.31 83.5,-186.1"/>
<polygon fill="none" stroke="#63b8ff" points="80,-211.8 83.5,-221.8 87,-211.8 80,-211.8"/>
</a>
</g>
</g>
<!-- Node3 -->
<g id="Node000003" class="node">
<title>Node3</title>
<g id="a_Node000003"><a xlink:href="classXML_1_1XMLObject.html" target="_top" xlink:title="A class representing a node in an XML&#45;tree.">
<polygon fill="white" stroke="transparent" points="143.5,-746 23.5,-746 23.5,-352 143.5,-352 143.5,-746"/>
<text text-anchor="start" x="43.5" y="-734" font-family="Helvetica,sans-Serif" font-size="10.00">XML::XMLObject</text>
<text text-anchor="start" x="27.5" y="-719" font-family="Helvetica,sans-Serif" font-size="10.00">+</text>
<text text-anchor="start" x="40.5" y="-719" font-family="Helvetica,sans-Serif" font-size="10.00">xmlns</text>
<text text-anchor="start" x="27.5" y="-704" font-family="Helvetica,sans-Serif" font-size="10.00">+</text>
<text text-anchor="start" x="40.5" y="-704" font-family="Helvetica,sans-Serif" font-size="10.00">className</text>
<text text-anchor="start" x="27.5" y="-689" font-family="Helvetica,sans-Serif" font-size="10.00">+</text>
<text text-anchor="start" x="40.5" y="-689" font-family="Helvetica,sans-Serif" font-size="10.00">prefix</text>
<text text-anchor="start" x="27.5" y="-674" font-family="Helvetica,sans-Serif" font-size="10.00">+</text>
<text text-anchor="start" x="40.5" y="-674" font-family="Helvetica,sans-Serif" font-size="10.00">elementName</text>
<text text-anchor="start" x="27.5" y="-659" font-family="Helvetica,sans-Serif" font-size="10.00">+</text>
<text text-anchor="start" x="40.5" y="-659" font-family="Helvetica,sans-Serif" font-size="10.00">textContent</text>
<text text-anchor="start" x="27.5" y="-644" font-family="Helvetica,sans-Serif" font-size="10.00">+</text>
<text text-anchor="start" x="40.5" y="-644" font-family="Helvetica,sans-Serif" font-size="10.00">children</text>
<text text-anchor="start" x="27.5" y="-629" font-family="Helvetica,sans-Serif" font-size="10.00">+</text>
<text text-anchor="start" x="40.5" y="-629" font-family="Helvetica,sans-Serif" font-size="10.00">attributes</text>
<text text-anchor="start" x="27.5" y="-614" font-family="Helvetica,sans-Serif" font-size="10.00">+</text>
<text text-anchor="start" x="40.5" y="-614" font-family="Helvetica,sans-Serif" font-size="10.00">defaults</text>
<text text-anchor="start" x="27.5" y="-599" font-family="Helvetica,sans-Serif" font-size="10.00">#</text>
<text text-anchor="start" x="40.5" y="-599" font-family="Helvetica,sans-Serif" font-size="10.00">factory</text>
<text text-anchor="start" x="27.5" y="-584" font-family="Helvetica,sans-Serif" font-size="10.00">+</text>
<text text-anchor="start" x="40.5" y="-584" font-family="Helvetica,sans-Serif" font-size="10.00">~XMLObject()</text>
<text text-anchor="start" x="27.5" y="-569" font-family="Helvetica,sans-Serif" font-size="10.00">+</text>
<text text-anchor="start" x="40.5" y="-569" font-family="Helvetica,sans-Serif" font-size="10.00">is()</text>
<text text-anchor="start" x="27.5" y="-554" font-family="Helvetica,sans-Serif" font-size="10.00">+</text>
<text text-anchor="start" x="40.5" y="-554" font-family="Helvetica,sans-Serif" font-size="10.00">is()</text>
<text text-anchor="start" x="27.5" y="-539" font-family="Helvetica,sans-Serif" font-size="10.00">+</text>
<text text-anchor="start" x="40.5" y="-539" font-family="Helvetica,sans-Serif" font-size="10.00">get()</text>
<text text-anchor="start" x="27.5" y="-524" font-family="Helvetica,sans-Serif" font-size="10.00">+</text>
<text text-anchor="start" x="40.5" y="-524" font-family="Helvetica,sans-Serif" font-size="10.00">get()</text>
<text text-anchor="start" x="27.5" y="-509" font-family="Helvetica,sans-Serif" font-size="10.00">+</text>
<text text-anchor="start" x="40.5" y="-509" font-family="Helvetica,sans-Serif" font-size="10.00">find()</text>
<text text-anchor="start" x="27.5" y="-494" font-family="Helvetica,sans-Serif" font-size="10.00">+</text>
<text text-anchor="start" x="40.5" y="-494" font-family="Helvetica,sans-Serif" font-size="10.00">find()</text>
<text text-anchor="start" x="27.5" y="-479" font-family="Helvetica,sans-Serif" font-size="10.00">+</text>
<text text-anchor="start" x="40.5" y="-479" font-family="Helvetica,sans-Serif" font-size="10.00">stringify()</text>
<text text-anchor="start" x="27.5" y="-464" font-family="Helvetica,sans-Serif" font-size="10.00">+</text>
<text text-anchor="start" x="40.5" y="-464" font-family="Helvetica,sans-Serif" font-size="10.00">format()</text>
<text text-anchor="start" x="27.5" y="-449" font-family="Helvetica,sans-Serif" font-size="10.00">+</text>
<text text-anchor="start" x="40.5" y="-449" font-family="Helvetica,sans-Serif" font-size="10.00">getRequiredChild()</text>
<text text-anchor="start" x="40.5" y="-434" font-family="Helvetica,sans-Serif" font-size="10.00">and 7 more...</text>
<text text-anchor="start" x="27.5" y="-419" font-family="Helvetica,sans-Serif" font-size="10.00">+</text>
<text text-anchor="start" x="40.5" y="-419" font-family="Helvetica,sans-Serif" font-size="10.00">createFromStream()</text>
<text text-anchor="start" x="27.5" y="-404" font-family="Helvetica,sans-Serif" font-size="10.00">+</text>
<text text-anchor="start" x="40.5" y="-404" font-family="Helvetica,sans-Serif" font-size="10.00">createFromString()</text>
<text text-anchor="start" x="27.5" y="-389" font-family="Helvetica,sans-Serif" font-size="10.00">+</text>
<text text-anchor="start" x="40.5" y="-389" font-family="Helvetica,sans-Serif" font-size="10.00">createFromFile()</text>
<text text-anchor="start" x="27.5" y="-374" font-family="Helvetica,sans-Serif" font-size="10.00">#</text>
<text text-anchor="start" x="40.5" y="-374" font-family="Helvetica,sans-Serif" font-size="10.00">XMLObject()</text>
<text text-anchor="start" x="27.5" y="-359" font-family="Helvetica,sans-Serif" font-size="10.00">#</text>
<text text-anchor="start" x="40.5" y="-359" font-family="Helvetica,sans-Serif" font-size="10.00">createObject()</text>
<polygon fill="#666666" stroke="#666666" points="23.5,-729 23.5,-729 143.5,-729 143.5,-729 23.5,-729"/>
<polygon fill="#666666" stroke="#666666" points="23.5,-594 23.5,-594 38.5,-594 38.5,-594 23.5,-594"/>
<polygon fill="#666666" stroke="#666666" points="38.5,-594 38.5,-594 143.5,-594 143.5,-594 38.5,-594"/>
<polygon fill="none" stroke="#666666" points="23.5,-352 23.5,-746 143.5,-746 143.5,-352 23.5,-352"/>
</a>
</g>
</g>
<!-- Node3&#45;&gt;Node2 -->
<g id="edge2_Node000002_Node000003" class="edge">
<title>Node3&#45;&gt;Node2</title>
<g id="a_edge2_Node000002_Node000003"><a xlink:title=" ">
<path fill="none" stroke="#63b8ff" d="M83.5,-341.78C83.5,-332.62 83.5,-323.97 83.5,-316.06"/>
<polygon fill="none" stroke="#63b8ff" points="80,-341.91 83.5,-351.91 87,-341.91 80,-341.91"/>
</a>
</g>
</g>
</g>
</svg>
