<?xml version="1.0" encoding="UTF-8" standalone="no"?>
<!DOCTYPE svg PUBLIC "-//W3C//DTD SVG 1.1//EN"
 "http://www.w3.org/Graphics/SVG/1.1/DTD/svg11.dtd">
<!-- Generated by graphviz version 2.43.0 (0)
 -->
<!-- Title: XML::bpmn::tResourceRole Pages: 1 -->
<svg width="384pt" height="1017pt"
 viewBox="0.00 0.00 383.50 1017.00" xmlns="http://www.w3.org/2000/svg" xmlns:xlink="http://www.w3.org/1999/xlink">
<g id="graph0" class="graph" transform="scale(1 1) rotate(0) translate(4 1013)">
<title>XML::bpmn::tResourceRole</title>
<!-- Node1 -->
<g id="Node000001" class="node">
<title>Node1</title>
<g id="a_Node000001"><a xlink:title=" ">
<polygon fill="#999999" stroke="transparent" points="229,-449 54,-449 54,-340 229,-340 229,-449"/>
<text text-anchor="start" x="76" y="-436.5" font-family="Helvetica,sans-Serif" font-size="10.00">XML::bpmn::tResourceRole</text>
<text text-anchor="start" x="58.5" y="-421.5" font-family="Helvetica,sans-Serif" font-size="10.00">+</text>
<text text-anchor="start" x="71.5" y="-421.5" font-family="Helvetica,sans-Serif" font-size="10.00">resourceAssignmentExpression</text>
<text text-anchor="start" x="58.5" y="-406.5" font-family="Helvetica,sans-Serif" font-size="10.00">+</text>
<text text-anchor="start" x="71.5" y="-406.5" font-family="Helvetica,sans-Serif" font-size="10.00">resourceRef</text>
<text text-anchor="start" x="58.5" y="-391.5" font-family="Helvetica,sans-Serif" font-size="10.00">+</text>
<text text-anchor="start" x="71.5" y="-391.5" font-family="Helvetica,sans-Serif" font-size="10.00">resourceParameterBinding</text>
<text text-anchor="start" x="58.5" y="-376.5" font-family="Helvetica,sans-Serif" font-size="10.00">+</text>
<text text-anchor="start" x="71.5" y="-376.5" font-family="Helvetica,sans-Serif" font-size="10.00">name</text>
<text text-anchor="start" x="58.5" y="-361.5" font-family="Helvetica,sans-Serif" font-size="10.00">+</text>
<text text-anchor="start" x="71.5" y="-361.5" font-family="Helvetica,sans-Serif" font-size="10.00">defaults</text>
<text text-anchor="start" x="58.5" y="-346.5" font-family="Helvetica,sans-Serif" font-size="10.00">#</text>
<text text-anchor="start" x="71.5" y="-346.5" font-family="Helvetica,sans-Serif" font-size="10.00">tResourceRole()</text>
<polygon fill="#666666" stroke="#666666" points="54.5,-431.5 54.5,-431.5 229.5,-431.5 229.5,-431.5 54.5,-431.5"/>
<polygon fill="#666666" stroke="#666666" points="54.5,-356.5 54.5,-356.5 69.5,-356.5 69.5,-356.5 54.5,-356.5"/>
<polygon fill="#666666" stroke="#666666" points="69.5,-356.5 69.5,-356.5 229.5,-356.5 229.5,-356.5 69.5,-356.5"/>
<polygon fill="none" stroke="#666666" points="54,-340 54,-449 229,-449 229,-340 54,-340"/>
</a>
</g>
</g>
<!-- Node4 -->
<g id="Node000004" class="node">
<title>Node4</title>
<g id="a_Node000004"><a xlink:href="classXML_1_1bpmn_1_1resourceRole.html" target="_top" xlink:title=" ">
<polygon fill="white" stroke="transparent" points="135,-304 0,-304 0,-255 135,-255 135,-304"/>
<text text-anchor="start" x="5.5" y="-291.5" font-family="Helvetica,sans-Serif" font-size="10.00">XML::bpmn::resourceRole</text>
<text text-anchor="start" x="15" y="-276.5" font-family="Helvetica,sans-Serif" font-size="10.00">+</text>
<text text-anchor="start" x="38.5" y="-276.5" font-family="Helvetica,sans-Serif" font-size="10.00">defaults</text>
<text text-anchor="start" x="15" y="-261.5" font-family="Helvetica,sans-Serif" font-size="10.00">#</text>
<text text-anchor="start" x="38.5" y="-261.5" font-family="Helvetica,sans-Serif" font-size="10.00">resourceRole()</text>
<polygon fill="#666666" stroke="#666666" points="0.5,-286.5 0.5,-286.5 135.5,-286.5 135.5,-286.5 0.5,-286.5"/>
<polygon fill="#666666" stroke="#666666" points="0.5,-271.5 0.5,-271.5 36.5,-271.5 36.5,-271.5 0.5,-271.5"/>
<polygon fill="#666666" stroke="#666666" points="36.5,-271.5 36.5,-271.5 135.5,-271.5 135.5,-271.5 36.5,-271.5"/>
<polygon fill="none" stroke="#666666" points="0,-255 0,-304 135,-304 135,-255 0,-255"/>
</a>
</g>
</g>
<!-- Node1&#45;&gt;Node4 -->
<g id="edge3_Node000001_Node000004" class="edge">
<title>Node1&#45;&gt;Node4</title>
<g id="a_edge3_Node000001_Node000004"><a xlink:title=" ">
<path fill="none" stroke="#63b8ff" d="M100.86,-331.45C94.53,-321.77 88.33,-312.31 83.04,-304.23"/>
<polygon fill="none" stroke="#63b8ff" points="98.04,-333.53 106.45,-339.98 103.9,-329.69 98.04,-333.53"/>
</a>
</g>
</g>
<!-- Node5 -->
<g id="Node000005" class="node">
<title>Node5</title>
<g id="a_Node000005"><a xlink:href="classXML_1_1bpmn_1_1tPerformer.html" target="_top" xlink:title=" ">
<polygon fill="white" stroke="transparent" points="277.5,-304 153.5,-304 153.5,-255 277.5,-255 277.5,-304"/>
<text text-anchor="start" x="158.5" y="-291.5" font-family="Helvetica,sans-Serif" font-size="10.00">XML::bpmn::tPerformer</text>
<text text-anchor="start" x="168" y="-276.5" font-family="Helvetica,sans-Serif" font-size="10.00">+</text>
<text text-anchor="start" x="191.5" y="-276.5" font-family="Helvetica,sans-Serif" font-size="10.00">defaults</text>
<text text-anchor="start" x="168" y="-261.5" font-family="Helvetica,sans-Serif" font-size="10.00">#</text>
<text text-anchor="start" x="191.5" y="-261.5" font-family="Helvetica,sans-Serif" font-size="10.00">tPerformer()</text>
<polygon fill="#666666" stroke="#666666" points="153.5,-286.5 153.5,-286.5 277.5,-286.5 277.5,-286.5 153.5,-286.5"/>
<polygon fill="#666666" stroke="#666666" points="153.5,-271.5 153.5,-271.5 189.5,-271.5 189.5,-271.5 153.5,-271.5"/>
<polygon fill="#666666" stroke="#666666" points="189.5,-271.5 189.5,-271.5 277.5,-271.5 277.5,-271.5 189.5,-271.5"/>
<polygon fill="none" stroke="#666666" points="153.5,-255 153.5,-304 277.5,-304 277.5,-255 153.5,-255"/>
</a>
</g>
</g>
<!-- Node1&#45;&gt;Node5 -->
<g id="edge4_Node000001_Node000005" class="edge">
<title>Node1&#45;&gt;Node5</title>
<g id="a_edge4_Node000001_Node000005"><a xlink:title=" ">
<path fill="none" stroke="#63b8ff" d="M182.14,-331.45C188.47,-321.77 194.67,-312.31 199.96,-304.23"/>
<polygon fill="none" stroke="#63b8ff" points="179.1,-329.69 176.55,-339.98 184.96,-333.53 179.1,-329.69"/>
</a>
</g>
</g>
<!-- Node2 -->
<g id="Node000002" class="node">
<title>Node2</title>
<g id="a_Node000002"><a xlink:href="classXML_1_1bpmn_1_1tBaseElement.html" target="_top" xlink:title=" ">
<polygon fill="white" stroke="transparent" points="211.5,-579 71.5,-579 71.5,-485 211.5,-485 211.5,-579"/>
<text text-anchor="start" x="76.5" y="-567" font-family="Helvetica,sans-Serif" font-size="10.00">XML::bpmn::tBaseElement</text>
<text text-anchor="start" x="81.5" y="-552" font-family="Helvetica,sans-Serif" font-size="10.00">+</text>
<text text-anchor="start" x="100.5" y="-552" font-family="Helvetica,sans-Serif" font-size="10.00">documentation</text>
<text text-anchor="start" x="81.5" y="-537" font-family="Helvetica,sans-Serif" font-size="10.00">+</text>
<text text-anchor="start" x="100.5" y="-537" font-family="Helvetica,sans-Serif" font-size="10.00">extensionElements</text>
<text text-anchor="start" x="81.5" y="-522" font-family="Helvetica,sans-Serif" font-size="10.00">+</text>
<text text-anchor="start" x="100.5" y="-522" font-family="Helvetica,sans-Serif" font-size="10.00">id</text>
<text text-anchor="start" x="81.5" y="-507" font-family="Helvetica,sans-Serif" font-size="10.00">+</text>
<text text-anchor="start" x="100.5" y="-507" font-family="Helvetica,sans-Serif" font-size="10.00">defaults</text>
<text text-anchor="start" x="81.5" y="-492" font-family="Helvetica,sans-Serif" font-size="10.00">#</text>
<text text-anchor="start" x="100.5" y="-492" font-family="Helvetica,sans-Serif" font-size="10.00">tBaseElement()</text>
<polygon fill="#666666" stroke="#666666" points="71.5,-562 71.5,-562 211.5,-562 211.5,-562 71.5,-562"/>
<polygon fill="#666666" stroke="#666666" points="71.5,-502 71.5,-502 98.5,-502 98.5,-502 71.5,-502"/>
<polygon fill="#666666" stroke="#666666" points="98.5,-502 98.5,-502 211.5,-502 211.5,-502 98.5,-502"/>
<polygon fill="none" stroke="#666666" points="71.5,-485 71.5,-579 211.5,-579 211.5,-485 71.5,-485"/>
</a>
</g>
</g>
<!-- Node2&#45;&gt;Node1 -->
<g id="edge1_Node000001_Node000002" class="edge">
<title>Node2&#45;&gt;Node1</title>
<g id="a_edge1_Node000001_Node000002"><a xlink:title=" ">
<path fill="none" stroke="#63b8ff" d="M141.5,-474.58C141.5,-466.12 141.5,-457.41 141.5,-449.01"/>
<polygon fill="none" stroke="#63b8ff" points="138,-474.75 141.5,-484.75 145,-474.75 138,-474.75"/>
</a>
</g>
</g>
<!-- Node3 -->
<g id="Node000003" class="node">
<title>Node3</title>
<g id="a_Node000003"><a xlink:href="classXML_1_1XMLObject.html" target="_top" xlink:title="A class representing a node in an XML&#45;tree.">
<polygon fill="white" stroke="transparent" points="201.5,-1009 81.5,-1009 81.5,-615 201.5,-615 201.5,-1009"/>
<text text-anchor="start" x="101.5" y="-997" font-family="Helvetica,sans-Serif" font-size="10.00">XML::XMLObject</text>
<text text-anchor="start" x="85.5" y="-982" font-family="Helvetica,sans-Serif" font-size="10.00">+</text>
<text text-anchor="start" x="98.5" y="-982" font-family="Helvetica,sans-Serif" font-size="10.00">xmlns</text>
<text text-anchor="start" x="85.5" y="-967" font-family="Helvetica,sans-Serif" font-size="10.00">+</text>
<text text-anchor="start" x="98.5" y="-967" font-family="Helvetica,sans-Serif" font-size="10.00">className</text>
<text text-anchor="start" x="85.5" y="-952" font-family="Helvetica,sans-Serif" font-size="10.00">+</text>
<text text-anchor="start" x="98.5" y="-952" font-family="Helvetica,sans-Serif" font-size="10.00">prefix</text>
<text text-anchor="start" x="85.5" y="-937" font-family="Helvetica,sans-Serif" font-size="10.00">+</text>
<text text-anchor="start" x="98.5" y="-937" font-family="Helvetica,sans-Serif" font-size="10.00">elementName</text>
<text text-anchor="start" x="85.5" y="-922" font-family="Helvetica,sans-Serif" font-size="10.00">+</text>
<text text-anchor="start" x="98.5" y="-922" font-family="Helvetica,sans-Serif" font-size="10.00">textContent</text>
<text text-anchor="start" x="85.5" y="-907" font-family="Helvetica,sans-Serif" font-size="10.00">+</text>
<text text-anchor="start" x="98.5" y="-907" font-family="Helvetica,sans-Serif" font-size="10.00">children</text>
<text text-anchor="start" x="85.5" y="-892" font-family="Helvetica,sans-Serif" font-size="10.00">+</text>
<text text-anchor="start" x="98.5" y="-892" font-family="Helvetica,sans-Serif" font-size="10.00">attributes</text>
<text text-anchor="start" x="85.5" y="-877" font-family="Helvetica,sans-Serif" font-size="10.00">+</text>
<text text-anchor="start" x="98.5" y="-877" font-family="Helvetica,sans-Serif" font-size="10.00">defaults</text>
<text text-anchor="start" x="85.5" y="-862" font-family="Helvetica,sans-Serif" font-size="10.00">#</text>
<text text-anchor="start" x="98.5" y="-862" font-family="Helvetica,sans-Serif" font-size="10.00">factory</text>
<text text-anchor="start" x="85.5" y="-847" font-family="Helvetica,sans-Serif" font-size="10.00">+</text>
<text text-anchor="start" x="98.5" y="-847" font-family="Helvetica,sans-Serif" font-size="10.00">~XMLObject()</text>
<text text-anchor="start" x="85.5" y="-832" font-family="Helvetica,sans-Serif" font-size="10.00">+</text>
<text text-anchor="start" x="98.5" y="-832" font-family="Helvetica,sans-Serif" font-size="10.00">is()</text>
<text text-anchor="start" x="85.5" y="-817" font-family="Helvetica,sans-Serif" font-size="10.00">+</text>
<text text-anchor="start" x="98.5" y="-817" font-family="Helvetica,sans-Serif" font-size="10.00">is()</text>
<text text-anchor="start" x="85.5" y="-802" font-family="Helvetica,sans-Serif" font-size="10.00">+</text>
<text text-anchor="start" x="98.5" y="-802" font-family="Helvetica,sans-Serif" font-size="10.00">get()</text>
<text text-anchor="start" x="85.5" y="-787" font-family="Helvetica,sans-Serif" font-size="10.00">+</text>
<text text-anchor="start" x="98.5" y="-787" font-family="Helvetica,sans-Serif" font-size="10.00">get()</text>
<text text-anchor="start" x="85.5" y="-772" font-family="Helvetica,sans-Serif" font-size="10.00">+</text>
<text text-anchor="start" x="98.5" y="-772" font-family="Helvetica,sans-Serif" font-size="10.00">find()</text>
<text text-anchor="start" x="85.5" y="-757" font-family="Helvetica,sans-Serif" font-size="10.00">+</text>
<text text-anchor="start" x="98.5" y="-757" font-family="Helvetica,sans-Serif" font-size="10.00">find()</text>
<text text-anchor="start" x="85.5" y="-742" font-family="Helvetica,sans-Serif" font-size="10.00">+</text>
<text text-anchor="start" x="98.5" y="-742" font-family="Helvetica,sans-Serif" font-size="10.00">stringify()</text>
<text text-anchor="start" x="85.5" y="-727" font-family="Helvetica,sans-Serif" font-size="10.00">+</text>
<text text-anchor="start" x="98.5" y="-727" font-family="Helvetica,sans-Serif" font-size="10.00">format()</text>
<text text-anchor="start" x="85.5" y="-712" font-family="Helvetica,sans-Serif" font-size="10.00">+</text>
<text text-anchor="start" x="98.5" y="-712" font-family="Helvetica,sans-Serif" font-size="10.00">getRequiredChild()</text>
<text text-anchor="start" x="98.5" y="-697" font-family="Helvetica,sans-Serif" font-size="10.00">and 7 more...</text>
<text text-anchor="start" x="85.5" y="-682" font-family="Helvetica,sans-Serif" font-size="10.00">+</text>
<text text-anchor="start" x="98.5" y="-682" font-family="Helvetica,sans-Serif" font-size="10.00">createFromStream()</text>
<text text-anchor="start" x="85.5" y="-667" font-family="Helvetica,sans-Serif" font-size="10.00">+</text>
<text text-anchor="start" x="98.5" y="-667" font-family="Helvetica,sans-Serif" font-size="10.00">createFromString()</text>
<text text-anchor="start" x="85.5" y="-652" font-family="Helvetica,sans-Serif" font-size="10.00">+</text>
<text text-anchor="start" x="98.5" y="-652" font-family="Helvetica,sans-Serif" font-size="10.00">createFromFile()</text>
<text text-anchor="start" x="85.5" y="-637" font-family="Helvetica,sans-Serif" font-size="10.00">#</text>
<text text-anchor="start" x="98.5" y="-637" font-family="Helvetica,sans-Serif" font-size="10.00">XMLObject()</text>
<text text-anchor="start" x="85.5" y="-622" font-family="Helvetica,sans-Serif" font-size="10.00">#</text>
<text text-anchor="start" x="98.5" y="-622" font-family="Helvetica,sans-Serif" font-size="10.00">createObject()</text>
<polygon fill="#666666" stroke="#666666" points="81.5,-992 81.5,-992 201.5,-992 201.5,-992 81.5,-992"/>
<polygon fill="#666666" stroke="#666666" points="81.5,-857 81.5,-857 96.5,-857 96.5,-857 81.5,-857"/>
<polygon fill="#666666" stroke="#666666" points="96.5,-857 96.5,-857 201.5,-857 201.5,-857 96.5,-857"/>
<polygon fill="none" stroke="#666666" points="81.5,-615 81.5,-1009 201.5,-1009 201.5,-615 81.5,-615"/>
</a>
</g>
</g>
<!-- Node3&#45;&gt;Node2 -->
<g id="edge2_Node000002_Node000003" class="edge">
<title>Node3&#45;&gt;Node2</title>
<g id="a_edge2_Node000002_Node000003"><a xlink:title=" ">
<path fill="none" stroke="#63b8ff" d="M141.5,-604.78C141.5,-595.62 141.5,-586.97 141.5,-579.06"/>
<polygon fill="none" stroke="#63b8ff" points="138,-604.91 141.5,-614.91 145,-604.91 138,-604.91"/>
</a>
</g>
</g>
<!-- Node6 -->
<g id="Node000006" class="node">
<title>Node6</title>
<g id="a_Node000006"><a xlink:href="classXML_1_1bpmn_1_1tHumanPerformer.html" target="_top" xlink:title=" ">
<polygon fill="white" stroke="transparent" points="295,-219 136,-219 136,-170 295,-170 295,-219"/>
<text text-anchor="start" x="141.5" y="-206.5" font-family="Helvetica,sans-Serif" font-size="10.00">XML::bpmn::tHumanPerformer</text>
<text text-anchor="start" x="151" y="-191.5" font-family="Helvetica,sans-Serif" font-size="10.00">+</text>
<text text-anchor="start" x="174.5" y="-191.5" font-family="Helvetica,sans-Serif" font-size="10.00">defaults</text>
<text text-anchor="start" x="151" y="-176.5" font-family="Helvetica,sans-Serif" font-size="10.00">#</text>
<text text-anchor="start" x="174.5" y="-176.5" font-family="Helvetica,sans-Serif" font-size="10.00">tHumanPerformer()</text>
<polygon fill="#666666" stroke="#666666" points="136.5,-201.5 136.5,-201.5 295.5,-201.5 295.5,-201.5 136.5,-201.5"/>
<polygon fill="#666666" stroke="#666666" points="136.5,-186.5 136.5,-186.5 172.5,-186.5 172.5,-186.5 136.5,-186.5"/>
<polygon fill="#666666" stroke="#666666" points="172.5,-186.5 172.5,-186.5 295.5,-186.5 295.5,-186.5 172.5,-186.5"/>
<polygon fill="none" stroke="#666666" points="136,-170 136,-219 295,-219 295,-170 136,-170"/>
</a>
</g>
</g>
<!-- Node5&#45;&gt;Node6 -->
<g id="edge5_Node000005_Node000006" class="edge">
<title>Node5&#45;&gt;Node6</title>
<g id="a_edge5_Node000005_Node000006"><a xlink:title=" ">
<path fill="none" stroke="#63b8ff" d="M215.5,-244.77C215.5,-236.17 215.5,-227.1 215.5,-219.12"/>
<polygon fill="none" stroke="#63b8ff" points="212,-244.94 215.5,-254.94 219,-244.94 212,-244.94"/>
</a>
</g>
</g>
<!-- Node7 -->
<g id="Node000007" class="node">
<title>Node7</title>
<g id="a_Node000007"><a xlink:href="classXML_1_1bpmn_1_1humanPerformer.html" target="_top" xlink:title=" ">
<polygon fill="white" stroke="transparent" points="207.5,-134 53.5,-134 53.5,-85 207.5,-85 207.5,-134"/>
<text text-anchor="start" x="58.5" y="-121.5" font-family="Helvetica,sans-Serif" font-size="10.00">XML::bpmn::humanPerformer</text>
<text text-anchor="start" x="68" y="-106.5" font-family="Helvetica,sans-Serif" font-size="10.00">+</text>
<text text-anchor="start" x="91.5" y="-106.5" font-family="Helvetica,sans-Serif" font-size="10.00">defaults</text>
<text text-anchor="start" x="68" y="-91.5" font-family="Helvetica,sans-Serif" font-size="10.00">#</text>
<text text-anchor="start" x="91.5" y="-91.5" font-family="Helvetica,sans-Serif" font-size="10.00">humanPerformer()</text>
<polygon fill="#666666" stroke="#666666" points="53.5,-116.5 53.5,-116.5 207.5,-116.5 207.5,-116.5 53.5,-116.5"/>
<polygon fill="#666666" stroke="#666666" points="53.5,-101.5 53.5,-101.5 89.5,-101.5 89.5,-101.5 53.5,-101.5"/>
<polygon fill="#666666" stroke="#666666" points="89.5,-101.5 89.5,-101.5 207.5,-101.5 207.5,-101.5 89.5,-101.5"/>
<polygon fill="none" stroke="#666666" points="53.5,-85 53.5,-134 207.5,-134 207.5,-85 53.5,-85"/>
</a>
</g>
</g>
<!-- Node6&#45;&gt;Node7 -->
<g id="edge6_Node000006_Node000007" class="edge">
<title>Node6&#45;&gt;Node7</title>
<g id="a_edge6_Node000006_Node000007"><a xlink:title=" ">
<path fill="none" stroke="#63b8ff" d="M184.13,-162.87C174.41,-153.38 163.85,-143.06 154.69,-134.12"/>
<polygon fill="none" stroke="#63b8ff" points="181.77,-165.46 191.37,-169.94 186.66,-160.45 181.77,-165.46"/>
</a>
</g>
</g>
<!-- Node8 -->
<g id="Node000008" class="node">
<title>Node8</title>
<g id="a_Node000008"><a xlink:href="classXML_1_1bpmn_1_1tPotentialOwner.html" target="_top" xlink:title=" ">
<polygon fill="white" stroke="transparent" points="375.5,-134 225.5,-134 225.5,-85 375.5,-85 375.5,-134"/>
<text text-anchor="start" x="230.5" y="-121.5" font-family="Helvetica,sans-Serif" font-size="10.00">XML::bpmn::tPotentialOwner</text>
<text text-anchor="start" x="240" y="-106.5" font-family="Helvetica,sans-Serif" font-size="10.00">+</text>
<text text-anchor="start" x="263.5" y="-106.5" font-family="Helvetica,sans-Serif" font-size="10.00">defaults</text>
<text text-anchor="start" x="240" y="-91.5" font-family="Helvetica,sans-Serif" font-size="10.00">#</text>
<text text-anchor="start" x="263.5" y="-91.5" font-family="Helvetica,sans-Serif" font-size="10.00">tPotentialOwner()</text>
<polygon fill="#666666" stroke="#666666" points="225.5,-116.5 225.5,-116.5 375.5,-116.5 375.5,-116.5 225.5,-116.5"/>
<polygon fill="#666666" stroke="#666666" points="225.5,-101.5 225.5,-101.5 261.5,-101.5 261.5,-101.5 225.5,-101.5"/>
<polygon fill="#666666" stroke="#666666" points="261.5,-101.5 261.5,-101.5 375.5,-101.5 375.5,-101.5 261.5,-101.5"/>
<polygon fill="none" stroke="#666666" points="225.5,-85 225.5,-134 375.5,-134 375.5,-85 225.5,-85"/>
</a>
</g>
</g>
<!-- Node6&#45;&gt;Node8 -->
<g id="edge7_Node000006_Node000008" class="edge">
<title>Node6&#45;&gt;Node8</title>
<g id="a_edge7_Node000006_Node000008"><a xlink:title=" ">
<path fill="none" stroke="#63b8ff" d="M246.87,-162.87C256.59,-153.38 267.15,-143.06 276.31,-134.12"/>
<polygon fill="none" stroke="#63b8ff" points="244.34,-160.45 239.63,-169.94 249.23,-165.46 244.34,-160.45"/>
</a>
</g>
</g>
<!-- Node9 -->
<g id="Node000009" class="node">
<title>Node9</title>
<g id="a_Node000009"><a xlink:href="classXML_1_1bpmn_1_1potentialOwner.html" target="_top" xlink:title=" ">
<polygon fill="white" stroke="transparent" points="373.5,-49 227.5,-49 227.5,0 373.5,0 373.5,-49"/>
<text text-anchor="start" x="232.5" y="-36.5" font-family="Helvetica,sans-Serif" font-size="10.00">XML::bpmn::potentialOwner</text>
<text text-anchor="start" x="242" y="-21.5" font-family="Helvetica,sans-Serif" font-size="10.00">+</text>
<text text-anchor="start" x="265.5" y="-21.5" font-family="Helvetica,sans-Serif" font-size="10.00">defaults</text>
<text text-anchor="start" x="242" y="-6.5" font-family="Helvetica,sans-Serif" font-size="10.00">#</text>
<text text-anchor="start" x="265.5" y="-6.5" font-family="Helvetica,sans-Serif" font-size="10.00">potentialOwner()</text>
<polygon fill="#666666" stroke="#666666" points="227.5,-31.5 227.5,-31.5 373.5,-31.5 373.5,-31.5 227.5,-31.5"/>
<polygon fill="#666666" stroke="#666666" points="227.5,-16.5 227.5,-16.5 263.5,-16.5 263.5,-16.5 227.5,-16.5"/>
<polygon fill="#666666" stroke="#666666" points="263.5,-16.5 263.5,-16.5 373.5,-16.5 373.5,-16.5 263.5,-16.5"/>
<polygon fill="none" stroke="#666666" points="227.5,0 227.5,-49 373.5,-49 373.5,0 227.5,0"/>
</a>
</g>
</g>
<!-- Node8&#45;&gt;Node9 -->
<g id="edge8_Node000008_Node000009" class="edge">
<title>Node8&#45;&gt;Node9</title>
<g id="a_edge8_Node000008_Node000009"><a xlink:title=" ">
<path fill="none" stroke="#63b8ff" d="M300.5,-74.77C300.5,-66.17 300.5,-57.1 300.5,-49.12"/>
<polygon fill="none" stroke="#63b8ff" points="297,-74.94 300.5,-84.94 304,-74.94 297,-74.94"/>
</a>
</g>
</g>
</g>
</svg>
