<?xml version="1.0" encoding="UTF-8" standalone="no"?>
<!DOCTYPE svg PUBLIC "-//W3C//DTD SVG 1.1//EN"
 "http://www.w3.org/Graphics/SVG/1.1/DTD/svg11.dtd">
<!-- Generated by graphviz version 2.43.0 (0)
 -->
<!-- Title: XML::bpmn::tGateway Pages: 1 -->
<svg width="1069pt" height="1015pt"
 viewBox="0.00 0.00 1069.00 1015.00" xmlns="http://www.w3.org/2000/svg" xmlns:xlink="http://www.w3.org/1999/xlink">
<g id="graph0" class="graph" transform="scale(1 1) rotate(0) translate(4 1011)">
<title>XML::bpmn::tGateway</title>
<!-- Node1 -->
<g id="node1" class="node">
<title>Node1</title>
<g id="a_node1"><a xlink:title=" ">
<polygon fill="#bfbfbf" stroke="black" points="449,-210.5 449,-278.5 574,-278.5 574,-210.5 449,-210.5"/>
<text text-anchor="middle" x="511.5" y="-266.5" font-family="Helvetica,sans-Serif" font-size="10.00">XML::bpmn::tGateway</text>
<polyline fill="none" stroke="black" points="449,-259.5 574,-259.5 "/>
<text text-anchor="start" x="457" y="-247.5" font-family="Helvetica,sans-Serif" font-size="10.00">+ gatewayDirection</text>
<text text-anchor="start" x="457" y="-236.5" font-family="Helvetica,sans-Serif" font-size="10.00">+ defaults</text>
<polyline fill="none" stroke="black" points="449,-229.5 574,-229.5 "/>
<text text-anchor="start" x="457" y="-217.5" font-family="Helvetica,sans-Serif" font-size="10.00"># tGateway()</text>
</a>
</g>
</g>
<!-- Node6 -->
<g id="node6" class="node">
<title>Node6</title>
<g id="a_node6"><a xlink:href="classXML_1_1bpmn_1_1gateway.html" target="_top" xlink:title=" ">
<polygon fill="none" stroke="black" points="0,-105.5 0,-162.5 119,-162.5 119,-105.5 0,-105.5"/>
<text text-anchor="middle" x="59.5" y="-150.5" font-family="Helvetica,sans-Serif" font-size="10.00">XML::bpmn::gateway</text>
<polyline fill="none" stroke="black" points="0,-143.5 119,-143.5 "/>
<text text-anchor="start" x="8" y="-131.5" font-family="Helvetica,sans-Serif" font-size="10.00">+ defaults</text>
<polyline fill="none" stroke="black" points="0,-124.5 119,-124.5 "/>
<text text-anchor="start" x="8" y="-112.5" font-family="Helvetica,sans-Serif" font-size="10.00"># gateway()</text>
</a>
</g>
</g>
<!-- Node1&#45;&gt;Node6 -->
<g id="edge5" class="edge">
<title>Node1&#45;&gt;Node6</title>
<path fill="none" stroke="midnightblue" d="M438.54,-237.58C360.05,-229.54 232.5,-211.61 128.5,-174 120.09,-170.96 111.5,-166.95 103.37,-162.65"/>
<polygon fill="none" stroke="midnightblue" points="438.51,-241.09 448.81,-238.6 439.21,-234.12 438.51,-241.09"/>
</g>
<!-- Node7 -->
<g id="node7" class="node">
<title>Node7</title>
<g id="a_node7"><a xlink:href="classXML_1_1bpmn_1_1tComplexGateway.html" target="_top" xlink:title=" ">
<polygon fill="none" stroke="black" points="137.5,-94.5 137.5,-173.5 305.5,-173.5 305.5,-94.5 137.5,-94.5"/>
<text text-anchor="middle" x="221.5" y="-161.5" font-family="Helvetica,sans-Serif" font-size="10.00">XML::bpmn::tComplexGateway</text>
<polyline fill="none" stroke="black" points="137.5,-154.5 305.5,-154.5 "/>
<text text-anchor="start" x="145.5" y="-142.5" font-family="Helvetica,sans-Serif" font-size="10.00">+ activationCondition</text>
<text text-anchor="start" x="145.5" y="-131.5" font-family="Helvetica,sans-Serif" font-size="10.00">+ default_</text>
<text text-anchor="start" x="145.5" y="-120.5" font-family="Helvetica,sans-Serif" font-size="10.00">+ defaults</text>
<polyline fill="none" stroke="black" points="137.5,-113.5 305.5,-113.5 "/>
<text text-anchor="start" x="145.5" y="-101.5" font-family="Helvetica,sans-Serif" font-size="10.00"># tComplexGateway()</text>
</a>
</g>
</g>
<!-- Node1&#45;&gt;Node7 -->
<g id="edge6" class="edge">
<title>Node1&#45;&gt;Node7</title>
<path fill="none" stroke="midnightblue" d="M438.82,-218.99C401.47,-206.1 355.35,-189.75 314.5,-174 311.56,-172.87 308.57,-171.7 305.56,-170.51"/>
<polygon fill="none" stroke="midnightblue" points="438.02,-222.41 448.61,-222.35 440.29,-215.79 438.02,-222.41"/>
</g>
<!-- Node9 -->
<g id="node9" class="node">
<title>Node9</title>
<g id="a_node9"><a xlink:href="classXML_1_1bpmn_1_1tEventBasedGateway.html" target="_top" xlink:title=" ">
<polygon fill="none" stroke="black" points="323.5,-94.5 323.5,-173.5 505.5,-173.5 505.5,-94.5 323.5,-94.5"/>
<text text-anchor="middle" x="414.5" y="-161.5" font-family="Helvetica,sans-Serif" font-size="10.00">XML::bpmn::tEventBasedGateway</text>
<polyline fill="none" stroke="black" points="323.5,-154.5 505.5,-154.5 "/>
<text text-anchor="start" x="331.5" y="-142.5" font-family="Helvetica,sans-Serif" font-size="10.00">+ instantiate</text>
<text text-anchor="start" x="331.5" y="-131.5" font-family="Helvetica,sans-Serif" font-size="10.00">+ eventGatewayType</text>
<text text-anchor="start" x="331.5" y="-120.5" font-family="Helvetica,sans-Serif" font-size="10.00">+ defaults</text>
<polyline fill="none" stroke="black" points="323.5,-113.5 505.5,-113.5 "/>
<text text-anchor="start" x="331.5" y="-101.5" font-family="Helvetica,sans-Serif" font-size="10.00"># tEventBasedGateway()</text>
</a>
</g>
</g>
<!-- Node1&#45;&gt;Node9 -->
<g id="edge8" class="edge">
<title>Node1&#45;&gt;Node9</title>
<path fill="none" stroke="midnightblue" d="M475.15,-202.84C466.6,-193.28 457.52,-183.12 449.05,-173.65"/>
<polygon fill="none" stroke="midnightblue" points="472.6,-205.23 481.87,-210.36 477.81,-200.57 472.6,-205.23"/>
</g>
<!-- Node11 -->
<g id="node11" class="node">
<title>Node11</title>
<g id="a_node11"><a xlink:href="classXML_1_1bpmn_1_1tExclusiveGateway.html" target="_top" xlink:title=" ">
<polygon fill="none" stroke="black" points="524,-100 524,-168 695,-168 695,-100 524,-100"/>
<text text-anchor="middle" x="609.5" y="-156" font-family="Helvetica,sans-Serif" font-size="10.00">XML::bpmn::tExclusiveGateway</text>
<polyline fill="none" stroke="black" points="524,-149 695,-149 "/>
<text text-anchor="start" x="532" y="-137" font-family="Helvetica,sans-Serif" font-size="10.00">+ default_</text>
<text text-anchor="start" x="532" y="-126" font-family="Helvetica,sans-Serif" font-size="10.00">+ defaults</text>
<polyline fill="none" stroke="black" points="524,-119 695,-119 "/>
<text text-anchor="start" x="532" y="-107" font-family="Helvetica,sans-Serif" font-size="10.00"># tExclusiveGateway()</text>
</a>
</g>
</g>
<!-- Node1&#45;&gt;Node11 -->
<g id="edge10" class="edge">
<title>Node1&#45;&gt;Node11</title>
<path fill="none" stroke="midnightblue" d="M548.38,-202.67C558.62,-191.33 569.61,-179.16 579.41,-168.31"/>
<polygon fill="none" stroke="midnightblue" points="545.54,-200.59 541.44,-210.36 550.74,-205.28 545.54,-200.59"/>
</g>
<!-- Node13 -->
<g id="node13" class="node">
<title>Node13</title>
<g id="a_node13"><a xlink:href="classXML_1_1bpmn_1_1tInclusiveGateway.html" target="_top" xlink:title=" ">
<polygon fill="none" stroke="black" points="713.5,-100 713.5,-168 881.5,-168 881.5,-100 713.5,-100"/>
<text text-anchor="middle" x="797.5" y="-156" font-family="Helvetica,sans-Serif" font-size="10.00">XML::bpmn::tInclusiveGateway</text>
<polyline fill="none" stroke="black" points="713.5,-149 881.5,-149 "/>
<text text-anchor="start" x="721.5" y="-137" font-family="Helvetica,sans-Serif" font-size="10.00">+ default_</text>
<text text-anchor="start" x="721.5" y="-126" font-family="Helvetica,sans-Serif" font-size="10.00">+ defaults</text>
<polyline fill="none" stroke="black" points="713.5,-119 881.5,-119 "/>
<text text-anchor="start" x="721.5" y="-107" font-family="Helvetica,sans-Serif" font-size="10.00"># tInclusiveGateway()</text>
</a>
</g>
</g>
<!-- Node1&#45;&gt;Node13 -->
<g id="edge12" class="edge">
<title>Node1&#45;&gt;Node13</title>
<path fill="none" stroke="midnightblue" d="M583.51,-218.32C619.67,-205.45 664.06,-189.31 703.5,-174 708.44,-172.08 713.52,-170.08 718.62,-168.03"/>
<polygon fill="none" stroke="midnightblue" points="582.28,-215.04 574.03,-221.68 584.62,-221.64 582.28,-215.04"/>
</g>
<!-- Node15 -->
<g id="node15" class="node">
<title>Node15</title>
<g id="a_node15"><a xlink:href="classXML_1_1bpmn_1_1tParallelGateway.html" target="_top" xlink:title=" ">
<polygon fill="none" stroke="black" points="900,-105.5 900,-162.5 1061,-162.5 1061,-105.5 900,-105.5"/>
<text text-anchor="middle" x="980.5" y="-150.5" font-family="Helvetica,sans-Serif" font-size="10.00">XML::bpmn::tParallelGateway</text>
<polyline fill="none" stroke="black" points="900,-143.5 1061,-143.5 "/>
<text text-anchor="start" x="908" y="-131.5" font-family="Helvetica,sans-Serif" font-size="10.00">+ defaults</text>
<polyline fill="none" stroke="black" points="900,-124.5 1061,-124.5 "/>
<text text-anchor="start" x="908" y="-112.5" font-family="Helvetica,sans-Serif" font-size="10.00"># tParallelGateway()</text>
</a>
</g>
</g>
<!-- Node1&#45;&gt;Node15 -->
<g id="edge14" class="edge">
<title>Node1&#45;&gt;Node15</title>
<path fill="none" stroke="midnightblue" d="M584.34,-235.15C661.52,-225.15 786.37,-205.66 890.5,-174 900.93,-170.83 911.77,-166.81 922.16,-162.56"/>
<polygon fill="none" stroke="midnightblue" points="583.72,-231.7 574.24,-236.44 584.6,-238.64 583.72,-231.7"/>
</g>
<!-- Node2 -->
<g id="node2" class="node">
<title>Node2</title>
<g id="a_node2"><a xlink:href="classXML_1_1bpmn_1_1tFlowNode.html" target="_top" xlink:title=" ">
<polygon fill="none" stroke="black" points="446.5,-315.5 446.5,-394.5 576.5,-394.5 576.5,-315.5 446.5,-315.5"/>
<text text-anchor="middle" x="511.5" y="-382.5" font-family="Helvetica,sans-Serif" font-size="10.00">XML::bpmn::tFlowNode</text>
<polyline fill="none" stroke="black" points="446.5,-375.5 576.5,-375.5 "/>
<text text-anchor="start" x="454.5" y="-363.5" font-family="Helvetica,sans-Serif" font-size="10.00">+ incoming</text>
<text text-anchor="start" x="454.5" y="-352.5" font-family="Helvetica,sans-Serif" font-size="10.00">+ outgoing</text>
<text text-anchor="start" x="454.5" y="-341.5" font-family="Helvetica,sans-Serif" font-size="10.00">+ defaults</text>
<polyline fill="none" stroke="black" points="446.5,-334.5 576.5,-334.5 "/>
<text text-anchor="start" x="454.5" y="-322.5" font-family="Helvetica,sans-Serif" font-size="10.00"># tFlowNode()</text>
</a>
</g>
</g>
<!-- Node2&#45;&gt;Node1 -->
<g id="edge1" class="edge">
<title>Node2&#45;&gt;Node1</title>
<path fill="none" stroke="midnightblue" d="M511.5,-305.35C511.5,-296.28 511.5,-287 511.5,-278.54"/>
<polygon fill="none" stroke="midnightblue" points="508,-305.44 511.5,-315.44 515,-305.44 508,-305.44"/>
</g>
<!-- Node3 -->
<g id="node3" class="node">
<title>Node3</title>
<g id="a_node3"><a xlink:href="classXML_1_1bpmn_1_1tFlowElement.html" target="_top" xlink:title=" ">
<polygon fill="none" stroke="black" points="439,-431.5 439,-532.5 584,-532.5 584,-431.5 439,-431.5"/>
<text text-anchor="middle" x="511.5" y="-520.5" font-family="Helvetica,sans-Serif" font-size="10.00">XML::bpmn::tFlowElement</text>
<polyline fill="none" stroke="black" points="439,-513.5 584,-513.5 "/>
<text text-anchor="start" x="447" y="-501.5" font-family="Helvetica,sans-Serif" font-size="10.00">+ auditing</text>
<text text-anchor="start" x="447" y="-490.5" font-family="Helvetica,sans-Serif" font-size="10.00">+ monitoring</text>
<text text-anchor="start" x="447" y="-479.5" font-family="Helvetica,sans-Serif" font-size="10.00">+ categoryValueRef</text>
<text text-anchor="start" x="447" y="-468.5" font-family="Helvetica,sans-Serif" font-size="10.00">+ name</text>
<text text-anchor="start" x="447" y="-457.5" font-family="Helvetica,sans-Serif" font-size="10.00">+ defaults</text>
<polyline fill="none" stroke="black" points="439,-450.5 584,-450.5 "/>
<text text-anchor="start" x="447" y="-438.5" font-family="Helvetica,sans-Serif" font-size="10.00"># tFlowElement()</text>
</a>
</g>
</g>
<!-- Node3&#45;&gt;Node2 -->
<g id="edge2" class="edge">
<title>Node3&#45;&gt;Node2</title>
<path fill="none" stroke="midnightblue" d="M511.5,-421.19C511.5,-412.22 511.5,-403.18 511.5,-394.81"/>
<polygon fill="none" stroke="midnightblue" points="508,-421.24 511.5,-431.24 515,-421.24 508,-421.24"/>
</g>
<!-- Node4 -->
<g id="node4" class="node">
<title>Node4</title>
<g id="a_node4"><a xlink:href="classXML_1_1bpmn_1_1tBaseElement.html" target="_top" xlink:title=" ">
<polygon fill="none" stroke="black" points="438.5,-569.5 438.5,-659.5 584.5,-659.5 584.5,-569.5 438.5,-569.5"/>
<text text-anchor="middle" x="511.5" y="-647.5" font-family="Helvetica,sans-Serif" font-size="10.00">XML::bpmn::tBaseElement</text>
<polyline fill="none" stroke="black" points="438.5,-640.5 584.5,-640.5 "/>
<text text-anchor="start" x="446.5" y="-628.5" font-family="Helvetica,sans-Serif" font-size="10.00">+ documentation</text>
<text text-anchor="start" x="446.5" y="-617.5" font-family="Helvetica,sans-Serif" font-size="10.00">+ extensionElements</text>
<text text-anchor="start" x="446.5" y="-606.5" font-family="Helvetica,sans-Serif" font-size="10.00">+ id</text>
<text text-anchor="start" x="446.5" y="-595.5" font-family="Helvetica,sans-Serif" font-size="10.00">+ defaults</text>
<polyline fill="none" stroke="black" points="438.5,-588.5 584.5,-588.5 "/>
<text text-anchor="start" x="446.5" y="-576.5" font-family="Helvetica,sans-Serif" font-size="10.00"># tBaseElement()</text>
</a>
</g>
</g>
<!-- Node4&#45;&gt;Node3 -->
<g id="edge3" class="edge">
<title>Node4&#45;&gt;Node3</title>
<path fill="none" stroke="midnightblue" d="M511.5,-559.13C511.5,-550.31 511.5,-541.22 511.5,-532.52"/>
<polygon fill="none" stroke="midnightblue" points="508,-559.32 511.5,-569.32 515,-559.32 508,-559.32"/>
</g>
<!-- Node5 -->
<g id="node5" class="node">
<title>Node5</title>
<g id="a_node5"><a xlink:href="classXML_1_1XMLObject.html" target="_top" xlink:title="A class representing a node in an XML&#45;tree.">
<polygon fill="none" stroke="black" points="448.5,-696.5 448.5,-1006.5 574.5,-1006.5 574.5,-696.5 448.5,-696.5"/>
<text text-anchor="middle" x="511.5" y="-994.5" font-family="Helvetica,sans-Serif" font-size="10.00">XML::XMLObject</text>
<polyline fill="none" stroke="black" points="448.5,-987.5 574.5,-987.5 "/>
<text text-anchor="start" x="456.5" y="-975.5" font-family="Helvetica,sans-Serif" font-size="10.00">+ xmlns</text>
<text text-anchor="start" x="456.5" y="-964.5" font-family="Helvetica,sans-Serif" font-size="10.00">+ className</text>
<text text-anchor="start" x="456.5" y="-953.5" font-family="Helvetica,sans-Serif" font-size="10.00">+ prefix</text>
<text text-anchor="start" x="456.5" y="-942.5" font-family="Helvetica,sans-Serif" font-size="10.00">+ elementName</text>
<text text-anchor="start" x="456.5" y="-931.5" font-family="Helvetica,sans-Serif" font-size="10.00">+ textContent</text>
<text text-anchor="start" x="456.5" y="-920.5" font-family="Helvetica,sans-Serif" font-size="10.00">+ children</text>
<text text-anchor="start" x="456.5" y="-909.5" font-family="Helvetica,sans-Serif" font-size="10.00">+ attributes</text>
<text text-anchor="start" x="456.5" y="-898.5" font-family="Helvetica,sans-Serif" font-size="10.00">+ defaults</text>
<text text-anchor="start" x="456.5" y="-887.5" font-family="Helvetica,sans-Serif" font-size="10.00"># factory</text>
<polyline fill="none" stroke="black" points="448.5,-880.5 574.5,-880.5 "/>
<text text-anchor="start" x="456.5" y="-868.5" font-family="Helvetica,sans-Serif" font-size="10.00">+ ~XMLObject()</text>
<text text-anchor="start" x="456.5" y="-857.5" font-family="Helvetica,sans-Serif" font-size="10.00">+ is()</text>
<text text-anchor="start" x="456.5" y="-846.5" font-family="Helvetica,sans-Serif" font-size="10.00">+ is()</text>
<text text-anchor="start" x="456.5" y="-835.5" font-family="Helvetica,sans-Serif" font-size="10.00">+ get()</text>
<text text-anchor="start" x="456.5" y="-824.5" font-family="Helvetica,sans-Serif" font-size="10.00">+ get()</text>
<text text-anchor="start" x="456.5" y="-813.5" font-family="Helvetica,sans-Serif" font-size="10.00">+ find()</text>
<text text-anchor="start" x="456.5" y="-802.5" font-family="Helvetica,sans-Serif" font-size="10.00">+ find()</text>
<text text-anchor="start" x="456.5" y="-791.5" font-family="Helvetica,sans-Serif" font-size="10.00">+ stringify()</text>
<text text-anchor="start" x="456.5" y="-780.5" font-family="Helvetica,sans-Serif" font-size="10.00">+ getRequiredChild()</text>
<text text-anchor="start" x="456.5" y="-769.5" font-family="Helvetica,sans-Serif" font-size="10.00">+ getOptionalChild()</text>
<text text-anchor="start" x="456.5" y="-758.5" font-family="Helvetica,sans-Serif" font-size="10.00">and 6 more...</text>
<text text-anchor="start" x="456.5" y="-747.5" font-family="Helvetica,sans-Serif" font-size="10.00">+ createFromStream()</text>
<text text-anchor="start" x="456.5" y="-736.5" font-family="Helvetica,sans-Serif" font-size="10.00">+ createFromString()</text>
<text text-anchor="start" x="456.5" y="-725.5" font-family="Helvetica,sans-Serif" font-size="10.00">+ createFromFile()</text>
<text text-anchor="start" x="456.5" y="-714.5" font-family="Helvetica,sans-Serif" font-size="10.00"># XMLObject()</text>
<text text-anchor="start" x="456.5" y="-703.5" font-family="Helvetica,sans-Serif" font-size="10.00"># createObject()</text>
</a>
</g>
</g>
<!-- Node5&#45;&gt;Node4 -->
<g id="edge4" class="edge">
<title>Node5&#45;&gt;Node4</title>
<path fill="none" stroke="midnightblue" d="M511.5,-686.35C511.5,-676.89 511.5,-667.91 511.5,-659.72"/>
<polygon fill="none" stroke="midnightblue" points="508,-686.37 511.5,-696.37 515,-686.37 508,-686.37"/>
</g>
<!-- Node8 -->
<g id="node8" class="node">
<title>Node8</title>
<g id="a_node8"><a xlink:href="classXML_1_1bpmn_1_1complexGateway.html" target="_top" xlink:title=" ">
<polygon fill="none" stroke="black" points="140,-0.5 140,-57.5 303,-57.5 303,-0.5 140,-0.5"/>
<text text-anchor="middle" x="221.5" y="-45.5" font-family="Helvetica,sans-Serif" font-size="10.00">XML::bpmn::complexGateway</text>
<polyline fill="none" stroke="black" points="140,-38.5 303,-38.5 "/>
<text text-anchor="start" x="148" y="-26.5" font-family="Helvetica,sans-Serif" font-size="10.00">+ defaults</text>
<polyline fill="none" stroke="black" points="140,-19.5 303,-19.5 "/>
<text text-anchor="start" x="148" y="-7.5" font-family="Helvetica,sans-Serif" font-size="10.00"># complexGateway()</text>
</a>
</g>
</g>
<!-- Node7&#45;&gt;Node8 -->
<g id="edge7" class="edge">
<title>Node7&#45;&gt;Node8</title>
<path fill="none" stroke="midnightblue" d="M221.5,-84.16C221.5,-75.04 221.5,-65.81 221.5,-57.61"/>
<polygon fill="none" stroke="midnightblue" points="218,-84.35 221.5,-94.35 225,-84.35 218,-84.35"/>
</g>
<!-- Node10 -->
<g id="node10" class="node">
<title>Node10</title>
<g id="a_node10"><a xlink:href="classXML_1_1bpmn_1_1eventBasedGateway.html" target="_top" xlink:title=" ">
<polygon fill="none" stroke="black" points="325,-0.5 325,-57.5 504,-57.5 504,-0.5 325,-0.5"/>
<text text-anchor="middle" x="414.5" y="-45.5" font-family="Helvetica,sans-Serif" font-size="10.00">XML::bpmn::eventBasedGateway</text>
<polyline fill="none" stroke="black" points="325,-38.5 504,-38.5 "/>
<text text-anchor="start" x="333" y="-26.5" font-family="Helvetica,sans-Serif" font-size="10.00">+ defaults</text>
<polyline fill="none" stroke="black" points="325,-19.5 504,-19.5 "/>
<text text-anchor="start" x="333" y="-7.5" font-family="Helvetica,sans-Serif" font-size="10.00"># eventBasedGateway()</text>
</a>
</g>
</g>
<!-- Node9&#45;&gt;Node10 -->
<g id="edge9" class="edge">
<title>Node9&#45;&gt;Node10</title>
<path fill="none" stroke="midnightblue" d="M414.5,-84.16C414.5,-75.04 414.5,-65.81 414.5,-57.61"/>
<polygon fill="none" stroke="midnightblue" points="411,-84.35 414.5,-94.35 418,-84.35 411,-84.35"/>
</g>
<!-- Node12 -->
<g id="node12" class="node">
<title>Node12</title>
<g id="a_node12"><a xlink:href="classXML_1_1bpmn_1_1exclusiveGateway.html" target="_top" xlink:title=" ">
<polygon fill="none" stroke="black" points="526,-0.5 526,-57.5 693,-57.5 693,-0.5 526,-0.5"/>
<text text-anchor="middle" x="609.5" y="-45.5" font-family="Helvetica,sans-Serif" font-size="10.00">XML::bpmn::exclusiveGateway</text>
<polyline fill="none" stroke="black" points="526,-38.5 693,-38.5 "/>
<text text-anchor="start" x="534" y="-26.5" font-family="Helvetica,sans-Serif" font-size="10.00">+ defaults</text>
<polyline fill="none" stroke="black" points="526,-19.5 693,-19.5 "/>
<text text-anchor="start" x="534" y="-7.5" font-family="Helvetica,sans-Serif" font-size="10.00"># exclusiveGateway()</text>
</a>
</g>
</g>
<!-- Node11&#45;&gt;Node12 -->
<g id="edge11" class="edge">
<title>Node11&#45;&gt;Node12</title>
<path fill="none" stroke="midnightblue" d="M609.5,-89.65C609.5,-78.79 609.5,-67.43 609.5,-57.58"/>
<polygon fill="none" stroke="midnightblue" points="606,-89.84 609.5,-99.84 613,-89.84 606,-89.84"/>
</g>
<!-- Node14 -->
<g id="node14" class="node">
<title>Node14</title>
<g id="a_node14"><a xlink:href="classXML_1_1bpmn_1_1inclusiveGateway.html" target="_top" xlink:title=" ">
<polygon fill="none" stroke="black" points="715.5,-0.5 715.5,-57.5 879.5,-57.5 879.5,-0.5 715.5,-0.5"/>
<text text-anchor="middle" x="797.5" y="-45.5" font-family="Helvetica,sans-Serif" font-size="10.00">XML::bpmn::inclusiveGateway</text>
<polyline fill="none" stroke="black" points="715.5,-38.5 879.5,-38.5 "/>
<text text-anchor="start" x="723.5" y="-26.5" font-family="Helvetica,sans-Serif" font-size="10.00">+ defaults</text>
<polyline fill="none" stroke="black" points="715.5,-19.5 879.5,-19.5 "/>
<text text-anchor="start" x="723.5" y="-7.5" font-family="Helvetica,sans-Serif" font-size="10.00"># inclusiveGateway()</text>
</a>
</g>
</g>
<!-- Node13&#45;&gt;Node14 -->
<g id="edge13" class="edge">
<title>Node13&#45;&gt;Node14</title>
<path fill="none" stroke="midnightblue" d="M797.5,-89.65C797.5,-78.79 797.5,-67.43 797.5,-57.58"/>
<polygon fill="none" stroke="midnightblue" points="794,-89.84 797.5,-99.84 801,-89.84 794,-89.84"/>
</g>
<!-- Node16 -->
<g id="node16" class="node">
<title>Node16</title>
<g id="a_node16"><a xlink:href="classXML_1_1bpmn_1_1parallelGateway.html" target="_top" xlink:title=" ">
<polygon fill="none" stroke="black" points="901.5,-0.5 901.5,-57.5 1059.5,-57.5 1059.5,-0.5 901.5,-0.5"/>
<text text-anchor="middle" x="980.5" y="-45.5" font-family="Helvetica,sans-Serif" font-size="10.00">XML::bpmn::parallelGateway</text>
<polyline fill="none" stroke="black" points="901.5,-38.5 1059.5,-38.5 "/>
<text text-anchor="start" x="909.5" y="-26.5" font-family="Helvetica,sans-Serif" font-size="10.00">+ defaults</text>
<polyline fill="none" stroke="black" points="901.5,-19.5 1059.5,-19.5 "/>
<text text-anchor="start" x="909.5" y="-7.5" font-family="Helvetica,sans-Serif" font-size="10.00"># parallelGateway()</text>
</a>
</g>
</g>
<!-- Node15&#45;&gt;Node16 -->
<g id="edge15" class="edge">
<title>Node15&#45;&gt;Node16</title>
<path fill="none" stroke="midnightblue" d="M980.5,-95.29C980.5,-82.84 980.5,-69.23 980.5,-57.68"/>
<polygon fill="none" stroke="midnightblue" points="977,-95.4 980.5,-105.4 984,-95.4 977,-95.4"/>
</g>
</g>
</svg>
