<?xml version="1.0" encoding="UTF-8" standalone="no"?>
<!DOCTYPE svg PUBLIC "-//W3C//DTD SVG 1.1//EN"
 "http://www.w3.org/Graphics/SVG/1.1/DTD/svg11.dtd">
<!-- Generated by graphviz version 2.43.0 (0)
 -->
<!-- Title: XML::bpmn::tErrorEventDefinition Pages: 1 -->
<svg width="181pt" height="887pt"
 viewBox="0.00 0.00 181.00 887.00" xmlns="http://www.w3.org/2000/svg" xmlns:xlink="http://www.w3.org/1999/xlink">
<g id="graph0" class="graph" transform="scale(1 1) rotate(0) translate(4 883)">
<title>XML::bpmn::tErrorEventDefinition</title>
<!-- Node1 -->
<g id="Node000001" class="node">
<title>Node1</title>
<g id="a_Node000001"><a xlink:title=" ">
<polygon fill="#999999" stroke="transparent" points="173,-149 0,-149 0,-85 173,-85 173,-149"/>
<text text-anchor="start" x="5.5" y="-137" font-family="Helvetica,sans-Serif" font-size="10.00">XML::bpmn::tErrorEventDefinition</text>
<text text-anchor="start" x="15" y="-122" font-family="Helvetica,sans-Serif" font-size="10.00">+</text>
<text text-anchor="start" x="38.5" y="-122" font-family="Helvetica,sans-Serif" font-size="10.00">errorRef</text>
<text text-anchor="start" x="15" y="-107" font-family="Helvetica,sans-Serif" font-size="10.00">+</text>
<text text-anchor="start" x="38.5" y="-107" font-family="Helvetica,sans-Serif" font-size="10.00">defaults</text>
<text text-anchor="start" x="15" y="-92" font-family="Helvetica,sans-Serif" font-size="10.00">#</text>
<text text-anchor="start" x="38.5" y="-92" font-family="Helvetica,sans-Serif" font-size="10.00">tErrorEventDefinition()</text>
<polygon fill="#666666" stroke="#666666" points="0.5,-132 0.5,-132 173.5,-132 173.5,-132 0.5,-132"/>
<polygon fill="#666666" stroke="#666666" points="0.5,-102 0.5,-102 36.5,-102 36.5,-102 0.5,-102"/>
<polygon fill="#666666" stroke="#666666" points="36.5,-102 36.5,-102 173.5,-102 173.5,-102 36.5,-102"/>
<polygon fill="none" stroke="#666666" points="0,-85 0,-149 173,-149 173,-85 0,-85"/>
</a>
</g>
</g>
<!-- Node6 -->
<g id="Node000006" class="node">
<title>Node6</title>
<g id="a_Node000006"><a xlink:href="classXML_1_1bpmn_1_1errorEventDefinition.html" target="_top" xlink:title=" ">
<polygon fill="white" stroke="transparent" points="171.5,-49 1.5,-49 1.5,0 171.5,0 171.5,-49"/>
<text text-anchor="start" x="6.5" y="-36.5" font-family="Helvetica,sans-Serif" font-size="10.00">XML::bpmn::errorEventDefinition</text>
<text text-anchor="start" x="16" y="-21.5" font-family="Helvetica,sans-Serif" font-size="10.00">+</text>
<text text-anchor="start" x="39.5" y="-21.5" font-family="Helvetica,sans-Serif" font-size="10.00">defaults</text>
<text text-anchor="start" x="16" y="-6.5" font-family="Helvetica,sans-Serif" font-size="10.00">#</text>
<text text-anchor="start" x="39.5" y="-6.5" font-family="Helvetica,sans-Serif" font-size="10.00">errorEventDefinition()</text>
<polygon fill="#666666" stroke="#666666" points="1.5,-31.5 1.5,-31.5 171.5,-31.5 171.5,-31.5 1.5,-31.5"/>
<polygon fill="#666666" stroke="#666666" points="1.5,-16.5 1.5,-16.5 37.5,-16.5 37.5,-16.5 1.5,-16.5"/>
<polygon fill="#666666" stroke="#666666" points="37.5,-16.5 37.5,-16.5 171.5,-16.5 171.5,-16.5 37.5,-16.5"/>
<polygon fill="none" stroke="#666666" points="1.5,0 1.5,-49 171.5,-49 171.5,0 1.5,0"/>
</a>
</g>
</g>
<!-- Node1&#45;&gt;Node6 -->
<g id="edge5_Node000001_Node000006" class="edge">
<title>Node1&#45;&gt;Node6</title>
<g id="a_edge5_Node000001_Node000006"><a xlink:title=" ">
<path fill="none" stroke="#63b8ff" d="M86.5,-74.77C86.5,-66.03 86.5,-57.09 86.5,-49.27"/>
<polygon fill="none" stroke="#63b8ff" points="83,-74.85 86.5,-84.86 90,-74.86 83,-74.85"/>
</a>
</g>
</g>
<!-- Node2 -->
<g id="Node000002" class="node">
<title>Node2</title>
<g id="a_Node000002"><a xlink:href="classXML_1_1bpmn_1_1tEventDefinition.html" target="_top" xlink:title=" ">
<polygon fill="white" stroke="transparent" points="161.5,-234 11.5,-234 11.5,-185 161.5,-185 161.5,-234"/>
<text text-anchor="start" x="16.5" y="-221.5" font-family="Helvetica,sans-Serif" font-size="10.00">XML::bpmn::tEventDefinition</text>
<text text-anchor="start" x="26" y="-206.5" font-family="Helvetica,sans-Serif" font-size="10.00">+</text>
<text text-anchor="start" x="49.5" y="-206.5" font-family="Helvetica,sans-Serif" font-size="10.00">defaults</text>
<text text-anchor="start" x="26" y="-191.5" font-family="Helvetica,sans-Serif" font-size="10.00">#</text>
<text text-anchor="start" x="49.5" y="-191.5" font-family="Helvetica,sans-Serif" font-size="10.00">tEventDefinition()</text>
<polygon fill="#666666" stroke="#666666" points="11.5,-216.5 11.5,-216.5 161.5,-216.5 161.5,-216.5 11.5,-216.5"/>
<polygon fill="#666666" stroke="#666666" points="11.5,-201.5 11.5,-201.5 47.5,-201.5 47.5,-201.5 11.5,-201.5"/>
<polygon fill="#666666" stroke="#666666" points="47.5,-201.5 47.5,-201.5 161.5,-201.5 161.5,-201.5 47.5,-201.5"/>
<polygon fill="none" stroke="#666666" points="11.5,-185 11.5,-234 161.5,-234 161.5,-185 11.5,-185"/>
</a>
</g>
</g>
<!-- Node2&#45;&gt;Node1 -->
<g id="edge1_Node000001_Node000002" class="edge">
<title>Node2&#45;&gt;Node1</title>
<g id="a_edge1_Node000001_Node000002"><a xlink:title=" ">
<path fill="none" stroke="#63b8ff" d="M86.5,-174.54C86.5,-166.2 86.5,-157.31 86.5,-149.11"/>
<polygon fill="none" stroke="#63b8ff" points="83,-174.72 86.5,-184.72 90,-174.72 83,-174.72"/>
</a>
</g>
</g>
<!-- Node3 -->
<g id="Node000003" class="node">
<title>Node3</title>
<g id="a_Node000003"><a xlink:href="classXML_1_1bpmn_1_1tRootElement.html" target="_top" xlink:title=" ">
<polygon fill="white" stroke="transparent" points="155.5,-319 17.5,-319 17.5,-270 155.5,-270 155.5,-319"/>
<text text-anchor="start" x="22.5" y="-306.5" font-family="Helvetica,sans-Serif" font-size="10.00">XML::bpmn::tRootElement</text>
<text text-anchor="start" x="32" y="-291.5" font-family="Helvetica,sans-Serif" font-size="10.00">+</text>
<text text-anchor="start" x="55.5" y="-291.5" font-family="Helvetica,sans-Serif" font-size="10.00">defaults</text>
<text text-anchor="start" x="32" y="-276.5" font-family="Helvetica,sans-Serif" font-size="10.00">#</text>
<text text-anchor="start" x="55.5" y="-276.5" font-family="Helvetica,sans-Serif" font-size="10.00">tRootElement()</text>
<polygon fill="#666666" stroke="#666666" points="17.5,-301.5 17.5,-301.5 155.5,-301.5 155.5,-301.5 17.5,-301.5"/>
<polygon fill="#666666" stroke="#666666" points="17.5,-286.5 17.5,-286.5 53.5,-286.5 53.5,-286.5 17.5,-286.5"/>
<polygon fill="#666666" stroke="#666666" points="53.5,-286.5 53.5,-286.5 155.5,-286.5 155.5,-286.5 53.5,-286.5"/>
<polygon fill="none" stroke="#666666" points="17.5,-270 17.5,-319 155.5,-319 155.5,-270 17.5,-270"/>
</a>
</g>
</g>
<!-- Node3&#45;&gt;Node2 -->
<g id="edge2_Node000002_Node000003" class="edge">
<title>Node3&#45;&gt;Node2</title>
<g id="a_edge2_Node000002_Node000003"><a xlink:title=" ">
<path fill="none" stroke="#63b8ff" d="M86.5,-259.77C86.5,-251.17 86.5,-242.1 86.5,-234.12"/>
<polygon fill="none" stroke="#63b8ff" points="83,-259.94 86.5,-269.94 90,-259.94 83,-259.94"/>
</a>
</g>
</g>
<!-- Node4 -->
<g id="Node000004" class="node">
<title>Node4</title>
<g id="a_Node000004"><a xlink:href="classXML_1_1bpmn_1_1tBaseElement.html" target="_top" xlink:title=" ">
<polygon fill="white" stroke="transparent" points="156.5,-449 16.5,-449 16.5,-355 156.5,-355 156.5,-449"/>
<text text-anchor="start" x="21.5" y="-437" font-family="Helvetica,sans-Serif" font-size="10.00">XML::bpmn::tBaseElement</text>
<text text-anchor="start" x="26.5" y="-422" font-family="Helvetica,sans-Serif" font-size="10.00">+</text>
<text text-anchor="start" x="45.5" y="-422" font-family="Helvetica,sans-Serif" font-size="10.00">documentation</text>
<text text-anchor="start" x="26.5" y="-407" font-family="Helvetica,sans-Serif" font-size="10.00">+</text>
<text text-anchor="start" x="45.5" y="-407" font-family="Helvetica,sans-Serif" font-size="10.00">extensionElements</text>
<text text-anchor="start" x="26.5" y="-392" font-family="Helvetica,sans-Serif" font-size="10.00">+</text>
<text text-anchor="start" x="45.5" y="-392" font-family="Helvetica,sans-Serif" font-size="10.00">id</text>
<text text-anchor="start" x="26.5" y="-377" font-family="Helvetica,sans-Serif" font-size="10.00">+</text>
<text text-anchor="start" x="45.5" y="-377" font-family="Helvetica,sans-Serif" font-size="10.00">defaults</text>
<text text-anchor="start" x="26.5" y="-362" font-family="Helvetica,sans-Serif" font-size="10.00">#</text>
<text text-anchor="start" x="45.5" y="-362" font-family="Helvetica,sans-Serif" font-size="10.00">tBaseElement()</text>
<polygon fill="#666666" stroke="#666666" points="16.5,-432 16.5,-432 156.5,-432 156.5,-432 16.5,-432"/>
<polygon fill="#666666" stroke="#666666" points="16.5,-372 16.5,-372 43.5,-372 43.5,-372 16.5,-372"/>
<polygon fill="#666666" stroke="#666666" points="43.5,-372 43.5,-372 156.5,-372 156.5,-372 43.5,-372"/>
<polygon fill="none" stroke="#666666" points="16.5,-355 16.5,-449 156.5,-449 156.5,-355 16.5,-355"/>
</a>
</g>
</g>
<!-- Node4&#45;&gt;Node3 -->
<g id="edge3_Node000003_Node000004" class="edge">
<title>Node4&#45;&gt;Node3</title>
<g id="a_edge3_Node000003_Node000004"><a xlink:title=" ">
<path fill="none" stroke="#63b8ff" d="M86.5,-344.59C86.5,-335.62 86.5,-326.79 86.5,-319.15"/>
<polygon fill="none" stroke="#63b8ff" points="83,-344.73 86.5,-354.73 90,-344.73 83,-344.73"/>
</a>
</g>
</g>
<!-- Node5 -->
<g id="Node000005" class="node">
<title>Node5</title>
<g id="a_Node000005"><a xlink:href="classXML_1_1XMLObject.html" target="_top" xlink:title="A class representing a node in an XML&#45;tree.">
<polygon fill="white" stroke="transparent" points="146.5,-879 26.5,-879 26.5,-485 146.5,-485 146.5,-879"/>
<text text-anchor="start" x="46.5" y="-867" font-family="Helvetica,sans-Serif" font-size="10.00">XML::XMLObject</text>
<text text-anchor="start" x="30.5" y="-852" font-family="Helvetica,sans-Serif" font-size="10.00">+</text>
<text text-anchor="start" x="43.5" y="-852" font-family="Helvetica,sans-Serif" font-size="10.00">xmlns</text>
<text text-anchor="start" x="30.5" y="-837" font-family="Helvetica,sans-Serif" font-size="10.00">+</text>
<text text-anchor="start" x="43.5" y="-837" font-family="Helvetica,sans-Serif" font-size="10.00">className</text>
<text text-anchor="start" x="30.5" y="-822" font-family="Helvetica,sans-Serif" font-size="10.00">+</text>
<text text-anchor="start" x="43.5" y="-822" font-family="Helvetica,sans-Serif" font-size="10.00">prefix</text>
<text text-anchor="start" x="30.5" y="-807" font-family="Helvetica,sans-Serif" font-size="10.00">+</text>
<text text-anchor="start" x="43.5" y="-807" font-family="Helvetica,sans-Serif" font-size="10.00">elementName</text>
<text text-anchor="start" x="30.5" y="-792" font-family="Helvetica,sans-Serif" font-size="10.00">+</text>
<text text-anchor="start" x="43.5" y="-792" font-family="Helvetica,sans-Serif" font-size="10.00">textContent</text>
<text text-anchor="start" x="30.5" y="-777" font-family="Helvetica,sans-Serif" font-size="10.00">+</text>
<text text-anchor="start" x="43.5" y="-777" font-family="Helvetica,sans-Serif" font-size="10.00">children</text>
<text text-anchor="start" x="30.5" y="-762" font-family="Helvetica,sans-Serif" font-size="10.00">+</text>
<text text-anchor="start" x="43.5" y="-762" font-family="Helvetica,sans-Serif" font-size="10.00">attributes</text>
<text text-anchor="start" x="30.5" y="-747" font-family="Helvetica,sans-Serif" font-size="10.00">+</text>
<text text-anchor="start" x="43.5" y="-747" font-family="Helvetica,sans-Serif" font-size="10.00">defaults</text>
<text text-anchor="start" x="30.5" y="-732" font-family="Helvetica,sans-Serif" font-size="10.00">#</text>
<text text-anchor="start" x="43.5" y="-732" font-family="Helvetica,sans-Serif" font-size="10.00">factory</text>
<text text-anchor="start" x="30.5" y="-717" font-family="Helvetica,sans-Serif" font-size="10.00">+</text>
<text text-anchor="start" x="43.5" y="-717" font-family="Helvetica,sans-Serif" font-size="10.00">~XMLObject()</text>
<text text-anchor="start" x="30.5" y="-702" font-family="Helvetica,sans-Serif" font-size="10.00">+</text>
<text text-anchor="start" x="43.5" y="-702" font-family="Helvetica,sans-Serif" font-size="10.00">is()</text>
<text text-anchor="start" x="30.5" y="-687" font-family="Helvetica,sans-Serif" font-size="10.00">+</text>
<text text-anchor="start" x="43.5" y="-687" font-family="Helvetica,sans-Serif" font-size="10.00">is()</text>
<text text-anchor="start" x="30.5" y="-672" font-family="Helvetica,sans-Serif" font-size="10.00">+</text>
<text text-anchor="start" x="43.5" y="-672" font-family="Helvetica,sans-Serif" font-size="10.00">get()</text>
<text text-anchor="start" x="30.5" y="-657" font-family="Helvetica,sans-Serif" font-size="10.00">+</text>
<text text-anchor="start" x="43.5" y="-657" font-family="Helvetica,sans-Serif" font-size="10.00">get()</text>
<text text-anchor="start" x="30.5" y="-642" font-family="Helvetica,sans-Serif" font-size="10.00">+</text>
<text text-anchor="start" x="43.5" y="-642" font-family="Helvetica,sans-Serif" font-size="10.00">find()</text>
<text text-anchor="start" x="30.5" y="-627" font-family="Helvetica,sans-Serif" font-size="10.00">+</text>
<text text-anchor="start" x="43.5" y="-627" font-family="Helvetica,sans-Serif" font-size="10.00">find()</text>
<text text-anchor="start" x="30.5" y="-612" font-family="Helvetica,sans-Serif" font-size="10.00">+</text>
<text text-anchor="start" x="43.5" y="-612" font-family="Helvetica,sans-Serif" font-size="10.00">stringify()</text>
<text text-anchor="start" x="30.5" y="-597" font-family="Helvetica,sans-Serif" font-size="10.00">+</text>
<text text-anchor="start" x="43.5" y="-597" font-family="Helvetica,sans-Serif" font-size="10.00">format()</text>
<text text-anchor="start" x="30.5" y="-582" font-family="Helvetica,sans-Serif" font-size="10.00">+</text>
<text text-anchor="start" x="43.5" y="-582" font-family="Helvetica,sans-Serif" font-size="10.00">getRequiredChild()</text>
<text text-anchor="start" x="43.5" y="-567" font-family="Helvetica,sans-Serif" font-size="10.00">and 7 more...</text>
<text text-anchor="start" x="30.5" y="-552" font-family="Helvetica,sans-Serif" font-size="10.00">+</text>
<text text-anchor="start" x="43.5" y="-552" font-family="Helvetica,sans-Serif" font-size="10.00">createFromStream()</text>
<text text-anchor="start" x="30.5" y="-537" font-family="Helvetica,sans-Serif" font-size="10.00">+</text>
<text text-anchor="start" x="43.5" y="-537" font-family="Helvetica,sans-Serif" font-size="10.00">createFromString()</text>
<text text-anchor="start" x="30.5" y="-522" font-family="Helvetica,sans-Serif" font-size="10.00">+</text>
<text text-anchor="start" x="43.5" y="-522" font-family="Helvetica,sans-Serif" font-size="10.00">createFromFile()</text>
<text text-anchor="start" x="30.5" y="-507" font-family="Helvetica,sans-Serif" font-size="10.00">#</text>
<text text-anchor="start" x="43.5" y="-507" font-family="Helvetica,sans-Serif" font-size="10.00">XMLObject()</text>
<text text-anchor="start" x="30.5" y="-492" font-family="Helvetica,sans-Serif" font-size="10.00">#</text>
<text text-anchor="start" x="43.5" y="-492" font-family="Helvetica,sans-Serif" font-size="10.00">createObject()</text>
<polygon fill="#666666" stroke="#666666" points="26.5,-862 26.5,-862 146.5,-862 146.5,-862 26.5,-862"/>
<polygon fill="#666666" stroke="#666666" points="26.5,-727 26.5,-727 41.5,-727 41.5,-727 26.5,-727"/>
<polygon fill="#666666" stroke="#666666" points="41.5,-727 41.5,-727 146.5,-727 146.5,-727 41.5,-727"/>
<polygon fill="none" stroke="#666666" points="26.5,-485 26.5,-879 146.5,-879 146.5,-485 26.5,-485"/>
</a>
</g>
</g>
<!-- Node5&#45;&gt;Node4 -->
<g id="edge4_Node000004_Node000005" class="edge">
<title>Node5&#45;&gt;Node4</title>
<g id="a_edge4_Node000004_Node000005"><a xlink:title=" ">
<path fill="none" stroke="#63b8ff" d="M86.5,-474.78C86.5,-465.62 86.5,-456.97 86.5,-449.06"/>
<polygon fill="none" stroke="#63b8ff" points="83,-474.91 86.5,-484.91 90,-474.91 83,-474.91"/>
</a>
</g>
</g>
</g>
</svg>
