<?xml version="1.0" encoding="UTF-8" standalone="no"?>
<!DOCTYPE svg PUBLIC "-//W3C//DTD SVG 1.1//EN"
 "http://www.w3.org/Graphics/SVG/1.1/DTD/svg11.dtd">
<!-- Generated by graphviz version 14.1.2 (0)
 -->
<!-- Title: BPMN::EscalationBoundaryEvent Pages: 1 -->
<svg width="187pt" height="1182pt"
 viewBox="0.00 0.00 187.00 1182.00" xmlns="http://www.w3.org/2000/svg" xmlns:xlink="http://www.w3.org/1999/xlink">
<g id="graph0" class="graph" transform="scale(1 1) rotate(0) translate(4 1178.25)">
<title>BPMN::EscalationBoundaryEvent</title>
<!-- Node1 -->
<g id="Node000001" class="node">
<title>Node1</title>
<g id="a_Node000001"><a xlink:title=" ">
<polygon fill="#999999" stroke="none" points="152.25,-67 0,-67 0,0 152.25,0 152.25,-67"/>
<text xml:space="preserve" text-anchor="start" x="10.12" y="-53.5" font-family="Helvetica,sans-Serif" font-size="10.00">BPMN::EscalationBoundary</text>
<text xml:space="preserve" text-anchor="start" x="62.25" y="-40.75" font-family="Helvetica,sans-Serif" font-size="10.00">Event</text>
<text xml:space="preserve" text-anchor="start" x="4" y="-24" font-family="Helvetica,sans-Serif" font-size="10.00">+</text>
<text xml:space="preserve" text-anchor="start" x="16.25" y="-24" font-family="Helvetica,sans-Serif" font-size="10.00">element</text>
<text xml:space="preserve" text-anchor="start" x="4" y="-7.25" font-family="Helvetica,sans-Serif" font-size="10.00">+</text>
<text xml:space="preserve" text-anchor="start" x="16.25" y="-7.25" font-family="Helvetica,sans-Serif" font-size="10.00">EscalationBoundaryEvent()</text>
<polygon fill="#666666" stroke="#666666" points="0,-35.5 0,-35.5 152.25,-35.5 152.25,-35.5 0,-35.5"/>
<polygon fill="#666666" stroke="#666666" points="0,-18.75 0,-18.75 14.25,-18.75 14.25,-18.75 0,-18.75"/>
<polygon fill="#666666" stroke="#666666" points="14.25,-18.75 14.25,-18.75 152.25,-18.75 152.25,-18.75 14.25,-18.75"/>
<polygon fill="none" stroke="#666666" points="0,0 0,-67 152.25,-67 152.25,0 0,0"/>
</a>
</g>
</g>
<!-- Node2 -->
<g id="Node000002" class="node">
<title>Node2</title>
<g id="a_Node000002"><a xlink:href="classBPMN_1_1BoundaryEvent.html" target="_top" xlink:title="Base class for all boundary events attached to an Activity.">
<polygon fill="white" stroke="none" points="178.88,-190.75 61.38,-190.75 61.38,-103 178.88,-103 178.88,-190.75"/>
<text xml:space="preserve" text-anchor="start" x="65.38" y="-177.25" font-family="Helvetica,sans-Serif" font-size="10.00">BPMN::BoundaryEvent</text>
<text xml:space="preserve" text-anchor="start" x="66.44" y="-160.5" font-family="Helvetica,sans-Serif" font-size="10.00">+</text>
<text xml:space="preserve" text-anchor="start" x="79.75" y="-160.5" font-family="Helvetica,sans-Serif" font-size="10.00">isInterrupting</text>
<text xml:space="preserve" text-anchor="start" x="66.44" y="-143.75" font-family="Helvetica,sans-Serif" font-size="10.00">+</text>
<text xml:space="preserve" text-anchor="start" x="79.75" y="-143.75" font-family="Helvetica,sans-Serif" font-size="10.00">attachedTo</text>
<text xml:space="preserve" text-anchor="start" x="66.44" y="-127" font-family="Helvetica,sans-Serif" font-size="10.00">+</text>
<text xml:space="preserve" text-anchor="start" x="79.75" y="-127" font-family="Helvetica,sans-Serif" font-size="10.00">BoundaryEvent()</text>
<text xml:space="preserve" text-anchor="start" x="66.44" y="-110.25" font-family="Helvetica,sans-Serif" font-size="10.00">#</text>
<text xml:space="preserve" text-anchor="start" x="79.75" y="-110.25" font-family="Helvetica,sans-Serif" font-size="10.00">resolveReference()</text>
<polygon fill="#666666" stroke="#666666" points="61.38,-172 61.38,-172 178.88,-172 178.88,-172 61.38,-172"/>
<polygon fill="#666666" stroke="#666666" points="61.38,-138.5 61.38,-138.5 77.75,-138.5 77.75,-138.5 61.38,-138.5"/>
<polygon fill="#666666" stroke="#666666" points="77.75,-138.5 77.75,-138.5 178.88,-138.5 178.88,-138.5 77.75,-138.5"/>
<polygon fill="none" stroke="#666666" points="61.38,-103 61.38,-190.75 178.88,-190.75 178.88,-103 61.38,-103"/>
</a>
</g>
</g>
<!-- Node2&#45;&gt;Node1 -->
<g id="edge1_Node000001_Node000002" class="edge">
<title>Node2&#45;&gt;Node1</title>
<g id="a_edge1_Node000001_Node000002"><a xlink:title=" ">
<path fill="none" stroke="#63b8ff" d="M99.06,-92.55C95.6,-83.8 92.11,-74.96 88.93,-66.92"/>
<polygon fill="none" stroke="#63b8ff" points="95.75,-93.71 102.68,-101.73 102.26,-91.14 95.75,-93.71"/>
</a>
</g>
</g>
<!-- Node3 -->
<g id="Node000003" class="node">
<title>Node3</title>
<g id="a_Node000003"><a xlink:href="classBPMN_1_1CatchEvent.html" target="_top" xlink:title=" ">
<polygon fill="white" stroke="none" points="125.5,-281 26.75,-281 26.75,-226.75 125.5,-226.75 125.5,-281"/>
<text xml:space="preserve" text-anchor="start" x="30.75" y="-267.5" font-family="Helvetica,sans-Serif" font-size="10.00">BPMN::CatchEvent</text>
<text xml:space="preserve" text-anchor="start" x="34.62" y="-250.75" font-family="Helvetica,sans-Serif" font-size="10.00">+</text>
<text xml:space="preserve" text-anchor="start" x="50.75" y="-250.75" font-family="Helvetica,sans-Serif" font-size="10.00">element</text>
<text xml:space="preserve" text-anchor="start" x="34.62" y="-234" font-family="Helvetica,sans-Serif" font-size="10.00">+</text>
<text xml:space="preserve" text-anchor="start" x="50.75" y="-234" font-family="Helvetica,sans-Serif" font-size="10.00">CatchEvent()</text>
<polygon fill="#666666" stroke="#666666" points="26.75,-262.25 26.75,-262.25 125.5,-262.25 125.5,-262.25 26.75,-262.25"/>
<polygon fill="#666666" stroke="#666666" points="26.75,-245.5 26.75,-245.5 48.75,-245.5 48.75,-245.5 26.75,-245.5"/>
<polygon fill="#666666" stroke="#666666" points="48.75,-245.5 48.75,-245.5 125.5,-245.5 125.5,-245.5 48.75,-245.5"/>
<polygon fill="none" stroke="#666666" points="26.75,-226.75 26.75,-281 125.5,-281 125.5,-226.75 26.75,-226.75"/>
</a>
</g>
</g>
<!-- Node3&#45;&gt;Node1 -->
<g id="edge9_Node000001_Node000003" class="edge">
<title>Node3&#45;&gt;Node1</title>
<g id="a_edge9_Node000001_Node000003"><a xlink:title=" ">
<path fill="none" stroke="#63b8ff" d="M59.49,-216.44C56.44,-208.16 53.72,-199.29 52.12,-190.75 44.98,-152.41 45.58,-141.45 52.12,-103 54.2,-90.83 58.2,-77.93 62.35,-66.66"/>
<polygon fill="none" stroke="#63b8ff" points="56.14,-217.48 63.07,-225.49 62.65,-214.91 56.14,-217.48"/>
</a>
</g>
</g>
<!-- Node3&#45;&gt;Node2 -->
<g id="edge2_Node000002_Node000003" class="edge">
<title>Node3&#45;&gt;Node2</title>
<g id="a_edge2_Node000002_Node000003"><a xlink:title=" ">
<path fill="none" stroke="#63b8ff" d="M91.4,-216.43C94.88,-208.13 98.6,-199.23 102.18,-190.69"/>
<polygon fill="none" stroke="#63b8ff" points="88.22,-214.95 87.59,-225.52 94.68,-217.65 88.22,-214.95"/>
</a>
</g>
</g>
<!-- Node4 -->
<g id="Node000004" class="node">
<title>Node4</title>
<g id="a_Node000004"><a xlink:href="classBPMN_1_1Event.html" target="_top" xlink:title=" ">
<polygon fill="white" stroke="none" points="111.62,-371.25 40.62,-371.25 40.62,-317 111.62,-317 111.62,-371.25"/>
<text xml:space="preserve" text-anchor="start" x="44.62" y="-357.75" font-family="Helvetica,sans-Serif" font-size="10.00">BPMN::Event</text>
<text xml:space="preserve" text-anchor="start" x="47.19" y="-341" font-family="Helvetica,sans-Serif" font-size="10.00">+</text>
<text xml:space="preserve" text-anchor="start" x="62" y="-341" font-family="Helvetica,sans-Serif" font-size="10.00">element</text>
<text xml:space="preserve" text-anchor="start" x="47.19" y="-324.25" font-family="Helvetica,sans-Serif" font-size="10.00">+</text>
<text xml:space="preserve" text-anchor="start" x="62" y="-324.25" font-family="Helvetica,sans-Serif" font-size="10.00">Event()</text>
<polygon fill="#666666" stroke="#666666" points="40.62,-352.5 40.62,-352.5 111.62,-352.5 111.62,-352.5 40.62,-352.5"/>
<polygon fill="#666666" stroke="#666666" points="40.62,-335.75 40.62,-335.75 60,-335.75 60,-335.75 40.62,-335.75"/>
<polygon fill="#666666" stroke="#666666" points="60,-335.75 60,-335.75 111.62,-335.75 111.62,-335.75 60,-335.75"/>
<polygon fill="none" stroke="#666666" points="40.62,-317 40.62,-371.25 111.62,-371.25 111.62,-317 40.62,-317"/>
</a>
</g>
</g>
<!-- Node4&#45;&gt;Node3 -->
<g id="edge3_Node000003_Node000004" class="edge">
<title>Node4&#45;&gt;Node3</title>
<g id="a_edge3_Node000003_Node000004"><a xlink:title=" ">
<path fill="none" stroke="#63b8ff" d="M76.12,-305.71C76.12,-297.39 76.12,-288.74 76.12,-280.99"/>
<polygon fill="none" stroke="#63b8ff" points="72.63,-305.61 76.13,-315.61 79.63,-305.61 72.63,-305.61"/>
</a>
</g>
</g>
<!-- Node5 -->
<g id="Node000005" class="node">
<title>Node5</title>
<g id="a_Node000005"><a xlink:href="classBPMN_1_1FlowNode.html" target="_top" xlink:title="Base class for BPMN elements that may contain incoming and outgoing sequence flows.">
<polygon fill="white" stroke="none" points="122.12,-511.75 30.12,-511.75 30.12,-407.25 122.12,-407.25 122.12,-511.75"/>
<text xml:space="preserve" text-anchor="start" x="34.12" y="-498.25" font-family="Helvetica,sans-Serif" font-size="10.00">BPMN::FlowNode</text>
<text xml:space="preserve" text-anchor="start" x="38" y="-481.5" font-family="Helvetica,sans-Serif" font-size="10.00">+</text>
<text xml:space="preserve" text-anchor="start" x="54.12" y="-481.5" font-family="Helvetica,sans-Serif" font-size="10.00">element</text>
<text xml:space="preserve" text-anchor="start" x="38" y="-464.75" font-family="Helvetica,sans-Serif" font-size="10.00">+</text>
<text xml:space="preserve" text-anchor="start" x="54.12" y="-464.75" font-family="Helvetica,sans-Serif" font-size="10.00">name</text>
<text xml:space="preserve" text-anchor="start" x="38" y="-448" font-family="Helvetica,sans-Serif" font-size="10.00">+</text>
<text xml:space="preserve" text-anchor="start" x="54.12" y="-448" font-family="Helvetica,sans-Serif" font-size="10.00">incoming</text>
<text xml:space="preserve" text-anchor="start" x="38" y="-431.25" font-family="Helvetica,sans-Serif" font-size="10.00">+</text>
<text xml:space="preserve" text-anchor="start" x="54.12" y="-431.25" font-family="Helvetica,sans-Serif" font-size="10.00">outgoing</text>
<text xml:space="preserve" text-anchor="start" x="38" y="-414.5" font-family="Helvetica,sans-Serif" font-size="10.00">+</text>
<text xml:space="preserve" text-anchor="start" x="54.12" y="-414.5" font-family="Helvetica,sans-Serif" font-size="10.00">FlowNode()</text>
<polygon fill="#666666" stroke="#666666" points="30.12,-493 30.12,-493 122.12,-493 122.12,-493 30.12,-493"/>
<polygon fill="#666666" stroke="#666666" points="30.12,-426 30.12,-426 52.12,-426 52.12,-426 30.12,-426"/>
<polygon fill="#666666" stroke="#666666" points="52.12,-426 52.12,-426 122.12,-426 122.12,-426 52.12,-426"/>
<polygon fill="none" stroke="#666666" points="30.12,-407.25 30.12,-511.75 122.12,-511.75 122.12,-407.25 30.12,-407.25"/>
</a>
</g>
</g>
<!-- Node5&#45;&gt;Node4 -->
<g id="edge4_Node000004_Node000005" class="edge">
<title>Node5&#45;&gt;Node4</title>
<g id="a_edge4_Node000004_Node000005"><a xlink:title=" ">
<path fill="none" stroke="#63b8ff" d="M76.12,-396.22C76.12,-387.37 76.12,-378.71 76.12,-371.11"/>
<polygon fill="none" stroke="#63b8ff" points="72.63,-395.94 76.13,-405.94 79.63,-395.94 72.63,-395.94"/>
</a>
</g>
</g>
<!-- Node6 -->
<g id="Node000006" class="node">
<title>Node6</title>
<g id="a_Node000006"><a xlink:href="classBPMN_1_1ChildNode.html" target="_top" xlink:title="Base class for BPMN elements within a Scope.">
<polygon fill="white" stroke="none" points="122.88,-635.5 29.38,-635.5 29.38,-547.75 122.88,-547.75 122.88,-635.5"/>
<text xml:space="preserve" text-anchor="start" x="33.38" y="-622" font-family="Helvetica,sans-Serif" font-size="10.00">BPMN::ChildNode</text>
<text xml:space="preserve" text-anchor="start" x="37.25" y="-605.25" font-family="Helvetica,sans-Serif" font-size="10.00">+</text>
<text xml:space="preserve" text-anchor="start" x="53.38" y="-605.25" font-family="Helvetica,sans-Serif" font-size="10.00">parent</text>
<text xml:space="preserve" text-anchor="start" x="37.25" y="-588.5" font-family="Helvetica,sans-Serif" font-size="10.00">+</text>
<text xml:space="preserve" text-anchor="start" x="53.38" y="-588.5" font-family="Helvetica,sans-Serif" font-size="10.00">ChildNode()</text>
<text xml:space="preserve" text-anchor="start" x="37.25" y="-571.75" font-family="Helvetica,sans-Serif" font-size="10.00">+</text>
<text xml:space="preserve" text-anchor="start" x="53.38" y="-571.75" font-family="Helvetica,sans-Serif" font-size="10.00">ancestor()</text>
<text xml:space="preserve" text-anchor="start" x="37.25" y="-555" font-family="Helvetica,sans-Serif" font-size="10.00">+</text>
<text xml:space="preserve" text-anchor="start" x="53.38" y="-555" font-family="Helvetica,sans-Serif" font-size="10.00">ancestor()</text>
<polygon fill="#666666" stroke="#666666" points="29.38,-616.75 29.38,-616.75 122.88,-616.75 122.88,-616.75 29.38,-616.75"/>
<polygon fill="#666666" stroke="#666666" points="29.38,-600 29.38,-600 51.38,-600 51.38,-600 29.38,-600"/>
<polygon fill="#666666" stroke="#666666" points="51.38,-600 51.38,-600 122.88,-600 122.88,-600 51.38,-600"/>
<polygon fill="none" stroke="#666666" points="29.38,-547.75 29.38,-635.5 122.88,-635.5 122.88,-547.75 29.38,-547.75"/>
</a>
</g>
</g>
<!-- Node6&#45;&gt;Node5 -->
<g id="edge5_Node000005_Node000006" class="edge">
<title>Node6&#45;&gt;Node5</title>
<g id="a_edge5_Node000005_Node000006"><a xlink:title=" ">
<path fill="none" stroke="#63b8ff" d="M76.12,-536.77C76.12,-528.36 76.12,-519.7 76.12,-511.36"/>
<polygon fill="none" stroke="#63b8ff" points="72.63,-536.5 76.13,-546.5 79.63,-536.5 72.63,-536.5"/>
</a>
</g>
</g>
<!-- Node7 -->
<g id="Node000007" class="node">
<title>Node7</title>
<g id="a_Node000007"><a xlink:href="classBPMN_1_1Node.html" target="_top" xlink:title="Base class for all nodes in a BPMN model.">
<polygon fill="white" stroke="none" points="110.5,-809.5 41.75,-809.5 41.75,-671.5 110.5,-671.5 110.5,-809.5"/>
<text xml:space="preserve" text-anchor="start" x="45.75" y="-796" font-family="Helvetica,sans-Serif" font-size="10.00">BPMN::Node</text>
<text xml:space="preserve" text-anchor="start" x="46.62" y="-779.25" font-family="Helvetica,sans-Serif" font-size="10.00">+</text>
<text xml:space="preserve" text-anchor="start" x="59.75" y="-779.25" font-family="Helvetica,sans-Serif" font-size="10.00">receiving</text>
<text xml:space="preserve" text-anchor="start" x="46.62" y="-762.5" font-family="Helvetica,sans-Serif" font-size="10.00">+</text>
<text xml:space="preserve" text-anchor="start" x="59.75" y="-762.5" font-family="Helvetica,sans-Serif" font-size="10.00">sending</text>
<text xml:space="preserve" text-anchor="start" x="46.62" y="-745.75" font-family="Helvetica,sans-Serif" font-size="10.00">+</text>
<text xml:space="preserve" text-anchor="start" x="59.75" y="-745.75" font-family="Helvetica,sans-Serif" font-size="10.00">Node()</text>
<text xml:space="preserve" text-anchor="start" x="46.62" y="-729" font-family="Helvetica,sans-Serif" font-size="10.00">+</text>
<text xml:space="preserve" text-anchor="start" x="59.75" y="-729" font-family="Helvetica,sans-Serif" font-size="10.00">find()</text>
<text xml:space="preserve" text-anchor="start" x="46.62" y="-712.25" font-family="Helvetica,sans-Serif" font-size="10.00">+</text>
<text xml:space="preserve" text-anchor="start" x="59.75" y="-712.25" font-family="Helvetica,sans-Serif" font-size="10.00">find()</text>
<text xml:space="preserve" text-anchor="start" x="46.62" y="-695.5" font-family="Helvetica,sans-Serif" font-size="10.00">+</text>
<text xml:space="preserve" text-anchor="start" x="59.75" y="-695.5" font-family="Helvetica,sans-Serif" font-size="10.00">find_all()</text>
<text xml:space="preserve" text-anchor="start" x="46.62" y="-678.75" font-family="Helvetica,sans-Serif" font-size="10.00">+</text>
<text xml:space="preserve" text-anchor="start" x="59.75" y="-678.75" font-family="Helvetica,sans-Serif" font-size="10.00">find_all()</text>
<polygon fill="#666666" stroke="#666666" points="41.75,-790.75 41.75,-790.75 110.5,-790.75 110.5,-790.75 41.75,-790.75"/>
<polygon fill="#666666" stroke="#666666" points="41.75,-757.25 41.75,-757.25 57.75,-757.25 57.75,-757.25 41.75,-757.25"/>
<polygon fill="#666666" stroke="#666666" points="57.75,-757.25 57.75,-757.25 110.5,-757.25 110.5,-757.25 57.75,-757.25"/>
<polygon fill="none" stroke="#666666" points="41.75,-671.5 41.75,-809.5 110.5,-809.5 110.5,-671.5 41.75,-671.5"/>
</a>
</g>
</g>
<!-- Node7&#45;&gt;Node6 -->
<g id="edge6_Node000006_Node000007" class="edge">
<title>Node7&#45;&gt;Node6</title>
<g id="a_edge6_Node000006_Node000007"><a xlink:title=" ">
<path fill="none" stroke="#63b8ff" d="M76.12,-660.36C76.12,-651.79 76.12,-643.33 76.12,-635.44"/>
<polygon fill="none" stroke="#63b8ff" points="72.63,-660.14 76.13,-670.14 79.63,-660.14 72.63,-660.14"/>
</a>
</g>
</g>
<!-- Node8 -->
<g id="Node000008" class="node">
<title>Node8</title>
<g id="a_Node000008"><a xlink:href="classBPMN_1_1BaseElement.html" target="_top" xlink:title="Base class for all core BPMN elements.">
<polygon fill="white" stroke="none" points="133.12,-1017 19.12,-1017 19.12,-845.5 133.12,-845.5 133.12,-1017"/>
<text xml:space="preserve" text-anchor="start" x="26.25" y="-1003.5" font-family="Helvetica,sans-Serif" font-size="10.00">BPMN::BaseElement</text>
<text xml:space="preserve" text-anchor="start" x="23.12" y="-986.75" font-family="Helvetica,sans-Serif" font-size="10.00">+</text>
<text xml:space="preserve" text-anchor="start" x="35.38" y="-986.75" font-family="Helvetica,sans-Serif" font-size="10.00">element</text>
<text xml:space="preserve" text-anchor="start" x="23.12" y="-970" font-family="Helvetica,sans-Serif" font-size="10.00">+</text>
<text xml:space="preserve" text-anchor="start" x="35.38" y="-970" font-family="Helvetica,sans-Serif" font-size="10.00">id</text>
<text xml:space="preserve" text-anchor="start" x="23.12" y="-953.25" font-family="Helvetica,sans-Serif" font-size="10.00">+</text>
<text xml:space="preserve" text-anchor="start" x="35.38" y="-953.25" font-family="Helvetica,sans-Serif" font-size="10.00">extensionElements</text>
<text xml:space="preserve" text-anchor="start" x="23.12" y="-936.5" font-family="Helvetica,sans-Serif" font-size="10.00">+</text>
<text xml:space="preserve" text-anchor="start" x="35.38" y="-936.5" font-family="Helvetica,sans-Serif" font-size="10.00">BaseElement()</text>
<text xml:space="preserve" text-anchor="start" x="23.12" y="-919.75" font-family="Helvetica,sans-Serif" font-size="10.00">+</text>
<text xml:space="preserve" text-anchor="start" x="35.38" y="-919.75" font-family="Helvetica,sans-Serif" font-size="10.00">~BaseElement()</text>
<text xml:space="preserve" text-anchor="start" x="23.12" y="-903" font-family="Helvetica,sans-Serif" font-size="10.00">+</text>
<text xml:space="preserve" text-anchor="start" x="35.38" y="-903" font-family="Helvetica,sans-Serif" font-size="10.00">is()</text>
<text xml:space="preserve" text-anchor="start" x="23.12" y="-886.25" font-family="Helvetica,sans-Serif" font-size="10.00">+</text>
<text xml:space="preserve" text-anchor="start" x="35.38" y="-886.25" font-family="Helvetica,sans-Serif" font-size="10.00">is()</text>
<text xml:space="preserve" text-anchor="start" x="23.12" y="-869.5" font-family="Helvetica,sans-Serif" font-size="10.00">+</text>
<text xml:space="preserve" text-anchor="start" x="35.38" y="-869.5" font-family="Helvetica,sans-Serif" font-size="10.00">get()</text>
<text xml:space="preserve" text-anchor="start" x="23.12" y="-852.75" font-family="Helvetica,sans-Serif" font-size="10.00">+</text>
<text xml:space="preserve" text-anchor="start" x="35.38" y="-852.75" font-family="Helvetica,sans-Serif" font-size="10.00">get()</text>
<polygon fill="#666666" stroke="#666666" points="19.12,-998.25 19.12,-998.25 133.12,-998.25 133.12,-998.25 19.12,-998.25"/>
<polygon fill="#666666" stroke="#666666" points="19.12,-948 19.12,-948 33.38,-948 33.38,-948 19.12,-948"/>
<polygon fill="#666666" stroke="#666666" points="33.38,-948 33.38,-948 133.12,-948 133.12,-948 33.38,-948"/>
<polygon fill="none" stroke="#666666" points="19.12,-845.5 19.12,-1017 133.12,-1017 133.12,-845.5 19.12,-845.5"/>
</a>
</g>
</g>
<!-- Node8&#45;&gt;Node7 -->
<g id="edge7_Node000007_Node000008" class="edge">
<title>Node8&#45;&gt;Node7</title>
<g id="a_edge7_Node000007_Node000008"><a xlink:title=" ">
<path fill="none" stroke="#63b8ff" d="M76.12,-834.11C76.12,-825.71 76.12,-817.34 76.12,-809.25"/>
<polygon fill="none" stroke="#63b8ff" points="72.63,-834.02 76.13,-844.02 79.63,-834.02 72.63,-834.02"/>
</a>
</g>
</g>
<!-- Node9 -->
<g id="Node000009" class="node">
<title>Node9</title>
<g id="a_Node000009"><a xlink:href="classBPMN_1_1Element.html" target="_top" xlink:title="Abstract base class for all elements in a BPMN model.">
<polygon fill="white" stroke="none" points="118,-1174.25 34.25,-1174.25 34.25,-1053 118,-1053 118,-1174.25"/>
<text xml:space="preserve" text-anchor="start" x="38.25" y="-1160.75" font-family="Helvetica,sans-Serif" font-size="10.00">BPMN::Element</text>
<text xml:space="preserve" text-anchor="start" x="74.62" y="-1144" font-family="Helvetica,sans-Serif" font-size="10.00"> </text>
<text xml:space="preserve" text-anchor="start" x="39.31" y="-1127.25" font-family="Helvetica,sans-Serif" font-size="10.00">+</text>
<text xml:space="preserve" text-anchor="start" x="52.62" y="-1127.25" font-family="Helvetica,sans-Serif" font-size="10.00">~Element()</text>
<text xml:space="preserve" text-anchor="start" x="39.31" y="-1110.5" font-family="Helvetica,sans-Serif" font-size="10.00">+</text>
<text xml:space="preserve" text-anchor="start" x="52.62" y="-1110.5" font-family="Helvetica,sans-Serif" font-size="10.00">represents()</text>
<text xml:space="preserve" text-anchor="start" x="39.31" y="-1093.75" font-family="Helvetica,sans-Serif" font-size="10.00">+</text>
<text xml:space="preserve" text-anchor="start" x="52.62" y="-1093.75" font-family="Helvetica,sans-Serif" font-size="10.00">represents()</text>
<text xml:space="preserve" text-anchor="start" x="39.31" y="-1077" font-family="Helvetica,sans-Serif" font-size="10.00">+</text>
<text xml:space="preserve" text-anchor="start" x="52.62" y="-1077" font-family="Helvetica,sans-Serif" font-size="10.00">as()</text>
<text xml:space="preserve" text-anchor="start" x="39.31" y="-1060.25" font-family="Helvetica,sans-Serif" font-size="10.00">+</text>
<text xml:space="preserve" text-anchor="start" x="52.62" y="-1060.25" font-family="Helvetica,sans-Serif" font-size="10.00">as()</text>
<polygon fill="#666666" stroke="#666666" points="34.25,-1155.5 34.25,-1155.5 118,-1155.5 118,-1155.5 34.25,-1155.5"/>
<polygon fill="#666666" stroke="#666666" points="34.25,-1138.75 34.25,-1138.75 118,-1138.75 118,-1138.75 34.25,-1138.75"/>
<polygon fill="none" stroke="#666666" points="34.25,-1053 34.25,-1174.25 118,-1174.25 118,-1053 34.25,-1053"/>
</a>
</g>
</g>
<!-- Node9&#45;&gt;Node8 -->
<g id="edge8_Node000008_Node000009" class="edge">
<title>Node9&#45;&gt;Node8</title>
<g id="a_edge8_Node000008_Node000009"><a xlink:title=" ">
<path fill="none" stroke="#63b8ff" d="M76.12,-1041.71C76.12,-1033.56 76.12,-1025.19 76.12,-1016.88"/>
<polygon fill="none" stroke="#63b8ff" points="72.63,-1041.55 76.13,-1051.55 79.63,-1041.55 72.63,-1041.55"/>
</a>
</g>
</g>
</g>
</svg>
