<?xml version="1.0" encoding="UTF-8" standalone="no"?>
<!DOCTYPE svg PUBLIC "-//W3C//DTD SVG 1.1//EN"
 "http://www.w3.org/Graphics/SVG/1.1/DTD/svg11.dtd">
<!-- Generated by graphviz version 2.43.0 (0)
 -->
<!-- Title: XML::bpmn::tArtifact Pages: 1 -->
<svg width="451pt" height="761pt"
 viewBox="0.00 0.00 451.00 761.00" xmlns="http://www.w3.org/2000/svg" xmlns:xlink="http://www.w3.org/1999/xlink">
<g id="graph0" class="graph" transform="scale(1 1) rotate(0) translate(4 757)">
<title>XML::bpmn::tArtifact</title>
<!-- Node1 -->
<g id="node1" class="node">
<title>Node1</title>
<g id="a_node1"><a xlink:title=" ">
<polygon fill="#bfbfbf" stroke="black" points="154,-221.5 154,-278.5 271,-278.5 271,-221.5 154,-221.5"/>
<text text-anchor="middle" x="212.5" y="-266.5" font-family="Helvetica,sans-Serif" font-size="10.00">XML::bpmn::tArtifact</text>
<polyline fill="none" stroke="black" points="154,-259.5 271,-259.5 "/>
<text text-anchor="start" x="162" y="-247.5" font-family="Helvetica,sans-Serif" font-size="10.00">+ defaults</text>
<polyline fill="none" stroke="black" points="154,-240.5 271,-240.5 "/>
<text text-anchor="start" x="162" y="-228.5" font-family="Helvetica,sans-Serif" font-size="10.00"># tArtifact()</text>
</a>
</g>
</g>
<!-- Node4 -->
<g id="node4" class="node">
<title>Node4</title>
<g id="a_node4"><a xlink:href="classXML_1_1bpmn_1_1tAssociation.html" target="_top" xlink:title=" ">
<polygon fill="none" stroke="black" points="0,-94.5 0,-184.5 137,-184.5 137,-94.5 0,-94.5"/>
<text text-anchor="middle" x="68.5" y="-172.5" font-family="Helvetica,sans-Serif" font-size="10.00">XML::bpmn::tAssociation</text>
<polyline fill="none" stroke="black" points="0,-165.5 137,-165.5 "/>
<text text-anchor="start" x="8" y="-153.5" font-family="Helvetica,sans-Serif" font-size="10.00">+ sourceRef</text>
<text text-anchor="start" x="8" y="-142.5" font-family="Helvetica,sans-Serif" font-size="10.00">+ targetRef</text>
<text text-anchor="start" x="8" y="-131.5" font-family="Helvetica,sans-Serif" font-size="10.00">+ associationDirection</text>
<text text-anchor="start" x="8" y="-120.5" font-family="Helvetica,sans-Serif" font-size="10.00">+ defaults</text>
<polyline fill="none" stroke="black" points="0,-113.5 137,-113.5 "/>
<text text-anchor="start" x="8" y="-101.5" font-family="Helvetica,sans-Serif" font-size="10.00"># tAssociation()</text>
</a>
</g>
</g>
<!-- Node1&#45;&gt;Node4 -->
<g id="edge3" class="edge">
<title>Node1&#45;&gt;Node4</title>
<path fill="none" stroke="midnightblue" d="M167.56,-215.14C154.71,-205.45 140.51,-194.75 126.97,-184.55"/>
<polygon fill="none" stroke="midnightblue" points="165.7,-218.12 175.79,-221.34 169.91,-212.53 165.7,-218.12"/>
</g>
<!-- Node5 -->
<g id="node5" class="node">
<title>Node5</title>
<g id="a_node5"><a xlink:href="classXML_1_1bpmn_1_1tGroup.html" target="_top" xlink:title=" ">
<polygon fill="none" stroke="black" points="155.5,-105.5 155.5,-173.5 269.5,-173.5 269.5,-105.5 155.5,-105.5"/>
<text text-anchor="middle" x="212.5" y="-161.5" font-family="Helvetica,sans-Serif" font-size="10.00">XML::bpmn::tGroup</text>
<polyline fill="none" stroke="black" points="155.5,-154.5 269.5,-154.5 "/>
<text text-anchor="start" x="163.5" y="-142.5" font-family="Helvetica,sans-Serif" font-size="10.00">+ categoryValueRef</text>
<text text-anchor="start" x="163.5" y="-131.5" font-family="Helvetica,sans-Serif" font-size="10.00">+ defaults</text>
<polyline fill="none" stroke="black" points="155.5,-124.5 269.5,-124.5 "/>
<text text-anchor="start" x="163.5" y="-112.5" font-family="Helvetica,sans-Serif" font-size="10.00"># tGroup()</text>
</a>
</g>
</g>
<!-- Node1&#45;&gt;Node5 -->
<g id="edge4" class="edge">
<title>Node1&#45;&gt;Node5</title>
<path fill="none" stroke="midnightblue" d="M212.5,-210.99C212.5,-198.77 212.5,-185.35 212.5,-173.52"/>
<polygon fill="none" stroke="midnightblue" points="209,-211.34 212.5,-221.34 216,-211.34 209,-211.34"/>
</g>
<!-- Node6 -->
<g id="node6" class="node">
<title>Node6</title>
<g id="a_node6"><a xlink:href="classXML_1_1bpmn_1_1tTextAnnotation.html" target="_top" xlink:title=" ">
<polygon fill="none" stroke="black" points="288,-100 288,-179 443,-179 443,-100 288,-100"/>
<text text-anchor="middle" x="365.5" y="-167" font-family="Helvetica,sans-Serif" font-size="10.00">XML::bpmn::tTextAnnotation</text>
<polyline fill="none" stroke="black" points="288,-160 443,-160 "/>
<text text-anchor="start" x="296" y="-148" font-family="Helvetica,sans-Serif" font-size="10.00">+ text</text>
<text text-anchor="start" x="296" y="-137" font-family="Helvetica,sans-Serif" font-size="10.00">+ textFormat</text>
<text text-anchor="start" x="296" y="-126" font-family="Helvetica,sans-Serif" font-size="10.00">+ defaults</text>
<polyline fill="none" stroke="black" points="288,-119 443,-119 "/>
<text text-anchor="start" x="296" y="-107" font-family="Helvetica,sans-Serif" font-size="10.00"># tTextAnnotation()</text>
</a>
</g>
</g>
<!-- Node1&#45;&gt;Node6 -->
<g id="edge5" class="edge">
<title>Node1&#45;&gt;Node6</title>
<path fill="none" stroke="midnightblue" d="M259.77,-215.48C275.98,-203.98 294.25,-191.03 310.98,-179.16"/>
<polygon fill="none" stroke="midnightblue" points="257.64,-212.7 251.5,-221.34 261.69,-218.41 257.64,-212.7"/>
</g>
<!-- Node2 -->
<g id="node2" class="node">
<title>Node2</title>
<g id="a_node2"><a xlink:href="classXML_1_1bpmn_1_1tBaseElement.html" target="_top" xlink:title=" ">
<polygon fill="none" stroke="black" points="139.5,-315.5 139.5,-405.5 285.5,-405.5 285.5,-315.5 139.5,-315.5"/>
<text text-anchor="middle" x="212.5" y="-393.5" font-family="Helvetica,sans-Serif" font-size="10.00">XML::bpmn::tBaseElement</text>
<polyline fill="none" stroke="black" points="139.5,-386.5 285.5,-386.5 "/>
<text text-anchor="start" x="147.5" y="-374.5" font-family="Helvetica,sans-Serif" font-size="10.00">+ documentation</text>
<text text-anchor="start" x="147.5" y="-363.5" font-family="Helvetica,sans-Serif" font-size="10.00">+ extensionElements</text>
<text text-anchor="start" x="147.5" y="-352.5" font-family="Helvetica,sans-Serif" font-size="10.00">+ id</text>
<text text-anchor="start" x="147.5" y="-341.5" font-family="Helvetica,sans-Serif" font-size="10.00">+ defaults</text>
<polyline fill="none" stroke="black" points="139.5,-334.5 285.5,-334.5 "/>
<text text-anchor="start" x="147.5" y="-322.5" font-family="Helvetica,sans-Serif" font-size="10.00"># tBaseElement()</text>
</a>
</g>
</g>
<!-- Node2&#45;&gt;Node1 -->
<g id="edge1" class="edge">
<title>Node2&#45;&gt;Node1</title>
<path fill="none" stroke="midnightblue" d="M212.5,-305.35C212.5,-296.07 212.5,-286.79 212.5,-278.59"/>
<polygon fill="none" stroke="midnightblue" points="209,-305.37 212.5,-315.37 216,-305.37 209,-305.37"/>
</g>
<!-- Node3 -->
<g id="node3" class="node">
<title>Node3</title>
<g id="a_node3"><a xlink:href="classXML_1_1XMLObject.html" target="_top" xlink:title=" ">
<polygon fill="none" stroke="black" points="149.5,-442.5 149.5,-752.5 275.5,-752.5 275.5,-442.5 149.5,-442.5"/>
<text text-anchor="middle" x="212.5" y="-740.5" font-family="Helvetica,sans-Serif" font-size="10.00">XML::XMLObject</text>
<polyline fill="none" stroke="black" points="149.5,-733.5 275.5,-733.5 "/>
<text text-anchor="start" x="157.5" y="-721.5" font-family="Helvetica,sans-Serif" font-size="10.00">+ xmlns</text>
<text text-anchor="start" x="157.5" y="-710.5" font-family="Helvetica,sans-Serif" font-size="10.00">+ className</text>
<text text-anchor="start" x="157.5" y="-699.5" font-family="Helvetica,sans-Serif" font-size="10.00">+ prefix</text>
<text text-anchor="start" x="157.5" y="-688.5" font-family="Helvetica,sans-Serif" font-size="10.00">+ elementName</text>
<text text-anchor="start" x="157.5" y="-677.5" font-family="Helvetica,sans-Serif" font-size="10.00">+ textContent</text>
<text text-anchor="start" x="157.5" y="-666.5" font-family="Helvetica,sans-Serif" font-size="10.00">+ children</text>
<text text-anchor="start" x="157.5" y="-655.5" font-family="Helvetica,sans-Serif" font-size="10.00">+ attributes</text>
<text text-anchor="start" x="157.5" y="-644.5" font-family="Helvetica,sans-Serif" font-size="10.00">+ defaults</text>
<text text-anchor="start" x="157.5" y="-633.5" font-family="Helvetica,sans-Serif" font-size="10.00"># factory</text>
<polyline fill="none" stroke="black" points="149.5,-626.5 275.5,-626.5 "/>
<text text-anchor="start" x="157.5" y="-614.5" font-family="Helvetica,sans-Serif" font-size="10.00">+ ~XMLObject()</text>
<text text-anchor="start" x="157.5" y="-603.5" font-family="Helvetica,sans-Serif" font-size="10.00">+ is()</text>
<text text-anchor="start" x="157.5" y="-592.5" font-family="Helvetica,sans-Serif" font-size="10.00">+ is()</text>
<text text-anchor="start" x="157.5" y="-581.5" font-family="Helvetica,sans-Serif" font-size="10.00">+ get()</text>
<text text-anchor="start" x="157.5" y="-570.5" font-family="Helvetica,sans-Serif" font-size="10.00">+ get()</text>
<text text-anchor="start" x="157.5" y="-559.5" font-family="Helvetica,sans-Serif" font-size="10.00">+ find()</text>
<text text-anchor="start" x="157.5" y="-548.5" font-family="Helvetica,sans-Serif" font-size="10.00">+ find()</text>
<text text-anchor="start" x="157.5" y="-537.5" font-family="Helvetica,sans-Serif" font-size="10.00">+ stringify()</text>
<text text-anchor="start" x="157.5" y="-526.5" font-family="Helvetica,sans-Serif" font-size="10.00">+ getRequiredChild()</text>
<text text-anchor="start" x="157.5" y="-515.5" font-family="Helvetica,sans-Serif" font-size="10.00">+ getOptionalChild()</text>
<text text-anchor="start" x="157.5" y="-504.5" font-family="Helvetica,sans-Serif" font-size="10.00">and 6 more...</text>
<text text-anchor="start" x="157.5" y="-493.5" font-family="Helvetica,sans-Serif" font-size="10.00">+ createFromStream()</text>
<text text-anchor="start" x="157.5" y="-482.5" font-family="Helvetica,sans-Serif" font-size="10.00">+ createFromString()</text>
<text text-anchor="start" x="157.5" y="-471.5" font-family="Helvetica,sans-Serif" font-size="10.00">+ createFromFile()</text>
<text text-anchor="start" x="157.5" y="-460.5" font-family="Helvetica,sans-Serif" font-size="10.00"># XMLObject()</text>
<text text-anchor="start" x="157.5" y="-449.5" font-family="Helvetica,sans-Serif" font-size="10.00"># createObject()</text>
</a>
</g>
</g>
<!-- Node3&#45;&gt;Node2 -->
<g id="edge2" class="edge">
<title>Node3&#45;&gt;Node2</title>
<path fill="none" stroke="midnightblue" d="M212.5,-432.35C212.5,-422.89 212.5,-413.91 212.5,-405.72"/>
<polygon fill="none" stroke="midnightblue" points="209,-432.37 212.5,-442.37 216,-432.37 209,-432.37"/>
</g>
<!-- Node7 -->
<g id="node7" class="node">
<title>Node7</title>
<g id="a_node7"><a xlink:href="classXML_1_1bpmn_1_1textAnnotation.html" target="_top" xlink:title=" ">
<polygon fill="none" stroke="black" points="290.5,-0.5 290.5,-57.5 440.5,-57.5 440.5,-0.5 290.5,-0.5"/>
<text text-anchor="middle" x="365.5" y="-45.5" font-family="Helvetica,sans-Serif" font-size="10.00">XML::bpmn::textAnnotation</text>
<polyline fill="none" stroke="black" points="290.5,-38.5 440.5,-38.5 "/>
<text text-anchor="start" x="298.5" y="-26.5" font-family="Helvetica,sans-Serif" font-size="10.00">+ defaults</text>
<polyline fill="none" stroke="black" points="290.5,-19.5 440.5,-19.5 "/>
<text text-anchor="start" x="298.5" y="-7.5" font-family="Helvetica,sans-Serif" font-size="10.00"># textAnnotation()</text>
</a>
</g>
</g>
<!-- Node6&#45;&gt;Node7 -->
<g id="edge6" class="edge">
<title>Node6&#45;&gt;Node7</title>
<path fill="none" stroke="midnightblue" d="M365.5,-89.89C365.5,-78.8 365.5,-67.38 365.5,-57.53"/>
<polygon fill="none" stroke="midnightblue" points="362,-89.94 365.5,-99.94 369,-89.94 362,-89.94"/>
</g>
</g>
</svg>
