<?xml version="1.0" encoding="UTF-8" standalone="no"?>
<!DOCTYPE svg PUBLIC "-//W3C//DTD SVG 1.1//EN"
 "http://www.w3.org/Graphics/SVG/1.1/DTD/svg11.dtd">
<!-- Generated by graphviz version 2.43.0 (0)
 -->
<!-- Title: XML::bpmn::baseElementWithMixedContent Pages: 1 -->
<svg width="195pt" height="639pt"
 viewBox="0.00 0.00 195.00 639.00" xmlns="http://www.w3.org/2000/svg" xmlns:xlink="http://www.w3.org/1999/xlink">
<g id="graph0" class="graph" transform="scale(1 1) rotate(0) translate(4 635)">
<title>XML::bpmn::baseElementWithMixedContent</title>
<!-- Node1 -->
<g id="Node000001" class="node">
<title>Node1</title>
<g id="a_Node000001"><a xlink:title=" ">
<polygon fill="#999999" stroke="transparent" points="185,-60 2,-60 2,0 185,0 185,-60"/>
<text text-anchor="start" x="20" y="-48" font-family="Helvetica,sans-Serif" font-size="10.00">XML::bpmn::baseElementWith</text>
<text text-anchor="start" x="60" y="-37" font-family="Helvetica,sans-Serif" font-size="10.00">MixedContent</text>
<text text-anchor="start" x="6.5" y="-22" font-family="Helvetica,sans-Serif" font-size="10.00">+</text>
<text text-anchor="start" x="19.5" y="-22" font-family="Helvetica,sans-Serif" font-size="10.00">defaults</text>
<text text-anchor="start" x="6.5" y="-7" font-family="Helvetica,sans-Serif" font-size="10.00">#</text>
<text text-anchor="start" x="19.5" y="-7" font-family="Helvetica,sans-Serif" font-size="10.00">baseElementWithMixedContent()</text>
<polygon fill="#666666" stroke="#666666" points="2.5,-32 2.5,-32 185.5,-32 185.5,-32 2.5,-32"/>
<polygon fill="#666666" stroke="#666666" points="2.5,-17 2.5,-17 17.5,-17 17.5,-17 2.5,-17"/>
<polygon fill="#666666" stroke="#666666" points="17.5,-17 17.5,-17 185.5,-17 185.5,-17 17.5,-17"/>
<polygon fill="none" stroke="#666666" points="2,0 2,-60 185,-60 185,0 2,0"/>
</a>
</g>
</g>
<!-- Node2 -->
<g id="Node000002" class="node">
<title>Node2</title>
<g id="a_Node000002"><a xlink:href="classXML_1_1bpmn_1_1tBaseElementWithMixedContent.html" target="_top" xlink:title=" ">
<polygon fill="white" stroke="transparent" points="187,-201 0,-201 0,-96 187,-96 187,-201"/>
<text text-anchor="start" x="18" y="-188.5" font-family="Helvetica,sans-Serif" font-size="10.00">XML::bpmn::tBaseElementWith</text>
<text text-anchor="start" x="60" y="-177.5" font-family="Helvetica,sans-Serif" font-size="10.00">MixedContent</text>
<text text-anchor="start" x="4.5" y="-162.5" font-family="Helvetica,sans-Serif" font-size="10.00">+</text>
<text text-anchor="start" x="17.5" y="-162.5" font-family="Helvetica,sans-Serif" font-size="10.00">documentation</text>
<text text-anchor="start" x="4.5" y="-147.5" font-family="Helvetica,sans-Serif" font-size="10.00">+</text>
<text text-anchor="start" x="17.5" y="-147.5" font-family="Helvetica,sans-Serif" font-size="10.00">extensionElements</text>
<text text-anchor="start" x="4.5" y="-132.5" font-family="Helvetica,sans-Serif" font-size="10.00">+</text>
<text text-anchor="start" x="17.5" y="-132.5" font-family="Helvetica,sans-Serif" font-size="10.00">id</text>
<text text-anchor="start" x="4.5" y="-117.5" font-family="Helvetica,sans-Serif" font-size="10.00">+</text>
<text text-anchor="start" x="17.5" y="-117.5" font-family="Helvetica,sans-Serif" font-size="10.00">defaults</text>
<text text-anchor="start" x="4.5" y="-102.5" font-family="Helvetica,sans-Serif" font-size="10.00">#</text>
<text text-anchor="start" x="17.5" y="-102.5" font-family="Helvetica,sans-Serif" font-size="10.00">tBaseElementWithMixedContent()</text>
<polygon fill="#666666" stroke="#666666" points="0.5,-172.5 0.5,-172.5 187.5,-172.5 187.5,-172.5 0.5,-172.5"/>
<polygon fill="#666666" stroke="#666666" points="0.5,-112.5 0.5,-112.5 15.5,-112.5 15.5,-112.5 0.5,-112.5"/>
<polygon fill="#666666" stroke="#666666" points="15.5,-112.5 15.5,-112.5 187.5,-112.5 187.5,-112.5 15.5,-112.5"/>
<polygon fill="none" stroke="#666666" points="0,-96 0,-201 187,-201 187,-96 0,-96"/>
</a>
</g>
</g>
<!-- Node2&#45;&gt;Node1 -->
<g id="edge1_Node000001_Node000002" class="edge">
<title>Node2&#45;&gt;Node1</title>
<g id="a_edge1_Node000001_Node000002"><a xlink:title=" ">
<path fill="none" stroke="#63b8ff" d="M93.5,-85.71C93.5,-76.85 93.5,-68.09 93.5,-60.27"/>
<polygon fill="none" stroke="#63b8ff" points="90,-85.72 93.5,-95.72 97,-85.72 90,-85.72"/>
</a>
</g>
</g>
<!-- Node3 -->
<g id="Node000003" class="node">
<title>Node3</title>
<g id="a_Node000003"><a xlink:href="classXML_1_1XMLObject.html" target="_top" xlink:title="A class representing a node in an XML&#45;tree.">
<polygon fill="white" stroke="transparent" points="153.5,-631 33.5,-631 33.5,-237 153.5,-237 153.5,-631"/>
<text text-anchor="start" x="53.5" y="-619" font-family="Helvetica,sans-Serif" font-size="10.00">XML::XMLObject</text>
<text text-anchor="start" x="37.5" y="-604" font-family="Helvetica,sans-Serif" font-size="10.00">+</text>
<text text-anchor="start" x="50.5" y="-604" font-family="Helvetica,sans-Serif" font-size="10.00">xmlns</text>
<text text-anchor="start" x="37.5" y="-589" font-family="Helvetica,sans-Serif" font-size="10.00">+</text>
<text text-anchor="start" x="50.5" y="-589" font-family="Helvetica,sans-Serif" font-size="10.00">className</text>
<text text-anchor="start" x="37.5" y="-574" font-family="Helvetica,sans-Serif" font-size="10.00">+</text>
<text text-anchor="start" x="50.5" y="-574" font-family="Helvetica,sans-Serif" font-size="10.00">prefix</text>
<text text-anchor="start" x="37.5" y="-559" font-family="Helvetica,sans-Serif" font-size="10.00">+</text>
<text text-anchor="start" x="50.5" y="-559" font-family="Helvetica,sans-Serif" font-size="10.00">elementName</text>
<text text-anchor="start" x="37.5" y="-544" font-family="Helvetica,sans-Serif" font-size="10.00">+</text>
<text text-anchor="start" x="50.5" y="-544" font-family="Helvetica,sans-Serif" font-size="10.00">textContent</text>
<text text-anchor="start" x="37.5" y="-529" font-family="Helvetica,sans-Serif" font-size="10.00">+</text>
<text text-anchor="start" x="50.5" y="-529" font-family="Helvetica,sans-Serif" font-size="10.00">children</text>
<text text-anchor="start" x="37.5" y="-514" font-family="Helvetica,sans-Serif" font-size="10.00">+</text>
<text text-anchor="start" x="50.5" y="-514" font-family="Helvetica,sans-Serif" font-size="10.00">attributes</text>
<text text-anchor="start" x="37.5" y="-499" font-family="Helvetica,sans-Serif" font-size="10.00">+</text>
<text text-anchor="start" x="50.5" y="-499" font-family="Helvetica,sans-Serif" font-size="10.00">defaults</text>
<text text-anchor="start" x="37.5" y="-484" font-family="Helvetica,sans-Serif" font-size="10.00">#</text>
<text text-anchor="start" x="50.5" y="-484" font-family="Helvetica,sans-Serif" font-size="10.00">factory</text>
<text text-anchor="start" x="37.5" y="-469" font-family="Helvetica,sans-Serif" font-size="10.00">+</text>
<text text-anchor="start" x="50.5" y="-469" font-family="Helvetica,sans-Serif" font-size="10.00">~XMLObject()</text>
<text text-anchor="start" x="37.5" y="-454" font-family="Helvetica,sans-Serif" font-size="10.00">+</text>
<text text-anchor="start" x="50.5" y="-454" font-family="Helvetica,sans-Serif" font-size="10.00">is()</text>
<text text-anchor="start" x="37.5" y="-439" font-family="Helvetica,sans-Serif" font-size="10.00">+</text>
<text text-anchor="start" x="50.5" y="-439" font-family="Helvetica,sans-Serif" font-size="10.00">is()</text>
<text text-anchor="start" x="37.5" y="-424" font-family="Helvetica,sans-Serif" font-size="10.00">+</text>
<text text-anchor="start" x="50.5" y="-424" font-family="Helvetica,sans-Serif" font-size="10.00">get()</text>
<text text-anchor="start" x="37.5" y="-409" font-family="Helvetica,sans-Serif" font-size="10.00">+</text>
<text text-anchor="start" x="50.5" y="-409" font-family="Helvetica,sans-Serif" font-size="10.00">get()</text>
<text text-anchor="start" x="37.5" y="-394" font-family="Helvetica,sans-Serif" font-size="10.00">+</text>
<text text-anchor="start" x="50.5" y="-394" font-family="Helvetica,sans-Serif" font-size="10.00">find()</text>
<text text-anchor="start" x="37.5" y="-379" font-family="Helvetica,sans-Serif" font-size="10.00">+</text>
<text text-anchor="start" x="50.5" y="-379" font-family="Helvetica,sans-Serif" font-size="10.00">find()</text>
<text text-anchor="start" x="37.5" y="-364" font-family="Helvetica,sans-Serif" font-size="10.00">+</text>
<text text-anchor="start" x="50.5" y="-364" font-family="Helvetica,sans-Serif" font-size="10.00">stringify()</text>
<text text-anchor="start" x="37.5" y="-349" font-family="Helvetica,sans-Serif" font-size="10.00">+</text>
<text text-anchor="start" x="50.5" y="-349" font-family="Helvetica,sans-Serif" font-size="10.00">format()</text>
<text text-anchor="start" x="37.5" y="-334" font-family="Helvetica,sans-Serif" font-size="10.00">+</text>
<text text-anchor="start" x="50.5" y="-334" font-family="Helvetica,sans-Serif" font-size="10.00">getRequiredChild()</text>
<text text-anchor="start" x="50.5" y="-319" font-family="Helvetica,sans-Serif" font-size="10.00">and 7 more...</text>
<text text-anchor="start" x="37.5" y="-304" font-family="Helvetica,sans-Serif" font-size="10.00">+</text>
<text text-anchor="start" x="50.5" y="-304" font-family="Helvetica,sans-Serif" font-size="10.00">createFromStream()</text>
<text text-anchor="start" x="37.5" y="-289" font-family="Helvetica,sans-Serif" font-size="10.00">+</text>
<text text-anchor="start" x="50.5" y="-289" font-family="Helvetica,sans-Serif" font-size="10.00">createFromString()</text>
<text text-anchor="start" x="37.5" y="-274" font-family="Helvetica,sans-Serif" font-size="10.00">+</text>
<text text-anchor="start" x="50.5" y="-274" font-family="Helvetica,sans-Serif" font-size="10.00">createFromFile()</text>
<text text-anchor="start" x="37.5" y="-259" font-family="Helvetica,sans-Serif" font-size="10.00">#</text>
<text text-anchor="start" x="50.5" y="-259" font-family="Helvetica,sans-Serif" font-size="10.00">XMLObject()</text>
<text text-anchor="start" x="37.5" y="-244" font-family="Helvetica,sans-Serif" font-size="10.00">#</text>
<text text-anchor="start" x="50.5" y="-244" font-family="Helvetica,sans-Serif" font-size="10.00">createObject()</text>
<polygon fill="#666666" stroke="#666666" points="33.5,-614 33.5,-614 153.5,-614 153.5,-614 33.5,-614"/>
<polygon fill="#666666" stroke="#666666" points="33.5,-479 33.5,-479 48.5,-479 48.5,-479 33.5,-479"/>
<polygon fill="#666666" stroke="#666666" points="48.5,-479 48.5,-479 153.5,-479 153.5,-479 48.5,-479"/>
<polygon fill="none" stroke="#666666" points="33.5,-237 33.5,-631 153.5,-631 153.5,-237 33.5,-237"/>
</a>
</g>
</g>
<!-- Node3&#45;&gt;Node2 -->
<g id="edge2_Node000002_Node000003" class="edge">
<title>Node3&#45;&gt;Node2</title>
<g id="a_edge2_Node000002_Node000003"><a xlink:title=" ">
<path fill="none" stroke="#63b8ff" d="M93.5,-226.86C93.5,-217.79 93.5,-209.17 93.5,-201.19"/>
<polygon fill="none" stroke="#63b8ff" points="90,-226.87 93.5,-236.87 97,-226.87 90,-226.87"/>
</a>
</g>
</g>
</g>
</svg>
