<?xml version="1.0" encoding="UTF-8" standalone="no"?>
<!DOCTYPE svg PUBLIC "-//W3C//DTD SVG 1.1//EN"
 "http://www.w3.org/Graphics/SVG/1.1/DTD/svg11.dtd">
<!-- Generated by graphviz version 2.43.0 (0)
 -->
<!-- Title: XML::bpmn::inputSet Pages: 1 -->
<svg width="150pt" height="777pt"
 viewBox="0.00 0.00 150.00 777.00" xmlns="http://www.w3.org/2000/svg" xmlns:xlink="http://www.w3.org/1999/xlink">
<g id="graph0" class="graph" transform="scale(1 1) rotate(0) translate(4 773)">
<title>XML::bpmn::inputSet</title>
<!-- Node1 -->
<g id="Node000001" class="node">
<title>Node1</title>
<g id="a_Node000001"><a xlink:title=" ">
<polygon fill="#999999" stroke="transparent" points="127,-49 15,-49 15,0 127,0 127,-49"/>
<text text-anchor="start" x="20" y="-36.5" font-family="Helvetica,sans-Serif" font-size="10.00">XML::bpmn::inputSet</text>
<text text-anchor="start" x="29.5" y="-21.5" font-family="Helvetica,sans-Serif" font-size="10.00">+</text>
<text text-anchor="start" x="53" y="-21.5" font-family="Helvetica,sans-Serif" font-size="10.00">defaults</text>
<text text-anchor="start" x="29.5" y="-6.5" font-family="Helvetica,sans-Serif" font-size="10.00">#</text>
<text text-anchor="start" x="53" y="-6.5" font-family="Helvetica,sans-Serif" font-size="10.00">inputSet()</text>
<polygon fill="#666666" stroke="#666666" points="15,-31.5 15,-31.5 127,-31.5 127,-31.5 15,-31.5"/>
<polygon fill="#666666" stroke="#666666" points="15,-16.5 15,-16.5 51,-16.5 51,-16.5 15,-16.5"/>
<polygon fill="#666666" stroke="#666666" points="51,-16.5 51,-16.5 127,-16.5 127,-16.5 51,-16.5"/>
<polygon fill="none" stroke="#666666" points="15,0 15,-49 127,-49 127,0 15,0"/>
</a>
</g>
</g>
<!-- Node2 -->
<g id="Node000002" class="node">
<title>Node2</title>
<g id="a_Node000002"><a xlink:href="classXML_1_1bpmn_1_1tInputSet.html" target="_top" xlink:title=" ">
<polygon fill="white" stroke="transparent" points="142,-209 0,-209 0,-85 142,-85 142,-209"/>
<text text-anchor="start" x="18" y="-197" font-family="Helvetica,sans-Serif" font-size="10.00">XML::bpmn::tInputSet</text>
<text text-anchor="start" x="4" y="-182" font-family="Helvetica,sans-Serif" font-size="10.00">+</text>
<text text-anchor="start" x="17" y="-182" font-family="Helvetica,sans-Serif" font-size="10.00">dataInputRefs</text>
<text text-anchor="start" x="4" y="-167" font-family="Helvetica,sans-Serif" font-size="10.00">+</text>
<text text-anchor="start" x="17" y="-167" font-family="Helvetica,sans-Serif" font-size="10.00">optionalInputRefs</text>
<text text-anchor="start" x="4" y="-152" font-family="Helvetica,sans-Serif" font-size="10.00">+</text>
<text text-anchor="start" x="17" y="-152" font-family="Helvetica,sans-Serif" font-size="10.00">whileExecutingInputRefs</text>
<text text-anchor="start" x="4" y="-137" font-family="Helvetica,sans-Serif" font-size="10.00">+</text>
<text text-anchor="start" x="17" y="-137" font-family="Helvetica,sans-Serif" font-size="10.00">outputSetRefs</text>
<text text-anchor="start" x="4" y="-122" font-family="Helvetica,sans-Serif" font-size="10.00">+</text>
<text text-anchor="start" x="17" y="-122" font-family="Helvetica,sans-Serif" font-size="10.00">name</text>
<text text-anchor="start" x="4" y="-107" font-family="Helvetica,sans-Serif" font-size="10.00">+</text>
<text text-anchor="start" x="17" y="-107" font-family="Helvetica,sans-Serif" font-size="10.00">defaults</text>
<text text-anchor="start" x="4" y="-92" font-family="Helvetica,sans-Serif" font-size="10.00">#</text>
<text text-anchor="start" x="17" y="-92" font-family="Helvetica,sans-Serif" font-size="10.00">tInputSet()</text>
<polygon fill="#666666" stroke="#666666" points="0,-192 0,-192 142,-192 142,-192 0,-192"/>
<polygon fill="#666666" stroke="#666666" points="0,-102 0,-102 15,-102 15,-102 0,-102"/>
<polygon fill="#666666" stroke="#666666" points="15,-102 15,-102 142,-102 142,-102 15,-102"/>
<polygon fill="none" stroke="#666666" points="0,-85 0,-209 142,-209 142,-85 0,-85"/>
</a>
</g>
</g>
<!-- Node2&#45;&gt;Node1 -->
<g id="edge1_Node000001_Node000002" class="edge">
<title>Node2&#45;&gt;Node1</title>
<g id="a_edge1_Node000001_Node000002"><a xlink:title=" ">
<path fill="none" stroke="#63b8ff" d="M71,-74.65C71,-65.48 71,-56.67 71,-49.1"/>
<polygon fill="none" stroke="#63b8ff" points="67.5,-74.69 71,-84.69 74.5,-74.69 67.5,-74.69"/>
</a>
</g>
</g>
<!-- Node3 -->
<g id="Node000003" class="node">
<title>Node3</title>
<g id="a_Node000003"><a xlink:href="classXML_1_1bpmn_1_1tBaseElement.html" target="_top" xlink:title=" ">
<polygon fill="white" stroke="transparent" points="141,-339 1,-339 1,-245 141,-245 141,-339"/>
<text text-anchor="start" x="6" y="-327" font-family="Helvetica,sans-Serif" font-size="10.00">XML::bpmn::tBaseElement</text>
<text text-anchor="start" x="11" y="-312" font-family="Helvetica,sans-Serif" font-size="10.00">+</text>
<text text-anchor="start" x="30" y="-312" font-family="Helvetica,sans-Serif" font-size="10.00">documentation</text>
<text text-anchor="start" x="11" y="-297" font-family="Helvetica,sans-Serif" font-size="10.00">+</text>
<text text-anchor="start" x="30" y="-297" font-family="Helvetica,sans-Serif" font-size="10.00">extensionElements</text>
<text text-anchor="start" x="11" y="-282" font-family="Helvetica,sans-Serif" font-size="10.00">+</text>
<text text-anchor="start" x="30" y="-282" font-family="Helvetica,sans-Serif" font-size="10.00">id</text>
<text text-anchor="start" x="11" y="-267" font-family="Helvetica,sans-Serif" font-size="10.00">+</text>
<text text-anchor="start" x="30" y="-267" font-family="Helvetica,sans-Serif" font-size="10.00">defaults</text>
<text text-anchor="start" x="11" y="-252" font-family="Helvetica,sans-Serif" font-size="10.00">#</text>
<text text-anchor="start" x="30" y="-252" font-family="Helvetica,sans-Serif" font-size="10.00">tBaseElement()</text>
<polygon fill="#666666" stroke="#666666" points="1,-322 1,-322 141,-322 141,-322 1,-322"/>
<polygon fill="#666666" stroke="#666666" points="1,-262 1,-262 28,-262 28,-262 1,-262"/>
<polygon fill="#666666" stroke="#666666" points="28,-262 28,-262 141,-262 141,-262 28,-262"/>
<polygon fill="none" stroke="#666666" points="1,-245 1,-339 141,-339 141,-245 1,-245"/>
</a>
</g>
</g>
<!-- Node3&#45;&gt;Node2 -->
<g id="edge2_Node000002_Node000003" class="edge">
<title>Node3&#45;&gt;Node2</title>
<g id="a_edge2_Node000002_Node000003"><a xlink:title=" ">
<path fill="none" stroke="#63b8ff" d="M71,-234.84C71,-226.38 71,-217.63 71,-209.08"/>
<polygon fill="none" stroke="#63b8ff" points="67.5,-234.97 71,-244.97 74.5,-234.97 67.5,-234.97"/>
</a>
</g>
</g>
<!-- Node4 -->
<g id="Node000004" class="node">
<title>Node4</title>
<g id="a_Node000004"><a xlink:href="classXML_1_1XMLObject.html" target="_top" xlink:title="A class representing a node in an XML&#45;tree.">
<polygon fill="white" stroke="transparent" points="131,-769 11,-769 11,-375 131,-375 131,-769"/>
<text text-anchor="start" x="31" y="-757" font-family="Helvetica,sans-Serif" font-size="10.00">XML::XMLObject</text>
<text text-anchor="start" x="15" y="-742" font-family="Helvetica,sans-Serif" font-size="10.00">+</text>
<text text-anchor="start" x="28" y="-742" font-family="Helvetica,sans-Serif" font-size="10.00">xmlns</text>
<text text-anchor="start" x="15" y="-727" font-family="Helvetica,sans-Serif" font-size="10.00">+</text>
<text text-anchor="start" x="28" y="-727" font-family="Helvetica,sans-Serif" font-size="10.00">className</text>
<text text-anchor="start" x="15" y="-712" font-family="Helvetica,sans-Serif" font-size="10.00">+</text>
<text text-anchor="start" x="28" y="-712" font-family="Helvetica,sans-Serif" font-size="10.00">prefix</text>
<text text-anchor="start" x="15" y="-697" font-family="Helvetica,sans-Serif" font-size="10.00">+</text>
<text text-anchor="start" x="28" y="-697" font-family="Helvetica,sans-Serif" font-size="10.00">elementName</text>
<text text-anchor="start" x="15" y="-682" font-family="Helvetica,sans-Serif" font-size="10.00">+</text>
<text text-anchor="start" x="28" y="-682" font-family="Helvetica,sans-Serif" font-size="10.00">textContent</text>
<text text-anchor="start" x="15" y="-667" font-family="Helvetica,sans-Serif" font-size="10.00">+</text>
<text text-anchor="start" x="28" y="-667" font-family="Helvetica,sans-Serif" font-size="10.00">children</text>
<text text-anchor="start" x="15" y="-652" font-family="Helvetica,sans-Serif" font-size="10.00">+</text>
<text text-anchor="start" x="28" y="-652" font-family="Helvetica,sans-Serif" font-size="10.00">attributes</text>
<text text-anchor="start" x="15" y="-637" font-family="Helvetica,sans-Serif" font-size="10.00">+</text>
<text text-anchor="start" x="28" y="-637" font-family="Helvetica,sans-Serif" font-size="10.00">defaults</text>
<text text-anchor="start" x="15" y="-622" font-family="Helvetica,sans-Serif" font-size="10.00">#</text>
<text text-anchor="start" x="28" y="-622" font-family="Helvetica,sans-Serif" font-size="10.00">factory</text>
<text text-anchor="start" x="15" y="-607" font-family="Helvetica,sans-Serif" font-size="10.00">+</text>
<text text-anchor="start" x="28" y="-607" font-family="Helvetica,sans-Serif" font-size="10.00">~XMLObject()</text>
<text text-anchor="start" x="15" y="-592" font-family="Helvetica,sans-Serif" font-size="10.00">+</text>
<text text-anchor="start" x="28" y="-592" font-family="Helvetica,sans-Serif" font-size="10.00">is()</text>
<text text-anchor="start" x="15" y="-577" font-family="Helvetica,sans-Serif" font-size="10.00">+</text>
<text text-anchor="start" x="28" y="-577" font-family="Helvetica,sans-Serif" font-size="10.00">is()</text>
<text text-anchor="start" x="15" y="-562" font-family="Helvetica,sans-Serif" font-size="10.00">+</text>
<text text-anchor="start" x="28" y="-562" font-family="Helvetica,sans-Serif" font-size="10.00">get()</text>
<text text-anchor="start" x="15" y="-547" font-family="Helvetica,sans-Serif" font-size="10.00">+</text>
<text text-anchor="start" x="28" y="-547" font-family="Helvetica,sans-Serif" font-size="10.00">get()</text>
<text text-anchor="start" x="15" y="-532" font-family="Helvetica,sans-Serif" font-size="10.00">+</text>
<text text-anchor="start" x="28" y="-532" font-family="Helvetica,sans-Serif" font-size="10.00">find()</text>
<text text-anchor="start" x="15" y="-517" font-family="Helvetica,sans-Serif" font-size="10.00">+</text>
<text text-anchor="start" x="28" y="-517" font-family="Helvetica,sans-Serif" font-size="10.00">find()</text>
<text text-anchor="start" x="15" y="-502" font-family="Helvetica,sans-Serif" font-size="10.00">+</text>
<text text-anchor="start" x="28" y="-502" font-family="Helvetica,sans-Serif" font-size="10.00">stringify()</text>
<text text-anchor="start" x="15" y="-487" font-family="Helvetica,sans-Serif" font-size="10.00">+</text>
<text text-anchor="start" x="28" y="-487" font-family="Helvetica,sans-Serif" font-size="10.00">format()</text>
<text text-anchor="start" x="15" y="-472" font-family="Helvetica,sans-Serif" font-size="10.00">+</text>
<text text-anchor="start" x="28" y="-472" font-family="Helvetica,sans-Serif" font-size="10.00">getRequiredChild()</text>
<text text-anchor="start" x="28" y="-457" font-family="Helvetica,sans-Serif" font-size="10.00">and 7 more...</text>
<text text-anchor="start" x="15" y="-442" font-family="Helvetica,sans-Serif" font-size="10.00">+</text>
<text text-anchor="start" x="28" y="-442" font-family="Helvetica,sans-Serif" font-size="10.00">createFromStream()</text>
<text text-anchor="start" x="15" y="-427" font-family="Helvetica,sans-Serif" font-size="10.00">+</text>
<text text-anchor="start" x="28" y="-427" font-family="Helvetica,sans-Serif" font-size="10.00">createFromString()</text>
<text text-anchor="start" x="15" y="-412" font-family="Helvetica,sans-Serif" font-size="10.00">+</text>
<text text-anchor="start" x="28" y="-412" font-family="Helvetica,sans-Serif" font-size="10.00">createFromFile()</text>
<text text-anchor="start" x="15" y="-397" font-family="Helvetica,sans-Serif" font-size="10.00">#</text>
<text text-anchor="start" x="28" y="-397" font-family="Helvetica,sans-Serif" font-size="10.00">XMLObject()</text>
<text text-anchor="start" x="15" y="-382" font-family="Helvetica,sans-Serif" font-size="10.00">#</text>
<text text-anchor="start" x="28" y="-382" font-family="Helvetica,sans-Serif" font-size="10.00">createObject()</text>
<polygon fill="#666666" stroke="#666666" points="11,-752 11,-752 131,-752 131,-752 11,-752"/>
<polygon fill="#666666" stroke="#666666" points="11,-617 11,-617 26,-617 26,-617 11,-617"/>
<polygon fill="#666666" stroke="#666666" points="26,-617 26,-617 131,-617 131,-617 26,-617"/>
<polygon fill="none" stroke="#666666" points="11,-375 11,-769 131,-769 131,-375 11,-375"/>
</a>
</g>
</g>
<!-- Node4&#45;&gt;Node3 -->
<g id="edge3_Node000003_Node000004" class="edge">
<title>Node4&#45;&gt;Node3</title>
<g id="a_edge3_Node000003_Node000004"><a xlink:title=" ">
<path fill="none" stroke="#63b8ff" d="M71,-364.78C71,-355.62 71,-346.97 71,-339.06"/>
<polygon fill="none" stroke="#63b8ff" points="67.5,-364.91 71,-374.91 74.5,-364.91 67.5,-364.91"/>
</a>
</g>
</g>
</g>
</svg>
