<?xml version="1.0" encoding="UTF-8" standalone="no"?>
<!DOCTYPE svg PUBLIC "-//W3C//DTD SVG 1.1//EN"
 "http://www.w3.org/Graphics/SVG/1.1/DTD/svg11.dtd">
<!-- Generated by graphviz version 2.43.0 (0)
 -->
<!-- Title: XML::bpmn::tPerformer Pages: 1 -->
<svg width="401pt" height="960pt"
 viewBox="0.00 0.00 401.00 960.00" xmlns="http://www.w3.org/2000/svg" xmlns:xlink="http://www.w3.org/1999/xlink">
<g id="graph0" class="graph" transform="scale(1 1) rotate(0) translate(4 956)">
<title>XML::bpmn::tPerformer</title>
<!-- Node1 -->
<g id="node1" class="node">
<title>Node1</title>
<g id="a_node1"><a xlink:title=" ">
<polygon fill="#bfbfbf" stroke="black" points="80,-282.5 80,-339.5 210,-339.5 210,-282.5 80,-282.5"/>
<text text-anchor="middle" x="145" y="-327.5" font-family="Helvetica,sans-Serif" font-size="10.00">XML::bpmn::tPerformer</text>
<polyline fill="none" stroke="black" points="80,-320.5 210,-320.5 "/>
<text text-anchor="start" x="88" y="-308.5" font-family="Helvetica,sans-Serif" font-size="10.00">+ defaults</text>
<polyline fill="none" stroke="black" points="80,-301.5 210,-301.5 "/>
<text text-anchor="start" x="88" y="-289.5" font-family="Helvetica,sans-Serif" font-size="10.00"># tPerformer()</text>
</a>
</g>
</g>
<!-- Node5 -->
<g id="node5" class="node">
<title>Node5</title>
<g id="a_node5"><a xlink:href="classXML_1_1bpmn_1_1performer.html" target="_top" xlink:title=" ">
<polygon fill="none" stroke="black" points="0,-188.5 0,-245.5 126,-245.5 126,-188.5 0,-188.5"/>
<text text-anchor="middle" x="63" y="-233.5" font-family="Helvetica,sans-Serif" font-size="10.00">XML::bpmn::performer</text>
<polyline fill="none" stroke="black" points="0,-226.5 126,-226.5 "/>
<text text-anchor="start" x="8" y="-214.5" font-family="Helvetica,sans-Serif" font-size="10.00">+ defaults</text>
<polyline fill="none" stroke="black" points="0,-207.5 126,-207.5 "/>
<text text-anchor="start" x="8" y="-195.5" font-family="Helvetica,sans-Serif" font-size="10.00"># performer()</text>
</a>
</g>
</g>
<!-- Node1&#45;&gt;Node5 -->
<g id="edge4" class="edge">
<title>Node1&#45;&gt;Node5</title>
<path fill="none" stroke="midnightblue" d="M113.64,-274.81C105.01,-265.13 95.77,-254.77 87.59,-245.58"/>
<polygon fill="none" stroke="midnightblue" points="111.13,-277.26 120.4,-282.4 116.36,-272.6 111.13,-277.26"/>
</g>
<!-- Node6 -->
<g id="node6" class="node">
<title>Node6</title>
<g id="a_node6"><a xlink:href="classXML_1_1bpmn_1_1tHumanPerformer.html" target="_top" xlink:title=" ">
<polygon fill="none" stroke="black" points="144.5,-188.5 144.5,-245.5 309.5,-245.5 309.5,-188.5 144.5,-188.5"/>
<text text-anchor="middle" x="227" y="-233.5" font-family="Helvetica,sans-Serif" font-size="10.00">XML::bpmn::tHumanPerformer</text>
<polyline fill="none" stroke="black" points="144.5,-226.5 309.5,-226.5 "/>
<text text-anchor="start" x="152.5" y="-214.5" font-family="Helvetica,sans-Serif" font-size="10.00">+ defaults</text>
<polyline fill="none" stroke="black" points="144.5,-207.5 309.5,-207.5 "/>
<text text-anchor="start" x="152.5" y="-195.5" font-family="Helvetica,sans-Serif" font-size="10.00"># tHumanPerformer()</text>
</a>
</g>
</g>
<!-- Node1&#45;&gt;Node6 -->
<g id="edge5" class="edge">
<title>Node1&#45;&gt;Node6</title>
<path fill="none" stroke="midnightblue" d="M176.36,-274.81C184.99,-265.13 194.23,-254.77 202.41,-245.58"/>
<polygon fill="none" stroke="midnightblue" points="173.64,-272.6 169.6,-282.4 178.87,-277.26 173.64,-272.6"/>
</g>
<!-- Node2 -->
<g id="node2" class="node">
<title>Node2</title>
<g id="a_node2"><a xlink:href="classXML_1_1bpmn_1_1tResourceRole.html" target="_top" xlink:title=" ">
<polygon fill="none" stroke="black" points="54.5,-376.5 54.5,-477.5 235.5,-477.5 235.5,-376.5 54.5,-376.5"/>
<text text-anchor="middle" x="145" y="-465.5" font-family="Helvetica,sans-Serif" font-size="10.00">XML::bpmn::tResourceRole</text>
<polyline fill="none" stroke="black" points="54.5,-458.5 235.5,-458.5 "/>
<text text-anchor="start" x="62.5" y="-446.5" font-family="Helvetica,sans-Serif" font-size="10.00">+ resourceAssignmentExpression</text>
<text text-anchor="start" x="62.5" y="-435.5" font-family="Helvetica,sans-Serif" font-size="10.00">+ resourceRef</text>
<text text-anchor="start" x="62.5" y="-424.5" font-family="Helvetica,sans-Serif" font-size="10.00">+ resourceParameterBinding</text>
<text text-anchor="start" x="62.5" y="-413.5" font-family="Helvetica,sans-Serif" font-size="10.00">+ name</text>
<text text-anchor="start" x="62.5" y="-402.5" font-family="Helvetica,sans-Serif" font-size="10.00">+ defaults</text>
<polyline fill="none" stroke="black" points="54.5,-395.5 235.5,-395.5 "/>
<text text-anchor="start" x="62.5" y="-383.5" font-family="Helvetica,sans-Serif" font-size="10.00"># tResourceRole()</text>
</a>
</g>
</g>
<!-- Node2&#45;&gt;Node1 -->
<g id="edge1" class="edge">
<title>Node2&#45;&gt;Node1</title>
<path fill="none" stroke="midnightblue" d="M145,-366.23C145,-356.92 145,-347.71 145,-339.59"/>
<polygon fill="none" stroke="midnightblue" points="141.5,-366.33 145,-376.33 148.5,-366.33 141.5,-366.33"/>
</g>
<!-- Node3 -->
<g id="node3" class="node">
<title>Node3</title>
<g id="a_node3"><a xlink:href="classXML_1_1bpmn_1_1tBaseElement.html" target="_top" xlink:title=" ">
<polygon fill="none" stroke="black" points="72,-514.5 72,-604.5 218,-604.5 218,-514.5 72,-514.5"/>
<text text-anchor="middle" x="145" y="-592.5" font-family="Helvetica,sans-Serif" font-size="10.00">XML::bpmn::tBaseElement</text>
<polyline fill="none" stroke="black" points="72,-585.5 218,-585.5 "/>
<text text-anchor="start" x="80" y="-573.5" font-family="Helvetica,sans-Serif" font-size="10.00">+ documentation</text>
<text text-anchor="start" x="80" y="-562.5" font-family="Helvetica,sans-Serif" font-size="10.00">+ extensionElements</text>
<text text-anchor="start" x="80" y="-551.5" font-family="Helvetica,sans-Serif" font-size="10.00">+ id</text>
<text text-anchor="start" x="80" y="-540.5" font-family="Helvetica,sans-Serif" font-size="10.00">+ defaults</text>
<polyline fill="none" stroke="black" points="72,-533.5 218,-533.5 "/>
<text text-anchor="start" x="80" y="-521.5" font-family="Helvetica,sans-Serif" font-size="10.00"># tBaseElement()</text>
</a>
</g>
</g>
<!-- Node3&#45;&gt;Node2 -->
<g id="edge2" class="edge">
<title>Node3&#45;&gt;Node2</title>
<path fill="none" stroke="midnightblue" d="M145,-504.13C145,-495.31 145,-486.22 145,-477.52"/>
<polygon fill="none" stroke="midnightblue" points="141.5,-504.32 145,-514.32 148.5,-504.32 141.5,-504.32"/>
</g>
<!-- Node4 -->
<g id="node4" class="node">
<title>Node4</title>
<g id="a_node4"><a xlink:href="classXML_1_1XMLObject.html" target="_top" xlink:title="A class representing a node in an XML&#45;tree.">
<polygon fill="none" stroke="black" points="82,-641.5 82,-951.5 208,-951.5 208,-641.5 82,-641.5"/>
<text text-anchor="middle" x="145" y="-939.5" font-family="Helvetica,sans-Serif" font-size="10.00">XML::XMLObject</text>
<polyline fill="none" stroke="black" points="82,-932.5 208,-932.5 "/>
<text text-anchor="start" x="90" y="-920.5" font-family="Helvetica,sans-Serif" font-size="10.00">+ xmlns</text>
<text text-anchor="start" x="90" y="-909.5" font-family="Helvetica,sans-Serif" font-size="10.00">+ className</text>
<text text-anchor="start" x="90" y="-898.5" font-family="Helvetica,sans-Serif" font-size="10.00">+ prefix</text>
<text text-anchor="start" x="90" y="-887.5" font-family="Helvetica,sans-Serif" font-size="10.00">+ elementName</text>
<text text-anchor="start" x="90" y="-876.5" font-family="Helvetica,sans-Serif" font-size="10.00">+ textContent</text>
<text text-anchor="start" x="90" y="-865.5" font-family="Helvetica,sans-Serif" font-size="10.00">+ children</text>
<text text-anchor="start" x="90" y="-854.5" font-family="Helvetica,sans-Serif" font-size="10.00">+ attributes</text>
<text text-anchor="start" x="90" y="-843.5" font-family="Helvetica,sans-Serif" font-size="10.00">+ defaults</text>
<text text-anchor="start" x="90" y="-832.5" font-family="Helvetica,sans-Serif" font-size="10.00"># factory</text>
<polyline fill="none" stroke="black" points="82,-825.5 208,-825.5 "/>
<text text-anchor="start" x="90" y="-813.5" font-family="Helvetica,sans-Serif" font-size="10.00">+ ~XMLObject()</text>
<text text-anchor="start" x="90" y="-802.5" font-family="Helvetica,sans-Serif" font-size="10.00">+ is()</text>
<text text-anchor="start" x="90" y="-791.5" font-family="Helvetica,sans-Serif" font-size="10.00">+ is()</text>
<text text-anchor="start" x="90" y="-780.5" font-family="Helvetica,sans-Serif" font-size="10.00">+ get()</text>
<text text-anchor="start" x="90" y="-769.5" font-family="Helvetica,sans-Serif" font-size="10.00">+ get()</text>
<text text-anchor="start" x="90" y="-758.5" font-family="Helvetica,sans-Serif" font-size="10.00">+ find()</text>
<text text-anchor="start" x="90" y="-747.5" font-family="Helvetica,sans-Serif" font-size="10.00">+ find()</text>
<text text-anchor="start" x="90" y="-736.5" font-family="Helvetica,sans-Serif" font-size="10.00">+ stringify()</text>
<text text-anchor="start" x="90" y="-725.5" font-family="Helvetica,sans-Serif" font-size="10.00">+ getRequiredChild()</text>
<text text-anchor="start" x="90" y="-714.5" font-family="Helvetica,sans-Serif" font-size="10.00">+ getOptionalChild()</text>
<text text-anchor="start" x="90" y="-703.5" font-family="Helvetica,sans-Serif" font-size="10.00">and 6 more...</text>
<text text-anchor="start" x="90" y="-692.5" font-family="Helvetica,sans-Serif" font-size="10.00">+ createFromStream()</text>
<text text-anchor="start" x="90" y="-681.5" font-family="Helvetica,sans-Serif" font-size="10.00">+ createFromString()</text>
<text text-anchor="start" x="90" y="-670.5" font-family="Helvetica,sans-Serif" font-size="10.00">+ createFromFile()</text>
<text text-anchor="start" x="90" y="-659.5" font-family="Helvetica,sans-Serif" font-size="10.00"># XMLObject()</text>
<text text-anchor="start" x="90" y="-648.5" font-family="Helvetica,sans-Serif" font-size="10.00"># createObject()</text>
</a>
</g>
</g>
<!-- Node4&#45;&gt;Node3 -->
<g id="edge3" class="edge">
<title>Node4&#45;&gt;Node3</title>
<path fill="none" stroke="midnightblue" d="M145,-631.35C145,-621.89 145,-612.91 145,-604.72"/>
<polygon fill="none" stroke="midnightblue" points="141.5,-631.37 145,-641.37 148.5,-631.37 141.5,-631.37"/>
</g>
<!-- Node7 -->
<g id="node7" class="node">
<title>Node7</title>
<g id="a_node7"><a xlink:href="classXML_1_1bpmn_1_1humanPerformer.html" target="_top" xlink:title=" ">
<polygon fill="none" stroke="black" points="59,-94.5 59,-151.5 219,-151.5 219,-94.5 59,-94.5"/>
<text text-anchor="middle" x="139" y="-139.5" font-family="Helvetica,sans-Serif" font-size="10.00">XML::bpmn::humanPerformer</text>
<polyline fill="none" stroke="black" points="59,-132.5 219,-132.5 "/>
<text text-anchor="start" x="67" y="-120.5" font-family="Helvetica,sans-Serif" font-size="10.00">+ defaults</text>
<polyline fill="none" stroke="black" points="59,-113.5 219,-113.5 "/>
<text text-anchor="start" x="67" y="-101.5" font-family="Helvetica,sans-Serif" font-size="10.00"># humanPerformer()</text>
</a>
</g>
</g>
<!-- Node6&#45;&gt;Node7 -->
<g id="edge6" class="edge">
<title>Node6&#45;&gt;Node7</title>
<path fill="none" stroke="midnightblue" d="M193.62,-181.1C184.28,-171.34 174.26,-160.86 165.38,-151.58"/>
<polygon fill="none" stroke="midnightblue" points="191.16,-183.59 200.6,-188.4 196.21,-178.75 191.16,-183.59"/>
</g>
<!-- Node8 -->
<g id="node8" class="node">
<title>Node8</title>
<g id="a_node8"><a xlink:href="classXML_1_1bpmn_1_1tPotentialOwner.html" target="_top" xlink:title=" ">
<polygon fill="none" stroke="black" points="237,-94.5 237,-151.5 393,-151.5 393,-94.5 237,-94.5"/>
<text text-anchor="middle" x="315" y="-139.5" font-family="Helvetica,sans-Serif" font-size="10.00">XML::bpmn::tPotentialOwner</text>
<polyline fill="none" stroke="black" points="237,-132.5 393,-132.5 "/>
<text text-anchor="start" x="245" y="-120.5" font-family="Helvetica,sans-Serif" font-size="10.00">+ defaults</text>
<polyline fill="none" stroke="black" points="237,-113.5 393,-113.5 "/>
<text text-anchor="start" x="245" y="-101.5" font-family="Helvetica,sans-Serif" font-size="10.00"># tPotentialOwner()</text>
</a>
</g>
</g>
<!-- Node6&#45;&gt;Node8 -->
<g id="edge7" class="edge">
<title>Node6&#45;&gt;Node8</title>
<path fill="none" stroke="midnightblue" d="M260.38,-181.1C269.72,-171.34 279.74,-160.86 288.62,-151.58"/>
<polygon fill="none" stroke="midnightblue" points="257.79,-178.75 253.4,-188.4 262.84,-183.59 257.79,-178.75"/>
</g>
<!-- Node9 -->
<g id="node9" class="node">
<title>Node9</title>
<g id="a_node9"><a xlink:href="classXML_1_1bpmn_1_1potentialOwner.html" target="_top" xlink:title=" ">
<polygon fill="none" stroke="black" points="239,-0.5 239,-57.5 391,-57.5 391,-0.5 239,-0.5"/>
<text text-anchor="middle" x="315" y="-45.5" font-family="Helvetica,sans-Serif" font-size="10.00">XML::bpmn::potentialOwner</text>
<polyline fill="none" stroke="black" points="239,-38.5 391,-38.5 "/>
<text text-anchor="start" x="247" y="-26.5" font-family="Helvetica,sans-Serif" font-size="10.00">+ defaults</text>
<polyline fill="none" stroke="black" points="239,-19.5 391,-19.5 "/>
<text text-anchor="start" x="247" y="-7.5" font-family="Helvetica,sans-Serif" font-size="10.00"># potentialOwner()</text>
</a>
</g>
</g>
<!-- Node8&#45;&gt;Node9 -->
<g id="edge8" class="edge">
<title>Node8&#45;&gt;Node9</title>
<path fill="none" stroke="midnightblue" d="M315,-84.21C315,-75.29 315,-65.95 315,-57.58"/>
<polygon fill="none" stroke="midnightblue" points="311.5,-84.4 315,-94.4 318.5,-84.4 311.5,-84.4"/>
</g>
</g>
</svg>
