<?xml version="1.0" encoding="UTF-8" standalone="no"?>
<!DOCTYPE svg PUBLIC "-//W3C//DTD SVG 1.1//EN"
 "http://www.w3.org/Graphics/SVG/1.1/DTD/svg11.dtd">
<!-- Generated by graphviz version 2.43.0 (0)
 -->
<!-- Title: XML::bpmn::tTask Pages: 1 -->
<svg width="1205pt" height="1230pt"
 viewBox="0.00 0.00 1205.00 1230.00" xmlns="http://www.w3.org/2000/svg" xmlns:xlink="http://www.w3.org/1999/xlink">
<g id="graph0" class="graph" transform="scale(1 1) rotate(0) translate(4 1226)">
<title>XML::bpmn::tTask</title>
<!-- Node1 -->
<g id="node1" class="node">
<title>Node1</title>
<g id="a_node1"><a xlink:title=" ">
<polygon fill="#bfbfbf" stroke="black" points="591.5,-232.5 591.5,-289.5 694.5,-289.5 694.5,-232.5 591.5,-232.5"/>
<text text-anchor="middle" x="643" y="-277.5" font-family="Helvetica,sans-Serif" font-size="10.00">XML::bpmn::tTask</text>
<polyline fill="none" stroke="black" points="591.5,-270.5 694.5,-270.5 "/>
<text text-anchor="start" x="599.5" y="-258.5" font-family="Helvetica,sans-Serif" font-size="10.00">+ defaults</text>
<polyline fill="none" stroke="black" points="591.5,-251.5 694.5,-251.5 "/>
<text text-anchor="start" x="599.5" y="-239.5" font-family="Helvetica,sans-Serif" font-size="10.00"># tTask()</text>
</a>
</g>
</g>
<!-- Node7 -->
<g id="node7" class="node">
<title>Node7</title>
<g id="a_node7"><a xlink:href="classXML_1_1bpmn_1_1tBusinessRuleTask.html" target="_top" xlink:title=" ">
<polygon fill="none" stroke="black" points="0,-111 0,-179 168,-179 168,-111 0,-111"/>
<text text-anchor="middle" x="84" y="-167" font-family="Helvetica,sans-Serif" font-size="10.00">XML::bpmn::tBusinessRuleTask</text>
<polyline fill="none" stroke="black" points="0,-160 168,-160 "/>
<text text-anchor="start" x="8" y="-148" font-family="Helvetica,sans-Serif" font-size="10.00">+ implementation</text>
<text text-anchor="start" x="8" y="-137" font-family="Helvetica,sans-Serif" font-size="10.00">+ defaults</text>
<polyline fill="none" stroke="black" points="0,-130 168,-130 "/>
<text text-anchor="start" x="8" y="-118" font-family="Helvetica,sans-Serif" font-size="10.00"># tBusinessRuleTask()</text>
</a>
</g>
</g>
<!-- Node1&#45;&gt;Node7 -->
<g id="edge6" class="edge">
<title>Node1&#45;&gt;Node7</title>
<path fill="none" stroke="midnightblue" d="M581.22,-258.47C490.49,-254.68 316.81,-241.54 177,-196 163.93,-191.74 150.53,-185.69 138.13,-179.25"/>
<polygon fill="none" stroke="midnightblue" points="581.2,-261.97 591.33,-258.87 581.48,-254.98 581.2,-261.97"/>
</g>
<!-- Node9 -->
<g id="node9" class="node">
<title>Node9</title>
<g id="a_node9"><a xlink:href="classXML_1_1bpmn_1_1tManualTask.html" target="_top" xlink:title=" ">
<polygon fill="none" stroke="black" points="186.5,-116.5 186.5,-173.5 325.5,-173.5 325.5,-116.5 186.5,-116.5"/>
<text text-anchor="middle" x="256" y="-161.5" font-family="Helvetica,sans-Serif" font-size="10.00">XML::bpmn::tManualTask</text>
<polyline fill="none" stroke="black" points="186.5,-154.5 325.5,-154.5 "/>
<text text-anchor="start" x="194.5" y="-142.5" font-family="Helvetica,sans-Serif" font-size="10.00">+ defaults</text>
<polyline fill="none" stroke="black" points="186.5,-135.5 325.5,-135.5 "/>
<text text-anchor="start" x="194.5" y="-123.5" font-family="Helvetica,sans-Serif" font-size="10.00"># tManualTask()</text>
</a>
</g>
</g>
<!-- Node1&#45;&gt;Node9 -->
<g id="edge8" class="edge">
<title>Node1&#45;&gt;Node9</title>
<path fill="none" stroke="midnightblue" d="M581.23,-253.77C517.66,-245.85 416.64,-229.04 335,-196 320.71,-190.22 306.14,-181.84 293.48,-173.59"/>
<polygon fill="none" stroke="midnightblue" points="581.14,-257.28 591.49,-255.01 581.98,-250.33 581.14,-257.28"/>
</g>
<!-- Node11 -->
<g id="node11" class="node">
<title>Node11</title>
<g id="a_node11"><a xlink:href="classXML_1_1bpmn_1_1tReceiveTask.html" target="_top" xlink:title=" ">
<polygon fill="none" stroke="black" points="344,-94.5 344,-195.5 486,-195.5 486,-94.5 344,-94.5"/>
<text text-anchor="middle" x="415" y="-183.5" font-family="Helvetica,sans-Serif" font-size="10.00">XML::bpmn::tReceiveTask</text>
<polyline fill="none" stroke="black" points="344,-176.5 486,-176.5 "/>
<text text-anchor="start" x="352" y="-164.5" font-family="Helvetica,sans-Serif" font-size="10.00">+ implementation</text>
<text text-anchor="start" x="352" y="-153.5" font-family="Helvetica,sans-Serif" font-size="10.00">+ instantiate</text>
<text text-anchor="start" x="352" y="-142.5" font-family="Helvetica,sans-Serif" font-size="10.00">+ messageRef</text>
<text text-anchor="start" x="352" y="-131.5" font-family="Helvetica,sans-Serif" font-size="10.00">+ operationRef</text>
<text text-anchor="start" x="352" y="-120.5" font-family="Helvetica,sans-Serif" font-size="10.00">+ defaults</text>
<polyline fill="none" stroke="black" points="344,-113.5 486,-113.5 "/>
<text text-anchor="start" x="352" y="-101.5" font-family="Helvetica,sans-Serif" font-size="10.00"># tReceiveTask()</text>
</a>
</g>
</g>
<!-- Node1&#45;&gt;Node11 -->
<g id="edge10" class="edge">
<title>Node1&#45;&gt;Node11</title>
<path fill="none" stroke="midnightblue" d="M582.06,-236.08C554.96,-224.82 522.94,-210.66 495,-196 492.1,-194.48 489.16,-192.89 486.22,-191.25"/>
<polygon fill="none" stroke="midnightblue" points="580.85,-239.36 591.43,-239.93 583.51,-232.89 580.85,-239.36"/>
</g>
<!-- Node13 -->
<g id="node13" class="node">
<title>Node13</title>
<g id="a_node13"><a xlink:href="classXML_1_1bpmn_1_1tScriptTask.html" target="_top" xlink:title=" ">
<polygon fill="none" stroke="black" points="504.5,-105.5 504.5,-184.5 635.5,-184.5 635.5,-105.5 504.5,-105.5"/>
<text text-anchor="middle" x="570" y="-172.5" font-family="Helvetica,sans-Serif" font-size="10.00">XML::bpmn::tScriptTask</text>
<polyline fill="none" stroke="black" points="504.5,-165.5 635.5,-165.5 "/>
<text text-anchor="start" x="512.5" y="-153.5" font-family="Helvetica,sans-Serif" font-size="10.00">+ script</text>
<text text-anchor="start" x="512.5" y="-142.5" font-family="Helvetica,sans-Serif" font-size="10.00">+ scriptFormat</text>
<text text-anchor="start" x="512.5" y="-131.5" font-family="Helvetica,sans-Serif" font-size="10.00">+ defaults</text>
<polyline fill="none" stroke="black" points="504.5,-124.5 635.5,-124.5 "/>
<text text-anchor="start" x="512.5" y="-112.5" font-family="Helvetica,sans-Serif" font-size="10.00"># tScriptTask()</text>
</a>
</g>
</g>
<!-- Node1&#45;&gt;Node13 -->
<g id="edge12" class="edge">
<title>Node1&#45;&gt;Node13</title>
<path fill="none" stroke="midnightblue" d="M619.71,-223.64C611.73,-211.17 602.77,-197.18 594.68,-184.54"/>
<polygon fill="none" stroke="midnightblue" points="616.99,-225.87 625.33,-232.4 622.88,-222.09 616.99,-225.87"/>
</g>
<!-- Node15 -->
<g id="node15" class="node">
<title>Node15</title>
<g id="a_node15"><a xlink:href="classXML_1_1bpmn_1_1tSendTask.html" target="_top" xlink:title=" ">
<polygon fill="none" stroke="black" points="653.5,-100 653.5,-190 780.5,-190 780.5,-100 653.5,-100"/>
<text text-anchor="middle" x="717" y="-178" font-family="Helvetica,sans-Serif" font-size="10.00">XML::bpmn::tSendTask</text>
<polyline fill="none" stroke="black" points="653.5,-171 780.5,-171 "/>
<text text-anchor="start" x="661.5" y="-159" font-family="Helvetica,sans-Serif" font-size="10.00">+ implementation</text>
<text text-anchor="start" x="661.5" y="-148" font-family="Helvetica,sans-Serif" font-size="10.00">+ messageRef</text>
<text text-anchor="start" x="661.5" y="-137" font-family="Helvetica,sans-Serif" font-size="10.00">+ operationRef</text>
<text text-anchor="start" x="661.5" y="-126" font-family="Helvetica,sans-Serif" font-size="10.00">+ defaults</text>
<polyline fill="none" stroke="black" points="653.5,-119 780.5,-119 "/>
<text text-anchor="start" x="661.5" y="-107" font-family="Helvetica,sans-Serif" font-size="10.00"># tSendTask()</text>
</a>
</g>
</g>
<!-- Node1&#45;&gt;Node15 -->
<g id="edge14" class="edge">
<title>Node1&#45;&gt;Node15</title>
<path fill="none" stroke="midnightblue" d="M666.53,-223.76C673.44,-213.11 681.08,-201.33 688.28,-190.24"/>
<polygon fill="none" stroke="midnightblue" points="663.42,-222.11 660.91,-232.4 669.29,-225.92 663.42,-222.11"/>
</g>
<!-- Node17 -->
<g id="node17" class="node">
<title>Node17</title>
<g id="a_node17"><a xlink:href="classXML_1_1bpmn_1_1tServiceTask.html" target="_top" xlink:title=" ">
<polygon fill="none" stroke="black" points="798.5,-105.5 798.5,-184.5 937.5,-184.5 937.5,-105.5 798.5,-105.5"/>
<text text-anchor="middle" x="868" y="-172.5" font-family="Helvetica,sans-Serif" font-size="10.00">XML::bpmn::tServiceTask</text>
<polyline fill="none" stroke="black" points="798.5,-165.5 937.5,-165.5 "/>
<text text-anchor="start" x="806.5" y="-153.5" font-family="Helvetica,sans-Serif" font-size="10.00">+ implementation</text>
<text text-anchor="start" x="806.5" y="-142.5" font-family="Helvetica,sans-Serif" font-size="10.00">+ operationRef</text>
<text text-anchor="start" x="806.5" y="-131.5" font-family="Helvetica,sans-Serif" font-size="10.00">+ defaults</text>
<polyline fill="none" stroke="black" points="798.5,-124.5 937.5,-124.5 "/>
<text text-anchor="start" x="806.5" y="-112.5" font-family="Helvetica,sans-Serif" font-size="10.00"># tServiceTask()</text>
</a>
</g>
</g>
<!-- Node1&#45;&gt;Node17 -->
<g id="edge16" class="edge">
<title>Node1&#45;&gt;Node17</title>
<path fill="none" stroke="midnightblue" d="M704.12,-235.64C730.64,-224.45 761.8,-210.46 789,-196 795.59,-192.49 802.37,-188.63 809.04,-184.66"/>
<polygon fill="none" stroke="midnightblue" points="702.45,-232.55 694.57,-239.63 705.15,-239.01 702.45,-232.55"/>
</g>
<!-- Node19 -->
<g id="node19" class="node">
<title>Node19</title>
<g id="a_node19"><a xlink:href="classXML_1_1bpmn_1_1tUserTask.html" target="_top" xlink:title=" ">
<polygon fill="none" stroke="black" points="955.5,-105.5 955.5,-184.5 1080.5,-184.5 1080.5,-105.5 955.5,-105.5"/>
<text text-anchor="middle" x="1018" y="-172.5" font-family="Helvetica,sans-Serif" font-size="10.00">XML::bpmn::tUserTask</text>
<polyline fill="none" stroke="black" points="955.5,-165.5 1080.5,-165.5 "/>
<text text-anchor="start" x="963.5" y="-153.5" font-family="Helvetica,sans-Serif" font-size="10.00">+ rendering</text>
<text text-anchor="start" x="963.5" y="-142.5" font-family="Helvetica,sans-Serif" font-size="10.00">+ implementation</text>
<text text-anchor="start" x="963.5" y="-131.5" font-family="Helvetica,sans-Serif" font-size="10.00">+ defaults</text>
<polyline fill="none" stroke="black" points="955.5,-124.5 1080.5,-124.5 "/>
<text text-anchor="start" x="963.5" y="-112.5" font-family="Helvetica,sans-Serif" font-size="10.00"># tUserTask()</text>
</a>
</g>
</g>
<!-- Node1&#45;&gt;Node19 -->
<g id="edge18" class="edge">
<title>Node1&#45;&gt;Node19</title>
<path fill="none" stroke="midnightblue" d="M704.89,-254.21C767.72,-246.69 866.75,-230.22 946,-196 953.27,-192.86 960.55,-188.94 967.55,-184.67"/>
<polygon fill="none" stroke="midnightblue" points="704.28,-250.76 694.75,-255.39 705.08,-257.72 704.28,-250.76"/>
</g>
<!-- Node21 -->
<g id="node21" class="node">
<title>Node21</title>
<g id="a_node21"><a xlink:href="classXML_1_1bpmn_1_1task.html" target="_top" xlink:title=" ">
<polygon fill="none" stroke="black" points="1099,-116.5 1099,-173.5 1197,-173.5 1197,-116.5 1099,-116.5"/>
<text text-anchor="middle" x="1148" y="-161.5" font-family="Helvetica,sans-Serif" font-size="10.00">XML::bpmn::task</text>
<polyline fill="none" stroke="black" points="1099,-154.5 1197,-154.5 "/>
<text text-anchor="start" x="1107" y="-142.5" font-family="Helvetica,sans-Serif" font-size="10.00">+ defaults</text>
<polyline fill="none" stroke="black" points="1099,-135.5 1197,-135.5 "/>
<text text-anchor="start" x="1107" y="-123.5" font-family="Helvetica,sans-Serif" font-size="10.00"># task()</text>
</a>
</g>
</g>
<!-- Node1&#45;&gt;Node21 -->
<g id="edge20" class="edge">
<title>Node1&#45;&gt;Node21</title>
<path fill="none" stroke="midnightblue" d="M704.88,-255.37C810.71,-246.75 1021.6,-226.32 1089,-196 1100.88,-190.66 1112.22,-182.18 1121.74,-173.72"/>
<polygon fill="none" stroke="midnightblue" points="704.35,-251.9 694.66,-256.19 704.91,-258.88 704.35,-251.9"/>
</g>
<!-- Node2 -->
<g id="node2" class="node">
<title>Node2</title>
<g id="a_node2"><a xlink:href="classXML_1_1bpmn_1_1tActivity.html" target="_top" xlink:title=" ">
<polygon fill="none" stroke="black" points="573.5,-326.5 573.5,-493.5 712.5,-493.5 712.5,-326.5 573.5,-326.5"/>
<text text-anchor="middle" x="643" y="-481.5" font-family="Helvetica,sans-Serif" font-size="10.00">XML::bpmn::tActivity</text>
<polyline fill="none" stroke="black" points="573.5,-474.5 712.5,-474.5 "/>
<text text-anchor="start" x="581.5" y="-462.5" font-family="Helvetica,sans-Serif" font-size="10.00">+ ioSpecification</text>
<text text-anchor="start" x="581.5" y="-451.5" font-family="Helvetica,sans-Serif" font-size="10.00">+ property</text>
<text text-anchor="start" x="581.5" y="-440.5" font-family="Helvetica,sans-Serif" font-size="10.00">+ dataInputAssociation</text>
<text text-anchor="start" x="581.5" y="-429.5" font-family="Helvetica,sans-Serif" font-size="10.00">+ dataOutputAssociation</text>
<text text-anchor="start" x="581.5" y="-418.5" font-family="Helvetica,sans-Serif" font-size="10.00">+ resourceRole</text>
<text text-anchor="start" x="581.5" y="-407.5" font-family="Helvetica,sans-Serif" font-size="10.00">+ loopCharacteristics</text>
<text text-anchor="start" x="581.5" y="-396.5" font-family="Helvetica,sans-Serif" font-size="10.00">+ isForCompensation</text>
<text text-anchor="start" x="581.5" y="-385.5" font-family="Helvetica,sans-Serif" font-size="10.00">+ startQuantity</text>
<text text-anchor="start" x="581.5" y="-374.5" font-family="Helvetica,sans-Serif" font-size="10.00">+ completionQuantity</text>
<text text-anchor="start" x="581.5" y="-363.5" font-family="Helvetica,sans-Serif" font-size="10.00">+ default_</text>
<text text-anchor="start" x="581.5" y="-352.5" font-family="Helvetica,sans-Serif" font-size="10.00">+ defaults</text>
<polyline fill="none" stroke="black" points="573.5,-345.5 712.5,-345.5 "/>
<text text-anchor="start" x="581.5" y="-333.5" font-family="Helvetica,sans-Serif" font-size="10.00"># tActivity()</text>
</a>
</g>
</g>
<!-- Node2&#45;&gt;Node1 -->
<g id="edge1" class="edge">
<title>Node2&#45;&gt;Node1</title>
<path fill="none" stroke="midnightblue" d="M643,-316.36C643,-306.79 643,-297.68 643,-289.75"/>
<polygon fill="none" stroke="midnightblue" points="639.5,-316.48 643,-326.48 646.5,-316.48 639.5,-316.48"/>
</g>
<!-- Node3 -->
<g id="node3" class="node">
<title>Node3</title>
<g id="a_node3"><a xlink:href="classXML_1_1bpmn_1_1tFlowNode.html" target="_top" xlink:title=" ">
<polygon fill="none" stroke="black" points="578,-530.5 578,-609.5 708,-609.5 708,-530.5 578,-530.5"/>
<text text-anchor="middle" x="643" y="-597.5" font-family="Helvetica,sans-Serif" font-size="10.00">XML::bpmn::tFlowNode</text>
<polyline fill="none" stroke="black" points="578,-590.5 708,-590.5 "/>
<text text-anchor="start" x="586" y="-578.5" font-family="Helvetica,sans-Serif" font-size="10.00">+ incoming</text>
<text text-anchor="start" x="586" y="-567.5" font-family="Helvetica,sans-Serif" font-size="10.00">+ outgoing</text>
<text text-anchor="start" x="586" y="-556.5" font-family="Helvetica,sans-Serif" font-size="10.00">+ defaults</text>
<polyline fill="none" stroke="black" points="578,-549.5 708,-549.5 "/>
<text text-anchor="start" x="586" y="-537.5" font-family="Helvetica,sans-Serif" font-size="10.00"># tFlowNode()</text>
</a>
</g>
</g>
<!-- Node3&#45;&gt;Node2 -->
<g id="edge2" class="edge">
<title>Node3&#45;&gt;Node2</title>
<path fill="none" stroke="midnightblue" d="M643,-520.26C643,-511.74 643,-502.67 643,-493.53"/>
<polygon fill="none" stroke="midnightblue" points="639.5,-520.35 643,-530.35 646.5,-520.35 639.5,-520.35"/>
</g>
<!-- Node4 -->
<g id="node4" class="node">
<title>Node4</title>
<g id="a_node4"><a xlink:href="classXML_1_1bpmn_1_1tFlowElement.html" target="_top" xlink:title=" ">
<polygon fill="none" stroke="black" points="570.5,-646.5 570.5,-747.5 715.5,-747.5 715.5,-646.5 570.5,-646.5"/>
<text text-anchor="middle" x="643" y="-735.5" font-family="Helvetica,sans-Serif" font-size="10.00">XML::bpmn::tFlowElement</text>
<polyline fill="none" stroke="black" points="570.5,-728.5 715.5,-728.5 "/>
<text text-anchor="start" x="578.5" y="-716.5" font-family="Helvetica,sans-Serif" font-size="10.00">+ auditing</text>
<text text-anchor="start" x="578.5" y="-705.5" font-family="Helvetica,sans-Serif" font-size="10.00">+ monitoring</text>
<text text-anchor="start" x="578.5" y="-694.5" font-family="Helvetica,sans-Serif" font-size="10.00">+ categoryValueRef</text>
<text text-anchor="start" x="578.5" y="-683.5" font-family="Helvetica,sans-Serif" font-size="10.00">+ name</text>
<text text-anchor="start" x="578.5" y="-672.5" font-family="Helvetica,sans-Serif" font-size="10.00">+ defaults</text>
<polyline fill="none" stroke="black" points="570.5,-665.5 715.5,-665.5 "/>
<text text-anchor="start" x="578.5" y="-653.5" font-family="Helvetica,sans-Serif" font-size="10.00"># tFlowElement()</text>
</a>
</g>
</g>
<!-- Node4&#45;&gt;Node3 -->
<g id="edge3" class="edge">
<title>Node4&#45;&gt;Node3</title>
<path fill="none" stroke="midnightblue" d="M643,-636.19C643,-627.22 643,-618.18 643,-609.81"/>
<polygon fill="none" stroke="midnightblue" points="639.5,-636.24 643,-646.24 646.5,-636.24 639.5,-636.24"/>
</g>
<!-- Node5 -->
<g id="node5" class="node">
<title>Node5</title>
<g id="a_node5"><a xlink:href="classXML_1_1bpmn_1_1tBaseElement.html" target="_top" xlink:title=" ">
<polygon fill="none" stroke="black" points="570,-784.5 570,-874.5 716,-874.5 716,-784.5 570,-784.5"/>
<text text-anchor="middle" x="643" y="-862.5" font-family="Helvetica,sans-Serif" font-size="10.00">XML::bpmn::tBaseElement</text>
<polyline fill="none" stroke="black" points="570,-855.5 716,-855.5 "/>
<text text-anchor="start" x="578" y="-843.5" font-family="Helvetica,sans-Serif" font-size="10.00">+ documentation</text>
<text text-anchor="start" x="578" y="-832.5" font-family="Helvetica,sans-Serif" font-size="10.00">+ extensionElements</text>
<text text-anchor="start" x="578" y="-821.5" font-family="Helvetica,sans-Serif" font-size="10.00">+ id</text>
<text text-anchor="start" x="578" y="-810.5" font-family="Helvetica,sans-Serif" font-size="10.00">+ defaults</text>
<polyline fill="none" stroke="black" points="570,-803.5 716,-803.5 "/>
<text text-anchor="start" x="578" y="-791.5" font-family="Helvetica,sans-Serif" font-size="10.00"># tBaseElement()</text>
</a>
</g>
</g>
<!-- Node5&#45;&gt;Node4 -->
<g id="edge4" class="edge">
<title>Node5&#45;&gt;Node4</title>
<path fill="none" stroke="midnightblue" d="M643,-774.13C643,-765.31 643,-756.22 643,-747.52"/>
<polygon fill="none" stroke="midnightblue" points="639.5,-774.32 643,-784.32 646.5,-774.32 639.5,-774.32"/>
</g>
<!-- Node6 -->
<g id="node6" class="node">
<title>Node6</title>
<g id="a_node6"><a xlink:href="classXML_1_1XMLObject.html" target="_top" xlink:title="A class representing a node in an XML&#45;tree.">
<polygon fill="none" stroke="black" points="580,-911.5 580,-1221.5 706,-1221.5 706,-911.5 580,-911.5"/>
<text text-anchor="middle" x="643" y="-1209.5" font-family="Helvetica,sans-Serif" font-size="10.00">XML::XMLObject</text>
<polyline fill="none" stroke="black" points="580,-1202.5 706,-1202.5 "/>
<text text-anchor="start" x="588" y="-1190.5" font-family="Helvetica,sans-Serif" font-size="10.00">+ xmlns</text>
<text text-anchor="start" x="588" y="-1179.5" font-family="Helvetica,sans-Serif" font-size="10.00">+ className</text>
<text text-anchor="start" x="588" y="-1168.5" font-family="Helvetica,sans-Serif" font-size="10.00">+ prefix</text>
<text text-anchor="start" x="588" y="-1157.5" font-family="Helvetica,sans-Serif" font-size="10.00">+ elementName</text>
<text text-anchor="start" x="588" y="-1146.5" font-family="Helvetica,sans-Serif" font-size="10.00">+ textContent</text>
<text text-anchor="start" x="588" y="-1135.5" font-family="Helvetica,sans-Serif" font-size="10.00">+ children</text>
<text text-anchor="start" x="588" y="-1124.5" font-family="Helvetica,sans-Serif" font-size="10.00">+ attributes</text>
<text text-anchor="start" x="588" y="-1113.5" font-family="Helvetica,sans-Serif" font-size="10.00">+ defaults</text>
<text text-anchor="start" x="588" y="-1102.5" font-family="Helvetica,sans-Serif" font-size="10.00"># factory</text>
<polyline fill="none" stroke="black" points="580,-1095.5 706,-1095.5 "/>
<text text-anchor="start" x="588" y="-1083.5" font-family="Helvetica,sans-Serif" font-size="10.00">+ ~XMLObject()</text>
<text text-anchor="start" x="588" y="-1072.5" font-family="Helvetica,sans-Serif" font-size="10.00">+ is()</text>
<text text-anchor="start" x="588" y="-1061.5" font-family="Helvetica,sans-Serif" font-size="10.00">+ is()</text>
<text text-anchor="start" x="588" y="-1050.5" font-family="Helvetica,sans-Serif" font-size="10.00">+ get()</text>
<text text-anchor="start" x="588" y="-1039.5" font-family="Helvetica,sans-Serif" font-size="10.00">+ get()</text>
<text text-anchor="start" x="588" y="-1028.5" font-family="Helvetica,sans-Serif" font-size="10.00">+ find()</text>
<text text-anchor="start" x="588" y="-1017.5" font-family="Helvetica,sans-Serif" font-size="10.00">+ find()</text>
<text text-anchor="start" x="588" y="-1006.5" font-family="Helvetica,sans-Serif" font-size="10.00">+ stringify()</text>
<text text-anchor="start" x="588" y="-995.5" font-family="Helvetica,sans-Serif" font-size="10.00">+ getRequiredChild()</text>
<text text-anchor="start" x="588" y="-984.5" font-family="Helvetica,sans-Serif" font-size="10.00">+ getOptionalChild()</text>
<text text-anchor="start" x="588" y="-973.5" font-family="Helvetica,sans-Serif" font-size="10.00">and 6 more...</text>
<text text-anchor="start" x="588" y="-962.5" font-family="Helvetica,sans-Serif" font-size="10.00">+ createFromStream()</text>
<text text-anchor="start" x="588" y="-951.5" font-family="Helvetica,sans-Serif" font-size="10.00">+ createFromString()</text>
<text text-anchor="start" x="588" y="-940.5" font-family="Helvetica,sans-Serif" font-size="10.00">+ createFromFile()</text>
<text text-anchor="start" x="588" y="-929.5" font-family="Helvetica,sans-Serif" font-size="10.00"># XMLObject()</text>
<text text-anchor="start" x="588" y="-918.5" font-family="Helvetica,sans-Serif" font-size="10.00"># createObject()</text>
</a>
</g>
</g>
<!-- Node6&#45;&gt;Node5 -->
<g id="edge5" class="edge">
<title>Node6&#45;&gt;Node5</title>
<path fill="none" stroke="midnightblue" d="M643,-901.35C643,-891.89 643,-882.91 643,-874.72"/>
<polygon fill="none" stroke="midnightblue" points="639.5,-901.37 643,-911.37 646.5,-901.37 639.5,-901.37"/>
</g>
<!-- Node8 -->
<g id="node8" class="node">
<title>Node8</title>
<g id="a_node8"><a xlink:href="classXML_1_1bpmn_1_1businessRuleTask.html" target="_top" xlink:title=" ">
<polygon fill="none" stroke="black" points="2,-0.5 2,-57.5 166,-57.5 166,-0.5 2,-0.5"/>
<text text-anchor="middle" x="84" y="-45.5" font-family="Helvetica,sans-Serif" font-size="10.00">XML::bpmn::businessRuleTask</text>
<polyline fill="none" stroke="black" points="2,-38.5 166,-38.5 "/>
<text text-anchor="start" x="10" y="-26.5" font-family="Helvetica,sans-Serif" font-size="10.00">+ defaults</text>
<polyline fill="none" stroke="black" points="2,-19.5 166,-19.5 "/>
<text text-anchor="start" x="10" y="-7.5" font-family="Helvetica,sans-Serif" font-size="10.00"># businessRuleTask()</text>
</a>
</g>
</g>
<!-- Node7&#45;&gt;Node8 -->
<g id="edge7" class="edge">
<title>Node7&#45;&gt;Node8</title>
<path fill="none" stroke="midnightblue" d="M84,-100.53C84,-86.17 84,-70.6 84,-57.74"/>
<polygon fill="none" stroke="midnightblue" points="80.5,-100.72 84,-110.72 87.5,-100.72 80.5,-100.72"/>
</g>
<!-- Node10 -->
<g id="node10" class="node">
<title>Node10</title>
<g id="a_node10"><a xlink:href="classXML_1_1bpmn_1_1manualTask.html" target="_top" xlink:title=" ">
<polygon fill="none" stroke="black" points="188,-0.5 188,-57.5 324,-57.5 324,-0.5 188,-0.5"/>
<text text-anchor="middle" x="256" y="-45.5" font-family="Helvetica,sans-Serif" font-size="10.00">XML::bpmn::manualTask</text>
<polyline fill="none" stroke="black" points="188,-38.5 324,-38.5 "/>
<text text-anchor="start" x="196" y="-26.5" font-family="Helvetica,sans-Serif" font-size="10.00">+ defaults</text>
<polyline fill="none" stroke="black" points="188,-19.5 324,-19.5 "/>
<text text-anchor="start" x="196" y="-7.5" font-family="Helvetica,sans-Serif" font-size="10.00"># manualTask()</text>
</a>
</g>
</g>
<!-- Node9&#45;&gt;Node10 -->
<g id="edge9" class="edge">
<title>Node9&#45;&gt;Node10</title>
<path fill="none" stroke="midnightblue" d="M256,-106.36C256,-90.5 256,-72.35 256,-57.74"/>
<polygon fill="none" stroke="midnightblue" points="252.5,-106.4 256,-116.4 259.5,-106.4 252.5,-106.4"/>
</g>
<!-- Node12 -->
<g id="node12" class="node">
<title>Node12</title>
<g id="a_node12"><a xlink:href="classXML_1_1bpmn_1_1receiveTask.html" target="_top" xlink:title=" ">
<polygon fill="none" stroke="black" points="347.5,-0.5 347.5,-57.5 482.5,-57.5 482.5,-0.5 347.5,-0.5"/>
<text text-anchor="middle" x="415" y="-45.5" font-family="Helvetica,sans-Serif" font-size="10.00">XML::bpmn::receiveTask</text>
<polyline fill="none" stroke="black" points="347.5,-38.5 482.5,-38.5 "/>
<text text-anchor="start" x="355.5" y="-26.5" font-family="Helvetica,sans-Serif" font-size="10.00">+ defaults</text>
<polyline fill="none" stroke="black" points="347.5,-19.5 482.5,-19.5 "/>
<text text-anchor="start" x="355.5" y="-7.5" font-family="Helvetica,sans-Serif" font-size="10.00"># receiveTask()</text>
</a>
</g>
</g>
<!-- Node11&#45;&gt;Node12 -->
<g id="edge11" class="edge">
<title>Node11&#45;&gt;Node12</title>
<path fill="none" stroke="midnightblue" d="M415,-84.23C415,-74.92 415,-65.71 415,-57.59"/>
<polygon fill="none" stroke="midnightblue" points="411.5,-84.33 415,-94.33 418.5,-84.33 411.5,-84.33"/>
</g>
<!-- Node14 -->
<g id="node14" class="node">
<title>Node14</title>
<g id="a_node14"><a xlink:href="classXML_1_1bpmn_1_1scriptTask.html" target="_top" xlink:title=" ">
<polygon fill="none" stroke="black" points="507,-0.5 507,-57.5 633,-57.5 633,-0.5 507,-0.5"/>
<text text-anchor="middle" x="570" y="-45.5" font-family="Helvetica,sans-Serif" font-size="10.00">XML::bpmn::scriptTask</text>
<polyline fill="none" stroke="black" points="507,-38.5 633,-38.5 "/>
<text text-anchor="start" x="515" y="-26.5" font-family="Helvetica,sans-Serif" font-size="10.00">+ defaults</text>
<polyline fill="none" stroke="black" points="507,-19.5 633,-19.5 "/>
<text text-anchor="start" x="515" y="-7.5" font-family="Helvetica,sans-Serif" font-size="10.00"># scriptTask()</text>
</a>
</g>
</g>
<!-- Node13&#45;&gt;Node14 -->
<g id="edge13" class="edge">
<title>Node13&#45;&gt;Node14</title>
<path fill="none" stroke="midnightblue" d="M570,-95.29C570,-82.46 570,-69.05 570,-57.75"/>
<polygon fill="none" stroke="midnightblue" points="566.5,-95.4 570,-105.4 573.5,-95.4 566.5,-95.4"/>
</g>
<!-- Node16 -->
<g id="node16" class="node">
<title>Node16</title>
<g id="a_node16"><a xlink:href="classXML_1_1bpmn_1_1sendTask.html" target="_top" xlink:title=" ">
<polygon fill="none" stroke="black" points="656,-0.5 656,-57.5 778,-57.5 778,-0.5 656,-0.5"/>
<text text-anchor="middle" x="717" y="-45.5" font-family="Helvetica,sans-Serif" font-size="10.00">XML::bpmn::sendTask</text>
<polyline fill="none" stroke="black" points="656,-38.5 778,-38.5 "/>
<text text-anchor="start" x="664" y="-26.5" font-family="Helvetica,sans-Serif" font-size="10.00">+ defaults</text>
<polyline fill="none" stroke="black" points="656,-19.5 778,-19.5 "/>
<text text-anchor="start" x="664" y="-7.5" font-family="Helvetica,sans-Serif" font-size="10.00"># sendTask()</text>
</a>
</g>
</g>
<!-- Node15&#45;&gt;Node16 -->
<g id="edge15" class="edge">
<title>Node15&#45;&gt;Node16</title>
<path fill="none" stroke="midnightblue" d="M717,-89.83C717,-78.74 717,-67.51 717,-57.82"/>
<polygon fill="none" stroke="midnightblue" points="713.5,-89.92 717,-99.92 720.5,-89.92 713.5,-89.92"/>
</g>
<!-- Node18 -->
<g id="node18" class="node">
<title>Node18</title>
<g id="a_node18"><a xlink:href="classXML_1_1bpmn_1_1serviceTask.html" target="_top" xlink:title=" ">
<polygon fill="none" stroke="black" points="801,-0.5 801,-57.5 935,-57.5 935,-0.5 801,-0.5"/>
<text text-anchor="middle" x="868" y="-45.5" font-family="Helvetica,sans-Serif" font-size="10.00">XML::bpmn::serviceTask</text>
<polyline fill="none" stroke="black" points="801,-38.5 935,-38.5 "/>
<text text-anchor="start" x="809" y="-26.5" font-family="Helvetica,sans-Serif" font-size="10.00">+ defaults</text>
<polyline fill="none" stroke="black" points="801,-19.5 935,-19.5 "/>
<text text-anchor="start" x="809" y="-7.5" font-family="Helvetica,sans-Serif" font-size="10.00"># serviceTask()</text>
</a>
</g>
</g>
<!-- Node17&#45;&gt;Node18 -->
<g id="edge17" class="edge">
<title>Node17&#45;&gt;Node18</title>
<path fill="none" stroke="midnightblue" d="M868,-95.29C868,-82.46 868,-69.05 868,-57.75"/>
<polygon fill="none" stroke="midnightblue" points="864.5,-95.4 868,-105.4 871.5,-95.4 864.5,-95.4"/>
</g>
<!-- Node20 -->
<g id="node20" class="node">
<title>Node20</title>
<g id="a_node20"><a xlink:href="classXML_1_1bpmn_1_1userTask.html" target="_top" xlink:title=" ">
<polygon fill="none" stroke="black" points="958,-0.5 958,-57.5 1078,-57.5 1078,-0.5 958,-0.5"/>
<text text-anchor="middle" x="1018" y="-45.5" font-family="Helvetica,sans-Serif" font-size="10.00">XML::bpmn::userTask</text>
<polyline fill="none" stroke="black" points="958,-38.5 1078,-38.5 "/>
<text text-anchor="start" x="966" y="-26.5" font-family="Helvetica,sans-Serif" font-size="10.00">+ defaults</text>
<polyline fill="none" stroke="black" points="958,-19.5 1078,-19.5 "/>
<text text-anchor="start" x="966" y="-7.5" font-family="Helvetica,sans-Serif" font-size="10.00"># userTask()</text>
</a>
</g>
</g>
<!-- Node19&#45;&gt;Node20 -->
<g id="edge19" class="edge">
<title>Node19&#45;&gt;Node20</title>
<path fill="none" stroke="midnightblue" d="M1018,-95.29C1018,-82.46 1018,-69.05 1018,-57.75"/>
<polygon fill="none" stroke="midnightblue" points="1014.5,-95.4 1018,-105.4 1021.5,-95.4 1014.5,-95.4"/>
</g>
</g>
</svg>
