<?xml version="1.0" encoding="UTF-8" standalone="no"?>
<!DOCTYPE svg PUBLIC "-//W3C//DTD SVG 1.1//EN"
 "http://www.w3.org/Graphics/SVG/1.1/DTD/svg11.dtd">
<!-- Generated by graphviz version 2.43.0 (0)
 -->
<!-- Title: XML::bpmn::complexGateway Pages: 1 -->
<svg width="170pt" height="1092pt"
 viewBox="0.00 0.00 170.00 1092.00" xmlns="http://www.w3.org/2000/svg" xmlns:xlink="http://www.w3.org/1999/xlink">
<g id="graph0" class="graph" transform="scale(1 1) rotate(0) translate(4 1088)">
<title>XML::bpmn::complexGateway</title>
<!-- Node1 -->
<g id="Node000001" class="node">
<title>Node1</title>
<g id="a_Node000001"><a xlink:title=" ">
<polygon fill="#999999" stroke="transparent" points="159.5,-49 2.5,-49 2.5,0 159.5,0 159.5,-49"/>
<text text-anchor="start" x="8" y="-36.5" font-family="Helvetica,sans-Serif" font-size="10.00">XML::bpmn::complexGateway</text>
<text text-anchor="start" x="17.5" y="-21.5" font-family="Helvetica,sans-Serif" font-size="10.00">+</text>
<text text-anchor="start" x="41" y="-21.5" font-family="Helvetica,sans-Serif" font-size="10.00">defaults</text>
<text text-anchor="start" x="17.5" y="-6.5" font-family="Helvetica,sans-Serif" font-size="10.00">#</text>
<text text-anchor="start" x="41" y="-6.5" font-family="Helvetica,sans-Serif" font-size="10.00">complexGateway()</text>
<polygon fill="#666666" stroke="#666666" points="3,-31.5 3,-31.5 160,-31.5 160,-31.5 3,-31.5"/>
<polygon fill="#666666" stroke="#666666" points="3,-16.5 3,-16.5 39,-16.5 39,-16.5 3,-16.5"/>
<polygon fill="#666666" stroke="#666666" points="39,-16.5 39,-16.5 160,-16.5 160,-16.5 39,-16.5"/>
<polygon fill="none" stroke="#666666" points="2.5,0 2.5,-49 159.5,-49 159.5,0 2.5,0"/>
</a>
</g>
</g>
<!-- Node2 -->
<g id="Node000002" class="node">
<title>Node2</title>
<g id="a_Node000002"><a xlink:href="classXML_1_1bpmn_1_1tComplexGateway.html" target="_top" xlink:title=" ">
<polygon fill="white" stroke="transparent" points="162,-164 0,-164 0,-85 162,-85 162,-164"/>
<text text-anchor="start" x="5" y="-151.5" font-family="Helvetica,sans-Serif" font-size="10.00">XML::bpmn::tComplexGateway</text>
<text text-anchor="start" x="14.5" y="-136.5" font-family="Helvetica,sans-Serif" font-size="10.00">+</text>
<text text-anchor="start" x="38" y="-136.5" font-family="Helvetica,sans-Serif" font-size="10.00">activationCondition</text>
<text text-anchor="start" x="14.5" y="-121.5" font-family="Helvetica,sans-Serif" font-size="10.00">+</text>
<text text-anchor="start" x="38" y="-121.5" font-family="Helvetica,sans-Serif" font-size="10.00">default_</text>
<text text-anchor="start" x="14.5" y="-106.5" font-family="Helvetica,sans-Serif" font-size="10.00">+</text>
<text text-anchor="start" x="38" y="-106.5" font-family="Helvetica,sans-Serif" font-size="10.00">defaults</text>
<text text-anchor="start" x="14.5" y="-91.5" font-family="Helvetica,sans-Serif" font-size="10.00">#</text>
<text text-anchor="start" x="38" y="-91.5" font-family="Helvetica,sans-Serif" font-size="10.00">tComplexGateway()</text>
<polygon fill="#666666" stroke="#666666" points="0,-146.5 0,-146.5 162,-146.5 162,-146.5 0,-146.5"/>
<polygon fill="#666666" stroke="#666666" points="0,-101.5 0,-101.5 36,-101.5 36,-101.5 0,-101.5"/>
<polygon fill="#666666" stroke="#666666" points="36,-101.5 36,-101.5 162,-101.5 162,-101.5 36,-101.5"/>
<polygon fill="none" stroke="#666666" points="0,-85 0,-164 162,-164 162,-85 0,-85"/>
</a>
</g>
</g>
<!-- Node2&#45;&gt;Node1 -->
<g id="edge1_Node000001_Node000002" class="edge">
<title>Node2&#45;&gt;Node1</title>
<g id="a_edge1_Node000001_Node000002"><a xlink:title=" ">
<path fill="none" stroke="#63b8ff" d="M81,-74.72C81,-65.75 81,-56.78 81,-49"/>
<polygon fill="none" stroke="#63b8ff" points="77.5,-74.77 81,-84.77 84.5,-74.77 77.5,-74.77"/>
</a>
</g>
</g>
<!-- Node3 -->
<g id="Node000003" class="node">
<title>Node3</title>
<g id="a_Node000003"><a xlink:href="classXML_1_1bpmn_1_1tGateway.html" target="_top" xlink:title=" ">
<polygon fill="white" stroke="transparent" points="140.5,-264 21.5,-264 21.5,-200 140.5,-200 140.5,-264"/>
<text text-anchor="start" x="27" y="-252" font-family="Helvetica,sans-Serif" font-size="10.00">XML::bpmn::tGateway</text>
<text text-anchor="start" x="28.5" y="-237" font-family="Helvetica,sans-Serif" font-size="10.00">+</text>
<text text-anchor="start" x="44" y="-237" font-family="Helvetica,sans-Serif" font-size="10.00">gatewayDirection</text>
<text text-anchor="start" x="28.5" y="-222" font-family="Helvetica,sans-Serif" font-size="10.00">+</text>
<text text-anchor="start" x="44" y="-222" font-family="Helvetica,sans-Serif" font-size="10.00">defaults</text>
<text text-anchor="start" x="28.5" y="-207" font-family="Helvetica,sans-Serif" font-size="10.00">#</text>
<text text-anchor="start" x="44" y="-207" font-family="Helvetica,sans-Serif" font-size="10.00">tGateway()</text>
<polygon fill="#666666" stroke="#666666" points="22,-247 22,-247 141,-247 141,-247 22,-247"/>
<polygon fill="#666666" stroke="#666666" points="22,-217 22,-217 42,-217 42,-217 22,-217"/>
<polygon fill="#666666" stroke="#666666" points="42,-217 42,-217 141,-217 141,-217 42,-217"/>
<polygon fill="none" stroke="#666666" points="21.5,-200 21.5,-264 140.5,-264 140.5,-200 21.5,-200"/>
</a>
</g>
</g>
<!-- Node3&#45;&gt;Node2 -->
<g id="edge2_Node000002_Node000003" class="edge">
<title>Node3&#45;&gt;Node2</title>
<g id="a_edge2_Node000002_Node000003"><a xlink:title=" ">
<path fill="none" stroke="#63b8ff" d="M81,-189.89C81,-181.44 81,-172.58 81,-164.22"/>
<polygon fill="none" stroke="#63b8ff" points="77.5,-189.92 81,-199.92 84.5,-189.92 77.5,-189.92"/>
</a>
</g>
</g>
<!-- Node4 -->
<g id="Node000004" class="node">
<title>Node4</title>
<g id="a_Node000004"><a xlink:href="classXML_1_1bpmn_1_1tFlowNode.html" target="_top" xlink:title=" ">
<polygon fill="white" stroke="transparent" points="143,-379 19,-379 19,-300 143,-300 143,-379"/>
<text text-anchor="start" x="24" y="-366.5" font-family="Helvetica,sans-Serif" font-size="10.00">XML::bpmn::tFlowNode</text>
<text text-anchor="start" x="33.5" y="-351.5" font-family="Helvetica,sans-Serif" font-size="10.00">+</text>
<text text-anchor="start" x="57" y="-351.5" font-family="Helvetica,sans-Serif" font-size="10.00">incoming</text>
<text text-anchor="start" x="33.5" y="-336.5" font-family="Helvetica,sans-Serif" font-size="10.00">+</text>
<text text-anchor="start" x="57" y="-336.5" font-family="Helvetica,sans-Serif" font-size="10.00">outgoing</text>
<text text-anchor="start" x="33.5" y="-321.5" font-family="Helvetica,sans-Serif" font-size="10.00">+</text>
<text text-anchor="start" x="57" y="-321.5" font-family="Helvetica,sans-Serif" font-size="10.00">defaults</text>
<text text-anchor="start" x="33.5" y="-306.5" font-family="Helvetica,sans-Serif" font-size="10.00">#</text>
<text text-anchor="start" x="57" y="-306.5" font-family="Helvetica,sans-Serif" font-size="10.00">tFlowNode()</text>
<polygon fill="#666666" stroke="#666666" points="19,-361.5 19,-361.5 143,-361.5 143,-361.5 19,-361.5"/>
<polygon fill="#666666" stroke="#666666" points="19,-316.5 19,-316.5 55,-316.5 55,-316.5 19,-316.5"/>
<polygon fill="#666666" stroke="#666666" points="55,-316.5 55,-316.5 143,-316.5 143,-316.5 55,-316.5"/>
<polygon fill="none" stroke="#666666" points="19,-300 19,-379 143,-379 143,-300 19,-300"/>
</a>
</g>
</g>
<!-- Node4&#45;&gt;Node3 -->
<g id="edge3_Node000003_Node000004" class="edge">
<title>Node4&#45;&gt;Node3</title>
<g id="a_edge3_Node000003_Node000004"><a xlink:title=" ">
<path fill="none" stroke="#63b8ff" d="M81,-289.71C81,-281 81,-272.14 81,-264.09"/>
<polygon fill="none" stroke="#63b8ff" points="77.5,-289.81 81,-299.81 84.5,-289.81 77.5,-289.81"/>
</a>
</g>
</g>
<!-- Node5 -->
<g id="Node000005" class="node">
<title>Node5</title>
<g id="a_Node000005"><a xlink:href="classXML_1_1bpmn_1_1tFlowElement.html" target="_top" xlink:title=" ">
<polygon fill="white" stroke="transparent" points="150.5,-524 11.5,-524 11.5,-415 150.5,-415 150.5,-524"/>
<text text-anchor="start" x="17" y="-511.5" font-family="Helvetica,sans-Serif" font-size="10.00">XML::bpmn::tFlowElement</text>
<text text-anchor="start" x="23.5" y="-496.5" font-family="Helvetica,sans-Serif" font-size="10.00">+</text>
<text text-anchor="start" x="44" y="-496.5" font-family="Helvetica,sans-Serif" font-size="10.00">auditing</text>
<text text-anchor="start" x="23.5" y="-481.5" font-family="Helvetica,sans-Serif" font-size="10.00">+</text>
<text text-anchor="start" x="44" y="-481.5" font-family="Helvetica,sans-Serif" font-size="10.00">monitoring</text>
<text text-anchor="start" x="23.5" y="-466.5" font-family="Helvetica,sans-Serif" font-size="10.00">+</text>
<text text-anchor="start" x="44" y="-466.5" font-family="Helvetica,sans-Serif" font-size="10.00">categoryValueRef</text>
<text text-anchor="start" x="23.5" y="-451.5" font-family="Helvetica,sans-Serif" font-size="10.00">+</text>
<text text-anchor="start" x="44" y="-451.5" font-family="Helvetica,sans-Serif" font-size="10.00">name</text>
<text text-anchor="start" x="23.5" y="-436.5" font-family="Helvetica,sans-Serif" font-size="10.00">+</text>
<text text-anchor="start" x="44" y="-436.5" font-family="Helvetica,sans-Serif" font-size="10.00">defaults</text>
<text text-anchor="start" x="23.5" y="-421.5" font-family="Helvetica,sans-Serif" font-size="10.00">#</text>
<text text-anchor="start" x="44" y="-421.5" font-family="Helvetica,sans-Serif" font-size="10.00">tFlowElement()</text>
<polygon fill="#666666" stroke="#666666" points="12,-506.5 12,-506.5 151,-506.5 151,-506.5 12,-506.5"/>
<polygon fill="#666666" stroke="#666666" points="12,-431.5 12,-431.5 42,-431.5 42,-431.5 12,-431.5"/>
<polygon fill="#666666" stroke="#666666" points="42,-431.5 42,-431.5 151,-431.5 151,-431.5 42,-431.5"/>
<polygon fill="none" stroke="#666666" points="11.5,-415 11.5,-524 150.5,-524 150.5,-415 11.5,-415"/>
</a>
</g>
</g>
<!-- Node5&#45;&gt;Node4 -->
<g id="edge4_Node000004_Node000005" class="edge">
<title>Node5&#45;&gt;Node4</title>
<g id="a_edge4_Node000004_Node000005"><a xlink:title=" ">
<path fill="none" stroke="#63b8ff" d="M81,-404.7C81,-395.93 81,-387.16 81,-379.03"/>
<polygon fill="none" stroke="#63b8ff" points="77.5,-404.96 81,-414.96 84.5,-404.96 77.5,-404.96"/>
</a>
</g>
</g>
<!-- Node6 -->
<g id="Node000006" class="node">
<title>Node6</title>
<g id="a_Node000006"><a xlink:href="classXML_1_1bpmn_1_1tBaseElement.html" target="_top" xlink:title=" ">
<polygon fill="white" stroke="transparent" points="151,-654 11,-654 11,-560 151,-560 151,-654"/>
<text text-anchor="start" x="16" y="-642" font-family="Helvetica,sans-Serif" font-size="10.00">XML::bpmn::tBaseElement</text>
<text text-anchor="start" x="21" y="-627" font-family="Helvetica,sans-Serif" font-size="10.00">+</text>
<text text-anchor="start" x="40" y="-627" font-family="Helvetica,sans-Serif" font-size="10.00">documentation</text>
<text text-anchor="start" x="21" y="-612" font-family="Helvetica,sans-Serif" font-size="10.00">+</text>
<text text-anchor="start" x="40" y="-612" font-family="Helvetica,sans-Serif" font-size="10.00">extensionElements</text>
<text text-anchor="start" x="21" y="-597" font-family="Helvetica,sans-Serif" font-size="10.00">+</text>
<text text-anchor="start" x="40" y="-597" font-family="Helvetica,sans-Serif" font-size="10.00">id</text>
<text text-anchor="start" x="21" y="-582" font-family="Helvetica,sans-Serif" font-size="10.00">+</text>
<text text-anchor="start" x="40" y="-582" font-family="Helvetica,sans-Serif" font-size="10.00">defaults</text>
<text text-anchor="start" x="21" y="-567" font-family="Helvetica,sans-Serif" font-size="10.00">#</text>
<text text-anchor="start" x="40" y="-567" font-family="Helvetica,sans-Serif" font-size="10.00">tBaseElement()</text>
<polygon fill="#666666" stroke="#666666" points="11,-637 11,-637 151,-637 151,-637 11,-637"/>
<polygon fill="#666666" stroke="#666666" points="11,-577 11,-577 38,-577 38,-577 11,-577"/>
<polygon fill="#666666" stroke="#666666" points="38,-577 38,-577 151,-577 151,-577 38,-577"/>
<polygon fill="none" stroke="#666666" points="11,-560 11,-654 151,-654 151,-560 11,-560"/>
</a>
</g>
</g>
<!-- Node6&#45;&gt;Node5 -->
<g id="edge5_Node000005_Node000006" class="edge">
<title>Node6&#45;&gt;Node5</title>
<g id="a_edge5_Node000005_Node000006"><a xlink:title=" ">
<path fill="none" stroke="#63b8ff" d="M81,-549.58C81,-541.12 81,-532.41 81,-524.01"/>
<polygon fill="none" stroke="#63b8ff" points="77.5,-549.75 81,-559.75 84.5,-549.75 77.5,-549.75"/>
</a>
</g>
</g>
<!-- Node7 -->
<g id="Node000007" class="node">
<title>Node7</title>
<g id="a_Node000007"><a xlink:href="classXML_1_1XMLObject.html" target="_top" xlink:title="A class representing a node in an XML&#45;tree.">
<polygon fill="white" stroke="transparent" points="141,-1084 21,-1084 21,-690 141,-690 141,-1084"/>
<text text-anchor="start" x="41" y="-1072" font-family="Helvetica,sans-Serif" font-size="10.00">XML::XMLObject</text>
<text text-anchor="start" x="25" y="-1057" font-family="Helvetica,sans-Serif" font-size="10.00">+</text>
<text text-anchor="start" x="38" y="-1057" font-family="Helvetica,sans-Serif" font-size="10.00">xmlns</text>
<text text-anchor="start" x="25" y="-1042" font-family="Helvetica,sans-Serif" font-size="10.00">+</text>
<text text-anchor="start" x="38" y="-1042" font-family="Helvetica,sans-Serif" font-size="10.00">className</text>
<text text-anchor="start" x="25" y="-1027" font-family="Helvetica,sans-Serif" font-size="10.00">+</text>
<text text-anchor="start" x="38" y="-1027" font-family="Helvetica,sans-Serif" font-size="10.00">prefix</text>
<text text-anchor="start" x="25" y="-1012" font-family="Helvetica,sans-Serif" font-size="10.00">+</text>
<text text-anchor="start" x="38" y="-1012" font-family="Helvetica,sans-Serif" font-size="10.00">elementName</text>
<text text-anchor="start" x="25" y="-997" font-family="Helvetica,sans-Serif" font-size="10.00">+</text>
<text text-anchor="start" x="38" y="-997" font-family="Helvetica,sans-Serif" font-size="10.00">textContent</text>
<text text-anchor="start" x="25" y="-982" font-family="Helvetica,sans-Serif" font-size="10.00">+</text>
<text text-anchor="start" x="38" y="-982" font-family="Helvetica,sans-Serif" font-size="10.00">children</text>
<text text-anchor="start" x="25" y="-967" font-family="Helvetica,sans-Serif" font-size="10.00">+</text>
<text text-anchor="start" x="38" y="-967" font-family="Helvetica,sans-Serif" font-size="10.00">attributes</text>
<text text-anchor="start" x="25" y="-952" font-family="Helvetica,sans-Serif" font-size="10.00">+</text>
<text text-anchor="start" x="38" y="-952" font-family="Helvetica,sans-Serif" font-size="10.00">defaults</text>
<text text-anchor="start" x="25" y="-937" font-family="Helvetica,sans-Serif" font-size="10.00">#</text>
<text text-anchor="start" x="38" y="-937" font-family="Helvetica,sans-Serif" font-size="10.00">factory</text>
<text text-anchor="start" x="25" y="-922" font-family="Helvetica,sans-Serif" font-size="10.00">+</text>
<text text-anchor="start" x="38" y="-922" font-family="Helvetica,sans-Serif" font-size="10.00">~XMLObject()</text>
<text text-anchor="start" x="25" y="-907" font-family="Helvetica,sans-Serif" font-size="10.00">+</text>
<text text-anchor="start" x="38" y="-907" font-family="Helvetica,sans-Serif" font-size="10.00">is()</text>
<text text-anchor="start" x="25" y="-892" font-family="Helvetica,sans-Serif" font-size="10.00">+</text>
<text text-anchor="start" x="38" y="-892" font-family="Helvetica,sans-Serif" font-size="10.00">is()</text>
<text text-anchor="start" x="25" y="-877" font-family="Helvetica,sans-Serif" font-size="10.00">+</text>
<text text-anchor="start" x="38" y="-877" font-family="Helvetica,sans-Serif" font-size="10.00">get()</text>
<text text-anchor="start" x="25" y="-862" font-family="Helvetica,sans-Serif" font-size="10.00">+</text>
<text text-anchor="start" x="38" y="-862" font-family="Helvetica,sans-Serif" font-size="10.00">get()</text>
<text text-anchor="start" x="25" y="-847" font-family="Helvetica,sans-Serif" font-size="10.00">+</text>
<text text-anchor="start" x="38" y="-847" font-family="Helvetica,sans-Serif" font-size="10.00">find()</text>
<text text-anchor="start" x="25" y="-832" font-family="Helvetica,sans-Serif" font-size="10.00">+</text>
<text text-anchor="start" x="38" y="-832" font-family="Helvetica,sans-Serif" font-size="10.00">find()</text>
<text text-anchor="start" x="25" y="-817" font-family="Helvetica,sans-Serif" font-size="10.00">+</text>
<text text-anchor="start" x="38" y="-817" font-family="Helvetica,sans-Serif" font-size="10.00">stringify()</text>
<text text-anchor="start" x="25" y="-802" font-family="Helvetica,sans-Serif" font-size="10.00">+</text>
<text text-anchor="start" x="38" y="-802" font-family="Helvetica,sans-Serif" font-size="10.00">format()</text>
<text text-anchor="start" x="25" y="-787" font-family="Helvetica,sans-Serif" font-size="10.00">+</text>
<text text-anchor="start" x="38" y="-787" font-family="Helvetica,sans-Serif" font-size="10.00">getRequiredChild()</text>
<text text-anchor="start" x="38" y="-772" font-family="Helvetica,sans-Serif" font-size="10.00">and 7 more...</text>
<text text-anchor="start" x="25" y="-757" font-family="Helvetica,sans-Serif" font-size="10.00">+</text>
<text text-anchor="start" x="38" y="-757" font-family="Helvetica,sans-Serif" font-size="10.00">createFromStream()</text>
<text text-anchor="start" x="25" y="-742" font-family="Helvetica,sans-Serif" font-size="10.00">+</text>
<text text-anchor="start" x="38" y="-742" font-family="Helvetica,sans-Serif" font-size="10.00">createFromString()</text>
<text text-anchor="start" x="25" y="-727" font-family="Helvetica,sans-Serif" font-size="10.00">+</text>
<text text-anchor="start" x="38" y="-727" font-family="Helvetica,sans-Serif" font-size="10.00">createFromFile()</text>
<text text-anchor="start" x="25" y="-712" font-family="Helvetica,sans-Serif" font-size="10.00">#</text>
<text text-anchor="start" x="38" y="-712" font-family="Helvetica,sans-Serif" font-size="10.00">XMLObject()</text>
<text text-anchor="start" x="25" y="-697" font-family="Helvetica,sans-Serif" font-size="10.00">#</text>
<text text-anchor="start" x="38" y="-697" font-family="Helvetica,sans-Serif" font-size="10.00">createObject()</text>
<polygon fill="#666666" stroke="#666666" points="21,-1067 21,-1067 141,-1067 141,-1067 21,-1067"/>
<polygon fill="#666666" stroke="#666666" points="21,-932 21,-932 36,-932 36,-932 21,-932"/>
<polygon fill="#666666" stroke="#666666" points="36,-932 36,-932 141,-932 141,-932 36,-932"/>
<polygon fill="none" stroke="#666666" points="21,-690 21,-1084 141,-1084 141,-690 21,-690"/>
</a>
</g>
</g>
<!-- Node7&#45;&gt;Node6 -->
<g id="edge6_Node000006_Node000007" class="edge">
<title>Node7&#45;&gt;Node6</title>
<g id="a_edge6_Node000006_Node000007"><a xlink:title=" ">
<path fill="none" stroke="#63b8ff" d="M81,-679.78C81,-670.62 81,-661.97 81,-654.06"/>
<polygon fill="none" stroke="#63b8ff" points="77.5,-679.91 81,-689.91 84.5,-679.91 77.5,-679.91"/>
</a>
</g>
</g>
</g>
</svg>
