<?xml version="1.0" encoding="UTF-8" standalone="no"?>
<!DOCTYPE svg PUBLIC "-//W3C//DTD SVG 1.1//EN"
 "http://www.w3.org/Graphics/SVG/1.1/DTD/svg11.dtd">
<!-- Generated by graphviz version 2.43.0 (0)
 -->
<!-- Title: XML::bpmn::tChoreographyActivity Pages: 1 -->
<svg width="727pt" height="1148pt"
 viewBox="0.00 0.00 726.50 1148.00" xmlns="http://www.w3.org/2000/svg" xmlns:xlink="http://www.w3.org/1999/xlink">
<g id="graph0" class="graph" transform="scale(1 1) rotate(0) translate(4 1144)">
<title>XML::bpmn::tChoreographyActivity</title>
<!-- Node1 -->
<g id="Node000001" class="node">
<title>Node1</title>
<g id="a_Node000001"><a xlink:title=" ">
<polygon fill="#999999" stroke="transparent" points="437.5,-320 294.5,-320 294.5,-200 437.5,-200 437.5,-320"/>
<text text-anchor="start" x="300" y="-308" font-family="Helvetica,sans-Serif" font-size="10.00">XML::bpmn::tChoreography</text>
<text text-anchor="start" x="347.5" y="-297" font-family="Helvetica,sans-Serif" font-size="10.00">Activity</text>
<text text-anchor="start" x="300" y="-282" font-family="Helvetica,sans-Serif" font-size="10.00">+</text>
<text text-anchor="start" x="314" y="-282" font-family="Helvetica,sans-Serif" font-size="10.00">participantRef</text>
<text text-anchor="start" x="300" y="-267" font-family="Helvetica,sans-Serif" font-size="10.00">+</text>
<text text-anchor="start" x="314" y="-267" font-family="Helvetica,sans-Serif" font-size="10.00">correlationKey</text>
<text text-anchor="start" x="300" y="-252" font-family="Helvetica,sans-Serif" font-size="10.00">+</text>
<text text-anchor="start" x="314" y="-252" font-family="Helvetica,sans-Serif" font-size="10.00">initiatingParticipantRef</text>
<text text-anchor="start" x="300" y="-237" font-family="Helvetica,sans-Serif" font-size="10.00">+</text>
<text text-anchor="start" x="314" y="-237" font-family="Helvetica,sans-Serif" font-size="10.00">loopType</text>
<text text-anchor="start" x="300" y="-222" font-family="Helvetica,sans-Serif" font-size="10.00">+</text>
<text text-anchor="start" x="314" y="-222" font-family="Helvetica,sans-Serif" font-size="10.00">defaults</text>
<text text-anchor="start" x="300" y="-207" font-family="Helvetica,sans-Serif" font-size="10.00">#</text>
<text text-anchor="start" x="314" y="-207" font-family="Helvetica,sans-Serif" font-size="10.00">tChoreographyActivity()</text>
<polygon fill="#666666" stroke="#666666" points="295,-292 295,-292 438,-292 438,-292 295,-292"/>
<polygon fill="#666666" stroke="#666666" points="295,-217 295,-217 312,-217 312,-217 295,-217"/>
<polygon fill="#666666" stroke="#666666" points="312,-217 312,-217 438,-217 438,-217 312,-217"/>
<polygon fill="none" stroke="#666666" points="294.5,-200 294.5,-320 437.5,-320 437.5,-200 294.5,-200"/>
</a>
</g>
</g>
<!-- Node6 -->
<g id="Node000006" class="node">
<title>Node6</title>
<g id="a_Node000006"><a xlink:href="classXML_1_1bpmn_1_1choreographyActivity.html" target="_top" xlink:title=" ">
<polygon fill="white" stroke="transparent" points="176,-149 0,-149 0,-100 176,-100 176,-149"/>
<text text-anchor="start" x="5" y="-136.5" font-family="Helvetica,sans-Serif" font-size="10.00">XML::bpmn::choreographyActivity</text>
<text text-anchor="start" x="14.5" y="-121.5" font-family="Helvetica,sans-Serif" font-size="10.00">+</text>
<text text-anchor="start" x="38" y="-121.5" font-family="Helvetica,sans-Serif" font-size="10.00">defaults</text>
<text text-anchor="start" x="14.5" y="-106.5" font-family="Helvetica,sans-Serif" font-size="10.00">#</text>
<text text-anchor="start" x="38" y="-106.5" font-family="Helvetica,sans-Serif" font-size="10.00">choreographyActivity()</text>
<polygon fill="#666666" stroke="#666666" points="0,-131.5 0,-131.5 176,-131.5 176,-131.5 0,-131.5"/>
<polygon fill="#666666" stroke="#666666" points="0,-116.5 0,-116.5 36,-116.5 36,-116.5 0,-116.5"/>
<polygon fill="#666666" stroke="#666666" points="36,-116.5 36,-116.5 176,-116.5 176,-116.5 36,-116.5"/>
<polygon fill="none" stroke="#666666" points="0,-100 0,-149 176,-149 176,-100 0,-100"/>
</a>
</g>
</g>
<!-- Node1&#45;&gt;Node6 -->
<g id="edge5_Node000001_Node000006" class="edge">
<title>Node1&#45;&gt;Node6</title>
<g id="a_edge5_Node000001_Node000006"><a xlink:title=" ">
<path fill="none" stroke="#63b8ff" d="M285.28,-220.24C237.3,-197.2 178.01,-168.72 137.02,-149.04"/>
<polygon fill="none" stroke="#63b8ff" points="283.88,-223.45 294.41,-224.62 286.91,-217.14 283.88,-223.45"/>
</a>
</g>
</g>
<!-- Node7 -->
<g id="Node000007" class="node">
<title>Node7</title>
<g id="a_Node000007"><a xlink:href="classXML_1_1bpmn_1_1tCallChoreography.html" target="_top" xlink:title=" ">
<polygon fill="white" stroke="transparent" points="356,-164 194,-164 194,-85 356,-85 356,-164"/>
<text text-anchor="start" x="199" y="-151.5" font-family="Helvetica,sans-Serif" font-size="10.00">XML::bpmn::tCallChoreography</text>
<text text-anchor="start" x="204.5" y="-136.5" font-family="Helvetica,sans-Serif" font-size="10.00">+</text>
<text text-anchor="start" x="224" y="-136.5" font-family="Helvetica,sans-Serif" font-size="10.00">participantAssociation</text>
<text text-anchor="start" x="204.5" y="-121.5" font-family="Helvetica,sans-Serif" font-size="10.00">+</text>
<text text-anchor="start" x="224" y="-121.5" font-family="Helvetica,sans-Serif" font-size="10.00">calledChoreographyRef</text>
<text text-anchor="start" x="204.5" y="-106.5" font-family="Helvetica,sans-Serif" font-size="10.00">+</text>
<text text-anchor="start" x="224" y="-106.5" font-family="Helvetica,sans-Serif" font-size="10.00">defaults</text>
<text text-anchor="start" x="204.5" y="-91.5" font-family="Helvetica,sans-Serif" font-size="10.00">#</text>
<text text-anchor="start" x="224" y="-91.5" font-family="Helvetica,sans-Serif" font-size="10.00">tCallChoreography()</text>
<polygon fill="#666666" stroke="#666666" points="194,-146.5 194,-146.5 356,-146.5 356,-146.5 194,-146.5"/>
<polygon fill="#666666" stroke="#666666" points="194,-101.5 194,-101.5 222,-101.5 222,-101.5 194,-101.5"/>
<polygon fill="#666666" stroke="#666666" points="222,-101.5 222,-101.5 356,-101.5 356,-101.5 222,-101.5"/>
<polygon fill="none" stroke="#666666" points="194,-85 194,-164 356,-164 356,-85 194,-85"/>
</a>
</g>
</g>
<!-- Node1&#45;&gt;Node7 -->
<g id="edge6_Node000001_Node000007" class="edge">
<title>Node1&#45;&gt;Node7</title>
<g id="a_edge6_Node000001_Node000007"><a xlink:title=" ">
<path fill="none" stroke="#63b8ff" d="M319.79,-191.21C313.51,-181.99 307.24,-172.8 301.47,-164.34"/>
<polygon fill="none" stroke="#63b8ff" points="317.03,-193.38 325.56,-199.67 322.82,-189.43 317.03,-193.38"/>
</a>
</g>
</g>
<!-- Node9 -->
<g id="Node000009" class="node">
<title>Node9</title>
<g id="a_Node000009"><a xlink:href="classXML_1_1bpmn_1_1tChoreographyTask.html" target="_top" xlink:title=" ">
<polygon fill="white" stroke="transparent" points="539.5,-156.5 374.5,-156.5 374.5,-92.5 539.5,-92.5 539.5,-156.5"/>
<text text-anchor="start" x="380" y="-144.5" font-family="Helvetica,sans-Serif" font-size="10.00">XML::bpmn::tChoreographyTask</text>
<text text-anchor="start" x="389.5" y="-129.5" font-family="Helvetica,sans-Serif" font-size="10.00">+</text>
<text text-anchor="start" x="413" y="-129.5" font-family="Helvetica,sans-Serif" font-size="10.00">messageFlowRef</text>
<text text-anchor="start" x="389.5" y="-114.5" font-family="Helvetica,sans-Serif" font-size="10.00">+</text>
<text text-anchor="start" x="413" y="-114.5" font-family="Helvetica,sans-Serif" font-size="10.00">defaults</text>
<text text-anchor="start" x="389.5" y="-99.5" font-family="Helvetica,sans-Serif" font-size="10.00">#</text>
<text text-anchor="start" x="413" y="-99.5" font-family="Helvetica,sans-Serif" font-size="10.00">tChoreographyTask()</text>
<polygon fill="#666666" stroke="#666666" points="375,-139.5 375,-139.5 540,-139.5 540,-139.5 375,-139.5"/>
<polygon fill="#666666" stroke="#666666" points="375,-109.5 375,-109.5 411,-109.5 411,-109.5 375,-109.5"/>
<polygon fill="#666666" stroke="#666666" points="411,-109.5 411,-109.5 540,-109.5 540,-109.5 411,-109.5"/>
<polygon fill="none" stroke="#666666" points="374.5,-92.5 374.5,-156.5 539.5,-156.5 539.5,-92.5 374.5,-92.5"/>
</a>
</g>
</g>
<!-- Node1&#45;&gt;Node9 -->
<g id="edge8_Node000001_Node000009" class="edge">
<title>Node1&#45;&gt;Node9</title>
<g id="a_edge8_Node000001_Node000009"><a xlink:title=" ">
<path fill="none" stroke="#63b8ff" d="M412.13,-191.33C420.35,-179.27 428.54,-167.25 435.63,-156.84"/>
<polygon fill="none" stroke="#63b8ff" points="409.18,-189.43 406.44,-199.67 414.97,-193.38 409.18,-189.43"/>
</a>
</g>
</g>
<!-- Node11 -->
<g id="Node000011" class="node">
<title>Node11</title>
<g id="a_Node000011"><a xlink:href="classXML_1_1bpmn_1_1tSubChoreography.html" target="_top" xlink:title=" ">
<polygon fill="white" stroke="transparent" points="718.5,-164 557.5,-164 557.5,-85 718.5,-85 718.5,-164"/>
<text text-anchor="start" x="563" y="-151.5" font-family="Helvetica,sans-Serif" font-size="10.00">XML::bpmn::tSubChoreography</text>
<text text-anchor="start" x="572.5" y="-136.5" font-family="Helvetica,sans-Serif" font-size="10.00">+</text>
<text text-anchor="start" x="596" y="-136.5" font-family="Helvetica,sans-Serif" font-size="10.00">flowElement</text>
<text text-anchor="start" x="572.5" y="-121.5" font-family="Helvetica,sans-Serif" font-size="10.00">+</text>
<text text-anchor="start" x="596" y="-121.5" font-family="Helvetica,sans-Serif" font-size="10.00">artifact</text>
<text text-anchor="start" x="572.5" y="-106.5" font-family="Helvetica,sans-Serif" font-size="10.00">+</text>
<text text-anchor="start" x="596" y="-106.5" font-family="Helvetica,sans-Serif" font-size="10.00">defaults</text>
<text text-anchor="start" x="572.5" y="-91.5" font-family="Helvetica,sans-Serif" font-size="10.00">#</text>
<text text-anchor="start" x="596" y="-91.5" font-family="Helvetica,sans-Serif" font-size="10.00">tSubChoreography()</text>
<polygon fill="#666666" stroke="#666666" points="558,-146.5 558,-146.5 719,-146.5 719,-146.5 558,-146.5"/>
<polygon fill="#666666" stroke="#666666" points="558,-101.5 558,-101.5 594,-101.5 594,-101.5 558,-101.5"/>
<polygon fill="#666666" stroke="#666666" points="594,-101.5 594,-101.5 719,-101.5 719,-101.5 594,-101.5"/>
<polygon fill="none" stroke="#666666" points="557.5,-85 557.5,-164 718.5,-164 718.5,-85 557.5,-85"/>
</a>
</g>
</g>
<!-- Node1&#45;&gt;Node11 -->
<g id="edge10_Node000001_Node000011" class="edge">
<title>Node1&#45;&gt;Node11</title>
<g id="a_edge10_Node000001_Node000011"><a xlink:title=" ">
<path fill="none" stroke="#63b8ff" d="M447.2,-219.15C482.76,-201.69 524.32,-181.3 559.56,-164"/>
<polygon fill="none" stroke="#63b8ff" points="445.26,-216.2 437.82,-223.75 448.34,-222.49 445.26,-216.2"/>
</a>
</g>
</g>
<!-- Node2 -->
<g id="Node000002" class="node">
<title>Node2</title>
<g id="a_Node000002"><a xlink:href="classXML_1_1bpmn_1_1tFlowNode.html" target="_top" xlink:title=" ">
<polygon fill="white" stroke="transparent" points="428,-435 304,-435 304,-356 428,-356 428,-435"/>
<text text-anchor="start" x="309" y="-422.5" font-family="Helvetica,sans-Serif" font-size="10.00">XML::bpmn::tFlowNode</text>
<text text-anchor="start" x="318.5" y="-407.5" font-family="Helvetica,sans-Serif" font-size="10.00">+</text>
<text text-anchor="start" x="342" y="-407.5" font-family="Helvetica,sans-Serif" font-size="10.00">incoming</text>
<text text-anchor="start" x="318.5" y="-392.5" font-family="Helvetica,sans-Serif" font-size="10.00">+</text>
<text text-anchor="start" x="342" y="-392.5" font-family="Helvetica,sans-Serif" font-size="10.00">outgoing</text>
<text text-anchor="start" x="318.5" y="-377.5" font-family="Helvetica,sans-Serif" font-size="10.00">+</text>
<text text-anchor="start" x="342" y="-377.5" font-family="Helvetica,sans-Serif" font-size="10.00">defaults</text>
<text text-anchor="start" x="318.5" y="-362.5" font-family="Helvetica,sans-Serif" font-size="10.00">#</text>
<text text-anchor="start" x="342" y="-362.5" font-family="Helvetica,sans-Serif" font-size="10.00">tFlowNode()</text>
<polygon fill="#666666" stroke="#666666" points="304,-417.5 304,-417.5 428,-417.5 428,-417.5 304,-417.5"/>
<polygon fill="#666666" stroke="#666666" points="304,-372.5 304,-372.5 340,-372.5 340,-372.5 304,-372.5"/>
<polygon fill="#666666" stroke="#666666" points="340,-372.5 340,-372.5 428,-372.5 428,-372.5 340,-372.5"/>
<polygon fill="none" stroke="#666666" points="304,-356 304,-435 428,-435 428,-356 304,-356"/>
</a>
</g>
</g>
<!-- Node2&#45;&gt;Node1 -->
<g id="edge1_Node000001_Node000002" class="edge">
<title>Node2&#45;&gt;Node1</title>
<g id="a_edge1_Node000001_Node000002"><a xlink:title=" ">
<path fill="none" stroke="#63b8ff" d="M366,-345.64C366,-337.36 366,-328.67 366,-320.15"/>
<polygon fill="none" stroke="#63b8ff" points="362.5,-345.89 366,-355.89 369.5,-345.89 362.5,-345.89"/>
</a>
</g>
</g>
<!-- Node3 -->
<g id="Node000003" class="node">
<title>Node3</title>
<g id="a_Node000003"><a xlink:href="classXML_1_1bpmn_1_1tFlowElement.html" target="_top" xlink:title=" ">
<polygon fill="white" stroke="transparent" points="435.5,-580 296.5,-580 296.5,-471 435.5,-471 435.5,-580"/>
<text text-anchor="start" x="302" y="-567.5" font-family="Helvetica,sans-Serif" font-size="10.00">XML::bpmn::tFlowElement</text>
<text text-anchor="start" x="308.5" y="-552.5" font-family="Helvetica,sans-Serif" font-size="10.00">+</text>
<text text-anchor="start" x="329" y="-552.5" font-family="Helvetica,sans-Serif" font-size="10.00">auditing</text>
<text text-anchor="start" x="308.5" y="-537.5" font-family="Helvetica,sans-Serif" font-size="10.00">+</text>
<text text-anchor="start" x="329" y="-537.5" font-family="Helvetica,sans-Serif" font-size="10.00">monitoring</text>
<text text-anchor="start" x="308.5" y="-522.5" font-family="Helvetica,sans-Serif" font-size="10.00">+</text>
<text text-anchor="start" x="329" y="-522.5" font-family="Helvetica,sans-Serif" font-size="10.00">categoryValueRef</text>
<text text-anchor="start" x="308.5" y="-507.5" font-family="Helvetica,sans-Serif" font-size="10.00">+</text>
<text text-anchor="start" x="329" y="-507.5" font-family="Helvetica,sans-Serif" font-size="10.00">name</text>
<text text-anchor="start" x="308.5" y="-492.5" font-family="Helvetica,sans-Serif" font-size="10.00">+</text>
<text text-anchor="start" x="329" y="-492.5" font-family="Helvetica,sans-Serif" font-size="10.00">defaults</text>
<text text-anchor="start" x="308.5" y="-477.5" font-family="Helvetica,sans-Serif" font-size="10.00">#</text>
<text text-anchor="start" x="329" y="-477.5" font-family="Helvetica,sans-Serif" font-size="10.00">tFlowElement()</text>
<polygon fill="#666666" stroke="#666666" points="297,-562.5 297,-562.5 436,-562.5 436,-562.5 297,-562.5"/>
<polygon fill="#666666" stroke="#666666" points="297,-487.5 297,-487.5 327,-487.5 327,-487.5 297,-487.5"/>
<polygon fill="#666666" stroke="#666666" points="327,-487.5 327,-487.5 436,-487.5 436,-487.5 327,-487.5"/>
<polygon fill="none" stroke="#666666" points="296.5,-471 296.5,-580 435.5,-580 435.5,-471 296.5,-471"/>
</a>
</g>
</g>
<!-- Node3&#45;&gt;Node2 -->
<g id="edge2_Node000002_Node000003" class="edge">
<title>Node3&#45;&gt;Node2</title>
<g id="a_edge2_Node000002_Node000003"><a xlink:title=" ">
<path fill="none" stroke="#63b8ff" d="M366,-460.7C366,-451.93 366,-443.16 366,-435.03"/>
<polygon fill="none" stroke="#63b8ff" points="362.5,-460.96 366,-470.96 369.5,-460.96 362.5,-460.96"/>
</a>
</g>
</g>
<!-- Node4 -->
<g id="Node000004" class="node">
<title>Node4</title>
<g id="a_Node000004"><a xlink:href="classXML_1_1bpmn_1_1tBaseElement.html" target="_top" xlink:title=" ">
<polygon fill="white" stroke="transparent" points="436,-710 296,-710 296,-616 436,-616 436,-710"/>
<text text-anchor="start" x="301" y="-698" font-family="Helvetica,sans-Serif" font-size="10.00">XML::bpmn::tBaseElement</text>
<text text-anchor="start" x="306" y="-683" font-family="Helvetica,sans-Serif" font-size="10.00">+</text>
<text text-anchor="start" x="325" y="-683" font-family="Helvetica,sans-Serif" font-size="10.00">documentation</text>
<text text-anchor="start" x="306" y="-668" font-family="Helvetica,sans-Serif" font-size="10.00">+</text>
<text text-anchor="start" x="325" y="-668" font-family="Helvetica,sans-Serif" font-size="10.00">extensionElements</text>
<text text-anchor="start" x="306" y="-653" font-family="Helvetica,sans-Serif" font-size="10.00">+</text>
<text text-anchor="start" x="325" y="-653" font-family="Helvetica,sans-Serif" font-size="10.00">id</text>
<text text-anchor="start" x="306" y="-638" font-family="Helvetica,sans-Serif" font-size="10.00">+</text>
<text text-anchor="start" x="325" y="-638" font-family="Helvetica,sans-Serif" font-size="10.00">defaults</text>
<text text-anchor="start" x="306" y="-623" font-family="Helvetica,sans-Serif" font-size="10.00">#</text>
<text text-anchor="start" x="325" y="-623" font-family="Helvetica,sans-Serif" font-size="10.00">tBaseElement()</text>
<polygon fill="#666666" stroke="#666666" points="296,-693 296,-693 436,-693 436,-693 296,-693"/>
<polygon fill="#666666" stroke="#666666" points="296,-633 296,-633 323,-633 323,-633 296,-633"/>
<polygon fill="#666666" stroke="#666666" points="323,-633 323,-633 436,-633 436,-633 323,-633"/>
<polygon fill="none" stroke="#666666" points="296,-616 296,-710 436,-710 436,-616 296,-616"/>
</a>
</g>
</g>
<!-- Node4&#45;&gt;Node3 -->
<g id="edge3_Node000003_Node000004" class="edge">
<title>Node4&#45;&gt;Node3</title>
<g id="a_edge3_Node000003_Node000004"><a xlink:title=" ">
<path fill="none" stroke="#63b8ff" d="M366,-605.58C366,-597.12 366,-588.41 366,-580.01"/>
<polygon fill="none" stroke="#63b8ff" points="362.5,-605.75 366,-615.75 369.5,-605.75 362.5,-605.75"/>
</a>
</g>
</g>
<!-- Node5 -->
<g id="Node000005" class="node">
<title>Node5</title>
<g id="a_Node000005"><a xlink:href="classXML_1_1XMLObject.html" target="_top" xlink:title="A class representing a node in an XML&#45;tree.">
<polygon fill="white" stroke="transparent" points="426,-1140 306,-1140 306,-746 426,-746 426,-1140"/>
<text text-anchor="start" x="326" y="-1128" font-family="Helvetica,sans-Serif" font-size="10.00">XML::XMLObject</text>
<text text-anchor="start" x="310" y="-1113" font-family="Helvetica,sans-Serif" font-size="10.00">+</text>
<text text-anchor="start" x="323" y="-1113" font-family="Helvetica,sans-Serif" font-size="10.00">xmlns</text>
<text text-anchor="start" x="310" y="-1098" font-family="Helvetica,sans-Serif" font-size="10.00">+</text>
<text text-anchor="start" x="323" y="-1098" font-family="Helvetica,sans-Serif" font-size="10.00">className</text>
<text text-anchor="start" x="310" y="-1083" font-family="Helvetica,sans-Serif" font-size="10.00">+</text>
<text text-anchor="start" x="323" y="-1083" font-family="Helvetica,sans-Serif" font-size="10.00">prefix</text>
<text text-anchor="start" x="310" y="-1068" font-family="Helvetica,sans-Serif" font-size="10.00">+</text>
<text text-anchor="start" x="323" y="-1068" font-family="Helvetica,sans-Serif" font-size="10.00">elementName</text>
<text text-anchor="start" x="310" y="-1053" font-family="Helvetica,sans-Serif" font-size="10.00">+</text>
<text text-anchor="start" x="323" y="-1053" font-family="Helvetica,sans-Serif" font-size="10.00">textContent</text>
<text text-anchor="start" x="310" y="-1038" font-family="Helvetica,sans-Serif" font-size="10.00">+</text>
<text text-anchor="start" x="323" y="-1038" font-family="Helvetica,sans-Serif" font-size="10.00">children</text>
<text text-anchor="start" x="310" y="-1023" font-family="Helvetica,sans-Serif" font-size="10.00">+</text>
<text text-anchor="start" x="323" y="-1023" font-family="Helvetica,sans-Serif" font-size="10.00">attributes</text>
<text text-anchor="start" x="310" y="-1008" font-family="Helvetica,sans-Serif" font-size="10.00">+</text>
<text text-anchor="start" x="323" y="-1008" font-family="Helvetica,sans-Serif" font-size="10.00">defaults</text>
<text text-anchor="start" x="310" y="-993" font-family="Helvetica,sans-Serif" font-size="10.00">#</text>
<text text-anchor="start" x="323" y="-993" font-family="Helvetica,sans-Serif" font-size="10.00">factory</text>
<text text-anchor="start" x="310" y="-978" font-family="Helvetica,sans-Serif" font-size="10.00">+</text>
<text text-anchor="start" x="323" y="-978" font-family="Helvetica,sans-Serif" font-size="10.00">~XMLObject()</text>
<text text-anchor="start" x="310" y="-963" font-family="Helvetica,sans-Serif" font-size="10.00">+</text>
<text text-anchor="start" x="323" y="-963" font-family="Helvetica,sans-Serif" font-size="10.00">is()</text>
<text text-anchor="start" x="310" y="-948" font-family="Helvetica,sans-Serif" font-size="10.00">+</text>
<text text-anchor="start" x="323" y="-948" font-family="Helvetica,sans-Serif" font-size="10.00">is()</text>
<text text-anchor="start" x="310" y="-933" font-family="Helvetica,sans-Serif" font-size="10.00">+</text>
<text text-anchor="start" x="323" y="-933" font-family="Helvetica,sans-Serif" font-size="10.00">get()</text>
<text text-anchor="start" x="310" y="-918" font-family="Helvetica,sans-Serif" font-size="10.00">+</text>
<text text-anchor="start" x="323" y="-918" font-family="Helvetica,sans-Serif" font-size="10.00">get()</text>
<text text-anchor="start" x="310" y="-903" font-family="Helvetica,sans-Serif" font-size="10.00">+</text>
<text text-anchor="start" x="323" y="-903" font-family="Helvetica,sans-Serif" font-size="10.00">find()</text>
<text text-anchor="start" x="310" y="-888" font-family="Helvetica,sans-Serif" font-size="10.00">+</text>
<text text-anchor="start" x="323" y="-888" font-family="Helvetica,sans-Serif" font-size="10.00">find()</text>
<text text-anchor="start" x="310" y="-873" font-family="Helvetica,sans-Serif" font-size="10.00">+</text>
<text text-anchor="start" x="323" y="-873" font-family="Helvetica,sans-Serif" font-size="10.00">stringify()</text>
<text text-anchor="start" x="310" y="-858" font-family="Helvetica,sans-Serif" font-size="10.00">+</text>
<text text-anchor="start" x="323" y="-858" font-family="Helvetica,sans-Serif" font-size="10.00">format()</text>
<text text-anchor="start" x="310" y="-843" font-family="Helvetica,sans-Serif" font-size="10.00">+</text>
<text text-anchor="start" x="323" y="-843" font-family="Helvetica,sans-Serif" font-size="10.00">getRequiredChild()</text>
<text text-anchor="start" x="323" y="-828" font-family="Helvetica,sans-Serif" font-size="10.00">and 7 more...</text>
<text text-anchor="start" x="310" y="-813" font-family="Helvetica,sans-Serif" font-size="10.00">+</text>
<text text-anchor="start" x="323" y="-813" font-family="Helvetica,sans-Serif" font-size="10.00">createFromStream()</text>
<text text-anchor="start" x="310" y="-798" font-family="Helvetica,sans-Serif" font-size="10.00">+</text>
<text text-anchor="start" x="323" y="-798" font-family="Helvetica,sans-Serif" font-size="10.00">createFromString()</text>
<text text-anchor="start" x="310" y="-783" font-family="Helvetica,sans-Serif" font-size="10.00">+</text>
<text text-anchor="start" x="323" y="-783" font-family="Helvetica,sans-Serif" font-size="10.00">createFromFile()</text>
<text text-anchor="start" x="310" y="-768" font-family="Helvetica,sans-Serif" font-size="10.00">#</text>
<text text-anchor="start" x="323" y="-768" font-family="Helvetica,sans-Serif" font-size="10.00">XMLObject()</text>
<text text-anchor="start" x="310" y="-753" font-family="Helvetica,sans-Serif" font-size="10.00">#</text>
<text text-anchor="start" x="323" y="-753" font-family="Helvetica,sans-Serif" font-size="10.00">createObject()</text>
<polygon fill="#666666" stroke="#666666" points="306,-1123 306,-1123 426,-1123 426,-1123 306,-1123"/>
<polygon fill="#666666" stroke="#666666" points="306,-988 306,-988 321,-988 321,-988 306,-988"/>
<polygon fill="#666666" stroke="#666666" points="321,-988 321,-988 426,-988 426,-988 321,-988"/>
<polygon fill="none" stroke="#666666" points="306,-746 306,-1140 426,-1140 426,-746 306,-746"/>
</a>
</g>
</g>
<!-- Node5&#45;&gt;Node4 -->
<g id="edge4_Node000004_Node000005" class="edge">
<title>Node5&#45;&gt;Node4</title>
<g id="a_edge4_Node000004_Node000005"><a xlink:title=" ">
<path fill="none" stroke="#63b8ff" d="M366,-735.78C366,-726.62 366,-717.97 366,-710.06"/>
<polygon fill="none" stroke="#63b8ff" points="362.5,-735.91 366,-745.91 369.5,-735.91 362.5,-735.91"/>
</a>
</g>
</g>
<!-- Node8 -->
<g id="Node000008" class="node">
<title>Node8</title>
<g id="a_Node000008"><a xlink:href="classXML_1_1bpmn_1_1callChoreography.html" target="_top" xlink:title=" ">
<polygon fill="white" stroke="transparent" points="353.5,-49 196.5,-49 196.5,0 353.5,0 353.5,-49"/>
<text text-anchor="start" x="202" y="-36.5" font-family="Helvetica,sans-Serif" font-size="10.00">XML::bpmn::callChoreography</text>
<text text-anchor="start" x="211.5" y="-21.5" font-family="Helvetica,sans-Serif" font-size="10.00">+</text>
<text text-anchor="start" x="235" y="-21.5" font-family="Helvetica,sans-Serif" font-size="10.00">defaults</text>
<text text-anchor="start" x="211.5" y="-6.5" font-family="Helvetica,sans-Serif" font-size="10.00">#</text>
<text text-anchor="start" x="235" y="-6.5" font-family="Helvetica,sans-Serif" font-size="10.00">callChoreography()</text>
<polygon fill="#666666" stroke="#666666" points="197,-31.5 197,-31.5 354,-31.5 354,-31.5 197,-31.5"/>
<polygon fill="#666666" stroke="#666666" points="197,-16.5 197,-16.5 233,-16.5 233,-16.5 197,-16.5"/>
<polygon fill="#666666" stroke="#666666" points="233,-16.5 233,-16.5 354,-16.5 354,-16.5 233,-16.5"/>
<polygon fill="none" stroke="#666666" points="196.5,0 196.5,-49 353.5,-49 353.5,0 196.5,0"/>
</a>
</g>
</g>
<!-- Node7&#45;&gt;Node8 -->
<g id="edge7_Node000007_Node000008" class="edge">
<title>Node7&#45;&gt;Node8</title>
<g id="a_edge7_Node000007_Node000008"><a xlink:title=" ">
<path fill="none" stroke="#63b8ff" d="M275,-74.72C275,-65.75 275,-56.78 275,-49"/>
<polygon fill="none" stroke="#63b8ff" points="271.5,-74.77 275,-84.77 278.5,-74.77 271.5,-74.77"/>
</a>
</g>
</g>
<!-- Node10 -->
<g id="Node000010" class="node">
<title>Node10</title>
<g id="a_Node000010"><a xlink:href="classXML_1_1bpmn_1_1choreographyTask.html" target="_top" xlink:title=" ">
<polygon fill="white" stroke="transparent" points="537,-49 377,-49 377,0 537,0 537,-49"/>
<text text-anchor="start" x="382" y="-36.5" font-family="Helvetica,sans-Serif" font-size="10.00">XML::bpmn::choreographyTask</text>
<text text-anchor="start" x="391.5" y="-21.5" font-family="Helvetica,sans-Serif" font-size="10.00">+</text>
<text text-anchor="start" x="415" y="-21.5" font-family="Helvetica,sans-Serif" font-size="10.00">defaults</text>
<text text-anchor="start" x="391.5" y="-6.5" font-family="Helvetica,sans-Serif" font-size="10.00">#</text>
<text text-anchor="start" x="415" y="-6.5" font-family="Helvetica,sans-Serif" font-size="10.00">choreographyTask()</text>
<polygon fill="#666666" stroke="#666666" points="377,-31.5 377,-31.5 537,-31.5 537,-31.5 377,-31.5"/>
<polygon fill="#666666" stroke="#666666" points="377,-16.5 377,-16.5 413,-16.5 413,-16.5 377,-16.5"/>
<polygon fill="#666666" stroke="#666666" points="413,-16.5 413,-16.5 537,-16.5 537,-16.5 413,-16.5"/>
<polygon fill="none" stroke="#666666" points="377,0 377,-49 537,-49 537,0 377,0"/>
</a>
</g>
</g>
<!-- Node9&#45;&gt;Node10 -->
<g id="edge9_Node000009_Node000010" class="edge">
<title>Node9&#45;&gt;Node10</title>
<g id="a_edge9_Node000009_Node000010"><a xlink:title=" ">
<path fill="none" stroke="#63b8ff" d="M457,-82.33C457,-71.01 457,-59.12 457,-49.16"/>
<polygon fill="none" stroke="#63b8ff" points="453.5,-82.49 457,-92.49 460.5,-82.49 453.5,-82.49"/>
</a>
</g>
</g>
<!-- Node12 -->
<g id="Node000012" class="node">
<title>Node12</title>
<g id="a_Node000012"><a xlink:href="classXML_1_1bpmn_1_1subChoreography.html" target="_top" xlink:title=" ">
<polygon fill="white" stroke="transparent" points="716.5,-49 559.5,-49 559.5,0 716.5,0 716.5,-49"/>
<text text-anchor="start" x="565" y="-36.5" font-family="Helvetica,sans-Serif" font-size="10.00">XML::bpmn::subChoreography</text>
<text text-anchor="start" x="574.5" y="-21.5" font-family="Helvetica,sans-Serif" font-size="10.00">+</text>
<text text-anchor="start" x="598" y="-21.5" font-family="Helvetica,sans-Serif" font-size="10.00">defaults</text>
<text text-anchor="start" x="574.5" y="-6.5" font-family="Helvetica,sans-Serif" font-size="10.00">#</text>
<text text-anchor="start" x="598" y="-6.5" font-family="Helvetica,sans-Serif" font-size="10.00">subChoreography()</text>
<polygon fill="#666666" stroke="#666666" points="560,-31.5 560,-31.5 717,-31.5 717,-31.5 560,-31.5"/>
<polygon fill="#666666" stroke="#666666" points="560,-16.5 560,-16.5 596,-16.5 596,-16.5 560,-16.5"/>
<polygon fill="#666666" stroke="#666666" points="596,-16.5 596,-16.5 717,-16.5 717,-16.5 596,-16.5"/>
<polygon fill="none" stroke="#666666" points="559.5,0 559.5,-49 716.5,-49 716.5,0 559.5,0"/>
</a>
</g>
</g>
<!-- Node11&#45;&gt;Node12 -->
<g id="edge11_Node000011_Node000012" class="edge">
<title>Node11&#45;&gt;Node12</title>
<g id="a_edge11_Node000011_Node000012"><a xlink:title=" ">
<path fill="none" stroke="#63b8ff" d="M638,-74.72C638,-65.75 638,-56.78 638,-49"/>
<polygon fill="none" stroke="#63b8ff" points="634.5,-74.77 638,-84.77 641.5,-74.77 634.5,-74.77"/>
</a>
</g>
</g>
</g>
</svg>
