<?xml version="1.0" encoding="UTF-8" standalone="no"?>
<!DOCTYPE svg PUBLIC "-//W3C//DTD SVG 1.1//EN"
 "http://www.w3.org/Graphics/SVG/1.1/DTD/svg11.dtd">
<!-- Generated by graphviz version 2.43.0 (0)
 -->
<!-- Title: XML::bpmn::tPartnerEntity Pages: 1 -->
<svg width="154pt" height="750pt"
 viewBox="0.00 0.00 154.00 750.00" xmlns="http://www.w3.org/2000/svg" xmlns:xlink="http://www.w3.org/1999/xlink">
<g id="graph0" class="graph" transform="scale(1 1) rotate(0) translate(4 746)">
<title>XML::bpmn::tPartnerEntity</title>
<!-- Node1 -->
<g id="node1" class="node">
<title>Node1</title>
<g id="a_node1"><a xlink:title=" ">
<polygon fill="#bfbfbf" stroke="black" points="1,-94.5 1,-173.5 145,-173.5 145,-94.5 1,-94.5"/>
<text text-anchor="middle" x="73" y="-161.5" font-family="Helvetica,sans-Serif" font-size="10.00">XML::bpmn::tPartnerEntity</text>
<polyline fill="none" stroke="black" points="1,-154.5 145,-154.5 "/>
<text text-anchor="start" x="9" y="-142.5" font-family="Helvetica,sans-Serif" font-size="10.00">+ participantRef</text>
<text text-anchor="start" x="9" y="-131.5" font-family="Helvetica,sans-Serif" font-size="10.00">+ name</text>
<text text-anchor="start" x="9" y="-120.5" font-family="Helvetica,sans-Serif" font-size="10.00">+ defaults</text>
<polyline fill="none" stroke="black" points="1,-113.5 145,-113.5 "/>
<text text-anchor="start" x="9" y="-101.5" font-family="Helvetica,sans-Serif" font-size="10.00"># tPartnerEntity()</text>
</a>
</g>
</g>
<!-- Node5 -->
<g id="node5" class="node">
<title>Node5</title>
<g id="a_node5"><a xlink:href="classXML_1_1bpmn_1_1partnerEntity.html" target="_top" xlink:title=" ">
<polygon fill="none" stroke="black" points="2.5,-0.5 2.5,-57.5 143.5,-57.5 143.5,-0.5 2.5,-0.5"/>
<text text-anchor="middle" x="73" y="-45.5" font-family="Helvetica,sans-Serif" font-size="10.00">XML::bpmn::partnerEntity</text>
<polyline fill="none" stroke="black" points="2.5,-38.5 143.5,-38.5 "/>
<text text-anchor="start" x="10.5" y="-26.5" font-family="Helvetica,sans-Serif" font-size="10.00">+ defaults</text>
<polyline fill="none" stroke="black" points="2.5,-19.5 143.5,-19.5 "/>
<text text-anchor="start" x="10.5" y="-7.5" font-family="Helvetica,sans-Serif" font-size="10.00"># partnerEntity()</text>
</a>
</g>
</g>
<!-- Node1&#45;&gt;Node5 -->
<g id="edge4" class="edge">
<title>Node1&#45;&gt;Node5</title>
<path fill="none" stroke="midnightblue" d="M73,-84.16C73,-75.04 73,-65.81 73,-57.61"/>
<polygon fill="none" stroke="midnightblue" points="69.5,-84.35 73,-94.35 76.5,-84.35 69.5,-84.35"/>
</g>
<!-- Node2 -->
<g id="node2" class="node">
<title>Node2</title>
<g id="a_node2"><a xlink:href="classXML_1_1bpmn_1_1tRootElement.html" target="_top" xlink:title=" ">
<polygon fill="none" stroke="black" points="1,-210.5 1,-267.5 145,-267.5 145,-210.5 1,-210.5"/>
<text text-anchor="middle" x="73" y="-255.5" font-family="Helvetica,sans-Serif" font-size="10.00">XML::bpmn::tRootElement</text>
<polyline fill="none" stroke="black" points="1,-248.5 145,-248.5 "/>
<text text-anchor="start" x="9" y="-236.5" font-family="Helvetica,sans-Serif" font-size="10.00">+ defaults</text>
<polyline fill="none" stroke="black" points="1,-229.5 145,-229.5 "/>
<text text-anchor="start" x="9" y="-217.5" font-family="Helvetica,sans-Serif" font-size="10.00"># tRootElement()</text>
</a>
</g>
</g>
<!-- Node2&#45;&gt;Node1 -->
<g id="edge1" class="edge">
<title>Node2&#45;&gt;Node1</title>
<path fill="none" stroke="midnightblue" d="M73,-200.16C73,-191.47 73,-182.23 73,-173.52"/>
<polygon fill="none" stroke="midnightblue" points="69.5,-200.4 73,-210.4 76.5,-200.4 69.5,-200.4"/>
</g>
<!-- Node3 -->
<g id="node3" class="node">
<title>Node3</title>
<g id="a_node3"><a xlink:href="classXML_1_1bpmn_1_1tBaseElement.html" target="_top" xlink:title=" ">
<polygon fill="none" stroke="black" points="0,-304.5 0,-394.5 146,-394.5 146,-304.5 0,-304.5"/>
<text text-anchor="middle" x="73" y="-382.5" font-family="Helvetica,sans-Serif" font-size="10.00">XML::bpmn::tBaseElement</text>
<polyline fill="none" stroke="black" points="0,-375.5 146,-375.5 "/>
<text text-anchor="start" x="8" y="-363.5" font-family="Helvetica,sans-Serif" font-size="10.00">+ documentation</text>
<text text-anchor="start" x="8" y="-352.5" font-family="Helvetica,sans-Serif" font-size="10.00">+ extensionElements</text>
<text text-anchor="start" x="8" y="-341.5" font-family="Helvetica,sans-Serif" font-size="10.00">+ id</text>
<text text-anchor="start" x="8" y="-330.5" font-family="Helvetica,sans-Serif" font-size="10.00">+ defaults</text>
<polyline fill="none" stroke="black" points="0,-323.5 146,-323.5 "/>
<text text-anchor="start" x="8" y="-311.5" font-family="Helvetica,sans-Serif" font-size="10.00"># tBaseElement()</text>
</a>
</g>
</g>
<!-- Node3&#45;&gt;Node2 -->
<g id="edge2" class="edge">
<title>Node3&#45;&gt;Node2</title>
<path fill="none" stroke="midnightblue" d="M73,-294.35C73,-285.07 73,-275.79 73,-267.59"/>
<polygon fill="none" stroke="midnightblue" points="69.5,-294.37 73,-304.37 76.5,-294.37 69.5,-294.37"/>
</g>
<!-- Node4 -->
<g id="node4" class="node">
<title>Node4</title>
<g id="a_node4"><a xlink:href="classXML_1_1XMLObject.html" target="_top" xlink:title="A class representing a node in an XML&#45;tree.">
<polygon fill="none" stroke="black" points="10,-431.5 10,-741.5 136,-741.5 136,-431.5 10,-431.5"/>
<text text-anchor="middle" x="73" y="-729.5" font-family="Helvetica,sans-Serif" font-size="10.00">XML::XMLObject</text>
<polyline fill="none" stroke="black" points="10,-722.5 136,-722.5 "/>
<text text-anchor="start" x="18" y="-710.5" font-family="Helvetica,sans-Serif" font-size="10.00">+ xmlns</text>
<text text-anchor="start" x="18" y="-699.5" font-family="Helvetica,sans-Serif" font-size="10.00">+ className</text>
<text text-anchor="start" x="18" y="-688.5" font-family="Helvetica,sans-Serif" font-size="10.00">+ prefix</text>
<text text-anchor="start" x="18" y="-677.5" font-family="Helvetica,sans-Serif" font-size="10.00">+ elementName</text>
<text text-anchor="start" x="18" y="-666.5" font-family="Helvetica,sans-Serif" font-size="10.00">+ textContent</text>
<text text-anchor="start" x="18" y="-655.5" font-family="Helvetica,sans-Serif" font-size="10.00">+ children</text>
<text text-anchor="start" x="18" y="-644.5" font-family="Helvetica,sans-Serif" font-size="10.00">+ attributes</text>
<text text-anchor="start" x="18" y="-633.5" font-family="Helvetica,sans-Serif" font-size="10.00">+ defaults</text>
<text text-anchor="start" x="18" y="-622.5" font-family="Helvetica,sans-Serif" font-size="10.00"># factory</text>
<polyline fill="none" stroke="black" points="10,-615.5 136,-615.5 "/>
<text text-anchor="start" x="18" y="-603.5" font-family="Helvetica,sans-Serif" font-size="10.00">+ ~XMLObject()</text>
<text text-anchor="start" x="18" y="-592.5" font-family="Helvetica,sans-Serif" font-size="10.00">+ is()</text>
<text text-anchor="start" x="18" y="-581.5" font-family="Helvetica,sans-Serif" font-size="10.00">+ is()</text>
<text text-anchor="start" x="18" y="-570.5" font-family="Helvetica,sans-Serif" font-size="10.00">+ get()</text>
<text text-anchor="start" x="18" y="-559.5" font-family="Helvetica,sans-Serif" font-size="10.00">+ get()</text>
<text text-anchor="start" x="18" y="-548.5" font-family="Helvetica,sans-Serif" font-size="10.00">+ find()</text>
<text text-anchor="start" x="18" y="-537.5" font-family="Helvetica,sans-Serif" font-size="10.00">+ find()</text>
<text text-anchor="start" x="18" y="-526.5" font-family="Helvetica,sans-Serif" font-size="10.00">+ stringify()</text>
<text text-anchor="start" x="18" y="-515.5" font-family="Helvetica,sans-Serif" font-size="10.00">+ getRequiredChild()</text>
<text text-anchor="start" x="18" y="-504.5" font-family="Helvetica,sans-Serif" font-size="10.00">+ getOptionalChild()</text>
<text text-anchor="start" x="18" y="-493.5" font-family="Helvetica,sans-Serif" font-size="10.00">and 6 more...</text>
<text text-anchor="start" x="18" y="-482.5" font-family="Helvetica,sans-Serif" font-size="10.00">+ createFromStream()</text>
<text text-anchor="start" x="18" y="-471.5" font-family="Helvetica,sans-Serif" font-size="10.00">+ createFromString()</text>
<text text-anchor="start" x="18" y="-460.5" font-family="Helvetica,sans-Serif" font-size="10.00">+ createFromFile()</text>
<text text-anchor="start" x="18" y="-449.5" font-family="Helvetica,sans-Serif" font-size="10.00"># XMLObject()</text>
<text text-anchor="start" x="18" y="-438.5" font-family="Helvetica,sans-Serif" font-size="10.00"># createObject()</text>
</a>
</g>
</g>
<!-- Node4&#45;&gt;Node3 -->
<g id="edge3" class="edge">
<title>Node4&#45;&gt;Node3</title>
<path fill="none" stroke="midnightblue" d="M73,-421.35C73,-411.89 73,-402.91 73,-394.72"/>
<polygon fill="none" stroke="midnightblue" points="69.5,-421.37 73,-431.37 76.5,-421.37 69.5,-421.37"/>
</g>
</g>
</svg>
