<?xml version="1.0" encoding="UTF-8" standalone="no"?>
<!DOCTYPE svg PUBLIC "-//W3C//DTD SVG 1.1//EN"
 "http://www.w3.org/Graphics/SVG/1.1/DTD/svg11.dtd">
<!-- Generated by graphviz version 2.43.0 (0)
 -->
<!-- Title: BPMN::Transaction Pages: 1 -->
<svg width="296pt" height="1132pt"
 viewBox="0.00 0.00 295.50 1132.00" xmlns="http://www.w3.org/2000/svg" xmlns:xlink="http://www.w3.org/1999/xlink">
<g id="graph0" class="graph" transform="scale(1 1) rotate(0) translate(4 1128)">
<title>BPMN::Transaction</title>
<!-- Node1 -->
<g id="Node000001" class="node">
<title>Node1</title>
<g id="a_Node000001"><a xlink:title=" ">
<polygon fill="#999999" stroke="transparent" points="174,-49 73,-49 73,0 174,0 174,-49"/>
<text text-anchor="start" x="78.5" y="-36.5" font-family="Helvetica,sans-Serif" font-size="10.00">BPMN::Transaction</text>
<text text-anchor="start" x="81.5" y="-21.5" font-family="Helvetica,sans-Serif" font-size="10.00">+</text>
<text text-anchor="start" x="98.5" y="-21.5" font-family="Helvetica,sans-Serif" font-size="10.00">element</text>
<text text-anchor="start" x="81.5" y="-6.5" font-family="Helvetica,sans-Serif" font-size="10.00">+</text>
<text text-anchor="start" x="98.5" y="-6.5" font-family="Helvetica,sans-Serif" font-size="10.00">Transaction()</text>
<polygon fill="#666666" stroke="#666666" points="73.5,-31.5 73.5,-31.5 174.5,-31.5 174.5,-31.5 73.5,-31.5"/>
<polygon fill="#666666" stroke="#666666" points="73.5,-16.5 73.5,-16.5 96.5,-16.5 96.5,-16.5 73.5,-16.5"/>
<polygon fill="#666666" stroke="#666666" points="96.5,-16.5 96.5,-16.5 174.5,-16.5 174.5,-16.5 96.5,-16.5"/>
<polygon fill="none" stroke="#666666" points="73,0 73,-49 174,-49 174,0 73,0"/>
</a>
</g>
</g>
<!-- Node2 -->
<g id="Node000002" class="node">
<title>Node2</title>
<g id="a_Node000002"><a xlink:href="classBPMN_1_1SubProcess.html" target="_top" xlink:title=" ">
<polygon fill="white" stroke="transparent" points="174,-149 73,-149 73,-85 174,-85 174,-149"/>
<text text-anchor="start" x="78.5" y="-137" font-family="Helvetica,sans-Serif" font-size="10.00">BPMN::SubProcess</text>
<text text-anchor="start" x="81.5" y="-122" font-family="Helvetica,sans-Serif" font-size="10.00">+</text>
<text text-anchor="start" x="98.5" y="-122" font-family="Helvetica,sans-Serif" font-size="10.00">startEvent</text>
<text text-anchor="start" x="81.5" y="-107" font-family="Helvetica,sans-Serif" font-size="10.00">+</text>
<text text-anchor="start" x="98.5" y="-107" font-family="Helvetica,sans-Serif" font-size="10.00">element</text>
<text text-anchor="start" x="81.5" y="-92" font-family="Helvetica,sans-Serif" font-size="10.00">+</text>
<text text-anchor="start" x="98.5" y="-92" font-family="Helvetica,sans-Serif" font-size="10.00">SubProcess()</text>
<polygon fill="#666666" stroke="#666666" points="73.5,-132 73.5,-132 174.5,-132 174.5,-132 73.5,-132"/>
<polygon fill="#666666" stroke="#666666" points="73.5,-102 73.5,-102 96.5,-102 96.5,-102 73.5,-102"/>
<polygon fill="#666666" stroke="#666666" points="96.5,-102 96.5,-102 174.5,-102 174.5,-102 96.5,-102"/>
<polygon fill="none" stroke="#666666" points="73,-85 73,-149 174,-149 174,-85 73,-85"/>
</a>
</g>
</g>
<!-- Node2&#45;&gt;Node1 -->
<g id="edge1_Node000001_Node000002" class="edge">
<title>Node2&#45;&gt;Node1</title>
<g id="a_edge1_Node000001_Node000002"><a xlink:title=" ">
<path fill="none" stroke="#63b8ff" d="M123.5,-74.77C123.5,-66.03 123.5,-57.09 123.5,-49.27"/>
<polygon fill="none" stroke="#63b8ff" points="120,-74.85 123.5,-84.86 127,-74.86 120,-74.85"/>
</a>
</g>
</g>
<!-- Node3 -->
<g id="Node000003" class="node">
<title>Node3</title>
<g id="a_Node000003"><a xlink:href="classBPMN_1_1Activity.html" target="_top" xlink:title=" ">
<polygon fill="white" stroke="transparent" points="138,-294 23,-294 23,-185 138,-185 138,-294"/>
<text text-anchor="start" x="44.5" y="-281.5" font-family="Helvetica,sans-Serif" font-size="10.00">BPMN::Activity</text>
<text text-anchor="start" x="27.5" y="-266.5" font-family="Helvetica,sans-Serif" font-size="10.00">+</text>
<text text-anchor="start" x="40.5" y="-266.5" font-family="Helvetica,sans-Serif" font-size="10.00">boundaryEvents</text>
<text text-anchor="start" x="27.5" y="-251.5" font-family="Helvetica,sans-Serif" font-size="10.00">+</text>
<text text-anchor="start" x="40.5" y="-251.5" font-family="Helvetica,sans-Serif" font-size="10.00">compensatedBy</text>
<text text-anchor="start" x="27.5" y="-236.5" font-family="Helvetica,sans-Serif" font-size="10.00">+</text>
<text text-anchor="start" x="40.5" y="-236.5" font-family="Helvetica,sans-Serif" font-size="10.00">isForCompensation</text>
<text text-anchor="start" x="27.5" y="-221.5" font-family="Helvetica,sans-Serif" font-size="10.00">+</text>
<text text-anchor="start" x="40.5" y="-221.5" font-family="Helvetica,sans-Serif" font-size="10.00">loopCharacteristics</text>
<text text-anchor="start" x="27.5" y="-206.5" font-family="Helvetica,sans-Serif" font-size="10.00">+</text>
<text text-anchor="start" x="40.5" y="-206.5" font-family="Helvetica,sans-Serif" font-size="10.00">element</text>
<text text-anchor="start" x="27.5" y="-191.5" font-family="Helvetica,sans-Serif" font-size="10.00">+</text>
<text text-anchor="start" x="40.5" y="-191.5" font-family="Helvetica,sans-Serif" font-size="10.00">Activity()</text>
<polygon fill="#666666" stroke="#666666" points="23.5,-276.5 23.5,-276.5 138.5,-276.5 138.5,-276.5 23.5,-276.5"/>
<polygon fill="#666666" stroke="#666666" points="23.5,-201.5 23.5,-201.5 38.5,-201.5 38.5,-201.5 23.5,-201.5"/>
<polygon fill="#666666" stroke="#666666" points="38.5,-201.5 38.5,-201.5 138.5,-201.5 138.5,-201.5 38.5,-201.5"/>
<polygon fill="none" stroke="#666666" points="23,-185 23,-294 138,-294 138,-185 23,-185"/>
</a>
</g>
</g>
<!-- Node3&#45;&gt;Node2 -->
<g id="edge2_Node000002_Node000003" class="edge">
<title>Node3&#45;&gt;Node2</title>
<g id="a_edge2_Node000002_Node000003"><a xlink:title=" ">
<path fill="none" stroke="#63b8ff" d="M102.99,-175.47C106.23,-166.38 109.45,-157.38 112.34,-149.28"/>
<polygon fill="none" stroke="#63b8ff" points="99.68,-174.35 99.61,-184.95 106.27,-176.7 99.68,-174.35"/>
</a>
</g>
</g>
<!-- Node4 -->
<g id="Node000004" class="node">
<title>Node4</title>
<g id="a_Node000004"><a xlink:href="classBPMN_1_1FlowNode.html" target="_top" xlink:title="Base class for BPMN elements that may contain incoming and outgoing sequence flows.">
<polygon fill="white" stroke="transparent" points="95,-476.5 0,-476.5 0,-382.5 95,-382.5 95,-476.5"/>
<text text-anchor="start" x="5.5" y="-464.5" font-family="Helvetica,sans-Serif" font-size="10.00">BPMN::FlowNode</text>
<text text-anchor="start" x="8.5" y="-449.5" font-family="Helvetica,sans-Serif" font-size="10.00">+</text>
<text text-anchor="start" x="25.5" y="-449.5" font-family="Helvetica,sans-Serif" font-size="10.00">element</text>
<text text-anchor="start" x="8.5" y="-434.5" font-family="Helvetica,sans-Serif" font-size="10.00">+</text>
<text text-anchor="start" x="25.5" y="-434.5" font-family="Helvetica,sans-Serif" font-size="10.00">name</text>
<text text-anchor="start" x="8.5" y="-419.5" font-family="Helvetica,sans-Serif" font-size="10.00">+</text>
<text text-anchor="start" x="25.5" y="-419.5" font-family="Helvetica,sans-Serif" font-size="10.00">incoming</text>
<text text-anchor="start" x="8.5" y="-404.5" font-family="Helvetica,sans-Serif" font-size="10.00">+</text>
<text text-anchor="start" x="25.5" y="-404.5" font-family="Helvetica,sans-Serif" font-size="10.00">outgoing</text>
<text text-anchor="start" x="8.5" y="-389.5" font-family="Helvetica,sans-Serif" font-size="10.00">+</text>
<text text-anchor="start" x="25.5" y="-389.5" font-family="Helvetica,sans-Serif" font-size="10.00">FlowNode()</text>
<polygon fill="#666666" stroke="#666666" points="0.5,-459.5 0.5,-459.5 95.5,-459.5 95.5,-459.5 0.5,-459.5"/>
<polygon fill="#666666" stroke="#666666" points="0.5,-399.5 0.5,-399.5 23.5,-399.5 23.5,-399.5 0.5,-399.5"/>
<polygon fill="#666666" stroke="#666666" points="23.5,-399.5 23.5,-399.5 95.5,-399.5 95.5,-399.5 23.5,-399.5"/>
<polygon fill="none" stroke="#666666" points="0,-382.5 0,-476.5 95,-476.5 95,-382.5 0,-382.5"/>
</a>
</g>
</g>
<!-- Node4&#45;&gt;Node3 -->
<g id="edge3_Node000003_Node000004" class="edge">
<title>Node4&#45;&gt;Node3</title>
<g id="a_edge3_Node000003_Node000004"><a xlink:title=" ">
<path fill="none" stroke="#63b8ff" d="M57.41,-372.07C61.74,-347.35 66.81,-318.48 71.09,-294.09"/>
<polygon fill="none" stroke="#63b8ff" points="53.94,-371.57 55.66,-382.03 60.83,-372.78 53.94,-371.57"/>
</a>
</g>
</g>
<!-- Node5 -->
<g id="Node000005" class="node">
<title>Node5</title>
<g id="a_Node000005"><a xlink:href="classBPMN_1_1ChildNode.html" target="_top" xlink:title="Base class for BPMN elements within a Scope.">
<polygon fill="white" stroke="transparent" points="133.5,-644 37.5,-644 37.5,-565 133.5,-565 133.5,-644"/>
<text text-anchor="start" x="42.5" y="-631.5" font-family="Helvetica,sans-Serif" font-size="10.00">BPMN::ChildNode</text>
<text text-anchor="start" x="45.5" y="-616.5" font-family="Helvetica,sans-Serif" font-size="10.00">+</text>
<text text-anchor="start" x="62.5" y="-616.5" font-family="Helvetica,sans-Serif" font-size="10.00">parent</text>
<text text-anchor="start" x="45.5" y="-601.5" font-family="Helvetica,sans-Serif" font-size="10.00">+</text>
<text text-anchor="start" x="62.5" y="-601.5" font-family="Helvetica,sans-Serif" font-size="10.00">ChildNode()</text>
<text text-anchor="start" x="45.5" y="-586.5" font-family="Helvetica,sans-Serif" font-size="10.00">+</text>
<text text-anchor="start" x="62.5" y="-586.5" font-family="Helvetica,sans-Serif" font-size="10.00">ancestor()</text>
<text text-anchor="start" x="45.5" y="-571.5" font-family="Helvetica,sans-Serif" font-size="10.00">+</text>
<text text-anchor="start" x="62.5" y="-571.5" font-family="Helvetica,sans-Serif" font-size="10.00">ancestor()</text>
<polygon fill="#666666" stroke="#666666" points="37.5,-626.5 37.5,-626.5 133.5,-626.5 133.5,-626.5 37.5,-626.5"/>
<polygon fill="#666666" stroke="#666666" points="37.5,-611.5 37.5,-611.5 60.5,-611.5 60.5,-611.5 37.5,-611.5"/>
<polygon fill="#666666" stroke="#666666" points="60.5,-611.5 60.5,-611.5 133.5,-611.5 133.5,-611.5 60.5,-611.5"/>
<polygon fill="none" stroke="#666666" points="37.5,-565 37.5,-644 133.5,-644 133.5,-565 37.5,-565"/>
</a>
</g>
</g>
<!-- Node5&#45;&gt;Node4 -->
<g id="edge4_Node000004_Node000005" class="edge">
<title>Node5&#45;&gt;Node4</title>
<g id="a_edge4_Node000004_Node000005"><a xlink:title=" ">
<path fill="none" stroke="#63b8ff" d="M74.81,-554.85C69.43,-530.32 62.92,-500.72 57.62,-476.56"/>
<polygon fill="none" stroke="#63b8ff" points="71.41,-555.66 76.97,-564.68 78.25,-554.16 71.41,-555.66"/>
</a>
</g>
</g>
<!-- Node6 -->
<g id="Node000006" class="node">
<title>Node6</title>
<g id="a_Node000006"><a xlink:href="classBPMN_1_1Node.html" target="_top" xlink:title="Base class for all nodes in a BPMN model.">
<polygon fill="white" stroke="transparent" points="159,-804 88,-804 88,-680 159,-680 159,-804"/>
<text text-anchor="start" x="93.5" y="-792" font-family="Helvetica,sans-Serif" font-size="10.00">BPMN::Node</text>
<text text-anchor="start" x="93.5" y="-777" font-family="Helvetica,sans-Serif" font-size="10.00">+</text>
<text text-anchor="start" x="107.5" y="-777" font-family="Helvetica,sans-Serif" font-size="10.00">receiving</text>
<text text-anchor="start" x="93.5" y="-762" font-family="Helvetica,sans-Serif" font-size="10.00">+</text>
<text text-anchor="start" x="107.5" y="-762" font-family="Helvetica,sans-Serif" font-size="10.00">sending</text>
<text text-anchor="start" x="93.5" y="-747" font-family="Helvetica,sans-Serif" font-size="10.00">+</text>
<text text-anchor="start" x="107.5" y="-747" font-family="Helvetica,sans-Serif" font-size="10.00">Node()</text>
<text text-anchor="start" x="93.5" y="-732" font-family="Helvetica,sans-Serif" font-size="10.00">+</text>
<text text-anchor="start" x="107.5" y="-732" font-family="Helvetica,sans-Serif" font-size="10.00">find()</text>
<text text-anchor="start" x="93.5" y="-717" font-family="Helvetica,sans-Serif" font-size="10.00">+</text>
<text text-anchor="start" x="107.5" y="-717" font-family="Helvetica,sans-Serif" font-size="10.00">find()</text>
<text text-anchor="start" x="93.5" y="-702" font-family="Helvetica,sans-Serif" font-size="10.00">+</text>
<text text-anchor="start" x="107.5" y="-702" font-family="Helvetica,sans-Serif" font-size="10.00">find_all()</text>
<text text-anchor="start" x="93.5" y="-687" font-family="Helvetica,sans-Serif" font-size="10.00">+</text>
<text text-anchor="start" x="107.5" y="-687" font-family="Helvetica,sans-Serif" font-size="10.00">find_all()</text>
<polygon fill="#666666" stroke="#666666" points="88.5,-787 88.5,-787 159.5,-787 159.5,-787 88.5,-787"/>
<polygon fill="#666666" stroke="#666666" points="88.5,-757 88.5,-757 105.5,-757 105.5,-757 88.5,-757"/>
<polygon fill="#666666" stroke="#666666" points="105.5,-757 105.5,-757 159.5,-757 159.5,-757 105.5,-757"/>
<polygon fill="none" stroke="#666666" points="88,-680 88,-804 159,-804 159,-680 88,-680"/>
</a>
</g>
</g>
<!-- Node6&#45;&gt;Node5 -->
<g id="edge5_Node000005_Node000006" class="edge">
<title>Node6&#45;&gt;Node5</title>
<g id="a_edge5_Node000005_Node000006"><a xlink:title=" ">
<path fill="none" stroke="#63b8ff" d="M103.65,-670.22C101.12,-661.21 98.62,-652.27 96.31,-644.05"/>
<polygon fill="none" stroke="#63b8ff" points="100.32,-671.31 106.39,-679.99 107.06,-669.41 100.32,-671.31"/>
</a>
</g>
</g>
<!-- Node9 -->
<g id="Node000009" class="node">
<title>Node9</title>
<g id="a_Node000009"><a xlink:href="classBPMN_1_1Scope.html" target="_top" xlink:title="Base class for BPMN elements that may contain a ChildNode elements.">
<polygon fill="white" stroke="transparent" points="287.5,-529 113.5,-529 113.5,-330 287.5,-330 287.5,-529"/>
<text text-anchor="start" x="168" y="-516.5" font-family="Helvetica,sans-Serif" font-size="10.00">BPMN::Scope</text>
<text text-anchor="start" x="117.5" y="-501.5" font-family="Helvetica,sans-Serif" font-size="10.00">+</text>
<text text-anchor="start" x="130.5" y="-501.5" font-family="Helvetica,sans-Serif" font-size="10.00">childNodes</text>
<text text-anchor="start" x="117.5" y="-486.5" font-family="Helvetica,sans-Serif" font-size="10.00">+</text>
<text text-anchor="start" x="130.5" y="-486.5" font-family="Helvetica,sans-Serif" font-size="10.00">flowNodes</text>
<text text-anchor="start" x="117.5" y="-471.5" font-family="Helvetica,sans-Serif" font-size="10.00">+</text>
<text text-anchor="start" x="130.5" y="-471.5" font-family="Helvetica,sans-Serif" font-size="10.00">eventSubProcesses</text>
<text text-anchor="start" x="117.5" y="-456.5" font-family="Helvetica,sans-Serif" font-size="10.00">+</text>
<text text-anchor="start" x="130.5" y="-456.5" font-family="Helvetica,sans-Serif" font-size="10.00">startNodes</text>
<text text-anchor="start" x="117.5" y="-441.5" font-family="Helvetica,sans-Serif" font-size="10.00">+</text>
<text text-anchor="start" x="130.5" y="-441.5" font-family="Helvetica,sans-Serif" font-size="10.00">sequenceFlows</text>
<text text-anchor="start" x="117.5" y="-426.5" font-family="Helvetica,sans-Serif" font-size="10.00">+</text>
<text text-anchor="start" x="130.5" y="-426.5" font-family="Helvetica,sans-Serif" font-size="10.00">compensationActivities</text>
<text text-anchor="start" x="117.5" y="-411.5" font-family="Helvetica,sans-Serif" font-size="10.00">+</text>
<text text-anchor="start" x="130.5" y="-411.5" font-family="Helvetica,sans-Serif" font-size="10.00">compensationEventSubProcess</text>
<text text-anchor="start" x="117.5" y="-396.5" font-family="Helvetica,sans-Serif" font-size="10.00">+</text>
<text text-anchor="start" x="130.5" y="-396.5" font-family="Helvetica,sans-Serif" font-size="10.00">dataObjects</text>
<text text-anchor="start" x="117.5" y="-381.5" font-family="Helvetica,sans-Serif" font-size="10.00">+</text>
<text text-anchor="start" x="130.5" y="-381.5" font-family="Helvetica,sans-Serif" font-size="10.00">Scope()</text>
<text text-anchor="start" x="117.5" y="-366.5" font-family="Helvetica,sans-Serif" font-size="10.00">#</text>
<text text-anchor="start" x="130.5" y="-366.5" font-family="Helvetica,sans-Serif" font-size="10.00">add()</text>
<text text-anchor="start" x="117.5" y="-351.5" font-family="Helvetica,sans-Serif" font-size="10.00">#</text>
<text text-anchor="start" x="130.5" y="-351.5" font-family="Helvetica,sans-Serif" font-size="10.00">add()</text>
<text text-anchor="start" x="117.5" y="-336.5" font-family="Helvetica,sans-Serif" font-size="10.00">#</text>
<text text-anchor="start" x="130.5" y="-336.5" font-family="Helvetica,sans-Serif" font-size="10.00">add()</text>
<polygon fill="#666666" stroke="#666666" points="113.5,-511.5 113.5,-511.5 287.5,-511.5 287.5,-511.5 113.5,-511.5"/>
<polygon fill="#666666" stroke="#666666" points="113.5,-391.5 113.5,-391.5 128.5,-391.5 128.5,-391.5 113.5,-391.5"/>
<polygon fill="#666666" stroke="#666666" points="128.5,-391.5 128.5,-391.5 287.5,-391.5 287.5,-391.5 128.5,-391.5"/>
<polygon fill="none" stroke="#666666" points="113.5,-330 113.5,-529 287.5,-529 287.5,-330 113.5,-330"/>
</a>
</g>
</g>
<!-- Node6&#45;&gt;Node9 -->
<g id="edge9_Node000009_Node000006" class="edge">
<title>Node6&#45;&gt;Node9</title>
<g id="a_edge9_Node000009_Node000006"><a xlink:title=" ">
<path fill="none" stroke="#63b8ff" d="M141.14,-669.87C151.47,-628.21 164.67,-574.98 176,-529.3"/>
<polygon fill="none" stroke="#63b8ff" points="137.72,-669.11 138.71,-679.66 144.52,-670.79 137.72,-669.11"/>
</a>
</g>
</g>
<!-- Node7 -->
<g id="Node000007" class="node">
<title>Node7</title>
<g id="a_Node000007"><a xlink:href="classBPMN_1_1BaseElement.html" target="_top" xlink:title="Base class for all core BPMN elements.">
<polygon fill="white" stroke="transparent" points="181,-979 66,-979 66,-840 181,-840 181,-979"/>
<text text-anchor="start" x="74" y="-966.5" font-family="Helvetica,sans-Serif" font-size="10.00">BPMN::BaseElement</text>
<text text-anchor="start" x="70.5" y="-951.5" font-family="Helvetica,sans-Serif" font-size="10.00">+</text>
<text text-anchor="start" x="83.5" y="-951.5" font-family="Helvetica,sans-Serif" font-size="10.00">element</text>
<text text-anchor="start" x="70.5" y="-936.5" font-family="Helvetica,sans-Serif" font-size="10.00">+</text>
<text text-anchor="start" x="83.5" y="-936.5" font-family="Helvetica,sans-Serif" font-size="10.00">id</text>
<text text-anchor="start" x="70.5" y="-921.5" font-family="Helvetica,sans-Serif" font-size="10.00">+</text>
<text text-anchor="start" x="83.5" y="-921.5" font-family="Helvetica,sans-Serif" font-size="10.00">extensionElements</text>
<text text-anchor="start" x="70.5" y="-906.5" font-family="Helvetica,sans-Serif" font-size="10.00">+</text>
<text text-anchor="start" x="83.5" y="-906.5" font-family="Helvetica,sans-Serif" font-size="10.00">BaseElement()</text>
<text text-anchor="start" x="70.5" y="-891.5" font-family="Helvetica,sans-Serif" font-size="10.00">+</text>
<text text-anchor="start" x="83.5" y="-891.5" font-family="Helvetica,sans-Serif" font-size="10.00">is()</text>
<text text-anchor="start" x="70.5" y="-876.5" font-family="Helvetica,sans-Serif" font-size="10.00">+</text>
<text text-anchor="start" x="83.5" y="-876.5" font-family="Helvetica,sans-Serif" font-size="10.00">is()</text>
<text text-anchor="start" x="70.5" y="-861.5" font-family="Helvetica,sans-Serif" font-size="10.00">+</text>
<text text-anchor="start" x="83.5" y="-861.5" font-family="Helvetica,sans-Serif" font-size="10.00">get()</text>
<text text-anchor="start" x="70.5" y="-846.5" font-family="Helvetica,sans-Serif" font-size="10.00">+</text>
<text text-anchor="start" x="83.5" y="-846.5" font-family="Helvetica,sans-Serif" font-size="10.00">get()</text>
<polygon fill="#666666" stroke="#666666" points="66.5,-961.5 66.5,-961.5 181.5,-961.5 181.5,-961.5 66.5,-961.5"/>
<polygon fill="#666666" stroke="#666666" points="66.5,-916.5 66.5,-916.5 81.5,-916.5 81.5,-916.5 66.5,-916.5"/>
<polygon fill="#666666" stroke="#666666" points="81.5,-916.5 81.5,-916.5 181.5,-916.5 181.5,-916.5 81.5,-916.5"/>
<polygon fill="none" stroke="#666666" points="66,-840 66,-979 181,-979 181,-840 66,-840"/>
</a>
</g>
</g>
<!-- Node7&#45;&gt;Node6 -->
<g id="edge6_Node000006_Node000007" class="edge">
<title>Node7&#45;&gt;Node6</title>
<g id="a_edge6_Node000006_Node000007"><a xlink:title=" ">
<path fill="none" stroke="#63b8ff" d="M123.5,-829.71C123.5,-821.12 123.5,-812.47 123.5,-804.14"/>
<polygon fill="none" stroke="#63b8ff" points="120,-829.75 123.5,-839.75 127,-829.75 120,-829.75"/>
</a>
</g>
</g>
<!-- Node8 -->
<g id="Node000008" class="node">
<title>Node8</title>
<g id="a_Node000008"><a xlink:href="classBPMN_1_1Element.html" target="_top" xlink:title="Abstract base class for all elements in a BPMN model.">
<polygon fill="white" stroke="transparent" points="166.5,-1124 80.5,-1124 80.5,-1015 166.5,-1015 166.5,-1124"/>
<text text-anchor="start" x="85.5" y="-1111.5" font-family="Helvetica,sans-Serif" font-size="10.00">BPMN::Element</text>
<text text-anchor="start" x="121.5" y="-1096.5" font-family="Helvetica,sans-Serif" font-size="10.00"> </text>
<text text-anchor="start" x="85.5" y="-1081.5" font-family="Helvetica,sans-Serif" font-size="10.00">+</text>
<text text-anchor="start" x="99.5" y="-1081.5" font-family="Helvetica,sans-Serif" font-size="10.00">~Element()</text>
<text text-anchor="start" x="85.5" y="-1066.5" font-family="Helvetica,sans-Serif" font-size="10.00">+</text>
<text text-anchor="start" x="99.5" y="-1066.5" font-family="Helvetica,sans-Serif" font-size="10.00">represents()</text>
<text text-anchor="start" x="85.5" y="-1051.5" font-family="Helvetica,sans-Serif" font-size="10.00">+</text>
<text text-anchor="start" x="99.5" y="-1051.5" font-family="Helvetica,sans-Serif" font-size="10.00">represents()</text>
<text text-anchor="start" x="85.5" y="-1036.5" font-family="Helvetica,sans-Serif" font-size="10.00">+</text>
<text text-anchor="start" x="99.5" y="-1036.5" font-family="Helvetica,sans-Serif" font-size="10.00">as()</text>
<text text-anchor="start" x="85.5" y="-1021.5" font-family="Helvetica,sans-Serif" font-size="10.00">+</text>
<text text-anchor="start" x="99.5" y="-1021.5" font-family="Helvetica,sans-Serif" font-size="10.00">as()</text>
<polygon fill="#666666" stroke="#666666" points="80.5,-1106.5 80.5,-1106.5 166.5,-1106.5 166.5,-1106.5 80.5,-1106.5"/>
<polygon fill="#666666" stroke="#666666" points="80.5,-1091.5 80.5,-1091.5 166.5,-1091.5 166.5,-1091.5 80.5,-1091.5"/>
<polygon fill="none" stroke="#666666" points="80.5,-1015 80.5,-1124 166.5,-1124 166.5,-1015 80.5,-1015"/>
</a>
</g>
</g>
<!-- Node8&#45;&gt;Node7 -->
<g id="edge7_Node000007_Node000008" class="edge">
<title>Node8&#45;&gt;Node7</title>
<g id="a_edge7_Node000007_Node000008"><a xlink:title=" ">
<path fill="none" stroke="#63b8ff" d="M123.5,-1004.55C123.5,-996.23 123.5,-987.67 123.5,-979.28"/>
<polygon fill="none" stroke="#63b8ff" points="120,-1004.57 123.5,-1014.57 127,-1004.57 120,-1004.57"/>
</a>
</g>
</g>
<!-- Node9&#45;&gt;Node2 -->
<g id="edge8_Node000002_Node000009" class="edge">
<title>Node9&#45;&gt;Node2</title>
<g id="a_edge8_Node000002_Node000009"><a xlink:title=" ">
<path fill="none" stroke="#63b8ff" d="M179.18,-320.05C170.14,-277.65 158.83,-228.79 146.5,-185 143.17,-173.16 138.93,-160.35 135,-149.13"/>
<polygon fill="none" stroke="#63b8ff" points="175.76,-320.77 181.25,-329.83 182.6,-319.32 175.76,-320.77"/>
</a>
</g>
</g>
</g>
</svg>
