<?xml version="1.0" encoding="UTF-8" standalone="no"?>
<!DOCTYPE svg PUBLIC "-//W3C//DTD SVG 1.1//EN"
 "http://www.w3.org/Graphics/SVG/1.1/DTD/svg11.dtd">
<!-- Generated by graphviz version 2.43.0 (0)
 -->
<!-- Title: BPMN::InclusiveGateway Pages: 1 -->
<svg width="147pt" height="673pt"
 viewBox="0.00 0.00 147.00 673.00" xmlns="http://www.w3.org/2000/svg" xmlns:xlink="http://www.w3.org/1999/xlink">
<g id="graph0" class="graph" transform="scale(1 1) rotate(0) translate(4 669)">
<title>BPMN::InclusiveGateway</title>
<!-- Node1 -->
<g id="node1" class="node">
<title>Node1</title>
<g id="a_node1"><a xlink:title=" ">
<polygon fill="#bfbfbf" stroke="black" points="0,-0.5 0,-68.5 139,-68.5 139,-0.5 0,-0.5"/>
<text text-anchor="middle" x="69.5" y="-56.5" font-family="Helvetica,sans-Serif" font-size="10.00">BPMN::InclusiveGateway</text>
<polyline fill="none" stroke="black" points="0,-49.5 139,-49.5 "/>
<text text-anchor="start" x="8" y="-37.5" font-family="Helvetica,sans-Serif" font-size="10.00">+ element</text>
<text text-anchor="start" x="8" y="-26.5" font-family="Helvetica,sans-Serif" font-size="10.00">+ defaultFlow</text>
<polyline fill="none" stroke="black" points="0,-19.5 139,-19.5 "/>
<text text-anchor="start" x="8" y="-7.5" font-family="Helvetica,sans-Serif" font-size="10.00">+ InclusiveGateway()</text>
</a>
</g>
</g>
<!-- Node2 -->
<g id="node2" class="node">
<title>Node2</title>
<g id="a_node2"><a xlink:href="classBPMN_1_1Gateway.html" target="_top" xlink:title=" ">
<polygon fill="none" stroke="black" points="22,-105.5 22,-162.5 117,-162.5 117,-105.5 22,-105.5"/>
<text text-anchor="middle" x="69.5" y="-150.5" font-family="Helvetica,sans-Serif" font-size="10.00">BPMN::Gateway</text>
<polyline fill="none" stroke="black" points="22,-143.5 117,-143.5 "/>
<text text-anchor="start" x="30" y="-131.5" font-family="Helvetica,sans-Serif" font-size="10.00">+ element</text>
<polyline fill="none" stroke="black" points="22,-124.5 117,-124.5 "/>
<text text-anchor="start" x="30" y="-112.5" font-family="Helvetica,sans-Serif" font-size="10.00">+ Gateway()</text>
</a>
</g>
</g>
<!-- Node2&#45;&gt;Node1 -->
<g id="edge1" class="edge">
<title>Node2&#45;&gt;Node1</title>
<path fill="none" stroke="midnightblue" d="M69.5,-95.06C69.5,-86.39 69.5,-77.24 69.5,-68.79"/>
<polygon fill="none" stroke="midnightblue" points="66,-95.32 69.5,-105.32 73,-95.32 66,-95.32"/>
</g>
<!-- Node3 -->
<g id="node3" class="node">
<title>Node3</title>
<g id="a_node3"><a xlink:href="classBPMN_1_1FlowNode.html" target="_top" xlink:title="Represents a flow node in a BPMN process.">
<polygon fill="none" stroke="black" points="19,-199.5 19,-289.5 120,-289.5 120,-199.5 19,-199.5"/>
<text text-anchor="middle" x="69.5" y="-277.5" font-family="Helvetica,sans-Serif" font-size="10.00">BPMN::FlowNode</text>
<polyline fill="none" stroke="black" points="19,-270.5 120,-270.5 "/>
<text text-anchor="start" x="27" y="-258.5" font-family="Helvetica,sans-Serif" font-size="10.00">+ element</text>
<text text-anchor="start" x="27" y="-247.5" font-family="Helvetica,sans-Serif" font-size="10.00">+ name</text>
<text text-anchor="start" x="27" y="-236.5" font-family="Helvetica,sans-Serif" font-size="10.00">+ incoming</text>
<text text-anchor="start" x="27" y="-225.5" font-family="Helvetica,sans-Serif" font-size="10.00">+ outgoing</text>
<polyline fill="none" stroke="black" points="19,-218.5 120,-218.5 "/>
<text text-anchor="start" x="27" y="-206.5" font-family="Helvetica,sans-Serif" font-size="10.00">+ FlowNode()</text>
</a>
</g>
</g>
<!-- Node3&#45;&gt;Node2 -->
<g id="edge2" class="edge">
<title>Node3&#45;&gt;Node2</title>
<path fill="none" stroke="midnightblue" d="M69.5,-189.35C69.5,-180.07 69.5,-170.79 69.5,-162.59"/>
<polygon fill="none" stroke="midnightblue" points="66,-189.37 69.5,-199.37 73,-189.37 66,-189.37"/>
</g>
<!-- Node4 -->
<g id="node4" class="node">
<title>Node4</title>
<g id="a_node4"><a xlink:href="classBPMN_1_1ChildNode.html" target="_top" xlink:title="Represents a node in a BPMN process that has a parent.">
<polygon fill="none" stroke="black" points="18.5,-326.5 18.5,-383.5 120.5,-383.5 120.5,-326.5 18.5,-326.5"/>
<text text-anchor="middle" x="69.5" y="-371.5" font-family="Helvetica,sans-Serif" font-size="10.00">BPMN::ChildNode</text>
<polyline fill="none" stroke="black" points="18.5,-364.5 120.5,-364.5 "/>
<text text-anchor="start" x="26.5" y="-352.5" font-family="Helvetica,sans-Serif" font-size="10.00">+ parent</text>
<polyline fill="none" stroke="black" points="18.5,-345.5 120.5,-345.5 "/>
<text text-anchor="start" x="26.5" y="-333.5" font-family="Helvetica,sans-Serif" font-size="10.00">+ ChildNode()</text>
</a>
</g>
</g>
<!-- Node4&#45;&gt;Node3 -->
<g id="edge3" class="edge">
<title>Node4&#45;&gt;Node3</title>
<path fill="none" stroke="midnightblue" d="M69.5,-316.21C69.5,-307.61 69.5,-298.39 69.5,-289.55"/>
<polygon fill="none" stroke="midnightblue" points="66,-316.34 69.5,-326.34 73,-316.34 66,-316.34"/>
</g>
<!-- Node5 -->
<g id="node5" class="node">
<title>Node5</title>
<g id="a_node5"><a xlink:href="classBPMN_1_1Node.html" target="_top" xlink:title="Represents a node in a BPMN process.">
<polygon fill="none" stroke="black" points="8.5,-420.5 8.5,-664.5 130.5,-664.5 130.5,-420.5 8.5,-420.5"/>
<text text-anchor="middle" x="69.5" y="-652.5" font-family="Helvetica,sans-Serif" font-size="10.00">BPMN::Node</text>
<polyline fill="none" stroke="black" points="8.5,-645.5 130.5,-645.5 "/>
<text text-anchor="start" x="16.5" y="-633.5" font-family="Helvetica,sans-Serif" font-size="10.00">+ id</text>
<text text-anchor="start" x="16.5" y="-622.5" font-family="Helvetica,sans-Serif" font-size="10.00">+ receiving</text>
<text text-anchor="start" x="16.5" y="-611.5" font-family="Helvetica,sans-Serif" font-size="10.00">+ sending</text>
<text text-anchor="start" x="16.5" y="-600.5" font-family="Helvetica,sans-Serif" font-size="10.00">+ element</text>
<text text-anchor="start" x="16.5" y="-589.5" font-family="Helvetica,sans-Serif" font-size="10.00">+ extensionElements</text>
<polyline fill="none" stroke="black" points="8.5,-582.5 130.5,-582.5 "/>
<text text-anchor="start" x="16.5" y="-570.5" font-family="Helvetica,sans-Serif" font-size="10.00">+ Node()</text>
<text text-anchor="start" x="16.5" y="-559.5" font-family="Helvetica,sans-Serif" font-size="10.00">+ ~Node()</text>
<text text-anchor="start" x="16.5" y="-548.5" font-family="Helvetica,sans-Serif" font-size="10.00">+ is()</text>
<text text-anchor="start" x="16.5" y="-537.5" font-family="Helvetica,sans-Serif" font-size="10.00">+ is()</text>
<text text-anchor="start" x="16.5" y="-526.5" font-family="Helvetica,sans-Serif" font-size="10.00">+ get()</text>
<text text-anchor="start" x="16.5" y="-515.5" font-family="Helvetica,sans-Serif" font-size="10.00">+ get()</text>
<text text-anchor="start" x="16.5" y="-504.5" font-family="Helvetica,sans-Serif" font-size="10.00">+ represents()</text>
<text text-anchor="start" x="16.5" y="-493.5" font-family="Helvetica,sans-Serif" font-size="10.00">+ represents()</text>
<text text-anchor="start" x="16.5" y="-482.5" font-family="Helvetica,sans-Serif" font-size="10.00">+ as()</text>
<text text-anchor="start" x="16.5" y="-471.5" font-family="Helvetica,sans-Serif" font-size="10.00">+ as()</text>
<text text-anchor="start" x="16.5" y="-460.5" font-family="Helvetica,sans-Serif" font-size="10.00">+ find()</text>
<text text-anchor="start" x="16.5" y="-449.5" font-family="Helvetica,sans-Serif" font-size="10.00">+ find()</text>
<text text-anchor="start" x="16.5" y="-438.5" font-family="Helvetica,sans-Serif" font-size="10.00">+ find_all()</text>
<text text-anchor="start" x="16.5" y="-427.5" font-family="Helvetica,sans-Serif" font-size="10.00">+ find_all()</text>
</a>
</g>
</g>
<!-- Node5&#45;&gt;Node4 -->
<g id="edge4" class="edge">
<title>Node5&#45;&gt;Node4</title>
<path fill="none" stroke="midnightblue" d="M69.5,-410.34C69.5,-400.53 69.5,-391.42 69.5,-383.57"/>
<polygon fill="none" stroke="midnightblue" points="66,-410.36 69.5,-420.36 73,-410.36 66,-410.36"/>
</g>
</g>
</svg>
