<?xml version="1.0" encoding="UTF-8" standalone="no"?>
<!DOCTYPE svg PUBLIC "-//W3C//DTD SVG 1.1//EN"
 "http://www.w3.org/Graphics/SVG/1.1/DTD/svg11.dtd">
<!-- Generated by graphviz version 2.43.0 (0)
 -->
<!-- Title: XML::bpmn::tGlobalChoreographyTask Pages: 1 -->
<svg width="211pt" height="1070pt"
 viewBox="0.00 0.00 211.00 1070.00" xmlns="http://www.w3.org/2000/svg" xmlns:xlink="http://www.w3.org/1999/xlink">
<g id="graph0" class="graph" transform="scale(1 1) rotate(0) translate(4 1066)">
<title>XML::bpmn::tGlobalChoreographyTask</title>
<!-- Node1 -->
<g id="node1" class="node">
<title>Node1</title>
<g id="a_node1"><a xlink:title=" ">
<polygon fill="#bfbfbf" stroke="black" points="0,-94.5 0,-162.5 203,-162.5 203,-94.5 0,-94.5"/>
<text text-anchor="middle" x="101.5" y="-150.5" font-family="Helvetica,sans-Serif" font-size="10.00">XML::bpmn::tGlobalChoreographyTask</text>
<polyline fill="none" stroke="black" points="0,-143.5 203,-143.5 "/>
<text text-anchor="start" x="8" y="-131.5" font-family="Helvetica,sans-Serif" font-size="10.00">+ initiatingParticipantRef</text>
<text text-anchor="start" x="8" y="-120.5" font-family="Helvetica,sans-Serif" font-size="10.00">+ defaults</text>
<polyline fill="none" stroke="black" points="0,-113.5 203,-113.5 "/>
<text text-anchor="start" x="8" y="-101.5" font-family="Helvetica,sans-Serif" font-size="10.00"># tGlobalChoreographyTask()</text>
</a>
</g>
</g>
<!-- Node7 -->
<g id="node7" class="node">
<title>Node7</title>
<g id="a_node7"><a xlink:href="classXML_1_1bpmn_1_1globalChoreographyTask.html" target="_top" xlink:title=" ">
<polygon fill="none" stroke="black" points="3,-0.5 3,-57.5 200,-57.5 200,-0.5 3,-0.5"/>
<text text-anchor="middle" x="101.5" y="-45.5" font-family="Helvetica,sans-Serif" font-size="10.00">XML::bpmn::globalChoreographyTask</text>
<polyline fill="none" stroke="black" points="3,-38.5 200,-38.5 "/>
<text text-anchor="start" x="11" y="-26.5" font-family="Helvetica,sans-Serif" font-size="10.00">+ defaults</text>
<polyline fill="none" stroke="black" points="3,-19.5 200,-19.5 "/>
<text text-anchor="start" x="11" y="-7.5" font-family="Helvetica,sans-Serif" font-size="10.00"># globalChoreographyTask()</text>
</a>
</g>
</g>
<!-- Node1&#45;&gt;Node7 -->
<g id="edge6" class="edge">
<title>Node1&#45;&gt;Node7</title>
<path fill="none" stroke="midnightblue" d="M101.5,-84.45C101.5,-75.4 101.5,-66.09 101.5,-57.78"/>
<polygon fill="none" stroke="midnightblue" points="98,-84.49 101.5,-94.49 105,-84.49 98,-84.49"/>
</g>
<!-- Node2 -->
<g id="node2" class="node">
<title>Node2</title>
<g id="a_node2"><a xlink:href="classXML_1_1bpmn_1_1tChoreography.html" target="_top" xlink:title=" ">
<polygon fill="none" stroke="black" points="27,-199.5 27,-267.5 176,-267.5 176,-199.5 27,-199.5"/>
<text text-anchor="middle" x="101.5" y="-255.5" font-family="Helvetica,sans-Serif" font-size="10.00">XML::bpmn::tChoreography</text>
<polyline fill="none" stroke="black" points="27,-248.5 176,-248.5 "/>
<text text-anchor="start" x="35" y="-236.5" font-family="Helvetica,sans-Serif" font-size="10.00">+ flowElement</text>
<text text-anchor="start" x="35" y="-225.5" font-family="Helvetica,sans-Serif" font-size="10.00">+ defaults</text>
<polyline fill="none" stroke="black" points="27,-218.5 176,-218.5 "/>
<text text-anchor="start" x="35" y="-206.5" font-family="Helvetica,sans-Serif" font-size="10.00"># tChoreography()</text>
</a>
</g>
</g>
<!-- Node2&#45;&gt;Node1 -->
<g id="edge1" class="edge">
<title>Node2&#45;&gt;Node1</title>
<path fill="none" stroke="midnightblue" d="M101.5,-189.14C101.5,-180.26 101.5,-171.04 101.5,-162.59"/>
<polygon fill="none" stroke="midnightblue" points="98,-189.34 101.5,-199.34 105,-189.34 98,-189.34"/>
</g>
<!-- Node3 -->
<g id="node3" class="node">
<title>Node3</title>
<g id="a_node3"><a xlink:href="classXML_1_1bpmn_1_1tCollaboration.html" target="_top" xlink:title=" ">
<polygon fill="none" stroke="black" points="25.5,-304.5 25.5,-493.5 177.5,-493.5 177.5,-304.5 25.5,-304.5"/>
<text text-anchor="middle" x="101.5" y="-481.5" font-family="Helvetica,sans-Serif" font-size="10.00">XML::bpmn::tCollaboration</text>
<polyline fill="none" stroke="black" points="25.5,-474.5 177.5,-474.5 "/>
<text text-anchor="start" x="33.5" y="-462.5" font-family="Helvetica,sans-Serif" font-size="10.00">+ participant</text>
<text text-anchor="start" x="33.5" y="-451.5" font-family="Helvetica,sans-Serif" font-size="10.00">+ messageFlow</text>
<text text-anchor="start" x="33.5" y="-440.5" font-family="Helvetica,sans-Serif" font-size="10.00">+ artifact</text>
<text text-anchor="start" x="33.5" y="-429.5" font-family="Helvetica,sans-Serif" font-size="10.00">+ conversationNode</text>
<text text-anchor="start" x="33.5" y="-418.5" font-family="Helvetica,sans-Serif" font-size="10.00">+ conversationAssociation</text>
<text text-anchor="start" x="33.5" y="-407.5" font-family="Helvetica,sans-Serif" font-size="10.00">+ participantAssociation</text>
<text text-anchor="start" x="33.5" y="-396.5" font-family="Helvetica,sans-Serif" font-size="10.00">+ messageFlowAssociation</text>
<text text-anchor="start" x="33.5" y="-385.5" font-family="Helvetica,sans-Serif" font-size="10.00">+ correlationKey</text>
<text text-anchor="start" x="33.5" y="-374.5" font-family="Helvetica,sans-Serif" font-size="10.00">+ choreographyRef</text>
<text text-anchor="start" x="33.5" y="-363.5" font-family="Helvetica,sans-Serif" font-size="10.00">+ conversationLink</text>
<text text-anchor="start" x="33.5" y="-352.5" font-family="Helvetica,sans-Serif" font-size="10.00">+ name</text>
<text text-anchor="start" x="33.5" y="-341.5" font-family="Helvetica,sans-Serif" font-size="10.00">+ isClosed</text>
<text text-anchor="start" x="33.5" y="-330.5" font-family="Helvetica,sans-Serif" font-size="10.00">+ defaults</text>
<polyline fill="none" stroke="black" points="25.5,-323.5 177.5,-323.5 "/>
<text text-anchor="start" x="33.5" y="-311.5" font-family="Helvetica,sans-Serif" font-size="10.00"># tCollaboration()</text>
</a>
</g>
</g>
<!-- Node3&#45;&gt;Node2 -->
<g id="edge2" class="edge">
<title>Node3&#45;&gt;Node2</title>
<path fill="none" stroke="midnightblue" d="M101.5,-294.27C101.5,-284.75 101.5,-275.67 101.5,-267.58"/>
<polygon fill="none" stroke="midnightblue" points="98,-294.31 101.5,-304.31 105,-294.31 98,-294.31"/>
</g>
<!-- Node4 -->
<g id="node4" class="node">
<title>Node4</title>
<g id="a_node4"><a xlink:href="classXML_1_1bpmn_1_1tRootElement.html" target="_top" xlink:title=" ">
<polygon fill="none" stroke="black" points="29.5,-530.5 29.5,-587.5 173.5,-587.5 173.5,-530.5 29.5,-530.5"/>
<text text-anchor="middle" x="101.5" y="-575.5" font-family="Helvetica,sans-Serif" font-size="10.00">XML::bpmn::tRootElement</text>
<polyline fill="none" stroke="black" points="29.5,-568.5 173.5,-568.5 "/>
<text text-anchor="start" x="37.5" y="-556.5" font-family="Helvetica,sans-Serif" font-size="10.00">+ defaults</text>
<polyline fill="none" stroke="black" points="29.5,-549.5 173.5,-549.5 "/>
<text text-anchor="start" x="37.5" y="-537.5" font-family="Helvetica,sans-Serif" font-size="10.00"># tRootElement()</text>
</a>
</g>
</g>
<!-- Node4&#45;&gt;Node3 -->
<g id="edge3" class="edge">
<title>Node4&#45;&gt;Node3</title>
<path fill="none" stroke="midnightblue" d="M101.5,-520.22C101.5,-512.01 101.5,-502.99 101.5,-493.68"/>
<polygon fill="none" stroke="midnightblue" points="98,-520.48 101.5,-530.48 105,-520.48 98,-520.48"/>
</g>
<!-- Node5 -->
<g id="node5" class="node">
<title>Node5</title>
<g id="a_node5"><a xlink:href="classXML_1_1bpmn_1_1tBaseElement.html" target="_top" xlink:title=" ">
<polygon fill="none" stroke="black" points="28.5,-624.5 28.5,-714.5 174.5,-714.5 174.5,-624.5 28.5,-624.5"/>
<text text-anchor="middle" x="101.5" y="-702.5" font-family="Helvetica,sans-Serif" font-size="10.00">XML::bpmn::tBaseElement</text>
<polyline fill="none" stroke="black" points="28.5,-695.5 174.5,-695.5 "/>
<text text-anchor="start" x="36.5" y="-683.5" font-family="Helvetica,sans-Serif" font-size="10.00">+ documentation</text>
<text text-anchor="start" x="36.5" y="-672.5" font-family="Helvetica,sans-Serif" font-size="10.00">+ extensionElements</text>
<text text-anchor="start" x="36.5" y="-661.5" font-family="Helvetica,sans-Serif" font-size="10.00">+ id</text>
<text text-anchor="start" x="36.5" y="-650.5" font-family="Helvetica,sans-Serif" font-size="10.00">+ defaults</text>
<polyline fill="none" stroke="black" points="28.5,-643.5 174.5,-643.5 "/>
<text text-anchor="start" x="36.5" y="-631.5" font-family="Helvetica,sans-Serif" font-size="10.00"># tBaseElement()</text>
</a>
</g>
</g>
<!-- Node5&#45;&gt;Node4 -->
<g id="edge4" class="edge">
<title>Node5&#45;&gt;Node4</title>
<path fill="none" stroke="midnightblue" d="M101.5,-614.35C101.5,-605.07 101.5,-595.79 101.5,-587.59"/>
<polygon fill="none" stroke="midnightblue" points="98,-614.37 101.5,-624.37 105,-614.37 98,-614.37"/>
</g>
<!-- Node6 -->
<g id="node6" class="node">
<title>Node6</title>
<g id="a_node6"><a xlink:href="classXML_1_1XMLObject.html" target="_top" xlink:title="A class representing a node in an XML&#45;tree.">
<polygon fill="none" stroke="black" points="38.5,-751.5 38.5,-1061.5 164.5,-1061.5 164.5,-751.5 38.5,-751.5"/>
<text text-anchor="middle" x="101.5" y="-1049.5" font-family="Helvetica,sans-Serif" font-size="10.00">XML::XMLObject</text>
<polyline fill="none" stroke="black" points="38.5,-1042.5 164.5,-1042.5 "/>
<text text-anchor="start" x="46.5" y="-1030.5" font-family="Helvetica,sans-Serif" font-size="10.00">+ xmlns</text>
<text text-anchor="start" x="46.5" y="-1019.5" font-family="Helvetica,sans-Serif" font-size="10.00">+ className</text>
<text text-anchor="start" x="46.5" y="-1008.5" font-family="Helvetica,sans-Serif" font-size="10.00">+ prefix</text>
<text text-anchor="start" x="46.5" y="-997.5" font-family="Helvetica,sans-Serif" font-size="10.00">+ elementName</text>
<text text-anchor="start" x="46.5" y="-986.5" font-family="Helvetica,sans-Serif" font-size="10.00">+ textContent</text>
<text text-anchor="start" x="46.5" y="-975.5" font-family="Helvetica,sans-Serif" font-size="10.00">+ children</text>
<text text-anchor="start" x="46.5" y="-964.5" font-family="Helvetica,sans-Serif" font-size="10.00">+ attributes</text>
<text text-anchor="start" x="46.5" y="-953.5" font-family="Helvetica,sans-Serif" font-size="10.00">+ defaults</text>
<text text-anchor="start" x="46.5" y="-942.5" font-family="Helvetica,sans-Serif" font-size="10.00"># factory</text>
<polyline fill="none" stroke="black" points="38.5,-935.5 164.5,-935.5 "/>
<text text-anchor="start" x="46.5" y="-923.5" font-family="Helvetica,sans-Serif" font-size="10.00">+ ~XMLObject()</text>
<text text-anchor="start" x="46.5" y="-912.5" font-family="Helvetica,sans-Serif" font-size="10.00">+ is()</text>
<text text-anchor="start" x="46.5" y="-901.5" font-family="Helvetica,sans-Serif" font-size="10.00">+ is()</text>
<text text-anchor="start" x="46.5" y="-890.5" font-family="Helvetica,sans-Serif" font-size="10.00">+ get()</text>
<text text-anchor="start" x="46.5" y="-879.5" font-family="Helvetica,sans-Serif" font-size="10.00">+ get()</text>
<text text-anchor="start" x="46.5" y="-868.5" font-family="Helvetica,sans-Serif" font-size="10.00">+ find()</text>
<text text-anchor="start" x="46.5" y="-857.5" font-family="Helvetica,sans-Serif" font-size="10.00">+ find()</text>
<text text-anchor="start" x="46.5" y="-846.5" font-family="Helvetica,sans-Serif" font-size="10.00">+ stringify()</text>
<text text-anchor="start" x="46.5" y="-835.5" font-family="Helvetica,sans-Serif" font-size="10.00">+ getRequiredChild()</text>
<text text-anchor="start" x="46.5" y="-824.5" font-family="Helvetica,sans-Serif" font-size="10.00">+ getOptionalChild()</text>
<text text-anchor="start" x="46.5" y="-813.5" font-family="Helvetica,sans-Serif" font-size="10.00">and 6 more...</text>
<text text-anchor="start" x="46.5" y="-802.5" font-family="Helvetica,sans-Serif" font-size="10.00">+ createFromStream()</text>
<text text-anchor="start" x="46.5" y="-791.5" font-family="Helvetica,sans-Serif" font-size="10.00">+ createFromString()</text>
<text text-anchor="start" x="46.5" y="-780.5" font-family="Helvetica,sans-Serif" font-size="10.00">+ createFromFile()</text>
<text text-anchor="start" x="46.5" y="-769.5" font-family="Helvetica,sans-Serif" font-size="10.00"># XMLObject()</text>
<text text-anchor="start" x="46.5" y="-758.5" font-family="Helvetica,sans-Serif" font-size="10.00"># createObject()</text>
</a>
</g>
</g>
<!-- Node6&#45;&gt;Node5 -->
<g id="edge5" class="edge">
<title>Node6&#45;&gt;Node5</title>
<path fill="none" stroke="midnightblue" d="M101.5,-741.35C101.5,-731.89 101.5,-722.91 101.5,-714.72"/>
<polygon fill="none" stroke="midnightblue" points="98,-741.37 101.5,-751.37 105,-741.37 98,-741.37"/>
</g>
</g>
</svg>
