<?xml version="1.0" encoding="UTF-8" standalone="no"?>
<!DOCTYPE svg PUBLIC "-//W3C//DTD SVG 1.1//EN"
 "http://www.w3.org/Graphics/SVG/1.1/DTD/svg11.dtd">
<!-- Generated by graphviz version 2.43.0 (0)
 -->
<!-- Title: BPMN::CompensateStartEvent Pages: 1 -->
<svg width="172pt" height="850pt"
 viewBox="0.00 0.00 172.00 850.00" xmlns="http://www.w3.org/2000/svg" xmlns:xlink="http://www.w3.org/1999/xlink">
<g id="graph0" class="graph" transform="scale(1 1) rotate(0) translate(4 846)">
<title>BPMN::CompensateStartEvent</title>
<!-- Node1 -->
<g id="node1" class="node">
<title>Node1</title>
<g id="a_node1"><a xlink:title=" ">
<polygon fill="#bfbfbf" stroke="black" points="0,-0.5 0,-57.5 164,-57.5 164,-0.5 0,-0.5"/>
<text text-anchor="middle" x="82" y="-45.5" font-family="Helvetica,sans-Serif" font-size="10.00">BPMN::CompensateStartEvent</text>
<polyline fill="none" stroke="black" points="0,-38.5 164,-38.5 "/>
<text text-anchor="start" x="8" y="-26.5" font-family="Helvetica,sans-Serif" font-size="10.00">+ element</text>
<polyline fill="none" stroke="black" points="0,-19.5 164,-19.5 "/>
<text text-anchor="start" x="8" y="-7.5" font-family="Helvetica,sans-Serif" font-size="10.00">+ CompensateStartEvent()</text>
</a>
</g>
</g>
<!-- Node2 -->
<g id="node2" class="node">
<title>Node2</title>
<g id="a_node2"><a xlink:href="classBPMN_1_1TypedStartEvent.html" target="_top" xlink:title="Base class for all start events with an event definition.">
<polygon fill="none" stroke="black" points="16.5,-94.5 16.5,-151.5 147.5,-151.5 147.5,-94.5 16.5,-94.5"/>
<text text-anchor="middle" x="82" y="-139.5" font-family="Helvetica,sans-Serif" font-size="10.00">BPMN::TypedStartEvent</text>
<polyline fill="none" stroke="black" points="16.5,-132.5 147.5,-132.5 "/>
<text text-anchor="start" x="24.5" y="-120.5" font-family="Helvetica,sans-Serif" font-size="10.00">+ isInterrupting</text>
<polyline fill="none" stroke="black" points="16.5,-113.5 147.5,-113.5 "/>
<text text-anchor="start" x="24.5" y="-101.5" font-family="Helvetica,sans-Serif" font-size="10.00">+ TypedStartEvent()</text>
</a>
</g>
</g>
<!-- Node2&#45;&gt;Node1 -->
<g id="edge1" class="edge">
<title>Node2&#45;&gt;Node1</title>
<path fill="none" stroke="midnightblue" d="M82,-84.21C82,-75.29 82,-65.95 82,-57.58"/>
<polygon fill="none" stroke="midnightblue" points="78.5,-84.4 82,-94.4 85.5,-84.4 78.5,-84.4"/>
</g>
<!-- Node3 -->
<g id="node3" class="node">
<title>Node3</title>
<g id="a_node3"><a xlink:href="classBPMN_1_1CatchEvent.html" target="_top" xlink:title=" ">
<polygon fill="none" stroke="black" points="28.5,-188.5 28.5,-245.5 135.5,-245.5 135.5,-188.5 28.5,-188.5"/>
<text text-anchor="middle" x="82" y="-233.5" font-family="Helvetica,sans-Serif" font-size="10.00">BPMN::CatchEvent</text>
<polyline fill="none" stroke="black" points="28.5,-226.5 135.5,-226.5 "/>
<text text-anchor="start" x="36.5" y="-214.5" font-family="Helvetica,sans-Serif" font-size="10.00">+ element</text>
<polyline fill="none" stroke="black" points="28.5,-207.5 135.5,-207.5 "/>
<text text-anchor="start" x="36.5" y="-195.5" font-family="Helvetica,sans-Serif" font-size="10.00">+ CatchEvent()</text>
</a>
</g>
</g>
<!-- Node3&#45;&gt;Node2 -->
<g id="edge2" class="edge">
<title>Node3&#45;&gt;Node2</title>
<path fill="none" stroke="midnightblue" d="M82,-178.21C82,-169.29 82,-159.95 82,-151.58"/>
<polygon fill="none" stroke="midnightblue" points="78.5,-178.4 82,-188.4 85.5,-178.4 78.5,-178.4"/>
</g>
<!-- Node4 -->
<g id="node4" class="node">
<title>Node4</title>
<g id="a_node4"><a xlink:href="classBPMN_1_1Event.html" target="_top" xlink:title=" ">
<polygon fill="none" stroke="black" points="42,-282.5 42,-339.5 122,-339.5 122,-282.5 42,-282.5"/>
<text text-anchor="middle" x="82" y="-327.5" font-family="Helvetica,sans-Serif" font-size="10.00">BPMN::Event</text>
<polyline fill="none" stroke="black" points="42,-320.5 122,-320.5 "/>
<text text-anchor="start" x="50" y="-308.5" font-family="Helvetica,sans-Serif" font-size="10.00">+ element</text>
<polyline fill="none" stroke="black" points="42,-301.5 122,-301.5 "/>
<text text-anchor="start" x="50" y="-289.5" font-family="Helvetica,sans-Serif" font-size="10.00">+ Event()</text>
</a>
</g>
</g>
<!-- Node4&#45;&gt;Node3 -->
<g id="edge3" class="edge">
<title>Node4&#45;&gt;Node3</title>
<path fill="none" stroke="midnightblue" d="M82,-272.21C82,-263.29 82,-253.95 82,-245.58"/>
<polygon fill="none" stroke="midnightblue" points="78.5,-272.4 82,-282.4 85.5,-272.4 78.5,-272.4"/>
</g>
<!-- Node5 -->
<g id="node5" class="node">
<title>Node5</title>
<g id="a_node5"><a xlink:href="classBPMN_1_1FlowNode.html" target="_top" xlink:title="Base class for BPMN elements that may contain incoming and outgoing SequenceFlow elements.">
<polygon fill="none" stroke="black" points="31.5,-376.5 31.5,-466.5 132.5,-466.5 132.5,-376.5 31.5,-376.5"/>
<text text-anchor="middle" x="82" y="-454.5" font-family="Helvetica,sans-Serif" font-size="10.00">BPMN::FlowNode</text>
<polyline fill="none" stroke="black" points="31.5,-447.5 132.5,-447.5 "/>
<text text-anchor="start" x="39.5" y="-435.5" font-family="Helvetica,sans-Serif" font-size="10.00">+ element</text>
<text text-anchor="start" x="39.5" y="-424.5" font-family="Helvetica,sans-Serif" font-size="10.00">+ name</text>
<text text-anchor="start" x="39.5" y="-413.5" font-family="Helvetica,sans-Serif" font-size="10.00">+ incoming</text>
<text text-anchor="start" x="39.5" y="-402.5" font-family="Helvetica,sans-Serif" font-size="10.00">+ outgoing</text>
<polyline fill="none" stroke="black" points="31.5,-395.5 132.5,-395.5 "/>
<text text-anchor="start" x="39.5" y="-383.5" font-family="Helvetica,sans-Serif" font-size="10.00">+ FlowNode()</text>
</a>
</g>
</g>
<!-- Node5&#45;&gt;Node4 -->
<g id="edge4" class="edge">
<title>Node5&#45;&gt;Node4</title>
<path fill="none" stroke="midnightblue" d="M82,-366.35C82,-357.07 82,-347.79 82,-339.59"/>
<polygon fill="none" stroke="midnightblue" points="78.5,-366.37 82,-376.37 85.5,-366.37 78.5,-366.37"/>
</g>
<!-- Node6 -->
<g id="node6" class="node">
<title>Node6</title>
<g id="a_node6"><a xlink:href="classBPMN_1_1ChildNode.html" target="_top" xlink:title="Base class for BPMN elements within a Scope.">
<polygon fill="none" stroke="black" points="31,-503.5 31,-560.5 133,-560.5 133,-503.5 31,-503.5"/>
<text text-anchor="middle" x="82" y="-548.5" font-family="Helvetica,sans-Serif" font-size="10.00">BPMN::ChildNode</text>
<polyline fill="none" stroke="black" points="31,-541.5 133,-541.5 "/>
<text text-anchor="start" x="39" y="-529.5" font-family="Helvetica,sans-Serif" font-size="10.00">+ parent</text>
<polyline fill="none" stroke="black" points="31,-522.5 133,-522.5 "/>
<text text-anchor="start" x="39" y="-510.5" font-family="Helvetica,sans-Serif" font-size="10.00">+ ChildNode()</text>
</a>
</g>
</g>
<!-- Node6&#45;&gt;Node5 -->
<g id="edge5" class="edge">
<title>Node6&#45;&gt;Node5</title>
<path fill="none" stroke="midnightblue" d="M82,-493.21C82,-484.61 82,-475.39 82,-466.55"/>
<polygon fill="none" stroke="midnightblue" points="78.5,-493.34 82,-503.34 85.5,-493.34 78.5,-493.34"/>
</g>
<!-- Node7 -->
<g id="node7" class="node">
<title>Node7</title>
<g id="a_node7"><a xlink:href="classBPMN_1_1Node.html" target="_top" xlink:title="Base class for all elements in a BPMN model.">
<polygon fill="none" stroke="black" points="21,-597.5 21,-841.5 143,-841.5 143,-597.5 21,-597.5"/>
<text text-anchor="middle" x="82" y="-829.5" font-family="Helvetica,sans-Serif" font-size="10.00">BPMN::Node</text>
<polyline fill="none" stroke="black" points="21,-822.5 143,-822.5 "/>
<text text-anchor="start" x="29" y="-810.5" font-family="Helvetica,sans-Serif" font-size="10.00">+ id</text>
<text text-anchor="start" x="29" y="-799.5" font-family="Helvetica,sans-Serif" font-size="10.00">+ receiving</text>
<text text-anchor="start" x="29" y="-788.5" font-family="Helvetica,sans-Serif" font-size="10.00">+ sending</text>
<text text-anchor="start" x="29" y="-777.5" font-family="Helvetica,sans-Serif" font-size="10.00">+ element</text>
<text text-anchor="start" x="29" y="-766.5" font-family="Helvetica,sans-Serif" font-size="10.00">+ extensionElements</text>
<polyline fill="none" stroke="black" points="21,-759.5 143,-759.5 "/>
<text text-anchor="start" x="29" y="-747.5" font-family="Helvetica,sans-Serif" font-size="10.00">+ Node()</text>
<text text-anchor="start" x="29" y="-736.5" font-family="Helvetica,sans-Serif" font-size="10.00">+ ~Node()</text>
<text text-anchor="start" x="29" y="-725.5" font-family="Helvetica,sans-Serif" font-size="10.00">+ is()</text>
<text text-anchor="start" x="29" y="-714.5" font-family="Helvetica,sans-Serif" font-size="10.00">+ is()</text>
<text text-anchor="start" x="29" y="-703.5" font-family="Helvetica,sans-Serif" font-size="10.00">+ get()</text>
<text text-anchor="start" x="29" y="-692.5" font-family="Helvetica,sans-Serif" font-size="10.00">+ get()</text>
<text text-anchor="start" x="29" y="-681.5" font-family="Helvetica,sans-Serif" font-size="10.00">+ represents()</text>
<text text-anchor="start" x="29" y="-670.5" font-family="Helvetica,sans-Serif" font-size="10.00">+ represents()</text>
<text text-anchor="start" x="29" y="-659.5" font-family="Helvetica,sans-Serif" font-size="10.00">+ as()</text>
<text text-anchor="start" x="29" y="-648.5" font-family="Helvetica,sans-Serif" font-size="10.00">+ as()</text>
<text text-anchor="start" x="29" y="-637.5" font-family="Helvetica,sans-Serif" font-size="10.00">+ find()</text>
<text text-anchor="start" x="29" y="-626.5" font-family="Helvetica,sans-Serif" font-size="10.00">+ find()</text>
<text text-anchor="start" x="29" y="-615.5" font-family="Helvetica,sans-Serif" font-size="10.00">+ find_all()</text>
<text text-anchor="start" x="29" y="-604.5" font-family="Helvetica,sans-Serif" font-size="10.00">+ find_all()</text>
</a>
</g>
</g>
<!-- Node7&#45;&gt;Node6 -->
<g id="edge6" class="edge">
<title>Node7&#45;&gt;Node6</title>
<path fill="none" stroke="midnightblue" d="M82,-587.34C82,-577.53 82,-568.42 82,-560.57"/>
<polygon fill="none" stroke="midnightblue" points="78.5,-587.36 82,-597.36 85.5,-587.36 78.5,-587.36"/>
</g>
</g>
</svg>
