<?xml version="1.0" encoding="UTF-8" standalone="no"?>
<!DOCTYPE svg PUBLIC "-//W3C//DTD SVG 1.1//EN"
 "http://www.w3.org/Graphics/SVG/1.1/DTD/svg11.dtd">
<!-- Generated by graphviz version 2.43.0 (0)
 -->
<!-- Title: BPMN::AdHocSubProcess Pages: 1 -->
<svg width="250pt" height="800pt"
 viewBox="0.00 0.00 249.50 800.00" xmlns="http://www.w3.org/2000/svg" xmlns:xlink="http://www.w3.org/1999/xlink">
<g id="graph0" class="graph" transform="scale(1 1) rotate(0) translate(4 796)">
<title>BPMN::AdHocSubProcess</title>
<!-- Node1 -->
<g id="node1" class="node">
<title>Node1</title>
<g id="a_node1"><a xlink:title=" ">
<polygon fill="#bfbfbf" stroke="black" points="46,-0.5 46,-57.5 185,-57.5 185,-0.5 46,-0.5"/>
<text text-anchor="middle" x="115.5" y="-45.5" font-family="Helvetica,sans-Serif" font-size="10.00">BPMN::AdHocSubProcess</text>
<polyline fill="none" stroke="black" points="46,-38.5 185,-38.5 "/>
<text text-anchor="start" x="54" y="-26.5" font-family="Helvetica,sans-Serif" font-size="10.00">+ element</text>
<polyline fill="none" stroke="black" points="46,-19.5 185,-19.5 "/>
<text text-anchor="start" x="54" y="-7.5" font-family="Helvetica,sans-Serif" font-size="10.00">+ AdHocSubProcess()</text>
</a>
</g>
</g>
<!-- Node2 -->
<g id="node2" class="node">
<title>Node2</title>
<g id="a_node2"><a xlink:href="classBPMN_1_1SubProcess.html" target="_top" xlink:title=" ">
<polygon fill="none" stroke="black" points="62,-94.5 62,-151.5 169,-151.5 169,-94.5 62,-94.5"/>
<text text-anchor="middle" x="115.5" y="-139.5" font-family="Helvetica,sans-Serif" font-size="10.00">BPMN::SubProcess</text>
<polyline fill="none" stroke="black" points="62,-132.5 169,-132.5 "/>
<text text-anchor="start" x="70" y="-120.5" font-family="Helvetica,sans-Serif" font-size="10.00">+ element</text>
<polyline fill="none" stroke="black" points="62,-113.5 169,-113.5 "/>
<text text-anchor="start" x="70" y="-101.5" font-family="Helvetica,sans-Serif" font-size="10.00">+ SubProcess()</text>
</a>
</g>
</g>
<!-- Node2&#45;&gt;Node1 -->
<g id="edge1" class="edge">
<title>Node2&#45;&gt;Node1</title>
<path fill="none" stroke="midnightblue" d="M115.5,-84.21C115.5,-75.29 115.5,-65.95 115.5,-57.58"/>
<polygon fill="none" stroke="midnightblue" points="112,-84.4 115.5,-94.4 119,-84.4 112,-84.4"/>
</g>
<!-- Node3 -->
<g id="node3" class="node">
<title>Node3</title>
<g id="a_node3"><a xlink:href="classBPMN_1_1Activity.html" target="_top" xlink:title=" ">
<polygon fill="none" stroke="black" points="21,-188.5 21,-256.5 128,-256.5 128,-188.5 21,-188.5"/>
<text text-anchor="middle" x="74.5" y="-244.5" font-family="Helvetica,sans-Serif" font-size="10.00">BPMN::Activity</text>
<polyline fill="none" stroke="black" points="21,-237.5 128,-237.5 "/>
<text text-anchor="start" x="29" y="-225.5" font-family="Helvetica,sans-Serif" font-size="10.00">+ boundaryEvents</text>
<text text-anchor="start" x="29" y="-214.5" font-family="Helvetica,sans-Serif" font-size="10.00">+ element</text>
<polyline fill="none" stroke="black" points="21,-207.5 128,-207.5 "/>
<text text-anchor="start" x="29" y="-195.5" font-family="Helvetica,sans-Serif" font-size="10.00">+ Activity()</text>
</a>
</g>
</g>
<!-- Node3&#45;&gt;Node2 -->
<g id="edge2" class="edge">
<title>Node3&#45;&gt;Node2</title>
<path fill="none" stroke="midnightblue" d="M92.36,-179.04C96.24,-169.8 100.25,-160.27 103.82,-151.78"/>
<polygon fill="none" stroke="midnightblue" points="89.03,-177.92 88.38,-188.49 95.48,-180.63 89.03,-177.92"/>
</g>
<!-- Node4 -->
<g id="node4" class="node">
<title>Node4</title>
<g id="a_node4"><a xlink:href="classBPMN_1_1FlowNode.html" target="_top" xlink:title="Represents a flow node in a BPMN process.">
<polygon fill="none" stroke="black" points="0,-315.5 0,-394.5 101,-394.5 101,-315.5 0,-315.5"/>
<text text-anchor="middle" x="50.5" y="-382.5" font-family="Helvetica,sans-Serif" font-size="10.00">BPMN::FlowNode</text>
<polyline fill="none" stroke="black" points="0,-375.5 101,-375.5 "/>
<text text-anchor="start" x="8" y="-363.5" font-family="Helvetica,sans-Serif" font-size="10.00">+ element</text>
<text text-anchor="start" x="8" y="-352.5" font-family="Helvetica,sans-Serif" font-size="10.00">+ incoming</text>
<text text-anchor="start" x="8" y="-341.5" font-family="Helvetica,sans-Serif" font-size="10.00">+ outgoing</text>
<polyline fill="none" stroke="black" points="0,-334.5 101,-334.5 "/>
<text text-anchor="start" x="8" y="-322.5" font-family="Helvetica,sans-Serif" font-size="10.00">+ FlowNode()</text>
</a>
</g>
</g>
<!-- Node4&#45;&gt;Node3 -->
<g id="edge3" class="edge">
<title>Node4&#45;&gt;Node3</title>
<path fill="none" stroke="midnightblue" d="M59.45,-305.32C62.44,-289.1 65.69,-271.4 68.41,-256.64"/>
<polygon fill="none" stroke="midnightblue" points="56,-304.73 57.64,-315.2 62.89,-306 56,-304.73"/>
</g>
<!-- Node5 -->
<g id="node5" class="node">
<title>Node5</title>
<g id="a_node5"><a xlink:href="classBPMN_1_1ChildNode.html" target="_top" xlink:title="Represents a node in a BPMN process that has a parent.">
<polygon fill="none" stroke="black" points="24.5,-453.5 24.5,-510.5 126.5,-510.5 126.5,-453.5 24.5,-453.5"/>
<text text-anchor="middle" x="75.5" y="-498.5" font-family="Helvetica,sans-Serif" font-size="10.00">BPMN::ChildNode</text>
<polyline fill="none" stroke="black" points="24.5,-491.5 126.5,-491.5 "/>
<text text-anchor="start" x="32.5" y="-479.5" font-family="Helvetica,sans-Serif" font-size="10.00">+ parent</text>
<polyline fill="none" stroke="black" points="24.5,-472.5 126.5,-472.5 "/>
<text text-anchor="start" x="32.5" y="-460.5" font-family="Helvetica,sans-Serif" font-size="10.00">+ ChildNode()</text>
</a>
</g>
</g>
<!-- Node5&#45;&gt;Node4 -->
<g id="edge4" class="edge">
<title>Node5&#45;&gt;Node4</title>
<path fill="none" stroke="midnightblue" d="M67.91,-443.06C64.84,-427.7 61.3,-409.99 58.21,-394.57"/>
<polygon fill="none" stroke="midnightblue" points="64.56,-444.14 69.95,-453.26 71.42,-442.77 64.56,-444.14"/>
</g>
<!-- Node6 -->
<g id="node6" class="node">
<title>Node6</title>
<g id="a_node6"><a xlink:href="classBPMN_1_1Node.html" target="_top" xlink:title="Represents a node in a BPMN process.">
<polygon fill="none" stroke="black" points="53.5,-547.5 53.5,-791.5 175.5,-791.5 175.5,-547.5 53.5,-547.5"/>
<text text-anchor="middle" x="114.5" y="-779.5" font-family="Helvetica,sans-Serif" font-size="10.00">BPMN::Node</text>
<polyline fill="none" stroke="black" points="53.5,-772.5 175.5,-772.5 "/>
<text text-anchor="start" x="61.5" y="-760.5" font-family="Helvetica,sans-Serif" font-size="10.00">+ id</text>
<text text-anchor="start" x="61.5" y="-749.5" font-family="Helvetica,sans-Serif" font-size="10.00">+ receiving</text>
<text text-anchor="start" x="61.5" y="-738.5" font-family="Helvetica,sans-Serif" font-size="10.00">+ sending</text>
<text text-anchor="start" x="61.5" y="-727.5" font-family="Helvetica,sans-Serif" font-size="10.00">+ element</text>
<text text-anchor="start" x="61.5" y="-716.5" font-family="Helvetica,sans-Serif" font-size="10.00">+ extensionElements</text>
<polyline fill="none" stroke="black" points="53.5,-709.5 175.5,-709.5 "/>
<text text-anchor="start" x="61.5" y="-697.5" font-family="Helvetica,sans-Serif" font-size="10.00">+ Node()</text>
<text text-anchor="start" x="61.5" y="-686.5" font-family="Helvetica,sans-Serif" font-size="10.00">+ ~Node()</text>
<text text-anchor="start" x="61.5" y="-675.5" font-family="Helvetica,sans-Serif" font-size="10.00">+ is()</text>
<text text-anchor="start" x="61.5" y="-664.5" font-family="Helvetica,sans-Serif" font-size="10.00">+ is()</text>
<text text-anchor="start" x="61.5" y="-653.5" font-family="Helvetica,sans-Serif" font-size="10.00">+ get()</text>
<text text-anchor="start" x="61.5" y="-642.5" font-family="Helvetica,sans-Serif" font-size="10.00">+ get()</text>
<text text-anchor="start" x="61.5" y="-631.5" font-family="Helvetica,sans-Serif" font-size="10.00">+ represents()</text>
<text text-anchor="start" x="61.5" y="-620.5" font-family="Helvetica,sans-Serif" font-size="10.00">+ represents()</text>
<text text-anchor="start" x="61.5" y="-609.5" font-family="Helvetica,sans-Serif" font-size="10.00">+ as()</text>
<text text-anchor="start" x="61.5" y="-598.5" font-family="Helvetica,sans-Serif" font-size="10.00">+ as()</text>
<text text-anchor="start" x="61.5" y="-587.5" font-family="Helvetica,sans-Serif" font-size="10.00">+ find()</text>
<text text-anchor="start" x="61.5" y="-576.5" font-family="Helvetica,sans-Serif" font-size="10.00">+ find()</text>
<text text-anchor="start" x="61.5" y="-565.5" font-family="Helvetica,sans-Serif" font-size="10.00">+ find_all()</text>
<text text-anchor="start" x="61.5" y="-554.5" font-family="Helvetica,sans-Serif" font-size="10.00">+ find_all()</text>
</a>
</g>
</g>
<!-- Node6&#45;&gt;Node5 -->
<g id="edge5" class="edge">
<title>Node6&#45;&gt;Node5</title>
<path fill="none" stroke="midnightblue" d="M86.92,-537.34C84.86,-527.53 82.95,-518.42 81.3,-510.57"/>
<polygon fill="none" stroke="midnightblue" points="83.55,-538.29 89.03,-547.36 90.4,-536.85 83.55,-538.29"/>
</g>
<!-- Node7 -->
<g id="node7" class="node">
<title>Node7</title>
<g id="a_node7"><a xlink:href="classBPMN_1_1Scope.html" target="_top" xlink:title="Represents a node with a scope in a BPMN process.">
<polygon fill="none" stroke="black" points="119.5,-293.5 119.5,-416.5 241.5,-416.5 241.5,-293.5 119.5,-293.5"/>
<text text-anchor="middle" x="180.5" y="-404.5" font-family="Helvetica,sans-Serif" font-size="10.00">BPMN::Scope</text>
<polyline fill="none" stroke="black" points="119.5,-397.5 241.5,-397.5 "/>
<text text-anchor="start" x="127.5" y="-385.5" font-family="Helvetica,sans-Serif" font-size="10.00">+ childNodes</text>
<text text-anchor="start" x="127.5" y="-374.5" font-family="Helvetica,sans-Serif" font-size="10.00">+ flowNodes</text>
<text text-anchor="start" x="127.5" y="-363.5" font-family="Helvetica,sans-Serif" font-size="10.00">+ eventSubProcesses</text>
<text text-anchor="start" x="127.5" y="-352.5" font-family="Helvetica,sans-Serif" font-size="10.00">+ startEvents</text>
<text text-anchor="start" x="127.5" y="-341.5" font-family="Helvetica,sans-Serif" font-size="10.00">+ sequenceFlows</text>
<polyline fill="none" stroke="black" points="119.5,-334.5 241.5,-334.5 "/>
<text text-anchor="start" x="127.5" y="-322.5" font-family="Helvetica,sans-Serif" font-size="10.00">+ Scope()</text>
<text text-anchor="start" x="127.5" y="-311.5" font-family="Helvetica,sans-Serif" font-size="10.00"># add()</text>
<text text-anchor="start" x="127.5" y="-300.5" font-family="Helvetica,sans-Serif" font-size="10.00"># add()</text>
</a>
</g>
</g>
<!-- Node6&#45;&gt;Node7 -->
<g id="edge7" class="edge">
<title>Node6&#45;&gt;Node7</title>
<path fill="none" stroke="midnightblue" d="M142.23,-537.2C151.09,-495.27 160.46,-450.88 167.72,-416.53"/>
<polygon fill="none" stroke="midnightblue" points="138.75,-536.72 140.11,-547.23 145.6,-538.17 138.75,-536.72"/>
</g>
<!-- Node7&#45;&gt;Node2 -->
<g id="edge6" class="edge">
<title>Node7&#45;&gt;Node2</title>
<path fill="none" stroke="midnightblue" d="M162.8,-283.61C155.11,-253.98 145.75,-219.2 136.5,-188 132.95,-176 128.69,-162.85 124.95,-151.61"/>
<polygon fill="none" stroke="midnightblue" points="159.46,-284.64 165.35,-293.44 166.23,-282.89 159.46,-284.64"/>
</g>
</g>
</svg>
