<?xml version="1.0" encoding="UTF-8" standalone="no"?>
<!DOCTYPE svg PUBLIC "-//W3C//DTD SVG 1.1//EN"
 "http://www.w3.org/Graphics/SVG/1.1/DTD/svg11.dtd">
<!-- Generated by graphviz version 2.43.0 (0)
 -->
<!-- Title: BPMN::Transaction Pages: 1 -->
<svg width="308pt" height="855pt"
 viewBox="0.00 0.00 307.50 855.00" xmlns="http://www.w3.org/2000/svg" xmlns:xlink="http://www.w3.org/1999/xlink">
<g id="graph0" class="graph" transform="scale(1 1) rotate(0) translate(4 851)">
<title>BPMN::Transaction</title>
<!-- Node1 -->
<g id="node1" class="node">
<title>Node1</title>
<g id="a_node1"><a xlink:title=" ">
<polygon fill="#bfbfbf" stroke="black" points="76,-0.5 76,-57.5 183,-57.5 183,-0.5 76,-0.5"/>
<text text-anchor="middle" x="129.5" y="-45.5" font-family="Helvetica,sans-Serif" font-size="10.00">BPMN::Transaction</text>
<polyline fill="none" stroke="black" points="76,-38.5 183,-38.5 "/>
<text text-anchor="start" x="84" y="-26.5" font-family="Helvetica,sans-Serif" font-size="10.00">+ element</text>
<polyline fill="none" stroke="black" points="76,-19.5 183,-19.5 "/>
<text text-anchor="start" x="84" y="-7.5" font-family="Helvetica,sans-Serif" font-size="10.00">+ Transaction()</text>
</a>
</g>
</g>
<!-- Node2 -->
<g id="node2" class="node">
<title>Node2</title>
<g id="a_node2"><a xlink:href="classBPMN_1_1SubProcess.html" target="_top" xlink:title=" ">
<polygon fill="none" stroke="black" points="76,-94.5 76,-162.5 183,-162.5 183,-94.5 76,-94.5"/>
<text text-anchor="middle" x="129.5" y="-150.5" font-family="Helvetica,sans-Serif" font-size="10.00">BPMN::SubProcess</text>
<polyline fill="none" stroke="black" points="76,-143.5 183,-143.5 "/>
<text text-anchor="start" x="84" y="-131.5" font-family="Helvetica,sans-Serif" font-size="10.00">+ startEvent</text>
<text text-anchor="start" x="84" y="-120.5" font-family="Helvetica,sans-Serif" font-size="10.00">+ element</text>
<polyline fill="none" stroke="black" points="76,-113.5 183,-113.5 "/>
<text text-anchor="start" x="84" y="-101.5" font-family="Helvetica,sans-Serif" font-size="10.00">+ SubProcess()</text>
</a>
</g>
</g>
<!-- Node2&#45;&gt;Node1 -->
<g id="edge1" class="edge">
<title>Node2&#45;&gt;Node1</title>
<path fill="none" stroke="midnightblue" d="M129.5,-84.45C129.5,-75.4 129.5,-66.09 129.5,-57.78"/>
<polygon fill="none" stroke="midnightblue" points="126,-84.49 129.5,-94.49 133,-84.49 126,-84.49"/>
</g>
<!-- Node3 -->
<g id="node3" class="node">
<title>Node3</title>
<g id="a_node3"><a xlink:href="classBPMN_1_1Activity.html" target="_top" xlink:title=" ">
<polygon fill="none" stroke="black" points="24.5,-199.5 24.5,-289.5 146.5,-289.5 146.5,-199.5 24.5,-199.5"/>
<text text-anchor="middle" x="85.5" y="-277.5" font-family="Helvetica,sans-Serif" font-size="10.00">BPMN::Activity</text>
<polyline fill="none" stroke="black" points="24.5,-270.5 146.5,-270.5 "/>
<text text-anchor="start" x="32.5" y="-258.5" font-family="Helvetica,sans-Serif" font-size="10.00">+ boundaryEvents</text>
<text text-anchor="start" x="32.5" y="-247.5" font-family="Helvetica,sans-Serif" font-size="10.00">+ compensatedBy</text>
<text text-anchor="start" x="32.5" y="-236.5" font-family="Helvetica,sans-Serif" font-size="10.00">+ isForCompensation</text>
<text text-anchor="start" x="32.5" y="-225.5" font-family="Helvetica,sans-Serif" font-size="10.00">+ element</text>
<polyline fill="none" stroke="black" points="24.5,-218.5 146.5,-218.5 "/>
<text text-anchor="start" x="32.5" y="-206.5" font-family="Helvetica,sans-Serif" font-size="10.00">+ Activity()</text>
</a>
</g>
</g>
<!-- Node3&#45;&gt;Node2 -->
<g id="edge2" class="edge">
<title>Node3&#45;&gt;Node2</title>
<path fill="none" stroke="midnightblue" d="M106.19,-189.9C109.75,-180.68 113.35,-171.34 116.63,-162.85"/>
<polygon fill="none" stroke="midnightblue" points="102.85,-188.84 102.51,-199.42 109.38,-191.36 102.85,-188.84"/>
</g>
<!-- Node4 -->
<g id="node4" class="node">
<title>Node4</title>
<g id="a_node4"><a xlink:href="classBPMN_1_1FlowNode.html" target="_top" xlink:title="Base class for BPMN elements that may contain incoming and outgoing sequence flows.">
<polygon fill="none" stroke="black" points="0,-354 0,-444 101,-444 101,-354 0,-354"/>
<text text-anchor="middle" x="50.5" y="-432" font-family="Helvetica,sans-Serif" font-size="10.00">BPMN::FlowNode</text>
<polyline fill="none" stroke="black" points="0,-425 101,-425 "/>
<text text-anchor="start" x="8" y="-413" font-family="Helvetica,sans-Serif" font-size="10.00">+ element</text>
<text text-anchor="start" x="8" y="-402" font-family="Helvetica,sans-Serif" font-size="10.00">+ name</text>
<text text-anchor="start" x="8" y="-391" font-family="Helvetica,sans-Serif" font-size="10.00">+ incoming</text>
<text text-anchor="start" x="8" y="-380" font-family="Helvetica,sans-Serif" font-size="10.00">+ outgoing</text>
<polyline fill="none" stroke="black" points="0,-373 101,-373 "/>
<text text-anchor="start" x="8" y="-361" font-family="Helvetica,sans-Serif" font-size="10.00">+ FlowNode()</text>
</a>
</g>
</g>
<!-- Node4&#45;&gt;Node3 -->
<g id="edge3" class="edge">
<title>Node4&#45;&gt;Node3</title>
<path fill="none" stroke="midnightblue" d="M62.97,-343.67C67.05,-325.91 71.52,-306.41 75.4,-289.51"/>
<polygon fill="none" stroke="midnightblue" points="59.45,-343.36 60.62,-353.89 66.27,-344.93 59.45,-343.36"/>
</g>
<!-- Node5 -->
<g id="node5" class="node">
<title>Node5</title>
<g id="a_node5"><a xlink:href="classBPMN_1_1ChildNode.html" target="_top" xlink:title="Base class for BPMN elements within a Scope.">
<polygon fill="none" stroke="black" points="39.5,-508.5 39.5,-565.5 141.5,-565.5 141.5,-508.5 39.5,-508.5"/>
<text text-anchor="middle" x="90.5" y="-553.5" font-family="Helvetica,sans-Serif" font-size="10.00">BPMN::ChildNode</text>
<polyline fill="none" stroke="black" points="39.5,-546.5 141.5,-546.5 "/>
<text text-anchor="start" x="47.5" y="-534.5" font-family="Helvetica,sans-Serif" font-size="10.00">+ parent</text>
<polyline fill="none" stroke="black" points="39.5,-527.5 141.5,-527.5 "/>
<text text-anchor="start" x="47.5" y="-515.5" font-family="Helvetica,sans-Serif" font-size="10.00">+ ChildNode()</text>
</a>
</g>
</g>
<!-- Node5&#45;&gt;Node4 -->
<g id="edge4" class="edge">
<title>Node5&#45;&gt;Node4</title>
<path fill="none" stroke="midnightblue" d="M79.46,-498.45C74.5,-481.61 68.63,-461.63 63.46,-444.08"/>
<polygon fill="none" stroke="midnightblue" points="76.23,-499.87 82.41,-508.48 82.94,-497.9 76.23,-499.87"/>
</g>
<!-- Node6 -->
<g id="node6" class="node">
<title>Node6</title>
<g id="a_node6"><a xlink:href="classBPMN_1_1Node.html" target="_top" xlink:title="Base class for all elements in a BPMN model.">
<polygon fill="none" stroke="black" points="68.5,-602.5 68.5,-846.5 190.5,-846.5 190.5,-602.5 68.5,-602.5"/>
<text text-anchor="middle" x="129.5" y="-834.5" font-family="Helvetica,sans-Serif" font-size="10.00">BPMN::Node</text>
<polyline fill="none" stroke="black" points="68.5,-827.5 190.5,-827.5 "/>
<text text-anchor="start" x="76.5" y="-815.5" font-family="Helvetica,sans-Serif" font-size="10.00">+ id</text>
<text text-anchor="start" x="76.5" y="-804.5" font-family="Helvetica,sans-Serif" font-size="10.00">+ receiving</text>
<text text-anchor="start" x="76.5" y="-793.5" font-family="Helvetica,sans-Serif" font-size="10.00">+ sending</text>
<text text-anchor="start" x="76.5" y="-782.5" font-family="Helvetica,sans-Serif" font-size="10.00">+ element</text>
<text text-anchor="start" x="76.5" y="-771.5" font-family="Helvetica,sans-Serif" font-size="10.00">+ extensionElements</text>
<polyline fill="none" stroke="black" points="68.5,-764.5 190.5,-764.5 "/>
<text text-anchor="start" x="76.5" y="-752.5" font-family="Helvetica,sans-Serif" font-size="10.00">+ Node()</text>
<text text-anchor="start" x="76.5" y="-741.5" font-family="Helvetica,sans-Serif" font-size="10.00">+ ~Node()</text>
<text text-anchor="start" x="76.5" y="-730.5" font-family="Helvetica,sans-Serif" font-size="10.00">+ is()</text>
<text text-anchor="start" x="76.5" y="-719.5" font-family="Helvetica,sans-Serif" font-size="10.00">+ is()</text>
<text text-anchor="start" x="76.5" y="-708.5" font-family="Helvetica,sans-Serif" font-size="10.00">+ get()</text>
<text text-anchor="start" x="76.5" y="-697.5" font-family="Helvetica,sans-Serif" font-size="10.00">+ get()</text>
<text text-anchor="start" x="76.5" y="-686.5" font-family="Helvetica,sans-Serif" font-size="10.00">+ represents()</text>
<text text-anchor="start" x="76.5" y="-675.5" font-family="Helvetica,sans-Serif" font-size="10.00">+ represents()</text>
<text text-anchor="start" x="76.5" y="-664.5" font-family="Helvetica,sans-Serif" font-size="10.00">+ as()</text>
<text text-anchor="start" x="76.5" y="-653.5" font-family="Helvetica,sans-Serif" font-size="10.00">+ as()</text>
<text text-anchor="start" x="76.5" y="-642.5" font-family="Helvetica,sans-Serif" font-size="10.00">+ find()</text>
<text text-anchor="start" x="76.5" y="-631.5" font-family="Helvetica,sans-Serif" font-size="10.00">+ find()</text>
<text text-anchor="start" x="76.5" y="-620.5" font-family="Helvetica,sans-Serif" font-size="10.00">+ find_all()</text>
<text text-anchor="start" x="76.5" y="-609.5" font-family="Helvetica,sans-Serif" font-size="10.00">+ find_all()</text>
</a>
</g>
</g>
<!-- Node6&#45;&gt;Node5 -->
<g id="edge5" class="edge">
<title>Node6&#45;&gt;Node5</title>
<path fill="none" stroke="midnightblue" d="M101.92,-592.34C99.86,-582.53 97.95,-573.42 96.3,-565.57"/>
<polygon fill="none" stroke="midnightblue" points="98.55,-593.29 104.03,-602.36 105.4,-591.85 98.55,-593.29"/>
</g>
<!-- Node7 -->
<g id="node7" class="node">
<title>Node7</title>
<g id="a_node7"><a xlink:href="classBPMN_1_1Scope.html" target="_top" xlink:title="Base class for BPMN elements that may contain a ChildNode elements.">
<polygon fill="none" stroke="black" points="119.5,-326.5 119.5,-471.5 299.5,-471.5 299.5,-326.5 119.5,-326.5"/>
<text text-anchor="middle" x="209.5" y="-459.5" font-family="Helvetica,sans-Serif" font-size="10.00">BPMN::Scope</text>
<polyline fill="none" stroke="black" points="119.5,-452.5 299.5,-452.5 "/>
<text text-anchor="start" x="127.5" y="-440.5" font-family="Helvetica,sans-Serif" font-size="10.00">+ childNodes</text>
<text text-anchor="start" x="127.5" y="-429.5" font-family="Helvetica,sans-Serif" font-size="10.00">+ flowNodes</text>
<text text-anchor="start" x="127.5" y="-418.5" font-family="Helvetica,sans-Serif" font-size="10.00">+ eventSubProcesses</text>
<text text-anchor="start" x="127.5" y="-407.5" font-family="Helvetica,sans-Serif" font-size="10.00">+ startEvents</text>
<text text-anchor="start" x="127.5" y="-396.5" font-family="Helvetica,sans-Serif" font-size="10.00">+ sequenceFlows</text>
<text text-anchor="start" x="127.5" y="-385.5" font-family="Helvetica,sans-Serif" font-size="10.00">+ compensationActivities</text>
<text text-anchor="start" x="127.5" y="-374.5" font-family="Helvetica,sans-Serif" font-size="10.00">+ compensationEventSubProcess</text>
<polyline fill="none" stroke="black" points="119.5,-367.5 299.5,-367.5 "/>
<text text-anchor="start" x="127.5" y="-355.5" font-family="Helvetica,sans-Serif" font-size="10.00">+ Scope()</text>
<text text-anchor="start" x="127.5" y="-344.5" font-family="Helvetica,sans-Serif" font-size="10.00"># add()</text>
<text text-anchor="start" x="127.5" y="-333.5" font-family="Helvetica,sans-Serif" font-size="10.00"># add()</text>
</a>
</g>
</g>
<!-- Node6&#45;&gt;Node7 -->
<g id="edge7" class="edge">
<title>Node6&#45;&gt;Node7</title>
<path fill="none" stroke="midnightblue" d="M161.95,-592.28C172.13,-551.1 182.99,-507.18 191.76,-471.73"/>
<polygon fill="none" stroke="midnightblue" points="158.52,-591.57 159.52,-602.12 165.32,-593.25 158.52,-591.57"/>
</g>
<!-- Node7&#45;&gt;Node2 -->
<g id="edge6" class="edge">
<title>Node7&#45;&gt;Node2</title>
<path fill="none" stroke="midnightblue" d="M189.12,-316.14C179.65,-280 167.78,-237.16 155.5,-199 151.63,-186.98 146.91,-173.98 142.57,-162.51"/>
<polygon fill="none" stroke="midnightblue" points="185.82,-317.35 191.73,-326.15 192.59,-315.59 185.82,-317.35"/>
</g>
</g>
</svg>
