<?xml version="1.0" encoding="UTF-8" standalone="no"?>
<!DOCTYPE svg PUBLIC "-//W3C//DTD SVG 1.1//EN"
 "http://www.w3.org/Graphics/SVG/1.1/DTD/svg11.dtd">
<!-- Generated by graphviz version 2.43.0 (0)
 -->
<!-- Title: XML::bpmn::tInclusiveGateway Pages: 1 -->
<svg width="170pt" height="1077pt"
 viewBox="0.00 0.00 170.00 1077.00" xmlns="http://www.w3.org/2000/svg" xmlns:xlink="http://www.w3.org/1999/xlink">
<g id="graph0" class="graph" transform="scale(1 1) rotate(0) translate(4 1073)">
<title>XML::bpmn::tInclusiveGateway</title>
<!-- Node1 -->
<g id="Node000001" class="node">
<title>Node1</title>
<g id="a_Node000001"><a xlink:title=" ">
<polygon fill="#999999" stroke="transparent" points="162,-149 0,-149 0,-85 162,-85 162,-149"/>
<text text-anchor="start" x="5" y="-137" font-family="Helvetica,sans-Serif" font-size="10.00">XML::bpmn::tInclusiveGateway</text>
<text text-anchor="start" x="14.5" y="-122" font-family="Helvetica,sans-Serif" font-size="10.00">+</text>
<text text-anchor="start" x="38" y="-122" font-family="Helvetica,sans-Serif" font-size="10.00">default_</text>
<text text-anchor="start" x="14.5" y="-107" font-family="Helvetica,sans-Serif" font-size="10.00">+</text>
<text text-anchor="start" x="38" y="-107" font-family="Helvetica,sans-Serif" font-size="10.00">defaults</text>
<text text-anchor="start" x="14.5" y="-92" font-family="Helvetica,sans-Serif" font-size="10.00">#</text>
<text text-anchor="start" x="38" y="-92" font-family="Helvetica,sans-Serif" font-size="10.00">tInclusiveGateway()</text>
<polygon fill="#666666" stroke="#666666" points="0,-132 0,-132 162,-132 162,-132 0,-132"/>
<polygon fill="#666666" stroke="#666666" points="0,-102 0,-102 36,-102 36,-102 0,-102"/>
<polygon fill="#666666" stroke="#666666" points="36,-102 36,-102 162,-102 162,-102 36,-102"/>
<polygon fill="none" stroke="#666666" points="0,-85 0,-149 162,-149 162,-85 0,-85"/>
</a>
</g>
</g>
<!-- Node7 -->
<g id="Node000007" class="node">
<title>Node7</title>
<g id="a_Node000007"><a xlink:href="classXML_1_1bpmn_1_1inclusiveGateway.html" target="_top" xlink:title=" ">
<polygon fill="white" stroke="transparent" points="160,-49 2,-49 2,0 160,0 160,-49"/>
<text text-anchor="start" x="7" y="-36.5" font-family="Helvetica,sans-Serif" font-size="10.00">XML::bpmn::inclusiveGateway</text>
<text text-anchor="start" x="16.5" y="-21.5" font-family="Helvetica,sans-Serif" font-size="10.00">+</text>
<text text-anchor="start" x="40" y="-21.5" font-family="Helvetica,sans-Serif" font-size="10.00">defaults</text>
<text text-anchor="start" x="16.5" y="-6.5" font-family="Helvetica,sans-Serif" font-size="10.00">#</text>
<text text-anchor="start" x="40" y="-6.5" font-family="Helvetica,sans-Serif" font-size="10.00">inclusiveGateway()</text>
<polygon fill="#666666" stroke="#666666" points="2,-31.5 2,-31.5 160,-31.5 160,-31.5 2,-31.5"/>
<polygon fill="#666666" stroke="#666666" points="2,-16.5 2,-16.5 38,-16.5 38,-16.5 2,-16.5"/>
<polygon fill="#666666" stroke="#666666" points="38,-16.5 38,-16.5 160,-16.5 160,-16.5 38,-16.5"/>
<polygon fill="none" stroke="#666666" points="2,0 2,-49 160,-49 160,0 2,0"/>
</a>
</g>
</g>
<!-- Node1&#45;&gt;Node7 -->
<g id="edge6_Node000001_Node000007" class="edge">
<title>Node1&#45;&gt;Node7</title>
<g id="a_edge6_Node000001_Node000007"><a xlink:title=" ">
<path fill="none" stroke="#63b8ff" d="M81,-74.77C81,-66.03 81,-57.09 81,-49.27"/>
<polygon fill="none" stroke="#63b8ff" points="77.5,-74.85 81,-84.86 84.5,-74.86 77.5,-74.85"/>
</a>
</g>
</g>
<!-- Node2 -->
<g id="Node000002" class="node">
<title>Node2</title>
<g id="a_Node000002"><a xlink:href="classXML_1_1bpmn_1_1tGateway.html" target="_top" xlink:title=" ">
<polygon fill="white" stroke="transparent" points="140.5,-249 21.5,-249 21.5,-185 140.5,-185 140.5,-249"/>
<text text-anchor="start" x="27" y="-237" font-family="Helvetica,sans-Serif" font-size="10.00">XML::bpmn::tGateway</text>
<text text-anchor="start" x="28.5" y="-222" font-family="Helvetica,sans-Serif" font-size="10.00">+</text>
<text text-anchor="start" x="44" y="-222" font-family="Helvetica,sans-Serif" font-size="10.00">gatewayDirection</text>
<text text-anchor="start" x="28.5" y="-207" font-family="Helvetica,sans-Serif" font-size="10.00">+</text>
<text text-anchor="start" x="44" y="-207" font-family="Helvetica,sans-Serif" font-size="10.00">defaults</text>
<text text-anchor="start" x="28.5" y="-192" font-family="Helvetica,sans-Serif" font-size="10.00">#</text>
<text text-anchor="start" x="44" y="-192" font-family="Helvetica,sans-Serif" font-size="10.00">tGateway()</text>
<polygon fill="#666666" stroke="#666666" points="22,-232 22,-232 141,-232 141,-232 22,-232"/>
<polygon fill="#666666" stroke="#666666" points="22,-202 22,-202 42,-202 42,-202 22,-202"/>
<polygon fill="#666666" stroke="#666666" points="42,-202 42,-202 141,-202 141,-202 42,-202"/>
<polygon fill="none" stroke="#666666" points="21.5,-185 21.5,-249 140.5,-249 140.5,-185 21.5,-185"/>
</a>
</g>
</g>
<!-- Node2&#45;&gt;Node1 -->
<g id="edge1_Node000001_Node000002" class="edge">
<title>Node2&#45;&gt;Node1</title>
<g id="a_edge1_Node000001_Node000002"><a xlink:title=" ">
<path fill="none" stroke="#63b8ff" d="M81,-174.76C81,-166.19 81,-157.28 81,-149.14"/>
<polygon fill="none" stroke="#63b8ff" points="77.5,-174.99 81,-184.99 84.5,-174.99 77.5,-174.99"/>
</a>
</g>
</g>
<!-- Node3 -->
<g id="Node000003" class="node">
<title>Node3</title>
<g id="a_Node000003"><a xlink:href="classXML_1_1bpmn_1_1tFlowNode.html" target="_top" xlink:title=" ">
<polygon fill="white" stroke="transparent" points="143,-364 19,-364 19,-285 143,-285 143,-364"/>
<text text-anchor="start" x="24" y="-351.5" font-family="Helvetica,sans-Serif" font-size="10.00">XML::bpmn::tFlowNode</text>
<text text-anchor="start" x="33.5" y="-336.5" font-family="Helvetica,sans-Serif" font-size="10.00">+</text>
<text text-anchor="start" x="57" y="-336.5" font-family="Helvetica,sans-Serif" font-size="10.00">incoming</text>
<text text-anchor="start" x="33.5" y="-321.5" font-family="Helvetica,sans-Serif" font-size="10.00">+</text>
<text text-anchor="start" x="57" y="-321.5" font-family="Helvetica,sans-Serif" font-size="10.00">outgoing</text>
<text text-anchor="start" x="33.5" y="-306.5" font-family="Helvetica,sans-Serif" font-size="10.00">+</text>
<text text-anchor="start" x="57" y="-306.5" font-family="Helvetica,sans-Serif" font-size="10.00">defaults</text>
<text text-anchor="start" x="33.5" y="-291.5" font-family="Helvetica,sans-Serif" font-size="10.00">#</text>
<text text-anchor="start" x="57" y="-291.5" font-family="Helvetica,sans-Serif" font-size="10.00">tFlowNode()</text>
<polygon fill="#666666" stroke="#666666" points="19,-346.5 19,-346.5 143,-346.5 143,-346.5 19,-346.5"/>
<polygon fill="#666666" stroke="#666666" points="19,-301.5 19,-301.5 55,-301.5 55,-301.5 19,-301.5"/>
<polygon fill="#666666" stroke="#666666" points="55,-301.5 55,-301.5 143,-301.5 143,-301.5 55,-301.5"/>
<polygon fill="none" stroke="#666666" points="19,-285 19,-364 143,-364 143,-285 19,-285"/>
</a>
</g>
</g>
<!-- Node3&#45;&gt;Node2 -->
<g id="edge2_Node000002_Node000003" class="edge">
<title>Node3&#45;&gt;Node2</title>
<g id="a_edge2_Node000002_Node000003"><a xlink:title=" ">
<path fill="none" stroke="#63b8ff" d="M81,-274.71C81,-266 81,-257.14 81,-249.09"/>
<polygon fill="none" stroke="#63b8ff" points="77.5,-274.81 81,-284.81 84.5,-274.81 77.5,-274.81"/>
</a>
</g>
</g>
<!-- Node4 -->
<g id="Node000004" class="node">
<title>Node4</title>
<g id="a_Node000004"><a xlink:href="classXML_1_1bpmn_1_1tFlowElement.html" target="_top" xlink:title=" ">
<polygon fill="white" stroke="transparent" points="150.5,-509 11.5,-509 11.5,-400 150.5,-400 150.5,-509"/>
<text text-anchor="start" x="17" y="-496.5" font-family="Helvetica,sans-Serif" font-size="10.00">XML::bpmn::tFlowElement</text>
<text text-anchor="start" x="23.5" y="-481.5" font-family="Helvetica,sans-Serif" font-size="10.00">+</text>
<text text-anchor="start" x="44" y="-481.5" font-family="Helvetica,sans-Serif" font-size="10.00">auditing</text>
<text text-anchor="start" x="23.5" y="-466.5" font-family="Helvetica,sans-Serif" font-size="10.00">+</text>
<text text-anchor="start" x="44" y="-466.5" font-family="Helvetica,sans-Serif" font-size="10.00">monitoring</text>
<text text-anchor="start" x="23.5" y="-451.5" font-family="Helvetica,sans-Serif" font-size="10.00">+</text>
<text text-anchor="start" x="44" y="-451.5" font-family="Helvetica,sans-Serif" font-size="10.00">categoryValueRef</text>
<text text-anchor="start" x="23.5" y="-436.5" font-family="Helvetica,sans-Serif" font-size="10.00">+</text>
<text text-anchor="start" x="44" y="-436.5" font-family="Helvetica,sans-Serif" font-size="10.00">name</text>
<text text-anchor="start" x="23.5" y="-421.5" font-family="Helvetica,sans-Serif" font-size="10.00">+</text>
<text text-anchor="start" x="44" y="-421.5" font-family="Helvetica,sans-Serif" font-size="10.00">defaults</text>
<text text-anchor="start" x="23.5" y="-406.5" font-family="Helvetica,sans-Serif" font-size="10.00">#</text>
<text text-anchor="start" x="44" y="-406.5" font-family="Helvetica,sans-Serif" font-size="10.00">tFlowElement()</text>
<polygon fill="#666666" stroke="#666666" points="12,-491.5 12,-491.5 151,-491.5 151,-491.5 12,-491.5"/>
<polygon fill="#666666" stroke="#666666" points="12,-416.5 12,-416.5 42,-416.5 42,-416.5 12,-416.5"/>
<polygon fill="#666666" stroke="#666666" points="42,-416.5 42,-416.5 151,-416.5 151,-416.5 42,-416.5"/>
<polygon fill="none" stroke="#666666" points="11.5,-400 11.5,-509 150.5,-509 150.5,-400 11.5,-400"/>
</a>
</g>
</g>
<!-- Node4&#45;&gt;Node3 -->
<g id="edge3_Node000003_Node000004" class="edge">
<title>Node4&#45;&gt;Node3</title>
<g id="a_edge3_Node000003_Node000004"><a xlink:title=" ">
<path fill="none" stroke="#63b8ff" d="M81,-389.7C81,-380.93 81,-372.16 81,-364.03"/>
<polygon fill="none" stroke="#63b8ff" points="77.5,-389.96 81,-399.96 84.5,-389.96 77.5,-389.96"/>
</a>
</g>
</g>
<!-- Node5 -->
<g id="Node000005" class="node">
<title>Node5</title>
<g id="a_Node000005"><a xlink:href="classXML_1_1bpmn_1_1tBaseElement.html" target="_top" xlink:title=" ">
<polygon fill="white" stroke="transparent" points="151,-639 11,-639 11,-545 151,-545 151,-639"/>
<text text-anchor="start" x="16" y="-627" font-family="Helvetica,sans-Serif" font-size="10.00">XML::bpmn::tBaseElement</text>
<text text-anchor="start" x="21" y="-612" font-family="Helvetica,sans-Serif" font-size="10.00">+</text>
<text text-anchor="start" x="40" y="-612" font-family="Helvetica,sans-Serif" font-size="10.00">documentation</text>
<text text-anchor="start" x="21" y="-597" font-family="Helvetica,sans-Serif" font-size="10.00">+</text>
<text text-anchor="start" x="40" y="-597" font-family="Helvetica,sans-Serif" font-size="10.00">extensionElements</text>
<text text-anchor="start" x="21" y="-582" font-family="Helvetica,sans-Serif" font-size="10.00">+</text>
<text text-anchor="start" x="40" y="-582" font-family="Helvetica,sans-Serif" font-size="10.00">id</text>
<text text-anchor="start" x="21" y="-567" font-family="Helvetica,sans-Serif" font-size="10.00">+</text>
<text text-anchor="start" x="40" y="-567" font-family="Helvetica,sans-Serif" font-size="10.00">defaults</text>
<text text-anchor="start" x="21" y="-552" font-family="Helvetica,sans-Serif" font-size="10.00">#</text>
<text text-anchor="start" x="40" y="-552" font-family="Helvetica,sans-Serif" font-size="10.00">tBaseElement()</text>
<polygon fill="#666666" stroke="#666666" points="11,-622 11,-622 151,-622 151,-622 11,-622"/>
<polygon fill="#666666" stroke="#666666" points="11,-562 11,-562 38,-562 38,-562 11,-562"/>
<polygon fill="#666666" stroke="#666666" points="38,-562 38,-562 151,-562 151,-562 38,-562"/>
<polygon fill="none" stroke="#666666" points="11,-545 11,-639 151,-639 151,-545 11,-545"/>
</a>
</g>
</g>
<!-- Node5&#45;&gt;Node4 -->
<g id="edge4_Node000004_Node000005" class="edge">
<title>Node5&#45;&gt;Node4</title>
<g id="a_edge4_Node000004_Node000005"><a xlink:title=" ">
<path fill="none" stroke="#63b8ff" d="M81,-534.58C81,-526.12 81,-517.41 81,-509.01"/>
<polygon fill="none" stroke="#63b8ff" points="77.5,-534.75 81,-544.75 84.5,-534.75 77.5,-534.75"/>
</a>
</g>
</g>
<!-- Node6 -->
<g id="Node000006" class="node">
<title>Node6</title>
<g id="a_Node000006"><a xlink:href="classXML_1_1XMLObject.html" target="_top" xlink:title="A class representing a node in an XML&#45;tree.">
<polygon fill="white" stroke="transparent" points="141,-1069 21,-1069 21,-675 141,-675 141,-1069"/>
<text text-anchor="start" x="41" y="-1057" font-family="Helvetica,sans-Serif" font-size="10.00">XML::XMLObject</text>
<text text-anchor="start" x="25" y="-1042" font-family="Helvetica,sans-Serif" font-size="10.00">+</text>
<text text-anchor="start" x="38" y="-1042" font-family="Helvetica,sans-Serif" font-size="10.00">xmlns</text>
<text text-anchor="start" x="25" y="-1027" font-family="Helvetica,sans-Serif" font-size="10.00">+</text>
<text text-anchor="start" x="38" y="-1027" font-family="Helvetica,sans-Serif" font-size="10.00">className</text>
<text text-anchor="start" x="25" y="-1012" font-family="Helvetica,sans-Serif" font-size="10.00">+</text>
<text text-anchor="start" x="38" y="-1012" font-family="Helvetica,sans-Serif" font-size="10.00">prefix</text>
<text text-anchor="start" x="25" y="-997" font-family="Helvetica,sans-Serif" font-size="10.00">+</text>
<text text-anchor="start" x="38" y="-997" font-family="Helvetica,sans-Serif" font-size="10.00">elementName</text>
<text text-anchor="start" x="25" y="-982" font-family="Helvetica,sans-Serif" font-size="10.00">+</text>
<text text-anchor="start" x="38" y="-982" font-family="Helvetica,sans-Serif" font-size="10.00">textContent</text>
<text text-anchor="start" x="25" y="-967" font-family="Helvetica,sans-Serif" font-size="10.00">+</text>
<text text-anchor="start" x="38" y="-967" font-family="Helvetica,sans-Serif" font-size="10.00">children</text>
<text text-anchor="start" x="25" y="-952" font-family="Helvetica,sans-Serif" font-size="10.00">+</text>
<text text-anchor="start" x="38" y="-952" font-family="Helvetica,sans-Serif" font-size="10.00">attributes</text>
<text text-anchor="start" x="25" y="-937" font-family="Helvetica,sans-Serif" font-size="10.00">+</text>
<text text-anchor="start" x="38" y="-937" font-family="Helvetica,sans-Serif" font-size="10.00">defaults</text>
<text text-anchor="start" x="25" y="-922" font-family="Helvetica,sans-Serif" font-size="10.00">#</text>
<text text-anchor="start" x="38" y="-922" font-family="Helvetica,sans-Serif" font-size="10.00">factory</text>
<text text-anchor="start" x="25" y="-907" font-family="Helvetica,sans-Serif" font-size="10.00">+</text>
<text text-anchor="start" x="38" y="-907" font-family="Helvetica,sans-Serif" font-size="10.00">~XMLObject()</text>
<text text-anchor="start" x="25" y="-892" font-family="Helvetica,sans-Serif" font-size="10.00">+</text>
<text text-anchor="start" x="38" y="-892" font-family="Helvetica,sans-Serif" font-size="10.00">is()</text>
<text text-anchor="start" x="25" y="-877" font-family="Helvetica,sans-Serif" font-size="10.00">+</text>
<text text-anchor="start" x="38" y="-877" font-family="Helvetica,sans-Serif" font-size="10.00">is()</text>
<text text-anchor="start" x="25" y="-862" font-family="Helvetica,sans-Serif" font-size="10.00">+</text>
<text text-anchor="start" x="38" y="-862" font-family="Helvetica,sans-Serif" font-size="10.00">get()</text>
<text text-anchor="start" x="25" y="-847" font-family="Helvetica,sans-Serif" font-size="10.00">+</text>
<text text-anchor="start" x="38" y="-847" font-family="Helvetica,sans-Serif" font-size="10.00">get()</text>
<text text-anchor="start" x="25" y="-832" font-family="Helvetica,sans-Serif" font-size="10.00">+</text>
<text text-anchor="start" x="38" y="-832" font-family="Helvetica,sans-Serif" font-size="10.00">find()</text>
<text text-anchor="start" x="25" y="-817" font-family="Helvetica,sans-Serif" font-size="10.00">+</text>
<text text-anchor="start" x="38" y="-817" font-family="Helvetica,sans-Serif" font-size="10.00">find()</text>
<text text-anchor="start" x="25" y="-802" font-family="Helvetica,sans-Serif" font-size="10.00">+</text>
<text text-anchor="start" x="38" y="-802" font-family="Helvetica,sans-Serif" font-size="10.00">stringify()</text>
<text text-anchor="start" x="25" y="-787" font-family="Helvetica,sans-Serif" font-size="10.00">+</text>
<text text-anchor="start" x="38" y="-787" font-family="Helvetica,sans-Serif" font-size="10.00">format()</text>
<text text-anchor="start" x="25" y="-772" font-family="Helvetica,sans-Serif" font-size="10.00">+</text>
<text text-anchor="start" x="38" y="-772" font-family="Helvetica,sans-Serif" font-size="10.00">getRequiredChild()</text>
<text text-anchor="start" x="38" y="-757" font-family="Helvetica,sans-Serif" font-size="10.00">and 7 more...</text>
<text text-anchor="start" x="25" y="-742" font-family="Helvetica,sans-Serif" font-size="10.00">+</text>
<text text-anchor="start" x="38" y="-742" font-family="Helvetica,sans-Serif" font-size="10.00">createFromStream()</text>
<text text-anchor="start" x="25" y="-727" font-family="Helvetica,sans-Serif" font-size="10.00">+</text>
<text text-anchor="start" x="38" y="-727" font-family="Helvetica,sans-Serif" font-size="10.00">createFromString()</text>
<text text-anchor="start" x="25" y="-712" font-family="Helvetica,sans-Serif" font-size="10.00">+</text>
<text text-anchor="start" x="38" y="-712" font-family="Helvetica,sans-Serif" font-size="10.00">createFromFile()</text>
<text text-anchor="start" x="25" y="-697" font-family="Helvetica,sans-Serif" font-size="10.00">#</text>
<text text-anchor="start" x="38" y="-697" font-family="Helvetica,sans-Serif" font-size="10.00">XMLObject()</text>
<text text-anchor="start" x="25" y="-682" font-family="Helvetica,sans-Serif" font-size="10.00">#</text>
<text text-anchor="start" x="38" y="-682" font-family="Helvetica,sans-Serif" font-size="10.00">createObject()</text>
<polygon fill="#666666" stroke="#666666" points="21,-1052 21,-1052 141,-1052 141,-1052 21,-1052"/>
<polygon fill="#666666" stroke="#666666" points="21,-917 21,-917 36,-917 36,-917 21,-917"/>
<polygon fill="#666666" stroke="#666666" points="36,-917 36,-917 141,-917 141,-917 36,-917"/>
<polygon fill="none" stroke="#666666" points="21,-675 21,-1069 141,-1069 141,-675 21,-675"/>
</a>
</g>
</g>
<!-- Node6&#45;&gt;Node5 -->
<g id="edge5_Node000005_Node000006" class="edge">
<title>Node6&#45;&gt;Node5</title>
<g id="a_edge5_Node000005_Node000006"><a xlink:title=" ">
<path fill="none" stroke="#63b8ff" d="M81,-664.78C81,-655.62 81,-646.97 81,-639.06"/>
<polygon fill="none" stroke="#63b8ff" points="77.5,-664.91 81,-674.91 84.5,-664.91 77.5,-664.91"/>
</a>
</g>
</g>
</g>
</svg>
