<?xml version="1.0" encoding="UTF-8" standalone="no"?>
<!DOCTYPE svg PUBLIC "-//W3C//DTD SVG 1.1//EN"
 "http://www.w3.org/Graphics/SVG/1.1/DTD/svg11.dtd">
<!-- Generated by graphviz version 2.43.0 (0)
 -->
<!-- Title: XML::bpmn::tEventDefinition Pages: 1 -->
<svg width="2098pt" height="866pt"
 viewBox="0.00 0.00 2097.50 866.00" xmlns="http://www.w3.org/2000/svg" xmlns:xlink="http://www.w3.org/1999/xlink">
<g id="graph0" class="graph" transform="scale(1 1) rotate(0) translate(4 862)">
<title>XML::bpmn::tEventDefinition</title>
<!-- Node1 -->
<g id="node1" class="node">
<title>Node1</title>
<g id="a_node1"><a xlink:title=" ">
<polygon fill="#bfbfbf" stroke="black" points="962,-232.5 962,-289.5 1118,-289.5 1118,-232.5 962,-232.5"/>
<text text-anchor="middle" x="1040" y="-277.5" font-family="Helvetica,sans-Serif" font-size="10.00">XML::bpmn::tEventDefinition</text>
<polyline fill="none" stroke="black" points="962,-270.5 1118,-270.5 "/>
<text text-anchor="start" x="970" y="-258.5" font-family="Helvetica,sans-Serif" font-size="10.00">+ defaults</text>
<polyline fill="none" stroke="black" points="962,-251.5 1118,-251.5 "/>
<text text-anchor="start" x="970" y="-239.5" font-family="Helvetica,sans-Serif" font-size="10.00"># tEventDefinition()</text>
</a>
</g>
</g>
<!-- Node5 -->
<g id="node5" class="node">
<title>Node5</title>
<g id="a_node5"><a xlink:href="classXML_1_1bpmn_1_1eventDefinition.html" target="_top" xlink:title=" ">
<polygon fill="none" stroke="black" points="0,-122 0,-179 152,-179 152,-122 0,-122"/>
<text text-anchor="middle" x="76" y="-167" font-family="Helvetica,sans-Serif" font-size="10.00">XML::bpmn::eventDefinition</text>
<polyline fill="none" stroke="black" points="0,-160 152,-160 "/>
<text text-anchor="start" x="8" y="-148" font-family="Helvetica,sans-Serif" font-size="10.00">+ defaults</text>
<polyline fill="none" stroke="black" points="0,-141 152,-141 "/>
<text text-anchor="start" x="8" y="-129" font-family="Helvetica,sans-Serif" font-size="10.00"># eventDefinition()</text>
</a>
</g>
</g>
<!-- Node1&#45;&gt;Node5 -->
<g id="edge4" class="edge">
<title>Node1&#45;&gt;Node5</title>
<path fill="none" stroke="midnightblue" d="M951.7,-258.13C759.3,-253.31 307.74,-237.8 161,-196 147.22,-192.08 133.11,-185.77 120.44,-179.12"/>
<polygon fill="none" stroke="midnightblue" points="951.7,-261.63 961.78,-258.38 951.87,-254.63 951.7,-261.63"/>
</g>
<!-- Node6 -->
<g id="node6" class="node">
<title>Node6</title>
<g id="a_node6"><a xlink:href="classXML_1_1bpmn_1_1tCancelEventDefinition.html" target="_top" xlink:title=" ">
<polygon fill="none" stroke="black" points="170.5,-122 170.5,-179 359.5,-179 359.5,-122 170.5,-122"/>
<text text-anchor="middle" x="265" y="-167" font-family="Helvetica,sans-Serif" font-size="10.00">XML::bpmn::tCancelEventDefinition</text>
<polyline fill="none" stroke="black" points="170.5,-160 359.5,-160 "/>
<text text-anchor="start" x="178.5" y="-148" font-family="Helvetica,sans-Serif" font-size="10.00">+ defaults</text>
<polyline fill="none" stroke="black" points="170.5,-141 359.5,-141 "/>
<text text-anchor="start" x="178.5" y="-129" font-family="Helvetica,sans-Serif" font-size="10.00"># tCancelEventDefinition()</text>
</a>
</g>
</g>
<!-- Node1&#45;&gt;Node6 -->
<g id="edge5" class="edge">
<title>Node1&#45;&gt;Node6</title>
<path fill="none" stroke="midnightblue" d="M951.67,-260.19C821.92,-258.55 573.11,-248.05 369,-196 352.82,-191.87 335.93,-185.58 320.57,-179.02"/>
<polygon fill="none" stroke="midnightblue" points="951.9,-263.69 961.94,-260.3 951.98,-256.69 951.9,-263.69"/>
</g>
<!-- Node8 -->
<g id="node8" class="node">
<title>Node8</title>
<g id="a_node8"><a xlink:href="classXML_1_1bpmn_1_1tCompensateEventDefinition.html" target="_top" xlink:title=" ">
<polygon fill="none" stroke="black" points="378,-105.5 378,-195.5 554,-195.5 554,-105.5 378,-105.5"/>
<text text-anchor="start" x="386" y="-183.5" font-family="Helvetica,sans-Serif" font-size="10.00">XML::bpmn::tCompensateEvent</text>
<text text-anchor="middle" x="466" y="-172.5" font-family="Helvetica,sans-Serif" font-size="10.00">Definition</text>
<polyline fill="none" stroke="black" points="378,-165.5 554,-165.5 "/>
<text text-anchor="start" x="386" y="-153.5" font-family="Helvetica,sans-Serif" font-size="10.00">+ waitForCompletion</text>
<text text-anchor="start" x="386" y="-142.5" font-family="Helvetica,sans-Serif" font-size="10.00">+ activityRef</text>
<text text-anchor="start" x="386" y="-131.5" font-family="Helvetica,sans-Serif" font-size="10.00">+ defaults</text>
<polyline fill="none" stroke="black" points="378,-124.5 554,-124.5 "/>
<text text-anchor="start" x="386" y="-112.5" font-family="Helvetica,sans-Serif" font-size="10.00"># tCompensateEventDefinition()</text>
</a>
</g>
</g>
<!-- Node1&#45;&gt;Node8 -->
<g id="edge7" class="edge">
<title>Node1&#45;&gt;Node8</title>
<path fill="none" stroke="midnightblue" d="M951.65,-255.98C854.67,-249.78 695.17,-234.25 563,-196 560.06,-195.15 557.1,-194.22 554.13,-193.24"/>
<polygon fill="none" stroke="midnightblue" points="951.51,-259.48 961.71,-256.61 951.95,-252.49 951.51,-259.48"/>
</g>
<!-- Node10 -->
<g id="node10" class="node">
<title>Node10</title>
<g id="a_node10"><a xlink:href="classXML_1_1bpmn_1_1tConditionalEventDefinition.html" target="_top" xlink:title=" ">
<polygon fill="none" stroke="black" points="572,-111 572,-190 742,-190 742,-111 572,-111"/>
<text text-anchor="start" x="580" y="-178" font-family="Helvetica,sans-Serif" font-size="10.00">XML::bpmn::tConditionalEvent</text>
<text text-anchor="middle" x="657" y="-167" font-family="Helvetica,sans-Serif" font-size="10.00">Definition</text>
<polyline fill="none" stroke="black" points="572,-160 742,-160 "/>
<text text-anchor="start" x="580" y="-148" font-family="Helvetica,sans-Serif" font-size="10.00">+ condition</text>
<text text-anchor="start" x="580" y="-137" font-family="Helvetica,sans-Serif" font-size="10.00">+ defaults</text>
<polyline fill="none" stroke="black" points="572,-130 742,-130 "/>
<text text-anchor="start" x="580" y="-118" font-family="Helvetica,sans-Serif" font-size="10.00"># tConditionalEventDefinition()</text>
</a>
</g>
</g>
<!-- Node1&#45;&gt;Node10 -->
<g id="edge9" class="edge">
<title>Node1&#45;&gt;Node10</title>
<path fill="none" stroke="midnightblue" d="M951.86,-245.79C893.88,-235.15 816.83,-218.55 751,-196 745.79,-194.22 740.49,-192.22 735.19,-190.1"/>
<polygon fill="none" stroke="midnightblue" points="951.27,-249.24 961.73,-247.58 952.51,-242.35 951.27,-249.24"/>
</g>
<!-- Node12 -->
<g id="node12" class="node">
<title>Node12</title>
<g id="a_node12"><a xlink:href="classXML_1_1bpmn_1_1tErrorEventDefinition.html" target="_top" xlink:title=" ">
<polygon fill="none" stroke="black" points="760.5,-116.5 760.5,-184.5 939.5,-184.5 939.5,-116.5 760.5,-116.5"/>
<text text-anchor="middle" x="850" y="-172.5" font-family="Helvetica,sans-Serif" font-size="10.00">XML::bpmn::tErrorEventDefinition</text>
<polyline fill="none" stroke="black" points="760.5,-165.5 939.5,-165.5 "/>
<text text-anchor="start" x="768.5" y="-153.5" font-family="Helvetica,sans-Serif" font-size="10.00">+ errorRef</text>
<text text-anchor="start" x="768.5" y="-142.5" font-family="Helvetica,sans-Serif" font-size="10.00">+ defaults</text>
<polyline fill="none" stroke="black" points="760.5,-135.5 939.5,-135.5 "/>
<text text-anchor="start" x="768.5" y="-123.5" font-family="Helvetica,sans-Serif" font-size="10.00"># tErrorEventDefinition()</text>
</a>
</g>
</g>
<!-- Node1&#45;&gt;Node12 -->
<g id="edge11" class="edge">
<title>Node1&#45;&gt;Node12</title>
<path fill="none" stroke="midnightblue" d="M982.68,-227.27C958.99,-213.74 931.57,-198.08 907.82,-184.52"/>
<polygon fill="none" stroke="midnightblue" points="981.14,-230.42 991.56,-232.34 984.62,-224.34 981.14,-230.42"/>
</g>
<!-- Node14 -->
<g id="node14" class="node">
<title>Node14</title>
<g id="a_node14"><a xlink:href="classXML_1_1bpmn_1_1tEscalationEventDefinition.html" target="_top" xlink:title=" ">
<polygon fill="none" stroke="black" points="958,-111 958,-190 1122,-190 1122,-111 958,-111"/>
<text text-anchor="start" x="966" y="-178" font-family="Helvetica,sans-Serif" font-size="10.00">XML::bpmn::tEscalationEvent</text>
<text text-anchor="middle" x="1040" y="-167" font-family="Helvetica,sans-Serif" font-size="10.00">Definition</text>
<polyline fill="none" stroke="black" points="958,-160 1122,-160 "/>
<text text-anchor="start" x="966" y="-148" font-family="Helvetica,sans-Serif" font-size="10.00">+ escalationRef</text>
<text text-anchor="start" x="966" y="-137" font-family="Helvetica,sans-Serif" font-size="10.00">+ defaults</text>
<polyline fill="none" stroke="black" points="958,-130 1122,-130 "/>
<text text-anchor="start" x="966" y="-118" font-family="Helvetica,sans-Serif" font-size="10.00"># tEscalationEventDefinition()</text>
</a>
</g>
</g>
<!-- Node1&#45;&gt;Node14 -->
<g id="edge13" class="edge">
<title>Node1&#45;&gt;Node14</title>
<path fill="none" stroke="midnightblue" d="M1040,-222.31C1040,-211.91 1040,-200.61 1040,-190.16"/>
<polygon fill="none" stroke="midnightblue" points="1036.5,-222.34 1040,-232.34 1043.5,-222.34 1036.5,-222.34"/>
</g>
<!-- Node16 -->
<g id="node16" class="node">
<title>Node16</title>
<g id="a_node16"><a xlink:href="classXML_1_1bpmn_1_1tLinkEventDefinition.html" target="_top" xlink:title=" ">
<polygon fill="none" stroke="black" points="1140,-105.5 1140,-195.5 1316,-195.5 1316,-105.5 1140,-105.5"/>
<text text-anchor="middle" x="1228" y="-183.5" font-family="Helvetica,sans-Serif" font-size="10.00">XML::bpmn::tLinkEventDefinition</text>
<polyline fill="none" stroke="black" points="1140,-176.5 1316,-176.5 "/>
<text text-anchor="start" x="1148" y="-164.5" font-family="Helvetica,sans-Serif" font-size="10.00">+ source</text>
<text text-anchor="start" x="1148" y="-153.5" font-family="Helvetica,sans-Serif" font-size="10.00">+ target</text>
<text text-anchor="start" x="1148" y="-142.5" font-family="Helvetica,sans-Serif" font-size="10.00">+ name</text>
<text text-anchor="start" x="1148" y="-131.5" font-family="Helvetica,sans-Serif" font-size="10.00">+ defaults</text>
<polyline fill="none" stroke="black" points="1140,-124.5 1316,-124.5 "/>
<text text-anchor="start" x="1148" y="-112.5" font-family="Helvetica,sans-Serif" font-size="10.00"># tLinkEventDefinition()</text>
</a>
</g>
</g>
<!-- Node1&#45;&gt;Node16 -->
<g id="edge15" class="edge">
<title>Node1&#45;&gt;Node16</title>
<path fill="none" stroke="midnightblue" d="M1096.76,-227.24C1114.04,-217.27 1133.32,-206.14 1151.67,-195.55"/>
<polygon fill="none" stroke="midnightblue" points="1094.84,-224.31 1087.93,-232.34 1098.34,-230.37 1094.84,-224.31"/>
</g>
<!-- Node18 -->
<g id="node18" class="node">
<title>Node18</title>
<g id="a_node18"><a xlink:href="classXML_1_1bpmn_1_1tMessageEventDefinition.html" target="_top" xlink:title=" ">
<polygon fill="none" stroke="black" points="1336,-105.5 1336,-195.5 1494,-195.5 1494,-105.5 1336,-105.5"/>
<text text-anchor="start" x="1344" y="-183.5" font-family="Helvetica,sans-Serif" font-size="10.00">XML::bpmn::tMessageEvent</text>
<text text-anchor="middle" x="1415" y="-172.5" font-family="Helvetica,sans-Serif" font-size="10.00">Definition</text>
<polyline fill="none" stroke="black" points="1336,-165.5 1494,-165.5 "/>
<text text-anchor="start" x="1344" y="-153.5" font-family="Helvetica,sans-Serif" font-size="10.00">+ operationRef</text>
<text text-anchor="start" x="1344" y="-142.5" font-family="Helvetica,sans-Serif" font-size="10.00">+ messageRef</text>
<text text-anchor="start" x="1344" y="-131.5" font-family="Helvetica,sans-Serif" font-size="10.00">+ defaults</text>
<polyline fill="none" stroke="black" points="1336,-124.5 1494,-124.5 "/>
<text text-anchor="start" x="1344" y="-112.5" font-family="Helvetica,sans-Serif" font-size="10.00"># tMessageEventDefinition()</text>
</a>
</g>
</g>
<!-- Node1&#45;&gt;Node18 -->
<g id="edge17" class="edge">
<title>Node1&#45;&gt;Node18</title>
<path fill="none" stroke="midnightblue" d="M1128.29,-245.79C1185.37,-235.24 1260.73,-218.74 1325,-196 1328.62,-194.72 1332.27,-193.33 1335.94,-191.86"/>
<polygon fill="none" stroke="midnightblue" points="1127.43,-242.39 1118.22,-247.63 1128.68,-249.28 1127.43,-242.39"/>
</g>
<!-- Node20 -->
<g id="node20" class="node">
<title>Node20</title>
<g id="a_node20"><a xlink:href="classXML_1_1bpmn_1_1tSignalEventDefinition.html" target="_top" xlink:title=" ">
<polygon fill="none" stroke="black" points="1516,-116.5 1516,-184.5 1702,-184.5 1702,-116.5 1516,-116.5"/>
<text text-anchor="middle" x="1609" y="-172.5" font-family="Helvetica,sans-Serif" font-size="10.00">XML::bpmn::tSignalEventDefinition</text>
<polyline fill="none" stroke="black" points="1516,-165.5 1702,-165.5 "/>
<text text-anchor="start" x="1524" y="-153.5" font-family="Helvetica,sans-Serif" font-size="10.00">+ signalRef</text>
<text text-anchor="start" x="1524" y="-142.5" font-family="Helvetica,sans-Serif" font-size="10.00">+ defaults</text>
<polyline fill="none" stroke="black" points="1516,-135.5 1702,-135.5 "/>
<text text-anchor="start" x="1524" y="-123.5" font-family="Helvetica,sans-Serif" font-size="10.00"># tSignalEventDefinition()</text>
</a>
</g>
</g>
<!-- Node1&#45;&gt;Node20 -->
<g id="edge19" class="edge">
<title>Node1&#45;&gt;Node20</title>
<path fill="none" stroke="midnightblue" d="M1128.31,-254.64C1222.5,-247.35 1375.39,-230.96 1503,-196 1514.26,-192.91 1525.91,-188.92 1537.18,-184.58"/>
<polygon fill="none" stroke="midnightblue" points="1127.96,-251.16 1118.25,-255.4 1128.48,-258.14 1127.96,-251.16"/>
</g>
<!-- Node22 -->
<g id="node22" class="node">
<title>Node22</title>
<g id="a_node22"><a xlink:href="classXML_1_1bpmn_1_1tTerminateEventDefinition.html" target="_top" xlink:title=" ">
<polygon fill="none" stroke="black" points="1722.5,-116.5 1722.5,-184.5 1885.5,-184.5 1885.5,-116.5 1722.5,-116.5"/>
<text text-anchor="start" x="1730.5" y="-172.5" font-family="Helvetica,sans-Serif" font-size="10.00">XML::bpmn::tTerminateEvent</text>
<text text-anchor="middle" x="1804" y="-161.5" font-family="Helvetica,sans-Serif" font-size="10.00">Definition</text>
<polyline fill="none" stroke="black" points="1722.5,-154.5 1885.5,-154.5 "/>
<text text-anchor="start" x="1730.5" y="-142.5" font-family="Helvetica,sans-Serif" font-size="10.00">+ defaults</text>
<polyline fill="none" stroke="black" points="1722.5,-135.5 1885.5,-135.5 "/>
<text text-anchor="start" x="1730.5" y="-123.5" font-family="Helvetica,sans-Serif" font-size="10.00"># tTerminateEventDefinition()</text>
</a>
</g>
</g>
<!-- Node1&#45;&gt;Node22 -->
<g id="edge21" class="edge">
<title>Node1&#45;&gt;Node22</title>
<path fill="none" stroke="midnightblue" d="M1128.35,-255.42C1284.67,-246.68 1603.63,-225.8 1711,-196 1721.52,-193.08 1732.31,-189.03 1742.64,-184.54"/>
<polygon fill="none" stroke="midnightblue" points="1128.08,-251.93 1118.29,-255.98 1128.47,-258.92 1128.08,-251.93"/>
</g>
<!-- Node24 -->
<g id="node24" class="node">
<title>Node24</title>
<g id="a_node24"><a xlink:href="classXML_1_1bpmn_1_1tTimerEventDefinition.html" target="_top" xlink:title=" ">
<polygon fill="none" stroke="black" points="1904.5,-105.5 1904.5,-195.5 2089.5,-195.5 2089.5,-105.5 1904.5,-105.5"/>
<text text-anchor="middle" x="1997" y="-183.5" font-family="Helvetica,sans-Serif" font-size="10.00">XML::bpmn::tTimerEventDefinition</text>
<polyline fill="none" stroke="black" points="1904.5,-176.5 2089.5,-176.5 "/>
<text text-anchor="start" x="1912.5" y="-164.5" font-family="Helvetica,sans-Serif" font-size="10.00">+ timeDate</text>
<text text-anchor="start" x="1912.5" y="-153.5" font-family="Helvetica,sans-Serif" font-size="10.00">+ timeDuration</text>
<text text-anchor="start" x="1912.5" y="-142.5" font-family="Helvetica,sans-Serif" font-size="10.00">+ timeCycle</text>
<text text-anchor="start" x="1912.5" y="-131.5" font-family="Helvetica,sans-Serif" font-size="10.00">+ defaults</text>
<polyline fill="none" stroke="black" points="1904.5,-124.5 2089.5,-124.5 "/>
<text text-anchor="start" x="1912.5" y="-112.5" font-family="Helvetica,sans-Serif" font-size="10.00"># tTimerEventDefinition()</text>
</a>
</g>
</g>
<!-- Node1&#45;&gt;Node24 -->
<g id="edge23" class="edge">
<title>Node1&#45;&gt;Node24</title>
<path fill="none" stroke="midnightblue" d="M1128.29,-257.1C1316.3,-250.31 1750.73,-231.26 1894,-196 1897.4,-195.16 1900.84,-194.22 1904.28,-193.2"/>
<polygon fill="none" stroke="midnightblue" points="1128.03,-253.61 1118.16,-257.46 1128.28,-260.6 1128.03,-253.61"/>
</g>
<!-- Node2 -->
<g id="node2" class="node">
<title>Node2</title>
<g id="a_node2"><a xlink:href="classXML_1_1bpmn_1_1tRootElement.html" target="_top" xlink:title=" ">
<polygon fill="none" stroke="black" points="968,-326.5 968,-383.5 1112,-383.5 1112,-326.5 968,-326.5"/>
<text text-anchor="middle" x="1040" y="-371.5" font-family="Helvetica,sans-Serif" font-size="10.00">XML::bpmn::tRootElement</text>
<polyline fill="none" stroke="black" points="968,-364.5 1112,-364.5 "/>
<text text-anchor="start" x="976" y="-352.5" font-family="Helvetica,sans-Serif" font-size="10.00">+ defaults</text>
<polyline fill="none" stroke="black" points="968,-345.5 1112,-345.5 "/>
<text text-anchor="start" x="976" y="-333.5" font-family="Helvetica,sans-Serif" font-size="10.00"># tRootElement()</text>
</a>
</g>
</g>
<!-- Node2&#45;&gt;Node1 -->
<g id="edge1" class="edge">
<title>Node2&#45;&gt;Node1</title>
<path fill="none" stroke="midnightblue" d="M1040,-316.21C1040,-307.29 1040,-297.95 1040,-289.58"/>
<polygon fill="none" stroke="midnightblue" points="1036.5,-316.4 1040,-326.4 1043.5,-316.4 1036.5,-316.4"/>
</g>
<!-- Node3 -->
<g id="node3" class="node">
<title>Node3</title>
<g id="a_node3"><a xlink:href="classXML_1_1bpmn_1_1tBaseElement.html" target="_top" xlink:title=" ">
<polygon fill="none" stroke="black" points="967,-420.5 967,-510.5 1113,-510.5 1113,-420.5 967,-420.5"/>
<text text-anchor="middle" x="1040" y="-498.5" font-family="Helvetica,sans-Serif" font-size="10.00">XML::bpmn::tBaseElement</text>
<polyline fill="none" stroke="black" points="967,-491.5 1113,-491.5 "/>
<text text-anchor="start" x="975" y="-479.5" font-family="Helvetica,sans-Serif" font-size="10.00">+ documentation</text>
<text text-anchor="start" x="975" y="-468.5" font-family="Helvetica,sans-Serif" font-size="10.00">+ extensionElements</text>
<text text-anchor="start" x="975" y="-457.5" font-family="Helvetica,sans-Serif" font-size="10.00">+ id</text>
<text text-anchor="start" x="975" y="-446.5" font-family="Helvetica,sans-Serif" font-size="10.00">+ defaults</text>
<polyline fill="none" stroke="black" points="967,-439.5 1113,-439.5 "/>
<text text-anchor="start" x="975" y="-427.5" font-family="Helvetica,sans-Serif" font-size="10.00"># tBaseElement()</text>
</a>
</g>
</g>
<!-- Node3&#45;&gt;Node2 -->
<g id="edge2" class="edge">
<title>Node3&#45;&gt;Node2</title>
<path fill="none" stroke="midnightblue" d="M1040,-410.35C1040,-401.07 1040,-391.79 1040,-383.59"/>
<polygon fill="none" stroke="midnightblue" points="1036.5,-410.37 1040,-420.37 1043.5,-410.37 1036.5,-410.37"/>
</g>
<!-- Node4 -->
<g id="node4" class="node">
<title>Node4</title>
<g id="a_node4"><a xlink:href="classXML_1_1XMLObject.html" target="_top" xlink:title="A class representing a node in an XML&#45;tree.">
<polygon fill="none" stroke="black" points="977,-547.5 977,-857.5 1103,-857.5 1103,-547.5 977,-547.5"/>
<text text-anchor="middle" x="1040" y="-845.5" font-family="Helvetica,sans-Serif" font-size="10.00">XML::XMLObject</text>
<polyline fill="none" stroke="black" points="977,-838.5 1103,-838.5 "/>
<text text-anchor="start" x="985" y="-826.5" font-family="Helvetica,sans-Serif" font-size="10.00">+ xmlns</text>
<text text-anchor="start" x="985" y="-815.5" font-family="Helvetica,sans-Serif" font-size="10.00">+ className</text>
<text text-anchor="start" x="985" y="-804.5" font-family="Helvetica,sans-Serif" font-size="10.00">+ prefix</text>
<text text-anchor="start" x="985" y="-793.5" font-family="Helvetica,sans-Serif" font-size="10.00">+ elementName</text>
<text text-anchor="start" x="985" y="-782.5" font-family="Helvetica,sans-Serif" font-size="10.00">+ textContent</text>
<text text-anchor="start" x="985" y="-771.5" font-family="Helvetica,sans-Serif" font-size="10.00">+ children</text>
<text text-anchor="start" x="985" y="-760.5" font-family="Helvetica,sans-Serif" font-size="10.00">+ attributes</text>
<text text-anchor="start" x="985" y="-749.5" font-family="Helvetica,sans-Serif" font-size="10.00">+ defaults</text>
<text text-anchor="start" x="985" y="-738.5" font-family="Helvetica,sans-Serif" font-size="10.00"># factory</text>
<polyline fill="none" stroke="black" points="977,-731.5 1103,-731.5 "/>
<text text-anchor="start" x="985" y="-719.5" font-family="Helvetica,sans-Serif" font-size="10.00">+ ~XMLObject()</text>
<text text-anchor="start" x="985" y="-708.5" font-family="Helvetica,sans-Serif" font-size="10.00">+ is()</text>
<text text-anchor="start" x="985" y="-697.5" font-family="Helvetica,sans-Serif" font-size="10.00">+ is()</text>
<text text-anchor="start" x="985" y="-686.5" font-family="Helvetica,sans-Serif" font-size="10.00">+ get()</text>
<text text-anchor="start" x="985" y="-675.5" font-family="Helvetica,sans-Serif" font-size="10.00">+ get()</text>
<text text-anchor="start" x="985" y="-664.5" font-family="Helvetica,sans-Serif" font-size="10.00">+ find()</text>
<text text-anchor="start" x="985" y="-653.5" font-family="Helvetica,sans-Serif" font-size="10.00">+ find()</text>
<text text-anchor="start" x="985" y="-642.5" font-family="Helvetica,sans-Serif" font-size="10.00">+ stringify()</text>
<text text-anchor="start" x="985" y="-631.5" font-family="Helvetica,sans-Serif" font-size="10.00">+ getRequiredChild()</text>
<text text-anchor="start" x="985" y="-620.5" font-family="Helvetica,sans-Serif" font-size="10.00">+ getOptionalChild()</text>
<text text-anchor="start" x="985" y="-609.5" font-family="Helvetica,sans-Serif" font-size="10.00">and 6 more...</text>
<text text-anchor="start" x="985" y="-598.5" font-family="Helvetica,sans-Serif" font-size="10.00">+ createFromStream()</text>
<text text-anchor="start" x="985" y="-587.5" font-family="Helvetica,sans-Serif" font-size="10.00">+ createFromString()</text>
<text text-anchor="start" x="985" y="-576.5" font-family="Helvetica,sans-Serif" font-size="10.00">+ createFromFile()</text>
<text text-anchor="start" x="985" y="-565.5" font-family="Helvetica,sans-Serif" font-size="10.00"># XMLObject()</text>
<text text-anchor="start" x="985" y="-554.5" font-family="Helvetica,sans-Serif" font-size="10.00"># createObject()</text>
</a>
</g>
</g>
<!-- Node4&#45;&gt;Node3 -->
<g id="edge3" class="edge">
<title>Node4&#45;&gt;Node3</title>
<path fill="none" stroke="midnightblue" d="M1040,-537.35C1040,-527.89 1040,-518.91 1040,-510.72"/>
<polygon fill="none" stroke="midnightblue" points="1036.5,-537.37 1040,-547.37 1043.5,-537.37 1036.5,-537.37"/>
</g>
<!-- Node7 -->
<g id="node7" class="node">
<title>Node7</title>
<g id="a_node7"><a xlink:href="classXML_1_1bpmn_1_1cancelEventDefinition.html" target="_top" xlink:title=" ">
<polygon fill="none" stroke="black" points="173,-6 173,-63 357,-63 357,-6 173,-6"/>
<text text-anchor="middle" x="265" y="-51" font-family="Helvetica,sans-Serif" font-size="10.00">XML::bpmn::cancelEventDefinition</text>
<polyline fill="none" stroke="black" points="173,-44 357,-44 "/>
<text text-anchor="start" x="181" y="-32" font-family="Helvetica,sans-Serif" font-size="10.00">+ defaults</text>
<polyline fill="none" stroke="black" points="173,-25 357,-25 "/>
<text text-anchor="start" x="181" y="-13" font-family="Helvetica,sans-Serif" font-size="10.00"># cancelEventDefinition()</text>
</a>
</g>
</g>
<!-- Node6&#45;&gt;Node7 -->
<g id="edge6" class="edge">
<title>Node6&#45;&gt;Node7</title>
<path fill="none" stroke="midnightblue" d="M265,-111.86C265,-96 265,-77.85 265,-63.24"/>
<polygon fill="none" stroke="midnightblue" points="261.5,-111.9 265,-121.9 268.5,-111.9 261.5,-111.9"/>
</g>
<!-- Node9 -->
<g id="node9" class="node">
<title>Node9</title>
<g id="a_node9"><a xlink:href="classXML_1_1bpmn_1_1compensateEventDefinition.html" target="_top" xlink:title=" ">
<polygon fill="none" stroke="black" points="381,-0.5 381,-68.5 551,-68.5 551,-0.5 381,-0.5"/>
<text text-anchor="start" x="389" y="-56.5" font-family="Helvetica,sans-Serif" font-size="10.00">XML::bpmn::compensateEvent</text>
<text text-anchor="middle" x="466" y="-45.5" font-family="Helvetica,sans-Serif" font-size="10.00">Definition</text>
<polyline fill="none" stroke="black" points="381,-38.5 551,-38.5 "/>
<text text-anchor="start" x="389" y="-26.5" font-family="Helvetica,sans-Serif" font-size="10.00">+ defaults</text>
<polyline fill="none" stroke="black" points="381,-19.5 551,-19.5 "/>
<text text-anchor="start" x="389" y="-7.5" font-family="Helvetica,sans-Serif" font-size="10.00"># compensateEventDefinition()</text>
</a>
</g>
</g>
<!-- Node8&#45;&gt;Node9 -->
<g id="edge8" class="edge">
<title>Node8&#45;&gt;Node9</title>
<path fill="none" stroke="midnightblue" d="M466,-95.32C466,-86.28 466,-77.16 466,-68.85"/>
<polygon fill="none" stroke="midnightblue" points="462.5,-95.42 466,-105.42 469.5,-95.42 462.5,-95.42"/>
</g>
<!-- Node11 -->
<g id="node11" class="node">
<title>Node11</title>
<g id="a_node11"><a xlink:href="classXML_1_1bpmn_1_1conditionalEventDefinition.html" target="_top" xlink:title=" ">
<polygon fill="none" stroke="black" points="573,-0.5 573,-68.5 737,-68.5 737,-0.5 573,-0.5"/>
<text text-anchor="start" x="581" y="-56.5" font-family="Helvetica,sans-Serif" font-size="10.00">XML::bpmn::conditionalEvent</text>
<text text-anchor="middle" x="655" y="-45.5" font-family="Helvetica,sans-Serif" font-size="10.00">Definition</text>
<polyline fill="none" stroke="black" points="573,-38.5 737,-38.5 "/>
<text text-anchor="start" x="581" y="-26.5" font-family="Helvetica,sans-Serif" font-size="10.00">+ defaults</text>
<polyline fill="none" stroke="black" points="573,-19.5 737,-19.5 "/>
<text text-anchor="start" x="581" y="-7.5" font-family="Helvetica,sans-Serif" font-size="10.00"># conditionalEventDefinition()</text>
</a>
</g>
</g>
<!-- Node10&#45;&gt;Node11 -->
<g id="edge10" class="edge">
<title>Node10&#45;&gt;Node11</title>
<path fill="none" stroke="midnightblue" d="M656.14,-100.73C655.95,-89.93 655.76,-78.73 655.58,-68.72"/>
<polygon fill="none" stroke="midnightblue" points="652.65,-100.97 656.32,-110.9 659.65,-100.84 652.65,-100.97"/>
</g>
<!-- Node13 -->
<g id="node13" class="node">
<title>Node13</title>
<g id="a_node13"><a xlink:href="classXML_1_1bpmn_1_1errorEventDefinition.html" target="_top" xlink:title=" ">
<polygon fill="none" stroke="black" points="755,-6 755,-63 931,-63 931,-6 755,-6"/>
<text text-anchor="middle" x="843" y="-51" font-family="Helvetica,sans-Serif" font-size="10.00">XML::bpmn::errorEventDefinition</text>
<polyline fill="none" stroke="black" points="755,-44 931,-44 "/>
<text text-anchor="start" x="763" y="-32" font-family="Helvetica,sans-Serif" font-size="10.00">+ defaults</text>
<polyline fill="none" stroke="black" points="755,-25 931,-25 "/>
<text text-anchor="start" x="763" y="-13" font-family="Helvetica,sans-Serif" font-size="10.00"># errorEventDefinition()</text>
</a>
</g>
</g>
<!-- Node12&#45;&gt;Node13 -->
<g id="edge12" class="edge">
<title>Node12&#45;&gt;Node13</title>
<path fill="none" stroke="midnightblue" d="M847.33,-106.03C846.45,-91.67 845.49,-76.1 844.7,-63.24"/>
<polygon fill="none" stroke="midnightblue" points="843.85,-106.45 847.96,-116.22 850.84,-106.02 843.85,-106.45"/>
</g>
<!-- Node15 -->
<g id="node15" class="node">
<title>Node15</title>
<g id="a_node15"><a xlink:href="classXML_1_1bpmn_1_1escalationEventDefinition.html" target="_top" xlink:title=" ">
<polygon fill="none" stroke="black" points="949.5,-0.5 949.5,-68.5 1110.5,-68.5 1110.5,-0.5 949.5,-0.5"/>
<text text-anchor="start" x="957.5" y="-56.5" font-family="Helvetica,sans-Serif" font-size="10.00">XML::bpmn::escalationEvent</text>
<text text-anchor="middle" x="1030" y="-45.5" font-family="Helvetica,sans-Serif" font-size="10.00">Definition</text>
<polyline fill="none" stroke="black" points="949.5,-38.5 1110.5,-38.5 "/>
<text text-anchor="start" x="957.5" y="-26.5" font-family="Helvetica,sans-Serif" font-size="10.00">+ defaults</text>
<polyline fill="none" stroke="black" points="949.5,-19.5 1110.5,-19.5 "/>
<text text-anchor="start" x="957.5" y="-7.5" font-family="Helvetica,sans-Serif" font-size="10.00"># escalationEventDefinition()</text>
</a>
</g>
</g>
<!-- Node14&#45;&gt;Node15 -->
<g id="edge14" class="edge">
<title>Node14&#45;&gt;Node15</title>
<path fill="none" stroke="midnightblue" d="M1035.72,-100.73C1034.77,-89.93 1033.79,-78.73 1032.91,-68.72"/>
<polygon fill="none" stroke="midnightblue" points="1032.25,-101.25 1036.61,-110.9 1039.23,-100.64 1032.25,-101.25"/>
</g>
<!-- Node17 -->
<g id="node17" class="node">
<title>Node17</title>
<g id="a_node17"><a xlink:href="classXML_1_1bpmn_1_1linkEventDefinition.html" target="_top" xlink:title=" ">
<polygon fill="none" stroke="black" points="1129,-6 1129,-63 1299,-63 1299,-6 1129,-6"/>
<text text-anchor="middle" x="1214" y="-51" font-family="Helvetica,sans-Serif" font-size="10.00">XML::bpmn::linkEventDefinition</text>
<polyline fill="none" stroke="black" points="1129,-44 1299,-44 "/>
<text text-anchor="start" x="1137" y="-32" font-family="Helvetica,sans-Serif" font-size="10.00">+ defaults</text>
<polyline fill="none" stroke="black" points="1129,-25 1299,-25 "/>
<text text-anchor="start" x="1137" y="-13" font-family="Helvetica,sans-Serif" font-size="10.00"># linkEventDefinition()</text>
</a>
</g>
</g>
<!-- Node16&#45;&gt;Node17 -->
<g id="edge16" class="edge">
<title>Node16&#45;&gt;Node17</title>
<path fill="none" stroke="midnightblue" d="M1221.35,-95.33C1219.99,-84.24 1218.61,-73.01 1217.42,-63.32"/>
<polygon fill="none" stroke="midnightblue" points="1217.89,-95.93 1222.59,-105.42 1224.84,-95.07 1217.89,-95.93"/>
</g>
<!-- Node19 -->
<g id="node19" class="node">
<title>Node19</title>
<g id="a_node19"><a xlink:href="classXML_1_1bpmn_1_1messageEventDefinition.html" target="_top" xlink:title=" ">
<polygon fill="none" stroke="black" points="1317.5,-6 1317.5,-63 1514.5,-63 1514.5,-6 1317.5,-6"/>
<text text-anchor="middle" x="1416" y="-51" font-family="Helvetica,sans-Serif" font-size="10.00">XML::bpmn::messageEventDefinition</text>
<polyline fill="none" stroke="black" points="1317.5,-44 1514.5,-44 "/>
<text text-anchor="start" x="1325.5" y="-32" font-family="Helvetica,sans-Serif" font-size="10.00">+ defaults</text>
<polyline fill="none" stroke="black" points="1317.5,-25 1514.5,-25 "/>
<text text-anchor="start" x="1325.5" y="-13" font-family="Helvetica,sans-Serif" font-size="10.00"># messageEventDefinition()</text>
</a>
</g>
</g>
<!-- Node18&#45;&gt;Node19 -->
<g id="edge18" class="edge">
<title>Node18&#45;&gt;Node19</title>
<path fill="none" stroke="midnightblue" d="M1415.48,-95.33C1415.57,-84.24 1415.67,-73.01 1415.76,-63.32"/>
<polygon fill="none" stroke="midnightblue" points="1411.97,-95.39 1415.39,-105.42 1418.97,-95.46 1411.97,-95.39"/>
</g>
<!-- Node21 -->
<g id="node21" class="node">
<title>Node21</title>
<g id="a_node21"><a xlink:href="classXML_1_1bpmn_1_1signalEventDefinition.html" target="_top" xlink:title=" ">
<polygon fill="none" stroke="black" points="1533,-6 1533,-63 1715,-63 1715,-6 1533,-6"/>
<text text-anchor="middle" x="1624" y="-51" font-family="Helvetica,sans-Serif" font-size="10.00">XML::bpmn::signalEventDefinition</text>
<polyline fill="none" stroke="black" points="1533,-44 1715,-44 "/>
<text text-anchor="start" x="1541" y="-32" font-family="Helvetica,sans-Serif" font-size="10.00">+ defaults</text>
<polyline fill="none" stroke="black" points="1533,-25 1715,-25 "/>
<text text-anchor="start" x="1541" y="-13" font-family="Helvetica,sans-Serif" font-size="10.00"># signalEventDefinition()</text>
</a>
</g>
</g>
<!-- Node20&#45;&gt;Node21 -->
<g id="edge20" class="edge">
<title>Node20&#45;&gt;Node21</title>
<path fill="none" stroke="midnightblue" d="M1614.72,-106.03C1616.61,-91.67 1618.66,-76.1 1620.35,-63.24"/>
<polygon fill="none" stroke="midnightblue" points="1611.21,-105.85 1613.38,-116.22 1618.15,-106.76 1611.21,-105.85"/>
</g>
<!-- Node23 -->
<g id="node23" class="node">
<title>Node23</title>
<g id="a_node23"><a xlink:href="classXML_1_1bpmn_1_1terminateEventDefinition.html" target="_top" xlink:title=" ">
<polygon fill="none" stroke="black" points="1733,-0.5 1733,-68.5 1891,-68.5 1891,-0.5 1733,-0.5"/>
<text text-anchor="start" x="1741" y="-56.5" font-family="Helvetica,sans-Serif" font-size="10.00">XML::bpmn::terminateEvent</text>
<text text-anchor="middle" x="1812" y="-45.5" font-family="Helvetica,sans-Serif" font-size="10.00">Definition</text>
<polyline fill="none" stroke="black" points="1733,-38.5 1891,-38.5 "/>
<text text-anchor="start" x="1741" y="-26.5" font-family="Helvetica,sans-Serif" font-size="10.00">+ defaults</text>
<polyline fill="none" stroke="black" points="1733,-19.5 1891,-19.5 "/>
<text text-anchor="start" x="1741" y="-7.5" font-family="Helvetica,sans-Serif" font-size="10.00"># terminateEventDefinition()</text>
</a>
</g>
</g>
<!-- Node22&#45;&gt;Node23 -->
<g id="edge22" class="edge">
<title>Node22&#45;&gt;Node23</title>
<path fill="none" stroke="midnightblue" d="M1807.05,-106.06C1807.92,-93.64 1808.86,-80.32 1809.68,-68.62"/>
<polygon fill="none" stroke="midnightblue" points="1803.54,-106 1806.34,-116.22 1810.53,-106.49 1803.54,-106"/>
</g>
<!-- Node25 -->
<g id="node25" class="node">
<title>Node25</title>
<g id="a_node25"><a xlink:href="classXML_1_1bpmn_1_1timerEventDefinition.html" target="_top" xlink:title=" ">
<polygon fill="none" stroke="black" points="1909.5,-6 1909.5,-63 2088.5,-63 2088.5,-6 1909.5,-6"/>
<text text-anchor="middle" x="1999" y="-51" font-family="Helvetica,sans-Serif" font-size="10.00">XML::bpmn::timerEventDefinition</text>
<polyline fill="none" stroke="black" points="1909.5,-44 2088.5,-44 "/>
<text text-anchor="start" x="1917.5" y="-32" font-family="Helvetica,sans-Serif" font-size="10.00">+ defaults</text>
<polyline fill="none" stroke="black" points="1909.5,-25 2088.5,-25 "/>
<text text-anchor="start" x="1917.5" y="-13" font-family="Helvetica,sans-Serif" font-size="10.00"># timerEventDefinition()</text>
</a>
</g>
</g>
<!-- Node24&#45;&gt;Node25 -->
<g id="edge24" class="edge">
<title>Node24&#45;&gt;Node25</title>
<path fill="none" stroke="midnightblue" d="M1997.95,-95.33C1998.14,-84.24 1998.34,-73.01 1998.51,-63.32"/>
<polygon fill="none" stroke="midnightblue" points="1994.45,-95.36 1997.77,-105.42 2001.45,-95.49 1994.45,-95.36"/>
</g>
</g>
</svg>
