<?xml version="1.0" encoding="UTF-8" standalone="no"?>
<!DOCTYPE svg PUBLIC "-//W3C//DTD SVG 1.1//EN"
 "http://www.w3.org/Graphics/SVG/1.1/DTD/svg11.dtd">
<!-- Generated by graphviz version 2.43.0 (0)
 -->
<!-- Title: BPMN::CompensateThrowEvent Pages: 1 -->
<svg width="173pt" height="952pt"
 viewBox="0.00 0.00 173.00 952.00" xmlns="http://www.w3.org/2000/svg" xmlns:xlink="http://www.w3.org/1999/xlink">
<g id="graph0" class="graph" transform="scale(1 1) rotate(0) translate(4 948)">
<title>BPMN::CompensateThrowEvent</title>
<!-- Node1 -->
<g id="Node000001" class="node">
<title>Node1</title>
<g id="a_Node000001"><a xlink:title=" ">
<polygon fill="#999999" stroke="transparent" points="165,-49 0,-49 0,0 165,0 165,-49"/>
<text text-anchor="start" x="5.5" y="-36.5" font-family="Helvetica,sans-Serif" font-size="10.00">BPMN::CompensateThrowEvent</text>
<text text-anchor="start" x="8.5" y="-21.5" font-family="Helvetica,sans-Serif" font-size="10.00">+</text>
<text text-anchor="start" x="25.5" y="-21.5" font-family="Helvetica,sans-Serif" font-size="10.00">activity</text>
<text text-anchor="start" x="8.5" y="-6.5" font-family="Helvetica,sans-Serif" font-size="10.00">+</text>
<text text-anchor="start" x="25.5" y="-6.5" font-family="Helvetica,sans-Serif" font-size="10.00">CompensateThrowEvent()</text>
<polygon fill="#666666" stroke="#666666" points="0.5,-31.5 0.5,-31.5 165.5,-31.5 165.5,-31.5 0.5,-31.5"/>
<polygon fill="#666666" stroke="#666666" points="0.5,-16.5 0.5,-16.5 23.5,-16.5 23.5,-16.5 0.5,-16.5"/>
<polygon fill="#666666" stroke="#666666" points="23.5,-16.5 23.5,-16.5 165.5,-16.5 165.5,-16.5 23.5,-16.5"/>
<polygon fill="none" stroke="#666666" points="0,0 0,-49 165,-49 165,0 0,0"/>
</a>
</g>
</g>
<!-- Node2 -->
<g id="Node000002" class="node">
<title>Node2</title>
<g id="a_Node000002"><a xlink:href="classBPMN_1_1ThrowEvent.html" target="_top" xlink:title=" ">
<polygon fill="white" stroke="transparent" points="134.5,-134 30.5,-134 30.5,-85 134.5,-85 134.5,-134"/>
<text text-anchor="start" x="35.5" y="-121.5" font-family="Helvetica,sans-Serif" font-size="10.00">BPMN::ThrowEvent</text>
<text text-anchor="start" x="38.5" y="-106.5" font-family="Helvetica,sans-Serif" font-size="10.00">+</text>
<text text-anchor="start" x="55.5" y="-106.5" font-family="Helvetica,sans-Serif" font-size="10.00">element</text>
<text text-anchor="start" x="38.5" y="-91.5" font-family="Helvetica,sans-Serif" font-size="10.00">+</text>
<text text-anchor="start" x="55.5" y="-91.5" font-family="Helvetica,sans-Serif" font-size="10.00">ThrowEvent()</text>
<polygon fill="#666666" stroke="#666666" points="30.5,-116.5 30.5,-116.5 134.5,-116.5 134.5,-116.5 30.5,-116.5"/>
<polygon fill="#666666" stroke="#666666" points="30.5,-101.5 30.5,-101.5 53.5,-101.5 53.5,-101.5 30.5,-101.5"/>
<polygon fill="#666666" stroke="#666666" points="53.5,-101.5 53.5,-101.5 134.5,-101.5 134.5,-101.5 53.5,-101.5"/>
<polygon fill="none" stroke="#666666" points="30.5,-85 30.5,-134 134.5,-134 134.5,-85 30.5,-85"/>
</a>
</g>
</g>
<!-- Node2&#45;&gt;Node1 -->
<g id="edge1_Node000001_Node000002" class="edge">
<title>Node2&#45;&gt;Node1</title>
<g id="a_edge1_Node000001_Node000002"><a xlink:title=" ">
<path fill="none" stroke="#63b8ff" d="M82.5,-74.77C82.5,-66.17 82.5,-57.1 82.5,-49.12"/>
<polygon fill="none" stroke="#63b8ff" points="79,-74.94 82.5,-84.94 86,-74.94 79,-74.94"/>
</a>
</g>
</g>
<!-- Node3 -->
<g id="Node000003" class="node">
<title>Node3</title>
<g id="a_Node000003"><a xlink:href="classBPMN_1_1Event.html" target="_top" xlink:title=" ">
<polygon fill="white" stroke="transparent" points="119.5,-219 45.5,-219 45.5,-170 119.5,-170 119.5,-219"/>
<text text-anchor="start" x="50.5" y="-206.5" font-family="Helvetica,sans-Serif" font-size="10.00">BPMN::Event</text>
<text text-anchor="start" x="52.5" y="-191.5" font-family="Helvetica,sans-Serif" font-size="10.00">+</text>
<text text-anchor="start" x="68.5" y="-191.5" font-family="Helvetica,sans-Serif" font-size="10.00">element</text>
<text text-anchor="start" x="52.5" y="-176.5" font-family="Helvetica,sans-Serif" font-size="10.00">+</text>
<text text-anchor="start" x="68.5" y="-176.5" font-family="Helvetica,sans-Serif" font-size="10.00">Event()</text>
<polygon fill="#666666" stroke="#666666" points="45.5,-201.5 45.5,-201.5 119.5,-201.5 119.5,-201.5 45.5,-201.5"/>
<polygon fill="#666666" stroke="#666666" points="45.5,-186.5 45.5,-186.5 66.5,-186.5 66.5,-186.5 45.5,-186.5"/>
<polygon fill="#666666" stroke="#666666" points="66.5,-186.5 66.5,-186.5 119.5,-186.5 119.5,-186.5 66.5,-186.5"/>
<polygon fill="none" stroke="#666666" points="45.5,-170 45.5,-219 119.5,-219 119.5,-170 45.5,-170"/>
</a>
</g>
</g>
<!-- Node3&#45;&gt;Node2 -->
<g id="edge2_Node000002_Node000003" class="edge">
<title>Node3&#45;&gt;Node2</title>
<g id="a_edge2_Node000002_Node000003"><a xlink:title=" ">
<path fill="none" stroke="#63b8ff" d="M82.5,-159.77C82.5,-151.17 82.5,-142.1 82.5,-134.12"/>
<polygon fill="none" stroke="#63b8ff" points="79,-159.94 82.5,-169.94 86,-159.94 79,-159.94"/>
</a>
</g>
</g>
<!-- Node4 -->
<g id="Node000004" class="node">
<title>Node4</title>
<g id="a_Node000004"><a xlink:href="classBPMN_1_1FlowNode.html" target="_top" xlink:title="Base class for BPMN elements that may contain incoming and outgoing sequence flows.">
<polygon fill="white" stroke="transparent" points="130,-349 35,-349 35,-255 130,-255 130,-349"/>
<text text-anchor="start" x="40.5" y="-337" font-family="Helvetica,sans-Serif" font-size="10.00">BPMN::FlowNode</text>
<text text-anchor="start" x="43.5" y="-322" font-family="Helvetica,sans-Serif" font-size="10.00">+</text>
<text text-anchor="start" x="60.5" y="-322" font-family="Helvetica,sans-Serif" font-size="10.00">element</text>
<text text-anchor="start" x="43.5" y="-307" font-family="Helvetica,sans-Serif" font-size="10.00">+</text>
<text text-anchor="start" x="60.5" y="-307" font-family="Helvetica,sans-Serif" font-size="10.00">name</text>
<text text-anchor="start" x="43.5" y="-292" font-family="Helvetica,sans-Serif" font-size="10.00">+</text>
<text text-anchor="start" x="60.5" y="-292" font-family="Helvetica,sans-Serif" font-size="10.00">incoming</text>
<text text-anchor="start" x="43.5" y="-277" font-family="Helvetica,sans-Serif" font-size="10.00">+</text>
<text text-anchor="start" x="60.5" y="-277" font-family="Helvetica,sans-Serif" font-size="10.00">outgoing</text>
<text text-anchor="start" x="43.5" y="-262" font-family="Helvetica,sans-Serif" font-size="10.00">+</text>
<text text-anchor="start" x="60.5" y="-262" font-family="Helvetica,sans-Serif" font-size="10.00">FlowNode()</text>
<polygon fill="#666666" stroke="#666666" points="35.5,-332 35.5,-332 130.5,-332 130.5,-332 35.5,-332"/>
<polygon fill="#666666" stroke="#666666" points="35.5,-272 35.5,-272 58.5,-272 58.5,-272 35.5,-272"/>
<polygon fill="#666666" stroke="#666666" points="58.5,-272 58.5,-272 130.5,-272 130.5,-272 58.5,-272"/>
<polygon fill="none" stroke="#666666" points="35,-255 35,-349 130,-349 130,-255 35,-255"/>
</a>
</g>
</g>
<!-- Node4&#45;&gt;Node3 -->
<g id="edge3_Node000003_Node000004" class="edge">
<title>Node4&#45;&gt;Node3</title>
<g id="a_edge3_Node000003_Node000004"><a xlink:title=" ">
<path fill="none" stroke="#63b8ff" d="M82.5,-244.59C82.5,-235.62 82.5,-226.79 82.5,-219.15"/>
<polygon fill="none" stroke="#63b8ff" points="79,-244.73 82.5,-254.73 86,-244.73 79,-244.73"/>
</a>
</g>
</g>
<!-- Node5 -->
<g id="Node000005" class="node">
<title>Node5</title>
<g id="a_Node000005"><a xlink:href="classBPMN_1_1ChildNode.html" target="_top" xlink:title="Base class for BPMN elements within a Scope.">
<polygon fill="white" stroke="transparent" points="130.5,-464 34.5,-464 34.5,-385 130.5,-385 130.5,-464"/>
<text text-anchor="start" x="39.5" y="-451.5" font-family="Helvetica,sans-Serif" font-size="10.00">BPMN::ChildNode</text>
<text text-anchor="start" x="42.5" y="-436.5" font-family="Helvetica,sans-Serif" font-size="10.00">+</text>
<text text-anchor="start" x="59.5" y="-436.5" font-family="Helvetica,sans-Serif" font-size="10.00">parent</text>
<text text-anchor="start" x="42.5" y="-421.5" font-family="Helvetica,sans-Serif" font-size="10.00">+</text>
<text text-anchor="start" x="59.5" y="-421.5" font-family="Helvetica,sans-Serif" font-size="10.00">ChildNode()</text>
<text text-anchor="start" x="42.5" y="-406.5" font-family="Helvetica,sans-Serif" font-size="10.00">+</text>
<text text-anchor="start" x="59.5" y="-406.5" font-family="Helvetica,sans-Serif" font-size="10.00">ancestor()</text>
<text text-anchor="start" x="42.5" y="-391.5" font-family="Helvetica,sans-Serif" font-size="10.00">+</text>
<text text-anchor="start" x="59.5" y="-391.5" font-family="Helvetica,sans-Serif" font-size="10.00">ancestor()</text>
<polygon fill="#666666" stroke="#666666" points="34.5,-446.5 34.5,-446.5 130.5,-446.5 130.5,-446.5 34.5,-446.5"/>
<polygon fill="#666666" stroke="#666666" points="34.5,-431.5 34.5,-431.5 57.5,-431.5 57.5,-431.5 34.5,-431.5"/>
<polygon fill="#666666" stroke="#666666" points="57.5,-431.5 57.5,-431.5 130.5,-431.5 130.5,-431.5 57.5,-431.5"/>
<polygon fill="none" stroke="#666666" points="34.5,-385 34.5,-464 130.5,-464 130.5,-385 34.5,-385"/>
</a>
</g>
</g>
<!-- Node5&#45;&gt;Node4 -->
<g id="edge4_Node000004_Node000005" class="edge">
<title>Node5&#45;&gt;Node4</title>
<g id="a_edge4_Node000004_Node000005"><a xlink:title=" ">
<path fill="none" stroke="#63b8ff" d="M82.5,-374.68C82.5,-366.3 82.5,-357.61 82.5,-349.29"/>
<polygon fill="none" stroke="#63b8ff" points="79,-374.71 82.5,-384.71 86,-374.71 79,-374.71"/>
</a>
</g>
</g>
<!-- Node6 -->
<g id="Node000006" class="node">
<title>Node6</title>
<g id="a_Node000006"><a xlink:href="classBPMN_1_1Node.html" target="_top" xlink:title="Base class for all nodes in a BPMN model.">
<polygon fill="white" stroke="transparent" points="118,-624 47,-624 47,-500 118,-500 118,-624"/>
<text text-anchor="start" x="52.5" y="-612" font-family="Helvetica,sans-Serif" font-size="10.00">BPMN::Node</text>
<text text-anchor="start" x="52.5" y="-597" font-family="Helvetica,sans-Serif" font-size="10.00">+</text>
<text text-anchor="start" x="66.5" y="-597" font-family="Helvetica,sans-Serif" font-size="10.00">receiving</text>
<text text-anchor="start" x="52.5" y="-582" font-family="Helvetica,sans-Serif" font-size="10.00">+</text>
<text text-anchor="start" x="66.5" y="-582" font-family="Helvetica,sans-Serif" font-size="10.00">sending</text>
<text text-anchor="start" x="52.5" y="-567" font-family="Helvetica,sans-Serif" font-size="10.00">+</text>
<text text-anchor="start" x="66.5" y="-567" font-family="Helvetica,sans-Serif" font-size="10.00">Node()</text>
<text text-anchor="start" x="52.5" y="-552" font-family="Helvetica,sans-Serif" font-size="10.00">+</text>
<text text-anchor="start" x="66.5" y="-552" font-family="Helvetica,sans-Serif" font-size="10.00">find()</text>
<text text-anchor="start" x="52.5" y="-537" font-family="Helvetica,sans-Serif" font-size="10.00">+</text>
<text text-anchor="start" x="66.5" y="-537" font-family="Helvetica,sans-Serif" font-size="10.00">find()</text>
<text text-anchor="start" x="52.5" y="-522" font-family="Helvetica,sans-Serif" font-size="10.00">+</text>
<text text-anchor="start" x="66.5" y="-522" font-family="Helvetica,sans-Serif" font-size="10.00">find_all()</text>
<text text-anchor="start" x="52.5" y="-507" font-family="Helvetica,sans-Serif" font-size="10.00">+</text>
<text text-anchor="start" x="66.5" y="-507" font-family="Helvetica,sans-Serif" font-size="10.00">find_all()</text>
<polygon fill="#666666" stroke="#666666" points="47.5,-607 47.5,-607 118.5,-607 118.5,-607 47.5,-607"/>
<polygon fill="#666666" stroke="#666666" points="47.5,-577 47.5,-577 64.5,-577 64.5,-577 47.5,-577"/>
<polygon fill="#666666" stroke="#666666" points="64.5,-577 64.5,-577 118.5,-577 118.5,-577 64.5,-577"/>
<polygon fill="none" stroke="#666666" points="47,-500 47,-624 118,-624 118,-500 47,-500"/>
</a>
</g>
</g>
<!-- Node6&#45;&gt;Node5 -->
<g id="edge5_Node000005_Node000006" class="edge">
<title>Node6&#45;&gt;Node5</title>
<g id="a_edge5_Node000005_Node000006"><a xlink:title=" ">
<path fill="none" stroke="#63b8ff" d="M82.5,-489.93C82.5,-481.02 82.5,-472.19 82.5,-464.05"/>
<polygon fill="none" stroke="#63b8ff" points="79,-489.99 82.5,-499.99 86,-489.99 79,-489.99"/>
</a>
</g>
</g>
<!-- Node7 -->
<g id="Node000007" class="node">
<title>Node7</title>
<g id="a_Node000007"><a xlink:href="classBPMN_1_1BaseElement.html" target="_top" xlink:title="Base class for all core BPMN elements.">
<polygon fill="white" stroke="transparent" points="140,-799 25,-799 25,-660 140,-660 140,-799"/>
<text text-anchor="start" x="33" y="-786.5" font-family="Helvetica,sans-Serif" font-size="10.00">BPMN::BaseElement</text>
<text text-anchor="start" x="29.5" y="-771.5" font-family="Helvetica,sans-Serif" font-size="10.00">+</text>
<text text-anchor="start" x="42.5" y="-771.5" font-family="Helvetica,sans-Serif" font-size="10.00">element</text>
<text text-anchor="start" x="29.5" y="-756.5" font-family="Helvetica,sans-Serif" font-size="10.00">+</text>
<text text-anchor="start" x="42.5" y="-756.5" font-family="Helvetica,sans-Serif" font-size="10.00">id</text>
<text text-anchor="start" x="29.5" y="-741.5" font-family="Helvetica,sans-Serif" font-size="10.00">+</text>
<text text-anchor="start" x="42.5" y="-741.5" font-family="Helvetica,sans-Serif" font-size="10.00">extensionElements</text>
<text text-anchor="start" x="29.5" y="-726.5" font-family="Helvetica,sans-Serif" font-size="10.00">+</text>
<text text-anchor="start" x="42.5" y="-726.5" font-family="Helvetica,sans-Serif" font-size="10.00">BaseElement()</text>
<text text-anchor="start" x="29.5" y="-711.5" font-family="Helvetica,sans-Serif" font-size="10.00">+</text>
<text text-anchor="start" x="42.5" y="-711.5" font-family="Helvetica,sans-Serif" font-size="10.00">is()</text>
<text text-anchor="start" x="29.5" y="-696.5" font-family="Helvetica,sans-Serif" font-size="10.00">+</text>
<text text-anchor="start" x="42.5" y="-696.5" font-family="Helvetica,sans-Serif" font-size="10.00">is()</text>
<text text-anchor="start" x="29.5" y="-681.5" font-family="Helvetica,sans-Serif" font-size="10.00">+</text>
<text text-anchor="start" x="42.5" y="-681.5" font-family="Helvetica,sans-Serif" font-size="10.00">get()</text>
<text text-anchor="start" x="29.5" y="-666.5" font-family="Helvetica,sans-Serif" font-size="10.00">+</text>
<text text-anchor="start" x="42.5" y="-666.5" font-family="Helvetica,sans-Serif" font-size="10.00">get()</text>
<polygon fill="#666666" stroke="#666666" points="25.5,-781.5 25.5,-781.5 140.5,-781.5 140.5,-781.5 25.5,-781.5"/>
<polygon fill="#666666" stroke="#666666" points="25.5,-736.5 25.5,-736.5 40.5,-736.5 40.5,-736.5 25.5,-736.5"/>
<polygon fill="#666666" stroke="#666666" points="40.5,-736.5 40.5,-736.5 140.5,-736.5 140.5,-736.5 40.5,-736.5"/>
<polygon fill="none" stroke="#666666" points="25,-660 25,-799 140,-799 140,-660 25,-660"/>
</a>
</g>
</g>
<!-- Node7&#45;&gt;Node6 -->
<g id="edge6_Node000006_Node000007" class="edge">
<title>Node7&#45;&gt;Node6</title>
<g id="a_edge6_Node000006_Node000007"><a xlink:title=" ">
<path fill="none" stroke="#63b8ff" d="M82.5,-649.71C82.5,-641.12 82.5,-632.47 82.5,-624.14"/>
<polygon fill="none" stroke="#63b8ff" points="79,-649.75 82.5,-659.75 86,-649.75 79,-649.75"/>
</a>
</g>
</g>
<!-- Node8 -->
<g id="Node000008" class="node">
<title>Node8</title>
<g id="a_Node000008"><a xlink:href="classBPMN_1_1Element.html" target="_top" xlink:title="Abstract base class for all elements in a BPMN model.">
<polygon fill="white" stroke="transparent" points="125.5,-944 39.5,-944 39.5,-835 125.5,-835 125.5,-944"/>
<text text-anchor="start" x="44.5" y="-931.5" font-family="Helvetica,sans-Serif" font-size="10.00">BPMN::Element</text>
<text text-anchor="start" x="80.5" y="-916.5" font-family="Helvetica,sans-Serif" font-size="10.00"> </text>
<text text-anchor="start" x="44.5" y="-901.5" font-family="Helvetica,sans-Serif" font-size="10.00">+</text>
<text text-anchor="start" x="58.5" y="-901.5" font-family="Helvetica,sans-Serif" font-size="10.00">~Element()</text>
<text text-anchor="start" x="44.5" y="-886.5" font-family="Helvetica,sans-Serif" font-size="10.00">+</text>
<text text-anchor="start" x="58.5" y="-886.5" font-family="Helvetica,sans-Serif" font-size="10.00">represents()</text>
<text text-anchor="start" x="44.5" y="-871.5" font-family="Helvetica,sans-Serif" font-size="10.00">+</text>
<text text-anchor="start" x="58.5" y="-871.5" font-family="Helvetica,sans-Serif" font-size="10.00">represents()</text>
<text text-anchor="start" x="44.5" y="-856.5" font-family="Helvetica,sans-Serif" font-size="10.00">+</text>
<text text-anchor="start" x="58.5" y="-856.5" font-family="Helvetica,sans-Serif" font-size="10.00">as()</text>
<text text-anchor="start" x="44.5" y="-841.5" font-family="Helvetica,sans-Serif" font-size="10.00">+</text>
<text text-anchor="start" x="58.5" y="-841.5" font-family="Helvetica,sans-Serif" font-size="10.00">as()</text>
<polygon fill="#666666" stroke="#666666" points="39.5,-926.5 39.5,-926.5 125.5,-926.5 125.5,-926.5 39.5,-926.5"/>
<polygon fill="#666666" stroke="#666666" points="39.5,-911.5 39.5,-911.5 125.5,-911.5 125.5,-911.5 39.5,-911.5"/>
<polygon fill="none" stroke="#666666" points="39.5,-835 39.5,-944 125.5,-944 125.5,-835 39.5,-835"/>
</a>
</g>
</g>
<!-- Node8&#45;&gt;Node7 -->
<g id="edge7_Node000007_Node000008" class="edge">
<title>Node8&#45;&gt;Node7</title>
<g id="a_edge7_Node000007_Node000008"><a xlink:title=" ">
<path fill="none" stroke="#63b8ff" d="M82.5,-824.55C82.5,-816.23 82.5,-807.67 82.5,-799.28"/>
<polygon fill="none" stroke="#63b8ff" points="79,-824.57 82.5,-834.57 86,-824.57 79,-824.57"/>
</a>
</g>
</g>
</g>
</svg>
