<?xml version="1.0" encoding="UTF-8" standalone="no"?>
<!DOCTYPE svg PUBLIC "-//W3C//DTD SVG 1.1//EN"
 "http://www.w3.org/Graphics/SVG/1.1/DTD/svg11.dtd">
<!-- Generated by graphviz version 2.43.0 (0)
 -->
<!-- Title: BPMN::ThrowEvent Pages: 1 -->
<svg width="1430pt" height="778pt"
 viewBox="0.00 0.00 1430.00 778.00" xmlns="http://www.w3.org/2000/svg" xmlns:xlink="http://www.w3.org/1999/xlink">
<g id="graph0" class="graph" transform="scale(1 1) rotate(0) translate(4 774)">
<title>BPMN::ThrowEvent</title>
<!-- Node1 -->
<g id="node1" class="node">
<title>Node1</title>
<g id="a_node1"><a xlink:title=" ">
<polygon fill="#bfbfbf" stroke="black" points="667.5,-116.5 667.5,-173.5 777.5,-173.5 777.5,-116.5 667.5,-116.5"/>
<text text-anchor="middle" x="722.5" y="-161.5" font-family="Helvetica,sans-Serif" font-size="10.00">BPMN::ThrowEvent</text>
<polyline fill="none" stroke="black" points="667.5,-154.5 777.5,-154.5 "/>
<text text-anchor="start" x="675.5" y="-142.5" font-family="Helvetica,sans-Serif" font-size="10.00">+ element</text>
<polyline fill="none" stroke="black" points="667.5,-135.5 777.5,-135.5 "/>
<text text-anchor="start" x="675.5" y="-123.5" font-family="Helvetica,sans-Serif" font-size="10.00">+ ThrowEvent()</text>
</a>
</g>
</g>
<!-- Node6 -->
<g id="node6" class="node">
<title>Node6</title>
<g id="a_node6"><a xlink:href="classBPMN_1_1CancelEndEvent.html" target="_top" xlink:title=" ">
<polygon fill="none" stroke="black" points="0,-11.5 0,-68.5 131,-68.5 131,-11.5 0,-11.5"/>
<text text-anchor="middle" x="65.5" y="-56.5" font-family="Helvetica,sans-Serif" font-size="10.00">BPMN::CancelEndEvent</text>
<polyline fill="none" stroke="black" points="0,-49.5 131,-49.5 "/>
<text text-anchor="start" x="8" y="-37.5" font-family="Helvetica,sans-Serif" font-size="10.00">+ element</text>
<polyline fill="none" stroke="black" points="0,-30.5 131,-30.5 "/>
<text text-anchor="start" x="8" y="-18.5" font-family="Helvetica,sans-Serif" font-size="10.00">+ CancelEndEvent()</text>
</a>
</g>
</g>
<!-- Node1&#45;&gt;Node6 -->
<g id="edge5" class="edge">
<title>Node1&#45;&gt;Node6</title>
<path fill="none" stroke="midnightblue" d="M657.04,-144.71C547.47,-144.16 321.06,-135.6 139.5,-80 130.06,-77.11 120.41,-73 111.33,-68.53"/>
<polygon fill="none" stroke="midnightblue" points="657.27,-148.21 667.28,-144.73 657.29,-141.21 657.27,-148.21"/>
</g>
<!-- Node7 -->
<g id="node7" class="node">
<title>Node7</title>
<g id="a_node7"><a xlink:href="classBPMN_1_1CompensateThrowEvent.html" target="_top" xlink:title=" ">
<polygon fill="none" stroke="black" points="149,-11.5 149,-68.5 320,-68.5 320,-11.5 149,-11.5"/>
<text text-anchor="middle" x="234.5" y="-56.5" font-family="Helvetica,sans-Serif" font-size="10.00">BPMN::CompensateThrowEvent</text>
<polyline fill="none" stroke="black" points="149,-49.5 320,-49.5 "/>
<text text-anchor="start" x="157" y="-37.5" font-family="Helvetica,sans-Serif" font-size="10.00">+ element</text>
<polyline fill="none" stroke="black" points="149,-30.5 320,-30.5 "/>
<text text-anchor="start" x="157" y="-18.5" font-family="Helvetica,sans-Serif" font-size="10.00">+ CompensateThrowEvent()</text>
</a>
</g>
</g>
<!-- Node1&#45;&gt;Node7 -->
<g id="edge6" class="edge">
<title>Node1&#45;&gt;Node7</title>
<path fill="none" stroke="midnightblue" d="M657.17,-138.08C578.17,-129.85 441.73,-112.21 328.5,-80 317.54,-76.88 306.13,-72.86 295.2,-68.59"/>
<polygon fill="none" stroke="midnightblue" points="657.15,-141.6 667.45,-139.13 657.86,-134.63 657.15,-141.6"/>
</g>
<!-- Node8 -->
<g id="node8" class="node">
<title>Node8</title>
<g id="a_node8"><a xlink:href="classBPMN_1_1ErrorEndEvent.html" target="_top" xlink:title=" ">
<polygon fill="none" stroke="black" points="338,-11.5 338,-68.5 459,-68.5 459,-11.5 338,-11.5"/>
<text text-anchor="middle" x="398.5" y="-56.5" font-family="Helvetica,sans-Serif" font-size="10.00">BPMN::ErrorEndEvent</text>
<polyline fill="none" stroke="black" points="338,-49.5 459,-49.5 "/>
<text text-anchor="start" x="346" y="-37.5" font-family="Helvetica,sans-Serif" font-size="10.00">+ element</text>
<polyline fill="none" stroke="black" points="338,-30.5 459,-30.5 "/>
<text text-anchor="start" x="346" y="-18.5" font-family="Helvetica,sans-Serif" font-size="10.00">+ ErrorEndEvent()</text>
</a>
</g>
</g>
<!-- Node1&#45;&gt;Node8 -->
<g id="edge7" class="edge">
<title>Node1&#45;&gt;Node8</title>
<path fill="none" stroke="midnightblue" d="M657.32,-132.47C605.12,-122.08 530.62,-104.64 468.5,-80 460.35,-76.77 451.98,-72.77 443.98,-68.57"/>
<polygon fill="none" stroke="midnightblue" points="656.96,-135.96 667.45,-134.45 658.31,-129.09 656.96,-135.96"/>
</g>
<!-- Node9 -->
<g id="node9" class="node">
<title>Node9</title>
<g id="a_node9"><a xlink:href="classBPMN_1_1EscalationThrowEvent.html" target="_top" xlink:title=" ">
<polygon fill="none" stroke="black" points="477.5,-11.5 477.5,-68.5 637.5,-68.5 637.5,-11.5 477.5,-11.5"/>
<text text-anchor="middle" x="557.5" y="-56.5" font-family="Helvetica,sans-Serif" font-size="10.00">BPMN::EscalationThrowEvent</text>
<polyline fill="none" stroke="black" points="477.5,-49.5 637.5,-49.5 "/>
<text text-anchor="start" x="485.5" y="-37.5" font-family="Helvetica,sans-Serif" font-size="10.00">+ element</text>
<polyline fill="none" stroke="black" points="477.5,-30.5 637.5,-30.5 "/>
<text text-anchor="start" x="485.5" y="-18.5" font-family="Helvetica,sans-Serif" font-size="10.00">+ EscalationThrowEvent()</text>
</a>
</g>
</g>
<!-- Node1&#45;&gt;Node9 -->
<g id="edge8" class="edge">
<title>Node1&#45;&gt;Node9</title>
<path fill="none" stroke="midnightblue" d="M669.75,-111.07C647.87,-97.41 622.75,-81.73 601.84,-68.68"/>
<polygon fill="none" stroke="midnightblue" points="667.95,-114.07 678.28,-116.4 671.65,-108.13 667.95,-114.07"/>
</g>
<!-- Node10 -->
<g id="node10" class="node">
<title>Node10</title>
<g id="a_node10"><a xlink:href="classBPMN_1_1LinkSourceEvent.html" target="_top" xlink:title=" ">
<polygon fill="none" stroke="black" points="656,-0.5 656,-79.5 789,-79.5 789,-0.5 656,-0.5"/>
<text text-anchor="middle" x="722.5" y="-67.5" font-family="Helvetica,sans-Serif" font-size="10.00">BPMN::LinkSourceEvent</text>
<polyline fill="none" stroke="black" points="656,-60.5 789,-60.5 "/>
<text text-anchor="start" x="664" y="-48.5" font-family="Helvetica,sans-Serif" font-size="10.00">+ element</text>
<text text-anchor="start" x="664" y="-37.5" font-family="Helvetica,sans-Serif" font-size="10.00">+ linkName</text>
<text text-anchor="start" x="664" y="-26.5" font-family="Helvetica,sans-Serif" font-size="10.00">+ target</text>
<polyline fill="none" stroke="black" points="656,-19.5 789,-19.5 "/>
<text text-anchor="start" x="664" y="-7.5" font-family="Helvetica,sans-Serif" font-size="10.00">+ LinkSourceEvent()</text>
</a>
</g>
</g>
<!-- Node1&#45;&gt;Node10 -->
<g id="edge9" class="edge">
<title>Node1&#45;&gt;Node10</title>
<path fill="none" stroke="midnightblue" d="M722.5,-106.16C722.5,-97.47 722.5,-88.23 722.5,-79.52"/>
<polygon fill="none" stroke="midnightblue" points="719,-106.4 722.5,-116.4 726,-106.4 719,-106.4"/>
</g>
<!-- Node11 -->
<g id="node11" class="node">
<title>Node11</title>
<g id="a_node11"><a xlink:href="classBPMN_1_1MessageThrowEvent.html" target="_top" xlink:title=" ">
<polygon fill="none" stroke="black" points="807,-11.5 807,-68.5 960,-68.5 960,-11.5 807,-11.5"/>
<text text-anchor="middle" x="883.5" y="-56.5" font-family="Helvetica,sans-Serif" font-size="10.00">BPMN::MessageThrowEvent</text>
<polyline fill="none" stroke="black" points="807,-49.5 960,-49.5 "/>
<text text-anchor="start" x="815" y="-37.5" font-family="Helvetica,sans-Serif" font-size="10.00">+ element</text>
<polyline fill="none" stroke="black" points="807,-30.5 960,-30.5 "/>
<text text-anchor="start" x="815" y="-18.5" font-family="Helvetica,sans-Serif" font-size="10.00">+ MessageThrowEvent()</text>
</a>
</g>
</g>
<!-- Node1&#45;&gt;Node11 -->
<g id="edge10" class="edge">
<title>Node1&#45;&gt;Node11</title>
<path fill="none" stroke="midnightblue" d="M774.25,-110.89C795.54,-97.27 819.92,-81.68 840.24,-68.68"/>
<polygon fill="none" stroke="midnightblue" points="772.18,-108.06 765.65,-116.4 775.95,-113.96 772.18,-108.06"/>
</g>
<!-- Node12 -->
<g id="node12" class="node">
<title>Node12</title>
<g id="a_node12"><a xlink:href="classBPMN_1_1SignalThrowEvent.html" target="_top" xlink:title=" ">
<polygon fill="none" stroke="black" points="978.5,-11.5 978.5,-68.5 1118.5,-68.5 1118.5,-11.5 978.5,-11.5"/>
<text text-anchor="middle" x="1048.5" y="-56.5" font-family="Helvetica,sans-Serif" font-size="10.00">BPMN::SignalThrowEvent</text>
<polyline fill="none" stroke="black" points="978.5,-49.5 1118.5,-49.5 "/>
<text text-anchor="start" x="986.5" y="-37.5" font-family="Helvetica,sans-Serif" font-size="10.00">+ element</text>
<polyline fill="none" stroke="black" points="978.5,-30.5 1118.5,-30.5 "/>
<text text-anchor="start" x="986.5" y="-18.5" font-family="Helvetica,sans-Serif" font-size="10.00">+ SignalThrowEvent()</text>
</a>
</g>
</g>
<!-- Node1&#45;&gt;Node12 -->
<g id="edge11" class="edge">
<title>Node1&#45;&gt;Node12</title>
<path fill="none" stroke="midnightblue" d="M787.75,-130.93C838.2,-119.91 909.36,-102.37 969.5,-80 978.39,-76.69 987.61,-72.7 996.47,-68.55"/>
<polygon fill="none" stroke="midnightblue" points="786.98,-127.52 777.94,-133.05 788.46,-134.36 786.98,-127.52"/>
</g>
<!-- Node13 -->
<g id="node13" class="node">
<title>Node13</title>
<g id="a_node13"><a xlink:href="classBPMN_1_1TerminateEvent.html" target="_top" xlink:title=" ">
<polygon fill="none" stroke="black" points="1136.5,-11.5 1136.5,-68.5 1264.5,-68.5 1264.5,-11.5 1136.5,-11.5"/>
<text text-anchor="middle" x="1200.5" y="-56.5" font-family="Helvetica,sans-Serif" font-size="10.00">BPMN::TerminateEvent</text>
<polyline fill="none" stroke="black" points="1136.5,-49.5 1264.5,-49.5 "/>
<text text-anchor="start" x="1144.5" y="-37.5" font-family="Helvetica,sans-Serif" font-size="10.00">+ element</text>
<polyline fill="none" stroke="black" points="1136.5,-30.5 1264.5,-30.5 "/>
<text text-anchor="start" x="1144.5" y="-18.5" font-family="Helvetica,sans-Serif" font-size="10.00">+ TerminateEvent()</text>
</a>
</g>
</g>
<!-- Node1&#45;&gt;Node13 -->
<g id="edge12" class="edge">
<title>Node1&#45;&gt;Node13</title>
<path fill="none" stroke="midnightblue" d="M787.69,-140.39C869.07,-134.39 1011.65,-118.87 1127.5,-80 1136.49,-76.98 1145.7,-72.93 1154.41,-68.58"/>
<polygon fill="none" stroke="midnightblue" points="787.32,-136.91 777.59,-141.11 787.82,-143.89 787.32,-136.91"/>
</g>
<!-- Node14 -->
<g id="node14" class="node">
<title>Node14</title>
<g id="a_node14"><a xlink:href="classBPMN_1_1UntypedEndEvent.html" target="_top" xlink:title=" ">
<polygon fill="none" stroke="black" points="1283,-11.5 1283,-68.5 1422,-68.5 1422,-11.5 1283,-11.5"/>
<text text-anchor="middle" x="1352.5" y="-56.5" font-family="Helvetica,sans-Serif" font-size="10.00">BPMN::UntypedEndEvent</text>
<polyline fill="none" stroke="black" points="1283,-49.5 1422,-49.5 "/>
<text text-anchor="start" x="1291" y="-37.5" font-family="Helvetica,sans-Serif" font-size="10.00">+ element</text>
<polyline fill="none" stroke="black" points="1283,-30.5 1422,-30.5 "/>
<text text-anchor="start" x="1291" y="-18.5" font-family="Helvetica,sans-Serif" font-size="10.00">+ UntypedEndEvent()</text>
</a>
</g>
</g>
<!-- Node1&#45;&gt;Node14 -->
<g id="edge13" class="edge">
<title>Node1&#45;&gt;Node14</title>
<path fill="none" stroke="midnightblue" d="M787.79,-143.58C892.43,-141.33 1103.22,-130.28 1273.5,-80 1283.33,-77.1 1293.42,-73.04 1302.97,-68.64"/>
<polygon fill="none" stroke="midnightblue" points="787.63,-140.08 777.7,-143.78 787.77,-147.08 787.63,-140.08"/>
</g>
<!-- Node2 -->
<g id="node2" class="node">
<title>Node2</title>
<g id="a_node2"><a xlink:href="classBPMN_1_1Event.html" target="_top" xlink:title=" ">
<polygon fill="none" stroke="black" points="682.5,-210.5 682.5,-267.5 762.5,-267.5 762.5,-210.5 682.5,-210.5"/>
<text text-anchor="middle" x="722.5" y="-255.5" font-family="Helvetica,sans-Serif" font-size="10.00">BPMN::Event</text>
<polyline fill="none" stroke="black" points="682.5,-248.5 762.5,-248.5 "/>
<text text-anchor="start" x="690.5" y="-236.5" font-family="Helvetica,sans-Serif" font-size="10.00">+ element</text>
<polyline fill="none" stroke="black" points="682.5,-229.5 762.5,-229.5 "/>
<text text-anchor="start" x="690.5" y="-217.5" font-family="Helvetica,sans-Serif" font-size="10.00">+ Event()</text>
</a>
</g>
</g>
<!-- Node2&#45;&gt;Node1 -->
<g id="edge1" class="edge">
<title>Node2&#45;&gt;Node1</title>
<path fill="none" stroke="midnightblue" d="M722.5,-200.21C722.5,-191.29 722.5,-181.95 722.5,-173.58"/>
<polygon fill="none" stroke="midnightblue" points="719,-200.4 722.5,-210.4 726,-200.4 719,-200.4"/>
</g>
<!-- Node3 -->
<g id="node3" class="node">
<title>Node3</title>
<g id="a_node3"><a xlink:href="classBPMN_1_1FlowNode.html" target="_top" xlink:title="Represents a flow node in a BPMN process.">
<polygon fill="none" stroke="black" points="672,-304.5 672,-394.5 773,-394.5 773,-304.5 672,-304.5"/>
<text text-anchor="middle" x="722.5" y="-382.5" font-family="Helvetica,sans-Serif" font-size="10.00">BPMN::FlowNode</text>
<polyline fill="none" stroke="black" points="672,-375.5 773,-375.5 "/>
<text text-anchor="start" x="680" y="-363.5" font-family="Helvetica,sans-Serif" font-size="10.00">+ element</text>
<text text-anchor="start" x="680" y="-352.5" font-family="Helvetica,sans-Serif" font-size="10.00">+ name</text>
<text text-anchor="start" x="680" y="-341.5" font-family="Helvetica,sans-Serif" font-size="10.00">+ incoming</text>
<text text-anchor="start" x="680" y="-330.5" font-family="Helvetica,sans-Serif" font-size="10.00">+ outgoing</text>
<polyline fill="none" stroke="black" points="672,-323.5 773,-323.5 "/>
<text text-anchor="start" x="680" y="-311.5" font-family="Helvetica,sans-Serif" font-size="10.00">+ FlowNode()</text>
</a>
</g>
</g>
<!-- Node3&#45;&gt;Node2 -->
<g id="edge2" class="edge">
<title>Node3&#45;&gt;Node2</title>
<path fill="none" stroke="midnightblue" d="M722.5,-294.35C722.5,-285.07 722.5,-275.79 722.5,-267.59"/>
<polygon fill="none" stroke="midnightblue" points="719,-294.37 722.5,-304.37 726,-294.37 719,-294.37"/>
</g>
<!-- Node4 -->
<g id="node4" class="node">
<title>Node4</title>
<g id="a_node4"><a xlink:href="classBPMN_1_1ChildNode.html" target="_top" xlink:title="Represents a node in a BPMN process that has a parent.">
<polygon fill="none" stroke="black" points="671.5,-431.5 671.5,-488.5 773.5,-488.5 773.5,-431.5 671.5,-431.5"/>
<text text-anchor="middle" x="722.5" y="-476.5" font-family="Helvetica,sans-Serif" font-size="10.00">BPMN::ChildNode</text>
<polyline fill="none" stroke="black" points="671.5,-469.5 773.5,-469.5 "/>
<text text-anchor="start" x="679.5" y="-457.5" font-family="Helvetica,sans-Serif" font-size="10.00">+ parent</text>
<polyline fill="none" stroke="black" points="671.5,-450.5 773.5,-450.5 "/>
<text text-anchor="start" x="679.5" y="-438.5" font-family="Helvetica,sans-Serif" font-size="10.00">+ ChildNode()</text>
</a>
</g>
</g>
<!-- Node4&#45;&gt;Node3 -->
<g id="edge3" class="edge">
<title>Node4&#45;&gt;Node3</title>
<path fill="none" stroke="midnightblue" d="M722.5,-421.21C722.5,-412.61 722.5,-403.39 722.5,-394.55"/>
<polygon fill="none" stroke="midnightblue" points="719,-421.34 722.5,-431.34 726,-421.34 719,-421.34"/>
</g>
<!-- Node5 -->
<g id="node5" class="node">
<title>Node5</title>
<g id="a_node5"><a xlink:href="classBPMN_1_1Node.html" target="_top" xlink:title="Represents a node in a BPMN process.">
<polygon fill="none" stroke="black" points="661.5,-525.5 661.5,-769.5 783.5,-769.5 783.5,-525.5 661.5,-525.5"/>
<text text-anchor="middle" x="722.5" y="-757.5" font-family="Helvetica,sans-Serif" font-size="10.00">BPMN::Node</text>
<polyline fill="none" stroke="black" points="661.5,-750.5 783.5,-750.5 "/>
<text text-anchor="start" x="669.5" y="-738.5" font-family="Helvetica,sans-Serif" font-size="10.00">+ id</text>
<text text-anchor="start" x="669.5" y="-727.5" font-family="Helvetica,sans-Serif" font-size="10.00">+ receiving</text>
<text text-anchor="start" x="669.5" y="-716.5" font-family="Helvetica,sans-Serif" font-size="10.00">+ sending</text>
<text text-anchor="start" x="669.5" y="-705.5" font-family="Helvetica,sans-Serif" font-size="10.00">+ element</text>
<text text-anchor="start" x="669.5" y="-694.5" font-family="Helvetica,sans-Serif" font-size="10.00">+ extensionElements</text>
<polyline fill="none" stroke="black" points="661.5,-687.5 783.5,-687.5 "/>
<text text-anchor="start" x="669.5" y="-675.5" font-family="Helvetica,sans-Serif" font-size="10.00">+ Node()</text>
<text text-anchor="start" x="669.5" y="-664.5" font-family="Helvetica,sans-Serif" font-size="10.00">+ ~Node()</text>
<text text-anchor="start" x="669.5" y="-653.5" font-family="Helvetica,sans-Serif" font-size="10.00">+ is()</text>
<text text-anchor="start" x="669.5" y="-642.5" font-family="Helvetica,sans-Serif" font-size="10.00">+ is()</text>
<text text-anchor="start" x="669.5" y="-631.5" font-family="Helvetica,sans-Serif" font-size="10.00">+ get()</text>
<text text-anchor="start" x="669.5" y="-620.5" font-family="Helvetica,sans-Serif" font-size="10.00">+ get()</text>
<text text-anchor="start" x="669.5" y="-609.5" font-family="Helvetica,sans-Serif" font-size="10.00">+ represents()</text>
<text text-anchor="start" x="669.5" y="-598.5" font-family="Helvetica,sans-Serif" font-size="10.00">+ represents()</text>
<text text-anchor="start" x="669.5" y="-587.5" font-family="Helvetica,sans-Serif" font-size="10.00">+ as()</text>
<text text-anchor="start" x="669.5" y="-576.5" font-family="Helvetica,sans-Serif" font-size="10.00">+ as()</text>
<text text-anchor="start" x="669.5" y="-565.5" font-family="Helvetica,sans-Serif" font-size="10.00">+ find()</text>
<text text-anchor="start" x="669.5" y="-554.5" font-family="Helvetica,sans-Serif" font-size="10.00">+ find()</text>
<text text-anchor="start" x="669.5" y="-543.5" font-family="Helvetica,sans-Serif" font-size="10.00">+ find_all()</text>
<text text-anchor="start" x="669.5" y="-532.5" font-family="Helvetica,sans-Serif" font-size="10.00">+ find_all()</text>
</a>
</g>
</g>
<!-- Node5&#45;&gt;Node4 -->
<g id="edge4" class="edge">
<title>Node5&#45;&gt;Node4</title>
<path fill="none" stroke="midnightblue" d="M722.5,-515.34C722.5,-505.53 722.5,-496.42 722.5,-488.57"/>
<polygon fill="none" stroke="midnightblue" points="719,-515.36 722.5,-525.36 726,-515.36 719,-515.36"/>
</g>
</g>
</svg>
