<?xml version="1.0" encoding="UTF-8" standalone="no"?>
<!DOCTYPE svg PUBLIC "-//W3C//DTD SVG 1.1//EN"
 "http://www.w3.org/Graphics/SVG/1.1/DTD/svg11.dtd">
<!-- Generated by graphviz version 2.43.0 (0)
 -->
<!-- Title: XML::bpmn::tCorrelationSubscription Pages: 1 -->
<svg width="197pt" height="732pt"
 viewBox="0.00 0.00 197.00 732.00" xmlns="http://www.w3.org/2000/svg" xmlns:xlink="http://www.w3.org/1999/xlink">
<g id="graph0" class="graph" transform="scale(1 1) rotate(0) translate(4 728)">
<title>XML::bpmn::tCorrelationSubscription</title>
<!-- Node1 -->
<g id="Node000001" class="node">
<title>Node1</title>
<g id="a_Node000001"><a xlink:title=" ">
<polygon fill="#999999" stroke="transparent" points="189,-164 0,-164 0,-85 189,-85 189,-164"/>
<text text-anchor="start" x="5.5" y="-151.5" font-family="Helvetica,sans-Serif" font-size="10.00">XML::bpmn::tCorrelationSubscription</text>
<text text-anchor="start" x="13.5" y="-136.5" font-family="Helvetica,sans-Serif" font-size="10.00">+</text>
<text text-anchor="start" x="35.5" y="-136.5" font-family="Helvetica,sans-Serif" font-size="10.00">correlationPropertyBinding</text>
<text text-anchor="start" x="13.5" y="-121.5" font-family="Helvetica,sans-Serif" font-size="10.00">+</text>
<text text-anchor="start" x="35.5" y="-121.5" font-family="Helvetica,sans-Serif" font-size="10.00">correlationKeyRef</text>
<text text-anchor="start" x="13.5" y="-106.5" font-family="Helvetica,sans-Serif" font-size="10.00">+</text>
<text text-anchor="start" x="35.5" y="-106.5" font-family="Helvetica,sans-Serif" font-size="10.00">defaults</text>
<text text-anchor="start" x="13.5" y="-91.5" font-family="Helvetica,sans-Serif" font-size="10.00">#</text>
<text text-anchor="start" x="35.5" y="-91.5" font-family="Helvetica,sans-Serif" font-size="10.00">tCorrelationSubscription()</text>
<polygon fill="#666666" stroke="#666666" points="0.5,-146.5 0.5,-146.5 189.5,-146.5 189.5,-146.5 0.5,-146.5"/>
<polygon fill="#666666" stroke="#666666" points="0.5,-101.5 0.5,-101.5 33.5,-101.5 33.5,-101.5 0.5,-101.5"/>
<polygon fill="#666666" stroke="#666666" points="33.5,-101.5 33.5,-101.5 189.5,-101.5 189.5,-101.5 33.5,-101.5"/>
<polygon fill="none" stroke="#666666" points="0,-85 0,-164 189,-164 189,-85 0,-85"/>
</a>
</g>
</g>
<!-- Node4 -->
<g id="Node000004" class="node">
<title>Node4</title>
<g id="a_Node000004"><a xlink:href="classXML_1_1bpmn_1_1correlationSubscription.html" target="_top" xlink:title=" ">
<polygon fill="white" stroke="transparent" points="186.5,-49 2.5,-49 2.5,0 186.5,0 186.5,-49"/>
<text text-anchor="start" x="7.5" y="-36.5" font-family="Helvetica,sans-Serif" font-size="10.00">XML::bpmn::correlationSubscription</text>
<text text-anchor="start" x="17" y="-21.5" font-family="Helvetica,sans-Serif" font-size="10.00">+</text>
<text text-anchor="start" x="40.5" y="-21.5" font-family="Helvetica,sans-Serif" font-size="10.00">defaults</text>
<text text-anchor="start" x="17" y="-6.5" font-family="Helvetica,sans-Serif" font-size="10.00">#</text>
<text text-anchor="start" x="40.5" y="-6.5" font-family="Helvetica,sans-Serif" font-size="10.00">correlationSubscription()</text>
<polygon fill="#666666" stroke="#666666" points="2.5,-31.5 2.5,-31.5 186.5,-31.5 186.5,-31.5 2.5,-31.5"/>
<polygon fill="#666666" stroke="#666666" points="2.5,-16.5 2.5,-16.5 38.5,-16.5 38.5,-16.5 2.5,-16.5"/>
<polygon fill="#666666" stroke="#666666" points="38.5,-16.5 38.5,-16.5 186.5,-16.5 186.5,-16.5 38.5,-16.5"/>
<polygon fill="none" stroke="#666666" points="2.5,0 2.5,-49 186.5,-49 186.5,0 2.5,0"/>
</a>
</g>
</g>
<!-- Node1&#45;&gt;Node4 -->
<g id="edge3_Node000001_Node000004" class="edge">
<title>Node1&#45;&gt;Node4</title>
<g id="a_edge3_Node000001_Node000004"><a xlink:title=" ">
<path fill="none" stroke="#63b8ff" d="M94.5,-74.72C94.5,-65.75 94.5,-56.78 94.5,-49"/>
<polygon fill="none" stroke="#63b8ff" points="91,-74.77 94.5,-84.77 98,-74.77 91,-74.77"/>
</a>
</g>
</g>
<!-- Node2 -->
<g id="Node000002" class="node">
<title>Node2</title>
<g id="a_Node000002"><a xlink:href="classXML_1_1bpmn_1_1tBaseElement.html" target="_top" xlink:title=" ">
<polygon fill="white" stroke="transparent" points="164.5,-294 24.5,-294 24.5,-200 164.5,-200 164.5,-294"/>
<text text-anchor="start" x="29.5" y="-282" font-family="Helvetica,sans-Serif" font-size="10.00">XML::bpmn::tBaseElement</text>
<text text-anchor="start" x="34.5" y="-267" font-family="Helvetica,sans-Serif" font-size="10.00">+</text>
<text text-anchor="start" x="53.5" y="-267" font-family="Helvetica,sans-Serif" font-size="10.00">documentation</text>
<text text-anchor="start" x="34.5" y="-252" font-family="Helvetica,sans-Serif" font-size="10.00">+</text>
<text text-anchor="start" x="53.5" y="-252" font-family="Helvetica,sans-Serif" font-size="10.00">extensionElements</text>
<text text-anchor="start" x="34.5" y="-237" font-family="Helvetica,sans-Serif" font-size="10.00">+</text>
<text text-anchor="start" x="53.5" y="-237" font-family="Helvetica,sans-Serif" font-size="10.00">id</text>
<text text-anchor="start" x="34.5" y="-222" font-family="Helvetica,sans-Serif" font-size="10.00">+</text>
<text text-anchor="start" x="53.5" y="-222" font-family="Helvetica,sans-Serif" font-size="10.00">defaults</text>
<text text-anchor="start" x="34.5" y="-207" font-family="Helvetica,sans-Serif" font-size="10.00">#</text>
<text text-anchor="start" x="53.5" y="-207" font-family="Helvetica,sans-Serif" font-size="10.00">tBaseElement()</text>
<polygon fill="#666666" stroke="#666666" points="24.5,-277 24.5,-277 164.5,-277 164.5,-277 24.5,-277"/>
<polygon fill="#666666" stroke="#666666" points="24.5,-217 24.5,-217 51.5,-217 51.5,-217 24.5,-217"/>
<polygon fill="#666666" stroke="#666666" points="51.5,-217 51.5,-217 164.5,-217 164.5,-217 51.5,-217"/>
<polygon fill="none" stroke="#666666" points="24.5,-200 24.5,-294 164.5,-294 164.5,-200 24.5,-200"/>
</a>
</g>
</g>
<!-- Node2&#45;&gt;Node1 -->
<g id="edge1_Node000001_Node000002" class="edge">
<title>Node2&#45;&gt;Node1</title>
<g id="a_edge1_Node000001_Node000002"><a xlink:title=" ">
<path fill="none" stroke="#63b8ff" d="M94.5,-189.49C94.5,-180.99 94.5,-172.39 94.5,-164.37"/>
<polygon fill="none" stroke="#63b8ff" points="91,-189.76 94.5,-199.76 98,-189.76 91,-189.76"/>
</a>
</g>
</g>
<!-- Node3 -->
<g id="Node000003" class="node">
<title>Node3</title>
<g id="a_Node000003"><a xlink:href="classXML_1_1XMLObject.html" target="_top" xlink:title="A class representing a node in an XML&#45;tree.">
<polygon fill="white" stroke="transparent" points="154.5,-724 34.5,-724 34.5,-330 154.5,-330 154.5,-724"/>
<text text-anchor="start" x="54.5" y="-712" font-family="Helvetica,sans-Serif" font-size="10.00">XML::XMLObject</text>
<text text-anchor="start" x="38.5" y="-697" font-family="Helvetica,sans-Serif" font-size="10.00">+</text>
<text text-anchor="start" x="51.5" y="-697" font-family="Helvetica,sans-Serif" font-size="10.00">xmlns</text>
<text text-anchor="start" x="38.5" y="-682" font-family="Helvetica,sans-Serif" font-size="10.00">+</text>
<text text-anchor="start" x="51.5" y="-682" font-family="Helvetica,sans-Serif" font-size="10.00">className</text>
<text text-anchor="start" x="38.5" y="-667" font-family="Helvetica,sans-Serif" font-size="10.00">+</text>
<text text-anchor="start" x="51.5" y="-667" font-family="Helvetica,sans-Serif" font-size="10.00">prefix</text>
<text text-anchor="start" x="38.5" y="-652" font-family="Helvetica,sans-Serif" font-size="10.00">+</text>
<text text-anchor="start" x="51.5" y="-652" font-family="Helvetica,sans-Serif" font-size="10.00">elementName</text>
<text text-anchor="start" x="38.5" y="-637" font-family="Helvetica,sans-Serif" font-size="10.00">+</text>
<text text-anchor="start" x="51.5" y="-637" font-family="Helvetica,sans-Serif" font-size="10.00">textContent</text>
<text text-anchor="start" x="38.5" y="-622" font-family="Helvetica,sans-Serif" font-size="10.00">+</text>
<text text-anchor="start" x="51.5" y="-622" font-family="Helvetica,sans-Serif" font-size="10.00">children</text>
<text text-anchor="start" x="38.5" y="-607" font-family="Helvetica,sans-Serif" font-size="10.00">+</text>
<text text-anchor="start" x="51.5" y="-607" font-family="Helvetica,sans-Serif" font-size="10.00">attributes</text>
<text text-anchor="start" x="38.5" y="-592" font-family="Helvetica,sans-Serif" font-size="10.00">+</text>
<text text-anchor="start" x="51.5" y="-592" font-family="Helvetica,sans-Serif" font-size="10.00">defaults</text>
<text text-anchor="start" x="38.5" y="-577" font-family="Helvetica,sans-Serif" font-size="10.00">#</text>
<text text-anchor="start" x="51.5" y="-577" font-family="Helvetica,sans-Serif" font-size="10.00">factory</text>
<text text-anchor="start" x="38.5" y="-562" font-family="Helvetica,sans-Serif" font-size="10.00">+</text>
<text text-anchor="start" x="51.5" y="-562" font-family="Helvetica,sans-Serif" font-size="10.00">~XMLObject()</text>
<text text-anchor="start" x="38.5" y="-547" font-family="Helvetica,sans-Serif" font-size="10.00">+</text>
<text text-anchor="start" x="51.5" y="-547" font-family="Helvetica,sans-Serif" font-size="10.00">is()</text>
<text text-anchor="start" x="38.5" y="-532" font-family="Helvetica,sans-Serif" font-size="10.00">+</text>
<text text-anchor="start" x="51.5" y="-532" font-family="Helvetica,sans-Serif" font-size="10.00">is()</text>
<text text-anchor="start" x="38.5" y="-517" font-family="Helvetica,sans-Serif" font-size="10.00">+</text>
<text text-anchor="start" x="51.5" y="-517" font-family="Helvetica,sans-Serif" font-size="10.00">get()</text>
<text text-anchor="start" x="38.5" y="-502" font-family="Helvetica,sans-Serif" font-size="10.00">+</text>
<text text-anchor="start" x="51.5" y="-502" font-family="Helvetica,sans-Serif" font-size="10.00">get()</text>
<text text-anchor="start" x="38.5" y="-487" font-family="Helvetica,sans-Serif" font-size="10.00">+</text>
<text text-anchor="start" x="51.5" y="-487" font-family="Helvetica,sans-Serif" font-size="10.00">find()</text>
<text text-anchor="start" x="38.5" y="-472" font-family="Helvetica,sans-Serif" font-size="10.00">+</text>
<text text-anchor="start" x="51.5" y="-472" font-family="Helvetica,sans-Serif" font-size="10.00">find()</text>
<text text-anchor="start" x="38.5" y="-457" font-family="Helvetica,sans-Serif" font-size="10.00">+</text>
<text text-anchor="start" x="51.5" y="-457" font-family="Helvetica,sans-Serif" font-size="10.00">stringify()</text>
<text text-anchor="start" x="38.5" y="-442" font-family="Helvetica,sans-Serif" font-size="10.00">+</text>
<text text-anchor="start" x="51.5" y="-442" font-family="Helvetica,sans-Serif" font-size="10.00">format()</text>
<text text-anchor="start" x="38.5" y="-427" font-family="Helvetica,sans-Serif" font-size="10.00">+</text>
<text text-anchor="start" x="51.5" y="-427" font-family="Helvetica,sans-Serif" font-size="10.00">getRequiredChild()</text>
<text text-anchor="start" x="51.5" y="-412" font-family="Helvetica,sans-Serif" font-size="10.00">and 7 more...</text>
<text text-anchor="start" x="38.5" y="-397" font-family="Helvetica,sans-Serif" font-size="10.00">+</text>
<text text-anchor="start" x="51.5" y="-397" font-family="Helvetica,sans-Serif" font-size="10.00">createFromStream()</text>
<text text-anchor="start" x="38.5" y="-382" font-family="Helvetica,sans-Serif" font-size="10.00">+</text>
<text text-anchor="start" x="51.5" y="-382" font-family="Helvetica,sans-Serif" font-size="10.00">createFromString()</text>
<text text-anchor="start" x="38.5" y="-367" font-family="Helvetica,sans-Serif" font-size="10.00">+</text>
<text text-anchor="start" x="51.5" y="-367" font-family="Helvetica,sans-Serif" font-size="10.00">createFromFile()</text>
<text text-anchor="start" x="38.5" y="-352" font-family="Helvetica,sans-Serif" font-size="10.00">#</text>
<text text-anchor="start" x="51.5" y="-352" font-family="Helvetica,sans-Serif" font-size="10.00">XMLObject()</text>
<text text-anchor="start" x="38.5" y="-337" font-family="Helvetica,sans-Serif" font-size="10.00">#</text>
<text text-anchor="start" x="51.5" y="-337" font-family="Helvetica,sans-Serif" font-size="10.00">createObject()</text>
<polygon fill="#666666" stroke="#666666" points="34.5,-707 34.5,-707 154.5,-707 154.5,-707 34.5,-707"/>
<polygon fill="#666666" stroke="#666666" points="34.5,-572 34.5,-572 49.5,-572 49.5,-572 34.5,-572"/>
<polygon fill="#666666" stroke="#666666" points="49.5,-572 49.5,-572 154.5,-572 154.5,-572 49.5,-572"/>
<polygon fill="none" stroke="#666666" points="34.5,-330 34.5,-724 154.5,-724 154.5,-330 34.5,-330"/>
</a>
</g>
</g>
<!-- Node3&#45;&gt;Node2 -->
<g id="edge2_Node000002_Node000003" class="edge">
<title>Node3&#45;&gt;Node2</title>
<g id="a_edge2_Node000002_Node000003"><a xlink:title=" ">
<path fill="none" stroke="#63b8ff" d="M94.5,-319.78C94.5,-310.62 94.5,-301.97 94.5,-294.06"/>
<polygon fill="none" stroke="#63b8ff" points="91,-319.91 94.5,-329.91 98,-319.91 91,-319.91"/>
</a>
</g>
</g>
</g>
</svg>
