<?xml version="1.0" encoding="UTF-8" standalone="no"?>
<!DOCTYPE svg PUBLIC "-//W3C//DTD SVG 1.1//EN"
 "http://www.w3.org/Graphics/SVG/1.1/DTD/svg11.dtd">
<!-- Generated by graphviz version 2.43.0 (0)
 -->
<!-- Title: XML::bpmn::tPotentialOwner Pages: 1 -->
<svg width="189pt" height="960pt"
 viewBox="0.00 0.00 189.00 960.00" xmlns="http://www.w3.org/2000/svg" xmlns:xlink="http://www.w3.org/1999/xlink">
<g id="graph0" class="graph" transform="scale(1 1) rotate(0) translate(4 956)">
<title>XML::bpmn::tPotentialOwner</title>
<!-- Node1 -->
<g id="node1" class="node">
<title>Node1</title>
<g id="a_node1"><a xlink:title=" ">
<polygon fill="#bfbfbf" stroke="black" points="12.5,-94.5 12.5,-151.5 168.5,-151.5 168.5,-94.5 12.5,-94.5"/>
<text text-anchor="middle" x="90.5" y="-139.5" font-family="Helvetica,sans-Serif" font-size="10.00">XML::bpmn::tPotentialOwner</text>
<polyline fill="none" stroke="black" points="12.5,-132.5 168.5,-132.5 "/>
<text text-anchor="start" x="20.5" y="-120.5" font-family="Helvetica,sans-Serif" font-size="10.00">+ defaults</text>
<polyline fill="none" stroke="black" points="12.5,-113.5 168.5,-113.5 "/>
<text text-anchor="start" x="20.5" y="-101.5" font-family="Helvetica,sans-Serif" font-size="10.00"># tPotentialOwner()</text>
</a>
</g>
</g>
<!-- Node7 -->
<g id="node7" class="node">
<title>Node7</title>
<g id="a_node7"><a xlink:href="classXML_1_1bpmn_1_1potentialOwner.html" target="_top" xlink:title=" ">
<polygon fill="none" stroke="black" points="14.5,-0.5 14.5,-57.5 166.5,-57.5 166.5,-0.5 14.5,-0.5"/>
<text text-anchor="middle" x="90.5" y="-45.5" font-family="Helvetica,sans-Serif" font-size="10.00">XML::bpmn::potentialOwner</text>
<polyline fill="none" stroke="black" points="14.5,-38.5 166.5,-38.5 "/>
<text text-anchor="start" x="22.5" y="-26.5" font-family="Helvetica,sans-Serif" font-size="10.00">+ defaults</text>
<polyline fill="none" stroke="black" points="14.5,-19.5 166.5,-19.5 "/>
<text text-anchor="start" x="22.5" y="-7.5" font-family="Helvetica,sans-Serif" font-size="10.00"># potentialOwner()</text>
</a>
</g>
</g>
<!-- Node1&#45;&gt;Node7 -->
<g id="edge6" class="edge">
<title>Node1&#45;&gt;Node7</title>
<path fill="none" stroke="midnightblue" d="M90.5,-84.21C90.5,-75.29 90.5,-65.95 90.5,-57.58"/>
<polygon fill="none" stroke="midnightblue" points="87,-84.4 90.5,-94.4 94,-84.4 87,-84.4"/>
</g>
<!-- Node2 -->
<g id="node2" class="node">
<title>Node2</title>
<g id="a_node2"><a xlink:href="classXML_1_1bpmn_1_1tHumanPerformer.html" target="_top" xlink:title=" ">
<polygon fill="none" stroke="black" points="8,-188.5 8,-245.5 173,-245.5 173,-188.5 8,-188.5"/>
<text text-anchor="middle" x="90.5" y="-233.5" font-family="Helvetica,sans-Serif" font-size="10.00">XML::bpmn::tHumanPerformer</text>
<polyline fill="none" stroke="black" points="8,-226.5 173,-226.5 "/>
<text text-anchor="start" x="16" y="-214.5" font-family="Helvetica,sans-Serif" font-size="10.00">+ defaults</text>
<polyline fill="none" stroke="black" points="8,-207.5 173,-207.5 "/>
<text text-anchor="start" x="16" y="-195.5" font-family="Helvetica,sans-Serif" font-size="10.00"># tHumanPerformer()</text>
</a>
</g>
</g>
<!-- Node2&#45;&gt;Node1 -->
<g id="edge1" class="edge">
<title>Node2&#45;&gt;Node1</title>
<path fill="none" stroke="midnightblue" d="M90.5,-178.21C90.5,-169.29 90.5,-159.95 90.5,-151.58"/>
<polygon fill="none" stroke="midnightblue" points="87,-178.4 90.5,-188.4 94,-178.4 87,-178.4"/>
</g>
<!-- Node3 -->
<g id="node3" class="node">
<title>Node3</title>
<g id="a_node3"><a xlink:href="classXML_1_1bpmn_1_1tPerformer.html" target="_top" xlink:title=" ">
<polygon fill="none" stroke="black" points="25.5,-282.5 25.5,-339.5 155.5,-339.5 155.5,-282.5 25.5,-282.5"/>
<text text-anchor="middle" x="90.5" y="-327.5" font-family="Helvetica,sans-Serif" font-size="10.00">XML::bpmn::tPerformer</text>
<polyline fill="none" stroke="black" points="25.5,-320.5 155.5,-320.5 "/>
<text text-anchor="start" x="33.5" y="-308.5" font-family="Helvetica,sans-Serif" font-size="10.00">+ defaults</text>
<polyline fill="none" stroke="black" points="25.5,-301.5 155.5,-301.5 "/>
<text text-anchor="start" x="33.5" y="-289.5" font-family="Helvetica,sans-Serif" font-size="10.00"># tPerformer()</text>
</a>
</g>
</g>
<!-- Node3&#45;&gt;Node2 -->
<g id="edge2" class="edge">
<title>Node3&#45;&gt;Node2</title>
<path fill="none" stroke="midnightblue" d="M90.5,-272.21C90.5,-263.29 90.5,-253.95 90.5,-245.58"/>
<polygon fill="none" stroke="midnightblue" points="87,-272.4 90.5,-282.4 94,-272.4 87,-272.4"/>
</g>
<!-- Node4 -->
<g id="node4" class="node">
<title>Node4</title>
<g id="a_node4"><a xlink:href="classXML_1_1bpmn_1_1tResourceRole.html" target="_top" xlink:title=" ">
<polygon fill="none" stroke="black" points="0,-376.5 0,-477.5 181,-477.5 181,-376.5 0,-376.5"/>
<text text-anchor="middle" x="90.5" y="-465.5" font-family="Helvetica,sans-Serif" font-size="10.00">XML::bpmn::tResourceRole</text>
<polyline fill="none" stroke="black" points="0,-458.5 181,-458.5 "/>
<text text-anchor="start" x="8" y="-446.5" font-family="Helvetica,sans-Serif" font-size="10.00">+ resourceAssignmentExpression</text>
<text text-anchor="start" x="8" y="-435.5" font-family="Helvetica,sans-Serif" font-size="10.00">+ resourceRef</text>
<text text-anchor="start" x="8" y="-424.5" font-family="Helvetica,sans-Serif" font-size="10.00">+ resourceParameterBinding</text>
<text text-anchor="start" x="8" y="-413.5" font-family="Helvetica,sans-Serif" font-size="10.00">+ name</text>
<text text-anchor="start" x="8" y="-402.5" font-family="Helvetica,sans-Serif" font-size="10.00">+ defaults</text>
<polyline fill="none" stroke="black" points="0,-395.5 181,-395.5 "/>
<text text-anchor="start" x="8" y="-383.5" font-family="Helvetica,sans-Serif" font-size="10.00"># tResourceRole()</text>
</a>
</g>
</g>
<!-- Node4&#45;&gt;Node3 -->
<g id="edge3" class="edge">
<title>Node4&#45;&gt;Node3</title>
<path fill="none" stroke="midnightblue" d="M90.5,-366.23C90.5,-356.92 90.5,-347.71 90.5,-339.59"/>
<polygon fill="none" stroke="midnightblue" points="87,-366.33 90.5,-376.33 94,-366.33 87,-366.33"/>
</g>
<!-- Node5 -->
<g id="node5" class="node">
<title>Node5</title>
<g id="a_node5"><a xlink:href="classXML_1_1bpmn_1_1tBaseElement.html" target="_top" xlink:title=" ">
<polygon fill="none" stroke="black" points="17.5,-514.5 17.5,-604.5 163.5,-604.5 163.5,-514.5 17.5,-514.5"/>
<text text-anchor="middle" x="90.5" y="-592.5" font-family="Helvetica,sans-Serif" font-size="10.00">XML::bpmn::tBaseElement</text>
<polyline fill="none" stroke="black" points="17.5,-585.5 163.5,-585.5 "/>
<text text-anchor="start" x="25.5" y="-573.5" font-family="Helvetica,sans-Serif" font-size="10.00">+ documentation</text>
<text text-anchor="start" x="25.5" y="-562.5" font-family="Helvetica,sans-Serif" font-size="10.00">+ extensionElements</text>
<text text-anchor="start" x="25.5" y="-551.5" font-family="Helvetica,sans-Serif" font-size="10.00">+ id</text>
<text text-anchor="start" x="25.5" y="-540.5" font-family="Helvetica,sans-Serif" font-size="10.00">+ defaults</text>
<polyline fill="none" stroke="black" points="17.5,-533.5 163.5,-533.5 "/>
<text text-anchor="start" x="25.5" y="-521.5" font-family="Helvetica,sans-Serif" font-size="10.00"># tBaseElement()</text>
</a>
</g>
</g>
<!-- Node5&#45;&gt;Node4 -->
<g id="edge4" class="edge">
<title>Node5&#45;&gt;Node4</title>
<path fill="none" stroke="midnightblue" d="M90.5,-504.13C90.5,-495.31 90.5,-486.22 90.5,-477.52"/>
<polygon fill="none" stroke="midnightblue" points="87,-504.32 90.5,-514.32 94,-504.32 87,-504.32"/>
</g>
<!-- Node6 -->
<g id="node6" class="node">
<title>Node6</title>
<g id="a_node6"><a xlink:href="classXML_1_1XMLObject.html" target="_top" xlink:title="A class representing a node in an XML&#45;tree.">
<polygon fill="none" stroke="black" points="27.5,-641.5 27.5,-951.5 153.5,-951.5 153.5,-641.5 27.5,-641.5"/>
<text text-anchor="middle" x="90.5" y="-939.5" font-family="Helvetica,sans-Serif" font-size="10.00">XML::XMLObject</text>
<polyline fill="none" stroke="black" points="27.5,-932.5 153.5,-932.5 "/>
<text text-anchor="start" x="35.5" y="-920.5" font-family="Helvetica,sans-Serif" font-size="10.00">+ xmlns</text>
<text text-anchor="start" x="35.5" y="-909.5" font-family="Helvetica,sans-Serif" font-size="10.00">+ className</text>
<text text-anchor="start" x="35.5" y="-898.5" font-family="Helvetica,sans-Serif" font-size="10.00">+ prefix</text>
<text text-anchor="start" x="35.5" y="-887.5" font-family="Helvetica,sans-Serif" font-size="10.00">+ elementName</text>
<text text-anchor="start" x="35.5" y="-876.5" font-family="Helvetica,sans-Serif" font-size="10.00">+ textContent</text>
<text text-anchor="start" x="35.5" y="-865.5" font-family="Helvetica,sans-Serif" font-size="10.00">+ children</text>
<text text-anchor="start" x="35.5" y="-854.5" font-family="Helvetica,sans-Serif" font-size="10.00">+ attributes</text>
<text text-anchor="start" x="35.5" y="-843.5" font-family="Helvetica,sans-Serif" font-size="10.00">+ defaults</text>
<text text-anchor="start" x="35.5" y="-832.5" font-family="Helvetica,sans-Serif" font-size="10.00"># factory</text>
<polyline fill="none" stroke="black" points="27.5,-825.5 153.5,-825.5 "/>
<text text-anchor="start" x="35.5" y="-813.5" font-family="Helvetica,sans-Serif" font-size="10.00">+ ~XMLObject()</text>
<text text-anchor="start" x="35.5" y="-802.5" font-family="Helvetica,sans-Serif" font-size="10.00">+ is()</text>
<text text-anchor="start" x="35.5" y="-791.5" font-family="Helvetica,sans-Serif" font-size="10.00">+ is()</text>
<text text-anchor="start" x="35.5" y="-780.5" font-family="Helvetica,sans-Serif" font-size="10.00">+ get()</text>
<text text-anchor="start" x="35.5" y="-769.5" font-family="Helvetica,sans-Serif" font-size="10.00">+ get()</text>
<text text-anchor="start" x="35.5" y="-758.5" font-family="Helvetica,sans-Serif" font-size="10.00">+ find()</text>
<text text-anchor="start" x="35.5" y="-747.5" font-family="Helvetica,sans-Serif" font-size="10.00">+ find()</text>
<text text-anchor="start" x="35.5" y="-736.5" font-family="Helvetica,sans-Serif" font-size="10.00">+ stringify()</text>
<text text-anchor="start" x="35.5" y="-725.5" font-family="Helvetica,sans-Serif" font-size="10.00">+ format()</text>
<text text-anchor="start" x="35.5" y="-714.5" font-family="Helvetica,sans-Serif" font-size="10.00">+ getRequiredChild()</text>
<text text-anchor="start" x="35.5" y="-703.5" font-family="Helvetica,sans-Serif" font-size="10.00">and 7 more...</text>
<text text-anchor="start" x="35.5" y="-692.5" font-family="Helvetica,sans-Serif" font-size="10.00">+ createFromStream()</text>
<text text-anchor="start" x="35.5" y="-681.5" font-family="Helvetica,sans-Serif" font-size="10.00">+ createFromString()</text>
<text text-anchor="start" x="35.5" y="-670.5" font-family="Helvetica,sans-Serif" font-size="10.00">+ createFromFile()</text>
<text text-anchor="start" x="35.5" y="-659.5" font-family="Helvetica,sans-Serif" font-size="10.00"># XMLObject()</text>
<text text-anchor="start" x="35.5" y="-648.5" font-family="Helvetica,sans-Serif" font-size="10.00"># createObject()</text>
</a>
</g>
</g>
<!-- Node6&#45;&gt;Node5 -->
<g id="edge5" class="edge">
<title>Node6&#45;&gt;Node5</title>
<path fill="none" stroke="midnightblue" d="M90.5,-631.35C90.5,-621.89 90.5,-612.91 90.5,-604.72"/>
<polygon fill="none" stroke="midnightblue" points="87,-631.37 90.5,-641.37 94,-631.37 87,-631.37"/>
</g>
</g>
</svg>
