<?xml version="1.0" encoding="UTF-8" standalone="no"?>
<!DOCTYPE svg PUBLIC "-//W3C//DTD SVG 1.1//EN"
 "http://www.w3.org/Graphics/SVG/1.1/DTD/svg11.dtd">
<!-- Generated by graphviz version 2.43.0 (0)
 -->
<!-- Title: XML::bpmn::tGateway Pages: 1 -->
<svg width="932pt" height="1015pt"
 viewBox="0.00 0.00 931.50 1015.00" xmlns="http://www.w3.org/2000/svg" xmlns:xlink="http://www.w3.org/1999/xlink">
<g id="graph0" class="graph" transform="scale(1 1) rotate(0) translate(4 1011)">
<title>XML::bpmn::tGateway</title>
<!-- Node1 -->
<g id="node1" class="node">
<title>Node1</title>
<g id="a_node1"><a xlink:title=" ">
<polygon fill="#bfbfbf" stroke="black" points="409.5,-210.5 409.5,-278.5 534.5,-278.5 534.5,-210.5 409.5,-210.5"/>
<text text-anchor="middle" x="472" y="-266.5" font-family="Helvetica,sans-Serif" font-size="10.00">XML::bpmn::tGateway</text>
<polyline fill="none" stroke="black" points="409.5,-259.5 534.5,-259.5 "/>
<text text-anchor="start" x="417.5" y="-247.5" font-family="Helvetica,sans-Serif" font-size="10.00">+ gatewayDirection</text>
<text text-anchor="start" x="417.5" y="-236.5" font-family="Helvetica,sans-Serif" font-size="10.00">+ defaults</text>
<polyline fill="none" stroke="black" points="409.5,-229.5 534.5,-229.5 "/>
<text text-anchor="start" x="417.5" y="-217.5" font-family="Helvetica,sans-Serif" font-size="10.00"># tGateway()</text>
</a>
</g>
</g>
<!-- Node6 -->
<g id="node6" class="node">
<title>Node6</title>
<g id="a_node6"><a xlink:href="classXML_1_1bpmn_1_1tComplexGateway.html" target="_top" xlink:title=" ">
<polygon fill="none" stroke="black" points="0,-94.5 0,-173.5 168,-173.5 168,-94.5 0,-94.5"/>
<text text-anchor="middle" x="84" y="-161.5" font-family="Helvetica,sans-Serif" font-size="10.00">XML::bpmn::tComplexGateway</text>
<polyline fill="none" stroke="black" points="0,-154.5 168,-154.5 "/>
<text text-anchor="start" x="8" y="-142.5" font-family="Helvetica,sans-Serif" font-size="10.00">+ activationCondition</text>
<text text-anchor="start" x="8" y="-131.5" font-family="Helvetica,sans-Serif" font-size="10.00">+ default_</text>
<text text-anchor="start" x="8" y="-120.5" font-family="Helvetica,sans-Serif" font-size="10.00">+ defaults</text>
<polyline fill="none" stroke="black" points="0,-113.5 168,-113.5 "/>
<text text-anchor="start" x="8" y="-101.5" font-family="Helvetica,sans-Serif" font-size="10.00"># tComplexGateway()</text>
</a>
</g>
</g>
<!-- Node1&#45;&gt;Node6 -->
<g id="edge5" class="edge">
<title>Node1&#45;&gt;Node6</title>
<path fill="none" stroke="midnightblue" d="M399.13,-229.84C338.85,-217.71 251.39,-198.18 177,-174 174.09,-173.05 171.14,-172.05 168.17,-171.01"/>
<polygon fill="none" stroke="midnightblue" points="398.81,-233.35 409.31,-231.87 400.18,-226.48 398.81,-233.35"/>
</g>
<!-- Node8 -->
<g id="node8" class="node">
<title>Node8</title>
<g id="a_node8"><a xlink:href="classXML_1_1bpmn_1_1tEventBasedGateway.html" target="_top" xlink:title=" ">
<polygon fill="none" stroke="black" points="186,-94.5 186,-173.5 368,-173.5 368,-94.5 186,-94.5"/>
<text text-anchor="middle" x="277" y="-161.5" font-family="Helvetica,sans-Serif" font-size="10.00">XML::bpmn::tEventBasedGateway</text>
<polyline fill="none" stroke="black" points="186,-154.5 368,-154.5 "/>
<text text-anchor="start" x="194" y="-142.5" font-family="Helvetica,sans-Serif" font-size="10.00">+ instantiate</text>
<text text-anchor="start" x="194" y="-131.5" font-family="Helvetica,sans-Serif" font-size="10.00">+ eventGatewayType</text>
<text text-anchor="start" x="194" y="-120.5" font-family="Helvetica,sans-Serif" font-size="10.00">+ defaults</text>
<polyline fill="none" stroke="black" points="186,-113.5 368,-113.5 "/>
<text text-anchor="start" x="194" y="-101.5" font-family="Helvetica,sans-Serif" font-size="10.00"># tEventBasedGateway()</text>
</a>
</g>
</g>
<!-- Node1&#45;&gt;Node8 -->
<g id="edge7" class="edge">
<title>Node1&#45;&gt;Node8</title>
<path fill="none" stroke="midnightblue" d="M403.5,-205.38C385.01,-195.1 365,-183.96 346.46,-173.65"/>
<polygon fill="none" stroke="midnightblue" points="401.99,-208.55 412.43,-210.36 405.4,-202.44 401.99,-208.55"/>
</g>
<!-- Node10 -->
<g id="node10" class="node">
<title>Node10</title>
<g id="a_node10"><a xlink:href="classXML_1_1bpmn_1_1tExclusiveGateway.html" target="_top" xlink:title=" ">
<polygon fill="none" stroke="black" points="386.5,-100 386.5,-168 557.5,-168 557.5,-100 386.5,-100"/>
<text text-anchor="middle" x="472" y="-156" font-family="Helvetica,sans-Serif" font-size="10.00">XML::bpmn::tExclusiveGateway</text>
<polyline fill="none" stroke="black" points="386.5,-149 557.5,-149 "/>
<text text-anchor="start" x="394.5" y="-137" font-family="Helvetica,sans-Serif" font-size="10.00">+ default_</text>
<text text-anchor="start" x="394.5" y="-126" font-family="Helvetica,sans-Serif" font-size="10.00">+ defaults</text>
<polyline fill="none" stroke="black" points="386.5,-119 557.5,-119 "/>
<text text-anchor="start" x="394.5" y="-107" font-family="Helvetica,sans-Serif" font-size="10.00"># tExclusiveGateway()</text>
</a>
</g>
</g>
<!-- Node1&#45;&gt;Node10 -->
<g id="edge9" class="edge">
<title>Node1&#45;&gt;Node10</title>
<path fill="none" stroke="midnightblue" d="M472,-200.04C472,-189.47 472,-178.33 472,-168.31"/>
<polygon fill="none" stroke="midnightblue" points="468.5,-200.36 472,-210.36 475.5,-200.36 468.5,-200.36"/>
</g>
<!-- Node12 -->
<g id="node12" class="node">
<title>Node12</title>
<g id="a_node12"><a xlink:href="classXML_1_1bpmn_1_1tInclusiveGateway.html" target="_top" xlink:title=" ">
<polygon fill="none" stroke="black" points="576,-100 576,-168 744,-168 744,-100 576,-100"/>
<text text-anchor="middle" x="660" y="-156" font-family="Helvetica,sans-Serif" font-size="10.00">XML::bpmn::tInclusiveGateway</text>
<polyline fill="none" stroke="black" points="576,-149 744,-149 "/>
<text text-anchor="start" x="584" y="-137" font-family="Helvetica,sans-Serif" font-size="10.00">+ default_</text>
<text text-anchor="start" x="584" y="-126" font-family="Helvetica,sans-Serif" font-size="10.00">+ defaults</text>
<polyline fill="none" stroke="black" points="576,-119 744,-119 "/>
<text text-anchor="start" x="584" y="-107" font-family="Helvetica,sans-Serif" font-size="10.00"># tInclusiveGateway()</text>
</a>
</g>
</g>
<!-- Node1&#45;&gt;Node12 -->
<g id="edge11" class="edge">
<title>Node1&#45;&gt;Node12</title>
<path fill="none" stroke="midnightblue" d="M538.29,-205.24C559.27,-193.13 582.29,-179.85 602.6,-168.13"/>
<polygon fill="none" stroke="midnightblue" points="536.34,-202.33 529.43,-210.36 539.84,-208.39 536.34,-202.33"/>
</g>
<!-- Node14 -->
<g id="node14" class="node">
<title>Node14</title>
<g id="a_node14"><a xlink:href="classXML_1_1bpmn_1_1tParallelGateway.html" target="_top" xlink:title=" ">
<polygon fill="none" stroke="black" points="762.5,-105.5 762.5,-162.5 923.5,-162.5 923.5,-105.5 762.5,-105.5"/>
<text text-anchor="middle" x="843" y="-150.5" font-family="Helvetica,sans-Serif" font-size="10.00">XML::bpmn::tParallelGateway</text>
<polyline fill="none" stroke="black" points="762.5,-143.5 923.5,-143.5 "/>
<text text-anchor="start" x="770.5" y="-131.5" font-family="Helvetica,sans-Serif" font-size="10.00">+ defaults</text>
<polyline fill="none" stroke="black" points="762.5,-124.5 923.5,-124.5 "/>
<text text-anchor="start" x="770.5" y="-112.5" font-family="Helvetica,sans-Serif" font-size="10.00"># tParallelGateway()</text>
</a>
</g>
</g>
<!-- Node1&#45;&gt;Node14 -->
<g id="edge13" class="edge">
<title>Node1&#45;&gt;Node14</title>
<path fill="none" stroke="midnightblue" d="M544.57,-229.03C601.88,-216.78 683.49,-197.47 753,-174 762.84,-170.68 773.1,-166.72 783.03,-162.63"/>
<polygon fill="none" stroke="midnightblue" points="543.58,-225.66 534.52,-231.16 545.03,-232.51 543.58,-225.66"/>
</g>
<!-- Node2 -->
<g id="node2" class="node">
<title>Node2</title>
<g id="a_node2"><a xlink:href="classXML_1_1bpmn_1_1tFlowNode.html" target="_top" xlink:title=" ">
<polygon fill="none" stroke="black" points="407,-315.5 407,-394.5 537,-394.5 537,-315.5 407,-315.5"/>
<text text-anchor="middle" x="472" y="-382.5" font-family="Helvetica,sans-Serif" font-size="10.00">XML::bpmn::tFlowNode</text>
<polyline fill="none" stroke="black" points="407,-375.5 537,-375.5 "/>
<text text-anchor="start" x="415" y="-363.5" font-family="Helvetica,sans-Serif" font-size="10.00">+ incoming</text>
<text text-anchor="start" x="415" y="-352.5" font-family="Helvetica,sans-Serif" font-size="10.00">+ outgoing</text>
<text text-anchor="start" x="415" y="-341.5" font-family="Helvetica,sans-Serif" font-size="10.00">+ defaults</text>
<polyline fill="none" stroke="black" points="407,-334.5 537,-334.5 "/>
<text text-anchor="start" x="415" y="-322.5" font-family="Helvetica,sans-Serif" font-size="10.00"># tFlowNode()</text>
</a>
</g>
</g>
<!-- Node2&#45;&gt;Node1 -->
<g id="edge1" class="edge">
<title>Node2&#45;&gt;Node1</title>
<path fill="none" stroke="midnightblue" d="M472,-305.35C472,-296.28 472,-287 472,-278.54"/>
<polygon fill="none" stroke="midnightblue" points="468.5,-305.44 472,-315.44 475.5,-305.44 468.5,-305.44"/>
</g>
<!-- Node3 -->
<g id="node3" class="node">
<title>Node3</title>
<g id="a_node3"><a xlink:href="classXML_1_1bpmn_1_1tFlowElement.html" target="_top" xlink:title=" ">
<polygon fill="none" stroke="black" points="399.5,-431.5 399.5,-532.5 544.5,-532.5 544.5,-431.5 399.5,-431.5"/>
<text text-anchor="middle" x="472" y="-520.5" font-family="Helvetica,sans-Serif" font-size="10.00">XML::bpmn::tFlowElement</text>
<polyline fill="none" stroke="black" points="399.5,-513.5 544.5,-513.5 "/>
<text text-anchor="start" x="407.5" y="-501.5" font-family="Helvetica,sans-Serif" font-size="10.00">+ auditing</text>
<text text-anchor="start" x="407.5" y="-490.5" font-family="Helvetica,sans-Serif" font-size="10.00">+ monitoring</text>
<text text-anchor="start" x="407.5" y="-479.5" font-family="Helvetica,sans-Serif" font-size="10.00">+ categoryValueRef</text>
<text text-anchor="start" x="407.5" y="-468.5" font-family="Helvetica,sans-Serif" font-size="10.00">+ name</text>
<text text-anchor="start" x="407.5" y="-457.5" font-family="Helvetica,sans-Serif" font-size="10.00">+ defaults</text>
<polyline fill="none" stroke="black" points="399.5,-450.5 544.5,-450.5 "/>
<text text-anchor="start" x="407.5" y="-438.5" font-family="Helvetica,sans-Serif" font-size="10.00"># tFlowElement()</text>
</a>
</g>
</g>
<!-- Node3&#45;&gt;Node2 -->
<g id="edge2" class="edge">
<title>Node3&#45;&gt;Node2</title>
<path fill="none" stroke="midnightblue" d="M472,-421.19C472,-412.22 472,-403.18 472,-394.81"/>
<polygon fill="none" stroke="midnightblue" points="468.5,-421.24 472,-431.24 475.5,-421.24 468.5,-421.24"/>
</g>
<!-- Node4 -->
<g id="node4" class="node">
<title>Node4</title>
<g id="a_node4"><a xlink:href="classXML_1_1bpmn_1_1tBaseElement.html" target="_top" xlink:title=" ">
<polygon fill="none" stroke="black" points="399,-569.5 399,-659.5 545,-659.5 545,-569.5 399,-569.5"/>
<text text-anchor="middle" x="472" y="-647.5" font-family="Helvetica,sans-Serif" font-size="10.00">XML::bpmn::tBaseElement</text>
<polyline fill="none" stroke="black" points="399,-640.5 545,-640.5 "/>
<text text-anchor="start" x="407" y="-628.5" font-family="Helvetica,sans-Serif" font-size="10.00">+ documentation</text>
<text text-anchor="start" x="407" y="-617.5" font-family="Helvetica,sans-Serif" font-size="10.00">+ extensionElements</text>
<text text-anchor="start" x="407" y="-606.5" font-family="Helvetica,sans-Serif" font-size="10.00">+ id</text>
<text text-anchor="start" x="407" y="-595.5" font-family="Helvetica,sans-Serif" font-size="10.00">+ defaults</text>
<polyline fill="none" stroke="black" points="399,-588.5 545,-588.5 "/>
<text text-anchor="start" x="407" y="-576.5" font-family="Helvetica,sans-Serif" font-size="10.00"># tBaseElement()</text>
</a>
</g>
</g>
<!-- Node4&#45;&gt;Node3 -->
<g id="edge3" class="edge">
<title>Node4&#45;&gt;Node3</title>
<path fill="none" stroke="midnightblue" d="M472,-559.13C472,-550.31 472,-541.22 472,-532.52"/>
<polygon fill="none" stroke="midnightblue" points="468.5,-559.32 472,-569.32 475.5,-559.32 468.5,-559.32"/>
</g>
<!-- Node5 -->
<g id="node5" class="node">
<title>Node5</title>
<g id="a_node5"><a xlink:href="classXML_1_1XMLObject.html" target="_top" xlink:title="A class representing a node in an XML&#45;tree.">
<polygon fill="none" stroke="black" points="409,-696.5 409,-1006.5 535,-1006.5 535,-696.5 409,-696.5"/>
<text text-anchor="middle" x="472" y="-994.5" font-family="Helvetica,sans-Serif" font-size="10.00">XML::XMLObject</text>
<polyline fill="none" stroke="black" points="409,-987.5 535,-987.5 "/>
<text text-anchor="start" x="417" y="-975.5" font-family="Helvetica,sans-Serif" font-size="10.00">+ xmlns</text>
<text text-anchor="start" x="417" y="-964.5" font-family="Helvetica,sans-Serif" font-size="10.00">+ className</text>
<text text-anchor="start" x="417" y="-953.5" font-family="Helvetica,sans-Serif" font-size="10.00">+ prefix</text>
<text text-anchor="start" x="417" y="-942.5" font-family="Helvetica,sans-Serif" font-size="10.00">+ elementName</text>
<text text-anchor="start" x="417" y="-931.5" font-family="Helvetica,sans-Serif" font-size="10.00">+ textContent</text>
<text text-anchor="start" x="417" y="-920.5" font-family="Helvetica,sans-Serif" font-size="10.00">+ children</text>
<text text-anchor="start" x="417" y="-909.5" font-family="Helvetica,sans-Serif" font-size="10.00">+ attributes</text>
<text text-anchor="start" x="417" y="-898.5" font-family="Helvetica,sans-Serif" font-size="10.00">+ defaults</text>
<text text-anchor="start" x="417" y="-887.5" font-family="Helvetica,sans-Serif" font-size="10.00"># factory</text>
<polyline fill="none" stroke="black" points="409,-880.5 535,-880.5 "/>
<text text-anchor="start" x="417" y="-868.5" font-family="Helvetica,sans-Serif" font-size="10.00">+ ~XMLObject()</text>
<text text-anchor="start" x="417" y="-857.5" font-family="Helvetica,sans-Serif" font-size="10.00">+ is()</text>
<text text-anchor="start" x="417" y="-846.5" font-family="Helvetica,sans-Serif" font-size="10.00">+ is()</text>
<text text-anchor="start" x="417" y="-835.5" font-family="Helvetica,sans-Serif" font-size="10.00">+ get()</text>
<text text-anchor="start" x="417" y="-824.5" font-family="Helvetica,sans-Serif" font-size="10.00">+ get()</text>
<text text-anchor="start" x="417" y="-813.5" font-family="Helvetica,sans-Serif" font-size="10.00">+ find()</text>
<text text-anchor="start" x="417" y="-802.5" font-family="Helvetica,sans-Serif" font-size="10.00">+ find()</text>
<text text-anchor="start" x="417" y="-791.5" font-family="Helvetica,sans-Serif" font-size="10.00">+ stringify()</text>
<text text-anchor="start" x="417" y="-780.5" font-family="Helvetica,sans-Serif" font-size="10.00">+ getRequiredChild()</text>
<text text-anchor="start" x="417" y="-769.5" font-family="Helvetica,sans-Serif" font-size="10.00">+ getOptionalChild()</text>
<text text-anchor="start" x="417" y="-758.5" font-family="Helvetica,sans-Serif" font-size="10.00">and 6 more...</text>
<text text-anchor="start" x="417" y="-747.5" font-family="Helvetica,sans-Serif" font-size="10.00">+ createFromStream()</text>
<text text-anchor="start" x="417" y="-736.5" font-family="Helvetica,sans-Serif" font-size="10.00">+ createFromString()</text>
<text text-anchor="start" x="417" y="-725.5" font-family="Helvetica,sans-Serif" font-size="10.00">+ createFromFile()</text>
<text text-anchor="start" x="417" y="-714.5" font-family="Helvetica,sans-Serif" font-size="10.00"># XMLObject()</text>
<text text-anchor="start" x="417" y="-703.5" font-family="Helvetica,sans-Serif" font-size="10.00"># createObject()</text>
</a>
</g>
</g>
<!-- Node5&#45;&gt;Node4 -->
<g id="edge4" class="edge">
<title>Node5&#45;&gt;Node4</title>
<path fill="none" stroke="midnightblue" d="M472,-686.35C472,-676.89 472,-667.91 472,-659.72"/>
<polygon fill="none" stroke="midnightblue" points="468.5,-686.37 472,-696.37 475.5,-686.37 468.5,-686.37"/>
</g>
<!-- Node7 -->
<g id="node7" class="node">
<title>Node7</title>
<g id="a_node7"><a xlink:href="classXML_1_1bpmn_1_1complexGateway.html" target="_top" xlink:title=" ">
<polygon fill="none" stroke="black" points="2.5,-0.5 2.5,-57.5 165.5,-57.5 165.5,-0.5 2.5,-0.5"/>
<text text-anchor="middle" x="84" y="-45.5" font-family="Helvetica,sans-Serif" font-size="10.00">XML::bpmn::complexGateway</text>
<polyline fill="none" stroke="black" points="2.5,-38.5 165.5,-38.5 "/>
<text text-anchor="start" x="10.5" y="-26.5" font-family="Helvetica,sans-Serif" font-size="10.00">+ defaults</text>
<polyline fill="none" stroke="black" points="2.5,-19.5 165.5,-19.5 "/>
<text text-anchor="start" x="10.5" y="-7.5" font-family="Helvetica,sans-Serif" font-size="10.00"># complexGateway()</text>
</a>
</g>
</g>
<!-- Node6&#45;&gt;Node7 -->
<g id="edge6" class="edge">
<title>Node6&#45;&gt;Node7</title>
<path fill="none" stroke="midnightblue" d="M84,-84.16C84,-75.04 84,-65.81 84,-57.61"/>
<polygon fill="none" stroke="midnightblue" points="80.5,-84.35 84,-94.35 87.5,-84.35 80.5,-84.35"/>
</g>
<!-- Node9 -->
<g id="node9" class="node">
<title>Node9</title>
<g id="a_node9"><a xlink:href="classXML_1_1bpmn_1_1eventBasedGateway.html" target="_top" xlink:title=" ">
<polygon fill="none" stroke="black" points="187.5,-0.5 187.5,-57.5 366.5,-57.5 366.5,-0.5 187.5,-0.5"/>
<text text-anchor="middle" x="277" y="-45.5" font-family="Helvetica,sans-Serif" font-size="10.00">XML::bpmn::eventBasedGateway</text>
<polyline fill="none" stroke="black" points="187.5,-38.5 366.5,-38.5 "/>
<text text-anchor="start" x="195.5" y="-26.5" font-family="Helvetica,sans-Serif" font-size="10.00">+ defaults</text>
<polyline fill="none" stroke="black" points="187.5,-19.5 366.5,-19.5 "/>
<text text-anchor="start" x="195.5" y="-7.5" font-family="Helvetica,sans-Serif" font-size="10.00"># eventBasedGateway()</text>
</a>
</g>
</g>
<!-- Node8&#45;&gt;Node9 -->
<g id="edge8" class="edge">
<title>Node8&#45;&gt;Node9</title>
<path fill="none" stroke="midnightblue" d="M277,-84.16C277,-75.04 277,-65.81 277,-57.61"/>
<polygon fill="none" stroke="midnightblue" points="273.5,-84.35 277,-94.35 280.5,-84.35 273.5,-84.35"/>
</g>
<!-- Node11 -->
<g id="node11" class="node">
<title>Node11</title>
<g id="a_node11"><a xlink:href="classXML_1_1bpmn_1_1exclusiveGateway.html" target="_top" xlink:title=" ">
<polygon fill="none" stroke="black" points="388.5,-0.5 388.5,-57.5 555.5,-57.5 555.5,-0.5 388.5,-0.5"/>
<text text-anchor="middle" x="472" y="-45.5" font-family="Helvetica,sans-Serif" font-size="10.00">XML::bpmn::exclusiveGateway</text>
<polyline fill="none" stroke="black" points="388.5,-38.5 555.5,-38.5 "/>
<text text-anchor="start" x="396.5" y="-26.5" font-family="Helvetica,sans-Serif" font-size="10.00">+ defaults</text>
<polyline fill="none" stroke="black" points="388.5,-19.5 555.5,-19.5 "/>
<text text-anchor="start" x="396.5" y="-7.5" font-family="Helvetica,sans-Serif" font-size="10.00"># exclusiveGateway()</text>
</a>
</g>
</g>
<!-- Node10&#45;&gt;Node11 -->
<g id="edge10" class="edge">
<title>Node10&#45;&gt;Node11</title>
<path fill="none" stroke="midnightblue" d="M472,-89.65C472,-78.79 472,-67.43 472,-57.58"/>
<polygon fill="none" stroke="midnightblue" points="468.5,-89.84 472,-99.84 475.5,-89.84 468.5,-89.84"/>
</g>
<!-- Node13 -->
<g id="node13" class="node">
<title>Node13</title>
<g id="a_node13"><a xlink:href="classXML_1_1bpmn_1_1inclusiveGateway.html" target="_top" xlink:title=" ">
<polygon fill="none" stroke="black" points="578,-0.5 578,-57.5 742,-57.5 742,-0.5 578,-0.5"/>
<text text-anchor="middle" x="660" y="-45.5" font-family="Helvetica,sans-Serif" font-size="10.00">XML::bpmn::inclusiveGateway</text>
<polyline fill="none" stroke="black" points="578,-38.5 742,-38.5 "/>
<text text-anchor="start" x="586" y="-26.5" font-family="Helvetica,sans-Serif" font-size="10.00">+ defaults</text>
<polyline fill="none" stroke="black" points="578,-19.5 742,-19.5 "/>
<text text-anchor="start" x="586" y="-7.5" font-family="Helvetica,sans-Serif" font-size="10.00"># inclusiveGateway()</text>
</a>
</g>
</g>
<!-- Node12&#45;&gt;Node13 -->
<g id="edge12" class="edge">
<title>Node12&#45;&gt;Node13</title>
<path fill="none" stroke="midnightblue" d="M660,-89.65C660,-78.79 660,-67.43 660,-57.58"/>
<polygon fill="none" stroke="midnightblue" points="656.5,-89.84 660,-99.84 663.5,-89.84 656.5,-89.84"/>
</g>
<!-- Node15 -->
<g id="node15" class="node">
<title>Node15</title>
<g id="a_node15"><a xlink:href="classXML_1_1bpmn_1_1parallelGateway.html" target="_top" xlink:title=" ">
<polygon fill="none" stroke="black" points="764,-0.5 764,-57.5 922,-57.5 922,-0.5 764,-0.5"/>
<text text-anchor="middle" x="843" y="-45.5" font-family="Helvetica,sans-Serif" font-size="10.00">XML::bpmn::parallelGateway</text>
<polyline fill="none" stroke="black" points="764,-38.5 922,-38.5 "/>
<text text-anchor="start" x="772" y="-26.5" font-family="Helvetica,sans-Serif" font-size="10.00">+ defaults</text>
<polyline fill="none" stroke="black" points="764,-19.5 922,-19.5 "/>
<text text-anchor="start" x="772" y="-7.5" font-family="Helvetica,sans-Serif" font-size="10.00"># parallelGateway()</text>
</a>
</g>
</g>
<!-- Node14&#45;&gt;Node15 -->
<g id="edge14" class="edge">
<title>Node14&#45;&gt;Node15</title>
<path fill="none" stroke="midnightblue" d="M843,-95.29C843,-82.84 843,-69.23 843,-57.68"/>
<polygon fill="none" stroke="midnightblue" points="839.5,-95.4 843,-105.4 846.5,-95.4 839.5,-95.4"/>
</g>
</g>
</svg>
