<?xml version="1.0" encoding="UTF-8" standalone="no"?>
<!DOCTYPE svg PUBLIC "-//W3C//DTD SVG 1.1//EN"
 "http://www.w3.org/Graphics/SVG/1.1/DTD/svg11.dtd">
<!-- Generated by graphviz version 2.43.0 (0)
 -->
<!-- Title: XML::bpmn::tThrowEvent Pages: 1 -->
<svg width="607pt" height="1244pt"
 viewBox="0.00 0.00 607.00 1244.00" xmlns="http://www.w3.org/2000/svg" xmlns:xlink="http://www.w3.org/1999/xlink">
<g id="graph0" class="graph" transform="scale(1 1) rotate(0) translate(4 1240)">
<title>XML::bpmn::tThrowEvent</title>
<!-- Node1 -->
<g id="Node000001" class="node">
<title>Node1</title>
<g id="a_Node000001"><a xlink:title=" ">
<polygon fill="#999999" stroke="transparent" points="360,-316 227,-316 227,-192 360,-192 360,-316"/>
<text text-anchor="start" x="232.5" y="-304" font-family="Helvetica,sans-Serif" font-size="10.00">XML::bpmn::tThrowEvent</text>
<text text-anchor="start" x="233.5" y="-289" font-family="Helvetica,sans-Serif" font-size="10.00">+</text>
<text text-anchor="start" x="248.5" y="-289" font-family="Helvetica,sans-Serif" font-size="10.00">dataInput</text>
<text text-anchor="start" x="233.5" y="-274" font-family="Helvetica,sans-Serif" font-size="10.00">+</text>
<text text-anchor="start" x="248.5" y="-274" font-family="Helvetica,sans-Serif" font-size="10.00">dataInputAssociation</text>
<text text-anchor="start" x="233.5" y="-259" font-family="Helvetica,sans-Serif" font-size="10.00">+</text>
<text text-anchor="start" x="248.5" y="-259" font-family="Helvetica,sans-Serif" font-size="10.00">inputSet</text>
<text text-anchor="start" x="233.5" y="-244" font-family="Helvetica,sans-Serif" font-size="10.00">+</text>
<text text-anchor="start" x="248.5" y="-244" font-family="Helvetica,sans-Serif" font-size="10.00">eventDefinition</text>
<text text-anchor="start" x="233.5" y="-229" font-family="Helvetica,sans-Serif" font-size="10.00">+</text>
<text text-anchor="start" x="248.5" y="-229" font-family="Helvetica,sans-Serif" font-size="10.00">eventDefinitionRef</text>
<text text-anchor="start" x="233.5" y="-214" font-family="Helvetica,sans-Serif" font-size="10.00">+</text>
<text text-anchor="start" x="248.5" y="-214" font-family="Helvetica,sans-Serif" font-size="10.00">defaults</text>
<text text-anchor="start" x="233.5" y="-199" font-family="Helvetica,sans-Serif" font-size="10.00">#</text>
<text text-anchor="start" x="248.5" y="-199" font-family="Helvetica,sans-Serif" font-size="10.00">tThrowEvent()</text>
<polygon fill="#666666" stroke="#666666" points="227.5,-299 227.5,-299 360.5,-299 360.5,-299 227.5,-299"/>
<polygon fill="#666666" stroke="#666666" points="227.5,-209 227.5,-209 246.5,-209 246.5,-209 227.5,-209"/>
<polygon fill="#666666" stroke="#666666" points="246.5,-209 246.5,-209 360.5,-209 360.5,-209 246.5,-209"/>
<polygon fill="none" stroke="#666666" points="227,-192 227,-316 360,-316 360,-192 227,-192"/>
</a>
</g>
</g>
<!-- Node7 -->
<g id="Node000007" class="node">
<title>Node7</title>
<g id="a_Node000007"><a xlink:href="classXML_1_1bpmn_1_1tEndEvent.html" target="_top" xlink:title=" ">
<polygon fill="white" stroke="transparent" points="121,-150.5 0,-150.5 0,-101.5 121,-101.5 121,-150.5"/>
<text text-anchor="start" x="5.5" y="-138" font-family="Helvetica,sans-Serif" font-size="10.00">XML::bpmn::tEndEvent</text>
<text text-anchor="start" x="15" y="-123" font-family="Helvetica,sans-Serif" font-size="10.00">+</text>
<text text-anchor="start" x="38.5" y="-123" font-family="Helvetica,sans-Serif" font-size="10.00">defaults</text>
<text text-anchor="start" x="15" y="-108" font-family="Helvetica,sans-Serif" font-size="10.00">#</text>
<text text-anchor="start" x="38.5" y="-108" font-family="Helvetica,sans-Serif" font-size="10.00">tEndEvent()</text>
<polygon fill="#666666" stroke="#666666" points="0.5,-133 0.5,-133 121.5,-133 121.5,-133 0.5,-133"/>
<polygon fill="#666666" stroke="#666666" points="0.5,-118 0.5,-118 36.5,-118 36.5,-118 0.5,-118"/>
<polygon fill="#666666" stroke="#666666" points="36.5,-118 36.5,-118 121.5,-118 121.5,-118 36.5,-118"/>
<polygon fill="none" stroke="#666666" points="0,-101.5 0,-150.5 121,-150.5 121,-101.5 0,-101.5"/>
</a>
</g>
</g>
<!-- Node1&#45;&gt;Node7 -->
<g id="edge6_Node000001_Node000007" class="edge">
<title>Node1&#45;&gt;Node7</title>
<g id="a_edge6_Node000001_Node000007"><a xlink:title=" ">
<path fill="none" stroke="#63b8ff" d="M217.81,-212.07C180.17,-191.72 136.03,-167.84 104.1,-150.58"/>
<polygon fill="none" stroke="#63b8ff" points="216.27,-215.22 226.73,-216.89 219.6,-209.06 216.27,-215.22"/>
</a>
</g>
</g>
<!-- Node9 -->
<g id="Node000009" class="node">
<title>Node9</title>
<g id="a_Node000009"><a xlink:href="classXML_1_1bpmn_1_1tImplicitThrowEvent.html" target="_top" xlink:title=" ">
<polygon fill="white" stroke="transparent" points="281.5,-156 139.5,-156 139.5,-96 281.5,-96 281.5,-156"/>
<text text-anchor="start" x="144.5" y="-144" font-family="Helvetica,sans-Serif" font-size="10.00">XML::bpmn::tImplicitThrow</text>
<text text-anchor="start" x="196.5" y="-133" font-family="Helvetica,sans-Serif" font-size="10.00">Event</text>
<text text-anchor="start" x="147" y="-118" font-family="Helvetica,sans-Serif" font-size="10.00">+</text>
<text text-anchor="start" x="163.5" y="-118" font-family="Helvetica,sans-Serif" font-size="10.00">defaults</text>
<text text-anchor="start" x="147" y="-103" font-family="Helvetica,sans-Serif" font-size="10.00">#</text>
<text text-anchor="start" x="163.5" y="-103" font-family="Helvetica,sans-Serif" font-size="10.00">tImplicitThrowEvent()</text>
<polygon fill="#666666" stroke="#666666" points="139.5,-128 139.5,-128 281.5,-128 281.5,-128 139.5,-128"/>
<polygon fill="#666666" stroke="#666666" points="139.5,-113 139.5,-113 161.5,-113 161.5,-113 139.5,-113"/>
<polygon fill="#666666" stroke="#666666" points="161.5,-113 161.5,-113 281.5,-113 281.5,-113 161.5,-113"/>
<polygon fill="none" stroke="#666666" points="139.5,-96 139.5,-156 281.5,-156 281.5,-96 139.5,-96"/>
</a>
</g>
</g>
<!-- Node1&#45;&gt;Node9 -->
<g id="edge8_Node000001_Node000009" class="edge">
<title>Node1&#45;&gt;Node9</title>
<g id="a_edge8_Node000001_Node000009"><a xlink:title=" ">
<path fill="none" stroke="#63b8ff" d="M247.66,-183.41C241.37,-173.86 235.2,-164.5 229.76,-156.24"/>
<polygon fill="none" stroke="#63b8ff" points="244.79,-185.42 253.22,-191.85 250.64,-181.57 244.79,-185.42"/>
</a>
</g>
</g>
<!-- Node11 -->
<g id="Node000011" class="node">
<title>Node11</title>
<g id="a_Node000011"><a xlink:href="classXML_1_1bpmn_1_1tIntermediateThrowEvent.html" target="_top" xlink:title=" ">
<polygon fill="white" stroke="transparent" points="453.5,-156 299.5,-156 299.5,-96 453.5,-96 453.5,-156"/>
<text text-anchor="start" x="312.5" y="-144" font-family="Helvetica,sans-Serif" font-size="10.00">XML::bpmn::tIntermediate</text>
<text text-anchor="start" x="347.5" y="-133" font-family="Helvetica,sans-Serif" font-size="10.00">ThrowEvent</text>
<text text-anchor="start" x="303.5" y="-118" font-family="Helvetica,sans-Serif" font-size="10.00">+</text>
<text text-anchor="start" x="316.5" y="-118" font-family="Helvetica,sans-Serif" font-size="10.00">defaults</text>
<text text-anchor="start" x="303.5" y="-103" font-family="Helvetica,sans-Serif" font-size="10.00">#</text>
<text text-anchor="start" x="316.5" y="-103" font-family="Helvetica,sans-Serif" font-size="10.00">tIntermediateThrowEvent()</text>
<polygon fill="#666666" stroke="#666666" points="299.5,-128 299.5,-128 453.5,-128 453.5,-128 299.5,-128"/>
<polygon fill="#666666" stroke="#666666" points="299.5,-113 299.5,-113 314.5,-113 314.5,-113 299.5,-113"/>
<polygon fill="#666666" stroke="#666666" points="314.5,-113 314.5,-113 453.5,-113 453.5,-113 314.5,-113"/>
<polygon fill="none" stroke="#666666" points="299.5,-96 299.5,-156 453.5,-156 453.5,-96 299.5,-96"/>
</a>
</g>
</g>
<!-- Node1&#45;&gt;Node11 -->
<g id="edge10_Node000001_Node000011" class="edge">
<title>Node1&#45;&gt;Node11</title>
<g id="a_edge10_Node000001_Node000011"><a xlink:title=" ">
<path fill="none" stroke="#63b8ff" d="M339.34,-183.41C345.63,-173.86 351.8,-164.5 357.24,-156.24"/>
<polygon fill="none" stroke="#63b8ff" points="336.36,-181.57 333.78,-191.85 342.21,-185.42 336.36,-181.57"/>
</a>
</g>
</g>
<!-- Node13 -->
<g id="Node000013" class="node">
<title>Node13</title>
<g id="a_Node000013"><a xlink:href="classXML_1_1bpmn_1_1throwEvent.html" target="_top" xlink:title=" ">
<polygon fill="white" stroke="transparent" points="599,-150.5 472,-150.5 472,-101.5 599,-101.5 599,-150.5"/>
<text text-anchor="start" x="477.5" y="-138" font-family="Helvetica,sans-Serif" font-size="10.00">XML::bpmn::throwEvent</text>
<text text-anchor="start" x="487" y="-123" font-family="Helvetica,sans-Serif" font-size="10.00">+</text>
<text text-anchor="start" x="510.5" y="-123" font-family="Helvetica,sans-Serif" font-size="10.00">defaults</text>
<text text-anchor="start" x="487" y="-108" font-family="Helvetica,sans-Serif" font-size="10.00">#</text>
<text text-anchor="start" x="510.5" y="-108" font-family="Helvetica,sans-Serif" font-size="10.00">throwEvent()</text>
<polygon fill="#666666" stroke="#666666" points="472.5,-133 472.5,-133 599.5,-133 599.5,-133 472.5,-133"/>
<polygon fill="#666666" stroke="#666666" points="472.5,-118 472.5,-118 508.5,-118 508.5,-118 472.5,-118"/>
<polygon fill="#666666" stroke="#666666" points="508.5,-118 508.5,-118 599.5,-118 599.5,-118 508.5,-118"/>
<polygon fill="none" stroke="#666666" points="472,-101.5 472,-150.5 599,-150.5 599,-101.5 472,-101.5"/>
</a>
</g>
</g>
<!-- Node1&#45;&gt;Node13 -->
<g id="edge12_Node000001_Node000013" class="edge">
<title>Node1&#45;&gt;Node13</title>
<g id="a_edge12_Node000001_Node000013"><a xlink:title=" ">
<path fill="none" stroke="#63b8ff" d="M369.15,-213.61C408.93,-192.9 456.35,-168.21 490.36,-150.5"/>
<polygon fill="none" stroke="#63b8ff" points="367.52,-210.51 360.27,-218.24 370.75,-216.72 367.52,-210.51"/>
</a>
</g>
</g>
<!-- Node2 -->
<g id="Node000002" class="node">
<title>Node2</title>
<g id="a_Node000002"><a xlink:href="classXML_1_1bpmn_1_1tEvent.html" target="_top" xlink:title=" ">
<polygon fill="white" stroke="transparent" points="345,-416 242,-416 242,-352 345,-352 345,-416"/>
<text text-anchor="start" x="247.5" y="-404" font-family="Helvetica,sans-Serif" font-size="10.00">XML::bpmn::tEvent</text>
<text text-anchor="start" x="256.5" y="-389" font-family="Helvetica,sans-Serif" font-size="10.00">+</text>
<text text-anchor="start" x="279.5" y="-389" font-family="Helvetica,sans-Serif" font-size="10.00">property</text>
<text text-anchor="start" x="256.5" y="-374" font-family="Helvetica,sans-Serif" font-size="10.00">+</text>
<text text-anchor="start" x="279.5" y="-374" font-family="Helvetica,sans-Serif" font-size="10.00">defaults</text>
<text text-anchor="start" x="256.5" y="-359" font-family="Helvetica,sans-Serif" font-size="10.00">#</text>
<text text-anchor="start" x="279.5" y="-359" font-family="Helvetica,sans-Serif" font-size="10.00">tEvent()</text>
<polygon fill="#666666" stroke="#666666" points="242.5,-399 242.5,-399 345.5,-399 345.5,-399 242.5,-399"/>
<polygon fill="#666666" stroke="#666666" points="242.5,-369 242.5,-369 277.5,-369 277.5,-369 242.5,-369"/>
<polygon fill="#666666" stroke="#666666" points="277.5,-369 277.5,-369 345.5,-369 345.5,-369 277.5,-369"/>
<polygon fill="none" stroke="#666666" points="242,-352 242,-416 345,-416 345,-352 242,-352"/>
</a>
</g>
</g>
<!-- Node2&#45;&gt;Node1 -->
<g id="edge1_Node000001_Node000002" class="edge">
<title>Node2&#45;&gt;Node1</title>
<g id="a_edge1_Node000001_Node000002"><a xlink:title=" ">
<path fill="none" stroke="#63b8ff" d="M293.5,-341.66C293.5,-333.47 293.5,-324.71 293.5,-316.02"/>
<polygon fill="none" stroke="#63b8ff" points="290,-341.69 293.5,-351.69 297,-341.69 290,-341.69"/>
</a>
</g>
</g>
<!-- Node3 -->
<g id="Node000003" class="node">
<title>Node3</title>
<g id="a_Node000003"><a xlink:href="classXML_1_1bpmn_1_1tFlowNode.html" target="_top" xlink:title=" ">
<polygon fill="white" stroke="transparent" points="355.5,-531 231.5,-531 231.5,-452 355.5,-452 355.5,-531"/>
<text text-anchor="start" x="236.5" y="-518.5" font-family="Helvetica,sans-Serif" font-size="10.00">XML::bpmn::tFlowNode</text>
<text text-anchor="start" x="246" y="-503.5" font-family="Helvetica,sans-Serif" font-size="10.00">+</text>
<text text-anchor="start" x="269.5" y="-503.5" font-family="Helvetica,sans-Serif" font-size="10.00">incoming</text>
<text text-anchor="start" x="246" y="-488.5" font-family="Helvetica,sans-Serif" font-size="10.00">+</text>
<text text-anchor="start" x="269.5" y="-488.5" font-family="Helvetica,sans-Serif" font-size="10.00">outgoing</text>
<text text-anchor="start" x="246" y="-473.5" font-family="Helvetica,sans-Serif" font-size="10.00">+</text>
<text text-anchor="start" x="269.5" y="-473.5" font-family="Helvetica,sans-Serif" font-size="10.00">defaults</text>
<text text-anchor="start" x="246" y="-458.5" font-family="Helvetica,sans-Serif" font-size="10.00">#</text>
<text text-anchor="start" x="269.5" y="-458.5" font-family="Helvetica,sans-Serif" font-size="10.00">tFlowNode()</text>
<polygon fill="#666666" stroke="#666666" points="231.5,-513.5 231.5,-513.5 355.5,-513.5 355.5,-513.5 231.5,-513.5"/>
<polygon fill="#666666" stroke="#666666" points="231.5,-468.5 231.5,-468.5 267.5,-468.5 267.5,-468.5 231.5,-468.5"/>
<polygon fill="#666666" stroke="#666666" points="267.5,-468.5 267.5,-468.5 355.5,-468.5 355.5,-468.5 267.5,-468.5"/>
<polygon fill="none" stroke="#666666" points="231.5,-452 231.5,-531 355.5,-531 355.5,-452 231.5,-452"/>
</a>
</g>
</g>
<!-- Node3&#45;&gt;Node2 -->
<g id="edge2_Node000002_Node000003" class="edge">
<title>Node3&#45;&gt;Node2</title>
<g id="a_edge2_Node000002_Node000003"><a xlink:title=" ">
<path fill="none" stroke="#63b8ff" d="M293.5,-441.71C293.5,-433 293.5,-424.14 293.5,-416.09"/>
<polygon fill="none" stroke="#63b8ff" points="290,-441.81 293.5,-451.81 297,-441.81 290,-441.81"/>
</a>
</g>
</g>
<!-- Node4 -->
<g id="Node000004" class="node">
<title>Node4</title>
<g id="a_Node000004"><a xlink:href="classXML_1_1bpmn_1_1tFlowElement.html" target="_top" xlink:title=" ">
<polygon fill="white" stroke="transparent" points="363,-676 224,-676 224,-567 363,-567 363,-676"/>
<text text-anchor="start" x="229.5" y="-663.5" font-family="Helvetica,sans-Serif" font-size="10.00">XML::bpmn::tFlowElement</text>
<text text-anchor="start" x="236" y="-648.5" font-family="Helvetica,sans-Serif" font-size="10.00">+</text>
<text text-anchor="start" x="256.5" y="-648.5" font-family="Helvetica,sans-Serif" font-size="10.00">auditing</text>
<text text-anchor="start" x="236" y="-633.5" font-family="Helvetica,sans-Serif" font-size="10.00">+</text>
<text text-anchor="start" x="256.5" y="-633.5" font-family="Helvetica,sans-Serif" font-size="10.00">monitoring</text>
<text text-anchor="start" x="236" y="-618.5" font-family="Helvetica,sans-Serif" font-size="10.00">+</text>
<text text-anchor="start" x="256.5" y="-618.5" font-family="Helvetica,sans-Serif" font-size="10.00">categoryValueRef</text>
<text text-anchor="start" x="236" y="-603.5" font-family="Helvetica,sans-Serif" font-size="10.00">+</text>
<text text-anchor="start" x="256.5" y="-603.5" font-family="Helvetica,sans-Serif" font-size="10.00">name</text>
<text text-anchor="start" x="236" y="-588.5" font-family="Helvetica,sans-Serif" font-size="10.00">+</text>
<text text-anchor="start" x="256.5" y="-588.5" font-family="Helvetica,sans-Serif" font-size="10.00">defaults</text>
<text text-anchor="start" x="236" y="-573.5" font-family="Helvetica,sans-Serif" font-size="10.00">#</text>
<text text-anchor="start" x="256.5" y="-573.5" font-family="Helvetica,sans-Serif" font-size="10.00">tFlowElement()</text>
<polygon fill="#666666" stroke="#666666" points="224.5,-658.5 224.5,-658.5 363.5,-658.5 363.5,-658.5 224.5,-658.5"/>
<polygon fill="#666666" stroke="#666666" points="224.5,-583.5 224.5,-583.5 254.5,-583.5 254.5,-583.5 224.5,-583.5"/>
<polygon fill="#666666" stroke="#666666" points="254.5,-583.5 254.5,-583.5 363.5,-583.5 363.5,-583.5 254.5,-583.5"/>
<polygon fill="none" stroke="#666666" points="224,-567 224,-676 363,-676 363,-567 224,-567"/>
</a>
</g>
</g>
<!-- Node4&#45;&gt;Node3 -->
<g id="edge3_Node000003_Node000004" class="edge">
<title>Node4&#45;&gt;Node3</title>
<g id="a_edge3_Node000003_Node000004"><a xlink:title=" ">
<path fill="none" stroke="#63b8ff" d="M293.5,-556.7C293.5,-547.93 293.5,-539.16 293.5,-531.03"/>
<polygon fill="none" stroke="#63b8ff" points="290,-556.96 293.5,-566.96 297,-556.96 290,-556.96"/>
</a>
</g>
</g>
<!-- Node5 -->
<g id="Node000005" class="node">
<title>Node5</title>
<g id="a_Node000005"><a xlink:href="classXML_1_1bpmn_1_1tBaseElement.html" target="_top" xlink:title=" ">
<polygon fill="white" stroke="transparent" points="363.5,-806 223.5,-806 223.5,-712 363.5,-712 363.5,-806"/>
<text text-anchor="start" x="228.5" y="-794" font-family="Helvetica,sans-Serif" font-size="10.00">XML::bpmn::tBaseElement</text>
<text text-anchor="start" x="233.5" y="-779" font-family="Helvetica,sans-Serif" font-size="10.00">+</text>
<text text-anchor="start" x="252.5" y="-779" font-family="Helvetica,sans-Serif" font-size="10.00">documentation</text>
<text text-anchor="start" x="233.5" y="-764" font-family="Helvetica,sans-Serif" font-size="10.00">+</text>
<text text-anchor="start" x="252.5" y="-764" font-family="Helvetica,sans-Serif" font-size="10.00">extensionElements</text>
<text text-anchor="start" x="233.5" y="-749" font-family="Helvetica,sans-Serif" font-size="10.00">+</text>
<text text-anchor="start" x="252.5" y="-749" font-family="Helvetica,sans-Serif" font-size="10.00">id</text>
<text text-anchor="start" x="233.5" y="-734" font-family="Helvetica,sans-Serif" font-size="10.00">+</text>
<text text-anchor="start" x="252.5" y="-734" font-family="Helvetica,sans-Serif" font-size="10.00">defaults</text>
<text text-anchor="start" x="233.5" y="-719" font-family="Helvetica,sans-Serif" font-size="10.00">#</text>
<text text-anchor="start" x="252.5" y="-719" font-family="Helvetica,sans-Serif" font-size="10.00">tBaseElement()</text>
<polygon fill="#666666" stroke="#666666" points="223.5,-789 223.5,-789 363.5,-789 363.5,-789 223.5,-789"/>
<polygon fill="#666666" stroke="#666666" points="223.5,-729 223.5,-729 250.5,-729 250.5,-729 223.5,-729"/>
<polygon fill="#666666" stroke="#666666" points="250.5,-729 250.5,-729 363.5,-729 363.5,-729 250.5,-729"/>
<polygon fill="none" stroke="#666666" points="223.5,-712 223.5,-806 363.5,-806 363.5,-712 223.5,-712"/>
</a>
</g>
</g>
<!-- Node5&#45;&gt;Node4 -->
<g id="edge4_Node000004_Node000005" class="edge">
<title>Node5&#45;&gt;Node4</title>
<g id="a_edge4_Node000004_Node000005"><a xlink:title=" ">
<path fill="none" stroke="#63b8ff" d="M293.5,-701.58C293.5,-693.12 293.5,-684.41 293.5,-676.01"/>
<polygon fill="none" stroke="#63b8ff" points="290,-701.75 293.5,-711.75 297,-701.75 290,-701.75"/>
</a>
</g>
</g>
<!-- Node6 -->
<g id="Node000006" class="node">
<title>Node6</title>
<g id="a_Node000006"><a xlink:href="classXML_1_1XMLObject.html" target="_top" xlink:title="A class representing a node in an XML&#45;tree.">
<polygon fill="white" stroke="transparent" points="353.5,-1236 233.5,-1236 233.5,-842 353.5,-842 353.5,-1236"/>
<text text-anchor="start" x="253.5" y="-1224" font-family="Helvetica,sans-Serif" font-size="10.00">XML::XMLObject</text>
<text text-anchor="start" x="237.5" y="-1209" font-family="Helvetica,sans-Serif" font-size="10.00">+</text>
<text text-anchor="start" x="250.5" y="-1209" font-family="Helvetica,sans-Serif" font-size="10.00">xmlns</text>
<text text-anchor="start" x="237.5" y="-1194" font-family="Helvetica,sans-Serif" font-size="10.00">+</text>
<text text-anchor="start" x="250.5" y="-1194" font-family="Helvetica,sans-Serif" font-size="10.00">className</text>
<text text-anchor="start" x="237.5" y="-1179" font-family="Helvetica,sans-Serif" font-size="10.00">+</text>
<text text-anchor="start" x="250.5" y="-1179" font-family="Helvetica,sans-Serif" font-size="10.00">prefix</text>
<text text-anchor="start" x="237.5" y="-1164" font-family="Helvetica,sans-Serif" font-size="10.00">+</text>
<text text-anchor="start" x="250.5" y="-1164" font-family="Helvetica,sans-Serif" font-size="10.00">elementName</text>
<text text-anchor="start" x="237.5" y="-1149" font-family="Helvetica,sans-Serif" font-size="10.00">+</text>
<text text-anchor="start" x="250.5" y="-1149" font-family="Helvetica,sans-Serif" font-size="10.00">textContent</text>
<text text-anchor="start" x="237.5" y="-1134" font-family="Helvetica,sans-Serif" font-size="10.00">+</text>
<text text-anchor="start" x="250.5" y="-1134" font-family="Helvetica,sans-Serif" font-size="10.00">children</text>
<text text-anchor="start" x="237.5" y="-1119" font-family="Helvetica,sans-Serif" font-size="10.00">+</text>
<text text-anchor="start" x="250.5" y="-1119" font-family="Helvetica,sans-Serif" font-size="10.00">attributes</text>
<text text-anchor="start" x="237.5" y="-1104" font-family="Helvetica,sans-Serif" font-size="10.00">+</text>
<text text-anchor="start" x="250.5" y="-1104" font-family="Helvetica,sans-Serif" font-size="10.00">defaults</text>
<text text-anchor="start" x="237.5" y="-1089" font-family="Helvetica,sans-Serif" font-size="10.00">#</text>
<text text-anchor="start" x="250.5" y="-1089" font-family="Helvetica,sans-Serif" font-size="10.00">factory</text>
<text text-anchor="start" x="237.5" y="-1074" font-family="Helvetica,sans-Serif" font-size="10.00">+</text>
<text text-anchor="start" x="250.5" y="-1074" font-family="Helvetica,sans-Serif" font-size="10.00">~XMLObject()</text>
<text text-anchor="start" x="237.5" y="-1059" font-family="Helvetica,sans-Serif" font-size="10.00">+</text>
<text text-anchor="start" x="250.5" y="-1059" font-family="Helvetica,sans-Serif" font-size="10.00">is()</text>
<text text-anchor="start" x="237.5" y="-1044" font-family="Helvetica,sans-Serif" font-size="10.00">+</text>
<text text-anchor="start" x="250.5" y="-1044" font-family="Helvetica,sans-Serif" font-size="10.00">is()</text>
<text text-anchor="start" x="237.5" y="-1029" font-family="Helvetica,sans-Serif" font-size="10.00">+</text>
<text text-anchor="start" x="250.5" y="-1029" font-family="Helvetica,sans-Serif" font-size="10.00">get()</text>
<text text-anchor="start" x="237.5" y="-1014" font-family="Helvetica,sans-Serif" font-size="10.00">+</text>
<text text-anchor="start" x="250.5" y="-1014" font-family="Helvetica,sans-Serif" font-size="10.00">get()</text>
<text text-anchor="start" x="237.5" y="-999" font-family="Helvetica,sans-Serif" font-size="10.00">+</text>
<text text-anchor="start" x="250.5" y="-999" font-family="Helvetica,sans-Serif" font-size="10.00">find()</text>
<text text-anchor="start" x="237.5" y="-984" font-family="Helvetica,sans-Serif" font-size="10.00">+</text>
<text text-anchor="start" x="250.5" y="-984" font-family="Helvetica,sans-Serif" font-size="10.00">find()</text>
<text text-anchor="start" x="237.5" y="-969" font-family="Helvetica,sans-Serif" font-size="10.00">+</text>
<text text-anchor="start" x="250.5" y="-969" font-family="Helvetica,sans-Serif" font-size="10.00">stringify()</text>
<text text-anchor="start" x="237.5" y="-954" font-family="Helvetica,sans-Serif" font-size="10.00">+</text>
<text text-anchor="start" x="250.5" y="-954" font-family="Helvetica,sans-Serif" font-size="10.00">format()</text>
<text text-anchor="start" x="237.5" y="-939" font-family="Helvetica,sans-Serif" font-size="10.00">+</text>
<text text-anchor="start" x="250.5" y="-939" font-family="Helvetica,sans-Serif" font-size="10.00">getRequiredChild()</text>
<text text-anchor="start" x="250.5" y="-924" font-family="Helvetica,sans-Serif" font-size="10.00">and 7 more...</text>
<text text-anchor="start" x="237.5" y="-909" font-family="Helvetica,sans-Serif" font-size="10.00">+</text>
<text text-anchor="start" x="250.5" y="-909" font-family="Helvetica,sans-Serif" font-size="10.00">createFromStream()</text>
<text text-anchor="start" x="237.5" y="-894" font-family="Helvetica,sans-Serif" font-size="10.00">+</text>
<text text-anchor="start" x="250.5" y="-894" font-family="Helvetica,sans-Serif" font-size="10.00">createFromString()</text>
<text text-anchor="start" x="237.5" y="-879" font-family="Helvetica,sans-Serif" font-size="10.00">+</text>
<text text-anchor="start" x="250.5" y="-879" font-family="Helvetica,sans-Serif" font-size="10.00">createFromFile()</text>
<text text-anchor="start" x="237.5" y="-864" font-family="Helvetica,sans-Serif" font-size="10.00">#</text>
<text text-anchor="start" x="250.5" y="-864" font-family="Helvetica,sans-Serif" font-size="10.00">XMLObject()</text>
<text text-anchor="start" x="237.5" y="-849" font-family="Helvetica,sans-Serif" font-size="10.00">#</text>
<text text-anchor="start" x="250.5" y="-849" font-family="Helvetica,sans-Serif" font-size="10.00">createObject()</text>
<polygon fill="#666666" stroke="#666666" points="233.5,-1219 233.5,-1219 353.5,-1219 353.5,-1219 233.5,-1219"/>
<polygon fill="#666666" stroke="#666666" points="233.5,-1084 233.5,-1084 248.5,-1084 248.5,-1084 233.5,-1084"/>
<polygon fill="#666666" stroke="#666666" points="248.5,-1084 248.5,-1084 353.5,-1084 353.5,-1084 248.5,-1084"/>
<polygon fill="none" stroke="#666666" points="233.5,-842 233.5,-1236 353.5,-1236 353.5,-842 233.5,-842"/>
</a>
</g>
</g>
<!-- Node6&#45;&gt;Node5 -->
<g id="edge5_Node000005_Node000006" class="edge">
<title>Node6&#45;&gt;Node5</title>
<g id="a_edge5_Node000005_Node000006"><a xlink:title=" ">
<path fill="none" stroke="#63b8ff" d="M293.5,-831.78C293.5,-822.62 293.5,-813.97 293.5,-806.06"/>
<polygon fill="none" stroke="#63b8ff" points="290,-831.91 293.5,-841.91 297,-831.91 290,-831.91"/>
</a>
</g>
</g>
<!-- Node8 -->
<g id="Node000008" class="node">
<title>Node8</title>
<g id="a_Node000008"><a xlink:href="classXML_1_1bpmn_1_1endEvent.html" target="_top" xlink:title=" ">
<polygon fill="white" stroke="transparent" points="119,-54.5 2,-54.5 2,-5.5 119,-5.5 119,-54.5"/>
<text text-anchor="start" x="7.5" y="-42" font-family="Helvetica,sans-Serif" font-size="10.00">XML::bpmn::endEvent</text>
<text text-anchor="start" x="17" y="-27" font-family="Helvetica,sans-Serif" font-size="10.00">+</text>
<text text-anchor="start" x="40.5" y="-27" font-family="Helvetica,sans-Serif" font-size="10.00">defaults</text>
<text text-anchor="start" x="17" y="-12" font-family="Helvetica,sans-Serif" font-size="10.00">#</text>
<text text-anchor="start" x="40.5" y="-12" font-family="Helvetica,sans-Serif" font-size="10.00">endEvent()</text>
<polygon fill="#666666" stroke="#666666" points="2.5,-37 2.5,-37 119.5,-37 119.5,-37 2.5,-37"/>
<polygon fill="#666666" stroke="#666666" points="2.5,-22 2.5,-22 38.5,-22 38.5,-22 2.5,-22"/>
<polygon fill="#666666" stroke="#666666" points="38.5,-22 38.5,-22 119.5,-22 119.5,-22 38.5,-22"/>
<polygon fill="none" stroke="#666666" points="2,-5.5 2,-54.5 119,-54.5 119,-5.5 2,-5.5"/>
</a>
</g>
</g>
<!-- Node7&#45;&gt;Node8 -->
<g id="edge7_Node000007_Node000008" class="edge">
<title>Node7&#45;&gt;Node8</title>
<g id="a_edge7_Node000007_Node000008"><a xlink:title=" ">
<path fill="none" stroke="#63b8ff" d="M60.5,-91.1C60.5,-79.04 60.5,-65.73 60.5,-54.71"/>
<polygon fill="none" stroke="#63b8ff" points="57,-91.28 60.5,-101.28 64,-91.28 57,-91.28"/>
</a>
</g>
</g>
<!-- Node10 -->
<g id="Node000010" class="node">
<title>Node10</title>
<g id="a_Node000010"><a xlink:href="classXML_1_1bpmn_1_1implicitThrowEvent.html" target="_top" xlink:title=" ">
<polygon fill="white" stroke="transparent" points="277.5,-60 139.5,-60 139.5,0 277.5,0 277.5,-60"/>
<text text-anchor="start" x="144.5" y="-48" font-family="Helvetica,sans-Serif" font-size="10.00">XML::bpmn::implicitThrow</text>
<text text-anchor="start" x="194.5" y="-37" font-family="Helvetica,sans-Serif" font-size="10.00">Event</text>
<text text-anchor="start" x="147" y="-22" font-family="Helvetica,sans-Serif" font-size="10.00">+</text>
<text text-anchor="start" x="163.5" y="-22" font-family="Helvetica,sans-Serif" font-size="10.00">defaults</text>
<text text-anchor="start" x="147" y="-7" font-family="Helvetica,sans-Serif" font-size="10.00">#</text>
<text text-anchor="start" x="163.5" y="-7" font-family="Helvetica,sans-Serif" font-size="10.00">implicitThrowEvent()</text>
<polygon fill="#666666" stroke="#666666" points="139.5,-32 139.5,-32 277.5,-32 277.5,-32 139.5,-32"/>
<polygon fill="#666666" stroke="#666666" points="139.5,-17 139.5,-17 161.5,-17 161.5,-17 139.5,-17"/>
<polygon fill="#666666" stroke="#666666" points="161.5,-17 161.5,-17 277.5,-17 277.5,-17 161.5,-17"/>
<polygon fill="none" stroke="#666666" points="139.5,0 139.5,-60 277.5,-60 277.5,0 139.5,0"/>
</a>
</g>
</g>
<!-- Node9&#45;&gt;Node10 -->
<g id="edge9_Node000009_Node000010" class="edge">
<title>Node9&#45;&gt;Node10</title>
<g id="a_edge9_Node000009_Node000010"><a xlink:title=" ">
<path fill="none" stroke="#63b8ff" d="M209.66,-85.63C209.48,-77.11 209.29,-68.25 209.12,-60.21"/>
<polygon fill="none" stroke="#63b8ff" points="206.17,-85.85 209.88,-95.77 213.16,-85.7 206.17,-85.85"/>
</a>
</g>
</g>
<!-- Node12 -->
<g id="Node000012" class="node">
<title>Node12</title>
<g id="a_Node000012"><a xlink:href="classXML_1_1bpmn_1_1intermediateThrowEvent.html" target="_top" xlink:title=" ">
<polygon fill="white" stroke="transparent" points="459.5,-60 295.5,-60 295.5,0 459.5,0 459.5,-60"/>
<text text-anchor="start" x="300.5" y="-48" font-family="Helvetica,sans-Serif" font-size="10.00">XML::bpmn::intermediateThrow</text>
<text text-anchor="start" x="363.5" y="-37" font-family="Helvetica,sans-Serif" font-size="10.00">Event</text>
<text text-anchor="start" x="303" y="-22" font-family="Helvetica,sans-Serif" font-size="10.00">+</text>
<text text-anchor="start" x="319.5" y="-22" font-family="Helvetica,sans-Serif" font-size="10.00">defaults</text>
<text text-anchor="start" x="303" y="-7" font-family="Helvetica,sans-Serif" font-size="10.00">#</text>
<text text-anchor="start" x="319.5" y="-7" font-family="Helvetica,sans-Serif" font-size="10.00">intermediateThrowEvent()</text>
<polygon fill="#666666" stroke="#666666" points="295.5,-32 295.5,-32 459.5,-32 459.5,-32 295.5,-32"/>
<polygon fill="#666666" stroke="#666666" points="295.5,-17 295.5,-17 317.5,-17 317.5,-17 295.5,-17"/>
<polygon fill="#666666" stroke="#666666" points="317.5,-17 317.5,-17 459.5,-17 459.5,-17 317.5,-17"/>
<polygon fill="none" stroke="#666666" points="295.5,0 295.5,-60 459.5,-60 459.5,0 295.5,0"/>
</a>
</g>
</g>
<!-- Node11&#45;&gt;Node12 -->
<g id="edge11_Node000011_Node000012" class="edge">
<title>Node11&#45;&gt;Node12</title>
<g id="a_edge11_Node000011_Node000012"><a xlink:title=" ">
<path fill="none" stroke="#63b8ff" d="M376.92,-85.63C377.01,-77.11 377.1,-68.25 377.19,-60.21"/>
<polygon fill="none" stroke="#63b8ff" points="373.42,-85.74 376.81,-95.77 380.42,-85.81 373.42,-85.74"/>
</a>
</g>
</g>
</g>
</svg>
