<?xml version="1.0" encoding="UTF-8" standalone="no"?>
<!DOCTYPE svg PUBLIC "-//W3C//DTD SVG 1.1//EN"
 "http://www.w3.org/Graphics/SVG/1.1/DTD/svg11.dtd">
<!-- Generated by graphviz version 14.1.2 (0)
 -->
<!-- Title: BPMN::ReceiveTask Pages: 1 -->
<svg width="250pt" height="1203pt"
 viewBox="0.00 0.00 250.00 1203.00" xmlns="http://www.w3.org/2000/svg" xmlns:xlink="http://www.w3.org/1999/xlink">
<g id="graph0" class="graph" transform="scale(1 1) rotate(0) translate(4 1199)">
<title>BPMN::ReceiveTask</title>
<!-- Node1 -->
<g id="Node000001" class="node">
<title>Node1</title>
<g id="a_Node000001"><a xlink:title=" ">
<polygon fill="#999999" stroke="none" points="162,-54.25 58,-54.25 58,0 162,0 162,-54.25"/>
<text xml:space="preserve" text-anchor="start" x="62" y="-40.75" font-family="Helvetica,sans-Serif" font-size="10.00">BPMN::ReceiveTask</text>
<text xml:space="preserve" text-anchor="start" x="65.88" y="-24" font-family="Helvetica,sans-Serif" font-size="10.00">+</text>
<text xml:space="preserve" text-anchor="start" x="82" y="-24" font-family="Helvetica,sans-Serif" font-size="10.00">element</text>
<text xml:space="preserve" text-anchor="start" x="65.88" y="-7.25" font-family="Helvetica,sans-Serif" font-size="10.00">+</text>
<text xml:space="preserve" text-anchor="start" x="82" y="-7.25" font-family="Helvetica,sans-Serif" font-size="10.00">ReceiveTask()</text>
<polygon fill="#666666" stroke="#666666" points="58,-35.5 58,-35.5 162,-35.5 162,-35.5 58,-35.5"/>
<polygon fill="#666666" stroke="#666666" points="58,-18.75 58,-18.75 80,-18.75 80,-18.75 58,-18.75"/>
<polygon fill="#666666" stroke="#666666" points="80,-18.75 80,-18.75 162,-18.75 162,-18.75 80,-18.75"/>
<polygon fill="none" stroke="#666666" points="58,0 58,-54.25 162,-54.25 162,0 58,0"/>
</a>
</g>
</g>
<!-- Node2 -->
<g id="Node000002" class="node">
<title>Node2</title>
<g id="a_Node000002"><a xlink:href="classBPMN_1_1Task.html" target="_top" xlink:title=" ">
<polygon fill="white" stroke="none" points="81.5,-144.5 16.5,-144.5 16.5,-90.25 81.5,-90.25 81.5,-144.5"/>
<text xml:space="preserve" text-anchor="start" x="20.5" y="-131" font-family="Helvetica,sans-Serif" font-size="10.00">BPMN::Task</text>
<text xml:space="preserve" text-anchor="start" x="21.56" y="-114.25" font-family="Helvetica,sans-Serif" font-size="10.00">+</text>
<text xml:space="preserve" text-anchor="start" x="34.88" y="-114.25" font-family="Helvetica,sans-Serif" font-size="10.00">element</text>
<text xml:space="preserve" text-anchor="start" x="21.56" y="-97.5" font-family="Helvetica,sans-Serif" font-size="10.00">+</text>
<text xml:space="preserve" text-anchor="start" x="34.88" y="-97.5" font-family="Helvetica,sans-Serif" font-size="10.00">Task()</text>
<polygon fill="#666666" stroke="#666666" points="16.5,-125.75 16.5,-125.75 81.5,-125.75 81.5,-125.75 16.5,-125.75"/>
<polygon fill="#666666" stroke="#666666" points="16.5,-109 16.5,-109 32.88,-109 32.88,-109 16.5,-109"/>
<polygon fill="#666666" stroke="#666666" points="32.88,-109 32.88,-109 81.5,-109 81.5,-109 32.88,-109"/>
<polygon fill="none" stroke="#666666" points="16.5,-90.25 16.5,-144.5 81.5,-144.5 81.5,-90.25 16.5,-90.25"/>
</a>
</g>
</g>
<!-- Node2&#45;&gt;Node1 -->
<g id="edge1_Node000001_Node000002" class="edge">
<title>Node2&#45;&gt;Node1</title>
<g id="a_edge1_Node000001_Node000002"><a xlink:title=" ">
<path fill="none" stroke="#63b8ff" d="M73.48,-80.96C79.65,-72.04 86.16,-62.62 91.95,-54.24"/>
<polygon fill="none" stroke="#63b8ff" points="70.64,-78.91 67.83,-89.13 76.4,-82.89 70.64,-78.91"/>
</a>
</g>
</g>
<!-- Node3 -->
<g id="Node000003" class="node">
<title>Node3</title>
<g id="a_Node000003"><a xlink:href="classBPMN_1_1Activity.html" target="_top" xlink:title=" ">
<polygon fill="white" stroke="none" points="114,-392 0,-392 0,-270.75 114,-270.75 114,-392"/>
<text xml:space="preserve" text-anchor="start" x="20.62" y="-378.5" font-family="Helvetica,sans-Serif" font-size="10.00">BPMN::Activity</text>
<text xml:space="preserve" text-anchor="start" x="4" y="-361.75" font-family="Helvetica,sans-Serif" font-size="10.00">+</text>
<text xml:space="preserve" text-anchor="start" x="16.25" y="-361.75" font-family="Helvetica,sans-Serif" font-size="10.00">boundaryEvents</text>
<text xml:space="preserve" text-anchor="start" x="4" y="-345" font-family="Helvetica,sans-Serif" font-size="10.00">+</text>
<text xml:space="preserve" text-anchor="start" x="16.25" y="-345" font-family="Helvetica,sans-Serif" font-size="10.00">compensatedBy</text>
<text xml:space="preserve" text-anchor="start" x="4" y="-328.25" font-family="Helvetica,sans-Serif" font-size="10.00">+</text>
<text xml:space="preserve" text-anchor="start" x="16.25" y="-328.25" font-family="Helvetica,sans-Serif" font-size="10.00">isForCompensation</text>
<text xml:space="preserve" text-anchor="start" x="4" y="-311.5" font-family="Helvetica,sans-Serif" font-size="10.00">+</text>
<text xml:space="preserve" text-anchor="start" x="16.25" y="-311.5" font-family="Helvetica,sans-Serif" font-size="10.00">loopCharacteristics</text>
<text xml:space="preserve" text-anchor="start" x="4" y="-294.75" font-family="Helvetica,sans-Serif" font-size="10.00">+</text>
<text xml:space="preserve" text-anchor="start" x="16.25" y="-294.75" font-family="Helvetica,sans-Serif" font-size="10.00">element</text>
<text xml:space="preserve" text-anchor="start" x="4" y="-278" font-family="Helvetica,sans-Serif" font-size="10.00">+</text>
<text xml:space="preserve" text-anchor="start" x="16.25" y="-278" font-family="Helvetica,sans-Serif" font-size="10.00">Activity()</text>
<polygon fill="#666666" stroke="#666666" points="0,-373.25 0,-373.25 114,-373.25 114,-373.25 0,-373.25"/>
<polygon fill="#666666" stroke="#666666" points="0,-289.5 0,-289.5 14.25,-289.5 14.25,-289.5 0,-289.5"/>
<polygon fill="#666666" stroke="#666666" points="14.25,-289.5 14.25,-289.5 114,-289.5 114,-289.5 14.25,-289.5"/>
<polygon fill="none" stroke="#666666" points="0,-270.75 0,-392 114,-392 114,-270.75 0,-270.75"/>
</a>
</g>
</g>
<!-- Node3&#45;&gt;Node2 -->
<g id="edge2_Node000002_Node000003" class="edge">
<title>Node3&#45;&gt;Node2</title>
<g id="a_edge2_Node000002_Node000003"><a xlink:title=" ">
<path fill="none" stroke="#63b8ff" d="M54.32,-259.27C52.82,-219.68 51.05,-172.77 49.98,-144.31"/>
<polygon fill="none" stroke="#63b8ff" points="50.82,-259.38 54.69,-269.24 57.81,-259.12 50.82,-259.38"/>
</a>
</g>
</g>
<!-- Node4 -->
<g id="Node000004" class="node">
<title>Node4</title>
<g id="a_Node000004"><a xlink:href="classBPMN_1_1FlowNode.html" target="_top" xlink:title="Base class for BPMN elements that may contain incoming and outgoing sequence flows.">
<polygon fill="white" stroke="none" points="158,-532.5 66,-532.5 66,-428 158,-428 158,-532.5"/>
<text xml:space="preserve" text-anchor="start" x="70" y="-519" font-family="Helvetica,sans-Serif" font-size="10.00">BPMN::FlowNode</text>
<text xml:space="preserve" text-anchor="start" x="73.88" y="-502.25" font-family="Helvetica,sans-Serif" font-size="10.00">+</text>
<text xml:space="preserve" text-anchor="start" x="90" y="-502.25" font-family="Helvetica,sans-Serif" font-size="10.00">element</text>
<text xml:space="preserve" text-anchor="start" x="73.88" y="-485.5" font-family="Helvetica,sans-Serif" font-size="10.00">+</text>
<text xml:space="preserve" text-anchor="start" x="90" y="-485.5" font-family="Helvetica,sans-Serif" font-size="10.00">name</text>
<text xml:space="preserve" text-anchor="start" x="73.88" y="-468.75" font-family="Helvetica,sans-Serif" font-size="10.00">+</text>
<text xml:space="preserve" text-anchor="start" x="90" y="-468.75" font-family="Helvetica,sans-Serif" font-size="10.00">incoming</text>
<text xml:space="preserve" text-anchor="start" x="73.88" y="-452" font-family="Helvetica,sans-Serif" font-size="10.00">+</text>
<text xml:space="preserve" text-anchor="start" x="90" y="-452" font-family="Helvetica,sans-Serif" font-size="10.00">outgoing</text>
<text xml:space="preserve" text-anchor="start" x="73.88" y="-435.25" font-family="Helvetica,sans-Serif" font-size="10.00">+</text>
<text xml:space="preserve" text-anchor="start" x="90" y="-435.25" font-family="Helvetica,sans-Serif" font-size="10.00">FlowNode()</text>
<polygon fill="#666666" stroke="#666666" points="66,-513.75 66,-513.75 158,-513.75 158,-513.75 66,-513.75"/>
<polygon fill="#666666" stroke="#666666" points="66,-446.75 66,-446.75 88,-446.75 88,-446.75 66,-446.75"/>
<polygon fill="#666666" stroke="#666666" points="88,-446.75 88,-446.75 158,-446.75 158,-446.75 88,-446.75"/>
<polygon fill="none" stroke="#666666" points="66,-428 66,-532.5 158,-532.5 158,-428 66,-428"/>
</a>
</g>
</g>
<!-- Node4&#45;&gt;Node3 -->
<g id="edge3_Node000003_Node000004" class="edge">
<title>Node4&#45;&gt;Node3</title>
<g id="a_edge3_Node000003_Node000004"><a xlink:title=" ">
<path fill="none" stroke="#63b8ff" d="M88.92,-417.62C85.72,-409.08 82.44,-400.32 79.26,-391.82"/>
<polygon fill="none" stroke="#63b8ff" points="85.6,-418.74 92.39,-426.88 92.16,-416.28 85.6,-418.74"/>
</a>
</g>
</g>
<!-- Node11 -->
<g id="Node000011" class="node">
<title>Node11</title>
<g id="a_Node000011"><a xlink:href="classBPMN_1_1Event.html" target="_top" xlink:title=" ">
<polygon fill="white" stroke="none" points="204.5,-358.5 133.5,-358.5 133.5,-304.25 204.5,-304.25 204.5,-358.5"/>
<text xml:space="preserve" text-anchor="start" x="137.5" y="-345" font-family="Helvetica,sans-Serif" font-size="10.00">BPMN::Event</text>
<text xml:space="preserve" text-anchor="start" x="140.06" y="-328.25" font-family="Helvetica,sans-Serif" font-size="10.00">+</text>
<text xml:space="preserve" text-anchor="start" x="154.88" y="-328.25" font-family="Helvetica,sans-Serif" font-size="10.00">element</text>
<text xml:space="preserve" text-anchor="start" x="140.06" y="-311.5" font-family="Helvetica,sans-Serif" font-size="10.00">+</text>
<text xml:space="preserve" text-anchor="start" x="154.88" y="-311.5" font-family="Helvetica,sans-Serif" font-size="10.00">Event()</text>
<polygon fill="#666666" stroke="#666666" points="133.5,-339.75 133.5,-339.75 204.5,-339.75 204.5,-339.75 133.5,-339.75"/>
<polygon fill="#666666" stroke="#666666" points="133.5,-323 133.5,-323 152.88,-323 152.88,-323 133.5,-323"/>
<polygon fill="#666666" stroke="#666666" points="152.88,-323 152.88,-323 204.5,-323 204.5,-323 152.88,-323"/>
<polygon fill="none" stroke="#666666" points="133.5,-304.25 133.5,-358.5 204.5,-358.5 204.5,-304.25 133.5,-304.25"/>
</a>
</g>
</g>
<!-- Node4&#45;&gt;Node11 -->
<g id="edge11_Node000011_Node000004" class="edge">
<title>Node4&#45;&gt;Node11</title>
<g id="a_edge11_Node000011_Node000004"><a xlink:title=" ">
<path fill="none" stroke="#63b8ff" d="M135.92,-417.62C143.95,-396.93 152.48,-374.96 158.86,-358.5"/>
<polygon fill="none" stroke="#63b8ff" points="132.68,-416.29 132.32,-426.88 139.2,-418.83 132.68,-416.29"/>
</a>
</g>
</g>
<!-- Node5 -->
<g id="Node000005" class="node">
<title>Node5</title>
<g id="a_Node000005"><a xlink:href="classBPMN_1_1ChildNode.html" target="_top" xlink:title="Base class for BPMN elements within a Scope.">
<polygon fill="white" stroke="none" points="158.75,-656.25 65.25,-656.25 65.25,-568.5 158.75,-568.5 158.75,-656.25"/>
<text xml:space="preserve" text-anchor="start" x="69.25" y="-642.75" font-family="Helvetica,sans-Serif" font-size="10.00">BPMN::ChildNode</text>
<text xml:space="preserve" text-anchor="start" x="73.12" y="-626" font-family="Helvetica,sans-Serif" font-size="10.00">+</text>
<text xml:space="preserve" text-anchor="start" x="89.25" y="-626" font-family="Helvetica,sans-Serif" font-size="10.00">parent</text>
<text xml:space="preserve" text-anchor="start" x="73.12" y="-609.25" font-family="Helvetica,sans-Serif" font-size="10.00">+</text>
<text xml:space="preserve" text-anchor="start" x="89.25" y="-609.25" font-family="Helvetica,sans-Serif" font-size="10.00">ChildNode()</text>
<text xml:space="preserve" text-anchor="start" x="73.12" y="-592.5" font-family="Helvetica,sans-Serif" font-size="10.00">+</text>
<text xml:space="preserve" text-anchor="start" x="89.25" y="-592.5" font-family="Helvetica,sans-Serif" font-size="10.00">ancestor()</text>
<text xml:space="preserve" text-anchor="start" x="73.12" y="-575.75" font-family="Helvetica,sans-Serif" font-size="10.00">+</text>
<text xml:space="preserve" text-anchor="start" x="89.25" y="-575.75" font-family="Helvetica,sans-Serif" font-size="10.00">ancestor()</text>
<polygon fill="#666666" stroke="#666666" points="65.25,-637.5 65.25,-637.5 158.75,-637.5 158.75,-637.5 65.25,-637.5"/>
<polygon fill="#666666" stroke="#666666" points="65.25,-620.75 65.25,-620.75 87.25,-620.75 87.25,-620.75 65.25,-620.75"/>
<polygon fill="#666666" stroke="#666666" points="87.25,-620.75 87.25,-620.75 158.75,-620.75 158.75,-620.75 87.25,-620.75"/>
<polygon fill="none" stroke="#666666" points="65.25,-568.5 65.25,-656.25 158.75,-656.25 158.75,-568.5 65.25,-568.5"/>
</a>
</g>
</g>
<!-- Node5&#45;&gt;Node4 -->
<g id="edge4_Node000004_Node000005" class="edge">
<title>Node5&#45;&gt;Node4</title>
<g id="a_edge4_Node000004_Node000005"><a xlink:title=" ">
<path fill="none" stroke="#63b8ff" d="M112,-557.52C112,-549.11 112,-540.45 112,-532.11"/>
<polygon fill="none" stroke="#63b8ff" points="108.5,-557.25 112,-567.25 115.5,-557.25 108.5,-557.25"/>
</a>
</g>
</g>
<!-- Node6 -->
<g id="Node000006" class="node">
<title>Node6</title>
<g id="a_Node000006"><a xlink:href="classBPMN_1_1Node.html" target="_top" xlink:title="Base class for all nodes in a BPMN model.">
<polygon fill="white" stroke="none" points="146.38,-830.25 77.62,-830.25 77.62,-692.25 146.38,-692.25 146.38,-830.25"/>
<text xml:space="preserve" text-anchor="start" x="81.62" y="-816.75" font-family="Helvetica,sans-Serif" font-size="10.00">BPMN::Node</text>
<text xml:space="preserve" text-anchor="start" x="82.5" y="-800" font-family="Helvetica,sans-Serif" font-size="10.00">+</text>
<text xml:space="preserve" text-anchor="start" x="95.62" y="-800" font-family="Helvetica,sans-Serif" font-size="10.00">receiving</text>
<text xml:space="preserve" text-anchor="start" x="82.5" y="-783.25" font-family="Helvetica,sans-Serif" font-size="10.00">+</text>
<text xml:space="preserve" text-anchor="start" x="95.62" y="-783.25" font-family="Helvetica,sans-Serif" font-size="10.00">sending</text>
<text xml:space="preserve" text-anchor="start" x="82.5" y="-766.5" font-family="Helvetica,sans-Serif" font-size="10.00">+</text>
<text xml:space="preserve" text-anchor="start" x="95.62" y="-766.5" font-family="Helvetica,sans-Serif" font-size="10.00">Node()</text>
<text xml:space="preserve" text-anchor="start" x="82.5" y="-749.75" font-family="Helvetica,sans-Serif" font-size="10.00">+</text>
<text xml:space="preserve" text-anchor="start" x="95.62" y="-749.75" font-family="Helvetica,sans-Serif" font-size="10.00">find()</text>
<text xml:space="preserve" text-anchor="start" x="82.5" y="-733" font-family="Helvetica,sans-Serif" font-size="10.00">+</text>
<text xml:space="preserve" text-anchor="start" x="95.62" y="-733" font-family="Helvetica,sans-Serif" font-size="10.00">find()</text>
<text xml:space="preserve" text-anchor="start" x="82.5" y="-716.25" font-family="Helvetica,sans-Serif" font-size="10.00">+</text>
<text xml:space="preserve" text-anchor="start" x="95.62" y="-716.25" font-family="Helvetica,sans-Serif" font-size="10.00">find_all()</text>
<text xml:space="preserve" text-anchor="start" x="82.5" y="-699.5" font-family="Helvetica,sans-Serif" font-size="10.00">+</text>
<text xml:space="preserve" text-anchor="start" x="95.62" y="-699.5" font-family="Helvetica,sans-Serif" font-size="10.00">find_all()</text>
<polygon fill="#666666" stroke="#666666" points="77.62,-811.5 77.62,-811.5 146.38,-811.5 146.38,-811.5 77.62,-811.5"/>
<polygon fill="#666666" stroke="#666666" points="77.62,-778 77.62,-778 93.62,-778 93.62,-778 77.62,-778"/>
<polygon fill="#666666" stroke="#666666" points="93.62,-778 93.62,-778 146.38,-778 146.38,-778 93.62,-778"/>
<polygon fill="none" stroke="#666666" points="77.62,-692.25 77.62,-830.25 146.38,-830.25 146.38,-692.25 77.62,-692.25"/>
</a>
</g>
</g>
<!-- Node6&#45;&gt;Node5 -->
<g id="edge5_Node000005_Node000006" class="edge">
<title>Node6&#45;&gt;Node5</title>
<g id="a_edge5_Node000005_Node000006"><a xlink:title=" ">
<path fill="none" stroke="#63b8ff" d="M112,-681.11C112,-672.54 112,-664.08 112,-656.19"/>
<polygon fill="none" stroke="#63b8ff" points="108.5,-680.89 112,-690.89 115.5,-680.89 108.5,-680.89"/>
</a>
</g>
</g>
<!-- Node7 -->
<g id="Node000007" class="node">
<title>Node7</title>
<g id="a_Node000007"><a xlink:href="classBPMN_1_1BaseElement.html" target="_top" xlink:title="Base class for all core BPMN elements.">
<polygon fill="white" stroke="none" points="169,-1037.75 55,-1037.75 55,-866.25 169,-866.25 169,-1037.75"/>
<text xml:space="preserve" text-anchor="start" x="62.12" y="-1024.25" font-family="Helvetica,sans-Serif" font-size="10.00">BPMN::BaseElement</text>
<text xml:space="preserve" text-anchor="start" x="59" y="-1007.5" font-family="Helvetica,sans-Serif" font-size="10.00">+</text>
<text xml:space="preserve" text-anchor="start" x="71.25" y="-1007.5" font-family="Helvetica,sans-Serif" font-size="10.00">element</text>
<text xml:space="preserve" text-anchor="start" x="59" y="-990.75" font-family="Helvetica,sans-Serif" font-size="10.00">+</text>
<text xml:space="preserve" text-anchor="start" x="71.25" y="-990.75" font-family="Helvetica,sans-Serif" font-size="10.00">id</text>
<text xml:space="preserve" text-anchor="start" x="59" y="-974" font-family="Helvetica,sans-Serif" font-size="10.00">+</text>
<text xml:space="preserve" text-anchor="start" x="71.25" y="-974" font-family="Helvetica,sans-Serif" font-size="10.00">extensionElements</text>
<text xml:space="preserve" text-anchor="start" x="59" y="-957.25" font-family="Helvetica,sans-Serif" font-size="10.00">+</text>
<text xml:space="preserve" text-anchor="start" x="71.25" y="-957.25" font-family="Helvetica,sans-Serif" font-size="10.00">BaseElement()</text>
<text xml:space="preserve" text-anchor="start" x="59" y="-940.5" font-family="Helvetica,sans-Serif" font-size="10.00">+</text>
<text xml:space="preserve" text-anchor="start" x="71.25" y="-940.5" font-family="Helvetica,sans-Serif" font-size="10.00">~BaseElement()</text>
<text xml:space="preserve" text-anchor="start" x="59" y="-923.75" font-family="Helvetica,sans-Serif" font-size="10.00">+</text>
<text xml:space="preserve" text-anchor="start" x="71.25" y="-923.75" font-family="Helvetica,sans-Serif" font-size="10.00">is()</text>
<text xml:space="preserve" text-anchor="start" x="59" y="-907" font-family="Helvetica,sans-Serif" font-size="10.00">+</text>
<text xml:space="preserve" text-anchor="start" x="71.25" y="-907" font-family="Helvetica,sans-Serif" font-size="10.00">is()</text>
<text xml:space="preserve" text-anchor="start" x="59" y="-890.25" font-family="Helvetica,sans-Serif" font-size="10.00">+</text>
<text xml:space="preserve" text-anchor="start" x="71.25" y="-890.25" font-family="Helvetica,sans-Serif" font-size="10.00">get()</text>
<text xml:space="preserve" text-anchor="start" x="59" y="-873.5" font-family="Helvetica,sans-Serif" font-size="10.00">+</text>
<text xml:space="preserve" text-anchor="start" x="71.25" y="-873.5" font-family="Helvetica,sans-Serif" font-size="10.00">get()</text>
<polygon fill="#666666" stroke="#666666" points="55,-1019 55,-1019 169,-1019 169,-1019 55,-1019"/>
<polygon fill="#666666" stroke="#666666" points="55,-968.75 55,-968.75 69.25,-968.75 69.25,-968.75 55,-968.75"/>
<polygon fill="#666666" stroke="#666666" points="69.25,-968.75 69.25,-968.75 169,-968.75 169,-968.75 69.25,-968.75"/>
<polygon fill="none" stroke="#666666" points="55,-866.25 55,-1037.75 169,-1037.75 169,-866.25 55,-866.25"/>
</a>
</g>
</g>
<!-- Node7&#45;&gt;Node6 -->
<g id="edge6_Node000006_Node000007" class="edge">
<title>Node7&#45;&gt;Node6</title>
<g id="a_edge6_Node000006_Node000007"><a xlink:title=" ">
<path fill="none" stroke="#63b8ff" d="M112,-854.86C112,-846.46 112,-838.09 112,-830"/>
<polygon fill="none" stroke="#63b8ff" points="108.5,-854.77 112,-864.77 115.5,-854.77 108.5,-854.77"/>
</a>
</g>
</g>
<!-- Node8 -->
<g id="Node000008" class="node">
<title>Node8</title>
<g id="a_Node000008"><a xlink:href="classBPMN_1_1Element.html" target="_top" xlink:title="Abstract base class for all elements in a BPMN model.">
<polygon fill="white" stroke="none" points="153.88,-1195 70.12,-1195 70.12,-1073.75 153.88,-1073.75 153.88,-1195"/>
<text xml:space="preserve" text-anchor="start" x="74.12" y="-1181.5" font-family="Helvetica,sans-Serif" font-size="10.00">BPMN::Element</text>
<text xml:space="preserve" text-anchor="start" x="110.5" y="-1164.75" font-family="Helvetica,sans-Serif" font-size="10.00"> </text>
<text xml:space="preserve" text-anchor="start" x="75.19" y="-1148" font-family="Helvetica,sans-Serif" font-size="10.00">+</text>
<text xml:space="preserve" text-anchor="start" x="88.5" y="-1148" font-family="Helvetica,sans-Serif" font-size="10.00">~Element()</text>
<text xml:space="preserve" text-anchor="start" x="75.19" y="-1131.25" font-family="Helvetica,sans-Serif" font-size="10.00">+</text>
<text xml:space="preserve" text-anchor="start" x="88.5" y="-1131.25" font-family="Helvetica,sans-Serif" font-size="10.00">represents()</text>
<text xml:space="preserve" text-anchor="start" x="75.19" y="-1114.5" font-family="Helvetica,sans-Serif" font-size="10.00">+</text>
<text xml:space="preserve" text-anchor="start" x="88.5" y="-1114.5" font-family="Helvetica,sans-Serif" font-size="10.00">represents()</text>
<text xml:space="preserve" text-anchor="start" x="75.19" y="-1097.75" font-family="Helvetica,sans-Serif" font-size="10.00">+</text>
<text xml:space="preserve" text-anchor="start" x="88.5" y="-1097.75" font-family="Helvetica,sans-Serif" font-size="10.00">as()</text>
<text xml:space="preserve" text-anchor="start" x="75.19" y="-1081" font-family="Helvetica,sans-Serif" font-size="10.00">+</text>
<text xml:space="preserve" text-anchor="start" x="88.5" y="-1081" font-family="Helvetica,sans-Serif" font-size="10.00">as()</text>
<polygon fill="#666666" stroke="#666666" points="70.12,-1176.25 70.12,-1176.25 153.88,-1176.25 153.88,-1176.25 70.12,-1176.25"/>
<polygon fill="#666666" stroke="#666666" points="70.12,-1159.5 70.12,-1159.5 153.88,-1159.5 153.88,-1159.5 70.12,-1159.5"/>
<polygon fill="none" stroke="#666666" points="70.12,-1073.75 70.12,-1195 153.88,-1195 153.88,-1073.75 70.12,-1073.75"/>
</a>
</g>
</g>
<!-- Node8&#45;&gt;Node7 -->
<g id="edge7_Node000007_Node000008" class="edge">
<title>Node8&#45;&gt;Node7</title>
<g id="a_edge7_Node000007_Node000008"><a xlink:title=" ">
<path fill="none" stroke="#63b8ff" d="M112,-1062.46C112,-1054.31 112,-1045.94 112,-1037.63"/>
<polygon fill="none" stroke="#63b8ff" points="108.5,-1062.3 112,-1072.3 115.5,-1062.3 108.5,-1062.3"/>
</a>
</g>
</g>
<!-- Node9 -->
<g id="Node000009" class="node">
<title>Node9</title>
<g id="a_Node000009"><a xlink:href="classBPMN_1_1MessageCatchEvent.html" target="_top" xlink:title=" ">
<polygon fill="white" stroke="none" points="242.12,-144.5 99.88,-144.5 99.88,-90.25 242.12,-90.25 242.12,-144.5"/>
<text xml:space="preserve" text-anchor="start" x="103.88" y="-131" font-family="Helvetica,sans-Serif" font-size="10.00">BPMN::MessageCatchEvent</text>
<text xml:space="preserve" text-anchor="start" x="169.5" y="-114.25" font-family="Helvetica,sans-Serif" font-size="10.00"> </text>
<text xml:space="preserve" text-anchor="start" x="107.75" y="-97.5" font-family="Helvetica,sans-Serif" font-size="10.00">+</text>
<text xml:space="preserve" text-anchor="start" x="123.88" y="-97.5" font-family="Helvetica,sans-Serif" font-size="10.00">MessageCatchEvent()</text>
<polygon fill="#666666" stroke="#666666" points="99.88,-125.75 99.88,-125.75 242.12,-125.75 242.12,-125.75 99.88,-125.75"/>
<polygon fill="#666666" stroke="#666666" points="99.88,-109 99.88,-109 242.12,-109 242.12,-109 99.88,-109"/>
<polygon fill="none" stroke="#666666" points="99.88,-90.25 99.88,-144.5 242.12,-144.5 242.12,-90.25 99.88,-90.25"/>
</a>
</g>
</g>
<!-- Node9&#45;&gt;Node1 -->
<g id="edge8_Node000001_Node000009" class="edge">
<title>Node9&#45;&gt;Node1</title>
<g id="a_edge8_Node000001_Node000009"><a xlink:title=" ">
<path fill="none" stroke="#63b8ff" d="M146.52,-80.96C140.35,-72.04 133.84,-62.62 128.05,-54.24"/>
<polygon fill="none" stroke="#63b8ff" points="143.6,-82.89 152.17,-89.13 149.36,-78.91 143.6,-82.89"/>
</a>
</g>
</g>
<!-- Node10 -->
<g id="Node000010" class="node">
<title>Node10</title>
<g id="a_Node000010"><a xlink:href="classBPMN_1_1CatchEvent.html" target="_top" xlink:title=" ">
<polygon fill="white" stroke="none" points="219.38,-234.75 120.62,-234.75 120.62,-180.5 219.38,-180.5 219.38,-234.75"/>
<text xml:space="preserve" text-anchor="start" x="124.62" y="-221.25" font-family="Helvetica,sans-Serif" font-size="10.00">BPMN::CatchEvent</text>
<text xml:space="preserve" text-anchor="start" x="128.5" y="-204.5" font-family="Helvetica,sans-Serif" font-size="10.00">+</text>
<text xml:space="preserve" text-anchor="start" x="144.62" y="-204.5" font-family="Helvetica,sans-Serif" font-size="10.00">element</text>
<text xml:space="preserve" text-anchor="start" x="128.5" y="-187.75" font-family="Helvetica,sans-Serif" font-size="10.00">+</text>
<text xml:space="preserve" text-anchor="start" x="144.62" y="-187.75" font-family="Helvetica,sans-Serif" font-size="10.00">CatchEvent()</text>
<polygon fill="#666666" stroke="#666666" points="120.62,-216 120.62,-216 219.38,-216 219.38,-216 120.62,-216"/>
<polygon fill="#666666" stroke="#666666" points="120.62,-199.25 120.62,-199.25 142.62,-199.25 142.62,-199.25 120.62,-199.25"/>
<polygon fill="#666666" stroke="#666666" points="142.62,-199.25 142.62,-199.25 219.38,-199.25 219.38,-199.25 142.62,-199.25"/>
<polygon fill="none" stroke="#666666" points="120.62,-180.5 120.62,-234.75 219.38,-234.75 219.38,-180.5 120.62,-180.5"/>
</a>
</g>
</g>
<!-- Node10&#45;&gt;Node9 -->
<g id="edge9_Node000009_Node000010" class="edge">
<title>Node10&#45;&gt;Node9</title>
<g id="a_edge9_Node000009_Node000010"><a xlink:title=" ">
<path fill="none" stroke="#63b8ff" d="M170.42,-169.21C170.52,-160.89 170.62,-152.24 170.7,-144.49"/>
<polygon fill="none" stroke="#63b8ff" points="166.93,-169.07 170.31,-179.11 173.92,-169.15 166.93,-169.07"/>
</a>
</g>
</g>
<!-- Node11&#45;&gt;Node10 -->
<g id="edge10_Node000010_Node000011" class="edge">
<title>Node11&#45;&gt;Node10</title>
<g id="a_edge10_Node000010_Node000011"><a xlink:title=" ">
<path fill="none" stroke="#63b8ff" d="M169.31,-292.77C169.46,-273.95 169.65,-251.62 169.79,-234.7"/>
<polygon fill="none" stroke="#63b8ff" points="165.81,-292.71 169.23,-302.74 172.81,-292.77 165.81,-292.71"/>
</a>
</g>
</g>
</g>
</svg>
