<?xml version="1.0" encoding="UTF-8" standalone="no"?>
<!DOCTYPE svg PUBLIC "-//W3C//DTD SVG 1.1//EN"
 "http://www.w3.org/Graphics/SVG/1.1/DTD/svg11.dtd">
<!-- Generated by graphviz version 2.43.0 (0)
 -->
<!-- Title: BPMN::SubProcess Pages: 1 -->
<svg width="308pt" height="949pt"
 viewBox="0.00 0.00 307.50 949.00" xmlns="http://www.w3.org/2000/svg" xmlns:xlink="http://www.w3.org/1999/xlink">
<g id="graph0" class="graph" transform="scale(1 1) rotate(0) translate(4 945)">
<title>BPMN::SubProcess</title>
<!-- Node1 -->
<g id="node1" class="node">
<title>Node1</title>
<g id="a_node1"><a xlink:title=" ">
<polygon fill="#bfbfbf" stroke="black" points="76,-94.5 76,-162.5 183,-162.5 183,-94.5 76,-94.5"/>
<text text-anchor="middle" x="129.5" y="-150.5" font-family="Helvetica,sans-Serif" font-size="10.00">BPMN::SubProcess</text>
<polyline fill="none" stroke="black" points="76,-143.5 183,-143.5 "/>
<text text-anchor="start" x="84" y="-131.5" font-family="Helvetica,sans-Serif" font-size="10.00">+ startEvent</text>
<text text-anchor="start" x="84" y="-120.5" font-family="Helvetica,sans-Serif" font-size="10.00">+ element</text>
<polyline fill="none" stroke="black" points="76,-113.5 183,-113.5 "/>
<text text-anchor="start" x="84" y="-101.5" font-family="Helvetica,sans-Serif" font-size="10.00">+ SubProcess()</text>
</a>
</g>
</g>
<!-- Node8 -->
<g id="node8" class="node">
<title>Node8</title>
<g id="a_node8"><a xlink:href="classBPMN_1_1Transaction.html" target="_top" xlink:title=" ">
<polygon fill="none" stroke="black" points="76,-0.5 76,-57.5 183,-57.5 183,-0.5 76,-0.5"/>
<text text-anchor="middle" x="129.5" y="-45.5" font-family="Helvetica,sans-Serif" font-size="10.00">BPMN::Transaction</text>
<polyline fill="none" stroke="black" points="76,-38.5 183,-38.5 "/>
<text text-anchor="start" x="84" y="-26.5" font-family="Helvetica,sans-Serif" font-size="10.00">+ element</text>
<polyline fill="none" stroke="black" points="76,-19.5 183,-19.5 "/>
<text text-anchor="start" x="84" y="-7.5" font-family="Helvetica,sans-Serif" font-size="10.00">+ Transaction()</text>
</a>
</g>
</g>
<!-- Node1&#45;&gt;Node8 -->
<g id="edge8" class="edge">
<title>Node1&#45;&gt;Node8</title>
<path fill="none" stroke="midnightblue" d="M129.5,-84.45C129.5,-75.4 129.5,-66.09 129.5,-57.78"/>
<polygon fill="none" stroke="midnightblue" points="126,-84.49 129.5,-94.49 133,-84.49 126,-84.49"/>
</g>
<!-- Node2 -->
<g id="node2" class="node">
<title>Node2</title>
<g id="a_node2"><a xlink:href="classBPMN_1_1Activity.html" target="_top" xlink:title=" ">
<polygon fill="none" stroke="black" points="24.5,-199.5 24.5,-300.5 146.5,-300.5 146.5,-199.5 24.5,-199.5"/>
<text text-anchor="middle" x="85.5" y="-288.5" font-family="Helvetica,sans-Serif" font-size="10.00">BPMN::Activity</text>
<polyline fill="none" stroke="black" points="24.5,-281.5 146.5,-281.5 "/>
<text text-anchor="start" x="32.5" y="-269.5" font-family="Helvetica,sans-Serif" font-size="10.00">+ boundaryEvents</text>
<text text-anchor="start" x="32.5" y="-258.5" font-family="Helvetica,sans-Serif" font-size="10.00">+ compensatedBy</text>
<text text-anchor="start" x="32.5" y="-247.5" font-family="Helvetica,sans-Serif" font-size="10.00">+ isForCompensation</text>
<text text-anchor="start" x="32.5" y="-236.5" font-family="Helvetica,sans-Serif" font-size="10.00">+ loopCharacteristics</text>
<text text-anchor="start" x="32.5" y="-225.5" font-family="Helvetica,sans-Serif" font-size="10.00">+ element</text>
<polyline fill="none" stroke="black" points="24.5,-218.5 146.5,-218.5 "/>
<text text-anchor="start" x="32.5" y="-206.5" font-family="Helvetica,sans-Serif" font-size="10.00">+ Activity()</text>
</a>
</g>
</g>
<!-- Node2&#45;&gt;Node1 -->
<g id="edge1" class="edge">
<title>Node2&#45;&gt;Node1</title>
<path fill="none" stroke="midnightblue" d="M107.31,-189.76C110.72,-180.5 114.14,-171.23 117.23,-162.83"/>
<polygon fill="none" stroke="midnightblue" points="103.95,-188.77 103.78,-199.36 110.52,-191.18 103.95,-188.77"/>
</g>
<!-- Node3 -->
<g id="node3" class="node">
<title>Node3</title>
<g id="a_node3"><a xlink:href="classBPMN_1_1FlowNode.html" target="_top" xlink:title="Base class for BPMN elements that may contain incoming and outgoing sequence flows.">
<polygon fill="none" stroke="black" points="0,-365 0,-455 101,-455 101,-365 0,-365"/>
<text text-anchor="middle" x="50.5" y="-443" font-family="Helvetica,sans-Serif" font-size="10.00">BPMN::FlowNode</text>
<polyline fill="none" stroke="black" points="0,-436 101,-436 "/>
<text text-anchor="start" x="8" y="-424" font-family="Helvetica,sans-Serif" font-size="10.00">+ element</text>
<text text-anchor="start" x="8" y="-413" font-family="Helvetica,sans-Serif" font-size="10.00">+ name</text>
<text text-anchor="start" x="8" y="-402" font-family="Helvetica,sans-Serif" font-size="10.00">+ incoming</text>
<text text-anchor="start" x="8" y="-391" font-family="Helvetica,sans-Serif" font-size="10.00">+ outgoing</text>
<polyline fill="none" stroke="black" points="0,-384 101,-384 "/>
<text text-anchor="start" x="8" y="-372" font-family="Helvetica,sans-Serif" font-size="10.00">+ FlowNode()</text>
</a>
</g>
</g>
<!-- Node3&#45;&gt;Node2 -->
<g id="edge2" class="edge">
<title>Node3&#45;&gt;Node2</title>
<path fill="none" stroke="midnightblue" d="M62.49,-354.87C66.39,-337.28 70.69,-317.86 74.51,-300.62"/>
<polygon fill="none" stroke="midnightblue" points="59,-354.47 60.25,-364.99 65.83,-355.98 59,-354.47"/>
</g>
<!-- Node4 -->
<g id="node4" class="node">
<title>Node4</title>
<g id="a_node4"><a xlink:href="classBPMN_1_1ChildNode.html" target="_top" xlink:title="Base class for BPMN elements within a Scope.">
<polygon fill="none" stroke="black" points="39.5,-519.5 39.5,-576.5 141.5,-576.5 141.5,-519.5 39.5,-519.5"/>
<text text-anchor="middle" x="90.5" y="-564.5" font-family="Helvetica,sans-Serif" font-size="10.00">BPMN::ChildNode</text>
<polyline fill="none" stroke="black" points="39.5,-557.5 141.5,-557.5 "/>
<text text-anchor="start" x="47.5" y="-545.5" font-family="Helvetica,sans-Serif" font-size="10.00">+ parent</text>
<polyline fill="none" stroke="black" points="39.5,-538.5 141.5,-538.5 "/>
<text text-anchor="start" x="47.5" y="-526.5" font-family="Helvetica,sans-Serif" font-size="10.00">+ ChildNode()</text>
</a>
</g>
</g>
<!-- Node4&#45;&gt;Node3 -->
<g id="edge3" class="edge">
<title>Node4&#45;&gt;Node3</title>
<path fill="none" stroke="midnightblue" d="M79.46,-509.45C74.5,-492.61 68.63,-472.63 63.46,-455.08"/>
<polygon fill="none" stroke="midnightblue" points="76.23,-510.87 82.41,-519.48 82.94,-508.9 76.23,-510.87"/>
</g>
<!-- Node5 -->
<g id="node5" class="node">
<title>Node5</title>
<g id="a_node5"><a xlink:href="classBPMN_1_1Node.html" target="_top" xlink:title="Base class for all nodes in a BPMN model.">
<polygon fill="none" stroke="black" points="91,-613.5 91,-725.5 168,-725.5 168,-613.5 91,-613.5"/>
<text text-anchor="middle" x="129.5" y="-713.5" font-family="Helvetica,sans-Serif" font-size="10.00">BPMN::Node</text>
<polyline fill="none" stroke="black" points="91,-706.5 168,-706.5 "/>
<text text-anchor="start" x="99" y="-694.5" font-family="Helvetica,sans-Serif" font-size="10.00">+ receiving</text>
<text text-anchor="start" x="99" y="-683.5" font-family="Helvetica,sans-Serif" font-size="10.00">+ sending</text>
<polyline fill="none" stroke="black" points="91,-676.5 168,-676.5 "/>
<text text-anchor="start" x="99" y="-664.5" font-family="Helvetica,sans-Serif" font-size="10.00">+ Node()</text>
<text text-anchor="start" x="99" y="-653.5" font-family="Helvetica,sans-Serif" font-size="10.00">+ find()</text>
<text text-anchor="start" x="99" y="-642.5" font-family="Helvetica,sans-Serif" font-size="10.00">+ find()</text>
<text text-anchor="start" x="99" y="-631.5" font-family="Helvetica,sans-Serif" font-size="10.00">+ find_all()</text>
<text text-anchor="start" x="99" y="-620.5" font-family="Helvetica,sans-Serif" font-size="10.00">+ find_all()</text>
</a>
</g>
</g>
<!-- Node5&#45;&gt;Node4 -->
<g id="edge4" class="edge">
<title>Node5&#45;&gt;Node4</title>
<path fill="none" stroke="midnightblue" d="M108.37,-603.74C105.25,-594.21 102.2,-584.84 99.52,-576.63"/>
<polygon fill="none" stroke="midnightblue" points="105.05,-604.88 111.48,-613.3 111.71,-602.7 105.05,-604.88"/>
</g>
<!-- Node7 -->
<g id="node7" class="node">
<title>Node7</title>
<g id="a_node7"><a xlink:href="classBPMN_1_1Scope.html" target="_top" xlink:title="Base class for BPMN elements that may contain a ChildNode elements.">
<polygon fill="none" stroke="black" points="119.5,-337.5 119.5,-482.5 299.5,-482.5 299.5,-337.5 119.5,-337.5"/>
<text text-anchor="middle" x="209.5" y="-470.5" font-family="Helvetica,sans-Serif" font-size="10.00">BPMN::Scope</text>
<polyline fill="none" stroke="black" points="119.5,-463.5 299.5,-463.5 "/>
<text text-anchor="start" x="127.5" y="-451.5" font-family="Helvetica,sans-Serif" font-size="10.00">+ childNodes</text>
<text text-anchor="start" x="127.5" y="-440.5" font-family="Helvetica,sans-Serif" font-size="10.00">+ flowNodes</text>
<text text-anchor="start" x="127.5" y="-429.5" font-family="Helvetica,sans-Serif" font-size="10.00">+ eventSubProcesses</text>
<text text-anchor="start" x="127.5" y="-418.5" font-family="Helvetica,sans-Serif" font-size="10.00">+ startNodes</text>
<text text-anchor="start" x="127.5" y="-407.5" font-family="Helvetica,sans-Serif" font-size="10.00">+ sequenceFlows</text>
<text text-anchor="start" x="127.5" y="-396.5" font-family="Helvetica,sans-Serif" font-size="10.00">+ compensationActivities</text>
<text text-anchor="start" x="127.5" y="-385.5" font-family="Helvetica,sans-Serif" font-size="10.00">+ compensationEventSubProcess</text>
<polyline fill="none" stroke="black" points="119.5,-378.5 299.5,-378.5 "/>
<text text-anchor="start" x="127.5" y="-366.5" font-family="Helvetica,sans-Serif" font-size="10.00">+ Scope()</text>
<text text-anchor="start" x="127.5" y="-355.5" font-family="Helvetica,sans-Serif" font-size="10.00"># add()</text>
<text text-anchor="start" x="127.5" y="-344.5" font-family="Helvetica,sans-Serif" font-size="10.00"># add()</text>
</a>
</g>
</g>
<!-- Node5&#45;&gt;Node7 -->
<g id="edge7" class="edge">
<title>Node5&#45;&gt;Node7</title>
<path fill="none" stroke="midnightblue" d="M149.65,-603.63C161.09,-566.82 175.42,-520.69 187.19,-482.79"/>
<polygon fill="none" stroke="midnightblue" points="146.29,-602.67 146.66,-613.26 152.97,-604.75 146.29,-602.67"/>
</g>
<!-- Node6 -->
<g id="node6" class="node">
<title>Node6</title>
<g id="a_node6"><a xlink:href="classBPMN_1_1BaseElement.html" target="_top" xlink:title="Base class for all elements in a BPMN model.">
<polygon fill="none" stroke="black" points="68.5,-762.5 68.5,-940.5 190.5,-940.5 190.5,-762.5 68.5,-762.5"/>
<text text-anchor="middle" x="129.5" y="-928.5" font-family="Helvetica,sans-Serif" font-size="10.00">BPMN::BaseElement</text>
<polyline fill="none" stroke="black" points="68.5,-921.5 190.5,-921.5 "/>
<text text-anchor="start" x="76.5" y="-909.5" font-family="Helvetica,sans-Serif" font-size="10.00">+ id</text>
<text text-anchor="start" x="76.5" y="-898.5" font-family="Helvetica,sans-Serif" font-size="10.00">+ element</text>
<text text-anchor="start" x="76.5" y="-887.5" font-family="Helvetica,sans-Serif" font-size="10.00">+ extensionElements</text>
<polyline fill="none" stroke="black" points="68.5,-880.5 190.5,-880.5 "/>
<text text-anchor="start" x="76.5" y="-868.5" font-family="Helvetica,sans-Serif" font-size="10.00">+ BaseElement()</text>
<text text-anchor="start" x="76.5" y="-857.5" font-family="Helvetica,sans-Serif" font-size="10.00">+ ~BaseElement()</text>
<text text-anchor="start" x="76.5" y="-846.5" font-family="Helvetica,sans-Serif" font-size="10.00">+ is()</text>
<text text-anchor="start" x="76.5" y="-835.5" font-family="Helvetica,sans-Serif" font-size="10.00">+ is()</text>
<text text-anchor="start" x="76.5" y="-824.5" font-family="Helvetica,sans-Serif" font-size="10.00">+ get()</text>
<text text-anchor="start" x="76.5" y="-813.5" font-family="Helvetica,sans-Serif" font-size="10.00">+ get()</text>
<text text-anchor="start" x="76.5" y="-802.5" font-family="Helvetica,sans-Serif" font-size="10.00">+ represents()</text>
<text text-anchor="start" x="76.5" y="-791.5" font-family="Helvetica,sans-Serif" font-size="10.00">+ represents()</text>
<text text-anchor="start" x="76.5" y="-780.5" font-family="Helvetica,sans-Serif" font-size="10.00">+ as()</text>
<text text-anchor="start" x="76.5" y="-769.5" font-family="Helvetica,sans-Serif" font-size="10.00">+ as()</text>
</a>
</g>
</g>
<!-- Node6&#45;&gt;Node5 -->
<g id="edge5" class="edge">
<title>Node6&#45;&gt;Node5</title>
<path fill="none" stroke="midnightblue" d="M129.5,-752.12C129.5,-743.1 129.5,-734.18 129.5,-725.75"/>
<polygon fill="none" stroke="midnightblue" points="126,-752.35 129.5,-762.35 133,-752.35 126,-752.35"/>
</g>
<!-- Node7&#45;&gt;Node1 -->
<g id="edge6" class="edge">
<title>Node7&#45;&gt;Node1</title>
<path fill="none" stroke="midnightblue" d="M190.63,-327.27C181.05,-288.18 168.68,-240.88 155.5,-199 151.75,-187.08 147.11,-174.21 142.79,-162.83"/>
<polygon fill="none" stroke="midnightblue" points="187.23,-328.14 193,-337.03 194.04,-326.48 187.23,-328.14"/>
</g>
</g>
</svg>
