<?xml version="1.0" encoding="UTF-8" standalone="no"?>
<!DOCTYPE svg PUBLIC "-//W3C//DTD SVG 1.1//EN"
 "http://www.w3.org/Graphics/SVG/1.1/DTD/svg11.dtd">
<!-- Generated by graphviz version 2.43.0 (0)
 -->
<!-- Title: XML::bpmn::globalUserTask Pages: 1 -->
<svg width="181pt" height="1107pt"
 viewBox="0.00 0.00 181.00 1107.00" xmlns="http://www.w3.org/2000/svg" xmlns:xlink="http://www.w3.org/1999/xlink">
<g id="graph0" class="graph" transform="scale(1 1) rotate(0) translate(4 1103)">
<title>XML::bpmn::globalUserTask</title>
<!-- Node1 -->
<g id="Node000001" class="node">
<title>Node1</title>
<g id="a_Node000001"><a xlink:title=" ">
<polygon fill="#999999" stroke="transparent" points="159.5,-49 13.5,-49 13.5,0 159.5,0 159.5,-49"/>
<text text-anchor="start" x="18.5" y="-36.5" font-family="Helvetica,sans-Serif" font-size="10.00">XML::bpmn::globalUserTask</text>
<text text-anchor="start" x="28" y="-21.5" font-family="Helvetica,sans-Serif" font-size="10.00">+</text>
<text text-anchor="start" x="51.5" y="-21.5" font-family="Helvetica,sans-Serif" font-size="10.00">defaults</text>
<text text-anchor="start" x="28" y="-6.5" font-family="Helvetica,sans-Serif" font-size="10.00">#</text>
<text text-anchor="start" x="51.5" y="-6.5" font-family="Helvetica,sans-Serif" font-size="10.00">globalUserTask()</text>
<polygon fill="#666666" stroke="#666666" points="13.5,-31.5 13.5,-31.5 159.5,-31.5 159.5,-31.5 13.5,-31.5"/>
<polygon fill="#666666" stroke="#666666" points="13.5,-16.5 13.5,-16.5 49.5,-16.5 49.5,-16.5 13.5,-16.5"/>
<polygon fill="#666666" stroke="#666666" points="49.5,-16.5 49.5,-16.5 159.5,-16.5 159.5,-16.5 49.5,-16.5"/>
<polygon fill="none" stroke="#666666" points="13.5,0 13.5,-49 159.5,-49 159.5,0 13.5,0"/>
</a>
</g>
</g>
<!-- Node2 -->
<g id="Node000002" class="node">
<title>Node2</title>
<g id="a_Node000002"><a xlink:href="classXML_1_1bpmn_1_1tGlobalUserTask.html" target="_top" xlink:title=" ">
<polygon fill="white" stroke="transparent" points="162,-164 11,-164 11,-85 162,-85 162,-164"/>
<text text-anchor="start" x="16.5" y="-151.5" font-family="Helvetica,sans-Serif" font-size="10.00">XML::bpmn::tGlobalUserTask</text>
<text text-anchor="start" x="26" y="-136.5" font-family="Helvetica,sans-Serif" font-size="10.00">+</text>
<text text-anchor="start" x="49.5" y="-136.5" font-family="Helvetica,sans-Serif" font-size="10.00">rendering</text>
<text text-anchor="start" x="26" y="-121.5" font-family="Helvetica,sans-Serif" font-size="10.00">+</text>
<text text-anchor="start" x="49.5" y="-121.5" font-family="Helvetica,sans-Serif" font-size="10.00">implementation</text>
<text text-anchor="start" x="26" y="-106.5" font-family="Helvetica,sans-Serif" font-size="10.00">+</text>
<text text-anchor="start" x="49.5" y="-106.5" font-family="Helvetica,sans-Serif" font-size="10.00">defaults</text>
<text text-anchor="start" x="26" y="-91.5" font-family="Helvetica,sans-Serif" font-size="10.00">#</text>
<text text-anchor="start" x="49.5" y="-91.5" font-family="Helvetica,sans-Serif" font-size="10.00">tGlobalUserTask()</text>
<polygon fill="#666666" stroke="#666666" points="11.5,-146.5 11.5,-146.5 162.5,-146.5 162.5,-146.5 11.5,-146.5"/>
<polygon fill="#666666" stroke="#666666" points="11.5,-101.5 11.5,-101.5 47.5,-101.5 47.5,-101.5 11.5,-101.5"/>
<polygon fill="#666666" stroke="#666666" points="47.5,-101.5 47.5,-101.5 162.5,-101.5 162.5,-101.5 47.5,-101.5"/>
<polygon fill="none" stroke="#666666" points="11,-85 11,-164 162,-164 162,-85 11,-85"/>
</a>
</g>
</g>
<!-- Node2&#45;&gt;Node1 -->
<g id="edge1_Node000001_Node000002" class="edge">
<title>Node2&#45;&gt;Node1</title>
<g id="a_edge1_Node000001_Node000002"><a xlink:title=" ">
<path fill="none" stroke="#63b8ff" d="M86.5,-74.72C86.5,-65.75 86.5,-56.78 86.5,-49"/>
<polygon fill="none" stroke="#63b8ff" points="83,-74.77 86.5,-84.77 90,-74.77 83,-74.77"/>
</a>
</g>
</g>
<!-- Node3 -->
<g id="Node000003" class="node">
<title>Node3</title>
<g id="a_Node000003"><a xlink:href="classXML_1_1bpmn_1_1tGlobalTask.html" target="_top" xlink:title=" ">
<polygon fill="white" stroke="transparent" points="150.5,-264 22.5,-264 22.5,-200 150.5,-200 150.5,-264"/>
<text text-anchor="start" x="27.5" y="-252" font-family="Helvetica,sans-Serif" font-size="10.00">XML::bpmn::tGlobalTask</text>
<text text-anchor="start" x="37" y="-237" font-family="Helvetica,sans-Serif" font-size="10.00">+</text>
<text text-anchor="start" x="60.5" y="-237" font-family="Helvetica,sans-Serif" font-size="10.00">resourceRole</text>
<text text-anchor="start" x="37" y="-222" font-family="Helvetica,sans-Serif" font-size="10.00">+</text>
<text text-anchor="start" x="60.5" y="-222" font-family="Helvetica,sans-Serif" font-size="10.00">defaults</text>
<text text-anchor="start" x="37" y="-207" font-family="Helvetica,sans-Serif" font-size="10.00">#</text>
<text text-anchor="start" x="60.5" y="-207" font-family="Helvetica,sans-Serif" font-size="10.00">tGlobalTask()</text>
<polygon fill="#666666" stroke="#666666" points="22.5,-247 22.5,-247 150.5,-247 150.5,-247 22.5,-247"/>
<polygon fill="#666666" stroke="#666666" points="22.5,-217 22.5,-217 58.5,-217 58.5,-217 22.5,-217"/>
<polygon fill="#666666" stroke="#666666" points="58.5,-217 58.5,-217 150.5,-217 150.5,-217 58.5,-217"/>
<polygon fill="none" stroke="#666666" points="22.5,-200 22.5,-264 150.5,-264 150.5,-200 22.5,-200"/>
</a>
</g>
</g>
<!-- Node3&#45;&gt;Node2 -->
<g id="edge2_Node000002_Node000003" class="edge">
<title>Node3&#45;&gt;Node2</title>
<g id="a_edge2_Node000002_Node000003"><a xlink:title=" ">
<path fill="none" stroke="#63b8ff" d="M86.5,-189.89C86.5,-181.44 86.5,-172.58 86.5,-164.22"/>
<polygon fill="none" stroke="#63b8ff" points="83,-189.92 86.5,-199.92 90,-189.92 83,-189.92"/>
</a>
</g>
</g>
<!-- Node4 -->
<g id="Node000004" class="node">
<title>Node4</title>
<g id="a_Node000004"><a xlink:href="classXML_1_1bpmn_1_1tCallableElement.html" target="_top" xlink:title=" ">
<polygon fill="white" stroke="transparent" points="164,-409 9,-409 9,-300 164,-300 164,-409"/>
<text text-anchor="start" x="14.5" y="-396.5" font-family="Helvetica,sans-Serif" font-size="10.00">XML::bpmn::tCallableElement</text>
<text text-anchor="start" x="19.5" y="-381.5" font-family="Helvetica,sans-Serif" font-size="10.00">+</text>
<text text-anchor="start" x="38.5" y="-381.5" font-family="Helvetica,sans-Serif" font-size="10.00">supportedInterfaceRef</text>
<text text-anchor="start" x="19.5" y="-366.5" font-family="Helvetica,sans-Serif" font-size="10.00">+</text>
<text text-anchor="start" x="38.5" y="-366.5" font-family="Helvetica,sans-Serif" font-size="10.00">ioSpecification</text>
<text text-anchor="start" x="19.5" y="-351.5" font-family="Helvetica,sans-Serif" font-size="10.00">+</text>
<text text-anchor="start" x="38.5" y="-351.5" font-family="Helvetica,sans-Serif" font-size="10.00">ioBinding</text>
<text text-anchor="start" x="19.5" y="-336.5" font-family="Helvetica,sans-Serif" font-size="10.00">+</text>
<text text-anchor="start" x="38.5" y="-336.5" font-family="Helvetica,sans-Serif" font-size="10.00">name</text>
<text text-anchor="start" x="19.5" y="-321.5" font-family="Helvetica,sans-Serif" font-size="10.00">+</text>
<text text-anchor="start" x="38.5" y="-321.5" font-family="Helvetica,sans-Serif" font-size="10.00">defaults</text>
<text text-anchor="start" x="19.5" y="-306.5" font-family="Helvetica,sans-Serif" font-size="10.00">#</text>
<text text-anchor="start" x="38.5" y="-306.5" font-family="Helvetica,sans-Serif" font-size="10.00">tCallableElement()</text>
<polygon fill="#666666" stroke="#666666" points="9.5,-391.5 9.5,-391.5 164.5,-391.5 164.5,-391.5 9.5,-391.5"/>
<polygon fill="#666666" stroke="#666666" points="9.5,-316.5 9.5,-316.5 36.5,-316.5 36.5,-316.5 9.5,-316.5"/>
<polygon fill="#666666" stroke="#666666" points="36.5,-316.5 36.5,-316.5 164.5,-316.5 164.5,-316.5 36.5,-316.5"/>
<polygon fill="none" stroke="#666666" points="9,-300 9,-409 164,-409 164,-300 9,-300"/>
</a>
</g>
</g>
<!-- Node4&#45;&gt;Node3 -->
<g id="edge3_Node000003_Node000004" class="edge">
<title>Node4&#45;&gt;Node3</title>
<g id="a_edge3_Node000003_Node000004"><a xlink:title=" ">
<path fill="none" stroke="#63b8ff" d="M86.5,-289.9C86.5,-281 86.5,-272.2 86.5,-264.28"/>
<polygon fill="none" stroke="#63b8ff" points="83,-289.95 86.5,-299.95 90,-289.95 83,-289.95"/>
</a>
</g>
</g>
<!-- Node5 -->
<g id="Node000005" class="node">
<title>Node5</title>
<g id="a_Node000005"><a xlink:href="classXML_1_1bpmn_1_1tRootElement.html" target="_top" xlink:title=" ">
<polygon fill="white" stroke="transparent" points="155.5,-494 17.5,-494 17.5,-445 155.5,-445 155.5,-494"/>
<text text-anchor="start" x="22.5" y="-481.5" font-family="Helvetica,sans-Serif" font-size="10.00">XML::bpmn::tRootElement</text>
<text text-anchor="start" x="32" y="-466.5" font-family="Helvetica,sans-Serif" font-size="10.00">+</text>
<text text-anchor="start" x="55.5" y="-466.5" font-family="Helvetica,sans-Serif" font-size="10.00">defaults</text>
<text text-anchor="start" x="32" y="-451.5" font-family="Helvetica,sans-Serif" font-size="10.00">#</text>
<text text-anchor="start" x="55.5" y="-451.5" font-family="Helvetica,sans-Serif" font-size="10.00">tRootElement()</text>
<polygon fill="#666666" stroke="#666666" points="17.5,-476.5 17.5,-476.5 155.5,-476.5 155.5,-476.5 17.5,-476.5"/>
<polygon fill="#666666" stroke="#666666" points="17.5,-461.5 17.5,-461.5 53.5,-461.5 53.5,-461.5 17.5,-461.5"/>
<polygon fill="#666666" stroke="#666666" points="53.5,-461.5 53.5,-461.5 155.5,-461.5 155.5,-461.5 53.5,-461.5"/>
<polygon fill="none" stroke="#666666" points="17.5,-445 17.5,-494 155.5,-494 155.5,-445 17.5,-445"/>
</a>
</g>
</g>
<!-- Node5&#45;&gt;Node4 -->
<g id="edge4_Node000004_Node000005" class="edge">
<title>Node5&#45;&gt;Node4</title>
<g id="a_edge4_Node000004_Node000005"><a xlink:title=" ">
<path fill="none" stroke="#63b8ff" d="M86.5,-434.79C86.5,-426.79 86.5,-418.06 86.5,-409.41"/>
<polygon fill="none" stroke="#63b8ff" points="83,-434.81 86.5,-444.81 90,-434.81 83,-434.81"/>
</a>
</g>
</g>
<!-- Node6 -->
<g id="Node000006" class="node">
<title>Node6</title>
<g id="a_Node000006"><a xlink:href="classXML_1_1bpmn_1_1tBaseElement.html" target="_top" xlink:title=" ">
<polygon fill="white" stroke="transparent" points="156.5,-624 16.5,-624 16.5,-530 156.5,-530 156.5,-624"/>
<text text-anchor="start" x="21.5" y="-612" font-family="Helvetica,sans-Serif" font-size="10.00">XML::bpmn::tBaseElement</text>
<text text-anchor="start" x="26.5" y="-597" font-family="Helvetica,sans-Serif" font-size="10.00">+</text>
<text text-anchor="start" x="45.5" y="-597" font-family="Helvetica,sans-Serif" font-size="10.00">documentation</text>
<text text-anchor="start" x="26.5" y="-582" font-family="Helvetica,sans-Serif" font-size="10.00">+</text>
<text text-anchor="start" x="45.5" y="-582" font-family="Helvetica,sans-Serif" font-size="10.00">extensionElements</text>
<text text-anchor="start" x="26.5" y="-567" font-family="Helvetica,sans-Serif" font-size="10.00">+</text>
<text text-anchor="start" x="45.5" y="-567" font-family="Helvetica,sans-Serif" font-size="10.00">id</text>
<text text-anchor="start" x="26.5" y="-552" font-family="Helvetica,sans-Serif" font-size="10.00">+</text>
<text text-anchor="start" x="45.5" y="-552" font-family="Helvetica,sans-Serif" font-size="10.00">defaults</text>
<text text-anchor="start" x="26.5" y="-537" font-family="Helvetica,sans-Serif" font-size="10.00">#</text>
<text text-anchor="start" x="45.5" y="-537" font-family="Helvetica,sans-Serif" font-size="10.00">tBaseElement()</text>
<polygon fill="#666666" stroke="#666666" points="16.5,-607 16.5,-607 156.5,-607 156.5,-607 16.5,-607"/>
<polygon fill="#666666" stroke="#666666" points="16.5,-547 16.5,-547 43.5,-547 43.5,-547 16.5,-547"/>
<polygon fill="#666666" stroke="#666666" points="43.5,-547 43.5,-547 156.5,-547 156.5,-547 43.5,-547"/>
<polygon fill="none" stroke="#666666" points="16.5,-530 16.5,-624 156.5,-624 156.5,-530 16.5,-530"/>
</a>
</g>
</g>
<!-- Node6&#45;&gt;Node5 -->
<g id="edge5_Node000005_Node000006" class="edge">
<title>Node6&#45;&gt;Node5</title>
<g id="a_edge5_Node000005_Node000006"><a xlink:title=" ">
<path fill="none" stroke="#63b8ff" d="M86.5,-519.59C86.5,-510.62 86.5,-501.79 86.5,-494.15"/>
<polygon fill="none" stroke="#63b8ff" points="83,-519.73 86.5,-529.73 90,-519.73 83,-519.73"/>
</a>
</g>
</g>
<!-- Node7 -->
<g id="Node000007" class="node">
<title>Node7</title>
<g id="a_Node000007"><a xlink:href="classXML_1_1XMLObject.html" target="_top" xlink:title="A class representing a node in an XML&#45;tree.">
<polygon fill="white" stroke="transparent" points="173,-1099 0,-1099 0,-660 173,-660 173,-1099"/>
<text text-anchor="start" x="47" y="-1086.5" font-family="Helvetica,sans-Serif" font-size="10.00">XML::XMLObject</text>
<text text-anchor="start" x="4.5" y="-1071.5" font-family="Helvetica,sans-Serif" font-size="10.00">+</text>
<text text-anchor="start" x="17.5" y="-1071.5" font-family="Helvetica,sans-Serif" font-size="10.00">xmlns</text>
<text text-anchor="start" x="4.5" y="-1056.5" font-family="Helvetica,sans-Serif" font-size="10.00">+</text>
<text text-anchor="start" x="17.5" y="-1056.5" font-family="Helvetica,sans-Serif" font-size="10.00">className</text>
<text text-anchor="start" x="4.5" y="-1041.5" font-family="Helvetica,sans-Serif" font-size="10.00">+</text>
<text text-anchor="start" x="17.5" y="-1041.5" font-family="Helvetica,sans-Serif" font-size="10.00">prefix</text>
<text text-anchor="start" x="4.5" y="-1026.5" font-family="Helvetica,sans-Serif" font-size="10.00">+</text>
<text text-anchor="start" x="17.5" y="-1026.5" font-family="Helvetica,sans-Serif" font-size="10.00">elementName</text>
<text text-anchor="start" x="4.5" y="-1011.5" font-family="Helvetica,sans-Serif" font-size="10.00">+</text>
<text text-anchor="start" x="17.5" y="-1011.5" font-family="Helvetica,sans-Serif" font-size="10.00">textContent</text>
<text text-anchor="start" x="4.5" y="-996.5" font-family="Helvetica,sans-Serif" font-size="10.00">+</text>
<text text-anchor="start" x="17.5" y="-996.5" font-family="Helvetica,sans-Serif" font-size="10.00">children</text>
<text text-anchor="start" x="4.5" y="-981.5" font-family="Helvetica,sans-Serif" font-size="10.00">+</text>
<text text-anchor="start" x="17.5" y="-981.5" font-family="Helvetica,sans-Serif" font-size="10.00">attributes</text>
<text text-anchor="start" x="4.5" y="-966.5" font-family="Helvetica,sans-Serif" font-size="10.00">+</text>
<text text-anchor="start" x="17.5" y="-966.5" font-family="Helvetica,sans-Serif" font-size="10.00">defaults</text>
<text text-anchor="start" x="4.5" y="-951.5" font-family="Helvetica,sans-Serif" font-size="10.00">#</text>
<text text-anchor="start" x="17.5" y="-951.5" font-family="Helvetica,sans-Serif" font-size="10.00">factory</text>
<text text-anchor="start" x="4.5" y="-936.5" font-family="Helvetica,sans-Serif" font-size="10.00">+</text>
<text text-anchor="start" x="17.5" y="-936.5" font-family="Helvetica,sans-Serif" font-size="10.00">~XMLObject()</text>
<text text-anchor="start" x="4.5" y="-921.5" font-family="Helvetica,sans-Serif" font-size="10.00">+</text>
<text text-anchor="start" x="17.5" y="-921.5" font-family="Helvetica,sans-Serif" font-size="10.00">is()</text>
<text text-anchor="start" x="4.5" y="-906.5" font-family="Helvetica,sans-Serif" font-size="10.00">+</text>
<text text-anchor="start" x="17.5" y="-906.5" font-family="Helvetica,sans-Serif" font-size="10.00">get()</text>
<text text-anchor="start" x="4.5" y="-891.5" font-family="Helvetica,sans-Serif" font-size="10.00">+</text>
<text text-anchor="start" x="17.5" y="-891.5" font-family="Helvetica,sans-Serif" font-size="10.00">find()</text>
<text text-anchor="start" x="4.5" y="-876.5" font-family="Helvetica,sans-Serif" font-size="10.00">+</text>
<text text-anchor="start" x="17.5" y="-876.5" font-family="Helvetica,sans-Serif" font-size="10.00">stringify()</text>
<text text-anchor="start" x="4.5" y="-861.5" font-family="Helvetica,sans-Serif" font-size="10.00">+</text>
<text text-anchor="start" x="17.5" y="-861.5" font-family="Helvetica,sans-Serif" font-size="10.00">format()</text>
<text text-anchor="start" x="4.5" y="-846.5" font-family="Helvetica,sans-Serif" font-size="10.00">+</text>
<text text-anchor="start" x="17.5" y="-846.5" font-family="Helvetica,sans-Serif" font-size="10.00">getRequiredChild()</text>
<text text-anchor="start" x="4.5" y="-831.5" font-family="Helvetica,sans-Serif" font-size="10.00">+</text>
<text text-anchor="start" x="17.5" y="-831.5" font-family="Helvetica,sans-Serif" font-size="10.00">getOptionalChild()</text>
<text text-anchor="start" x="4.5" y="-816.5" font-family="Helvetica,sans-Serif" font-size="10.00">+</text>
<text text-anchor="start" x="17.5" y="-816.5" font-family="Helvetica,sans-Serif" font-size="10.00">getChildren()</text>
<text text-anchor="start" x="4.5" y="-801.5" font-family="Helvetica,sans-Serif" font-size="10.00">+</text>
<text text-anchor="start" x="17.5" y="-801.5" font-family="Helvetica,sans-Serif" font-size="10.00">getRequiredChildByName()</text>
<text text-anchor="start" x="4.5" y="-786.5" font-family="Helvetica,sans-Serif" font-size="10.00">+</text>
<text text-anchor="start" x="17.5" y="-786.5" font-family="Helvetica,sans-Serif" font-size="10.00">getOptionalChildByName()</text>
<text text-anchor="start" x="4.5" y="-771.5" font-family="Helvetica,sans-Serif" font-size="10.00">+</text>
<text text-anchor="start" x="17.5" y="-771.5" font-family="Helvetica,sans-Serif" font-size="10.00">getChildrenByName()</text>
<text text-anchor="start" x="4.5" y="-756.5" font-family="Helvetica,sans-Serif" font-size="10.00">+</text>
<text text-anchor="start" x="17.5" y="-756.5" font-family="Helvetica,sans-Serif" font-size="10.00">getRequiredAttributeByName()</text>
<text text-anchor="start" x="4.5" y="-741.5" font-family="Helvetica,sans-Serif" font-size="10.00">+</text>
<text text-anchor="start" x="17.5" y="-741.5" font-family="Helvetica,sans-Serif" font-size="10.00">getOptionalAttributeByName()</text>
<text text-anchor="start" x="4.5" y="-726.5" font-family="Helvetica,sans-Serif" font-size="10.00">+</text>
<text text-anchor="start" x="17.5" y="-726.5" font-family="Helvetica,sans-Serif" font-size="10.00">createFromStream()</text>
<text text-anchor="start" x="4.5" y="-711.5" font-family="Helvetica,sans-Serif" font-size="10.00">+</text>
<text text-anchor="start" x="17.5" y="-711.5" font-family="Helvetica,sans-Serif" font-size="10.00">createFromString()</text>
<text text-anchor="start" x="4.5" y="-696.5" font-family="Helvetica,sans-Serif" font-size="10.00">+</text>
<text text-anchor="start" x="17.5" y="-696.5" font-family="Helvetica,sans-Serif" font-size="10.00">createFromFile()</text>
<text text-anchor="start" x="4.5" y="-681.5" font-family="Helvetica,sans-Serif" font-size="10.00">#</text>
<text text-anchor="start" x="17.5" y="-681.5" font-family="Helvetica,sans-Serif" font-size="10.00">XMLObject()</text>
<text text-anchor="start" x="4.5" y="-666.5" font-family="Helvetica,sans-Serif" font-size="10.00">#</text>
<text text-anchor="start" x="17.5" y="-666.5" font-family="Helvetica,sans-Serif" font-size="10.00">createObject()</text>
<polygon fill="#666666" stroke="#666666" points="0.5,-1081.5 0.5,-1081.5 173.5,-1081.5 173.5,-1081.5 0.5,-1081.5"/>
<polygon fill="#666666" stroke="#666666" points="0.5,-946.5 0.5,-946.5 15.5,-946.5 15.5,-946.5 0.5,-946.5"/>
<polygon fill="#666666" stroke="#666666" points="15.5,-946.5 15.5,-946.5 173.5,-946.5 173.5,-946.5 15.5,-946.5"/>
<polygon fill="none" stroke="#666666" points="0,-660 0,-1099 173,-1099 173,-660 0,-660"/>
</a>
</g>
</g>
<!-- Node7&#45;&gt;Node6 -->
<g id="edge6_Node000006_Node000007" class="edge">
<title>Node7&#45;&gt;Node6</title>
<g id="a_edge6_Node000006_Node000007"><a xlink:title=" ">
<path fill="none" stroke="#63b8ff" d="M86.5,-649.65C86.5,-640.56 86.5,-632 86.5,-624.18"/>
<polygon fill="none" stroke="#63b8ff" points="83,-649.72 86.5,-659.72 90,-649.72 83,-649.72"/>
</a>
</g>
</g>
</g>
</svg>
