<?xml version="1.0" encoding="UTF-8" standalone="no"?>
<!DOCTYPE svg PUBLIC "-//W3C//DTD SVG 1.1//EN"
 "http://www.w3.org/Graphics/SVG/1.1/DTD/svg11.dtd">
<!-- Generated by graphviz version 2.43.0 (0)
 -->
<!-- Title: BPMN::EventBasedGateway Pages: 1 -->
<svg width="161pt" height="651pt"
 viewBox="0.00 0.00 161.00 651.00" xmlns="http://www.w3.org/2000/svg" xmlns:xlink="http://www.w3.org/1999/xlink">
<g id="graph0" class="graph" transform="scale(1 1) rotate(0) translate(4 647)">
<title>BPMN::EventBasedGateway</title>
<!-- Node1 -->
<g id="node1" class="node">
<title>Node1</title>
<g id="a_node1"><a xlink:title=" ">
<polygon fill="#bfbfbf" stroke="black" points="0,-0.5 0,-57.5 153,-57.5 153,-0.5 0,-0.5"/>
<text text-anchor="middle" x="76.5" y="-45.5" font-family="Helvetica,sans-Serif" font-size="10.00">BPMN::EventBasedGateway</text>
<polyline fill="none" stroke="black" points="0,-38.5 153,-38.5 "/>
<text text-anchor="start" x="8" y="-26.5" font-family="Helvetica,sans-Serif" font-size="10.00">+ element</text>
<polyline fill="none" stroke="black" points="0,-19.5 153,-19.5 "/>
<text text-anchor="start" x="8" y="-7.5" font-family="Helvetica,sans-Serif" font-size="10.00">+ EventBasedGateway()</text>
</a>
</g>
</g>
<!-- Node2 -->
<g id="node2" class="node">
<title>Node2</title>
<g id="a_node2"><a xlink:href="classBPMN_1_1Gateway.html" target="_top" xlink:title=" ">
<polygon fill="none" stroke="black" points="29,-94.5 29,-151.5 124,-151.5 124,-94.5 29,-94.5"/>
<text text-anchor="middle" x="76.5" y="-139.5" font-family="Helvetica,sans-Serif" font-size="10.00">BPMN::Gateway</text>
<polyline fill="none" stroke="black" points="29,-132.5 124,-132.5 "/>
<text text-anchor="start" x="37" y="-120.5" font-family="Helvetica,sans-Serif" font-size="10.00">+ element</text>
<polyline fill="none" stroke="black" points="29,-113.5 124,-113.5 "/>
<text text-anchor="start" x="37" y="-101.5" font-family="Helvetica,sans-Serif" font-size="10.00">+ Gateway()</text>
</a>
</g>
</g>
<!-- Node2&#45;&gt;Node1 -->
<g id="edge1" class="edge">
<title>Node2&#45;&gt;Node1</title>
<path fill="none" stroke="midnightblue" d="M76.5,-84.21C76.5,-75.29 76.5,-65.95 76.5,-57.58"/>
<polygon fill="none" stroke="midnightblue" points="73,-84.4 76.5,-94.4 80,-84.4 73,-84.4"/>
</g>
<!-- Node3 -->
<g id="node3" class="node">
<title>Node3</title>
<g id="a_node3"><a xlink:href="classBPMN_1_1FlowNode.html" target="_top" xlink:title="Represents a flow node in a BPMN process.">
<polygon fill="none" stroke="black" points="26,-188.5 26,-267.5 127,-267.5 127,-188.5 26,-188.5"/>
<text text-anchor="middle" x="76.5" y="-255.5" font-family="Helvetica,sans-Serif" font-size="10.00">BPMN::FlowNode</text>
<polyline fill="none" stroke="black" points="26,-248.5 127,-248.5 "/>
<text text-anchor="start" x="34" y="-236.5" font-family="Helvetica,sans-Serif" font-size="10.00">+ element</text>
<text text-anchor="start" x="34" y="-225.5" font-family="Helvetica,sans-Serif" font-size="10.00">+ incoming</text>
<text text-anchor="start" x="34" y="-214.5" font-family="Helvetica,sans-Serif" font-size="10.00">+ outgoing</text>
<polyline fill="none" stroke="black" points="26,-207.5 127,-207.5 "/>
<text text-anchor="start" x="34" y="-195.5" font-family="Helvetica,sans-Serif" font-size="10.00">+ FlowNode()</text>
</a>
</g>
</g>
<!-- Node3&#45;&gt;Node2 -->
<g id="edge2" class="edge">
<title>Node3&#45;&gt;Node2</title>
<path fill="none" stroke="midnightblue" d="M76.5,-178.16C76.5,-169.04 76.5,-159.81 76.5,-151.61"/>
<polygon fill="none" stroke="midnightblue" points="73,-178.35 76.5,-188.35 80,-178.35 73,-178.35"/>
</g>
<!-- Node4 -->
<g id="node4" class="node">
<title>Node4</title>
<g id="a_node4"><a xlink:href="classBPMN_1_1ChildNode.html" target="_top" xlink:title="Represents a node in a BPMN process that has a parent.">
<polygon fill="none" stroke="black" points="25.5,-304.5 25.5,-361.5 127.5,-361.5 127.5,-304.5 25.5,-304.5"/>
<text text-anchor="middle" x="76.5" y="-349.5" font-family="Helvetica,sans-Serif" font-size="10.00">BPMN::ChildNode</text>
<polyline fill="none" stroke="black" points="25.5,-342.5 127.5,-342.5 "/>
<text text-anchor="start" x="33.5" y="-330.5" font-family="Helvetica,sans-Serif" font-size="10.00">+ parent</text>
<polyline fill="none" stroke="black" points="25.5,-323.5 127.5,-323.5 "/>
<text text-anchor="start" x="33.5" y="-311.5" font-family="Helvetica,sans-Serif" font-size="10.00">+ ChildNode()</text>
</a>
</g>
</g>
<!-- Node4&#45;&gt;Node3 -->
<g id="edge3" class="edge">
<title>Node4&#45;&gt;Node3</title>
<path fill="none" stroke="midnightblue" d="M76.5,-294.16C76.5,-285.47 76.5,-276.23 76.5,-267.52"/>
<polygon fill="none" stroke="midnightblue" points="73,-294.4 76.5,-304.4 80,-294.4 73,-294.4"/>
</g>
<!-- Node5 -->
<g id="node5" class="node">
<title>Node5</title>
<g id="a_node5"><a xlink:href="classBPMN_1_1Node.html" target="_top" xlink:title="Represents a node in a BPMN process.">
<polygon fill="none" stroke="black" points="15.5,-398.5 15.5,-642.5 137.5,-642.5 137.5,-398.5 15.5,-398.5"/>
<text text-anchor="middle" x="76.5" y="-630.5" font-family="Helvetica,sans-Serif" font-size="10.00">BPMN::Node</text>
<polyline fill="none" stroke="black" points="15.5,-623.5 137.5,-623.5 "/>
<text text-anchor="start" x="23.5" y="-611.5" font-family="Helvetica,sans-Serif" font-size="10.00">+ id</text>
<text text-anchor="start" x="23.5" y="-600.5" font-family="Helvetica,sans-Serif" font-size="10.00">+ receiving</text>
<text text-anchor="start" x="23.5" y="-589.5" font-family="Helvetica,sans-Serif" font-size="10.00">+ sending</text>
<text text-anchor="start" x="23.5" y="-578.5" font-family="Helvetica,sans-Serif" font-size="10.00">+ element</text>
<text text-anchor="start" x="23.5" y="-567.5" font-family="Helvetica,sans-Serif" font-size="10.00">+ extensionElements</text>
<polyline fill="none" stroke="black" points="15.5,-560.5 137.5,-560.5 "/>
<text text-anchor="start" x="23.5" y="-548.5" font-family="Helvetica,sans-Serif" font-size="10.00">+ Node()</text>
<text text-anchor="start" x="23.5" y="-537.5" font-family="Helvetica,sans-Serif" font-size="10.00">+ ~Node()</text>
<text text-anchor="start" x="23.5" y="-526.5" font-family="Helvetica,sans-Serif" font-size="10.00">+ is()</text>
<text text-anchor="start" x="23.5" y="-515.5" font-family="Helvetica,sans-Serif" font-size="10.00">+ is()</text>
<text text-anchor="start" x="23.5" y="-504.5" font-family="Helvetica,sans-Serif" font-size="10.00">+ get()</text>
<text text-anchor="start" x="23.5" y="-493.5" font-family="Helvetica,sans-Serif" font-size="10.00">+ get()</text>
<text text-anchor="start" x="23.5" y="-482.5" font-family="Helvetica,sans-Serif" font-size="10.00">+ represents()</text>
<text text-anchor="start" x="23.5" y="-471.5" font-family="Helvetica,sans-Serif" font-size="10.00">+ represents()</text>
<text text-anchor="start" x="23.5" y="-460.5" font-family="Helvetica,sans-Serif" font-size="10.00">+ as()</text>
<text text-anchor="start" x="23.5" y="-449.5" font-family="Helvetica,sans-Serif" font-size="10.00">+ as()</text>
<text text-anchor="start" x="23.5" y="-438.5" font-family="Helvetica,sans-Serif" font-size="10.00">+ find()</text>
<text text-anchor="start" x="23.5" y="-427.5" font-family="Helvetica,sans-Serif" font-size="10.00">+ find()</text>
<text text-anchor="start" x="23.5" y="-416.5" font-family="Helvetica,sans-Serif" font-size="10.00">+ find_all()</text>
<text text-anchor="start" x="23.5" y="-405.5" font-family="Helvetica,sans-Serif" font-size="10.00">+ find_all()</text>
</a>
</g>
</g>
<!-- Node5&#45;&gt;Node4 -->
<g id="edge4" class="edge">
<title>Node5&#45;&gt;Node4</title>
<path fill="none" stroke="midnightblue" d="M76.5,-388.34C76.5,-378.53 76.5,-369.42 76.5,-361.57"/>
<polygon fill="none" stroke="midnightblue" points="73,-388.36 76.5,-398.36 80,-388.36 73,-388.36"/>
</g>
</g>
</svg>
