<?xml version="1.0" encoding="UTF-8" standalone="no"?>
<!DOCTYPE svg PUBLIC "-//W3C//DTD SVG 1.1//EN"
 "http://www.w3.org/Graphics/SVG/1.1/DTD/svg11.dtd">
<!-- Generated by graphviz version 2.43.0 (0)
 -->
<!-- Title: XML::bpmn::tGroup Pages: 1 -->
<svg width="148pt" height="717pt"
 viewBox="0.00 0.00 148.00 717.00" xmlns="http://www.w3.org/2000/svg" xmlns:xlink="http://www.w3.org/1999/xlink">
<g id="graph0" class="graph" transform="scale(1 1) rotate(0) translate(4 713)">
<title>XML::bpmn::tGroup</title>
<!-- Node1 -->
<g id="Node000001" class="node">
<title>Node1</title>
<g id="a_Node000001"><a xlink:title=" ">
<polygon fill="#999999" stroke="transparent" points="124,-64 16,-64 16,0 124,0 124,-64"/>
<text text-anchor="start" x="23" y="-52" font-family="Helvetica,sans-Serif" font-size="10.00">XML::bpmn::tGroup</text>
<text text-anchor="start" x="20" y="-37" font-family="Helvetica,sans-Serif" font-size="10.00">+</text>
<text text-anchor="start" x="33" y="-37" font-family="Helvetica,sans-Serif" font-size="10.00">categoryValueRef</text>
<text text-anchor="start" x="20" y="-22" font-family="Helvetica,sans-Serif" font-size="10.00">+</text>
<text text-anchor="start" x="33" y="-22" font-family="Helvetica,sans-Serif" font-size="10.00">defaults</text>
<text text-anchor="start" x="20" y="-7" font-family="Helvetica,sans-Serif" font-size="10.00">#</text>
<text text-anchor="start" x="33" y="-7" font-family="Helvetica,sans-Serif" font-size="10.00">tGroup()</text>
<polygon fill="#666666" stroke="#666666" points="16,-47 16,-47 124,-47 124,-47 16,-47"/>
<polygon fill="#666666" stroke="#666666" points="16,-17 16,-17 31,-17 31,-17 16,-17"/>
<polygon fill="#666666" stroke="#666666" points="31,-17 31,-17 124,-17 124,-17 31,-17"/>
<polygon fill="none" stroke="#666666" points="16,0 16,-64 124,-64 124,0 16,0"/>
</a>
</g>
</g>
<!-- Node2 -->
<g id="Node000002" class="node">
<title>Node2</title>
<g id="a_Node000002"><a xlink:href="classXML_1_1bpmn_1_1tArtifact.html" target="_top" xlink:title=" ">
<polygon fill="white" stroke="transparent" points="125.5,-149 14.5,-149 14.5,-100 125.5,-100 125.5,-149"/>
<text text-anchor="start" x="20" y="-136.5" font-family="Helvetica,sans-Serif" font-size="10.00">XML::bpmn::tArtifact</text>
<text text-anchor="start" x="29.5" y="-121.5" font-family="Helvetica,sans-Serif" font-size="10.00">+</text>
<text text-anchor="start" x="53" y="-121.5" font-family="Helvetica,sans-Serif" font-size="10.00">defaults</text>
<text text-anchor="start" x="29.5" y="-106.5" font-family="Helvetica,sans-Serif" font-size="10.00">#</text>
<text text-anchor="start" x="53" y="-106.5" font-family="Helvetica,sans-Serif" font-size="10.00">tArtifact()</text>
<polygon fill="#666666" stroke="#666666" points="15,-131.5 15,-131.5 126,-131.5 126,-131.5 15,-131.5"/>
<polygon fill="#666666" stroke="#666666" points="15,-116.5 15,-116.5 51,-116.5 51,-116.5 15,-116.5"/>
<polygon fill="#666666" stroke="#666666" points="51,-116.5 51,-116.5 126,-116.5 126,-116.5 51,-116.5"/>
<polygon fill="none" stroke="#666666" points="14.5,-100 14.5,-149 125.5,-149 125.5,-100 14.5,-100"/>
</a>
</g>
</g>
<!-- Node2&#45;&gt;Node1 -->
<g id="edge1_Node000001_Node000002" class="edge">
<title>Node2&#45;&gt;Node1</title>
<g id="a_edge1_Node000001_Node000002"><a xlink:title=" ">
<path fill="none" stroke="#63b8ff" d="M70,-89.54C70,-81.2 70,-72.31 70,-64.11"/>
<polygon fill="none" stroke="#63b8ff" points="66.5,-89.72 70,-99.72 73.5,-89.72 66.5,-89.72"/>
</a>
</g>
</g>
<!-- Node3 -->
<g id="Node000003" class="node">
<title>Node3</title>
<g id="a_Node000003"><a xlink:href="classXML_1_1bpmn_1_1tBaseElement.html" target="_top" xlink:title=" ">
<polygon fill="white" stroke="transparent" points="140,-279 0,-279 0,-185 140,-185 140,-279"/>
<text text-anchor="start" x="5" y="-267" font-family="Helvetica,sans-Serif" font-size="10.00">XML::bpmn::tBaseElement</text>
<text text-anchor="start" x="10" y="-252" font-family="Helvetica,sans-Serif" font-size="10.00">+</text>
<text text-anchor="start" x="29" y="-252" font-family="Helvetica,sans-Serif" font-size="10.00">documentation</text>
<text text-anchor="start" x="10" y="-237" font-family="Helvetica,sans-Serif" font-size="10.00">+</text>
<text text-anchor="start" x="29" y="-237" font-family="Helvetica,sans-Serif" font-size="10.00">extensionElements</text>
<text text-anchor="start" x="10" y="-222" font-family="Helvetica,sans-Serif" font-size="10.00">+</text>
<text text-anchor="start" x="29" y="-222" font-family="Helvetica,sans-Serif" font-size="10.00">id</text>
<text text-anchor="start" x="10" y="-207" font-family="Helvetica,sans-Serif" font-size="10.00">+</text>
<text text-anchor="start" x="29" y="-207" font-family="Helvetica,sans-Serif" font-size="10.00">defaults</text>
<text text-anchor="start" x="10" y="-192" font-family="Helvetica,sans-Serif" font-size="10.00">#</text>
<text text-anchor="start" x="29" y="-192" font-family="Helvetica,sans-Serif" font-size="10.00">tBaseElement()</text>
<polygon fill="#666666" stroke="#666666" points="0,-262 0,-262 140,-262 140,-262 0,-262"/>
<polygon fill="#666666" stroke="#666666" points="0,-202 0,-202 27,-202 27,-202 0,-202"/>
<polygon fill="#666666" stroke="#666666" points="27,-202 27,-202 140,-202 140,-202 27,-202"/>
<polygon fill="none" stroke="#666666" points="0,-185 0,-279 140,-279 140,-185 0,-185"/>
</a>
</g>
</g>
<!-- Node3&#45;&gt;Node2 -->
<g id="edge2_Node000002_Node000003" class="edge">
<title>Node3&#45;&gt;Node2</title>
<g id="a_edge2_Node000002_Node000003"><a xlink:title=" ">
<path fill="none" stroke="#63b8ff" d="M70,-174.59C70,-165.62 70,-156.79 70,-149.15"/>
<polygon fill="none" stroke="#63b8ff" points="66.5,-174.73 70,-184.73 73.5,-174.73 66.5,-174.73"/>
</a>
</g>
</g>
<!-- Node4 -->
<g id="Node000004" class="node">
<title>Node4</title>
<g id="a_Node000004"><a xlink:href="classXML_1_1XMLObject.html" target="_top" xlink:title="A class representing a node in an XML&#45;tree.">
<polygon fill="white" stroke="transparent" points="130,-709 10,-709 10,-315 130,-315 130,-709"/>
<text text-anchor="start" x="30" y="-697" font-family="Helvetica,sans-Serif" font-size="10.00">XML::XMLObject</text>
<text text-anchor="start" x="14" y="-682" font-family="Helvetica,sans-Serif" font-size="10.00">+</text>
<text text-anchor="start" x="27" y="-682" font-family="Helvetica,sans-Serif" font-size="10.00">xmlns</text>
<text text-anchor="start" x="14" y="-667" font-family="Helvetica,sans-Serif" font-size="10.00">+</text>
<text text-anchor="start" x="27" y="-667" font-family="Helvetica,sans-Serif" font-size="10.00">className</text>
<text text-anchor="start" x="14" y="-652" font-family="Helvetica,sans-Serif" font-size="10.00">+</text>
<text text-anchor="start" x="27" y="-652" font-family="Helvetica,sans-Serif" font-size="10.00">prefix</text>
<text text-anchor="start" x="14" y="-637" font-family="Helvetica,sans-Serif" font-size="10.00">+</text>
<text text-anchor="start" x="27" y="-637" font-family="Helvetica,sans-Serif" font-size="10.00">elementName</text>
<text text-anchor="start" x="14" y="-622" font-family="Helvetica,sans-Serif" font-size="10.00">+</text>
<text text-anchor="start" x="27" y="-622" font-family="Helvetica,sans-Serif" font-size="10.00">textContent</text>
<text text-anchor="start" x="14" y="-607" font-family="Helvetica,sans-Serif" font-size="10.00">+</text>
<text text-anchor="start" x="27" y="-607" font-family="Helvetica,sans-Serif" font-size="10.00">children</text>
<text text-anchor="start" x="14" y="-592" font-family="Helvetica,sans-Serif" font-size="10.00">+</text>
<text text-anchor="start" x="27" y="-592" font-family="Helvetica,sans-Serif" font-size="10.00">attributes</text>
<text text-anchor="start" x="14" y="-577" font-family="Helvetica,sans-Serif" font-size="10.00">+</text>
<text text-anchor="start" x="27" y="-577" font-family="Helvetica,sans-Serif" font-size="10.00">defaults</text>
<text text-anchor="start" x="14" y="-562" font-family="Helvetica,sans-Serif" font-size="10.00">#</text>
<text text-anchor="start" x="27" y="-562" font-family="Helvetica,sans-Serif" font-size="10.00">factory</text>
<text text-anchor="start" x="14" y="-547" font-family="Helvetica,sans-Serif" font-size="10.00">+</text>
<text text-anchor="start" x="27" y="-547" font-family="Helvetica,sans-Serif" font-size="10.00">~XMLObject()</text>
<text text-anchor="start" x="14" y="-532" font-family="Helvetica,sans-Serif" font-size="10.00">+</text>
<text text-anchor="start" x="27" y="-532" font-family="Helvetica,sans-Serif" font-size="10.00">is()</text>
<text text-anchor="start" x="14" y="-517" font-family="Helvetica,sans-Serif" font-size="10.00">+</text>
<text text-anchor="start" x="27" y="-517" font-family="Helvetica,sans-Serif" font-size="10.00">is()</text>
<text text-anchor="start" x="14" y="-502" font-family="Helvetica,sans-Serif" font-size="10.00">+</text>
<text text-anchor="start" x="27" y="-502" font-family="Helvetica,sans-Serif" font-size="10.00">get()</text>
<text text-anchor="start" x="14" y="-487" font-family="Helvetica,sans-Serif" font-size="10.00">+</text>
<text text-anchor="start" x="27" y="-487" font-family="Helvetica,sans-Serif" font-size="10.00">get()</text>
<text text-anchor="start" x="14" y="-472" font-family="Helvetica,sans-Serif" font-size="10.00">+</text>
<text text-anchor="start" x="27" y="-472" font-family="Helvetica,sans-Serif" font-size="10.00">find()</text>
<text text-anchor="start" x="14" y="-457" font-family="Helvetica,sans-Serif" font-size="10.00">+</text>
<text text-anchor="start" x="27" y="-457" font-family="Helvetica,sans-Serif" font-size="10.00">find()</text>
<text text-anchor="start" x="14" y="-442" font-family="Helvetica,sans-Serif" font-size="10.00">+</text>
<text text-anchor="start" x="27" y="-442" font-family="Helvetica,sans-Serif" font-size="10.00">stringify()</text>
<text text-anchor="start" x="14" y="-427" font-family="Helvetica,sans-Serif" font-size="10.00">+</text>
<text text-anchor="start" x="27" y="-427" font-family="Helvetica,sans-Serif" font-size="10.00">format()</text>
<text text-anchor="start" x="14" y="-412" font-family="Helvetica,sans-Serif" font-size="10.00">+</text>
<text text-anchor="start" x="27" y="-412" font-family="Helvetica,sans-Serif" font-size="10.00">getRequiredChild()</text>
<text text-anchor="start" x="27" y="-397" font-family="Helvetica,sans-Serif" font-size="10.00">and 7 more...</text>
<text text-anchor="start" x="14" y="-382" font-family="Helvetica,sans-Serif" font-size="10.00">+</text>
<text text-anchor="start" x="27" y="-382" font-family="Helvetica,sans-Serif" font-size="10.00">createFromStream()</text>
<text text-anchor="start" x="14" y="-367" font-family="Helvetica,sans-Serif" font-size="10.00">+</text>
<text text-anchor="start" x="27" y="-367" font-family="Helvetica,sans-Serif" font-size="10.00">createFromString()</text>
<text text-anchor="start" x="14" y="-352" font-family="Helvetica,sans-Serif" font-size="10.00">+</text>
<text text-anchor="start" x="27" y="-352" font-family="Helvetica,sans-Serif" font-size="10.00">createFromFile()</text>
<text text-anchor="start" x="14" y="-337" font-family="Helvetica,sans-Serif" font-size="10.00">#</text>
<text text-anchor="start" x="27" y="-337" font-family="Helvetica,sans-Serif" font-size="10.00">XMLObject()</text>
<text text-anchor="start" x="14" y="-322" font-family="Helvetica,sans-Serif" font-size="10.00">#</text>
<text text-anchor="start" x="27" y="-322" font-family="Helvetica,sans-Serif" font-size="10.00">createObject()</text>
<polygon fill="#666666" stroke="#666666" points="10,-692 10,-692 130,-692 130,-692 10,-692"/>
<polygon fill="#666666" stroke="#666666" points="10,-557 10,-557 25,-557 25,-557 10,-557"/>
<polygon fill="#666666" stroke="#666666" points="25,-557 25,-557 130,-557 130,-557 25,-557"/>
<polygon fill="none" stroke="#666666" points="10,-315 10,-709 130,-709 130,-315 10,-315"/>
</a>
</g>
</g>
<!-- Node4&#45;&gt;Node3 -->
<g id="edge3_Node000003_Node000004" class="edge">
<title>Node4&#45;&gt;Node3</title>
<g id="a_edge3_Node000003_Node000004"><a xlink:title=" ">
<path fill="none" stroke="#63b8ff" d="M70,-304.78C70,-295.62 70,-286.97 70,-279.06"/>
<polygon fill="none" stroke="#63b8ff" points="66.5,-304.91 70,-314.91 73.5,-304.91 66.5,-304.91"/>
</a>
</g>
</g>
</g>
</svg>
