<?xml version="1.0" encoding="UTF-8" standalone="no"?>
<!DOCTYPE svg PUBLIC "-//W3C//DTD SVG 1.1//EN"
 "http://www.w3.org/Graphics/SVG/1.1/DTD/svg11.dtd">
<!-- Generated by graphviz version 2.43.0 (0)
 -->
<!-- Title: XML::bpmn::tTask Pages: 1 -->
<svg width="1047pt" height="1342pt"
 viewBox="0.00 0.00 1046.50 1342.00" xmlns="http://www.w3.org/2000/svg" xmlns:xlink="http://www.w3.org/1999/xlink">
<g id="graph0" class="graph" transform="scale(1 1) rotate(0) translate(4 1338)">
<title>XML::bpmn::tTask</title>
<!-- Node1 -->
<g id="Node000001" class="node">
<title>Node1</title>
<g id="a_Node000001"><a xlink:title=" ">
<polygon fill="#999999" stroke="transparent" points="597.5,-279 500.5,-279 500.5,-230 597.5,-230 597.5,-279"/>
<text text-anchor="start" x="506" y="-266.5" font-family="Helvetica,sans-Serif" font-size="10.00">XML::bpmn::tTask</text>
<text text-anchor="start" x="514" y="-251.5" font-family="Helvetica,sans-Serif" font-size="10.00">+</text>
<text text-anchor="start" x="536" y="-251.5" font-family="Helvetica,sans-Serif" font-size="10.00">defaults</text>
<text text-anchor="start" x="514" y="-236.5" font-family="Helvetica,sans-Serif" font-size="10.00">#</text>
<text text-anchor="start" x="536" y="-236.5" font-family="Helvetica,sans-Serif" font-size="10.00">tTask()</text>
<polygon fill="#666666" stroke="#666666" points="501,-261.5 501,-261.5 598,-261.5 598,-261.5 501,-261.5"/>
<polygon fill="#666666" stroke="#666666" points="501,-246.5 501,-246.5 534,-246.5 534,-246.5 501,-246.5"/>
<polygon fill="#666666" stroke="#666666" points="534,-246.5 534,-246.5 598,-246.5 598,-246.5 534,-246.5"/>
<polygon fill="none" stroke="#666666" points="500.5,-230 500.5,-279 597.5,-279 597.5,-230 500.5,-230"/>
</a>
</g>
</g>
<!-- Node7 -->
<g id="Node000007" class="node">
<title>Node7</title>
<g id="a_Node000007"><a xlink:href="classXML_1_1bpmn_1_1tBusinessRuleTask.html" target="_top" xlink:title=" ">
<polygon fill="white" stroke="transparent" points="162,-171.5 0,-171.5 0,-107.5 162,-107.5 162,-171.5"/>
<text text-anchor="start" x="5" y="-159.5" font-family="Helvetica,sans-Serif" font-size="10.00">XML::bpmn::tBusinessRuleTask</text>
<text text-anchor="start" x="14.5" y="-144.5" font-family="Helvetica,sans-Serif" font-size="10.00">+</text>
<text text-anchor="start" x="38" y="-144.5" font-family="Helvetica,sans-Serif" font-size="10.00">implementation</text>
<text text-anchor="start" x="14.5" y="-129.5" font-family="Helvetica,sans-Serif" font-size="10.00">+</text>
<text text-anchor="start" x="38" y="-129.5" font-family="Helvetica,sans-Serif" font-size="10.00">defaults</text>
<text text-anchor="start" x="14.5" y="-114.5" font-family="Helvetica,sans-Serif" font-size="10.00">#</text>
<text text-anchor="start" x="38" y="-114.5" font-family="Helvetica,sans-Serif" font-size="10.00">tBusinessRuleTask()</text>
<polygon fill="#666666" stroke="#666666" points="0,-154.5 0,-154.5 162,-154.5 162,-154.5 0,-154.5"/>
<polygon fill="#666666" stroke="#666666" points="0,-124.5 0,-124.5 36,-124.5 36,-124.5 0,-124.5"/>
<polygon fill="#666666" stroke="#666666" points="36,-124.5 36,-124.5 162,-124.5 162,-124.5 36,-124.5"/>
<polygon fill="none" stroke="#666666" points="0,-107.5 0,-171.5 162,-171.5 162,-107.5 0,-107.5"/>
</a>
</g>
</g>
<!-- Node1&#45;&gt;Node7 -->
<g id="edge6_Node000001_Node000007" class="edge">
<title>Node1&#45;&gt;Node7</title>
<g id="a_edge6_Node000001_Node000007"><a xlink:title=" ">
<path fill="none" stroke="#63b8ff" d="M490.11,-251.12C414.27,-246.52 279.33,-233.08 171,-194 155.44,-188.39 139.57,-180 125.58,-171.53"/>
<polygon fill="none" stroke="#63b8ff" points="490.23,-254.63 500.41,-251.71 490.63,-247.64 490.23,-254.63"/>
</a>
</g>
</g>
<!-- Node9 -->
<g id="Node000009" class="node">
<title>Node9</title>
<g id="a_Node000009"><a xlink:href="classXML_1_1bpmn_1_1tManualTask.html" target="_top" xlink:title=" ">
<polygon fill="white" stroke="transparent" points="313.5,-164 180.5,-164 180.5,-115 313.5,-115 313.5,-164"/>
<text text-anchor="start" x="186" y="-151.5" font-family="Helvetica,sans-Serif" font-size="10.00">XML::bpmn::tManualTask</text>
<text text-anchor="start" x="195.5" y="-136.5" font-family="Helvetica,sans-Serif" font-size="10.00">+</text>
<text text-anchor="start" x="219" y="-136.5" font-family="Helvetica,sans-Serif" font-size="10.00">defaults</text>
<text text-anchor="start" x="195.5" y="-121.5" font-family="Helvetica,sans-Serif" font-size="10.00">#</text>
<text text-anchor="start" x="219" y="-121.5" font-family="Helvetica,sans-Serif" font-size="10.00">tManualTask()</text>
<polygon fill="#666666" stroke="#666666" points="181,-146.5 181,-146.5 314,-146.5 314,-146.5 181,-146.5"/>
<polygon fill="#666666" stroke="#666666" points="181,-131.5 181,-131.5 217,-131.5 217,-131.5 181,-131.5"/>
<polygon fill="#666666" stroke="#666666" points="217,-131.5 217,-131.5 314,-131.5 314,-131.5 217,-131.5"/>
<polygon fill="none" stroke="#666666" points="180.5,-115 180.5,-164 313.5,-164 313.5,-115 180.5,-115"/>
</a>
</g>
</g>
<!-- Node1&#45;&gt;Node9 -->
<g id="edge8_Node000001_Node000009" class="edge">
<title>Node1&#45;&gt;Node9</title>
<g id="a_edge8_Node000001_Node000009"><a xlink:title=" ">
<path fill="none" stroke="#63b8ff" d="M490.13,-243.96C443.33,-234.98 376.98,-219.11 323,-194 306.18,-186.17 289.13,-174.58 275.46,-164.19"/>
<polygon fill="none" stroke="#63b8ff" points="489.63,-247.43 500.11,-245.82 490.92,-240.54 489.63,-247.43"/>
</a>
</g>
</g>
<!-- Node11 -->
<g id="Node000011" class="node">
<title>Node11</title>
<g id="a_Node000011"><a xlink:href="classXML_1_1bpmn_1_1tReceiveTask.html" target="_top" xlink:title=" ">
<polygon fill="white" stroke="transparent" points="468,-194 332,-194 332,-85 468,-85 468,-194"/>
<text text-anchor="start" x="337" y="-181.5" font-family="Helvetica,sans-Serif" font-size="10.00">XML::bpmn::tReceiveTask</text>
<text text-anchor="start" x="345" y="-166.5" font-family="Helvetica,sans-Serif" font-size="10.00">+</text>
<text text-anchor="start" x="367" y="-166.5" font-family="Helvetica,sans-Serif" font-size="10.00">implementation</text>
<text text-anchor="start" x="345" y="-151.5" font-family="Helvetica,sans-Serif" font-size="10.00">+</text>
<text text-anchor="start" x="367" y="-151.5" font-family="Helvetica,sans-Serif" font-size="10.00">instantiate</text>
<text text-anchor="start" x="345" y="-136.5" font-family="Helvetica,sans-Serif" font-size="10.00">+</text>
<text text-anchor="start" x="367" y="-136.5" font-family="Helvetica,sans-Serif" font-size="10.00">messageRef</text>
<text text-anchor="start" x="345" y="-121.5" font-family="Helvetica,sans-Serif" font-size="10.00">+</text>
<text text-anchor="start" x="367" y="-121.5" font-family="Helvetica,sans-Serif" font-size="10.00">operationRef</text>
<text text-anchor="start" x="345" y="-106.5" font-family="Helvetica,sans-Serif" font-size="10.00">+</text>
<text text-anchor="start" x="367" y="-106.5" font-family="Helvetica,sans-Serif" font-size="10.00">defaults</text>
<text text-anchor="start" x="345" y="-91.5" font-family="Helvetica,sans-Serif" font-size="10.00">#</text>
<text text-anchor="start" x="367" y="-91.5" font-family="Helvetica,sans-Serif" font-size="10.00">tReceiveTask()</text>
<polygon fill="#666666" stroke="#666666" points="332,-176.5 332,-176.5 468,-176.5 468,-176.5 332,-176.5"/>
<polygon fill="#666666" stroke="#666666" points="332,-101.5 332,-101.5 365,-101.5 365,-101.5 332,-101.5"/>
<polygon fill="#666666" stroke="#666666" points="365,-101.5 365,-101.5 468,-101.5 468,-101.5 365,-101.5"/>
<polygon fill="none" stroke="#666666" points="332,-85 332,-194 468,-194 468,-85 332,-85"/>
</a>
</g>
</g>
<!-- Node1&#45;&gt;Node11 -->
<g id="edge10_Node000001_Node000011" class="edge">
<title>Node1&#45;&gt;Node11</title>
<g id="a_edge10_Node000001_Node000011"><a xlink:title=" ">
<path fill="none" stroke="#63b8ff" d="M509.64,-223.65C496.86,-213.95 482.28,-202.9 468.02,-192.08"/>
<polygon fill="none" stroke="#63b8ff" points="507.68,-226.56 517.76,-229.81 511.91,-220.98 507.68,-226.56"/>
</a>
</g>
</g>
<!-- Node13 -->
<g id="Node000013" class="node">
<title>Node13</title>
<g id="a_Node000013"><a xlink:href="classXML_1_1bpmn_1_1tScriptTask.html" target="_top" xlink:title=" ">
<polygon fill="white" stroke="transparent" points="611.5,-179 486.5,-179 486.5,-100 611.5,-100 611.5,-179"/>
<text text-anchor="start" x="492" y="-166.5" font-family="Helvetica,sans-Serif" font-size="10.00">XML::bpmn::tScriptTask</text>
<text text-anchor="start" x="501.5" y="-151.5" font-family="Helvetica,sans-Serif" font-size="10.00">+</text>
<text text-anchor="start" x="525" y="-151.5" font-family="Helvetica,sans-Serif" font-size="10.00">script</text>
<text text-anchor="start" x="501.5" y="-136.5" font-family="Helvetica,sans-Serif" font-size="10.00">+</text>
<text text-anchor="start" x="525" y="-136.5" font-family="Helvetica,sans-Serif" font-size="10.00">scriptFormat</text>
<text text-anchor="start" x="501.5" y="-121.5" font-family="Helvetica,sans-Serif" font-size="10.00">+</text>
<text text-anchor="start" x="525" y="-121.5" font-family="Helvetica,sans-Serif" font-size="10.00">defaults</text>
<text text-anchor="start" x="501.5" y="-106.5" font-family="Helvetica,sans-Serif" font-size="10.00">#</text>
<text text-anchor="start" x="525" y="-106.5" font-family="Helvetica,sans-Serif" font-size="10.00">tScriptTask()</text>
<polygon fill="#666666" stroke="#666666" points="487,-161.5 487,-161.5 612,-161.5 612,-161.5 487,-161.5"/>
<polygon fill="#666666" stroke="#666666" points="487,-116.5 487,-116.5 523,-116.5 523,-116.5 487,-116.5"/>
<polygon fill="#666666" stroke="#666666" points="523,-116.5 523,-116.5 612,-116.5 612,-116.5 523,-116.5"/>
<polygon fill="none" stroke="#666666" points="486.5,-100 486.5,-179 611.5,-179 611.5,-100 486.5,-100"/>
</a>
</g>
</g>
<!-- Node1&#45;&gt;Node13 -->
<g id="edge12_Node000001_Node000013" class="edge">
<title>Node1&#45;&gt;Node13</title>
<g id="a_edge12_Node000001_Node000013"><a xlink:title=" ">
<path fill="none" stroke="#63b8ff" d="M549,-219.64C549,-206.93 549,-192.4 549,-179.28"/>
<polygon fill="none" stroke="#63b8ff" points="545.5,-219.81 549,-229.81 552.5,-219.81 545.5,-219.81"/>
</a>
</g>
</g>
<!-- Node15 -->
<g id="Node000015" class="node">
<title>Node15</title>
<g id="a_Node000015"><a xlink:href="classXML_1_1bpmn_1_1tSendTask.html" target="_top" xlink:title=" ">
<polygon fill="white" stroke="transparent" points="750.5,-186.5 629.5,-186.5 629.5,-92.5 750.5,-92.5 750.5,-186.5"/>
<text text-anchor="start" x="635" y="-174.5" font-family="Helvetica,sans-Serif" font-size="10.00">XML::bpmn::tSendTask</text>
<text text-anchor="start" x="639" y="-159.5" font-family="Helvetica,sans-Serif" font-size="10.00">+</text>
<text text-anchor="start" x="657" y="-159.5" font-family="Helvetica,sans-Serif" font-size="10.00">implementation</text>
<text text-anchor="start" x="639" y="-144.5" font-family="Helvetica,sans-Serif" font-size="10.00">+</text>
<text text-anchor="start" x="657" y="-144.5" font-family="Helvetica,sans-Serif" font-size="10.00">messageRef</text>
<text text-anchor="start" x="639" y="-129.5" font-family="Helvetica,sans-Serif" font-size="10.00">+</text>
<text text-anchor="start" x="657" y="-129.5" font-family="Helvetica,sans-Serif" font-size="10.00">operationRef</text>
<text text-anchor="start" x="639" y="-114.5" font-family="Helvetica,sans-Serif" font-size="10.00">+</text>
<text text-anchor="start" x="657" y="-114.5" font-family="Helvetica,sans-Serif" font-size="10.00">defaults</text>
<text text-anchor="start" x="639" y="-99.5" font-family="Helvetica,sans-Serif" font-size="10.00">#</text>
<text text-anchor="start" x="657" y="-99.5" font-family="Helvetica,sans-Serif" font-size="10.00">tSendTask()</text>
<polygon fill="#666666" stroke="#666666" points="630,-169.5 630,-169.5 751,-169.5 751,-169.5 630,-169.5"/>
<polygon fill="#666666" stroke="#666666" points="630,-109.5 630,-109.5 655,-109.5 655,-109.5 630,-109.5"/>
<polygon fill="#666666" stroke="#666666" points="655,-109.5 655,-109.5 751,-109.5 751,-109.5 655,-109.5"/>
<polygon fill="none" stroke="#666666" points="629.5,-92.5 629.5,-186.5 750.5,-186.5 750.5,-92.5 629.5,-92.5"/>
</a>
</g>
</g>
<!-- Node1&#45;&gt;Node15 -->
<g id="edge14_Node000001_Node000015" class="edge">
<title>Node1&#45;&gt;Node15</title>
<g id="a_edge14_Node000001_Node000015"><a xlink:title=" ">
<path fill="none" stroke="#63b8ff" d="M586.58,-223.38C600.69,-212.08 617.06,-198.95 632.56,-186.53"/>
<polygon fill="none" stroke="#63b8ff" points="584.17,-220.83 578.56,-229.81 588.55,-226.29 584.17,-220.83"/>
</a>
</g>
</g>
<!-- Node17 -->
<g id="Node000017" class="node">
<title>Node17</title>
<g id="a_Node000017"><a xlink:href="classXML_1_1bpmn_1_1tServiceTask.html" target="_top" xlink:title=" ">
<polygon fill="white" stroke="transparent" points="901.5,-179 768.5,-179 768.5,-100 901.5,-100 901.5,-179"/>
<text text-anchor="start" x="774" y="-166.5" font-family="Helvetica,sans-Serif" font-size="10.00">XML::bpmn::tServiceTask</text>
<text text-anchor="start" x="781" y="-151.5" font-family="Helvetica,sans-Serif" font-size="10.00">+</text>
<text text-anchor="start" x="802" y="-151.5" font-family="Helvetica,sans-Serif" font-size="10.00">implementation</text>
<text text-anchor="start" x="781" y="-136.5" font-family="Helvetica,sans-Serif" font-size="10.00">+</text>
<text text-anchor="start" x="802" y="-136.5" font-family="Helvetica,sans-Serif" font-size="10.00">operationRef</text>
<text text-anchor="start" x="781" y="-121.5" font-family="Helvetica,sans-Serif" font-size="10.00">+</text>
<text text-anchor="start" x="802" y="-121.5" font-family="Helvetica,sans-Serif" font-size="10.00">defaults</text>
<text text-anchor="start" x="781" y="-106.5" font-family="Helvetica,sans-Serif" font-size="10.00">#</text>
<text text-anchor="start" x="802" y="-106.5" font-family="Helvetica,sans-Serif" font-size="10.00">tServiceTask()</text>
<polygon fill="#666666" stroke="#666666" points="769,-161.5 769,-161.5 902,-161.5 902,-161.5 769,-161.5"/>
<polygon fill="#666666" stroke="#666666" points="769,-116.5 769,-116.5 800,-116.5 800,-116.5 769,-116.5"/>
<polygon fill="#666666" stroke="#666666" points="800,-116.5 800,-116.5 902,-116.5 902,-116.5 800,-116.5"/>
<polygon fill="none" stroke="#666666" points="768.5,-100 768.5,-179 901.5,-179 901.5,-100 768.5,-100"/>
</a>
</g>
</g>
<!-- Node1&#45;&gt;Node17 -->
<g id="edge16_Node000001_Node000017" class="edge">
<title>Node1&#45;&gt;Node17</title>
<g id="a_edge16_Node000001_Node000017"><a xlink:title=" ">
<path fill="none" stroke="#63b8ff" d="M607.57,-242.46C650.79,-233.01 710.29,-217.22 759,-194 767.74,-189.83 776.56,-184.68 784.94,-179.24"/>
<polygon fill="none" stroke="#63b8ff" points="606.83,-239.04 597.78,-244.56 608.3,-245.89 606.83,-239.04"/>
</a>
</g>
</g>
<!-- Node19 -->
<g id="Node000019" class="node">
<title>Node19</title>
<g id="a_Node000019"><a xlink:href="classXML_1_1bpmn_1_1tUserTask.html" target="_top" xlink:title=" ">
<polygon fill="white" stroke="transparent" points="1038.5,-179 919.5,-179 919.5,-100 1038.5,-100 1038.5,-179"/>
<text text-anchor="start" x="925" y="-166.5" font-family="Helvetica,sans-Serif" font-size="10.00">XML::bpmn::tUserTask</text>
<text text-anchor="start" x="928.5" y="-151.5" font-family="Helvetica,sans-Serif" font-size="10.00">+</text>
<text text-anchor="start" x="946" y="-151.5" font-family="Helvetica,sans-Serif" font-size="10.00">rendering</text>
<text text-anchor="start" x="928.5" y="-136.5" font-family="Helvetica,sans-Serif" font-size="10.00">+</text>
<text text-anchor="start" x="946" y="-136.5" font-family="Helvetica,sans-Serif" font-size="10.00">implementation</text>
<text text-anchor="start" x="928.5" y="-121.5" font-family="Helvetica,sans-Serif" font-size="10.00">+</text>
<text text-anchor="start" x="946" y="-121.5" font-family="Helvetica,sans-Serif" font-size="10.00">defaults</text>
<text text-anchor="start" x="928.5" y="-106.5" font-family="Helvetica,sans-Serif" font-size="10.00">#</text>
<text text-anchor="start" x="946" y="-106.5" font-family="Helvetica,sans-Serif" font-size="10.00">tUserTask()</text>
<polygon fill="#666666" stroke="#666666" points="920,-161.5 920,-161.5 1039,-161.5 1039,-161.5 920,-161.5"/>
<polygon fill="#666666" stroke="#666666" points="920,-116.5 920,-116.5 944,-116.5 944,-116.5 920,-116.5"/>
<polygon fill="#666666" stroke="#666666" points="944,-116.5 944,-116.5 1039,-116.5 1039,-116.5 944,-116.5"/>
<polygon fill="none" stroke="#666666" points="919.5,-100 919.5,-179 1038.5,-179 1038.5,-100 919.5,-100"/>
</a>
</g>
</g>
<!-- Node1&#45;&gt;Node19 -->
<g id="edge18_Node000001_Node000019" class="edge">
<title>Node1&#45;&gt;Node19</title>
<g id="a_edge18_Node000001_Node000019"><a xlink:title=" ">
<path fill="none" stroke="#63b8ff" d="M607.56,-252.61C681.1,-249.55 809.78,-237.73 910,-194 918.89,-190.12 927.65,-184.84 935.79,-179.09"/>
<polygon fill="none" stroke="#63b8ff" points="607.42,-249.11 597.55,-252.98 607.68,-256.1 607.42,-249.11"/>
</a>
</g>
</g>
<!-- Node2 -->
<g id="Node000002" class="node">
<title>Node2</title>
<g id="a_Node000002"><a xlink:href="classXML_1_1bpmn_1_1tActivity.html" target="_top" xlink:title=" ">
<polygon fill="white" stroke="transparent" points="615.5,-514 482.5,-514 482.5,-315 615.5,-315 615.5,-514"/>
<text text-anchor="start" x="498" y="-501.5" font-family="Helvetica,sans-Serif" font-size="10.00">XML::bpmn::tActivity</text>
<text text-anchor="start" x="487" y="-486.5" font-family="Helvetica,sans-Serif" font-size="10.00">+</text>
<text text-anchor="start" x="500" y="-486.5" font-family="Helvetica,sans-Serif" font-size="10.00">ioSpecification</text>
<text text-anchor="start" x="487" y="-471.5" font-family="Helvetica,sans-Serif" font-size="10.00">+</text>
<text text-anchor="start" x="500" y="-471.5" font-family="Helvetica,sans-Serif" font-size="10.00">property</text>
<text text-anchor="start" x="487" y="-456.5" font-family="Helvetica,sans-Serif" font-size="10.00">+</text>
<text text-anchor="start" x="500" y="-456.5" font-family="Helvetica,sans-Serif" font-size="10.00">dataInputAssociation</text>
<text text-anchor="start" x="487" y="-441.5" font-family="Helvetica,sans-Serif" font-size="10.00">+</text>
<text text-anchor="start" x="500" y="-441.5" font-family="Helvetica,sans-Serif" font-size="10.00">dataOutputAssociation</text>
<text text-anchor="start" x="487" y="-426.5" font-family="Helvetica,sans-Serif" font-size="10.00">+</text>
<text text-anchor="start" x="500" y="-426.5" font-family="Helvetica,sans-Serif" font-size="10.00">resourceRole</text>
<text text-anchor="start" x="487" y="-411.5" font-family="Helvetica,sans-Serif" font-size="10.00">+</text>
<text text-anchor="start" x="500" y="-411.5" font-family="Helvetica,sans-Serif" font-size="10.00">loopCharacteristics</text>
<text text-anchor="start" x="487" y="-396.5" font-family="Helvetica,sans-Serif" font-size="10.00">+</text>
<text text-anchor="start" x="500" y="-396.5" font-family="Helvetica,sans-Serif" font-size="10.00">isForCompensation</text>
<text text-anchor="start" x="487" y="-381.5" font-family="Helvetica,sans-Serif" font-size="10.00">+</text>
<text text-anchor="start" x="500" y="-381.5" font-family="Helvetica,sans-Serif" font-size="10.00">startQuantity</text>
<text text-anchor="start" x="487" y="-366.5" font-family="Helvetica,sans-Serif" font-size="10.00">+</text>
<text text-anchor="start" x="500" y="-366.5" font-family="Helvetica,sans-Serif" font-size="10.00">completionQuantity</text>
<text text-anchor="start" x="487" y="-351.5" font-family="Helvetica,sans-Serif" font-size="10.00">+</text>
<text text-anchor="start" x="500" y="-351.5" font-family="Helvetica,sans-Serif" font-size="10.00">default_</text>
<text text-anchor="start" x="487" y="-336.5" font-family="Helvetica,sans-Serif" font-size="10.00">+</text>
<text text-anchor="start" x="500" y="-336.5" font-family="Helvetica,sans-Serif" font-size="10.00">defaults</text>
<text text-anchor="start" x="487" y="-321.5" font-family="Helvetica,sans-Serif" font-size="10.00">#</text>
<text text-anchor="start" x="500" y="-321.5" font-family="Helvetica,sans-Serif" font-size="10.00">tActivity()</text>
<polygon fill="#666666" stroke="#666666" points="483,-496.5 483,-496.5 616,-496.5 616,-496.5 483,-496.5"/>
<polygon fill="#666666" stroke="#666666" points="483,-331.5 483,-331.5 498,-331.5 498,-331.5 483,-331.5"/>
<polygon fill="#666666" stroke="#666666" points="498,-331.5 498,-331.5 616,-331.5 616,-331.5 498,-331.5"/>
<polygon fill="none" stroke="#666666" points="482.5,-315 482.5,-514 615.5,-514 615.5,-315 482.5,-315"/>
</a>
</g>
</g>
<!-- Node2&#45;&gt;Node1 -->
<g id="edge1_Node000001_Node000002" class="edge">
<title>Node2&#45;&gt;Node1</title>
<g id="a_edge1_Node000001_Node000002"><a xlink:title=" ">
<path fill="none" stroke="#63b8ff" d="M549,-304.74C549,-295.31 549,-286.53 549,-279.09"/>
<polygon fill="none" stroke="#63b8ff" points="545.5,-304.78 549,-314.78 552.5,-304.78 545.5,-304.78"/>
</a>
</g>
</g>
<!-- Node3 -->
<g id="Node000003" class="node">
<title>Node3</title>
<g id="a_Node000003"><a xlink:href="classXML_1_1bpmn_1_1tFlowNode.html" target="_top" xlink:title=" ">
<polygon fill="white" stroke="transparent" points="611,-629 487,-629 487,-550 611,-550 611,-629"/>
<text text-anchor="start" x="492" y="-616.5" font-family="Helvetica,sans-Serif" font-size="10.00">XML::bpmn::tFlowNode</text>
<text text-anchor="start" x="501.5" y="-601.5" font-family="Helvetica,sans-Serif" font-size="10.00">+</text>
<text text-anchor="start" x="525" y="-601.5" font-family="Helvetica,sans-Serif" font-size="10.00">incoming</text>
<text text-anchor="start" x="501.5" y="-586.5" font-family="Helvetica,sans-Serif" font-size="10.00">+</text>
<text text-anchor="start" x="525" y="-586.5" font-family="Helvetica,sans-Serif" font-size="10.00">outgoing</text>
<text text-anchor="start" x="501.5" y="-571.5" font-family="Helvetica,sans-Serif" font-size="10.00">+</text>
<text text-anchor="start" x="525" y="-571.5" font-family="Helvetica,sans-Serif" font-size="10.00">defaults</text>
<text text-anchor="start" x="501.5" y="-556.5" font-family="Helvetica,sans-Serif" font-size="10.00">#</text>
<text text-anchor="start" x="525" y="-556.5" font-family="Helvetica,sans-Serif" font-size="10.00">tFlowNode()</text>
<polygon fill="#666666" stroke="#666666" points="487,-611.5 487,-611.5 611,-611.5 611,-611.5 487,-611.5"/>
<polygon fill="#666666" stroke="#666666" points="487,-566.5 487,-566.5 523,-566.5 523,-566.5 487,-566.5"/>
<polygon fill="#666666" stroke="#666666" points="523,-566.5 523,-566.5 611,-566.5 611,-566.5 523,-566.5"/>
<polygon fill="none" stroke="#666666" points="487,-550 487,-629 611,-629 611,-550 487,-550"/>
</a>
</g>
</g>
<!-- Node3&#45;&gt;Node2 -->
<g id="edge2_Node000002_Node000003" class="edge">
<title>Node3&#45;&gt;Node2</title>
<g id="a_edge2_Node000002_Node000003"><a xlink:title=" ">
<path fill="none" stroke="#63b8ff" d="M549,-539.47C549,-531.46 549,-522.91 549,-514.19"/>
<polygon fill="none" stroke="#63b8ff" points="545.5,-539.68 549,-549.68 552.5,-539.68 545.5,-539.68"/>
</a>
</g>
</g>
<!-- Node4 -->
<g id="Node000004" class="node">
<title>Node4</title>
<g id="a_Node000004"><a xlink:href="classXML_1_1bpmn_1_1tFlowElement.html" target="_top" xlink:title=" ">
<polygon fill="white" stroke="transparent" points="618.5,-774 479.5,-774 479.5,-665 618.5,-665 618.5,-774"/>
<text text-anchor="start" x="485" y="-761.5" font-family="Helvetica,sans-Serif" font-size="10.00">XML::bpmn::tFlowElement</text>
<text text-anchor="start" x="491.5" y="-746.5" font-family="Helvetica,sans-Serif" font-size="10.00">+</text>
<text text-anchor="start" x="512" y="-746.5" font-family="Helvetica,sans-Serif" font-size="10.00">auditing</text>
<text text-anchor="start" x="491.5" y="-731.5" font-family="Helvetica,sans-Serif" font-size="10.00">+</text>
<text text-anchor="start" x="512" y="-731.5" font-family="Helvetica,sans-Serif" font-size="10.00">monitoring</text>
<text text-anchor="start" x="491.5" y="-716.5" font-family="Helvetica,sans-Serif" font-size="10.00">+</text>
<text text-anchor="start" x="512" y="-716.5" font-family="Helvetica,sans-Serif" font-size="10.00">categoryValueRef</text>
<text text-anchor="start" x="491.5" y="-701.5" font-family="Helvetica,sans-Serif" font-size="10.00">+</text>
<text text-anchor="start" x="512" y="-701.5" font-family="Helvetica,sans-Serif" font-size="10.00">name</text>
<text text-anchor="start" x="491.5" y="-686.5" font-family="Helvetica,sans-Serif" font-size="10.00">+</text>
<text text-anchor="start" x="512" y="-686.5" font-family="Helvetica,sans-Serif" font-size="10.00">defaults</text>
<text text-anchor="start" x="491.5" y="-671.5" font-family="Helvetica,sans-Serif" font-size="10.00">#</text>
<text text-anchor="start" x="512" y="-671.5" font-family="Helvetica,sans-Serif" font-size="10.00">tFlowElement()</text>
<polygon fill="#666666" stroke="#666666" points="480,-756.5 480,-756.5 619,-756.5 619,-756.5 480,-756.5"/>
<polygon fill="#666666" stroke="#666666" points="480,-681.5 480,-681.5 510,-681.5 510,-681.5 480,-681.5"/>
<polygon fill="#666666" stroke="#666666" points="510,-681.5 510,-681.5 619,-681.5 619,-681.5 510,-681.5"/>
<polygon fill="none" stroke="#666666" points="479.5,-665 479.5,-774 618.5,-774 618.5,-665 479.5,-665"/>
</a>
</g>
</g>
<!-- Node4&#45;&gt;Node3 -->
<g id="edge3_Node000003_Node000004" class="edge">
<title>Node4&#45;&gt;Node3</title>
<g id="a_edge3_Node000003_Node000004"><a xlink:title=" ">
<path fill="none" stroke="#63b8ff" d="M549,-654.7C549,-645.93 549,-637.16 549,-629.03"/>
<polygon fill="none" stroke="#63b8ff" points="545.5,-654.96 549,-664.96 552.5,-654.96 545.5,-654.96"/>
</a>
</g>
</g>
<!-- Node5 -->
<g id="Node000005" class="node">
<title>Node5</title>
<g id="a_Node000005"><a xlink:href="classXML_1_1bpmn_1_1tBaseElement.html" target="_top" xlink:title=" ">
<polygon fill="white" stroke="transparent" points="619,-904 479,-904 479,-810 619,-810 619,-904"/>
<text text-anchor="start" x="484" y="-892" font-family="Helvetica,sans-Serif" font-size="10.00">XML::bpmn::tBaseElement</text>
<text text-anchor="start" x="489" y="-877" font-family="Helvetica,sans-Serif" font-size="10.00">+</text>
<text text-anchor="start" x="508" y="-877" font-family="Helvetica,sans-Serif" font-size="10.00">documentation</text>
<text text-anchor="start" x="489" y="-862" font-family="Helvetica,sans-Serif" font-size="10.00">+</text>
<text text-anchor="start" x="508" y="-862" font-family="Helvetica,sans-Serif" font-size="10.00">extensionElements</text>
<text text-anchor="start" x="489" y="-847" font-family="Helvetica,sans-Serif" font-size="10.00">+</text>
<text text-anchor="start" x="508" y="-847" font-family="Helvetica,sans-Serif" font-size="10.00">id</text>
<text text-anchor="start" x="489" y="-832" font-family="Helvetica,sans-Serif" font-size="10.00">+</text>
<text text-anchor="start" x="508" y="-832" font-family="Helvetica,sans-Serif" font-size="10.00">defaults</text>
<text text-anchor="start" x="489" y="-817" font-family="Helvetica,sans-Serif" font-size="10.00">#</text>
<text text-anchor="start" x="508" y="-817" font-family="Helvetica,sans-Serif" font-size="10.00">tBaseElement()</text>
<polygon fill="#666666" stroke="#666666" points="479,-887 479,-887 619,-887 619,-887 479,-887"/>
<polygon fill="#666666" stroke="#666666" points="479,-827 479,-827 506,-827 506,-827 479,-827"/>
<polygon fill="#666666" stroke="#666666" points="506,-827 506,-827 619,-827 619,-827 506,-827"/>
<polygon fill="none" stroke="#666666" points="479,-810 479,-904 619,-904 619,-810 479,-810"/>
</a>
</g>
</g>
<!-- Node5&#45;&gt;Node4 -->
<g id="edge4_Node000004_Node000005" class="edge">
<title>Node5&#45;&gt;Node4</title>
<g id="a_edge4_Node000004_Node000005"><a xlink:title=" ">
<path fill="none" stroke="#63b8ff" d="M549,-799.58C549,-791.12 549,-782.41 549,-774.01"/>
<polygon fill="none" stroke="#63b8ff" points="545.5,-799.75 549,-809.75 552.5,-799.75 545.5,-799.75"/>
</a>
</g>
</g>
<!-- Node6 -->
<g id="Node000006" class="node">
<title>Node6</title>
<g id="a_Node000006"><a xlink:href="classXML_1_1XMLObject.html" target="_top" xlink:title="A class representing a node in an XML&#45;tree.">
<polygon fill="white" stroke="transparent" points="609,-1334 489,-1334 489,-940 609,-940 609,-1334"/>
<text text-anchor="start" x="509" y="-1322" font-family="Helvetica,sans-Serif" font-size="10.00">XML::XMLObject</text>
<text text-anchor="start" x="493" y="-1307" font-family="Helvetica,sans-Serif" font-size="10.00">+</text>
<text text-anchor="start" x="506" y="-1307" font-family="Helvetica,sans-Serif" font-size="10.00">xmlns</text>
<text text-anchor="start" x="493" y="-1292" font-family="Helvetica,sans-Serif" font-size="10.00">+</text>
<text text-anchor="start" x="506" y="-1292" font-family="Helvetica,sans-Serif" font-size="10.00">className</text>
<text text-anchor="start" x="493" y="-1277" font-family="Helvetica,sans-Serif" font-size="10.00">+</text>
<text text-anchor="start" x="506" y="-1277" font-family="Helvetica,sans-Serif" font-size="10.00">prefix</text>
<text text-anchor="start" x="493" y="-1262" font-family="Helvetica,sans-Serif" font-size="10.00">+</text>
<text text-anchor="start" x="506" y="-1262" font-family="Helvetica,sans-Serif" font-size="10.00">elementName</text>
<text text-anchor="start" x="493" y="-1247" font-family="Helvetica,sans-Serif" font-size="10.00">+</text>
<text text-anchor="start" x="506" y="-1247" font-family="Helvetica,sans-Serif" font-size="10.00">textContent</text>
<text text-anchor="start" x="493" y="-1232" font-family="Helvetica,sans-Serif" font-size="10.00">+</text>
<text text-anchor="start" x="506" y="-1232" font-family="Helvetica,sans-Serif" font-size="10.00">children</text>
<text text-anchor="start" x="493" y="-1217" font-family="Helvetica,sans-Serif" font-size="10.00">+</text>
<text text-anchor="start" x="506" y="-1217" font-family="Helvetica,sans-Serif" font-size="10.00">attributes</text>
<text text-anchor="start" x="493" y="-1202" font-family="Helvetica,sans-Serif" font-size="10.00">+</text>
<text text-anchor="start" x="506" y="-1202" font-family="Helvetica,sans-Serif" font-size="10.00">defaults</text>
<text text-anchor="start" x="493" y="-1187" font-family="Helvetica,sans-Serif" font-size="10.00">#</text>
<text text-anchor="start" x="506" y="-1187" font-family="Helvetica,sans-Serif" font-size="10.00">factory</text>
<text text-anchor="start" x="493" y="-1172" font-family="Helvetica,sans-Serif" font-size="10.00">+</text>
<text text-anchor="start" x="506" y="-1172" font-family="Helvetica,sans-Serif" font-size="10.00">~XMLObject()</text>
<text text-anchor="start" x="493" y="-1157" font-family="Helvetica,sans-Serif" font-size="10.00">+</text>
<text text-anchor="start" x="506" y="-1157" font-family="Helvetica,sans-Serif" font-size="10.00">is()</text>
<text text-anchor="start" x="493" y="-1142" font-family="Helvetica,sans-Serif" font-size="10.00">+</text>
<text text-anchor="start" x="506" y="-1142" font-family="Helvetica,sans-Serif" font-size="10.00">is()</text>
<text text-anchor="start" x="493" y="-1127" font-family="Helvetica,sans-Serif" font-size="10.00">+</text>
<text text-anchor="start" x="506" y="-1127" font-family="Helvetica,sans-Serif" font-size="10.00">get()</text>
<text text-anchor="start" x="493" y="-1112" font-family="Helvetica,sans-Serif" font-size="10.00">+</text>
<text text-anchor="start" x="506" y="-1112" font-family="Helvetica,sans-Serif" font-size="10.00">get()</text>
<text text-anchor="start" x="493" y="-1097" font-family="Helvetica,sans-Serif" font-size="10.00">+</text>
<text text-anchor="start" x="506" y="-1097" font-family="Helvetica,sans-Serif" font-size="10.00">find()</text>
<text text-anchor="start" x="493" y="-1082" font-family="Helvetica,sans-Serif" font-size="10.00">+</text>
<text text-anchor="start" x="506" y="-1082" font-family="Helvetica,sans-Serif" font-size="10.00">find()</text>
<text text-anchor="start" x="493" y="-1067" font-family="Helvetica,sans-Serif" font-size="10.00">+</text>
<text text-anchor="start" x="506" y="-1067" font-family="Helvetica,sans-Serif" font-size="10.00">stringify()</text>
<text text-anchor="start" x="493" y="-1052" font-family="Helvetica,sans-Serif" font-size="10.00">+</text>
<text text-anchor="start" x="506" y="-1052" font-family="Helvetica,sans-Serif" font-size="10.00">format()</text>
<text text-anchor="start" x="493" y="-1037" font-family="Helvetica,sans-Serif" font-size="10.00">+</text>
<text text-anchor="start" x="506" y="-1037" font-family="Helvetica,sans-Serif" font-size="10.00">getRequiredChild()</text>
<text text-anchor="start" x="506" y="-1022" font-family="Helvetica,sans-Serif" font-size="10.00">and 7 more...</text>
<text text-anchor="start" x="493" y="-1007" font-family="Helvetica,sans-Serif" font-size="10.00">+</text>
<text text-anchor="start" x="506" y="-1007" font-family="Helvetica,sans-Serif" font-size="10.00">createFromStream()</text>
<text text-anchor="start" x="493" y="-992" font-family="Helvetica,sans-Serif" font-size="10.00">+</text>
<text text-anchor="start" x="506" y="-992" font-family="Helvetica,sans-Serif" font-size="10.00">createFromString()</text>
<text text-anchor="start" x="493" y="-977" font-family="Helvetica,sans-Serif" font-size="10.00">+</text>
<text text-anchor="start" x="506" y="-977" font-family="Helvetica,sans-Serif" font-size="10.00">createFromFile()</text>
<text text-anchor="start" x="493" y="-962" font-family="Helvetica,sans-Serif" font-size="10.00">#</text>
<text text-anchor="start" x="506" y="-962" font-family="Helvetica,sans-Serif" font-size="10.00">XMLObject()</text>
<text text-anchor="start" x="493" y="-947" font-family="Helvetica,sans-Serif" font-size="10.00">#</text>
<text text-anchor="start" x="506" y="-947" font-family="Helvetica,sans-Serif" font-size="10.00">createObject()</text>
<polygon fill="#666666" stroke="#666666" points="489,-1317 489,-1317 609,-1317 609,-1317 489,-1317"/>
<polygon fill="#666666" stroke="#666666" points="489,-1182 489,-1182 504,-1182 504,-1182 489,-1182"/>
<polygon fill="#666666" stroke="#666666" points="504,-1182 504,-1182 609,-1182 609,-1182 504,-1182"/>
<polygon fill="none" stroke="#666666" points="489,-940 489,-1334 609,-1334 609,-940 489,-940"/>
</a>
</g>
</g>
<!-- Node6&#45;&gt;Node5 -->
<g id="edge5_Node000005_Node000006" class="edge">
<title>Node6&#45;&gt;Node5</title>
<g id="a_edge5_Node000005_Node000006"><a xlink:title=" ">
<path fill="none" stroke="#63b8ff" d="M549,-929.78C549,-920.62 549,-911.97 549,-904.06"/>
<polygon fill="none" stroke="#63b8ff" points="545.5,-929.91 549,-939.91 552.5,-929.91 545.5,-929.91"/>
</a>
</g>
</g>
<!-- Node8 -->
<g id="Node000008" class="node">
<title>Node8</title>
<g id="a_Node000008"><a xlink:href="classXML_1_1bpmn_1_1businessRuleTask.html" target="_top" xlink:title=" ">
<polygon fill="white" stroke="transparent" points="160,-49 2,-49 2,0 160,0 160,-49"/>
<text text-anchor="start" x="7" y="-36.5" font-family="Helvetica,sans-Serif" font-size="10.00">XML::bpmn::businessRuleTask</text>
<text text-anchor="start" x="16.5" y="-21.5" font-family="Helvetica,sans-Serif" font-size="10.00">+</text>
<text text-anchor="start" x="40" y="-21.5" font-family="Helvetica,sans-Serif" font-size="10.00">defaults</text>
<text text-anchor="start" x="16.5" y="-6.5" font-family="Helvetica,sans-Serif" font-size="10.00">#</text>
<text text-anchor="start" x="40" y="-6.5" font-family="Helvetica,sans-Serif" font-size="10.00">businessRuleTask()</text>
<polygon fill="#666666" stroke="#666666" points="2,-31.5 2,-31.5 160,-31.5 160,-31.5 2,-31.5"/>
<polygon fill="#666666" stroke="#666666" points="2,-16.5 2,-16.5 38,-16.5 38,-16.5 2,-16.5"/>
<polygon fill="#666666" stroke="#666666" points="38,-16.5 38,-16.5 160,-16.5 160,-16.5 38,-16.5"/>
<polygon fill="none" stroke="#666666" points="2,0 2,-49 160,-49 160,0 2,0"/>
</a>
</g>
</g>
<!-- Node7&#45;&gt;Node8 -->
<g id="edge7_Node000007_Node000008" class="edge">
<title>Node7&#45;&gt;Node8</title>
<g id="a_edge7_Node000007_Node000008"><a xlink:title=" ">
<path fill="none" stroke="#63b8ff" d="M81,-97.02C81,-80.85 81,-62.91 81,-49.05"/>
<polygon fill="none" stroke="#63b8ff" points="77.5,-97.32 81,-107.32 84.5,-97.32 77.5,-97.32"/>
</a>
</g>
</g>
<!-- Node10 -->
<g id="Node000010" class="node">
<title>Node10</title>
<g id="a_Node000010"><a xlink:href="classXML_1_1bpmn_1_1manualTask.html" target="_top" xlink:title=" ">
<polygon fill="white" stroke="transparent" points="312,-49 182,-49 182,0 312,0 312,-49"/>
<text text-anchor="start" x="187" y="-36.5" font-family="Helvetica,sans-Serif" font-size="10.00">XML::bpmn::manualTask</text>
<text text-anchor="start" x="196.5" y="-21.5" font-family="Helvetica,sans-Serif" font-size="10.00">+</text>
<text text-anchor="start" x="220" y="-21.5" font-family="Helvetica,sans-Serif" font-size="10.00">defaults</text>
<text text-anchor="start" x="196.5" y="-6.5" font-family="Helvetica,sans-Serif" font-size="10.00">#</text>
<text text-anchor="start" x="220" y="-6.5" font-family="Helvetica,sans-Serif" font-size="10.00">manualTask()</text>
<polygon fill="#666666" stroke="#666666" points="182,-31.5 182,-31.5 312,-31.5 312,-31.5 182,-31.5"/>
<polygon fill="#666666" stroke="#666666" points="182,-16.5 182,-16.5 218,-16.5 218,-16.5 182,-16.5"/>
<polygon fill="#666666" stroke="#666666" points="218,-16.5 218,-16.5 312,-16.5 312,-16.5 218,-16.5"/>
<polygon fill="none" stroke="#666666" points="182,0 182,-49 312,-49 312,0 182,0"/>
</a>
</g>
</g>
<!-- Node9&#45;&gt;Node10 -->
<g id="edge9_Node000009_Node000010" class="edge">
<title>Node9&#45;&gt;Node10</title>
<g id="a_edge9_Node000009_Node000010"><a xlink:title=" ">
<path fill="none" stroke="#63b8ff" d="M247,-104.76C247,-86.85 247,-65.27 247,-49.16"/>
<polygon fill="none" stroke="#63b8ff" points="243.5,-104.81 247,-114.81 250.5,-104.81 243.5,-104.81"/>
</a>
</g>
</g>
<!-- Node12 -->
<g id="Node000012" class="node">
<title>Node12</title>
<g id="a_Node000012"><a xlink:href="classXML_1_1bpmn_1_1receiveTask.html" target="_top" xlink:title=" ">
<polygon fill="white" stroke="transparent" points="464.5,-49 335.5,-49 335.5,0 464.5,0 464.5,-49"/>
<text text-anchor="start" x="341" y="-36.5" font-family="Helvetica,sans-Serif" font-size="10.00">XML::bpmn::receiveTask</text>
<text text-anchor="start" x="350.5" y="-21.5" font-family="Helvetica,sans-Serif" font-size="10.00">+</text>
<text text-anchor="start" x="374" y="-21.5" font-family="Helvetica,sans-Serif" font-size="10.00">defaults</text>
<text text-anchor="start" x="350.5" y="-6.5" font-family="Helvetica,sans-Serif" font-size="10.00">#</text>
<text text-anchor="start" x="374" y="-6.5" font-family="Helvetica,sans-Serif" font-size="10.00">receiveTask()</text>
<polygon fill="#666666" stroke="#666666" points="336,-31.5 336,-31.5 465,-31.5 465,-31.5 336,-31.5"/>
<polygon fill="#666666" stroke="#666666" points="336,-16.5 336,-16.5 372,-16.5 372,-16.5 336,-16.5"/>
<polygon fill="#666666" stroke="#666666" points="372,-16.5 372,-16.5 465,-16.5 465,-16.5 372,-16.5"/>
<polygon fill="none" stroke="#666666" points="335.5,0 335.5,-49 464.5,-49 464.5,0 335.5,0"/>
</a>
</g>
</g>
<!-- Node11&#45;&gt;Node12 -->
<g id="edge11_Node000011_Node000012" class="edge">
<title>Node11&#45;&gt;Node12</title>
<g id="a_edge11_Node000011_Node000012"><a xlink:title=" ">
<path fill="none" stroke="#63b8ff" d="M400,-74.69C400,-65.63 400,-56.82 400,-49.23"/>
<polygon fill="none" stroke="#63b8ff" points="396.5,-74.98 400,-84.98 403.5,-74.98 396.5,-74.98"/>
</a>
</g>
</g>
<!-- Node14 -->
<g id="Node000014" class="node">
<title>Node14</title>
<g id="a_Node000014"><a xlink:href="classXML_1_1bpmn_1_1scriptTask.html" target="_top" xlink:title=" ">
<polygon fill="white" stroke="transparent" points="609,-49 489,-49 489,0 609,0 609,-49"/>
<text text-anchor="start" x="494" y="-36.5" font-family="Helvetica,sans-Serif" font-size="10.00">XML::bpmn::scriptTask</text>
<text text-anchor="start" x="503.5" y="-21.5" font-family="Helvetica,sans-Serif" font-size="10.00">+</text>
<text text-anchor="start" x="527" y="-21.5" font-family="Helvetica,sans-Serif" font-size="10.00">defaults</text>
<text text-anchor="start" x="503.5" y="-6.5" font-family="Helvetica,sans-Serif" font-size="10.00">#</text>
<text text-anchor="start" x="527" y="-6.5" font-family="Helvetica,sans-Serif" font-size="10.00">scriptTask()</text>
<polygon fill="#666666" stroke="#666666" points="489,-31.5 489,-31.5 609,-31.5 609,-31.5 489,-31.5"/>
<polygon fill="#666666" stroke="#666666" points="489,-16.5 489,-16.5 525,-16.5 525,-16.5 489,-16.5"/>
<polygon fill="#666666" stroke="#666666" points="525,-16.5 525,-16.5 609,-16.5 609,-16.5 525,-16.5"/>
<polygon fill="none" stroke="#666666" points="489,0 489,-49 609,-49 609,0 489,0"/>
</a>
</g>
</g>
<!-- Node13&#45;&gt;Node14 -->
<g id="edge13_Node000013_Node000014" class="edge">
<title>Node13&#45;&gt;Node14</title>
<g id="a_edge13_Node000013_Node000014"><a xlink:title=" ">
<path fill="none" stroke="#63b8ff" d="M549,-89.82C549,-75.7 549,-60.92 549,-49.09"/>
<polygon fill="none" stroke="#63b8ff" points="545.5,-89.93 549,-99.93 552.5,-89.93 545.5,-89.93"/>
</a>
</g>
</g>
<!-- Node16 -->
<g id="Node000016" class="node">
<title>Node16</title>
<g id="a_Node000016"><a xlink:href="classXML_1_1bpmn_1_1sendTask.html" target="_top" xlink:title=" ">
<polygon fill="white" stroke="transparent" points="748,-49 632,-49 632,0 748,0 748,-49"/>
<text text-anchor="start" x="637" y="-36.5" font-family="Helvetica,sans-Serif" font-size="10.00">XML::bpmn::sendTask</text>
<text text-anchor="start" x="646.5" y="-21.5" font-family="Helvetica,sans-Serif" font-size="10.00">+</text>
<text text-anchor="start" x="670" y="-21.5" font-family="Helvetica,sans-Serif" font-size="10.00">defaults</text>
<text text-anchor="start" x="646.5" y="-6.5" font-family="Helvetica,sans-Serif" font-size="10.00">#</text>
<text text-anchor="start" x="670" y="-6.5" font-family="Helvetica,sans-Serif" font-size="10.00">sendTask()</text>
<polygon fill="#666666" stroke="#666666" points="632,-31.5 632,-31.5 748,-31.5 748,-31.5 632,-31.5"/>
<polygon fill="#666666" stroke="#666666" points="632,-16.5 632,-16.5 668,-16.5 668,-16.5 632,-16.5"/>
<polygon fill="#666666" stroke="#666666" points="668,-16.5 668,-16.5 748,-16.5 748,-16.5 668,-16.5"/>
<polygon fill="none" stroke="#666666" points="632,0 632,-49 748,-49 748,0 632,0"/>
</a>
</g>
</g>
<!-- Node15&#45;&gt;Node16 -->
<g id="edge15_Node000015_Node000016" class="edge">
<title>Node15&#45;&gt;Node16</title>
<g id="a_edge15_Node000015_Node000016"><a xlink:title=" ">
<path fill="none" stroke="#63b8ff" d="M690,-82.09C690,-70.51 690,-58.93 690,-49.28"/>
<polygon fill="none" stroke="#63b8ff" points="686.5,-82.21 690,-92.21 693.5,-82.21 686.5,-82.21"/>
</a>
</g>
</g>
<!-- Node18 -->
<g id="Node000018" class="node">
<title>Node18</title>
<g id="a_Node000018"><a xlink:href="classXML_1_1bpmn_1_1serviceTask.html" target="_top" xlink:title=" ">
<polygon fill="white" stroke="transparent" points="899,-49 771,-49 771,0 899,0 899,-49"/>
<text text-anchor="start" x="776" y="-36.5" font-family="Helvetica,sans-Serif" font-size="10.00">XML::bpmn::serviceTask</text>
<text text-anchor="start" x="785.5" y="-21.5" font-family="Helvetica,sans-Serif" font-size="10.00">+</text>
<text text-anchor="start" x="809" y="-21.5" font-family="Helvetica,sans-Serif" font-size="10.00">defaults</text>
<text text-anchor="start" x="785.5" y="-6.5" font-family="Helvetica,sans-Serif" font-size="10.00">#</text>
<text text-anchor="start" x="809" y="-6.5" font-family="Helvetica,sans-Serif" font-size="10.00">serviceTask()</text>
<polygon fill="#666666" stroke="#666666" points="771,-31.5 771,-31.5 899,-31.5 899,-31.5 771,-31.5"/>
<polygon fill="#666666" stroke="#666666" points="771,-16.5 771,-16.5 807,-16.5 807,-16.5 771,-16.5"/>
<polygon fill="#666666" stroke="#666666" points="807,-16.5 807,-16.5 899,-16.5 899,-16.5 807,-16.5"/>
<polygon fill="none" stroke="#666666" points="771,0 771,-49 899,-49 899,0 771,0"/>
</a>
</g>
</g>
<!-- Node17&#45;&gt;Node18 -->
<g id="edge17_Node000017_Node000018" class="edge">
<title>Node17&#45;&gt;Node18</title>
<g id="a_edge17_Node000017_Node000018"><a xlink:title=" ">
<path fill="none" stroke="#63b8ff" d="M835,-89.82C835,-75.7 835,-60.92 835,-49.09"/>
<polygon fill="none" stroke="#63b8ff" points="831.5,-89.93 835,-99.93 838.5,-89.93 831.5,-89.93"/>
</a>
</g>
</g>
<!-- Node20 -->
<g id="Node000020" class="node">
<title>Node20</title>
<g id="a_Node000020"><a xlink:href="classXML_1_1bpmn_1_1userTask.html" target="_top" xlink:title=" ">
<polygon fill="white" stroke="transparent" points="1036,-49 922,-49 922,0 1036,0 1036,-49"/>
<text text-anchor="start" x="927" y="-36.5" font-family="Helvetica,sans-Serif" font-size="10.00">XML::bpmn::userTask</text>
<text text-anchor="start" x="936.5" y="-21.5" font-family="Helvetica,sans-Serif" font-size="10.00">+</text>
<text text-anchor="start" x="960" y="-21.5" font-family="Helvetica,sans-Serif" font-size="10.00">defaults</text>
<text text-anchor="start" x="936.5" y="-6.5" font-family="Helvetica,sans-Serif" font-size="10.00">#</text>
<text text-anchor="start" x="960" y="-6.5" font-family="Helvetica,sans-Serif" font-size="10.00">userTask()</text>
<polygon fill="#666666" stroke="#666666" points="922,-31.5 922,-31.5 1036,-31.5 1036,-31.5 922,-31.5"/>
<polygon fill="#666666" stroke="#666666" points="922,-16.5 922,-16.5 958,-16.5 958,-16.5 922,-16.5"/>
<polygon fill="#666666" stroke="#666666" points="958,-16.5 958,-16.5 1036,-16.5 1036,-16.5 958,-16.5"/>
<polygon fill="none" stroke="#666666" points="922,0 922,-49 1036,-49 1036,0 922,0"/>
</a>
</g>
</g>
<!-- Node19&#45;&gt;Node20 -->
<g id="edge19_Node000019_Node000020" class="edge">
<title>Node19&#45;&gt;Node20</title>
<g id="a_edge19_Node000019_Node000020"><a xlink:title=" ">
<path fill="none" stroke="#63b8ff" d="M979,-89.82C979,-75.7 979,-60.92 979,-49.09"/>
<polygon fill="none" stroke="#63b8ff" points="975.5,-89.93 979,-99.93 982.5,-89.93 975.5,-89.93"/>
</a>
</g>
</g>
</g>
</svg>
