<?xml version="1.0" encoding="UTF-8" standalone="no"?>
<!DOCTYPE svg PUBLIC "-//W3C//DTD SVG 1.1//EN"
 "http://www.w3.org/Graphics/SVG/1.1/DTD/svg11.dtd">
<!-- Generated by graphviz version 2.43.0 (0)
 -->
<!-- Title: XML::bpmn::tSubProcess Pages: 1 -->
<svg width="482pt" height="1263pt"
 viewBox="0.00 0.00 481.50 1263.00" xmlns="http://www.w3.org/2000/svg" xmlns:xlink="http://www.w3.org/1999/xlink">
<g id="graph0" class="graph" transform="scale(1 1) rotate(0) translate(4 1259)">
<title>XML::bpmn::tSubProcess</title>
<!-- Node1 -->
<g id="node1" class="node">
<title>Node1</title>
<g id="a_node1"><a xlink:title=" ">
<polygon fill="#bfbfbf" stroke="black" points="165.5,-221.5 165.5,-322.5 302.5,-322.5 302.5,-221.5 165.5,-221.5"/>
<text text-anchor="middle" x="234" y="-310.5" font-family="Helvetica,sans-Serif" font-size="10.00">XML::bpmn::tSubProcess</text>
<polyline fill="none" stroke="black" points="165.5,-303.5 302.5,-303.5 "/>
<text text-anchor="start" x="173.5" y="-291.5" font-family="Helvetica,sans-Serif" font-size="10.00">+ laneSet</text>
<text text-anchor="start" x="173.5" y="-280.5" font-family="Helvetica,sans-Serif" font-size="10.00">+ flowElement</text>
<text text-anchor="start" x="173.5" y="-269.5" font-family="Helvetica,sans-Serif" font-size="10.00">+ artifact</text>
<text text-anchor="start" x="173.5" y="-258.5" font-family="Helvetica,sans-Serif" font-size="10.00">+ triggeredByEvent</text>
<text text-anchor="start" x="173.5" y="-247.5" font-family="Helvetica,sans-Serif" font-size="10.00">+ defaults</text>
<polyline fill="none" stroke="black" points="165.5,-240.5 302.5,-240.5 "/>
<text text-anchor="start" x="173.5" y="-228.5" font-family="Helvetica,sans-Serif" font-size="10.00"># tSubProcess()</text>
</a>
</g>
</g>
<!-- Node7 -->
<g id="node7" class="node">
<title>Node7</title>
<g id="a_node7"><a xlink:href="classXML_1_1bpmn_1_1subProcess.html" target="_top" xlink:title=" ">
<polygon fill="none" stroke="black" points="0,-111 0,-168 132,-168 132,-111 0,-111"/>
<text text-anchor="middle" x="66" y="-156" font-family="Helvetica,sans-Serif" font-size="10.00">XML::bpmn::subProcess</text>
<polyline fill="none" stroke="black" points="0,-149 132,-149 "/>
<text text-anchor="start" x="8" y="-137" font-family="Helvetica,sans-Serif" font-size="10.00">+ defaults</text>
<polyline fill="none" stroke="black" points="0,-130 132,-130 "/>
<text text-anchor="start" x="8" y="-118" font-family="Helvetica,sans-Serif" font-size="10.00"># subProcess()</text>
</a>
</g>
</g>
<!-- Node1&#45;&gt;Node7 -->
<g id="edge6" class="edge">
<title>Node1&#45;&gt;Node7</title>
<path fill="none" stroke="midnightblue" d="M162.06,-215.12C141.15,-198.88 119.23,-181.85 101.62,-168.17"/>
<polygon fill="none" stroke="midnightblue" points="159.96,-217.92 170.01,-221.29 164.26,-212.39 159.96,-217.92"/>
</g>
<!-- Node8 -->
<g id="node8" class="node">
<title>Node8</title>
<g id="a_node8"><a xlink:href="classXML_1_1bpmn_1_1tAdHocSubProcess.html" target="_top" xlink:title=" ">
<polygon fill="none" stroke="black" points="150,-94.5 150,-184.5 318,-184.5 318,-94.5 150,-94.5"/>
<text text-anchor="middle" x="234" y="-172.5" font-family="Helvetica,sans-Serif" font-size="10.00">XML::bpmn::tAdHocSubProcess</text>
<polyline fill="none" stroke="black" points="150,-165.5 318,-165.5 "/>
<text text-anchor="start" x="158" y="-153.5" font-family="Helvetica,sans-Serif" font-size="10.00">+ completionCondition</text>
<text text-anchor="start" x="158" y="-142.5" font-family="Helvetica,sans-Serif" font-size="10.00">+ cancelRemainingInstances</text>
<text text-anchor="start" x="158" y="-131.5" font-family="Helvetica,sans-Serif" font-size="10.00">+ ordering</text>
<text text-anchor="start" x="158" y="-120.5" font-family="Helvetica,sans-Serif" font-size="10.00">+ defaults</text>
<polyline fill="none" stroke="black" points="150,-113.5 318,-113.5 "/>
<text text-anchor="start" x="158" y="-101.5" font-family="Helvetica,sans-Serif" font-size="10.00"># tAdHocSubProcess()</text>
</a>
</g>
</g>
<!-- Node1&#45;&gt;Node8 -->
<g id="edge7" class="edge">
<title>Node1&#45;&gt;Node8</title>
<path fill="none" stroke="midnightblue" d="M234,-211.23C234,-202.24 234,-193.1 234,-184.52"/>
<polygon fill="none" stroke="midnightblue" points="230.5,-211.29 234,-221.29 237.5,-211.29 230.5,-211.29"/>
</g>
<!-- Node10 -->
<g id="node10" class="node">
<title>Node10</title>
<g id="a_node10"><a xlink:href="classXML_1_1bpmn_1_1tTransaction.html" target="_top" xlink:title=" ">
<polygon fill="none" stroke="black" points="336.5,-105.5 336.5,-173.5 473.5,-173.5 473.5,-105.5 336.5,-105.5"/>
<text text-anchor="middle" x="405" y="-161.5" font-family="Helvetica,sans-Serif" font-size="10.00">XML::bpmn::tTransaction</text>
<polyline fill="none" stroke="black" points="336.5,-154.5 473.5,-154.5 "/>
<text text-anchor="start" x="344.5" y="-142.5" font-family="Helvetica,sans-Serif" font-size="10.00">+ method</text>
<text text-anchor="start" x="344.5" y="-131.5" font-family="Helvetica,sans-Serif" font-size="10.00">+ defaults</text>
<polyline fill="none" stroke="black" points="336.5,-124.5 473.5,-124.5 "/>
<text text-anchor="start" x="344.5" y="-112.5" font-family="Helvetica,sans-Serif" font-size="10.00"># tTransaction()</text>
</a>
</g>
</g>
<!-- Node1&#45;&gt;Node10 -->
<g id="edge9" class="edge">
<title>Node1&#45;&gt;Node10</title>
<path fill="none" stroke="midnightblue" d="M307.56,-214.86C326.05,-200.75 345.29,-186.06 361.75,-173.51"/>
<polygon fill="none" stroke="midnightblue" points="304.96,-212.44 299.14,-221.29 309.21,-218.01 304.96,-212.44"/>
</g>
<!-- Node2 -->
<g id="node2" class="node">
<title>Node2</title>
<g id="a_node2"><a xlink:href="classXML_1_1bpmn_1_1tActivity.html" target="_top" xlink:title=" ">
<polygon fill="none" stroke="black" points="164.5,-359.5 164.5,-526.5 303.5,-526.5 303.5,-359.5 164.5,-359.5"/>
<text text-anchor="middle" x="234" y="-514.5" font-family="Helvetica,sans-Serif" font-size="10.00">XML::bpmn::tActivity</text>
<polyline fill="none" stroke="black" points="164.5,-507.5 303.5,-507.5 "/>
<text text-anchor="start" x="172.5" y="-495.5" font-family="Helvetica,sans-Serif" font-size="10.00">+ ioSpecification</text>
<text text-anchor="start" x="172.5" y="-484.5" font-family="Helvetica,sans-Serif" font-size="10.00">+ property</text>
<text text-anchor="start" x="172.5" y="-473.5" font-family="Helvetica,sans-Serif" font-size="10.00">+ dataInputAssociation</text>
<text text-anchor="start" x="172.5" y="-462.5" font-family="Helvetica,sans-Serif" font-size="10.00">+ dataOutputAssociation</text>
<text text-anchor="start" x="172.5" y="-451.5" font-family="Helvetica,sans-Serif" font-size="10.00">+ resourceRole</text>
<text text-anchor="start" x="172.5" y="-440.5" font-family="Helvetica,sans-Serif" font-size="10.00">+ loopCharacteristics</text>
<text text-anchor="start" x="172.5" y="-429.5" font-family="Helvetica,sans-Serif" font-size="10.00">+ isForCompensation</text>
<text text-anchor="start" x="172.5" y="-418.5" font-family="Helvetica,sans-Serif" font-size="10.00">+ startQuantity</text>
<text text-anchor="start" x="172.5" y="-407.5" font-family="Helvetica,sans-Serif" font-size="10.00">+ completionQuantity</text>
<text text-anchor="start" x="172.5" y="-396.5" font-family="Helvetica,sans-Serif" font-size="10.00">+ default_</text>
<text text-anchor="start" x="172.5" y="-385.5" font-family="Helvetica,sans-Serif" font-size="10.00">+ defaults</text>
<polyline fill="none" stroke="black" points="164.5,-378.5 303.5,-378.5 "/>
<text text-anchor="start" x="172.5" y="-366.5" font-family="Helvetica,sans-Serif" font-size="10.00"># tActivity()</text>
</a>
</g>
</g>
<!-- Node2&#45;&gt;Node1 -->
<g id="edge1" class="edge">
<title>Node2&#45;&gt;Node1</title>
<path fill="none" stroke="midnightblue" d="M234,-349.47C234,-340.28 234,-331.21 234,-322.71"/>
<polygon fill="none" stroke="midnightblue" points="230.5,-349.48 234,-359.48 237.5,-349.48 230.5,-349.48"/>
</g>
<!-- Node3 -->
<g id="node3" class="node">
<title>Node3</title>
<g id="a_node3"><a xlink:href="classXML_1_1bpmn_1_1tFlowNode.html" target="_top" xlink:title=" ">
<polygon fill="none" stroke="black" points="169,-563.5 169,-642.5 299,-642.5 299,-563.5 169,-563.5"/>
<text text-anchor="middle" x="234" y="-630.5" font-family="Helvetica,sans-Serif" font-size="10.00">XML::bpmn::tFlowNode</text>
<polyline fill="none" stroke="black" points="169,-623.5 299,-623.5 "/>
<text text-anchor="start" x="177" y="-611.5" font-family="Helvetica,sans-Serif" font-size="10.00">+ incoming</text>
<text text-anchor="start" x="177" y="-600.5" font-family="Helvetica,sans-Serif" font-size="10.00">+ outgoing</text>
<text text-anchor="start" x="177" y="-589.5" font-family="Helvetica,sans-Serif" font-size="10.00">+ defaults</text>
<polyline fill="none" stroke="black" points="169,-582.5 299,-582.5 "/>
<text text-anchor="start" x="177" y="-570.5" font-family="Helvetica,sans-Serif" font-size="10.00"># tFlowNode()</text>
</a>
</g>
</g>
<!-- Node3&#45;&gt;Node2 -->
<g id="edge2" class="edge">
<title>Node3&#45;&gt;Node2</title>
<path fill="none" stroke="midnightblue" d="M234,-553.26C234,-544.74 234,-535.67 234,-526.53"/>
<polygon fill="none" stroke="midnightblue" points="230.5,-553.35 234,-563.35 237.5,-553.35 230.5,-553.35"/>
</g>
<!-- Node4 -->
<g id="node4" class="node">
<title>Node4</title>
<g id="a_node4"><a xlink:href="classXML_1_1bpmn_1_1tFlowElement.html" target="_top" xlink:title=" ">
<polygon fill="none" stroke="black" points="161.5,-679.5 161.5,-780.5 306.5,-780.5 306.5,-679.5 161.5,-679.5"/>
<text text-anchor="middle" x="234" y="-768.5" font-family="Helvetica,sans-Serif" font-size="10.00">XML::bpmn::tFlowElement</text>
<polyline fill="none" stroke="black" points="161.5,-761.5 306.5,-761.5 "/>
<text text-anchor="start" x="169.5" y="-749.5" font-family="Helvetica,sans-Serif" font-size="10.00">+ auditing</text>
<text text-anchor="start" x="169.5" y="-738.5" font-family="Helvetica,sans-Serif" font-size="10.00">+ monitoring</text>
<text text-anchor="start" x="169.5" y="-727.5" font-family="Helvetica,sans-Serif" font-size="10.00">+ categoryValueRef</text>
<text text-anchor="start" x="169.5" y="-716.5" font-family="Helvetica,sans-Serif" font-size="10.00">+ name</text>
<text text-anchor="start" x="169.5" y="-705.5" font-family="Helvetica,sans-Serif" font-size="10.00">+ defaults</text>
<polyline fill="none" stroke="black" points="161.5,-698.5 306.5,-698.5 "/>
<text text-anchor="start" x="169.5" y="-686.5" font-family="Helvetica,sans-Serif" font-size="10.00"># tFlowElement()</text>
</a>
</g>
</g>
<!-- Node4&#45;&gt;Node3 -->
<g id="edge3" class="edge">
<title>Node4&#45;&gt;Node3</title>
<path fill="none" stroke="midnightblue" d="M234,-669.19C234,-660.22 234,-651.18 234,-642.81"/>
<polygon fill="none" stroke="midnightblue" points="230.5,-669.24 234,-679.24 237.5,-669.24 230.5,-669.24"/>
</g>
<!-- Node5 -->
<g id="node5" class="node">
<title>Node5</title>
<g id="a_node5"><a xlink:href="classXML_1_1bpmn_1_1tBaseElement.html" target="_top" xlink:title=" ">
<polygon fill="none" stroke="black" points="161,-817.5 161,-907.5 307,-907.5 307,-817.5 161,-817.5"/>
<text text-anchor="middle" x="234" y="-895.5" font-family="Helvetica,sans-Serif" font-size="10.00">XML::bpmn::tBaseElement</text>
<polyline fill="none" stroke="black" points="161,-888.5 307,-888.5 "/>
<text text-anchor="start" x="169" y="-876.5" font-family="Helvetica,sans-Serif" font-size="10.00">+ documentation</text>
<text text-anchor="start" x="169" y="-865.5" font-family="Helvetica,sans-Serif" font-size="10.00">+ extensionElements</text>
<text text-anchor="start" x="169" y="-854.5" font-family="Helvetica,sans-Serif" font-size="10.00">+ id</text>
<text text-anchor="start" x="169" y="-843.5" font-family="Helvetica,sans-Serif" font-size="10.00">+ defaults</text>
<polyline fill="none" stroke="black" points="161,-836.5 307,-836.5 "/>
<text text-anchor="start" x="169" y="-824.5" font-family="Helvetica,sans-Serif" font-size="10.00"># tBaseElement()</text>
</a>
</g>
</g>
<!-- Node5&#45;&gt;Node4 -->
<g id="edge4" class="edge">
<title>Node5&#45;&gt;Node4</title>
<path fill="none" stroke="midnightblue" d="M234,-807.13C234,-798.31 234,-789.22 234,-780.52"/>
<polygon fill="none" stroke="midnightblue" points="230.5,-807.32 234,-817.32 237.5,-807.32 230.5,-807.32"/>
</g>
<!-- Node6 -->
<g id="node6" class="node">
<title>Node6</title>
<g id="a_node6"><a xlink:href="classXML_1_1XMLObject.html" target="_top" xlink:title="A class representing a node in an XML&#45;tree.">
<polygon fill="none" stroke="black" points="171,-944.5 171,-1254.5 297,-1254.5 297,-944.5 171,-944.5"/>
<text text-anchor="middle" x="234" y="-1242.5" font-family="Helvetica,sans-Serif" font-size="10.00">XML::XMLObject</text>
<polyline fill="none" stroke="black" points="171,-1235.5 297,-1235.5 "/>
<text text-anchor="start" x="179" y="-1223.5" font-family="Helvetica,sans-Serif" font-size="10.00">+ xmlns</text>
<text text-anchor="start" x="179" y="-1212.5" font-family="Helvetica,sans-Serif" font-size="10.00">+ className</text>
<text text-anchor="start" x="179" y="-1201.5" font-family="Helvetica,sans-Serif" font-size="10.00">+ prefix</text>
<text text-anchor="start" x="179" y="-1190.5" font-family="Helvetica,sans-Serif" font-size="10.00">+ elementName</text>
<text text-anchor="start" x="179" y="-1179.5" font-family="Helvetica,sans-Serif" font-size="10.00">+ textContent</text>
<text text-anchor="start" x="179" y="-1168.5" font-family="Helvetica,sans-Serif" font-size="10.00">+ children</text>
<text text-anchor="start" x="179" y="-1157.5" font-family="Helvetica,sans-Serif" font-size="10.00">+ attributes</text>
<text text-anchor="start" x="179" y="-1146.5" font-family="Helvetica,sans-Serif" font-size="10.00">+ defaults</text>
<text text-anchor="start" x="179" y="-1135.5" font-family="Helvetica,sans-Serif" font-size="10.00"># factory</text>
<polyline fill="none" stroke="black" points="171,-1128.5 297,-1128.5 "/>
<text text-anchor="start" x="179" y="-1116.5" font-family="Helvetica,sans-Serif" font-size="10.00">+ ~XMLObject()</text>
<text text-anchor="start" x="179" y="-1105.5" font-family="Helvetica,sans-Serif" font-size="10.00">+ is()</text>
<text text-anchor="start" x="179" y="-1094.5" font-family="Helvetica,sans-Serif" font-size="10.00">+ is()</text>
<text text-anchor="start" x="179" y="-1083.5" font-family="Helvetica,sans-Serif" font-size="10.00">+ get()</text>
<text text-anchor="start" x="179" y="-1072.5" font-family="Helvetica,sans-Serif" font-size="10.00">+ get()</text>
<text text-anchor="start" x="179" y="-1061.5" font-family="Helvetica,sans-Serif" font-size="10.00">+ find()</text>
<text text-anchor="start" x="179" y="-1050.5" font-family="Helvetica,sans-Serif" font-size="10.00">+ find()</text>
<text text-anchor="start" x="179" y="-1039.5" font-family="Helvetica,sans-Serif" font-size="10.00">+ stringify()</text>
<text text-anchor="start" x="179" y="-1028.5" font-family="Helvetica,sans-Serif" font-size="10.00">+ getRequiredChild()</text>
<text text-anchor="start" x="179" y="-1017.5" font-family="Helvetica,sans-Serif" font-size="10.00">+ getOptionalChild()</text>
<text text-anchor="start" x="179" y="-1006.5" font-family="Helvetica,sans-Serif" font-size="10.00">and 6 more...</text>
<text text-anchor="start" x="179" y="-995.5" font-family="Helvetica,sans-Serif" font-size="10.00">+ createFromStream()</text>
<text text-anchor="start" x="179" y="-984.5" font-family="Helvetica,sans-Serif" font-size="10.00">+ createFromString()</text>
<text text-anchor="start" x="179" y="-973.5" font-family="Helvetica,sans-Serif" font-size="10.00">+ createFromFile()</text>
<text text-anchor="start" x="179" y="-962.5" font-family="Helvetica,sans-Serif" font-size="10.00"># XMLObject()</text>
<text text-anchor="start" x="179" y="-951.5" font-family="Helvetica,sans-Serif" font-size="10.00"># createObject()</text>
</a>
</g>
</g>
<!-- Node6&#45;&gt;Node5 -->
<g id="edge5" class="edge">
<title>Node6&#45;&gt;Node5</title>
<path fill="none" stroke="midnightblue" d="M234,-934.35C234,-924.89 234,-915.91 234,-907.72"/>
<polygon fill="none" stroke="midnightblue" points="230.5,-934.37 234,-944.37 237.5,-934.37 230.5,-934.37"/>
</g>
<!-- Node9 -->
<g id="node9" class="node">
<title>Node9</title>
<g id="a_node9"><a xlink:href="classXML_1_1bpmn_1_1adHocSubProcess.html" target="_top" xlink:title=" ">
<polygon fill="none" stroke="black" points="152,-0.5 152,-57.5 316,-57.5 316,-0.5 152,-0.5"/>
<text text-anchor="middle" x="234" y="-45.5" font-family="Helvetica,sans-Serif" font-size="10.00">XML::bpmn::adHocSubProcess</text>
<polyline fill="none" stroke="black" points="152,-38.5 316,-38.5 "/>
<text text-anchor="start" x="160" y="-26.5" font-family="Helvetica,sans-Serif" font-size="10.00">+ defaults</text>
<polyline fill="none" stroke="black" points="152,-19.5 316,-19.5 "/>
<text text-anchor="start" x="160" y="-7.5" font-family="Helvetica,sans-Serif" font-size="10.00"># adHocSubProcess()</text>
</a>
</g>
</g>
<!-- Node8&#45;&gt;Node9 -->
<g id="edge8" class="edge">
<title>Node8&#45;&gt;Node9</title>
<path fill="none" stroke="midnightblue" d="M234,-84.35C234,-75.07 234,-65.79 234,-57.59"/>
<polygon fill="none" stroke="midnightblue" points="230.5,-84.37 234,-94.37 237.5,-84.37 230.5,-84.37"/>
</g>
<!-- Node11 -->
<g id="node11" class="node">
<title>Node11</title>
<g id="a_node11"><a xlink:href="classXML_1_1bpmn_1_1transaction.html" target="_top" xlink:title=" ">
<polygon fill="none" stroke="black" points="339,-0.5 339,-57.5 471,-57.5 471,-0.5 339,-0.5"/>
<text text-anchor="middle" x="405" y="-45.5" font-family="Helvetica,sans-Serif" font-size="10.00">XML::bpmn::transaction</text>
<polyline fill="none" stroke="black" points="339,-38.5 471,-38.5 "/>
<text text-anchor="start" x="347" y="-26.5" font-family="Helvetica,sans-Serif" font-size="10.00">+ defaults</text>
<polyline fill="none" stroke="black" points="339,-19.5 471,-19.5 "/>
<text text-anchor="start" x="347" y="-7.5" font-family="Helvetica,sans-Serif" font-size="10.00"># transaction()</text>
</a>
</g>
</g>
<!-- Node10&#45;&gt;Node11 -->
<g id="edge10" class="edge">
<title>Node10&#45;&gt;Node11</title>
<path fill="none" stroke="midnightblue" d="M405,-95.06C405,-82.51 405,-69.15 405,-57.83"/>
<polygon fill="none" stroke="midnightblue" points="401.5,-95.36 405,-105.36 408.5,-95.36 401.5,-95.36"/>
</g>
</g>
</svg>
