<?xml version="1.0" encoding="UTF-8" standalone="no"?>
<!DOCTYPE svg PUBLIC "-//W3C//DTD SVG 1.1//EN"
 "http://www.w3.org/Graphics/SVG/1.1/DTD/svg11.dtd">
<!-- Generated by graphviz version 2.43.0 (0)
 -->
<!-- Title: XML::bpmn::manualTask Pages: 1 -->
<svg width="154pt" height="1186pt"
 viewBox="0.00 0.00 154.00 1186.00" xmlns="http://www.w3.org/2000/svg" xmlns:xlink="http://www.w3.org/1999/xlink">
<g id="graph0" class="graph" transform="scale(1 1) rotate(0) translate(4 1182)">
<title>XML::bpmn::manualTask</title>
<!-- Node1 -->
<g id="node1" class="node">
<title>Node1</title>
<g id="a_node1"><a xlink:title=" ">
<polygon fill="#bfbfbf" stroke="black" points="5,-0.5 5,-57.5 141,-57.5 141,-0.5 5,-0.5"/>
<text text-anchor="middle" x="73" y="-45.5" font-family="Helvetica,sans-Serif" font-size="10.00">XML::bpmn::manualTask</text>
<polyline fill="none" stroke="black" points="5,-38.5 141,-38.5 "/>
<text text-anchor="start" x="13" y="-26.5" font-family="Helvetica,sans-Serif" font-size="10.00">+ defaults</text>
<polyline fill="none" stroke="black" points="5,-19.5 141,-19.5 "/>
<text text-anchor="start" x="13" y="-7.5" font-family="Helvetica,sans-Serif" font-size="10.00"># manualTask()</text>
</a>
</g>
</g>
<!-- Node2 -->
<g id="node2" class="node">
<title>Node2</title>
<g id="a_node2"><a xlink:href="classXML_1_1bpmn_1_1tManualTask.html" target="_top" xlink:title=" ">
<polygon fill="none" stroke="black" points="3.5,-94.5 3.5,-151.5 142.5,-151.5 142.5,-94.5 3.5,-94.5"/>
<text text-anchor="middle" x="73" y="-139.5" font-family="Helvetica,sans-Serif" font-size="10.00">XML::bpmn::tManualTask</text>
<polyline fill="none" stroke="black" points="3.5,-132.5 142.5,-132.5 "/>
<text text-anchor="start" x="11.5" y="-120.5" font-family="Helvetica,sans-Serif" font-size="10.00">+ defaults</text>
<polyline fill="none" stroke="black" points="3.5,-113.5 142.5,-113.5 "/>
<text text-anchor="start" x="11.5" y="-101.5" font-family="Helvetica,sans-Serif" font-size="10.00"># tManualTask()</text>
</a>
</g>
</g>
<!-- Node2&#45;&gt;Node1 -->
<g id="edge1" class="edge">
<title>Node2&#45;&gt;Node1</title>
<path fill="none" stroke="midnightblue" d="M73,-84.21C73,-75.29 73,-65.95 73,-57.58"/>
<polygon fill="none" stroke="midnightblue" points="69.5,-84.4 73,-94.4 76.5,-84.4 69.5,-84.4"/>
</g>
<!-- Node3 -->
<g id="node3" class="node">
<title>Node3</title>
<g id="a_node3"><a xlink:href="classXML_1_1bpmn_1_1tTask.html" target="_top" xlink:title=" ">
<polygon fill="none" stroke="black" points="21.5,-188.5 21.5,-245.5 124.5,-245.5 124.5,-188.5 21.5,-188.5"/>
<text text-anchor="middle" x="73" y="-233.5" font-family="Helvetica,sans-Serif" font-size="10.00">XML::bpmn::tTask</text>
<polyline fill="none" stroke="black" points="21.5,-226.5 124.5,-226.5 "/>
<text text-anchor="start" x="29.5" y="-214.5" font-family="Helvetica,sans-Serif" font-size="10.00">+ defaults</text>
<polyline fill="none" stroke="black" points="21.5,-207.5 124.5,-207.5 "/>
<text text-anchor="start" x="29.5" y="-195.5" font-family="Helvetica,sans-Serif" font-size="10.00"># tTask()</text>
</a>
</g>
</g>
<!-- Node3&#45;&gt;Node2 -->
<g id="edge2" class="edge">
<title>Node3&#45;&gt;Node2</title>
<path fill="none" stroke="midnightblue" d="M73,-178.21C73,-169.29 73,-159.95 73,-151.58"/>
<polygon fill="none" stroke="midnightblue" points="69.5,-178.4 73,-188.4 76.5,-178.4 69.5,-178.4"/>
</g>
<!-- Node4 -->
<g id="node4" class="node">
<title>Node4</title>
<g id="a_node4"><a xlink:href="classXML_1_1bpmn_1_1tActivity.html" target="_top" xlink:title=" ">
<polygon fill="none" stroke="black" points="3.5,-282.5 3.5,-449.5 142.5,-449.5 142.5,-282.5 3.5,-282.5"/>
<text text-anchor="middle" x="73" y="-437.5" font-family="Helvetica,sans-Serif" font-size="10.00">XML::bpmn::tActivity</text>
<polyline fill="none" stroke="black" points="3.5,-430.5 142.5,-430.5 "/>
<text text-anchor="start" x="11.5" y="-418.5" font-family="Helvetica,sans-Serif" font-size="10.00">+ ioSpecification</text>
<text text-anchor="start" x="11.5" y="-407.5" font-family="Helvetica,sans-Serif" font-size="10.00">+ property</text>
<text text-anchor="start" x="11.5" y="-396.5" font-family="Helvetica,sans-Serif" font-size="10.00">+ dataInputAssociation</text>
<text text-anchor="start" x="11.5" y="-385.5" font-family="Helvetica,sans-Serif" font-size="10.00">+ dataOutputAssociation</text>
<text text-anchor="start" x="11.5" y="-374.5" font-family="Helvetica,sans-Serif" font-size="10.00">+ resourceRole</text>
<text text-anchor="start" x="11.5" y="-363.5" font-family="Helvetica,sans-Serif" font-size="10.00">+ loopCharacteristics</text>
<text text-anchor="start" x="11.5" y="-352.5" font-family="Helvetica,sans-Serif" font-size="10.00">+ isForCompensation</text>
<text text-anchor="start" x="11.5" y="-341.5" font-family="Helvetica,sans-Serif" font-size="10.00">+ startQuantity</text>
<text text-anchor="start" x="11.5" y="-330.5" font-family="Helvetica,sans-Serif" font-size="10.00">+ completionQuantity</text>
<text text-anchor="start" x="11.5" y="-319.5" font-family="Helvetica,sans-Serif" font-size="10.00">+ default_</text>
<text text-anchor="start" x="11.5" y="-308.5" font-family="Helvetica,sans-Serif" font-size="10.00">+ defaults</text>
<polyline fill="none" stroke="black" points="3.5,-301.5 142.5,-301.5 "/>
<text text-anchor="start" x="11.5" y="-289.5" font-family="Helvetica,sans-Serif" font-size="10.00"># tActivity()</text>
</a>
</g>
</g>
<!-- Node4&#45;&gt;Node3 -->
<g id="edge3" class="edge">
<title>Node4&#45;&gt;Node3</title>
<path fill="none" stroke="midnightblue" d="M73,-272.36C73,-262.79 73,-253.68 73,-245.75"/>
<polygon fill="none" stroke="midnightblue" points="69.5,-272.48 73,-282.48 76.5,-272.48 69.5,-272.48"/>
</g>
<!-- Node5 -->
<g id="node5" class="node">
<title>Node5</title>
<g id="a_node5"><a xlink:href="classXML_1_1bpmn_1_1tFlowNode.html" target="_top" xlink:title=" ">
<polygon fill="none" stroke="black" points="8,-486.5 8,-565.5 138,-565.5 138,-486.5 8,-486.5"/>
<text text-anchor="middle" x="73" y="-553.5" font-family="Helvetica,sans-Serif" font-size="10.00">XML::bpmn::tFlowNode</text>
<polyline fill="none" stroke="black" points="8,-546.5 138,-546.5 "/>
<text text-anchor="start" x="16" y="-534.5" font-family="Helvetica,sans-Serif" font-size="10.00">+ incoming</text>
<text text-anchor="start" x="16" y="-523.5" font-family="Helvetica,sans-Serif" font-size="10.00">+ outgoing</text>
<text text-anchor="start" x="16" y="-512.5" font-family="Helvetica,sans-Serif" font-size="10.00">+ defaults</text>
<polyline fill="none" stroke="black" points="8,-505.5 138,-505.5 "/>
<text text-anchor="start" x="16" y="-493.5" font-family="Helvetica,sans-Serif" font-size="10.00"># tFlowNode()</text>
</a>
</g>
</g>
<!-- Node5&#45;&gt;Node4 -->
<g id="edge4" class="edge">
<title>Node5&#45;&gt;Node4</title>
<path fill="none" stroke="midnightblue" d="M73,-476.26C73,-467.74 73,-458.67 73,-449.53"/>
<polygon fill="none" stroke="midnightblue" points="69.5,-476.35 73,-486.35 76.5,-476.35 69.5,-476.35"/>
</g>
<!-- Node6 -->
<g id="node6" class="node">
<title>Node6</title>
<g id="a_node6"><a xlink:href="classXML_1_1bpmn_1_1tFlowElement.html" target="_top" xlink:title=" ">
<polygon fill="none" stroke="black" points="0.5,-602.5 0.5,-703.5 145.5,-703.5 145.5,-602.5 0.5,-602.5"/>
<text text-anchor="middle" x="73" y="-691.5" font-family="Helvetica,sans-Serif" font-size="10.00">XML::bpmn::tFlowElement</text>
<polyline fill="none" stroke="black" points="0.5,-684.5 145.5,-684.5 "/>
<text text-anchor="start" x="8.5" y="-672.5" font-family="Helvetica,sans-Serif" font-size="10.00">+ auditing</text>
<text text-anchor="start" x="8.5" y="-661.5" font-family="Helvetica,sans-Serif" font-size="10.00">+ monitoring</text>
<text text-anchor="start" x="8.5" y="-650.5" font-family="Helvetica,sans-Serif" font-size="10.00">+ categoryValueRef</text>
<text text-anchor="start" x="8.5" y="-639.5" font-family="Helvetica,sans-Serif" font-size="10.00">+ name</text>
<text text-anchor="start" x="8.5" y="-628.5" font-family="Helvetica,sans-Serif" font-size="10.00">+ defaults</text>
<polyline fill="none" stroke="black" points="0.5,-621.5 145.5,-621.5 "/>
<text text-anchor="start" x="8.5" y="-609.5" font-family="Helvetica,sans-Serif" font-size="10.00"># tFlowElement()</text>
</a>
</g>
</g>
<!-- Node6&#45;&gt;Node5 -->
<g id="edge5" class="edge">
<title>Node6&#45;&gt;Node5</title>
<path fill="none" stroke="midnightblue" d="M73,-592.19C73,-583.22 73,-574.18 73,-565.81"/>
<polygon fill="none" stroke="midnightblue" points="69.5,-592.24 73,-602.24 76.5,-592.24 69.5,-592.24"/>
</g>
<!-- Node7 -->
<g id="node7" class="node">
<title>Node7</title>
<g id="a_node7"><a xlink:href="classXML_1_1bpmn_1_1tBaseElement.html" target="_top" xlink:title=" ">
<polygon fill="none" stroke="black" points="0,-740.5 0,-830.5 146,-830.5 146,-740.5 0,-740.5"/>
<text text-anchor="middle" x="73" y="-818.5" font-family="Helvetica,sans-Serif" font-size="10.00">XML::bpmn::tBaseElement</text>
<polyline fill="none" stroke="black" points="0,-811.5 146,-811.5 "/>
<text text-anchor="start" x="8" y="-799.5" font-family="Helvetica,sans-Serif" font-size="10.00">+ documentation</text>
<text text-anchor="start" x="8" y="-788.5" font-family="Helvetica,sans-Serif" font-size="10.00">+ extensionElements</text>
<text text-anchor="start" x="8" y="-777.5" font-family="Helvetica,sans-Serif" font-size="10.00">+ id</text>
<text text-anchor="start" x="8" y="-766.5" font-family="Helvetica,sans-Serif" font-size="10.00">+ defaults</text>
<polyline fill="none" stroke="black" points="0,-759.5 146,-759.5 "/>
<text text-anchor="start" x="8" y="-747.5" font-family="Helvetica,sans-Serif" font-size="10.00"># tBaseElement()</text>
</a>
</g>
</g>
<!-- Node7&#45;&gt;Node6 -->
<g id="edge6" class="edge">
<title>Node7&#45;&gt;Node6</title>
<path fill="none" stroke="midnightblue" d="M73,-730.13C73,-721.31 73,-712.22 73,-703.52"/>
<polygon fill="none" stroke="midnightblue" points="69.5,-730.32 73,-740.32 76.5,-730.32 69.5,-730.32"/>
</g>
<!-- Node8 -->
<g id="node8" class="node">
<title>Node8</title>
<g id="a_node8"><a xlink:href="classXML_1_1XMLObject.html" target="_top" xlink:title="A class representing a node in an XML&#45;tree.">
<polygon fill="none" stroke="black" points="10,-867.5 10,-1177.5 136,-1177.5 136,-867.5 10,-867.5"/>
<text text-anchor="middle" x="73" y="-1165.5" font-family="Helvetica,sans-Serif" font-size="10.00">XML::XMLObject</text>
<polyline fill="none" stroke="black" points="10,-1158.5 136,-1158.5 "/>
<text text-anchor="start" x="18" y="-1146.5" font-family="Helvetica,sans-Serif" font-size="10.00">+ xmlns</text>
<text text-anchor="start" x="18" y="-1135.5" font-family="Helvetica,sans-Serif" font-size="10.00">+ className</text>
<text text-anchor="start" x="18" y="-1124.5" font-family="Helvetica,sans-Serif" font-size="10.00">+ prefix</text>
<text text-anchor="start" x="18" y="-1113.5" font-family="Helvetica,sans-Serif" font-size="10.00">+ elementName</text>
<text text-anchor="start" x="18" y="-1102.5" font-family="Helvetica,sans-Serif" font-size="10.00">+ textContent</text>
<text text-anchor="start" x="18" y="-1091.5" font-family="Helvetica,sans-Serif" font-size="10.00">+ children</text>
<text text-anchor="start" x="18" y="-1080.5" font-family="Helvetica,sans-Serif" font-size="10.00">+ attributes</text>
<text text-anchor="start" x="18" y="-1069.5" font-family="Helvetica,sans-Serif" font-size="10.00">+ defaults</text>
<text text-anchor="start" x="18" y="-1058.5" font-family="Helvetica,sans-Serif" font-size="10.00"># factory</text>
<polyline fill="none" stroke="black" points="10,-1051.5 136,-1051.5 "/>
<text text-anchor="start" x="18" y="-1039.5" font-family="Helvetica,sans-Serif" font-size="10.00">+ ~XMLObject()</text>
<text text-anchor="start" x="18" y="-1028.5" font-family="Helvetica,sans-Serif" font-size="10.00">+ is()</text>
<text text-anchor="start" x="18" y="-1017.5" font-family="Helvetica,sans-Serif" font-size="10.00">+ is()</text>
<text text-anchor="start" x="18" y="-1006.5" font-family="Helvetica,sans-Serif" font-size="10.00">+ get()</text>
<text text-anchor="start" x="18" y="-995.5" font-family="Helvetica,sans-Serif" font-size="10.00">+ get()</text>
<text text-anchor="start" x="18" y="-984.5" font-family="Helvetica,sans-Serif" font-size="10.00">+ find()</text>
<text text-anchor="start" x="18" y="-973.5" font-family="Helvetica,sans-Serif" font-size="10.00">+ find()</text>
<text text-anchor="start" x="18" y="-962.5" font-family="Helvetica,sans-Serif" font-size="10.00">+ stringify()</text>
<text text-anchor="start" x="18" y="-951.5" font-family="Helvetica,sans-Serif" font-size="10.00">+ format()</text>
<text text-anchor="start" x="18" y="-940.5" font-family="Helvetica,sans-Serif" font-size="10.00">+ getRequiredChild()</text>
<text text-anchor="start" x="18" y="-929.5" font-family="Helvetica,sans-Serif" font-size="10.00">and 7 more...</text>
<text text-anchor="start" x="18" y="-918.5" font-family="Helvetica,sans-Serif" font-size="10.00">+ createFromStream()</text>
<text text-anchor="start" x="18" y="-907.5" font-family="Helvetica,sans-Serif" font-size="10.00">+ createFromString()</text>
<text text-anchor="start" x="18" y="-896.5" font-family="Helvetica,sans-Serif" font-size="10.00">+ createFromFile()</text>
<text text-anchor="start" x="18" y="-885.5" font-family="Helvetica,sans-Serif" font-size="10.00"># XMLObject()</text>
<text text-anchor="start" x="18" y="-874.5" font-family="Helvetica,sans-Serif" font-size="10.00"># createObject()</text>
</a>
</g>
</g>
<!-- Node8&#45;&gt;Node7 -->
<g id="edge7" class="edge">
<title>Node8&#45;&gt;Node7</title>
<path fill="none" stroke="midnightblue" d="M73,-857.35C73,-847.89 73,-838.91 73,-830.72"/>
<polygon fill="none" stroke="midnightblue" points="69.5,-857.37 73,-867.37 76.5,-857.37 69.5,-857.37"/>
</g>
</g>
</svg>
