<?xml version="1.0" encoding="UTF-8" standalone="no"?>
<!DOCTYPE svg PUBLIC "-//W3C//DTD SVG 1.1//EN"
 "http://www.w3.org/Graphics/SVG/1.1/DTD/svg11.dtd">
<!-- Generated by graphviz version 2.43.0 (0)
 -->
<!-- Title: XML::bpmn::tLinkEventDefinition Pages: 1 -->
<svg width="178pt" height="917pt"
 viewBox="0.00 0.00 178.00 917.00" xmlns="http://www.w3.org/2000/svg" xmlns:xlink="http://www.w3.org/1999/xlink">
<g id="graph0" class="graph" transform="scale(1 1) rotate(0) translate(4 913)">
<title>XML::bpmn::tLinkEventDefinition</title>
<!-- Node1 -->
<g id="Node000001" class="node">
<title>Node1</title>
<g id="a_Node000001"><a xlink:title=" ">
<polygon fill="#999999" stroke="transparent" points="170,-179 0,-179 0,-85 170,-85 170,-179"/>
<text text-anchor="start" x="5" y="-167" font-family="Helvetica,sans-Serif" font-size="10.00">XML::bpmn::tLinkEventDefinition</text>
<text text-anchor="start" x="14.5" y="-152" font-family="Helvetica,sans-Serif" font-size="10.00">+</text>
<text text-anchor="start" x="38" y="-152" font-family="Helvetica,sans-Serif" font-size="10.00">source</text>
<text text-anchor="start" x="14.5" y="-137" font-family="Helvetica,sans-Serif" font-size="10.00">+</text>
<text text-anchor="start" x="38" y="-137" font-family="Helvetica,sans-Serif" font-size="10.00">target</text>
<text text-anchor="start" x="14.5" y="-122" font-family="Helvetica,sans-Serif" font-size="10.00">+</text>
<text text-anchor="start" x="38" y="-122" font-family="Helvetica,sans-Serif" font-size="10.00">name</text>
<text text-anchor="start" x="14.5" y="-107" font-family="Helvetica,sans-Serif" font-size="10.00">+</text>
<text text-anchor="start" x="38" y="-107" font-family="Helvetica,sans-Serif" font-size="10.00">defaults</text>
<text text-anchor="start" x="14.5" y="-92" font-family="Helvetica,sans-Serif" font-size="10.00">#</text>
<text text-anchor="start" x="38" y="-92" font-family="Helvetica,sans-Serif" font-size="10.00">tLinkEventDefinition()</text>
<polygon fill="#666666" stroke="#666666" points="0,-162 0,-162 170,-162 170,-162 0,-162"/>
<polygon fill="#666666" stroke="#666666" points="0,-102 0,-102 36,-102 36,-102 0,-102"/>
<polygon fill="#666666" stroke="#666666" points="36,-102 36,-102 170,-102 170,-102 36,-102"/>
<polygon fill="none" stroke="#666666" points="0,-85 0,-179 170,-179 170,-85 0,-85"/>
</a>
</g>
</g>
<!-- Node6 -->
<g id="Node000006" class="node">
<title>Node6</title>
<g id="a_Node000006"><a xlink:href="classXML_1_1bpmn_1_1linkEventDefinition.html" target="_top" xlink:title=" ">
<polygon fill="white" stroke="transparent" points="167,-49 3,-49 3,0 167,0 167,-49"/>
<text text-anchor="start" x="8" y="-36.5" font-family="Helvetica,sans-Serif" font-size="10.00">XML::bpmn::linkEventDefinition</text>
<text text-anchor="start" x="17.5" y="-21.5" font-family="Helvetica,sans-Serif" font-size="10.00">+</text>
<text text-anchor="start" x="41" y="-21.5" font-family="Helvetica,sans-Serif" font-size="10.00">defaults</text>
<text text-anchor="start" x="17.5" y="-6.5" font-family="Helvetica,sans-Serif" font-size="10.00">#</text>
<text text-anchor="start" x="41" y="-6.5" font-family="Helvetica,sans-Serif" font-size="10.00">linkEventDefinition()</text>
<polygon fill="#666666" stroke="#666666" points="3,-31.5 3,-31.5 167,-31.5 167,-31.5 3,-31.5"/>
<polygon fill="#666666" stroke="#666666" points="3,-16.5 3,-16.5 39,-16.5 39,-16.5 3,-16.5"/>
<polygon fill="#666666" stroke="#666666" points="39,-16.5 39,-16.5 167,-16.5 167,-16.5 39,-16.5"/>
<polygon fill="none" stroke="#666666" points="3,0 3,-49 167,-49 167,0 3,0"/>
</a>
</g>
</g>
<!-- Node1&#45;&gt;Node6 -->
<g id="edge5_Node000001_Node000006" class="edge">
<title>Node1&#45;&gt;Node6</title>
<g id="a_edge5_Node000001_Node000006"><a xlink:title=" ">
<path fill="none" stroke="#63b8ff" d="M85,-74.59C85,-65.62 85,-56.79 85,-49.15"/>
<polygon fill="none" stroke="#63b8ff" points="81.5,-74.73 85,-84.73 88.5,-74.73 81.5,-74.73"/>
</a>
</g>
</g>
<!-- Node2 -->
<g id="Node000002" class="node">
<title>Node2</title>
<g id="a_Node000002"><a xlink:href="classXML_1_1bpmn_1_1tEventDefinition.html" target="_top" xlink:title=" ">
<polygon fill="white" stroke="transparent" points="160,-264 10,-264 10,-215 160,-215 160,-264"/>
<text text-anchor="start" x="15" y="-251.5" font-family="Helvetica,sans-Serif" font-size="10.00">XML::bpmn::tEventDefinition</text>
<text text-anchor="start" x="24.5" y="-236.5" font-family="Helvetica,sans-Serif" font-size="10.00">+</text>
<text text-anchor="start" x="48" y="-236.5" font-family="Helvetica,sans-Serif" font-size="10.00">defaults</text>
<text text-anchor="start" x="24.5" y="-221.5" font-family="Helvetica,sans-Serif" font-size="10.00">#</text>
<text text-anchor="start" x="48" y="-221.5" font-family="Helvetica,sans-Serif" font-size="10.00">tEventDefinition()</text>
<polygon fill="#666666" stroke="#666666" points="10,-246.5 10,-246.5 160,-246.5 160,-246.5 10,-246.5"/>
<polygon fill="#666666" stroke="#666666" points="10,-231.5 10,-231.5 46,-231.5 46,-231.5 10,-231.5"/>
<polygon fill="#666666" stroke="#666666" points="46,-231.5 46,-231.5 160,-231.5 160,-231.5 46,-231.5"/>
<polygon fill="none" stroke="#666666" points="10,-215 10,-264 160,-264 160,-215 10,-215"/>
</a>
</g>
</g>
<!-- Node2&#45;&gt;Node1 -->
<g id="edge1_Node000001_Node000002" class="edge">
<title>Node2&#45;&gt;Node1</title>
<g id="a_edge1_Node000001_Node000002"><a xlink:title=" ">
<path fill="none" stroke="#63b8ff" d="M85,-204.61C85,-196.48 85,-187.66 85,-179.08"/>
<polygon fill="none" stroke="#63b8ff" points="81.5,-204.82 85,-214.82 88.5,-204.82 81.5,-204.82"/>
</a>
</g>
</g>
<!-- Node3 -->
<g id="Node000003" class="node">
<title>Node3</title>
<g id="a_Node000003"><a xlink:href="classXML_1_1bpmn_1_1tRootElement.html" target="_top" xlink:title=" ">
<polygon fill="white" stroke="transparent" points="154,-349 16,-349 16,-300 154,-300 154,-349"/>
<text text-anchor="start" x="21" y="-336.5" font-family="Helvetica,sans-Serif" font-size="10.00">XML::bpmn::tRootElement</text>
<text text-anchor="start" x="30.5" y="-321.5" font-family="Helvetica,sans-Serif" font-size="10.00">+</text>
<text text-anchor="start" x="54" y="-321.5" font-family="Helvetica,sans-Serif" font-size="10.00">defaults</text>
<text text-anchor="start" x="30.5" y="-306.5" font-family="Helvetica,sans-Serif" font-size="10.00">#</text>
<text text-anchor="start" x="54" y="-306.5" font-family="Helvetica,sans-Serif" font-size="10.00">tRootElement()</text>
<polygon fill="#666666" stroke="#666666" points="16,-331.5 16,-331.5 154,-331.5 154,-331.5 16,-331.5"/>
<polygon fill="#666666" stroke="#666666" points="16,-316.5 16,-316.5 52,-316.5 52,-316.5 16,-316.5"/>
<polygon fill="#666666" stroke="#666666" points="52,-316.5 52,-316.5 154,-316.5 154,-316.5 52,-316.5"/>
<polygon fill="none" stroke="#666666" points="16,-300 16,-349 154,-349 154,-300 16,-300"/>
</a>
</g>
</g>
<!-- Node3&#45;&gt;Node2 -->
<g id="edge2_Node000002_Node000003" class="edge">
<title>Node3&#45;&gt;Node2</title>
<g id="a_edge2_Node000002_Node000003"><a xlink:title=" ">
<path fill="none" stroke="#63b8ff" d="M85,-289.77C85,-281.17 85,-272.1 85,-264.12"/>
<polygon fill="none" stroke="#63b8ff" points="81.5,-289.94 85,-299.94 88.5,-289.94 81.5,-289.94"/>
</a>
</g>
</g>
<!-- Node4 -->
<g id="Node000004" class="node">
<title>Node4</title>
<g id="a_Node000004"><a xlink:href="classXML_1_1bpmn_1_1tBaseElement.html" target="_top" xlink:title=" ">
<polygon fill="white" stroke="transparent" points="155,-479 15,-479 15,-385 155,-385 155,-479"/>
<text text-anchor="start" x="20" y="-467" font-family="Helvetica,sans-Serif" font-size="10.00">XML::bpmn::tBaseElement</text>
<text text-anchor="start" x="25" y="-452" font-family="Helvetica,sans-Serif" font-size="10.00">+</text>
<text text-anchor="start" x="44" y="-452" font-family="Helvetica,sans-Serif" font-size="10.00">documentation</text>
<text text-anchor="start" x="25" y="-437" font-family="Helvetica,sans-Serif" font-size="10.00">+</text>
<text text-anchor="start" x="44" y="-437" font-family="Helvetica,sans-Serif" font-size="10.00">extensionElements</text>
<text text-anchor="start" x="25" y="-422" font-family="Helvetica,sans-Serif" font-size="10.00">+</text>
<text text-anchor="start" x="44" y="-422" font-family="Helvetica,sans-Serif" font-size="10.00">id</text>
<text text-anchor="start" x="25" y="-407" font-family="Helvetica,sans-Serif" font-size="10.00">+</text>
<text text-anchor="start" x="44" y="-407" font-family="Helvetica,sans-Serif" font-size="10.00">defaults</text>
<text text-anchor="start" x="25" y="-392" font-family="Helvetica,sans-Serif" font-size="10.00">#</text>
<text text-anchor="start" x="44" y="-392" font-family="Helvetica,sans-Serif" font-size="10.00">tBaseElement()</text>
<polygon fill="#666666" stroke="#666666" points="15,-462 15,-462 155,-462 155,-462 15,-462"/>
<polygon fill="#666666" stroke="#666666" points="15,-402 15,-402 42,-402 42,-402 15,-402"/>
<polygon fill="#666666" stroke="#666666" points="42,-402 42,-402 155,-402 155,-402 42,-402"/>
<polygon fill="none" stroke="#666666" points="15,-385 15,-479 155,-479 155,-385 15,-385"/>
</a>
</g>
</g>
<!-- Node4&#45;&gt;Node3 -->
<g id="edge3_Node000003_Node000004" class="edge">
<title>Node4&#45;&gt;Node3</title>
<g id="a_edge3_Node000003_Node000004"><a xlink:title=" ">
<path fill="none" stroke="#63b8ff" d="M85,-374.59C85,-365.62 85,-356.79 85,-349.15"/>
<polygon fill="none" stroke="#63b8ff" points="81.5,-374.73 85,-384.73 88.5,-374.73 81.5,-374.73"/>
</a>
</g>
</g>
<!-- Node5 -->
<g id="Node000005" class="node">
<title>Node5</title>
<g id="a_Node000005"><a xlink:href="classXML_1_1XMLObject.html" target="_top" xlink:title="A class representing a node in an XML&#45;tree.">
<polygon fill="white" stroke="transparent" points="145,-909 25,-909 25,-515 145,-515 145,-909"/>
<text text-anchor="start" x="45" y="-897" font-family="Helvetica,sans-Serif" font-size="10.00">XML::XMLObject</text>
<text text-anchor="start" x="29" y="-882" font-family="Helvetica,sans-Serif" font-size="10.00">+</text>
<text text-anchor="start" x="42" y="-882" font-family="Helvetica,sans-Serif" font-size="10.00">xmlns</text>
<text text-anchor="start" x="29" y="-867" font-family="Helvetica,sans-Serif" font-size="10.00">+</text>
<text text-anchor="start" x="42" y="-867" font-family="Helvetica,sans-Serif" font-size="10.00">className</text>
<text text-anchor="start" x="29" y="-852" font-family="Helvetica,sans-Serif" font-size="10.00">+</text>
<text text-anchor="start" x="42" y="-852" font-family="Helvetica,sans-Serif" font-size="10.00">prefix</text>
<text text-anchor="start" x="29" y="-837" font-family="Helvetica,sans-Serif" font-size="10.00">+</text>
<text text-anchor="start" x="42" y="-837" font-family="Helvetica,sans-Serif" font-size="10.00">elementName</text>
<text text-anchor="start" x="29" y="-822" font-family="Helvetica,sans-Serif" font-size="10.00">+</text>
<text text-anchor="start" x="42" y="-822" font-family="Helvetica,sans-Serif" font-size="10.00">textContent</text>
<text text-anchor="start" x="29" y="-807" font-family="Helvetica,sans-Serif" font-size="10.00">+</text>
<text text-anchor="start" x="42" y="-807" font-family="Helvetica,sans-Serif" font-size="10.00">children</text>
<text text-anchor="start" x="29" y="-792" font-family="Helvetica,sans-Serif" font-size="10.00">+</text>
<text text-anchor="start" x="42" y="-792" font-family="Helvetica,sans-Serif" font-size="10.00">attributes</text>
<text text-anchor="start" x="29" y="-777" font-family="Helvetica,sans-Serif" font-size="10.00">+</text>
<text text-anchor="start" x="42" y="-777" font-family="Helvetica,sans-Serif" font-size="10.00">defaults</text>
<text text-anchor="start" x="29" y="-762" font-family="Helvetica,sans-Serif" font-size="10.00">#</text>
<text text-anchor="start" x="42" y="-762" font-family="Helvetica,sans-Serif" font-size="10.00">factory</text>
<text text-anchor="start" x="29" y="-747" font-family="Helvetica,sans-Serif" font-size="10.00">+</text>
<text text-anchor="start" x="42" y="-747" font-family="Helvetica,sans-Serif" font-size="10.00">~XMLObject()</text>
<text text-anchor="start" x="29" y="-732" font-family="Helvetica,sans-Serif" font-size="10.00">+</text>
<text text-anchor="start" x="42" y="-732" font-family="Helvetica,sans-Serif" font-size="10.00">is()</text>
<text text-anchor="start" x="29" y="-717" font-family="Helvetica,sans-Serif" font-size="10.00">+</text>
<text text-anchor="start" x="42" y="-717" font-family="Helvetica,sans-Serif" font-size="10.00">is()</text>
<text text-anchor="start" x="29" y="-702" font-family="Helvetica,sans-Serif" font-size="10.00">+</text>
<text text-anchor="start" x="42" y="-702" font-family="Helvetica,sans-Serif" font-size="10.00">get()</text>
<text text-anchor="start" x="29" y="-687" font-family="Helvetica,sans-Serif" font-size="10.00">+</text>
<text text-anchor="start" x="42" y="-687" font-family="Helvetica,sans-Serif" font-size="10.00">get()</text>
<text text-anchor="start" x="29" y="-672" font-family="Helvetica,sans-Serif" font-size="10.00">+</text>
<text text-anchor="start" x="42" y="-672" font-family="Helvetica,sans-Serif" font-size="10.00">find()</text>
<text text-anchor="start" x="29" y="-657" font-family="Helvetica,sans-Serif" font-size="10.00">+</text>
<text text-anchor="start" x="42" y="-657" font-family="Helvetica,sans-Serif" font-size="10.00">find()</text>
<text text-anchor="start" x="29" y="-642" font-family="Helvetica,sans-Serif" font-size="10.00">+</text>
<text text-anchor="start" x="42" y="-642" font-family="Helvetica,sans-Serif" font-size="10.00">stringify()</text>
<text text-anchor="start" x="29" y="-627" font-family="Helvetica,sans-Serif" font-size="10.00">+</text>
<text text-anchor="start" x="42" y="-627" font-family="Helvetica,sans-Serif" font-size="10.00">format()</text>
<text text-anchor="start" x="29" y="-612" font-family="Helvetica,sans-Serif" font-size="10.00">+</text>
<text text-anchor="start" x="42" y="-612" font-family="Helvetica,sans-Serif" font-size="10.00">getRequiredChild()</text>
<text text-anchor="start" x="42" y="-597" font-family="Helvetica,sans-Serif" font-size="10.00">and 7 more...</text>
<text text-anchor="start" x="29" y="-582" font-family="Helvetica,sans-Serif" font-size="10.00">+</text>
<text text-anchor="start" x="42" y="-582" font-family="Helvetica,sans-Serif" font-size="10.00">createFromStream()</text>
<text text-anchor="start" x="29" y="-567" font-family="Helvetica,sans-Serif" font-size="10.00">+</text>
<text text-anchor="start" x="42" y="-567" font-family="Helvetica,sans-Serif" font-size="10.00">createFromString()</text>
<text text-anchor="start" x="29" y="-552" font-family="Helvetica,sans-Serif" font-size="10.00">+</text>
<text text-anchor="start" x="42" y="-552" font-family="Helvetica,sans-Serif" font-size="10.00">createFromFile()</text>
<text text-anchor="start" x="29" y="-537" font-family="Helvetica,sans-Serif" font-size="10.00">#</text>
<text text-anchor="start" x="42" y="-537" font-family="Helvetica,sans-Serif" font-size="10.00">XMLObject()</text>
<text text-anchor="start" x="29" y="-522" font-family="Helvetica,sans-Serif" font-size="10.00">#</text>
<text text-anchor="start" x="42" y="-522" font-family="Helvetica,sans-Serif" font-size="10.00">createObject()</text>
<polygon fill="#666666" stroke="#666666" points="25,-892 25,-892 145,-892 145,-892 25,-892"/>
<polygon fill="#666666" stroke="#666666" points="25,-757 25,-757 40,-757 40,-757 25,-757"/>
<polygon fill="#666666" stroke="#666666" points="40,-757 40,-757 145,-757 145,-757 40,-757"/>
<polygon fill="none" stroke="#666666" points="25,-515 25,-909 145,-909 145,-515 25,-515"/>
</a>
</g>
</g>
<!-- Node5&#45;&gt;Node4 -->
<g id="edge4_Node000004_Node000005" class="edge">
<title>Node5&#45;&gt;Node4</title>
<g id="a_edge4_Node000004_Node000005"><a xlink:title=" ">
<path fill="none" stroke="#63b8ff" d="M85,-504.78C85,-495.62 85,-486.97 85,-479.06"/>
<polygon fill="none" stroke="#63b8ff" points="81.5,-504.91 85,-514.91 88.5,-504.91 81.5,-504.91"/>
</a>
</g>
</g>
</g>
</svg>
