<?xml version="1.0" encoding="UTF-8" standalone="no"?>
<!DOCTYPE svg PUBLIC "-//W3C//DTD SVG 1.1//EN"
 "http://www.w3.org/Graphics/SVG/1.1/DTD/svg11.dtd">
<!-- Generated by graphviz version 2.43.0 (0)
 -->
<!-- Title: BPMN::Activity Pages: 1 -->
<svg width="1173pt" height="800pt"
 viewBox="0.00 0.00 1172.50 800.00" xmlns="http://www.w3.org/2000/svg" xmlns:xlink="http://www.w3.org/1999/xlink">
<g id="graph0" class="graph" transform="scale(1 1) rotate(0) translate(4 796)">
<title>BPMN::Activity</title>
<!-- Node1 -->
<g id="node1" class="node">
<title>Node1</title>
<g id="a_node1"><a xlink:title=" ">
<polygon fill="#bfbfbf" stroke="black" points="149.5,-199.5 149.5,-289.5 271.5,-289.5 271.5,-199.5 149.5,-199.5"/>
<text text-anchor="middle" x="210.5" y="-277.5" font-family="Helvetica,sans-Serif" font-size="10.00">BPMN::Activity</text>
<polyline fill="none" stroke="black" points="149.5,-270.5 271.5,-270.5 "/>
<text text-anchor="start" x="157.5" y="-258.5" font-family="Helvetica,sans-Serif" font-size="10.00">+ boundaryEvents</text>
<text text-anchor="start" x="157.5" y="-247.5" font-family="Helvetica,sans-Serif" font-size="10.00">+ compensatedBy</text>
<text text-anchor="start" x="157.5" y="-236.5" font-family="Helvetica,sans-Serif" font-size="10.00">+ isForCompensation</text>
<text text-anchor="start" x="157.5" y="-225.5" font-family="Helvetica,sans-Serif" font-size="10.00">+ element</text>
<polyline fill="none" stroke="black" points="149.5,-218.5 271.5,-218.5 "/>
<text text-anchor="start" x="157.5" y="-206.5" font-family="Helvetica,sans-Serif" font-size="10.00">+ Activity()</text>
</a>
</g>
</g>
<!-- Node5 -->
<g id="node5" class="node">
<title>Node5</title>
<g id="a_node5"><a xlink:href="classBPMN_1_1CallActivity.html" target="_top" xlink:title=" ">
<polygon fill="none" stroke="black" points="30.5,-100 30.5,-157 138.5,-157 138.5,-100 30.5,-100"/>
<text text-anchor="middle" x="84.5" y="-145" font-family="Helvetica,sans-Serif" font-size="10.00">BPMN::CallActivity</text>
<polyline fill="none" stroke="black" points="30.5,-138 138.5,-138 "/>
<text text-anchor="start" x="38.5" y="-126" font-family="Helvetica,sans-Serif" font-size="10.00">+ element</text>
<polyline fill="none" stroke="black" points="30.5,-119 138.5,-119 "/>
<text text-anchor="start" x="38.5" y="-107" font-family="Helvetica,sans-Serif" font-size="10.00">+ CallActivity()</text>
</a>
</g>
</g>
<!-- Node1&#45;&gt;Node5 -->
<g id="edge4" class="edge">
<title>Node1&#45;&gt;Node5</title>
<path fill="none" stroke="midnightblue" d="M154,-192.38C140.67,-180.32 126.95,-167.9 115.25,-157.32"/>
<polygon fill="none" stroke="midnightblue" points="152.02,-195.31 161.79,-199.42 156.72,-190.12 152.02,-195.31"/>
</g>
<!-- Node6 -->
<g id="node6" class="node">
<title>Node6</title>
<g id="a_node6"><a xlink:href="classBPMN_1_1SubProcess.html" target="_top" xlink:title=" ">
<polygon fill="none" stroke="black" points="157,-94.5 157,-162.5 264,-162.5 264,-94.5 157,-94.5"/>
<text text-anchor="middle" x="210.5" y="-150.5" font-family="Helvetica,sans-Serif" font-size="10.00">BPMN::SubProcess</text>
<polyline fill="none" stroke="black" points="157,-143.5 264,-143.5 "/>
<text text-anchor="start" x="165" y="-131.5" font-family="Helvetica,sans-Serif" font-size="10.00">+ startEvent</text>
<text text-anchor="start" x="165" y="-120.5" font-family="Helvetica,sans-Serif" font-size="10.00">+ element</text>
<polyline fill="none" stroke="black" points="157,-113.5 264,-113.5 "/>
<text text-anchor="start" x="165" y="-101.5" font-family="Helvetica,sans-Serif" font-size="10.00">+ SubProcess()</text>
</a>
</g>
</g>
<!-- Node1&#45;&gt;Node6 -->
<g id="edge5" class="edge">
<title>Node1&#45;&gt;Node6</title>
<path fill="none" stroke="midnightblue" d="M210.5,-189.32C210.5,-180.28 210.5,-171.16 210.5,-162.85"/>
<polygon fill="none" stroke="midnightblue" points="207,-189.42 210.5,-199.42 214,-189.42 207,-189.42"/>
</g>
<!-- Node9 -->
<g id="node9" class="node">
<title>Node9</title>
<g id="a_node9"><a xlink:href="classBPMN_1_1Task.html" target="_top" xlink:title=" ">
<polygon fill="none" stroke="black" points="649.5,-100 649.5,-157 723.5,-157 723.5,-100 649.5,-100"/>
<text text-anchor="middle" x="686.5" y="-145" font-family="Helvetica,sans-Serif" font-size="10.00">BPMN::Task</text>
<polyline fill="none" stroke="black" points="649.5,-138 723.5,-138 "/>
<text text-anchor="start" x="657.5" y="-126" font-family="Helvetica,sans-Serif" font-size="10.00">+ element</text>
<polyline fill="none" stroke="black" points="649.5,-119 723.5,-119 "/>
<text text-anchor="start" x="657.5" y="-107" font-family="Helvetica,sans-Serif" font-size="10.00">+ Task()</text>
</a>
</g>
</g>
<!-- Node1&#45;&gt;Node9 -->
<g id="edge8" class="edge">
<title>Node1&#45;&gt;Node9</title>
<path fill="none" stroke="midnightblue" d="M281.73,-226.44C384.45,-201.84 570.48,-157.29 649.45,-138.37"/>
<polygon fill="none" stroke="midnightblue" points="280.66,-223.1 271.75,-228.83 282.29,-229.9 280.66,-223.1"/>
</g>
<!-- Node2 -->
<g id="node2" class="node">
<title>Node2</title>
<g id="a_node2"><a xlink:href="classBPMN_1_1FlowNode.html" target="_top" xlink:title="Base class for BPMN elements that may contain incoming and outgoing sequence flows.">
<polygon fill="none" stroke="black" points="160,-326.5 160,-416.5 261,-416.5 261,-326.5 160,-326.5"/>
<text text-anchor="middle" x="210.5" y="-404.5" font-family="Helvetica,sans-Serif" font-size="10.00">BPMN::FlowNode</text>
<polyline fill="none" stroke="black" points="160,-397.5 261,-397.5 "/>
<text text-anchor="start" x="168" y="-385.5" font-family="Helvetica,sans-Serif" font-size="10.00">+ element</text>
<text text-anchor="start" x="168" y="-374.5" font-family="Helvetica,sans-Serif" font-size="10.00">+ name</text>
<text text-anchor="start" x="168" y="-363.5" font-family="Helvetica,sans-Serif" font-size="10.00">+ incoming</text>
<text text-anchor="start" x="168" y="-352.5" font-family="Helvetica,sans-Serif" font-size="10.00">+ outgoing</text>
<polyline fill="none" stroke="black" points="160,-345.5 261,-345.5 "/>
<text text-anchor="start" x="168" y="-333.5" font-family="Helvetica,sans-Serif" font-size="10.00">+ FlowNode()</text>
</a>
</g>
</g>
<!-- Node2&#45;&gt;Node1 -->
<g id="edge1" class="edge">
<title>Node2&#45;&gt;Node1</title>
<path fill="none" stroke="midnightblue" d="M210.5,-316.16C210.5,-307.28 210.5,-298.18 210.5,-289.59"/>
<polygon fill="none" stroke="midnightblue" points="207,-316.43 210.5,-326.43 214,-316.43 207,-316.43"/>
</g>
<!-- Node3 -->
<g id="node3" class="node">
<title>Node3</title>
<g id="a_node3"><a xlink:href="classBPMN_1_1ChildNode.html" target="_top" xlink:title="Base class for BPMN elements within a Scope.">
<polygon fill="none" stroke="black" points="159.5,-453.5 159.5,-510.5 261.5,-510.5 261.5,-453.5 159.5,-453.5"/>
<text text-anchor="middle" x="210.5" y="-498.5" font-family="Helvetica,sans-Serif" font-size="10.00">BPMN::ChildNode</text>
<polyline fill="none" stroke="black" points="159.5,-491.5 261.5,-491.5 "/>
<text text-anchor="start" x="167.5" y="-479.5" font-family="Helvetica,sans-Serif" font-size="10.00">+ parent</text>
<polyline fill="none" stroke="black" points="159.5,-472.5 261.5,-472.5 "/>
<text text-anchor="start" x="167.5" y="-460.5" font-family="Helvetica,sans-Serif" font-size="10.00">+ ChildNode()</text>
</a>
</g>
</g>
<!-- Node3&#45;&gt;Node2 -->
<g id="edge2" class="edge">
<title>Node3&#45;&gt;Node2</title>
<path fill="none" stroke="midnightblue" d="M210.5,-443.21C210.5,-434.61 210.5,-425.39 210.5,-416.55"/>
<polygon fill="none" stroke="midnightblue" points="207,-443.34 210.5,-453.34 214,-443.34 207,-443.34"/>
</g>
<!-- Node4 -->
<g id="node4" class="node">
<title>Node4</title>
<g id="a_node4"><a xlink:href="classBPMN_1_1Node.html" target="_top" xlink:title="Base class for all elements in a BPMN model.">
<polygon fill="none" stroke="black" points="149.5,-547.5 149.5,-791.5 271.5,-791.5 271.5,-547.5 149.5,-547.5"/>
<text text-anchor="middle" x="210.5" y="-779.5" font-family="Helvetica,sans-Serif" font-size="10.00">BPMN::Node</text>
<polyline fill="none" stroke="black" points="149.5,-772.5 271.5,-772.5 "/>
<text text-anchor="start" x="157.5" y="-760.5" font-family="Helvetica,sans-Serif" font-size="10.00">+ id</text>
<text text-anchor="start" x="157.5" y="-749.5" font-family="Helvetica,sans-Serif" font-size="10.00">+ receiving</text>
<text text-anchor="start" x="157.5" y="-738.5" font-family="Helvetica,sans-Serif" font-size="10.00">+ sending</text>
<text text-anchor="start" x="157.5" y="-727.5" font-family="Helvetica,sans-Serif" font-size="10.00">+ element</text>
<text text-anchor="start" x="157.5" y="-716.5" font-family="Helvetica,sans-Serif" font-size="10.00">+ extensionElements</text>
<polyline fill="none" stroke="black" points="149.5,-709.5 271.5,-709.5 "/>
<text text-anchor="start" x="157.5" y="-697.5" font-family="Helvetica,sans-Serif" font-size="10.00">+ Node()</text>
<text text-anchor="start" x="157.5" y="-686.5" font-family="Helvetica,sans-Serif" font-size="10.00">+ ~Node()</text>
<text text-anchor="start" x="157.5" y="-675.5" font-family="Helvetica,sans-Serif" font-size="10.00">+ is()</text>
<text text-anchor="start" x="157.5" y="-664.5" font-family="Helvetica,sans-Serif" font-size="10.00">+ is()</text>
<text text-anchor="start" x="157.5" y="-653.5" font-family="Helvetica,sans-Serif" font-size="10.00">+ get()</text>
<text text-anchor="start" x="157.5" y="-642.5" font-family="Helvetica,sans-Serif" font-size="10.00">+ get()</text>
<text text-anchor="start" x="157.5" y="-631.5" font-family="Helvetica,sans-Serif" font-size="10.00">+ represents()</text>
<text text-anchor="start" x="157.5" y="-620.5" font-family="Helvetica,sans-Serif" font-size="10.00">+ represents()</text>
<text text-anchor="start" x="157.5" y="-609.5" font-family="Helvetica,sans-Serif" font-size="10.00">+ as()</text>
<text text-anchor="start" x="157.5" y="-598.5" font-family="Helvetica,sans-Serif" font-size="10.00">+ as()</text>
<text text-anchor="start" x="157.5" y="-587.5" font-family="Helvetica,sans-Serif" font-size="10.00">+ find()</text>
<text text-anchor="start" x="157.5" y="-576.5" font-family="Helvetica,sans-Serif" font-size="10.00">+ find()</text>
<text text-anchor="start" x="157.5" y="-565.5" font-family="Helvetica,sans-Serif" font-size="10.00">+ find_all()</text>
<text text-anchor="start" x="157.5" y="-554.5" font-family="Helvetica,sans-Serif" font-size="10.00">+ find_all()</text>
</a>
</g>
</g>
<!-- Node4&#45;&gt;Node3 -->
<g id="edge3" class="edge">
<title>Node4&#45;&gt;Node3</title>
<path fill="none" stroke="midnightblue" d="M210.5,-537.34C210.5,-527.53 210.5,-518.42 210.5,-510.57"/>
<polygon fill="none" stroke="midnightblue" points="207,-537.36 210.5,-547.36 214,-537.36 207,-537.36"/>
</g>
<!-- Node7 -->
<g id="node7" class="node">
<title>Node7</title>
<g id="a_node7"><a xlink:href="classBPMN_1_1AdHocSubProcess.html" target="_top" xlink:title=" ">
<polygon fill="none" stroke="black" points="0,-0.5 0,-57.5 139,-57.5 139,-0.5 0,-0.5"/>
<text text-anchor="middle" x="69.5" y="-45.5" font-family="Helvetica,sans-Serif" font-size="10.00">BPMN::AdHocSubProcess</text>
<polyline fill="none" stroke="black" points="0,-38.5 139,-38.5 "/>
<text text-anchor="start" x="8" y="-26.5" font-family="Helvetica,sans-Serif" font-size="10.00">+ element</text>
<polyline fill="none" stroke="black" points="0,-19.5 139,-19.5 "/>
<text text-anchor="start" x="8" y="-7.5" font-family="Helvetica,sans-Serif" font-size="10.00">+ AdHocSubProcess()</text>
</a>
</g>
</g>
<!-- Node6&#45;&gt;Node7 -->
<g id="edge6" class="edge">
<title>Node6&#45;&gt;Node7</title>
<path fill="none" stroke="midnightblue" d="M154.13,-88.52C139.25,-78.23 123.5,-67.34 109.67,-57.78"/>
<polygon fill="none" stroke="midnightblue" points="152.55,-91.68 162.76,-94.49 156.53,-85.92 152.55,-91.68"/>
</g>
<!-- Node8 -->
<g id="node8" class="node">
<title>Node8</title>
<g id="a_node8"><a xlink:href="classBPMN_1_1Transaction.html" target="_top" xlink:title=" ">
<polygon fill="none" stroke="black" points="157,-0.5 157,-57.5 264,-57.5 264,-0.5 157,-0.5"/>
<text text-anchor="middle" x="210.5" y="-45.5" font-family="Helvetica,sans-Serif" font-size="10.00">BPMN::Transaction</text>
<polyline fill="none" stroke="black" points="157,-38.5 264,-38.5 "/>
<text text-anchor="start" x="165" y="-26.5" font-family="Helvetica,sans-Serif" font-size="10.00">+ element</text>
<polyline fill="none" stroke="black" points="157,-19.5 264,-19.5 "/>
<text text-anchor="start" x="165" y="-7.5" font-family="Helvetica,sans-Serif" font-size="10.00">+ Transaction()</text>
</a>
</g>
</g>
<!-- Node6&#45;&gt;Node8 -->
<g id="edge7" class="edge">
<title>Node6&#45;&gt;Node8</title>
<path fill="none" stroke="midnightblue" d="M210.5,-84.45C210.5,-75.4 210.5,-66.09 210.5,-57.78"/>
<polygon fill="none" stroke="midnightblue" points="207,-84.49 210.5,-94.49 214,-84.49 207,-84.49"/>
</g>
<!-- Node10 -->
<g id="node10" class="node">
<title>Node10</title>
<g id="a_node10"><a xlink:href="classBPMN_1_1BusinessRuleTask.html" target="_top" xlink:title=" ">
<polygon fill="none" stroke="black" points="282,-0.5 282,-57.5 421,-57.5 421,-0.5 282,-0.5"/>
<text text-anchor="middle" x="351.5" y="-45.5" font-family="Helvetica,sans-Serif" font-size="10.00">BPMN::BusinessRuleTask</text>
<polyline fill="none" stroke="black" points="282,-38.5 421,-38.5 "/>
<text text-anchor="start" x="290" y="-26.5" font-family="Helvetica,sans-Serif" font-size="10.00">+ element</text>
<polyline fill="none" stroke="black" points="282,-19.5 421,-19.5 "/>
<text text-anchor="start" x="290" y="-7.5" font-family="Helvetica,sans-Serif" font-size="10.00">+ BusinessRuleTask()</text>
</a>
</g>
</g>
<!-- Node9&#45;&gt;Node10 -->
<g id="edge9" class="edge">
<title>Node9&#45;&gt;Node10</title>
<path fill="none" stroke="midnightblue" d="M639.51,-115.88C587.93,-102.86 502.82,-80.6 430.5,-58 427.44,-57.05 424.33,-56.05 421.19,-55.02"/>
<polygon fill="none" stroke="midnightblue" points="638.81,-119.31 649.36,-118.36 640.52,-112.52 638.81,-119.31"/>
</g>
<!-- Node11 -->
<g id="node11" class="node">
<title>Node11</title>
<g id="a_node11"><a xlink:href="classBPMN_1_1ManualTask.html" target="_top" xlink:title=" ">
<polygon fill="none" stroke="black" points="439.5,-0.5 439.5,-57.5 549.5,-57.5 549.5,-0.5 439.5,-0.5"/>
<text text-anchor="middle" x="494.5" y="-45.5" font-family="Helvetica,sans-Serif" font-size="10.00">BPMN::ManualTask</text>
<polyline fill="none" stroke="black" points="439.5,-38.5 549.5,-38.5 "/>
<text text-anchor="start" x="447.5" y="-26.5" font-family="Helvetica,sans-Serif" font-size="10.00">+ element</text>
<polyline fill="none" stroke="black" points="439.5,-19.5 549.5,-19.5 "/>
<text text-anchor="start" x="447.5" y="-7.5" font-family="Helvetica,sans-Serif" font-size="10.00">+ ManualTask()</text>
</a>
</g>
</g>
<!-- Node9&#45;&gt;Node11 -->
<g id="edge10" class="edge">
<title>Node9&#45;&gt;Node11</title>
<path fill="none" stroke="midnightblue" d="M640.45,-104.12C612.9,-90.13 577.75,-72.28 548.85,-57.6"/>
<polygon fill="none" stroke="midnightblue" points="638.98,-107.29 649.48,-108.7 642.15,-101.05 638.98,-107.29"/>
</g>
<!-- Node12 -->
<g id="node12" class="node">
<title>Node12</title>
<g id="a_node12"><a xlink:href="classBPMN_1_1ReceiveTask.html" target="_top" xlink:title=" ">
<polygon fill="none" stroke="black" points="568,-0.5 568,-57.5 681,-57.5 681,-0.5 568,-0.5"/>
<text text-anchor="middle" x="624.5" y="-45.5" font-family="Helvetica,sans-Serif" font-size="10.00">BPMN::ReceiveTask</text>
<polyline fill="none" stroke="black" points="568,-38.5 681,-38.5 "/>
<text text-anchor="start" x="576" y="-26.5" font-family="Helvetica,sans-Serif" font-size="10.00">+ element</text>
<polyline fill="none" stroke="black" points="568,-19.5 681,-19.5 "/>
<text text-anchor="start" x="576" y="-7.5" font-family="Helvetica,sans-Serif" font-size="10.00">+ ReceiveTask()</text>
</a>
</g>
</g>
<!-- Node9&#45;&gt;Node12 -->
<g id="edge11" class="edge">
<title>Node9&#45;&gt;Node12</title>
<path fill="none" stroke="midnightblue" d="M663.41,-91.19C656.38,-80.13 648.76,-68.15 642.14,-57.75"/>
<polygon fill="none" stroke="midnightblue" points="660.58,-93.26 668.9,-99.82 666.49,-89.5 660.58,-93.26"/>
</g>
<!-- Node13 -->
<g id="node13" class="node">
<title>Node13</title>
<g id="a_node13"><a xlink:href="classBPMN_1_1ScriptTask.html" target="_top" xlink:title=" ">
<polygon fill="none" stroke="black" points="699,-0.5 699,-57.5 800,-57.5 800,-0.5 699,-0.5"/>
<text text-anchor="middle" x="749.5" y="-45.5" font-family="Helvetica,sans-Serif" font-size="10.00">BPMN::ScriptTask</text>
<polyline fill="none" stroke="black" points="699,-38.5 800,-38.5 "/>
<text text-anchor="start" x="707" y="-26.5" font-family="Helvetica,sans-Serif" font-size="10.00">+ element</text>
<polyline fill="none" stroke="black" points="699,-19.5 800,-19.5 "/>
<text text-anchor="start" x="707" y="-7.5" font-family="Helvetica,sans-Serif" font-size="10.00">+ ScriptTask()</text>
</a>
</g>
</g>
<!-- Node9&#45;&gt;Node13 -->
<g id="edge12" class="edge">
<title>Node9&#45;&gt;Node13</title>
<path fill="none" stroke="midnightblue" d="M709.96,-91.19C717.11,-80.13 724.85,-68.15 731.57,-57.75"/>
<polygon fill="none" stroke="midnightblue" points="706.87,-89.52 704.38,-99.82 712.75,-93.32 706.87,-89.52"/>
</g>
<!-- Node14 -->
<g id="node14" class="node">
<title>Node14</title>
<g id="a_node14"><a xlink:href="classBPMN_1_1SendTask.html" target="_top" xlink:title=" ">
<polygon fill="none" stroke="black" points="818.5,-0.5 818.5,-57.5 916.5,-57.5 916.5,-0.5 818.5,-0.5"/>
<text text-anchor="middle" x="867.5" y="-45.5" font-family="Helvetica,sans-Serif" font-size="10.00">BPMN::SendTask</text>
<polyline fill="none" stroke="black" points="818.5,-38.5 916.5,-38.5 "/>
<text text-anchor="start" x="826.5" y="-26.5" font-family="Helvetica,sans-Serif" font-size="10.00">+ element</text>
<polyline fill="none" stroke="black" points="818.5,-19.5 916.5,-19.5 "/>
<text text-anchor="start" x="826.5" y="-7.5" font-family="Helvetica,sans-Serif" font-size="10.00">+ SendTask()</text>
</a>
</g>
</g>
<!-- Node9&#45;&gt;Node14 -->
<g id="edge13" class="edge">
<title>Node9&#45;&gt;Node14</title>
<path fill="none" stroke="midnightblue" d="M732.56,-102.69C758.82,-88.54 791.72,-70.82 818.46,-56.42"/>
<polygon fill="none" stroke="midnightblue" points="730.71,-99.71 723.56,-107.53 734.03,-105.87 730.71,-99.71"/>
</g>
<!-- Node15 -->
<g id="node15" class="node">
<title>Node15</title>
<g id="a_node15"><a xlink:href="classBPMN_1_1UntypedTask.html" target="_top" xlink:title=" ">
<polygon fill="none" stroke="black" points="935,-0.5 935,-57.5 1050,-57.5 1050,-0.5 935,-0.5"/>
<text text-anchor="middle" x="992.5" y="-45.5" font-family="Helvetica,sans-Serif" font-size="10.00">BPMN::UntypedTask</text>
<polyline fill="none" stroke="black" points="935,-38.5 1050,-38.5 "/>
<text text-anchor="middle" x="992.5" y="-26.5" font-family="Helvetica,sans-Serif" font-size="10.00"> </text>
<polyline fill="none" stroke="black" points="935,-19.5 1050,-19.5 "/>
<text text-anchor="start" x="943" y="-7.5" font-family="Helvetica,sans-Serif" font-size="10.00">+ UntypedTask()</text>
</a>
</g>
</g>
<!-- Node9&#45;&gt;Node15 -->
<g id="edge14" class="edge">
<title>Node9&#45;&gt;Node15</title>
<path fill="none" stroke="midnightblue" d="M733.67,-115.47C782.24,-102.69 859.88,-81.17 925.5,-58 928.59,-56.91 931.74,-55.75 934.92,-54.55"/>
<polygon fill="none" stroke="midnightblue" points="732.55,-112.15 723.76,-118.06 734.32,-118.92 732.55,-112.15"/>
</g>
<!-- Node16 -->
<g id="node16" class="node">
<title>Node16</title>
<g id="a_node16"><a xlink:href="classBPMN_1_1UserTask.html" target="_top" xlink:title=" ">
<polygon fill="none" stroke="black" points="1068.5,-0.5 1068.5,-57.5 1164.5,-57.5 1164.5,-0.5 1068.5,-0.5"/>
<text text-anchor="middle" x="1116.5" y="-45.5" font-family="Helvetica,sans-Serif" font-size="10.00">BPMN::UserTask</text>
<polyline fill="none" stroke="black" points="1068.5,-38.5 1164.5,-38.5 "/>
<text text-anchor="start" x="1076.5" y="-26.5" font-family="Helvetica,sans-Serif" font-size="10.00">+ element</text>
<polyline fill="none" stroke="black" points="1068.5,-19.5 1164.5,-19.5 "/>
<text text-anchor="start" x="1076.5" y="-7.5" font-family="Helvetica,sans-Serif" font-size="10.00">+ UserTask()</text>
</a>
</g>
</g>
<!-- Node9&#45;&gt;Node16 -->
<g id="edge15" class="edge">
<title>Node9&#45;&gt;Node16</title>
<path fill="none" stroke="midnightblue" d="M733.69,-122.88C805.49,-114.92 945.84,-95.72 1059.5,-58 1062.43,-57.03 1065.4,-55.93 1068.37,-54.75"/>
<polygon fill="none" stroke="midnightblue" points="733.17,-119.41 723.6,-123.97 733.92,-126.37 733.17,-119.41"/>
</g>
</g>
</svg>
