<?xml version="1.0" encoding="UTF-8" standalone="no"?>
<!DOCTYPE svg PUBLIC "-//W3C//DTD SVG 1.1//EN"
 "http://www.w3.org/Graphics/SVG/1.1/DTD/svg11.dtd">
<!-- Generated by graphviz version 2.43.0 (0)
 -->
<!-- Title: XML::bpmn::formalExpression Pages: 1 -->
<svg width="195pt" height="828pt"
 viewBox="0.00 0.00 195.00 828.00" xmlns="http://www.w3.org/2000/svg" xmlns:xlink="http://www.w3.org/1999/xlink">
<g id="graph0" class="graph" transform="scale(1 1) rotate(0) translate(4 824)">
<title>XML::bpmn::formalExpression</title>
<!-- Node1 -->
<g id="Node000001" class="node">
<title>Node1</title>
<g id="a_Node000001"><a xlink:title=" ">
<polygon fill="#999999" stroke="transparent" points="172,-49 15,-49 15,0 172,0 172,-49"/>
<text text-anchor="start" x="20.5" y="-36.5" font-family="Helvetica,sans-Serif" font-size="10.00">XML::bpmn::formalExpression</text>
<text text-anchor="start" x="30" y="-21.5" font-family="Helvetica,sans-Serif" font-size="10.00">+</text>
<text text-anchor="start" x="53.5" y="-21.5" font-family="Helvetica,sans-Serif" font-size="10.00">defaults</text>
<text text-anchor="start" x="30" y="-6.5" font-family="Helvetica,sans-Serif" font-size="10.00">#</text>
<text text-anchor="start" x="53.5" y="-6.5" font-family="Helvetica,sans-Serif" font-size="10.00">formalExpression()</text>
<polygon fill="#666666" stroke="#666666" points="15.5,-31.5 15.5,-31.5 172.5,-31.5 172.5,-31.5 15.5,-31.5"/>
<polygon fill="#666666" stroke="#666666" points="15.5,-16.5 15.5,-16.5 51.5,-16.5 51.5,-16.5 15.5,-16.5"/>
<polygon fill="#666666" stroke="#666666" points="51.5,-16.5 51.5,-16.5 172.5,-16.5 172.5,-16.5 51.5,-16.5"/>
<polygon fill="none" stroke="#666666" points="15,0 15,-49 172,-49 172,0 15,0"/>
</a>
</g>
</g>
<!-- Node2 -->
<g id="Node000002" class="node">
<title>Node2</title>
<g id="a_Node000002"><a xlink:href="classXML_1_1bpmn_1_1tFormalExpression.html" target="_top" xlink:title=" ">
<polygon fill="white" stroke="transparent" points="174.5,-164 12.5,-164 12.5,-85 174.5,-85 174.5,-164"/>
<text text-anchor="start" x="17.5" y="-151.5" font-family="Helvetica,sans-Serif" font-size="10.00">XML::bpmn::tFormalExpression</text>
<text text-anchor="start" x="27" y="-136.5" font-family="Helvetica,sans-Serif" font-size="10.00">+</text>
<text text-anchor="start" x="50.5" y="-136.5" font-family="Helvetica,sans-Serif" font-size="10.00">language</text>
<text text-anchor="start" x="27" y="-121.5" font-family="Helvetica,sans-Serif" font-size="10.00">+</text>
<text text-anchor="start" x="50.5" y="-121.5" font-family="Helvetica,sans-Serif" font-size="10.00">evaluatesToTypeRef</text>
<text text-anchor="start" x="27" y="-106.5" font-family="Helvetica,sans-Serif" font-size="10.00">+</text>
<text text-anchor="start" x="50.5" y="-106.5" font-family="Helvetica,sans-Serif" font-size="10.00">defaults</text>
<text text-anchor="start" x="27" y="-91.5" font-family="Helvetica,sans-Serif" font-size="10.00">#</text>
<text text-anchor="start" x="50.5" y="-91.5" font-family="Helvetica,sans-Serif" font-size="10.00">tFormalExpression()</text>
<polygon fill="#666666" stroke="#666666" points="12.5,-146.5 12.5,-146.5 174.5,-146.5 174.5,-146.5 12.5,-146.5"/>
<polygon fill="#666666" stroke="#666666" points="12.5,-101.5 12.5,-101.5 48.5,-101.5 48.5,-101.5 12.5,-101.5"/>
<polygon fill="#666666" stroke="#666666" points="48.5,-101.5 48.5,-101.5 174.5,-101.5 174.5,-101.5 48.5,-101.5"/>
<polygon fill="none" stroke="#666666" points="12.5,-85 12.5,-164 174.5,-164 174.5,-85 12.5,-85"/>
</a>
</g>
</g>
<!-- Node2&#45;&gt;Node1 -->
<g id="edge1_Node000001_Node000002" class="edge">
<title>Node2&#45;&gt;Node1</title>
<g id="a_edge1_Node000001_Node000002"><a xlink:title=" ">
<path fill="none" stroke="#63b8ff" d="M93.5,-74.72C93.5,-65.75 93.5,-56.78 93.5,-49"/>
<polygon fill="none" stroke="#63b8ff" points="90,-74.77 93.5,-84.77 97,-74.77 90,-74.77"/>
</a>
</g>
</g>
<!-- Node3 -->
<g id="Node000003" class="node">
<title>Node3</title>
<g id="a_Node000003"><a xlink:href="classXML_1_1bpmn_1_1tExpression.html" target="_top" xlink:title=" ">
<polygon fill="white" stroke="transparent" points="157.5,-249 29.5,-249 29.5,-200 157.5,-200 157.5,-249"/>
<text text-anchor="start" x="34.5" y="-236.5" font-family="Helvetica,sans-Serif" font-size="10.00">XML::bpmn::tExpression</text>
<text text-anchor="start" x="44" y="-221.5" font-family="Helvetica,sans-Serif" font-size="10.00">+</text>
<text text-anchor="start" x="67.5" y="-221.5" font-family="Helvetica,sans-Serif" font-size="10.00">defaults</text>
<text text-anchor="start" x="44" y="-206.5" font-family="Helvetica,sans-Serif" font-size="10.00">#</text>
<text text-anchor="start" x="67.5" y="-206.5" font-family="Helvetica,sans-Serif" font-size="10.00">tExpression()</text>
<polygon fill="#666666" stroke="#666666" points="29.5,-231.5 29.5,-231.5 157.5,-231.5 157.5,-231.5 29.5,-231.5"/>
<polygon fill="#666666" stroke="#666666" points="29.5,-216.5 29.5,-216.5 65.5,-216.5 65.5,-216.5 29.5,-216.5"/>
<polygon fill="#666666" stroke="#666666" points="65.5,-216.5 65.5,-216.5 157.5,-216.5 157.5,-216.5 65.5,-216.5"/>
<polygon fill="none" stroke="#666666" points="29.5,-200 29.5,-249 157.5,-249 157.5,-200 29.5,-200"/>
</a>
</g>
</g>
<!-- Node3&#45;&gt;Node2 -->
<g id="edge2_Node000002_Node000003" class="edge">
<title>Node3&#45;&gt;Node2</title>
<g id="a_edge2_Node000002_Node000003"><a xlink:title=" ">
<path fill="none" stroke="#63b8ff" d="M93.5,-189.52C93.5,-181.38 93.5,-172.63 93.5,-164.29"/>
<polygon fill="none" stroke="#63b8ff" points="90,-189.78 93.5,-199.78 97,-189.78 90,-189.78"/>
</a>
</g>
</g>
<!-- Node4 -->
<g id="Node000004" class="node">
<title>Node4</title>
<g id="a_Node000004"><a xlink:href="classXML_1_1bpmn_1_1tBaseElementWithMixedContent.html" target="_top" xlink:title=" ">
<polygon fill="white" stroke="transparent" points="187,-390 0,-390 0,-285 187,-285 187,-390"/>
<text text-anchor="start" x="18" y="-377.5" font-family="Helvetica,sans-Serif" font-size="10.00">XML::bpmn::tBaseElementWith</text>
<text text-anchor="start" x="60" y="-366.5" font-family="Helvetica,sans-Serif" font-size="10.00">MixedContent</text>
<text text-anchor="start" x="4.5" y="-351.5" font-family="Helvetica,sans-Serif" font-size="10.00">+</text>
<text text-anchor="start" x="17.5" y="-351.5" font-family="Helvetica,sans-Serif" font-size="10.00">documentation</text>
<text text-anchor="start" x="4.5" y="-336.5" font-family="Helvetica,sans-Serif" font-size="10.00">+</text>
<text text-anchor="start" x="17.5" y="-336.5" font-family="Helvetica,sans-Serif" font-size="10.00">extensionElements</text>
<text text-anchor="start" x="4.5" y="-321.5" font-family="Helvetica,sans-Serif" font-size="10.00">+</text>
<text text-anchor="start" x="17.5" y="-321.5" font-family="Helvetica,sans-Serif" font-size="10.00">id</text>
<text text-anchor="start" x="4.5" y="-306.5" font-family="Helvetica,sans-Serif" font-size="10.00">+</text>
<text text-anchor="start" x="17.5" y="-306.5" font-family="Helvetica,sans-Serif" font-size="10.00">defaults</text>
<text text-anchor="start" x="4.5" y="-291.5" font-family="Helvetica,sans-Serif" font-size="10.00">#</text>
<text text-anchor="start" x="17.5" y="-291.5" font-family="Helvetica,sans-Serif" font-size="10.00">tBaseElementWithMixedContent()</text>
<polygon fill="#666666" stroke="#666666" points="0.5,-361.5 0.5,-361.5 187.5,-361.5 187.5,-361.5 0.5,-361.5"/>
<polygon fill="#666666" stroke="#666666" points="0.5,-301.5 0.5,-301.5 15.5,-301.5 15.5,-301.5 0.5,-301.5"/>
<polygon fill="#666666" stroke="#666666" points="15.5,-301.5 15.5,-301.5 187.5,-301.5 187.5,-301.5 15.5,-301.5"/>
<polygon fill="none" stroke="#666666" points="0,-285 0,-390 187,-390 187,-285 0,-285"/>
</a>
</g>
</g>
<!-- Node4&#45;&gt;Node3 -->
<g id="edge3_Node000003_Node000004" class="edge">
<title>Node4&#45;&gt;Node3</title>
<g id="a_edge3_Node000003_Node000004"><a xlink:title=" ">
<path fill="none" stroke="#63b8ff" d="M93.5,-274.67C93.5,-265.66 93.5,-256.87 93.5,-249.27"/>
<polygon fill="none" stroke="#63b8ff" points="90,-274.9 93.5,-284.9 97,-274.9 90,-274.9"/>
</a>
</g>
</g>
<!-- Node5 -->
<g id="Node000005" class="node">
<title>Node5</title>
<g id="a_Node000005"><a xlink:href="classXML_1_1XMLObject.html" target="_top" xlink:title="A class representing a node in an XML&#45;tree.">
<polygon fill="white" stroke="transparent" points="153.5,-820 33.5,-820 33.5,-426 153.5,-426 153.5,-820"/>
<text text-anchor="start" x="53.5" y="-808" font-family="Helvetica,sans-Serif" font-size="10.00">XML::XMLObject</text>
<text text-anchor="start" x="37.5" y="-793" font-family="Helvetica,sans-Serif" font-size="10.00">+</text>
<text text-anchor="start" x="50.5" y="-793" font-family="Helvetica,sans-Serif" font-size="10.00">xmlns</text>
<text text-anchor="start" x="37.5" y="-778" font-family="Helvetica,sans-Serif" font-size="10.00">+</text>
<text text-anchor="start" x="50.5" y="-778" font-family="Helvetica,sans-Serif" font-size="10.00">className</text>
<text text-anchor="start" x="37.5" y="-763" font-family="Helvetica,sans-Serif" font-size="10.00">+</text>
<text text-anchor="start" x="50.5" y="-763" font-family="Helvetica,sans-Serif" font-size="10.00">prefix</text>
<text text-anchor="start" x="37.5" y="-748" font-family="Helvetica,sans-Serif" font-size="10.00">+</text>
<text text-anchor="start" x="50.5" y="-748" font-family="Helvetica,sans-Serif" font-size="10.00">elementName</text>
<text text-anchor="start" x="37.5" y="-733" font-family="Helvetica,sans-Serif" font-size="10.00">+</text>
<text text-anchor="start" x="50.5" y="-733" font-family="Helvetica,sans-Serif" font-size="10.00">textContent</text>
<text text-anchor="start" x="37.5" y="-718" font-family="Helvetica,sans-Serif" font-size="10.00">+</text>
<text text-anchor="start" x="50.5" y="-718" font-family="Helvetica,sans-Serif" font-size="10.00">children</text>
<text text-anchor="start" x="37.5" y="-703" font-family="Helvetica,sans-Serif" font-size="10.00">+</text>
<text text-anchor="start" x="50.5" y="-703" font-family="Helvetica,sans-Serif" font-size="10.00">attributes</text>
<text text-anchor="start" x="37.5" y="-688" font-family="Helvetica,sans-Serif" font-size="10.00">+</text>
<text text-anchor="start" x="50.5" y="-688" font-family="Helvetica,sans-Serif" font-size="10.00">defaults</text>
<text text-anchor="start" x="37.5" y="-673" font-family="Helvetica,sans-Serif" font-size="10.00">#</text>
<text text-anchor="start" x="50.5" y="-673" font-family="Helvetica,sans-Serif" font-size="10.00">factory</text>
<text text-anchor="start" x="37.5" y="-658" font-family="Helvetica,sans-Serif" font-size="10.00">+</text>
<text text-anchor="start" x="50.5" y="-658" font-family="Helvetica,sans-Serif" font-size="10.00">~XMLObject()</text>
<text text-anchor="start" x="37.5" y="-643" font-family="Helvetica,sans-Serif" font-size="10.00">+</text>
<text text-anchor="start" x="50.5" y="-643" font-family="Helvetica,sans-Serif" font-size="10.00">is()</text>
<text text-anchor="start" x="37.5" y="-628" font-family="Helvetica,sans-Serif" font-size="10.00">+</text>
<text text-anchor="start" x="50.5" y="-628" font-family="Helvetica,sans-Serif" font-size="10.00">is()</text>
<text text-anchor="start" x="37.5" y="-613" font-family="Helvetica,sans-Serif" font-size="10.00">+</text>
<text text-anchor="start" x="50.5" y="-613" font-family="Helvetica,sans-Serif" font-size="10.00">get()</text>
<text text-anchor="start" x="37.5" y="-598" font-family="Helvetica,sans-Serif" font-size="10.00">+</text>
<text text-anchor="start" x="50.5" y="-598" font-family="Helvetica,sans-Serif" font-size="10.00">get()</text>
<text text-anchor="start" x="37.5" y="-583" font-family="Helvetica,sans-Serif" font-size="10.00">+</text>
<text text-anchor="start" x="50.5" y="-583" font-family="Helvetica,sans-Serif" font-size="10.00">find()</text>
<text text-anchor="start" x="37.5" y="-568" font-family="Helvetica,sans-Serif" font-size="10.00">+</text>
<text text-anchor="start" x="50.5" y="-568" font-family="Helvetica,sans-Serif" font-size="10.00">find()</text>
<text text-anchor="start" x="37.5" y="-553" font-family="Helvetica,sans-Serif" font-size="10.00">+</text>
<text text-anchor="start" x="50.5" y="-553" font-family="Helvetica,sans-Serif" font-size="10.00">stringify()</text>
<text text-anchor="start" x="37.5" y="-538" font-family="Helvetica,sans-Serif" font-size="10.00">+</text>
<text text-anchor="start" x="50.5" y="-538" font-family="Helvetica,sans-Serif" font-size="10.00">format()</text>
<text text-anchor="start" x="37.5" y="-523" font-family="Helvetica,sans-Serif" font-size="10.00">+</text>
<text text-anchor="start" x="50.5" y="-523" font-family="Helvetica,sans-Serif" font-size="10.00">getRequiredChild()</text>
<text text-anchor="start" x="50.5" y="-508" font-family="Helvetica,sans-Serif" font-size="10.00">and 7 more...</text>
<text text-anchor="start" x="37.5" y="-493" font-family="Helvetica,sans-Serif" font-size="10.00">+</text>
<text text-anchor="start" x="50.5" y="-493" font-family="Helvetica,sans-Serif" font-size="10.00">createFromStream()</text>
<text text-anchor="start" x="37.5" y="-478" font-family="Helvetica,sans-Serif" font-size="10.00">+</text>
<text text-anchor="start" x="50.5" y="-478" font-family="Helvetica,sans-Serif" font-size="10.00">createFromString()</text>
<text text-anchor="start" x="37.5" y="-463" font-family="Helvetica,sans-Serif" font-size="10.00">+</text>
<text text-anchor="start" x="50.5" y="-463" font-family="Helvetica,sans-Serif" font-size="10.00">createFromFile()</text>
<text text-anchor="start" x="37.5" y="-448" font-family="Helvetica,sans-Serif" font-size="10.00">#</text>
<text text-anchor="start" x="50.5" y="-448" font-family="Helvetica,sans-Serif" font-size="10.00">XMLObject()</text>
<text text-anchor="start" x="37.5" y="-433" font-family="Helvetica,sans-Serif" font-size="10.00">#</text>
<text text-anchor="start" x="50.5" y="-433" font-family="Helvetica,sans-Serif" font-size="10.00">createObject()</text>
<polygon fill="#666666" stroke="#666666" points="33.5,-803 33.5,-803 153.5,-803 153.5,-803 33.5,-803"/>
<polygon fill="#666666" stroke="#666666" points="33.5,-668 33.5,-668 48.5,-668 48.5,-668 33.5,-668"/>
<polygon fill="#666666" stroke="#666666" points="48.5,-668 48.5,-668 153.5,-668 153.5,-668 48.5,-668"/>
<polygon fill="none" stroke="#666666" points="33.5,-426 33.5,-820 153.5,-820 153.5,-426 33.5,-426"/>
</a>
</g>
</g>
<!-- Node5&#45;&gt;Node4 -->
<g id="edge4_Node000004_Node000005" class="edge">
<title>Node5&#45;&gt;Node4</title>
<g id="a_edge4_Node000004_Node000005"><a xlink:title=" ">
<path fill="none" stroke="#63b8ff" d="M93.5,-415.86C93.5,-406.79 93.5,-398.17 93.5,-390.19"/>
<polygon fill="none" stroke="#63b8ff" points="90,-415.87 93.5,-425.87 97,-415.87 90,-415.87"/>
</a>
</g>
</g>
</g>
</svg>
