<?xml version="1.0" encoding="UTF-8" standalone="no"?>
<!DOCTYPE svg PUBLIC "-//W3C//DTD SVG 1.1//EN"
 "http://www.w3.org/Graphics/SVG/1.1/DTD/svg11.dtd">
<!-- Generated by graphviz version 2.43.0 (0)
 -->
<!-- Title: XML::bpmn::tCallChoreography Pages: 1 -->
<svg width="170pt" height="1148pt"
 viewBox="0.00 0.00 170.00 1148.00" xmlns="http://www.w3.org/2000/svg" xmlns:xlink="http://www.w3.org/1999/xlink">
<g id="graph0" class="graph" transform="scale(1 1) rotate(0) translate(4 1144)">
<title>XML::bpmn::tCallChoreography</title>
<!-- Node1 -->
<g id="Node000001" class="node">
<title>Node1</title>
<g id="a_Node000001"><a xlink:title=" ">
<polygon fill="#999999" stroke="transparent" points="162,-164 0,-164 0,-85 162,-85 162,-164"/>
<text text-anchor="start" x="5" y="-151.5" font-family="Helvetica,sans-Serif" font-size="10.00">XML::bpmn::tCallChoreography</text>
<text text-anchor="start" x="10.5" y="-136.5" font-family="Helvetica,sans-Serif" font-size="10.00">+</text>
<text text-anchor="start" x="30" y="-136.5" font-family="Helvetica,sans-Serif" font-size="10.00">participantAssociation</text>
<text text-anchor="start" x="10.5" y="-121.5" font-family="Helvetica,sans-Serif" font-size="10.00">+</text>
<text text-anchor="start" x="30" y="-121.5" font-family="Helvetica,sans-Serif" font-size="10.00">calledChoreographyRef</text>
<text text-anchor="start" x="10.5" y="-106.5" font-family="Helvetica,sans-Serif" font-size="10.00">+</text>
<text text-anchor="start" x="30" y="-106.5" font-family="Helvetica,sans-Serif" font-size="10.00">defaults</text>
<text text-anchor="start" x="10.5" y="-91.5" font-family="Helvetica,sans-Serif" font-size="10.00">#</text>
<text text-anchor="start" x="30" y="-91.5" font-family="Helvetica,sans-Serif" font-size="10.00">tCallChoreography()</text>
<polygon fill="#666666" stroke="#666666" points="0,-146.5 0,-146.5 162,-146.5 162,-146.5 0,-146.5"/>
<polygon fill="#666666" stroke="#666666" points="0,-101.5 0,-101.5 28,-101.5 28,-101.5 0,-101.5"/>
<polygon fill="#666666" stroke="#666666" points="28,-101.5 28,-101.5 162,-101.5 162,-101.5 28,-101.5"/>
<polygon fill="none" stroke="#666666" points="0,-85 0,-164 162,-164 162,-85 0,-85"/>
</a>
</g>
</g>
<!-- Node7 -->
<g id="Node000007" class="node">
<title>Node7</title>
<g id="a_Node000007"><a xlink:href="classXML_1_1bpmn_1_1callChoreography.html" target="_top" xlink:title=" ">
<polygon fill="white" stroke="transparent" points="159.5,-49 2.5,-49 2.5,0 159.5,0 159.5,-49"/>
<text text-anchor="start" x="8" y="-36.5" font-family="Helvetica,sans-Serif" font-size="10.00">XML::bpmn::callChoreography</text>
<text text-anchor="start" x="17.5" y="-21.5" font-family="Helvetica,sans-Serif" font-size="10.00">+</text>
<text text-anchor="start" x="41" y="-21.5" font-family="Helvetica,sans-Serif" font-size="10.00">defaults</text>
<text text-anchor="start" x="17.5" y="-6.5" font-family="Helvetica,sans-Serif" font-size="10.00">#</text>
<text text-anchor="start" x="41" y="-6.5" font-family="Helvetica,sans-Serif" font-size="10.00">callChoreography()</text>
<polygon fill="#666666" stroke="#666666" points="3,-31.5 3,-31.5 160,-31.5 160,-31.5 3,-31.5"/>
<polygon fill="#666666" stroke="#666666" points="3,-16.5 3,-16.5 39,-16.5 39,-16.5 3,-16.5"/>
<polygon fill="#666666" stroke="#666666" points="39,-16.5 39,-16.5 160,-16.5 160,-16.5 39,-16.5"/>
<polygon fill="none" stroke="#666666" points="2.5,0 2.5,-49 159.5,-49 159.5,0 2.5,0"/>
</a>
</g>
</g>
<!-- Node1&#45;&gt;Node7 -->
<g id="edge6_Node000001_Node000007" class="edge">
<title>Node1&#45;&gt;Node7</title>
<g id="a_edge6_Node000001_Node000007"><a xlink:title=" ">
<path fill="none" stroke="#63b8ff" d="M81,-74.72C81,-65.75 81,-56.78 81,-49"/>
<polygon fill="none" stroke="#63b8ff" points="77.5,-74.77 81,-84.77 84.5,-74.77 77.5,-74.77"/>
</a>
</g>
</g>
<!-- Node2 -->
<g id="Node000002" class="node">
<title>Node2</title>
<g id="a_Node000002"><a xlink:href="classXML_1_1bpmn_1_1tChoreographyActivity.html" target="_top" xlink:title=" ">
<polygon fill="white" stroke="transparent" points="152.5,-320 9.5,-320 9.5,-200 152.5,-200 152.5,-320"/>
<text text-anchor="start" x="15" y="-308" font-family="Helvetica,sans-Serif" font-size="10.00">XML::bpmn::tChoreography</text>
<text text-anchor="start" x="62.5" y="-297" font-family="Helvetica,sans-Serif" font-size="10.00">Activity</text>
<text text-anchor="start" x="15" y="-282" font-family="Helvetica,sans-Serif" font-size="10.00">+</text>
<text text-anchor="start" x="29" y="-282" font-family="Helvetica,sans-Serif" font-size="10.00">participantRef</text>
<text text-anchor="start" x="15" y="-267" font-family="Helvetica,sans-Serif" font-size="10.00">+</text>
<text text-anchor="start" x="29" y="-267" font-family="Helvetica,sans-Serif" font-size="10.00">correlationKey</text>
<text text-anchor="start" x="15" y="-252" font-family="Helvetica,sans-Serif" font-size="10.00">+</text>
<text text-anchor="start" x="29" y="-252" font-family="Helvetica,sans-Serif" font-size="10.00">initiatingParticipantRef</text>
<text text-anchor="start" x="15" y="-237" font-family="Helvetica,sans-Serif" font-size="10.00">+</text>
<text text-anchor="start" x="29" y="-237" font-family="Helvetica,sans-Serif" font-size="10.00">loopType</text>
<text text-anchor="start" x="15" y="-222" font-family="Helvetica,sans-Serif" font-size="10.00">+</text>
<text text-anchor="start" x="29" y="-222" font-family="Helvetica,sans-Serif" font-size="10.00">defaults</text>
<text text-anchor="start" x="15" y="-207" font-family="Helvetica,sans-Serif" font-size="10.00">#</text>
<text text-anchor="start" x="29" y="-207" font-family="Helvetica,sans-Serif" font-size="10.00">tChoreographyActivity()</text>
<polygon fill="#666666" stroke="#666666" points="10,-292 10,-292 153,-292 153,-292 10,-292"/>
<polygon fill="#666666" stroke="#666666" points="10,-217 10,-217 27,-217 27,-217 10,-217"/>
<polygon fill="#666666" stroke="#666666" points="27,-217 27,-217 153,-217 153,-217 27,-217"/>
<polygon fill="none" stroke="#666666" points="9.5,-200 9.5,-320 152.5,-320 152.5,-200 9.5,-200"/>
</a>
</g>
</g>
<!-- Node2&#45;&gt;Node1 -->
<g id="edge1_Node000001_Node000002" class="edge">
<title>Node2&#45;&gt;Node1</title>
<g id="a_edge1_Node000001_Node000002"><a xlink:title=" ">
<path fill="none" stroke="#63b8ff" d="M81,-189.52C81,-180.87 81,-172.28 81,-164.34"/>
<polygon fill="none" stroke="#63b8ff" points="77.5,-189.67 81,-199.67 84.5,-189.67 77.5,-189.67"/>
</a>
</g>
</g>
<!-- Node3 -->
<g id="Node000003" class="node">
<title>Node3</title>
<g id="a_Node000003"><a xlink:href="classXML_1_1bpmn_1_1tFlowNode.html" target="_top" xlink:title=" ">
<polygon fill="white" stroke="transparent" points="143,-435 19,-435 19,-356 143,-356 143,-435"/>
<text text-anchor="start" x="24" y="-422.5" font-family="Helvetica,sans-Serif" font-size="10.00">XML::bpmn::tFlowNode</text>
<text text-anchor="start" x="33.5" y="-407.5" font-family="Helvetica,sans-Serif" font-size="10.00">+</text>
<text text-anchor="start" x="57" y="-407.5" font-family="Helvetica,sans-Serif" font-size="10.00">incoming</text>
<text text-anchor="start" x="33.5" y="-392.5" font-family="Helvetica,sans-Serif" font-size="10.00">+</text>
<text text-anchor="start" x="57" y="-392.5" font-family="Helvetica,sans-Serif" font-size="10.00">outgoing</text>
<text text-anchor="start" x="33.5" y="-377.5" font-family="Helvetica,sans-Serif" font-size="10.00">+</text>
<text text-anchor="start" x="57" y="-377.5" font-family="Helvetica,sans-Serif" font-size="10.00">defaults</text>
<text text-anchor="start" x="33.5" y="-362.5" font-family="Helvetica,sans-Serif" font-size="10.00">#</text>
<text text-anchor="start" x="57" y="-362.5" font-family="Helvetica,sans-Serif" font-size="10.00">tFlowNode()</text>
<polygon fill="#666666" stroke="#666666" points="19,-417.5 19,-417.5 143,-417.5 143,-417.5 19,-417.5"/>
<polygon fill="#666666" stroke="#666666" points="19,-372.5 19,-372.5 55,-372.5 55,-372.5 19,-372.5"/>
<polygon fill="#666666" stroke="#666666" points="55,-372.5 55,-372.5 143,-372.5 143,-372.5 55,-372.5"/>
<polygon fill="none" stroke="#666666" points="19,-356 19,-435 143,-435 143,-356 19,-356"/>
</a>
</g>
</g>
<!-- Node3&#45;&gt;Node2 -->
<g id="edge2_Node000002_Node000003" class="edge">
<title>Node3&#45;&gt;Node2</title>
<g id="a_edge2_Node000002_Node000003"><a xlink:title=" ">
<path fill="none" stroke="#63b8ff" d="M81,-345.64C81,-337.36 81,-328.67 81,-320.15"/>
<polygon fill="none" stroke="#63b8ff" points="77.5,-345.89 81,-355.89 84.5,-345.89 77.5,-345.89"/>
</a>
</g>
</g>
<!-- Node4 -->
<g id="Node000004" class="node">
<title>Node4</title>
<g id="a_Node000004"><a xlink:href="classXML_1_1bpmn_1_1tFlowElement.html" target="_top" xlink:title=" ">
<polygon fill="white" stroke="transparent" points="150.5,-580 11.5,-580 11.5,-471 150.5,-471 150.5,-580"/>
<text text-anchor="start" x="17" y="-567.5" font-family="Helvetica,sans-Serif" font-size="10.00">XML::bpmn::tFlowElement</text>
<text text-anchor="start" x="23.5" y="-552.5" font-family="Helvetica,sans-Serif" font-size="10.00">+</text>
<text text-anchor="start" x="44" y="-552.5" font-family="Helvetica,sans-Serif" font-size="10.00">auditing</text>
<text text-anchor="start" x="23.5" y="-537.5" font-family="Helvetica,sans-Serif" font-size="10.00">+</text>
<text text-anchor="start" x="44" y="-537.5" font-family="Helvetica,sans-Serif" font-size="10.00">monitoring</text>
<text text-anchor="start" x="23.5" y="-522.5" font-family="Helvetica,sans-Serif" font-size="10.00">+</text>
<text text-anchor="start" x="44" y="-522.5" font-family="Helvetica,sans-Serif" font-size="10.00">categoryValueRef</text>
<text text-anchor="start" x="23.5" y="-507.5" font-family="Helvetica,sans-Serif" font-size="10.00">+</text>
<text text-anchor="start" x="44" y="-507.5" font-family="Helvetica,sans-Serif" font-size="10.00">name</text>
<text text-anchor="start" x="23.5" y="-492.5" font-family="Helvetica,sans-Serif" font-size="10.00">+</text>
<text text-anchor="start" x="44" y="-492.5" font-family="Helvetica,sans-Serif" font-size="10.00">defaults</text>
<text text-anchor="start" x="23.5" y="-477.5" font-family="Helvetica,sans-Serif" font-size="10.00">#</text>
<text text-anchor="start" x="44" y="-477.5" font-family="Helvetica,sans-Serif" font-size="10.00">tFlowElement()</text>
<polygon fill="#666666" stroke="#666666" points="12,-562.5 12,-562.5 151,-562.5 151,-562.5 12,-562.5"/>
<polygon fill="#666666" stroke="#666666" points="12,-487.5 12,-487.5 42,-487.5 42,-487.5 12,-487.5"/>
<polygon fill="#666666" stroke="#666666" points="42,-487.5 42,-487.5 151,-487.5 151,-487.5 42,-487.5"/>
<polygon fill="none" stroke="#666666" points="11.5,-471 11.5,-580 150.5,-580 150.5,-471 11.5,-471"/>
</a>
</g>
</g>
<!-- Node4&#45;&gt;Node3 -->
<g id="edge3_Node000003_Node000004" class="edge">
<title>Node4&#45;&gt;Node3</title>
<g id="a_edge3_Node000003_Node000004"><a xlink:title=" ">
<path fill="none" stroke="#63b8ff" d="M81,-460.7C81,-451.93 81,-443.16 81,-435.03"/>
<polygon fill="none" stroke="#63b8ff" points="77.5,-460.96 81,-470.96 84.5,-460.96 77.5,-460.96"/>
</a>
</g>
</g>
<!-- Node5 -->
<g id="Node000005" class="node">
<title>Node5</title>
<g id="a_Node000005"><a xlink:href="classXML_1_1bpmn_1_1tBaseElement.html" target="_top" xlink:title=" ">
<polygon fill="white" stroke="transparent" points="151,-710 11,-710 11,-616 151,-616 151,-710"/>
<text text-anchor="start" x="16" y="-698" font-family="Helvetica,sans-Serif" font-size="10.00">XML::bpmn::tBaseElement</text>
<text text-anchor="start" x="21" y="-683" font-family="Helvetica,sans-Serif" font-size="10.00">+</text>
<text text-anchor="start" x="40" y="-683" font-family="Helvetica,sans-Serif" font-size="10.00">documentation</text>
<text text-anchor="start" x="21" y="-668" font-family="Helvetica,sans-Serif" font-size="10.00">+</text>
<text text-anchor="start" x="40" y="-668" font-family="Helvetica,sans-Serif" font-size="10.00">extensionElements</text>
<text text-anchor="start" x="21" y="-653" font-family="Helvetica,sans-Serif" font-size="10.00">+</text>
<text text-anchor="start" x="40" y="-653" font-family="Helvetica,sans-Serif" font-size="10.00">id</text>
<text text-anchor="start" x="21" y="-638" font-family="Helvetica,sans-Serif" font-size="10.00">+</text>
<text text-anchor="start" x="40" y="-638" font-family="Helvetica,sans-Serif" font-size="10.00">defaults</text>
<text text-anchor="start" x="21" y="-623" font-family="Helvetica,sans-Serif" font-size="10.00">#</text>
<text text-anchor="start" x="40" y="-623" font-family="Helvetica,sans-Serif" font-size="10.00">tBaseElement()</text>
<polygon fill="#666666" stroke="#666666" points="11,-693 11,-693 151,-693 151,-693 11,-693"/>
<polygon fill="#666666" stroke="#666666" points="11,-633 11,-633 38,-633 38,-633 11,-633"/>
<polygon fill="#666666" stroke="#666666" points="38,-633 38,-633 151,-633 151,-633 38,-633"/>
<polygon fill="none" stroke="#666666" points="11,-616 11,-710 151,-710 151,-616 11,-616"/>
</a>
</g>
</g>
<!-- Node5&#45;&gt;Node4 -->
<g id="edge4_Node000004_Node000005" class="edge">
<title>Node5&#45;&gt;Node4</title>
<g id="a_edge4_Node000004_Node000005"><a xlink:title=" ">
<path fill="none" stroke="#63b8ff" d="M81,-605.58C81,-597.12 81,-588.41 81,-580.01"/>
<polygon fill="none" stroke="#63b8ff" points="77.5,-605.75 81,-615.75 84.5,-605.75 77.5,-605.75"/>
</a>
</g>
</g>
<!-- Node6 -->
<g id="Node000006" class="node">
<title>Node6</title>
<g id="a_Node000006"><a xlink:href="classXML_1_1XMLObject.html" target="_top" xlink:title="A class representing a node in an XML&#45;tree.">
<polygon fill="white" stroke="transparent" points="141,-1140 21,-1140 21,-746 141,-746 141,-1140"/>
<text text-anchor="start" x="41" y="-1128" font-family="Helvetica,sans-Serif" font-size="10.00">XML::XMLObject</text>
<text text-anchor="start" x="25" y="-1113" font-family="Helvetica,sans-Serif" font-size="10.00">+</text>
<text text-anchor="start" x="38" y="-1113" font-family="Helvetica,sans-Serif" font-size="10.00">xmlns</text>
<text text-anchor="start" x="25" y="-1098" font-family="Helvetica,sans-Serif" font-size="10.00">+</text>
<text text-anchor="start" x="38" y="-1098" font-family="Helvetica,sans-Serif" font-size="10.00">className</text>
<text text-anchor="start" x="25" y="-1083" font-family="Helvetica,sans-Serif" font-size="10.00">+</text>
<text text-anchor="start" x="38" y="-1083" font-family="Helvetica,sans-Serif" font-size="10.00">prefix</text>
<text text-anchor="start" x="25" y="-1068" font-family="Helvetica,sans-Serif" font-size="10.00">+</text>
<text text-anchor="start" x="38" y="-1068" font-family="Helvetica,sans-Serif" font-size="10.00">elementName</text>
<text text-anchor="start" x="25" y="-1053" font-family="Helvetica,sans-Serif" font-size="10.00">+</text>
<text text-anchor="start" x="38" y="-1053" font-family="Helvetica,sans-Serif" font-size="10.00">textContent</text>
<text text-anchor="start" x="25" y="-1038" font-family="Helvetica,sans-Serif" font-size="10.00">+</text>
<text text-anchor="start" x="38" y="-1038" font-family="Helvetica,sans-Serif" font-size="10.00">children</text>
<text text-anchor="start" x="25" y="-1023" font-family="Helvetica,sans-Serif" font-size="10.00">+</text>
<text text-anchor="start" x="38" y="-1023" font-family="Helvetica,sans-Serif" font-size="10.00">attributes</text>
<text text-anchor="start" x="25" y="-1008" font-family="Helvetica,sans-Serif" font-size="10.00">+</text>
<text text-anchor="start" x="38" y="-1008" font-family="Helvetica,sans-Serif" font-size="10.00">defaults</text>
<text text-anchor="start" x="25" y="-993" font-family="Helvetica,sans-Serif" font-size="10.00">#</text>
<text text-anchor="start" x="38" y="-993" font-family="Helvetica,sans-Serif" font-size="10.00">factory</text>
<text text-anchor="start" x="25" y="-978" font-family="Helvetica,sans-Serif" font-size="10.00">+</text>
<text text-anchor="start" x="38" y="-978" font-family="Helvetica,sans-Serif" font-size="10.00">~XMLObject()</text>
<text text-anchor="start" x="25" y="-963" font-family="Helvetica,sans-Serif" font-size="10.00">+</text>
<text text-anchor="start" x="38" y="-963" font-family="Helvetica,sans-Serif" font-size="10.00">is()</text>
<text text-anchor="start" x="25" y="-948" font-family="Helvetica,sans-Serif" font-size="10.00">+</text>
<text text-anchor="start" x="38" y="-948" font-family="Helvetica,sans-Serif" font-size="10.00">is()</text>
<text text-anchor="start" x="25" y="-933" font-family="Helvetica,sans-Serif" font-size="10.00">+</text>
<text text-anchor="start" x="38" y="-933" font-family="Helvetica,sans-Serif" font-size="10.00">get()</text>
<text text-anchor="start" x="25" y="-918" font-family="Helvetica,sans-Serif" font-size="10.00">+</text>
<text text-anchor="start" x="38" y="-918" font-family="Helvetica,sans-Serif" font-size="10.00">get()</text>
<text text-anchor="start" x="25" y="-903" font-family="Helvetica,sans-Serif" font-size="10.00">+</text>
<text text-anchor="start" x="38" y="-903" font-family="Helvetica,sans-Serif" font-size="10.00">find()</text>
<text text-anchor="start" x="25" y="-888" font-family="Helvetica,sans-Serif" font-size="10.00">+</text>
<text text-anchor="start" x="38" y="-888" font-family="Helvetica,sans-Serif" font-size="10.00">find()</text>
<text text-anchor="start" x="25" y="-873" font-family="Helvetica,sans-Serif" font-size="10.00">+</text>
<text text-anchor="start" x="38" y="-873" font-family="Helvetica,sans-Serif" font-size="10.00">stringify()</text>
<text text-anchor="start" x="25" y="-858" font-family="Helvetica,sans-Serif" font-size="10.00">+</text>
<text text-anchor="start" x="38" y="-858" font-family="Helvetica,sans-Serif" font-size="10.00">format()</text>
<text text-anchor="start" x="25" y="-843" font-family="Helvetica,sans-Serif" font-size="10.00">+</text>
<text text-anchor="start" x="38" y="-843" font-family="Helvetica,sans-Serif" font-size="10.00">getRequiredChild()</text>
<text text-anchor="start" x="38" y="-828" font-family="Helvetica,sans-Serif" font-size="10.00">and 7 more...</text>
<text text-anchor="start" x="25" y="-813" font-family="Helvetica,sans-Serif" font-size="10.00">+</text>
<text text-anchor="start" x="38" y="-813" font-family="Helvetica,sans-Serif" font-size="10.00">createFromStream()</text>
<text text-anchor="start" x="25" y="-798" font-family="Helvetica,sans-Serif" font-size="10.00">+</text>
<text text-anchor="start" x="38" y="-798" font-family="Helvetica,sans-Serif" font-size="10.00">createFromString()</text>
<text text-anchor="start" x="25" y="-783" font-family="Helvetica,sans-Serif" font-size="10.00">+</text>
<text text-anchor="start" x="38" y="-783" font-family="Helvetica,sans-Serif" font-size="10.00">createFromFile()</text>
<text text-anchor="start" x="25" y="-768" font-family="Helvetica,sans-Serif" font-size="10.00">#</text>
<text text-anchor="start" x="38" y="-768" font-family="Helvetica,sans-Serif" font-size="10.00">XMLObject()</text>
<text text-anchor="start" x="25" y="-753" font-family="Helvetica,sans-Serif" font-size="10.00">#</text>
<text text-anchor="start" x="38" y="-753" font-family="Helvetica,sans-Serif" font-size="10.00">createObject()</text>
<polygon fill="#666666" stroke="#666666" points="21,-1123 21,-1123 141,-1123 141,-1123 21,-1123"/>
<polygon fill="#666666" stroke="#666666" points="21,-988 21,-988 36,-988 36,-988 21,-988"/>
<polygon fill="#666666" stroke="#666666" points="36,-988 36,-988 141,-988 141,-988 36,-988"/>
<polygon fill="none" stroke="#666666" points="21,-746 21,-1140 141,-1140 141,-746 21,-746"/>
</a>
</g>
</g>
<!-- Node6&#45;&gt;Node5 -->
<g id="edge5_Node000005_Node000006" class="edge">
<title>Node6&#45;&gt;Node5</title>
<g id="a_edge5_Node000005_Node000006"><a xlink:title=" ">
<path fill="none" stroke="#63b8ff" d="M81,-735.78C81,-726.62 81,-717.97 81,-710.06"/>
<polygon fill="none" stroke="#63b8ff" points="77.5,-735.91 81,-745.91 84.5,-735.91 77.5,-735.91"/>
</a>
</g>
</g>
</g>
</svg>
