<?xml version="1.0" encoding="UTF-8" standalone="no"?>
<!DOCTYPE svg PUBLIC "-//W3C//DTD SVG 1.1//EN"
 "http://www.w3.org/Graphics/SVG/1.1/DTD/svg11.dtd">
<!-- Generated by graphviz version 2.43.0 (0)
 -->
<!-- Title: BPMN::ThrowEvent Pages: 1 -->
<svg width="1430pt" height="767pt"
 viewBox="0.00 0.00 1430.00 767.00" xmlns="http://www.w3.org/2000/svg" xmlns:xlink="http://www.w3.org/1999/xlink">
<g id="graph0" class="graph" transform="scale(1 1) rotate(0) translate(4 763)">
<title>BPMN::ThrowEvent</title>
<!-- Node1 -->
<g id="node1" class="node">
<title>Node1</title>
<g id="a_node1"><a xlink:title=" ">
<polygon fill="#bfbfbf" stroke="black" points="667.5,-105.5 667.5,-162.5 777.5,-162.5 777.5,-105.5 667.5,-105.5"/>
<text text-anchor="middle" x="722.5" y="-150.5" font-family="Helvetica,sans-Serif" font-size="10.00">BPMN::ThrowEvent</text>
<polyline fill="none" stroke="black" points="667.5,-143.5 777.5,-143.5 "/>
<text text-anchor="start" x="675.5" y="-131.5" font-family="Helvetica,sans-Serif" font-size="10.00">+ element</text>
<polyline fill="none" stroke="black" points="667.5,-124.5 777.5,-124.5 "/>
<text text-anchor="start" x="675.5" y="-112.5" font-family="Helvetica,sans-Serif" font-size="10.00">+ ThrowEvent()</text>
</a>
</g>
</g>
<!-- Node6 -->
<g id="node6" class="node">
<title>Node6</title>
<g id="a_node6"><a xlink:href="classBPMN_1_1CancelEndEvent.html" target="_top" xlink:title=" ">
<polygon fill="none" stroke="black" points="0,-6 0,-63 131,-63 131,-6 0,-6"/>
<text text-anchor="middle" x="65.5" y="-51" font-family="Helvetica,sans-Serif" font-size="10.00">BPMN::CancelEndEvent</text>
<polyline fill="none" stroke="black" points="0,-44 131,-44 "/>
<text text-anchor="middle" x="65.5" y="-32" font-family="Helvetica,sans-Serif" font-size="10.00"> </text>
<polyline fill="none" stroke="black" points="0,-25 131,-25 "/>
<text text-anchor="start" x="8" y="-13" font-family="Helvetica,sans-Serif" font-size="10.00">+ CancelEndEvent()</text>
</a>
</g>
</g>
<!-- Node1&#45;&gt;Node6 -->
<g id="edge5" class="edge">
<title>Node1&#45;&gt;Node6</title>
<path fill="none" stroke="midnightblue" d="M656.97,-132.49C547.75,-130.16 322.41,-119.07 139.5,-69 133.52,-67.36 127.4,-65.3 121.38,-63"/>
<polygon fill="none" stroke="midnightblue" points="657.11,-135.99 667.17,-132.69 657.24,-128.99 657.11,-135.99"/>
</g>
<!-- Node7 -->
<g id="node7" class="node">
<title>Node7</title>
<g id="a_node7"><a xlink:href="classBPMN_1_1CompensateThrowEvent.html" target="_top" xlink:title=" ">
<polygon fill="none" stroke="black" points="149,-6 149,-63 320,-63 320,-6 149,-6"/>
<text text-anchor="middle" x="234.5" y="-51" font-family="Helvetica,sans-Serif" font-size="10.00">BPMN::CompensateThrowEvent</text>
<polyline fill="none" stroke="black" points="149,-44 320,-44 "/>
<text text-anchor="start" x="157" y="-32" font-family="Helvetica,sans-Serif" font-size="10.00">+ activity</text>
<polyline fill="none" stroke="black" points="149,-25 320,-25 "/>
<text text-anchor="start" x="157" y="-13" font-family="Helvetica,sans-Serif" font-size="10.00">+ CompensateThrowEvent()</text>
</a>
</g>
</g>
<!-- Node1&#45;&gt;Node7 -->
<g id="edge6" class="edge">
<title>Node1&#45;&gt;Node7</title>
<path fill="none" stroke="midnightblue" d="M657.1,-126.06C578.32,-116.85 442.35,-98.28 328.5,-69 321.7,-67.25 314.71,-65.22 307.74,-63.04"/>
<polygon fill="none" stroke="midnightblue" points="657.02,-129.57 667.36,-127.24 657.83,-122.62 657.02,-129.57"/>
</g>
<!-- Node8 -->
<g id="node8" class="node">
<title>Node8</title>
<g id="a_node8"><a xlink:href="classBPMN_1_1ErrorEndEvent.html" target="_top" xlink:title=" ">
<polygon fill="none" stroke="black" points="338,-6 338,-63 459,-63 459,-6 338,-6"/>
<text text-anchor="middle" x="398.5" y="-51" font-family="Helvetica,sans-Serif" font-size="10.00">BPMN::ErrorEndEvent</text>
<polyline fill="none" stroke="black" points="338,-44 459,-44 "/>
<text text-anchor="middle" x="398.5" y="-32" font-family="Helvetica,sans-Serif" font-size="10.00"> </text>
<polyline fill="none" stroke="black" points="338,-25 459,-25 "/>
<text text-anchor="start" x="346" y="-13" font-family="Helvetica,sans-Serif" font-size="10.00">+ ErrorEndEvent()</text>
</a>
</g>
</g>
<!-- Node1&#45;&gt;Node8 -->
<g id="edge7" class="edge">
<title>Node1&#45;&gt;Node8</title>
<path fill="none" stroke="midnightblue" d="M656.97,-120.25C605.03,-109.26 531.05,-91.59 468.5,-69 463.56,-67.22 458.5,-65.2 453.47,-63.06"/>
<polygon fill="none" stroke="midnightblue" points="656.55,-123.74 667.05,-122.36 657.98,-116.89 656.55,-123.74"/>
</g>
<!-- Node9 -->
<g id="node9" class="node">
<title>Node9</title>
<g id="a_node9"><a xlink:href="classBPMN_1_1EscalationThrowEvent.html" target="_top" xlink:title=" ">
<polygon fill="none" stroke="black" points="477.5,-6 477.5,-63 637.5,-63 637.5,-6 477.5,-6"/>
<text text-anchor="middle" x="557.5" y="-51" font-family="Helvetica,sans-Serif" font-size="10.00">BPMN::EscalationThrowEvent</text>
<polyline fill="none" stroke="black" points="477.5,-44 637.5,-44 "/>
<text text-anchor="middle" x="557.5" y="-32" font-family="Helvetica,sans-Serif" font-size="10.00"> </text>
<polyline fill="none" stroke="black" points="477.5,-25 637.5,-25 "/>
<text text-anchor="start" x="485.5" y="-13" font-family="Helvetica,sans-Serif" font-size="10.00">+ EscalationThrowEvent()</text>
</a>
</g>
</g>
<!-- Node1&#45;&gt;Node9 -->
<g id="edge8" class="edge">
<title>Node1&#45;&gt;Node9</title>
<path fill="none" stroke="midnightblue" d="M666.8,-100.09C646.45,-88.06 623.66,-74.59 604.17,-63.08"/>
<polygon fill="none" stroke="midnightblue" points="665.27,-103.25 675.66,-105.32 668.83,-97.22 665.27,-103.25"/>
</g>
<!-- Node10 -->
<g id="node10" class="node">
<title>Node10</title>
<g id="a_node10"><a xlink:href="classBPMN_1_1LinkSourceEvent.html" target="_top" xlink:title=" ">
<polygon fill="none" stroke="black" points="656,-0.5 656,-68.5 789,-68.5 789,-0.5 656,-0.5"/>
<text text-anchor="middle" x="722.5" y="-56.5" font-family="Helvetica,sans-Serif" font-size="10.00">BPMN::LinkSourceEvent</text>
<polyline fill="none" stroke="black" points="656,-49.5 789,-49.5 "/>
<text text-anchor="start" x="664" y="-37.5" font-family="Helvetica,sans-Serif" font-size="10.00">+ linkName</text>
<text text-anchor="start" x="664" y="-26.5" font-family="Helvetica,sans-Serif" font-size="10.00">+ target</text>
<polyline fill="none" stroke="black" points="656,-19.5 789,-19.5 "/>
<text text-anchor="start" x="664" y="-7.5" font-family="Helvetica,sans-Serif" font-size="10.00">+ LinkSourceEvent()</text>
</a>
</g>
</g>
<!-- Node1&#45;&gt;Node10 -->
<g id="edge9" class="edge">
<title>Node1&#45;&gt;Node10</title>
<path fill="none" stroke="midnightblue" d="M722.5,-95.06C722.5,-86.39 722.5,-77.24 722.5,-68.79"/>
<polygon fill="none" stroke="midnightblue" points="719,-95.32 722.5,-105.32 726,-95.32 719,-95.32"/>
</g>
<!-- Node11 -->
<g id="node11" class="node">
<title>Node11</title>
<g id="a_node11"><a xlink:href="classBPMN_1_1MessageThrowEvent.html" target="_top" xlink:title=" ">
<polygon fill="none" stroke="black" points="807,-6 807,-63 960,-63 960,-6 807,-6"/>
<text text-anchor="middle" x="883.5" y="-51" font-family="Helvetica,sans-Serif" font-size="10.00">BPMN::MessageThrowEvent</text>
<polyline fill="none" stroke="black" points="807,-44 960,-44 "/>
<text text-anchor="middle" x="883.5" y="-32" font-family="Helvetica,sans-Serif" font-size="10.00"> </text>
<polyline fill="none" stroke="black" points="807,-25 960,-25 "/>
<text text-anchor="start" x="815" y="-13" font-family="Helvetica,sans-Serif" font-size="10.00">+ MessageThrowEvent()</text>
</a>
</g>
</g>
<!-- Node1&#45;&gt;Node11 -->
<g id="edge10" class="edge">
<title>Node1&#45;&gt;Node11</title>
<path fill="none" stroke="midnightblue" d="M776.85,-100.09C796.71,-88.06 818.95,-74.59 837.96,-63.08"/>
<polygon fill="none" stroke="midnightblue" points="774.95,-97.15 768.21,-105.32 778.57,-103.13 774.95,-97.15"/>
</g>
<!-- Node12 -->
<g id="node12" class="node">
<title>Node12</title>
<g id="a_node12"><a xlink:href="classBPMN_1_1SignalThrowEvent.html" target="_top" xlink:title=" ">
<polygon fill="none" stroke="black" points="978.5,-6 978.5,-63 1118.5,-63 1118.5,-6 978.5,-6"/>
<text text-anchor="middle" x="1048.5" y="-51" font-family="Helvetica,sans-Serif" font-size="10.00">BPMN::SignalThrowEvent</text>
<polyline fill="none" stroke="black" points="978.5,-44 1118.5,-44 "/>
<text text-anchor="middle" x="1048.5" y="-32" font-family="Helvetica,sans-Serif" font-size="10.00"> </text>
<polyline fill="none" stroke="black" points="978.5,-25 1118.5,-25 "/>
<text text-anchor="start" x="986.5" y="-13" font-family="Helvetica,sans-Serif" font-size="10.00">+ SignalThrowEvent()</text>
</a>
</g>
</g>
<!-- Node1&#45;&gt;Node12 -->
<g id="edge11" class="edge">
<title>Node1&#45;&gt;Node12</title>
<path fill="none" stroke="midnightblue" d="M787.4,-118.95C837.67,-107.4 908.74,-89.63 969.5,-69 974.86,-67.18 980.37,-65.16 985.87,-63.05"/>
<polygon fill="none" stroke="midnightblue" points="786.61,-115.54 777.63,-121.17 788.16,-122.36 786.61,-115.54"/>
</g>
<!-- Node13 -->
<g id="node13" class="node">
<title>Node13</title>
<g id="a_node13"><a xlink:href="classBPMN_1_1TerminateEvent.html" target="_top" xlink:title=" ">
<polygon fill="none" stroke="black" points="1136.5,-6 1136.5,-63 1264.5,-63 1264.5,-6 1136.5,-6"/>
<text text-anchor="middle" x="1200.5" y="-51" font-family="Helvetica,sans-Serif" font-size="10.00">BPMN::TerminateEvent</text>
<polyline fill="none" stroke="black" points="1136.5,-44 1264.5,-44 "/>
<text text-anchor="middle" x="1200.5" y="-32" font-family="Helvetica,sans-Serif" font-size="10.00"> </text>
<polyline fill="none" stroke="black" points="1136.5,-25 1264.5,-25 "/>
<text text-anchor="start" x="1144.5" y="-13" font-family="Helvetica,sans-Serif" font-size="10.00">+ TerminateEvent()</text>
</a>
</g>
</g>
<!-- Node1&#45;&gt;Node13 -->
<g id="edge12" class="edge">
<title>Node1&#45;&gt;Node13</title>
<path fill="none" stroke="midnightblue" d="M787.67,-128.22C868.73,-121.02 1010.69,-104.3 1127.5,-69 1133.11,-67.31 1138.84,-65.27 1144.5,-63.04"/>
<polygon fill="none" stroke="midnightblue" points="787.27,-124.74 777.61,-129.09 787.87,-131.71 787.27,-124.74"/>
</g>
<!-- Node14 -->
<g id="node14" class="node">
<title>Node14</title>
<g id="a_node14"><a xlink:href="classBPMN_1_1UntypedEndEvent.html" target="_top" xlink:title=" ">
<polygon fill="none" stroke="black" points="1283,-6 1283,-63 1422,-63 1422,-6 1283,-6"/>
<text text-anchor="middle" x="1352.5" y="-51" font-family="Helvetica,sans-Serif" font-size="10.00">BPMN::UntypedEndEvent</text>
<polyline fill="none" stroke="black" points="1283,-44 1422,-44 "/>
<text text-anchor="middle" x="1352.5" y="-32" font-family="Helvetica,sans-Serif" font-size="10.00"> </text>
<polyline fill="none" stroke="black" points="1283,-25 1422,-25 "/>
<text text-anchor="start" x="1291" y="-13" font-family="Helvetica,sans-Serif" font-size="10.00">+ UntypedEndEvent()</text>
</a>
</g>
</g>
<!-- Node1&#45;&gt;Node14 -->
<g id="edge13" class="edge">
<title>Node1&#45;&gt;Node14</title>
<path fill="none" stroke="midnightblue" d="M787.88,-131.41C892.22,-127.54 1102.07,-114.3 1273.5,-69 1279.69,-67.36 1286.03,-65.33 1292.3,-63.08"/>
<polygon fill="none" stroke="midnightblue" points="787.69,-127.92 777.82,-131.77 787.93,-134.91 787.69,-127.92"/>
</g>
<!-- Node2 -->
<g id="node2" class="node">
<title>Node2</title>
<g id="a_node2"><a xlink:href="classBPMN_1_1Event.html" target="_top" xlink:title=" ">
<polygon fill="none" stroke="black" points="682.5,-199.5 682.5,-256.5 762.5,-256.5 762.5,-199.5 682.5,-199.5"/>
<text text-anchor="middle" x="722.5" y="-244.5" font-family="Helvetica,sans-Serif" font-size="10.00">BPMN::Event</text>
<polyline fill="none" stroke="black" points="682.5,-237.5 762.5,-237.5 "/>
<text text-anchor="start" x="690.5" y="-225.5" font-family="Helvetica,sans-Serif" font-size="10.00">+ element</text>
<polyline fill="none" stroke="black" points="682.5,-218.5 762.5,-218.5 "/>
<text text-anchor="start" x="690.5" y="-206.5" font-family="Helvetica,sans-Serif" font-size="10.00">+ Event()</text>
</a>
</g>
</g>
<!-- Node2&#45;&gt;Node1 -->
<g id="edge1" class="edge">
<title>Node2&#45;&gt;Node1</title>
<path fill="none" stroke="midnightblue" d="M722.5,-189.21C722.5,-180.29 722.5,-170.95 722.5,-162.58"/>
<polygon fill="none" stroke="midnightblue" points="719,-189.4 722.5,-199.4 726,-189.4 719,-189.4"/>
</g>
<!-- Node3 -->
<g id="node3" class="node">
<title>Node3</title>
<g id="a_node3"><a xlink:href="classBPMN_1_1FlowNode.html" target="_top" xlink:title="Base class for BPMN elements that may contain incoming and outgoing SequenceFlow elements.">
<polygon fill="none" stroke="black" points="672,-293.5 672,-383.5 773,-383.5 773,-293.5 672,-293.5"/>
<text text-anchor="middle" x="722.5" y="-371.5" font-family="Helvetica,sans-Serif" font-size="10.00">BPMN::FlowNode</text>
<polyline fill="none" stroke="black" points="672,-364.5 773,-364.5 "/>
<text text-anchor="start" x="680" y="-352.5" font-family="Helvetica,sans-Serif" font-size="10.00">+ element</text>
<text text-anchor="start" x="680" y="-341.5" font-family="Helvetica,sans-Serif" font-size="10.00">+ name</text>
<text text-anchor="start" x="680" y="-330.5" font-family="Helvetica,sans-Serif" font-size="10.00">+ incoming</text>
<text text-anchor="start" x="680" y="-319.5" font-family="Helvetica,sans-Serif" font-size="10.00">+ outgoing</text>
<polyline fill="none" stroke="black" points="672,-312.5 773,-312.5 "/>
<text text-anchor="start" x="680" y="-300.5" font-family="Helvetica,sans-Serif" font-size="10.00">+ FlowNode()</text>
</a>
</g>
</g>
<!-- Node3&#45;&gt;Node2 -->
<g id="edge2" class="edge">
<title>Node3&#45;&gt;Node2</title>
<path fill="none" stroke="midnightblue" d="M722.5,-283.35C722.5,-274.07 722.5,-264.79 722.5,-256.59"/>
<polygon fill="none" stroke="midnightblue" points="719,-283.37 722.5,-293.37 726,-283.37 719,-283.37"/>
</g>
<!-- Node4 -->
<g id="node4" class="node">
<title>Node4</title>
<g id="a_node4"><a xlink:href="classBPMN_1_1ChildNode.html" target="_top" xlink:title="Base class for BPMN elements within a Scope.">
<polygon fill="none" stroke="black" points="671.5,-420.5 671.5,-477.5 773.5,-477.5 773.5,-420.5 671.5,-420.5"/>
<text text-anchor="middle" x="722.5" y="-465.5" font-family="Helvetica,sans-Serif" font-size="10.00">BPMN::ChildNode</text>
<polyline fill="none" stroke="black" points="671.5,-458.5 773.5,-458.5 "/>
<text text-anchor="start" x="679.5" y="-446.5" font-family="Helvetica,sans-Serif" font-size="10.00">+ parent</text>
<polyline fill="none" stroke="black" points="671.5,-439.5 773.5,-439.5 "/>
<text text-anchor="start" x="679.5" y="-427.5" font-family="Helvetica,sans-Serif" font-size="10.00">+ ChildNode()</text>
</a>
</g>
</g>
<!-- Node4&#45;&gt;Node3 -->
<g id="edge3" class="edge">
<title>Node4&#45;&gt;Node3</title>
<path fill="none" stroke="midnightblue" d="M722.5,-410.21C722.5,-401.61 722.5,-392.39 722.5,-383.55"/>
<polygon fill="none" stroke="midnightblue" points="719,-410.34 722.5,-420.34 726,-410.34 719,-410.34"/>
</g>
<!-- Node5 -->
<g id="node5" class="node">
<title>Node5</title>
<g id="a_node5"><a xlink:href="classBPMN_1_1Node.html" target="_top" xlink:title="Base class for all elements in a BPMN model.">
<polygon fill="none" stroke="black" points="661.5,-514.5 661.5,-758.5 783.5,-758.5 783.5,-514.5 661.5,-514.5"/>
<text text-anchor="middle" x="722.5" y="-746.5" font-family="Helvetica,sans-Serif" font-size="10.00">BPMN::Node</text>
<polyline fill="none" stroke="black" points="661.5,-739.5 783.5,-739.5 "/>
<text text-anchor="start" x="669.5" y="-727.5" font-family="Helvetica,sans-Serif" font-size="10.00">+ id</text>
<text text-anchor="start" x="669.5" y="-716.5" font-family="Helvetica,sans-Serif" font-size="10.00">+ receiving</text>
<text text-anchor="start" x="669.5" y="-705.5" font-family="Helvetica,sans-Serif" font-size="10.00">+ sending</text>
<text text-anchor="start" x="669.5" y="-694.5" font-family="Helvetica,sans-Serif" font-size="10.00">+ element</text>
<text text-anchor="start" x="669.5" y="-683.5" font-family="Helvetica,sans-Serif" font-size="10.00">+ extensionElements</text>
<polyline fill="none" stroke="black" points="661.5,-676.5 783.5,-676.5 "/>
<text text-anchor="start" x="669.5" y="-664.5" font-family="Helvetica,sans-Serif" font-size="10.00">+ Node()</text>
<text text-anchor="start" x="669.5" y="-653.5" font-family="Helvetica,sans-Serif" font-size="10.00">+ ~Node()</text>
<text text-anchor="start" x="669.5" y="-642.5" font-family="Helvetica,sans-Serif" font-size="10.00">+ is()</text>
<text text-anchor="start" x="669.5" y="-631.5" font-family="Helvetica,sans-Serif" font-size="10.00">+ is()</text>
<text text-anchor="start" x="669.5" y="-620.5" font-family="Helvetica,sans-Serif" font-size="10.00">+ get()</text>
<text text-anchor="start" x="669.5" y="-609.5" font-family="Helvetica,sans-Serif" font-size="10.00">+ get()</text>
<text text-anchor="start" x="669.5" y="-598.5" font-family="Helvetica,sans-Serif" font-size="10.00">+ represents()</text>
<text text-anchor="start" x="669.5" y="-587.5" font-family="Helvetica,sans-Serif" font-size="10.00">+ represents()</text>
<text text-anchor="start" x="669.5" y="-576.5" font-family="Helvetica,sans-Serif" font-size="10.00">+ as()</text>
<text text-anchor="start" x="669.5" y="-565.5" font-family="Helvetica,sans-Serif" font-size="10.00">+ as()</text>
<text text-anchor="start" x="669.5" y="-554.5" font-family="Helvetica,sans-Serif" font-size="10.00">+ find()</text>
<text text-anchor="start" x="669.5" y="-543.5" font-family="Helvetica,sans-Serif" font-size="10.00">+ find()</text>
<text text-anchor="start" x="669.5" y="-532.5" font-family="Helvetica,sans-Serif" font-size="10.00">+ find_all()</text>
<text text-anchor="start" x="669.5" y="-521.5" font-family="Helvetica,sans-Serif" font-size="10.00">+ find_all()</text>
</a>
</g>
</g>
<!-- Node5&#45;&gt;Node4 -->
<g id="edge4" class="edge">
<title>Node5&#45;&gt;Node4</title>
<path fill="none" stroke="midnightblue" d="M722.5,-504.34C722.5,-494.53 722.5,-485.42 722.5,-477.57"/>
<polygon fill="none" stroke="midnightblue" points="719,-504.36 722.5,-514.36 726,-504.36 719,-504.36"/>
</g>
</g>
</svg>
