<?xml version="1.0" encoding="UTF-8" standalone="no"?>
<!DOCTYPE svg PUBLIC "-//W3C//DTD SVG 1.1//EN"
 "http://www.w3.org/Graphics/SVG/1.1/DTD/svg11.dtd">
<!-- Generated by graphviz version 2.43.0 (0)
 -->
<!-- Title: XML::bpmn::tCompensateEventDefinition Pages: 1 -->
<svg width="177pt" height="924pt"
 viewBox="0.00 0.00 177.00 924.00" xmlns="http://www.w3.org/2000/svg" xmlns:xlink="http://www.w3.org/1999/xlink">
<g id="graph0" class="graph" transform="scale(1 1) rotate(0) translate(4 920)">
<title>XML::bpmn::tCompensateEventDefinition</title>
<!-- Node1 -->
<g id="Node000001" class="node">
<title>Node1</title>
<g id="a_Node000001"><a xlink:title=" ">
<polygon fill="#999999" stroke="transparent" points="169,-186 0,-186 0,-96 169,-96 169,-186"/>
<text text-anchor="start" x="8" y="-174" font-family="Helvetica,sans-Serif" font-size="10.00">XML::bpmn::tCompensateEvent</text>
<text text-anchor="start" x="61" y="-163" font-family="Helvetica,sans-Serif" font-size="10.00">Definition</text>
<text text-anchor="start" x="4.5" y="-148" font-family="Helvetica,sans-Serif" font-size="10.00">+</text>
<text text-anchor="start" x="17.5" y="-148" font-family="Helvetica,sans-Serif" font-size="10.00">waitForCompletion</text>
<text text-anchor="start" x="4.5" y="-133" font-family="Helvetica,sans-Serif" font-size="10.00">+</text>
<text text-anchor="start" x="17.5" y="-133" font-family="Helvetica,sans-Serif" font-size="10.00">activityRef</text>
<text text-anchor="start" x="4.5" y="-118" font-family="Helvetica,sans-Serif" font-size="10.00">+</text>
<text text-anchor="start" x="17.5" y="-118" font-family="Helvetica,sans-Serif" font-size="10.00">defaults</text>
<text text-anchor="start" x="4.5" y="-103" font-family="Helvetica,sans-Serif" font-size="10.00">#</text>
<text text-anchor="start" x="17.5" y="-103" font-family="Helvetica,sans-Serif" font-size="10.00">tCompensateEventDefinition()</text>
<polygon fill="#666666" stroke="#666666" points="0.5,-158 0.5,-158 169.5,-158 169.5,-158 0.5,-158"/>
<polygon fill="#666666" stroke="#666666" points="0.5,-113 0.5,-113 15.5,-113 15.5,-113 0.5,-113"/>
<polygon fill="#666666" stroke="#666666" points="15.5,-113 15.5,-113 169.5,-113 169.5,-113 15.5,-113"/>
<polygon fill="none" stroke="#666666" points="0,-96 0,-186 169,-186 169,-96 0,-96"/>
</a>
</g>
</g>
<!-- Node6 -->
<g id="Node000006" class="node">
<title>Node6</title>
<g id="a_Node000006"><a xlink:href="classXML_1_1bpmn_1_1compensateEventDefinition.html" target="_top" xlink:title=" ">
<polygon fill="white" stroke="transparent" points="166.5,-60 2.5,-60 2.5,0 166.5,0 166.5,-60"/>
<text text-anchor="start" x="10" y="-48" font-family="Helvetica,sans-Serif" font-size="10.00">XML::bpmn::compensateEvent</text>
<text text-anchor="start" x="60.5" y="-37" font-family="Helvetica,sans-Serif" font-size="10.00">Definition</text>
<text text-anchor="start" x="6.5" y="-22" font-family="Helvetica,sans-Serif" font-size="10.00">+</text>
<text text-anchor="start" x="19.5" y="-22" font-family="Helvetica,sans-Serif" font-size="10.00">defaults</text>
<text text-anchor="start" x="6.5" y="-7" font-family="Helvetica,sans-Serif" font-size="10.00">#</text>
<text text-anchor="start" x="19.5" y="-7" font-family="Helvetica,sans-Serif" font-size="10.00">compensateEventDefinition()</text>
<polygon fill="#666666" stroke="#666666" points="2.5,-32 2.5,-32 166.5,-32 166.5,-32 2.5,-32"/>
<polygon fill="#666666" stroke="#666666" points="2.5,-17 2.5,-17 17.5,-17 17.5,-17 2.5,-17"/>
<polygon fill="#666666" stroke="#666666" points="17.5,-17 17.5,-17 166.5,-17 166.5,-17 17.5,-17"/>
<polygon fill="none" stroke="#666666" points="2.5,0 2.5,-60 166.5,-60 166.5,0 2.5,0"/>
</a>
</g>
</g>
<!-- Node1&#45;&gt;Node6 -->
<g id="edge5_Node000001_Node000006" class="edge">
<title>Node1&#45;&gt;Node6</title>
<g id="a_edge5_Node000001_Node000006"><a xlink:title=" ">
<path fill="none" stroke="#63b8ff" d="M84.5,-85.7C84.5,-76.89 84.5,-68.07 84.5,-60.17"/>
<polygon fill="none" stroke="#63b8ff" points="81,-85.98 84.5,-95.98 88,-85.98 81,-85.98"/>
</a>
</g>
</g>
<!-- Node2 -->
<g id="Node000002" class="node">
<title>Node2</title>
<g id="a_Node000002"><a xlink:href="classXML_1_1bpmn_1_1tEventDefinition.html" target="_top" xlink:title=" ">
<polygon fill="white" stroke="transparent" points="159.5,-271 9.5,-271 9.5,-222 159.5,-222 159.5,-271"/>
<text text-anchor="start" x="14.5" y="-258.5" font-family="Helvetica,sans-Serif" font-size="10.00">XML::bpmn::tEventDefinition</text>
<text text-anchor="start" x="24" y="-243.5" font-family="Helvetica,sans-Serif" font-size="10.00">+</text>
<text text-anchor="start" x="47.5" y="-243.5" font-family="Helvetica,sans-Serif" font-size="10.00">defaults</text>
<text text-anchor="start" x="24" y="-228.5" font-family="Helvetica,sans-Serif" font-size="10.00">#</text>
<text text-anchor="start" x="47.5" y="-228.5" font-family="Helvetica,sans-Serif" font-size="10.00">tEventDefinition()</text>
<polygon fill="#666666" stroke="#666666" points="9.5,-253.5 9.5,-253.5 159.5,-253.5 159.5,-253.5 9.5,-253.5"/>
<polygon fill="#666666" stroke="#666666" points="9.5,-238.5 9.5,-238.5 45.5,-238.5 45.5,-238.5 9.5,-238.5"/>
<polygon fill="#666666" stroke="#666666" points="45.5,-238.5 45.5,-238.5 159.5,-238.5 159.5,-238.5 45.5,-238.5"/>
<polygon fill="none" stroke="#666666" points="9.5,-222 9.5,-271 159.5,-271 159.5,-222 9.5,-222"/>
</a>
</g>
</g>
<!-- Node2&#45;&gt;Node1 -->
<g id="edge1_Node000001_Node000002" class="edge">
<title>Node2&#45;&gt;Node1</title>
<g id="a_edge1_Node000001_Node000002"><a xlink:title=" ">
<path fill="none" stroke="#63b8ff" d="M84.5,-211.62C84.5,-203.56 84.5,-194.84 84.5,-186.39"/>
<polygon fill="none" stroke="#63b8ff" points="81,-211.75 84.5,-221.76 88,-211.76 81,-211.75"/>
</a>
</g>
</g>
<!-- Node3 -->
<g id="Node000003" class="node">
<title>Node3</title>
<g id="a_Node000003"><a xlink:href="classXML_1_1bpmn_1_1tRootElement.html" target="_top" xlink:title=" ">
<polygon fill="white" stroke="transparent" points="153.5,-356 15.5,-356 15.5,-307 153.5,-307 153.5,-356"/>
<text text-anchor="start" x="20.5" y="-343.5" font-family="Helvetica,sans-Serif" font-size="10.00">XML::bpmn::tRootElement</text>
<text text-anchor="start" x="30" y="-328.5" font-family="Helvetica,sans-Serif" font-size="10.00">+</text>
<text text-anchor="start" x="53.5" y="-328.5" font-family="Helvetica,sans-Serif" font-size="10.00">defaults</text>
<text text-anchor="start" x="30" y="-313.5" font-family="Helvetica,sans-Serif" font-size="10.00">#</text>
<text text-anchor="start" x="53.5" y="-313.5" font-family="Helvetica,sans-Serif" font-size="10.00">tRootElement()</text>
<polygon fill="#666666" stroke="#666666" points="15.5,-338.5 15.5,-338.5 153.5,-338.5 153.5,-338.5 15.5,-338.5"/>
<polygon fill="#666666" stroke="#666666" points="15.5,-323.5 15.5,-323.5 51.5,-323.5 51.5,-323.5 15.5,-323.5"/>
<polygon fill="#666666" stroke="#666666" points="51.5,-323.5 51.5,-323.5 153.5,-323.5 153.5,-323.5 51.5,-323.5"/>
<polygon fill="none" stroke="#666666" points="15.5,-307 15.5,-356 153.5,-356 153.5,-307 15.5,-307"/>
</a>
</g>
</g>
<!-- Node3&#45;&gt;Node2 -->
<g id="edge2_Node000002_Node000003" class="edge">
<title>Node3&#45;&gt;Node2</title>
<g id="a_edge2_Node000002_Node000003"><a xlink:title=" ">
<path fill="none" stroke="#63b8ff" d="M84.5,-296.77C84.5,-288.17 84.5,-279.1 84.5,-271.12"/>
<polygon fill="none" stroke="#63b8ff" points="81,-296.94 84.5,-306.94 88,-296.94 81,-296.94"/>
</a>
</g>
</g>
<!-- Node4 -->
<g id="Node000004" class="node">
<title>Node4</title>
<g id="a_Node000004"><a xlink:href="classXML_1_1bpmn_1_1tBaseElement.html" target="_top" xlink:title=" ">
<polygon fill="white" stroke="transparent" points="154.5,-486 14.5,-486 14.5,-392 154.5,-392 154.5,-486"/>
<text text-anchor="start" x="19.5" y="-474" font-family="Helvetica,sans-Serif" font-size="10.00">XML::bpmn::tBaseElement</text>
<text text-anchor="start" x="24.5" y="-459" font-family="Helvetica,sans-Serif" font-size="10.00">+</text>
<text text-anchor="start" x="43.5" y="-459" font-family="Helvetica,sans-Serif" font-size="10.00">documentation</text>
<text text-anchor="start" x="24.5" y="-444" font-family="Helvetica,sans-Serif" font-size="10.00">+</text>
<text text-anchor="start" x="43.5" y="-444" font-family="Helvetica,sans-Serif" font-size="10.00">extensionElements</text>
<text text-anchor="start" x="24.5" y="-429" font-family="Helvetica,sans-Serif" font-size="10.00">+</text>
<text text-anchor="start" x="43.5" y="-429" font-family="Helvetica,sans-Serif" font-size="10.00">id</text>
<text text-anchor="start" x="24.5" y="-414" font-family="Helvetica,sans-Serif" font-size="10.00">+</text>
<text text-anchor="start" x="43.5" y="-414" font-family="Helvetica,sans-Serif" font-size="10.00">defaults</text>
<text text-anchor="start" x="24.5" y="-399" font-family="Helvetica,sans-Serif" font-size="10.00">#</text>
<text text-anchor="start" x="43.5" y="-399" font-family="Helvetica,sans-Serif" font-size="10.00">tBaseElement()</text>
<polygon fill="#666666" stroke="#666666" points="14.5,-469 14.5,-469 154.5,-469 154.5,-469 14.5,-469"/>
<polygon fill="#666666" stroke="#666666" points="14.5,-409 14.5,-409 41.5,-409 41.5,-409 14.5,-409"/>
<polygon fill="#666666" stroke="#666666" points="41.5,-409 41.5,-409 154.5,-409 154.5,-409 41.5,-409"/>
<polygon fill="none" stroke="#666666" points="14.5,-392 14.5,-486 154.5,-486 154.5,-392 14.5,-392"/>
</a>
</g>
</g>
<!-- Node4&#45;&gt;Node3 -->
<g id="edge3_Node000003_Node000004" class="edge">
<title>Node4&#45;&gt;Node3</title>
<g id="a_edge3_Node000003_Node000004"><a xlink:title=" ">
<path fill="none" stroke="#63b8ff" d="M84.5,-381.59C84.5,-372.62 84.5,-363.79 84.5,-356.15"/>
<polygon fill="none" stroke="#63b8ff" points="81,-381.73 84.5,-391.73 88,-381.73 81,-381.73"/>
</a>
</g>
</g>
<!-- Node5 -->
<g id="Node000005" class="node">
<title>Node5</title>
<g id="a_Node000005"><a xlink:href="classXML_1_1XMLObject.html" target="_top" xlink:title="A class representing a node in an XML&#45;tree.">
<polygon fill="white" stroke="transparent" points="144.5,-916 24.5,-916 24.5,-522 144.5,-522 144.5,-916"/>
<text text-anchor="start" x="44.5" y="-904" font-family="Helvetica,sans-Serif" font-size="10.00">XML::XMLObject</text>
<text text-anchor="start" x="28.5" y="-889" font-family="Helvetica,sans-Serif" font-size="10.00">+</text>
<text text-anchor="start" x="41.5" y="-889" font-family="Helvetica,sans-Serif" font-size="10.00">xmlns</text>
<text text-anchor="start" x="28.5" y="-874" font-family="Helvetica,sans-Serif" font-size="10.00">+</text>
<text text-anchor="start" x="41.5" y="-874" font-family="Helvetica,sans-Serif" font-size="10.00">className</text>
<text text-anchor="start" x="28.5" y="-859" font-family="Helvetica,sans-Serif" font-size="10.00">+</text>
<text text-anchor="start" x="41.5" y="-859" font-family="Helvetica,sans-Serif" font-size="10.00">prefix</text>
<text text-anchor="start" x="28.5" y="-844" font-family="Helvetica,sans-Serif" font-size="10.00">+</text>
<text text-anchor="start" x="41.5" y="-844" font-family="Helvetica,sans-Serif" font-size="10.00">elementName</text>
<text text-anchor="start" x="28.5" y="-829" font-family="Helvetica,sans-Serif" font-size="10.00">+</text>
<text text-anchor="start" x="41.5" y="-829" font-family="Helvetica,sans-Serif" font-size="10.00">textContent</text>
<text text-anchor="start" x="28.5" y="-814" font-family="Helvetica,sans-Serif" font-size="10.00">+</text>
<text text-anchor="start" x="41.5" y="-814" font-family="Helvetica,sans-Serif" font-size="10.00">children</text>
<text text-anchor="start" x="28.5" y="-799" font-family="Helvetica,sans-Serif" font-size="10.00">+</text>
<text text-anchor="start" x="41.5" y="-799" font-family="Helvetica,sans-Serif" font-size="10.00">attributes</text>
<text text-anchor="start" x="28.5" y="-784" font-family="Helvetica,sans-Serif" font-size="10.00">+</text>
<text text-anchor="start" x="41.5" y="-784" font-family="Helvetica,sans-Serif" font-size="10.00">defaults</text>
<text text-anchor="start" x="28.5" y="-769" font-family="Helvetica,sans-Serif" font-size="10.00">#</text>
<text text-anchor="start" x="41.5" y="-769" font-family="Helvetica,sans-Serif" font-size="10.00">factory</text>
<text text-anchor="start" x="28.5" y="-754" font-family="Helvetica,sans-Serif" font-size="10.00">+</text>
<text text-anchor="start" x="41.5" y="-754" font-family="Helvetica,sans-Serif" font-size="10.00">~XMLObject()</text>
<text text-anchor="start" x="28.5" y="-739" font-family="Helvetica,sans-Serif" font-size="10.00">+</text>
<text text-anchor="start" x="41.5" y="-739" font-family="Helvetica,sans-Serif" font-size="10.00">is()</text>
<text text-anchor="start" x="28.5" y="-724" font-family="Helvetica,sans-Serif" font-size="10.00">+</text>
<text text-anchor="start" x="41.5" y="-724" font-family="Helvetica,sans-Serif" font-size="10.00">is()</text>
<text text-anchor="start" x="28.5" y="-709" font-family="Helvetica,sans-Serif" font-size="10.00">+</text>
<text text-anchor="start" x="41.5" y="-709" font-family="Helvetica,sans-Serif" font-size="10.00">get()</text>
<text text-anchor="start" x="28.5" y="-694" font-family="Helvetica,sans-Serif" font-size="10.00">+</text>
<text text-anchor="start" x="41.5" y="-694" font-family="Helvetica,sans-Serif" font-size="10.00">get()</text>
<text text-anchor="start" x="28.5" y="-679" font-family="Helvetica,sans-Serif" font-size="10.00">+</text>
<text text-anchor="start" x="41.5" y="-679" font-family="Helvetica,sans-Serif" font-size="10.00">find()</text>
<text text-anchor="start" x="28.5" y="-664" font-family="Helvetica,sans-Serif" font-size="10.00">+</text>
<text text-anchor="start" x="41.5" y="-664" font-family="Helvetica,sans-Serif" font-size="10.00">find()</text>
<text text-anchor="start" x="28.5" y="-649" font-family="Helvetica,sans-Serif" font-size="10.00">+</text>
<text text-anchor="start" x="41.5" y="-649" font-family="Helvetica,sans-Serif" font-size="10.00">stringify()</text>
<text text-anchor="start" x="28.5" y="-634" font-family="Helvetica,sans-Serif" font-size="10.00">+</text>
<text text-anchor="start" x="41.5" y="-634" font-family="Helvetica,sans-Serif" font-size="10.00">format()</text>
<text text-anchor="start" x="28.5" y="-619" font-family="Helvetica,sans-Serif" font-size="10.00">+</text>
<text text-anchor="start" x="41.5" y="-619" font-family="Helvetica,sans-Serif" font-size="10.00">getRequiredChild()</text>
<text text-anchor="start" x="41.5" y="-604" font-family="Helvetica,sans-Serif" font-size="10.00">and 7 more...</text>
<text text-anchor="start" x="28.5" y="-589" font-family="Helvetica,sans-Serif" font-size="10.00">+</text>
<text text-anchor="start" x="41.5" y="-589" font-family="Helvetica,sans-Serif" font-size="10.00">createFromStream()</text>
<text text-anchor="start" x="28.5" y="-574" font-family="Helvetica,sans-Serif" font-size="10.00">+</text>
<text text-anchor="start" x="41.5" y="-574" font-family="Helvetica,sans-Serif" font-size="10.00">createFromString()</text>
<text text-anchor="start" x="28.5" y="-559" font-family="Helvetica,sans-Serif" font-size="10.00">+</text>
<text text-anchor="start" x="41.5" y="-559" font-family="Helvetica,sans-Serif" font-size="10.00">createFromFile()</text>
<text text-anchor="start" x="28.5" y="-544" font-family="Helvetica,sans-Serif" font-size="10.00">#</text>
<text text-anchor="start" x="41.5" y="-544" font-family="Helvetica,sans-Serif" font-size="10.00">XMLObject()</text>
<text text-anchor="start" x="28.5" y="-529" font-family="Helvetica,sans-Serif" font-size="10.00">#</text>
<text text-anchor="start" x="41.5" y="-529" font-family="Helvetica,sans-Serif" font-size="10.00">createObject()</text>
<polygon fill="#666666" stroke="#666666" points="24.5,-899 24.5,-899 144.5,-899 144.5,-899 24.5,-899"/>
<polygon fill="#666666" stroke="#666666" points="24.5,-764 24.5,-764 39.5,-764 39.5,-764 24.5,-764"/>
<polygon fill="#666666" stroke="#666666" points="39.5,-764 39.5,-764 144.5,-764 144.5,-764 39.5,-764"/>
<polygon fill="none" stroke="#666666" points="24.5,-522 24.5,-916 144.5,-916 144.5,-522 24.5,-522"/>
</a>
</g>
</g>
<!-- Node5&#45;&gt;Node4 -->
<g id="edge4_Node000004_Node000005" class="edge">
<title>Node5&#45;&gt;Node4</title>
<g id="a_edge4_Node000004_Node000005"><a xlink:title=" ">
<path fill="none" stroke="#63b8ff" d="M84.5,-511.78C84.5,-502.62 84.5,-493.97 84.5,-486.06"/>
<polygon fill="none" stroke="#63b8ff" points="81,-511.91 84.5,-521.91 88,-511.91 81,-511.91"/>
</a>
</g>
</g>
</g>
</svg>
