<?xml version="1.0" encoding="UTF-8" standalone="no"?>
<!DOCTYPE svg PUBLIC "-//W3C//DTD SVG 1.1//EN"
 "http://www.w3.org/Graphics/SVG/1.1/DTD/svg11.dtd">
<!-- Generated by graphviz version 14.1.2 (0)
 -->
<!-- Title: BPMN::LinkSourceEvent Pages: 1 -->
<svg width="132pt" height="1063pt"
 viewBox="0.00 0.00 132.00 1063.00" xmlns="http://www.w3.org/2000/svg" xmlns:xlink="http://www.w3.org/1999/xlink">
<g id="graph0" class="graph" transform="scale(1 1) rotate(0) translate(4 1058.5)">
<title>BPMN::LinkSourceEvent</title>
<!-- Node1 -->
<g id="Node000001" class="node">
<title>Node1</title>
<g id="a_Node000001"><a xlink:title=" ">
<polygon fill="#999999" stroke="none" points="124.25,-71 0,-71 0,0 124.25,0 124.25,-71"/>
<text xml:space="preserve" text-anchor="start" x="4" y="-57.5" font-family="Helvetica,sans-Serif" font-size="10.00">BPMN::LinkSourceEvent</text>
<text xml:space="preserve" text-anchor="start" x="7.88" y="-40.75" font-family="Helvetica,sans-Serif" font-size="10.00">+</text>
<text xml:space="preserve" text-anchor="start" x="24" y="-40.75" font-family="Helvetica,sans-Serif" font-size="10.00">linkName</text>
<text xml:space="preserve" text-anchor="start" x="7.88" y="-24" font-family="Helvetica,sans-Serif" font-size="10.00">+</text>
<text xml:space="preserve" text-anchor="start" x="24" y="-24" font-family="Helvetica,sans-Serif" font-size="10.00">target</text>
<text xml:space="preserve" text-anchor="start" x="7.88" y="-7.25" font-family="Helvetica,sans-Serif" font-size="10.00">+</text>
<text xml:space="preserve" text-anchor="start" x="24" y="-7.25" font-family="Helvetica,sans-Serif" font-size="10.00">LinkSourceEvent()</text>
<polygon fill="#666666" stroke="#666666" points="0,-52.25 0,-52.25 124.25,-52.25 124.25,-52.25 0,-52.25"/>
<polygon fill="#666666" stroke="#666666" points="0,-18.75 0,-18.75 22,-18.75 22,-18.75 0,-18.75"/>
<polygon fill="#666666" stroke="#666666" points="22,-18.75 22,-18.75 124.25,-18.75 124.25,-18.75 22,-18.75"/>
<polygon fill="none" stroke="#666666" points="0,0 0,-71 124.25,-71 124.25,0 0,0"/>
</a>
</g>
</g>
<!-- Node2 -->
<g id="Node000002" class="node">
<title>Node2</title>
<g id="a_Node000002"><a xlink:href="classBPMN_1_1ThrowEvent.html" target="_top" xlink:title=" ">
<polygon fill="white" stroke="none" points="112.62,-161.25 11.62,-161.25 11.62,-107 112.62,-107 112.62,-161.25"/>
<text xml:space="preserve" text-anchor="start" x="15.62" y="-147.75" font-family="Helvetica,sans-Serif" font-size="10.00">BPMN::ThrowEvent</text>
<text xml:space="preserve" text-anchor="start" x="19.5" y="-131" font-family="Helvetica,sans-Serif" font-size="10.00">+</text>
<text xml:space="preserve" text-anchor="start" x="35.62" y="-131" font-family="Helvetica,sans-Serif" font-size="10.00">element</text>
<text xml:space="preserve" text-anchor="start" x="19.5" y="-114.25" font-family="Helvetica,sans-Serif" font-size="10.00">+</text>
<text xml:space="preserve" text-anchor="start" x="35.62" y="-114.25" font-family="Helvetica,sans-Serif" font-size="10.00">ThrowEvent()</text>
<polygon fill="#666666" stroke="#666666" points="11.62,-142.5 11.62,-142.5 112.62,-142.5 112.62,-142.5 11.62,-142.5"/>
<polygon fill="#666666" stroke="#666666" points="11.62,-125.75 11.62,-125.75 33.62,-125.75 33.62,-125.75 11.62,-125.75"/>
<polygon fill="#666666" stroke="#666666" points="33.62,-125.75 33.62,-125.75 112.62,-125.75 112.62,-125.75 33.62,-125.75"/>
<polygon fill="none" stroke="#666666" points="11.62,-107 11.62,-161.25 112.62,-161.25 112.62,-107 11.62,-107"/>
</a>
</g>
</g>
<!-- Node2&#45;&gt;Node1 -->
<g id="edge1_Node000001_Node000002" class="edge">
<title>Node2&#45;&gt;Node1</title>
<g id="a_edge1_Node000001_Node000002"><a xlink:title=" ">
<path fill="none" stroke="#63b8ff" d="M62.12,-95.96C62.12,-87.7 62.12,-78.97 62.12,-70.83"/>
<polygon fill="none" stroke="#63b8ff" points="58.63,-95.72 62.13,-105.72 65.63,-95.72 58.63,-95.72"/>
</a>
</g>
</g>
<!-- Node3 -->
<g id="Node000003" class="node">
<title>Node3</title>
<g id="a_Node000003"><a xlink:href="classBPMN_1_1Event.html" target="_top" xlink:title=" ">
<polygon fill="white" stroke="none" points="97.62,-251.5 26.62,-251.5 26.62,-197.25 97.62,-197.25 97.62,-251.5"/>
<text xml:space="preserve" text-anchor="start" x="30.62" y="-238" font-family="Helvetica,sans-Serif" font-size="10.00">BPMN::Event</text>
<text xml:space="preserve" text-anchor="start" x="33.19" y="-221.25" font-family="Helvetica,sans-Serif" font-size="10.00">+</text>
<text xml:space="preserve" text-anchor="start" x="48" y="-221.25" font-family="Helvetica,sans-Serif" font-size="10.00">element</text>
<text xml:space="preserve" text-anchor="start" x="33.19" y="-204.5" font-family="Helvetica,sans-Serif" font-size="10.00">+</text>
<text xml:space="preserve" text-anchor="start" x="48" y="-204.5" font-family="Helvetica,sans-Serif" font-size="10.00">Event()</text>
<polygon fill="#666666" stroke="#666666" points="26.62,-232.75 26.62,-232.75 97.62,-232.75 97.62,-232.75 26.62,-232.75"/>
<polygon fill="#666666" stroke="#666666" points="26.62,-216 26.62,-216 46,-216 46,-216 26.62,-216"/>
<polygon fill="#666666" stroke="#666666" points="46,-216 46,-216 97.62,-216 97.62,-216 46,-216"/>
<polygon fill="none" stroke="#666666" points="26.62,-197.25 26.62,-251.5 97.62,-251.5 97.62,-197.25 26.62,-197.25"/>
</a>
</g>
</g>
<!-- Node3&#45;&gt;Node2 -->
<g id="edge2_Node000002_Node000003" class="edge">
<title>Node3&#45;&gt;Node2</title>
<g id="a_edge2_Node000002_Node000003"><a xlink:title=" ">
<path fill="none" stroke="#63b8ff" d="M62.12,-185.96C62.12,-177.64 62.12,-168.99 62.12,-161.24"/>
<polygon fill="none" stroke="#63b8ff" points="58.63,-185.86 62.13,-195.86 65.63,-185.86 58.63,-185.86"/>
</a>
</g>
</g>
<!-- Node4 -->
<g id="Node000004" class="node">
<title>Node4</title>
<g id="a_Node000004"><a xlink:href="classBPMN_1_1FlowNode.html" target="_top" xlink:title="Base class for BPMN elements that may contain incoming and outgoing sequence flows.">
<polygon fill="white" stroke="none" points="108.12,-392 16.12,-392 16.12,-287.5 108.12,-287.5 108.12,-392"/>
<text xml:space="preserve" text-anchor="start" x="20.12" y="-378.5" font-family="Helvetica,sans-Serif" font-size="10.00">BPMN::FlowNode</text>
<text xml:space="preserve" text-anchor="start" x="24" y="-361.75" font-family="Helvetica,sans-Serif" font-size="10.00">+</text>
<text xml:space="preserve" text-anchor="start" x="40.12" y="-361.75" font-family="Helvetica,sans-Serif" font-size="10.00">element</text>
<text xml:space="preserve" text-anchor="start" x="24" y="-345" font-family="Helvetica,sans-Serif" font-size="10.00">+</text>
<text xml:space="preserve" text-anchor="start" x="40.12" y="-345" font-family="Helvetica,sans-Serif" font-size="10.00">name</text>
<text xml:space="preserve" text-anchor="start" x="24" y="-328.25" font-family="Helvetica,sans-Serif" font-size="10.00">+</text>
<text xml:space="preserve" text-anchor="start" x="40.12" y="-328.25" font-family="Helvetica,sans-Serif" font-size="10.00">incoming</text>
<text xml:space="preserve" text-anchor="start" x="24" y="-311.5" font-family="Helvetica,sans-Serif" font-size="10.00">+</text>
<text xml:space="preserve" text-anchor="start" x="40.12" y="-311.5" font-family="Helvetica,sans-Serif" font-size="10.00">outgoing</text>
<text xml:space="preserve" text-anchor="start" x="24" y="-294.75" font-family="Helvetica,sans-Serif" font-size="10.00">+</text>
<text xml:space="preserve" text-anchor="start" x="40.12" y="-294.75" font-family="Helvetica,sans-Serif" font-size="10.00">FlowNode()</text>
<polygon fill="#666666" stroke="#666666" points="16.12,-373.25 16.12,-373.25 108.12,-373.25 108.12,-373.25 16.12,-373.25"/>
<polygon fill="#666666" stroke="#666666" points="16.12,-306.25 16.12,-306.25 38.12,-306.25 38.12,-306.25 16.12,-306.25"/>
<polygon fill="#666666" stroke="#666666" points="38.12,-306.25 38.12,-306.25 108.12,-306.25 108.12,-306.25 38.12,-306.25"/>
<polygon fill="none" stroke="#666666" points="16.12,-287.5 16.12,-392 108.12,-392 108.12,-287.5 16.12,-287.5"/>
</a>
</g>
</g>
<!-- Node4&#45;&gt;Node3 -->
<g id="edge3_Node000003_Node000004" class="edge">
<title>Node4&#45;&gt;Node3</title>
<g id="a_edge3_Node000003_Node000004"><a xlink:title=" ">
<path fill="none" stroke="#63b8ff" d="M62.12,-276.47C62.12,-267.62 62.12,-258.96 62.12,-251.36"/>
<polygon fill="none" stroke="#63b8ff" points="58.63,-276.19 62.13,-286.19 65.63,-276.19 58.63,-276.19"/>
</a>
</g>
</g>
<!-- Node5 -->
<g id="Node000005" class="node">
<title>Node5</title>
<g id="a_Node000005"><a xlink:href="classBPMN_1_1ChildNode.html" target="_top" xlink:title="Base class for BPMN elements within a Scope.">
<polygon fill="white" stroke="none" points="108.88,-515.75 15.38,-515.75 15.38,-428 108.88,-428 108.88,-515.75"/>
<text xml:space="preserve" text-anchor="start" x="19.38" y="-502.25" font-family="Helvetica,sans-Serif" font-size="10.00">BPMN::ChildNode</text>
<text xml:space="preserve" text-anchor="start" x="23.25" y="-485.5" font-family="Helvetica,sans-Serif" font-size="10.00">+</text>
<text xml:space="preserve" text-anchor="start" x="39.38" y="-485.5" font-family="Helvetica,sans-Serif" font-size="10.00">parent</text>
<text xml:space="preserve" text-anchor="start" x="23.25" y="-468.75" font-family="Helvetica,sans-Serif" font-size="10.00">+</text>
<text xml:space="preserve" text-anchor="start" x="39.38" y="-468.75" font-family="Helvetica,sans-Serif" font-size="10.00">ChildNode()</text>
<text xml:space="preserve" text-anchor="start" x="23.25" y="-452" font-family="Helvetica,sans-Serif" font-size="10.00">+</text>
<text xml:space="preserve" text-anchor="start" x="39.38" y="-452" font-family="Helvetica,sans-Serif" font-size="10.00">ancestor()</text>
<text xml:space="preserve" text-anchor="start" x="23.25" y="-435.25" font-family="Helvetica,sans-Serif" font-size="10.00">+</text>
<text xml:space="preserve" text-anchor="start" x="39.38" y="-435.25" font-family="Helvetica,sans-Serif" font-size="10.00">ancestor()</text>
<polygon fill="#666666" stroke="#666666" points="15.38,-497 15.38,-497 108.88,-497 108.88,-497 15.38,-497"/>
<polygon fill="#666666" stroke="#666666" points="15.38,-480.25 15.38,-480.25 37.38,-480.25 37.38,-480.25 15.38,-480.25"/>
<polygon fill="#666666" stroke="#666666" points="37.38,-480.25 37.38,-480.25 108.88,-480.25 108.88,-480.25 37.38,-480.25"/>
<polygon fill="none" stroke="#666666" points="15.38,-428 15.38,-515.75 108.88,-515.75 108.88,-428 15.38,-428"/>
</a>
</g>
</g>
<!-- Node5&#45;&gt;Node4 -->
<g id="edge4_Node000004_Node000005" class="edge">
<title>Node5&#45;&gt;Node4</title>
<g id="a_edge4_Node000004_Node000005"><a xlink:title=" ">
<path fill="none" stroke="#63b8ff" d="M62.12,-417.02C62.12,-408.61 62.12,-399.95 62.12,-391.61"/>
<polygon fill="none" stroke="#63b8ff" points="58.63,-416.75 62.13,-426.75 65.63,-416.75 58.63,-416.75"/>
</a>
</g>
</g>
<!-- Node6 -->
<g id="Node000006" class="node">
<title>Node6</title>
<g id="a_Node000006"><a xlink:href="classBPMN_1_1Node.html" target="_top" xlink:title="Base class for all nodes in a BPMN model.">
<polygon fill="white" stroke="none" points="96.5,-689.75 27.75,-689.75 27.75,-551.75 96.5,-551.75 96.5,-689.75"/>
<text xml:space="preserve" text-anchor="start" x="31.75" y="-676.25" font-family="Helvetica,sans-Serif" font-size="10.00">BPMN::Node</text>
<text xml:space="preserve" text-anchor="start" x="32.62" y="-659.5" font-family="Helvetica,sans-Serif" font-size="10.00">+</text>
<text xml:space="preserve" text-anchor="start" x="45.75" y="-659.5" font-family="Helvetica,sans-Serif" font-size="10.00">receiving</text>
<text xml:space="preserve" text-anchor="start" x="32.62" y="-642.75" font-family="Helvetica,sans-Serif" font-size="10.00">+</text>
<text xml:space="preserve" text-anchor="start" x="45.75" y="-642.75" font-family="Helvetica,sans-Serif" font-size="10.00">sending</text>
<text xml:space="preserve" text-anchor="start" x="32.62" y="-626" font-family="Helvetica,sans-Serif" font-size="10.00">+</text>
<text xml:space="preserve" text-anchor="start" x="45.75" y="-626" font-family="Helvetica,sans-Serif" font-size="10.00">Node()</text>
<text xml:space="preserve" text-anchor="start" x="32.62" y="-609.25" font-family="Helvetica,sans-Serif" font-size="10.00">+</text>
<text xml:space="preserve" text-anchor="start" x="45.75" y="-609.25" font-family="Helvetica,sans-Serif" font-size="10.00">find()</text>
<text xml:space="preserve" text-anchor="start" x="32.62" y="-592.5" font-family="Helvetica,sans-Serif" font-size="10.00">+</text>
<text xml:space="preserve" text-anchor="start" x="45.75" y="-592.5" font-family="Helvetica,sans-Serif" font-size="10.00">find()</text>
<text xml:space="preserve" text-anchor="start" x="32.62" y="-575.75" font-family="Helvetica,sans-Serif" font-size="10.00">+</text>
<text xml:space="preserve" text-anchor="start" x="45.75" y="-575.75" font-family="Helvetica,sans-Serif" font-size="10.00">find_all()</text>
<text xml:space="preserve" text-anchor="start" x="32.62" y="-559" font-family="Helvetica,sans-Serif" font-size="10.00">+</text>
<text xml:space="preserve" text-anchor="start" x="45.75" y="-559" font-family="Helvetica,sans-Serif" font-size="10.00">find_all()</text>
<polygon fill="#666666" stroke="#666666" points="27.75,-671 27.75,-671 96.5,-671 96.5,-671 27.75,-671"/>
<polygon fill="#666666" stroke="#666666" points="27.75,-637.5 27.75,-637.5 43.75,-637.5 43.75,-637.5 27.75,-637.5"/>
<polygon fill="#666666" stroke="#666666" points="43.75,-637.5 43.75,-637.5 96.5,-637.5 96.5,-637.5 43.75,-637.5"/>
<polygon fill="none" stroke="#666666" points="27.75,-551.75 27.75,-689.75 96.5,-689.75 96.5,-551.75 27.75,-551.75"/>
</a>
</g>
</g>
<!-- Node6&#45;&gt;Node5 -->
<g id="edge5_Node000005_Node000006" class="edge">
<title>Node6&#45;&gt;Node5</title>
<g id="a_edge5_Node000005_Node000006"><a xlink:title=" ">
<path fill="none" stroke="#63b8ff" d="M62.12,-540.61C62.12,-532.04 62.12,-523.58 62.12,-515.69"/>
<polygon fill="none" stroke="#63b8ff" points="58.63,-540.39 62.13,-550.39 65.63,-540.39 58.63,-540.39"/>
</a>
</g>
</g>
<!-- Node7 -->
<g id="Node000007" class="node">
<title>Node7</title>
<g id="a_Node000007"><a xlink:href="classBPMN_1_1BaseElement.html" target="_top" xlink:title="Base class for all core BPMN elements.">
<polygon fill="white" stroke="none" points="119.12,-897.25 5.12,-897.25 5.12,-725.75 119.12,-725.75 119.12,-897.25"/>
<text xml:space="preserve" text-anchor="start" x="12.25" y="-883.75" font-family="Helvetica,sans-Serif" font-size="10.00">BPMN::BaseElement</text>
<text xml:space="preserve" text-anchor="start" x="9.12" y="-867" font-family="Helvetica,sans-Serif" font-size="10.00">+</text>
<text xml:space="preserve" text-anchor="start" x="21.38" y="-867" font-family="Helvetica,sans-Serif" font-size="10.00">element</text>
<text xml:space="preserve" text-anchor="start" x="9.12" y="-850.25" font-family="Helvetica,sans-Serif" font-size="10.00">+</text>
<text xml:space="preserve" text-anchor="start" x="21.38" y="-850.25" font-family="Helvetica,sans-Serif" font-size="10.00">id</text>
<text xml:space="preserve" text-anchor="start" x="9.12" y="-833.5" font-family="Helvetica,sans-Serif" font-size="10.00">+</text>
<text xml:space="preserve" text-anchor="start" x="21.38" y="-833.5" font-family="Helvetica,sans-Serif" font-size="10.00">extensionElements</text>
<text xml:space="preserve" text-anchor="start" x="9.12" y="-816.75" font-family="Helvetica,sans-Serif" font-size="10.00">+</text>
<text xml:space="preserve" text-anchor="start" x="21.38" y="-816.75" font-family="Helvetica,sans-Serif" font-size="10.00">BaseElement()</text>
<text xml:space="preserve" text-anchor="start" x="9.12" y="-800" font-family="Helvetica,sans-Serif" font-size="10.00">+</text>
<text xml:space="preserve" text-anchor="start" x="21.38" y="-800" font-family="Helvetica,sans-Serif" font-size="10.00">~BaseElement()</text>
<text xml:space="preserve" text-anchor="start" x="9.12" y="-783.25" font-family="Helvetica,sans-Serif" font-size="10.00">+</text>
<text xml:space="preserve" text-anchor="start" x="21.38" y="-783.25" font-family="Helvetica,sans-Serif" font-size="10.00">is()</text>
<text xml:space="preserve" text-anchor="start" x="9.12" y="-766.5" font-family="Helvetica,sans-Serif" font-size="10.00">+</text>
<text xml:space="preserve" text-anchor="start" x="21.38" y="-766.5" font-family="Helvetica,sans-Serif" font-size="10.00">is()</text>
<text xml:space="preserve" text-anchor="start" x="9.12" y="-749.75" font-family="Helvetica,sans-Serif" font-size="10.00">+</text>
<text xml:space="preserve" text-anchor="start" x="21.38" y="-749.75" font-family="Helvetica,sans-Serif" font-size="10.00">get()</text>
<text xml:space="preserve" text-anchor="start" x="9.12" y="-733" font-family="Helvetica,sans-Serif" font-size="10.00">+</text>
<text xml:space="preserve" text-anchor="start" x="21.38" y="-733" font-family="Helvetica,sans-Serif" font-size="10.00">get()</text>
<polygon fill="#666666" stroke="#666666" points="5.12,-878.5 5.12,-878.5 119.12,-878.5 119.12,-878.5 5.12,-878.5"/>
<polygon fill="#666666" stroke="#666666" points="5.12,-828.25 5.12,-828.25 19.38,-828.25 19.38,-828.25 5.12,-828.25"/>
<polygon fill="#666666" stroke="#666666" points="19.38,-828.25 19.38,-828.25 119.12,-828.25 119.12,-828.25 19.38,-828.25"/>
<polygon fill="none" stroke="#666666" points="5.12,-725.75 5.12,-897.25 119.12,-897.25 119.12,-725.75 5.12,-725.75"/>
</a>
</g>
</g>
<!-- Node7&#45;&gt;Node6 -->
<g id="edge6_Node000006_Node000007" class="edge">
<title>Node7&#45;&gt;Node6</title>
<g id="a_edge6_Node000006_Node000007"><a xlink:title=" ">
<path fill="none" stroke="#63b8ff" d="M62.12,-714.36C62.12,-705.96 62.12,-697.59 62.12,-689.5"/>
<polygon fill="none" stroke="#63b8ff" points="58.63,-714.27 62.13,-724.27 65.63,-714.27 58.63,-714.27"/>
</a>
</g>
</g>
<!-- Node8 -->
<g id="Node000008" class="node">
<title>Node8</title>
<g id="a_Node000008"><a xlink:href="classBPMN_1_1Element.html" target="_top" xlink:title="Abstract base class for all elements in a BPMN model.">
<polygon fill="white" stroke="none" points="104,-1054.5 20.25,-1054.5 20.25,-933.25 104,-933.25 104,-1054.5"/>
<text xml:space="preserve" text-anchor="start" x="24.25" y="-1041" font-family="Helvetica,sans-Serif" font-size="10.00">BPMN::Element</text>
<text xml:space="preserve" text-anchor="start" x="60.62" y="-1024.25" font-family="Helvetica,sans-Serif" font-size="10.00"> </text>
<text xml:space="preserve" text-anchor="start" x="25.31" y="-1007.5" font-family="Helvetica,sans-Serif" font-size="10.00">+</text>
<text xml:space="preserve" text-anchor="start" x="38.62" y="-1007.5" font-family="Helvetica,sans-Serif" font-size="10.00">~Element()</text>
<text xml:space="preserve" text-anchor="start" x="25.31" y="-990.75" font-family="Helvetica,sans-Serif" font-size="10.00">+</text>
<text xml:space="preserve" text-anchor="start" x="38.62" y="-990.75" font-family="Helvetica,sans-Serif" font-size="10.00">represents()</text>
<text xml:space="preserve" text-anchor="start" x="25.31" y="-974" font-family="Helvetica,sans-Serif" font-size="10.00">+</text>
<text xml:space="preserve" text-anchor="start" x="38.62" y="-974" font-family="Helvetica,sans-Serif" font-size="10.00">represents()</text>
<text xml:space="preserve" text-anchor="start" x="25.31" y="-957.25" font-family="Helvetica,sans-Serif" font-size="10.00">+</text>
<text xml:space="preserve" text-anchor="start" x="38.62" y="-957.25" font-family="Helvetica,sans-Serif" font-size="10.00">as()</text>
<text xml:space="preserve" text-anchor="start" x="25.31" y="-940.5" font-family="Helvetica,sans-Serif" font-size="10.00">+</text>
<text xml:space="preserve" text-anchor="start" x="38.62" y="-940.5" font-family="Helvetica,sans-Serif" font-size="10.00">as()</text>
<polygon fill="#666666" stroke="#666666" points="20.25,-1035.75 20.25,-1035.75 104,-1035.75 104,-1035.75 20.25,-1035.75"/>
<polygon fill="#666666" stroke="#666666" points="20.25,-1019 20.25,-1019 104,-1019 104,-1019 20.25,-1019"/>
<polygon fill="none" stroke="#666666" points="20.25,-933.25 20.25,-1054.5 104,-1054.5 104,-933.25 20.25,-933.25"/>
</a>
</g>
</g>
<!-- Node8&#45;&gt;Node7 -->
<g id="edge7_Node000007_Node000008" class="edge">
<title>Node8&#45;&gt;Node7</title>
<g id="a_edge7_Node000007_Node000008"><a xlink:title=" ">
<path fill="none" stroke="#63b8ff" d="M62.12,-921.96C62.12,-913.81 62.12,-905.44 62.12,-897.13"/>
<polygon fill="none" stroke="#63b8ff" points="58.63,-921.8 62.13,-931.8 65.63,-921.8 58.63,-921.8"/>
</a>
</g>
</g>
</g>
</svg>
