<?xml version="1.0" encoding="UTF-8" standalone="no"?>
<!DOCTYPE svg PUBLIC "-//W3C//DTD SVG 1.1//EN"
 "http://www.w3.org/Graphics/SVG/1.1/DTD/svg11.dtd">
<!-- Generated by graphviz version 2.43.0 (0)
 -->
<!-- Title: XML::bpmn::tErrorEventDefinition Pages: 1 -->
<svg width="187pt" height="833pt"
 viewBox="0.00 0.00 187.00 833.00" xmlns="http://www.w3.org/2000/svg" xmlns:xlink="http://www.w3.org/1999/xlink">
<g id="graph0" class="graph" transform="scale(1 1) rotate(0) translate(4 829)">
<title>XML::bpmn::tErrorEventDefinition</title>
<!-- Node1 -->
<g id="node1" class="node">
<title>Node1</title>
<g id="a_node1"><a xlink:title=" ">
<polygon fill="#bfbfbf" stroke="black" points="0,-94.5 0,-162.5 179,-162.5 179,-94.5 0,-94.5"/>
<text text-anchor="middle" x="89.5" y="-150.5" font-family="Helvetica,sans-Serif" font-size="10.00">XML::bpmn::tErrorEventDefinition</text>
<polyline fill="none" stroke="black" points="0,-143.5 179,-143.5 "/>
<text text-anchor="start" x="8" y="-131.5" font-family="Helvetica,sans-Serif" font-size="10.00">+ errorRef</text>
<text text-anchor="start" x="8" y="-120.5" font-family="Helvetica,sans-Serif" font-size="10.00">+ defaults</text>
<polyline fill="none" stroke="black" points="0,-113.5 179,-113.5 "/>
<text text-anchor="start" x="8" y="-101.5" font-family="Helvetica,sans-Serif" font-size="10.00"># tErrorEventDefinition()</text>
</a>
</g>
</g>
<!-- Node6 -->
<g id="node6" class="node">
<title>Node6</title>
<g id="a_node6"><a xlink:href="classXML_1_1bpmn_1_1errorEventDefinition.html" target="_top" xlink:title=" ">
<polygon fill="none" stroke="black" points="1.5,-0.5 1.5,-57.5 177.5,-57.5 177.5,-0.5 1.5,-0.5"/>
<text text-anchor="middle" x="89.5" y="-45.5" font-family="Helvetica,sans-Serif" font-size="10.00">XML::bpmn::errorEventDefinition</text>
<polyline fill="none" stroke="black" points="1.5,-38.5 177.5,-38.5 "/>
<text text-anchor="start" x="9.5" y="-26.5" font-family="Helvetica,sans-Serif" font-size="10.00">+ defaults</text>
<polyline fill="none" stroke="black" points="1.5,-19.5 177.5,-19.5 "/>
<text text-anchor="start" x="9.5" y="-7.5" font-family="Helvetica,sans-Serif" font-size="10.00"># errorEventDefinition()</text>
</a>
</g>
</g>
<!-- Node1&#45;&gt;Node6 -->
<g id="edge5" class="edge">
<title>Node1&#45;&gt;Node6</title>
<path fill="none" stroke="midnightblue" d="M89.5,-84.45C89.5,-75.4 89.5,-66.09 89.5,-57.78"/>
<polygon fill="none" stroke="midnightblue" points="86,-84.49 89.5,-94.49 93,-84.49 86,-84.49"/>
</g>
<!-- Node2 -->
<g id="node2" class="node">
<title>Node2</title>
<g id="a_node2"><a xlink:href="classXML_1_1bpmn_1_1tEventDefinition.html" target="_top" xlink:title=" ">
<polygon fill="none" stroke="black" points="11.5,-199.5 11.5,-256.5 167.5,-256.5 167.5,-199.5 11.5,-199.5"/>
<text text-anchor="middle" x="89.5" y="-244.5" font-family="Helvetica,sans-Serif" font-size="10.00">XML::bpmn::tEventDefinition</text>
<polyline fill="none" stroke="black" points="11.5,-237.5 167.5,-237.5 "/>
<text text-anchor="start" x="19.5" y="-225.5" font-family="Helvetica,sans-Serif" font-size="10.00">+ defaults</text>
<polyline fill="none" stroke="black" points="11.5,-218.5 167.5,-218.5 "/>
<text text-anchor="start" x="19.5" y="-206.5" font-family="Helvetica,sans-Serif" font-size="10.00"># tEventDefinition()</text>
</a>
</g>
</g>
<!-- Node2&#45;&gt;Node1 -->
<g id="edge1" class="edge">
<title>Node2&#45;&gt;Node1</title>
<path fill="none" stroke="midnightblue" d="M89.5,-189.06C89.5,-180.39 89.5,-171.24 89.5,-162.79"/>
<polygon fill="none" stroke="midnightblue" points="86,-189.32 89.5,-199.32 93,-189.32 86,-189.32"/>
</g>
<!-- Node3 -->
<g id="node3" class="node">
<title>Node3</title>
<g id="a_node3"><a xlink:href="classXML_1_1bpmn_1_1tRootElement.html" target="_top" xlink:title=" ">
<polygon fill="none" stroke="black" points="17.5,-293.5 17.5,-350.5 161.5,-350.5 161.5,-293.5 17.5,-293.5"/>
<text text-anchor="middle" x="89.5" y="-338.5" font-family="Helvetica,sans-Serif" font-size="10.00">XML::bpmn::tRootElement</text>
<polyline fill="none" stroke="black" points="17.5,-331.5 161.5,-331.5 "/>
<text text-anchor="start" x="25.5" y="-319.5" font-family="Helvetica,sans-Serif" font-size="10.00">+ defaults</text>
<polyline fill="none" stroke="black" points="17.5,-312.5 161.5,-312.5 "/>
<text text-anchor="start" x="25.5" y="-300.5" font-family="Helvetica,sans-Serif" font-size="10.00"># tRootElement()</text>
</a>
</g>
</g>
<!-- Node3&#45;&gt;Node2 -->
<g id="edge2" class="edge">
<title>Node3&#45;&gt;Node2</title>
<path fill="none" stroke="midnightblue" d="M89.5,-283.21C89.5,-274.29 89.5,-264.95 89.5,-256.58"/>
<polygon fill="none" stroke="midnightblue" points="86,-283.4 89.5,-293.4 93,-283.4 86,-283.4"/>
</g>
<!-- Node4 -->
<g id="node4" class="node">
<title>Node4</title>
<g id="a_node4"><a xlink:href="classXML_1_1bpmn_1_1tBaseElement.html" target="_top" xlink:title=" ">
<polygon fill="none" stroke="black" points="16.5,-387.5 16.5,-477.5 162.5,-477.5 162.5,-387.5 16.5,-387.5"/>
<text text-anchor="middle" x="89.5" y="-465.5" font-family="Helvetica,sans-Serif" font-size="10.00">XML::bpmn::tBaseElement</text>
<polyline fill="none" stroke="black" points="16.5,-458.5 162.5,-458.5 "/>
<text text-anchor="start" x="24.5" y="-446.5" font-family="Helvetica,sans-Serif" font-size="10.00">+ documentation</text>
<text text-anchor="start" x="24.5" y="-435.5" font-family="Helvetica,sans-Serif" font-size="10.00">+ extensionElements</text>
<text text-anchor="start" x="24.5" y="-424.5" font-family="Helvetica,sans-Serif" font-size="10.00">+ id</text>
<text text-anchor="start" x="24.5" y="-413.5" font-family="Helvetica,sans-Serif" font-size="10.00">+ defaults</text>
<polyline fill="none" stroke="black" points="16.5,-406.5 162.5,-406.5 "/>
<text text-anchor="start" x="24.5" y="-394.5" font-family="Helvetica,sans-Serif" font-size="10.00"># tBaseElement()</text>
</a>
</g>
</g>
<!-- Node4&#45;&gt;Node3 -->
<g id="edge3" class="edge">
<title>Node4&#45;&gt;Node3</title>
<path fill="none" stroke="midnightblue" d="M89.5,-377.35C89.5,-368.07 89.5,-358.79 89.5,-350.59"/>
<polygon fill="none" stroke="midnightblue" points="86,-377.37 89.5,-387.37 93,-377.37 86,-377.37"/>
</g>
<!-- Node5 -->
<g id="node5" class="node">
<title>Node5</title>
<g id="a_node5"><a xlink:href="classXML_1_1XMLObject.html" target="_top" xlink:title="A class representing a node in an XML&#45;tree.">
<polygon fill="none" stroke="black" points="26.5,-514.5 26.5,-824.5 152.5,-824.5 152.5,-514.5 26.5,-514.5"/>
<text text-anchor="middle" x="89.5" y="-812.5" font-family="Helvetica,sans-Serif" font-size="10.00">XML::XMLObject</text>
<polyline fill="none" stroke="black" points="26.5,-805.5 152.5,-805.5 "/>
<text text-anchor="start" x="34.5" y="-793.5" font-family="Helvetica,sans-Serif" font-size="10.00">+ xmlns</text>
<text text-anchor="start" x="34.5" y="-782.5" font-family="Helvetica,sans-Serif" font-size="10.00">+ className</text>
<text text-anchor="start" x="34.5" y="-771.5" font-family="Helvetica,sans-Serif" font-size="10.00">+ prefix</text>
<text text-anchor="start" x="34.5" y="-760.5" font-family="Helvetica,sans-Serif" font-size="10.00">+ elementName</text>
<text text-anchor="start" x="34.5" y="-749.5" font-family="Helvetica,sans-Serif" font-size="10.00">+ textContent</text>
<text text-anchor="start" x="34.5" y="-738.5" font-family="Helvetica,sans-Serif" font-size="10.00">+ children</text>
<text text-anchor="start" x="34.5" y="-727.5" font-family="Helvetica,sans-Serif" font-size="10.00">+ attributes</text>
<text text-anchor="start" x="34.5" y="-716.5" font-family="Helvetica,sans-Serif" font-size="10.00">+ defaults</text>
<text text-anchor="start" x="34.5" y="-705.5" font-family="Helvetica,sans-Serif" font-size="10.00"># factory</text>
<polyline fill="none" stroke="black" points="26.5,-698.5 152.5,-698.5 "/>
<text text-anchor="start" x="34.5" y="-686.5" font-family="Helvetica,sans-Serif" font-size="10.00">+ ~XMLObject()</text>
<text text-anchor="start" x="34.5" y="-675.5" font-family="Helvetica,sans-Serif" font-size="10.00">+ is()</text>
<text text-anchor="start" x="34.5" y="-664.5" font-family="Helvetica,sans-Serif" font-size="10.00">+ is()</text>
<text text-anchor="start" x="34.5" y="-653.5" font-family="Helvetica,sans-Serif" font-size="10.00">+ get()</text>
<text text-anchor="start" x="34.5" y="-642.5" font-family="Helvetica,sans-Serif" font-size="10.00">+ get()</text>
<text text-anchor="start" x="34.5" y="-631.5" font-family="Helvetica,sans-Serif" font-size="10.00">+ find()</text>
<text text-anchor="start" x="34.5" y="-620.5" font-family="Helvetica,sans-Serif" font-size="10.00">+ find()</text>
<text text-anchor="start" x="34.5" y="-609.5" font-family="Helvetica,sans-Serif" font-size="10.00">+ stringify()</text>
<text text-anchor="start" x="34.5" y="-598.5" font-family="Helvetica,sans-Serif" font-size="10.00">+ format()</text>
<text text-anchor="start" x="34.5" y="-587.5" font-family="Helvetica,sans-Serif" font-size="10.00">+ getRequiredChild()</text>
<text text-anchor="start" x="34.5" y="-576.5" font-family="Helvetica,sans-Serif" font-size="10.00">and 7 more...</text>
<text text-anchor="start" x="34.5" y="-565.5" font-family="Helvetica,sans-Serif" font-size="10.00">+ createFromStream()</text>
<text text-anchor="start" x="34.5" y="-554.5" font-family="Helvetica,sans-Serif" font-size="10.00">+ createFromString()</text>
<text text-anchor="start" x="34.5" y="-543.5" font-family="Helvetica,sans-Serif" font-size="10.00">+ createFromFile()</text>
<text text-anchor="start" x="34.5" y="-532.5" font-family="Helvetica,sans-Serif" font-size="10.00"># XMLObject()</text>
<text text-anchor="start" x="34.5" y="-521.5" font-family="Helvetica,sans-Serif" font-size="10.00"># createObject()</text>
</a>
</g>
</g>
<!-- Node5&#45;&gt;Node4 -->
<g id="edge4" class="edge">
<title>Node5&#45;&gt;Node4</title>
<path fill="none" stroke="midnightblue" d="M89.5,-504.35C89.5,-494.89 89.5,-485.91 89.5,-477.72"/>
<polygon fill="none" stroke="midnightblue" points="86,-504.37 89.5,-514.37 93,-504.37 86,-504.37"/>
</g>
</g>
</svg>
