<?xml version="1.0" encoding="UTF-8" standalone="no"?>
<!DOCTYPE svg PUBLIC "-//W3C//DTD SVG 1.1//EN"
 "http://www.w3.org/Graphics/SVG/1.1/DTD/svg11.dtd">
<!-- Generated by graphviz version 2.43.0 (0)
 -->
<!-- Title: BPMN::EventSubProcess Pages: 1 -->
<svg width="308pt" height="706pt"
 viewBox="0.00 0.00 308.00 706.00" xmlns="http://www.w3.org/2000/svg" xmlns:xlink="http://www.w3.org/1999/xlink">
<g id="graph0" class="graph" transform="scale(1 1) rotate(0) translate(4 702)">
<title>BPMN::EventSubProcess</title>
<!-- Node1 -->
<g id="node1" class="node">
<title>Node1</title>
<g id="a_node1"><a xlink:title=" ">
<polygon fill="#bfbfbf" stroke="black" points="62.5,-0.5 62.5,-68.5 197.5,-68.5 197.5,-0.5 62.5,-0.5"/>
<text text-anchor="middle" x="130" y="-56.5" font-family="Helvetica,sans-Serif" font-size="10.00">BPMN::EventSubProcess</text>
<polyline fill="none" stroke="black" points="62.5,-49.5 197.5,-49.5 "/>
<text text-anchor="start" x="70.5" y="-37.5" font-family="Helvetica,sans-Serif" font-size="10.00">+ startEvent</text>
<text text-anchor="start" x="70.5" y="-26.5" font-family="Helvetica,sans-Serif" font-size="10.00">+ element</text>
<polyline fill="none" stroke="black" points="62.5,-19.5 197.5,-19.5 "/>
<text text-anchor="start" x="70.5" y="-7.5" font-family="Helvetica,sans-Serif" font-size="10.00">+ EventSubProcess()</text>
</a>
</g>
</g>
<!-- Node2 -->
<g id="node2" class="node">
<title>Node2</title>
<g id="a_node2"><a xlink:href="classBPMN_1_1ChildNode.html" target="_top" xlink:title="Base class for BPMN elements within a Scope.">
<polygon fill="none" stroke="black" points="0,-149.5 0,-206.5 102,-206.5 102,-149.5 0,-149.5"/>
<text text-anchor="middle" x="51" y="-194.5" font-family="Helvetica,sans-Serif" font-size="10.00">BPMN::ChildNode</text>
<polyline fill="none" stroke="black" points="0,-187.5 102,-187.5 "/>
<text text-anchor="start" x="8" y="-175.5" font-family="Helvetica,sans-Serif" font-size="10.00">+ parent</text>
<polyline fill="none" stroke="black" points="0,-168.5 102,-168.5 "/>
<text text-anchor="start" x="8" y="-156.5" font-family="Helvetica,sans-Serif" font-size="10.00">+ ChildNode()</text>
</a>
</g>
</g>
<!-- Node2&#45;&gt;Node1 -->
<g id="edge1" class="edge">
<title>Node2&#45;&gt;Node1</title>
<path fill="none" stroke="midnightblue" d="M71.34,-140.56C83.76,-118.32 99.51,-90.11 111.57,-68.52"/>
<polygon fill="none" stroke="midnightblue" points="68.24,-138.94 66.42,-149.38 74.35,-142.36 68.24,-138.94"/>
</g>
<!-- Node3 -->
<g id="node3" class="node">
<title>Node3</title>
<g id="a_node3"><a xlink:href="classBPMN_1_1Node.html" target="_top" xlink:title="Base class for all nodes in a BPMN model.">
<polygon fill="none" stroke="black" points="91.5,-287.5 91.5,-399.5 168.5,-399.5 168.5,-287.5 91.5,-287.5"/>
<text text-anchor="middle" x="130" y="-387.5" font-family="Helvetica,sans-Serif" font-size="10.00">BPMN::Node</text>
<polyline fill="none" stroke="black" points="91.5,-380.5 168.5,-380.5 "/>
<text text-anchor="start" x="99.5" y="-368.5" font-family="Helvetica,sans-Serif" font-size="10.00">+ receiving</text>
<text text-anchor="start" x="99.5" y="-357.5" font-family="Helvetica,sans-Serif" font-size="10.00">+ sending</text>
<polyline fill="none" stroke="black" points="91.5,-350.5 168.5,-350.5 "/>
<text text-anchor="start" x="99.5" y="-338.5" font-family="Helvetica,sans-Serif" font-size="10.00">+ Node()</text>
<text text-anchor="start" x="99.5" y="-327.5" font-family="Helvetica,sans-Serif" font-size="10.00">+ find()</text>
<text text-anchor="start" x="99.5" y="-316.5" font-family="Helvetica,sans-Serif" font-size="10.00">+ find()</text>
<text text-anchor="start" x="99.5" y="-305.5" font-family="Helvetica,sans-Serif" font-size="10.00">+ find_all()</text>
<text text-anchor="start" x="99.5" y="-294.5" font-family="Helvetica,sans-Serif" font-size="10.00">+ find_all()</text>
</a>
</g>
</g>
<!-- Node3&#45;&gt;Node2 -->
<g id="edge2" class="edge">
<title>Node3&#45;&gt;Node2</title>
<path fill="none" stroke="midnightblue" d="M98.9,-278.13C86.92,-253.35 73.86,-226.32 64.41,-206.76"/>
<polygon fill="none" stroke="midnightblue" points="95.75,-279.67 103.25,-287.15 102.05,-276.62 95.75,-279.67"/>
</g>
<!-- Node6 -->
<g id="node6" class="node">
<title>Node6</title>
<g id="a_node6"><a xlink:href="classBPMN_1_1Scope.html" target="_top" xlink:title="Base class for BPMN elements that may contain a ChildNode elements.">
<polygon fill="none" stroke="black" points="120,-105.5 120,-250.5 300,-250.5 300,-105.5 120,-105.5"/>
<text text-anchor="middle" x="210" y="-238.5" font-family="Helvetica,sans-Serif" font-size="10.00">BPMN::Scope</text>
<polyline fill="none" stroke="black" points="120,-231.5 300,-231.5 "/>
<text text-anchor="start" x="128" y="-219.5" font-family="Helvetica,sans-Serif" font-size="10.00">+ childNodes</text>
<text text-anchor="start" x="128" y="-208.5" font-family="Helvetica,sans-Serif" font-size="10.00">+ flowNodes</text>
<text text-anchor="start" x="128" y="-197.5" font-family="Helvetica,sans-Serif" font-size="10.00">+ eventSubProcesses</text>
<text text-anchor="start" x="128" y="-186.5" font-family="Helvetica,sans-Serif" font-size="10.00">+ startNodes</text>
<text text-anchor="start" x="128" y="-175.5" font-family="Helvetica,sans-Serif" font-size="10.00">+ sequenceFlows</text>
<text text-anchor="start" x="128" y="-164.5" font-family="Helvetica,sans-Serif" font-size="10.00">+ compensationActivities</text>
<text text-anchor="start" x="128" y="-153.5" font-family="Helvetica,sans-Serif" font-size="10.00">+ compensationEventSubProcess</text>
<polyline fill="none" stroke="black" points="120,-146.5 300,-146.5 "/>
<text text-anchor="start" x="128" y="-134.5" font-family="Helvetica,sans-Serif" font-size="10.00">+ Scope()</text>
<text text-anchor="start" x="128" y="-123.5" font-family="Helvetica,sans-Serif" font-size="10.00"># add()</text>
<text text-anchor="start" x="128" y="-112.5" font-family="Helvetica,sans-Serif" font-size="10.00"># add()</text>
</a>
</g>
</g>
<!-- Node3&#45;&gt;Node6 -->
<g id="edge6" class="edge">
<title>Node3&#45;&gt;Node6</title>
<path fill="none" stroke="midnightblue" d="M161.61,-277.9C166.01,-268.91 170.55,-259.63 175,-250.53"/>
<polygon fill="none" stroke="midnightblue" points="158.34,-276.63 157.08,-287.15 164.62,-279.7 158.34,-276.63"/>
</g>
<!-- Node4 -->
<g id="node4" class="node">
<title>Node4</title>
<g id="a_node4"><a xlink:href="classBPMN_1_1BaseElement.html" target="_top" xlink:title="Base class for all core BPMN elements.">
<polygon fill="none" stroke="black" points="69,-436.5 69,-559.5 191,-559.5 191,-436.5 69,-436.5"/>
<text text-anchor="middle" x="130" y="-547.5" font-family="Helvetica,sans-Serif" font-size="10.00">BPMN::BaseElement</text>
<polyline fill="none" stroke="black" points="69,-540.5 191,-540.5 "/>
<text text-anchor="start" x="77" y="-528.5" font-family="Helvetica,sans-Serif" font-size="10.00">+ element</text>
<text text-anchor="start" x="77" y="-517.5" font-family="Helvetica,sans-Serif" font-size="10.00">+ id</text>
<text text-anchor="start" x="77" y="-506.5" font-family="Helvetica,sans-Serif" font-size="10.00">+ extensionElements</text>
<polyline fill="none" stroke="black" points="69,-499.5 191,-499.5 "/>
<text text-anchor="start" x="77" y="-487.5" font-family="Helvetica,sans-Serif" font-size="10.00">+ BaseElement()</text>
<text text-anchor="start" x="77" y="-476.5" font-family="Helvetica,sans-Serif" font-size="10.00">+ is()</text>
<text text-anchor="start" x="77" y="-465.5" font-family="Helvetica,sans-Serif" font-size="10.00">+ is()</text>
<text text-anchor="start" x="77" y="-454.5" font-family="Helvetica,sans-Serif" font-size="10.00">+ get()</text>
<text text-anchor="start" x="77" y="-443.5" font-family="Helvetica,sans-Serif" font-size="10.00">+ get()</text>
</a>
</g>
</g>
<!-- Node4&#45;&gt;Node3 -->
<g id="edge3" class="edge">
<title>Node4&#45;&gt;Node3</title>
<path fill="none" stroke="midnightblue" d="M130,-426.25C130,-417.29 130,-408.23 130,-399.56"/>
<polygon fill="none" stroke="midnightblue" points="126.5,-426.29 130,-436.29 133.5,-426.29 126.5,-426.29"/>
</g>
<!-- Node5 -->
<g id="node5" class="node">
<title>Node5</title>
<g id="a_node5"><a xlink:href="classBPMN_1_1Element.html" target="_top" xlink:title="Abstract base class for all elements in a BPMN model.">
<polygon fill="none" stroke="black" points="84,-596.5 84,-697.5 176,-697.5 176,-596.5 84,-596.5"/>
<text text-anchor="middle" x="130" y="-685.5" font-family="Helvetica,sans-Serif" font-size="10.00">BPMN::Element</text>
<polyline fill="none" stroke="black" points="84,-678.5 176,-678.5 "/>
<text text-anchor="middle" x="130" y="-666.5" font-family="Helvetica,sans-Serif" font-size="10.00"> </text>
<polyline fill="none" stroke="black" points="84,-659.5 176,-659.5 "/>
<text text-anchor="start" x="92" y="-647.5" font-family="Helvetica,sans-Serif" font-size="10.00">+ ~Element()</text>
<text text-anchor="start" x="92" y="-636.5" font-family="Helvetica,sans-Serif" font-size="10.00">+ represents()</text>
<text text-anchor="start" x="92" y="-625.5" font-family="Helvetica,sans-Serif" font-size="10.00">+ represents()</text>
<text text-anchor="start" x="92" y="-614.5" font-family="Helvetica,sans-Serif" font-size="10.00">+ as()</text>
<text text-anchor="start" x="92" y="-603.5" font-family="Helvetica,sans-Serif" font-size="10.00">+ as()</text>
</a>
</g>
</g>
<!-- Node5&#45;&gt;Node4 -->
<g id="edge4" class="edge">
<title>Node5&#45;&gt;Node4</title>
<path fill="none" stroke="midnightblue" d="M130,-586.14C130,-577.41 130,-568.42 130,-559.67"/>
<polygon fill="none" stroke="midnightblue" points="126.5,-586.23 130,-596.23 133.5,-586.23 126.5,-586.23"/>
</g>
<!-- Node6&#45;&gt;Node1 -->
<g id="edge5" class="edge">
<title>Node6&#45;&gt;Node1</title>
<path fill="none" stroke="midnightblue" d="M164.59,-96.69C159,-86.8 153.56,-77.17 148.7,-68.58"/>
<polygon fill="none" stroke="midnightblue" points="161.56,-98.44 169.53,-105.42 167.66,-94.99 161.56,-98.44"/>
</g>
</g>
</svg>
