<?xml version="1.0" encoding="UTF-8" standalone="no"?>
<!DOCTYPE svg PUBLIC "-//W3C//DTD SVG 1.1//EN"
 "http://www.w3.org/Graphics/SVG/1.1/DTD/svg11.dtd">
<!-- Generated by graphviz version 2.43.0 (0)
 -->
<!-- Title: XML::bpmn::tIntermediateCatchEvent Pages: 1 -->
<svg width="176pt" height="1175pt"
 viewBox="0.00 0.00 176.00 1175.00" xmlns="http://www.w3.org/2000/svg" xmlns:xlink="http://www.w3.org/1999/xlink">
<g id="graph0" class="graph" transform="scale(1 1) rotate(0) translate(4 1171)">
<title>XML::bpmn::tIntermediateCatchEvent</title>
<!-- Node1 -->
<g id="node1" class="node">
<title>Node1</title>
<g id="a_node1"><a xlink:title=" ">
<polygon fill="#bfbfbf" stroke="black" points="5,-105.5 5,-173.5 163,-173.5 163,-105.5 5,-105.5"/>
<text text-anchor="start" x="13" y="-161.5" font-family="Helvetica,sans-Serif" font-size="10.00">XML::bpmn::tIntermediate</text>
<text text-anchor="middle" x="84" y="-150.5" font-family="Helvetica,sans-Serif" font-size="10.00">CatchEvent</text>
<polyline fill="none" stroke="black" points="5,-143.5 163,-143.5 "/>
<text text-anchor="start" x="13" y="-131.5" font-family="Helvetica,sans-Serif" font-size="10.00">+ defaults</text>
<polyline fill="none" stroke="black" points="5,-124.5 163,-124.5 "/>
<text text-anchor="start" x="13" y="-112.5" font-family="Helvetica,sans-Serif" font-size="10.00"># tIntermediateCatchEvent()</text>
</a>
</g>
</g>
<!-- Node8 -->
<g id="node8" class="node">
<title>Node8</title>
<g id="a_node8"><a xlink:href="classXML_1_1bpmn_1_1intermediateCatchEvent.html" target="_top" xlink:title=" ">
<polygon fill="none" stroke="black" points="0,-0.5 0,-68.5 168,-68.5 168,-0.5 0,-0.5"/>
<text text-anchor="start" x="8" y="-56.5" font-family="Helvetica,sans-Serif" font-size="10.00">XML::bpmn::intermediateCatch</text>
<text text-anchor="middle" x="84" y="-45.5" font-family="Helvetica,sans-Serif" font-size="10.00">Event</text>
<polyline fill="none" stroke="black" points="0,-38.5 168,-38.5 "/>
<text text-anchor="start" x="8" y="-26.5" font-family="Helvetica,sans-Serif" font-size="10.00">+ defaults</text>
<polyline fill="none" stroke="black" points="0,-19.5 168,-19.5 "/>
<text text-anchor="start" x="8" y="-7.5" font-family="Helvetica,sans-Serif" font-size="10.00"># intermediateCatchEvent()</text>
</a>
</g>
</g>
<!-- Node1&#45;&gt;Node8 -->
<g id="edge7" class="edge">
<title>Node1&#45;&gt;Node8</title>
<path fill="none" stroke="midnightblue" d="M84,-95.14C84,-86.26 84,-77.04 84,-68.59"/>
<polygon fill="none" stroke="midnightblue" points="80.5,-95.34 84,-105.34 87.5,-95.34 80.5,-95.34"/>
</g>
<!-- Node2 -->
<g id="node2" class="node">
<title>Node2</title>
<g id="a_node2"><a xlink:href="classXML_1_1bpmn_1_1tCatchEvent.html" target="_top" xlink:title=" ">
<polygon fill="none" stroke="black" points="14.5,-210.5 14.5,-333.5 153.5,-333.5 153.5,-210.5 14.5,-210.5"/>
<text text-anchor="middle" x="84" y="-321.5" font-family="Helvetica,sans-Serif" font-size="10.00">XML::bpmn::tCatchEvent</text>
<polyline fill="none" stroke="black" points="14.5,-314.5 153.5,-314.5 "/>
<text text-anchor="start" x="22.5" y="-302.5" font-family="Helvetica,sans-Serif" font-size="10.00">+ dataOutput</text>
<text text-anchor="start" x="22.5" y="-291.5" font-family="Helvetica,sans-Serif" font-size="10.00">+ dataOutputAssociation</text>
<text text-anchor="start" x="22.5" y="-280.5" font-family="Helvetica,sans-Serif" font-size="10.00">+ outputSet</text>
<text text-anchor="start" x="22.5" y="-269.5" font-family="Helvetica,sans-Serif" font-size="10.00">+ eventDefinition</text>
<text text-anchor="start" x="22.5" y="-258.5" font-family="Helvetica,sans-Serif" font-size="10.00">+ eventDefinitionRef</text>
<text text-anchor="start" x="22.5" y="-247.5" font-family="Helvetica,sans-Serif" font-size="10.00">+ parallelMultiple</text>
<text text-anchor="start" x="22.5" y="-236.5" font-family="Helvetica,sans-Serif" font-size="10.00">+ defaults</text>
<polyline fill="none" stroke="black" points="14.5,-229.5 153.5,-229.5 "/>
<text text-anchor="start" x="22.5" y="-217.5" font-family="Helvetica,sans-Serif" font-size="10.00"># tCatchEvent()</text>
</a>
</g>
</g>
<!-- Node2&#45;&gt;Node1 -->
<g id="edge1" class="edge">
<title>Node2&#45;&gt;Node1</title>
<path fill="none" stroke="midnightblue" d="M84,-200.24C84,-190.97 84,-181.84 84,-173.62"/>
<polygon fill="none" stroke="midnightblue" points="80.5,-200.33 84,-210.33 87.5,-200.33 80.5,-200.33"/>
</g>
<!-- Node3 -->
<g id="node3" class="node">
<title>Node3</title>
<g id="a_node3"><a xlink:href="classXML_1_1bpmn_1_1tEvent.html" target="_top" xlink:title=" ">
<polygon fill="none" stroke="black" points="29.5,-370.5 29.5,-438.5 138.5,-438.5 138.5,-370.5 29.5,-370.5"/>
<text text-anchor="middle" x="84" y="-426.5" font-family="Helvetica,sans-Serif" font-size="10.00">XML::bpmn::tEvent</text>
<polyline fill="none" stroke="black" points="29.5,-419.5 138.5,-419.5 "/>
<text text-anchor="start" x="37.5" y="-407.5" font-family="Helvetica,sans-Serif" font-size="10.00">+ property</text>
<text text-anchor="start" x="37.5" y="-396.5" font-family="Helvetica,sans-Serif" font-size="10.00">+ defaults</text>
<polyline fill="none" stroke="black" points="29.5,-389.5 138.5,-389.5 "/>
<text text-anchor="start" x="37.5" y="-377.5" font-family="Helvetica,sans-Serif" font-size="10.00"># tEvent()</text>
</a>
</g>
</g>
<!-- Node3&#45;&gt;Node2 -->
<g id="edge2" class="edge">
<title>Node3&#45;&gt;Node2</title>
<path fill="none" stroke="midnightblue" d="M84,-360.17C84,-351.65 84,-342.57 84,-333.61"/>
<polygon fill="none" stroke="midnightblue" points="80.5,-360.23 84,-370.23 87.5,-360.23 80.5,-360.23"/>
</g>
<!-- Node4 -->
<g id="node4" class="node">
<title>Node4</title>
<g id="a_node4"><a xlink:href="classXML_1_1bpmn_1_1tFlowNode.html" target="_top" xlink:title=" ">
<polygon fill="none" stroke="black" points="19,-475.5 19,-554.5 149,-554.5 149,-475.5 19,-475.5"/>
<text text-anchor="middle" x="84" y="-542.5" font-family="Helvetica,sans-Serif" font-size="10.00">XML::bpmn::tFlowNode</text>
<polyline fill="none" stroke="black" points="19,-535.5 149,-535.5 "/>
<text text-anchor="start" x="27" y="-523.5" font-family="Helvetica,sans-Serif" font-size="10.00">+ incoming</text>
<text text-anchor="start" x="27" y="-512.5" font-family="Helvetica,sans-Serif" font-size="10.00">+ outgoing</text>
<text text-anchor="start" x="27" y="-501.5" font-family="Helvetica,sans-Serif" font-size="10.00">+ defaults</text>
<polyline fill="none" stroke="black" points="19,-494.5 149,-494.5 "/>
<text text-anchor="start" x="27" y="-482.5" font-family="Helvetica,sans-Serif" font-size="10.00"># tFlowNode()</text>
</a>
</g>
</g>
<!-- Node4&#45;&gt;Node3 -->
<g id="edge3" class="edge">
<title>Node4&#45;&gt;Node3</title>
<path fill="none" stroke="midnightblue" d="M84,-465.35C84,-456.28 84,-447 84,-438.54"/>
<polygon fill="none" stroke="midnightblue" points="80.5,-465.44 84,-475.44 87.5,-465.44 80.5,-465.44"/>
</g>
<!-- Node5 -->
<g id="node5" class="node">
<title>Node5</title>
<g id="a_node5"><a xlink:href="classXML_1_1bpmn_1_1tFlowElement.html" target="_top" xlink:title=" ">
<polygon fill="none" stroke="black" points="11.5,-591.5 11.5,-692.5 156.5,-692.5 156.5,-591.5 11.5,-591.5"/>
<text text-anchor="middle" x="84" y="-680.5" font-family="Helvetica,sans-Serif" font-size="10.00">XML::bpmn::tFlowElement</text>
<polyline fill="none" stroke="black" points="11.5,-673.5 156.5,-673.5 "/>
<text text-anchor="start" x="19.5" y="-661.5" font-family="Helvetica,sans-Serif" font-size="10.00">+ auditing</text>
<text text-anchor="start" x="19.5" y="-650.5" font-family="Helvetica,sans-Serif" font-size="10.00">+ monitoring</text>
<text text-anchor="start" x="19.5" y="-639.5" font-family="Helvetica,sans-Serif" font-size="10.00">+ categoryValueRef</text>
<text text-anchor="start" x="19.5" y="-628.5" font-family="Helvetica,sans-Serif" font-size="10.00">+ name</text>
<text text-anchor="start" x="19.5" y="-617.5" font-family="Helvetica,sans-Serif" font-size="10.00">+ defaults</text>
<polyline fill="none" stroke="black" points="11.5,-610.5 156.5,-610.5 "/>
<text text-anchor="start" x="19.5" y="-598.5" font-family="Helvetica,sans-Serif" font-size="10.00"># tFlowElement()</text>
</a>
</g>
</g>
<!-- Node5&#45;&gt;Node4 -->
<g id="edge4" class="edge">
<title>Node5&#45;&gt;Node4</title>
<path fill="none" stroke="midnightblue" d="M84,-581.19C84,-572.22 84,-563.18 84,-554.81"/>
<polygon fill="none" stroke="midnightblue" points="80.5,-581.24 84,-591.24 87.5,-581.24 80.5,-581.24"/>
</g>
<!-- Node6 -->
<g id="node6" class="node">
<title>Node6</title>
<g id="a_node6"><a xlink:href="classXML_1_1bpmn_1_1tBaseElement.html" target="_top" xlink:title=" ">
<polygon fill="none" stroke="black" points="11,-729.5 11,-819.5 157,-819.5 157,-729.5 11,-729.5"/>
<text text-anchor="middle" x="84" y="-807.5" font-family="Helvetica,sans-Serif" font-size="10.00">XML::bpmn::tBaseElement</text>
<polyline fill="none" stroke="black" points="11,-800.5 157,-800.5 "/>
<text text-anchor="start" x="19" y="-788.5" font-family="Helvetica,sans-Serif" font-size="10.00">+ documentation</text>
<text text-anchor="start" x="19" y="-777.5" font-family="Helvetica,sans-Serif" font-size="10.00">+ extensionElements</text>
<text text-anchor="start" x="19" y="-766.5" font-family="Helvetica,sans-Serif" font-size="10.00">+ id</text>
<text text-anchor="start" x="19" y="-755.5" font-family="Helvetica,sans-Serif" font-size="10.00">+ defaults</text>
<polyline fill="none" stroke="black" points="11,-748.5 157,-748.5 "/>
<text text-anchor="start" x="19" y="-736.5" font-family="Helvetica,sans-Serif" font-size="10.00"># tBaseElement()</text>
</a>
</g>
</g>
<!-- Node6&#45;&gt;Node5 -->
<g id="edge5" class="edge">
<title>Node6&#45;&gt;Node5</title>
<path fill="none" stroke="midnightblue" d="M84,-719.13C84,-710.31 84,-701.22 84,-692.52"/>
<polygon fill="none" stroke="midnightblue" points="80.5,-719.32 84,-729.32 87.5,-719.32 80.5,-719.32"/>
</g>
<!-- Node7 -->
<g id="node7" class="node">
<title>Node7</title>
<g id="a_node7"><a xlink:href="classXML_1_1XMLObject.html" target="_top" xlink:title="A class representing a node in an XML&#45;tree.">
<polygon fill="none" stroke="black" points="21,-856.5 21,-1166.5 147,-1166.5 147,-856.5 21,-856.5"/>
<text text-anchor="middle" x="84" y="-1154.5" font-family="Helvetica,sans-Serif" font-size="10.00">XML::XMLObject</text>
<polyline fill="none" stroke="black" points="21,-1147.5 147,-1147.5 "/>
<text text-anchor="start" x="29" y="-1135.5" font-family="Helvetica,sans-Serif" font-size="10.00">+ xmlns</text>
<text text-anchor="start" x="29" y="-1124.5" font-family="Helvetica,sans-Serif" font-size="10.00">+ className</text>
<text text-anchor="start" x="29" y="-1113.5" font-family="Helvetica,sans-Serif" font-size="10.00">+ prefix</text>
<text text-anchor="start" x="29" y="-1102.5" font-family="Helvetica,sans-Serif" font-size="10.00">+ elementName</text>
<text text-anchor="start" x="29" y="-1091.5" font-family="Helvetica,sans-Serif" font-size="10.00">+ textContent</text>
<text text-anchor="start" x="29" y="-1080.5" font-family="Helvetica,sans-Serif" font-size="10.00">+ children</text>
<text text-anchor="start" x="29" y="-1069.5" font-family="Helvetica,sans-Serif" font-size="10.00">+ attributes</text>
<text text-anchor="start" x="29" y="-1058.5" font-family="Helvetica,sans-Serif" font-size="10.00">+ defaults</text>
<text text-anchor="start" x="29" y="-1047.5" font-family="Helvetica,sans-Serif" font-size="10.00"># factory</text>
<polyline fill="none" stroke="black" points="21,-1040.5 147,-1040.5 "/>
<text text-anchor="start" x="29" y="-1028.5" font-family="Helvetica,sans-Serif" font-size="10.00">+ ~XMLObject()</text>
<text text-anchor="start" x="29" y="-1017.5" font-family="Helvetica,sans-Serif" font-size="10.00">+ is()</text>
<text text-anchor="start" x="29" y="-1006.5" font-family="Helvetica,sans-Serif" font-size="10.00">+ is()</text>
<text text-anchor="start" x="29" y="-995.5" font-family="Helvetica,sans-Serif" font-size="10.00">+ get()</text>
<text text-anchor="start" x="29" y="-984.5" font-family="Helvetica,sans-Serif" font-size="10.00">+ get()</text>
<text text-anchor="start" x="29" y="-973.5" font-family="Helvetica,sans-Serif" font-size="10.00">+ find()</text>
<text text-anchor="start" x="29" y="-962.5" font-family="Helvetica,sans-Serif" font-size="10.00">+ find()</text>
<text text-anchor="start" x="29" y="-951.5" font-family="Helvetica,sans-Serif" font-size="10.00">+ stringify()</text>
<text text-anchor="start" x="29" y="-940.5" font-family="Helvetica,sans-Serif" font-size="10.00">+ format()</text>
<text text-anchor="start" x="29" y="-929.5" font-family="Helvetica,sans-Serif" font-size="10.00">+ getRequiredChild()</text>
<text text-anchor="start" x="29" y="-918.5" font-family="Helvetica,sans-Serif" font-size="10.00">and 7 more...</text>
<text text-anchor="start" x="29" y="-907.5" font-family="Helvetica,sans-Serif" font-size="10.00">+ createFromStream()</text>
<text text-anchor="start" x="29" y="-896.5" font-family="Helvetica,sans-Serif" font-size="10.00">+ createFromString()</text>
<text text-anchor="start" x="29" y="-885.5" font-family="Helvetica,sans-Serif" font-size="10.00">+ createFromFile()</text>
<text text-anchor="start" x="29" y="-874.5" font-family="Helvetica,sans-Serif" font-size="10.00"># XMLObject()</text>
<text text-anchor="start" x="29" y="-863.5" font-family="Helvetica,sans-Serif" font-size="10.00"># createObject()</text>
</a>
</g>
</g>
<!-- Node7&#45;&gt;Node6 -->
<g id="edge6" class="edge">
<title>Node7&#45;&gt;Node6</title>
<path fill="none" stroke="midnightblue" d="M84,-846.35C84,-836.89 84,-827.91 84,-819.72"/>
<polygon fill="none" stroke="midnightblue" points="80.5,-846.37 84,-856.37 87.5,-846.37 80.5,-846.37"/>
</g>
</g>
</svg>
