<?xml version="1.0" encoding="UTF-8" standalone="no"?>
<!DOCTYPE svg PUBLIC "-//W3C//DTD SVG 1.1//EN"
 "http://www.w3.org/Graphics/SVG/1.1/DTD/svg11.dtd">
<!-- Generated by graphviz version 2.43.0 (0)
 -->
<!-- Title: XML::bpmn::escalationEventDefinition Pages: 1 -->
<svg width="166pt" height="909pt"
 viewBox="0.00 0.00 166.00 909.00" xmlns="http://www.w3.org/2000/svg" xmlns:xlink="http://www.w3.org/1999/xlink">
<g id="graph0" class="graph" transform="scale(1 1) rotate(0) translate(4 905)">
<title>XML::bpmn::escalationEventDefinition</title>
<!-- Node1 -->
<g id="Node000001" class="node">
<title>Node1</title>
<g id="a_Node000001"><a xlink:title=" ">
<polygon fill="#999999" stroke="transparent" points="156,-60 2,-60 2,0 156,0 156,-60"/>
<text text-anchor="start" x="9.5" y="-48" font-family="Helvetica,sans-Serif" font-size="10.00">XML::bpmn::escalationEvent</text>
<text text-anchor="start" x="55" y="-37" font-family="Helvetica,sans-Serif" font-size="10.00">Definition</text>
<text text-anchor="start" x="6" y="-22" font-family="Helvetica,sans-Serif" font-size="10.00">+</text>
<text text-anchor="start" x="19" y="-22" font-family="Helvetica,sans-Serif" font-size="10.00">defaults</text>
<text text-anchor="start" x="6" y="-7" font-family="Helvetica,sans-Serif" font-size="10.00">#</text>
<text text-anchor="start" x="19" y="-7" font-family="Helvetica,sans-Serif" font-size="10.00">escalationEventDefinition()</text>
<polygon fill="#666666" stroke="#666666" points="2,-32 2,-32 156,-32 156,-32 2,-32"/>
<polygon fill="#666666" stroke="#666666" points="2,-17 2,-17 17,-17 17,-17 2,-17"/>
<polygon fill="#666666" stroke="#666666" points="17,-17 17,-17 156,-17 156,-17 17,-17"/>
<polygon fill="none" stroke="#666666" points="2,0 2,-60 156,-60 156,0 2,0"/>
</a>
</g>
</g>
<!-- Node2 -->
<g id="Node000002" class="node">
<title>Node2</title>
<g id="a_Node000002"><a xlink:href="classXML_1_1bpmn_1_1tEscalationEventDefinition.html" target="_top" xlink:title=" ">
<polygon fill="white" stroke="transparent" points="158,-171 0,-171 0,-96 158,-96 158,-171"/>
<text text-anchor="start" x="7.5" y="-158.5" font-family="Helvetica,sans-Serif" font-size="10.00">XML::bpmn::tEscalationEvent</text>
<text text-anchor="start" x="55" y="-147.5" font-family="Helvetica,sans-Serif" font-size="10.00">Definition</text>
<text text-anchor="start" x="4" y="-132.5" font-family="Helvetica,sans-Serif" font-size="10.00">+</text>
<text text-anchor="start" x="17" y="-132.5" font-family="Helvetica,sans-Serif" font-size="10.00">escalationRef</text>
<text text-anchor="start" x="4" y="-117.5" font-family="Helvetica,sans-Serif" font-size="10.00">+</text>
<text text-anchor="start" x="17" y="-117.5" font-family="Helvetica,sans-Serif" font-size="10.00">defaults</text>
<text text-anchor="start" x="4" y="-102.5" font-family="Helvetica,sans-Serif" font-size="10.00">#</text>
<text text-anchor="start" x="17" y="-102.5" font-family="Helvetica,sans-Serif" font-size="10.00">tEscalationEventDefinition()</text>
<polygon fill="#666666" stroke="#666666" points="0,-142.5 0,-142.5 158,-142.5 158,-142.5 0,-142.5"/>
<polygon fill="#666666" stroke="#666666" points="0,-112.5 0,-112.5 15,-112.5 15,-112.5 0,-112.5"/>
<polygon fill="#666666" stroke="#666666" points="15,-112.5 15,-112.5 158,-112.5 158,-112.5 15,-112.5"/>
<polygon fill="none" stroke="#666666" points="0,-96 0,-171 158,-171 158,-96 0,-96"/>
</a>
</g>
</g>
<!-- Node2&#45;&gt;Node1 -->
<g id="edge1_Node000001_Node000002" class="edge">
<title>Node2&#45;&gt;Node1</title>
<g id="a_edge1_Node000001_Node000002"><a xlink:title=" ">
<path fill="none" stroke="#63b8ff" d="M79,-85.79C79,-77.1 79,-68.25 79,-60.27"/>
<polygon fill="none" stroke="#63b8ff" points="75.5,-85.86 79,-95.86 82.5,-85.86 75.5,-85.86"/>
</a>
</g>
</g>
<!-- Node3 -->
<g id="Node000003" class="node">
<title>Node3</title>
<g id="a_Node000003"><a xlink:href="classXML_1_1bpmn_1_1tEventDefinition.html" target="_top" xlink:title=" ">
<polygon fill="white" stroke="transparent" points="154,-256 4,-256 4,-207 154,-207 154,-256"/>
<text text-anchor="start" x="9" y="-243.5" font-family="Helvetica,sans-Serif" font-size="10.00">XML::bpmn::tEventDefinition</text>
<text text-anchor="start" x="18.5" y="-228.5" font-family="Helvetica,sans-Serif" font-size="10.00">+</text>
<text text-anchor="start" x="42" y="-228.5" font-family="Helvetica,sans-Serif" font-size="10.00">defaults</text>
<text text-anchor="start" x="18.5" y="-213.5" font-family="Helvetica,sans-Serif" font-size="10.00">#</text>
<text text-anchor="start" x="42" y="-213.5" font-family="Helvetica,sans-Serif" font-size="10.00">tEventDefinition()</text>
<polygon fill="#666666" stroke="#666666" points="4,-238.5 4,-238.5 154,-238.5 154,-238.5 4,-238.5"/>
<polygon fill="#666666" stroke="#666666" points="4,-223.5 4,-223.5 40,-223.5 40,-223.5 4,-223.5"/>
<polygon fill="#666666" stroke="#666666" points="40,-223.5 40,-223.5 154,-223.5 154,-223.5 40,-223.5"/>
<polygon fill="none" stroke="#666666" points="4,-207 4,-256 154,-256 154,-207 4,-207"/>
</a>
</g>
</g>
<!-- Node3&#45;&gt;Node2 -->
<g id="edge2_Node000002_Node000003" class="edge">
<title>Node3&#45;&gt;Node2</title>
<g id="a_edge2_Node000002_Node000003"><a xlink:title=" ">
<path fill="none" stroke="#63b8ff" d="M79,-196.68C79,-188.38 79,-179.46 79,-171.04"/>
<polygon fill="none" stroke="#63b8ff" points="75.5,-196.77 79,-206.77 82.5,-196.77 75.5,-196.77"/>
</a>
</g>
</g>
<!-- Node4 -->
<g id="Node000004" class="node">
<title>Node4</title>
<g id="a_Node000004"><a xlink:href="classXML_1_1bpmn_1_1tRootElement.html" target="_top" xlink:title=" ">
<polygon fill="white" stroke="transparent" points="148,-341 10,-341 10,-292 148,-292 148,-341"/>
<text text-anchor="start" x="15" y="-328.5" font-family="Helvetica,sans-Serif" font-size="10.00">XML::bpmn::tRootElement</text>
<text text-anchor="start" x="24.5" y="-313.5" font-family="Helvetica,sans-Serif" font-size="10.00">+</text>
<text text-anchor="start" x="48" y="-313.5" font-family="Helvetica,sans-Serif" font-size="10.00">defaults</text>
<text text-anchor="start" x="24.5" y="-298.5" font-family="Helvetica,sans-Serif" font-size="10.00">#</text>
<text text-anchor="start" x="48" y="-298.5" font-family="Helvetica,sans-Serif" font-size="10.00">tRootElement()</text>
<polygon fill="#666666" stroke="#666666" points="10,-323.5 10,-323.5 148,-323.5 148,-323.5 10,-323.5"/>
<polygon fill="#666666" stroke="#666666" points="10,-308.5 10,-308.5 46,-308.5 46,-308.5 10,-308.5"/>
<polygon fill="#666666" stroke="#666666" points="46,-308.5 46,-308.5 148,-308.5 148,-308.5 46,-308.5"/>
<polygon fill="none" stroke="#666666" points="10,-292 10,-341 148,-341 148,-292 10,-292"/>
</a>
</g>
</g>
<!-- Node4&#45;&gt;Node3 -->
<g id="edge3_Node000003_Node000004" class="edge">
<title>Node4&#45;&gt;Node3</title>
<g id="a_edge3_Node000003_Node000004"><a xlink:title=" ">
<path fill="none" stroke="#63b8ff" d="M79,-281.77C79,-273.17 79,-264.1 79,-256.12"/>
<polygon fill="none" stroke="#63b8ff" points="75.5,-281.94 79,-291.94 82.5,-281.94 75.5,-281.94"/>
</a>
</g>
</g>
<!-- Node5 -->
<g id="Node000005" class="node">
<title>Node5</title>
<g id="a_Node000005"><a xlink:href="classXML_1_1bpmn_1_1tBaseElement.html" target="_top" xlink:title=" ">
<polygon fill="white" stroke="transparent" points="149,-471 9,-471 9,-377 149,-377 149,-471"/>
<text text-anchor="start" x="14" y="-459" font-family="Helvetica,sans-Serif" font-size="10.00">XML::bpmn::tBaseElement</text>
<text text-anchor="start" x="19" y="-444" font-family="Helvetica,sans-Serif" font-size="10.00">+</text>
<text text-anchor="start" x="38" y="-444" font-family="Helvetica,sans-Serif" font-size="10.00">documentation</text>
<text text-anchor="start" x="19" y="-429" font-family="Helvetica,sans-Serif" font-size="10.00">+</text>
<text text-anchor="start" x="38" y="-429" font-family="Helvetica,sans-Serif" font-size="10.00">extensionElements</text>
<text text-anchor="start" x="19" y="-414" font-family="Helvetica,sans-Serif" font-size="10.00">+</text>
<text text-anchor="start" x="38" y="-414" font-family="Helvetica,sans-Serif" font-size="10.00">id</text>
<text text-anchor="start" x="19" y="-399" font-family="Helvetica,sans-Serif" font-size="10.00">+</text>
<text text-anchor="start" x="38" y="-399" font-family="Helvetica,sans-Serif" font-size="10.00">defaults</text>
<text text-anchor="start" x="19" y="-384" font-family="Helvetica,sans-Serif" font-size="10.00">#</text>
<text text-anchor="start" x="38" y="-384" font-family="Helvetica,sans-Serif" font-size="10.00">tBaseElement()</text>
<polygon fill="#666666" stroke="#666666" points="9,-454 9,-454 149,-454 149,-454 9,-454"/>
<polygon fill="#666666" stroke="#666666" points="9,-394 9,-394 36,-394 36,-394 9,-394"/>
<polygon fill="#666666" stroke="#666666" points="36,-394 36,-394 149,-394 149,-394 36,-394"/>
<polygon fill="none" stroke="#666666" points="9,-377 9,-471 149,-471 149,-377 9,-377"/>
</a>
</g>
</g>
<!-- Node5&#45;&gt;Node4 -->
<g id="edge4_Node000004_Node000005" class="edge">
<title>Node5&#45;&gt;Node4</title>
<g id="a_edge4_Node000004_Node000005"><a xlink:title=" ">
<path fill="none" stroke="#63b8ff" d="M79,-366.59C79,-357.62 79,-348.79 79,-341.15"/>
<polygon fill="none" stroke="#63b8ff" points="75.5,-366.73 79,-376.73 82.5,-366.73 75.5,-366.73"/>
</a>
</g>
</g>
<!-- Node6 -->
<g id="Node000006" class="node">
<title>Node6</title>
<g id="a_Node000006"><a xlink:href="classXML_1_1XMLObject.html" target="_top" xlink:title="A class representing a node in an XML&#45;tree.">
<polygon fill="white" stroke="transparent" points="139,-901 19,-901 19,-507 139,-507 139,-901"/>
<text text-anchor="start" x="39" y="-889" font-family="Helvetica,sans-Serif" font-size="10.00">XML::XMLObject</text>
<text text-anchor="start" x="23" y="-874" font-family="Helvetica,sans-Serif" font-size="10.00">+</text>
<text text-anchor="start" x="36" y="-874" font-family="Helvetica,sans-Serif" font-size="10.00">xmlns</text>
<text text-anchor="start" x="23" y="-859" font-family="Helvetica,sans-Serif" font-size="10.00">+</text>
<text text-anchor="start" x="36" y="-859" font-family="Helvetica,sans-Serif" font-size="10.00">className</text>
<text text-anchor="start" x="23" y="-844" font-family="Helvetica,sans-Serif" font-size="10.00">+</text>
<text text-anchor="start" x="36" y="-844" font-family="Helvetica,sans-Serif" font-size="10.00">prefix</text>
<text text-anchor="start" x="23" y="-829" font-family="Helvetica,sans-Serif" font-size="10.00">+</text>
<text text-anchor="start" x="36" y="-829" font-family="Helvetica,sans-Serif" font-size="10.00">elementName</text>
<text text-anchor="start" x="23" y="-814" font-family="Helvetica,sans-Serif" font-size="10.00">+</text>
<text text-anchor="start" x="36" y="-814" font-family="Helvetica,sans-Serif" font-size="10.00">textContent</text>
<text text-anchor="start" x="23" y="-799" font-family="Helvetica,sans-Serif" font-size="10.00">+</text>
<text text-anchor="start" x="36" y="-799" font-family="Helvetica,sans-Serif" font-size="10.00">children</text>
<text text-anchor="start" x="23" y="-784" font-family="Helvetica,sans-Serif" font-size="10.00">+</text>
<text text-anchor="start" x="36" y="-784" font-family="Helvetica,sans-Serif" font-size="10.00">attributes</text>
<text text-anchor="start" x="23" y="-769" font-family="Helvetica,sans-Serif" font-size="10.00">+</text>
<text text-anchor="start" x="36" y="-769" font-family="Helvetica,sans-Serif" font-size="10.00">defaults</text>
<text text-anchor="start" x="23" y="-754" font-family="Helvetica,sans-Serif" font-size="10.00">#</text>
<text text-anchor="start" x="36" y="-754" font-family="Helvetica,sans-Serif" font-size="10.00">factory</text>
<text text-anchor="start" x="23" y="-739" font-family="Helvetica,sans-Serif" font-size="10.00">+</text>
<text text-anchor="start" x="36" y="-739" font-family="Helvetica,sans-Serif" font-size="10.00">~XMLObject()</text>
<text text-anchor="start" x="23" y="-724" font-family="Helvetica,sans-Serif" font-size="10.00">+</text>
<text text-anchor="start" x="36" y="-724" font-family="Helvetica,sans-Serif" font-size="10.00">is()</text>
<text text-anchor="start" x="23" y="-709" font-family="Helvetica,sans-Serif" font-size="10.00">+</text>
<text text-anchor="start" x="36" y="-709" font-family="Helvetica,sans-Serif" font-size="10.00">is()</text>
<text text-anchor="start" x="23" y="-694" font-family="Helvetica,sans-Serif" font-size="10.00">+</text>
<text text-anchor="start" x="36" y="-694" font-family="Helvetica,sans-Serif" font-size="10.00">get()</text>
<text text-anchor="start" x="23" y="-679" font-family="Helvetica,sans-Serif" font-size="10.00">+</text>
<text text-anchor="start" x="36" y="-679" font-family="Helvetica,sans-Serif" font-size="10.00">get()</text>
<text text-anchor="start" x="23" y="-664" font-family="Helvetica,sans-Serif" font-size="10.00">+</text>
<text text-anchor="start" x="36" y="-664" font-family="Helvetica,sans-Serif" font-size="10.00">find()</text>
<text text-anchor="start" x="23" y="-649" font-family="Helvetica,sans-Serif" font-size="10.00">+</text>
<text text-anchor="start" x="36" y="-649" font-family="Helvetica,sans-Serif" font-size="10.00">find()</text>
<text text-anchor="start" x="23" y="-634" font-family="Helvetica,sans-Serif" font-size="10.00">+</text>
<text text-anchor="start" x="36" y="-634" font-family="Helvetica,sans-Serif" font-size="10.00">stringify()</text>
<text text-anchor="start" x="23" y="-619" font-family="Helvetica,sans-Serif" font-size="10.00">+</text>
<text text-anchor="start" x="36" y="-619" font-family="Helvetica,sans-Serif" font-size="10.00">format()</text>
<text text-anchor="start" x="23" y="-604" font-family="Helvetica,sans-Serif" font-size="10.00">+</text>
<text text-anchor="start" x="36" y="-604" font-family="Helvetica,sans-Serif" font-size="10.00">getRequiredChild()</text>
<text text-anchor="start" x="36" y="-589" font-family="Helvetica,sans-Serif" font-size="10.00">and 7 more...</text>
<text text-anchor="start" x="23" y="-574" font-family="Helvetica,sans-Serif" font-size="10.00">+</text>
<text text-anchor="start" x="36" y="-574" font-family="Helvetica,sans-Serif" font-size="10.00">createFromStream()</text>
<text text-anchor="start" x="23" y="-559" font-family="Helvetica,sans-Serif" font-size="10.00">+</text>
<text text-anchor="start" x="36" y="-559" font-family="Helvetica,sans-Serif" font-size="10.00">createFromString()</text>
<text text-anchor="start" x="23" y="-544" font-family="Helvetica,sans-Serif" font-size="10.00">+</text>
<text text-anchor="start" x="36" y="-544" font-family="Helvetica,sans-Serif" font-size="10.00">createFromFile()</text>
<text text-anchor="start" x="23" y="-529" font-family="Helvetica,sans-Serif" font-size="10.00">#</text>
<text text-anchor="start" x="36" y="-529" font-family="Helvetica,sans-Serif" font-size="10.00">XMLObject()</text>
<text text-anchor="start" x="23" y="-514" font-family="Helvetica,sans-Serif" font-size="10.00">#</text>
<text text-anchor="start" x="36" y="-514" font-family="Helvetica,sans-Serif" font-size="10.00">createObject()</text>
<polygon fill="#666666" stroke="#666666" points="19,-884 19,-884 139,-884 139,-884 19,-884"/>
<polygon fill="#666666" stroke="#666666" points="19,-749 19,-749 34,-749 34,-749 19,-749"/>
<polygon fill="#666666" stroke="#666666" points="34,-749 34,-749 139,-749 139,-749 34,-749"/>
<polygon fill="none" stroke="#666666" points="19,-507 19,-901 139,-901 139,-507 19,-507"/>
</a>
</g>
</g>
<!-- Node6&#45;&gt;Node5 -->
<g id="edge5_Node000005_Node000006" class="edge">
<title>Node6&#45;&gt;Node5</title>
<g id="a_edge5_Node000005_Node000006"><a xlink:title=" ">
<path fill="none" stroke="#63b8ff" d="M79,-496.78C79,-487.62 79,-478.97 79,-471.06"/>
<polygon fill="none" stroke="#63b8ff" points="75.5,-496.91 79,-506.91 82.5,-496.91 75.5,-496.91"/>
</a>
</g>
</g>
</g>
</svg>
