<?xml version="1.0" encoding="UTF-8" standalone="no"?>
<!DOCTYPE svg PUBLIC "-//W3C//DTD SVG 1.1//EN"
 "http://www.w3.org/Graphics/SVG/1.1/DTD/svg11.dtd">
<!-- Generated by graphviz version 2.43.0 (0)
 -->
<!-- Title: XML::bpmn::globalScriptTask Pages: 1 -->
<svg width="170pt" height="993pt"
 viewBox="0.00 0.00 170.00 993.00" xmlns="http://www.w3.org/2000/svg" xmlns:xlink="http://www.w3.org/1999/xlink">
<g id="graph0" class="graph" transform="scale(1 1) rotate(0) translate(4 989)">
<title>XML::bpmn::globalScriptTask</title>
<!-- Node1 -->
<g id="node1" class="node">
<title>Node1</title>
<g id="a_node1"><a xlink:title=" ">
<polygon fill="#bfbfbf" stroke="black" points="2.5,-0.5 2.5,-57.5 159.5,-57.5 159.5,-0.5 2.5,-0.5"/>
<text text-anchor="middle" x="81" y="-45.5" font-family="Helvetica,sans-Serif" font-size="10.00">XML::bpmn::globalScriptTask</text>
<polyline fill="none" stroke="black" points="2.5,-38.5 159.5,-38.5 "/>
<text text-anchor="start" x="10.5" y="-26.5" font-family="Helvetica,sans-Serif" font-size="10.00">+ defaults</text>
<polyline fill="none" stroke="black" points="2.5,-19.5 159.5,-19.5 "/>
<text text-anchor="start" x="10.5" y="-7.5" font-family="Helvetica,sans-Serif" font-size="10.00"># globalScriptTask()</text>
</a>
</g>
</g>
<!-- Node2 -->
<g id="node2" class="node">
<title>Node2</title>
<g id="a_node2"><a xlink:href="classXML_1_1bpmn_1_1tGlobalScriptTask.html" target="_top" xlink:title=" ">
<polygon fill="none" stroke="black" points="0,-94.5 0,-173.5 162,-173.5 162,-94.5 0,-94.5"/>
<text text-anchor="middle" x="81" y="-161.5" font-family="Helvetica,sans-Serif" font-size="10.00">XML::bpmn::tGlobalScriptTask</text>
<polyline fill="none" stroke="black" points="0,-154.5 162,-154.5 "/>
<text text-anchor="start" x="8" y="-142.5" font-family="Helvetica,sans-Serif" font-size="10.00">+ script</text>
<text text-anchor="start" x="8" y="-131.5" font-family="Helvetica,sans-Serif" font-size="10.00">+ scriptLanguage</text>
<text text-anchor="start" x="8" y="-120.5" font-family="Helvetica,sans-Serif" font-size="10.00">+ defaults</text>
<polyline fill="none" stroke="black" points="0,-113.5 162,-113.5 "/>
<text text-anchor="start" x="8" y="-101.5" font-family="Helvetica,sans-Serif" font-size="10.00"># tGlobalScriptTask()</text>
</a>
</g>
</g>
<!-- Node2&#45;&gt;Node1 -->
<g id="edge1" class="edge">
<title>Node2&#45;&gt;Node1</title>
<path fill="none" stroke="midnightblue" d="M81,-84.16C81,-75.04 81,-65.81 81,-57.61"/>
<polygon fill="none" stroke="midnightblue" points="77.5,-84.35 81,-94.35 84.5,-84.35 77.5,-84.35"/>
</g>
<!-- Node3 -->
<g id="node3" class="node">
<title>Node3</title>
<g id="a_node3"><a xlink:href="classXML_1_1bpmn_1_1tGlobalTask.html" target="_top" xlink:title=" ">
<polygon fill="none" stroke="black" points="14,-210.5 14,-278.5 148,-278.5 148,-210.5 14,-210.5"/>
<text text-anchor="middle" x="81" y="-266.5" font-family="Helvetica,sans-Serif" font-size="10.00">XML::bpmn::tGlobalTask</text>
<polyline fill="none" stroke="black" points="14,-259.5 148,-259.5 "/>
<text text-anchor="start" x="22" y="-247.5" font-family="Helvetica,sans-Serif" font-size="10.00">+ resourceRole</text>
<text text-anchor="start" x="22" y="-236.5" font-family="Helvetica,sans-Serif" font-size="10.00">+ defaults</text>
<polyline fill="none" stroke="black" points="14,-229.5 148,-229.5 "/>
<text text-anchor="start" x="22" y="-217.5" font-family="Helvetica,sans-Serif" font-size="10.00"># tGlobalTask()</text>
</a>
</g>
</g>
<!-- Node3&#45;&gt;Node2 -->
<g id="edge2" class="edge">
<title>Node3&#45;&gt;Node2</title>
<path fill="none" stroke="midnightblue" d="M81,-200.27C81,-191.48 81,-182.28 81,-173.65"/>
<polygon fill="none" stroke="midnightblue" points="77.5,-200.36 81,-210.36 84.5,-200.36 77.5,-200.36"/>
</g>
<!-- Node4 -->
<g id="node4" class="node">
<title>Node4</title>
<g id="a_node4"><a xlink:href="classXML_1_1bpmn_1_1tCallableElement.html" target="_top" xlink:title=" ">
<polygon fill="none" stroke="black" points="0.5,-315.5 0.5,-416.5 161.5,-416.5 161.5,-315.5 0.5,-315.5"/>
<text text-anchor="middle" x="81" y="-404.5" font-family="Helvetica,sans-Serif" font-size="10.00">XML::bpmn::tCallableElement</text>
<polyline fill="none" stroke="black" points="0.5,-397.5 161.5,-397.5 "/>
<text text-anchor="start" x="8.5" y="-385.5" font-family="Helvetica,sans-Serif" font-size="10.00">+ supportedInterfaceRef</text>
<text text-anchor="start" x="8.5" y="-374.5" font-family="Helvetica,sans-Serif" font-size="10.00">+ ioSpecification</text>
<text text-anchor="start" x="8.5" y="-363.5" font-family="Helvetica,sans-Serif" font-size="10.00">+ ioBinding</text>
<text text-anchor="start" x="8.5" y="-352.5" font-family="Helvetica,sans-Serif" font-size="10.00">+ name</text>
<text text-anchor="start" x="8.5" y="-341.5" font-family="Helvetica,sans-Serif" font-size="10.00">+ defaults</text>
<polyline fill="none" stroke="black" points="0.5,-334.5 161.5,-334.5 "/>
<text text-anchor="start" x="8.5" y="-322.5" font-family="Helvetica,sans-Serif" font-size="10.00"># tCallableElement()</text>
</a>
</g>
</g>
<!-- Node4&#45;&gt;Node3 -->
<g id="edge3" class="edge">
<title>Node4&#45;&gt;Node3</title>
<path fill="none" stroke="midnightblue" d="M81,-305.17C81,-296.11 81,-287.05 81,-278.83"/>
<polygon fill="none" stroke="midnightblue" points="77.5,-305.36 81,-315.36 84.5,-305.36 77.5,-305.36"/>
</g>
<!-- Node5 -->
<g id="node5" class="node">
<title>Node5</title>
<g id="a_node5"><a xlink:href="classXML_1_1bpmn_1_1tRootElement.html" target="_top" xlink:title=" ">
<polygon fill="none" stroke="black" points="9,-453.5 9,-510.5 153,-510.5 153,-453.5 9,-453.5"/>
<text text-anchor="middle" x="81" y="-498.5" font-family="Helvetica,sans-Serif" font-size="10.00">XML::bpmn::tRootElement</text>
<polyline fill="none" stroke="black" points="9,-491.5 153,-491.5 "/>
<text text-anchor="start" x="17" y="-479.5" font-family="Helvetica,sans-Serif" font-size="10.00">+ defaults</text>
<polyline fill="none" stroke="black" points="9,-472.5 153,-472.5 "/>
<text text-anchor="start" x="17" y="-460.5" font-family="Helvetica,sans-Serif" font-size="10.00"># tRootElement()</text>
</a>
</g>
</g>
<!-- Node5&#45;&gt;Node4 -->
<g id="edge4" class="edge">
<title>Node5&#45;&gt;Node4</title>
<path fill="none" stroke="midnightblue" d="M81,-443.35C81,-434.8 81,-425.58 81,-416.61"/>
<polygon fill="none" stroke="midnightblue" points="77.5,-443.4 81,-453.4 84.5,-443.4 77.5,-443.4"/>
</g>
<!-- Node6 -->
<g id="node6" class="node">
<title>Node6</title>
<g id="a_node6"><a xlink:href="classXML_1_1bpmn_1_1tBaseElement.html" target="_top" xlink:title=" ">
<polygon fill="none" stroke="black" points="8,-547.5 8,-637.5 154,-637.5 154,-547.5 8,-547.5"/>
<text text-anchor="middle" x="81" y="-625.5" font-family="Helvetica,sans-Serif" font-size="10.00">XML::bpmn::tBaseElement</text>
<polyline fill="none" stroke="black" points="8,-618.5 154,-618.5 "/>
<text text-anchor="start" x="16" y="-606.5" font-family="Helvetica,sans-Serif" font-size="10.00">+ documentation</text>
<text text-anchor="start" x="16" y="-595.5" font-family="Helvetica,sans-Serif" font-size="10.00">+ extensionElements</text>
<text text-anchor="start" x="16" y="-584.5" font-family="Helvetica,sans-Serif" font-size="10.00">+ id</text>
<text text-anchor="start" x="16" y="-573.5" font-family="Helvetica,sans-Serif" font-size="10.00">+ defaults</text>
<polyline fill="none" stroke="black" points="8,-566.5 154,-566.5 "/>
<text text-anchor="start" x="16" y="-554.5" font-family="Helvetica,sans-Serif" font-size="10.00"># tBaseElement()</text>
</a>
</g>
</g>
<!-- Node6&#45;&gt;Node5 -->
<g id="edge5" class="edge">
<title>Node6&#45;&gt;Node5</title>
<path fill="none" stroke="midnightblue" d="M81,-537.35C81,-528.07 81,-518.79 81,-510.59"/>
<polygon fill="none" stroke="midnightblue" points="77.5,-537.37 81,-547.37 84.5,-537.37 77.5,-537.37"/>
</g>
<!-- Node7 -->
<g id="node7" class="node">
<title>Node7</title>
<g id="a_node7"><a xlink:href="classXML_1_1XMLObject.html" target="_top" xlink:title="A class representing a node in an XML&#45;tree.">
<polygon fill="none" stroke="black" points="18,-674.5 18,-984.5 144,-984.5 144,-674.5 18,-674.5"/>
<text text-anchor="middle" x="81" y="-972.5" font-family="Helvetica,sans-Serif" font-size="10.00">XML::XMLObject</text>
<polyline fill="none" stroke="black" points="18,-965.5 144,-965.5 "/>
<text text-anchor="start" x="26" y="-953.5" font-family="Helvetica,sans-Serif" font-size="10.00">+ xmlns</text>
<text text-anchor="start" x="26" y="-942.5" font-family="Helvetica,sans-Serif" font-size="10.00">+ className</text>
<text text-anchor="start" x="26" y="-931.5" font-family="Helvetica,sans-Serif" font-size="10.00">+ prefix</text>
<text text-anchor="start" x="26" y="-920.5" font-family="Helvetica,sans-Serif" font-size="10.00">+ elementName</text>
<text text-anchor="start" x="26" y="-909.5" font-family="Helvetica,sans-Serif" font-size="10.00">+ textContent</text>
<text text-anchor="start" x="26" y="-898.5" font-family="Helvetica,sans-Serif" font-size="10.00">+ children</text>
<text text-anchor="start" x="26" y="-887.5" font-family="Helvetica,sans-Serif" font-size="10.00">+ attributes</text>
<text text-anchor="start" x="26" y="-876.5" font-family="Helvetica,sans-Serif" font-size="10.00">+ defaults</text>
<text text-anchor="start" x="26" y="-865.5" font-family="Helvetica,sans-Serif" font-size="10.00"># factory</text>
<polyline fill="none" stroke="black" points="18,-858.5 144,-858.5 "/>
<text text-anchor="start" x="26" y="-846.5" font-family="Helvetica,sans-Serif" font-size="10.00">+ ~XMLObject()</text>
<text text-anchor="start" x="26" y="-835.5" font-family="Helvetica,sans-Serif" font-size="10.00">+ is()</text>
<text text-anchor="start" x="26" y="-824.5" font-family="Helvetica,sans-Serif" font-size="10.00">+ is()</text>
<text text-anchor="start" x="26" y="-813.5" font-family="Helvetica,sans-Serif" font-size="10.00">+ get()</text>
<text text-anchor="start" x="26" y="-802.5" font-family="Helvetica,sans-Serif" font-size="10.00">+ get()</text>
<text text-anchor="start" x="26" y="-791.5" font-family="Helvetica,sans-Serif" font-size="10.00">+ find()</text>
<text text-anchor="start" x="26" y="-780.5" font-family="Helvetica,sans-Serif" font-size="10.00">+ find()</text>
<text text-anchor="start" x="26" y="-769.5" font-family="Helvetica,sans-Serif" font-size="10.00">+ stringify()</text>
<text text-anchor="start" x="26" y="-758.5" font-family="Helvetica,sans-Serif" font-size="10.00">+ format()</text>
<text text-anchor="start" x="26" y="-747.5" font-family="Helvetica,sans-Serif" font-size="10.00">+ getRequiredChild()</text>
<text text-anchor="start" x="26" y="-736.5" font-family="Helvetica,sans-Serif" font-size="10.00">and 7 more...</text>
<text text-anchor="start" x="26" y="-725.5" font-family="Helvetica,sans-Serif" font-size="10.00">+ createFromStream()</text>
<text text-anchor="start" x="26" y="-714.5" font-family="Helvetica,sans-Serif" font-size="10.00">+ createFromString()</text>
<text text-anchor="start" x="26" y="-703.5" font-family="Helvetica,sans-Serif" font-size="10.00">+ createFromFile()</text>
<text text-anchor="start" x="26" y="-692.5" font-family="Helvetica,sans-Serif" font-size="10.00"># XMLObject()</text>
<text text-anchor="start" x="26" y="-681.5" font-family="Helvetica,sans-Serif" font-size="10.00"># createObject()</text>
</a>
</g>
</g>
<!-- Node7&#45;&gt;Node6 -->
<g id="edge6" class="edge">
<title>Node7&#45;&gt;Node6</title>
<path fill="none" stroke="midnightblue" d="M81,-664.35C81,-654.89 81,-645.91 81,-637.72"/>
<polygon fill="none" stroke="midnightblue" points="77.5,-664.37 81,-674.37 84.5,-664.37 77.5,-664.37"/>
</g>
</g>
</svg>
