<?xml version="1.0" encoding="UTF-8" standalone="no"?>
<!DOCTYPE svg PUBLIC "-//W3C//DTD SVG 1.1//EN"
 "http://www.w3.org/Graphics/SVG/1.1/DTD/svg11.dtd">
<!-- Generated by graphviz version 2.43.0 (0)
 -->
<!-- Title: BPMN::ConditionalBoundaryEvent Pages: 1 -->
<svg width="316pt" height="883pt"
 viewBox="0.00 0.00 315.50 883.00" xmlns="http://www.w3.org/2000/svg" xmlns:xlink="http://www.w3.org/1999/xlink">
<g id="graph0" class="graph" transform="scale(1 1) rotate(0) translate(4 879)">
<title>BPMN::ConditionalBoundaryEvent</title>
<!-- Node1 -->
<g id="node1" class="node">
<title>Node1</title>
<g id="a_node1"><a xlink:title=" ">
<polygon fill="#bfbfbf" stroke="black" points="80,-0.5 80,-68.5 245,-68.5 245,-0.5 80,-0.5"/>
<text text-anchor="start" x="88" y="-56.5" font-family="Helvetica,sans-Serif" font-size="10.00">BPMN::ConditionalBoundary</text>
<text text-anchor="middle" x="162.5" y="-45.5" font-family="Helvetica,sans-Serif" font-size="10.00">Event</text>
<polyline fill="none" stroke="black" points="80,-38.5 245,-38.5 "/>
<text text-anchor="start" x="88" y="-26.5" font-family="Helvetica,sans-Serif" font-size="10.00">+ element</text>
<polyline fill="none" stroke="black" points="80,-19.5 245,-19.5 "/>
<text text-anchor="start" x="88" y="-7.5" font-family="Helvetica,sans-Serif" font-size="10.00">+ ConditionalBoundaryEvent()</text>
</a>
</g>
</g>
<!-- Node2 -->
<g id="node2" class="node">
<title>Node2</title>
<g id="a_node2"><a xlink:href="classBPMN_1_1ConditionalCatchEvent.html" target="_top" xlink:title=" ">
<polygon fill="none" stroke="black" points="0,-116.5 0,-173.5 163,-173.5 163,-116.5 0,-116.5"/>
<text text-anchor="middle" x="81.5" y="-161.5" font-family="Helvetica,sans-Serif" font-size="10.00">BPMN::ConditionalCatchEvent</text>
<polyline fill="none" stroke="black" points="0,-154.5 163,-154.5 "/>
<text text-anchor="middle" x="81.5" y="-142.5" font-family="Helvetica,sans-Serif" font-size="10.00"> </text>
<polyline fill="none" stroke="black" points="0,-135.5 163,-135.5 "/>
<text text-anchor="start" x="8" y="-123.5" font-family="Helvetica,sans-Serif" font-size="10.00">+ ConditionalCatchEvent()</text>
</a>
</g>
</g>
<!-- Node2&#45;&gt;Node1 -->
<g id="edge1" class="edge">
<title>Node2&#45;&gt;Node1</title>
<path fill="none" stroke="midnightblue" d="M108.23,-108.19C117.78,-95.4 128.49,-81.06 137.85,-68.52"/>
<polygon fill="none" stroke="midnightblue" points="105.33,-106.23 102.15,-116.34 110.94,-110.42 105.33,-106.23"/>
</g>
<!-- Node3 -->
<g id="node3" class="node">
<title>Node3</title>
<g id="a_node3"><a xlink:href="classBPMN_1_1CatchEvent.html" target="_top" xlink:title=" ">
<polygon fill="none" stroke="black" points="109,-221.5 109,-278.5 216,-278.5 216,-221.5 109,-221.5"/>
<text text-anchor="middle" x="162.5" y="-266.5" font-family="Helvetica,sans-Serif" font-size="10.00">BPMN::CatchEvent</text>
<polyline fill="none" stroke="black" points="109,-259.5 216,-259.5 "/>
<text text-anchor="start" x="117" y="-247.5" font-family="Helvetica,sans-Serif" font-size="10.00">+ element</text>
<polyline fill="none" stroke="black" points="109,-240.5 216,-240.5 "/>
<text text-anchor="start" x="117" y="-228.5" font-family="Helvetica,sans-Serif" font-size="10.00">+ CatchEvent()</text>
</a>
</g>
</g>
<!-- Node3&#45;&gt;Node2 -->
<g id="edge2" class="edge">
<title>Node3&#45;&gt;Node2</title>
<path fill="none" stroke="midnightblue" d="M134.59,-213.51C124.34,-200.48 112.9,-185.93 103.27,-173.68"/>
<polygon fill="none" stroke="midnightblue" points="131.86,-215.7 140.79,-221.4 137.36,-211.37 131.86,-215.7"/>
</g>
<!-- Node8 -->
<g id="node8" class="node">
<title>Node8</title>
<g id="a_node8"><a xlink:href="classBPMN_1_1BoundaryEvent.html" target="_top" xlink:title="Base class for all boundary events attached to an Activity.">
<polygon fill="none" stroke="black" points="181.5,-105.5 181.5,-184.5 307.5,-184.5 307.5,-105.5 181.5,-105.5"/>
<text text-anchor="middle" x="244.5" y="-172.5" font-family="Helvetica,sans-Serif" font-size="10.00">BPMN::BoundaryEvent</text>
<polyline fill="none" stroke="black" points="181.5,-165.5 307.5,-165.5 "/>
<text text-anchor="start" x="189.5" y="-153.5" font-family="Helvetica,sans-Serif" font-size="10.00">+ isInterrupting</text>
<text text-anchor="start" x="189.5" y="-142.5" font-family="Helvetica,sans-Serif" font-size="10.00">+ attachedTo</text>
<polyline fill="none" stroke="black" points="181.5,-135.5 307.5,-135.5 "/>
<text text-anchor="start" x="189.5" y="-123.5" font-family="Helvetica,sans-Serif" font-size="10.00">+ BoundaryEvent()</text>
<text text-anchor="start" x="189.5" y="-112.5" font-family="Helvetica,sans-Serif" font-size="10.00"># resolveReference()</text>
</a>
</g>
</g>
<!-- Node3&#45;&gt;Node8 -->
<g id="edge8" class="edge">
<title>Node3&#45;&gt;Node8</title>
<path fill="none" stroke="midnightblue" d="M190.82,-213.43C198.24,-204.1 206.29,-194 213.83,-184.52"/>
<polygon fill="none" stroke="midnightblue" points="187.96,-211.39 184.47,-221.4 193.44,-215.75 187.96,-211.39"/>
</g>
<!-- Node4 -->
<g id="node4" class="node">
<title>Node4</title>
<g id="a_node4"><a xlink:href="classBPMN_1_1Event.html" target="_top" xlink:title=" ">
<polygon fill="none" stroke="black" points="122.5,-315.5 122.5,-372.5 202.5,-372.5 202.5,-315.5 122.5,-315.5"/>
<text text-anchor="middle" x="162.5" y="-360.5" font-family="Helvetica,sans-Serif" font-size="10.00">BPMN::Event</text>
<polyline fill="none" stroke="black" points="122.5,-353.5 202.5,-353.5 "/>
<text text-anchor="start" x="130.5" y="-341.5" font-family="Helvetica,sans-Serif" font-size="10.00">+ element</text>
<polyline fill="none" stroke="black" points="122.5,-334.5 202.5,-334.5 "/>
<text text-anchor="start" x="130.5" y="-322.5" font-family="Helvetica,sans-Serif" font-size="10.00">+ Event()</text>
</a>
</g>
</g>
<!-- Node4&#45;&gt;Node3 -->
<g id="edge3" class="edge">
<title>Node4&#45;&gt;Node3</title>
<path fill="none" stroke="midnightblue" d="M162.5,-305.21C162.5,-296.29 162.5,-286.95 162.5,-278.58"/>
<polygon fill="none" stroke="midnightblue" points="159,-305.4 162.5,-315.4 166,-305.4 159,-305.4"/>
</g>
<!-- Node5 -->
<g id="node5" class="node">
<title>Node5</title>
<g id="a_node5"><a xlink:href="classBPMN_1_1FlowNode.html" target="_top" xlink:title="Base class for BPMN elements that may contain incoming and outgoing SequenceFlow elements.">
<polygon fill="none" stroke="black" points="112,-409.5 112,-499.5 213,-499.5 213,-409.5 112,-409.5"/>
<text text-anchor="middle" x="162.5" y="-487.5" font-family="Helvetica,sans-Serif" font-size="10.00">BPMN::FlowNode</text>
<polyline fill="none" stroke="black" points="112,-480.5 213,-480.5 "/>
<text text-anchor="start" x="120" y="-468.5" font-family="Helvetica,sans-Serif" font-size="10.00">+ element</text>
<text text-anchor="start" x="120" y="-457.5" font-family="Helvetica,sans-Serif" font-size="10.00">+ name</text>
<text text-anchor="start" x="120" y="-446.5" font-family="Helvetica,sans-Serif" font-size="10.00">+ incoming</text>
<text text-anchor="start" x="120" y="-435.5" font-family="Helvetica,sans-Serif" font-size="10.00">+ outgoing</text>
<polyline fill="none" stroke="black" points="112,-428.5 213,-428.5 "/>
<text text-anchor="start" x="120" y="-416.5" font-family="Helvetica,sans-Serif" font-size="10.00">+ FlowNode()</text>
</a>
</g>
</g>
<!-- Node5&#45;&gt;Node4 -->
<g id="edge4" class="edge">
<title>Node5&#45;&gt;Node4</title>
<path fill="none" stroke="midnightblue" d="M162.5,-399.35C162.5,-390.07 162.5,-380.79 162.5,-372.59"/>
<polygon fill="none" stroke="midnightblue" points="159,-399.37 162.5,-409.37 166,-399.37 159,-399.37"/>
</g>
<!-- Node6 -->
<g id="node6" class="node">
<title>Node6</title>
<g id="a_node6"><a xlink:href="classBPMN_1_1ChildNode.html" target="_top" xlink:title="Base class for BPMN elements within a Scope.">
<polygon fill="none" stroke="black" points="111.5,-536.5 111.5,-593.5 213.5,-593.5 213.5,-536.5 111.5,-536.5"/>
<text text-anchor="middle" x="162.5" y="-581.5" font-family="Helvetica,sans-Serif" font-size="10.00">BPMN::ChildNode</text>
<polyline fill="none" stroke="black" points="111.5,-574.5 213.5,-574.5 "/>
<text text-anchor="start" x="119.5" y="-562.5" font-family="Helvetica,sans-Serif" font-size="10.00">+ parent</text>
<polyline fill="none" stroke="black" points="111.5,-555.5 213.5,-555.5 "/>
<text text-anchor="start" x="119.5" y="-543.5" font-family="Helvetica,sans-Serif" font-size="10.00">+ ChildNode()</text>
</a>
</g>
</g>
<!-- Node6&#45;&gt;Node5 -->
<g id="edge5" class="edge">
<title>Node6&#45;&gt;Node5</title>
<path fill="none" stroke="midnightblue" d="M162.5,-526.21C162.5,-517.61 162.5,-508.39 162.5,-499.55"/>
<polygon fill="none" stroke="midnightblue" points="159,-526.34 162.5,-536.34 166,-526.34 159,-526.34"/>
</g>
<!-- Node7 -->
<g id="node7" class="node">
<title>Node7</title>
<g id="a_node7"><a xlink:href="classBPMN_1_1Node.html" target="_top" xlink:title="Base class for all elements in a BPMN model.">
<polygon fill="none" stroke="black" points="101.5,-630.5 101.5,-874.5 223.5,-874.5 223.5,-630.5 101.5,-630.5"/>
<text text-anchor="middle" x="162.5" y="-862.5" font-family="Helvetica,sans-Serif" font-size="10.00">BPMN::Node</text>
<polyline fill="none" stroke="black" points="101.5,-855.5 223.5,-855.5 "/>
<text text-anchor="start" x="109.5" y="-843.5" font-family="Helvetica,sans-Serif" font-size="10.00">+ id</text>
<text text-anchor="start" x="109.5" y="-832.5" font-family="Helvetica,sans-Serif" font-size="10.00">+ receiving</text>
<text text-anchor="start" x="109.5" y="-821.5" font-family="Helvetica,sans-Serif" font-size="10.00">+ sending</text>
<text text-anchor="start" x="109.5" y="-810.5" font-family="Helvetica,sans-Serif" font-size="10.00">+ element</text>
<text text-anchor="start" x="109.5" y="-799.5" font-family="Helvetica,sans-Serif" font-size="10.00">+ extensionElements</text>
<polyline fill="none" stroke="black" points="101.5,-792.5 223.5,-792.5 "/>
<text text-anchor="start" x="109.5" y="-780.5" font-family="Helvetica,sans-Serif" font-size="10.00">+ Node()</text>
<text text-anchor="start" x="109.5" y="-769.5" font-family="Helvetica,sans-Serif" font-size="10.00">+ ~Node()</text>
<text text-anchor="start" x="109.5" y="-758.5" font-family="Helvetica,sans-Serif" font-size="10.00">+ is()</text>
<text text-anchor="start" x="109.5" y="-747.5" font-family="Helvetica,sans-Serif" font-size="10.00">+ is()</text>
<text text-anchor="start" x="109.5" y="-736.5" font-family="Helvetica,sans-Serif" font-size="10.00">+ get()</text>
<text text-anchor="start" x="109.5" y="-725.5" font-family="Helvetica,sans-Serif" font-size="10.00">+ get()</text>
<text text-anchor="start" x="109.5" y="-714.5" font-family="Helvetica,sans-Serif" font-size="10.00">+ represents()</text>
<text text-anchor="start" x="109.5" y="-703.5" font-family="Helvetica,sans-Serif" font-size="10.00">+ represents()</text>
<text text-anchor="start" x="109.5" y="-692.5" font-family="Helvetica,sans-Serif" font-size="10.00">+ as()</text>
<text text-anchor="start" x="109.5" y="-681.5" font-family="Helvetica,sans-Serif" font-size="10.00">+ as()</text>
<text text-anchor="start" x="109.5" y="-670.5" font-family="Helvetica,sans-Serif" font-size="10.00">+ find()</text>
<text text-anchor="start" x="109.5" y="-659.5" font-family="Helvetica,sans-Serif" font-size="10.00">+ find()</text>
<text text-anchor="start" x="109.5" y="-648.5" font-family="Helvetica,sans-Serif" font-size="10.00">+ find_all()</text>
<text text-anchor="start" x="109.5" y="-637.5" font-family="Helvetica,sans-Serif" font-size="10.00">+ find_all()</text>
</a>
</g>
</g>
<!-- Node7&#45;&gt;Node6 -->
<g id="edge6" class="edge">
<title>Node7&#45;&gt;Node6</title>
<path fill="none" stroke="midnightblue" d="M162.5,-620.34C162.5,-610.53 162.5,-601.42 162.5,-593.57"/>
<polygon fill="none" stroke="midnightblue" points="159,-620.36 162.5,-630.36 166,-620.36 159,-620.36"/>
</g>
<!-- Node8&#45;&gt;Node1 -->
<g id="edge7" class="edge">
<title>Node8&#45;&gt;Node1</title>
<path fill="none" stroke="midnightblue" d="M209.28,-97.39C201.94,-87.68 194.35,-77.64 187.47,-68.54"/>
<polygon fill="none" stroke="midnightblue" points="206.54,-99.57 215.36,-105.44 212.12,-95.35 206.54,-99.57"/>
</g>
</g>
</svg>
