<?xml version="1.0" encoding="UTF-8" standalone="no"?>
<!DOCTYPE svg PUBLIC "-//W3C//DTD SVG 1.1//EN"
 "http://www.w3.org/Graphics/SVG/1.1/DTD/svg11.dtd">
<!-- Generated by graphviz version 14.1.2 (0)
 -->
<!-- Title: BPMN::EventSubProcess Pages: 1 -->
<svg width="292pt" height="876pt"
 viewBox="0.00 0.00 292.00 876.00" xmlns="http://www.w3.org/2000/svg" xmlns:xlink="http://www.w3.org/1999/xlink">
<g id="graph0" class="graph" transform="scale(1 1) rotate(0) translate(4 871.5)">
<title>BPMN::EventSubProcess</title>
<!-- Node1 -->
<g id="Node000001" class="node">
<title>Node1</title>
<g id="a_Node000001"><a xlink:title=" ">
<polygon fill="#999999" stroke="none" points="185,-71 58.5,-71 58.5,0 185,0 185,-71"/>
<text xml:space="preserve" text-anchor="start" x="62.5" y="-57.5" font-family="Helvetica,sans-Serif" font-size="10.00">BPMN::EventSubProcess</text>
<text xml:space="preserve" text-anchor="start" x="66.38" y="-40.75" font-family="Helvetica,sans-Serif" font-size="10.00">+</text>
<text xml:space="preserve" text-anchor="start" x="82.5" y="-40.75" font-family="Helvetica,sans-Serif" font-size="10.00">startEvent</text>
<text xml:space="preserve" text-anchor="start" x="66.38" y="-24" font-family="Helvetica,sans-Serif" font-size="10.00">+</text>
<text xml:space="preserve" text-anchor="start" x="82.5" y="-24" font-family="Helvetica,sans-Serif" font-size="10.00">element</text>
<text xml:space="preserve" text-anchor="start" x="66.38" y="-7.25" font-family="Helvetica,sans-Serif" font-size="10.00">+</text>
<text xml:space="preserve" text-anchor="start" x="82.5" y="-7.25" font-family="Helvetica,sans-Serif" font-size="10.00">EventSubProcess()</text>
<polygon fill="#666666" stroke="#666666" points="58.5,-52.25 58.5,-52.25 185,-52.25 185,-52.25 58.5,-52.25"/>
<polygon fill="#666666" stroke="#666666" points="58.5,-18.75 58.5,-18.75 80.5,-18.75 80.5,-18.75 58.5,-18.75"/>
<polygon fill="#666666" stroke="#666666" points="80.5,-18.75 80.5,-18.75 185,-18.75 185,-18.75 80.5,-18.75"/>
<polygon fill="none" stroke="#666666" points="58.5,0 58.5,-71 185,-71 185,0 58.5,0"/>
</a>
</g>
</g>
<!-- Node2 -->
<g id="Node000002" class="node">
<title>Node2</title>
<g id="a_Node000002"><a xlink:href="classBPMN_1_1ChildNode.html" target="_top" xlink:title="Base class for BPMN elements within a Scope.">
<polygon fill="white" stroke="none" points="93.5,-261.75 0,-261.75 0,-174 93.5,-174 93.5,-261.75"/>
<text xml:space="preserve" text-anchor="start" x="4" y="-248.25" font-family="Helvetica,sans-Serif" font-size="10.00">BPMN::ChildNode</text>
<text xml:space="preserve" text-anchor="start" x="7.88" y="-231.5" font-family="Helvetica,sans-Serif" font-size="10.00">+</text>
<text xml:space="preserve" text-anchor="start" x="24" y="-231.5" font-family="Helvetica,sans-Serif" font-size="10.00">parent</text>
<text xml:space="preserve" text-anchor="start" x="7.88" y="-214.75" font-family="Helvetica,sans-Serif" font-size="10.00">+</text>
<text xml:space="preserve" text-anchor="start" x="24" y="-214.75" font-family="Helvetica,sans-Serif" font-size="10.00">ChildNode()</text>
<text xml:space="preserve" text-anchor="start" x="7.88" y="-198" font-family="Helvetica,sans-Serif" font-size="10.00">+</text>
<text xml:space="preserve" text-anchor="start" x="24" y="-198" font-family="Helvetica,sans-Serif" font-size="10.00">ancestor()</text>
<text xml:space="preserve" text-anchor="start" x="7.88" y="-181.25" font-family="Helvetica,sans-Serif" font-size="10.00">+</text>
<text xml:space="preserve" text-anchor="start" x="24" y="-181.25" font-family="Helvetica,sans-Serif" font-size="10.00">ancestor()</text>
<polygon fill="#666666" stroke="#666666" points="0,-243 0,-243 93.5,-243 93.5,-243 0,-243"/>
<polygon fill="#666666" stroke="#666666" points="0,-226.25 0,-226.25 22,-226.25 22,-226.25 0,-226.25"/>
<polygon fill="#666666" stroke="#666666" points="22,-226.25 22,-226.25 93.5,-226.25 93.5,-226.25 22,-226.25"/>
<polygon fill="none" stroke="#666666" points="0,-174 0,-261.75 93.5,-261.75 93.5,-174 0,-174"/>
</a>
</g>
</g>
<!-- Node2&#45;&gt;Node1 -->
<g id="edge1_Node000001_Node000002" class="edge">
<title>Node2&#45;&gt;Node1</title>
<g id="a_edge1_Node000001_Node000002"><a xlink:title=" ">
<path fill="none" stroke="#63b8ff" d="M68.82,-163.81C81.31,-133.76 96.57,-97.06 107.49,-70.8"/>
<polygon fill="none" stroke="#63b8ff" points="65.71,-162.15 65.11,-172.73 72.18,-164.84 65.71,-162.15"/>
</a>
</g>
</g>
<!-- Node3 -->
<g id="Node000003" class="node">
<title>Node3</title>
<g id="a_Node000003"><a xlink:href="classBPMN_1_1Node.html" target="_top" xlink:title="Base class for all nodes in a BPMN model.">
<polygon fill="white" stroke="none" points="156.12,-502.75 87.38,-502.75 87.38,-364.75 156.12,-364.75 156.12,-502.75"/>
<text xml:space="preserve" text-anchor="start" x="91.38" y="-489.25" font-family="Helvetica,sans-Serif" font-size="10.00">BPMN::Node</text>
<text xml:space="preserve" text-anchor="start" x="92.25" y="-472.5" font-family="Helvetica,sans-Serif" font-size="10.00">+</text>
<text xml:space="preserve" text-anchor="start" x="105.38" y="-472.5" font-family="Helvetica,sans-Serif" font-size="10.00">receiving</text>
<text xml:space="preserve" text-anchor="start" x="92.25" y="-455.75" font-family="Helvetica,sans-Serif" font-size="10.00">+</text>
<text xml:space="preserve" text-anchor="start" x="105.38" y="-455.75" font-family="Helvetica,sans-Serif" font-size="10.00">sending</text>
<text xml:space="preserve" text-anchor="start" x="92.25" y="-439" font-family="Helvetica,sans-Serif" font-size="10.00">+</text>
<text xml:space="preserve" text-anchor="start" x="105.38" y="-439" font-family="Helvetica,sans-Serif" font-size="10.00">Node()</text>
<text xml:space="preserve" text-anchor="start" x="92.25" y="-422.25" font-family="Helvetica,sans-Serif" font-size="10.00">+</text>
<text xml:space="preserve" text-anchor="start" x="105.38" y="-422.25" font-family="Helvetica,sans-Serif" font-size="10.00">find()</text>
<text xml:space="preserve" text-anchor="start" x="92.25" y="-405.5" font-family="Helvetica,sans-Serif" font-size="10.00">+</text>
<text xml:space="preserve" text-anchor="start" x="105.38" y="-405.5" font-family="Helvetica,sans-Serif" font-size="10.00">find()</text>
<text xml:space="preserve" text-anchor="start" x="92.25" y="-388.75" font-family="Helvetica,sans-Serif" font-size="10.00">+</text>
<text xml:space="preserve" text-anchor="start" x="105.38" y="-388.75" font-family="Helvetica,sans-Serif" font-size="10.00">find_all()</text>
<text xml:space="preserve" text-anchor="start" x="92.25" y="-372" font-family="Helvetica,sans-Serif" font-size="10.00">+</text>
<text xml:space="preserve" text-anchor="start" x="105.38" y="-372" font-family="Helvetica,sans-Serif" font-size="10.00">find_all()</text>
<polygon fill="#666666" stroke="#666666" points="87.38,-484 87.38,-484 156.12,-484 156.12,-484 87.38,-484"/>
<polygon fill="#666666" stroke="#666666" points="87.38,-450.5 87.38,-450.5 103.38,-450.5 103.38,-450.5 87.38,-450.5"/>
<polygon fill="#666666" stroke="#666666" points="103.38,-450.5 103.38,-450.5 156.12,-450.5 156.12,-450.5 103.38,-450.5"/>
<polygon fill="none" stroke="#666666" points="87.38,-364.75 87.38,-502.75 156.12,-502.75 156.12,-364.75 87.38,-364.75"/>
</a>
</g>
</g>
<!-- Node3&#45;&gt;Node2 -->
<g id="edge2_Node000002_Node000003" class="edge">
<title>Node3&#45;&gt;Node2</title>
<g id="a_edge2_Node000002_Node000003"><a xlink:title=" ">
<path fill="none" stroke="#63b8ff" d="M94.24,-354.29C83.23,-322.9 70.98,-287.98 61.68,-261.46"/>
<polygon fill="none" stroke="#63b8ff" points="90.8,-355.08 97.42,-363.36 97.41,-352.76 90.8,-355.08"/>
</a>
</g>
</g>
<!-- Node6 -->
<g id="Node000006" class="node">
<title>Node6</title>
<g id="a_Node000006"><a xlink:href="classBPMN_1_1Scope.html" target="_top" xlink:title="Base class for BPMN elements that may contain a ChildNode elements.">
<polygon fill="white" stroke="none" points="284,-328.75 111.5,-328.75 111.5,-107 284,-107 284,-328.75"/>
<text xml:space="preserve" text-anchor="start" x="165.5" y="-315.25" font-family="Helvetica,sans-Serif" font-size="10.00">BPMN::Scope</text>
<text xml:space="preserve" text-anchor="start" x="115.5" y="-298.5" font-family="Helvetica,sans-Serif" font-size="10.00">+</text>
<text xml:space="preserve" text-anchor="start" x="127.75" y="-298.5" font-family="Helvetica,sans-Serif" font-size="10.00">childNodes</text>
<text xml:space="preserve" text-anchor="start" x="115.5" y="-281.75" font-family="Helvetica,sans-Serif" font-size="10.00">+</text>
<text xml:space="preserve" text-anchor="start" x="127.75" y="-281.75" font-family="Helvetica,sans-Serif" font-size="10.00">flowNodes</text>
<text xml:space="preserve" text-anchor="start" x="115.5" y="-265" font-family="Helvetica,sans-Serif" font-size="10.00">+</text>
<text xml:space="preserve" text-anchor="start" x="127.75" y="-265" font-family="Helvetica,sans-Serif" font-size="10.00">eventSubProcesses</text>
<text xml:space="preserve" text-anchor="start" x="115.5" y="-248.25" font-family="Helvetica,sans-Serif" font-size="10.00">+</text>
<text xml:space="preserve" text-anchor="start" x="127.75" y="-248.25" font-family="Helvetica,sans-Serif" font-size="10.00">startNodes</text>
<text xml:space="preserve" text-anchor="start" x="115.5" y="-231.5" font-family="Helvetica,sans-Serif" font-size="10.00">+</text>
<text xml:space="preserve" text-anchor="start" x="127.75" y="-231.5" font-family="Helvetica,sans-Serif" font-size="10.00">sequenceFlows</text>
<text xml:space="preserve" text-anchor="start" x="115.5" y="-214.75" font-family="Helvetica,sans-Serif" font-size="10.00">+</text>
<text xml:space="preserve" text-anchor="start" x="127.75" y="-214.75" font-family="Helvetica,sans-Serif" font-size="10.00">compensationActivities</text>
<text xml:space="preserve" text-anchor="start" x="115.5" y="-198" font-family="Helvetica,sans-Serif" font-size="10.00">+</text>
<text xml:space="preserve" text-anchor="start" x="127.75" y="-198" font-family="Helvetica,sans-Serif" font-size="10.00">compensationEventSubProcess</text>
<text xml:space="preserve" text-anchor="start" x="115.5" y="-181.25" font-family="Helvetica,sans-Serif" font-size="10.00">+</text>
<text xml:space="preserve" text-anchor="start" x="127.75" y="-181.25" font-family="Helvetica,sans-Serif" font-size="10.00">dataObjects</text>
<text xml:space="preserve" text-anchor="start" x="115.5" y="-164.5" font-family="Helvetica,sans-Serif" font-size="10.00">+</text>
<text xml:space="preserve" text-anchor="start" x="127.75" y="-164.5" font-family="Helvetica,sans-Serif" font-size="10.00">Scope()</text>
<text xml:space="preserve" text-anchor="start" x="115.5" y="-147.75" font-family="Helvetica,sans-Serif" font-size="10.00">#</text>
<text xml:space="preserve" text-anchor="start" x="127.75" y="-147.75" font-family="Helvetica,sans-Serif" font-size="10.00">add()</text>
<text xml:space="preserve" text-anchor="start" x="115.5" y="-131" font-family="Helvetica,sans-Serif" font-size="10.00">#</text>
<text xml:space="preserve" text-anchor="start" x="127.75" y="-131" font-family="Helvetica,sans-Serif" font-size="10.00">add()</text>
<text xml:space="preserve" text-anchor="start" x="115.5" y="-114.25" font-family="Helvetica,sans-Serif" font-size="10.00">#</text>
<text xml:space="preserve" text-anchor="start" x="127.75" y="-114.25" font-family="Helvetica,sans-Serif" font-size="10.00">add()</text>
<polygon fill="#666666" stroke="#666666" points="111.5,-310 111.5,-310 284,-310 284,-310 111.5,-310"/>
<polygon fill="#666666" stroke="#666666" points="111.5,-176 111.5,-176 125.75,-176 125.75,-176 111.5,-176"/>
<polygon fill="#666666" stroke="#666666" points="125.75,-176 125.75,-176 284,-176 284,-176 125.75,-176"/>
<polygon fill="none" stroke="#666666" points="111.5,-107 111.5,-328.75 284,-328.75 284,-107 111.5,-107"/>
</a>
</g>
</g>
<!-- Node3&#45;&gt;Node6 -->
<g id="edge6_Node000006_Node000003" class="edge">
<title>Node3&#45;&gt;Node6</title>
<g id="a_edge6_Node000006_Node000003"><a xlink:title=" ">
<path fill="none" stroke="#63b8ff" d="M149.74,-353.98C152.7,-345.65 155.75,-337.06 158.81,-328.46"/>
<polygon fill="none" stroke="#63b8ff" points="146.46,-352.76 146.41,-363.36 153.05,-355.11 146.46,-352.76"/>
</a>
</g>
</g>
<!-- Node4 -->
<g id="Node000004" class="node">
<title>Node4</title>
<g id="a_Node000004"><a xlink:href="classBPMN_1_1BaseElement.html" target="_top" xlink:title="Base class for all core BPMN elements.">
<polygon fill="white" stroke="none" points="178.75,-710.25 64.75,-710.25 64.75,-538.75 178.75,-538.75 178.75,-710.25"/>
<text xml:space="preserve" text-anchor="start" x="71.88" y="-696.75" font-family="Helvetica,sans-Serif" font-size="10.00">BPMN::BaseElement</text>
<text xml:space="preserve" text-anchor="start" x="68.75" y="-680" font-family="Helvetica,sans-Serif" font-size="10.00">+</text>
<text xml:space="preserve" text-anchor="start" x="81" y="-680" font-family="Helvetica,sans-Serif" font-size="10.00">element</text>
<text xml:space="preserve" text-anchor="start" x="68.75" y="-663.25" font-family="Helvetica,sans-Serif" font-size="10.00">+</text>
<text xml:space="preserve" text-anchor="start" x="81" y="-663.25" font-family="Helvetica,sans-Serif" font-size="10.00">id</text>
<text xml:space="preserve" text-anchor="start" x="68.75" y="-646.5" font-family="Helvetica,sans-Serif" font-size="10.00">+</text>
<text xml:space="preserve" text-anchor="start" x="81" y="-646.5" font-family="Helvetica,sans-Serif" font-size="10.00">extensionElements</text>
<text xml:space="preserve" text-anchor="start" x="68.75" y="-629.75" font-family="Helvetica,sans-Serif" font-size="10.00">+</text>
<text xml:space="preserve" text-anchor="start" x="81" y="-629.75" font-family="Helvetica,sans-Serif" font-size="10.00">BaseElement()</text>
<text xml:space="preserve" text-anchor="start" x="68.75" y="-613" font-family="Helvetica,sans-Serif" font-size="10.00">+</text>
<text xml:space="preserve" text-anchor="start" x="81" y="-613" font-family="Helvetica,sans-Serif" font-size="10.00">~BaseElement()</text>
<text xml:space="preserve" text-anchor="start" x="68.75" y="-596.25" font-family="Helvetica,sans-Serif" font-size="10.00">+</text>
<text xml:space="preserve" text-anchor="start" x="81" y="-596.25" font-family="Helvetica,sans-Serif" font-size="10.00">is()</text>
<text xml:space="preserve" text-anchor="start" x="68.75" y="-579.5" font-family="Helvetica,sans-Serif" font-size="10.00">+</text>
<text xml:space="preserve" text-anchor="start" x="81" y="-579.5" font-family="Helvetica,sans-Serif" font-size="10.00">is()</text>
<text xml:space="preserve" text-anchor="start" x="68.75" y="-562.75" font-family="Helvetica,sans-Serif" font-size="10.00">+</text>
<text xml:space="preserve" text-anchor="start" x="81" y="-562.75" font-family="Helvetica,sans-Serif" font-size="10.00">get()</text>
<text xml:space="preserve" text-anchor="start" x="68.75" y="-546" font-family="Helvetica,sans-Serif" font-size="10.00">+</text>
<text xml:space="preserve" text-anchor="start" x="81" y="-546" font-family="Helvetica,sans-Serif" font-size="10.00">get()</text>
<polygon fill="#666666" stroke="#666666" points="64.75,-691.5 64.75,-691.5 178.75,-691.5 178.75,-691.5 64.75,-691.5"/>
<polygon fill="#666666" stroke="#666666" points="64.75,-641.25 64.75,-641.25 79,-641.25 79,-641.25 64.75,-641.25"/>
<polygon fill="#666666" stroke="#666666" points="79,-641.25 79,-641.25 178.75,-641.25 178.75,-641.25 79,-641.25"/>
<polygon fill="none" stroke="#666666" points="64.75,-538.75 64.75,-710.25 178.75,-710.25 178.75,-538.75 64.75,-538.75"/>
</a>
</g>
</g>
<!-- Node4&#45;&gt;Node3 -->
<g id="edge3_Node000003_Node000004" class="edge">
<title>Node4&#45;&gt;Node3</title>
<g id="a_edge3_Node000003_Node000004"><a xlink:title=" ">
<path fill="none" stroke="#63b8ff" d="M121.75,-527.36C121.75,-518.96 121.75,-510.59 121.75,-502.5"/>
<polygon fill="none" stroke="#63b8ff" points="118.25,-527.27 121.75,-537.27 125.25,-527.27 118.25,-527.27"/>
</a>
</g>
</g>
<!-- Node5 -->
<g id="Node000005" class="node">
<title>Node5</title>
<g id="a_Node000005"><a xlink:href="classBPMN_1_1Element.html" target="_top" xlink:title="Abstract base class for all elements in a BPMN model.">
<polygon fill="white" stroke="none" points="163.62,-867.5 79.88,-867.5 79.88,-746.25 163.62,-746.25 163.62,-867.5"/>
<text xml:space="preserve" text-anchor="start" x="83.88" y="-854" font-family="Helvetica,sans-Serif" font-size="10.00">BPMN::Element</text>
<text xml:space="preserve" text-anchor="start" x="120.25" y="-837.25" font-family="Helvetica,sans-Serif" font-size="10.00"> </text>
<text xml:space="preserve" text-anchor="start" x="84.94" y="-820.5" font-family="Helvetica,sans-Serif" font-size="10.00">+</text>
<text xml:space="preserve" text-anchor="start" x="98.25" y="-820.5" font-family="Helvetica,sans-Serif" font-size="10.00">~Element()</text>
<text xml:space="preserve" text-anchor="start" x="84.94" y="-803.75" font-family="Helvetica,sans-Serif" font-size="10.00">+</text>
<text xml:space="preserve" text-anchor="start" x="98.25" y="-803.75" font-family="Helvetica,sans-Serif" font-size="10.00">represents()</text>
<text xml:space="preserve" text-anchor="start" x="84.94" y="-787" font-family="Helvetica,sans-Serif" font-size="10.00">+</text>
<text xml:space="preserve" text-anchor="start" x="98.25" y="-787" font-family="Helvetica,sans-Serif" font-size="10.00">represents()</text>
<text xml:space="preserve" text-anchor="start" x="84.94" y="-770.25" font-family="Helvetica,sans-Serif" font-size="10.00">+</text>
<text xml:space="preserve" text-anchor="start" x="98.25" y="-770.25" font-family="Helvetica,sans-Serif" font-size="10.00">as()</text>
<text xml:space="preserve" text-anchor="start" x="84.94" y="-753.5" font-family="Helvetica,sans-Serif" font-size="10.00">+</text>
<text xml:space="preserve" text-anchor="start" x="98.25" y="-753.5" font-family="Helvetica,sans-Serif" font-size="10.00">as()</text>
<polygon fill="#666666" stroke="#666666" points="79.88,-848.75 79.88,-848.75 163.62,-848.75 163.62,-848.75 79.88,-848.75"/>
<polygon fill="#666666" stroke="#666666" points="79.88,-832 79.88,-832 163.62,-832 163.62,-832 79.88,-832"/>
<polygon fill="none" stroke="#666666" points="79.88,-746.25 79.88,-867.5 163.62,-867.5 163.62,-746.25 79.88,-746.25"/>
</a>
</g>
</g>
<!-- Node5&#45;&gt;Node4 -->
<g id="edge4_Node000004_Node000005" class="edge">
<title>Node5&#45;&gt;Node4</title>
<g id="a_edge4_Node000004_Node000005"><a xlink:title=" ">
<path fill="none" stroke="#63b8ff" d="M121.75,-734.96C121.75,-726.81 121.75,-718.44 121.75,-710.13"/>
<polygon fill="none" stroke="#63b8ff" points="118.25,-734.8 121.75,-744.8 125.25,-734.8 118.25,-734.8"/>
</a>
</g>
</g>
<!-- Node6&#45;&gt;Node1 -->
<g id="edge5_Node000001_Node000006" class="edge">
<title>Node6&#45;&gt;Node1</title>
<g id="a_edge5_Node000001_Node000006"><a xlink:title=" ">
<path fill="none" stroke="#63b8ff" d="M147,-96.43C143.12,-87.21 139.43,-78.47 136.14,-70.65"/>
<polygon fill="none" stroke="#63b8ff" points="143.76,-97.76 150.87,-105.62 150.21,-95.04 143.76,-97.76"/>
</a>
</g>
</g>
</g>
</svg>
