<?xml version="1.0" encoding="UTF-8" standalone="no"?>
<!DOCTYPE svg PUBLIC "-//W3C//DTD SVG 1.1//EN"
 "http://www.w3.org/Graphics/SVG/1.1/DTD/svg11.dtd">
<!-- Generated by graphviz version 2.43.0 (0)
 -->
<!-- Title: BPMN::Process Pages: 1 -->
<svg width="182pt" height="787pt"
 viewBox="0.00 0.00 182.00 787.00" xmlns="http://www.w3.org/2000/svg" xmlns:xlink="http://www.w3.org/1999/xlink">
<g id="graph0" class="graph" transform="scale(1 1) rotate(0) translate(4 783)">
<title>BPMN::Process</title>
<!-- Node1 -->
<g id="Node000001" class="node">
<title>Node1</title>
<g id="a_Node000001"><a xlink:title=" ">
<polygon fill="#999999" stroke="transparent" points="128.5,-64 45.5,-64 45.5,0 128.5,0 128.5,-64"/>
<text text-anchor="start" x="51" y="-52" font-family="Helvetica,sans-Serif" font-size="10.00">BPMN::Process</text>
<text text-anchor="start" x="50" y="-37" font-family="Helvetica,sans-Serif" font-size="10.00">+</text>
<text text-anchor="start" x="63" y="-37" font-family="Helvetica,sans-Serif" font-size="10.00">isExecutable</text>
<text text-anchor="start" x="50" y="-22" font-family="Helvetica,sans-Serif" font-size="10.00">+</text>
<text text-anchor="start" x="63" y="-22" font-family="Helvetica,sans-Serif" font-size="10.00">element</text>
<text text-anchor="start" x="50" y="-7" font-family="Helvetica,sans-Serif" font-size="10.00">+</text>
<text text-anchor="start" x="63" y="-7" font-family="Helvetica,sans-Serif" font-size="10.00">Process()</text>
<polygon fill="#666666" stroke="#666666" points="46,-47 46,-47 129,-47 129,-47 46,-47"/>
<polygon fill="#666666" stroke="#666666" points="46,-17 46,-17 61,-17 61,-17 46,-17"/>
<polygon fill="#666666" stroke="#666666" points="61,-17 61,-17 129,-17 129,-17 61,-17"/>
<polygon fill="none" stroke="#666666" points="45.5,0 45.5,-64 128.5,-64 128.5,0 45.5,0"/>
</a>
</g>
</g>
<!-- Node2 -->
<g id="Node000002" class="node">
<title>Node2</title>
<g id="a_Node000002"><a xlink:href="classBPMN_1_1Scope.html" target="_top" xlink:title="Base class for BPMN elements that may contain a ChildNode elements.">
<polygon fill="white" stroke="transparent" points="174,-299 0,-299 0,-100 174,-100 174,-299"/>
<text text-anchor="start" x="54.5" y="-286.5" font-family="Helvetica,sans-Serif" font-size="10.00">BPMN::Scope</text>
<text text-anchor="start" x="4" y="-271.5" font-family="Helvetica,sans-Serif" font-size="10.00">+</text>
<text text-anchor="start" x="17" y="-271.5" font-family="Helvetica,sans-Serif" font-size="10.00">childNodes</text>
<text text-anchor="start" x="4" y="-256.5" font-family="Helvetica,sans-Serif" font-size="10.00">+</text>
<text text-anchor="start" x="17" y="-256.5" font-family="Helvetica,sans-Serif" font-size="10.00">flowNodes</text>
<text text-anchor="start" x="4" y="-241.5" font-family="Helvetica,sans-Serif" font-size="10.00">+</text>
<text text-anchor="start" x="17" y="-241.5" font-family="Helvetica,sans-Serif" font-size="10.00">eventSubProcesses</text>
<text text-anchor="start" x="4" y="-226.5" font-family="Helvetica,sans-Serif" font-size="10.00">+</text>
<text text-anchor="start" x="17" y="-226.5" font-family="Helvetica,sans-Serif" font-size="10.00">startNodes</text>
<text text-anchor="start" x="4" y="-211.5" font-family="Helvetica,sans-Serif" font-size="10.00">+</text>
<text text-anchor="start" x="17" y="-211.5" font-family="Helvetica,sans-Serif" font-size="10.00">sequenceFlows</text>
<text text-anchor="start" x="4" y="-196.5" font-family="Helvetica,sans-Serif" font-size="10.00">+</text>
<text text-anchor="start" x="17" y="-196.5" font-family="Helvetica,sans-Serif" font-size="10.00">compensationActivities</text>
<text text-anchor="start" x="4" y="-181.5" font-family="Helvetica,sans-Serif" font-size="10.00">+</text>
<text text-anchor="start" x="17" y="-181.5" font-family="Helvetica,sans-Serif" font-size="10.00">compensationEventSubProcess</text>
<text text-anchor="start" x="4" y="-166.5" font-family="Helvetica,sans-Serif" font-size="10.00">+</text>
<text text-anchor="start" x="17" y="-166.5" font-family="Helvetica,sans-Serif" font-size="10.00">dataObjects</text>
<text text-anchor="start" x="4" y="-151.5" font-family="Helvetica,sans-Serif" font-size="10.00">+</text>
<text text-anchor="start" x="17" y="-151.5" font-family="Helvetica,sans-Serif" font-size="10.00">Scope()</text>
<text text-anchor="start" x="4" y="-136.5" font-family="Helvetica,sans-Serif" font-size="10.00">#</text>
<text text-anchor="start" x="17" y="-136.5" font-family="Helvetica,sans-Serif" font-size="10.00">add()</text>
<text text-anchor="start" x="4" y="-121.5" font-family="Helvetica,sans-Serif" font-size="10.00">#</text>
<text text-anchor="start" x="17" y="-121.5" font-family="Helvetica,sans-Serif" font-size="10.00">add()</text>
<text text-anchor="start" x="4" y="-106.5" font-family="Helvetica,sans-Serif" font-size="10.00">#</text>
<text text-anchor="start" x="17" y="-106.5" font-family="Helvetica,sans-Serif" font-size="10.00">add()</text>
<polygon fill="#666666" stroke="#666666" points="0,-281.5 0,-281.5 174,-281.5 174,-281.5 0,-281.5"/>
<polygon fill="#666666" stroke="#666666" points="0,-161.5 0,-161.5 15,-161.5 15,-161.5 0,-161.5"/>
<polygon fill="#666666" stroke="#666666" points="15,-161.5 15,-161.5 174,-161.5 174,-161.5 15,-161.5"/>
<polygon fill="none" stroke="#666666" points="0,-100 0,-299 174,-299 174,-100 0,-100"/>
</a>
</g>
</g>
<!-- Node2&#45;&gt;Node1 -->
<g id="edge1_Node000001_Node000002" class="edge">
<title>Node2&#45;&gt;Node1</title>
<g id="a_edge1_Node000001_Node000002"><a xlink:title=" ">
<path fill="none" stroke="#63b8ff" d="M87,-89.72C87,-80.54 87,-71.83 87,-64.12"/>
<polygon fill="none" stroke="#63b8ff" points="83.5,-89.84 87,-99.84 90.5,-89.84 83.5,-89.84"/>
</a>
</g>
</g>
<!-- Node3 -->
<g id="Node000003" class="node">
<title>Node3</title>
<g id="a_Node000003"><a xlink:href="classBPMN_1_1Node.html" target="_top" xlink:title="Base class for all nodes in a BPMN model.">
<polygon fill="white" stroke="transparent" points="122.5,-459 51.5,-459 51.5,-335 122.5,-335 122.5,-459"/>
<text text-anchor="start" x="57" y="-447" font-family="Helvetica,sans-Serif" font-size="10.00">BPMN::Node</text>
<text text-anchor="start" x="57" y="-432" font-family="Helvetica,sans-Serif" font-size="10.00">+</text>
<text text-anchor="start" x="71" y="-432" font-family="Helvetica,sans-Serif" font-size="10.00">receiving</text>
<text text-anchor="start" x="57" y="-417" font-family="Helvetica,sans-Serif" font-size="10.00">+</text>
<text text-anchor="start" x="71" y="-417" font-family="Helvetica,sans-Serif" font-size="10.00">sending</text>
<text text-anchor="start" x="57" y="-402" font-family="Helvetica,sans-Serif" font-size="10.00">+</text>
<text text-anchor="start" x="71" y="-402" font-family="Helvetica,sans-Serif" font-size="10.00">Node()</text>
<text text-anchor="start" x="57" y="-387" font-family="Helvetica,sans-Serif" font-size="10.00">+</text>
<text text-anchor="start" x="71" y="-387" font-family="Helvetica,sans-Serif" font-size="10.00">find()</text>
<text text-anchor="start" x="57" y="-372" font-family="Helvetica,sans-Serif" font-size="10.00">+</text>
<text text-anchor="start" x="71" y="-372" font-family="Helvetica,sans-Serif" font-size="10.00">find()</text>
<text text-anchor="start" x="57" y="-357" font-family="Helvetica,sans-Serif" font-size="10.00">+</text>
<text text-anchor="start" x="71" y="-357" font-family="Helvetica,sans-Serif" font-size="10.00">find_all()</text>
<text text-anchor="start" x="57" y="-342" font-family="Helvetica,sans-Serif" font-size="10.00">+</text>
<text text-anchor="start" x="71" y="-342" font-family="Helvetica,sans-Serif" font-size="10.00">find_all()</text>
<polygon fill="#666666" stroke="#666666" points="52,-442 52,-442 123,-442 123,-442 52,-442"/>
<polygon fill="#666666" stroke="#666666" points="52,-412 52,-412 69,-412 69,-412 52,-412"/>
<polygon fill="#666666" stroke="#666666" points="69,-412 69,-412 123,-412 123,-412 69,-412"/>
<polygon fill="none" stroke="#666666" points="51.5,-335 51.5,-459 122.5,-459 122.5,-335 51.5,-335"/>
</a>
</g>
</g>
<!-- Node3&#45;&gt;Node2 -->
<g id="edge2_Node000002_Node000003" class="edge">
<title>Node3&#45;&gt;Node2</title>
<g id="a_edge2_Node000002_Node000003"><a xlink:title=" ">
<path fill="none" stroke="#63b8ff" d="M87,-324.86C87,-316.46 87,-307.77 87,-299.08"/>
<polygon fill="none" stroke="#63b8ff" points="83.5,-324.95 87,-334.95 90.5,-324.95 83.5,-324.95"/>
</a>
</g>
</g>
<!-- Node4 -->
<g id="Node000004" class="node">
<title>Node4</title>
<g id="a_Node000004"><a xlink:href="classBPMN_1_1BaseElement.html" target="_top" xlink:title="Base class for all core BPMN elements.">
<polygon fill="white" stroke="transparent" points="144.5,-634 29.5,-634 29.5,-495 144.5,-495 144.5,-634"/>
<text text-anchor="start" x="37.5" y="-621.5" font-family="Helvetica,sans-Serif" font-size="10.00">BPMN::BaseElement</text>
<text text-anchor="start" x="34" y="-606.5" font-family="Helvetica,sans-Serif" font-size="10.00">+</text>
<text text-anchor="start" x="47" y="-606.5" font-family="Helvetica,sans-Serif" font-size="10.00">element</text>
<text text-anchor="start" x="34" y="-591.5" font-family="Helvetica,sans-Serif" font-size="10.00">+</text>
<text text-anchor="start" x="47" y="-591.5" font-family="Helvetica,sans-Serif" font-size="10.00">id</text>
<text text-anchor="start" x="34" y="-576.5" font-family="Helvetica,sans-Serif" font-size="10.00">+</text>
<text text-anchor="start" x="47" y="-576.5" font-family="Helvetica,sans-Serif" font-size="10.00">extensionElements</text>
<text text-anchor="start" x="34" y="-561.5" font-family="Helvetica,sans-Serif" font-size="10.00">+</text>
<text text-anchor="start" x="47" y="-561.5" font-family="Helvetica,sans-Serif" font-size="10.00">BaseElement()</text>
<text text-anchor="start" x="34" y="-546.5" font-family="Helvetica,sans-Serif" font-size="10.00">+</text>
<text text-anchor="start" x="47" y="-546.5" font-family="Helvetica,sans-Serif" font-size="10.00">is()</text>
<text text-anchor="start" x="34" y="-531.5" font-family="Helvetica,sans-Serif" font-size="10.00">+</text>
<text text-anchor="start" x="47" y="-531.5" font-family="Helvetica,sans-Serif" font-size="10.00">is()</text>
<text text-anchor="start" x="34" y="-516.5" font-family="Helvetica,sans-Serif" font-size="10.00">+</text>
<text text-anchor="start" x="47" y="-516.5" font-family="Helvetica,sans-Serif" font-size="10.00">get()</text>
<text text-anchor="start" x="34" y="-501.5" font-family="Helvetica,sans-Serif" font-size="10.00">+</text>
<text text-anchor="start" x="47" y="-501.5" font-family="Helvetica,sans-Serif" font-size="10.00">get()</text>
<polygon fill="#666666" stroke="#666666" points="30,-616.5 30,-616.5 145,-616.5 145,-616.5 30,-616.5"/>
<polygon fill="#666666" stroke="#666666" points="30,-571.5 30,-571.5 45,-571.5 45,-571.5 30,-571.5"/>
<polygon fill="#666666" stroke="#666666" points="45,-571.5 45,-571.5 145,-571.5 145,-571.5 45,-571.5"/>
<polygon fill="none" stroke="#666666" points="29.5,-495 29.5,-634 144.5,-634 144.5,-495 29.5,-495"/>
</a>
</g>
</g>
<!-- Node4&#45;&gt;Node3 -->
<g id="edge3_Node000003_Node000004" class="edge">
<title>Node4&#45;&gt;Node3</title>
<g id="a_edge3_Node000003_Node000004"><a xlink:title=" ">
<path fill="none" stroke="#63b8ff" d="M87,-484.71C87,-476.12 87,-467.47 87,-459.14"/>
<polygon fill="none" stroke="#63b8ff" points="83.5,-484.75 87,-494.75 90.5,-484.75 83.5,-484.75"/>
</a>
</g>
</g>
<!-- Node5 -->
<g id="Node000005" class="node">
<title>Node5</title>
<g id="a_Node000005"><a xlink:href="classBPMN_1_1Element.html" target="_top" xlink:title="Abstract base class for all elements in a BPMN model.">
<polygon fill="white" stroke="transparent" points="130,-779 44,-779 44,-670 130,-670 130,-779"/>
<text text-anchor="start" x="49" y="-766.5" font-family="Helvetica,sans-Serif" font-size="10.00">BPMN::Element</text>
<text text-anchor="start" x="85" y="-751.5" font-family="Helvetica,sans-Serif" font-size="10.00"> </text>
<text text-anchor="start" x="49" y="-736.5" font-family="Helvetica,sans-Serif" font-size="10.00">+</text>
<text text-anchor="start" x="63" y="-736.5" font-family="Helvetica,sans-Serif" font-size="10.00">~Element()</text>
<text text-anchor="start" x="49" y="-721.5" font-family="Helvetica,sans-Serif" font-size="10.00">+</text>
<text text-anchor="start" x="63" y="-721.5" font-family="Helvetica,sans-Serif" font-size="10.00">represents()</text>
<text text-anchor="start" x="49" y="-706.5" font-family="Helvetica,sans-Serif" font-size="10.00">+</text>
<text text-anchor="start" x="63" y="-706.5" font-family="Helvetica,sans-Serif" font-size="10.00">represents()</text>
<text text-anchor="start" x="49" y="-691.5" font-family="Helvetica,sans-Serif" font-size="10.00">+</text>
<text text-anchor="start" x="63" y="-691.5" font-family="Helvetica,sans-Serif" font-size="10.00">as()</text>
<text text-anchor="start" x="49" y="-676.5" font-family="Helvetica,sans-Serif" font-size="10.00">+</text>
<text text-anchor="start" x="63" y="-676.5" font-family="Helvetica,sans-Serif" font-size="10.00">as()</text>
<polygon fill="#666666" stroke="#666666" points="44,-761.5 44,-761.5 130,-761.5 130,-761.5 44,-761.5"/>
<polygon fill="#666666" stroke="#666666" points="44,-746.5 44,-746.5 130,-746.5 130,-746.5 44,-746.5"/>
<polygon fill="none" stroke="#666666" points="44,-670 44,-779 130,-779 130,-670 44,-670"/>
</a>
</g>
</g>
<!-- Node5&#45;&gt;Node4 -->
<g id="edge4_Node000004_Node000005" class="edge">
<title>Node5&#45;&gt;Node4</title>
<g id="a_edge4_Node000004_Node000005"><a xlink:title=" ">
<path fill="none" stroke="#63b8ff" d="M87,-659.55C87,-651.23 87,-642.67 87,-634.28"/>
<polygon fill="none" stroke="#63b8ff" points="83.5,-659.57 87,-669.57 90.5,-659.57 83.5,-659.57"/>
</a>
</g>
</g>
</g>
</svg>
