<?xml version="1.0" encoding="UTF-8" standalone="no"?>
<!DOCTYPE svg PUBLIC "-//W3C//DTD SVG 1.1//EN"
 "http://www.w3.org/Graphics/SVG/1.1/DTD/svg11.dtd">
<!-- Generated by graphviz version 2.43.0 (0)
 -->
<!-- Title: BPMN::SignalBoundaryEvent Pages: 1 -->
<svg width="290pt" height="861pt"
 viewBox="0.00 0.00 289.50 861.00" xmlns="http://www.w3.org/2000/svg" xmlns:xlink="http://www.w3.org/1999/xlink">
<g id="graph0" class="graph" transform="scale(1 1) rotate(0) translate(4 857)">
<title>BPMN::SignalBoundaryEvent</title>
<!-- Node1 -->
<g id="node1" class="node">
<title>Node1</title>
<g id="a_node1"><a xlink:title=" ">
<polygon fill="#bfbfbf" stroke="black" points="65.5,-0.5 65.5,-57.5 221.5,-57.5 221.5,-0.5 65.5,-0.5"/>
<text text-anchor="middle" x="143.5" y="-45.5" font-family="Helvetica,sans-Serif" font-size="10.00">BPMN::SignalBoundaryEvent</text>
<polyline fill="none" stroke="black" points="65.5,-38.5 221.5,-38.5 "/>
<text text-anchor="start" x="73.5" y="-26.5" font-family="Helvetica,sans-Serif" font-size="10.00">+ element</text>
<polyline fill="none" stroke="black" points="65.5,-19.5 221.5,-19.5 "/>
<text text-anchor="start" x="73.5" y="-7.5" font-family="Helvetica,sans-Serif" font-size="10.00">+ SignalBoundaryEvent()</text>
</a>
</g>
</g>
<!-- Node2 -->
<g id="node2" class="node">
<title>Node2</title>
<g id="a_node2"><a xlink:href="classBPMN_1_1SignalCatchEvent.html" target="_top" xlink:title=" ">
<polygon fill="none" stroke="black" points="0,-105.5 0,-162.5 137,-162.5 137,-105.5 0,-105.5"/>
<text text-anchor="middle" x="68.5" y="-150.5" font-family="Helvetica,sans-Serif" font-size="10.00">BPMN::SignalCatchEvent</text>
<polyline fill="none" stroke="black" points="0,-143.5 137,-143.5 "/>
<text text-anchor="start" x="8" y="-131.5" font-family="Helvetica,sans-Serif" font-size="10.00">+ element</text>
<polyline fill="none" stroke="black" points="0,-124.5 137,-124.5 "/>
<text text-anchor="start" x="8" y="-112.5" font-family="Helvetica,sans-Serif" font-size="10.00">+ SignalCatchEvent()</text>
</a>
</g>
</g>
<!-- Node2&#45;&gt;Node1 -->
<g id="edge1" class="edge">
<title>Node2&#45;&gt;Node1</title>
<path fill="none" stroke="midnightblue" d="M94.61,-97.14C104.03,-84.2 114.51,-69.81 123.35,-57.68"/>
<polygon fill="none" stroke="midnightblue" points="91.66,-95.25 88.6,-105.4 97.31,-99.37 91.66,-95.25"/>
</g>
<!-- Node3 -->
<g id="node3" class="node">
<title>Node3</title>
<g id="a_node3"><a xlink:href="classBPMN_1_1CatchEvent.html" target="_top" xlink:title=" ">
<polygon fill="none" stroke="black" points="90,-210.5 90,-267.5 197,-267.5 197,-210.5 90,-210.5"/>
<text text-anchor="middle" x="143.5" y="-255.5" font-family="Helvetica,sans-Serif" font-size="10.00">BPMN::CatchEvent</text>
<polyline fill="none" stroke="black" points="90,-248.5 197,-248.5 "/>
<text text-anchor="start" x="98" y="-236.5" font-family="Helvetica,sans-Serif" font-size="10.00">+ element</text>
<polyline fill="none" stroke="black" points="90,-229.5 197,-229.5 "/>
<text text-anchor="start" x="98" y="-217.5" font-family="Helvetica,sans-Serif" font-size="10.00">+ CatchEvent()</text>
</a>
</g>
</g>
<!-- Node3&#45;&gt;Node2 -->
<g id="edge2" class="edge">
<title>Node3&#45;&gt;Node2</title>
<path fill="none" stroke="midnightblue" d="M117.39,-202.14C107.97,-189.2 97.49,-174.81 88.65,-162.68"/>
<polygon fill="none" stroke="midnightblue" points="114.69,-204.37 123.4,-210.4 120.34,-200.25 114.69,-204.37"/>
</g>
<!-- Node8 -->
<g id="node8" class="node">
<title>Node8</title>
<g id="a_node8"><a xlink:href="classBPMN_1_1BoundaryEvent.html" target="_top" xlink:title="Represents a boundary event attached to an activity in a BPMN process.">
<polygon fill="none" stroke="black" points="155.5,-94.5 155.5,-173.5 281.5,-173.5 281.5,-94.5 155.5,-94.5"/>
<text text-anchor="middle" x="218.5" y="-161.5" font-family="Helvetica,sans-Serif" font-size="10.00">BPMN::BoundaryEvent</text>
<polyline fill="none" stroke="black" points="155.5,-154.5 281.5,-154.5 "/>
<text text-anchor="start" x="163.5" y="-142.5" font-family="Helvetica,sans-Serif" font-size="10.00">+ isInterrupting</text>
<text text-anchor="start" x="163.5" y="-131.5" font-family="Helvetica,sans-Serif" font-size="10.00">+ attachedTo</text>
<polyline fill="none" stroke="black" points="155.5,-124.5 281.5,-124.5 "/>
<text text-anchor="start" x="163.5" y="-112.5" font-family="Helvetica,sans-Serif" font-size="10.00">+ BoundaryEvent()</text>
<text text-anchor="start" x="163.5" y="-101.5" font-family="Helvetica,sans-Serif" font-size="10.00"># resolveReference()</text>
</a>
</g>
</g>
<!-- Node3&#45;&gt;Node8 -->
<g id="edge8" class="edge">
<title>Node3&#45;&gt;Node8</title>
<path fill="none" stroke="midnightblue" d="M169.6,-202.15C176.34,-192.9 183.62,-182.9 190.45,-173.52"/>
<polygon fill="none" stroke="midnightblue" points="166.66,-200.25 163.6,-210.4 172.31,-204.37 166.66,-200.25"/>
</g>
<!-- Node4 -->
<g id="node4" class="node">
<title>Node4</title>
<g id="a_node4"><a xlink:href="classBPMN_1_1Event.html" target="_top" xlink:title=" ">
<polygon fill="none" stroke="black" points="103.5,-304.5 103.5,-361.5 183.5,-361.5 183.5,-304.5 103.5,-304.5"/>
<text text-anchor="middle" x="143.5" y="-349.5" font-family="Helvetica,sans-Serif" font-size="10.00">BPMN::Event</text>
<polyline fill="none" stroke="black" points="103.5,-342.5 183.5,-342.5 "/>
<text text-anchor="start" x="111.5" y="-330.5" font-family="Helvetica,sans-Serif" font-size="10.00">+ element</text>
<polyline fill="none" stroke="black" points="103.5,-323.5 183.5,-323.5 "/>
<text text-anchor="start" x="111.5" y="-311.5" font-family="Helvetica,sans-Serif" font-size="10.00">+ Event()</text>
</a>
</g>
</g>
<!-- Node4&#45;&gt;Node3 -->
<g id="edge3" class="edge">
<title>Node4&#45;&gt;Node3</title>
<path fill="none" stroke="midnightblue" d="M143.5,-294.21C143.5,-285.29 143.5,-275.95 143.5,-267.58"/>
<polygon fill="none" stroke="midnightblue" points="140,-294.4 143.5,-304.4 147,-294.4 140,-294.4"/>
</g>
<!-- Node5 -->
<g id="node5" class="node">
<title>Node5</title>
<g id="a_node5"><a xlink:href="classBPMN_1_1FlowNode.html" target="_top" xlink:title="Represents a flow node in a BPMN process.">
<polygon fill="none" stroke="black" points="93,-398.5 93,-477.5 194,-477.5 194,-398.5 93,-398.5"/>
<text text-anchor="middle" x="143.5" y="-465.5" font-family="Helvetica,sans-Serif" font-size="10.00">BPMN::FlowNode</text>
<polyline fill="none" stroke="black" points="93,-458.5 194,-458.5 "/>
<text text-anchor="start" x="101" y="-446.5" font-family="Helvetica,sans-Serif" font-size="10.00">+ element</text>
<text text-anchor="start" x="101" y="-435.5" font-family="Helvetica,sans-Serif" font-size="10.00">+ incoming</text>
<text text-anchor="start" x="101" y="-424.5" font-family="Helvetica,sans-Serif" font-size="10.00">+ outgoing</text>
<polyline fill="none" stroke="black" points="93,-417.5 194,-417.5 "/>
<text text-anchor="start" x="101" y="-405.5" font-family="Helvetica,sans-Serif" font-size="10.00">+ FlowNode()</text>
</a>
</g>
</g>
<!-- Node5&#45;&gt;Node4 -->
<g id="edge4" class="edge">
<title>Node5&#45;&gt;Node4</title>
<path fill="none" stroke="midnightblue" d="M143.5,-388.16C143.5,-379.04 143.5,-369.81 143.5,-361.61"/>
<polygon fill="none" stroke="midnightblue" points="140,-388.35 143.5,-398.35 147,-388.35 140,-388.35"/>
</g>
<!-- Node6 -->
<g id="node6" class="node">
<title>Node6</title>
<g id="a_node6"><a xlink:href="classBPMN_1_1ChildNode.html" target="_top" xlink:title="Represents a node in a BPMN process that has a parent.">
<polygon fill="none" stroke="black" points="92.5,-514.5 92.5,-571.5 194.5,-571.5 194.5,-514.5 92.5,-514.5"/>
<text text-anchor="middle" x="143.5" y="-559.5" font-family="Helvetica,sans-Serif" font-size="10.00">BPMN::ChildNode</text>
<polyline fill="none" stroke="black" points="92.5,-552.5 194.5,-552.5 "/>
<text text-anchor="start" x="100.5" y="-540.5" font-family="Helvetica,sans-Serif" font-size="10.00">+ parent</text>
<polyline fill="none" stroke="black" points="92.5,-533.5 194.5,-533.5 "/>
<text text-anchor="start" x="100.5" y="-521.5" font-family="Helvetica,sans-Serif" font-size="10.00">+ ChildNode()</text>
</a>
</g>
</g>
<!-- Node6&#45;&gt;Node5 -->
<g id="edge5" class="edge">
<title>Node6&#45;&gt;Node5</title>
<path fill="none" stroke="midnightblue" d="M143.5,-504.16C143.5,-495.47 143.5,-486.23 143.5,-477.52"/>
<polygon fill="none" stroke="midnightblue" points="140,-504.4 143.5,-514.4 147,-504.4 140,-504.4"/>
</g>
<!-- Node7 -->
<g id="node7" class="node">
<title>Node7</title>
<g id="a_node7"><a xlink:href="classBPMN_1_1Node.html" target="_top" xlink:title="Represents a node in a BPMN process.">
<polygon fill="none" stroke="black" points="82.5,-608.5 82.5,-852.5 204.5,-852.5 204.5,-608.5 82.5,-608.5"/>
<text text-anchor="middle" x="143.5" y="-840.5" font-family="Helvetica,sans-Serif" font-size="10.00">BPMN::Node</text>
<polyline fill="none" stroke="black" points="82.5,-833.5 204.5,-833.5 "/>
<text text-anchor="start" x="90.5" y="-821.5" font-family="Helvetica,sans-Serif" font-size="10.00">+ id</text>
<text text-anchor="start" x="90.5" y="-810.5" font-family="Helvetica,sans-Serif" font-size="10.00">+ receiving</text>
<text text-anchor="start" x="90.5" y="-799.5" font-family="Helvetica,sans-Serif" font-size="10.00">+ sending</text>
<text text-anchor="start" x="90.5" y="-788.5" font-family="Helvetica,sans-Serif" font-size="10.00">+ element</text>
<text text-anchor="start" x="90.5" y="-777.5" font-family="Helvetica,sans-Serif" font-size="10.00">+ extensionElements</text>
<polyline fill="none" stroke="black" points="82.5,-770.5 204.5,-770.5 "/>
<text text-anchor="start" x="90.5" y="-758.5" font-family="Helvetica,sans-Serif" font-size="10.00">+ Node()</text>
<text text-anchor="start" x="90.5" y="-747.5" font-family="Helvetica,sans-Serif" font-size="10.00">+ ~Node()</text>
<text text-anchor="start" x="90.5" y="-736.5" font-family="Helvetica,sans-Serif" font-size="10.00">+ is()</text>
<text text-anchor="start" x="90.5" y="-725.5" font-family="Helvetica,sans-Serif" font-size="10.00">+ is()</text>
<text text-anchor="start" x="90.5" y="-714.5" font-family="Helvetica,sans-Serif" font-size="10.00">+ get()</text>
<text text-anchor="start" x="90.5" y="-703.5" font-family="Helvetica,sans-Serif" font-size="10.00">+ get()</text>
<text text-anchor="start" x="90.5" y="-692.5" font-family="Helvetica,sans-Serif" font-size="10.00">+ represents()</text>
<text text-anchor="start" x="90.5" y="-681.5" font-family="Helvetica,sans-Serif" font-size="10.00">+ represents()</text>
<text text-anchor="start" x="90.5" y="-670.5" font-family="Helvetica,sans-Serif" font-size="10.00">+ as()</text>
<text text-anchor="start" x="90.5" y="-659.5" font-family="Helvetica,sans-Serif" font-size="10.00">+ as()</text>
<text text-anchor="start" x="90.5" y="-648.5" font-family="Helvetica,sans-Serif" font-size="10.00">+ find()</text>
<text text-anchor="start" x="90.5" y="-637.5" font-family="Helvetica,sans-Serif" font-size="10.00">+ find()</text>
<text text-anchor="start" x="90.5" y="-626.5" font-family="Helvetica,sans-Serif" font-size="10.00">+ find_all()</text>
<text text-anchor="start" x="90.5" y="-615.5" font-family="Helvetica,sans-Serif" font-size="10.00">+ find_all()</text>
</a>
</g>
</g>
<!-- Node7&#45;&gt;Node6 -->
<g id="edge6" class="edge">
<title>Node7&#45;&gt;Node6</title>
<path fill="none" stroke="midnightblue" d="M143.5,-598.34C143.5,-588.53 143.5,-579.42 143.5,-571.57"/>
<polygon fill="none" stroke="midnightblue" points="140,-598.36 143.5,-608.36 147,-598.36 140,-598.36"/>
</g>
<!-- Node8&#45;&gt;Node1 -->
<g id="edge7" class="edge">
<title>Node8&#45;&gt;Node1</title>
<path fill="none" stroke="midnightblue" d="M184.44,-86.22C177.31,-76.44 170.02,-66.42 163.6,-57.61"/>
<polygon fill="none" stroke="midnightblue" points="181.64,-88.33 190.36,-94.35 187.3,-84.21 181.64,-88.33"/>
</g>
</g>
</svg>
