<?xml version="1.0" encoding="UTF-8" standalone="no"?>
<!DOCTYPE svg PUBLIC "-//W3C//DTD SVG 1.1//EN"
 "http://www.w3.org/Graphics/SVG/1.1/DTD/svg11.dtd">
<!-- Generated by graphviz version 2.43.0 (0)
 -->
<!-- Title: BPMN::MessageStartEvent Pages: 1 -->
<svg width="308pt" height="850pt"
 viewBox="0.00 0.00 308.00 850.00" xmlns="http://www.w3.org/2000/svg" xmlns:xlink="http://www.w3.org/1999/xlink">
<g id="graph0" class="graph" transform="scale(1 1) rotate(0) translate(4 846)">
<title>BPMN::MessageStartEvent</title>
<!-- Node1 -->
<g id="node1" class="node">
<title>Node1</title>
<g id="a_node1"><a xlink:title=" ">
<polygon fill="#bfbfbf" stroke="black" points="81.5,-0.5 81.5,-57.5 227.5,-57.5 227.5,-0.5 81.5,-0.5"/>
<text text-anchor="middle" x="154.5" y="-45.5" font-family="Helvetica,sans-Serif" font-size="10.00">BPMN::MessageStartEvent</text>
<polyline fill="none" stroke="black" points="81.5,-38.5 227.5,-38.5 "/>
<text text-anchor="start" x="89.5" y="-26.5" font-family="Helvetica,sans-Serif" font-size="10.00">+ element</text>
<polyline fill="none" stroke="black" points="81.5,-19.5 227.5,-19.5 "/>
<text text-anchor="start" x="89.5" y="-7.5" font-family="Helvetica,sans-Serif" font-size="10.00">+ MessageStartEvent()</text>
</a>
</g>
</g>
<!-- Node2 -->
<g id="node2" class="node">
<title>Node2</title>
<g id="a_node2"><a xlink:href="classBPMN_1_1MessageCatchEvent.html" target="_top" xlink:title=" ">
<polygon fill="none" stroke="black" points="0,-94.5 0,-151.5 151,-151.5 151,-94.5 0,-94.5"/>
<text text-anchor="middle" x="75.5" y="-139.5" font-family="Helvetica,sans-Serif" font-size="10.00">BPMN::MessageCatchEvent</text>
<polyline fill="none" stroke="black" points="0,-132.5 151,-132.5 "/>
<text text-anchor="start" x="8" y="-120.5" font-family="Helvetica,sans-Serif" font-size="10.00">+ element</text>
<polyline fill="none" stroke="black" points="0,-113.5 151,-113.5 "/>
<text text-anchor="start" x="8" y="-101.5" font-family="Helvetica,sans-Serif" font-size="10.00">+ MessageCatchEvent()</text>
</a>
</g>
</g>
<!-- Node2&#45;&gt;Node1 -->
<g id="edge1" class="edge">
<title>Node2&#45;&gt;Node1</title>
<path fill="none" stroke="midnightblue" d="M105.96,-86.52C114.21,-76.92 123,-66.68 130.81,-57.58"/>
<polygon fill="none" stroke="midnightblue" points="103.06,-84.53 99.2,-94.4 108.37,-89.09 103.06,-84.53"/>
</g>
<!-- Node3 -->
<g id="node3" class="node">
<title>Node3</title>
<g id="a_node3"><a xlink:href="classBPMN_1_1CatchEvent.html" target="_top" xlink:title=" ">
<polygon fill="none" stroke="black" points="101,-188.5 101,-245.5 208,-245.5 208,-188.5 101,-188.5"/>
<text text-anchor="middle" x="154.5" y="-233.5" font-family="Helvetica,sans-Serif" font-size="10.00">BPMN::CatchEvent</text>
<polyline fill="none" stroke="black" points="101,-226.5 208,-226.5 "/>
<text text-anchor="start" x="109" y="-214.5" font-family="Helvetica,sans-Serif" font-size="10.00">+ element</text>
<polyline fill="none" stroke="black" points="101,-207.5 208,-207.5 "/>
<text text-anchor="start" x="109" y="-195.5" font-family="Helvetica,sans-Serif" font-size="10.00">+ CatchEvent()</text>
</a>
</g>
</g>
<!-- Node3&#45;&gt;Node2 -->
<g id="edge2" class="edge">
<title>Node3&#45;&gt;Node2</title>
<path fill="none" stroke="midnightblue" d="M124.04,-180.52C115.79,-170.92 107,-160.68 99.19,-151.58"/>
<polygon fill="none" stroke="midnightblue" points="121.63,-183.09 130.8,-188.4 126.94,-178.53 121.63,-183.09"/>
</g>
<!-- Node8 -->
<g id="node8" class="node">
<title>Node8</title>
<g id="a_node8"><a xlink:href="classBPMN_1_1TypedStartEvent.html" target="_top" xlink:title="Base class for all start events with an event definition.">
<polygon fill="none" stroke="black" points="169,-94.5 169,-151.5 300,-151.5 300,-94.5 169,-94.5"/>
<text text-anchor="middle" x="234.5" y="-139.5" font-family="Helvetica,sans-Serif" font-size="10.00">BPMN::TypedStartEvent</text>
<polyline fill="none" stroke="black" points="169,-132.5 300,-132.5 "/>
<text text-anchor="start" x="177" y="-120.5" font-family="Helvetica,sans-Serif" font-size="10.00">+ isInterrupting</text>
<polyline fill="none" stroke="black" points="169,-113.5 300,-113.5 "/>
<text text-anchor="start" x="177" y="-101.5" font-family="Helvetica,sans-Serif" font-size="10.00">+ TypedStartEvent()</text>
</a>
</g>
</g>
<!-- Node3&#45;&gt;Node8 -->
<g id="edge8" class="edge">
<title>Node3&#45;&gt;Node8</title>
<path fill="none" stroke="midnightblue" d="M185.1,-180.81C193.52,-171.13 202.53,-160.77 210.51,-151.58"/>
<polygon fill="none" stroke="midnightblue" points="182.42,-178.55 178.5,-188.4 187.71,-183.15 182.42,-178.55"/>
</g>
<!-- Node4 -->
<g id="node4" class="node">
<title>Node4</title>
<g id="a_node4"><a xlink:href="classBPMN_1_1Event.html" target="_top" xlink:title=" ">
<polygon fill="none" stroke="black" points="114.5,-282.5 114.5,-339.5 194.5,-339.5 194.5,-282.5 114.5,-282.5"/>
<text text-anchor="middle" x="154.5" y="-327.5" font-family="Helvetica,sans-Serif" font-size="10.00">BPMN::Event</text>
<polyline fill="none" stroke="black" points="114.5,-320.5 194.5,-320.5 "/>
<text text-anchor="start" x="122.5" y="-308.5" font-family="Helvetica,sans-Serif" font-size="10.00">+ element</text>
<polyline fill="none" stroke="black" points="114.5,-301.5 194.5,-301.5 "/>
<text text-anchor="start" x="122.5" y="-289.5" font-family="Helvetica,sans-Serif" font-size="10.00">+ Event()</text>
</a>
</g>
</g>
<!-- Node4&#45;&gt;Node3 -->
<g id="edge3" class="edge">
<title>Node4&#45;&gt;Node3</title>
<path fill="none" stroke="midnightblue" d="M154.5,-272.21C154.5,-263.29 154.5,-253.95 154.5,-245.58"/>
<polygon fill="none" stroke="midnightblue" points="151,-272.4 154.5,-282.4 158,-272.4 151,-272.4"/>
</g>
<!-- Node5 -->
<g id="node5" class="node">
<title>Node5</title>
<g id="a_node5"><a xlink:href="classBPMN_1_1FlowNode.html" target="_top" xlink:title="Base class for BPMN elements that may contain incoming and outgoing SequenceFlow elements.">
<polygon fill="none" stroke="black" points="104,-376.5 104,-466.5 205,-466.5 205,-376.5 104,-376.5"/>
<text text-anchor="middle" x="154.5" y="-454.5" font-family="Helvetica,sans-Serif" font-size="10.00">BPMN::FlowNode</text>
<polyline fill="none" stroke="black" points="104,-447.5 205,-447.5 "/>
<text text-anchor="start" x="112" y="-435.5" font-family="Helvetica,sans-Serif" font-size="10.00">+ element</text>
<text text-anchor="start" x="112" y="-424.5" font-family="Helvetica,sans-Serif" font-size="10.00">+ name</text>
<text text-anchor="start" x="112" y="-413.5" font-family="Helvetica,sans-Serif" font-size="10.00">+ incoming</text>
<text text-anchor="start" x="112" y="-402.5" font-family="Helvetica,sans-Serif" font-size="10.00">+ outgoing</text>
<polyline fill="none" stroke="black" points="104,-395.5 205,-395.5 "/>
<text text-anchor="start" x="112" y="-383.5" font-family="Helvetica,sans-Serif" font-size="10.00">+ FlowNode()</text>
</a>
</g>
</g>
<!-- Node5&#45;&gt;Node4 -->
<g id="edge4" class="edge">
<title>Node5&#45;&gt;Node4</title>
<path fill="none" stroke="midnightblue" d="M154.5,-366.35C154.5,-357.07 154.5,-347.79 154.5,-339.59"/>
<polygon fill="none" stroke="midnightblue" points="151,-366.37 154.5,-376.37 158,-366.37 151,-366.37"/>
</g>
<!-- Node6 -->
<g id="node6" class="node">
<title>Node6</title>
<g id="a_node6"><a xlink:href="classBPMN_1_1ChildNode.html" target="_top" xlink:title="Base class for BPMN elements within a Scope.">
<polygon fill="none" stroke="black" points="103.5,-503.5 103.5,-560.5 205.5,-560.5 205.5,-503.5 103.5,-503.5"/>
<text text-anchor="middle" x="154.5" y="-548.5" font-family="Helvetica,sans-Serif" font-size="10.00">BPMN::ChildNode</text>
<polyline fill="none" stroke="black" points="103.5,-541.5 205.5,-541.5 "/>
<text text-anchor="start" x="111.5" y="-529.5" font-family="Helvetica,sans-Serif" font-size="10.00">+ parent</text>
<polyline fill="none" stroke="black" points="103.5,-522.5 205.5,-522.5 "/>
<text text-anchor="start" x="111.5" y="-510.5" font-family="Helvetica,sans-Serif" font-size="10.00">+ ChildNode()</text>
</a>
</g>
</g>
<!-- Node6&#45;&gt;Node5 -->
<g id="edge5" class="edge">
<title>Node6&#45;&gt;Node5</title>
<path fill="none" stroke="midnightblue" d="M154.5,-493.21C154.5,-484.61 154.5,-475.39 154.5,-466.55"/>
<polygon fill="none" stroke="midnightblue" points="151,-493.34 154.5,-503.34 158,-493.34 151,-493.34"/>
</g>
<!-- Node7 -->
<g id="node7" class="node">
<title>Node7</title>
<g id="a_node7"><a xlink:href="classBPMN_1_1Node.html" target="_top" xlink:title="Base class for all elements in a BPMN model.">
<polygon fill="none" stroke="black" points="93.5,-597.5 93.5,-841.5 215.5,-841.5 215.5,-597.5 93.5,-597.5"/>
<text text-anchor="middle" x="154.5" y="-829.5" font-family="Helvetica,sans-Serif" font-size="10.00">BPMN::Node</text>
<polyline fill="none" stroke="black" points="93.5,-822.5 215.5,-822.5 "/>
<text text-anchor="start" x="101.5" y="-810.5" font-family="Helvetica,sans-Serif" font-size="10.00">+ id</text>
<text text-anchor="start" x="101.5" y="-799.5" font-family="Helvetica,sans-Serif" font-size="10.00">+ receiving</text>
<text text-anchor="start" x="101.5" y="-788.5" font-family="Helvetica,sans-Serif" font-size="10.00">+ sending</text>
<text text-anchor="start" x="101.5" y="-777.5" font-family="Helvetica,sans-Serif" font-size="10.00">+ element</text>
<text text-anchor="start" x="101.5" y="-766.5" font-family="Helvetica,sans-Serif" font-size="10.00">+ extensionElements</text>
<polyline fill="none" stroke="black" points="93.5,-759.5 215.5,-759.5 "/>
<text text-anchor="start" x="101.5" y="-747.5" font-family="Helvetica,sans-Serif" font-size="10.00">+ Node()</text>
<text text-anchor="start" x="101.5" y="-736.5" font-family="Helvetica,sans-Serif" font-size="10.00">+ ~Node()</text>
<text text-anchor="start" x="101.5" y="-725.5" font-family="Helvetica,sans-Serif" font-size="10.00">+ is()</text>
<text text-anchor="start" x="101.5" y="-714.5" font-family="Helvetica,sans-Serif" font-size="10.00">+ is()</text>
<text text-anchor="start" x="101.5" y="-703.5" font-family="Helvetica,sans-Serif" font-size="10.00">+ get()</text>
<text text-anchor="start" x="101.5" y="-692.5" font-family="Helvetica,sans-Serif" font-size="10.00">+ get()</text>
<text text-anchor="start" x="101.5" y="-681.5" font-family="Helvetica,sans-Serif" font-size="10.00">+ represents()</text>
<text text-anchor="start" x="101.5" y="-670.5" font-family="Helvetica,sans-Serif" font-size="10.00">+ represents()</text>
<text text-anchor="start" x="101.5" y="-659.5" font-family="Helvetica,sans-Serif" font-size="10.00">+ as()</text>
<text text-anchor="start" x="101.5" y="-648.5" font-family="Helvetica,sans-Serif" font-size="10.00">+ as()</text>
<text text-anchor="start" x="101.5" y="-637.5" font-family="Helvetica,sans-Serif" font-size="10.00">+ find()</text>
<text text-anchor="start" x="101.5" y="-626.5" font-family="Helvetica,sans-Serif" font-size="10.00">+ find()</text>
<text text-anchor="start" x="101.5" y="-615.5" font-family="Helvetica,sans-Serif" font-size="10.00">+ find_all()</text>
<text text-anchor="start" x="101.5" y="-604.5" font-family="Helvetica,sans-Serif" font-size="10.00">+ find_all()</text>
</a>
</g>
</g>
<!-- Node7&#45;&gt;Node6 -->
<g id="edge6" class="edge">
<title>Node7&#45;&gt;Node6</title>
<path fill="none" stroke="midnightblue" d="M154.5,-587.34C154.5,-577.53 154.5,-568.42 154.5,-560.57"/>
<polygon fill="none" stroke="midnightblue" points="151,-587.36 154.5,-597.36 158,-587.36 151,-587.36"/>
</g>
<!-- Node8&#45;&gt;Node1 -->
<g id="edge7" class="edge">
<title>Node8&#45;&gt;Node1</title>
<path fill="none" stroke="midnightblue" d="M203.9,-86.81C195.48,-77.13 186.47,-66.77 178.49,-57.58"/>
<polygon fill="none" stroke="midnightblue" points="201.29,-89.15 210.5,-94.4 206.58,-84.55 201.29,-89.15"/>
</g>
</g>
</svg>
