<?xml version="1.0" encoding="UTF-8" standalone="no"?>
<!DOCTYPE svg PUBLIC "-//W3C//DTD SVG 1.1//EN"
 "http://www.w3.org/Graphics/SVG/1.1/DTD/svg11.dtd">
<!-- Generated by graphviz version 2.43.0 (0)
 -->
<!-- Title: XML::bpmn::tTransaction Pages: 1 -->
<svg width="154pt" height="1241pt"
 viewBox="0.00 0.00 154.00 1241.00" xmlns="http://www.w3.org/2000/svg" xmlns:xlink="http://www.w3.org/1999/xlink">
<g id="graph0" class="graph" transform="scale(1 1) rotate(0) translate(4 1237)">
<title>XML::bpmn::tTransaction</title>
<!-- Node1 -->
<g id="node1" class="node">
<title>Node1</title>
<g id="a_node1"><a xlink:title=" ">
<polygon fill="#bfbfbf" stroke="black" points="4.5,-94.5 4.5,-162.5 141.5,-162.5 141.5,-94.5 4.5,-94.5"/>
<text text-anchor="middle" x="73" y="-150.5" font-family="Helvetica,sans-Serif" font-size="10.00">XML::bpmn::tTransaction</text>
<polyline fill="none" stroke="black" points="4.5,-143.5 141.5,-143.5 "/>
<text text-anchor="start" x="12.5" y="-131.5" font-family="Helvetica,sans-Serif" font-size="10.00">+ method</text>
<text text-anchor="start" x="12.5" y="-120.5" font-family="Helvetica,sans-Serif" font-size="10.00">+ defaults</text>
<polyline fill="none" stroke="black" points="4.5,-113.5 141.5,-113.5 "/>
<text text-anchor="start" x="12.5" y="-101.5" font-family="Helvetica,sans-Serif" font-size="10.00"># tTransaction()</text>
</a>
</g>
</g>
<!-- Node8 -->
<g id="node8" class="node">
<title>Node8</title>
<g id="a_node8"><a xlink:href="classXML_1_1bpmn_1_1transaction.html" target="_top" xlink:title=" ">
<polygon fill="none" stroke="black" points="7,-0.5 7,-57.5 139,-57.5 139,-0.5 7,-0.5"/>
<text text-anchor="middle" x="73" y="-45.5" font-family="Helvetica,sans-Serif" font-size="10.00">XML::bpmn::transaction</text>
<polyline fill="none" stroke="black" points="7,-38.5 139,-38.5 "/>
<text text-anchor="start" x="15" y="-26.5" font-family="Helvetica,sans-Serif" font-size="10.00">+ defaults</text>
<polyline fill="none" stroke="black" points="7,-19.5 139,-19.5 "/>
<text text-anchor="start" x="15" y="-7.5" font-family="Helvetica,sans-Serif" font-size="10.00"># transaction()</text>
</a>
</g>
</g>
<!-- Node1&#45;&gt;Node8 -->
<g id="edge7" class="edge">
<title>Node1&#45;&gt;Node8</title>
<path fill="none" stroke="midnightblue" d="M73,-84.45C73,-75.4 73,-66.09 73,-57.78"/>
<polygon fill="none" stroke="midnightblue" points="69.5,-84.49 73,-94.49 76.5,-84.49 69.5,-84.49"/>
</g>
<!-- Node2 -->
<g id="node2" class="node">
<title>Node2</title>
<g id="a_node2"><a xlink:href="classXML_1_1bpmn_1_1tSubProcess.html" target="_top" xlink:title=" ">
<polygon fill="none" stroke="black" points="4.5,-199.5 4.5,-300.5 141.5,-300.5 141.5,-199.5 4.5,-199.5"/>
<text text-anchor="middle" x="73" y="-288.5" font-family="Helvetica,sans-Serif" font-size="10.00">XML::bpmn::tSubProcess</text>
<polyline fill="none" stroke="black" points="4.5,-281.5 141.5,-281.5 "/>
<text text-anchor="start" x="12.5" y="-269.5" font-family="Helvetica,sans-Serif" font-size="10.00">+ laneSet</text>
<text text-anchor="start" x="12.5" y="-258.5" font-family="Helvetica,sans-Serif" font-size="10.00">+ flowElement</text>
<text text-anchor="start" x="12.5" y="-247.5" font-family="Helvetica,sans-Serif" font-size="10.00">+ artifact</text>
<text text-anchor="start" x="12.5" y="-236.5" font-family="Helvetica,sans-Serif" font-size="10.00">+ triggeredByEvent</text>
<text text-anchor="start" x="12.5" y="-225.5" font-family="Helvetica,sans-Serif" font-size="10.00">+ defaults</text>
<polyline fill="none" stroke="black" points="4.5,-218.5 141.5,-218.5 "/>
<text text-anchor="start" x="12.5" y="-206.5" font-family="Helvetica,sans-Serif" font-size="10.00"># tSubProcess()</text>
</a>
</g>
</g>
<!-- Node2&#45;&gt;Node1 -->
<g id="edge1" class="edge">
<title>Node2&#45;&gt;Node1</title>
<path fill="none" stroke="midnightblue" d="M73,-189.17C73,-180.11 73,-171.05 73,-162.83"/>
<polygon fill="none" stroke="midnightblue" points="69.5,-189.36 73,-199.36 76.5,-189.36 69.5,-189.36"/>
</g>
<!-- Node3 -->
<g id="node3" class="node">
<title>Node3</title>
<g id="a_node3"><a xlink:href="classXML_1_1bpmn_1_1tActivity.html" target="_top" xlink:title=" ">
<polygon fill="none" stroke="black" points="3.5,-337.5 3.5,-504.5 142.5,-504.5 142.5,-337.5 3.5,-337.5"/>
<text text-anchor="middle" x="73" y="-492.5" font-family="Helvetica,sans-Serif" font-size="10.00">XML::bpmn::tActivity</text>
<polyline fill="none" stroke="black" points="3.5,-485.5 142.5,-485.5 "/>
<text text-anchor="start" x="11.5" y="-473.5" font-family="Helvetica,sans-Serif" font-size="10.00">+ ioSpecification</text>
<text text-anchor="start" x="11.5" y="-462.5" font-family="Helvetica,sans-Serif" font-size="10.00">+ property</text>
<text text-anchor="start" x="11.5" y="-451.5" font-family="Helvetica,sans-Serif" font-size="10.00">+ dataInputAssociation</text>
<text text-anchor="start" x="11.5" y="-440.5" font-family="Helvetica,sans-Serif" font-size="10.00">+ dataOutputAssociation</text>
<text text-anchor="start" x="11.5" y="-429.5" font-family="Helvetica,sans-Serif" font-size="10.00">+ resourceRole</text>
<text text-anchor="start" x="11.5" y="-418.5" font-family="Helvetica,sans-Serif" font-size="10.00">+ loopCharacteristics</text>
<text text-anchor="start" x="11.5" y="-407.5" font-family="Helvetica,sans-Serif" font-size="10.00">+ isForCompensation</text>
<text text-anchor="start" x="11.5" y="-396.5" font-family="Helvetica,sans-Serif" font-size="10.00">+ startQuantity</text>
<text text-anchor="start" x="11.5" y="-385.5" font-family="Helvetica,sans-Serif" font-size="10.00">+ completionQuantity</text>
<text text-anchor="start" x="11.5" y="-374.5" font-family="Helvetica,sans-Serif" font-size="10.00">+ default_</text>
<text text-anchor="start" x="11.5" y="-363.5" font-family="Helvetica,sans-Serif" font-size="10.00">+ defaults</text>
<polyline fill="none" stroke="black" points="3.5,-356.5 142.5,-356.5 "/>
<text text-anchor="start" x="11.5" y="-344.5" font-family="Helvetica,sans-Serif" font-size="10.00"># tActivity()</text>
</a>
</g>
</g>
<!-- Node3&#45;&gt;Node2 -->
<g id="edge2" class="edge">
<title>Node3&#45;&gt;Node2</title>
<path fill="none" stroke="midnightblue" d="M73,-327.47C73,-318.28 73,-309.21 73,-300.71"/>
<polygon fill="none" stroke="midnightblue" points="69.5,-327.48 73,-337.48 76.5,-327.48 69.5,-327.48"/>
</g>
<!-- Node4 -->
<g id="node4" class="node">
<title>Node4</title>
<g id="a_node4"><a xlink:href="classXML_1_1bpmn_1_1tFlowNode.html" target="_top" xlink:title=" ">
<polygon fill="none" stroke="black" points="8,-541.5 8,-620.5 138,-620.5 138,-541.5 8,-541.5"/>
<text text-anchor="middle" x="73" y="-608.5" font-family="Helvetica,sans-Serif" font-size="10.00">XML::bpmn::tFlowNode</text>
<polyline fill="none" stroke="black" points="8,-601.5 138,-601.5 "/>
<text text-anchor="start" x="16" y="-589.5" font-family="Helvetica,sans-Serif" font-size="10.00">+ incoming</text>
<text text-anchor="start" x="16" y="-578.5" font-family="Helvetica,sans-Serif" font-size="10.00">+ outgoing</text>
<text text-anchor="start" x="16" y="-567.5" font-family="Helvetica,sans-Serif" font-size="10.00">+ defaults</text>
<polyline fill="none" stroke="black" points="8,-560.5 138,-560.5 "/>
<text text-anchor="start" x="16" y="-548.5" font-family="Helvetica,sans-Serif" font-size="10.00"># tFlowNode()</text>
</a>
</g>
</g>
<!-- Node4&#45;&gt;Node3 -->
<g id="edge3" class="edge">
<title>Node4&#45;&gt;Node3</title>
<path fill="none" stroke="midnightblue" d="M73,-531.26C73,-522.74 73,-513.67 73,-504.53"/>
<polygon fill="none" stroke="midnightblue" points="69.5,-531.35 73,-541.35 76.5,-531.35 69.5,-531.35"/>
</g>
<!-- Node5 -->
<g id="node5" class="node">
<title>Node5</title>
<g id="a_node5"><a xlink:href="classXML_1_1bpmn_1_1tFlowElement.html" target="_top" xlink:title=" ">
<polygon fill="none" stroke="black" points="0.5,-657.5 0.5,-758.5 145.5,-758.5 145.5,-657.5 0.5,-657.5"/>
<text text-anchor="middle" x="73" y="-746.5" font-family="Helvetica,sans-Serif" font-size="10.00">XML::bpmn::tFlowElement</text>
<polyline fill="none" stroke="black" points="0.5,-739.5 145.5,-739.5 "/>
<text text-anchor="start" x="8.5" y="-727.5" font-family="Helvetica,sans-Serif" font-size="10.00">+ auditing</text>
<text text-anchor="start" x="8.5" y="-716.5" font-family="Helvetica,sans-Serif" font-size="10.00">+ monitoring</text>
<text text-anchor="start" x="8.5" y="-705.5" font-family="Helvetica,sans-Serif" font-size="10.00">+ categoryValueRef</text>
<text text-anchor="start" x="8.5" y="-694.5" font-family="Helvetica,sans-Serif" font-size="10.00">+ name</text>
<text text-anchor="start" x="8.5" y="-683.5" font-family="Helvetica,sans-Serif" font-size="10.00">+ defaults</text>
<polyline fill="none" stroke="black" points="0.5,-676.5 145.5,-676.5 "/>
<text text-anchor="start" x="8.5" y="-664.5" font-family="Helvetica,sans-Serif" font-size="10.00"># tFlowElement()</text>
</a>
</g>
</g>
<!-- Node5&#45;&gt;Node4 -->
<g id="edge4" class="edge">
<title>Node5&#45;&gt;Node4</title>
<path fill="none" stroke="midnightblue" d="M73,-647.19C73,-638.22 73,-629.18 73,-620.81"/>
<polygon fill="none" stroke="midnightblue" points="69.5,-647.24 73,-657.24 76.5,-647.24 69.5,-647.24"/>
</g>
<!-- Node6 -->
<g id="node6" class="node">
<title>Node6</title>
<g id="a_node6"><a xlink:href="classXML_1_1bpmn_1_1tBaseElement.html" target="_top" xlink:title=" ">
<polygon fill="none" stroke="black" points="0,-795.5 0,-885.5 146,-885.5 146,-795.5 0,-795.5"/>
<text text-anchor="middle" x="73" y="-873.5" font-family="Helvetica,sans-Serif" font-size="10.00">XML::bpmn::tBaseElement</text>
<polyline fill="none" stroke="black" points="0,-866.5 146,-866.5 "/>
<text text-anchor="start" x="8" y="-854.5" font-family="Helvetica,sans-Serif" font-size="10.00">+ documentation</text>
<text text-anchor="start" x="8" y="-843.5" font-family="Helvetica,sans-Serif" font-size="10.00">+ extensionElements</text>
<text text-anchor="start" x="8" y="-832.5" font-family="Helvetica,sans-Serif" font-size="10.00">+ id</text>
<text text-anchor="start" x="8" y="-821.5" font-family="Helvetica,sans-Serif" font-size="10.00">+ defaults</text>
<polyline fill="none" stroke="black" points="0,-814.5 146,-814.5 "/>
<text text-anchor="start" x="8" y="-802.5" font-family="Helvetica,sans-Serif" font-size="10.00"># tBaseElement()</text>
</a>
</g>
</g>
<!-- Node6&#45;&gt;Node5 -->
<g id="edge5" class="edge">
<title>Node6&#45;&gt;Node5</title>
<path fill="none" stroke="midnightblue" d="M73,-785.13C73,-776.31 73,-767.22 73,-758.52"/>
<polygon fill="none" stroke="midnightblue" points="69.5,-785.32 73,-795.32 76.5,-785.32 69.5,-785.32"/>
</g>
<!-- Node7 -->
<g id="node7" class="node">
<title>Node7</title>
<g id="a_node7"><a xlink:href="classXML_1_1XMLObject.html" target="_top" xlink:title="A class representing a node in an XML&#45;tree.">
<polygon fill="none" stroke="black" points="10,-922.5 10,-1232.5 136,-1232.5 136,-922.5 10,-922.5"/>
<text text-anchor="middle" x="73" y="-1220.5" font-family="Helvetica,sans-Serif" font-size="10.00">XML::XMLObject</text>
<polyline fill="none" stroke="black" points="10,-1213.5 136,-1213.5 "/>
<text text-anchor="start" x="18" y="-1201.5" font-family="Helvetica,sans-Serif" font-size="10.00">+ xmlns</text>
<text text-anchor="start" x="18" y="-1190.5" font-family="Helvetica,sans-Serif" font-size="10.00">+ className</text>
<text text-anchor="start" x="18" y="-1179.5" font-family="Helvetica,sans-Serif" font-size="10.00">+ prefix</text>
<text text-anchor="start" x="18" y="-1168.5" font-family="Helvetica,sans-Serif" font-size="10.00">+ elementName</text>
<text text-anchor="start" x="18" y="-1157.5" font-family="Helvetica,sans-Serif" font-size="10.00">+ textContent</text>
<text text-anchor="start" x="18" y="-1146.5" font-family="Helvetica,sans-Serif" font-size="10.00">+ children</text>
<text text-anchor="start" x="18" y="-1135.5" font-family="Helvetica,sans-Serif" font-size="10.00">+ attributes</text>
<text text-anchor="start" x="18" y="-1124.5" font-family="Helvetica,sans-Serif" font-size="10.00">+ defaults</text>
<text text-anchor="start" x="18" y="-1113.5" font-family="Helvetica,sans-Serif" font-size="10.00"># factory</text>
<polyline fill="none" stroke="black" points="10,-1106.5 136,-1106.5 "/>
<text text-anchor="start" x="18" y="-1094.5" font-family="Helvetica,sans-Serif" font-size="10.00">+ ~XMLObject()</text>
<text text-anchor="start" x="18" y="-1083.5" font-family="Helvetica,sans-Serif" font-size="10.00">+ is()</text>
<text text-anchor="start" x="18" y="-1072.5" font-family="Helvetica,sans-Serif" font-size="10.00">+ is()</text>
<text text-anchor="start" x="18" y="-1061.5" font-family="Helvetica,sans-Serif" font-size="10.00">+ get()</text>
<text text-anchor="start" x="18" y="-1050.5" font-family="Helvetica,sans-Serif" font-size="10.00">+ get()</text>
<text text-anchor="start" x="18" y="-1039.5" font-family="Helvetica,sans-Serif" font-size="10.00">+ find()</text>
<text text-anchor="start" x="18" y="-1028.5" font-family="Helvetica,sans-Serif" font-size="10.00">+ find()</text>
<text text-anchor="start" x="18" y="-1017.5" font-family="Helvetica,sans-Serif" font-size="10.00">+ stringify()</text>
<text text-anchor="start" x="18" y="-1006.5" font-family="Helvetica,sans-Serif" font-size="10.00">+ getRequiredChild()</text>
<text text-anchor="start" x="18" y="-995.5" font-family="Helvetica,sans-Serif" font-size="10.00">+ getOptionalChild()</text>
<text text-anchor="start" x="18" y="-984.5" font-family="Helvetica,sans-Serif" font-size="10.00">and 6 more...</text>
<text text-anchor="start" x="18" y="-973.5" font-family="Helvetica,sans-Serif" font-size="10.00">+ createFromStream()</text>
<text text-anchor="start" x="18" y="-962.5" font-family="Helvetica,sans-Serif" font-size="10.00">+ createFromString()</text>
<text text-anchor="start" x="18" y="-951.5" font-family="Helvetica,sans-Serif" font-size="10.00">+ createFromFile()</text>
<text text-anchor="start" x="18" y="-940.5" font-family="Helvetica,sans-Serif" font-size="10.00"># XMLObject()</text>
<text text-anchor="start" x="18" y="-929.5" font-family="Helvetica,sans-Serif" font-size="10.00"># createObject()</text>
</a>
</g>
</g>
<!-- Node7&#45;&gt;Node6 -->
<g id="edge6" class="edge">
<title>Node7&#45;&gt;Node6</title>
<path fill="none" stroke="midnightblue" d="M73,-912.35C73,-902.89 73,-893.91 73,-885.72"/>
<polygon fill="none" stroke="midnightblue" points="69.5,-912.37 73,-922.37 76.5,-912.37 69.5,-912.37"/>
</g>
</g>
</svg>
