<?xml version="1.0" encoding="UTF-8" standalone="no"?>
<!DOCTYPE svg PUBLIC "-//W3C//DTD SVG 1.1//EN"
 "http://www.w3.org/Graphics/SVG/1.1/DTD/svg11.dtd">
<!-- Generated by graphviz version 2.43.0 (0)
 -->
<!-- Title: XML::bpmn::tTask Pages: 1 -->
<svg width="1089pt" height="1230pt"
 viewBox="0.00 0.00 1088.50 1230.00" xmlns="http://www.w3.org/2000/svg" xmlns:xlink="http://www.w3.org/1999/xlink">
<g id="graph0" class="graph" transform="scale(1 1) rotate(0) translate(4 1226)">
<title>XML::bpmn::tTask</title>
<!-- Node1 -->
<g id="node1" class="node">
<title>Node1</title>
<g id="a_node1"><a xlink:title=" ">
<polygon fill="#bfbfbf" stroke="black" points="518.5,-232.5 518.5,-289.5 621.5,-289.5 621.5,-232.5 518.5,-232.5"/>
<text text-anchor="middle" x="570" y="-277.5" font-family="Helvetica,sans-Serif" font-size="10.00">XML::bpmn::tTask</text>
<polyline fill="none" stroke="black" points="518.5,-270.5 621.5,-270.5 "/>
<text text-anchor="start" x="526.5" y="-258.5" font-family="Helvetica,sans-Serif" font-size="10.00">+ defaults</text>
<polyline fill="none" stroke="black" points="518.5,-251.5 621.5,-251.5 "/>
<text text-anchor="start" x="526.5" y="-239.5" font-family="Helvetica,sans-Serif" font-size="10.00"># tTask()</text>
</a>
</g>
</g>
<!-- Node7 -->
<g id="node7" class="node">
<title>Node7</title>
<g id="a_node7"><a xlink:href="classXML_1_1bpmn_1_1tBusinessRuleTask.html" target="_top" xlink:title=" ">
<polygon fill="none" stroke="black" points="0,-111 0,-179 168,-179 168,-111 0,-111"/>
<text text-anchor="middle" x="84" y="-167" font-family="Helvetica,sans-Serif" font-size="10.00">XML::bpmn::tBusinessRuleTask</text>
<polyline fill="none" stroke="black" points="0,-160 168,-160 "/>
<text text-anchor="start" x="8" y="-148" font-family="Helvetica,sans-Serif" font-size="10.00">+ implementation</text>
<text text-anchor="start" x="8" y="-137" font-family="Helvetica,sans-Serif" font-size="10.00">+ defaults</text>
<polyline fill="none" stroke="black" points="0,-130 168,-130 "/>
<text text-anchor="start" x="8" y="-118" font-family="Helvetica,sans-Serif" font-size="10.00"># tBusinessRuleTask()</text>
</a>
</g>
</g>
<!-- Node1&#45;&gt;Node7 -->
<g id="edge6" class="edge">
<title>Node1&#45;&gt;Node7</title>
<path fill="none" stroke="midnightblue" d="M508.22,-256.28C429.49,-250.12 290.07,-234.4 177,-196 163.98,-191.58 150.61,-185.46 138.21,-179.01"/>
<polygon fill="none" stroke="midnightblue" points="508.21,-259.79 518.44,-257.05 508.74,-252.81 508.21,-259.79"/>
</g>
<!-- Node9 -->
<g id="node9" class="node">
<title>Node9</title>
<g id="a_node9"><a xlink:href="classXML_1_1bpmn_1_1tManualTask.html" target="_top" xlink:title=" ">
<polygon fill="none" stroke="black" points="186.5,-116.5 186.5,-173.5 325.5,-173.5 325.5,-116.5 186.5,-116.5"/>
<text text-anchor="middle" x="256" y="-161.5" font-family="Helvetica,sans-Serif" font-size="10.00">XML::bpmn::tManualTask</text>
<polyline fill="none" stroke="black" points="186.5,-154.5 325.5,-154.5 "/>
<text text-anchor="start" x="194.5" y="-142.5" font-family="Helvetica,sans-Serif" font-size="10.00">+ defaults</text>
<polyline fill="none" stroke="black" points="186.5,-135.5 325.5,-135.5 "/>
<text text-anchor="start" x="194.5" y="-123.5" font-family="Helvetica,sans-Serif" font-size="10.00"># tManualTask()</text>
</a>
</g>
</g>
<!-- Node1&#45;&gt;Node9 -->
<g id="edge8" class="edge">
<title>Node1&#45;&gt;Node9</title>
<path fill="none" stroke="midnightblue" d="M508.05,-248.42C459.65,-238.13 391.35,-220.83 335,-196 321.19,-189.91 306.98,-181.65 294.5,-173.59"/>
<polygon fill="none" stroke="midnightblue" points="507.57,-251.89 518.07,-250.51 509,-245.04 507.57,-251.89"/>
</g>
<!-- Node11 -->
<g id="node11" class="node">
<title>Node11</title>
<g id="a_node11"><a xlink:href="classXML_1_1bpmn_1_1tReceiveTask.html" target="_top" xlink:title=" ">
<polygon fill="none" stroke="black" points="344,-94.5 344,-195.5 486,-195.5 486,-94.5 344,-94.5"/>
<text text-anchor="middle" x="415" y="-183.5" font-family="Helvetica,sans-Serif" font-size="10.00">XML::bpmn::tReceiveTask</text>
<polyline fill="none" stroke="black" points="344,-176.5 486,-176.5 "/>
<text text-anchor="start" x="352" y="-164.5" font-family="Helvetica,sans-Serif" font-size="10.00">+ implementation</text>
<text text-anchor="start" x="352" y="-153.5" font-family="Helvetica,sans-Serif" font-size="10.00">+ instantiate</text>
<text text-anchor="start" x="352" y="-142.5" font-family="Helvetica,sans-Serif" font-size="10.00">+ messageRef</text>
<text text-anchor="start" x="352" y="-131.5" font-family="Helvetica,sans-Serif" font-size="10.00">+ operationRef</text>
<text text-anchor="start" x="352" y="-120.5" font-family="Helvetica,sans-Serif" font-size="10.00">+ defaults</text>
<polyline fill="none" stroke="black" points="344,-113.5 486,-113.5 "/>
<text text-anchor="start" x="352" y="-101.5" font-family="Helvetica,sans-Serif" font-size="10.00"># tReceiveTask()</text>
</a>
</g>
</g>
<!-- Node1&#45;&gt;Node11 -->
<g id="edge10" class="edge">
<title>Node1&#45;&gt;Node11</title>
<path fill="none" stroke="midnightblue" d="M524.12,-226.25C511.04,-216.64 496.52,-205.96 482.45,-195.61"/>
<polygon fill="none" stroke="midnightblue" points="522.35,-229.3 532.48,-232.4 526.5,-223.66 522.35,-229.3"/>
</g>
<!-- Node13 -->
<g id="node13" class="node">
<title>Node13</title>
<g id="a_node13"><a xlink:href="classXML_1_1bpmn_1_1tScriptTask.html" target="_top" xlink:title=" ">
<polygon fill="none" stroke="black" points="504.5,-105.5 504.5,-184.5 635.5,-184.5 635.5,-105.5 504.5,-105.5"/>
<text text-anchor="middle" x="570" y="-172.5" font-family="Helvetica,sans-Serif" font-size="10.00">XML::bpmn::tScriptTask</text>
<polyline fill="none" stroke="black" points="504.5,-165.5 635.5,-165.5 "/>
<text text-anchor="start" x="512.5" y="-153.5" font-family="Helvetica,sans-Serif" font-size="10.00">+ script</text>
<text text-anchor="start" x="512.5" y="-142.5" font-family="Helvetica,sans-Serif" font-size="10.00">+ scriptFormat</text>
<text text-anchor="start" x="512.5" y="-131.5" font-family="Helvetica,sans-Serif" font-size="10.00">+ defaults</text>
<polyline fill="none" stroke="black" points="504.5,-124.5 635.5,-124.5 "/>
<text text-anchor="start" x="512.5" y="-112.5" font-family="Helvetica,sans-Serif" font-size="10.00"># tScriptTask()</text>
</a>
</g>
</g>
<!-- Node1&#45;&gt;Node13 -->
<g id="edge12" class="edge">
<title>Node1&#45;&gt;Node13</title>
<path fill="none" stroke="midnightblue" d="M570,-222.18C570,-210.08 570,-196.68 570,-184.54"/>
<polygon fill="none" stroke="midnightblue" points="566.5,-222.4 570,-232.4 573.5,-222.4 566.5,-222.4"/>
</g>
<!-- Node15 -->
<g id="node15" class="node">
<title>Node15</title>
<g id="a_node15"><a xlink:href="classXML_1_1bpmn_1_1tSendTask.html" target="_top" xlink:title=" ">
<polygon fill="none" stroke="black" points="653.5,-100 653.5,-190 780.5,-190 780.5,-100 653.5,-100"/>
<text text-anchor="middle" x="717" y="-178" font-family="Helvetica,sans-Serif" font-size="10.00">XML::bpmn::tSendTask</text>
<polyline fill="none" stroke="black" points="653.5,-171 780.5,-171 "/>
<text text-anchor="start" x="661.5" y="-159" font-family="Helvetica,sans-Serif" font-size="10.00">+ implementation</text>
<text text-anchor="start" x="661.5" y="-148" font-family="Helvetica,sans-Serif" font-size="10.00">+ messageRef</text>
<text text-anchor="start" x="661.5" y="-137" font-family="Helvetica,sans-Serif" font-size="10.00">+ operationRef</text>
<text text-anchor="start" x="661.5" y="-126" font-family="Helvetica,sans-Serif" font-size="10.00">+ defaults</text>
<polyline fill="none" stroke="black" points="653.5,-119 780.5,-119 "/>
<text text-anchor="start" x="661.5" y="-107" font-family="Helvetica,sans-Serif" font-size="10.00"># tSendTask()</text>
</a>
</g>
</g>
<!-- Node1&#45;&gt;Node15 -->
<g id="edge14" class="edge">
<title>Node1&#45;&gt;Node15</title>
<path fill="none" stroke="midnightblue" d="M613.51,-226.26C628.16,-214.9 644.72,-202.05 660.24,-190.02"/>
<polygon fill="none" stroke="midnightblue" points="611.34,-223.51 605.58,-232.4 615.63,-229.04 611.34,-223.51"/>
</g>
<!-- Node17 -->
<g id="node17" class="node">
<title>Node17</title>
<g id="a_node17"><a xlink:href="classXML_1_1bpmn_1_1tServiceTask.html" target="_top" xlink:title=" ">
<polygon fill="none" stroke="black" points="798.5,-105.5 798.5,-184.5 937.5,-184.5 937.5,-105.5 798.5,-105.5"/>
<text text-anchor="middle" x="868" y="-172.5" font-family="Helvetica,sans-Serif" font-size="10.00">XML::bpmn::tServiceTask</text>
<polyline fill="none" stroke="black" points="798.5,-165.5 937.5,-165.5 "/>
<text text-anchor="start" x="806.5" y="-153.5" font-family="Helvetica,sans-Serif" font-size="10.00">+ implementation</text>
<text text-anchor="start" x="806.5" y="-142.5" font-family="Helvetica,sans-Serif" font-size="10.00">+ operationRef</text>
<text text-anchor="start" x="806.5" y="-131.5" font-family="Helvetica,sans-Serif" font-size="10.00">+ defaults</text>
<polyline fill="none" stroke="black" points="798.5,-124.5 937.5,-124.5 "/>
<text text-anchor="start" x="806.5" y="-112.5" font-family="Helvetica,sans-Serif" font-size="10.00"># tServiceTask()</text>
</a>
</g>
</g>
<!-- Node1&#45;&gt;Node17 -->
<g id="edge16" class="edge">
<title>Node1&#45;&gt;Node17</title>
<path fill="none" stroke="midnightblue" d="M631.76,-246.85C676.56,-236.15 737.99,-219.04 789,-196 796.4,-192.66 803.92,-188.72 811.23,-184.53"/>
<polygon fill="none" stroke="midnightblue" points="630.83,-243.47 621.9,-249.17 632.43,-250.29 630.83,-243.47"/>
</g>
<!-- Node19 -->
<g id="node19" class="node">
<title>Node19</title>
<g id="a_node19"><a xlink:href="classXML_1_1bpmn_1_1tUserTask.html" target="_top" xlink:title=" ">
<polygon fill="none" stroke="black" points="955.5,-105.5 955.5,-184.5 1080.5,-184.5 1080.5,-105.5 955.5,-105.5"/>
<text text-anchor="middle" x="1018" y="-172.5" font-family="Helvetica,sans-Serif" font-size="10.00">XML::bpmn::tUserTask</text>
<polyline fill="none" stroke="black" points="955.5,-165.5 1080.5,-165.5 "/>
<text text-anchor="start" x="963.5" y="-153.5" font-family="Helvetica,sans-Serif" font-size="10.00">+ rendering</text>
<text text-anchor="start" x="963.5" y="-142.5" font-family="Helvetica,sans-Serif" font-size="10.00">+ implementation</text>
<text text-anchor="start" x="963.5" y="-131.5" font-family="Helvetica,sans-Serif" font-size="10.00">+ defaults</text>
<polyline fill="none" stroke="black" points="955.5,-124.5 1080.5,-124.5 "/>
<text text-anchor="start" x="963.5" y="-112.5" font-family="Helvetica,sans-Serif" font-size="10.00"># tUserTask()</text>
</a>
</g>
</g>
<!-- Node1&#45;&gt;Node19 -->
<g id="edge18" class="edge">
<title>Node1&#45;&gt;Node19</title>
<path fill="none" stroke="midnightblue" d="M632.22,-257.68C708.69,-252.98 841.2,-238.81 946,-196 953.47,-192.95 960.93,-189.02 968.07,-184.7"/>
<polygon fill="none" stroke="midnightblue" points="631.59,-254.21 621.81,-258.28 631.99,-261.2 631.59,-254.21"/>
</g>
<!-- Node2 -->
<g id="node2" class="node">
<title>Node2</title>
<g id="a_node2"><a xlink:href="classXML_1_1bpmn_1_1tActivity.html" target="_top" xlink:title=" ">
<polygon fill="none" stroke="black" points="500.5,-326.5 500.5,-493.5 639.5,-493.5 639.5,-326.5 500.5,-326.5"/>
<text text-anchor="middle" x="570" y="-481.5" font-family="Helvetica,sans-Serif" font-size="10.00">XML::bpmn::tActivity</text>
<polyline fill="none" stroke="black" points="500.5,-474.5 639.5,-474.5 "/>
<text text-anchor="start" x="508.5" y="-462.5" font-family="Helvetica,sans-Serif" font-size="10.00">+ ioSpecification</text>
<text text-anchor="start" x="508.5" y="-451.5" font-family="Helvetica,sans-Serif" font-size="10.00">+ property</text>
<text text-anchor="start" x="508.5" y="-440.5" font-family="Helvetica,sans-Serif" font-size="10.00">+ dataInputAssociation</text>
<text text-anchor="start" x="508.5" y="-429.5" font-family="Helvetica,sans-Serif" font-size="10.00">+ dataOutputAssociation</text>
<text text-anchor="start" x="508.5" y="-418.5" font-family="Helvetica,sans-Serif" font-size="10.00">+ resourceRole</text>
<text text-anchor="start" x="508.5" y="-407.5" font-family="Helvetica,sans-Serif" font-size="10.00">+ loopCharacteristics</text>
<text text-anchor="start" x="508.5" y="-396.5" font-family="Helvetica,sans-Serif" font-size="10.00">+ isForCompensation</text>
<text text-anchor="start" x="508.5" y="-385.5" font-family="Helvetica,sans-Serif" font-size="10.00">+ startQuantity</text>
<text text-anchor="start" x="508.5" y="-374.5" font-family="Helvetica,sans-Serif" font-size="10.00">+ completionQuantity</text>
<text text-anchor="start" x="508.5" y="-363.5" font-family="Helvetica,sans-Serif" font-size="10.00">+ default_</text>
<text text-anchor="start" x="508.5" y="-352.5" font-family="Helvetica,sans-Serif" font-size="10.00">+ defaults</text>
<polyline fill="none" stroke="black" points="500.5,-345.5 639.5,-345.5 "/>
<text text-anchor="start" x="508.5" y="-333.5" font-family="Helvetica,sans-Serif" font-size="10.00"># tActivity()</text>
</a>
</g>
</g>
<!-- Node2&#45;&gt;Node1 -->
<g id="edge1" class="edge">
<title>Node2&#45;&gt;Node1</title>
<path fill="none" stroke="midnightblue" d="M570,-316.36C570,-306.79 570,-297.68 570,-289.75"/>
<polygon fill="none" stroke="midnightblue" points="566.5,-316.48 570,-326.48 573.5,-316.48 566.5,-316.48"/>
</g>
<!-- Node3 -->
<g id="node3" class="node">
<title>Node3</title>
<g id="a_node3"><a xlink:href="classXML_1_1bpmn_1_1tFlowNode.html" target="_top" xlink:title=" ">
<polygon fill="none" stroke="black" points="505,-530.5 505,-609.5 635,-609.5 635,-530.5 505,-530.5"/>
<text text-anchor="middle" x="570" y="-597.5" font-family="Helvetica,sans-Serif" font-size="10.00">XML::bpmn::tFlowNode</text>
<polyline fill="none" stroke="black" points="505,-590.5 635,-590.5 "/>
<text text-anchor="start" x="513" y="-578.5" font-family="Helvetica,sans-Serif" font-size="10.00">+ incoming</text>
<text text-anchor="start" x="513" y="-567.5" font-family="Helvetica,sans-Serif" font-size="10.00">+ outgoing</text>
<text text-anchor="start" x="513" y="-556.5" font-family="Helvetica,sans-Serif" font-size="10.00">+ defaults</text>
<polyline fill="none" stroke="black" points="505,-549.5 635,-549.5 "/>
<text text-anchor="start" x="513" y="-537.5" font-family="Helvetica,sans-Serif" font-size="10.00"># tFlowNode()</text>
</a>
</g>
</g>
<!-- Node3&#45;&gt;Node2 -->
<g id="edge2" class="edge">
<title>Node3&#45;&gt;Node2</title>
<path fill="none" stroke="midnightblue" d="M570,-520.26C570,-511.74 570,-502.67 570,-493.53"/>
<polygon fill="none" stroke="midnightblue" points="566.5,-520.35 570,-530.35 573.5,-520.35 566.5,-520.35"/>
</g>
<!-- Node4 -->
<g id="node4" class="node">
<title>Node4</title>
<g id="a_node4"><a xlink:href="classXML_1_1bpmn_1_1tFlowElement.html" target="_top" xlink:title=" ">
<polygon fill="none" stroke="black" points="497.5,-646.5 497.5,-747.5 642.5,-747.5 642.5,-646.5 497.5,-646.5"/>
<text text-anchor="middle" x="570" y="-735.5" font-family="Helvetica,sans-Serif" font-size="10.00">XML::bpmn::tFlowElement</text>
<polyline fill="none" stroke="black" points="497.5,-728.5 642.5,-728.5 "/>
<text text-anchor="start" x="505.5" y="-716.5" font-family="Helvetica,sans-Serif" font-size="10.00">+ auditing</text>
<text text-anchor="start" x="505.5" y="-705.5" font-family="Helvetica,sans-Serif" font-size="10.00">+ monitoring</text>
<text text-anchor="start" x="505.5" y="-694.5" font-family="Helvetica,sans-Serif" font-size="10.00">+ categoryValueRef</text>
<text text-anchor="start" x="505.5" y="-683.5" font-family="Helvetica,sans-Serif" font-size="10.00">+ name</text>
<text text-anchor="start" x="505.5" y="-672.5" font-family="Helvetica,sans-Serif" font-size="10.00">+ defaults</text>
<polyline fill="none" stroke="black" points="497.5,-665.5 642.5,-665.5 "/>
<text text-anchor="start" x="505.5" y="-653.5" font-family="Helvetica,sans-Serif" font-size="10.00"># tFlowElement()</text>
</a>
</g>
</g>
<!-- Node4&#45;&gt;Node3 -->
<g id="edge3" class="edge">
<title>Node4&#45;&gt;Node3</title>
<path fill="none" stroke="midnightblue" d="M570,-636.19C570,-627.22 570,-618.18 570,-609.81"/>
<polygon fill="none" stroke="midnightblue" points="566.5,-636.24 570,-646.24 573.5,-636.24 566.5,-636.24"/>
</g>
<!-- Node5 -->
<g id="node5" class="node">
<title>Node5</title>
<g id="a_node5"><a xlink:href="classXML_1_1bpmn_1_1tBaseElement.html" target="_top" xlink:title=" ">
<polygon fill="none" stroke="black" points="497,-784.5 497,-874.5 643,-874.5 643,-784.5 497,-784.5"/>
<text text-anchor="middle" x="570" y="-862.5" font-family="Helvetica,sans-Serif" font-size="10.00">XML::bpmn::tBaseElement</text>
<polyline fill="none" stroke="black" points="497,-855.5 643,-855.5 "/>
<text text-anchor="start" x="505" y="-843.5" font-family="Helvetica,sans-Serif" font-size="10.00">+ documentation</text>
<text text-anchor="start" x="505" y="-832.5" font-family="Helvetica,sans-Serif" font-size="10.00">+ extensionElements</text>
<text text-anchor="start" x="505" y="-821.5" font-family="Helvetica,sans-Serif" font-size="10.00">+ id</text>
<text text-anchor="start" x="505" y="-810.5" font-family="Helvetica,sans-Serif" font-size="10.00">+ defaults</text>
<polyline fill="none" stroke="black" points="497,-803.5 643,-803.5 "/>
<text text-anchor="start" x="505" y="-791.5" font-family="Helvetica,sans-Serif" font-size="10.00"># tBaseElement()</text>
</a>
</g>
</g>
<!-- Node5&#45;&gt;Node4 -->
<g id="edge4" class="edge">
<title>Node5&#45;&gt;Node4</title>
<path fill="none" stroke="midnightblue" d="M570,-774.13C570,-765.31 570,-756.22 570,-747.52"/>
<polygon fill="none" stroke="midnightblue" points="566.5,-774.32 570,-784.32 573.5,-774.32 566.5,-774.32"/>
</g>
<!-- Node6 -->
<g id="node6" class="node">
<title>Node6</title>
<g id="a_node6"><a xlink:href="classXML_1_1XMLObject.html" target="_top" xlink:title="A class representing a node in an XML&#45;tree.">
<polygon fill="none" stroke="black" points="507,-911.5 507,-1221.5 633,-1221.5 633,-911.5 507,-911.5"/>
<text text-anchor="middle" x="570" y="-1209.5" font-family="Helvetica,sans-Serif" font-size="10.00">XML::XMLObject</text>
<polyline fill="none" stroke="black" points="507,-1202.5 633,-1202.5 "/>
<text text-anchor="start" x="515" y="-1190.5" font-family="Helvetica,sans-Serif" font-size="10.00">+ xmlns</text>
<text text-anchor="start" x="515" y="-1179.5" font-family="Helvetica,sans-Serif" font-size="10.00">+ className</text>
<text text-anchor="start" x="515" y="-1168.5" font-family="Helvetica,sans-Serif" font-size="10.00">+ prefix</text>
<text text-anchor="start" x="515" y="-1157.5" font-family="Helvetica,sans-Serif" font-size="10.00">+ elementName</text>
<text text-anchor="start" x="515" y="-1146.5" font-family="Helvetica,sans-Serif" font-size="10.00">+ textContent</text>
<text text-anchor="start" x="515" y="-1135.5" font-family="Helvetica,sans-Serif" font-size="10.00">+ children</text>
<text text-anchor="start" x="515" y="-1124.5" font-family="Helvetica,sans-Serif" font-size="10.00">+ attributes</text>
<text text-anchor="start" x="515" y="-1113.5" font-family="Helvetica,sans-Serif" font-size="10.00">+ defaults</text>
<text text-anchor="start" x="515" y="-1102.5" font-family="Helvetica,sans-Serif" font-size="10.00"># factory</text>
<polyline fill="none" stroke="black" points="507,-1095.5 633,-1095.5 "/>
<text text-anchor="start" x="515" y="-1083.5" font-family="Helvetica,sans-Serif" font-size="10.00">+ ~XMLObject()</text>
<text text-anchor="start" x="515" y="-1072.5" font-family="Helvetica,sans-Serif" font-size="10.00">+ is()</text>
<text text-anchor="start" x="515" y="-1061.5" font-family="Helvetica,sans-Serif" font-size="10.00">+ is()</text>
<text text-anchor="start" x="515" y="-1050.5" font-family="Helvetica,sans-Serif" font-size="10.00">+ get()</text>
<text text-anchor="start" x="515" y="-1039.5" font-family="Helvetica,sans-Serif" font-size="10.00">+ get()</text>
<text text-anchor="start" x="515" y="-1028.5" font-family="Helvetica,sans-Serif" font-size="10.00">+ find()</text>
<text text-anchor="start" x="515" y="-1017.5" font-family="Helvetica,sans-Serif" font-size="10.00">+ find()</text>
<text text-anchor="start" x="515" y="-1006.5" font-family="Helvetica,sans-Serif" font-size="10.00">+ stringify()</text>
<text text-anchor="start" x="515" y="-995.5" font-family="Helvetica,sans-Serif" font-size="10.00">+ format()</text>
<text text-anchor="start" x="515" y="-984.5" font-family="Helvetica,sans-Serif" font-size="10.00">+ getRequiredChild()</text>
<text text-anchor="start" x="515" y="-973.5" font-family="Helvetica,sans-Serif" font-size="10.00">and 7 more...</text>
<text text-anchor="start" x="515" y="-962.5" font-family="Helvetica,sans-Serif" font-size="10.00">+ createFromStream()</text>
<text text-anchor="start" x="515" y="-951.5" font-family="Helvetica,sans-Serif" font-size="10.00">+ createFromString()</text>
<text text-anchor="start" x="515" y="-940.5" font-family="Helvetica,sans-Serif" font-size="10.00">+ createFromFile()</text>
<text text-anchor="start" x="515" y="-929.5" font-family="Helvetica,sans-Serif" font-size="10.00"># XMLObject()</text>
<text text-anchor="start" x="515" y="-918.5" font-family="Helvetica,sans-Serif" font-size="10.00"># createObject()</text>
</a>
</g>
</g>
<!-- Node6&#45;&gt;Node5 -->
<g id="edge5" class="edge">
<title>Node6&#45;&gt;Node5</title>
<path fill="none" stroke="midnightblue" d="M570,-901.35C570,-891.89 570,-882.91 570,-874.72"/>
<polygon fill="none" stroke="midnightblue" points="566.5,-901.37 570,-911.37 573.5,-901.37 566.5,-901.37"/>
</g>
<!-- Node8 -->
<g id="node8" class="node">
<title>Node8</title>
<g id="a_node8"><a xlink:href="classXML_1_1bpmn_1_1businessRuleTask.html" target="_top" xlink:title=" ">
<polygon fill="none" stroke="black" points="2,-0.5 2,-57.5 166,-57.5 166,-0.5 2,-0.5"/>
<text text-anchor="middle" x="84" y="-45.5" font-family="Helvetica,sans-Serif" font-size="10.00">XML::bpmn::businessRuleTask</text>
<polyline fill="none" stroke="black" points="2,-38.5 166,-38.5 "/>
<text text-anchor="start" x="10" y="-26.5" font-family="Helvetica,sans-Serif" font-size="10.00">+ defaults</text>
<polyline fill="none" stroke="black" points="2,-19.5 166,-19.5 "/>
<text text-anchor="start" x="10" y="-7.5" font-family="Helvetica,sans-Serif" font-size="10.00"># businessRuleTask()</text>
</a>
</g>
</g>
<!-- Node7&#45;&gt;Node8 -->
<g id="edge7" class="edge">
<title>Node7&#45;&gt;Node8</title>
<path fill="none" stroke="midnightblue" d="M84,-100.53C84,-86.17 84,-70.6 84,-57.74"/>
<polygon fill="none" stroke="midnightblue" points="80.5,-100.72 84,-110.72 87.5,-100.72 80.5,-100.72"/>
</g>
<!-- Node10 -->
<g id="node10" class="node">
<title>Node10</title>
<g id="a_node10"><a xlink:href="classXML_1_1bpmn_1_1manualTask.html" target="_top" xlink:title=" ">
<polygon fill="none" stroke="black" points="188,-0.5 188,-57.5 324,-57.5 324,-0.5 188,-0.5"/>
<text text-anchor="middle" x="256" y="-45.5" font-family="Helvetica,sans-Serif" font-size="10.00">XML::bpmn::manualTask</text>
<polyline fill="none" stroke="black" points="188,-38.5 324,-38.5 "/>
<text text-anchor="start" x="196" y="-26.5" font-family="Helvetica,sans-Serif" font-size="10.00">+ defaults</text>
<polyline fill="none" stroke="black" points="188,-19.5 324,-19.5 "/>
<text text-anchor="start" x="196" y="-7.5" font-family="Helvetica,sans-Serif" font-size="10.00"># manualTask()</text>
</a>
</g>
</g>
<!-- Node9&#45;&gt;Node10 -->
<g id="edge9" class="edge">
<title>Node9&#45;&gt;Node10</title>
<path fill="none" stroke="midnightblue" d="M256,-106.36C256,-90.5 256,-72.35 256,-57.74"/>
<polygon fill="none" stroke="midnightblue" points="252.5,-106.4 256,-116.4 259.5,-106.4 252.5,-106.4"/>
</g>
<!-- Node12 -->
<g id="node12" class="node">
<title>Node12</title>
<g id="a_node12"><a xlink:href="classXML_1_1bpmn_1_1receiveTask.html" target="_top" xlink:title=" ">
<polygon fill="none" stroke="black" points="347.5,-0.5 347.5,-57.5 482.5,-57.5 482.5,-0.5 347.5,-0.5"/>
<text text-anchor="middle" x="415" y="-45.5" font-family="Helvetica,sans-Serif" font-size="10.00">XML::bpmn::receiveTask</text>
<polyline fill="none" stroke="black" points="347.5,-38.5 482.5,-38.5 "/>
<text text-anchor="start" x="355.5" y="-26.5" font-family="Helvetica,sans-Serif" font-size="10.00">+ defaults</text>
<polyline fill="none" stroke="black" points="347.5,-19.5 482.5,-19.5 "/>
<text text-anchor="start" x="355.5" y="-7.5" font-family="Helvetica,sans-Serif" font-size="10.00"># receiveTask()</text>
</a>
</g>
</g>
<!-- Node11&#45;&gt;Node12 -->
<g id="edge11" class="edge">
<title>Node11&#45;&gt;Node12</title>
<path fill="none" stroke="midnightblue" d="M415,-84.23C415,-74.92 415,-65.71 415,-57.59"/>
<polygon fill="none" stroke="midnightblue" points="411.5,-84.33 415,-94.33 418.5,-84.33 411.5,-84.33"/>
</g>
<!-- Node14 -->
<g id="node14" class="node">
<title>Node14</title>
<g id="a_node14"><a xlink:href="classXML_1_1bpmn_1_1scriptTask.html" target="_top" xlink:title=" ">
<polygon fill="none" stroke="black" points="507,-0.5 507,-57.5 633,-57.5 633,-0.5 507,-0.5"/>
<text text-anchor="middle" x="570" y="-45.5" font-family="Helvetica,sans-Serif" font-size="10.00">XML::bpmn::scriptTask</text>
<polyline fill="none" stroke="black" points="507,-38.5 633,-38.5 "/>
<text text-anchor="start" x="515" y="-26.5" font-family="Helvetica,sans-Serif" font-size="10.00">+ defaults</text>
<polyline fill="none" stroke="black" points="507,-19.5 633,-19.5 "/>
<text text-anchor="start" x="515" y="-7.5" font-family="Helvetica,sans-Serif" font-size="10.00"># scriptTask()</text>
</a>
</g>
</g>
<!-- Node13&#45;&gt;Node14 -->
<g id="edge13" class="edge">
<title>Node13&#45;&gt;Node14</title>
<path fill="none" stroke="midnightblue" d="M570,-95.29C570,-82.46 570,-69.05 570,-57.75"/>
<polygon fill="none" stroke="midnightblue" points="566.5,-95.4 570,-105.4 573.5,-95.4 566.5,-95.4"/>
</g>
<!-- Node16 -->
<g id="node16" class="node">
<title>Node16</title>
<g id="a_node16"><a xlink:href="classXML_1_1bpmn_1_1sendTask.html" target="_top" xlink:title=" ">
<polygon fill="none" stroke="black" points="656,-0.5 656,-57.5 778,-57.5 778,-0.5 656,-0.5"/>
<text text-anchor="middle" x="717" y="-45.5" font-family="Helvetica,sans-Serif" font-size="10.00">XML::bpmn::sendTask</text>
<polyline fill="none" stroke="black" points="656,-38.5 778,-38.5 "/>
<text text-anchor="start" x="664" y="-26.5" font-family="Helvetica,sans-Serif" font-size="10.00">+ defaults</text>
<polyline fill="none" stroke="black" points="656,-19.5 778,-19.5 "/>
<text text-anchor="start" x="664" y="-7.5" font-family="Helvetica,sans-Serif" font-size="10.00"># sendTask()</text>
</a>
</g>
</g>
<!-- Node15&#45;&gt;Node16 -->
<g id="edge15" class="edge">
<title>Node15&#45;&gt;Node16</title>
<path fill="none" stroke="midnightblue" d="M717,-89.83C717,-78.74 717,-67.51 717,-57.82"/>
<polygon fill="none" stroke="midnightblue" points="713.5,-89.92 717,-99.92 720.5,-89.92 713.5,-89.92"/>
</g>
<!-- Node18 -->
<g id="node18" class="node">
<title>Node18</title>
<g id="a_node18"><a xlink:href="classXML_1_1bpmn_1_1serviceTask.html" target="_top" xlink:title=" ">
<polygon fill="none" stroke="black" points="801,-0.5 801,-57.5 935,-57.5 935,-0.5 801,-0.5"/>
<text text-anchor="middle" x="868" y="-45.5" font-family="Helvetica,sans-Serif" font-size="10.00">XML::bpmn::serviceTask</text>
<polyline fill="none" stroke="black" points="801,-38.5 935,-38.5 "/>
<text text-anchor="start" x="809" y="-26.5" font-family="Helvetica,sans-Serif" font-size="10.00">+ defaults</text>
<polyline fill="none" stroke="black" points="801,-19.5 935,-19.5 "/>
<text text-anchor="start" x="809" y="-7.5" font-family="Helvetica,sans-Serif" font-size="10.00"># serviceTask()</text>
</a>
</g>
</g>
<!-- Node17&#45;&gt;Node18 -->
<g id="edge17" class="edge">
<title>Node17&#45;&gt;Node18</title>
<path fill="none" stroke="midnightblue" d="M868,-95.29C868,-82.46 868,-69.05 868,-57.75"/>
<polygon fill="none" stroke="midnightblue" points="864.5,-95.4 868,-105.4 871.5,-95.4 864.5,-95.4"/>
</g>
<!-- Node20 -->
<g id="node20" class="node">
<title>Node20</title>
<g id="a_node20"><a xlink:href="classXML_1_1bpmn_1_1userTask.html" target="_top" xlink:title=" ">
<polygon fill="none" stroke="black" points="958,-0.5 958,-57.5 1078,-57.5 1078,-0.5 958,-0.5"/>
<text text-anchor="middle" x="1018" y="-45.5" font-family="Helvetica,sans-Serif" font-size="10.00">XML::bpmn::userTask</text>
<polyline fill="none" stroke="black" points="958,-38.5 1078,-38.5 "/>
<text text-anchor="start" x="966" y="-26.5" font-family="Helvetica,sans-Serif" font-size="10.00">+ defaults</text>
<polyline fill="none" stroke="black" points="958,-19.5 1078,-19.5 "/>
<text text-anchor="start" x="966" y="-7.5" font-family="Helvetica,sans-Serif" font-size="10.00"># userTask()</text>
</a>
</g>
</g>
<!-- Node19&#45;&gt;Node20 -->
<g id="edge19" class="edge">
<title>Node19&#45;&gt;Node20</title>
<path fill="none" stroke="midnightblue" d="M1018,-95.29C1018,-82.46 1018,-69.05 1018,-57.75"/>
<polygon fill="none" stroke="midnightblue" points="1014.5,-95.4 1018,-105.4 1021.5,-95.4 1014.5,-95.4"/>
</g>
</g>
</svg>
