<?xml version="1.0" encoding="UTF-8" standalone="no"?>
<!DOCTYPE svg PUBLIC "-//W3C//DTD SVG 1.1//EN"
 "http://www.w3.org/Graphics/SVG/1.1/DTD/svg11.dtd">
<!-- Generated by graphviz version 2.43.0 (0)
 -->
<!-- Title: XML::bpmn::tTransaction Pages: 1 -->
<svg width="181pt" height="1317pt"
 viewBox="0.00 0.00 181.00 1317.00" xmlns="http://www.w3.org/2000/svg" xmlns:xlink="http://www.w3.org/1999/xlink">
<g id="graph0" class="graph" transform="scale(1 1) rotate(0) translate(4 1313)">
<title>XML::bpmn::tTransaction</title>
<!-- Node1 -->
<g id="Node000001" class="node">
<title>Node1</title>
<g id="a_Node000001"><a xlink:title=" ">
<polygon fill="#999999" stroke="transparent" points="152,-64 21,-64 21,0 152,0 152,-64"/>
<text text-anchor="start" x="26.5" y="-52" font-family="Helvetica,sans-Serif" font-size="10.00">XML::bpmn::tTransaction</text>
<text text-anchor="start" x="36" y="-37" font-family="Helvetica,sans-Serif" font-size="10.00">+</text>
<text text-anchor="start" x="59.5" y="-37" font-family="Helvetica,sans-Serif" font-size="10.00">method</text>
<text text-anchor="start" x="36" y="-22" font-family="Helvetica,sans-Serif" font-size="10.00">+</text>
<text text-anchor="start" x="59.5" y="-22" font-family="Helvetica,sans-Serif" font-size="10.00">defaults</text>
<text text-anchor="start" x="36" y="-7" font-family="Helvetica,sans-Serif" font-size="10.00">#</text>
<text text-anchor="start" x="59.5" y="-7" font-family="Helvetica,sans-Serif" font-size="10.00">tTransaction()</text>
<polygon fill="#666666" stroke="#666666" points="21.5,-47 21.5,-47 152.5,-47 152.5,-47 21.5,-47"/>
<polygon fill="#666666" stroke="#666666" points="21.5,-17 21.5,-17 57.5,-17 57.5,-17 21.5,-17"/>
<polygon fill="#666666" stroke="#666666" points="57.5,-17 57.5,-17 152.5,-17 152.5,-17 57.5,-17"/>
<polygon fill="none" stroke="#666666" points="21,0 21,-64 152,-64 152,0 21,0"/>
</a>
</g>
</g>
<!-- Node2 -->
<g id="Node000002" class="node">
<title>Node2</title>
<g id="a_Node000002"><a xlink:href="classXML_1_1bpmn_1_1tSubProcess.html" target="_top" xlink:title=" ">
<polygon fill="white" stroke="transparent" points="152,-209 21,-209 21,-100 152,-100 152,-209"/>
<text text-anchor="start" x="26.5" y="-196.5" font-family="Helvetica,sans-Serif" font-size="10.00">XML::bpmn::tSubProcess</text>
<text text-anchor="start" x="31.5" y="-181.5" font-family="Helvetica,sans-Serif" font-size="10.00">+</text>
<text text-anchor="start" x="50.5" y="-181.5" font-family="Helvetica,sans-Serif" font-size="10.00">laneSet</text>
<text text-anchor="start" x="31.5" y="-166.5" font-family="Helvetica,sans-Serif" font-size="10.00">+</text>
<text text-anchor="start" x="50.5" y="-166.5" font-family="Helvetica,sans-Serif" font-size="10.00">flowElement</text>
<text text-anchor="start" x="31.5" y="-151.5" font-family="Helvetica,sans-Serif" font-size="10.00">+</text>
<text text-anchor="start" x="50.5" y="-151.5" font-family="Helvetica,sans-Serif" font-size="10.00">artifact</text>
<text text-anchor="start" x="31.5" y="-136.5" font-family="Helvetica,sans-Serif" font-size="10.00">+</text>
<text text-anchor="start" x="50.5" y="-136.5" font-family="Helvetica,sans-Serif" font-size="10.00">triggeredByEvent</text>
<text text-anchor="start" x="31.5" y="-121.5" font-family="Helvetica,sans-Serif" font-size="10.00">+</text>
<text text-anchor="start" x="50.5" y="-121.5" font-family="Helvetica,sans-Serif" font-size="10.00">defaults</text>
<text text-anchor="start" x="31.5" y="-106.5" font-family="Helvetica,sans-Serif" font-size="10.00">#</text>
<text text-anchor="start" x="50.5" y="-106.5" font-family="Helvetica,sans-Serif" font-size="10.00">tSubProcess()</text>
<polygon fill="#666666" stroke="#666666" points="21.5,-191.5 21.5,-191.5 152.5,-191.5 152.5,-191.5 21.5,-191.5"/>
<polygon fill="#666666" stroke="#666666" points="21.5,-116.5 21.5,-116.5 48.5,-116.5 48.5,-116.5 21.5,-116.5"/>
<polygon fill="#666666" stroke="#666666" points="48.5,-116.5 48.5,-116.5 152.5,-116.5 152.5,-116.5 48.5,-116.5"/>
<polygon fill="none" stroke="#666666" points="21,-100 21,-209 152,-209 152,-100 21,-100"/>
</a>
</g>
</g>
<!-- Node2&#45;&gt;Node1 -->
<g id="edge1_Node000001_Node000002" class="edge">
<title>Node2&#45;&gt;Node1</title>
<g id="a_edge1_Node000001_Node000002"><a xlink:title=" ">
<path fill="none" stroke="#63b8ff" d="M86.5,-89.9C86.5,-81 86.5,-72.2 86.5,-64.28"/>
<polygon fill="none" stroke="#63b8ff" points="83,-89.95 86.5,-99.95 90,-89.95 83,-89.95"/>
</a>
</g>
</g>
<!-- Node3 -->
<g id="Node000003" class="node">
<title>Node3</title>
<g id="a_Node000003"><a xlink:href="classXML_1_1bpmn_1_1tActivity.html" target="_top" xlink:title=" ">
<polygon fill="white" stroke="transparent" points="153,-444 20,-444 20,-245 153,-245 153,-444"/>
<text text-anchor="start" x="35.5" y="-431.5" font-family="Helvetica,sans-Serif" font-size="10.00">XML::bpmn::tActivity</text>
<text text-anchor="start" x="24.5" y="-416.5" font-family="Helvetica,sans-Serif" font-size="10.00">+</text>
<text text-anchor="start" x="37.5" y="-416.5" font-family="Helvetica,sans-Serif" font-size="10.00">ioSpecification</text>
<text text-anchor="start" x="24.5" y="-401.5" font-family="Helvetica,sans-Serif" font-size="10.00">+</text>
<text text-anchor="start" x="37.5" y="-401.5" font-family="Helvetica,sans-Serif" font-size="10.00">property</text>
<text text-anchor="start" x="24.5" y="-386.5" font-family="Helvetica,sans-Serif" font-size="10.00">+</text>
<text text-anchor="start" x="37.5" y="-386.5" font-family="Helvetica,sans-Serif" font-size="10.00">dataInputAssociation</text>
<text text-anchor="start" x="24.5" y="-371.5" font-family="Helvetica,sans-Serif" font-size="10.00">+</text>
<text text-anchor="start" x="37.5" y="-371.5" font-family="Helvetica,sans-Serif" font-size="10.00">dataOutputAssociation</text>
<text text-anchor="start" x="24.5" y="-356.5" font-family="Helvetica,sans-Serif" font-size="10.00">+</text>
<text text-anchor="start" x="37.5" y="-356.5" font-family="Helvetica,sans-Serif" font-size="10.00">resourceRole</text>
<text text-anchor="start" x="24.5" y="-341.5" font-family="Helvetica,sans-Serif" font-size="10.00">+</text>
<text text-anchor="start" x="37.5" y="-341.5" font-family="Helvetica,sans-Serif" font-size="10.00">loopCharacteristics</text>
<text text-anchor="start" x="24.5" y="-326.5" font-family="Helvetica,sans-Serif" font-size="10.00">+</text>
<text text-anchor="start" x="37.5" y="-326.5" font-family="Helvetica,sans-Serif" font-size="10.00">isForCompensation</text>
<text text-anchor="start" x="24.5" y="-311.5" font-family="Helvetica,sans-Serif" font-size="10.00">+</text>
<text text-anchor="start" x="37.5" y="-311.5" font-family="Helvetica,sans-Serif" font-size="10.00">startQuantity</text>
<text text-anchor="start" x="24.5" y="-296.5" font-family="Helvetica,sans-Serif" font-size="10.00">+</text>
<text text-anchor="start" x="37.5" y="-296.5" font-family="Helvetica,sans-Serif" font-size="10.00">completionQuantity</text>
<text text-anchor="start" x="24.5" y="-281.5" font-family="Helvetica,sans-Serif" font-size="10.00">+</text>
<text text-anchor="start" x="37.5" y="-281.5" font-family="Helvetica,sans-Serif" font-size="10.00">default_</text>
<text text-anchor="start" x="24.5" y="-266.5" font-family="Helvetica,sans-Serif" font-size="10.00">+</text>
<text text-anchor="start" x="37.5" y="-266.5" font-family="Helvetica,sans-Serif" font-size="10.00">defaults</text>
<text text-anchor="start" x="24.5" y="-251.5" font-family="Helvetica,sans-Serif" font-size="10.00">#</text>
<text text-anchor="start" x="37.5" y="-251.5" font-family="Helvetica,sans-Serif" font-size="10.00">tActivity()</text>
<polygon fill="#666666" stroke="#666666" points="20.5,-426.5 20.5,-426.5 153.5,-426.5 153.5,-426.5 20.5,-426.5"/>
<polygon fill="#666666" stroke="#666666" points="20.5,-261.5 20.5,-261.5 35.5,-261.5 35.5,-261.5 20.5,-261.5"/>
<polygon fill="#666666" stroke="#666666" points="35.5,-261.5 35.5,-261.5 153.5,-261.5 153.5,-261.5 35.5,-261.5"/>
<polygon fill="none" stroke="#666666" points="20,-245 20,-444 153,-444 153,-245 20,-245"/>
</a>
</g>
</g>
<!-- Node3&#45;&gt;Node2 -->
<g id="edge2_Node000002_Node000003" class="edge">
<title>Node3&#45;&gt;Node2</title>
<g id="a_edge2_Node000002_Node000003"><a xlink:title=" ">
<path fill="none" stroke="#63b8ff" d="M86.5,-234.54C86.5,-225.84 86.5,-217.31 86.5,-209.27"/>
<polygon fill="none" stroke="#63b8ff" points="83,-234.82 86.5,-244.82 90,-234.82 83,-234.82"/>
</a>
</g>
</g>
<!-- Node4 -->
<g id="Node000004" class="node">
<title>Node4</title>
<g id="a_Node000004"><a xlink:href="classXML_1_1bpmn_1_1tFlowNode.html" target="_top" xlink:title=" ">
<polygon fill="white" stroke="transparent" points="148.5,-559 24.5,-559 24.5,-480 148.5,-480 148.5,-559"/>
<text text-anchor="start" x="29.5" y="-546.5" font-family="Helvetica,sans-Serif" font-size="10.00">XML::bpmn::tFlowNode</text>
<text text-anchor="start" x="39" y="-531.5" font-family="Helvetica,sans-Serif" font-size="10.00">+</text>
<text text-anchor="start" x="62.5" y="-531.5" font-family="Helvetica,sans-Serif" font-size="10.00">incoming</text>
<text text-anchor="start" x="39" y="-516.5" font-family="Helvetica,sans-Serif" font-size="10.00">+</text>
<text text-anchor="start" x="62.5" y="-516.5" font-family="Helvetica,sans-Serif" font-size="10.00">outgoing</text>
<text text-anchor="start" x="39" y="-501.5" font-family="Helvetica,sans-Serif" font-size="10.00">+</text>
<text text-anchor="start" x="62.5" y="-501.5" font-family="Helvetica,sans-Serif" font-size="10.00">defaults</text>
<text text-anchor="start" x="39" y="-486.5" font-family="Helvetica,sans-Serif" font-size="10.00">#</text>
<text text-anchor="start" x="62.5" y="-486.5" font-family="Helvetica,sans-Serif" font-size="10.00">tFlowNode()</text>
<polygon fill="#666666" stroke="#666666" points="24.5,-541.5 24.5,-541.5 148.5,-541.5 148.5,-541.5 24.5,-541.5"/>
<polygon fill="#666666" stroke="#666666" points="24.5,-496.5 24.5,-496.5 60.5,-496.5 60.5,-496.5 24.5,-496.5"/>
<polygon fill="#666666" stroke="#666666" points="60.5,-496.5 60.5,-496.5 148.5,-496.5 148.5,-496.5 60.5,-496.5"/>
<polygon fill="none" stroke="#666666" points="24.5,-480 24.5,-559 148.5,-559 148.5,-480 24.5,-480"/>
</a>
</g>
</g>
<!-- Node4&#45;&gt;Node3 -->
<g id="edge3_Node000003_Node000004" class="edge">
<title>Node4&#45;&gt;Node3</title>
<g id="a_edge3_Node000003_Node000004"><a xlink:title=" ">
<path fill="none" stroke="#63b8ff" d="M86.5,-469.47C86.5,-461.46 86.5,-452.91 86.5,-444.19"/>
<polygon fill="none" stroke="#63b8ff" points="83,-469.68 86.5,-479.68 90,-469.68 83,-469.68"/>
</a>
</g>
</g>
<!-- Node5 -->
<g id="Node000005" class="node">
<title>Node5</title>
<g id="a_Node000005"><a xlink:href="classXML_1_1bpmn_1_1tFlowElement.html" target="_top" xlink:title=" ">
<polygon fill="white" stroke="transparent" points="156,-704 17,-704 17,-595 156,-595 156,-704"/>
<text text-anchor="start" x="22.5" y="-691.5" font-family="Helvetica,sans-Serif" font-size="10.00">XML::bpmn::tFlowElement</text>
<text text-anchor="start" x="29" y="-676.5" font-family="Helvetica,sans-Serif" font-size="10.00">+</text>
<text text-anchor="start" x="49.5" y="-676.5" font-family="Helvetica,sans-Serif" font-size="10.00">auditing</text>
<text text-anchor="start" x="29" y="-661.5" font-family="Helvetica,sans-Serif" font-size="10.00">+</text>
<text text-anchor="start" x="49.5" y="-661.5" font-family="Helvetica,sans-Serif" font-size="10.00">monitoring</text>
<text text-anchor="start" x="29" y="-646.5" font-family="Helvetica,sans-Serif" font-size="10.00">+</text>
<text text-anchor="start" x="49.5" y="-646.5" font-family="Helvetica,sans-Serif" font-size="10.00">categoryValueRef</text>
<text text-anchor="start" x="29" y="-631.5" font-family="Helvetica,sans-Serif" font-size="10.00">+</text>
<text text-anchor="start" x="49.5" y="-631.5" font-family="Helvetica,sans-Serif" font-size="10.00">name</text>
<text text-anchor="start" x="29" y="-616.5" font-family="Helvetica,sans-Serif" font-size="10.00">+</text>
<text text-anchor="start" x="49.5" y="-616.5" font-family="Helvetica,sans-Serif" font-size="10.00">defaults</text>
<text text-anchor="start" x="29" y="-601.5" font-family="Helvetica,sans-Serif" font-size="10.00">#</text>
<text text-anchor="start" x="49.5" y="-601.5" font-family="Helvetica,sans-Serif" font-size="10.00">tFlowElement()</text>
<polygon fill="#666666" stroke="#666666" points="17.5,-686.5 17.5,-686.5 156.5,-686.5 156.5,-686.5 17.5,-686.5"/>
<polygon fill="#666666" stroke="#666666" points="17.5,-611.5 17.5,-611.5 47.5,-611.5 47.5,-611.5 17.5,-611.5"/>
<polygon fill="#666666" stroke="#666666" points="47.5,-611.5 47.5,-611.5 156.5,-611.5 156.5,-611.5 47.5,-611.5"/>
<polygon fill="none" stroke="#666666" points="17,-595 17,-704 156,-704 156,-595 17,-595"/>
</a>
</g>
</g>
<!-- Node5&#45;&gt;Node4 -->
<g id="edge4_Node000004_Node000005" class="edge">
<title>Node5&#45;&gt;Node4</title>
<g id="a_edge4_Node000004_Node000005"><a xlink:title=" ">
<path fill="none" stroke="#63b8ff" d="M86.5,-584.7C86.5,-575.93 86.5,-567.16 86.5,-559.03"/>
<polygon fill="none" stroke="#63b8ff" points="83,-584.96 86.5,-594.96 90,-584.96 83,-584.96"/>
</a>
</g>
</g>
<!-- Node6 -->
<g id="Node000006" class="node">
<title>Node6</title>
<g id="a_Node000006"><a xlink:href="classXML_1_1bpmn_1_1tBaseElement.html" target="_top" xlink:title=" ">
<polygon fill="white" stroke="transparent" points="156.5,-834 16.5,-834 16.5,-740 156.5,-740 156.5,-834"/>
<text text-anchor="start" x="21.5" y="-822" font-family="Helvetica,sans-Serif" font-size="10.00">XML::bpmn::tBaseElement</text>
<text text-anchor="start" x="26.5" y="-807" font-family="Helvetica,sans-Serif" font-size="10.00">+</text>
<text text-anchor="start" x="45.5" y="-807" font-family="Helvetica,sans-Serif" font-size="10.00">documentation</text>
<text text-anchor="start" x="26.5" y="-792" font-family="Helvetica,sans-Serif" font-size="10.00">+</text>
<text text-anchor="start" x="45.5" y="-792" font-family="Helvetica,sans-Serif" font-size="10.00">extensionElements</text>
<text text-anchor="start" x="26.5" y="-777" font-family="Helvetica,sans-Serif" font-size="10.00">+</text>
<text text-anchor="start" x="45.5" y="-777" font-family="Helvetica,sans-Serif" font-size="10.00">id</text>
<text text-anchor="start" x="26.5" y="-762" font-family="Helvetica,sans-Serif" font-size="10.00">+</text>
<text text-anchor="start" x="45.5" y="-762" font-family="Helvetica,sans-Serif" font-size="10.00">defaults</text>
<text text-anchor="start" x="26.5" y="-747" font-family="Helvetica,sans-Serif" font-size="10.00">#</text>
<text text-anchor="start" x="45.5" y="-747" font-family="Helvetica,sans-Serif" font-size="10.00">tBaseElement()</text>
<polygon fill="#666666" stroke="#666666" points="16.5,-817 16.5,-817 156.5,-817 156.5,-817 16.5,-817"/>
<polygon fill="#666666" stroke="#666666" points="16.5,-757 16.5,-757 43.5,-757 43.5,-757 16.5,-757"/>
<polygon fill="#666666" stroke="#666666" points="43.5,-757 43.5,-757 156.5,-757 156.5,-757 43.5,-757"/>
<polygon fill="none" stroke="#666666" points="16.5,-740 16.5,-834 156.5,-834 156.5,-740 16.5,-740"/>
</a>
</g>
</g>
<!-- Node6&#45;&gt;Node5 -->
<g id="edge5_Node000005_Node000006" class="edge">
<title>Node6&#45;&gt;Node5</title>
<g id="a_edge5_Node000005_Node000006"><a xlink:title=" ">
<path fill="none" stroke="#63b8ff" d="M86.5,-729.58C86.5,-721.12 86.5,-712.41 86.5,-704.01"/>
<polygon fill="none" stroke="#63b8ff" points="83,-729.75 86.5,-739.75 90,-729.75 83,-729.75"/>
</a>
</g>
</g>
<!-- Node7 -->
<g id="Node000007" class="node">
<title>Node7</title>
<g id="a_Node000007"><a xlink:href="classXML_1_1XMLObject.html" target="_top" xlink:title="A class representing a node in an XML&#45;tree.">
<polygon fill="white" stroke="transparent" points="173,-1309 0,-1309 0,-870 173,-870 173,-1309"/>
<text text-anchor="start" x="47" y="-1296.5" font-family="Helvetica,sans-Serif" font-size="10.00">XML::XMLObject</text>
<text text-anchor="start" x="4.5" y="-1281.5" font-family="Helvetica,sans-Serif" font-size="10.00">+</text>
<text text-anchor="start" x="17.5" y="-1281.5" font-family="Helvetica,sans-Serif" font-size="10.00">xmlns</text>
<text text-anchor="start" x="4.5" y="-1266.5" font-family="Helvetica,sans-Serif" font-size="10.00">+</text>
<text text-anchor="start" x="17.5" y="-1266.5" font-family="Helvetica,sans-Serif" font-size="10.00">className</text>
<text text-anchor="start" x="4.5" y="-1251.5" font-family="Helvetica,sans-Serif" font-size="10.00">+</text>
<text text-anchor="start" x="17.5" y="-1251.5" font-family="Helvetica,sans-Serif" font-size="10.00">prefix</text>
<text text-anchor="start" x="4.5" y="-1236.5" font-family="Helvetica,sans-Serif" font-size="10.00">+</text>
<text text-anchor="start" x="17.5" y="-1236.5" font-family="Helvetica,sans-Serif" font-size="10.00">elementName</text>
<text text-anchor="start" x="4.5" y="-1221.5" font-family="Helvetica,sans-Serif" font-size="10.00">+</text>
<text text-anchor="start" x="17.5" y="-1221.5" font-family="Helvetica,sans-Serif" font-size="10.00">textContent</text>
<text text-anchor="start" x="4.5" y="-1206.5" font-family="Helvetica,sans-Serif" font-size="10.00">+</text>
<text text-anchor="start" x="17.5" y="-1206.5" font-family="Helvetica,sans-Serif" font-size="10.00">children</text>
<text text-anchor="start" x="4.5" y="-1191.5" font-family="Helvetica,sans-Serif" font-size="10.00">+</text>
<text text-anchor="start" x="17.5" y="-1191.5" font-family="Helvetica,sans-Serif" font-size="10.00">attributes</text>
<text text-anchor="start" x="4.5" y="-1176.5" font-family="Helvetica,sans-Serif" font-size="10.00">+</text>
<text text-anchor="start" x="17.5" y="-1176.5" font-family="Helvetica,sans-Serif" font-size="10.00">defaults</text>
<text text-anchor="start" x="4.5" y="-1161.5" font-family="Helvetica,sans-Serif" font-size="10.00">#</text>
<text text-anchor="start" x="17.5" y="-1161.5" font-family="Helvetica,sans-Serif" font-size="10.00">factory</text>
<text text-anchor="start" x="4.5" y="-1146.5" font-family="Helvetica,sans-Serif" font-size="10.00">+</text>
<text text-anchor="start" x="17.5" y="-1146.5" font-family="Helvetica,sans-Serif" font-size="10.00">~XMLObject()</text>
<text text-anchor="start" x="4.5" y="-1131.5" font-family="Helvetica,sans-Serif" font-size="10.00">+</text>
<text text-anchor="start" x="17.5" y="-1131.5" font-family="Helvetica,sans-Serif" font-size="10.00">is()</text>
<text text-anchor="start" x="4.5" y="-1116.5" font-family="Helvetica,sans-Serif" font-size="10.00">+</text>
<text text-anchor="start" x="17.5" y="-1116.5" font-family="Helvetica,sans-Serif" font-size="10.00">get()</text>
<text text-anchor="start" x="4.5" y="-1101.5" font-family="Helvetica,sans-Serif" font-size="10.00">+</text>
<text text-anchor="start" x="17.5" y="-1101.5" font-family="Helvetica,sans-Serif" font-size="10.00">find()</text>
<text text-anchor="start" x="4.5" y="-1086.5" font-family="Helvetica,sans-Serif" font-size="10.00">+</text>
<text text-anchor="start" x="17.5" y="-1086.5" font-family="Helvetica,sans-Serif" font-size="10.00">stringify()</text>
<text text-anchor="start" x="4.5" y="-1071.5" font-family="Helvetica,sans-Serif" font-size="10.00">+</text>
<text text-anchor="start" x="17.5" y="-1071.5" font-family="Helvetica,sans-Serif" font-size="10.00">format()</text>
<text text-anchor="start" x="4.5" y="-1056.5" font-family="Helvetica,sans-Serif" font-size="10.00">+</text>
<text text-anchor="start" x="17.5" y="-1056.5" font-family="Helvetica,sans-Serif" font-size="10.00">getRequiredChild()</text>
<text text-anchor="start" x="4.5" y="-1041.5" font-family="Helvetica,sans-Serif" font-size="10.00">+</text>
<text text-anchor="start" x="17.5" y="-1041.5" font-family="Helvetica,sans-Serif" font-size="10.00">getOptionalChild()</text>
<text text-anchor="start" x="4.5" y="-1026.5" font-family="Helvetica,sans-Serif" font-size="10.00">+</text>
<text text-anchor="start" x="17.5" y="-1026.5" font-family="Helvetica,sans-Serif" font-size="10.00">getChildren()</text>
<text text-anchor="start" x="4.5" y="-1011.5" font-family="Helvetica,sans-Serif" font-size="10.00">+</text>
<text text-anchor="start" x="17.5" y="-1011.5" font-family="Helvetica,sans-Serif" font-size="10.00">getRequiredChildByName()</text>
<text text-anchor="start" x="4.5" y="-996.5" font-family="Helvetica,sans-Serif" font-size="10.00">+</text>
<text text-anchor="start" x="17.5" y="-996.5" font-family="Helvetica,sans-Serif" font-size="10.00">getOptionalChildByName()</text>
<text text-anchor="start" x="4.5" y="-981.5" font-family="Helvetica,sans-Serif" font-size="10.00">+</text>
<text text-anchor="start" x="17.5" y="-981.5" font-family="Helvetica,sans-Serif" font-size="10.00">getChildrenByName()</text>
<text text-anchor="start" x="4.5" y="-966.5" font-family="Helvetica,sans-Serif" font-size="10.00">+</text>
<text text-anchor="start" x="17.5" y="-966.5" font-family="Helvetica,sans-Serif" font-size="10.00">getRequiredAttributeByName()</text>
<text text-anchor="start" x="4.5" y="-951.5" font-family="Helvetica,sans-Serif" font-size="10.00">+</text>
<text text-anchor="start" x="17.5" y="-951.5" font-family="Helvetica,sans-Serif" font-size="10.00">getOptionalAttributeByName()</text>
<text text-anchor="start" x="4.5" y="-936.5" font-family="Helvetica,sans-Serif" font-size="10.00">+</text>
<text text-anchor="start" x="17.5" y="-936.5" font-family="Helvetica,sans-Serif" font-size="10.00">createFromStream()</text>
<text text-anchor="start" x="4.5" y="-921.5" font-family="Helvetica,sans-Serif" font-size="10.00">+</text>
<text text-anchor="start" x="17.5" y="-921.5" font-family="Helvetica,sans-Serif" font-size="10.00">createFromString()</text>
<text text-anchor="start" x="4.5" y="-906.5" font-family="Helvetica,sans-Serif" font-size="10.00">+</text>
<text text-anchor="start" x="17.5" y="-906.5" font-family="Helvetica,sans-Serif" font-size="10.00">createFromFile()</text>
<text text-anchor="start" x="4.5" y="-891.5" font-family="Helvetica,sans-Serif" font-size="10.00">#</text>
<text text-anchor="start" x="17.5" y="-891.5" font-family="Helvetica,sans-Serif" font-size="10.00">XMLObject()</text>
<text text-anchor="start" x="4.5" y="-876.5" font-family="Helvetica,sans-Serif" font-size="10.00">#</text>
<text text-anchor="start" x="17.5" y="-876.5" font-family="Helvetica,sans-Serif" font-size="10.00">createObject()</text>
<polygon fill="#666666" stroke="#666666" points="0.5,-1291.5 0.5,-1291.5 173.5,-1291.5 173.5,-1291.5 0.5,-1291.5"/>
<polygon fill="#666666" stroke="#666666" points="0.5,-1156.5 0.5,-1156.5 15.5,-1156.5 15.5,-1156.5 0.5,-1156.5"/>
<polygon fill="#666666" stroke="#666666" points="15.5,-1156.5 15.5,-1156.5 173.5,-1156.5 173.5,-1156.5 15.5,-1156.5"/>
<polygon fill="none" stroke="#666666" points="0,-870 0,-1309 173,-1309 173,-870 0,-870"/>
</a>
</g>
</g>
<!-- Node7&#45;&gt;Node6 -->
<g id="edge6_Node000006_Node000007" class="edge">
<title>Node7&#45;&gt;Node6</title>
<g id="a_edge6_Node000006_Node000007"><a xlink:title=" ">
<path fill="none" stroke="#63b8ff" d="M86.5,-859.65C86.5,-850.56 86.5,-842 86.5,-834.18"/>
<polygon fill="none" stroke="#63b8ff" points="83,-859.72 86.5,-869.72 90,-859.72 83,-859.72"/>
</a>
</g>
</g>
</g>
</svg>
