<?xml version="1.0" encoding="UTF-8" standalone="no"?>
<!DOCTYPE svg PUBLIC "-//W3C//DTD SVG 1.1//EN"
 "http://www.w3.org/Graphics/SVG/1.1/DTD/svg11.dtd">
<!-- Generated by graphviz version 2.43.0 (0)
 -->
<!-- Title: BPMN::TimerStartEvent Pages: 1 -->
<svg width="294pt" height="850pt"
 viewBox="0.00 0.00 293.50 850.00" xmlns="http://www.w3.org/2000/svg" xmlns:xlink="http://www.w3.org/1999/xlink">
<g id="graph0" class="graph" transform="scale(1 1) rotate(0) translate(4 846)">
<title>BPMN::TimerStartEvent</title>
<!-- Node1 -->
<g id="node1" class="node">
<title>Node1</title>
<g id="a_node1"><a xlink:title=" ">
<polygon fill="#bfbfbf" stroke="black" points="78.5,-0.5 78.5,-57.5 209.5,-57.5 209.5,-0.5 78.5,-0.5"/>
<text text-anchor="middle" x="144" y="-45.5" font-family="Helvetica,sans-Serif" font-size="10.00">BPMN::TimerStartEvent</text>
<polyline fill="none" stroke="black" points="78.5,-38.5 209.5,-38.5 "/>
<text text-anchor="start" x="86.5" y="-26.5" font-family="Helvetica,sans-Serif" font-size="10.00">+ element</text>
<polyline fill="none" stroke="black" points="78.5,-19.5 209.5,-19.5 "/>
<text text-anchor="start" x="86.5" y="-7.5" font-family="Helvetica,sans-Serif" font-size="10.00">+ TimerStartEvent()</text>
</a>
</g>
</g>
<!-- Node2 -->
<g id="node2" class="node">
<title>Node2</title>
<g id="a_node2"><a xlink:href="classBPMN_1_1TimerCatchEvent.html" target="_top" xlink:title=" ">
<polygon fill="none" stroke="black" points="0,-94.5 0,-151.5 136,-151.5 136,-94.5 0,-94.5"/>
<text text-anchor="middle" x="68" y="-139.5" font-family="Helvetica,sans-Serif" font-size="10.00">BPMN::TimerCatchEvent</text>
<polyline fill="none" stroke="black" points="0,-132.5 136,-132.5 "/>
<text text-anchor="start" x="8" y="-120.5" font-family="Helvetica,sans-Serif" font-size="10.00">+ element</text>
<polyline fill="none" stroke="black" points="0,-113.5 136,-113.5 "/>
<text text-anchor="start" x="8" y="-101.5" font-family="Helvetica,sans-Serif" font-size="10.00">+ TimerCatchEvent()</text>
</a>
</g>
</g>
<!-- Node2&#45;&gt;Node1 -->
<g id="edge1" class="edge">
<title>Node2&#45;&gt;Node1</title>
<path fill="none" stroke="midnightblue" d="M97.31,-86.52C105.24,-76.92 113.7,-66.68 121.21,-57.58"/>
<polygon fill="none" stroke="midnightblue" points="94.47,-84.46 90.8,-94.4 99.87,-88.92 94.47,-84.46"/>
</g>
<!-- Node3 -->
<g id="node3" class="node">
<title>Node3</title>
<g id="a_node3"><a xlink:href="classBPMN_1_1CatchEvent.html" target="_top" xlink:title=" ">
<polygon fill="none" stroke="black" points="90.5,-188.5 90.5,-245.5 197.5,-245.5 197.5,-188.5 90.5,-188.5"/>
<text text-anchor="middle" x="144" y="-233.5" font-family="Helvetica,sans-Serif" font-size="10.00">BPMN::CatchEvent</text>
<polyline fill="none" stroke="black" points="90.5,-226.5 197.5,-226.5 "/>
<text text-anchor="start" x="98.5" y="-214.5" font-family="Helvetica,sans-Serif" font-size="10.00">+ element</text>
<polyline fill="none" stroke="black" points="90.5,-207.5 197.5,-207.5 "/>
<text text-anchor="start" x="98.5" y="-195.5" font-family="Helvetica,sans-Serif" font-size="10.00">+ CatchEvent()</text>
</a>
</g>
</g>
<!-- Node3&#45;&gt;Node2 -->
<g id="edge2" class="edge">
<title>Node3&#45;&gt;Node2</title>
<path fill="none" stroke="midnightblue" d="M114.69,-180.52C106.76,-170.92 98.3,-160.68 90.79,-151.58"/>
<polygon fill="none" stroke="midnightblue" points="112.13,-182.92 121.2,-188.4 117.53,-178.46 112.13,-182.92"/>
</g>
<!-- Node8 -->
<g id="node8" class="node">
<title>Node8</title>
<g id="a_node8"><a xlink:href="classBPMN_1_1TypedStartEvent.html" target="_top" xlink:title="Base class for all start events with an event definition.">
<polygon fill="none" stroke="black" points="154.5,-94.5 154.5,-151.5 285.5,-151.5 285.5,-94.5 154.5,-94.5"/>
<text text-anchor="middle" x="220" y="-139.5" font-family="Helvetica,sans-Serif" font-size="10.00">BPMN::TypedStartEvent</text>
<polyline fill="none" stroke="black" points="154.5,-132.5 285.5,-132.5 "/>
<text text-anchor="start" x="162.5" y="-120.5" font-family="Helvetica,sans-Serif" font-size="10.00">+ isInterrupting</text>
<polyline fill="none" stroke="black" points="154.5,-113.5 285.5,-113.5 "/>
<text text-anchor="start" x="162.5" y="-101.5" font-family="Helvetica,sans-Serif" font-size="10.00">+ TypedStartEvent()</text>
</a>
</g>
</g>
<!-- Node3&#45;&gt;Node8 -->
<g id="edge8" class="edge">
<title>Node3&#45;&gt;Node8</title>
<path fill="none" stroke="midnightblue" d="M173.31,-180.52C181.24,-170.92 189.7,-160.68 197.21,-151.58"/>
<polygon fill="none" stroke="midnightblue" points="170.47,-178.46 166.8,-188.4 175.87,-182.92 170.47,-178.46"/>
</g>
<!-- Node4 -->
<g id="node4" class="node">
<title>Node4</title>
<g id="a_node4"><a xlink:href="classBPMN_1_1Event.html" target="_top" xlink:title=" ">
<polygon fill="none" stroke="black" points="104,-282.5 104,-339.5 184,-339.5 184,-282.5 104,-282.5"/>
<text text-anchor="middle" x="144" y="-327.5" font-family="Helvetica,sans-Serif" font-size="10.00">BPMN::Event</text>
<polyline fill="none" stroke="black" points="104,-320.5 184,-320.5 "/>
<text text-anchor="start" x="112" y="-308.5" font-family="Helvetica,sans-Serif" font-size="10.00">+ element</text>
<polyline fill="none" stroke="black" points="104,-301.5 184,-301.5 "/>
<text text-anchor="start" x="112" y="-289.5" font-family="Helvetica,sans-Serif" font-size="10.00">+ Event()</text>
</a>
</g>
</g>
<!-- Node4&#45;&gt;Node3 -->
<g id="edge3" class="edge">
<title>Node4&#45;&gt;Node3</title>
<path fill="none" stroke="midnightblue" d="M144,-272.21C144,-263.29 144,-253.95 144,-245.58"/>
<polygon fill="none" stroke="midnightblue" points="140.5,-272.4 144,-282.4 147.5,-272.4 140.5,-272.4"/>
</g>
<!-- Node5 -->
<g id="node5" class="node">
<title>Node5</title>
<g id="a_node5"><a xlink:href="classBPMN_1_1FlowNode.html" target="_top" xlink:title="Base class for BPMN elements that may contain incoming and outgoing SequenceFlow elements.">
<polygon fill="none" stroke="black" points="93.5,-376.5 93.5,-466.5 194.5,-466.5 194.5,-376.5 93.5,-376.5"/>
<text text-anchor="middle" x="144" y="-454.5" font-family="Helvetica,sans-Serif" font-size="10.00">BPMN::FlowNode</text>
<polyline fill="none" stroke="black" points="93.5,-447.5 194.5,-447.5 "/>
<text text-anchor="start" x="101.5" y="-435.5" font-family="Helvetica,sans-Serif" font-size="10.00">+ element</text>
<text text-anchor="start" x="101.5" y="-424.5" font-family="Helvetica,sans-Serif" font-size="10.00">+ name</text>
<text text-anchor="start" x="101.5" y="-413.5" font-family="Helvetica,sans-Serif" font-size="10.00">+ incoming</text>
<text text-anchor="start" x="101.5" y="-402.5" font-family="Helvetica,sans-Serif" font-size="10.00">+ outgoing</text>
<polyline fill="none" stroke="black" points="93.5,-395.5 194.5,-395.5 "/>
<text text-anchor="start" x="101.5" y="-383.5" font-family="Helvetica,sans-Serif" font-size="10.00">+ FlowNode()</text>
</a>
</g>
</g>
<!-- Node5&#45;&gt;Node4 -->
<g id="edge4" class="edge">
<title>Node5&#45;&gt;Node4</title>
<path fill="none" stroke="midnightblue" d="M144,-366.35C144,-357.07 144,-347.79 144,-339.59"/>
<polygon fill="none" stroke="midnightblue" points="140.5,-366.37 144,-376.37 147.5,-366.37 140.5,-366.37"/>
</g>
<!-- Node6 -->
<g id="node6" class="node">
<title>Node6</title>
<g id="a_node6"><a xlink:href="classBPMN_1_1ChildNode.html" target="_top" xlink:title="Base class for BPMN elements within a Scope.">
<polygon fill="none" stroke="black" points="93,-503.5 93,-560.5 195,-560.5 195,-503.5 93,-503.5"/>
<text text-anchor="middle" x="144" y="-548.5" font-family="Helvetica,sans-Serif" font-size="10.00">BPMN::ChildNode</text>
<polyline fill="none" stroke="black" points="93,-541.5 195,-541.5 "/>
<text text-anchor="start" x="101" y="-529.5" font-family="Helvetica,sans-Serif" font-size="10.00">+ parent</text>
<polyline fill="none" stroke="black" points="93,-522.5 195,-522.5 "/>
<text text-anchor="start" x="101" y="-510.5" font-family="Helvetica,sans-Serif" font-size="10.00">+ ChildNode()</text>
</a>
</g>
</g>
<!-- Node6&#45;&gt;Node5 -->
<g id="edge5" class="edge">
<title>Node6&#45;&gt;Node5</title>
<path fill="none" stroke="midnightblue" d="M144,-493.21C144,-484.61 144,-475.39 144,-466.55"/>
<polygon fill="none" stroke="midnightblue" points="140.5,-493.34 144,-503.34 147.5,-493.34 140.5,-493.34"/>
</g>
<!-- Node7 -->
<g id="node7" class="node">
<title>Node7</title>
<g id="a_node7"><a xlink:href="classBPMN_1_1Node.html" target="_top" xlink:title="Base class for all elements in a BPMN model.">
<polygon fill="none" stroke="black" points="83,-597.5 83,-841.5 205,-841.5 205,-597.5 83,-597.5"/>
<text text-anchor="middle" x="144" y="-829.5" font-family="Helvetica,sans-Serif" font-size="10.00">BPMN::Node</text>
<polyline fill="none" stroke="black" points="83,-822.5 205,-822.5 "/>
<text text-anchor="start" x="91" y="-810.5" font-family="Helvetica,sans-Serif" font-size="10.00">+ id</text>
<text text-anchor="start" x="91" y="-799.5" font-family="Helvetica,sans-Serif" font-size="10.00">+ receiving</text>
<text text-anchor="start" x="91" y="-788.5" font-family="Helvetica,sans-Serif" font-size="10.00">+ sending</text>
<text text-anchor="start" x="91" y="-777.5" font-family="Helvetica,sans-Serif" font-size="10.00">+ element</text>
<text text-anchor="start" x="91" y="-766.5" font-family="Helvetica,sans-Serif" font-size="10.00">+ extensionElements</text>
<polyline fill="none" stroke="black" points="83,-759.5 205,-759.5 "/>
<text text-anchor="start" x="91" y="-747.5" font-family="Helvetica,sans-Serif" font-size="10.00">+ Node()</text>
<text text-anchor="start" x="91" y="-736.5" font-family="Helvetica,sans-Serif" font-size="10.00">+ ~Node()</text>
<text text-anchor="start" x="91" y="-725.5" font-family="Helvetica,sans-Serif" font-size="10.00">+ is()</text>
<text text-anchor="start" x="91" y="-714.5" font-family="Helvetica,sans-Serif" font-size="10.00">+ is()</text>
<text text-anchor="start" x="91" y="-703.5" font-family="Helvetica,sans-Serif" font-size="10.00">+ get()</text>
<text text-anchor="start" x="91" y="-692.5" font-family="Helvetica,sans-Serif" font-size="10.00">+ get()</text>
<text text-anchor="start" x="91" y="-681.5" font-family="Helvetica,sans-Serif" font-size="10.00">+ represents()</text>
<text text-anchor="start" x="91" y="-670.5" font-family="Helvetica,sans-Serif" font-size="10.00">+ represents()</text>
<text text-anchor="start" x="91" y="-659.5" font-family="Helvetica,sans-Serif" font-size="10.00">+ as()</text>
<text text-anchor="start" x="91" y="-648.5" font-family="Helvetica,sans-Serif" font-size="10.00">+ as()</text>
<text text-anchor="start" x="91" y="-637.5" font-family="Helvetica,sans-Serif" font-size="10.00">+ find()</text>
<text text-anchor="start" x="91" y="-626.5" font-family="Helvetica,sans-Serif" font-size="10.00">+ find()</text>
<text text-anchor="start" x="91" y="-615.5" font-family="Helvetica,sans-Serif" font-size="10.00">+ find_all()</text>
<text text-anchor="start" x="91" y="-604.5" font-family="Helvetica,sans-Serif" font-size="10.00">+ find_all()</text>
</a>
</g>
</g>
<!-- Node7&#45;&gt;Node6 -->
<g id="edge6" class="edge">
<title>Node7&#45;&gt;Node6</title>
<path fill="none" stroke="midnightblue" d="M144,-587.34C144,-577.53 144,-568.42 144,-560.57"/>
<polygon fill="none" stroke="midnightblue" points="140.5,-587.36 144,-597.36 147.5,-587.36 140.5,-587.36"/>
</g>
<!-- Node8&#45;&gt;Node1 -->
<g id="edge7" class="edge">
<title>Node8&#45;&gt;Node1</title>
<path fill="none" stroke="midnightblue" d="M190.69,-86.52C182.76,-76.92 174.3,-66.68 166.79,-57.58"/>
<polygon fill="none" stroke="midnightblue" points="188.13,-88.92 197.2,-94.4 193.53,-84.46 188.13,-88.92"/>
</g>
</g>
</svg>
