<?xml version="1.0" encoding="UTF-8" standalone="no"?>
<!DOCTYPE svg PUBLIC "-//W3C//DTD SVG 1.1//EN"
 "http://www.w3.org/Graphics/SVG/1.1/DTD/svg11.dtd">
<!-- Generated by graphviz version 2.43.0 (0)
 -->
<!-- Title: BPMN::MessageBoundaryEvent Pages: 1 -->
<svg width="292pt" height="1067pt"
 viewBox="0.00 0.00 291.50 1067.00" xmlns="http://www.w3.org/2000/svg" xmlns:xlink="http://www.w3.org/1999/xlink">
<g id="graph0" class="graph" transform="scale(1 1) rotate(0) translate(4 1063)">
<title>BPMN::MessageBoundaryEvent</title>
<!-- Node1 -->
<g id="Node000001" class="node">
<title>Node1</title>
<g id="a_Node000001"><a xlink:title=" ">
<polygon fill="#999999" stroke="transparent" points="229.5,-49 65.5,-49 65.5,0 229.5,0 229.5,-49"/>
<text text-anchor="start" x="70.5" y="-36.5" font-family="Helvetica,sans-Serif" font-size="10.00">BPMN::MessageBoundaryEvent</text>
<text text-anchor="start" x="73.5" y="-21.5" font-family="Helvetica,sans-Serif" font-size="10.00">+</text>
<text text-anchor="start" x="90.5" y="-21.5" font-family="Helvetica,sans-Serif" font-size="10.00">element</text>
<text text-anchor="start" x="73.5" y="-6.5" font-family="Helvetica,sans-Serif" font-size="10.00">+</text>
<text text-anchor="start" x="90.5" y="-6.5" font-family="Helvetica,sans-Serif" font-size="10.00">MessageBoundaryEvent()</text>
<polygon fill="#666666" stroke="#666666" points="65.5,-31.5 65.5,-31.5 229.5,-31.5 229.5,-31.5 65.5,-31.5"/>
<polygon fill="#666666" stroke="#666666" points="65.5,-16.5 65.5,-16.5 88.5,-16.5 88.5,-16.5 65.5,-16.5"/>
<polygon fill="#666666" stroke="#666666" points="88.5,-16.5 88.5,-16.5 229.5,-16.5 229.5,-16.5 88.5,-16.5"/>
<polygon fill="none" stroke="#666666" points="65.5,0 65.5,-49 229.5,-49 229.5,0 65.5,0"/>
</a>
</g>
</g>
<!-- Node2 -->
<g id="Node000002" class="node">
<title>Node2</title>
<g id="a_Node000002"><a xlink:href="classBPMN_1_1MessageCatchEvent.html" target="_top" xlink:title=" ">
<polygon fill="white" stroke="transparent" points="145,-149 0,-149 0,-100 145,-100 145,-149"/>
<text text-anchor="start" x="5.5" y="-136.5" font-family="Helvetica,sans-Serif" font-size="10.00">BPMN::MessageCatchEvent</text>
<text text-anchor="start" x="71" y="-121.5" font-family="Helvetica,sans-Serif" font-size="10.00"> </text>
<text text-anchor="start" x="8.5" y="-106.5" font-family="Helvetica,sans-Serif" font-size="10.00">+</text>
<text text-anchor="start" x="25.5" y="-106.5" font-family="Helvetica,sans-Serif" font-size="10.00">MessageCatchEvent()</text>
<polygon fill="#666666" stroke="#666666" points="0.5,-131.5 0.5,-131.5 145.5,-131.5 145.5,-131.5 0.5,-131.5"/>
<polygon fill="#666666" stroke="#666666" points="0.5,-116.5 0.5,-116.5 145.5,-116.5 145.5,-116.5 0.5,-116.5"/>
<polygon fill="none" stroke="#666666" points="0,-100 0,-149 145,-149 145,-100 0,-100"/>
</a>
</g>
</g>
<!-- Node2&#45;&gt;Node1 -->
<g id="edge1_Node000001_Node000002" class="edge">
<title>Node2&#45;&gt;Node1</title>
<g id="a_edge1_Node000001_Node000002"><a xlink:title=" ">
<path fill="none" stroke="#63b8ff" d="M97.01,-91.47C107.6,-77.63 119.77,-61.73 129.51,-49"/>
<polygon fill="none" stroke="#63b8ff" points="93.95,-89.71 90.66,-99.78 99.51,-93.96 93.95,-89.71"/>
</a>
</g>
</g>
<!-- Node3 -->
<g id="Node000003" class="node">
<title>Node3</title>
<g id="a_Node000003"><a xlink:href="classBPMN_1_1CatchEvent.html" target="_top" xlink:title=" ">
<polygon fill="white" stroke="transparent" points="198,-249 97,-249 97,-200 198,-200 198,-249"/>
<text text-anchor="start" x="102.5" y="-236.5" font-family="Helvetica,sans-Serif" font-size="10.00">BPMN::CatchEvent</text>
<text text-anchor="start" x="105.5" y="-221.5" font-family="Helvetica,sans-Serif" font-size="10.00">+</text>
<text text-anchor="start" x="122.5" y="-221.5" font-family="Helvetica,sans-Serif" font-size="10.00">element</text>
<text text-anchor="start" x="105.5" y="-206.5" font-family="Helvetica,sans-Serif" font-size="10.00">+</text>
<text text-anchor="start" x="122.5" y="-206.5" font-family="Helvetica,sans-Serif" font-size="10.00">CatchEvent()</text>
<polygon fill="#666666" stroke="#666666" points="97.5,-231.5 97.5,-231.5 198.5,-231.5 198.5,-231.5 97.5,-231.5"/>
<polygon fill="#666666" stroke="#666666" points="97.5,-216.5 97.5,-216.5 120.5,-216.5 120.5,-216.5 97.5,-216.5"/>
<polygon fill="#666666" stroke="#666666" points="120.5,-216.5 120.5,-216.5 198.5,-216.5 198.5,-216.5 120.5,-216.5"/>
<polygon fill="none" stroke="#666666" points="97,-200 97,-249 198,-249 198,-200 97,-200"/>
</a>
</g>
</g>
<!-- Node3&#45;&gt;Node2 -->
<g id="edge2_Node000002_Node000003" class="edge">
<title>Node3&#45;&gt;Node2</title>
<g id="a_edge2_Node000002_Node000003"><a xlink:title=" ">
<path fill="none" stroke="#63b8ff" d="M122.99,-191.47C112.4,-177.63 100.23,-161.73 90.49,-149"/>
<polygon fill="none" stroke="#63b8ff" points="120.49,-193.96 129.34,-199.78 126.05,-189.71 120.49,-193.96"/>
</a>
</g>
</g>
<!-- Node10 -->
<g id="Node000010" class="node">
<title>Node10</title>
<g id="a_Node000010"><a xlink:href="classBPMN_1_1BoundaryEvent.html" target="_top" xlink:title="Base class for all boundary events attached to an Activity.">
<polygon fill="white" stroke="transparent" points="283.5,-164 163.5,-164 163.5,-85 283.5,-85 283.5,-164"/>
<text text-anchor="start" x="168.5" y="-151.5" font-family="Helvetica,sans-Serif" font-size="10.00">BPMN::BoundaryEvent</text>
<text text-anchor="start" x="168.5" y="-136.5" font-family="Helvetica,sans-Serif" font-size="10.00">+</text>
<text text-anchor="start" x="182.5" y="-136.5" font-family="Helvetica,sans-Serif" font-size="10.00">isInterrupting</text>
<text text-anchor="start" x="168.5" y="-121.5" font-family="Helvetica,sans-Serif" font-size="10.00">+</text>
<text text-anchor="start" x="182.5" y="-121.5" font-family="Helvetica,sans-Serif" font-size="10.00">attachedTo</text>
<text text-anchor="start" x="168.5" y="-106.5" font-family="Helvetica,sans-Serif" font-size="10.00">+</text>
<text text-anchor="start" x="182.5" y="-106.5" font-family="Helvetica,sans-Serif" font-size="10.00">BoundaryEvent()</text>
<text text-anchor="start" x="168.5" y="-91.5" font-family="Helvetica,sans-Serif" font-size="10.00">#</text>
<text text-anchor="start" x="182.5" y="-91.5" font-family="Helvetica,sans-Serif" font-size="10.00">resolveReference()</text>
<polygon fill="#666666" stroke="#666666" points="163.5,-146.5 163.5,-146.5 283.5,-146.5 283.5,-146.5 163.5,-146.5"/>
<polygon fill="#666666" stroke="#666666" points="163.5,-116.5 163.5,-116.5 180.5,-116.5 180.5,-116.5 163.5,-116.5"/>
<polygon fill="#666666" stroke="#666666" points="180.5,-116.5 180.5,-116.5 283.5,-116.5 283.5,-116.5 180.5,-116.5"/>
<polygon fill="none" stroke="#666666" points="163.5,-85 163.5,-164 283.5,-164 283.5,-85 163.5,-85"/>
</a>
</g>
</g>
<!-- Node3&#45;&gt;Node10 -->
<g id="edge10_Node000010_Node000003" class="edge">
<title>Node3&#45;&gt;Node10</title>
<g id="a_edge10_Node000010_Node000003"><a xlink:title=" ">
<path fill="none" stroke="#63b8ff" d="M172.16,-191.7C178.94,-182.96 186.37,-173.38 193.42,-164.29"/>
<polygon fill="none" stroke="#63b8ff" points="169.26,-189.73 165.9,-199.78 174.79,-194.02 169.26,-189.73"/>
</a>
</g>
</g>
<!-- Node4 -->
<g id="Node000004" class="node">
<title>Node4</title>
<g id="a_Node000004"><a xlink:href="classBPMN_1_1Event.html" target="_top" xlink:title=" ">
<polygon fill="white" stroke="transparent" points="184.5,-334 110.5,-334 110.5,-285 184.5,-285 184.5,-334"/>
<text text-anchor="start" x="115.5" y="-321.5" font-family="Helvetica,sans-Serif" font-size="10.00">BPMN::Event</text>
<text text-anchor="start" x="117.5" y="-306.5" font-family="Helvetica,sans-Serif" font-size="10.00">+</text>
<text text-anchor="start" x="133.5" y="-306.5" font-family="Helvetica,sans-Serif" font-size="10.00">element</text>
<text text-anchor="start" x="117.5" y="-291.5" font-family="Helvetica,sans-Serif" font-size="10.00">+</text>
<text text-anchor="start" x="133.5" y="-291.5" font-family="Helvetica,sans-Serif" font-size="10.00">Event()</text>
<polygon fill="#666666" stroke="#666666" points="110.5,-316.5 110.5,-316.5 184.5,-316.5 184.5,-316.5 110.5,-316.5"/>
<polygon fill="#666666" stroke="#666666" points="110.5,-301.5 110.5,-301.5 131.5,-301.5 131.5,-301.5 110.5,-301.5"/>
<polygon fill="#666666" stroke="#666666" points="131.5,-301.5 131.5,-301.5 184.5,-301.5 184.5,-301.5 131.5,-301.5"/>
<polygon fill="none" stroke="#666666" points="110.5,-285 110.5,-334 184.5,-334 184.5,-285 110.5,-285"/>
</a>
</g>
</g>
<!-- Node4&#45;&gt;Node3 -->
<g id="edge3_Node000003_Node000004" class="edge">
<title>Node4&#45;&gt;Node3</title>
<g id="a_edge3_Node000003_Node000004"><a xlink:title=" ">
<path fill="none" stroke="#63b8ff" d="M147.5,-274.77C147.5,-266.17 147.5,-257.1 147.5,-249.12"/>
<polygon fill="none" stroke="#63b8ff" points="144,-274.94 147.5,-284.94 151,-274.94 144,-274.94"/>
</a>
</g>
</g>
<!-- Node5 -->
<g id="Node000005" class="node">
<title>Node5</title>
<g id="a_Node000005"><a xlink:href="classBPMN_1_1FlowNode.html" target="_top" xlink:title="Base class for BPMN elements that may contain incoming and outgoing sequence flows.">
<polygon fill="white" stroke="transparent" points="195,-464 100,-464 100,-370 195,-370 195,-464"/>
<text text-anchor="start" x="105.5" y="-452" font-family="Helvetica,sans-Serif" font-size="10.00">BPMN::FlowNode</text>
<text text-anchor="start" x="108.5" y="-437" font-family="Helvetica,sans-Serif" font-size="10.00">+</text>
<text text-anchor="start" x="125.5" y="-437" font-family="Helvetica,sans-Serif" font-size="10.00">element</text>
<text text-anchor="start" x="108.5" y="-422" font-family="Helvetica,sans-Serif" font-size="10.00">+</text>
<text text-anchor="start" x="125.5" y="-422" font-family="Helvetica,sans-Serif" font-size="10.00">name</text>
<text text-anchor="start" x="108.5" y="-407" font-family="Helvetica,sans-Serif" font-size="10.00">+</text>
<text text-anchor="start" x="125.5" y="-407" font-family="Helvetica,sans-Serif" font-size="10.00">incoming</text>
<text text-anchor="start" x="108.5" y="-392" font-family="Helvetica,sans-Serif" font-size="10.00">+</text>
<text text-anchor="start" x="125.5" y="-392" font-family="Helvetica,sans-Serif" font-size="10.00">outgoing</text>
<text text-anchor="start" x="108.5" y="-377" font-family="Helvetica,sans-Serif" font-size="10.00">+</text>
<text text-anchor="start" x="125.5" y="-377" font-family="Helvetica,sans-Serif" font-size="10.00">FlowNode()</text>
<polygon fill="#666666" stroke="#666666" points="100.5,-447 100.5,-447 195.5,-447 195.5,-447 100.5,-447"/>
<polygon fill="#666666" stroke="#666666" points="100.5,-387 100.5,-387 123.5,-387 123.5,-387 100.5,-387"/>
<polygon fill="#666666" stroke="#666666" points="123.5,-387 123.5,-387 195.5,-387 195.5,-387 123.5,-387"/>
<polygon fill="none" stroke="#666666" points="100,-370 100,-464 195,-464 195,-370 100,-370"/>
</a>
</g>
</g>
<!-- Node5&#45;&gt;Node4 -->
<g id="edge4_Node000004_Node000005" class="edge">
<title>Node5&#45;&gt;Node4</title>
<g id="a_edge4_Node000004_Node000005"><a xlink:title=" ">
<path fill="none" stroke="#63b8ff" d="M147.5,-359.59C147.5,-350.62 147.5,-341.79 147.5,-334.15"/>
<polygon fill="none" stroke="#63b8ff" points="144,-359.73 147.5,-369.73 151,-359.73 144,-359.73"/>
</a>
</g>
</g>
<!-- Node6 -->
<g id="Node000006" class="node">
<title>Node6</title>
<g id="a_Node000006"><a xlink:href="classBPMN_1_1ChildNode.html" target="_top" xlink:title="Base class for BPMN elements within a Scope.">
<polygon fill="white" stroke="transparent" points="195.5,-579 99.5,-579 99.5,-500 195.5,-500 195.5,-579"/>
<text text-anchor="start" x="104.5" y="-566.5" font-family="Helvetica,sans-Serif" font-size="10.00">BPMN::ChildNode</text>
<text text-anchor="start" x="107.5" y="-551.5" font-family="Helvetica,sans-Serif" font-size="10.00">+</text>
<text text-anchor="start" x="124.5" y="-551.5" font-family="Helvetica,sans-Serif" font-size="10.00">parent</text>
<text text-anchor="start" x="107.5" y="-536.5" font-family="Helvetica,sans-Serif" font-size="10.00">+</text>
<text text-anchor="start" x="124.5" y="-536.5" font-family="Helvetica,sans-Serif" font-size="10.00">ChildNode()</text>
<text text-anchor="start" x="107.5" y="-521.5" font-family="Helvetica,sans-Serif" font-size="10.00">+</text>
<text text-anchor="start" x="124.5" y="-521.5" font-family="Helvetica,sans-Serif" font-size="10.00">ancestor()</text>
<text text-anchor="start" x="107.5" y="-506.5" font-family="Helvetica,sans-Serif" font-size="10.00">+</text>
<text text-anchor="start" x="124.5" y="-506.5" font-family="Helvetica,sans-Serif" font-size="10.00">ancestor()</text>
<polygon fill="#666666" stroke="#666666" points="99.5,-561.5 99.5,-561.5 195.5,-561.5 195.5,-561.5 99.5,-561.5"/>
<polygon fill="#666666" stroke="#666666" points="99.5,-546.5 99.5,-546.5 122.5,-546.5 122.5,-546.5 99.5,-546.5"/>
<polygon fill="#666666" stroke="#666666" points="122.5,-546.5 122.5,-546.5 195.5,-546.5 195.5,-546.5 122.5,-546.5"/>
<polygon fill="none" stroke="#666666" points="99.5,-500 99.5,-579 195.5,-579 195.5,-500 99.5,-500"/>
</a>
</g>
</g>
<!-- Node6&#45;&gt;Node5 -->
<g id="edge5_Node000005_Node000006" class="edge">
<title>Node6&#45;&gt;Node5</title>
<g id="a_edge5_Node000005_Node000006"><a xlink:title=" ">
<path fill="none" stroke="#63b8ff" d="M147.5,-489.68C147.5,-481.3 147.5,-472.61 147.5,-464.29"/>
<polygon fill="none" stroke="#63b8ff" points="144,-489.71 147.5,-499.71 151,-489.71 144,-489.71"/>
</a>
</g>
</g>
<!-- Node7 -->
<g id="Node000007" class="node">
<title>Node7</title>
<g id="a_Node000007"><a xlink:href="classBPMN_1_1Node.html" target="_top" xlink:title="Base class for all nodes in a BPMN model.">
<polygon fill="white" stroke="transparent" points="183,-739 112,-739 112,-615 183,-615 183,-739"/>
<text text-anchor="start" x="117.5" y="-727" font-family="Helvetica,sans-Serif" font-size="10.00">BPMN::Node</text>
<text text-anchor="start" x="117.5" y="-712" font-family="Helvetica,sans-Serif" font-size="10.00">+</text>
<text text-anchor="start" x="131.5" y="-712" font-family="Helvetica,sans-Serif" font-size="10.00">receiving</text>
<text text-anchor="start" x="117.5" y="-697" font-family="Helvetica,sans-Serif" font-size="10.00">+</text>
<text text-anchor="start" x="131.5" y="-697" font-family="Helvetica,sans-Serif" font-size="10.00">sending</text>
<text text-anchor="start" x="117.5" y="-682" font-family="Helvetica,sans-Serif" font-size="10.00">+</text>
<text text-anchor="start" x="131.5" y="-682" font-family="Helvetica,sans-Serif" font-size="10.00">Node()</text>
<text text-anchor="start" x="117.5" y="-667" font-family="Helvetica,sans-Serif" font-size="10.00">+</text>
<text text-anchor="start" x="131.5" y="-667" font-family="Helvetica,sans-Serif" font-size="10.00">find()</text>
<text text-anchor="start" x="117.5" y="-652" font-family="Helvetica,sans-Serif" font-size="10.00">+</text>
<text text-anchor="start" x="131.5" y="-652" font-family="Helvetica,sans-Serif" font-size="10.00">find()</text>
<text text-anchor="start" x="117.5" y="-637" font-family="Helvetica,sans-Serif" font-size="10.00">+</text>
<text text-anchor="start" x="131.5" y="-637" font-family="Helvetica,sans-Serif" font-size="10.00">find_all()</text>
<text text-anchor="start" x="117.5" y="-622" font-family="Helvetica,sans-Serif" font-size="10.00">+</text>
<text text-anchor="start" x="131.5" y="-622" font-family="Helvetica,sans-Serif" font-size="10.00">find_all()</text>
<polygon fill="#666666" stroke="#666666" points="112.5,-722 112.5,-722 183.5,-722 183.5,-722 112.5,-722"/>
<polygon fill="#666666" stroke="#666666" points="112.5,-692 112.5,-692 129.5,-692 129.5,-692 112.5,-692"/>
<polygon fill="#666666" stroke="#666666" points="129.5,-692 129.5,-692 183.5,-692 183.5,-692 129.5,-692"/>
<polygon fill="none" stroke="#666666" points="112,-615 112,-739 183,-739 183,-615 112,-615"/>
</a>
</g>
</g>
<!-- Node7&#45;&gt;Node6 -->
<g id="edge6_Node000006_Node000007" class="edge">
<title>Node7&#45;&gt;Node6</title>
<g id="a_edge6_Node000006_Node000007"><a xlink:title=" ">
<path fill="none" stroke="#63b8ff" d="M147.5,-604.93C147.5,-596.02 147.5,-587.19 147.5,-579.05"/>
<polygon fill="none" stroke="#63b8ff" points="144,-604.99 147.5,-614.99 151,-604.99 144,-604.99"/>
</a>
</g>
</g>
<!-- Node8 -->
<g id="Node000008" class="node">
<title>Node8</title>
<g id="a_Node000008"><a xlink:href="classBPMN_1_1BaseElement.html" target="_top" xlink:title="Base class for all core BPMN elements.">
<polygon fill="white" stroke="transparent" points="205,-914 90,-914 90,-775 205,-775 205,-914"/>
<text text-anchor="start" x="98" y="-901.5" font-family="Helvetica,sans-Serif" font-size="10.00">BPMN::BaseElement</text>
<text text-anchor="start" x="94.5" y="-886.5" font-family="Helvetica,sans-Serif" font-size="10.00">+</text>
<text text-anchor="start" x="107.5" y="-886.5" font-family="Helvetica,sans-Serif" font-size="10.00">element</text>
<text text-anchor="start" x="94.5" y="-871.5" font-family="Helvetica,sans-Serif" font-size="10.00">+</text>
<text text-anchor="start" x="107.5" y="-871.5" font-family="Helvetica,sans-Serif" font-size="10.00">id</text>
<text text-anchor="start" x="94.5" y="-856.5" font-family="Helvetica,sans-Serif" font-size="10.00">+</text>
<text text-anchor="start" x="107.5" y="-856.5" font-family="Helvetica,sans-Serif" font-size="10.00">extensionElements</text>
<text text-anchor="start" x="94.5" y="-841.5" font-family="Helvetica,sans-Serif" font-size="10.00">+</text>
<text text-anchor="start" x="107.5" y="-841.5" font-family="Helvetica,sans-Serif" font-size="10.00">BaseElement()</text>
<text text-anchor="start" x="94.5" y="-826.5" font-family="Helvetica,sans-Serif" font-size="10.00">+</text>
<text text-anchor="start" x="107.5" y="-826.5" font-family="Helvetica,sans-Serif" font-size="10.00">is()</text>
<text text-anchor="start" x="94.5" y="-811.5" font-family="Helvetica,sans-Serif" font-size="10.00">+</text>
<text text-anchor="start" x="107.5" y="-811.5" font-family="Helvetica,sans-Serif" font-size="10.00">is()</text>
<text text-anchor="start" x="94.5" y="-796.5" font-family="Helvetica,sans-Serif" font-size="10.00">+</text>
<text text-anchor="start" x="107.5" y="-796.5" font-family="Helvetica,sans-Serif" font-size="10.00">get()</text>
<text text-anchor="start" x="94.5" y="-781.5" font-family="Helvetica,sans-Serif" font-size="10.00">+</text>
<text text-anchor="start" x="107.5" y="-781.5" font-family="Helvetica,sans-Serif" font-size="10.00">get()</text>
<polygon fill="#666666" stroke="#666666" points="90.5,-896.5 90.5,-896.5 205.5,-896.5 205.5,-896.5 90.5,-896.5"/>
<polygon fill="#666666" stroke="#666666" points="90.5,-851.5 90.5,-851.5 105.5,-851.5 105.5,-851.5 90.5,-851.5"/>
<polygon fill="#666666" stroke="#666666" points="105.5,-851.5 105.5,-851.5 205.5,-851.5 205.5,-851.5 105.5,-851.5"/>
<polygon fill="none" stroke="#666666" points="90,-775 90,-914 205,-914 205,-775 90,-775"/>
</a>
</g>
</g>
<!-- Node8&#45;&gt;Node7 -->
<g id="edge7_Node000007_Node000008" class="edge">
<title>Node8&#45;&gt;Node7</title>
<g id="a_edge7_Node000007_Node000008"><a xlink:title=" ">
<path fill="none" stroke="#63b8ff" d="M147.5,-764.71C147.5,-756.12 147.5,-747.47 147.5,-739.14"/>
<polygon fill="none" stroke="#63b8ff" points="144,-764.75 147.5,-774.75 151,-764.75 144,-764.75"/>
</a>
</g>
</g>
<!-- Node9 -->
<g id="Node000009" class="node">
<title>Node9</title>
<g id="a_Node000009"><a xlink:href="classBPMN_1_1Element.html" target="_top" xlink:title="Abstract base class for all elements in a BPMN model.">
<polygon fill="white" stroke="transparent" points="190.5,-1059 104.5,-1059 104.5,-950 190.5,-950 190.5,-1059"/>
<text text-anchor="start" x="109.5" y="-1046.5" font-family="Helvetica,sans-Serif" font-size="10.00">BPMN::Element</text>
<text text-anchor="start" x="145.5" y="-1031.5" font-family="Helvetica,sans-Serif" font-size="10.00"> </text>
<text text-anchor="start" x="109.5" y="-1016.5" font-family="Helvetica,sans-Serif" font-size="10.00">+</text>
<text text-anchor="start" x="123.5" y="-1016.5" font-family="Helvetica,sans-Serif" font-size="10.00">~Element()</text>
<text text-anchor="start" x="109.5" y="-1001.5" font-family="Helvetica,sans-Serif" font-size="10.00">+</text>
<text text-anchor="start" x="123.5" y="-1001.5" font-family="Helvetica,sans-Serif" font-size="10.00">represents()</text>
<text text-anchor="start" x="109.5" y="-986.5" font-family="Helvetica,sans-Serif" font-size="10.00">+</text>
<text text-anchor="start" x="123.5" y="-986.5" font-family="Helvetica,sans-Serif" font-size="10.00">represents()</text>
<text text-anchor="start" x="109.5" y="-971.5" font-family="Helvetica,sans-Serif" font-size="10.00">+</text>
<text text-anchor="start" x="123.5" y="-971.5" font-family="Helvetica,sans-Serif" font-size="10.00">as()</text>
<text text-anchor="start" x="109.5" y="-956.5" font-family="Helvetica,sans-Serif" font-size="10.00">+</text>
<text text-anchor="start" x="123.5" y="-956.5" font-family="Helvetica,sans-Serif" font-size="10.00">as()</text>
<polygon fill="#666666" stroke="#666666" points="104.5,-1041.5 104.5,-1041.5 190.5,-1041.5 190.5,-1041.5 104.5,-1041.5"/>
<polygon fill="#666666" stroke="#666666" points="104.5,-1026.5 104.5,-1026.5 190.5,-1026.5 190.5,-1026.5 104.5,-1026.5"/>
<polygon fill="none" stroke="#666666" points="104.5,-950 104.5,-1059 190.5,-1059 190.5,-950 104.5,-950"/>
</a>
</g>
</g>
<!-- Node9&#45;&gt;Node8 -->
<g id="edge8_Node000008_Node000009" class="edge">
<title>Node9&#45;&gt;Node8</title>
<g id="a_edge8_Node000008_Node000009"><a xlink:title=" ">
<path fill="none" stroke="#63b8ff" d="M147.5,-939.55C147.5,-931.23 147.5,-922.67 147.5,-914.28"/>
<polygon fill="none" stroke="#63b8ff" points="144,-939.57 147.5,-949.57 151,-939.57 144,-939.57"/>
</a>
</g>
</g>
<!-- Node10&#45;&gt;Node1 -->
<g id="edge9_Node000001_Node000010" class="edge">
<title>Node10&#45;&gt;Node1</title>
<g id="a_edge9_Node000001_Node000010"><a xlink:title=" ">
<path fill="none" stroke="#63b8ff" d="M187.24,-76.74C179.77,-67.11 172.21,-57.37 165.73,-49"/>
<polygon fill="none" stroke="#63b8ff" points="184.57,-79.01 193.46,-84.77 190.1,-74.72 184.57,-79.01"/>
</a>
</g>
</g>
</g>
</svg>
