<?xml version="1.0" encoding="UTF-8" standalone="no"?>
<!DOCTYPE svg PUBLIC "-//W3C//DTD SVG 1.1//EN"
 "http://www.w3.org/Graphics/SVG/1.1/DTD/svg11.dtd">
<!-- Generated by graphviz version 2.43.0 (0)
 -->
<!-- Title: BPMN::Scope Pages: 1 -->
<svg width="445pt" height="601pt"
 viewBox="0.00 0.00 445.00 601.00" xmlns="http://www.w3.org/2000/svg" xmlns:xlink="http://www.w3.org/1999/xlink">
<g id="graph0" class="graph" transform="scale(1 1) rotate(0) translate(4 597)">
<title>BPMN::Scope</title>
<!-- Node1 -->
<g id="node1" class="node">
<title>Node1</title>
<g id="a_node1"><a xlink:title="Base class for BPMN elements that may contain a ChildNode elements.">
<polygon fill="#bfbfbf" stroke="black" points="136.5,-188.5 136.5,-311.5 258.5,-311.5 258.5,-188.5 136.5,-188.5"/>
<text text-anchor="middle" x="197.5" y="-299.5" font-family="Helvetica,sans-Serif" font-size="10.00">BPMN::Scope</text>
<polyline fill="none" stroke="black" points="136.5,-292.5 258.5,-292.5 "/>
<text text-anchor="start" x="144.5" y="-280.5" font-family="Helvetica,sans-Serif" font-size="10.00">+ childNodes</text>
<text text-anchor="start" x="144.5" y="-269.5" font-family="Helvetica,sans-Serif" font-size="10.00">+ flowNodes</text>
<text text-anchor="start" x="144.5" y="-258.5" font-family="Helvetica,sans-Serif" font-size="10.00">+ eventSubProcesses</text>
<text text-anchor="start" x="144.5" y="-247.5" font-family="Helvetica,sans-Serif" font-size="10.00">+ startEvents</text>
<text text-anchor="start" x="144.5" y="-236.5" font-family="Helvetica,sans-Serif" font-size="10.00">+ sequenceFlows</text>
<polyline fill="none" stroke="black" points="136.5,-229.5 258.5,-229.5 "/>
<text text-anchor="start" x="144.5" y="-217.5" font-family="Helvetica,sans-Serif" font-size="10.00">+ Scope()</text>
<text text-anchor="start" x="144.5" y="-206.5" font-family="Helvetica,sans-Serif" font-size="10.00"># add()</text>
<text text-anchor="start" x="144.5" y="-195.5" font-family="Helvetica,sans-Serif" font-size="10.00"># add()</text>
</a>
</g>
</g>
<!-- Node3 -->
<g id="node3" class="node">
<title>Node3</title>
<g id="a_node3"><a xlink:href="classBPMN_1_1EventSubProcess.html" target="_top" xlink:title=" ">
<polygon fill="none" stroke="black" points="0,-94.5 0,-151.5 135,-151.5 135,-94.5 0,-94.5"/>
<text text-anchor="middle" x="67.5" y="-139.5" font-family="Helvetica,sans-Serif" font-size="10.00">BPMN::EventSubProcess</text>
<polyline fill="none" stroke="black" points="0,-132.5 135,-132.5 "/>
<text text-anchor="start" x="8" y="-120.5" font-family="Helvetica,sans-Serif" font-size="10.00">+ element</text>
<polyline fill="none" stroke="black" points="0,-113.5 135,-113.5 "/>
<text text-anchor="start" x="8" y="-101.5" font-family="Helvetica,sans-Serif" font-size="10.00">+ EventSubProcess()</text>
</a>
</g>
</g>
<!-- Node1&#45;&gt;Node3 -->
<g id="edge2" class="edge">
<title>Node1&#45;&gt;Node3</title>
<path fill="none" stroke="midnightblue" d="M128.77,-182.92C117.32,-171.9 106.02,-161.04 96.31,-151.7"/>
<polygon fill="none" stroke="midnightblue" points="126.67,-185.75 136.31,-190.16 131.52,-180.71 126.67,-185.75"/>
</g>
<!-- Node4 -->
<g id="node4" class="node">
<title>Node4</title>
<g id="a_node4"><a xlink:href="classBPMN_1_1Process.html" target="_top" xlink:title=" ">
<polygon fill="none" stroke="black" points="153,-94.5 153,-151.5 242,-151.5 242,-94.5 153,-94.5"/>
<text text-anchor="middle" x="197.5" y="-139.5" font-family="Helvetica,sans-Serif" font-size="10.00">BPMN::Process</text>
<polyline fill="none" stroke="black" points="153,-132.5 242,-132.5 "/>
<text text-anchor="start" x="161" y="-120.5" font-family="Helvetica,sans-Serif" font-size="10.00">+ element</text>
<polyline fill="none" stroke="black" points="153,-113.5 242,-113.5 "/>
<text text-anchor="start" x="161" y="-101.5" font-family="Helvetica,sans-Serif" font-size="10.00">+ Process()</text>
</a>
</g>
</g>
<!-- Node1&#45;&gt;Node4 -->
<g id="edge3" class="edge">
<title>Node1&#45;&gt;Node4</title>
<path fill="none" stroke="midnightblue" d="M197.5,-178.14C197.5,-168.8 197.5,-159.71 197.5,-151.74"/>
<polygon fill="none" stroke="midnightblue" points="194,-178.33 197.5,-188.33 201,-178.33 194,-178.33"/>
</g>
<!-- Node5 -->
<g id="node5" class="node">
<title>Node5</title>
<g id="a_node5"><a xlink:href="classBPMN_1_1SubProcess.html" target="_top" xlink:title=" ">
<polygon fill="none" stroke="black" points="260,-94.5 260,-151.5 367,-151.5 367,-94.5 260,-94.5"/>
<text text-anchor="middle" x="313.5" y="-139.5" font-family="Helvetica,sans-Serif" font-size="10.00">BPMN::SubProcess</text>
<polyline fill="none" stroke="black" points="260,-132.5 367,-132.5 "/>
<text text-anchor="start" x="268" y="-120.5" font-family="Helvetica,sans-Serif" font-size="10.00">+ element</text>
<polyline fill="none" stroke="black" points="260,-113.5 367,-113.5 "/>
<text text-anchor="start" x="268" y="-101.5" font-family="Helvetica,sans-Serif" font-size="10.00">+ SubProcess()</text>
</a>
</g>
</g>
<!-- Node1&#45;&gt;Node5 -->
<g id="edge4" class="edge">
<title>Node1&#45;&gt;Node5</title>
<path fill="none" stroke="midnightblue" d="M260.76,-180.83C270.3,-170.55 279.65,-160.48 287.76,-151.74"/>
<polygon fill="none" stroke="midnightblue" points="258.04,-178.62 253.8,-188.33 263.17,-183.38 258.04,-178.62"/>
</g>
<!-- Node2 -->
<g id="node2" class="node">
<title>Node2</title>
<g id="a_node2"><a xlink:href="classBPMN_1_1Node.html" target="_top" xlink:title="Base class for all elements in a BPMN model.">
<polygon fill="none" stroke="black" points="136.5,-348.5 136.5,-592.5 258.5,-592.5 258.5,-348.5 136.5,-348.5"/>
<text text-anchor="middle" x="197.5" y="-580.5" font-family="Helvetica,sans-Serif" font-size="10.00">BPMN::Node</text>
<polyline fill="none" stroke="black" points="136.5,-573.5 258.5,-573.5 "/>
<text text-anchor="start" x="144.5" y="-561.5" font-family="Helvetica,sans-Serif" font-size="10.00">+ id</text>
<text text-anchor="start" x="144.5" y="-550.5" font-family="Helvetica,sans-Serif" font-size="10.00">+ receiving</text>
<text text-anchor="start" x="144.5" y="-539.5" font-family="Helvetica,sans-Serif" font-size="10.00">+ sending</text>
<text text-anchor="start" x="144.5" y="-528.5" font-family="Helvetica,sans-Serif" font-size="10.00">+ element</text>
<text text-anchor="start" x="144.5" y="-517.5" font-family="Helvetica,sans-Serif" font-size="10.00">+ extensionElements</text>
<polyline fill="none" stroke="black" points="136.5,-510.5 258.5,-510.5 "/>
<text text-anchor="start" x="144.5" y="-498.5" font-family="Helvetica,sans-Serif" font-size="10.00">+ Node()</text>
<text text-anchor="start" x="144.5" y="-487.5" font-family="Helvetica,sans-Serif" font-size="10.00">+ ~Node()</text>
<text text-anchor="start" x="144.5" y="-476.5" font-family="Helvetica,sans-Serif" font-size="10.00">+ is()</text>
<text text-anchor="start" x="144.5" y="-465.5" font-family="Helvetica,sans-Serif" font-size="10.00">+ is()</text>
<text text-anchor="start" x="144.5" y="-454.5" font-family="Helvetica,sans-Serif" font-size="10.00">+ get()</text>
<text text-anchor="start" x="144.5" y="-443.5" font-family="Helvetica,sans-Serif" font-size="10.00">+ get()</text>
<text text-anchor="start" x="144.5" y="-432.5" font-family="Helvetica,sans-Serif" font-size="10.00">+ represents()</text>
<text text-anchor="start" x="144.5" y="-421.5" font-family="Helvetica,sans-Serif" font-size="10.00">+ represents()</text>
<text text-anchor="start" x="144.5" y="-410.5" font-family="Helvetica,sans-Serif" font-size="10.00">+ as()</text>
<text text-anchor="start" x="144.5" y="-399.5" font-family="Helvetica,sans-Serif" font-size="10.00">+ as()</text>
<text text-anchor="start" x="144.5" y="-388.5" font-family="Helvetica,sans-Serif" font-size="10.00">+ find()</text>
<text text-anchor="start" x="144.5" y="-377.5" font-family="Helvetica,sans-Serif" font-size="10.00">+ find()</text>
<text text-anchor="start" x="144.5" y="-366.5" font-family="Helvetica,sans-Serif" font-size="10.00">+ find_all()</text>
<text text-anchor="start" x="144.5" y="-355.5" font-family="Helvetica,sans-Serif" font-size="10.00">+ find_all()</text>
</a>
</g>
</g>
<!-- Node2&#45;&gt;Node1 -->
<g id="edge1" class="edge">
<title>Node2&#45;&gt;Node1</title>
<path fill="none" stroke="midnightblue" d="M197.5,-338.37C197.5,-329.16 197.5,-320.17 197.5,-311.67"/>
<polygon fill="none" stroke="midnightblue" points="194,-338.43 197.5,-348.43 201,-338.43 194,-338.43"/>
</g>
<!-- Node6 -->
<g id="node6" class="node">
<title>Node6</title>
<g id="a_node6"><a xlink:href="classBPMN_1_1AdHocSubProcess.html" target="_top" xlink:title=" ">
<polygon fill="none" stroke="black" points="173,-0.5 173,-57.5 312,-57.5 312,-0.5 173,-0.5"/>
<text text-anchor="middle" x="242.5" y="-45.5" font-family="Helvetica,sans-Serif" font-size="10.00">BPMN::AdHocSubProcess</text>
<polyline fill="none" stroke="black" points="173,-38.5 312,-38.5 "/>
<text text-anchor="start" x="181" y="-26.5" font-family="Helvetica,sans-Serif" font-size="10.00">+ element</text>
<polyline fill="none" stroke="black" points="173,-19.5 312,-19.5 "/>
<text text-anchor="start" x="181" y="-7.5" font-family="Helvetica,sans-Serif" font-size="10.00">+ AdHocSubProcess()</text>
</a>
</g>
</g>
<!-- Node5&#45;&gt;Node6 -->
<g id="edge5" class="edge">
<title>Node5&#45;&gt;Node6</title>
<path fill="none" stroke="midnightblue" d="M285.9,-86.24C278.56,-76.72 270.74,-66.59 263.79,-57.58"/>
<polygon fill="none" stroke="midnightblue" points="283.32,-88.62 292.2,-94.4 288.86,-84.34 283.32,-88.62"/>
</g>
<!-- Node7 -->
<g id="node7" class="node">
<title>Node7</title>
<g id="a_node7"><a xlink:href="classBPMN_1_1Transaction.html" target="_top" xlink:title=" ">
<polygon fill="none" stroke="black" points="330,-0.5 330,-57.5 437,-57.5 437,-0.5 330,-0.5"/>
<text text-anchor="middle" x="383.5" y="-45.5" font-family="Helvetica,sans-Serif" font-size="10.00">BPMN::Transaction</text>
<polyline fill="none" stroke="black" points="330,-38.5 437,-38.5 "/>
<text text-anchor="start" x="338" y="-26.5" font-family="Helvetica,sans-Serif" font-size="10.00">+ element</text>
<polyline fill="none" stroke="black" points="330,-19.5 437,-19.5 "/>
<text text-anchor="start" x="338" y="-7.5" font-family="Helvetica,sans-Serif" font-size="10.00">+ Transaction()</text>
</a>
</g>
</g>
<!-- Node5&#45;&gt;Node7 -->
<g id="edge6" class="edge">
<title>Node5&#45;&gt;Node7</title>
<path fill="none" stroke="midnightblue" d="M340.71,-86.24C347.95,-76.72 355.66,-66.59 362.51,-57.58"/>
<polygon fill="none" stroke="midnightblue" points="337.77,-84.32 334.5,-94.4 343.34,-88.56 337.77,-84.32"/>
</g>
</g>
</svg>
