<?xml version="1.0" encoding="UTF-8" standalone="no"?>
<!DOCTYPE svg PUBLIC "-//W3C//DTD SVG 1.1//EN"
 "http://www.w3.org/Graphics/SVG/1.1/DTD/svg11.dtd">
<!-- Generated by graphviz version 2.43.0 (0)
 -->
<!-- Title: XML::bpmn::standardLoopCharacteristics Pages: 1 -->
<svg width="218pt" height="843pt"
 viewBox="0.00 0.00 218.00 843.00" xmlns="http://www.w3.org/2000/svg" xmlns:xlink="http://www.w3.org/1999/xlink">
<g id="graph0" class="graph" transform="scale(1 1) rotate(0) translate(4 839)">
<title>XML::bpmn::standardLoopCharacteristics</title>
<!-- Node1 -->
<g id="Node000001" class="node">
<title>Node1</title>
<g id="a_Node000001"><a xlink:title=" ">
<polygon fill="#999999" stroke="transparent" points="210,-49 0,-49 0,0 210,0 210,-49"/>
<text text-anchor="start" x="5" y="-36.5" font-family="Helvetica,sans-Serif" font-size="10.00">XML::bpmn::standardLoopCharacteristics</text>
<text text-anchor="start" x="14.5" y="-21.5" font-family="Helvetica,sans-Serif" font-size="10.00">+</text>
<text text-anchor="start" x="38" y="-21.5" font-family="Helvetica,sans-Serif" font-size="10.00">defaults</text>
<text text-anchor="start" x="14.5" y="-6.5" font-family="Helvetica,sans-Serif" font-size="10.00">#</text>
<text text-anchor="start" x="38" y="-6.5" font-family="Helvetica,sans-Serif" font-size="10.00">standardLoopCharacteristics()</text>
<polygon fill="#666666" stroke="#666666" points="0,-31.5 0,-31.5 210,-31.5 210,-31.5 0,-31.5"/>
<polygon fill="#666666" stroke="#666666" points="0,-16.5 0,-16.5 36,-16.5 36,-16.5 0,-16.5"/>
<polygon fill="#666666" stroke="#666666" points="36,-16.5 36,-16.5 210,-16.5 210,-16.5 36,-16.5"/>
<polygon fill="none" stroke="#666666" points="0,0 0,-49 210,-49 210,0 0,0"/>
</a>
</g>
</g>
<!-- Node2 -->
<g id="Node000002" class="node">
<title>Node2</title>
<g id="a_Node000002"><a xlink:href="classXML_1_1bpmn_1_1tStandardLoopCharacteristics.html" target="_top" xlink:title=" ">
<polygon fill="white" stroke="transparent" points="191,-190 19,-190 19,-85 191,-85 191,-190"/>
<text text-anchor="start" x="39" y="-177.5" font-family="Helvetica,sans-Serif" font-size="10.00">XML::bpmn::tStandardLoop</text>
<text text-anchor="start" x="68.5" y="-166.5" font-family="Helvetica,sans-Serif" font-size="10.00">Characteristics</text>
<text text-anchor="start" x="23" y="-151.5" font-family="Helvetica,sans-Serif" font-size="10.00">+</text>
<text text-anchor="start" x="36" y="-151.5" font-family="Helvetica,sans-Serif" font-size="10.00">loopCondition</text>
<text text-anchor="start" x="23" y="-136.5" font-family="Helvetica,sans-Serif" font-size="10.00">+</text>
<text text-anchor="start" x="36" y="-136.5" font-family="Helvetica,sans-Serif" font-size="10.00">testBefore</text>
<text text-anchor="start" x="23" y="-121.5" font-family="Helvetica,sans-Serif" font-size="10.00">+</text>
<text text-anchor="start" x="36" y="-121.5" font-family="Helvetica,sans-Serif" font-size="10.00">loopMaximum</text>
<text text-anchor="start" x="23" y="-106.5" font-family="Helvetica,sans-Serif" font-size="10.00">+</text>
<text text-anchor="start" x="36" y="-106.5" font-family="Helvetica,sans-Serif" font-size="10.00">defaults</text>
<text text-anchor="start" x="23" y="-91.5" font-family="Helvetica,sans-Serif" font-size="10.00">#</text>
<text text-anchor="start" x="36" y="-91.5" font-family="Helvetica,sans-Serif" font-size="10.00">tStandardLoopCharacteristics()</text>
<polygon fill="#666666" stroke="#666666" points="19,-161.5 19,-161.5 191,-161.5 191,-161.5 19,-161.5"/>
<polygon fill="#666666" stroke="#666666" points="19,-101.5 19,-101.5 34,-101.5 34,-101.5 19,-101.5"/>
<polygon fill="#666666" stroke="#666666" points="34,-101.5 34,-101.5 191,-101.5 191,-101.5 34,-101.5"/>
<polygon fill="none" stroke="#666666" points="19,-85 19,-190 191,-190 191,-85 19,-85"/>
</a>
</g>
</g>
<!-- Node2&#45;&gt;Node1 -->
<g id="edge1_Node000001_Node000002" class="edge">
<title>Node2&#45;&gt;Node1</title>
<g id="a_edge1_Node000001_Node000002"><a xlink:title=" ">
<path fill="none" stroke="#63b8ff" d="M105,-74.67C105,-65.66 105,-56.87 105,-49.27"/>
<polygon fill="none" stroke="#63b8ff" points="101.5,-74.9 105,-84.9 108.5,-74.9 101.5,-74.9"/>
</a>
</g>
</g>
<!-- Node3 -->
<g id="Node000003" class="node">
<title>Node3</title>
<g id="a_Node000003"><a xlink:href="classXML_1_1bpmn_1_1tLoopCharacteristics.html" target="_top" xlink:title=" ">
<polygon fill="white" stroke="transparent" points="190.5,-275 19.5,-275 19.5,-226 190.5,-226 190.5,-275"/>
<text text-anchor="start" x="25" y="-262.5" font-family="Helvetica,sans-Serif" font-size="10.00">XML::bpmn::tLoopCharacteristics</text>
<text text-anchor="start" x="34.5" y="-247.5" font-family="Helvetica,sans-Serif" font-size="10.00">+</text>
<text text-anchor="start" x="58" y="-247.5" font-family="Helvetica,sans-Serif" font-size="10.00">defaults</text>
<text text-anchor="start" x="34.5" y="-232.5" font-family="Helvetica,sans-Serif" font-size="10.00">#</text>
<text text-anchor="start" x="58" y="-232.5" font-family="Helvetica,sans-Serif" font-size="10.00">tLoopCharacteristics()</text>
<polygon fill="#666666" stroke="#666666" points="20,-257.5 20,-257.5 191,-257.5 191,-257.5 20,-257.5"/>
<polygon fill="#666666" stroke="#666666" points="20,-242.5 20,-242.5 56,-242.5 56,-242.5 20,-242.5"/>
<polygon fill="#666666" stroke="#666666" points="56,-242.5 56,-242.5 191,-242.5 191,-242.5 56,-242.5"/>
<polygon fill="none" stroke="#666666" points="19.5,-226 19.5,-275 190.5,-275 190.5,-226 19.5,-226"/>
</a>
</g>
</g>
<!-- Node3&#45;&gt;Node2 -->
<g id="edge2_Node000002_Node000003" class="edge">
<title>Node3&#45;&gt;Node2</title>
<g id="a_edge2_Node000002_Node000003"><a xlink:title=" ">
<path fill="none" stroke="#63b8ff" d="M105,-215.85C105,-207.79 105,-199 105,-190.32"/>
<polygon fill="none" stroke="#63b8ff" points="101.5,-215.96 105,-225.96 108.5,-215.96 101.5,-215.96"/>
</a>
</g>
</g>
<!-- Node4 -->
<g id="Node000004" class="node">
<title>Node4</title>
<g id="a_Node000004"><a xlink:href="classXML_1_1bpmn_1_1tBaseElement.html" target="_top" xlink:title=" ">
<polygon fill="white" stroke="transparent" points="175,-405 35,-405 35,-311 175,-311 175,-405"/>
<text text-anchor="start" x="40" y="-393" font-family="Helvetica,sans-Serif" font-size="10.00">XML::bpmn::tBaseElement</text>
<text text-anchor="start" x="45" y="-378" font-family="Helvetica,sans-Serif" font-size="10.00">+</text>
<text text-anchor="start" x="64" y="-378" font-family="Helvetica,sans-Serif" font-size="10.00">documentation</text>
<text text-anchor="start" x="45" y="-363" font-family="Helvetica,sans-Serif" font-size="10.00">+</text>
<text text-anchor="start" x="64" y="-363" font-family="Helvetica,sans-Serif" font-size="10.00">extensionElements</text>
<text text-anchor="start" x="45" y="-348" font-family="Helvetica,sans-Serif" font-size="10.00">+</text>
<text text-anchor="start" x="64" y="-348" font-family="Helvetica,sans-Serif" font-size="10.00">id</text>
<text text-anchor="start" x="45" y="-333" font-family="Helvetica,sans-Serif" font-size="10.00">+</text>
<text text-anchor="start" x="64" y="-333" font-family="Helvetica,sans-Serif" font-size="10.00">defaults</text>
<text text-anchor="start" x="45" y="-318" font-family="Helvetica,sans-Serif" font-size="10.00">#</text>
<text text-anchor="start" x="64" y="-318" font-family="Helvetica,sans-Serif" font-size="10.00">tBaseElement()</text>
<polygon fill="#666666" stroke="#666666" points="35,-388 35,-388 175,-388 175,-388 35,-388"/>
<polygon fill="#666666" stroke="#666666" points="35,-328 35,-328 62,-328 62,-328 35,-328"/>
<polygon fill="#666666" stroke="#666666" points="62,-328 62,-328 175,-328 175,-328 62,-328"/>
<polygon fill="none" stroke="#666666" points="35,-311 35,-405 175,-405 175,-311 35,-311"/>
</a>
</g>
</g>
<!-- Node4&#45;&gt;Node3 -->
<g id="edge3_Node000003_Node000004" class="edge">
<title>Node4&#45;&gt;Node3</title>
<g id="a_edge3_Node000003_Node000004"><a xlink:title=" ">
<path fill="none" stroke="#63b8ff" d="M105,-300.59C105,-291.62 105,-282.79 105,-275.15"/>
<polygon fill="none" stroke="#63b8ff" points="101.5,-300.73 105,-310.73 108.5,-300.73 101.5,-300.73"/>
</a>
</g>
</g>
<!-- Node5 -->
<g id="Node000005" class="node">
<title>Node5</title>
<g id="a_Node000005"><a xlink:href="classXML_1_1XMLObject.html" target="_top" xlink:title="A class representing a node in an XML&#45;tree.">
<polygon fill="white" stroke="transparent" points="165,-835 45,-835 45,-441 165,-441 165,-835"/>
<text text-anchor="start" x="65" y="-823" font-family="Helvetica,sans-Serif" font-size="10.00">XML::XMLObject</text>
<text text-anchor="start" x="49" y="-808" font-family="Helvetica,sans-Serif" font-size="10.00">+</text>
<text text-anchor="start" x="62" y="-808" font-family="Helvetica,sans-Serif" font-size="10.00">xmlns</text>
<text text-anchor="start" x="49" y="-793" font-family="Helvetica,sans-Serif" font-size="10.00">+</text>
<text text-anchor="start" x="62" y="-793" font-family="Helvetica,sans-Serif" font-size="10.00">className</text>
<text text-anchor="start" x="49" y="-778" font-family="Helvetica,sans-Serif" font-size="10.00">+</text>
<text text-anchor="start" x="62" y="-778" font-family="Helvetica,sans-Serif" font-size="10.00">prefix</text>
<text text-anchor="start" x="49" y="-763" font-family="Helvetica,sans-Serif" font-size="10.00">+</text>
<text text-anchor="start" x="62" y="-763" font-family="Helvetica,sans-Serif" font-size="10.00">elementName</text>
<text text-anchor="start" x="49" y="-748" font-family="Helvetica,sans-Serif" font-size="10.00">+</text>
<text text-anchor="start" x="62" y="-748" font-family="Helvetica,sans-Serif" font-size="10.00">textContent</text>
<text text-anchor="start" x="49" y="-733" font-family="Helvetica,sans-Serif" font-size="10.00">+</text>
<text text-anchor="start" x="62" y="-733" font-family="Helvetica,sans-Serif" font-size="10.00">children</text>
<text text-anchor="start" x="49" y="-718" font-family="Helvetica,sans-Serif" font-size="10.00">+</text>
<text text-anchor="start" x="62" y="-718" font-family="Helvetica,sans-Serif" font-size="10.00">attributes</text>
<text text-anchor="start" x="49" y="-703" font-family="Helvetica,sans-Serif" font-size="10.00">+</text>
<text text-anchor="start" x="62" y="-703" font-family="Helvetica,sans-Serif" font-size="10.00">defaults</text>
<text text-anchor="start" x="49" y="-688" font-family="Helvetica,sans-Serif" font-size="10.00">#</text>
<text text-anchor="start" x="62" y="-688" font-family="Helvetica,sans-Serif" font-size="10.00">factory</text>
<text text-anchor="start" x="49" y="-673" font-family="Helvetica,sans-Serif" font-size="10.00">+</text>
<text text-anchor="start" x="62" y="-673" font-family="Helvetica,sans-Serif" font-size="10.00">~XMLObject()</text>
<text text-anchor="start" x="49" y="-658" font-family="Helvetica,sans-Serif" font-size="10.00">+</text>
<text text-anchor="start" x="62" y="-658" font-family="Helvetica,sans-Serif" font-size="10.00">is()</text>
<text text-anchor="start" x="49" y="-643" font-family="Helvetica,sans-Serif" font-size="10.00">+</text>
<text text-anchor="start" x="62" y="-643" font-family="Helvetica,sans-Serif" font-size="10.00">is()</text>
<text text-anchor="start" x="49" y="-628" font-family="Helvetica,sans-Serif" font-size="10.00">+</text>
<text text-anchor="start" x="62" y="-628" font-family="Helvetica,sans-Serif" font-size="10.00">get()</text>
<text text-anchor="start" x="49" y="-613" font-family="Helvetica,sans-Serif" font-size="10.00">+</text>
<text text-anchor="start" x="62" y="-613" font-family="Helvetica,sans-Serif" font-size="10.00">get()</text>
<text text-anchor="start" x="49" y="-598" font-family="Helvetica,sans-Serif" font-size="10.00">+</text>
<text text-anchor="start" x="62" y="-598" font-family="Helvetica,sans-Serif" font-size="10.00">find()</text>
<text text-anchor="start" x="49" y="-583" font-family="Helvetica,sans-Serif" font-size="10.00">+</text>
<text text-anchor="start" x="62" y="-583" font-family="Helvetica,sans-Serif" font-size="10.00">find()</text>
<text text-anchor="start" x="49" y="-568" font-family="Helvetica,sans-Serif" font-size="10.00">+</text>
<text text-anchor="start" x="62" y="-568" font-family="Helvetica,sans-Serif" font-size="10.00">stringify()</text>
<text text-anchor="start" x="49" y="-553" font-family="Helvetica,sans-Serif" font-size="10.00">+</text>
<text text-anchor="start" x="62" y="-553" font-family="Helvetica,sans-Serif" font-size="10.00">format()</text>
<text text-anchor="start" x="49" y="-538" font-family="Helvetica,sans-Serif" font-size="10.00">+</text>
<text text-anchor="start" x="62" y="-538" font-family="Helvetica,sans-Serif" font-size="10.00">getRequiredChild()</text>
<text text-anchor="start" x="62" y="-523" font-family="Helvetica,sans-Serif" font-size="10.00">and 7 more...</text>
<text text-anchor="start" x="49" y="-508" font-family="Helvetica,sans-Serif" font-size="10.00">+</text>
<text text-anchor="start" x="62" y="-508" font-family="Helvetica,sans-Serif" font-size="10.00">createFromStream()</text>
<text text-anchor="start" x="49" y="-493" font-family="Helvetica,sans-Serif" font-size="10.00">+</text>
<text text-anchor="start" x="62" y="-493" font-family="Helvetica,sans-Serif" font-size="10.00">createFromString()</text>
<text text-anchor="start" x="49" y="-478" font-family="Helvetica,sans-Serif" font-size="10.00">+</text>
<text text-anchor="start" x="62" y="-478" font-family="Helvetica,sans-Serif" font-size="10.00">createFromFile()</text>
<text text-anchor="start" x="49" y="-463" font-family="Helvetica,sans-Serif" font-size="10.00">#</text>
<text text-anchor="start" x="62" y="-463" font-family="Helvetica,sans-Serif" font-size="10.00">XMLObject()</text>
<text text-anchor="start" x="49" y="-448" font-family="Helvetica,sans-Serif" font-size="10.00">#</text>
<text text-anchor="start" x="62" y="-448" font-family="Helvetica,sans-Serif" font-size="10.00">createObject()</text>
<polygon fill="#666666" stroke="#666666" points="45,-818 45,-818 165,-818 165,-818 45,-818"/>
<polygon fill="#666666" stroke="#666666" points="45,-683 45,-683 60,-683 60,-683 45,-683"/>
<polygon fill="#666666" stroke="#666666" points="60,-683 60,-683 165,-683 165,-683 60,-683"/>
<polygon fill="none" stroke="#666666" points="45,-441 45,-835 165,-835 165,-441 45,-441"/>
</a>
</g>
</g>
<!-- Node5&#45;&gt;Node4 -->
<g id="edge4_Node000004_Node000005" class="edge">
<title>Node5&#45;&gt;Node4</title>
<g id="a_edge4_Node000004_Node000005"><a xlink:title=" ">
<path fill="none" stroke="#63b8ff" d="M105,-430.78C105,-421.62 105,-412.97 105,-405.06"/>
<polygon fill="none" stroke="#63b8ff" points="101.5,-430.91 105,-440.91 108.5,-430.91 101.5,-430.91"/>
</a>
</g>
</g>
</g>
</svg>
