<?xml version="1.0" encoding="UTF-8" standalone="no"?>
<!DOCTYPE svg PUBLIC "-//W3C//DTD SVG 1.1//EN"
 "http://www.w3.org/Graphics/SVG/1.1/DTD/svg11.dtd">
<!-- Generated by graphviz version 2.43.0 (0)
 -->
<!-- Title: XML::bpmn::humanPerformer Pages: 1 -->
<svg width="189pt" height="866pt"
 viewBox="0.00 0.00 189.00 866.00" xmlns="http://www.w3.org/2000/svg" xmlns:xlink="http://www.w3.org/1999/xlink">
<g id="graph0" class="graph" transform="scale(1 1) rotate(0) translate(4 862)">
<title>XML::bpmn::humanPerformer</title>
<!-- Node1 -->
<g id="node1" class="node">
<title>Node1</title>
<g id="a_node1"><a xlink:title=" ">
<polygon fill="#bfbfbf" stroke="black" points="10.5,-0.5 10.5,-57.5 170.5,-57.5 170.5,-0.5 10.5,-0.5"/>
<text text-anchor="middle" x="90.5" y="-45.5" font-family="Helvetica,sans-Serif" font-size="10.00">XML::bpmn::humanPerformer</text>
<polyline fill="none" stroke="black" points="10.5,-38.5 170.5,-38.5 "/>
<text text-anchor="start" x="18.5" y="-26.5" font-family="Helvetica,sans-Serif" font-size="10.00">+ defaults</text>
<polyline fill="none" stroke="black" points="10.5,-19.5 170.5,-19.5 "/>
<text text-anchor="start" x="18.5" y="-7.5" font-family="Helvetica,sans-Serif" font-size="10.00"># humanPerformer()</text>
</a>
</g>
</g>
<!-- Node2 -->
<g id="node2" class="node">
<title>Node2</title>
<g id="a_node2"><a xlink:href="classXML_1_1bpmn_1_1tHumanPerformer.html" target="_top" xlink:title=" ">
<polygon fill="none" stroke="black" points="8,-94.5 8,-151.5 173,-151.5 173,-94.5 8,-94.5"/>
<text text-anchor="middle" x="90.5" y="-139.5" font-family="Helvetica,sans-Serif" font-size="10.00">XML::bpmn::tHumanPerformer</text>
<polyline fill="none" stroke="black" points="8,-132.5 173,-132.5 "/>
<text text-anchor="start" x="16" y="-120.5" font-family="Helvetica,sans-Serif" font-size="10.00">+ defaults</text>
<polyline fill="none" stroke="black" points="8,-113.5 173,-113.5 "/>
<text text-anchor="start" x="16" y="-101.5" font-family="Helvetica,sans-Serif" font-size="10.00"># tHumanPerformer()</text>
</a>
</g>
</g>
<!-- Node2&#45;&gt;Node1 -->
<g id="edge1" class="edge">
<title>Node2&#45;&gt;Node1</title>
<path fill="none" stroke="midnightblue" d="M90.5,-84.21C90.5,-75.29 90.5,-65.95 90.5,-57.58"/>
<polygon fill="none" stroke="midnightblue" points="87,-84.4 90.5,-94.4 94,-84.4 87,-84.4"/>
</g>
<!-- Node3 -->
<g id="node3" class="node">
<title>Node3</title>
<g id="a_node3"><a xlink:href="classXML_1_1bpmn_1_1tPerformer.html" target="_top" xlink:title=" ">
<polygon fill="none" stroke="black" points="25.5,-188.5 25.5,-245.5 155.5,-245.5 155.5,-188.5 25.5,-188.5"/>
<text text-anchor="middle" x="90.5" y="-233.5" font-family="Helvetica,sans-Serif" font-size="10.00">XML::bpmn::tPerformer</text>
<polyline fill="none" stroke="black" points="25.5,-226.5 155.5,-226.5 "/>
<text text-anchor="start" x="33.5" y="-214.5" font-family="Helvetica,sans-Serif" font-size="10.00">+ defaults</text>
<polyline fill="none" stroke="black" points="25.5,-207.5 155.5,-207.5 "/>
<text text-anchor="start" x="33.5" y="-195.5" font-family="Helvetica,sans-Serif" font-size="10.00"># tPerformer()</text>
</a>
</g>
</g>
<!-- Node3&#45;&gt;Node2 -->
<g id="edge2" class="edge">
<title>Node3&#45;&gt;Node2</title>
<path fill="none" stroke="midnightblue" d="M90.5,-178.21C90.5,-169.29 90.5,-159.95 90.5,-151.58"/>
<polygon fill="none" stroke="midnightblue" points="87,-178.4 90.5,-188.4 94,-178.4 87,-178.4"/>
</g>
<!-- Node4 -->
<g id="node4" class="node">
<title>Node4</title>
<g id="a_node4"><a xlink:href="classXML_1_1bpmn_1_1tResourceRole.html" target="_top" xlink:title=" ">
<polygon fill="none" stroke="black" points="0,-282.5 0,-383.5 181,-383.5 181,-282.5 0,-282.5"/>
<text text-anchor="middle" x="90.5" y="-371.5" font-family="Helvetica,sans-Serif" font-size="10.00">XML::bpmn::tResourceRole</text>
<polyline fill="none" stroke="black" points="0,-364.5 181,-364.5 "/>
<text text-anchor="start" x="8" y="-352.5" font-family="Helvetica,sans-Serif" font-size="10.00">+ resourceAssignmentExpression</text>
<text text-anchor="start" x="8" y="-341.5" font-family="Helvetica,sans-Serif" font-size="10.00">+ resourceRef</text>
<text text-anchor="start" x="8" y="-330.5" font-family="Helvetica,sans-Serif" font-size="10.00">+ resourceParameterBinding</text>
<text text-anchor="start" x="8" y="-319.5" font-family="Helvetica,sans-Serif" font-size="10.00">+ name</text>
<text text-anchor="start" x="8" y="-308.5" font-family="Helvetica,sans-Serif" font-size="10.00">+ defaults</text>
<polyline fill="none" stroke="black" points="0,-301.5 181,-301.5 "/>
<text text-anchor="start" x="8" y="-289.5" font-family="Helvetica,sans-Serif" font-size="10.00"># tResourceRole()</text>
</a>
</g>
</g>
<!-- Node4&#45;&gt;Node3 -->
<g id="edge3" class="edge">
<title>Node4&#45;&gt;Node3</title>
<path fill="none" stroke="midnightblue" d="M90.5,-272.23C90.5,-262.92 90.5,-253.71 90.5,-245.59"/>
<polygon fill="none" stroke="midnightblue" points="87,-272.33 90.5,-282.33 94,-272.33 87,-272.33"/>
</g>
<!-- Node5 -->
<g id="node5" class="node">
<title>Node5</title>
<g id="a_node5"><a xlink:href="classXML_1_1bpmn_1_1tBaseElement.html" target="_top" xlink:title=" ">
<polygon fill="none" stroke="black" points="17.5,-420.5 17.5,-510.5 163.5,-510.5 163.5,-420.5 17.5,-420.5"/>
<text text-anchor="middle" x="90.5" y="-498.5" font-family="Helvetica,sans-Serif" font-size="10.00">XML::bpmn::tBaseElement</text>
<polyline fill="none" stroke="black" points="17.5,-491.5 163.5,-491.5 "/>
<text text-anchor="start" x="25.5" y="-479.5" font-family="Helvetica,sans-Serif" font-size="10.00">+ documentation</text>
<text text-anchor="start" x="25.5" y="-468.5" font-family="Helvetica,sans-Serif" font-size="10.00">+ extensionElements</text>
<text text-anchor="start" x="25.5" y="-457.5" font-family="Helvetica,sans-Serif" font-size="10.00">+ id</text>
<text text-anchor="start" x="25.5" y="-446.5" font-family="Helvetica,sans-Serif" font-size="10.00">+ defaults</text>
<polyline fill="none" stroke="black" points="17.5,-439.5 163.5,-439.5 "/>
<text text-anchor="start" x="25.5" y="-427.5" font-family="Helvetica,sans-Serif" font-size="10.00"># tBaseElement()</text>
</a>
</g>
</g>
<!-- Node5&#45;&gt;Node4 -->
<g id="edge4" class="edge">
<title>Node5&#45;&gt;Node4</title>
<path fill="none" stroke="midnightblue" d="M90.5,-410.13C90.5,-401.31 90.5,-392.22 90.5,-383.52"/>
<polygon fill="none" stroke="midnightblue" points="87,-410.32 90.5,-420.32 94,-410.32 87,-410.32"/>
</g>
<!-- Node6 -->
<g id="node6" class="node">
<title>Node6</title>
<g id="a_node6"><a xlink:href="classXML_1_1XMLObject.html" target="_top" xlink:title="A class representing a node in an XML&#45;tree.">
<polygon fill="none" stroke="black" points="27.5,-547.5 27.5,-857.5 153.5,-857.5 153.5,-547.5 27.5,-547.5"/>
<text text-anchor="middle" x="90.5" y="-845.5" font-family="Helvetica,sans-Serif" font-size="10.00">XML::XMLObject</text>
<polyline fill="none" stroke="black" points="27.5,-838.5 153.5,-838.5 "/>
<text text-anchor="start" x="35.5" y="-826.5" font-family="Helvetica,sans-Serif" font-size="10.00">+ xmlns</text>
<text text-anchor="start" x="35.5" y="-815.5" font-family="Helvetica,sans-Serif" font-size="10.00">+ className</text>
<text text-anchor="start" x="35.5" y="-804.5" font-family="Helvetica,sans-Serif" font-size="10.00">+ prefix</text>
<text text-anchor="start" x="35.5" y="-793.5" font-family="Helvetica,sans-Serif" font-size="10.00">+ elementName</text>
<text text-anchor="start" x="35.5" y="-782.5" font-family="Helvetica,sans-Serif" font-size="10.00">+ textContent</text>
<text text-anchor="start" x="35.5" y="-771.5" font-family="Helvetica,sans-Serif" font-size="10.00">+ children</text>
<text text-anchor="start" x="35.5" y="-760.5" font-family="Helvetica,sans-Serif" font-size="10.00">+ attributes</text>
<text text-anchor="start" x="35.5" y="-749.5" font-family="Helvetica,sans-Serif" font-size="10.00">+ defaults</text>
<text text-anchor="start" x="35.5" y="-738.5" font-family="Helvetica,sans-Serif" font-size="10.00"># factory</text>
<polyline fill="none" stroke="black" points="27.5,-731.5 153.5,-731.5 "/>
<text text-anchor="start" x="35.5" y="-719.5" font-family="Helvetica,sans-Serif" font-size="10.00">+ ~XMLObject()</text>
<text text-anchor="start" x="35.5" y="-708.5" font-family="Helvetica,sans-Serif" font-size="10.00">+ is()</text>
<text text-anchor="start" x="35.5" y="-697.5" font-family="Helvetica,sans-Serif" font-size="10.00">+ is()</text>
<text text-anchor="start" x="35.5" y="-686.5" font-family="Helvetica,sans-Serif" font-size="10.00">+ get()</text>
<text text-anchor="start" x="35.5" y="-675.5" font-family="Helvetica,sans-Serif" font-size="10.00">+ get()</text>
<text text-anchor="start" x="35.5" y="-664.5" font-family="Helvetica,sans-Serif" font-size="10.00">+ find()</text>
<text text-anchor="start" x="35.5" y="-653.5" font-family="Helvetica,sans-Serif" font-size="10.00">+ find()</text>
<text text-anchor="start" x="35.5" y="-642.5" font-family="Helvetica,sans-Serif" font-size="10.00">+ stringify()</text>
<text text-anchor="start" x="35.5" y="-631.5" font-family="Helvetica,sans-Serif" font-size="10.00">+ format()</text>
<text text-anchor="start" x="35.5" y="-620.5" font-family="Helvetica,sans-Serif" font-size="10.00">+ getRequiredChild()</text>
<text text-anchor="start" x="35.5" y="-609.5" font-family="Helvetica,sans-Serif" font-size="10.00">and 7 more...</text>
<text text-anchor="start" x="35.5" y="-598.5" font-family="Helvetica,sans-Serif" font-size="10.00">+ createFromStream()</text>
<text text-anchor="start" x="35.5" y="-587.5" font-family="Helvetica,sans-Serif" font-size="10.00">+ createFromString()</text>
<text text-anchor="start" x="35.5" y="-576.5" font-family="Helvetica,sans-Serif" font-size="10.00">+ createFromFile()</text>
<text text-anchor="start" x="35.5" y="-565.5" font-family="Helvetica,sans-Serif" font-size="10.00"># XMLObject()</text>
<text text-anchor="start" x="35.5" y="-554.5" font-family="Helvetica,sans-Serif" font-size="10.00"># createObject()</text>
</a>
</g>
</g>
<!-- Node6&#45;&gt;Node5 -->
<g id="edge5" class="edge">
<title>Node6&#45;&gt;Node5</title>
<path fill="none" stroke="midnightblue" d="M90.5,-537.35C90.5,-527.89 90.5,-518.91 90.5,-510.72"/>
<polygon fill="none" stroke="midnightblue" points="87,-537.37 90.5,-547.37 94,-537.37 87,-537.37"/>
</g>
</g>
</svg>
