<?xml version="1.0" encoding="UTF-8" standalone="no"?>
<!DOCTYPE svg PUBLIC "-//W3C//DTD SVG 1.1//EN"
 "http://www.w3.org/Graphics/SVG/1.1/DTD/svg11.dtd">
<!-- Generated by graphviz version 2.43.0 (0)
 -->
<!-- Title: BPMN::CatchEvent Pages: 1 -->
<svg width="2692pt" height="883pt"
 viewBox="0.00 0.00 2692.00 883.00" xmlns="http://www.w3.org/2000/svg" xmlns:xlink="http://www.w3.org/1999/xlink">
<g id="graph0" class="graph" transform="scale(1 1) rotate(0) translate(4 879)">
<title>BPMN::CatchEvent</title>
<!-- Node1 -->
<g id="node1" class="node">
<title>Node1</title>
<g id="a_node1"><a xlink:title=" ">
<polygon fill="#bfbfbf" stroke="black" points="850,-221.5 850,-278.5 957,-278.5 957,-221.5 850,-221.5"/>
<text text-anchor="middle" x="903.5" y="-266.5" font-family="Helvetica,sans-Serif" font-size="10.00">BPMN::CatchEvent</text>
<polyline fill="none" stroke="black" points="850,-259.5 957,-259.5 "/>
<text text-anchor="start" x="858" y="-247.5" font-family="Helvetica,sans-Serif" font-size="10.00">+ element</text>
<polyline fill="none" stroke="black" points="850,-240.5 957,-240.5 "/>
<text text-anchor="start" x="858" y="-228.5" font-family="Helvetica,sans-Serif" font-size="10.00">+ CatchEvent()</text>
</a>
</g>
</g>
<!-- Node6 -->
<g id="node6" class="node">
<title>Node6</title>
<g id="a_node6"><a xlink:href="classBPMN_1_1BoundaryEvent.html" target="_top" xlink:title="Base class for all boundary events attached to an Activity.">
<polygon fill="none" stroke="black" points="595.5,-105.5 595.5,-184.5 721.5,-184.5 721.5,-105.5 595.5,-105.5"/>
<text text-anchor="middle" x="658.5" y="-172.5" font-family="Helvetica,sans-Serif" font-size="10.00">BPMN::BoundaryEvent</text>
<polyline fill="none" stroke="black" points="595.5,-165.5 721.5,-165.5 "/>
<text text-anchor="start" x="603.5" y="-153.5" font-family="Helvetica,sans-Serif" font-size="10.00">+ isInterrupting</text>
<text text-anchor="start" x="603.5" y="-142.5" font-family="Helvetica,sans-Serif" font-size="10.00">+ attachedTo</text>
<polyline fill="none" stroke="black" points="595.5,-135.5 721.5,-135.5 "/>
<text text-anchor="start" x="603.5" y="-123.5" font-family="Helvetica,sans-Serif" font-size="10.00">+ BoundaryEvent()</text>
<text text-anchor="start" x="603.5" y="-112.5" font-family="Helvetica,sans-Serif" font-size="10.00"># resolveReference()</text>
</a>
</g>
</g>
<!-- Node1&#45;&gt;Node6 -->
<g id="edge5" class="edge">
<title>Node1&#45;&gt;Node6</title>
<path fill="none" stroke="midnightblue" d="M840.14,-227.99C807.02,-216.4 766.08,-201.12 730.5,-185 727.65,-183.71 724.76,-182.35 721.86,-180.95"/>
<polygon fill="none" stroke="midnightblue" points="839.11,-231.34 849.71,-231.31 841.41,-224.73 839.11,-231.34"/>
</g>
<!-- Node7 -->
<g id="node7" class="node">
<title>Node7</title>
<g id="a_node7"><a xlink:href="classBPMN_1_1CancelBoundaryEvent.html" target="_top" xlink:title=" ">
<polygon fill="none" stroke="black" points="0,-6 0,-63 159,-63 159,-6 0,-6"/>
<text text-anchor="middle" x="79.5" y="-51" font-family="Helvetica,sans-Serif" font-size="10.00">BPMN::CancelBoundaryEvent</text>
<polyline fill="none" stroke="black" points="0,-44 159,-44 "/>
<text text-anchor="start" x="8" y="-32" font-family="Helvetica,sans-Serif" font-size="10.00">+ element</text>
<polyline fill="none" stroke="black" points="0,-25 159,-25 "/>
<text text-anchor="start" x="8" y="-13" font-family="Helvetica,sans-Serif" font-size="10.00">+ CancelBoundaryEvent()</text>
</a>
</g>
</g>
<!-- Node1&#45;&gt;Node7 -->
<g id="edge14" class="edge">
<title>Node1&#45;&gt;Node7</title>
<path fill="none" stroke="midnightblue" d="M839.58,-249.94C733.57,-249.71 515.9,-241.55 342.5,-185 255.87,-156.75 165.86,-98.12 116.84,-63.27"/>
<polygon fill="none" stroke="midnightblue" points="839.79,-253.44 849.79,-249.94 839.79,-246.44 839.79,-253.44"/>
</g>
<!-- Node8 -->
<g id="node8" class="node">
<title>Node8</title>
<g id="a_node8"><a xlink:href="classBPMN_1_1CompensateBoundaryEvent.html" target="_top" xlink:title=" ">
<polygon fill="none" stroke="black" points="177,-0.5 177,-68.5 348,-68.5 348,-0.5 177,-0.5"/>
<text text-anchor="start" x="185" y="-56.5" font-family="Helvetica,sans-Serif" font-size="10.00">BPMN::CompensateBoundary</text>
<text text-anchor="middle" x="262.5" y="-45.5" font-family="Helvetica,sans-Serif" font-size="10.00">Event</text>
<polyline fill="none" stroke="black" points="177,-38.5 348,-38.5 "/>
<text text-anchor="start" x="185" y="-26.5" font-family="Helvetica,sans-Serif" font-size="10.00">+ element</text>
<polyline fill="none" stroke="black" points="177,-19.5 348,-19.5 "/>
<text text-anchor="start" x="185" y="-7.5" font-family="Helvetica,sans-Serif" font-size="10.00">+ CompensateBoundaryEvent()</text>
</a>
</g>
</g>
<!-- Node1&#45;&gt;Node8 -->
<g id="edge15" class="edge">
<title>Node1&#45;&gt;Node8</title>
<path fill="none" stroke="midnightblue" d="M839.67,-248.09C754.99,-244.94 602.15,-232.45 481.5,-185 411.03,-157.28 340.7,-103.46 299.42,-68.52"/>
<polygon fill="none" stroke="midnightblue" points="839.79,-251.59 849.9,-248.43 840.03,-244.6 839.79,-251.59"/>
</g>
<!-- Node10 -->
<g id="node10" class="node">
<title>Node10</title>
<g id="a_node10"><a xlink:href="classBPMN_1_1ErrorBoundaryEvent.html" target="_top" xlink:title=" ">
<polygon fill="none" stroke="black" points="366,-6 366,-63 515,-63 515,-6 366,-6"/>
<text text-anchor="middle" x="440.5" y="-51" font-family="Helvetica,sans-Serif" font-size="10.00">BPMN::ErrorBoundaryEvent</text>
<polyline fill="none" stroke="black" points="366,-44 515,-44 "/>
<text text-anchor="start" x="374" y="-32" font-family="Helvetica,sans-Serif" font-size="10.00">+ element</text>
<polyline fill="none" stroke="black" points="366,-25 515,-25 "/>
<text text-anchor="start" x="374" y="-13" font-family="Helvetica,sans-Serif" font-size="10.00">+ ErrorBoundaryEvent()</text>
</a>
</g>
</g>
<!-- Node1&#45;&gt;Node10 -->
<g id="edge19" class="edge">
<title>Node1&#45;&gt;Node10</title>
<path fill="none" stroke="midnightblue" d="M839.64,-249C769.05,-246.34 654.15,-233.93 569.5,-185 518.15,-155.32 477.29,-97.48 456.2,-63.1"/>
<polygon fill="none" stroke="midnightblue" points="839.62,-252.5 849.73,-249.32 839.84,-245.5 839.62,-252.5"/>
</g>
<!-- Node11 -->
<g id="node11" class="node">
<title>Node11</title>
<g id="a_node11"><a xlink:href="classBPMN_1_1EscalationBoundaryEvent.html" target="_top" xlink:title=" ">
<polygon fill="none" stroke="black" points="533.5,-0.5 533.5,-68.5 693.5,-68.5 693.5,-0.5 533.5,-0.5"/>
<text text-anchor="start" x="541.5" y="-56.5" font-family="Helvetica,sans-Serif" font-size="10.00">BPMN::EscalationBoundary</text>
<text text-anchor="middle" x="613.5" y="-45.5" font-family="Helvetica,sans-Serif" font-size="10.00">Event</text>
<polyline fill="none" stroke="black" points="533.5,-38.5 693.5,-38.5 "/>
<text text-anchor="start" x="541.5" y="-26.5" font-family="Helvetica,sans-Serif" font-size="10.00">+ element</text>
<polyline fill="none" stroke="black" points="533.5,-19.5 693.5,-19.5 "/>
<text text-anchor="start" x="541.5" y="-7.5" font-family="Helvetica,sans-Serif" font-size="10.00">+ EscalationBoundaryEvent()</text>
</a>
</g>
</g>
<!-- Node1&#45;&gt;Node11 -->
<g id="edge20" class="edge">
<title>Node1&#45;&gt;Node11</title>
<path fill="none" stroke="midnightblue" d="M839.7,-245.4C756.5,-239.22 617.86,-223.32 586.5,-185 559.69,-152.24 577.11,-101.79 593.84,-68.72"/>
<polygon fill="none" stroke="midnightblue" points="839.58,-248.9 849.81,-246.12 840.08,-241.92 839.58,-248.9"/>
</g>
<!-- Node15 -->
<g id="node15" class="node">
<title>Node15</title>
<g id="a_node15"><a xlink:href="classBPMN_1_1ConditionalCatchEvent.html" target="_top" xlink:title=" ">
<polygon fill="none" stroke="black" points="740,-116.5 740,-173.5 903,-173.5 903,-116.5 740,-116.5"/>
<text text-anchor="middle" x="821.5" y="-161.5" font-family="Helvetica,sans-Serif" font-size="10.00">BPMN::ConditionalCatchEvent</text>
<polyline fill="none" stroke="black" points="740,-154.5 903,-154.5 "/>
<text text-anchor="middle" x="821.5" y="-142.5" font-family="Helvetica,sans-Serif" font-size="10.00"> </text>
<polyline fill="none" stroke="black" points="740,-135.5 903,-135.5 "/>
<text text-anchor="start" x="748" y="-123.5" font-family="Helvetica,sans-Serif" font-size="10.00">+ ConditionalCatchEvent()</text>
</a>
</g>
</g>
<!-- Node1&#45;&gt;Node15 -->
<g id="edge16" class="edge">
<title>Node1&#45;&gt;Node15</title>
<path fill="none" stroke="midnightblue" d="M875.25,-213.51C864.87,-200.48 853.29,-185.93 843.54,-173.68"/>
<polygon fill="none" stroke="midnightblue" points="872.56,-215.75 881.53,-221.4 878.04,-211.39 872.56,-215.75"/>
</g>
<!-- Node17 -->
<g id="node17" class="node">
<title>Node17</title>
<g id="a_node17"><a xlink:href="classBPMN_1_1LinkTargetEvent.html" target="_top" xlink:title=" ">
<polygon fill="none" stroke="black" points="921.5,-111 921.5,-179 1051.5,-179 1051.5,-111 921.5,-111"/>
<text text-anchor="middle" x="986.5" y="-167" font-family="Helvetica,sans-Serif" font-size="10.00">BPMN::LinkTargetEvent</text>
<polyline fill="none" stroke="black" points="921.5,-160 1051.5,-160 "/>
<text text-anchor="start" x="929.5" y="-148" font-family="Helvetica,sans-Serif" font-size="10.00">+ linkName</text>
<text text-anchor="start" x="929.5" y="-137" font-family="Helvetica,sans-Serif" font-size="10.00">+ sources</text>
<polyline fill="none" stroke="black" points="921.5,-130 1051.5,-130 "/>
<text text-anchor="start" x="929.5" y="-118" font-family="Helvetica,sans-Serif" font-size="10.00">+ LinkTargetEvent()</text>
</a>
</g>
</g>
<!-- Node1&#45;&gt;Node17 -->
<g id="edge21" class="edge">
<title>Node1&#45;&gt;Node17</title>
<path fill="none" stroke="midnightblue" d="M932.09,-213.52C941.06,-202.39 950.92,-190.15 959.76,-179.18"/>
<polygon fill="none" stroke="midnightblue" points="929.29,-211.42 925.74,-221.4 934.74,-215.81 929.29,-211.42"/>
</g>
<!-- Node18 -->
<g id="node18" class="node">
<title>Node18</title>
<g id="a_node18"><a xlink:href="classBPMN_1_1MessageCatchEvent.html" target="_top" xlink:title=" ">
<polygon fill="none" stroke="black" points="1070,-116.5 1070,-173.5 1221,-173.5 1221,-116.5 1070,-116.5"/>
<text text-anchor="middle" x="1145.5" y="-161.5" font-family="Helvetica,sans-Serif" font-size="10.00">BPMN::MessageCatchEvent</text>
<polyline fill="none" stroke="black" points="1070,-154.5 1221,-154.5 "/>
<text text-anchor="middle" x="1145.5" y="-142.5" font-family="Helvetica,sans-Serif" font-size="10.00"> </text>
<polyline fill="none" stroke="black" points="1070,-135.5 1221,-135.5 "/>
<text text-anchor="start" x="1078" y="-123.5" font-family="Helvetica,sans-Serif" font-size="10.00">+ MessageCatchEvent()</text>
</a>
</g>
</g>
<!-- Node1&#45;&gt;Node18 -->
<g id="edge22" class="edge">
<title>Node1&#45;&gt;Node18</title>
<path fill="none" stroke="midnightblue" d="M966.67,-223.97C995.42,-212.4 1029.8,-198.29 1060.5,-185 1068.84,-181.39 1077.6,-177.49 1086.2,-173.6"/>
<polygon fill="none" stroke="midnightblue" points="965.12,-220.82 957.15,-227.8 967.73,-227.32 965.12,-220.82"/>
</g>
<!-- Node21 -->
<g id="node21" class="node">
<title>Node21</title>
<g id="a_node21"><a xlink:href="classBPMN_1_1SignalCatchEvent.html" target="_top" xlink:title=" ">
<polygon fill="none" stroke="black" points="1239,-116.5 1239,-173.5 1376,-173.5 1376,-116.5 1239,-116.5"/>
<text text-anchor="middle" x="1307.5" y="-161.5" font-family="Helvetica,sans-Serif" font-size="10.00">BPMN::SignalCatchEvent</text>
<polyline fill="none" stroke="black" points="1239,-154.5 1376,-154.5 "/>
<text text-anchor="middle" x="1307.5" y="-142.5" font-family="Helvetica,sans-Serif" font-size="10.00"> </text>
<polyline fill="none" stroke="black" points="1239,-135.5 1376,-135.5 "/>
<text text-anchor="start" x="1247" y="-123.5" font-family="Helvetica,sans-Serif" font-size="10.00">+ SignalCatchEvent()</text>
</a>
</g>
</g>
<!-- Node1&#45;&gt;Node21 -->
<g id="edge26" class="edge">
<title>Node1&#45;&gt;Node21</title>
<path fill="none" stroke="midnightblue" d="M967.03,-241.84C1033.92,-233.09 1141.65,-215.54 1230.5,-185 1239.57,-181.88 1248.92,-177.89 1257.84,-173.65"/>
<polygon fill="none" stroke="midnightblue" points="966.53,-238.37 957.06,-243.12 967.42,-245.32 966.53,-238.37"/>
</g>
<!-- Node23 -->
<g id="node23" class="node">
<title>Node23</title>
<g id="a_node23"><a xlink:href="classBPMN_1_1TimerCatchEvent.html" target="_top" xlink:title=" ">
<polygon fill="none" stroke="black" points="1399.5,-116.5 1399.5,-173.5 1535.5,-173.5 1535.5,-116.5 1399.5,-116.5"/>
<text text-anchor="middle" x="1467.5" y="-161.5" font-family="Helvetica,sans-Serif" font-size="10.00">BPMN::TimerCatchEvent</text>
<polyline fill="none" stroke="black" points="1399.5,-154.5 1535.5,-154.5 "/>
<text text-anchor="middle" x="1467.5" y="-142.5" font-family="Helvetica,sans-Serif" font-size="10.00"> </text>
<polyline fill="none" stroke="black" points="1399.5,-135.5 1535.5,-135.5 "/>
<text text-anchor="start" x="1407.5" y="-123.5" font-family="Helvetica,sans-Serif" font-size="10.00">+ TimerCatchEvent()</text>
</a>
</g>
</g>
<!-- Node1&#45;&gt;Node23 -->
<g id="edge29" class="edge">
<title>Node1&#45;&gt;Node23</title>
<path fill="none" stroke="midnightblue" d="M967.2,-246.84C1060.7,-242.26 1239.81,-228.16 1385.5,-185 1395.48,-182.05 1405.76,-178.02 1415.53,-173.68"/>
<polygon fill="none" stroke="midnightblue" points="966.87,-243.35 957.05,-247.31 967.2,-250.34 966.87,-243.35"/>
</g>
<!-- Node25 -->
<g id="node25" class="node">
<title>Node25</title>
<g id="a_node25"><a xlink:href="classBPMN_1_1TypedStartEvent.html" target="_top" xlink:title="Base class for all start events with an event definition.">
<polygon fill="none" stroke="black" points="1905,-116.5 1905,-173.5 2036,-173.5 2036,-116.5 1905,-116.5"/>
<text text-anchor="middle" x="1970.5" y="-161.5" font-family="Helvetica,sans-Serif" font-size="10.00">BPMN::TypedStartEvent</text>
<polyline fill="none" stroke="black" points="1905,-154.5 2036,-154.5 "/>
<text text-anchor="start" x="1913" y="-142.5" font-family="Helvetica,sans-Serif" font-size="10.00">+ isInterrupting</text>
<polyline fill="none" stroke="black" points="1905,-135.5 2036,-135.5 "/>
<text text-anchor="start" x="1913" y="-123.5" font-family="Helvetica,sans-Serif" font-size="10.00">+ TypedStartEvent()</text>
</a>
</g>
</g>
<!-- Node1&#45;&gt;Node25 -->
<g id="edge32" class="edge">
<title>Node1&#45;&gt;Node25</title>
<path fill="none" stroke="midnightblue" d="M967.2,-242.85C1156.3,-224.6 1713.13,-170.84 1904.8,-152.34"/>
<polygon fill="none" stroke="midnightblue" points="966.76,-239.38 957.14,-243.82 967.43,-246.34 966.76,-239.38"/>
</g>
<!-- Node29 -->
<g id="node29" class="node">
<title>Node29</title>
<g id="a_node29"><a xlink:href="classBPMN_1_1UntypedStartEvent.html" target="_top" xlink:title=" ">
<polygon fill="none" stroke="black" points="2054.5,-116.5 2054.5,-173.5 2198.5,-173.5 2198.5,-116.5 2054.5,-116.5"/>
<text text-anchor="middle" x="2126.5" y="-161.5" font-family="Helvetica,sans-Serif" font-size="10.00">BPMN::UntypedStartEvent</text>
<polyline fill="none" stroke="black" points="2054.5,-154.5 2198.5,-154.5 "/>
<text text-anchor="middle" x="2126.5" y="-142.5" font-family="Helvetica,sans-Serif" font-size="10.00"> </text>
<polyline fill="none" stroke="black" points="2054.5,-135.5 2198.5,-135.5 "/>
<text text-anchor="start" x="2062.5" y="-123.5" font-family="Helvetica,sans-Serif" font-size="10.00">+ UntypedStartEvent()</text>
</a>
</g>
</g>
<!-- Node1&#45;&gt;Node29 -->
<g id="edge40" class="edge">
<title>Node1&#45;&gt;Node29</title>
<path fill="none" stroke="midnightblue" d="M967.53,-248.69C1176.86,-247.17 1839.27,-238.18 2045.5,-185 2056.08,-182.27 2066.93,-178.12 2077.11,-173.53"/>
<polygon fill="none" stroke="midnightblue" points="967.3,-245.19 957.32,-248.76 967.35,-252.19 967.3,-245.19"/>
</g>
<!-- Node2 -->
<g id="node2" class="node">
<title>Node2</title>
<g id="a_node2"><a xlink:href="classBPMN_1_1Event.html" target="_top" xlink:title=" ">
<polygon fill="none" stroke="black" points="863.5,-315.5 863.5,-372.5 943.5,-372.5 943.5,-315.5 863.5,-315.5"/>
<text text-anchor="middle" x="903.5" y="-360.5" font-family="Helvetica,sans-Serif" font-size="10.00">BPMN::Event</text>
<polyline fill="none" stroke="black" points="863.5,-353.5 943.5,-353.5 "/>
<text text-anchor="start" x="871.5" y="-341.5" font-family="Helvetica,sans-Serif" font-size="10.00">+ element</text>
<polyline fill="none" stroke="black" points="863.5,-334.5 943.5,-334.5 "/>
<text text-anchor="start" x="871.5" y="-322.5" font-family="Helvetica,sans-Serif" font-size="10.00">+ Event()</text>
</a>
</g>
</g>
<!-- Node2&#45;&gt;Node1 -->
<g id="edge1" class="edge">
<title>Node2&#45;&gt;Node1</title>
<path fill="none" stroke="midnightblue" d="M903.5,-305.21C903.5,-296.29 903.5,-286.95 903.5,-278.58"/>
<polygon fill="none" stroke="midnightblue" points="900,-305.4 903.5,-315.4 907,-305.4 900,-305.4"/>
</g>
<!-- Node3 -->
<g id="node3" class="node">
<title>Node3</title>
<g id="a_node3"><a xlink:href="classBPMN_1_1FlowNode.html" target="_top" xlink:title="Base class for BPMN elements that may contain incoming and outgoing sequence flows.">
<polygon fill="none" stroke="black" points="853,-409.5 853,-499.5 954,-499.5 954,-409.5 853,-409.5"/>
<text text-anchor="middle" x="903.5" y="-487.5" font-family="Helvetica,sans-Serif" font-size="10.00">BPMN::FlowNode</text>
<polyline fill="none" stroke="black" points="853,-480.5 954,-480.5 "/>
<text text-anchor="start" x="861" y="-468.5" font-family="Helvetica,sans-Serif" font-size="10.00">+ element</text>
<text text-anchor="start" x="861" y="-457.5" font-family="Helvetica,sans-Serif" font-size="10.00">+ name</text>
<text text-anchor="start" x="861" y="-446.5" font-family="Helvetica,sans-Serif" font-size="10.00">+ incoming</text>
<text text-anchor="start" x="861" y="-435.5" font-family="Helvetica,sans-Serif" font-size="10.00">+ outgoing</text>
<polyline fill="none" stroke="black" points="853,-428.5 954,-428.5 "/>
<text text-anchor="start" x="861" y="-416.5" font-family="Helvetica,sans-Serif" font-size="10.00">+ FlowNode()</text>
</a>
</g>
</g>
<!-- Node3&#45;&gt;Node2 -->
<g id="edge2" class="edge">
<title>Node3&#45;&gt;Node2</title>
<path fill="none" stroke="midnightblue" d="M903.5,-399.35C903.5,-390.07 903.5,-380.79 903.5,-372.59"/>
<polygon fill="none" stroke="midnightblue" points="900,-399.37 903.5,-409.37 907,-399.37 900,-399.37"/>
</g>
<!-- Node4 -->
<g id="node4" class="node">
<title>Node4</title>
<g id="a_node4"><a xlink:href="classBPMN_1_1ChildNode.html" target="_top" xlink:title="Base class for BPMN elements within a Scope.">
<polygon fill="none" stroke="black" points="852.5,-536.5 852.5,-593.5 954.5,-593.5 954.5,-536.5 852.5,-536.5"/>
<text text-anchor="middle" x="903.5" y="-581.5" font-family="Helvetica,sans-Serif" font-size="10.00">BPMN::ChildNode</text>
<polyline fill="none" stroke="black" points="852.5,-574.5 954.5,-574.5 "/>
<text text-anchor="start" x="860.5" y="-562.5" font-family="Helvetica,sans-Serif" font-size="10.00">+ parent</text>
<polyline fill="none" stroke="black" points="852.5,-555.5 954.5,-555.5 "/>
<text text-anchor="start" x="860.5" y="-543.5" font-family="Helvetica,sans-Serif" font-size="10.00">+ ChildNode()</text>
</a>
</g>
</g>
<!-- Node4&#45;&gt;Node3 -->
<g id="edge3" class="edge">
<title>Node4&#45;&gt;Node3</title>
<path fill="none" stroke="midnightblue" d="M903.5,-526.21C903.5,-517.61 903.5,-508.39 903.5,-499.55"/>
<polygon fill="none" stroke="midnightblue" points="900,-526.34 903.5,-536.34 907,-526.34 900,-526.34"/>
</g>
<!-- Node5 -->
<g id="node5" class="node">
<title>Node5</title>
<g id="a_node5"><a xlink:href="classBPMN_1_1Node.html" target="_top" xlink:title="Base class for all elements in a BPMN model.">
<polygon fill="none" stroke="black" points="842.5,-630.5 842.5,-874.5 964.5,-874.5 964.5,-630.5 842.5,-630.5"/>
<text text-anchor="middle" x="903.5" y="-862.5" font-family="Helvetica,sans-Serif" font-size="10.00">BPMN::Node</text>
<polyline fill="none" stroke="black" points="842.5,-855.5 964.5,-855.5 "/>
<text text-anchor="start" x="850.5" y="-843.5" font-family="Helvetica,sans-Serif" font-size="10.00">+ id</text>
<text text-anchor="start" x="850.5" y="-832.5" font-family="Helvetica,sans-Serif" font-size="10.00">+ receiving</text>
<text text-anchor="start" x="850.5" y="-821.5" font-family="Helvetica,sans-Serif" font-size="10.00">+ sending</text>
<text text-anchor="start" x="850.5" y="-810.5" font-family="Helvetica,sans-Serif" font-size="10.00">+ element</text>
<text text-anchor="start" x="850.5" y="-799.5" font-family="Helvetica,sans-Serif" font-size="10.00">+ extensionElements</text>
<polyline fill="none" stroke="black" points="842.5,-792.5 964.5,-792.5 "/>
<text text-anchor="start" x="850.5" y="-780.5" font-family="Helvetica,sans-Serif" font-size="10.00">+ Node()</text>
<text text-anchor="start" x="850.5" y="-769.5" font-family="Helvetica,sans-Serif" font-size="10.00">+ ~Node()</text>
<text text-anchor="start" x="850.5" y="-758.5" font-family="Helvetica,sans-Serif" font-size="10.00">+ is()</text>
<text text-anchor="start" x="850.5" y="-747.5" font-family="Helvetica,sans-Serif" font-size="10.00">+ is()</text>
<text text-anchor="start" x="850.5" y="-736.5" font-family="Helvetica,sans-Serif" font-size="10.00">+ get()</text>
<text text-anchor="start" x="850.5" y="-725.5" font-family="Helvetica,sans-Serif" font-size="10.00">+ get()</text>
<text text-anchor="start" x="850.5" y="-714.5" font-family="Helvetica,sans-Serif" font-size="10.00">+ represents()</text>
<text text-anchor="start" x="850.5" y="-703.5" font-family="Helvetica,sans-Serif" font-size="10.00">+ represents()</text>
<text text-anchor="start" x="850.5" y="-692.5" font-family="Helvetica,sans-Serif" font-size="10.00">+ as()</text>
<text text-anchor="start" x="850.5" y="-681.5" font-family="Helvetica,sans-Serif" font-size="10.00">+ as()</text>
<text text-anchor="start" x="850.5" y="-670.5" font-family="Helvetica,sans-Serif" font-size="10.00">+ find()</text>
<text text-anchor="start" x="850.5" y="-659.5" font-family="Helvetica,sans-Serif" font-size="10.00">+ find()</text>
<text text-anchor="start" x="850.5" y="-648.5" font-family="Helvetica,sans-Serif" font-size="10.00">+ find_all()</text>
<text text-anchor="start" x="850.5" y="-637.5" font-family="Helvetica,sans-Serif" font-size="10.00">+ find_all()</text>
</a>
</g>
</g>
<!-- Node5&#45;&gt;Node4 -->
<g id="edge4" class="edge">
<title>Node5&#45;&gt;Node4</title>
<path fill="none" stroke="midnightblue" d="M903.5,-620.34C903.5,-610.53 903.5,-601.42 903.5,-593.57"/>
<polygon fill="none" stroke="midnightblue" points="900,-620.36 903.5,-630.36 907,-620.36 900,-620.36"/>
</g>
<!-- Node6&#45;&gt;Node7 -->
<g id="edge6" class="edge">
<title>Node6&#45;&gt;Node7</title>
<path fill="none" stroke="midnightblue" d="M585.26,-137.71C488.43,-128.28 313.07,-107.36 167.5,-69 161.02,-67.29 154.36,-65.27 147.74,-63.08"/>
<polygon fill="none" stroke="midnightblue" points="584.95,-141.19 595.24,-138.66 585.62,-134.22 584.95,-141.19"/>
</g>
<!-- Node6&#45;&gt;Node8 -->
<g id="edge7" class="edge">
<title>Node6&#45;&gt;Node8</title>
<path fill="none" stroke="midnightblue" d="M585.25,-127.95C523.75,-113.96 433.79,-92.31 356.5,-69 353.76,-68.17 350.99,-67.32 348.19,-66.43"/>
<polygon fill="none" stroke="midnightblue" points="584.72,-131.42 595.25,-130.21 586.27,-124.59 584.72,-131.42"/>
</g>
<!-- Node9 -->
<g id="node9" class="node">
<title>Node9</title>
<g id="a_node9"><a xlink:href="classBPMN_1_1ConditionalBoundaryEvent.html" target="_top" xlink:title=" ">
<polygon fill="none" stroke="black" points="712,-0.5 712,-68.5 877,-68.5 877,-0.5 712,-0.5"/>
<text text-anchor="start" x="720" y="-56.5" font-family="Helvetica,sans-Serif" font-size="10.00">BPMN::ConditionalBoundary</text>
<text text-anchor="middle" x="794.5" y="-45.5" font-family="Helvetica,sans-Serif" font-size="10.00">Event</text>
<polyline fill="none" stroke="black" points="712,-38.5 877,-38.5 "/>
<text text-anchor="start" x="720" y="-26.5" font-family="Helvetica,sans-Serif" font-size="10.00">+ element</text>
<polyline fill="none" stroke="black" points="712,-19.5 877,-19.5 "/>
<text text-anchor="start" x="720" y="-7.5" font-family="Helvetica,sans-Serif" font-size="10.00">+ ConditionalBoundaryEvent()</text>
</a>
</g>
</g>
<!-- Node6&#45;&gt;Node9 -->
<g id="edge8" class="edge">
<title>Node6&#45;&gt;Node9</title>
<path fill="none" stroke="midnightblue" d="M714.73,-99.14C727.58,-88.89 740.99,-78.19 753.08,-68.54"/>
<polygon fill="none" stroke="midnightblue" points="712.47,-96.47 706.83,-105.44 716.83,-101.94 712.47,-96.47"/>
</g>
<!-- Node6&#45;&gt;Node10 -->
<g id="edge9" class="edge">
<title>Node6&#45;&gt;Node10</title>
<path fill="none" stroke="midnightblue" d="M586.45,-108.14C557.01,-93.49 523.49,-76.8 496,-63.12"/>
<polygon fill="none" stroke="midnightblue" points="584.93,-111.29 595.45,-112.62 588.05,-105.03 584.93,-111.29"/>
</g>
<!-- Node6&#45;&gt;Node11 -->
<g id="edge10" class="edge">
<title>Node6&#45;&gt;Node11</title>
<path fill="none" stroke="midnightblue" d="M638.56,-95.93C634.73,-86.68 630.79,-77.19 627.2,-68.54"/>
<polygon fill="none" stroke="midnightblue" points="635.44,-97.55 642.51,-105.44 641.91,-94.86 635.44,-97.55"/>
</g>
<!-- Node12 -->
<g id="node12" class="node">
<title>Node12</title>
<g id="a_node12"><a xlink:href="classBPMN_1_1MessageBoundaryEvent.html" target="_top" xlink:title=" ">
<polygon fill="none" stroke="black" points="895.5,-6 895.5,-63 1065.5,-63 1065.5,-6 895.5,-6"/>
<text text-anchor="middle" x="980.5" y="-51" font-family="Helvetica,sans-Serif" font-size="10.00">BPMN::MessageBoundaryEvent</text>
<polyline fill="none" stroke="black" points="895.5,-44 1065.5,-44 "/>
<text text-anchor="start" x="903.5" y="-32" font-family="Helvetica,sans-Serif" font-size="10.00">+ element</text>
<polyline fill="none" stroke="black" points="895.5,-25 1065.5,-25 "/>
<text text-anchor="start" x="903.5" y="-13" font-family="Helvetica,sans-Serif" font-size="10.00">+ MessageBoundaryEvent()</text>
</a>
</g>
</g>
<!-- Node6&#45;&gt;Node12 -->
<g id="edge11" class="edge">
<title>Node6&#45;&gt;Node12</title>
<path fill="none" stroke="midnightblue" d="M731.04,-105.1C798.52,-80.64 820.52,-87.94 885.5,-69 891.8,-67.16 898.29,-65.15 904.78,-63.04"/>
<polygon fill="none" stroke="midnightblue" points="729.81,-101.82 721.67,-108.59 732.26,-108.38 729.81,-101.82"/>
</g>
<!-- Node13 -->
<g id="node13" class="node">
<title>Node13</title>
<g id="a_node13"><a xlink:href="classBPMN_1_1SignalBoundaryEvent.html" target="_top" xlink:title=" ">
<polygon fill="none" stroke="black" points="1215.5,-6 1215.5,-63 1371.5,-63 1371.5,-6 1215.5,-6"/>
<text text-anchor="middle" x="1293.5" y="-51" font-family="Helvetica,sans-Serif" font-size="10.00">BPMN::SignalBoundaryEvent</text>
<polyline fill="none" stroke="black" points="1215.5,-44 1371.5,-44 "/>
<text text-anchor="start" x="1223.5" y="-32" font-family="Helvetica,sans-Serif" font-size="10.00">+ element</text>
<polyline fill="none" stroke="black" points="1215.5,-25 1371.5,-25 "/>
<text text-anchor="start" x="1223.5" y="-13" font-family="Helvetica,sans-Serif" font-size="10.00">+ SignalBoundaryEvent()</text>
</a>
</g>
</g>
<!-- Node6&#45;&gt;Node13 -->
<g id="edge12" class="edge">
<title>Node6&#45;&gt;Node13</title>
<path fill="none" stroke="midnightblue" d="M731.72,-105.03C936.13,-47.33 1002.76,-114.89 1206.5,-69 1213.45,-67.44 1220.58,-65.42 1227.62,-63.15"/>
<polygon fill="none" stroke="midnightblue" points="730.52,-101.73 721.89,-107.87 732.46,-108.46 730.52,-101.73"/>
</g>
<!-- Node14 -->
<g id="node14" class="node">
<title>Node14</title>
<g id="a_node14"><a xlink:href="classBPMN_1_1TimerBoundaryEvent.html" target="_top" xlink:title=" ">
<polygon fill="none" stroke="black" points="1390,-6 1390,-63 1545,-63 1545,-6 1390,-6"/>
<text text-anchor="middle" x="1467.5" y="-51" font-family="Helvetica,sans-Serif" font-size="10.00">BPMN::TimerBoundaryEvent</text>
<polyline fill="none" stroke="black" points="1390,-44 1545,-44 "/>
<text text-anchor="start" x="1398" y="-32" font-family="Helvetica,sans-Serif" font-size="10.00">+ element</text>
<polyline fill="none" stroke="black" points="1390,-25 1545,-25 "/>
<text text-anchor="start" x="1398" y="-13" font-family="Helvetica,sans-Serif" font-size="10.00">+ TimerBoundaryEvent()</text>
</a>
</g>
</g>
<!-- Node6&#45;&gt;Node14 -->
<g id="edge13" class="edge">
<title>Node6&#45;&gt;Node14</title>
<path fill="none" stroke="midnightblue" d="M731.87,-105.01C1011,-28.59 1100.93,-129.01 1380.5,-69 1387.62,-67.47 1394.93,-65.45 1402.13,-63.14"/>
<polygon fill="none" stroke="midnightblue" points="730.56,-101.74 721.86,-107.8 732.44,-108.48 730.56,-101.74"/>
</g>
<!-- Node15&#45;&gt;Node9 -->
<g id="edge17" class="edge">
<title>Node15&#45;&gt;Node9</title>
<path fill="none" stroke="midnightblue" d="M812.13,-106.36C809.07,-94.04 805.69,-80.47 802.72,-68.52"/>
<polygon fill="none" stroke="midnightblue" points="808.81,-107.48 814.62,-116.34 815.6,-105.79 808.81,-107.48"/>
</g>
<!-- Node16 -->
<g id="node16" class="node">
<title>Node16</title>
<g id="a_node16"><a xlink:href="classBPMN_1_1ConditionalStartEvent.html" target="_top" xlink:title=" ">
<polygon fill="none" stroke="black" points="1563.5,-6 1563.5,-63 1721.5,-63 1721.5,-6 1563.5,-6"/>
<text text-anchor="middle" x="1642.5" y="-51" font-family="Helvetica,sans-Serif" font-size="10.00">BPMN::ConditionalStartEvent</text>
<polyline fill="none" stroke="black" points="1563.5,-44 1721.5,-44 "/>
<text text-anchor="start" x="1571.5" y="-32" font-family="Helvetica,sans-Serif" font-size="10.00">+ element</text>
<polyline fill="none" stroke="black" points="1563.5,-25 1721.5,-25 "/>
<text text-anchor="start" x="1571.5" y="-13" font-family="Helvetica,sans-Serif" font-size="10.00">+ ConditionalStartEvent()</text>
</a>
</g>
</g>
<!-- Node15&#45;&gt;Node16 -->
<g id="edge18" class="edge">
<title>Node15&#45;&gt;Node16</title>
<path fill="none" stroke="midnightblue" d="M887.12,-112.72C895.52,-109.66 904.11,-106.97 912.5,-105 1190.73,-39.72 1274.99,-128.54 1554.5,-69 1561.69,-67.47 1569.08,-65.44 1576.36,-63.14"/>
<polygon fill="none" stroke="midnightblue" points="885.84,-109.46 877.75,-116.31 888.34,-116 885.84,-109.46"/>
</g>
<!-- Node18&#45;&gt;Node12 -->
<g id="edge23" class="edge">
<title>Node18&#45;&gt;Node12</title>
<path fill="none" stroke="midnightblue" d="M1095.08,-110.84C1071.84,-95.56 1044.58,-77.64 1022.49,-63.11"/>
<polygon fill="none" stroke="midnightblue" points="1093.16,-113.77 1103.44,-116.34 1097,-107.92 1093.16,-113.77"/>
</g>
<!-- Node19 -->
<g id="node19" class="node">
<title>Node19</title>
<g id="a_node19"><a xlink:href="classBPMN_1_1MessageStartEvent.html" target="_top" xlink:title=" ">
<polygon fill="none" stroke="black" points="1739.5,-6 1739.5,-63 1885.5,-63 1885.5,-6 1739.5,-6"/>
<text text-anchor="middle" x="1812.5" y="-51" font-family="Helvetica,sans-Serif" font-size="10.00">BPMN::MessageStartEvent</text>
<polyline fill="none" stroke="black" points="1739.5,-44 1885.5,-44 "/>
<text text-anchor="start" x="1747.5" y="-32" font-family="Helvetica,sans-Serif" font-size="10.00">+ element</text>
<polyline fill="none" stroke="black" points="1739.5,-25 1885.5,-25 "/>
<text text-anchor="start" x="1747.5" y="-13" font-family="Helvetica,sans-Serif" font-size="10.00">+ MessageStartEvent()</text>
</a>
</g>
</g>
<!-- Node18&#45;&gt;Node19 -->
<g id="edge24" class="edge">
<title>Node18&#45;&gt;Node19</title>
<path fill="none" stroke="midnightblue" d="M1207.21,-112.63C1214.91,-109.63 1222.79,-106.98 1230.5,-105 1446.31,-49.66 1513.56,-119.76 1730.5,-69 1737.24,-67.42 1744.14,-65.37 1750.94,-63.05"/>
<polygon fill="none" stroke="midnightblue" points="1205.86,-109.4 1197.93,-116.43 1208.51,-115.87 1205.86,-109.4"/>
</g>
<!-- Node20 -->
<g id="node20" class="node">
<title>Node20</title>
<g id="a_node20"><a xlink:href="classBPMN_1_1ReceiveTask.html" target="_top" xlink:title=" ">
<polygon fill="none" stroke="black" points="1084,-6 1084,-63 1197,-63 1197,-6 1084,-6"/>
<text text-anchor="middle" x="1140.5" y="-51" font-family="Helvetica,sans-Serif" font-size="10.00">BPMN::ReceiveTask</text>
<polyline fill="none" stroke="black" points="1084,-44 1197,-44 "/>
<text text-anchor="start" x="1092" y="-32" font-family="Helvetica,sans-Serif" font-size="10.00">+ element</text>
<polyline fill="none" stroke="black" points="1084,-25 1197,-25 "/>
<text text-anchor="start" x="1092" y="-13" font-family="Helvetica,sans-Serif" font-size="10.00">+ ReceiveTask()</text>
</a>
</g>
</g>
<!-- Node18&#45;&gt;Node20 -->
<g id="edge25" class="edge">
<title>Node18&#45;&gt;Node20</title>
<path fill="none" stroke="midnightblue" d="M1143.77,-106.35C1143.11,-92.14 1142.38,-76.24 1141.77,-63.11"/>
<polygon fill="none" stroke="midnightblue" points="1140.27,-106.51 1144.23,-116.34 1147.26,-106.19 1140.27,-106.51"/>
</g>
<!-- Node21&#45;&gt;Node13 -->
<g id="edge27" class="edge">
<title>Node21&#45;&gt;Node13</title>
<path fill="none" stroke="midnightblue" d="M1302.64,-106.35C1300.81,-92.14 1298.76,-76.24 1297.06,-63.11"/>
<polygon fill="none" stroke="midnightblue" points="1299.18,-106.87 1303.93,-116.34 1306.12,-105.97 1299.18,-106.87"/>
</g>
<!-- Node22 -->
<g id="node22" class="node">
<title>Node22</title>
<g id="a_node22"><a xlink:href="classBPMN_1_1SignalStartEvent.html" target="_top" xlink:title=" ">
<polygon fill="none" stroke="black" points="1904,-6 1904,-63 2037,-63 2037,-6 1904,-6"/>
<text text-anchor="middle" x="1970.5" y="-51" font-family="Helvetica,sans-Serif" font-size="10.00">BPMN::SignalStartEvent</text>
<polyline fill="none" stroke="black" points="1904,-44 2037,-44 "/>
<text text-anchor="start" x="1912" y="-32" font-family="Helvetica,sans-Serif" font-size="10.00">+ element</text>
<polyline fill="none" stroke="black" points="1904,-25 2037,-25 "/>
<text text-anchor="start" x="1912" y="-13" font-family="Helvetica,sans-Serif" font-size="10.00">+ SignalStartEvent()</text>
</a>
</g>
</g>
<!-- Node21&#45;&gt;Node22 -->
<g id="edge28" class="edge">
<title>Node21&#45;&gt;Node22</title>
<path fill="none" stroke="midnightblue" d="M1367.96,-112.52C1375.4,-109.56 1383.03,-106.95 1390.5,-105 1607.79,-48.29 1676.54,-123.09 1894.5,-69 1900.8,-67.44 1907.23,-65.39 1913.55,-63.07"/>
<polygon fill="none" stroke="midnightblue" points="1366.52,-109.32 1358.65,-116.41 1369.22,-115.78 1366.52,-109.32"/>
</g>
<!-- Node23&#45;&gt;Node14 -->
<g id="edge30" class="edge">
<title>Node23&#45;&gt;Node14</title>
<path fill="none" stroke="midnightblue" d="M1467.5,-105.94C1467.5,-91.83 1467.5,-76.11 1467.5,-63.11"/>
<polygon fill="none" stroke="midnightblue" points="1464,-106.34 1467.5,-116.34 1471,-106.34 1464,-106.34"/>
</g>
<!-- Node24 -->
<g id="node24" class="node">
<title>Node24</title>
<g id="a_node24"><a xlink:href="classBPMN_1_1TimerStartEvent.html" target="_top" xlink:title=" ">
<polygon fill="none" stroke="black" points="2055,-6 2055,-63 2186,-63 2186,-6 2055,-6"/>
<text text-anchor="middle" x="2120.5" y="-51" font-family="Helvetica,sans-Serif" font-size="10.00">BPMN::TimerStartEvent</text>
<polyline fill="none" stroke="black" points="2055,-44 2186,-44 "/>
<text text-anchor="start" x="2063" y="-32" font-family="Helvetica,sans-Serif" font-size="10.00">+ element</text>
<polyline fill="none" stroke="black" points="2055,-25 2186,-25 "/>
<text text-anchor="start" x="2063" y="-13" font-family="Helvetica,sans-Serif" font-size="10.00">+ TimerStartEvent()</text>
</a>
</g>
</g>
<!-- Node23&#45;&gt;Node24 -->
<g id="edge31" class="edge">
<title>Node23&#45;&gt;Node24</title>
<path fill="none" stroke="midnightblue" d="M1545.93,-141.18C1658.64,-135.5 1872.06,-118.59 2046.5,-69 2052.33,-67.34 2058.29,-65.3 2064.18,-63.04"/>
<polygon fill="none" stroke="midnightblue" points="1545.49,-137.7 1535.67,-141.68 1545.83,-144.69 1545.49,-137.7"/>
</g>
<!-- Node25&#45;&gt;Node16 -->
<g id="edge34" class="edge">
<title>Node25&#45;&gt;Node16</title>
<path fill="none" stroke="midnightblue" d="M1895.36,-121.8C1847.86,-107.45 1785.3,-87.97 1730.5,-69 1725.09,-67.13 1719.52,-65.14 1713.93,-63.11"/>
<polygon fill="none" stroke="midnightblue" points="1894.37,-125.16 1904.96,-124.69 1896.39,-118.46 1894.37,-125.16"/>
</g>
<!-- Node25&#45;&gt;Node19 -->
<g id="edge37" class="edge">
<title>Node25&#45;&gt;Node19</title>
<path fill="none" stroke="midnightblue" d="M1921.92,-110.64C1899.74,-95.41 1873.77,-77.58 1852.71,-63.11"/>
<polygon fill="none" stroke="midnightblue" points="1920,-113.56 1930.22,-116.34 1923.96,-107.79 1920,-113.56"/>
</g>
<!-- Node25&#45;&gt;Node22 -->
<g id="edge38" class="edge">
<title>Node25&#45;&gt;Node22</title>
<path fill="none" stroke="midnightblue" d="M1970.5,-105.94C1970.5,-91.83 1970.5,-76.11 1970.5,-63.11"/>
<polygon fill="none" stroke="midnightblue" points="1967,-106.34 1970.5,-116.34 1974,-106.34 1967,-106.34"/>
</g>
<!-- Node25&#45;&gt;Node24 -->
<g id="edge39" class="edge">
<title>Node25&#45;&gt;Node24</title>
<path fill="none" stroke="midnightblue" d="M2016.9,-110.44C2037.9,-95.25 2062.42,-77.51 2082.33,-63.11"/>
<polygon fill="none" stroke="midnightblue" points="2014.79,-107.64 2008.74,-116.34 2018.89,-113.32 2014.79,-107.64"/>
</g>
<!-- Node26 -->
<g id="node26" class="node">
<title>Node26</title>
<g id="a_node26"><a xlink:href="classBPMN_1_1CompensateStartEvent.html" target="_top" xlink:title=" ">
<polygon fill="none" stroke="black" points="2204.5,-6 2204.5,-63 2368.5,-63 2368.5,-6 2204.5,-6"/>
<text text-anchor="middle" x="2286.5" y="-51" font-family="Helvetica,sans-Serif" font-size="10.00">BPMN::CompensateStartEvent</text>
<polyline fill="none" stroke="black" points="2204.5,-44 2368.5,-44 "/>
<text text-anchor="middle" x="2286.5" y="-32" font-family="Helvetica,sans-Serif" font-size="10.00"> </text>
<polyline fill="none" stroke="black" points="2204.5,-25 2368.5,-25 "/>
<text text-anchor="start" x="2212.5" y="-13" font-family="Helvetica,sans-Serif" font-size="10.00">+ CompensateStartEvent()</text>
</a>
</g>
</g>
<!-- Node25&#45;&gt;Node26 -->
<g id="edge33" class="edge">
<title>Node25&#45;&gt;Node26</title>
<path fill="none" stroke="midnightblue" d="M2028.68,-112.01C2034.29,-109.46 2039.95,-107.07 2045.5,-105 2109.72,-81.01 2129.88,-88.88 2195.5,-69 2201.46,-67.19 2207.6,-65.21 2213.74,-63.14"/>
<polygon fill="none" stroke="midnightblue" points="2026.88,-109 2019.34,-116.44 2029.88,-115.32 2026.88,-109"/>
</g>
<!-- Node27 -->
<g id="node27" class="node">
<title>Node27</title>
<g id="a_node27"><a xlink:href="classBPMN_1_1ErrorStartEvent.html" target="_top" xlink:title=" ">
<polygon fill="none" stroke="black" points="2386.5,-6 2386.5,-63 2512.5,-63 2512.5,-6 2386.5,-6"/>
<text text-anchor="middle" x="2449.5" y="-51" font-family="Helvetica,sans-Serif" font-size="10.00">BPMN::ErrorStartEvent</text>
<polyline fill="none" stroke="black" points="2386.5,-44 2512.5,-44 "/>
<text text-anchor="middle" x="2449.5" y="-32" font-family="Helvetica,sans-Serif" font-size="10.00"> </text>
<polyline fill="none" stroke="black" points="2386.5,-25 2512.5,-25 "/>
<text text-anchor="start" x="2394.5" y="-13" font-family="Helvetica,sans-Serif" font-size="10.00">+ ErrorStartEvent()</text>
</a>
</g>
</g>
<!-- Node25&#45;&gt;Node27 -->
<g id="edge35" class="edge">
<title>Node25&#45;&gt;Node27</title>
<path fill="none" stroke="midnightblue" d="M2026.19,-112.21C2032.57,-109.43 2039.08,-106.94 2045.5,-105 2187.56,-62.02 2234.53,-108.84 2377.5,-69 2383.34,-67.37 2389.31,-65.31 2395.17,-63.02"/>
<polygon fill="none" stroke="midnightblue" points="2024.59,-109.1 2016.98,-116.47 2027.53,-115.45 2024.59,-109.1"/>
</g>
<!-- Node28 -->
<g id="node28" class="node">
<title>Node28</title>
<g id="a_node28"><a xlink:href="classBPMN_1_1EscalationStartEvent.html" target="_top" xlink:title=" ">
<polygon fill="none" stroke="black" points="2531,-6 2531,-63 2684,-63 2684,-6 2531,-6"/>
<text text-anchor="middle" x="2607.5" y="-51" font-family="Helvetica,sans-Serif" font-size="10.00">BPMN::EscalationStartEvent</text>
<polyline fill="none" stroke="black" points="2531,-44 2684,-44 "/>
<text text-anchor="middle" x="2607.5" y="-32" font-family="Helvetica,sans-Serif" font-size="10.00"> </text>
<polyline fill="none" stroke="black" points="2531,-25 2684,-25 "/>
<text text-anchor="start" x="2539" y="-13" font-family="Helvetica,sans-Serif" font-size="10.00">+ EscalationStartEvent()</text>
</a>
</g>
</g>
<!-- Node25&#45;&gt;Node28 -->
<g id="edge36" class="edge">
<title>Node25&#45;&gt;Node28</title>
<path fill="none" stroke="midnightblue" d="M2025.85,-112.12C2032.32,-109.33 2038.96,-106.86 2045.5,-105 2249.54,-46.88 2314.62,-116.02 2521.5,-69 2528.53,-67.4 2535.75,-65.33 2542.87,-63"/>
<polygon fill="none" stroke="midnightblue" points="2024.13,-109.06 2016.5,-116.41 2027.05,-115.42 2024.13,-109.06"/>
</g>
</g>
</svg>
