<?xml version="1.0" encoding="UTF-8" standalone="no"?>
<!DOCTYPE svg PUBLIC "-//W3C//DTD SVG 1.1//EN"
 "http://www.w3.org/Graphics/SVG/1.1/DTD/svg11.dtd">
<!-- Generated by graphviz version 2.43.0 (0)
 -->
<!-- Title: XML::bpmn::tGlobalManualTask Pages: 1 -->
<svg width="172pt" height="1032pt"
 viewBox="0.00 0.00 172.00 1032.00" xmlns="http://www.w3.org/2000/svg" xmlns:xlink="http://www.w3.org/1999/xlink">
<g id="graph0" class="graph" transform="scale(1 1) rotate(0) translate(4 1028)">
<title>XML::bpmn::tGlobalManualTask</title>
<!-- Node1 -->
<g id="Node000001" class="node">
<title>Node1</title>
<g id="a_Node000001"><a xlink:title=" ">
<polygon fill="#999999" stroke="transparent" points="164,-134 0,-134 0,-85 164,-85 164,-134"/>
<text text-anchor="start" x="5" y="-121.5" font-family="Helvetica,sans-Serif" font-size="10.00">XML::bpmn::tGlobalManualTask</text>
<text text-anchor="start" x="14.5" y="-106.5" font-family="Helvetica,sans-Serif" font-size="10.00">+</text>
<text text-anchor="start" x="38" y="-106.5" font-family="Helvetica,sans-Serif" font-size="10.00">defaults</text>
<text text-anchor="start" x="14.5" y="-91.5" font-family="Helvetica,sans-Serif" font-size="10.00">#</text>
<text text-anchor="start" x="38" y="-91.5" font-family="Helvetica,sans-Serif" font-size="10.00">tGlobalManualTask()</text>
<polygon fill="#666666" stroke="#666666" points="0,-116.5 0,-116.5 164,-116.5 164,-116.5 0,-116.5"/>
<polygon fill="#666666" stroke="#666666" points="0,-101.5 0,-101.5 36,-101.5 36,-101.5 0,-101.5"/>
<polygon fill="#666666" stroke="#666666" points="36,-101.5 36,-101.5 164,-101.5 164,-101.5 36,-101.5"/>
<polygon fill="none" stroke="#666666" points="0,-85 0,-134 164,-134 164,-85 0,-85"/>
</a>
</g>
</g>
<!-- Node7 -->
<g id="Node000007" class="node">
<title>Node7</title>
<g id="a_Node000007"><a xlink:href="classXML_1_1bpmn_1_1globalManualTask.html" target="_top" xlink:title=" ">
<polygon fill="white" stroke="transparent" points="161.5,-49 2.5,-49 2.5,0 161.5,0 161.5,-49"/>
<text text-anchor="start" x="8" y="-36.5" font-family="Helvetica,sans-Serif" font-size="10.00">XML::bpmn::globalManualTask</text>
<text text-anchor="start" x="17.5" y="-21.5" font-family="Helvetica,sans-Serif" font-size="10.00">+</text>
<text text-anchor="start" x="41" y="-21.5" font-family="Helvetica,sans-Serif" font-size="10.00">defaults</text>
<text text-anchor="start" x="17.5" y="-6.5" font-family="Helvetica,sans-Serif" font-size="10.00">#</text>
<text text-anchor="start" x="41" y="-6.5" font-family="Helvetica,sans-Serif" font-size="10.00">globalManualTask()</text>
<polygon fill="#666666" stroke="#666666" points="3,-31.5 3,-31.5 162,-31.5 162,-31.5 3,-31.5"/>
<polygon fill="#666666" stroke="#666666" points="3,-16.5 3,-16.5 39,-16.5 39,-16.5 3,-16.5"/>
<polygon fill="#666666" stroke="#666666" points="39,-16.5 39,-16.5 162,-16.5 162,-16.5 39,-16.5"/>
<polygon fill="none" stroke="#666666" points="2.5,0 2.5,-49 161.5,-49 161.5,0 2.5,0"/>
</a>
</g>
</g>
<!-- Node1&#45;&gt;Node7 -->
<g id="edge6_Node000001_Node000007" class="edge">
<title>Node1&#45;&gt;Node7</title>
<g id="a_edge6_Node000001_Node000007"><a xlink:title=" ">
<path fill="none" stroke="#63b8ff" d="M82,-74.77C82,-66.17 82,-57.1 82,-49.12"/>
<polygon fill="none" stroke="#63b8ff" points="78.5,-74.94 82,-84.94 85.5,-74.94 78.5,-74.94"/>
</a>
</g>
</g>
<!-- Node2 -->
<g id="Node000002" class="node">
<title>Node2</title>
<g id="a_Node000002"><a xlink:href="classXML_1_1bpmn_1_1tGlobalTask.html" target="_top" xlink:title=" ">
<polygon fill="white" stroke="transparent" points="146,-234 18,-234 18,-170 146,-170 146,-234"/>
<text text-anchor="start" x="23" y="-222" font-family="Helvetica,sans-Serif" font-size="10.00">XML::bpmn::tGlobalTask</text>
<text text-anchor="start" x="32.5" y="-207" font-family="Helvetica,sans-Serif" font-size="10.00">+</text>
<text text-anchor="start" x="56" y="-207" font-family="Helvetica,sans-Serif" font-size="10.00">resourceRole</text>
<text text-anchor="start" x="32.5" y="-192" font-family="Helvetica,sans-Serif" font-size="10.00">+</text>
<text text-anchor="start" x="56" y="-192" font-family="Helvetica,sans-Serif" font-size="10.00">defaults</text>
<text text-anchor="start" x="32.5" y="-177" font-family="Helvetica,sans-Serif" font-size="10.00">#</text>
<text text-anchor="start" x="56" y="-177" font-family="Helvetica,sans-Serif" font-size="10.00">tGlobalTask()</text>
<polygon fill="#666666" stroke="#666666" points="18,-217 18,-217 146,-217 146,-217 18,-217"/>
<polygon fill="#666666" stroke="#666666" points="18,-187 18,-187 54,-187 54,-187 18,-187"/>
<polygon fill="#666666" stroke="#666666" points="54,-187 54,-187 146,-187 146,-187 54,-187"/>
<polygon fill="none" stroke="#666666" points="18,-170 18,-234 146,-234 146,-170 18,-170"/>
</a>
</g>
</g>
<!-- Node2&#45;&gt;Node1 -->
<g id="edge1_Node000001_Node000002" class="edge">
<title>Node2&#45;&gt;Node1</title>
<g id="a_edge1_Node000001_Node000002"><a xlink:title=" ">
<path fill="none" stroke="#63b8ff" d="M82,-159.77C82,-151.03 82,-142.09 82,-134.27"/>
<polygon fill="none" stroke="#63b8ff" points="78.5,-159.85 82,-169.86 85.5,-159.86 78.5,-159.85"/>
</a>
</g>
</g>
<!-- Node3 -->
<g id="Node000003" class="node">
<title>Node3</title>
<g id="a_Node000003"><a xlink:href="classXML_1_1bpmn_1_1tCallableElement.html" target="_top" xlink:title=" ">
<polygon fill="white" stroke="transparent" points="159.5,-379 4.5,-379 4.5,-270 159.5,-270 159.5,-379"/>
<text text-anchor="start" x="10" y="-366.5" font-family="Helvetica,sans-Serif" font-size="10.00">XML::bpmn::tCallableElement</text>
<text text-anchor="start" x="15" y="-351.5" font-family="Helvetica,sans-Serif" font-size="10.00">+</text>
<text text-anchor="start" x="34" y="-351.5" font-family="Helvetica,sans-Serif" font-size="10.00">supportedInterfaceRef</text>
<text text-anchor="start" x="15" y="-336.5" font-family="Helvetica,sans-Serif" font-size="10.00">+</text>
<text text-anchor="start" x="34" y="-336.5" font-family="Helvetica,sans-Serif" font-size="10.00">ioSpecification</text>
<text text-anchor="start" x="15" y="-321.5" font-family="Helvetica,sans-Serif" font-size="10.00">+</text>
<text text-anchor="start" x="34" y="-321.5" font-family="Helvetica,sans-Serif" font-size="10.00">ioBinding</text>
<text text-anchor="start" x="15" y="-306.5" font-family="Helvetica,sans-Serif" font-size="10.00">+</text>
<text text-anchor="start" x="34" y="-306.5" font-family="Helvetica,sans-Serif" font-size="10.00">name</text>
<text text-anchor="start" x="15" y="-291.5" font-family="Helvetica,sans-Serif" font-size="10.00">+</text>
<text text-anchor="start" x="34" y="-291.5" font-family="Helvetica,sans-Serif" font-size="10.00">defaults</text>
<text text-anchor="start" x="15" y="-276.5" font-family="Helvetica,sans-Serif" font-size="10.00">#</text>
<text text-anchor="start" x="34" y="-276.5" font-family="Helvetica,sans-Serif" font-size="10.00">tCallableElement()</text>
<polygon fill="#666666" stroke="#666666" points="5,-361.5 5,-361.5 160,-361.5 160,-361.5 5,-361.5"/>
<polygon fill="#666666" stroke="#666666" points="5,-286.5 5,-286.5 32,-286.5 32,-286.5 5,-286.5"/>
<polygon fill="#666666" stroke="#666666" points="32,-286.5 32,-286.5 160,-286.5 160,-286.5 32,-286.5"/>
<polygon fill="none" stroke="#666666" points="4.5,-270 4.5,-379 159.5,-379 159.5,-270 4.5,-270"/>
</a>
</g>
</g>
<!-- Node3&#45;&gt;Node2 -->
<g id="edge2_Node000002_Node000003" class="edge">
<title>Node3&#45;&gt;Node2</title>
<g id="a_edge2_Node000002_Node000003"><a xlink:title=" ">
<path fill="none" stroke="#63b8ff" d="M82,-259.9C82,-251 82,-242.2 82,-234.28"/>
<polygon fill="none" stroke="#63b8ff" points="78.5,-259.95 82,-269.95 85.5,-259.95 78.5,-259.95"/>
</a>
</g>
</g>
<!-- Node4 -->
<g id="Node000004" class="node">
<title>Node4</title>
<g id="a_Node000004"><a xlink:href="classXML_1_1bpmn_1_1tRootElement.html" target="_top" xlink:title=" ">
<polygon fill="white" stroke="transparent" points="151,-464 13,-464 13,-415 151,-415 151,-464"/>
<text text-anchor="start" x="18" y="-451.5" font-family="Helvetica,sans-Serif" font-size="10.00">XML::bpmn::tRootElement</text>
<text text-anchor="start" x="27.5" y="-436.5" font-family="Helvetica,sans-Serif" font-size="10.00">+</text>
<text text-anchor="start" x="51" y="-436.5" font-family="Helvetica,sans-Serif" font-size="10.00">defaults</text>
<text text-anchor="start" x="27.5" y="-421.5" font-family="Helvetica,sans-Serif" font-size="10.00">#</text>
<text text-anchor="start" x="51" y="-421.5" font-family="Helvetica,sans-Serif" font-size="10.00">tRootElement()</text>
<polygon fill="#666666" stroke="#666666" points="13,-446.5 13,-446.5 151,-446.5 151,-446.5 13,-446.5"/>
<polygon fill="#666666" stroke="#666666" points="13,-431.5 13,-431.5 49,-431.5 49,-431.5 13,-431.5"/>
<polygon fill="#666666" stroke="#666666" points="49,-431.5 49,-431.5 151,-431.5 151,-431.5 49,-431.5"/>
<polygon fill="none" stroke="#666666" points="13,-415 13,-464 151,-464 151,-415 13,-415"/>
</a>
</g>
</g>
<!-- Node4&#45;&gt;Node3 -->
<g id="edge3_Node000003_Node000004" class="edge">
<title>Node4&#45;&gt;Node3</title>
<g id="a_edge3_Node000003_Node000004"><a xlink:title=" ">
<path fill="none" stroke="#63b8ff" d="M82,-404.79C82,-396.79 82,-388.06 82,-379.41"/>
<polygon fill="none" stroke="#63b8ff" points="78.5,-404.81 82,-414.81 85.5,-404.81 78.5,-404.81"/>
</a>
</g>
</g>
<!-- Node5 -->
<g id="Node000005" class="node">
<title>Node5</title>
<g id="a_Node000005"><a xlink:href="classXML_1_1bpmn_1_1tBaseElement.html" target="_top" xlink:title=" ">
<polygon fill="white" stroke="transparent" points="152,-594 12,-594 12,-500 152,-500 152,-594"/>
<text text-anchor="start" x="17" y="-582" font-family="Helvetica,sans-Serif" font-size="10.00">XML::bpmn::tBaseElement</text>
<text text-anchor="start" x="22" y="-567" font-family="Helvetica,sans-Serif" font-size="10.00">+</text>
<text text-anchor="start" x="41" y="-567" font-family="Helvetica,sans-Serif" font-size="10.00">documentation</text>
<text text-anchor="start" x="22" y="-552" font-family="Helvetica,sans-Serif" font-size="10.00">+</text>
<text text-anchor="start" x="41" y="-552" font-family="Helvetica,sans-Serif" font-size="10.00">extensionElements</text>
<text text-anchor="start" x="22" y="-537" font-family="Helvetica,sans-Serif" font-size="10.00">+</text>
<text text-anchor="start" x="41" y="-537" font-family="Helvetica,sans-Serif" font-size="10.00">id</text>
<text text-anchor="start" x="22" y="-522" font-family="Helvetica,sans-Serif" font-size="10.00">+</text>
<text text-anchor="start" x="41" y="-522" font-family="Helvetica,sans-Serif" font-size="10.00">defaults</text>
<text text-anchor="start" x="22" y="-507" font-family="Helvetica,sans-Serif" font-size="10.00">#</text>
<text text-anchor="start" x="41" y="-507" font-family="Helvetica,sans-Serif" font-size="10.00">tBaseElement()</text>
<polygon fill="#666666" stroke="#666666" points="12,-577 12,-577 152,-577 152,-577 12,-577"/>
<polygon fill="#666666" stroke="#666666" points="12,-517 12,-517 39,-517 39,-517 12,-517"/>
<polygon fill="#666666" stroke="#666666" points="39,-517 39,-517 152,-517 152,-517 39,-517"/>
<polygon fill="none" stroke="#666666" points="12,-500 12,-594 152,-594 152,-500 12,-500"/>
</a>
</g>
</g>
<!-- Node5&#45;&gt;Node4 -->
<g id="edge4_Node000004_Node000005" class="edge">
<title>Node5&#45;&gt;Node4</title>
<g id="a_edge4_Node000004_Node000005"><a xlink:title=" ">
<path fill="none" stroke="#63b8ff" d="M82,-489.59C82,-480.62 82,-471.79 82,-464.15"/>
<polygon fill="none" stroke="#63b8ff" points="78.5,-489.73 82,-499.73 85.5,-489.73 78.5,-489.73"/>
</a>
</g>
</g>
<!-- Node6 -->
<g id="Node000006" class="node">
<title>Node6</title>
<g id="a_Node000006"><a xlink:href="classXML_1_1XMLObject.html" target="_top" xlink:title="A class representing a node in an XML&#45;tree.">
<polygon fill="white" stroke="transparent" points="142,-1024 22,-1024 22,-630 142,-630 142,-1024"/>
<text text-anchor="start" x="42" y="-1012" font-family="Helvetica,sans-Serif" font-size="10.00">XML::XMLObject</text>
<text text-anchor="start" x="26" y="-997" font-family="Helvetica,sans-Serif" font-size="10.00">+</text>
<text text-anchor="start" x="39" y="-997" font-family="Helvetica,sans-Serif" font-size="10.00">xmlns</text>
<text text-anchor="start" x="26" y="-982" font-family="Helvetica,sans-Serif" font-size="10.00">+</text>
<text text-anchor="start" x="39" y="-982" font-family="Helvetica,sans-Serif" font-size="10.00">className</text>
<text text-anchor="start" x="26" y="-967" font-family="Helvetica,sans-Serif" font-size="10.00">+</text>
<text text-anchor="start" x="39" y="-967" font-family="Helvetica,sans-Serif" font-size="10.00">prefix</text>
<text text-anchor="start" x="26" y="-952" font-family="Helvetica,sans-Serif" font-size="10.00">+</text>
<text text-anchor="start" x="39" y="-952" font-family="Helvetica,sans-Serif" font-size="10.00">elementName</text>
<text text-anchor="start" x="26" y="-937" font-family="Helvetica,sans-Serif" font-size="10.00">+</text>
<text text-anchor="start" x="39" y="-937" font-family="Helvetica,sans-Serif" font-size="10.00">textContent</text>
<text text-anchor="start" x="26" y="-922" font-family="Helvetica,sans-Serif" font-size="10.00">+</text>
<text text-anchor="start" x="39" y="-922" font-family="Helvetica,sans-Serif" font-size="10.00">children</text>
<text text-anchor="start" x="26" y="-907" font-family="Helvetica,sans-Serif" font-size="10.00">+</text>
<text text-anchor="start" x="39" y="-907" font-family="Helvetica,sans-Serif" font-size="10.00">attributes</text>
<text text-anchor="start" x="26" y="-892" font-family="Helvetica,sans-Serif" font-size="10.00">+</text>
<text text-anchor="start" x="39" y="-892" font-family="Helvetica,sans-Serif" font-size="10.00">defaults</text>
<text text-anchor="start" x="26" y="-877" font-family="Helvetica,sans-Serif" font-size="10.00">#</text>
<text text-anchor="start" x="39" y="-877" font-family="Helvetica,sans-Serif" font-size="10.00">factory</text>
<text text-anchor="start" x="26" y="-862" font-family="Helvetica,sans-Serif" font-size="10.00">+</text>
<text text-anchor="start" x="39" y="-862" font-family="Helvetica,sans-Serif" font-size="10.00">~XMLObject()</text>
<text text-anchor="start" x="26" y="-847" font-family="Helvetica,sans-Serif" font-size="10.00">+</text>
<text text-anchor="start" x="39" y="-847" font-family="Helvetica,sans-Serif" font-size="10.00">is()</text>
<text text-anchor="start" x="26" y="-832" font-family="Helvetica,sans-Serif" font-size="10.00">+</text>
<text text-anchor="start" x="39" y="-832" font-family="Helvetica,sans-Serif" font-size="10.00">is()</text>
<text text-anchor="start" x="26" y="-817" font-family="Helvetica,sans-Serif" font-size="10.00">+</text>
<text text-anchor="start" x="39" y="-817" font-family="Helvetica,sans-Serif" font-size="10.00">get()</text>
<text text-anchor="start" x="26" y="-802" font-family="Helvetica,sans-Serif" font-size="10.00">+</text>
<text text-anchor="start" x="39" y="-802" font-family="Helvetica,sans-Serif" font-size="10.00">get()</text>
<text text-anchor="start" x="26" y="-787" font-family="Helvetica,sans-Serif" font-size="10.00">+</text>
<text text-anchor="start" x="39" y="-787" font-family="Helvetica,sans-Serif" font-size="10.00">find()</text>
<text text-anchor="start" x="26" y="-772" font-family="Helvetica,sans-Serif" font-size="10.00">+</text>
<text text-anchor="start" x="39" y="-772" font-family="Helvetica,sans-Serif" font-size="10.00">find()</text>
<text text-anchor="start" x="26" y="-757" font-family="Helvetica,sans-Serif" font-size="10.00">+</text>
<text text-anchor="start" x="39" y="-757" font-family="Helvetica,sans-Serif" font-size="10.00">stringify()</text>
<text text-anchor="start" x="26" y="-742" font-family="Helvetica,sans-Serif" font-size="10.00">+</text>
<text text-anchor="start" x="39" y="-742" font-family="Helvetica,sans-Serif" font-size="10.00">format()</text>
<text text-anchor="start" x="26" y="-727" font-family="Helvetica,sans-Serif" font-size="10.00">+</text>
<text text-anchor="start" x="39" y="-727" font-family="Helvetica,sans-Serif" font-size="10.00">getRequiredChild()</text>
<text text-anchor="start" x="39" y="-712" font-family="Helvetica,sans-Serif" font-size="10.00">and 7 more...</text>
<text text-anchor="start" x="26" y="-697" font-family="Helvetica,sans-Serif" font-size="10.00">+</text>
<text text-anchor="start" x="39" y="-697" font-family="Helvetica,sans-Serif" font-size="10.00">createFromStream()</text>
<text text-anchor="start" x="26" y="-682" font-family="Helvetica,sans-Serif" font-size="10.00">+</text>
<text text-anchor="start" x="39" y="-682" font-family="Helvetica,sans-Serif" font-size="10.00">createFromString()</text>
<text text-anchor="start" x="26" y="-667" font-family="Helvetica,sans-Serif" font-size="10.00">+</text>
<text text-anchor="start" x="39" y="-667" font-family="Helvetica,sans-Serif" font-size="10.00">createFromFile()</text>
<text text-anchor="start" x="26" y="-652" font-family="Helvetica,sans-Serif" font-size="10.00">#</text>
<text text-anchor="start" x="39" y="-652" font-family="Helvetica,sans-Serif" font-size="10.00">XMLObject()</text>
<text text-anchor="start" x="26" y="-637" font-family="Helvetica,sans-Serif" font-size="10.00">#</text>
<text text-anchor="start" x="39" y="-637" font-family="Helvetica,sans-Serif" font-size="10.00">createObject()</text>
<polygon fill="#666666" stroke="#666666" points="22,-1007 22,-1007 142,-1007 142,-1007 22,-1007"/>
<polygon fill="#666666" stroke="#666666" points="22,-872 22,-872 37,-872 37,-872 22,-872"/>
<polygon fill="#666666" stroke="#666666" points="37,-872 37,-872 142,-872 142,-872 37,-872"/>
<polygon fill="none" stroke="#666666" points="22,-630 22,-1024 142,-1024 142,-630 22,-630"/>
</a>
</g>
</g>
<!-- Node6&#45;&gt;Node5 -->
<g id="edge5_Node000005_Node000006" class="edge">
<title>Node6&#45;&gt;Node5</title>
<g id="a_edge5_Node000005_Node000006"><a xlink:title=" ">
<path fill="none" stroke="#63b8ff" d="M82,-619.78C82,-610.62 82,-601.97 82,-594.06"/>
<polygon fill="none" stroke="#63b8ff" points="78.5,-619.91 82,-629.91 85.5,-619.91 78.5,-619.91"/>
</a>
</g>
</g>
</g>
</svg>
