<?xml version="1.0" encoding="UTF-8" standalone="no"?>
<!DOCTYPE svg PUBLIC "-//W3C//DTD SVG 1.1//EN"
 "http://www.w3.org/Graphics/SVG/1.1/DTD/svg11.dtd">
<!-- Generated by graphviz version 2.43.0 (0)
 -->
<!-- Title: XML::bpmn::tStartEvent Pages: 1 -->
<svg width="154pt" height="1164pt"
 viewBox="0.00 0.00 154.00 1164.00" xmlns="http://www.w3.org/2000/svg" xmlns:xlink="http://www.w3.org/1999/xlink">
<g id="graph0" class="graph" transform="scale(1 1) rotate(0) translate(4 1160)">
<title>XML::bpmn::tStartEvent</title>
<!-- Node1 -->
<g id="node1" class="node">
<title>Node1</title>
<g id="a_node1"><a xlink:title=" ">
<polygon fill="#bfbfbf" stroke="black" points="7,-94.5 7,-162.5 139,-162.5 139,-94.5 7,-94.5"/>
<text text-anchor="middle" x="73" y="-150.5" font-family="Helvetica,sans-Serif" font-size="10.00">XML::bpmn::tStartEvent</text>
<polyline fill="none" stroke="black" points="7,-143.5 139,-143.5 "/>
<text text-anchor="start" x="15" y="-131.5" font-family="Helvetica,sans-Serif" font-size="10.00">+ isInterrupting</text>
<text text-anchor="start" x="15" y="-120.5" font-family="Helvetica,sans-Serif" font-size="10.00">+ defaults</text>
<polyline fill="none" stroke="black" points="7,-113.5 139,-113.5 "/>
<text text-anchor="start" x="15" y="-101.5" font-family="Helvetica,sans-Serif" font-size="10.00"># tStartEvent()</text>
</a>
</g>
</g>
<!-- Node8 -->
<g id="node8" class="node">
<title>Node8</title>
<g id="a_node8"><a xlink:href="classXML_1_1bpmn_1_1startEvent.html" target="_top" xlink:title=" ">
<polygon fill="none" stroke="black" points="9,-0.5 9,-57.5 137,-57.5 137,-0.5 9,-0.5"/>
<text text-anchor="middle" x="73" y="-45.5" font-family="Helvetica,sans-Serif" font-size="10.00">XML::bpmn::startEvent</text>
<polyline fill="none" stroke="black" points="9,-38.5 137,-38.5 "/>
<text text-anchor="start" x="17" y="-26.5" font-family="Helvetica,sans-Serif" font-size="10.00">+ defaults</text>
<polyline fill="none" stroke="black" points="9,-19.5 137,-19.5 "/>
<text text-anchor="start" x="17" y="-7.5" font-family="Helvetica,sans-Serif" font-size="10.00"># startEvent()</text>
</a>
</g>
</g>
<!-- Node1&#45;&gt;Node8 -->
<g id="edge7" class="edge">
<title>Node1&#45;&gt;Node8</title>
<path fill="none" stroke="midnightblue" d="M73,-84.45C73,-75.4 73,-66.09 73,-57.78"/>
<polygon fill="none" stroke="midnightblue" points="69.5,-84.49 73,-94.49 76.5,-84.49 69.5,-84.49"/>
</g>
<!-- Node2 -->
<g id="node2" class="node">
<title>Node2</title>
<g id="a_node2"><a xlink:href="classXML_1_1bpmn_1_1tCatchEvent.html" target="_top" xlink:title=" ">
<polygon fill="none" stroke="black" points="3.5,-199.5 3.5,-322.5 142.5,-322.5 142.5,-199.5 3.5,-199.5"/>
<text text-anchor="middle" x="73" y="-310.5" font-family="Helvetica,sans-Serif" font-size="10.00">XML::bpmn::tCatchEvent</text>
<polyline fill="none" stroke="black" points="3.5,-303.5 142.5,-303.5 "/>
<text text-anchor="start" x="11.5" y="-291.5" font-family="Helvetica,sans-Serif" font-size="10.00">+ dataOutput</text>
<text text-anchor="start" x="11.5" y="-280.5" font-family="Helvetica,sans-Serif" font-size="10.00">+ dataOutputAssociation</text>
<text text-anchor="start" x="11.5" y="-269.5" font-family="Helvetica,sans-Serif" font-size="10.00">+ outputSet</text>
<text text-anchor="start" x="11.5" y="-258.5" font-family="Helvetica,sans-Serif" font-size="10.00">+ eventDefinition</text>
<text text-anchor="start" x="11.5" y="-247.5" font-family="Helvetica,sans-Serif" font-size="10.00">+ eventDefinitionRef</text>
<text text-anchor="start" x="11.5" y="-236.5" font-family="Helvetica,sans-Serif" font-size="10.00">+ parallelMultiple</text>
<text text-anchor="start" x="11.5" y="-225.5" font-family="Helvetica,sans-Serif" font-size="10.00">+ defaults</text>
<polyline fill="none" stroke="black" points="3.5,-218.5 142.5,-218.5 "/>
<text text-anchor="start" x="11.5" y="-206.5" font-family="Helvetica,sans-Serif" font-size="10.00"># tCatchEvent()</text>
</a>
</g>
</g>
<!-- Node2&#45;&gt;Node1 -->
<g id="edge1" class="edge">
<title>Node2&#45;&gt;Node1</title>
<path fill="none" stroke="midnightblue" d="M73,-189.24C73,-179.97 73,-170.84 73,-162.62"/>
<polygon fill="none" stroke="midnightblue" points="69.5,-189.33 73,-199.33 76.5,-189.33 69.5,-189.33"/>
</g>
<!-- Node3 -->
<g id="node3" class="node">
<title>Node3</title>
<g id="a_node3"><a xlink:href="classXML_1_1bpmn_1_1tEvent.html" target="_top" xlink:title=" ">
<polygon fill="none" stroke="black" points="18.5,-359.5 18.5,-427.5 127.5,-427.5 127.5,-359.5 18.5,-359.5"/>
<text text-anchor="middle" x="73" y="-415.5" font-family="Helvetica,sans-Serif" font-size="10.00">XML::bpmn::tEvent</text>
<polyline fill="none" stroke="black" points="18.5,-408.5 127.5,-408.5 "/>
<text text-anchor="start" x="26.5" y="-396.5" font-family="Helvetica,sans-Serif" font-size="10.00">+ property</text>
<text text-anchor="start" x="26.5" y="-385.5" font-family="Helvetica,sans-Serif" font-size="10.00">+ defaults</text>
<polyline fill="none" stroke="black" points="18.5,-378.5 127.5,-378.5 "/>
<text text-anchor="start" x="26.5" y="-366.5" font-family="Helvetica,sans-Serif" font-size="10.00"># tEvent()</text>
</a>
</g>
</g>
<!-- Node3&#45;&gt;Node2 -->
<g id="edge2" class="edge">
<title>Node3&#45;&gt;Node2</title>
<path fill="none" stroke="midnightblue" d="M73,-349.17C73,-340.65 73,-331.57 73,-322.61"/>
<polygon fill="none" stroke="midnightblue" points="69.5,-349.23 73,-359.23 76.5,-349.23 69.5,-349.23"/>
</g>
<!-- Node4 -->
<g id="node4" class="node">
<title>Node4</title>
<g id="a_node4"><a xlink:href="classXML_1_1bpmn_1_1tFlowNode.html" target="_top" xlink:title=" ">
<polygon fill="none" stroke="black" points="8,-464.5 8,-543.5 138,-543.5 138,-464.5 8,-464.5"/>
<text text-anchor="middle" x="73" y="-531.5" font-family="Helvetica,sans-Serif" font-size="10.00">XML::bpmn::tFlowNode</text>
<polyline fill="none" stroke="black" points="8,-524.5 138,-524.5 "/>
<text text-anchor="start" x="16" y="-512.5" font-family="Helvetica,sans-Serif" font-size="10.00">+ incoming</text>
<text text-anchor="start" x="16" y="-501.5" font-family="Helvetica,sans-Serif" font-size="10.00">+ outgoing</text>
<text text-anchor="start" x="16" y="-490.5" font-family="Helvetica,sans-Serif" font-size="10.00">+ defaults</text>
<polyline fill="none" stroke="black" points="8,-483.5 138,-483.5 "/>
<text text-anchor="start" x="16" y="-471.5" font-family="Helvetica,sans-Serif" font-size="10.00"># tFlowNode()</text>
</a>
</g>
</g>
<!-- Node4&#45;&gt;Node3 -->
<g id="edge3" class="edge">
<title>Node4&#45;&gt;Node3</title>
<path fill="none" stroke="midnightblue" d="M73,-454.35C73,-445.28 73,-436 73,-427.54"/>
<polygon fill="none" stroke="midnightblue" points="69.5,-454.44 73,-464.44 76.5,-454.44 69.5,-454.44"/>
</g>
<!-- Node5 -->
<g id="node5" class="node">
<title>Node5</title>
<g id="a_node5"><a xlink:href="classXML_1_1bpmn_1_1tFlowElement.html" target="_top" xlink:title=" ">
<polygon fill="none" stroke="black" points="0.5,-580.5 0.5,-681.5 145.5,-681.5 145.5,-580.5 0.5,-580.5"/>
<text text-anchor="middle" x="73" y="-669.5" font-family="Helvetica,sans-Serif" font-size="10.00">XML::bpmn::tFlowElement</text>
<polyline fill="none" stroke="black" points="0.5,-662.5 145.5,-662.5 "/>
<text text-anchor="start" x="8.5" y="-650.5" font-family="Helvetica,sans-Serif" font-size="10.00">+ auditing</text>
<text text-anchor="start" x="8.5" y="-639.5" font-family="Helvetica,sans-Serif" font-size="10.00">+ monitoring</text>
<text text-anchor="start" x="8.5" y="-628.5" font-family="Helvetica,sans-Serif" font-size="10.00">+ categoryValueRef</text>
<text text-anchor="start" x="8.5" y="-617.5" font-family="Helvetica,sans-Serif" font-size="10.00">+ name</text>
<text text-anchor="start" x="8.5" y="-606.5" font-family="Helvetica,sans-Serif" font-size="10.00">+ defaults</text>
<polyline fill="none" stroke="black" points="0.5,-599.5 145.5,-599.5 "/>
<text text-anchor="start" x="8.5" y="-587.5" font-family="Helvetica,sans-Serif" font-size="10.00"># tFlowElement()</text>
</a>
</g>
</g>
<!-- Node5&#45;&gt;Node4 -->
<g id="edge4" class="edge">
<title>Node5&#45;&gt;Node4</title>
<path fill="none" stroke="midnightblue" d="M73,-570.19C73,-561.22 73,-552.18 73,-543.81"/>
<polygon fill="none" stroke="midnightblue" points="69.5,-570.24 73,-580.24 76.5,-570.24 69.5,-570.24"/>
</g>
<!-- Node6 -->
<g id="node6" class="node">
<title>Node6</title>
<g id="a_node6"><a xlink:href="classXML_1_1bpmn_1_1tBaseElement.html" target="_top" xlink:title=" ">
<polygon fill="none" stroke="black" points="0,-718.5 0,-808.5 146,-808.5 146,-718.5 0,-718.5"/>
<text text-anchor="middle" x="73" y="-796.5" font-family="Helvetica,sans-Serif" font-size="10.00">XML::bpmn::tBaseElement</text>
<polyline fill="none" stroke="black" points="0,-789.5 146,-789.5 "/>
<text text-anchor="start" x="8" y="-777.5" font-family="Helvetica,sans-Serif" font-size="10.00">+ documentation</text>
<text text-anchor="start" x="8" y="-766.5" font-family="Helvetica,sans-Serif" font-size="10.00">+ extensionElements</text>
<text text-anchor="start" x="8" y="-755.5" font-family="Helvetica,sans-Serif" font-size="10.00">+ id</text>
<text text-anchor="start" x="8" y="-744.5" font-family="Helvetica,sans-Serif" font-size="10.00">+ defaults</text>
<polyline fill="none" stroke="black" points="0,-737.5 146,-737.5 "/>
<text text-anchor="start" x="8" y="-725.5" font-family="Helvetica,sans-Serif" font-size="10.00"># tBaseElement()</text>
</a>
</g>
</g>
<!-- Node6&#45;&gt;Node5 -->
<g id="edge5" class="edge">
<title>Node6&#45;&gt;Node5</title>
<path fill="none" stroke="midnightblue" d="M73,-708.13C73,-699.31 73,-690.22 73,-681.52"/>
<polygon fill="none" stroke="midnightblue" points="69.5,-708.32 73,-718.32 76.5,-708.32 69.5,-708.32"/>
</g>
<!-- Node7 -->
<g id="node7" class="node">
<title>Node7</title>
<g id="a_node7"><a xlink:href="classXML_1_1XMLObject.html" target="_top" xlink:title="A class representing a node in an XML&#45;tree.">
<polygon fill="none" stroke="black" points="10,-845.5 10,-1155.5 136,-1155.5 136,-845.5 10,-845.5"/>
<text text-anchor="middle" x="73" y="-1143.5" font-family="Helvetica,sans-Serif" font-size="10.00">XML::XMLObject</text>
<polyline fill="none" stroke="black" points="10,-1136.5 136,-1136.5 "/>
<text text-anchor="start" x="18" y="-1124.5" font-family="Helvetica,sans-Serif" font-size="10.00">+ xmlns</text>
<text text-anchor="start" x="18" y="-1113.5" font-family="Helvetica,sans-Serif" font-size="10.00">+ className</text>
<text text-anchor="start" x="18" y="-1102.5" font-family="Helvetica,sans-Serif" font-size="10.00">+ prefix</text>
<text text-anchor="start" x="18" y="-1091.5" font-family="Helvetica,sans-Serif" font-size="10.00">+ elementName</text>
<text text-anchor="start" x="18" y="-1080.5" font-family="Helvetica,sans-Serif" font-size="10.00">+ textContent</text>
<text text-anchor="start" x="18" y="-1069.5" font-family="Helvetica,sans-Serif" font-size="10.00">+ children</text>
<text text-anchor="start" x="18" y="-1058.5" font-family="Helvetica,sans-Serif" font-size="10.00">+ attributes</text>
<text text-anchor="start" x="18" y="-1047.5" font-family="Helvetica,sans-Serif" font-size="10.00">+ defaults</text>
<text text-anchor="start" x="18" y="-1036.5" font-family="Helvetica,sans-Serif" font-size="10.00"># factory</text>
<polyline fill="none" stroke="black" points="10,-1029.5 136,-1029.5 "/>
<text text-anchor="start" x="18" y="-1017.5" font-family="Helvetica,sans-Serif" font-size="10.00">+ ~XMLObject()</text>
<text text-anchor="start" x="18" y="-1006.5" font-family="Helvetica,sans-Serif" font-size="10.00">+ is()</text>
<text text-anchor="start" x="18" y="-995.5" font-family="Helvetica,sans-Serif" font-size="10.00">+ is()</text>
<text text-anchor="start" x="18" y="-984.5" font-family="Helvetica,sans-Serif" font-size="10.00">+ get()</text>
<text text-anchor="start" x="18" y="-973.5" font-family="Helvetica,sans-Serif" font-size="10.00">+ get()</text>
<text text-anchor="start" x="18" y="-962.5" font-family="Helvetica,sans-Serif" font-size="10.00">+ find()</text>
<text text-anchor="start" x="18" y="-951.5" font-family="Helvetica,sans-Serif" font-size="10.00">+ find()</text>
<text text-anchor="start" x="18" y="-940.5" font-family="Helvetica,sans-Serif" font-size="10.00">+ stringify()</text>
<text text-anchor="start" x="18" y="-929.5" font-family="Helvetica,sans-Serif" font-size="10.00">+ format()</text>
<text text-anchor="start" x="18" y="-918.5" font-family="Helvetica,sans-Serif" font-size="10.00">+ getRequiredChild()</text>
<text text-anchor="start" x="18" y="-907.5" font-family="Helvetica,sans-Serif" font-size="10.00">and 7 more...</text>
<text text-anchor="start" x="18" y="-896.5" font-family="Helvetica,sans-Serif" font-size="10.00">+ createFromStream()</text>
<text text-anchor="start" x="18" y="-885.5" font-family="Helvetica,sans-Serif" font-size="10.00">+ createFromString()</text>
<text text-anchor="start" x="18" y="-874.5" font-family="Helvetica,sans-Serif" font-size="10.00">+ createFromFile()</text>
<text text-anchor="start" x="18" y="-863.5" font-family="Helvetica,sans-Serif" font-size="10.00"># XMLObject()</text>
<text text-anchor="start" x="18" y="-852.5" font-family="Helvetica,sans-Serif" font-size="10.00"># createObject()</text>
</a>
</g>
</g>
<!-- Node7&#45;&gt;Node6 -->
<g id="edge6" class="edge">
<title>Node7&#45;&gt;Node6</title>
<path fill="none" stroke="midnightblue" d="M73,-835.35C73,-825.89 73,-816.91 73,-808.72"/>
<polygon fill="none" stroke="midnightblue" points="69.5,-835.37 73,-845.37 76.5,-835.37 69.5,-835.37"/>
</g>
</g>
</svg>
