<?xml version="1.0" encoding="UTF-8" standalone="no"?>
<!DOCTYPE svg PUBLIC "-//W3C//DTD SVG 1.1//EN"
 "http://www.w3.org/Graphics/SVG/1.1/DTD/svg11.dtd">
<!-- Generated by graphviz version 2.43.0 (0)
 -->
<!-- Title: XML::bpmn::boundaryEvent Pages: 1 -->
<svg width="157pt" height="1267pt"
 viewBox="0.00 0.00 157.00 1267.00" xmlns="http://www.w3.org/2000/svg" xmlns:xlink="http://www.w3.org/1999/xlink">
<g id="graph0" class="graph" transform="scale(1 1) rotate(0) translate(4 1263)">
<title>XML::bpmn::boundaryEvent</title>
<!-- Node1 -->
<g id="Node000001" class="node">
<title>Node1</title>
<g id="a_Node000001"><a xlink:title=" ">
<polygon fill="#999999" stroke="transparent" points="147,-49 2,-49 2,0 147,0 147,-49"/>
<text text-anchor="start" x="7.5" y="-36.5" font-family="Helvetica,sans-Serif" font-size="10.00">XML::bpmn::boundaryEvent</text>
<text text-anchor="start" x="17" y="-21.5" font-family="Helvetica,sans-Serif" font-size="10.00">+</text>
<text text-anchor="start" x="40.5" y="-21.5" font-family="Helvetica,sans-Serif" font-size="10.00">defaults</text>
<text text-anchor="start" x="17" y="-6.5" font-family="Helvetica,sans-Serif" font-size="10.00">#</text>
<text text-anchor="start" x="40.5" y="-6.5" font-family="Helvetica,sans-Serif" font-size="10.00">boundaryEvent()</text>
<polygon fill="#666666" stroke="#666666" points="2.5,-31.5 2.5,-31.5 147.5,-31.5 147.5,-31.5 2.5,-31.5"/>
<polygon fill="#666666" stroke="#666666" points="2.5,-16.5 2.5,-16.5 38.5,-16.5 38.5,-16.5 2.5,-16.5"/>
<polygon fill="#666666" stroke="#666666" points="38.5,-16.5 38.5,-16.5 147.5,-16.5 147.5,-16.5 38.5,-16.5"/>
<polygon fill="none" stroke="#666666" points="2,0 2,-49 147,-49 147,0 2,0"/>
</a>
</g>
</g>
<!-- Node2 -->
<g id="Node000002" class="node">
<title>Node2</title>
<g id="a_Node000002"><a xlink:href="classXML_1_1bpmn_1_1tBoundaryEvent.html" target="_top" xlink:title=" ">
<polygon fill="white" stroke="transparent" points="149,-164 0,-164 0,-85 149,-85 149,-164"/>
<text text-anchor="start" x="5.5" y="-151.5" font-family="Helvetica,sans-Serif" font-size="10.00">XML::bpmn::tBoundaryEvent</text>
<text text-anchor="start" x="15" y="-136.5" font-family="Helvetica,sans-Serif" font-size="10.00">+</text>
<text text-anchor="start" x="38.5" y="-136.5" font-family="Helvetica,sans-Serif" font-size="10.00">cancelActivity</text>
<text text-anchor="start" x="15" y="-121.5" font-family="Helvetica,sans-Serif" font-size="10.00">+</text>
<text text-anchor="start" x="38.5" y="-121.5" font-family="Helvetica,sans-Serif" font-size="10.00">attachedToRef</text>
<text text-anchor="start" x="15" y="-106.5" font-family="Helvetica,sans-Serif" font-size="10.00">+</text>
<text text-anchor="start" x="38.5" y="-106.5" font-family="Helvetica,sans-Serif" font-size="10.00">defaults</text>
<text text-anchor="start" x="15" y="-91.5" font-family="Helvetica,sans-Serif" font-size="10.00">#</text>
<text text-anchor="start" x="38.5" y="-91.5" font-family="Helvetica,sans-Serif" font-size="10.00">tBoundaryEvent()</text>
<polygon fill="#666666" stroke="#666666" points="0.5,-146.5 0.5,-146.5 149.5,-146.5 149.5,-146.5 0.5,-146.5"/>
<polygon fill="#666666" stroke="#666666" points="0.5,-101.5 0.5,-101.5 36.5,-101.5 36.5,-101.5 0.5,-101.5"/>
<polygon fill="#666666" stroke="#666666" points="36.5,-101.5 36.5,-101.5 149.5,-101.5 149.5,-101.5 36.5,-101.5"/>
<polygon fill="none" stroke="#666666" points="0,-85 0,-164 149,-164 149,-85 0,-85"/>
</a>
</g>
</g>
<!-- Node2&#45;&gt;Node1 -->
<g id="edge1_Node000001_Node000002" class="edge">
<title>Node2&#45;&gt;Node1</title>
<g id="a_edge1_Node000001_Node000002"><a xlink:title=" ">
<path fill="none" stroke="#63b8ff" d="M74.5,-74.72C74.5,-65.75 74.5,-56.78 74.5,-49"/>
<polygon fill="none" stroke="#63b8ff" points="71,-74.77 74.5,-84.77 78,-74.77 71,-74.77"/>
</a>
</g>
</g>
<!-- Node3 -->
<g id="Node000003" class="node">
<title>Node3</title>
<g id="a_Node000003"><a xlink:href="classXML_1_1bpmn_1_1tCatchEvent.html" target="_top" xlink:title=" ">
<polygon fill="white" stroke="transparent" points="141,-339 8,-339 8,-200 141,-200 141,-339"/>
<text text-anchor="start" x="14.5" y="-326.5" font-family="Helvetica,sans-Serif" font-size="10.00">XML::bpmn::tCatchEvent</text>
<text text-anchor="start" x="12.5" y="-311.5" font-family="Helvetica,sans-Serif" font-size="10.00">+</text>
<text text-anchor="start" x="25.5" y="-311.5" font-family="Helvetica,sans-Serif" font-size="10.00">dataOutput</text>
<text text-anchor="start" x="12.5" y="-296.5" font-family="Helvetica,sans-Serif" font-size="10.00">+</text>
<text text-anchor="start" x="25.5" y="-296.5" font-family="Helvetica,sans-Serif" font-size="10.00">dataOutputAssociation</text>
<text text-anchor="start" x="12.5" y="-281.5" font-family="Helvetica,sans-Serif" font-size="10.00">+</text>
<text text-anchor="start" x="25.5" y="-281.5" font-family="Helvetica,sans-Serif" font-size="10.00">outputSet</text>
<text text-anchor="start" x="12.5" y="-266.5" font-family="Helvetica,sans-Serif" font-size="10.00">+</text>
<text text-anchor="start" x="25.5" y="-266.5" font-family="Helvetica,sans-Serif" font-size="10.00">eventDefinition</text>
<text text-anchor="start" x="12.5" y="-251.5" font-family="Helvetica,sans-Serif" font-size="10.00">+</text>
<text text-anchor="start" x="25.5" y="-251.5" font-family="Helvetica,sans-Serif" font-size="10.00">eventDefinitionRef</text>
<text text-anchor="start" x="12.5" y="-236.5" font-family="Helvetica,sans-Serif" font-size="10.00">+</text>
<text text-anchor="start" x="25.5" y="-236.5" font-family="Helvetica,sans-Serif" font-size="10.00">parallelMultiple</text>
<text text-anchor="start" x="12.5" y="-221.5" font-family="Helvetica,sans-Serif" font-size="10.00">+</text>
<text text-anchor="start" x="25.5" y="-221.5" font-family="Helvetica,sans-Serif" font-size="10.00">defaults</text>
<text text-anchor="start" x="12.5" y="-206.5" font-family="Helvetica,sans-Serif" font-size="10.00">#</text>
<text text-anchor="start" x="25.5" y="-206.5" font-family="Helvetica,sans-Serif" font-size="10.00">tCatchEvent()</text>
<polygon fill="#666666" stroke="#666666" points="8.5,-321.5 8.5,-321.5 141.5,-321.5 141.5,-321.5 8.5,-321.5"/>
<polygon fill="#666666" stroke="#666666" points="8.5,-216.5 8.5,-216.5 23.5,-216.5 23.5,-216.5 8.5,-216.5"/>
<polygon fill="#666666" stroke="#666666" points="23.5,-216.5 23.5,-216.5 141.5,-216.5 141.5,-216.5 23.5,-216.5"/>
<polygon fill="none" stroke="#666666" points="8,-200 8,-339 141,-339 141,-200 8,-200"/>
</a>
</g>
</g>
<!-- Node3&#45;&gt;Node2 -->
<g id="edge2_Node000002_Node000003" class="edge">
<title>Node3&#45;&gt;Node2</title>
<g id="a_edge2_Node000002_Node000003"><a xlink:title=" ">
<path fill="none" stroke="#63b8ff" d="M74.5,-189.82C74.5,-180.9 74.5,-172.12 74.5,-164.07"/>
<polygon fill="none" stroke="#63b8ff" points="71,-189.93 74.5,-199.93 78,-189.93 71,-189.93"/>
</a>
</g>
</g>
<!-- Node4 -->
<g id="Node000004" class="node">
<title>Node4</title>
<g id="a_Node000004"><a xlink:href="classXML_1_1bpmn_1_1tEvent.html" target="_top" xlink:title=" ">
<polygon fill="white" stroke="transparent" points="126,-439 23,-439 23,-375 126,-375 126,-439"/>
<text text-anchor="start" x="28.5" y="-427" font-family="Helvetica,sans-Serif" font-size="10.00">XML::bpmn::tEvent</text>
<text text-anchor="start" x="37.5" y="-412" font-family="Helvetica,sans-Serif" font-size="10.00">+</text>
<text text-anchor="start" x="60.5" y="-412" font-family="Helvetica,sans-Serif" font-size="10.00">property</text>
<text text-anchor="start" x="37.5" y="-397" font-family="Helvetica,sans-Serif" font-size="10.00">+</text>
<text text-anchor="start" x="60.5" y="-397" font-family="Helvetica,sans-Serif" font-size="10.00">defaults</text>
<text text-anchor="start" x="37.5" y="-382" font-family="Helvetica,sans-Serif" font-size="10.00">#</text>
<text text-anchor="start" x="60.5" y="-382" font-family="Helvetica,sans-Serif" font-size="10.00">tEvent()</text>
<polygon fill="#666666" stroke="#666666" points="23.5,-422 23.5,-422 126.5,-422 126.5,-422 23.5,-422"/>
<polygon fill="#666666" stroke="#666666" points="23.5,-392 23.5,-392 58.5,-392 58.5,-392 23.5,-392"/>
<polygon fill="#666666" stroke="#666666" points="58.5,-392 58.5,-392 126.5,-392 126.5,-392 58.5,-392"/>
<polygon fill="none" stroke="#666666" points="23,-375 23,-439 126,-439 126,-375 23,-375"/>
</a>
</g>
</g>
<!-- Node4&#45;&gt;Node3 -->
<g id="edge3_Node000003_Node000004" class="edge">
<title>Node4&#45;&gt;Node3</title>
<g id="a_edge3_Node000003_Node000004"><a xlink:title=" ">
<path fill="none" stroke="#63b8ff" d="M74.5,-364.69C74.5,-356.62 74.5,-347.95 74.5,-339.26"/>
<polygon fill="none" stroke="#63b8ff" points="71,-364.91 74.5,-374.91 78,-364.91 71,-364.91"/>
</a>
</g>
</g>
<!-- Node5 -->
<g id="Node000005" class="node">
<title>Node5</title>
<g id="a_Node000005"><a xlink:href="classXML_1_1bpmn_1_1tFlowNode.html" target="_top" xlink:title=" ">
<polygon fill="white" stroke="transparent" points="136.5,-554 12.5,-554 12.5,-475 136.5,-475 136.5,-554"/>
<text text-anchor="start" x="17.5" y="-541.5" font-family="Helvetica,sans-Serif" font-size="10.00">XML::bpmn::tFlowNode</text>
<text text-anchor="start" x="27" y="-526.5" font-family="Helvetica,sans-Serif" font-size="10.00">+</text>
<text text-anchor="start" x="50.5" y="-526.5" font-family="Helvetica,sans-Serif" font-size="10.00">incoming</text>
<text text-anchor="start" x="27" y="-511.5" font-family="Helvetica,sans-Serif" font-size="10.00">+</text>
<text text-anchor="start" x="50.5" y="-511.5" font-family="Helvetica,sans-Serif" font-size="10.00">outgoing</text>
<text text-anchor="start" x="27" y="-496.5" font-family="Helvetica,sans-Serif" font-size="10.00">+</text>
<text text-anchor="start" x="50.5" y="-496.5" font-family="Helvetica,sans-Serif" font-size="10.00">defaults</text>
<text text-anchor="start" x="27" y="-481.5" font-family="Helvetica,sans-Serif" font-size="10.00">#</text>
<text text-anchor="start" x="50.5" y="-481.5" font-family="Helvetica,sans-Serif" font-size="10.00">tFlowNode()</text>
<polygon fill="#666666" stroke="#666666" points="12.5,-536.5 12.5,-536.5 136.5,-536.5 136.5,-536.5 12.5,-536.5"/>
<polygon fill="#666666" stroke="#666666" points="12.5,-491.5 12.5,-491.5 48.5,-491.5 48.5,-491.5 12.5,-491.5"/>
<polygon fill="#666666" stroke="#666666" points="48.5,-491.5 48.5,-491.5 136.5,-491.5 136.5,-491.5 48.5,-491.5"/>
<polygon fill="none" stroke="#666666" points="12.5,-475 12.5,-554 136.5,-554 136.5,-475 12.5,-475"/>
</a>
</g>
</g>
<!-- Node5&#45;&gt;Node4 -->
<g id="edge4_Node000004_Node000005" class="edge">
<title>Node5&#45;&gt;Node4</title>
<g id="a_edge4_Node000004_Node000005"><a xlink:title=" ">
<path fill="none" stroke="#63b8ff" d="M74.5,-464.71C74.5,-456 74.5,-447.14 74.5,-439.09"/>
<polygon fill="none" stroke="#63b8ff" points="71,-464.81 74.5,-474.81 78,-464.81 71,-464.81"/>
</a>
</g>
</g>
<!-- Node6 -->
<g id="Node000006" class="node">
<title>Node6</title>
<g id="a_Node000006"><a xlink:href="classXML_1_1bpmn_1_1tFlowElement.html" target="_top" xlink:title=" ">
<polygon fill="white" stroke="transparent" points="144,-699 5,-699 5,-590 144,-590 144,-699"/>
<text text-anchor="start" x="10.5" y="-686.5" font-family="Helvetica,sans-Serif" font-size="10.00">XML::bpmn::tFlowElement</text>
<text text-anchor="start" x="17" y="-671.5" font-family="Helvetica,sans-Serif" font-size="10.00">+</text>
<text text-anchor="start" x="37.5" y="-671.5" font-family="Helvetica,sans-Serif" font-size="10.00">auditing</text>
<text text-anchor="start" x="17" y="-656.5" font-family="Helvetica,sans-Serif" font-size="10.00">+</text>
<text text-anchor="start" x="37.5" y="-656.5" font-family="Helvetica,sans-Serif" font-size="10.00">monitoring</text>
<text text-anchor="start" x="17" y="-641.5" font-family="Helvetica,sans-Serif" font-size="10.00">+</text>
<text text-anchor="start" x="37.5" y="-641.5" font-family="Helvetica,sans-Serif" font-size="10.00">categoryValueRef</text>
<text text-anchor="start" x="17" y="-626.5" font-family="Helvetica,sans-Serif" font-size="10.00">+</text>
<text text-anchor="start" x="37.5" y="-626.5" font-family="Helvetica,sans-Serif" font-size="10.00">name</text>
<text text-anchor="start" x="17" y="-611.5" font-family="Helvetica,sans-Serif" font-size="10.00">+</text>
<text text-anchor="start" x="37.5" y="-611.5" font-family="Helvetica,sans-Serif" font-size="10.00">defaults</text>
<text text-anchor="start" x="17" y="-596.5" font-family="Helvetica,sans-Serif" font-size="10.00">#</text>
<text text-anchor="start" x="37.5" y="-596.5" font-family="Helvetica,sans-Serif" font-size="10.00">tFlowElement()</text>
<polygon fill="#666666" stroke="#666666" points="5.5,-681.5 5.5,-681.5 144.5,-681.5 144.5,-681.5 5.5,-681.5"/>
<polygon fill="#666666" stroke="#666666" points="5.5,-606.5 5.5,-606.5 35.5,-606.5 35.5,-606.5 5.5,-606.5"/>
<polygon fill="#666666" stroke="#666666" points="35.5,-606.5 35.5,-606.5 144.5,-606.5 144.5,-606.5 35.5,-606.5"/>
<polygon fill="none" stroke="#666666" points="5,-590 5,-699 144,-699 144,-590 5,-590"/>
</a>
</g>
</g>
<!-- Node6&#45;&gt;Node5 -->
<g id="edge5_Node000005_Node000006" class="edge">
<title>Node6&#45;&gt;Node5</title>
<g id="a_edge5_Node000005_Node000006"><a xlink:title=" ">
<path fill="none" stroke="#63b8ff" d="M74.5,-579.7C74.5,-570.93 74.5,-562.16 74.5,-554.03"/>
<polygon fill="none" stroke="#63b8ff" points="71,-579.96 74.5,-589.96 78,-579.96 71,-579.96"/>
</a>
</g>
</g>
<!-- Node7 -->
<g id="Node000007" class="node">
<title>Node7</title>
<g id="a_Node000007"><a xlink:href="classXML_1_1bpmn_1_1tBaseElement.html" target="_top" xlink:title=" ">
<polygon fill="white" stroke="transparent" points="144.5,-829 4.5,-829 4.5,-735 144.5,-735 144.5,-829"/>
<text text-anchor="start" x="9.5" y="-817" font-family="Helvetica,sans-Serif" font-size="10.00">XML::bpmn::tBaseElement</text>
<text text-anchor="start" x="14.5" y="-802" font-family="Helvetica,sans-Serif" font-size="10.00">+</text>
<text text-anchor="start" x="33.5" y="-802" font-family="Helvetica,sans-Serif" font-size="10.00">documentation</text>
<text text-anchor="start" x="14.5" y="-787" font-family="Helvetica,sans-Serif" font-size="10.00">+</text>
<text text-anchor="start" x="33.5" y="-787" font-family="Helvetica,sans-Serif" font-size="10.00">extensionElements</text>
<text text-anchor="start" x="14.5" y="-772" font-family="Helvetica,sans-Serif" font-size="10.00">+</text>
<text text-anchor="start" x="33.5" y="-772" font-family="Helvetica,sans-Serif" font-size="10.00">id</text>
<text text-anchor="start" x="14.5" y="-757" font-family="Helvetica,sans-Serif" font-size="10.00">+</text>
<text text-anchor="start" x="33.5" y="-757" font-family="Helvetica,sans-Serif" font-size="10.00">defaults</text>
<text text-anchor="start" x="14.5" y="-742" font-family="Helvetica,sans-Serif" font-size="10.00">#</text>
<text text-anchor="start" x="33.5" y="-742" font-family="Helvetica,sans-Serif" font-size="10.00">tBaseElement()</text>
<polygon fill="#666666" stroke="#666666" points="4.5,-812 4.5,-812 144.5,-812 144.5,-812 4.5,-812"/>
<polygon fill="#666666" stroke="#666666" points="4.5,-752 4.5,-752 31.5,-752 31.5,-752 4.5,-752"/>
<polygon fill="#666666" stroke="#666666" points="31.5,-752 31.5,-752 144.5,-752 144.5,-752 31.5,-752"/>
<polygon fill="none" stroke="#666666" points="4.5,-735 4.5,-829 144.5,-829 144.5,-735 4.5,-735"/>
</a>
</g>
</g>
<!-- Node7&#45;&gt;Node6 -->
<g id="edge6_Node000006_Node000007" class="edge">
<title>Node7&#45;&gt;Node6</title>
<g id="a_edge6_Node000006_Node000007"><a xlink:title=" ">
<path fill="none" stroke="#63b8ff" d="M74.5,-724.58C74.5,-716.12 74.5,-707.41 74.5,-699.01"/>
<polygon fill="none" stroke="#63b8ff" points="71,-724.75 74.5,-734.75 78,-724.75 71,-724.75"/>
</a>
</g>
</g>
<!-- Node8 -->
<g id="Node000008" class="node">
<title>Node8</title>
<g id="a_Node000008"><a xlink:href="classXML_1_1XMLObject.html" target="_top" xlink:title="A class representing a node in an XML&#45;tree.">
<polygon fill="white" stroke="transparent" points="134.5,-1259 14.5,-1259 14.5,-865 134.5,-865 134.5,-1259"/>
<text text-anchor="start" x="34.5" y="-1247" font-family="Helvetica,sans-Serif" font-size="10.00">XML::XMLObject</text>
<text text-anchor="start" x="18.5" y="-1232" font-family="Helvetica,sans-Serif" font-size="10.00">+</text>
<text text-anchor="start" x="31.5" y="-1232" font-family="Helvetica,sans-Serif" font-size="10.00">xmlns</text>
<text text-anchor="start" x="18.5" y="-1217" font-family="Helvetica,sans-Serif" font-size="10.00">+</text>
<text text-anchor="start" x="31.5" y="-1217" font-family="Helvetica,sans-Serif" font-size="10.00">className</text>
<text text-anchor="start" x="18.5" y="-1202" font-family="Helvetica,sans-Serif" font-size="10.00">+</text>
<text text-anchor="start" x="31.5" y="-1202" font-family="Helvetica,sans-Serif" font-size="10.00">prefix</text>
<text text-anchor="start" x="18.5" y="-1187" font-family="Helvetica,sans-Serif" font-size="10.00">+</text>
<text text-anchor="start" x="31.5" y="-1187" font-family="Helvetica,sans-Serif" font-size="10.00">elementName</text>
<text text-anchor="start" x="18.5" y="-1172" font-family="Helvetica,sans-Serif" font-size="10.00">+</text>
<text text-anchor="start" x="31.5" y="-1172" font-family="Helvetica,sans-Serif" font-size="10.00">textContent</text>
<text text-anchor="start" x="18.5" y="-1157" font-family="Helvetica,sans-Serif" font-size="10.00">+</text>
<text text-anchor="start" x="31.5" y="-1157" font-family="Helvetica,sans-Serif" font-size="10.00">children</text>
<text text-anchor="start" x="18.5" y="-1142" font-family="Helvetica,sans-Serif" font-size="10.00">+</text>
<text text-anchor="start" x="31.5" y="-1142" font-family="Helvetica,sans-Serif" font-size="10.00">attributes</text>
<text text-anchor="start" x="18.5" y="-1127" font-family="Helvetica,sans-Serif" font-size="10.00">+</text>
<text text-anchor="start" x="31.5" y="-1127" font-family="Helvetica,sans-Serif" font-size="10.00">defaults</text>
<text text-anchor="start" x="18.5" y="-1112" font-family="Helvetica,sans-Serif" font-size="10.00">#</text>
<text text-anchor="start" x="31.5" y="-1112" font-family="Helvetica,sans-Serif" font-size="10.00">factory</text>
<text text-anchor="start" x="18.5" y="-1097" font-family="Helvetica,sans-Serif" font-size="10.00">+</text>
<text text-anchor="start" x="31.5" y="-1097" font-family="Helvetica,sans-Serif" font-size="10.00">~XMLObject()</text>
<text text-anchor="start" x="18.5" y="-1082" font-family="Helvetica,sans-Serif" font-size="10.00">+</text>
<text text-anchor="start" x="31.5" y="-1082" font-family="Helvetica,sans-Serif" font-size="10.00">is()</text>
<text text-anchor="start" x="18.5" y="-1067" font-family="Helvetica,sans-Serif" font-size="10.00">+</text>
<text text-anchor="start" x="31.5" y="-1067" font-family="Helvetica,sans-Serif" font-size="10.00">is()</text>
<text text-anchor="start" x="18.5" y="-1052" font-family="Helvetica,sans-Serif" font-size="10.00">+</text>
<text text-anchor="start" x="31.5" y="-1052" font-family="Helvetica,sans-Serif" font-size="10.00">get()</text>
<text text-anchor="start" x="18.5" y="-1037" font-family="Helvetica,sans-Serif" font-size="10.00">+</text>
<text text-anchor="start" x="31.5" y="-1037" font-family="Helvetica,sans-Serif" font-size="10.00">get()</text>
<text text-anchor="start" x="18.5" y="-1022" font-family="Helvetica,sans-Serif" font-size="10.00">+</text>
<text text-anchor="start" x="31.5" y="-1022" font-family="Helvetica,sans-Serif" font-size="10.00">find()</text>
<text text-anchor="start" x="18.5" y="-1007" font-family="Helvetica,sans-Serif" font-size="10.00">+</text>
<text text-anchor="start" x="31.5" y="-1007" font-family="Helvetica,sans-Serif" font-size="10.00">find()</text>
<text text-anchor="start" x="18.5" y="-992" font-family="Helvetica,sans-Serif" font-size="10.00">+</text>
<text text-anchor="start" x="31.5" y="-992" font-family="Helvetica,sans-Serif" font-size="10.00">stringify()</text>
<text text-anchor="start" x="18.5" y="-977" font-family="Helvetica,sans-Serif" font-size="10.00">+</text>
<text text-anchor="start" x="31.5" y="-977" font-family="Helvetica,sans-Serif" font-size="10.00">format()</text>
<text text-anchor="start" x="18.5" y="-962" font-family="Helvetica,sans-Serif" font-size="10.00">+</text>
<text text-anchor="start" x="31.5" y="-962" font-family="Helvetica,sans-Serif" font-size="10.00">getRequiredChild()</text>
<text text-anchor="start" x="31.5" y="-947" font-family="Helvetica,sans-Serif" font-size="10.00">and 7 more...</text>
<text text-anchor="start" x="18.5" y="-932" font-family="Helvetica,sans-Serif" font-size="10.00">+</text>
<text text-anchor="start" x="31.5" y="-932" font-family="Helvetica,sans-Serif" font-size="10.00">createFromStream()</text>
<text text-anchor="start" x="18.5" y="-917" font-family="Helvetica,sans-Serif" font-size="10.00">+</text>
<text text-anchor="start" x="31.5" y="-917" font-family="Helvetica,sans-Serif" font-size="10.00">createFromString()</text>
<text text-anchor="start" x="18.5" y="-902" font-family="Helvetica,sans-Serif" font-size="10.00">+</text>
<text text-anchor="start" x="31.5" y="-902" font-family="Helvetica,sans-Serif" font-size="10.00">createFromFile()</text>
<text text-anchor="start" x="18.5" y="-887" font-family="Helvetica,sans-Serif" font-size="10.00">#</text>
<text text-anchor="start" x="31.5" y="-887" font-family="Helvetica,sans-Serif" font-size="10.00">XMLObject()</text>
<text text-anchor="start" x="18.5" y="-872" font-family="Helvetica,sans-Serif" font-size="10.00">#</text>
<text text-anchor="start" x="31.5" y="-872" font-family="Helvetica,sans-Serif" font-size="10.00">createObject()</text>
<polygon fill="#666666" stroke="#666666" points="14.5,-1242 14.5,-1242 134.5,-1242 134.5,-1242 14.5,-1242"/>
<polygon fill="#666666" stroke="#666666" points="14.5,-1107 14.5,-1107 29.5,-1107 29.5,-1107 14.5,-1107"/>
<polygon fill="#666666" stroke="#666666" points="29.5,-1107 29.5,-1107 134.5,-1107 134.5,-1107 29.5,-1107"/>
<polygon fill="none" stroke="#666666" points="14.5,-865 14.5,-1259 134.5,-1259 134.5,-865 14.5,-865"/>
</a>
</g>
</g>
<!-- Node8&#45;&gt;Node7 -->
<g id="edge7_Node000007_Node000008" class="edge">
<title>Node8&#45;&gt;Node7</title>
<g id="a_edge7_Node000007_Node000008"><a xlink:title=" ">
<path fill="none" stroke="#63b8ff" d="M74.5,-854.78C74.5,-845.62 74.5,-836.97 74.5,-829.06"/>
<polygon fill="none" stroke="#63b8ff" points="71,-854.91 74.5,-864.91 78,-854.91 71,-854.91"/>
</a>
</g>
</g>
</g>
</svg>
