<?xml version="1.0" encoding="UTF-8" standalone="no"?>
<!DOCTYPE svg PUBLIC "-//W3C//DTD SVG 1.1//EN"
 "http://www.w3.org/Graphics/SVG/1.1/DTD/svg11.dtd">
<!-- Generated by graphviz version 2.43.0 (0)
 -->
<!-- Title: XML::bpmn::tDataAssociation Pages: 1 -->
<svg width="578pt" height="772pt"
 viewBox="0.00 0.00 577.50 772.00" xmlns="http://www.w3.org/2000/svg" xmlns:xlink="http://www.w3.org/1999/xlink">
<g id="graph0" class="graph" transform="scale(1 1) rotate(0) translate(4 768)">
<title>XML::bpmn::tDataAssociation</title>
<!-- Node1 -->
<g id="node1" class="node">
<title>Node1</title>
<g id="a_node1"><a xlink:title=" ">
<polygon fill="#bfbfbf" stroke="black" points="185,-188.5 185,-289.5 346,-289.5 346,-188.5 185,-188.5"/>
<text text-anchor="middle" x="265.5" y="-277.5" font-family="Helvetica,sans-Serif" font-size="10.00">XML::bpmn::tDataAssociation</text>
<polyline fill="none" stroke="black" points="185,-270.5 346,-270.5 "/>
<text text-anchor="start" x="193" y="-258.5" font-family="Helvetica,sans-Serif" font-size="10.00">+ sourceRef</text>
<text text-anchor="start" x="193" y="-247.5" font-family="Helvetica,sans-Serif" font-size="10.00">+ targetRef</text>
<text text-anchor="start" x="193" y="-236.5" font-family="Helvetica,sans-Serif" font-size="10.00">+ transformation</text>
<text text-anchor="start" x="193" y="-225.5" font-family="Helvetica,sans-Serif" font-size="10.00">+ assignment</text>
<text text-anchor="start" x="193" y="-214.5" font-family="Helvetica,sans-Serif" font-size="10.00">+ defaults</text>
<polyline fill="none" stroke="black" points="185,-207.5 346,-207.5 "/>
<text text-anchor="start" x="193" y="-195.5" font-family="Helvetica,sans-Serif" font-size="10.00"># tDataAssociation()</text>
</a>
</g>
</g>
<!-- Node4 -->
<g id="node4" class="node">
<title>Node4</title>
<g id="a_node4"><a xlink:href="classXML_1_1bpmn_1_1dataAssociation.html" target="_top" xlink:title=" ">
<polygon fill="none" stroke="black" points="0,-94.5 0,-151.5 155,-151.5 155,-94.5 0,-94.5"/>
<text text-anchor="middle" x="77.5" y="-139.5" font-family="Helvetica,sans-Serif" font-size="10.00">XML::bpmn::dataAssociation</text>
<polyline fill="none" stroke="black" points="0,-132.5 155,-132.5 "/>
<text text-anchor="start" x="8" y="-120.5" font-family="Helvetica,sans-Serif" font-size="10.00">+ defaults</text>
<polyline fill="none" stroke="black" points="0,-113.5 155,-113.5 "/>
<text text-anchor="start" x="8" y="-101.5" font-family="Helvetica,sans-Serif" font-size="10.00"># dataAssociation()</text>
</a>
</g>
</g>
<!-- Node1&#45;&gt;Node4 -->
<g id="edge3" class="edge">
<title>Node1&#45;&gt;Node4</title>
<path fill="none" stroke="midnightblue" d="M176.21,-183.85C157.73,-172.65 139.01,-161.3 122.92,-151.54"/>
<polygon fill="none" stroke="midnightblue" points="174.59,-186.97 184.95,-189.16 178.22,-180.98 174.59,-186.97"/>
</g>
<!-- Node5 -->
<g id="node5" class="node">
<title>Node5</title>
<g id="a_node5"><a xlink:href="classXML_1_1bpmn_1_1tDataInputAssociation.html" target="_top" xlink:title=" ">
<polygon fill="none" stroke="black" points="173,-94.5 173,-151.5 358,-151.5 358,-94.5 173,-94.5"/>
<text text-anchor="middle" x="265.5" y="-139.5" font-family="Helvetica,sans-Serif" font-size="10.00">XML::bpmn::tDataInputAssociation</text>
<polyline fill="none" stroke="black" points="173,-132.5 358,-132.5 "/>
<text text-anchor="start" x="181" y="-120.5" font-family="Helvetica,sans-Serif" font-size="10.00">+ defaults</text>
<polyline fill="none" stroke="black" points="173,-113.5 358,-113.5 "/>
<text text-anchor="start" x="181" y="-101.5" font-family="Helvetica,sans-Serif" font-size="10.00"># tDataInputAssociation()</text>
</a>
</g>
</g>
<!-- Node1&#45;&gt;Node5 -->
<g id="edge4" class="edge">
<title>Node1&#45;&gt;Node5</title>
<path fill="none" stroke="midnightblue" d="M265.5,-178.23C265.5,-168.92 265.5,-159.71 265.5,-151.59"/>
<polygon fill="none" stroke="midnightblue" points="262,-178.33 265.5,-188.33 269,-178.33 262,-178.33"/>
</g>
<!-- Node7 -->
<g id="node7" class="node">
<title>Node7</title>
<g id="a_node7"><a xlink:href="classXML_1_1bpmn_1_1tDataOutputAssociation.html" target="_top" xlink:title=" ">
<polygon fill="none" stroke="black" points="375.5,-94.5 375.5,-151.5 569.5,-151.5 569.5,-94.5 375.5,-94.5"/>
<text text-anchor="middle" x="472.5" y="-139.5" font-family="Helvetica,sans-Serif" font-size="10.00">XML::bpmn::tDataOutputAssociation</text>
<polyline fill="none" stroke="black" points="375.5,-132.5 569.5,-132.5 "/>
<text text-anchor="start" x="383.5" y="-120.5" font-family="Helvetica,sans-Serif" font-size="10.00">+ defaults</text>
<polyline fill="none" stroke="black" points="375.5,-113.5 569.5,-113.5 "/>
<text text-anchor="start" x="383.5" y="-101.5" font-family="Helvetica,sans-Serif" font-size="10.00"># tDataOutputAssociation()</text>
</a>
</g>
</g>
<!-- Node1&#45;&gt;Node7 -->
<g id="edge6" class="edge">
<title>Node1&#45;&gt;Node7</title>
<path fill="none" stroke="midnightblue" d="M354.91,-188.76C377.98,-176.06 402,-162.83 422.27,-151.66"/>
<polygon fill="none" stroke="midnightblue" points="353.2,-185.71 346.12,-193.6 356.57,-191.84 353.2,-185.71"/>
</g>
<!-- Node2 -->
<g id="node2" class="node">
<title>Node2</title>
<g id="a_node2"><a xlink:href="classXML_1_1bpmn_1_1tBaseElement.html" target="_top" xlink:title=" ">
<polygon fill="none" stroke="black" points="192.5,-326.5 192.5,-416.5 338.5,-416.5 338.5,-326.5 192.5,-326.5"/>
<text text-anchor="middle" x="265.5" y="-404.5" font-family="Helvetica,sans-Serif" font-size="10.00">XML::bpmn::tBaseElement</text>
<polyline fill="none" stroke="black" points="192.5,-397.5 338.5,-397.5 "/>
<text text-anchor="start" x="200.5" y="-385.5" font-family="Helvetica,sans-Serif" font-size="10.00">+ documentation</text>
<text text-anchor="start" x="200.5" y="-374.5" font-family="Helvetica,sans-Serif" font-size="10.00">+ extensionElements</text>
<text text-anchor="start" x="200.5" y="-363.5" font-family="Helvetica,sans-Serif" font-size="10.00">+ id</text>
<text text-anchor="start" x="200.5" y="-352.5" font-family="Helvetica,sans-Serif" font-size="10.00">+ defaults</text>
<polyline fill="none" stroke="black" points="192.5,-345.5 338.5,-345.5 "/>
<text text-anchor="start" x="200.5" y="-333.5" font-family="Helvetica,sans-Serif" font-size="10.00"># tBaseElement()</text>
</a>
</g>
</g>
<!-- Node2&#45;&gt;Node1 -->
<g id="edge1" class="edge">
<title>Node2&#45;&gt;Node1</title>
<path fill="none" stroke="midnightblue" d="M265.5,-316.13C265.5,-307.31 265.5,-298.22 265.5,-289.52"/>
<polygon fill="none" stroke="midnightblue" points="262,-316.32 265.5,-326.32 269,-316.32 262,-316.32"/>
</g>
<!-- Node3 -->
<g id="node3" class="node">
<title>Node3</title>
<g id="a_node3"><a xlink:href="classXML_1_1XMLObject.html" target="_top" xlink:title="A class representing a node in an XML&#45;tree.">
<polygon fill="none" stroke="black" points="202.5,-453.5 202.5,-763.5 328.5,-763.5 328.5,-453.5 202.5,-453.5"/>
<text text-anchor="middle" x="265.5" y="-751.5" font-family="Helvetica,sans-Serif" font-size="10.00">XML::XMLObject</text>
<polyline fill="none" stroke="black" points="202.5,-744.5 328.5,-744.5 "/>
<text text-anchor="start" x="210.5" y="-732.5" font-family="Helvetica,sans-Serif" font-size="10.00">+ xmlns</text>
<text text-anchor="start" x="210.5" y="-721.5" font-family="Helvetica,sans-Serif" font-size="10.00">+ className</text>
<text text-anchor="start" x="210.5" y="-710.5" font-family="Helvetica,sans-Serif" font-size="10.00">+ prefix</text>
<text text-anchor="start" x="210.5" y="-699.5" font-family="Helvetica,sans-Serif" font-size="10.00">+ elementName</text>
<text text-anchor="start" x="210.5" y="-688.5" font-family="Helvetica,sans-Serif" font-size="10.00">+ textContent</text>
<text text-anchor="start" x="210.5" y="-677.5" font-family="Helvetica,sans-Serif" font-size="10.00">+ children</text>
<text text-anchor="start" x="210.5" y="-666.5" font-family="Helvetica,sans-Serif" font-size="10.00">+ attributes</text>
<text text-anchor="start" x="210.5" y="-655.5" font-family="Helvetica,sans-Serif" font-size="10.00">+ defaults</text>
<text text-anchor="start" x="210.5" y="-644.5" font-family="Helvetica,sans-Serif" font-size="10.00"># factory</text>
<polyline fill="none" stroke="black" points="202.5,-637.5 328.5,-637.5 "/>
<text text-anchor="start" x="210.5" y="-625.5" font-family="Helvetica,sans-Serif" font-size="10.00">+ ~XMLObject()</text>
<text text-anchor="start" x="210.5" y="-614.5" font-family="Helvetica,sans-Serif" font-size="10.00">+ is()</text>
<text text-anchor="start" x="210.5" y="-603.5" font-family="Helvetica,sans-Serif" font-size="10.00">+ is()</text>
<text text-anchor="start" x="210.5" y="-592.5" font-family="Helvetica,sans-Serif" font-size="10.00">+ get()</text>
<text text-anchor="start" x="210.5" y="-581.5" font-family="Helvetica,sans-Serif" font-size="10.00">+ get()</text>
<text text-anchor="start" x="210.5" y="-570.5" font-family="Helvetica,sans-Serif" font-size="10.00">+ find()</text>
<text text-anchor="start" x="210.5" y="-559.5" font-family="Helvetica,sans-Serif" font-size="10.00">+ find()</text>
<text text-anchor="start" x="210.5" y="-548.5" font-family="Helvetica,sans-Serif" font-size="10.00">+ stringify()</text>
<text text-anchor="start" x="210.5" y="-537.5" font-family="Helvetica,sans-Serif" font-size="10.00">+ format()</text>
<text text-anchor="start" x="210.5" y="-526.5" font-family="Helvetica,sans-Serif" font-size="10.00">+ getRequiredChild()</text>
<text text-anchor="start" x="210.5" y="-515.5" font-family="Helvetica,sans-Serif" font-size="10.00">and 7 more...</text>
<text text-anchor="start" x="210.5" y="-504.5" font-family="Helvetica,sans-Serif" font-size="10.00">+ createFromStream()</text>
<text text-anchor="start" x="210.5" y="-493.5" font-family="Helvetica,sans-Serif" font-size="10.00">+ createFromString()</text>
<text text-anchor="start" x="210.5" y="-482.5" font-family="Helvetica,sans-Serif" font-size="10.00">+ createFromFile()</text>
<text text-anchor="start" x="210.5" y="-471.5" font-family="Helvetica,sans-Serif" font-size="10.00"># XMLObject()</text>
<text text-anchor="start" x="210.5" y="-460.5" font-family="Helvetica,sans-Serif" font-size="10.00"># createObject()</text>
</a>
</g>
</g>
<!-- Node3&#45;&gt;Node2 -->
<g id="edge2" class="edge">
<title>Node3&#45;&gt;Node2</title>
<path fill="none" stroke="midnightblue" d="M265.5,-443.35C265.5,-433.89 265.5,-424.91 265.5,-416.72"/>
<polygon fill="none" stroke="midnightblue" points="262,-443.37 265.5,-453.37 269,-443.37 262,-443.37"/>
</g>
<!-- Node6 -->
<g id="node6" class="node">
<title>Node6</title>
<g id="a_node6"><a xlink:href="classXML_1_1bpmn_1_1dataInputAssociation.html" target="_top" xlink:title=" ">
<polygon fill="none" stroke="black" points="175.5,-0.5 175.5,-57.5 355.5,-57.5 355.5,-0.5 175.5,-0.5"/>
<text text-anchor="middle" x="265.5" y="-45.5" font-family="Helvetica,sans-Serif" font-size="10.00">XML::bpmn::dataInputAssociation</text>
<polyline fill="none" stroke="black" points="175.5,-38.5 355.5,-38.5 "/>
<text text-anchor="start" x="183.5" y="-26.5" font-family="Helvetica,sans-Serif" font-size="10.00">+ defaults</text>
<polyline fill="none" stroke="black" points="175.5,-19.5 355.5,-19.5 "/>
<text text-anchor="start" x="183.5" y="-7.5" font-family="Helvetica,sans-Serif" font-size="10.00"># dataInputAssociation()</text>
</a>
</g>
</g>
<!-- Node5&#45;&gt;Node6 -->
<g id="edge5" class="edge">
<title>Node5&#45;&gt;Node6</title>
<path fill="none" stroke="midnightblue" d="M265.5,-84.21C265.5,-75.29 265.5,-65.95 265.5,-57.58"/>
<polygon fill="none" stroke="midnightblue" points="262,-84.4 265.5,-94.4 269,-84.4 262,-84.4"/>
</g>
<!-- Node8 -->
<g id="node8" class="node">
<title>Node8</title>
<g id="a_node8"><a xlink:href="classXML_1_1bpmn_1_1dataOutputAssociation.html" target="_top" xlink:title=" ">
<polygon fill="none" stroke="black" points="378.5,-0.5 378.5,-57.5 566.5,-57.5 566.5,-0.5 378.5,-0.5"/>
<text text-anchor="middle" x="472.5" y="-45.5" font-family="Helvetica,sans-Serif" font-size="10.00">XML::bpmn::dataOutputAssociation</text>
<polyline fill="none" stroke="black" points="378.5,-38.5 566.5,-38.5 "/>
<text text-anchor="start" x="386.5" y="-26.5" font-family="Helvetica,sans-Serif" font-size="10.00">+ defaults</text>
<polyline fill="none" stroke="black" points="378.5,-19.5 566.5,-19.5 "/>
<text text-anchor="start" x="386.5" y="-7.5" font-family="Helvetica,sans-Serif" font-size="10.00"># dataOutputAssociation()</text>
</a>
</g>
</g>
<!-- Node7&#45;&gt;Node8 -->
<g id="edge7" class="edge">
<title>Node7&#45;&gt;Node8</title>
<path fill="none" stroke="midnightblue" d="M472.5,-84.21C472.5,-75.29 472.5,-65.95 472.5,-57.58"/>
<polygon fill="none" stroke="midnightblue" points="469,-84.4 472.5,-94.4 476,-84.4 469,-84.4"/>
</g>
</g>
</svg>
