<?xml version="1.0" encoding="UTF-8" standalone="no"?>
<!DOCTYPE svg PUBLIC "-//W3C//DTD SVG 1.1//EN"
 "http://www.w3.org/Graphics/SVG/1.1/DTD/svg11.dtd">
<!-- Generated by graphviz version 2.43.0 (0)
 -->
<!-- Title: BPMN::ReceiveTask Pages: 1 -->
<svg width="267pt" height="1060pt"
 viewBox="0.00 0.00 266.50 1060.00" xmlns="http://www.w3.org/2000/svg" xmlns:xlink="http://www.w3.org/1999/xlink">
<g id="graph0" class="graph" transform="scale(1 1) rotate(0) translate(4 1056)">
<title>BPMN::ReceiveTask</title>
<!-- Node1 -->
<g id="node1" class="node">
<title>Node1</title>
<g id="a_node1"><a xlink:title=" ">
<polygon fill="#bfbfbf" stroke="black" points="60.5,-0.5 60.5,-57.5 173.5,-57.5 173.5,-0.5 60.5,-0.5"/>
<text text-anchor="middle" x="117" y="-45.5" font-family="Helvetica,sans-Serif" font-size="10.00">BPMN::ReceiveTask</text>
<polyline fill="none" stroke="black" points="60.5,-38.5 173.5,-38.5 "/>
<text text-anchor="start" x="68.5" y="-26.5" font-family="Helvetica,sans-Serif" font-size="10.00">+ element</text>
<polyline fill="none" stroke="black" points="60.5,-19.5 173.5,-19.5 "/>
<text text-anchor="start" x="68.5" y="-7.5" font-family="Helvetica,sans-Serif" font-size="10.00">+ ReceiveTask()</text>
</a>
</g>
</g>
<!-- Node2 -->
<g id="node2" class="node">
<title>Node2</title>
<g id="a_node2"><a xlink:href="classBPMN_1_1Task.html" target="_top" xlink:title=" ">
<polygon fill="none" stroke="black" points="15,-94.5 15,-151.5 89,-151.5 89,-94.5 15,-94.5"/>
<text text-anchor="middle" x="52" y="-139.5" font-family="Helvetica,sans-Serif" font-size="10.00">BPMN::Task</text>
<polyline fill="none" stroke="black" points="15,-132.5 89,-132.5 "/>
<text text-anchor="start" x="23" y="-120.5" font-family="Helvetica,sans-Serif" font-size="10.00">+ element</text>
<polyline fill="none" stroke="black" points="15,-113.5 89,-113.5 "/>
<text text-anchor="start" x="23" y="-101.5" font-family="Helvetica,sans-Serif" font-size="10.00">+ Task()</text>
</a>
</g>
</g>
<!-- Node2&#45;&gt;Node1 -->
<g id="edge1" class="edge">
<title>Node2&#45;&gt;Node1</title>
<path fill="none" stroke="midnightblue" d="M77.47,-85.95C84.14,-76.52 91.21,-66.5 97.51,-57.58"/>
<polygon fill="none" stroke="midnightblue" points="74.41,-84.21 71.5,-94.4 80.13,-88.25 74.41,-84.21"/>
</g>
<!-- Node3 -->
<g id="node3" class="node">
<title>Node3</title>
<g id="a_node3"><a xlink:href="classBPMN_1_1Activity.html" target="_top" xlink:title=" ">
<polygon fill="none" stroke="black" points="0,-282.5 0,-383.5 122,-383.5 122,-282.5 0,-282.5"/>
<text text-anchor="middle" x="61" y="-371.5" font-family="Helvetica,sans-Serif" font-size="10.00">BPMN::Activity</text>
<polyline fill="none" stroke="black" points="0,-364.5 122,-364.5 "/>
<text text-anchor="start" x="8" y="-352.5" font-family="Helvetica,sans-Serif" font-size="10.00">+ boundaryEvents</text>
<text text-anchor="start" x="8" y="-341.5" font-family="Helvetica,sans-Serif" font-size="10.00">+ compensatedBy</text>
<text text-anchor="start" x="8" y="-330.5" font-family="Helvetica,sans-Serif" font-size="10.00">+ isForCompensation</text>
<text text-anchor="start" x="8" y="-319.5" font-family="Helvetica,sans-Serif" font-size="10.00">+ loopCharacteristics</text>
<text text-anchor="start" x="8" y="-308.5" font-family="Helvetica,sans-Serif" font-size="10.00">+ element</text>
<polyline fill="none" stroke="black" points="0,-301.5 122,-301.5 "/>
<text text-anchor="start" x="8" y="-289.5" font-family="Helvetica,sans-Serif" font-size="10.00">+ Activity()</text>
</a>
</g>
</g>
<!-- Node3&#45;&gt;Node2 -->
<g id="edge2" class="edge">
<title>Node3&#45;&gt;Node2</title>
<path fill="none" stroke="midnightblue" d="M58.42,-272.32C56.7,-232.54 54.52,-182.13 53.19,-151.5"/>
<polygon fill="none" stroke="midnightblue" points="54.93,-272.6 58.86,-282.44 61.92,-272.3 54.93,-272.6"/>
</g>
<!-- Node4 -->
<g id="node4" class="node">
<title>Node4</title>
<g id="a_node4"><a xlink:href="classBPMN_1_1FlowNode.html" target="_top" xlink:title="Base class for BPMN elements that may contain incoming and outgoing sequence flows.">
<polygon fill="none" stroke="black" points="69.5,-420.5 69.5,-510.5 170.5,-510.5 170.5,-420.5 69.5,-420.5"/>
<text text-anchor="middle" x="120" y="-498.5" font-family="Helvetica,sans-Serif" font-size="10.00">BPMN::FlowNode</text>
<polyline fill="none" stroke="black" points="69.5,-491.5 170.5,-491.5 "/>
<text text-anchor="start" x="77.5" y="-479.5" font-family="Helvetica,sans-Serif" font-size="10.00">+ element</text>
<text text-anchor="start" x="77.5" y="-468.5" font-family="Helvetica,sans-Serif" font-size="10.00">+ name</text>
<text text-anchor="start" x="77.5" y="-457.5" font-family="Helvetica,sans-Serif" font-size="10.00">+ incoming</text>
<text text-anchor="start" x="77.5" y="-446.5" font-family="Helvetica,sans-Serif" font-size="10.00">+ outgoing</text>
<polyline fill="none" stroke="black" points="69.5,-439.5 170.5,-439.5 "/>
<text text-anchor="start" x="77.5" y="-427.5" font-family="Helvetica,sans-Serif" font-size="10.00">+ FlowNode()</text>
</a>
</g>
</g>
<!-- Node4&#45;&gt;Node3 -->
<g id="edge3" class="edge">
<title>Node4&#45;&gt;Node3</title>
<path fill="none" stroke="midnightblue" d="M95.81,-410.99C91.7,-401.9 87.45,-392.5 83.39,-383.52"/>
<polygon fill="none" stroke="midnightblue" points="92.72,-412.65 100.03,-420.32 99.09,-409.76 92.72,-412.65"/>
</g>
<!-- Node11 -->
<g id="node11" class="node">
<title>Node11</title>
<g id="a_node11"><a xlink:href="classBPMN_1_1Event.html" target="_top" xlink:title=" ">
<polygon fill="none" stroke="black" points="141,-304.5 141,-361.5 221,-361.5 221,-304.5 141,-304.5"/>
<text text-anchor="middle" x="181" y="-349.5" font-family="Helvetica,sans-Serif" font-size="10.00">BPMN::Event</text>
<polyline fill="none" stroke="black" points="141,-342.5 221,-342.5 "/>
<text text-anchor="start" x="149" y="-330.5" font-family="Helvetica,sans-Serif" font-size="10.00">+ element</text>
<polyline fill="none" stroke="black" points="141,-323.5 221,-323.5 "/>
<text text-anchor="start" x="149" y="-311.5" font-family="Helvetica,sans-Serif" font-size="10.00">+ Event()</text>
</a>
</g>
</g>
<!-- Node4&#45;&gt;Node11 -->
<g id="edge11" class="edge">
<title>Node4&#45;&gt;Node11</title>
<path fill="none" stroke="midnightblue" d="M144.98,-411.06C152.88,-394.15 161.3,-376.14 168.01,-361.79"/>
<polygon fill="none" stroke="midnightblue" points="141.72,-409.78 140.65,-420.32 148.06,-412.74 141.72,-409.78"/>
</g>
<!-- Node5 -->
<g id="node5" class="node">
<title>Node5</title>
<g id="a_node5"><a xlink:href="classBPMN_1_1ChildNode.html" target="_top" xlink:title="Base class for BPMN elements within a Scope.">
<polygon fill="none" stroke="black" points="69,-547.5 69,-604.5 171,-604.5 171,-547.5 69,-547.5"/>
<text text-anchor="middle" x="120" y="-592.5" font-family="Helvetica,sans-Serif" font-size="10.00">BPMN::ChildNode</text>
<polyline fill="none" stroke="black" points="69,-585.5 171,-585.5 "/>
<text text-anchor="start" x="77" y="-573.5" font-family="Helvetica,sans-Serif" font-size="10.00">+ parent</text>
<polyline fill="none" stroke="black" points="69,-566.5 171,-566.5 "/>
<text text-anchor="start" x="77" y="-554.5" font-family="Helvetica,sans-Serif" font-size="10.00">+ ChildNode()</text>
</a>
</g>
</g>
<!-- Node5&#45;&gt;Node4 -->
<g id="edge4" class="edge">
<title>Node5&#45;&gt;Node4</title>
<path fill="none" stroke="midnightblue" d="M120,-537.21C120,-528.61 120,-519.39 120,-510.55"/>
<polygon fill="none" stroke="midnightblue" points="116.5,-537.34 120,-547.34 123.5,-537.34 116.5,-537.34"/>
</g>
<!-- Node6 -->
<g id="node6" class="node">
<title>Node6</title>
<g id="a_node6"><a xlink:href="classBPMN_1_1Node.html" target="_top" xlink:title="Base class for all nodes in a BPMN model.">
<polygon fill="none" stroke="black" points="81.5,-641.5 81.5,-753.5 158.5,-753.5 158.5,-641.5 81.5,-641.5"/>
<text text-anchor="middle" x="120" y="-741.5" font-family="Helvetica,sans-Serif" font-size="10.00">BPMN::Node</text>
<polyline fill="none" stroke="black" points="81.5,-734.5 158.5,-734.5 "/>
<text text-anchor="start" x="89.5" y="-722.5" font-family="Helvetica,sans-Serif" font-size="10.00">+ receiving</text>
<text text-anchor="start" x="89.5" y="-711.5" font-family="Helvetica,sans-Serif" font-size="10.00">+ sending</text>
<polyline fill="none" stroke="black" points="81.5,-704.5 158.5,-704.5 "/>
<text text-anchor="start" x="89.5" y="-692.5" font-family="Helvetica,sans-Serif" font-size="10.00">+ Node()</text>
<text text-anchor="start" x="89.5" y="-681.5" font-family="Helvetica,sans-Serif" font-size="10.00">+ find()</text>
<text text-anchor="start" x="89.5" y="-670.5" font-family="Helvetica,sans-Serif" font-size="10.00">+ find()</text>
<text text-anchor="start" x="89.5" y="-659.5" font-family="Helvetica,sans-Serif" font-size="10.00">+ find_all()</text>
<text text-anchor="start" x="89.5" y="-648.5" font-family="Helvetica,sans-Serif" font-size="10.00">+ find_all()</text>
</a>
</g>
</g>
<!-- Node6&#45;&gt;Node5 -->
<g id="edge5" class="edge">
<title>Node6&#45;&gt;Node5</title>
<path fill="none" stroke="midnightblue" d="M120,-631.15C120,-621.82 120,-612.67 120,-604.63"/>
<polygon fill="none" stroke="midnightblue" points="116.5,-631.3 120,-641.3 123.5,-631.3 116.5,-631.3"/>
</g>
<!-- Node7 -->
<g id="node7" class="node">
<title>Node7</title>
<g id="a_node7"><a xlink:href="classBPMN_1_1BaseElement.html" target="_top" xlink:title="Base class for all core BPMN elements.">
<polygon fill="none" stroke="black" points="59,-790.5 59,-913.5 181,-913.5 181,-790.5 59,-790.5"/>
<text text-anchor="middle" x="120" y="-901.5" font-family="Helvetica,sans-Serif" font-size="10.00">BPMN::BaseElement</text>
<polyline fill="none" stroke="black" points="59,-894.5 181,-894.5 "/>
<text text-anchor="start" x="67" y="-882.5" font-family="Helvetica,sans-Serif" font-size="10.00">+ element</text>
<text text-anchor="start" x="67" y="-871.5" font-family="Helvetica,sans-Serif" font-size="10.00">+ id</text>
<text text-anchor="start" x="67" y="-860.5" font-family="Helvetica,sans-Serif" font-size="10.00">+ extensionElements</text>
<polyline fill="none" stroke="black" points="59,-853.5 181,-853.5 "/>
<text text-anchor="start" x="67" y="-841.5" font-family="Helvetica,sans-Serif" font-size="10.00">+ BaseElement()</text>
<text text-anchor="start" x="67" y="-830.5" font-family="Helvetica,sans-Serif" font-size="10.00">+ is()</text>
<text text-anchor="start" x="67" y="-819.5" font-family="Helvetica,sans-Serif" font-size="10.00">+ is()</text>
<text text-anchor="start" x="67" y="-808.5" font-family="Helvetica,sans-Serif" font-size="10.00">+ get()</text>
<text text-anchor="start" x="67" y="-797.5" font-family="Helvetica,sans-Serif" font-size="10.00">+ get()</text>
</a>
</g>
</g>
<!-- Node7&#45;&gt;Node6 -->
<g id="edge6" class="edge">
<title>Node7&#45;&gt;Node6</title>
<path fill="none" stroke="midnightblue" d="M120,-780.25C120,-771.29 120,-762.23 120,-753.56"/>
<polygon fill="none" stroke="midnightblue" points="116.5,-780.29 120,-790.29 123.5,-780.29 116.5,-780.29"/>
</g>
<!-- Node8 -->
<g id="node8" class="node">
<title>Node8</title>
<g id="a_node8"><a xlink:href="classBPMN_1_1Element.html" target="_top" xlink:title="Abstract base class for all elements in a BPMN model.">
<polygon fill="none" stroke="black" points="74,-950.5 74,-1051.5 166,-1051.5 166,-950.5 74,-950.5"/>
<text text-anchor="middle" x="120" y="-1039.5" font-family="Helvetica,sans-Serif" font-size="10.00">BPMN::Element</text>
<polyline fill="none" stroke="black" points="74,-1032.5 166,-1032.5 "/>
<text text-anchor="middle" x="120" y="-1020.5" font-family="Helvetica,sans-Serif" font-size="10.00"> </text>
<polyline fill="none" stroke="black" points="74,-1013.5 166,-1013.5 "/>
<text text-anchor="start" x="82" y="-1001.5" font-family="Helvetica,sans-Serif" font-size="10.00">+ ~Element()</text>
<text text-anchor="start" x="82" y="-990.5" font-family="Helvetica,sans-Serif" font-size="10.00">+ represents()</text>
<text text-anchor="start" x="82" y="-979.5" font-family="Helvetica,sans-Serif" font-size="10.00">+ represents()</text>
<text text-anchor="start" x="82" y="-968.5" font-family="Helvetica,sans-Serif" font-size="10.00">+ as()</text>
<text text-anchor="start" x="82" y="-957.5" font-family="Helvetica,sans-Serif" font-size="10.00">+ as()</text>
</a>
</g>
</g>
<!-- Node8&#45;&gt;Node7 -->
<g id="edge7" class="edge">
<title>Node8&#45;&gt;Node7</title>
<path fill="none" stroke="midnightblue" d="M120,-940.14C120,-931.41 120,-922.42 120,-913.67"/>
<polygon fill="none" stroke="midnightblue" points="116.5,-940.23 120,-950.23 123.5,-940.23 116.5,-940.23"/>
</g>
<!-- Node9 -->
<g id="node9" class="node">
<title>Node9</title>
<g id="a_node9"><a xlink:href="classBPMN_1_1MessageCatchEvent.html" target="_top" xlink:title=" ">
<polygon fill="none" stroke="black" points="107.5,-94.5 107.5,-151.5 258.5,-151.5 258.5,-94.5 107.5,-94.5"/>
<text text-anchor="middle" x="183" y="-139.5" font-family="Helvetica,sans-Serif" font-size="10.00">BPMN::MessageCatchEvent</text>
<polyline fill="none" stroke="black" points="107.5,-132.5 258.5,-132.5 "/>
<text text-anchor="middle" x="183" y="-120.5" font-family="Helvetica,sans-Serif" font-size="10.00"> </text>
<polyline fill="none" stroke="black" points="107.5,-113.5 258.5,-113.5 "/>
<text text-anchor="start" x="115.5" y="-101.5" font-family="Helvetica,sans-Serif" font-size="10.00">+ MessageCatchEvent()</text>
</a>
</g>
</g>
<!-- Node9&#45;&gt;Node1 -->
<g id="edge8" class="edge">
<title>Node9&#45;&gt;Node1</title>
<path fill="none" stroke="midnightblue" d="M157.34,-86.24C150.52,-76.72 143.25,-66.59 136.79,-57.58"/>
<polygon fill="none" stroke="midnightblue" points="154.52,-88.31 163.2,-94.4 160.21,-84.23 154.52,-88.31"/>
</g>
<!-- Node10 -->
<g id="node10" class="node">
<title>Node10</title>
<g id="a_node10"><a xlink:href="classBPMN_1_1CatchEvent.html" target="_top" xlink:title=" ">
<polygon fill="none" stroke="black" points="128.5,-188.5 128.5,-245.5 235.5,-245.5 235.5,-188.5 128.5,-188.5"/>
<text text-anchor="middle" x="182" y="-233.5" font-family="Helvetica,sans-Serif" font-size="10.00">BPMN::CatchEvent</text>
<polyline fill="none" stroke="black" points="128.5,-226.5 235.5,-226.5 "/>
<text text-anchor="start" x="136.5" y="-214.5" font-family="Helvetica,sans-Serif" font-size="10.00">+ element</text>
<polyline fill="none" stroke="black" points="128.5,-207.5 235.5,-207.5 "/>
<text text-anchor="start" x="136.5" y="-195.5" font-family="Helvetica,sans-Serif" font-size="10.00">+ CatchEvent()</text>
</a>
</g>
</g>
<!-- Node10&#45;&gt;Node9 -->
<g id="edge9" class="edge">
<title>Node10&#45;&gt;Node9</title>
<path fill="none" stroke="midnightblue" d="M182.41,-178.21C182.51,-169.29 182.61,-159.95 182.7,-151.58"/>
<polygon fill="none" stroke="midnightblue" points="178.91,-178.36 182.3,-188.4 185.91,-178.44 178.91,-178.36"/>
</g>
<!-- Node11&#45;&gt;Node10 -->
<g id="edge10" class="edge">
<title>Node11&#45;&gt;Node10</title>
<path fill="none" stroke="midnightblue" d="M181.33,-294.36C181.47,-278.5 181.63,-260.35 181.76,-245.74"/>
<polygon fill="none" stroke="midnightblue" points="177.83,-294.37 181.24,-304.4 184.83,-294.43 177.83,-294.37"/>
</g>
</g>
</svg>
