<?xml version="1.0" encoding="UTF-8" standalone="no"?>
<!DOCTYPE svg PUBLIC "-//W3C//DTD SVG 1.1//EN"
 "http://www.w3.org/Graphics/SVG/1.1/DTD/svg11.dtd">
<!-- Generated by graphviz version 2.43.0 (0)
 -->
<!-- Title: BPMN::EscalationThrowEvent Pages: 1 -->
<svg width="168pt" height="756pt"
 viewBox="0.00 0.00 168.00 756.00" xmlns="http://www.w3.org/2000/svg" xmlns:xlink="http://www.w3.org/1999/xlink">
<g id="graph0" class="graph" transform="scale(1 1) rotate(0) translate(4 752)">
<title>BPMN::EscalationThrowEvent</title>
<!-- Node1 -->
<g id="node1" class="node">
<title>Node1</title>
<g id="a_node1"><a xlink:title=" ">
<polygon fill="#bfbfbf" stroke="black" points="0,-0.5 0,-57.5 160,-57.5 160,-0.5 0,-0.5"/>
<text text-anchor="middle" x="80" y="-45.5" font-family="Helvetica,sans-Serif" font-size="10.00">BPMN::EscalationThrowEvent</text>
<polyline fill="none" stroke="black" points="0,-38.5 160,-38.5 "/>
<text text-anchor="middle" x="80" y="-26.5" font-family="Helvetica,sans-Serif" font-size="10.00"> </text>
<polyline fill="none" stroke="black" points="0,-19.5 160,-19.5 "/>
<text text-anchor="start" x="8" y="-7.5" font-family="Helvetica,sans-Serif" font-size="10.00">+ EscalationThrowEvent()</text>
</a>
</g>
</g>
<!-- Node2 -->
<g id="node2" class="node">
<title>Node2</title>
<g id="a_node2"><a xlink:href="classBPMN_1_1ThrowEvent.html" target="_top" xlink:title=" ">
<polygon fill="none" stroke="black" points="25,-94.5 25,-151.5 135,-151.5 135,-94.5 25,-94.5"/>
<text text-anchor="middle" x="80" y="-139.5" font-family="Helvetica,sans-Serif" font-size="10.00">BPMN::ThrowEvent</text>
<polyline fill="none" stroke="black" points="25,-132.5 135,-132.5 "/>
<text text-anchor="start" x="33" y="-120.5" font-family="Helvetica,sans-Serif" font-size="10.00">+ element</text>
<polyline fill="none" stroke="black" points="25,-113.5 135,-113.5 "/>
<text text-anchor="start" x="33" y="-101.5" font-family="Helvetica,sans-Serif" font-size="10.00">+ ThrowEvent()</text>
</a>
</g>
</g>
<!-- Node2&#45;&gt;Node1 -->
<g id="edge1" class="edge">
<title>Node2&#45;&gt;Node1</title>
<path fill="none" stroke="midnightblue" d="M80,-84.21C80,-75.29 80,-65.95 80,-57.58"/>
<polygon fill="none" stroke="midnightblue" points="76.5,-84.4 80,-94.4 83.5,-84.4 76.5,-84.4"/>
</g>
<!-- Node3 -->
<g id="node3" class="node">
<title>Node3</title>
<g id="a_node3"><a xlink:href="classBPMN_1_1Event.html" target="_top" xlink:title=" ">
<polygon fill="none" stroke="black" points="40,-188.5 40,-245.5 120,-245.5 120,-188.5 40,-188.5"/>
<text text-anchor="middle" x="80" y="-233.5" font-family="Helvetica,sans-Serif" font-size="10.00">BPMN::Event</text>
<polyline fill="none" stroke="black" points="40,-226.5 120,-226.5 "/>
<text text-anchor="start" x="48" y="-214.5" font-family="Helvetica,sans-Serif" font-size="10.00">+ element</text>
<polyline fill="none" stroke="black" points="40,-207.5 120,-207.5 "/>
<text text-anchor="start" x="48" y="-195.5" font-family="Helvetica,sans-Serif" font-size="10.00">+ Event()</text>
</a>
</g>
</g>
<!-- Node3&#45;&gt;Node2 -->
<g id="edge2" class="edge">
<title>Node3&#45;&gt;Node2</title>
<path fill="none" stroke="midnightblue" d="M80,-178.21C80,-169.29 80,-159.95 80,-151.58"/>
<polygon fill="none" stroke="midnightblue" points="76.5,-178.4 80,-188.4 83.5,-178.4 76.5,-178.4"/>
</g>
<!-- Node4 -->
<g id="node4" class="node">
<title>Node4</title>
<g id="a_node4"><a xlink:href="classBPMN_1_1FlowNode.html" target="_top" xlink:title="Base class for BPMN elements that may contain incoming and outgoing SequenceFlow elements.">
<polygon fill="none" stroke="black" points="29.5,-282.5 29.5,-372.5 130.5,-372.5 130.5,-282.5 29.5,-282.5"/>
<text text-anchor="middle" x="80" y="-360.5" font-family="Helvetica,sans-Serif" font-size="10.00">BPMN::FlowNode</text>
<polyline fill="none" stroke="black" points="29.5,-353.5 130.5,-353.5 "/>
<text text-anchor="start" x="37.5" y="-341.5" font-family="Helvetica,sans-Serif" font-size="10.00">+ element</text>
<text text-anchor="start" x="37.5" y="-330.5" font-family="Helvetica,sans-Serif" font-size="10.00">+ name</text>
<text text-anchor="start" x="37.5" y="-319.5" font-family="Helvetica,sans-Serif" font-size="10.00">+ incoming</text>
<text text-anchor="start" x="37.5" y="-308.5" font-family="Helvetica,sans-Serif" font-size="10.00">+ outgoing</text>
<polyline fill="none" stroke="black" points="29.5,-301.5 130.5,-301.5 "/>
<text text-anchor="start" x="37.5" y="-289.5" font-family="Helvetica,sans-Serif" font-size="10.00">+ FlowNode()</text>
</a>
</g>
</g>
<!-- Node4&#45;&gt;Node3 -->
<g id="edge3" class="edge">
<title>Node4&#45;&gt;Node3</title>
<path fill="none" stroke="midnightblue" d="M80,-272.35C80,-263.07 80,-253.79 80,-245.59"/>
<polygon fill="none" stroke="midnightblue" points="76.5,-272.37 80,-282.37 83.5,-272.37 76.5,-272.37"/>
</g>
<!-- Node5 -->
<g id="node5" class="node">
<title>Node5</title>
<g id="a_node5"><a xlink:href="classBPMN_1_1ChildNode.html" target="_top" xlink:title="Base class for BPMN elements within a Scope.">
<polygon fill="none" stroke="black" points="29,-409.5 29,-466.5 131,-466.5 131,-409.5 29,-409.5"/>
<text text-anchor="middle" x="80" y="-454.5" font-family="Helvetica,sans-Serif" font-size="10.00">BPMN::ChildNode</text>
<polyline fill="none" stroke="black" points="29,-447.5 131,-447.5 "/>
<text text-anchor="start" x="37" y="-435.5" font-family="Helvetica,sans-Serif" font-size="10.00">+ parent</text>
<polyline fill="none" stroke="black" points="29,-428.5 131,-428.5 "/>
<text text-anchor="start" x="37" y="-416.5" font-family="Helvetica,sans-Serif" font-size="10.00">+ ChildNode()</text>
</a>
</g>
</g>
<!-- Node5&#45;&gt;Node4 -->
<g id="edge4" class="edge">
<title>Node5&#45;&gt;Node4</title>
<path fill="none" stroke="midnightblue" d="M80,-399.21C80,-390.61 80,-381.39 80,-372.55"/>
<polygon fill="none" stroke="midnightblue" points="76.5,-399.34 80,-409.34 83.5,-399.34 76.5,-399.34"/>
</g>
<!-- Node6 -->
<g id="node6" class="node">
<title>Node6</title>
<g id="a_node6"><a xlink:href="classBPMN_1_1Node.html" target="_top" xlink:title="Base class for all elements in a BPMN model.">
<polygon fill="none" stroke="black" points="19,-503.5 19,-747.5 141,-747.5 141,-503.5 19,-503.5"/>
<text text-anchor="middle" x="80" y="-735.5" font-family="Helvetica,sans-Serif" font-size="10.00">BPMN::Node</text>
<polyline fill="none" stroke="black" points="19,-728.5 141,-728.5 "/>
<text text-anchor="start" x="27" y="-716.5" font-family="Helvetica,sans-Serif" font-size="10.00">+ id</text>
<text text-anchor="start" x="27" y="-705.5" font-family="Helvetica,sans-Serif" font-size="10.00">+ receiving</text>
<text text-anchor="start" x="27" y="-694.5" font-family="Helvetica,sans-Serif" font-size="10.00">+ sending</text>
<text text-anchor="start" x="27" y="-683.5" font-family="Helvetica,sans-Serif" font-size="10.00">+ element</text>
<text text-anchor="start" x="27" y="-672.5" font-family="Helvetica,sans-Serif" font-size="10.00">+ extensionElements</text>
<polyline fill="none" stroke="black" points="19,-665.5 141,-665.5 "/>
<text text-anchor="start" x="27" y="-653.5" font-family="Helvetica,sans-Serif" font-size="10.00">+ Node()</text>
<text text-anchor="start" x="27" y="-642.5" font-family="Helvetica,sans-Serif" font-size="10.00">+ ~Node()</text>
<text text-anchor="start" x="27" y="-631.5" font-family="Helvetica,sans-Serif" font-size="10.00">+ is()</text>
<text text-anchor="start" x="27" y="-620.5" font-family="Helvetica,sans-Serif" font-size="10.00">+ is()</text>
<text text-anchor="start" x="27" y="-609.5" font-family="Helvetica,sans-Serif" font-size="10.00">+ get()</text>
<text text-anchor="start" x="27" y="-598.5" font-family="Helvetica,sans-Serif" font-size="10.00">+ get()</text>
<text text-anchor="start" x="27" y="-587.5" font-family="Helvetica,sans-Serif" font-size="10.00">+ represents()</text>
<text text-anchor="start" x="27" y="-576.5" font-family="Helvetica,sans-Serif" font-size="10.00">+ represents()</text>
<text text-anchor="start" x="27" y="-565.5" font-family="Helvetica,sans-Serif" font-size="10.00">+ as()</text>
<text text-anchor="start" x="27" y="-554.5" font-family="Helvetica,sans-Serif" font-size="10.00">+ as()</text>
<text text-anchor="start" x="27" y="-543.5" font-family="Helvetica,sans-Serif" font-size="10.00">+ find()</text>
<text text-anchor="start" x="27" y="-532.5" font-family="Helvetica,sans-Serif" font-size="10.00">+ find()</text>
<text text-anchor="start" x="27" y="-521.5" font-family="Helvetica,sans-Serif" font-size="10.00">+ find_all()</text>
<text text-anchor="start" x="27" y="-510.5" font-family="Helvetica,sans-Serif" font-size="10.00">+ find_all()</text>
</a>
</g>
</g>
<!-- Node6&#45;&gt;Node5 -->
<g id="edge5" class="edge">
<title>Node6&#45;&gt;Node5</title>
<path fill="none" stroke="midnightblue" d="M80,-493.34C80,-483.53 80,-474.42 80,-466.57"/>
<polygon fill="none" stroke="midnightblue" points="76.5,-493.36 80,-503.36 83.5,-493.36 76.5,-493.36"/>
</g>
</g>
</svg>
