<?xml version="1.0" encoding="UTF-8" standalone="no"?>
<!DOCTYPE svg PUBLIC "-//W3C//DTD SVG 1.1//EN"
 "http://www.w3.org/Graphics/SVG/1.1/DTD/svg11.dtd">
<!-- Generated by graphviz version 2.43.0 (0)
 -->
<!-- Title: XML::bpmn::tGlobalUserTask Pages: 1 -->
<svg width="163pt" height="1062pt"
 viewBox="0.00 0.00 163.00 1062.00" xmlns="http://www.w3.org/2000/svg" xmlns:xlink="http://www.w3.org/1999/xlink">
<g id="graph0" class="graph" transform="scale(1 1) rotate(0) translate(4 1058)">
<title>XML::bpmn::tGlobalUserTask</title>
<!-- Node1 -->
<g id="Node000001" class="node">
<title>Node1</title>
<g id="a_Node000001"><a xlink:title=" ">
<polygon fill="#999999" stroke="transparent" points="153,-164 2,-164 2,-85 153,-85 153,-164"/>
<text text-anchor="start" x="7.5" y="-151.5" font-family="Helvetica,sans-Serif" font-size="10.00">XML::bpmn::tGlobalUserTask</text>
<text text-anchor="start" x="17" y="-136.5" font-family="Helvetica,sans-Serif" font-size="10.00">+</text>
<text text-anchor="start" x="40.5" y="-136.5" font-family="Helvetica,sans-Serif" font-size="10.00">rendering</text>
<text text-anchor="start" x="17" y="-121.5" font-family="Helvetica,sans-Serif" font-size="10.00">+</text>
<text text-anchor="start" x="40.5" y="-121.5" font-family="Helvetica,sans-Serif" font-size="10.00">implementation</text>
<text text-anchor="start" x="17" y="-106.5" font-family="Helvetica,sans-Serif" font-size="10.00">+</text>
<text text-anchor="start" x="40.5" y="-106.5" font-family="Helvetica,sans-Serif" font-size="10.00">defaults</text>
<text text-anchor="start" x="17" y="-91.5" font-family="Helvetica,sans-Serif" font-size="10.00">#</text>
<text text-anchor="start" x="40.5" y="-91.5" font-family="Helvetica,sans-Serif" font-size="10.00">tGlobalUserTask()</text>
<polygon fill="#666666" stroke="#666666" points="2.5,-146.5 2.5,-146.5 153.5,-146.5 153.5,-146.5 2.5,-146.5"/>
<polygon fill="#666666" stroke="#666666" points="2.5,-101.5 2.5,-101.5 38.5,-101.5 38.5,-101.5 2.5,-101.5"/>
<polygon fill="#666666" stroke="#666666" points="38.5,-101.5 38.5,-101.5 153.5,-101.5 153.5,-101.5 38.5,-101.5"/>
<polygon fill="none" stroke="#666666" points="2,-85 2,-164 153,-164 153,-85 2,-85"/>
</a>
</g>
</g>
<!-- Node7 -->
<g id="Node000007" class="node">
<title>Node7</title>
<g id="a_Node000007"><a xlink:href="classXML_1_1bpmn_1_1globalUserTask.html" target="_top" xlink:title=" ">
<polygon fill="white" stroke="transparent" points="150.5,-49 4.5,-49 4.5,0 150.5,0 150.5,-49"/>
<text text-anchor="start" x="9.5" y="-36.5" font-family="Helvetica,sans-Serif" font-size="10.00">XML::bpmn::globalUserTask</text>
<text text-anchor="start" x="19" y="-21.5" font-family="Helvetica,sans-Serif" font-size="10.00">+</text>
<text text-anchor="start" x="42.5" y="-21.5" font-family="Helvetica,sans-Serif" font-size="10.00">defaults</text>
<text text-anchor="start" x="19" y="-6.5" font-family="Helvetica,sans-Serif" font-size="10.00">#</text>
<text text-anchor="start" x="42.5" y="-6.5" font-family="Helvetica,sans-Serif" font-size="10.00">globalUserTask()</text>
<polygon fill="#666666" stroke="#666666" points="4.5,-31.5 4.5,-31.5 150.5,-31.5 150.5,-31.5 4.5,-31.5"/>
<polygon fill="#666666" stroke="#666666" points="4.5,-16.5 4.5,-16.5 40.5,-16.5 40.5,-16.5 4.5,-16.5"/>
<polygon fill="#666666" stroke="#666666" points="40.5,-16.5 40.5,-16.5 150.5,-16.5 150.5,-16.5 40.5,-16.5"/>
<polygon fill="none" stroke="#666666" points="4.5,0 4.5,-49 150.5,-49 150.5,0 4.5,0"/>
</a>
</g>
</g>
<!-- Node1&#45;&gt;Node7 -->
<g id="edge6_Node000001_Node000007" class="edge">
<title>Node1&#45;&gt;Node7</title>
<g id="a_edge6_Node000001_Node000007"><a xlink:title=" ">
<path fill="none" stroke="#63b8ff" d="M77.5,-74.72C77.5,-65.75 77.5,-56.78 77.5,-49"/>
<polygon fill="none" stroke="#63b8ff" points="74,-74.77 77.5,-84.77 81,-74.77 74,-74.77"/>
</a>
</g>
</g>
<!-- Node2 -->
<g id="Node000002" class="node">
<title>Node2</title>
<g id="a_Node000002"><a xlink:href="classXML_1_1bpmn_1_1tGlobalTask.html" target="_top" xlink:title=" ">
<polygon fill="white" stroke="transparent" points="141.5,-264 13.5,-264 13.5,-200 141.5,-200 141.5,-264"/>
<text text-anchor="start" x="18.5" y="-252" font-family="Helvetica,sans-Serif" font-size="10.00">XML::bpmn::tGlobalTask</text>
<text text-anchor="start" x="28" y="-237" font-family="Helvetica,sans-Serif" font-size="10.00">+</text>
<text text-anchor="start" x="51.5" y="-237" font-family="Helvetica,sans-Serif" font-size="10.00">resourceRole</text>
<text text-anchor="start" x="28" y="-222" font-family="Helvetica,sans-Serif" font-size="10.00">+</text>
<text text-anchor="start" x="51.5" y="-222" font-family="Helvetica,sans-Serif" font-size="10.00">defaults</text>
<text text-anchor="start" x="28" y="-207" font-family="Helvetica,sans-Serif" font-size="10.00">#</text>
<text text-anchor="start" x="51.5" y="-207" font-family="Helvetica,sans-Serif" font-size="10.00">tGlobalTask()</text>
<polygon fill="#666666" stroke="#666666" points="13.5,-247 13.5,-247 141.5,-247 141.5,-247 13.5,-247"/>
<polygon fill="#666666" stroke="#666666" points="13.5,-217 13.5,-217 49.5,-217 49.5,-217 13.5,-217"/>
<polygon fill="#666666" stroke="#666666" points="49.5,-217 49.5,-217 141.5,-217 141.5,-217 49.5,-217"/>
<polygon fill="none" stroke="#666666" points="13.5,-200 13.5,-264 141.5,-264 141.5,-200 13.5,-200"/>
</a>
</g>
</g>
<!-- Node2&#45;&gt;Node1 -->
<g id="edge1_Node000001_Node000002" class="edge">
<title>Node2&#45;&gt;Node1</title>
<g id="a_edge1_Node000001_Node000002"><a xlink:title=" ">
<path fill="none" stroke="#63b8ff" d="M77.5,-189.89C77.5,-181.44 77.5,-172.58 77.5,-164.22"/>
<polygon fill="none" stroke="#63b8ff" points="74,-189.92 77.5,-199.92 81,-189.92 74,-189.92"/>
</a>
</g>
</g>
<!-- Node3 -->
<g id="Node000003" class="node">
<title>Node3</title>
<g id="a_Node000003"><a xlink:href="classXML_1_1bpmn_1_1tCallableElement.html" target="_top" xlink:title=" ">
<polygon fill="white" stroke="transparent" points="155,-409 0,-409 0,-300 155,-300 155,-409"/>
<text text-anchor="start" x="5.5" y="-396.5" font-family="Helvetica,sans-Serif" font-size="10.00">XML::bpmn::tCallableElement</text>
<text text-anchor="start" x="10.5" y="-381.5" font-family="Helvetica,sans-Serif" font-size="10.00">+</text>
<text text-anchor="start" x="29.5" y="-381.5" font-family="Helvetica,sans-Serif" font-size="10.00">supportedInterfaceRef</text>
<text text-anchor="start" x="10.5" y="-366.5" font-family="Helvetica,sans-Serif" font-size="10.00">+</text>
<text text-anchor="start" x="29.5" y="-366.5" font-family="Helvetica,sans-Serif" font-size="10.00">ioSpecification</text>
<text text-anchor="start" x="10.5" y="-351.5" font-family="Helvetica,sans-Serif" font-size="10.00">+</text>
<text text-anchor="start" x="29.5" y="-351.5" font-family="Helvetica,sans-Serif" font-size="10.00">ioBinding</text>
<text text-anchor="start" x="10.5" y="-336.5" font-family="Helvetica,sans-Serif" font-size="10.00">+</text>
<text text-anchor="start" x="29.5" y="-336.5" font-family="Helvetica,sans-Serif" font-size="10.00">name</text>
<text text-anchor="start" x="10.5" y="-321.5" font-family="Helvetica,sans-Serif" font-size="10.00">+</text>
<text text-anchor="start" x="29.5" y="-321.5" font-family="Helvetica,sans-Serif" font-size="10.00">defaults</text>
<text text-anchor="start" x="10.5" y="-306.5" font-family="Helvetica,sans-Serif" font-size="10.00">#</text>
<text text-anchor="start" x="29.5" y="-306.5" font-family="Helvetica,sans-Serif" font-size="10.00">tCallableElement()</text>
<polygon fill="#666666" stroke="#666666" points="0.5,-391.5 0.5,-391.5 155.5,-391.5 155.5,-391.5 0.5,-391.5"/>
<polygon fill="#666666" stroke="#666666" points="0.5,-316.5 0.5,-316.5 27.5,-316.5 27.5,-316.5 0.5,-316.5"/>
<polygon fill="#666666" stroke="#666666" points="27.5,-316.5 27.5,-316.5 155.5,-316.5 155.5,-316.5 27.5,-316.5"/>
<polygon fill="none" stroke="#666666" points="0,-300 0,-409 155,-409 155,-300 0,-300"/>
</a>
</g>
</g>
<!-- Node3&#45;&gt;Node2 -->
<g id="edge2_Node000002_Node000003" class="edge">
<title>Node3&#45;&gt;Node2</title>
<g id="a_edge2_Node000002_Node000003"><a xlink:title=" ">
<path fill="none" stroke="#63b8ff" d="M77.5,-289.9C77.5,-281 77.5,-272.2 77.5,-264.28"/>
<polygon fill="none" stroke="#63b8ff" points="74,-289.95 77.5,-299.95 81,-289.95 74,-289.95"/>
</a>
</g>
</g>
<!-- Node4 -->
<g id="Node000004" class="node">
<title>Node4</title>
<g id="a_Node000004"><a xlink:href="classXML_1_1bpmn_1_1tRootElement.html" target="_top" xlink:title=" ">
<polygon fill="white" stroke="transparent" points="146.5,-494 8.5,-494 8.5,-445 146.5,-445 146.5,-494"/>
<text text-anchor="start" x="13.5" y="-481.5" font-family="Helvetica,sans-Serif" font-size="10.00">XML::bpmn::tRootElement</text>
<text text-anchor="start" x="23" y="-466.5" font-family="Helvetica,sans-Serif" font-size="10.00">+</text>
<text text-anchor="start" x="46.5" y="-466.5" font-family="Helvetica,sans-Serif" font-size="10.00">defaults</text>
<text text-anchor="start" x="23" y="-451.5" font-family="Helvetica,sans-Serif" font-size="10.00">#</text>
<text text-anchor="start" x="46.5" y="-451.5" font-family="Helvetica,sans-Serif" font-size="10.00">tRootElement()</text>
<polygon fill="#666666" stroke="#666666" points="8.5,-476.5 8.5,-476.5 146.5,-476.5 146.5,-476.5 8.5,-476.5"/>
<polygon fill="#666666" stroke="#666666" points="8.5,-461.5 8.5,-461.5 44.5,-461.5 44.5,-461.5 8.5,-461.5"/>
<polygon fill="#666666" stroke="#666666" points="44.5,-461.5 44.5,-461.5 146.5,-461.5 146.5,-461.5 44.5,-461.5"/>
<polygon fill="none" stroke="#666666" points="8.5,-445 8.5,-494 146.5,-494 146.5,-445 8.5,-445"/>
</a>
</g>
</g>
<!-- Node4&#45;&gt;Node3 -->
<g id="edge3_Node000003_Node000004" class="edge">
<title>Node4&#45;&gt;Node3</title>
<g id="a_edge3_Node000003_Node000004"><a xlink:title=" ">
<path fill="none" stroke="#63b8ff" d="M77.5,-434.79C77.5,-426.79 77.5,-418.06 77.5,-409.41"/>
<polygon fill="none" stroke="#63b8ff" points="74,-434.81 77.5,-444.81 81,-434.81 74,-434.81"/>
</a>
</g>
</g>
<!-- Node5 -->
<g id="Node000005" class="node">
<title>Node5</title>
<g id="a_Node000005"><a xlink:href="classXML_1_1bpmn_1_1tBaseElement.html" target="_top" xlink:title=" ">
<polygon fill="white" stroke="transparent" points="147.5,-624 7.5,-624 7.5,-530 147.5,-530 147.5,-624"/>
<text text-anchor="start" x="12.5" y="-612" font-family="Helvetica,sans-Serif" font-size="10.00">XML::bpmn::tBaseElement</text>
<text text-anchor="start" x="17.5" y="-597" font-family="Helvetica,sans-Serif" font-size="10.00">+</text>
<text text-anchor="start" x="36.5" y="-597" font-family="Helvetica,sans-Serif" font-size="10.00">documentation</text>
<text text-anchor="start" x="17.5" y="-582" font-family="Helvetica,sans-Serif" font-size="10.00">+</text>
<text text-anchor="start" x="36.5" y="-582" font-family="Helvetica,sans-Serif" font-size="10.00">extensionElements</text>
<text text-anchor="start" x="17.5" y="-567" font-family="Helvetica,sans-Serif" font-size="10.00">+</text>
<text text-anchor="start" x="36.5" y="-567" font-family="Helvetica,sans-Serif" font-size="10.00">id</text>
<text text-anchor="start" x="17.5" y="-552" font-family="Helvetica,sans-Serif" font-size="10.00">+</text>
<text text-anchor="start" x="36.5" y="-552" font-family="Helvetica,sans-Serif" font-size="10.00">defaults</text>
<text text-anchor="start" x="17.5" y="-537" font-family="Helvetica,sans-Serif" font-size="10.00">#</text>
<text text-anchor="start" x="36.5" y="-537" font-family="Helvetica,sans-Serif" font-size="10.00">tBaseElement()</text>
<polygon fill="#666666" stroke="#666666" points="7.5,-607 7.5,-607 147.5,-607 147.5,-607 7.5,-607"/>
<polygon fill="#666666" stroke="#666666" points="7.5,-547 7.5,-547 34.5,-547 34.5,-547 7.5,-547"/>
<polygon fill="#666666" stroke="#666666" points="34.5,-547 34.5,-547 147.5,-547 147.5,-547 34.5,-547"/>
<polygon fill="none" stroke="#666666" points="7.5,-530 7.5,-624 147.5,-624 147.5,-530 7.5,-530"/>
</a>
</g>
</g>
<!-- Node5&#45;&gt;Node4 -->
<g id="edge4_Node000004_Node000005" class="edge">
<title>Node5&#45;&gt;Node4</title>
<g id="a_edge4_Node000004_Node000005"><a xlink:title=" ">
<path fill="none" stroke="#63b8ff" d="M77.5,-519.59C77.5,-510.62 77.5,-501.79 77.5,-494.15"/>
<polygon fill="none" stroke="#63b8ff" points="74,-519.73 77.5,-529.73 81,-519.73 74,-519.73"/>
</a>
</g>
</g>
<!-- Node6 -->
<g id="Node000006" class="node">
<title>Node6</title>
<g id="a_Node000006"><a xlink:href="classXML_1_1XMLObject.html" target="_top" xlink:title="A class representing a node in an XML&#45;tree.">
<polygon fill="white" stroke="transparent" points="137.5,-1054 17.5,-1054 17.5,-660 137.5,-660 137.5,-1054"/>
<text text-anchor="start" x="37.5" y="-1042" font-family="Helvetica,sans-Serif" font-size="10.00">XML::XMLObject</text>
<text text-anchor="start" x="21.5" y="-1027" font-family="Helvetica,sans-Serif" font-size="10.00">+</text>
<text text-anchor="start" x="34.5" y="-1027" font-family="Helvetica,sans-Serif" font-size="10.00">xmlns</text>
<text text-anchor="start" x="21.5" y="-1012" font-family="Helvetica,sans-Serif" font-size="10.00">+</text>
<text text-anchor="start" x="34.5" y="-1012" font-family="Helvetica,sans-Serif" font-size="10.00">className</text>
<text text-anchor="start" x="21.5" y="-997" font-family="Helvetica,sans-Serif" font-size="10.00">+</text>
<text text-anchor="start" x="34.5" y="-997" font-family="Helvetica,sans-Serif" font-size="10.00">prefix</text>
<text text-anchor="start" x="21.5" y="-982" font-family="Helvetica,sans-Serif" font-size="10.00">+</text>
<text text-anchor="start" x="34.5" y="-982" font-family="Helvetica,sans-Serif" font-size="10.00">elementName</text>
<text text-anchor="start" x="21.5" y="-967" font-family="Helvetica,sans-Serif" font-size="10.00">+</text>
<text text-anchor="start" x="34.5" y="-967" font-family="Helvetica,sans-Serif" font-size="10.00">textContent</text>
<text text-anchor="start" x="21.5" y="-952" font-family="Helvetica,sans-Serif" font-size="10.00">+</text>
<text text-anchor="start" x="34.5" y="-952" font-family="Helvetica,sans-Serif" font-size="10.00">children</text>
<text text-anchor="start" x="21.5" y="-937" font-family="Helvetica,sans-Serif" font-size="10.00">+</text>
<text text-anchor="start" x="34.5" y="-937" font-family="Helvetica,sans-Serif" font-size="10.00">attributes</text>
<text text-anchor="start" x="21.5" y="-922" font-family="Helvetica,sans-Serif" font-size="10.00">+</text>
<text text-anchor="start" x="34.5" y="-922" font-family="Helvetica,sans-Serif" font-size="10.00">defaults</text>
<text text-anchor="start" x="21.5" y="-907" font-family="Helvetica,sans-Serif" font-size="10.00">#</text>
<text text-anchor="start" x="34.5" y="-907" font-family="Helvetica,sans-Serif" font-size="10.00">factory</text>
<text text-anchor="start" x="21.5" y="-892" font-family="Helvetica,sans-Serif" font-size="10.00">+</text>
<text text-anchor="start" x="34.5" y="-892" font-family="Helvetica,sans-Serif" font-size="10.00">~XMLObject()</text>
<text text-anchor="start" x="21.5" y="-877" font-family="Helvetica,sans-Serif" font-size="10.00">+</text>
<text text-anchor="start" x="34.5" y="-877" font-family="Helvetica,sans-Serif" font-size="10.00">is()</text>
<text text-anchor="start" x="21.5" y="-862" font-family="Helvetica,sans-Serif" font-size="10.00">+</text>
<text text-anchor="start" x="34.5" y="-862" font-family="Helvetica,sans-Serif" font-size="10.00">is()</text>
<text text-anchor="start" x="21.5" y="-847" font-family="Helvetica,sans-Serif" font-size="10.00">+</text>
<text text-anchor="start" x="34.5" y="-847" font-family="Helvetica,sans-Serif" font-size="10.00">get()</text>
<text text-anchor="start" x="21.5" y="-832" font-family="Helvetica,sans-Serif" font-size="10.00">+</text>
<text text-anchor="start" x="34.5" y="-832" font-family="Helvetica,sans-Serif" font-size="10.00">get()</text>
<text text-anchor="start" x="21.5" y="-817" font-family="Helvetica,sans-Serif" font-size="10.00">+</text>
<text text-anchor="start" x="34.5" y="-817" font-family="Helvetica,sans-Serif" font-size="10.00">find()</text>
<text text-anchor="start" x="21.5" y="-802" font-family="Helvetica,sans-Serif" font-size="10.00">+</text>
<text text-anchor="start" x="34.5" y="-802" font-family="Helvetica,sans-Serif" font-size="10.00">find()</text>
<text text-anchor="start" x="21.5" y="-787" font-family="Helvetica,sans-Serif" font-size="10.00">+</text>
<text text-anchor="start" x="34.5" y="-787" font-family="Helvetica,sans-Serif" font-size="10.00">stringify()</text>
<text text-anchor="start" x="21.5" y="-772" font-family="Helvetica,sans-Serif" font-size="10.00">+</text>
<text text-anchor="start" x="34.5" y="-772" font-family="Helvetica,sans-Serif" font-size="10.00">format()</text>
<text text-anchor="start" x="21.5" y="-757" font-family="Helvetica,sans-Serif" font-size="10.00">+</text>
<text text-anchor="start" x="34.5" y="-757" font-family="Helvetica,sans-Serif" font-size="10.00">getRequiredChild()</text>
<text text-anchor="start" x="34.5" y="-742" font-family="Helvetica,sans-Serif" font-size="10.00">and 7 more...</text>
<text text-anchor="start" x="21.5" y="-727" font-family="Helvetica,sans-Serif" font-size="10.00">+</text>
<text text-anchor="start" x="34.5" y="-727" font-family="Helvetica,sans-Serif" font-size="10.00">createFromStream()</text>
<text text-anchor="start" x="21.5" y="-712" font-family="Helvetica,sans-Serif" font-size="10.00">+</text>
<text text-anchor="start" x="34.5" y="-712" font-family="Helvetica,sans-Serif" font-size="10.00">createFromString()</text>
<text text-anchor="start" x="21.5" y="-697" font-family="Helvetica,sans-Serif" font-size="10.00">+</text>
<text text-anchor="start" x="34.5" y="-697" font-family="Helvetica,sans-Serif" font-size="10.00">createFromFile()</text>
<text text-anchor="start" x="21.5" y="-682" font-family="Helvetica,sans-Serif" font-size="10.00">#</text>
<text text-anchor="start" x="34.5" y="-682" font-family="Helvetica,sans-Serif" font-size="10.00">XMLObject()</text>
<text text-anchor="start" x="21.5" y="-667" font-family="Helvetica,sans-Serif" font-size="10.00">#</text>
<text text-anchor="start" x="34.5" y="-667" font-family="Helvetica,sans-Serif" font-size="10.00">createObject()</text>
<polygon fill="#666666" stroke="#666666" points="17.5,-1037 17.5,-1037 137.5,-1037 137.5,-1037 17.5,-1037"/>
<polygon fill="#666666" stroke="#666666" points="17.5,-902 17.5,-902 32.5,-902 32.5,-902 17.5,-902"/>
<polygon fill="#666666" stroke="#666666" points="32.5,-902 32.5,-902 137.5,-902 137.5,-902 32.5,-902"/>
<polygon fill="none" stroke="#666666" points="17.5,-660 17.5,-1054 137.5,-1054 137.5,-660 17.5,-660"/>
</a>
</g>
</g>
<!-- Node6&#45;&gt;Node5 -->
<g id="edge5_Node000005_Node000006" class="edge">
<title>Node6&#45;&gt;Node5</title>
<g id="a_edge5_Node000005_Node000006"><a xlink:title=" ">
<path fill="none" stroke="#63b8ff" d="M77.5,-649.78C77.5,-640.62 77.5,-631.97 77.5,-624.06"/>
<polygon fill="none" stroke="#63b8ff" points="74,-649.91 77.5,-659.91 81,-649.91 74,-649.91"/>
</a>
</g>
</g>
</g>
</svg>
