<?xml version="1.0" encoding="UTF-8" standalone="no"?>
<!DOCTYPE svg PUBLIC "-//W3C//DTD SVG 1.1//EN"
 "http://www.w3.org/Graphics/SVG/1.1/DTD/svg11.dtd">
<!-- Generated by graphviz version 2.43.0 (0)
 -->
<!-- Title: BPMN::ErrorBoundaryEvent Pages: 1 -->
<svg width="184pt" height="1067pt"
 viewBox="0.00 0.00 183.50 1067.00" xmlns="http://www.w3.org/2000/svg" xmlns:xlink="http://www.w3.org/1999/xlink">
<g id="graph0" class="graph" transform="scale(1 1) rotate(0) translate(4 1063)">
<title>BPMN::ErrorBoundaryEvent</title>
<!-- Node1 -->
<g id="Node000001" class="node">
<title>Node1</title>
<g id="a_Node000001"><a xlink:title=" ">
<polygon fill="#999999" stroke="transparent" points="143,-49 0,-49 0,0 143,0 143,-49"/>
<text text-anchor="start" x="5.5" y="-36.5" font-family="Helvetica,sans-Serif" font-size="10.00">BPMN::ErrorBoundaryEvent</text>
<text text-anchor="start" x="8.5" y="-21.5" font-family="Helvetica,sans-Serif" font-size="10.00">+</text>
<text text-anchor="start" x="25.5" y="-21.5" font-family="Helvetica,sans-Serif" font-size="10.00">element</text>
<text text-anchor="start" x="8.5" y="-6.5" font-family="Helvetica,sans-Serif" font-size="10.00">+</text>
<text text-anchor="start" x="25.5" y="-6.5" font-family="Helvetica,sans-Serif" font-size="10.00">ErrorBoundaryEvent()</text>
<polygon fill="#666666" stroke="#666666" points="0.5,-31.5 0.5,-31.5 143.5,-31.5 143.5,-31.5 0.5,-31.5"/>
<polygon fill="#666666" stroke="#666666" points="0.5,-16.5 0.5,-16.5 23.5,-16.5 23.5,-16.5 0.5,-16.5"/>
<polygon fill="#666666" stroke="#666666" points="23.5,-16.5 23.5,-16.5 143.5,-16.5 143.5,-16.5 23.5,-16.5"/>
<polygon fill="none" stroke="#666666" points="0,0 0,-49 143,-49 143,0 0,0"/>
</a>
</g>
</g>
<!-- Node2 -->
<g id="Node000002" class="node">
<title>Node2</title>
<g id="a_Node000002"><a xlink:href="classBPMN_1_1BoundaryEvent.html" target="_top" xlink:title="Base class for all boundary events attached to an Activity.">
<polygon fill="white" stroke="transparent" points="175.5,-164 55.5,-164 55.5,-85 175.5,-85 175.5,-164"/>
<text text-anchor="start" x="60.5" y="-151.5" font-family="Helvetica,sans-Serif" font-size="10.00">BPMN::BoundaryEvent</text>
<text text-anchor="start" x="60.5" y="-136.5" font-family="Helvetica,sans-Serif" font-size="10.00">+</text>
<text text-anchor="start" x="74.5" y="-136.5" font-family="Helvetica,sans-Serif" font-size="10.00">isInterrupting</text>
<text text-anchor="start" x="60.5" y="-121.5" font-family="Helvetica,sans-Serif" font-size="10.00">+</text>
<text text-anchor="start" x="74.5" y="-121.5" font-family="Helvetica,sans-Serif" font-size="10.00">attachedTo</text>
<text text-anchor="start" x="60.5" y="-106.5" font-family="Helvetica,sans-Serif" font-size="10.00">+</text>
<text text-anchor="start" x="74.5" y="-106.5" font-family="Helvetica,sans-Serif" font-size="10.00">BoundaryEvent()</text>
<text text-anchor="start" x="60.5" y="-91.5" font-family="Helvetica,sans-Serif" font-size="10.00">#</text>
<text text-anchor="start" x="74.5" y="-91.5" font-family="Helvetica,sans-Serif" font-size="10.00">resolveReference()</text>
<polygon fill="#666666" stroke="#666666" points="55.5,-146.5 55.5,-146.5 175.5,-146.5 175.5,-146.5 55.5,-146.5"/>
<polygon fill="#666666" stroke="#666666" points="55.5,-116.5 55.5,-116.5 72.5,-116.5 72.5,-116.5 55.5,-116.5"/>
<polygon fill="#666666" stroke="#666666" points="72.5,-116.5 72.5,-116.5 175.5,-116.5 175.5,-116.5 72.5,-116.5"/>
<polygon fill="none" stroke="#666666" points="55.5,-85 55.5,-164 175.5,-164 175.5,-85 55.5,-85"/>
</a>
</g>
</g>
<!-- Node2&#45;&gt;Node1 -->
<g id="edge1_Node000001_Node000002" class="edge">
<title>Node2&#45;&gt;Node1</title>
<g id="a_edge1_Node000001_Node000002"><a xlink:title=" ">
<path fill="none" stroke="#63b8ff" d="M93.99,-75.58C89.83,-66.34 85.66,-57.03 82.05,-49"/>
<polygon fill="none" stroke="#63b8ff" points="90.82,-77.08 98.11,-84.77 97.21,-74.21 90.82,-77.08"/>
</a>
</g>
</g>
<!-- Node3 -->
<g id="Node000003" class="node">
<title>Node3</title>
<g id="a_Node000003"><a xlink:href="classBPMN_1_1CatchEvent.html" target="_top" xlink:title=" ">
<polygon fill="white" stroke="transparent" points="122,-249 21,-249 21,-200 122,-200 122,-249"/>
<text text-anchor="start" x="26.5" y="-236.5" font-family="Helvetica,sans-Serif" font-size="10.00">BPMN::CatchEvent</text>
<text text-anchor="start" x="29.5" y="-221.5" font-family="Helvetica,sans-Serif" font-size="10.00">+</text>
<text text-anchor="start" x="46.5" y="-221.5" font-family="Helvetica,sans-Serif" font-size="10.00">element</text>
<text text-anchor="start" x="29.5" y="-206.5" font-family="Helvetica,sans-Serif" font-size="10.00">+</text>
<text text-anchor="start" x="46.5" y="-206.5" font-family="Helvetica,sans-Serif" font-size="10.00">CatchEvent()</text>
<polygon fill="#666666" stroke="#666666" points="21.5,-231.5 21.5,-231.5 122.5,-231.5 122.5,-231.5 21.5,-231.5"/>
<polygon fill="#666666" stroke="#666666" points="21.5,-216.5 21.5,-216.5 44.5,-216.5 44.5,-216.5 21.5,-216.5"/>
<polygon fill="#666666" stroke="#666666" points="44.5,-216.5 44.5,-216.5 122.5,-216.5 122.5,-216.5 44.5,-216.5"/>
<polygon fill="none" stroke="#666666" points="21,-200 21,-249 122,-249 122,-200 21,-200"/>
</a>
</g>
</g>
<!-- Node3&#45;&gt;Node1 -->
<g id="edge9_Node000001_Node000003" class="edge">
<title>Node3&#45;&gt;Node1</title>
<g id="a_edge9_Node000001_Node000003"><a xlink:title=" ">
<path fill="none" stroke="#63b8ff" d="M54.99,-190.69C51.48,-182.21 48.3,-172.94 46.5,-164 39.56,-129.58 39.56,-119.42 46.5,-85 48.98,-72.7 54.07,-59.77 59.02,-49.12"/>
<polygon fill="none" stroke="#63b8ff" points="51.8,-192.13 59.02,-199.88 58.21,-189.31 51.8,-192.13"/>
</a>
</g>
</g>
<!-- Node3&#45;&gt;Node2 -->
<g id="edge2_Node000002_Node000003" class="edge">
<title>Node3&#45;&gt;Node2</title>
<g id="a_edge2_Node000002_Node000003"><a xlink:title=" ">
<path fill="none" stroke="#63b8ff" d="M86.27,-190.61C90.06,-182.17 94.17,-173.01 98.08,-164.29"/>
<polygon fill="none" stroke="#63b8ff" points="83.05,-189.22 82.15,-199.78 89.44,-192.09 83.05,-189.22"/>
</a>
</g>
</g>
<!-- Node4 -->
<g id="Node000004" class="node">
<title>Node4</title>
<g id="a_Node000004"><a xlink:href="classBPMN_1_1Event.html" target="_top" xlink:title=" ">
<polygon fill="white" stroke="transparent" points="108.5,-334 34.5,-334 34.5,-285 108.5,-285 108.5,-334"/>
<text text-anchor="start" x="39.5" y="-321.5" font-family="Helvetica,sans-Serif" font-size="10.00">BPMN::Event</text>
<text text-anchor="start" x="41.5" y="-306.5" font-family="Helvetica,sans-Serif" font-size="10.00">+</text>
<text text-anchor="start" x="57.5" y="-306.5" font-family="Helvetica,sans-Serif" font-size="10.00">element</text>
<text text-anchor="start" x="41.5" y="-291.5" font-family="Helvetica,sans-Serif" font-size="10.00">+</text>
<text text-anchor="start" x="57.5" y="-291.5" font-family="Helvetica,sans-Serif" font-size="10.00">Event()</text>
<polygon fill="#666666" stroke="#666666" points="34.5,-316.5 34.5,-316.5 108.5,-316.5 108.5,-316.5 34.5,-316.5"/>
<polygon fill="#666666" stroke="#666666" points="34.5,-301.5 34.5,-301.5 55.5,-301.5 55.5,-301.5 34.5,-301.5"/>
<polygon fill="#666666" stroke="#666666" points="55.5,-301.5 55.5,-301.5 108.5,-301.5 108.5,-301.5 55.5,-301.5"/>
<polygon fill="none" stroke="#666666" points="34.5,-285 34.5,-334 108.5,-334 108.5,-285 34.5,-285"/>
</a>
</g>
</g>
<!-- Node4&#45;&gt;Node3 -->
<g id="edge3_Node000003_Node000004" class="edge">
<title>Node4&#45;&gt;Node3</title>
<g id="a_edge3_Node000003_Node000004"><a xlink:title=" ">
<path fill="none" stroke="#63b8ff" d="M71.5,-274.77C71.5,-266.17 71.5,-257.1 71.5,-249.12"/>
<polygon fill="none" stroke="#63b8ff" points="68,-274.94 71.5,-284.94 75,-274.94 68,-274.94"/>
</a>
</g>
</g>
<!-- Node5 -->
<g id="Node000005" class="node">
<title>Node5</title>
<g id="a_Node000005"><a xlink:href="classBPMN_1_1FlowNode.html" target="_top" xlink:title="Base class for BPMN elements that may contain incoming and outgoing sequence flows.">
<polygon fill="white" stroke="transparent" points="119,-464 24,-464 24,-370 119,-370 119,-464"/>
<text text-anchor="start" x="29.5" y="-452" font-family="Helvetica,sans-Serif" font-size="10.00">BPMN::FlowNode</text>
<text text-anchor="start" x="32.5" y="-437" font-family="Helvetica,sans-Serif" font-size="10.00">+</text>
<text text-anchor="start" x="49.5" y="-437" font-family="Helvetica,sans-Serif" font-size="10.00">element</text>
<text text-anchor="start" x="32.5" y="-422" font-family="Helvetica,sans-Serif" font-size="10.00">+</text>
<text text-anchor="start" x="49.5" y="-422" font-family="Helvetica,sans-Serif" font-size="10.00">name</text>
<text text-anchor="start" x="32.5" y="-407" font-family="Helvetica,sans-Serif" font-size="10.00">+</text>
<text text-anchor="start" x="49.5" y="-407" font-family="Helvetica,sans-Serif" font-size="10.00">incoming</text>
<text text-anchor="start" x="32.5" y="-392" font-family="Helvetica,sans-Serif" font-size="10.00">+</text>
<text text-anchor="start" x="49.5" y="-392" font-family="Helvetica,sans-Serif" font-size="10.00">outgoing</text>
<text text-anchor="start" x="32.5" y="-377" font-family="Helvetica,sans-Serif" font-size="10.00">+</text>
<text text-anchor="start" x="49.5" y="-377" font-family="Helvetica,sans-Serif" font-size="10.00">FlowNode()</text>
<polygon fill="#666666" stroke="#666666" points="24.5,-447 24.5,-447 119.5,-447 119.5,-447 24.5,-447"/>
<polygon fill="#666666" stroke="#666666" points="24.5,-387 24.5,-387 47.5,-387 47.5,-387 24.5,-387"/>
<polygon fill="#666666" stroke="#666666" points="47.5,-387 47.5,-387 119.5,-387 119.5,-387 47.5,-387"/>
<polygon fill="none" stroke="#666666" points="24,-370 24,-464 119,-464 119,-370 24,-370"/>
</a>
</g>
</g>
<!-- Node5&#45;&gt;Node4 -->
<g id="edge4_Node000004_Node000005" class="edge">
<title>Node5&#45;&gt;Node4</title>
<g id="a_edge4_Node000004_Node000005"><a xlink:title=" ">
<path fill="none" stroke="#63b8ff" d="M71.5,-359.59C71.5,-350.62 71.5,-341.79 71.5,-334.15"/>
<polygon fill="none" stroke="#63b8ff" points="68,-359.73 71.5,-369.73 75,-359.73 68,-359.73"/>
</a>
</g>
</g>
<!-- Node6 -->
<g id="Node000006" class="node">
<title>Node6</title>
<g id="a_Node000006"><a xlink:href="classBPMN_1_1ChildNode.html" target="_top" xlink:title="Base class for BPMN elements within a Scope.">
<polygon fill="white" stroke="transparent" points="119.5,-579 23.5,-579 23.5,-500 119.5,-500 119.5,-579"/>
<text text-anchor="start" x="28.5" y="-566.5" font-family="Helvetica,sans-Serif" font-size="10.00">BPMN::ChildNode</text>
<text text-anchor="start" x="31.5" y="-551.5" font-family="Helvetica,sans-Serif" font-size="10.00">+</text>
<text text-anchor="start" x="48.5" y="-551.5" font-family="Helvetica,sans-Serif" font-size="10.00">parent</text>
<text text-anchor="start" x="31.5" y="-536.5" font-family="Helvetica,sans-Serif" font-size="10.00">+</text>
<text text-anchor="start" x="48.5" y="-536.5" font-family="Helvetica,sans-Serif" font-size="10.00">ChildNode()</text>
<text text-anchor="start" x="31.5" y="-521.5" font-family="Helvetica,sans-Serif" font-size="10.00">+</text>
<text text-anchor="start" x="48.5" y="-521.5" font-family="Helvetica,sans-Serif" font-size="10.00">ancestor()</text>
<text text-anchor="start" x="31.5" y="-506.5" font-family="Helvetica,sans-Serif" font-size="10.00">+</text>
<text text-anchor="start" x="48.5" y="-506.5" font-family="Helvetica,sans-Serif" font-size="10.00">ancestor()</text>
<polygon fill="#666666" stroke="#666666" points="23.5,-561.5 23.5,-561.5 119.5,-561.5 119.5,-561.5 23.5,-561.5"/>
<polygon fill="#666666" stroke="#666666" points="23.5,-546.5 23.5,-546.5 46.5,-546.5 46.5,-546.5 23.5,-546.5"/>
<polygon fill="#666666" stroke="#666666" points="46.5,-546.5 46.5,-546.5 119.5,-546.5 119.5,-546.5 46.5,-546.5"/>
<polygon fill="none" stroke="#666666" points="23.5,-500 23.5,-579 119.5,-579 119.5,-500 23.5,-500"/>
</a>
</g>
</g>
<!-- Node6&#45;&gt;Node5 -->
<g id="edge5_Node000005_Node000006" class="edge">
<title>Node6&#45;&gt;Node5</title>
<g id="a_edge5_Node000005_Node000006"><a xlink:title=" ">
<path fill="none" stroke="#63b8ff" d="M71.5,-489.68C71.5,-481.3 71.5,-472.61 71.5,-464.29"/>
<polygon fill="none" stroke="#63b8ff" points="68,-489.71 71.5,-499.71 75,-489.71 68,-489.71"/>
</a>
</g>
</g>
<!-- Node7 -->
<g id="Node000007" class="node">
<title>Node7</title>
<g id="a_Node000007"><a xlink:href="classBPMN_1_1Node.html" target="_top" xlink:title="Base class for all nodes in a BPMN model.">
<polygon fill="white" stroke="transparent" points="107,-739 36,-739 36,-615 107,-615 107,-739"/>
<text text-anchor="start" x="41.5" y="-727" font-family="Helvetica,sans-Serif" font-size="10.00">BPMN::Node</text>
<text text-anchor="start" x="41.5" y="-712" font-family="Helvetica,sans-Serif" font-size="10.00">+</text>
<text text-anchor="start" x="55.5" y="-712" font-family="Helvetica,sans-Serif" font-size="10.00">receiving</text>
<text text-anchor="start" x="41.5" y="-697" font-family="Helvetica,sans-Serif" font-size="10.00">+</text>
<text text-anchor="start" x="55.5" y="-697" font-family="Helvetica,sans-Serif" font-size="10.00">sending</text>
<text text-anchor="start" x="41.5" y="-682" font-family="Helvetica,sans-Serif" font-size="10.00">+</text>
<text text-anchor="start" x="55.5" y="-682" font-family="Helvetica,sans-Serif" font-size="10.00">Node()</text>
<text text-anchor="start" x="41.5" y="-667" font-family="Helvetica,sans-Serif" font-size="10.00">+</text>
<text text-anchor="start" x="55.5" y="-667" font-family="Helvetica,sans-Serif" font-size="10.00">find()</text>
<text text-anchor="start" x="41.5" y="-652" font-family="Helvetica,sans-Serif" font-size="10.00">+</text>
<text text-anchor="start" x="55.5" y="-652" font-family="Helvetica,sans-Serif" font-size="10.00">find()</text>
<text text-anchor="start" x="41.5" y="-637" font-family="Helvetica,sans-Serif" font-size="10.00">+</text>
<text text-anchor="start" x="55.5" y="-637" font-family="Helvetica,sans-Serif" font-size="10.00">find_all()</text>
<text text-anchor="start" x="41.5" y="-622" font-family="Helvetica,sans-Serif" font-size="10.00">+</text>
<text text-anchor="start" x="55.5" y="-622" font-family="Helvetica,sans-Serif" font-size="10.00">find_all()</text>
<polygon fill="#666666" stroke="#666666" points="36.5,-722 36.5,-722 107.5,-722 107.5,-722 36.5,-722"/>
<polygon fill="#666666" stroke="#666666" points="36.5,-692 36.5,-692 53.5,-692 53.5,-692 36.5,-692"/>
<polygon fill="#666666" stroke="#666666" points="53.5,-692 53.5,-692 107.5,-692 107.5,-692 53.5,-692"/>
<polygon fill="none" stroke="#666666" points="36,-615 36,-739 107,-739 107,-615 36,-615"/>
</a>
</g>
</g>
<!-- Node7&#45;&gt;Node6 -->
<g id="edge6_Node000006_Node000007" class="edge">
<title>Node7&#45;&gt;Node6</title>
<g id="a_edge6_Node000006_Node000007"><a xlink:title=" ">
<path fill="none" stroke="#63b8ff" d="M71.5,-604.93C71.5,-596.02 71.5,-587.19 71.5,-579.05"/>
<polygon fill="none" stroke="#63b8ff" points="68,-604.99 71.5,-614.99 75,-604.99 68,-604.99"/>
</a>
</g>
</g>
<!-- Node8 -->
<g id="Node000008" class="node">
<title>Node8</title>
<g id="a_Node000008"><a xlink:href="classBPMN_1_1BaseElement.html" target="_top" xlink:title="Base class for all core BPMN elements.">
<polygon fill="white" stroke="transparent" points="129,-914 14,-914 14,-775 129,-775 129,-914"/>
<text text-anchor="start" x="22" y="-901.5" font-family="Helvetica,sans-Serif" font-size="10.00">BPMN::BaseElement</text>
<text text-anchor="start" x="18.5" y="-886.5" font-family="Helvetica,sans-Serif" font-size="10.00">+</text>
<text text-anchor="start" x="31.5" y="-886.5" font-family="Helvetica,sans-Serif" font-size="10.00">element</text>
<text text-anchor="start" x="18.5" y="-871.5" font-family="Helvetica,sans-Serif" font-size="10.00">+</text>
<text text-anchor="start" x="31.5" y="-871.5" font-family="Helvetica,sans-Serif" font-size="10.00">id</text>
<text text-anchor="start" x="18.5" y="-856.5" font-family="Helvetica,sans-Serif" font-size="10.00">+</text>
<text text-anchor="start" x="31.5" y="-856.5" font-family="Helvetica,sans-Serif" font-size="10.00">extensionElements</text>
<text text-anchor="start" x="18.5" y="-841.5" font-family="Helvetica,sans-Serif" font-size="10.00">+</text>
<text text-anchor="start" x="31.5" y="-841.5" font-family="Helvetica,sans-Serif" font-size="10.00">BaseElement()</text>
<text text-anchor="start" x="18.5" y="-826.5" font-family="Helvetica,sans-Serif" font-size="10.00">+</text>
<text text-anchor="start" x="31.5" y="-826.5" font-family="Helvetica,sans-Serif" font-size="10.00">is()</text>
<text text-anchor="start" x="18.5" y="-811.5" font-family="Helvetica,sans-Serif" font-size="10.00">+</text>
<text text-anchor="start" x="31.5" y="-811.5" font-family="Helvetica,sans-Serif" font-size="10.00">is()</text>
<text text-anchor="start" x="18.5" y="-796.5" font-family="Helvetica,sans-Serif" font-size="10.00">+</text>
<text text-anchor="start" x="31.5" y="-796.5" font-family="Helvetica,sans-Serif" font-size="10.00">get()</text>
<text text-anchor="start" x="18.5" y="-781.5" font-family="Helvetica,sans-Serif" font-size="10.00">+</text>
<text text-anchor="start" x="31.5" y="-781.5" font-family="Helvetica,sans-Serif" font-size="10.00">get()</text>
<polygon fill="#666666" stroke="#666666" points="14.5,-896.5 14.5,-896.5 129.5,-896.5 129.5,-896.5 14.5,-896.5"/>
<polygon fill="#666666" stroke="#666666" points="14.5,-851.5 14.5,-851.5 29.5,-851.5 29.5,-851.5 14.5,-851.5"/>
<polygon fill="#666666" stroke="#666666" points="29.5,-851.5 29.5,-851.5 129.5,-851.5 129.5,-851.5 29.5,-851.5"/>
<polygon fill="none" stroke="#666666" points="14,-775 14,-914 129,-914 129,-775 14,-775"/>
</a>
</g>
</g>
<!-- Node8&#45;&gt;Node7 -->
<g id="edge7_Node000007_Node000008" class="edge">
<title>Node8&#45;&gt;Node7</title>
<g id="a_edge7_Node000007_Node000008"><a xlink:title=" ">
<path fill="none" stroke="#63b8ff" d="M71.5,-764.71C71.5,-756.12 71.5,-747.47 71.5,-739.14"/>
<polygon fill="none" stroke="#63b8ff" points="68,-764.75 71.5,-774.75 75,-764.75 68,-764.75"/>
</a>
</g>
</g>
<!-- Node9 -->
<g id="Node000009" class="node">
<title>Node9</title>
<g id="a_Node000009"><a xlink:href="classBPMN_1_1Element.html" target="_top" xlink:title="Abstract base class for all elements in a BPMN model.">
<polygon fill="white" stroke="transparent" points="114.5,-1059 28.5,-1059 28.5,-950 114.5,-950 114.5,-1059"/>
<text text-anchor="start" x="33.5" y="-1046.5" font-family="Helvetica,sans-Serif" font-size="10.00">BPMN::Element</text>
<text text-anchor="start" x="69.5" y="-1031.5" font-family="Helvetica,sans-Serif" font-size="10.00"> </text>
<text text-anchor="start" x="33.5" y="-1016.5" font-family="Helvetica,sans-Serif" font-size="10.00">+</text>
<text text-anchor="start" x="47.5" y="-1016.5" font-family="Helvetica,sans-Serif" font-size="10.00">~Element()</text>
<text text-anchor="start" x="33.5" y="-1001.5" font-family="Helvetica,sans-Serif" font-size="10.00">+</text>
<text text-anchor="start" x="47.5" y="-1001.5" font-family="Helvetica,sans-Serif" font-size="10.00">represents()</text>
<text text-anchor="start" x="33.5" y="-986.5" font-family="Helvetica,sans-Serif" font-size="10.00">+</text>
<text text-anchor="start" x="47.5" y="-986.5" font-family="Helvetica,sans-Serif" font-size="10.00">represents()</text>
<text text-anchor="start" x="33.5" y="-971.5" font-family="Helvetica,sans-Serif" font-size="10.00">+</text>
<text text-anchor="start" x="47.5" y="-971.5" font-family="Helvetica,sans-Serif" font-size="10.00">as()</text>
<text text-anchor="start" x="33.5" y="-956.5" font-family="Helvetica,sans-Serif" font-size="10.00">+</text>
<text text-anchor="start" x="47.5" y="-956.5" font-family="Helvetica,sans-Serif" font-size="10.00">as()</text>
<polygon fill="#666666" stroke="#666666" points="28.5,-1041.5 28.5,-1041.5 114.5,-1041.5 114.5,-1041.5 28.5,-1041.5"/>
<polygon fill="#666666" stroke="#666666" points="28.5,-1026.5 28.5,-1026.5 114.5,-1026.5 114.5,-1026.5 28.5,-1026.5"/>
<polygon fill="none" stroke="#666666" points="28.5,-950 28.5,-1059 114.5,-1059 114.5,-950 28.5,-950"/>
</a>
</g>
</g>
<!-- Node9&#45;&gt;Node8 -->
<g id="edge8_Node000008_Node000009" class="edge">
<title>Node9&#45;&gt;Node8</title>
<g id="a_edge8_Node000008_Node000009"><a xlink:title=" ">
<path fill="none" stroke="#63b8ff" d="M71.5,-939.55C71.5,-931.23 71.5,-922.67 71.5,-914.28"/>
<polygon fill="none" stroke="#63b8ff" points="68,-939.57 71.5,-949.57 75,-939.57 68,-939.57"/>
</a>
</g>
</g>
</g>
</svg>
