<?xml version="1.0" encoding="UTF-8" standalone="no"?>
<!DOCTYPE svg PUBLIC "-//W3C//DTD SVG 1.1//EN"
 "http://www.w3.org/Graphics/SVG/1.1/DTD/svg11.dtd">
<!-- Generated by graphviz version 2.43.0 (0)
 -->
<!-- Title: XML::bpmn::DiagramElement Pages: 1 -->
<svg width="615pt" height="976pt"
 viewBox="0.00 0.00 614.50 976.00" xmlns="http://www.w3.org/2000/svg" xmlns:xlink="http://www.w3.org/1999/xlink">
<g id="graph0" class="graph" transform="scale(1 1) rotate(0) translate(4 972)">
<title>XML::bpmn::DiagramElement</title>
<!-- Node1 -->
<g id="node1" class="node">
<title>Node1</title>
<g id="a_node1"><a xlink:title=" ">
<polygon fill="#bfbfbf" stroke="black" points="139.5,-541.5 139.5,-620.5 299.5,-620.5 299.5,-541.5 139.5,-541.5"/>
<text text-anchor="middle" x="219.5" y="-608.5" font-family="Helvetica,sans-Serif" font-size="10.00">XML::bpmn::DiagramElement</text>
<polyline fill="none" stroke="black" points="139.5,-601.5 299.5,-601.5 "/>
<text text-anchor="start" x="147.5" y="-589.5" font-family="Helvetica,sans-Serif" font-size="10.00">+ extension</text>
<text text-anchor="start" x="147.5" y="-578.5" font-family="Helvetica,sans-Serif" font-size="10.00">+ id</text>
<text text-anchor="start" x="147.5" y="-567.5" font-family="Helvetica,sans-Serif" font-size="10.00">+ defaults</text>
<polyline fill="none" stroke="black" points="139.5,-560.5 299.5,-560.5 "/>
<text text-anchor="start" x="147.5" y="-548.5" font-family="Helvetica,sans-Serif" font-size="10.00"># DiagramElement()</text>
</a>
</g>
</g>
<!-- Node3 -->
<g id="node3" class="node">
<title>Node3</title>
<g id="a_node3"><a xlink:href="classXML_1_1bpmn_1_1Edge.html" target="_top" xlink:title=" ">
<polygon fill="none" stroke="black" points="109,-436.5 109,-504.5 210,-504.5 210,-436.5 109,-436.5"/>
<text text-anchor="middle" x="159.5" y="-492.5" font-family="Helvetica,sans-Serif" font-size="10.00">XML::bpmn::Edge</text>
<polyline fill="none" stroke="black" points="109,-485.5 210,-485.5 "/>
<text text-anchor="start" x="117" y="-473.5" font-family="Helvetica,sans-Serif" font-size="10.00">+ waypoint</text>
<text text-anchor="start" x="117" y="-462.5" font-family="Helvetica,sans-Serif" font-size="10.00">+ defaults</text>
<polyline fill="none" stroke="black" points="109,-455.5 210,-455.5 "/>
<text text-anchor="start" x="117" y="-443.5" font-family="Helvetica,sans-Serif" font-size="10.00"># Edge()</text>
</a>
</g>
</g>
<!-- Node1&#45;&gt;Node3 -->
<g id="edge2" class="edge">
<title>Node1&#45;&gt;Node3</title>
<path fill="none" stroke="midnightblue" d="M193.24,-532.52C188.02,-523.08 182.65,-513.37 177.77,-504.54"/>
<polygon fill="none" stroke="midnightblue" points="190.28,-534.38 198.18,-541.44 196.4,-531 190.28,-534.38"/>
</g>
<!-- Node6 -->
<g id="node6" class="node">
<title>Node6</title>
<g id="a_node6"><a xlink:href="classXML_1_1bpmn_1_1Node.html" target="_top" xlink:title=" ">
<polygon fill="none" stroke="black" points="240,-442 240,-499 343,-499 343,-442 240,-442"/>
<text text-anchor="middle" x="291.5" y="-487" font-family="Helvetica,sans-Serif" font-size="10.00">XML::bpmn::Node</text>
<polyline fill="none" stroke="black" points="240,-480 343,-480 "/>
<text text-anchor="start" x="248" y="-468" font-family="Helvetica,sans-Serif" font-size="10.00">+ defaults</text>
<polyline fill="none" stroke="black" points="240,-461 343,-461 "/>
<text text-anchor="start" x="248" y="-449" font-family="Helvetica,sans-Serif" font-size="10.00"># Node()</text>
</a>
</g>
</g>
<!-- Node1&#45;&gt;Node6 -->
<g id="edge5" class="edge">
<title>Node1&#45;&gt;Node6</title>
<path fill="none" stroke="midnightblue" d="M250.63,-533.09C258.34,-521.46 266.36,-509.38 273.23,-499.03"/>
<polygon fill="none" stroke="midnightblue" points="247.7,-531.17 245.09,-541.44 253.53,-535.04 247.7,-531.17"/>
</g>
<!-- Node2 -->
<g id="node2" class="node">
<title>Node2</title>
<g id="a_node2"><a xlink:href="classXML_1_1XMLObject.html" target="_top" xlink:title="A class representing a node in an XML&#45;tree.">
<polygon fill="none" stroke="black" points="156.5,-657.5 156.5,-967.5 282.5,-967.5 282.5,-657.5 156.5,-657.5"/>
<text text-anchor="middle" x="219.5" y="-955.5" font-family="Helvetica,sans-Serif" font-size="10.00">XML::XMLObject</text>
<polyline fill="none" stroke="black" points="156.5,-948.5 282.5,-948.5 "/>
<text text-anchor="start" x="164.5" y="-936.5" font-family="Helvetica,sans-Serif" font-size="10.00">+ xmlns</text>
<text text-anchor="start" x="164.5" y="-925.5" font-family="Helvetica,sans-Serif" font-size="10.00">+ className</text>
<text text-anchor="start" x="164.5" y="-914.5" font-family="Helvetica,sans-Serif" font-size="10.00">+ prefix</text>
<text text-anchor="start" x="164.5" y="-903.5" font-family="Helvetica,sans-Serif" font-size="10.00">+ elementName</text>
<text text-anchor="start" x="164.5" y="-892.5" font-family="Helvetica,sans-Serif" font-size="10.00">+ textContent</text>
<text text-anchor="start" x="164.5" y="-881.5" font-family="Helvetica,sans-Serif" font-size="10.00">+ children</text>
<text text-anchor="start" x="164.5" y="-870.5" font-family="Helvetica,sans-Serif" font-size="10.00">+ attributes</text>
<text text-anchor="start" x="164.5" y="-859.5" font-family="Helvetica,sans-Serif" font-size="10.00">+ defaults</text>
<text text-anchor="start" x="164.5" y="-848.5" font-family="Helvetica,sans-Serif" font-size="10.00"># factory</text>
<polyline fill="none" stroke="black" points="156.5,-841.5 282.5,-841.5 "/>
<text text-anchor="start" x="164.5" y="-829.5" font-family="Helvetica,sans-Serif" font-size="10.00">+ ~XMLObject()</text>
<text text-anchor="start" x="164.5" y="-818.5" font-family="Helvetica,sans-Serif" font-size="10.00">+ is()</text>
<text text-anchor="start" x="164.5" y="-807.5" font-family="Helvetica,sans-Serif" font-size="10.00">+ is()</text>
<text text-anchor="start" x="164.5" y="-796.5" font-family="Helvetica,sans-Serif" font-size="10.00">+ get()</text>
<text text-anchor="start" x="164.5" y="-785.5" font-family="Helvetica,sans-Serif" font-size="10.00">+ get()</text>
<text text-anchor="start" x="164.5" y="-774.5" font-family="Helvetica,sans-Serif" font-size="10.00">+ find()</text>
<text text-anchor="start" x="164.5" y="-763.5" font-family="Helvetica,sans-Serif" font-size="10.00">+ find()</text>
<text text-anchor="start" x="164.5" y="-752.5" font-family="Helvetica,sans-Serif" font-size="10.00">+ stringify()</text>
<text text-anchor="start" x="164.5" y="-741.5" font-family="Helvetica,sans-Serif" font-size="10.00">+ getRequiredChild()</text>
<text text-anchor="start" x="164.5" y="-730.5" font-family="Helvetica,sans-Serif" font-size="10.00">+ getOptionalChild()</text>
<text text-anchor="start" x="164.5" y="-719.5" font-family="Helvetica,sans-Serif" font-size="10.00">and 6 more...</text>
<text text-anchor="start" x="164.5" y="-708.5" font-family="Helvetica,sans-Serif" font-size="10.00">+ createFromStream()</text>
<text text-anchor="start" x="164.5" y="-697.5" font-family="Helvetica,sans-Serif" font-size="10.00">+ createFromString()</text>
<text text-anchor="start" x="164.5" y="-686.5" font-family="Helvetica,sans-Serif" font-size="10.00">+ createFromFile()</text>
<text text-anchor="start" x="164.5" y="-675.5" font-family="Helvetica,sans-Serif" font-size="10.00"># XMLObject()</text>
<text text-anchor="start" x="164.5" y="-664.5" font-family="Helvetica,sans-Serif" font-size="10.00"># createObject()</text>
</a>
</g>
</g>
<!-- Node2&#45;&gt;Node1 -->
<g id="edge1" class="edge">
<title>Node2&#45;&gt;Node1</title>
<path fill="none" stroke="midnightblue" d="M219.5,-647.32C219.5,-637.77 219.5,-628.78 219.5,-620.7"/>
<polygon fill="none" stroke="midnightblue" points="216,-647.46 219.5,-657.46 223,-647.46 216,-647.46"/>
</g>
<!-- Node4 -->
<g id="node4" class="node">
<title>Node4</title>
<g id="a_node4"><a xlink:href="classXML_1_1bpmn_1_1LabeledEdge.html" target="_top" xlink:title=" ">
<polygon fill="none" stroke="black" points="5.5,-337 5.5,-394 145.5,-394 145.5,-337 5.5,-337"/>
<text text-anchor="middle" x="75.5" y="-382" font-family="Helvetica,sans-Serif" font-size="10.00">XML::bpmn::LabeledEdge</text>
<polyline fill="none" stroke="black" points="5.5,-375 145.5,-375 "/>
<text text-anchor="start" x="13.5" y="-363" font-family="Helvetica,sans-Serif" font-size="10.00">+ defaults</text>
<polyline fill="none" stroke="black" points="5.5,-356 145.5,-356 "/>
<text text-anchor="start" x="13.5" y="-344" font-family="Helvetica,sans-Serif" font-size="10.00"># LabeledEdge()</text>
</a>
</g>
</g>
<!-- Node3&#45;&gt;Node4 -->
<g id="edge3" class="edge">
<title>Node3&#45;&gt;Node4</title>
<path fill="none" stroke="midnightblue" d="M126.06,-428.49C116.63,-416.93 106.61,-404.64 97.99,-394.08"/>
<polygon fill="none" stroke="midnightblue" points="123.43,-430.81 132.46,-436.34 128.85,-426.38 123.43,-430.81"/>
</g>
<!-- Node5 -->
<g id="node5" class="node">
<title>Node5</title>
<g id="a_node5"><a xlink:href="classXML_1_1bpmn_1_1BPMNEdge.html" target="_top" xlink:title=" ">
<polygon fill="none" stroke="black" points="0,-182.5 0,-294.5 131,-294.5 131,-182.5 0,-182.5"/>
<text text-anchor="middle" x="65.5" y="-282.5" font-family="Helvetica,sans-Serif" font-size="10.00">XML::bpmn::BPMNEdge</text>
<polyline fill="none" stroke="black" points="0,-275.5 131,-275.5 "/>
<text text-anchor="start" x="8" y="-263.5" font-family="Helvetica,sans-Serif" font-size="10.00">+ bpmndi_BPMNLabel</text>
<text text-anchor="start" x="8" y="-252.5" font-family="Helvetica,sans-Serif" font-size="10.00">+ bpmnElement</text>
<text text-anchor="start" x="8" y="-241.5" font-family="Helvetica,sans-Serif" font-size="10.00">+ sourceElement</text>
<text text-anchor="start" x="8" y="-230.5" font-family="Helvetica,sans-Serif" font-size="10.00">+ targetElement</text>
<text text-anchor="start" x="8" y="-219.5" font-family="Helvetica,sans-Serif" font-size="10.00">+ messageVisibleKind</text>
<text text-anchor="start" x="8" y="-208.5" font-family="Helvetica,sans-Serif" font-size="10.00">+ defaults</text>
<polyline fill="none" stroke="black" points="0,-201.5 131,-201.5 "/>
<text text-anchor="start" x="8" y="-189.5" font-family="Helvetica,sans-Serif" font-size="10.00"># BPMNEdge()</text>
</a>
</g>
</g>
<!-- Node4&#45;&gt;Node5 -->
<g id="edge4" class="edge">
<title>Node4&#45;&gt;Node5</title>
<path fill="none" stroke="midnightblue" d="M72.47,-326.65C71.66,-316.55 70.77,-305.42 69.91,-294.59"/>
<polygon fill="none" stroke="midnightblue" points="68.99,-327.07 73.28,-336.76 75.97,-326.51 68.99,-327.07"/>
</g>
<!-- Node7 -->
<g id="node7" class="node">
<title>Node7</title>
<g id="a_node7"><a xlink:href="classXML_1_1bpmn_1_1Label.html" target="_top" xlink:title=" ">
<polygon fill="none" stroke="black" points="168.5,-331.5 168.5,-399.5 272.5,-399.5 272.5,-331.5 168.5,-331.5"/>
<text text-anchor="middle" x="220.5" y="-387.5" font-family="Helvetica,sans-Serif" font-size="10.00">XML::bpmn::Label</text>
<polyline fill="none" stroke="black" points="168.5,-380.5 272.5,-380.5 "/>
<text text-anchor="start" x="176.5" y="-368.5" font-family="Helvetica,sans-Serif" font-size="10.00">+ dc_Bounds</text>
<text text-anchor="start" x="176.5" y="-357.5" font-family="Helvetica,sans-Serif" font-size="10.00">+ defaults</text>
<polyline fill="none" stroke="black" points="168.5,-350.5 272.5,-350.5 "/>
<text text-anchor="start" x="176.5" y="-338.5" font-family="Helvetica,sans-Serif" font-size="10.00"># Label()</text>
</a>
</g>
</g>
<!-- Node6&#45;&gt;Node7 -->
<g id="edge6" class="edge">
<title>Node6&#45;&gt;Node7</title>
<path fill="none" stroke="midnightblue" d="M266.6,-433.37C259.04,-422.41 250.79,-410.44 243.37,-399.68"/>
<polygon fill="none" stroke="midnightblue" points="263.92,-435.65 272.47,-441.9 269.68,-431.68 263.92,-435.65"/>
</g>
<!-- Node9 -->
<g id="node9" class="node">
<title>Node9</title>
<g id="a_node9"><a xlink:href="classXML_1_1bpmn_1_1Plane.html" target="_top" xlink:title=" ">
<polygon fill="none" stroke="black" points="300,-331.5 300,-399.5 425,-399.5 425,-331.5 300,-331.5"/>
<text text-anchor="middle" x="362.5" y="-387.5" font-family="Helvetica,sans-Serif" font-size="10.00">XML::bpmn::Plane</text>
<polyline fill="none" stroke="black" points="300,-380.5 425,-380.5 "/>
<text text-anchor="start" x="308" y="-368.5" font-family="Helvetica,sans-Serif" font-size="10.00">+ di_DiagramElement</text>
<text text-anchor="start" x="308" y="-357.5" font-family="Helvetica,sans-Serif" font-size="10.00">+ defaults</text>
<polyline fill="none" stroke="black" points="300,-350.5 425,-350.5 "/>
<text text-anchor="start" x="308" y="-338.5" font-family="Helvetica,sans-Serif" font-size="10.00"># Plane()</text>
</a>
</g>
</g>
<!-- Node6&#45;&gt;Node9 -->
<g id="edge8" class="edge">
<title>Node6&#45;&gt;Node9</title>
<path fill="none" stroke="midnightblue" d="M316.4,-433.37C323.96,-422.41 332.21,-410.44 339.63,-399.68"/>
<polygon fill="none" stroke="midnightblue" points="313.32,-431.68 310.53,-441.9 319.08,-435.65 313.32,-431.68"/>
</g>
<!-- Node11 -->
<g id="node11" class="node">
<title>Node11</title>
<g id="a_node11"><a xlink:href="classXML_1_1bpmn_1_1Shape.html" target="_top" xlink:title=" ">
<polygon fill="none" stroke="black" points="460,-331.5 460,-399.5 567,-399.5 567,-331.5 460,-331.5"/>
<text text-anchor="middle" x="513.5" y="-387.5" font-family="Helvetica,sans-Serif" font-size="10.00">XML::bpmn::Shape</text>
<polyline fill="none" stroke="black" points="460,-380.5 567,-380.5 "/>
<text text-anchor="start" x="468" y="-368.5" font-family="Helvetica,sans-Serif" font-size="10.00">+ dc_Bounds</text>
<text text-anchor="start" x="468" y="-357.5" font-family="Helvetica,sans-Serif" font-size="10.00">+ defaults</text>
<polyline fill="none" stroke="black" points="460,-350.5 567,-350.5 "/>
<text text-anchor="start" x="468" y="-338.5" font-family="Helvetica,sans-Serif" font-size="10.00"># Shape()</text>
</a>
</g>
</g>
<!-- Node6&#45;&gt;Node11 -->
<g id="edge10" class="edge">
<title>Node6&#45;&gt;Node11</title>
<path fill="none" stroke="midnightblue" d="M352.52,-441.19C386.09,-425.62 427.36,-406.46 459.72,-391.45"/>
<polygon fill="none" stroke="midnightblue" points="350.87,-438.1 343.27,-445.48 353.81,-444.45 350.87,-438.1"/>
</g>
<!-- Node8 -->
<g id="node8" class="node">
<title>Node8</title>
<g id="a_node8"><a xlink:href="classXML_1_1bpmn_1_1BPMNLabel.html" target="_top" xlink:title=" ">
<polygon fill="none" stroke="black" points="149,-204.5 149,-272.5 282,-272.5 282,-204.5 149,-204.5"/>
<text text-anchor="middle" x="215.5" y="-260.5" font-family="Helvetica,sans-Serif" font-size="10.00">XML::bpmn::BPMNLabel</text>
<polyline fill="none" stroke="black" points="149,-253.5 282,-253.5 "/>
<text text-anchor="start" x="157" y="-241.5" font-family="Helvetica,sans-Serif" font-size="10.00">+ labelStyle</text>
<text text-anchor="start" x="157" y="-230.5" font-family="Helvetica,sans-Serif" font-size="10.00">+ defaults</text>
<polyline fill="none" stroke="black" points="149,-223.5 282,-223.5 "/>
<text text-anchor="start" x="157" y="-211.5" font-family="Helvetica,sans-Serif" font-size="10.00"># BPMNLabel()</text>
</a>
</g>
</g>
<!-- Node7&#45;&gt;Node8 -->
<g id="edge7" class="edge">
<title>Node7&#45;&gt;Node8</title>
<path fill="none" stroke="midnightblue" d="M218.77,-321.22C218.13,-305.36 217.43,-287.68 216.83,-272.82"/>
<polygon fill="none" stroke="midnightblue" points="215.28,-321.48 219.17,-331.33 222.27,-321.2 215.28,-321.48"/>
</g>
<!-- Node10 -->
<g id="node10" class="node">
<title>Node10</title>
<g id="a_node10"><a xlink:href="classXML_1_1bpmn_1_1BPMNPlane.html" target="_top" xlink:title=" ">
<polygon fill="none" stroke="black" points="300.5,-204.5 300.5,-272.5 434.5,-272.5 434.5,-204.5 300.5,-204.5"/>
<text text-anchor="middle" x="367.5" y="-260.5" font-family="Helvetica,sans-Serif" font-size="10.00">XML::bpmn::BPMNPlane</text>
<polyline fill="none" stroke="black" points="300.5,-253.5 434.5,-253.5 "/>
<text text-anchor="start" x="308.5" y="-241.5" font-family="Helvetica,sans-Serif" font-size="10.00">+ bpmnElement</text>
<text text-anchor="start" x="308.5" y="-230.5" font-family="Helvetica,sans-Serif" font-size="10.00">+ defaults</text>
<polyline fill="none" stroke="black" points="300.5,-223.5 434.5,-223.5 "/>
<text text-anchor="start" x="308.5" y="-211.5" font-family="Helvetica,sans-Serif" font-size="10.00"># BPMNPlane()</text>
</a>
</g>
</g>
<!-- Node9&#45;&gt;Node10 -->
<g id="edge9" class="edge">
<title>Node9&#45;&gt;Node10</title>
<path fill="none" stroke="midnightblue" d="M364.23,-321.22C364.87,-305.36 365.57,-287.68 366.17,-272.82"/>
<polygon fill="none" stroke="midnightblue" points="360.73,-321.2 363.83,-331.33 367.72,-321.48 360.73,-321.2"/>
</g>
<!-- Node12 -->
<g id="node12" class="node">
<title>Node12</title>
<g id="a_node12"><a xlink:href="classXML_1_1bpmn_1_1LabeledShape.html" target="_top" xlink:title=" ">
<polygon fill="none" stroke="black" points="452.5,-210 452.5,-267 598.5,-267 598.5,-210 452.5,-210"/>
<text text-anchor="middle" x="525.5" y="-255" font-family="Helvetica,sans-Serif" font-size="10.00">XML::bpmn::LabeledShape</text>
<polyline fill="none" stroke="black" points="452.5,-248 598.5,-248 "/>
<text text-anchor="start" x="460.5" y="-236" font-family="Helvetica,sans-Serif" font-size="10.00">+ defaults</text>
<polyline fill="none" stroke="black" points="452.5,-229 598.5,-229 "/>
<text text-anchor="start" x="460.5" y="-217" font-family="Helvetica,sans-Serif" font-size="10.00"># LabeledShape()</text>
</a>
</g>
</g>
<!-- Node11&#45;&gt;Node12 -->
<g id="edge11" class="edge">
<title>Node11&#45;&gt;Node12</title>
<path fill="none" stroke="midnightblue" d="M517.66,-321.14C519.38,-303.29 521.31,-283.14 522.83,-267.32"/>
<polygon fill="none" stroke="midnightblue" points="514.16,-321.04 516.68,-331.33 521.12,-321.71 514.16,-321.04"/>
</g>
<!-- Node13 -->
<g id="node13" class="node">
<title>Node13</title>
<g id="a_node13"><a xlink:href="classXML_1_1bpmn_1_1BPMNShape.html" target="_top" xlink:title=" ">
<polygon fill="none" stroke="black" points="444.5,-0.5 444.5,-145.5 606.5,-145.5 606.5,-0.5 444.5,-0.5"/>
<text text-anchor="middle" x="525.5" y="-133.5" font-family="Helvetica,sans-Serif" font-size="10.00">XML::bpmn::BPMNShape</text>
<polyline fill="none" stroke="black" points="444.5,-126.5 606.5,-126.5 "/>
<text text-anchor="start" x="452.5" y="-114.5" font-family="Helvetica,sans-Serif" font-size="10.00">+ bpmndi_BPMNLabel</text>
<text text-anchor="start" x="452.5" y="-103.5" font-family="Helvetica,sans-Serif" font-size="10.00">+ bpmnElement</text>
<text text-anchor="start" x="452.5" y="-92.5" font-family="Helvetica,sans-Serif" font-size="10.00">+ isHorizontal</text>
<text text-anchor="start" x="452.5" y="-81.5" font-family="Helvetica,sans-Serif" font-size="10.00">+ isExpanded</text>
<text text-anchor="start" x="452.5" y="-70.5" font-family="Helvetica,sans-Serif" font-size="10.00">+ isMarkerVisible</text>
<text text-anchor="start" x="452.5" y="-59.5" font-family="Helvetica,sans-Serif" font-size="10.00">+ isMessageVisible</text>
<text text-anchor="start" x="452.5" y="-48.5" font-family="Helvetica,sans-Serif" font-size="10.00">+ participantBandKind</text>
<text text-anchor="start" x="452.5" y="-37.5" font-family="Helvetica,sans-Serif" font-size="10.00">+ choreographyActivityShape</text>
<text text-anchor="start" x="452.5" y="-26.5" font-family="Helvetica,sans-Serif" font-size="10.00">+ defaults</text>
<polyline fill="none" stroke="black" points="444.5,-19.5 606.5,-19.5 "/>
<text text-anchor="start" x="452.5" y="-7.5" font-family="Helvetica,sans-Serif" font-size="10.00"># BPMNShape()</text>
</a>
</g>
</g>
<!-- Node12&#45;&gt;Node13 -->
<g id="edge12" class="edge">
<title>Node12&#45;&gt;Node13</title>
<path fill="none" stroke="midnightblue" d="M525.5,-199.69C525.5,-183.58 525.5,-164.24 525.5,-145.61"/>
<polygon fill="none" stroke="midnightblue" points="522,-199.76 525.5,-209.76 529,-199.76 522,-199.76"/>
</g>
</g>
</svg>
