<?xml version="1.0" encoding="UTF-8" standalone="no"?>
<!DOCTYPE svg PUBLIC "-//W3C//DTD SVG 1.1//EN"
 "http://www.w3.org/Graphics/SVG/1.1/DTD/svg11.dtd">
<!-- Generated by graphviz version 2.43.0 (0)
 -->
<!-- Title: XML::bpmn::tArtifact Pages: 1 -->
<svg width="433pt" height="832pt"
 viewBox="0.00 0.00 433.00 832.00" xmlns="http://www.w3.org/2000/svg" xmlns:xlink="http://www.w3.org/1999/xlink">
<g id="graph0" class="graph" transform="scale(1 1) rotate(0) translate(4 828)">
<title>XML::bpmn::tArtifact</title>
<!-- Node1 -->
<g id="Node000001" class="node">
<title>Node1</title>
<g id="a_Node000001"><a xlink:title=" ">
<polygon fill="#999999" stroke="transparent" points="259,-264 148,-264 148,-215 259,-215 259,-264"/>
<text text-anchor="start" x="153.5" y="-251.5" font-family="Helvetica,sans-Serif" font-size="10.00">XML::bpmn::tArtifact</text>
<text text-anchor="start" x="163" y="-236.5" font-family="Helvetica,sans-Serif" font-size="10.00">+</text>
<text text-anchor="start" x="186.5" y="-236.5" font-family="Helvetica,sans-Serif" font-size="10.00">defaults</text>
<text text-anchor="start" x="163" y="-221.5" font-family="Helvetica,sans-Serif" font-size="10.00">#</text>
<text text-anchor="start" x="186.5" y="-221.5" font-family="Helvetica,sans-Serif" font-size="10.00">tArtifact()</text>
<polygon fill="#666666" stroke="#666666" points="148.5,-246.5 148.5,-246.5 259.5,-246.5 259.5,-246.5 148.5,-246.5"/>
<polygon fill="#666666" stroke="#666666" points="148.5,-231.5 148.5,-231.5 184.5,-231.5 184.5,-231.5 148.5,-231.5"/>
<polygon fill="#666666" stroke="#666666" points="184.5,-231.5 184.5,-231.5 259.5,-231.5 259.5,-231.5 184.5,-231.5"/>
<polygon fill="none" stroke="#666666" points="148,-215 148,-264 259,-264 259,-215 148,-215"/>
</a>
</g>
</g>
<!-- Node4 -->
<g id="Node000004" class="node">
<title>Node4</title>
<g id="a_Node000004"><a xlink:href="classXML_1_1bpmn_1_1tAssociation.html" target="_top" xlink:title=" ">
<polygon fill="white" stroke="transparent" points="131,-179 0,-179 0,-85 131,-85 131,-179"/>
<text text-anchor="start" x="5.5" y="-167" font-family="Helvetica,sans-Serif" font-size="10.00">XML::bpmn::tAssociation</text>
<text text-anchor="start" x="7" y="-152" font-family="Helvetica,sans-Serif" font-size="10.00">+</text>
<text text-anchor="start" x="22.5" y="-152" font-family="Helvetica,sans-Serif" font-size="10.00">sourceRef</text>
<text text-anchor="start" x="7" y="-137" font-family="Helvetica,sans-Serif" font-size="10.00">+</text>
<text text-anchor="start" x="22.5" y="-137" font-family="Helvetica,sans-Serif" font-size="10.00">targetRef</text>
<text text-anchor="start" x="7" y="-122" font-family="Helvetica,sans-Serif" font-size="10.00">+</text>
<text text-anchor="start" x="22.5" y="-122" font-family="Helvetica,sans-Serif" font-size="10.00">associationDirection</text>
<text text-anchor="start" x="7" y="-107" font-family="Helvetica,sans-Serif" font-size="10.00">+</text>
<text text-anchor="start" x="22.5" y="-107" font-family="Helvetica,sans-Serif" font-size="10.00">defaults</text>
<text text-anchor="start" x="7" y="-92" font-family="Helvetica,sans-Serif" font-size="10.00">#</text>
<text text-anchor="start" x="22.5" y="-92" font-family="Helvetica,sans-Serif" font-size="10.00">tAssociation()</text>
<polygon fill="#666666" stroke="#666666" points="0.5,-162 0.5,-162 131.5,-162 131.5,-162 0.5,-162"/>
<polygon fill="#666666" stroke="#666666" points="0.5,-102 0.5,-102 20.5,-102 20.5,-102 0.5,-102"/>
<polygon fill="#666666" stroke="#666666" points="20.5,-102 20.5,-102 131.5,-102 131.5,-102 20.5,-102"/>
<polygon fill="none" stroke="#666666" points="0,-85 0,-179 131,-179 131,-85 0,-85"/>
</a>
</g>
</g>
<!-- Node1&#45;&gt;Node4 -->
<g id="edge3_Node000001_Node000004" class="edge">
<title>Node1&#45;&gt;Node4</title>
<g id="a_edge3_Node000001_Node000004"><a xlink:title=" ">
<path fill="none" stroke="#63b8ff" d="M164.46,-208.66C152.43,-199.46 138.89,-189.1 125.77,-179.08"/>
<polygon fill="none" stroke="#63b8ff" points="162.46,-211.53 172.53,-214.82 166.71,-205.97 162.46,-211.53"/>
</a>
</g>
</g>
<!-- Node5 -->
<g id="Node000005" class="node">
<title>Node5</title>
<g id="a_Node000005"><a xlink:href="classXML_1_1bpmn_1_1tGroup.html" target="_top" xlink:title=" ">
<polygon fill="white" stroke="transparent" points="257.5,-164 149.5,-164 149.5,-100 257.5,-100 257.5,-164"/>
<text text-anchor="start" x="156.5" y="-152" font-family="Helvetica,sans-Serif" font-size="10.00">XML::bpmn::tGroup</text>
<text text-anchor="start" x="153.5" y="-137" font-family="Helvetica,sans-Serif" font-size="10.00">+</text>
<text text-anchor="start" x="166.5" y="-137" font-family="Helvetica,sans-Serif" font-size="10.00">categoryValueRef</text>
<text text-anchor="start" x="153.5" y="-122" font-family="Helvetica,sans-Serif" font-size="10.00">+</text>
<text text-anchor="start" x="166.5" y="-122" font-family="Helvetica,sans-Serif" font-size="10.00">defaults</text>
<text text-anchor="start" x="153.5" y="-107" font-family="Helvetica,sans-Serif" font-size="10.00">#</text>
<text text-anchor="start" x="166.5" y="-107" font-family="Helvetica,sans-Serif" font-size="10.00">tGroup()</text>
<polygon fill="#666666" stroke="#666666" points="149.5,-147 149.5,-147 257.5,-147 257.5,-147 149.5,-147"/>
<polygon fill="#666666" stroke="#666666" points="149.5,-117 149.5,-117 164.5,-117 164.5,-117 149.5,-117"/>
<polygon fill="#666666" stroke="#666666" points="164.5,-117 164.5,-117 257.5,-117 257.5,-117 164.5,-117"/>
<polygon fill="none" stroke="#666666" points="149.5,-100 149.5,-164 257.5,-164 257.5,-100 149.5,-100"/>
</a>
</g>
</g>
<!-- Node1&#45;&gt;Node5 -->
<g id="edge4_Node000001_Node000005" class="edge">
<title>Node1&#45;&gt;Node5</title>
<g id="a_edge4_Node000001_Node000005"><a xlink:title=" ">
<path fill="none" stroke="#63b8ff" d="M203.5,-204.45C203.5,-191.52 203.5,-176.86 203.5,-164.21"/>
<polygon fill="none" stroke="#63b8ff" points="200,-204.82 203.5,-214.82 207,-204.82 200,-204.82"/>
</a>
</g>
</g>
<!-- Node6 -->
<g id="Node000006" class="node">
<title>Node6</title>
<g id="a_Node000006"><a xlink:href="classXML_1_1bpmn_1_1tTextAnnotation.html" target="_top" xlink:title=" ">
<polygon fill="white" stroke="transparent" points="425,-171.5 276,-171.5 276,-92.5 425,-92.5 425,-171.5"/>
<text text-anchor="start" x="281.5" y="-159" font-family="Helvetica,sans-Serif" font-size="10.00">XML::bpmn::tTextAnnotation</text>
<text text-anchor="start" x="291" y="-144" font-family="Helvetica,sans-Serif" font-size="10.00">+</text>
<text text-anchor="start" x="314.5" y="-144" font-family="Helvetica,sans-Serif" font-size="10.00">text</text>
<text text-anchor="start" x="291" y="-129" font-family="Helvetica,sans-Serif" font-size="10.00">+</text>
<text text-anchor="start" x="314.5" y="-129" font-family="Helvetica,sans-Serif" font-size="10.00">textFormat</text>
<text text-anchor="start" x="291" y="-114" font-family="Helvetica,sans-Serif" font-size="10.00">+</text>
<text text-anchor="start" x="314.5" y="-114" font-family="Helvetica,sans-Serif" font-size="10.00">defaults</text>
<text text-anchor="start" x="291" y="-99" font-family="Helvetica,sans-Serif" font-size="10.00">#</text>
<text text-anchor="start" x="314.5" y="-99" font-family="Helvetica,sans-Serif" font-size="10.00">tTextAnnotation()</text>
<polygon fill="#666666" stroke="#666666" points="276.5,-154 276.5,-154 425.5,-154 425.5,-154 276.5,-154"/>
<polygon fill="#666666" stroke="#666666" points="276.5,-109 276.5,-109 312.5,-109 312.5,-109 276.5,-109"/>
<polygon fill="#666666" stroke="#666666" points="312.5,-109 312.5,-109 425.5,-109 425.5,-109 312.5,-109"/>
<polygon fill="none" stroke="#666666" points="276,-92.5 276,-171.5 425,-171.5 425,-92.5 276,-92.5"/>
</a>
</g>
</g>
<!-- Node1&#45;&gt;Node6 -->
<g id="edge5_Node000001_Node000006" class="edge">
<title>Node1&#45;&gt;Node6</title>
<g id="a_edge5_Node000001_Node000006"><a xlink:title=" ">
<path fill="none" stroke="#63b8ff" d="M244.69,-208.94C260.86,-197.33 279.64,-183.86 296.85,-171.5"/>
<polygon fill="none" stroke="#63b8ff" points="242.57,-206.15 236.49,-214.82 246.65,-211.84 242.57,-206.15"/>
</a>
</g>
</g>
<!-- Node2 -->
<g id="Node000002" class="node">
<title>Node2</title>
<g id="a_Node000002"><a xlink:href="classXML_1_1bpmn_1_1tBaseElement.html" target="_top" xlink:title=" ">
<polygon fill="white" stroke="transparent" points="273.5,-394 133.5,-394 133.5,-300 273.5,-300 273.5,-394"/>
<text text-anchor="start" x="138.5" y="-382" font-family="Helvetica,sans-Serif" font-size="10.00">XML::bpmn::tBaseElement</text>
<text text-anchor="start" x="143.5" y="-367" font-family="Helvetica,sans-Serif" font-size="10.00">+</text>
<text text-anchor="start" x="162.5" y="-367" font-family="Helvetica,sans-Serif" font-size="10.00">documentation</text>
<text text-anchor="start" x="143.5" y="-352" font-family="Helvetica,sans-Serif" font-size="10.00">+</text>
<text text-anchor="start" x="162.5" y="-352" font-family="Helvetica,sans-Serif" font-size="10.00">extensionElements</text>
<text text-anchor="start" x="143.5" y="-337" font-family="Helvetica,sans-Serif" font-size="10.00">+</text>
<text text-anchor="start" x="162.5" y="-337" font-family="Helvetica,sans-Serif" font-size="10.00">id</text>
<text text-anchor="start" x="143.5" y="-322" font-family="Helvetica,sans-Serif" font-size="10.00">+</text>
<text text-anchor="start" x="162.5" y="-322" font-family="Helvetica,sans-Serif" font-size="10.00">defaults</text>
<text text-anchor="start" x="143.5" y="-307" font-family="Helvetica,sans-Serif" font-size="10.00">#</text>
<text text-anchor="start" x="162.5" y="-307" font-family="Helvetica,sans-Serif" font-size="10.00">tBaseElement()</text>
<polygon fill="#666666" stroke="#666666" points="133.5,-377 133.5,-377 273.5,-377 273.5,-377 133.5,-377"/>
<polygon fill="#666666" stroke="#666666" points="133.5,-317 133.5,-317 160.5,-317 160.5,-317 133.5,-317"/>
<polygon fill="#666666" stroke="#666666" points="160.5,-317 160.5,-317 273.5,-317 273.5,-317 160.5,-317"/>
<polygon fill="none" stroke="#666666" points="133.5,-300 133.5,-394 273.5,-394 273.5,-300 133.5,-300"/>
</a>
</g>
</g>
<!-- Node2&#45;&gt;Node1 -->
<g id="edge1_Node000001_Node000002" class="edge">
<title>Node2&#45;&gt;Node1</title>
<g id="a_edge1_Node000001_Node000002"><a xlink:title=" ">
<path fill="none" stroke="#63b8ff" d="M203.5,-289.59C203.5,-280.62 203.5,-271.79 203.5,-264.15"/>
<polygon fill="none" stroke="#63b8ff" points="200,-289.73 203.5,-299.73 207,-289.73 200,-289.73"/>
</a>
</g>
</g>
<!-- Node3 -->
<g id="Node000003" class="node">
<title>Node3</title>
<g id="a_Node000003"><a xlink:href="classXML_1_1XMLObject.html" target="_top" xlink:title="A class representing a node in an XML&#45;tree.">
<polygon fill="white" stroke="transparent" points="263.5,-824 143.5,-824 143.5,-430 263.5,-430 263.5,-824"/>
<text text-anchor="start" x="163.5" y="-812" font-family="Helvetica,sans-Serif" font-size="10.00">XML::XMLObject</text>
<text text-anchor="start" x="147.5" y="-797" font-family="Helvetica,sans-Serif" font-size="10.00">+</text>
<text text-anchor="start" x="160.5" y="-797" font-family="Helvetica,sans-Serif" font-size="10.00">xmlns</text>
<text text-anchor="start" x="147.5" y="-782" font-family="Helvetica,sans-Serif" font-size="10.00">+</text>
<text text-anchor="start" x="160.5" y="-782" font-family="Helvetica,sans-Serif" font-size="10.00">className</text>
<text text-anchor="start" x="147.5" y="-767" font-family="Helvetica,sans-Serif" font-size="10.00">+</text>
<text text-anchor="start" x="160.5" y="-767" font-family="Helvetica,sans-Serif" font-size="10.00">prefix</text>
<text text-anchor="start" x="147.5" y="-752" font-family="Helvetica,sans-Serif" font-size="10.00">+</text>
<text text-anchor="start" x="160.5" y="-752" font-family="Helvetica,sans-Serif" font-size="10.00">elementName</text>
<text text-anchor="start" x="147.5" y="-737" font-family="Helvetica,sans-Serif" font-size="10.00">+</text>
<text text-anchor="start" x="160.5" y="-737" font-family="Helvetica,sans-Serif" font-size="10.00">textContent</text>
<text text-anchor="start" x="147.5" y="-722" font-family="Helvetica,sans-Serif" font-size="10.00">+</text>
<text text-anchor="start" x="160.5" y="-722" font-family="Helvetica,sans-Serif" font-size="10.00">children</text>
<text text-anchor="start" x="147.5" y="-707" font-family="Helvetica,sans-Serif" font-size="10.00">+</text>
<text text-anchor="start" x="160.5" y="-707" font-family="Helvetica,sans-Serif" font-size="10.00">attributes</text>
<text text-anchor="start" x="147.5" y="-692" font-family="Helvetica,sans-Serif" font-size="10.00">+</text>
<text text-anchor="start" x="160.5" y="-692" font-family="Helvetica,sans-Serif" font-size="10.00">defaults</text>
<text text-anchor="start" x="147.5" y="-677" font-family="Helvetica,sans-Serif" font-size="10.00">#</text>
<text text-anchor="start" x="160.5" y="-677" font-family="Helvetica,sans-Serif" font-size="10.00">factory</text>
<text text-anchor="start" x="147.5" y="-662" font-family="Helvetica,sans-Serif" font-size="10.00">+</text>
<text text-anchor="start" x="160.5" y="-662" font-family="Helvetica,sans-Serif" font-size="10.00">~XMLObject()</text>
<text text-anchor="start" x="147.5" y="-647" font-family="Helvetica,sans-Serif" font-size="10.00">+</text>
<text text-anchor="start" x="160.5" y="-647" font-family="Helvetica,sans-Serif" font-size="10.00">is()</text>
<text text-anchor="start" x="147.5" y="-632" font-family="Helvetica,sans-Serif" font-size="10.00">+</text>
<text text-anchor="start" x="160.5" y="-632" font-family="Helvetica,sans-Serif" font-size="10.00">is()</text>
<text text-anchor="start" x="147.5" y="-617" font-family="Helvetica,sans-Serif" font-size="10.00">+</text>
<text text-anchor="start" x="160.5" y="-617" font-family="Helvetica,sans-Serif" font-size="10.00">get()</text>
<text text-anchor="start" x="147.5" y="-602" font-family="Helvetica,sans-Serif" font-size="10.00">+</text>
<text text-anchor="start" x="160.5" y="-602" font-family="Helvetica,sans-Serif" font-size="10.00">get()</text>
<text text-anchor="start" x="147.5" y="-587" font-family="Helvetica,sans-Serif" font-size="10.00">+</text>
<text text-anchor="start" x="160.5" y="-587" font-family="Helvetica,sans-Serif" font-size="10.00">find()</text>
<text text-anchor="start" x="147.5" y="-572" font-family="Helvetica,sans-Serif" font-size="10.00">+</text>
<text text-anchor="start" x="160.5" y="-572" font-family="Helvetica,sans-Serif" font-size="10.00">find()</text>
<text text-anchor="start" x="147.5" y="-557" font-family="Helvetica,sans-Serif" font-size="10.00">+</text>
<text text-anchor="start" x="160.5" y="-557" font-family="Helvetica,sans-Serif" font-size="10.00">stringify()</text>
<text text-anchor="start" x="147.5" y="-542" font-family="Helvetica,sans-Serif" font-size="10.00">+</text>
<text text-anchor="start" x="160.5" y="-542" font-family="Helvetica,sans-Serif" font-size="10.00">format()</text>
<text text-anchor="start" x="147.5" y="-527" font-family="Helvetica,sans-Serif" font-size="10.00">+</text>
<text text-anchor="start" x="160.5" y="-527" font-family="Helvetica,sans-Serif" font-size="10.00">getRequiredChild()</text>
<text text-anchor="start" x="160.5" y="-512" font-family="Helvetica,sans-Serif" font-size="10.00">and 7 more...</text>
<text text-anchor="start" x="147.5" y="-497" font-family="Helvetica,sans-Serif" font-size="10.00">+</text>
<text text-anchor="start" x="160.5" y="-497" font-family="Helvetica,sans-Serif" font-size="10.00">createFromStream()</text>
<text text-anchor="start" x="147.5" y="-482" font-family="Helvetica,sans-Serif" font-size="10.00">+</text>
<text text-anchor="start" x="160.5" y="-482" font-family="Helvetica,sans-Serif" font-size="10.00">createFromString()</text>
<text text-anchor="start" x="147.5" y="-467" font-family="Helvetica,sans-Serif" font-size="10.00">+</text>
<text text-anchor="start" x="160.5" y="-467" font-family="Helvetica,sans-Serif" font-size="10.00">createFromFile()</text>
<text text-anchor="start" x="147.5" y="-452" font-family="Helvetica,sans-Serif" font-size="10.00">#</text>
<text text-anchor="start" x="160.5" y="-452" font-family="Helvetica,sans-Serif" font-size="10.00">XMLObject()</text>
<text text-anchor="start" x="147.5" y="-437" font-family="Helvetica,sans-Serif" font-size="10.00">#</text>
<text text-anchor="start" x="160.5" y="-437" font-family="Helvetica,sans-Serif" font-size="10.00">createObject()</text>
<polygon fill="#666666" stroke="#666666" points="143.5,-807 143.5,-807 263.5,-807 263.5,-807 143.5,-807"/>
<polygon fill="#666666" stroke="#666666" points="143.5,-672 143.5,-672 158.5,-672 158.5,-672 143.5,-672"/>
<polygon fill="#666666" stroke="#666666" points="158.5,-672 158.5,-672 263.5,-672 263.5,-672 158.5,-672"/>
<polygon fill="none" stroke="#666666" points="143.5,-430 143.5,-824 263.5,-824 263.5,-430 143.5,-430"/>
</a>
</g>
</g>
<!-- Node3&#45;&gt;Node2 -->
<g id="edge2_Node000002_Node000003" class="edge">
<title>Node3&#45;&gt;Node2</title>
<g id="a_edge2_Node000002_Node000003"><a xlink:title=" ">
<path fill="none" stroke="#63b8ff" d="M203.5,-419.78C203.5,-410.62 203.5,-401.97 203.5,-394.06"/>
<polygon fill="none" stroke="#63b8ff" points="200,-419.91 203.5,-429.91 207,-419.91 200,-419.91"/>
</a>
</g>
</g>
<!-- Node7 -->
<g id="Node000007" class="node">
<title>Node7</title>
<g id="a_Node000007"><a xlink:href="classXML_1_1bpmn_1_1textAnnotation.html" target="_top" xlink:title=" ">
<polygon fill="white" stroke="transparent" points="422.5,-49 278.5,-49 278.5,0 422.5,0 422.5,-49"/>
<text text-anchor="start" x="283.5" y="-36.5" font-family="Helvetica,sans-Serif" font-size="10.00">XML::bpmn::textAnnotation</text>
<text text-anchor="start" x="293" y="-21.5" font-family="Helvetica,sans-Serif" font-size="10.00">+</text>
<text text-anchor="start" x="316.5" y="-21.5" font-family="Helvetica,sans-Serif" font-size="10.00">defaults</text>
<text text-anchor="start" x="293" y="-6.5" font-family="Helvetica,sans-Serif" font-size="10.00">#</text>
<text text-anchor="start" x="316.5" y="-6.5" font-family="Helvetica,sans-Serif" font-size="10.00">textAnnotation()</text>
<polygon fill="#666666" stroke="#666666" points="278.5,-31.5 278.5,-31.5 422.5,-31.5 422.5,-31.5 278.5,-31.5"/>
<polygon fill="#666666" stroke="#666666" points="278.5,-16.5 278.5,-16.5 314.5,-16.5 314.5,-16.5 278.5,-16.5"/>
<polygon fill="#666666" stroke="#666666" points="314.5,-16.5 314.5,-16.5 422.5,-16.5 422.5,-16.5 314.5,-16.5"/>
<polygon fill="none" stroke="#666666" points="278.5,0 278.5,-49 422.5,-49 422.5,0 278.5,0"/>
</a>
</g>
</g>
<!-- Node6&#45;&gt;Node7 -->
<g id="edge6_Node000006_Node000007" class="edge">
<title>Node6&#45;&gt;Node7</title>
<g id="a_edge6_Node000006_Node000007"><a xlink:title=" ">
<path fill="none" stroke="#63b8ff" d="M350.5,-82.3C350.5,-70.77 350.5,-58.98 350.5,-49.15"/>
<polygon fill="none" stroke="#63b8ff" points="347,-82.31 350.5,-92.31 354,-82.31 347,-82.31"/>
</a>
</g>
</g>
</g>
</svg>
