<?xml version="1.0" encoding="UTF-8" standalone="no"?>
<!DOCTYPE svg PUBLIC "-//W3C//DTD SVG 1.1//EN"
 "http://www.w3.org/Graphics/SVG/1.1/DTD/svg11.dtd">
<!-- Generated by graphviz version 2.43.0 (0)
 -->
<!-- Title: XML::bpmn::implicitThrowEvent Pages: 1 -->
<svg width="156pt" height="1164pt"
 viewBox="0.00 0.00 156.00 1164.00" xmlns="http://www.w3.org/2000/svg" xmlns:xlink="http://www.w3.org/1999/xlink">
<g id="graph0" class="graph" transform="scale(1 1) rotate(0) translate(4 1160)">
<title>XML::bpmn::implicitThrowEvent</title>
<!-- Node1 -->
<g id="node1" class="node">
<title>Node1</title>
<g id="a_node1"><a xlink:title=" ">
<polygon fill="#bfbfbf" stroke="black" points="2,-0.5 2,-68.5 146,-68.5 146,-0.5 2,-0.5"/>
<text text-anchor="start" x="10" y="-56.5" font-family="Helvetica,sans-Serif" font-size="10.00">XML::bpmn::implicitThrow</text>
<text text-anchor="middle" x="74" y="-45.5" font-family="Helvetica,sans-Serif" font-size="10.00">Event</text>
<polyline fill="none" stroke="black" points="2,-38.5 146,-38.5 "/>
<text text-anchor="start" x="10" y="-26.5" font-family="Helvetica,sans-Serif" font-size="10.00">+ defaults</text>
<polyline fill="none" stroke="black" points="2,-19.5 146,-19.5 "/>
<text text-anchor="start" x="10" y="-7.5" font-family="Helvetica,sans-Serif" font-size="10.00"># implicitThrowEvent()</text>
</a>
</g>
</g>
<!-- Node2 -->
<g id="node2" class="node">
<title>Node2</title>
<g id="a_node2"><a xlink:href="classXML_1_1bpmn_1_1tImplicitThrowEvent.html" target="_top" xlink:title=" ">
<polygon fill="none" stroke="black" points="0,-105.5 0,-173.5 148,-173.5 148,-105.5 0,-105.5"/>
<text text-anchor="start" x="8" y="-161.5" font-family="Helvetica,sans-Serif" font-size="10.00">XML::bpmn::tImplicitThrow</text>
<text text-anchor="middle" x="74" y="-150.5" font-family="Helvetica,sans-Serif" font-size="10.00">Event</text>
<polyline fill="none" stroke="black" points="0,-143.5 148,-143.5 "/>
<text text-anchor="start" x="8" y="-131.5" font-family="Helvetica,sans-Serif" font-size="10.00">+ defaults</text>
<polyline fill="none" stroke="black" points="0,-124.5 148,-124.5 "/>
<text text-anchor="start" x="8" y="-112.5" font-family="Helvetica,sans-Serif" font-size="10.00"># tImplicitThrowEvent()</text>
</a>
</g>
</g>
<!-- Node2&#45;&gt;Node1 -->
<g id="edge1" class="edge">
<title>Node2&#45;&gt;Node1</title>
<path fill="none" stroke="midnightblue" d="M74,-95.14C74,-86.26 74,-77.04 74,-68.59"/>
<polygon fill="none" stroke="midnightblue" points="70.5,-95.34 74,-105.34 77.5,-95.34 70.5,-95.34"/>
</g>
<!-- Node3 -->
<g id="node3" class="node">
<title>Node3</title>
<g id="a_node3"><a xlink:href="classXML_1_1bpmn_1_1tThrowEvent.html" target="_top" xlink:title=" ">
<polygon fill="none" stroke="black" points="4.5,-210.5 4.5,-322.5 143.5,-322.5 143.5,-210.5 4.5,-210.5"/>
<text text-anchor="middle" x="74" y="-310.5" font-family="Helvetica,sans-Serif" font-size="10.00">XML::bpmn::tThrowEvent</text>
<polyline fill="none" stroke="black" points="4.5,-303.5 143.5,-303.5 "/>
<text text-anchor="start" x="12.5" y="-291.5" font-family="Helvetica,sans-Serif" font-size="10.00">+ dataInput</text>
<text text-anchor="start" x="12.5" y="-280.5" font-family="Helvetica,sans-Serif" font-size="10.00">+ dataInputAssociation</text>
<text text-anchor="start" x="12.5" y="-269.5" font-family="Helvetica,sans-Serif" font-size="10.00">+ inputSet</text>
<text text-anchor="start" x="12.5" y="-258.5" font-family="Helvetica,sans-Serif" font-size="10.00">+ eventDefinition</text>
<text text-anchor="start" x="12.5" y="-247.5" font-family="Helvetica,sans-Serif" font-size="10.00">+ eventDefinitionRef</text>
<text text-anchor="start" x="12.5" y="-236.5" font-family="Helvetica,sans-Serif" font-size="10.00">+ defaults</text>
<polyline fill="none" stroke="black" points="4.5,-229.5 143.5,-229.5 "/>
<text text-anchor="start" x="12.5" y="-217.5" font-family="Helvetica,sans-Serif" font-size="10.00"># tThrowEvent()</text>
</a>
</g>
</g>
<!-- Node3&#45;&gt;Node2 -->
<g id="edge2" class="edge">
<title>Node3&#45;&gt;Node2</title>
<path fill="none" stroke="midnightblue" d="M74,-200.26C74,-190.99 74,-181.8 74,-173.51"/>
<polygon fill="none" stroke="midnightblue" points="70.5,-200.31 74,-210.31 77.5,-200.31 70.5,-200.31"/>
</g>
<!-- Node4 -->
<g id="node4" class="node">
<title>Node4</title>
<g id="a_node4"><a xlink:href="classXML_1_1bpmn_1_1tEvent.html" target="_top" xlink:title=" ">
<polygon fill="none" stroke="black" points="19.5,-359.5 19.5,-427.5 128.5,-427.5 128.5,-359.5 19.5,-359.5"/>
<text text-anchor="middle" x="74" y="-415.5" font-family="Helvetica,sans-Serif" font-size="10.00">XML::bpmn::tEvent</text>
<polyline fill="none" stroke="black" points="19.5,-408.5 128.5,-408.5 "/>
<text text-anchor="start" x="27.5" y="-396.5" font-family="Helvetica,sans-Serif" font-size="10.00">+ property</text>
<text text-anchor="start" x="27.5" y="-385.5" font-family="Helvetica,sans-Serif" font-size="10.00">+ defaults</text>
<polyline fill="none" stroke="black" points="19.5,-378.5 128.5,-378.5 "/>
<text text-anchor="start" x="27.5" y="-366.5" font-family="Helvetica,sans-Serif" font-size="10.00"># tEvent()</text>
</a>
</g>
</g>
<!-- Node4&#45;&gt;Node3 -->
<g id="edge3" class="edge">
<title>Node4&#45;&gt;Node3</title>
<path fill="none" stroke="midnightblue" d="M74,-349.18C74,-340.6 74,-331.49 74,-322.59"/>
<polygon fill="none" stroke="midnightblue" points="70.5,-349.33 74,-359.33 77.5,-349.33 70.5,-349.33"/>
</g>
<!-- Node5 -->
<g id="node5" class="node">
<title>Node5</title>
<g id="a_node5"><a xlink:href="classXML_1_1bpmn_1_1tFlowNode.html" target="_top" xlink:title=" ">
<polygon fill="none" stroke="black" points="9,-464.5 9,-543.5 139,-543.5 139,-464.5 9,-464.5"/>
<text text-anchor="middle" x="74" y="-531.5" font-family="Helvetica,sans-Serif" font-size="10.00">XML::bpmn::tFlowNode</text>
<polyline fill="none" stroke="black" points="9,-524.5 139,-524.5 "/>
<text text-anchor="start" x="17" y="-512.5" font-family="Helvetica,sans-Serif" font-size="10.00">+ incoming</text>
<text text-anchor="start" x="17" y="-501.5" font-family="Helvetica,sans-Serif" font-size="10.00">+ outgoing</text>
<text text-anchor="start" x="17" y="-490.5" font-family="Helvetica,sans-Serif" font-size="10.00">+ defaults</text>
<polyline fill="none" stroke="black" points="9,-483.5 139,-483.5 "/>
<text text-anchor="start" x="17" y="-471.5" font-family="Helvetica,sans-Serif" font-size="10.00"># tFlowNode()</text>
</a>
</g>
</g>
<!-- Node5&#45;&gt;Node4 -->
<g id="edge4" class="edge">
<title>Node5&#45;&gt;Node4</title>
<path fill="none" stroke="midnightblue" d="M74,-454.35C74,-445.28 74,-436 74,-427.54"/>
<polygon fill="none" stroke="midnightblue" points="70.5,-454.44 74,-464.44 77.5,-454.44 70.5,-454.44"/>
</g>
<!-- Node6 -->
<g id="node6" class="node">
<title>Node6</title>
<g id="a_node6"><a xlink:href="classXML_1_1bpmn_1_1tFlowElement.html" target="_top" xlink:title=" ">
<polygon fill="none" stroke="black" points="1.5,-580.5 1.5,-681.5 146.5,-681.5 146.5,-580.5 1.5,-580.5"/>
<text text-anchor="middle" x="74" y="-669.5" font-family="Helvetica,sans-Serif" font-size="10.00">XML::bpmn::tFlowElement</text>
<polyline fill="none" stroke="black" points="1.5,-662.5 146.5,-662.5 "/>
<text text-anchor="start" x="9.5" y="-650.5" font-family="Helvetica,sans-Serif" font-size="10.00">+ auditing</text>
<text text-anchor="start" x="9.5" y="-639.5" font-family="Helvetica,sans-Serif" font-size="10.00">+ monitoring</text>
<text text-anchor="start" x="9.5" y="-628.5" font-family="Helvetica,sans-Serif" font-size="10.00">+ categoryValueRef</text>
<text text-anchor="start" x="9.5" y="-617.5" font-family="Helvetica,sans-Serif" font-size="10.00">+ name</text>
<text text-anchor="start" x="9.5" y="-606.5" font-family="Helvetica,sans-Serif" font-size="10.00">+ defaults</text>
<polyline fill="none" stroke="black" points="1.5,-599.5 146.5,-599.5 "/>
<text text-anchor="start" x="9.5" y="-587.5" font-family="Helvetica,sans-Serif" font-size="10.00"># tFlowElement()</text>
</a>
</g>
</g>
<!-- Node6&#45;&gt;Node5 -->
<g id="edge5" class="edge">
<title>Node6&#45;&gt;Node5</title>
<path fill="none" stroke="midnightblue" d="M74,-570.19C74,-561.22 74,-552.18 74,-543.81"/>
<polygon fill="none" stroke="midnightblue" points="70.5,-570.24 74,-580.24 77.5,-570.24 70.5,-570.24"/>
</g>
<!-- Node7 -->
<g id="node7" class="node">
<title>Node7</title>
<g id="a_node7"><a xlink:href="classXML_1_1bpmn_1_1tBaseElement.html" target="_top" xlink:title=" ">
<polygon fill="none" stroke="black" points="1,-718.5 1,-808.5 147,-808.5 147,-718.5 1,-718.5"/>
<text text-anchor="middle" x="74" y="-796.5" font-family="Helvetica,sans-Serif" font-size="10.00">XML::bpmn::tBaseElement</text>
<polyline fill="none" stroke="black" points="1,-789.5 147,-789.5 "/>
<text text-anchor="start" x="9" y="-777.5" font-family="Helvetica,sans-Serif" font-size="10.00">+ documentation</text>
<text text-anchor="start" x="9" y="-766.5" font-family="Helvetica,sans-Serif" font-size="10.00">+ extensionElements</text>
<text text-anchor="start" x="9" y="-755.5" font-family="Helvetica,sans-Serif" font-size="10.00">+ id</text>
<text text-anchor="start" x="9" y="-744.5" font-family="Helvetica,sans-Serif" font-size="10.00">+ defaults</text>
<polyline fill="none" stroke="black" points="1,-737.5 147,-737.5 "/>
<text text-anchor="start" x="9" y="-725.5" font-family="Helvetica,sans-Serif" font-size="10.00"># tBaseElement()</text>
</a>
</g>
</g>
<!-- Node7&#45;&gt;Node6 -->
<g id="edge6" class="edge">
<title>Node7&#45;&gt;Node6</title>
<path fill="none" stroke="midnightblue" d="M74,-708.13C74,-699.31 74,-690.22 74,-681.52"/>
<polygon fill="none" stroke="midnightblue" points="70.5,-708.32 74,-718.32 77.5,-708.32 70.5,-708.32"/>
</g>
<!-- Node8 -->
<g id="node8" class="node">
<title>Node8</title>
<g id="a_node8"><a xlink:href="classXML_1_1XMLObject.html" target="_top" xlink:title="A class representing a node in an XML&#45;tree.">
<polygon fill="none" stroke="black" points="11,-845.5 11,-1155.5 137,-1155.5 137,-845.5 11,-845.5"/>
<text text-anchor="middle" x="74" y="-1143.5" font-family="Helvetica,sans-Serif" font-size="10.00">XML::XMLObject</text>
<polyline fill="none" stroke="black" points="11,-1136.5 137,-1136.5 "/>
<text text-anchor="start" x="19" y="-1124.5" font-family="Helvetica,sans-Serif" font-size="10.00">+ xmlns</text>
<text text-anchor="start" x="19" y="-1113.5" font-family="Helvetica,sans-Serif" font-size="10.00">+ className</text>
<text text-anchor="start" x="19" y="-1102.5" font-family="Helvetica,sans-Serif" font-size="10.00">+ prefix</text>
<text text-anchor="start" x="19" y="-1091.5" font-family="Helvetica,sans-Serif" font-size="10.00">+ elementName</text>
<text text-anchor="start" x="19" y="-1080.5" font-family="Helvetica,sans-Serif" font-size="10.00">+ textContent</text>
<text text-anchor="start" x="19" y="-1069.5" font-family="Helvetica,sans-Serif" font-size="10.00">+ children</text>
<text text-anchor="start" x="19" y="-1058.5" font-family="Helvetica,sans-Serif" font-size="10.00">+ attributes</text>
<text text-anchor="start" x="19" y="-1047.5" font-family="Helvetica,sans-Serif" font-size="10.00">+ defaults</text>
<text text-anchor="start" x="19" y="-1036.5" font-family="Helvetica,sans-Serif" font-size="10.00"># factory</text>
<polyline fill="none" stroke="black" points="11,-1029.5 137,-1029.5 "/>
<text text-anchor="start" x="19" y="-1017.5" font-family="Helvetica,sans-Serif" font-size="10.00">+ ~XMLObject()</text>
<text text-anchor="start" x="19" y="-1006.5" font-family="Helvetica,sans-Serif" font-size="10.00">+ is()</text>
<text text-anchor="start" x="19" y="-995.5" font-family="Helvetica,sans-Serif" font-size="10.00">+ is()</text>
<text text-anchor="start" x="19" y="-984.5" font-family="Helvetica,sans-Serif" font-size="10.00">+ get()</text>
<text text-anchor="start" x="19" y="-973.5" font-family="Helvetica,sans-Serif" font-size="10.00">+ get()</text>
<text text-anchor="start" x="19" y="-962.5" font-family="Helvetica,sans-Serif" font-size="10.00">+ find()</text>
<text text-anchor="start" x="19" y="-951.5" font-family="Helvetica,sans-Serif" font-size="10.00">+ find()</text>
<text text-anchor="start" x="19" y="-940.5" font-family="Helvetica,sans-Serif" font-size="10.00">+ stringify()</text>
<text text-anchor="start" x="19" y="-929.5" font-family="Helvetica,sans-Serif" font-size="10.00">+ format()</text>
<text text-anchor="start" x="19" y="-918.5" font-family="Helvetica,sans-Serif" font-size="10.00">+ getRequiredChild()</text>
<text text-anchor="start" x="19" y="-907.5" font-family="Helvetica,sans-Serif" font-size="10.00">and 7 more...</text>
<text text-anchor="start" x="19" y="-896.5" font-family="Helvetica,sans-Serif" font-size="10.00">+ createFromStream()</text>
<text text-anchor="start" x="19" y="-885.5" font-family="Helvetica,sans-Serif" font-size="10.00">+ createFromString()</text>
<text text-anchor="start" x="19" y="-874.5" font-family="Helvetica,sans-Serif" font-size="10.00">+ createFromFile()</text>
<text text-anchor="start" x="19" y="-863.5" font-family="Helvetica,sans-Serif" font-size="10.00"># XMLObject()</text>
<text text-anchor="start" x="19" y="-852.5" font-family="Helvetica,sans-Serif" font-size="10.00"># createObject()</text>
</a>
</g>
</g>
<!-- Node8&#45;&gt;Node7 -->
<g id="edge7" class="edge">
<title>Node8&#45;&gt;Node7</title>
<path fill="none" stroke="midnightblue" d="M74,-835.35C74,-825.89 74,-816.91 74,-808.72"/>
<polygon fill="none" stroke="midnightblue" points="70.5,-835.37 74,-845.37 77.5,-835.37 70.5,-835.37"/>
</g>
</g>
</svg>
