<?xml version="1.0" encoding="UTF-8" standalone="no"?>
<!DOCTYPE svg PUBLIC "-//W3C//DTD SVG 1.1//EN"
 "http://www.w3.org/Graphics/SVG/1.1/DTD/svg11.dtd">
<!-- Generated by graphviz version 2.43.0 (0)
 -->
<!-- Title: XML::bpmn::choreographyActivity Pages: 1 -->
<svg width="184pt" height="1033pt"
 viewBox="0.00 0.00 184.00 1033.00" xmlns="http://www.w3.org/2000/svg" xmlns:xlink="http://www.w3.org/1999/xlink">
<g id="graph0" class="graph" transform="scale(1 1) rotate(0) translate(4 1029)">
<title>XML::bpmn::choreographyActivity</title>
<!-- Node1 -->
<g id="Node000001" class="node">
<title>Node1</title>
<g id="a_Node000001"><a xlink:title=" ">
<polygon fill="#999999" stroke="transparent" points="176,-49 0,-49 0,0 176,0 176,-49"/>
<text text-anchor="start" x="5" y="-36.5" font-family="Helvetica,sans-Serif" font-size="10.00">XML::bpmn::choreographyActivity</text>
<text text-anchor="start" x="14.5" y="-21.5" font-family="Helvetica,sans-Serif" font-size="10.00">+</text>
<text text-anchor="start" x="38" y="-21.5" font-family="Helvetica,sans-Serif" font-size="10.00">defaults</text>
<text text-anchor="start" x="14.5" y="-6.5" font-family="Helvetica,sans-Serif" font-size="10.00">#</text>
<text text-anchor="start" x="38" y="-6.5" font-family="Helvetica,sans-Serif" font-size="10.00">choreographyActivity()</text>
<polygon fill="#666666" stroke="#666666" points="0,-31.5 0,-31.5 176,-31.5 176,-31.5 0,-31.5"/>
<polygon fill="#666666" stroke="#666666" points="0,-16.5 0,-16.5 36,-16.5 36,-16.5 0,-16.5"/>
<polygon fill="#666666" stroke="#666666" points="36,-16.5 36,-16.5 176,-16.5 176,-16.5 36,-16.5"/>
<polygon fill="none" stroke="#666666" points="0,0 0,-49 176,-49 176,0 0,0"/>
</a>
</g>
</g>
<!-- Node2 -->
<g id="Node000002" class="node">
<title>Node2</title>
<g id="a_Node000002"><a xlink:href="classXML_1_1bpmn_1_1tChoreographyActivity.html" target="_top" xlink:title=" ">
<polygon fill="white" stroke="transparent" points="159.5,-205 16.5,-205 16.5,-85 159.5,-85 159.5,-205"/>
<text text-anchor="start" x="22" y="-193" font-family="Helvetica,sans-Serif" font-size="10.00">XML::bpmn::tChoreography</text>
<text text-anchor="start" x="69.5" y="-182" font-family="Helvetica,sans-Serif" font-size="10.00">Activity</text>
<text text-anchor="start" x="22" y="-167" font-family="Helvetica,sans-Serif" font-size="10.00">+</text>
<text text-anchor="start" x="36" y="-167" font-family="Helvetica,sans-Serif" font-size="10.00">participantRef</text>
<text text-anchor="start" x="22" y="-152" font-family="Helvetica,sans-Serif" font-size="10.00">+</text>
<text text-anchor="start" x="36" y="-152" font-family="Helvetica,sans-Serif" font-size="10.00">correlationKey</text>
<text text-anchor="start" x="22" y="-137" font-family="Helvetica,sans-Serif" font-size="10.00">+</text>
<text text-anchor="start" x="36" y="-137" font-family="Helvetica,sans-Serif" font-size="10.00">initiatingParticipantRef</text>
<text text-anchor="start" x="22" y="-122" font-family="Helvetica,sans-Serif" font-size="10.00">+</text>
<text text-anchor="start" x="36" y="-122" font-family="Helvetica,sans-Serif" font-size="10.00">loopType</text>
<text text-anchor="start" x="22" y="-107" font-family="Helvetica,sans-Serif" font-size="10.00">+</text>
<text text-anchor="start" x="36" y="-107" font-family="Helvetica,sans-Serif" font-size="10.00">defaults</text>
<text text-anchor="start" x="22" y="-92" font-family="Helvetica,sans-Serif" font-size="10.00">#</text>
<text text-anchor="start" x="36" y="-92" font-family="Helvetica,sans-Serif" font-size="10.00">tChoreographyActivity()</text>
<polygon fill="#666666" stroke="#666666" points="17,-177 17,-177 160,-177 160,-177 17,-177"/>
<polygon fill="#666666" stroke="#666666" points="17,-102 17,-102 34,-102 34,-102 17,-102"/>
<polygon fill="#666666" stroke="#666666" points="34,-102 34,-102 160,-102 160,-102 34,-102"/>
<polygon fill="none" stroke="#666666" points="16.5,-85 16.5,-205 159.5,-205 159.5,-85 16.5,-85"/>
</a>
</g>
</g>
<!-- Node2&#45;&gt;Node1 -->
<g id="edge1_Node000001_Node000002" class="edge">
<title>Node2&#45;&gt;Node1</title>
<g id="a_edge1_Node000001_Node000002"><a xlink:title=" ">
<path fill="none" stroke="#63b8ff" d="M88,-74.74C88,-65.6 88,-56.78 88,-49.2"/>
<polygon fill="none" stroke="#63b8ff" points="84.5,-74.75 88,-84.75 91.5,-74.75 84.5,-74.75"/>
</a>
</g>
</g>
<!-- Node3 -->
<g id="Node000003" class="node">
<title>Node3</title>
<g id="a_Node000003"><a xlink:href="classXML_1_1bpmn_1_1tFlowNode.html" target="_top" xlink:title=" ">
<polygon fill="white" stroke="transparent" points="150,-320 26,-320 26,-241 150,-241 150,-320"/>
<text text-anchor="start" x="31" y="-307.5" font-family="Helvetica,sans-Serif" font-size="10.00">XML::bpmn::tFlowNode</text>
<text text-anchor="start" x="40.5" y="-292.5" font-family="Helvetica,sans-Serif" font-size="10.00">+</text>
<text text-anchor="start" x="64" y="-292.5" font-family="Helvetica,sans-Serif" font-size="10.00">incoming</text>
<text text-anchor="start" x="40.5" y="-277.5" font-family="Helvetica,sans-Serif" font-size="10.00">+</text>
<text text-anchor="start" x="64" y="-277.5" font-family="Helvetica,sans-Serif" font-size="10.00">outgoing</text>
<text text-anchor="start" x="40.5" y="-262.5" font-family="Helvetica,sans-Serif" font-size="10.00">+</text>
<text text-anchor="start" x="64" y="-262.5" font-family="Helvetica,sans-Serif" font-size="10.00">defaults</text>
<text text-anchor="start" x="40.5" y="-247.5" font-family="Helvetica,sans-Serif" font-size="10.00">#</text>
<text text-anchor="start" x="64" y="-247.5" font-family="Helvetica,sans-Serif" font-size="10.00">tFlowNode()</text>
<polygon fill="#666666" stroke="#666666" points="26,-302.5 26,-302.5 150,-302.5 150,-302.5 26,-302.5"/>
<polygon fill="#666666" stroke="#666666" points="26,-257.5 26,-257.5 62,-257.5 62,-257.5 26,-257.5"/>
<polygon fill="#666666" stroke="#666666" points="62,-257.5 62,-257.5 150,-257.5 150,-257.5 62,-257.5"/>
<polygon fill="none" stroke="#666666" points="26,-241 26,-320 150,-320 150,-241 26,-241"/>
</a>
</g>
</g>
<!-- Node3&#45;&gt;Node2 -->
<g id="edge2_Node000002_Node000003" class="edge">
<title>Node3&#45;&gt;Node2</title>
<g id="a_edge2_Node000002_Node000003"><a xlink:title=" ">
<path fill="none" stroke="#63b8ff" d="M88,-230.64C88,-222.36 88,-213.67 88,-205.15"/>
<polygon fill="none" stroke="#63b8ff" points="84.5,-230.89 88,-240.89 91.5,-230.89 84.5,-230.89"/>
</a>
</g>
</g>
<!-- Node4 -->
<g id="Node000004" class="node">
<title>Node4</title>
<g id="a_Node000004"><a xlink:href="classXML_1_1bpmn_1_1tFlowElement.html" target="_top" xlink:title=" ">
<polygon fill="white" stroke="transparent" points="157.5,-465 18.5,-465 18.5,-356 157.5,-356 157.5,-465"/>
<text text-anchor="start" x="24" y="-452.5" font-family="Helvetica,sans-Serif" font-size="10.00">XML::bpmn::tFlowElement</text>
<text text-anchor="start" x="30.5" y="-437.5" font-family="Helvetica,sans-Serif" font-size="10.00">+</text>
<text text-anchor="start" x="51" y="-437.5" font-family="Helvetica,sans-Serif" font-size="10.00">auditing</text>
<text text-anchor="start" x="30.5" y="-422.5" font-family="Helvetica,sans-Serif" font-size="10.00">+</text>
<text text-anchor="start" x="51" y="-422.5" font-family="Helvetica,sans-Serif" font-size="10.00">monitoring</text>
<text text-anchor="start" x="30.5" y="-407.5" font-family="Helvetica,sans-Serif" font-size="10.00">+</text>
<text text-anchor="start" x="51" y="-407.5" font-family="Helvetica,sans-Serif" font-size="10.00">categoryValueRef</text>
<text text-anchor="start" x="30.5" y="-392.5" font-family="Helvetica,sans-Serif" font-size="10.00">+</text>
<text text-anchor="start" x="51" y="-392.5" font-family="Helvetica,sans-Serif" font-size="10.00">name</text>
<text text-anchor="start" x="30.5" y="-377.5" font-family="Helvetica,sans-Serif" font-size="10.00">+</text>
<text text-anchor="start" x="51" y="-377.5" font-family="Helvetica,sans-Serif" font-size="10.00">defaults</text>
<text text-anchor="start" x="30.5" y="-362.5" font-family="Helvetica,sans-Serif" font-size="10.00">#</text>
<text text-anchor="start" x="51" y="-362.5" font-family="Helvetica,sans-Serif" font-size="10.00">tFlowElement()</text>
<polygon fill="#666666" stroke="#666666" points="19,-447.5 19,-447.5 158,-447.5 158,-447.5 19,-447.5"/>
<polygon fill="#666666" stroke="#666666" points="19,-372.5 19,-372.5 49,-372.5 49,-372.5 19,-372.5"/>
<polygon fill="#666666" stroke="#666666" points="49,-372.5 49,-372.5 158,-372.5 158,-372.5 49,-372.5"/>
<polygon fill="none" stroke="#666666" points="18.5,-356 18.5,-465 157.5,-465 157.5,-356 18.5,-356"/>
</a>
</g>
</g>
<!-- Node4&#45;&gt;Node3 -->
<g id="edge3_Node000003_Node000004" class="edge">
<title>Node4&#45;&gt;Node3</title>
<g id="a_edge3_Node000003_Node000004"><a xlink:title=" ">
<path fill="none" stroke="#63b8ff" d="M88,-345.7C88,-336.93 88,-328.16 88,-320.03"/>
<polygon fill="none" stroke="#63b8ff" points="84.5,-345.96 88,-355.96 91.5,-345.96 84.5,-345.96"/>
</a>
</g>
</g>
<!-- Node5 -->
<g id="Node000005" class="node">
<title>Node5</title>
<g id="a_Node000005"><a xlink:href="classXML_1_1bpmn_1_1tBaseElement.html" target="_top" xlink:title=" ">
<polygon fill="white" stroke="transparent" points="158,-595 18,-595 18,-501 158,-501 158,-595"/>
<text text-anchor="start" x="23" y="-583" font-family="Helvetica,sans-Serif" font-size="10.00">XML::bpmn::tBaseElement</text>
<text text-anchor="start" x="28" y="-568" font-family="Helvetica,sans-Serif" font-size="10.00">+</text>
<text text-anchor="start" x="47" y="-568" font-family="Helvetica,sans-Serif" font-size="10.00">documentation</text>
<text text-anchor="start" x="28" y="-553" font-family="Helvetica,sans-Serif" font-size="10.00">+</text>
<text text-anchor="start" x="47" y="-553" font-family="Helvetica,sans-Serif" font-size="10.00">extensionElements</text>
<text text-anchor="start" x="28" y="-538" font-family="Helvetica,sans-Serif" font-size="10.00">+</text>
<text text-anchor="start" x="47" y="-538" font-family="Helvetica,sans-Serif" font-size="10.00">id</text>
<text text-anchor="start" x="28" y="-523" font-family="Helvetica,sans-Serif" font-size="10.00">+</text>
<text text-anchor="start" x="47" y="-523" font-family="Helvetica,sans-Serif" font-size="10.00">defaults</text>
<text text-anchor="start" x="28" y="-508" font-family="Helvetica,sans-Serif" font-size="10.00">#</text>
<text text-anchor="start" x="47" y="-508" font-family="Helvetica,sans-Serif" font-size="10.00">tBaseElement()</text>
<polygon fill="#666666" stroke="#666666" points="18,-578 18,-578 158,-578 158,-578 18,-578"/>
<polygon fill="#666666" stroke="#666666" points="18,-518 18,-518 45,-518 45,-518 18,-518"/>
<polygon fill="#666666" stroke="#666666" points="45,-518 45,-518 158,-518 158,-518 45,-518"/>
<polygon fill="none" stroke="#666666" points="18,-501 18,-595 158,-595 158,-501 18,-501"/>
</a>
</g>
</g>
<!-- Node5&#45;&gt;Node4 -->
<g id="edge4_Node000004_Node000005" class="edge">
<title>Node5&#45;&gt;Node4</title>
<g id="a_edge4_Node000004_Node000005"><a xlink:title=" ">
<path fill="none" stroke="#63b8ff" d="M88,-490.58C88,-482.12 88,-473.41 88,-465.01"/>
<polygon fill="none" stroke="#63b8ff" points="84.5,-490.75 88,-500.75 91.5,-490.75 84.5,-490.75"/>
</a>
</g>
</g>
<!-- Node6 -->
<g id="Node000006" class="node">
<title>Node6</title>
<g id="a_Node000006"><a xlink:href="classXML_1_1XMLObject.html" target="_top" xlink:title="A class representing a node in an XML&#45;tree.">
<polygon fill="white" stroke="transparent" points="148,-1025 28,-1025 28,-631 148,-631 148,-1025"/>
<text text-anchor="start" x="48" y="-1013" font-family="Helvetica,sans-Serif" font-size="10.00">XML::XMLObject</text>
<text text-anchor="start" x="32" y="-998" font-family="Helvetica,sans-Serif" font-size="10.00">+</text>
<text text-anchor="start" x="45" y="-998" font-family="Helvetica,sans-Serif" font-size="10.00">xmlns</text>
<text text-anchor="start" x="32" y="-983" font-family="Helvetica,sans-Serif" font-size="10.00">+</text>
<text text-anchor="start" x="45" y="-983" font-family="Helvetica,sans-Serif" font-size="10.00">className</text>
<text text-anchor="start" x="32" y="-968" font-family="Helvetica,sans-Serif" font-size="10.00">+</text>
<text text-anchor="start" x="45" y="-968" font-family="Helvetica,sans-Serif" font-size="10.00">prefix</text>
<text text-anchor="start" x="32" y="-953" font-family="Helvetica,sans-Serif" font-size="10.00">+</text>
<text text-anchor="start" x="45" y="-953" font-family="Helvetica,sans-Serif" font-size="10.00">elementName</text>
<text text-anchor="start" x="32" y="-938" font-family="Helvetica,sans-Serif" font-size="10.00">+</text>
<text text-anchor="start" x="45" y="-938" font-family="Helvetica,sans-Serif" font-size="10.00">textContent</text>
<text text-anchor="start" x="32" y="-923" font-family="Helvetica,sans-Serif" font-size="10.00">+</text>
<text text-anchor="start" x="45" y="-923" font-family="Helvetica,sans-Serif" font-size="10.00">children</text>
<text text-anchor="start" x="32" y="-908" font-family="Helvetica,sans-Serif" font-size="10.00">+</text>
<text text-anchor="start" x="45" y="-908" font-family="Helvetica,sans-Serif" font-size="10.00">attributes</text>
<text text-anchor="start" x="32" y="-893" font-family="Helvetica,sans-Serif" font-size="10.00">+</text>
<text text-anchor="start" x="45" y="-893" font-family="Helvetica,sans-Serif" font-size="10.00">defaults</text>
<text text-anchor="start" x="32" y="-878" font-family="Helvetica,sans-Serif" font-size="10.00">#</text>
<text text-anchor="start" x="45" y="-878" font-family="Helvetica,sans-Serif" font-size="10.00">factory</text>
<text text-anchor="start" x="32" y="-863" font-family="Helvetica,sans-Serif" font-size="10.00">+</text>
<text text-anchor="start" x="45" y="-863" font-family="Helvetica,sans-Serif" font-size="10.00">~XMLObject()</text>
<text text-anchor="start" x="32" y="-848" font-family="Helvetica,sans-Serif" font-size="10.00">+</text>
<text text-anchor="start" x="45" y="-848" font-family="Helvetica,sans-Serif" font-size="10.00">is()</text>
<text text-anchor="start" x="32" y="-833" font-family="Helvetica,sans-Serif" font-size="10.00">+</text>
<text text-anchor="start" x="45" y="-833" font-family="Helvetica,sans-Serif" font-size="10.00">is()</text>
<text text-anchor="start" x="32" y="-818" font-family="Helvetica,sans-Serif" font-size="10.00">+</text>
<text text-anchor="start" x="45" y="-818" font-family="Helvetica,sans-Serif" font-size="10.00">get()</text>
<text text-anchor="start" x="32" y="-803" font-family="Helvetica,sans-Serif" font-size="10.00">+</text>
<text text-anchor="start" x="45" y="-803" font-family="Helvetica,sans-Serif" font-size="10.00">get()</text>
<text text-anchor="start" x="32" y="-788" font-family="Helvetica,sans-Serif" font-size="10.00">+</text>
<text text-anchor="start" x="45" y="-788" font-family="Helvetica,sans-Serif" font-size="10.00">find()</text>
<text text-anchor="start" x="32" y="-773" font-family="Helvetica,sans-Serif" font-size="10.00">+</text>
<text text-anchor="start" x="45" y="-773" font-family="Helvetica,sans-Serif" font-size="10.00">find()</text>
<text text-anchor="start" x="32" y="-758" font-family="Helvetica,sans-Serif" font-size="10.00">+</text>
<text text-anchor="start" x="45" y="-758" font-family="Helvetica,sans-Serif" font-size="10.00">stringify()</text>
<text text-anchor="start" x="32" y="-743" font-family="Helvetica,sans-Serif" font-size="10.00">+</text>
<text text-anchor="start" x="45" y="-743" font-family="Helvetica,sans-Serif" font-size="10.00">format()</text>
<text text-anchor="start" x="32" y="-728" font-family="Helvetica,sans-Serif" font-size="10.00">+</text>
<text text-anchor="start" x="45" y="-728" font-family="Helvetica,sans-Serif" font-size="10.00">getRequiredChild()</text>
<text text-anchor="start" x="45" y="-713" font-family="Helvetica,sans-Serif" font-size="10.00">and 7 more...</text>
<text text-anchor="start" x="32" y="-698" font-family="Helvetica,sans-Serif" font-size="10.00">+</text>
<text text-anchor="start" x="45" y="-698" font-family="Helvetica,sans-Serif" font-size="10.00">createFromStream()</text>
<text text-anchor="start" x="32" y="-683" font-family="Helvetica,sans-Serif" font-size="10.00">+</text>
<text text-anchor="start" x="45" y="-683" font-family="Helvetica,sans-Serif" font-size="10.00">createFromString()</text>
<text text-anchor="start" x="32" y="-668" font-family="Helvetica,sans-Serif" font-size="10.00">+</text>
<text text-anchor="start" x="45" y="-668" font-family="Helvetica,sans-Serif" font-size="10.00">createFromFile()</text>
<text text-anchor="start" x="32" y="-653" font-family="Helvetica,sans-Serif" font-size="10.00">#</text>
<text text-anchor="start" x="45" y="-653" font-family="Helvetica,sans-Serif" font-size="10.00">XMLObject()</text>
<text text-anchor="start" x="32" y="-638" font-family="Helvetica,sans-Serif" font-size="10.00">#</text>
<text text-anchor="start" x="45" y="-638" font-family="Helvetica,sans-Serif" font-size="10.00">createObject()</text>
<polygon fill="#666666" stroke="#666666" points="28,-1008 28,-1008 148,-1008 148,-1008 28,-1008"/>
<polygon fill="#666666" stroke="#666666" points="28,-873 28,-873 43,-873 43,-873 28,-873"/>
<polygon fill="#666666" stroke="#666666" points="43,-873 43,-873 148,-873 148,-873 43,-873"/>
<polygon fill="none" stroke="#666666" points="28,-631 28,-1025 148,-1025 148,-631 28,-631"/>
</a>
</g>
</g>
<!-- Node6&#45;&gt;Node5 -->
<g id="edge5_Node000005_Node000006" class="edge">
<title>Node6&#45;&gt;Node5</title>
<g id="a_edge5_Node000005_Node000006"><a xlink:title=" ">
<path fill="none" stroke="#63b8ff" d="M88,-620.78C88,-611.62 88,-602.97 88,-595.06"/>
<polygon fill="none" stroke="#63b8ff" points="84.5,-620.91 88,-630.91 91.5,-620.91 84.5,-620.91"/>
</a>
</g>
</g>
</g>
</svg>
