<?xml version="1.0" encoding="UTF-8" standalone="no"?>
<!DOCTYPE svg PUBLIC "-//W3C//DTD SVG 1.1//EN"
 "http://www.w3.org/Graphics/SVG/1.1/DTD/svg11.dtd">
<!-- Generated by graphviz version 2.43.0 (0)
 -->
<!-- Title: XML::bpmn::formalExpression Pages: 1 -->
<svg width="202pt" height="761pt"
 viewBox="0.00 0.00 202.00 761.00" xmlns="http://www.w3.org/2000/svg" xmlns:xlink="http://www.w3.org/1999/xlink">
<g id="graph0" class="graph" transform="scale(1 1) rotate(0) translate(4 757)">
<title>XML::bpmn::formalExpression</title>
<!-- Node1 -->
<g id="node1" class="node">
<title>Node1</title>
<g id="a_node1"><a xlink:title=" ">
<polygon fill="#bfbfbf" stroke="black" points="15.5,-0.5 15.5,-57.5 178.5,-57.5 178.5,-0.5 15.5,-0.5"/>
<text text-anchor="middle" x="97" y="-45.5" font-family="Helvetica,sans-Serif" font-size="10.00">XML::bpmn::formalExpression</text>
<polyline fill="none" stroke="black" points="15.5,-38.5 178.5,-38.5 "/>
<text text-anchor="start" x="23.5" y="-26.5" font-family="Helvetica,sans-Serif" font-size="10.00">+ defaults</text>
<polyline fill="none" stroke="black" points="15.5,-19.5 178.5,-19.5 "/>
<text text-anchor="start" x="23.5" y="-7.5" font-family="Helvetica,sans-Serif" font-size="10.00"># formalExpression()</text>
</a>
</g>
</g>
<!-- Node2 -->
<g id="node2" class="node">
<title>Node2</title>
<g id="a_node2"><a xlink:href="classXML_1_1bpmn_1_1tFormalExpression.html" target="_top" xlink:title=" ">
<polygon fill="none" stroke="black" points="13,-94.5 13,-173.5 181,-173.5 181,-94.5 13,-94.5"/>
<text text-anchor="middle" x="97" y="-161.5" font-family="Helvetica,sans-Serif" font-size="10.00">XML::bpmn::tFormalExpression</text>
<polyline fill="none" stroke="black" points="13,-154.5 181,-154.5 "/>
<text text-anchor="start" x="21" y="-142.5" font-family="Helvetica,sans-Serif" font-size="10.00">+ language</text>
<text text-anchor="start" x="21" y="-131.5" font-family="Helvetica,sans-Serif" font-size="10.00">+ evaluatesToTypeRef</text>
<text text-anchor="start" x="21" y="-120.5" font-family="Helvetica,sans-Serif" font-size="10.00">+ defaults</text>
<polyline fill="none" stroke="black" points="13,-113.5 181,-113.5 "/>
<text text-anchor="start" x="21" y="-101.5" font-family="Helvetica,sans-Serif" font-size="10.00"># tFormalExpression()</text>
</a>
</g>
</g>
<!-- Node2&#45;&gt;Node1 -->
<g id="edge1" class="edge">
<title>Node2&#45;&gt;Node1</title>
<path fill="none" stroke="midnightblue" d="M97,-84.16C97,-75.04 97,-65.81 97,-57.61"/>
<polygon fill="none" stroke="midnightblue" points="93.5,-84.35 97,-94.35 100.5,-84.35 93.5,-84.35"/>
</g>
<!-- Node3 -->
<g id="node3" class="node">
<title>Node3</title>
<g id="a_node3"><a xlink:href="classXML_1_1bpmn_1_1tExpression.html" target="_top" xlink:title=" ">
<polygon fill="none" stroke="black" points="30,-210.5 30,-267.5 164,-267.5 164,-210.5 30,-210.5"/>
<text text-anchor="middle" x="97" y="-255.5" font-family="Helvetica,sans-Serif" font-size="10.00">XML::bpmn::tExpression</text>
<polyline fill="none" stroke="black" points="30,-248.5 164,-248.5 "/>
<text text-anchor="start" x="38" y="-236.5" font-family="Helvetica,sans-Serif" font-size="10.00">+ defaults</text>
<polyline fill="none" stroke="black" points="30,-229.5 164,-229.5 "/>
<text text-anchor="start" x="38" y="-217.5" font-family="Helvetica,sans-Serif" font-size="10.00"># tExpression()</text>
</a>
</g>
</g>
<!-- Node3&#45;&gt;Node2 -->
<g id="edge2" class="edge">
<title>Node3&#45;&gt;Node2</title>
<path fill="none" stroke="midnightblue" d="M97,-200.16C97,-191.47 97,-182.23 97,-173.52"/>
<polygon fill="none" stroke="midnightblue" points="93.5,-200.4 97,-210.4 100.5,-200.4 93.5,-200.4"/>
</g>
<!-- Node4 -->
<g id="node4" class="node">
<title>Node4</title>
<g id="a_node4"><a xlink:href="classXML_1_1bpmn_1_1tBaseElementWithMixedContent.html" target="_top" xlink:title=" ">
<polygon fill="none" stroke="black" points="0,-304.5 0,-405.5 194,-405.5 194,-304.5 0,-304.5"/>
<text text-anchor="start" x="8" y="-393.5" font-family="Helvetica,sans-Serif" font-size="10.00">XML::bpmn::tBaseElementWith</text>
<text text-anchor="middle" x="97" y="-382.5" font-family="Helvetica,sans-Serif" font-size="10.00">MixedContent</text>
<polyline fill="none" stroke="black" points="0,-375.5 194,-375.5 "/>
<text text-anchor="start" x="8" y="-363.5" font-family="Helvetica,sans-Serif" font-size="10.00">+ documentation</text>
<text text-anchor="start" x="8" y="-352.5" font-family="Helvetica,sans-Serif" font-size="10.00">+ extensionElements</text>
<text text-anchor="start" x="8" y="-341.5" font-family="Helvetica,sans-Serif" font-size="10.00">+ id</text>
<text text-anchor="start" x="8" y="-330.5" font-family="Helvetica,sans-Serif" font-size="10.00">+ defaults</text>
<polyline fill="none" stroke="black" points="0,-323.5 194,-323.5 "/>
<text text-anchor="start" x="8" y="-311.5" font-family="Helvetica,sans-Serif" font-size="10.00"># tBaseElementWithMixedContent()</text>
</a>
</g>
</g>
<!-- Node4&#45;&gt;Node3 -->
<g id="edge3" class="edge">
<title>Node4&#45;&gt;Node3</title>
<path fill="none" stroke="midnightblue" d="M97,-294.23C97,-284.92 97,-275.71 97,-267.59"/>
<polygon fill="none" stroke="midnightblue" points="93.5,-294.33 97,-304.33 100.5,-294.33 93.5,-294.33"/>
</g>
<!-- Node5 -->
<g id="node5" class="node">
<title>Node5</title>
<g id="a_node5"><a xlink:href="classXML_1_1XMLObject.html" target="_top" xlink:title=" ">
<polygon fill="none" stroke="black" points="34,-442.5 34,-752.5 160,-752.5 160,-442.5 34,-442.5"/>
<text text-anchor="middle" x="97" y="-740.5" font-family="Helvetica,sans-Serif" font-size="10.00">XML::XMLObject</text>
<polyline fill="none" stroke="black" points="34,-733.5 160,-733.5 "/>
<text text-anchor="start" x="42" y="-721.5" font-family="Helvetica,sans-Serif" font-size="10.00">+ xmlns</text>
<text text-anchor="start" x="42" y="-710.5" font-family="Helvetica,sans-Serif" font-size="10.00">+ className</text>
<text text-anchor="start" x="42" y="-699.5" font-family="Helvetica,sans-Serif" font-size="10.00">+ prefix</text>
<text text-anchor="start" x="42" y="-688.5" font-family="Helvetica,sans-Serif" font-size="10.00">+ elementName</text>
<text text-anchor="start" x="42" y="-677.5" font-family="Helvetica,sans-Serif" font-size="10.00">+ textContent</text>
<text text-anchor="start" x="42" y="-666.5" font-family="Helvetica,sans-Serif" font-size="10.00">+ children</text>
<text text-anchor="start" x="42" y="-655.5" font-family="Helvetica,sans-Serif" font-size="10.00">+ attributes</text>
<text text-anchor="start" x="42" y="-644.5" font-family="Helvetica,sans-Serif" font-size="10.00">+ defaults</text>
<text text-anchor="start" x="42" y="-633.5" font-family="Helvetica,sans-Serif" font-size="10.00"># factory</text>
<polyline fill="none" stroke="black" points="34,-626.5 160,-626.5 "/>
<text text-anchor="start" x="42" y="-614.5" font-family="Helvetica,sans-Serif" font-size="10.00">+ ~XMLObject()</text>
<text text-anchor="start" x="42" y="-603.5" font-family="Helvetica,sans-Serif" font-size="10.00">+ is()</text>
<text text-anchor="start" x="42" y="-592.5" font-family="Helvetica,sans-Serif" font-size="10.00">+ is()</text>
<text text-anchor="start" x="42" y="-581.5" font-family="Helvetica,sans-Serif" font-size="10.00">+ get()</text>
<text text-anchor="start" x="42" y="-570.5" font-family="Helvetica,sans-Serif" font-size="10.00">+ get()</text>
<text text-anchor="start" x="42" y="-559.5" font-family="Helvetica,sans-Serif" font-size="10.00">+ find()</text>
<text text-anchor="start" x="42" y="-548.5" font-family="Helvetica,sans-Serif" font-size="10.00">+ find()</text>
<text text-anchor="start" x="42" y="-537.5" font-family="Helvetica,sans-Serif" font-size="10.00">+ stringify()</text>
<text text-anchor="start" x="42" y="-526.5" font-family="Helvetica,sans-Serif" font-size="10.00">+ getRequiredChild()</text>
<text text-anchor="start" x="42" y="-515.5" font-family="Helvetica,sans-Serif" font-size="10.00">+ getOptionalChild()</text>
<text text-anchor="start" x="42" y="-504.5" font-family="Helvetica,sans-Serif" font-size="10.00">and 6 more...</text>
<text text-anchor="start" x="42" y="-493.5" font-family="Helvetica,sans-Serif" font-size="10.00">+ createFromStream()</text>
<text text-anchor="start" x="42" y="-482.5" font-family="Helvetica,sans-Serif" font-size="10.00">+ createFromString()</text>
<text text-anchor="start" x="42" y="-471.5" font-family="Helvetica,sans-Serif" font-size="10.00">+ createFromFile()</text>
<text text-anchor="start" x="42" y="-460.5" font-family="Helvetica,sans-Serif" font-size="10.00"># XMLObject()</text>
<text text-anchor="start" x="42" y="-449.5" font-family="Helvetica,sans-Serif" font-size="10.00"># createObject()</text>
</a>
</g>
</g>
<!-- Node5&#45;&gt;Node4 -->
<g id="edge4" class="edge">
<title>Node5&#45;&gt;Node4</title>
<path fill="none" stroke="midnightblue" d="M97,-432.24C97,-422.93 97,-414.03 97,-405.8"/>
<polygon fill="none" stroke="midnightblue" points="93.5,-432.49 97,-442.49 100.5,-432.49 93.5,-432.49"/>
</g>
</g>
</svg>
