<?xml version="1.0" encoding="UTF-8" standalone="no"?>
<!DOCTYPE svg PUBLIC "-//W3C//DTD SVG 1.1//EN"
 "http://www.w3.org/Graphics/SVG/1.1/DTD/svg11.dtd">
<!-- Generated by graphviz version 2.43.0 (0)
 -->
<!-- Title: BPMN::Task Pages: 1 -->
<svg width="891pt" height="966pt"
 viewBox="0.00 0.00 890.50 966.00" xmlns="http://www.w3.org/2000/svg" xmlns:xlink="http://www.w3.org/1999/xlink">
<g id="graph0" class="graph" transform="scale(1 1) rotate(0) translate(4 962)">
<title>BPMN::Task</title>
<!-- Node1 -->
<g id="node1" class="node">
<title>Node1</title>
<g id="a_node1"><a xlink:title=" ">
<polygon fill="#bfbfbf" stroke="black" points="430.5,-94.5 430.5,-151.5 504.5,-151.5 504.5,-94.5 430.5,-94.5"/>
<text text-anchor="middle" x="467.5" y="-139.5" font-family="Helvetica,sans-Serif" font-size="10.00">BPMN::Task</text>
<polyline fill="none" stroke="black" points="430.5,-132.5 504.5,-132.5 "/>
<text text-anchor="start" x="438.5" y="-120.5" font-family="Helvetica,sans-Serif" font-size="10.00">+ element</text>
<polyline fill="none" stroke="black" points="430.5,-113.5 504.5,-113.5 "/>
<text text-anchor="start" x="438.5" y="-101.5" font-family="Helvetica,sans-Serif" font-size="10.00">+ Task()</text>
</a>
</g>
</g>
<!-- Node8 -->
<g id="node8" class="node">
<title>Node8</title>
<g id="a_node8"><a xlink:href="classBPMN_1_1BusinessRuleTask.html" target="_top" xlink:title=" ">
<polygon fill="none" stroke="black" points="0,-0.5 0,-57.5 139,-57.5 139,-0.5 0,-0.5"/>
<text text-anchor="middle" x="69.5" y="-45.5" font-family="Helvetica,sans-Serif" font-size="10.00">BPMN::BusinessRuleTask</text>
<polyline fill="none" stroke="black" points="0,-38.5 139,-38.5 "/>
<text text-anchor="start" x="8" y="-26.5" font-family="Helvetica,sans-Serif" font-size="10.00">+ element</text>
<polyline fill="none" stroke="black" points="0,-19.5 139,-19.5 "/>
<text text-anchor="start" x="8" y="-7.5" font-family="Helvetica,sans-Serif" font-size="10.00">+ BusinessRuleTask()</text>
</a>
</g>
</g>
<!-- Node1&#45;&gt;Node8 -->
<g id="edge7" class="edge">
<title>Node1&#45;&gt;Node8</title>
<path fill="none" stroke="midnightblue" d="M420.27,-114.69C357.57,-104.5 243.66,-84.27 148.5,-58 145.41,-57.15 142.28,-56.24 139.12,-55.28"/>
<polygon fill="none" stroke="midnightblue" points="419.83,-118.17 430.26,-116.3 420.94,-111.25 419.83,-118.17"/>
</g>
<!-- Node9 -->
<g id="node9" class="node">
<title>Node9</title>
<g id="a_node9"><a xlink:href="classBPMN_1_1ManualTask.html" target="_top" xlink:title=" ">
<polygon fill="none" stroke="black" points="157.5,-0.5 157.5,-57.5 267.5,-57.5 267.5,-0.5 157.5,-0.5"/>
<text text-anchor="middle" x="212.5" y="-45.5" font-family="Helvetica,sans-Serif" font-size="10.00">BPMN::ManualTask</text>
<polyline fill="none" stroke="black" points="157.5,-38.5 267.5,-38.5 "/>
<text text-anchor="start" x="165.5" y="-26.5" font-family="Helvetica,sans-Serif" font-size="10.00">+ element</text>
<polyline fill="none" stroke="black" points="157.5,-19.5 267.5,-19.5 "/>
<text text-anchor="start" x="165.5" y="-7.5" font-family="Helvetica,sans-Serif" font-size="10.00">+ ManualTask()</text>
</a>
</g>
</g>
<!-- Node1&#45;&gt;Node9 -->
<g id="edge8" class="edge">
<title>Node1&#45;&gt;Node9</title>
<path fill="none" stroke="midnightblue" d="M420.19,-107.44C381.28,-95.16 324.88,-76.65 276.5,-58 273.56,-56.87 270.55,-55.67 267.53,-54.45"/>
<polygon fill="none" stroke="midnightblue" points="419.59,-110.92 430.18,-110.58 421.69,-104.24 419.59,-110.92"/>
</g>
<!-- Node10 -->
<g id="node10" class="node">
<title>Node10</title>
<g id="a_node10"><a xlink:href="classBPMN_1_1ReceiveTask.html" target="_top" xlink:title=" ">
<polygon fill="none" stroke="black" points="286,-0.5 286,-57.5 399,-57.5 399,-0.5 286,-0.5"/>
<text text-anchor="middle" x="342.5" y="-45.5" font-family="Helvetica,sans-Serif" font-size="10.00">BPMN::ReceiveTask</text>
<polyline fill="none" stroke="black" points="286,-38.5 399,-38.5 "/>
<text text-anchor="start" x="294" y="-26.5" font-family="Helvetica,sans-Serif" font-size="10.00">+ element</text>
<polyline fill="none" stroke="black" points="286,-19.5 399,-19.5 "/>
<text text-anchor="start" x="294" y="-7.5" font-family="Helvetica,sans-Serif" font-size="10.00">+ ReceiveTask()</text>
</a>
</g>
</g>
<!-- Node1&#45;&gt;Node10 -->
<g id="edge9" class="edge">
<title>Node1&#45;&gt;Node10</title>
<path fill="none" stroke="midnightblue" d="M421.97,-88.49C408.24,-78.38 393.33,-67.41 380.17,-57.73"/>
<polygon fill="none" stroke="midnightblue" points="420.21,-91.54 430.33,-94.65 424.36,-85.9 420.21,-91.54"/>
</g>
<!-- Node11 -->
<g id="node11" class="node">
<title>Node11</title>
<g id="a_node11"><a xlink:href="classBPMN_1_1ScriptTask.html" target="_top" xlink:title=" ">
<polygon fill="none" stroke="black" points="417,-0.5 417,-57.5 518,-57.5 518,-0.5 417,-0.5"/>
<text text-anchor="middle" x="467.5" y="-45.5" font-family="Helvetica,sans-Serif" font-size="10.00">BPMN::ScriptTask</text>
<polyline fill="none" stroke="black" points="417,-38.5 518,-38.5 "/>
<text text-anchor="start" x="425" y="-26.5" font-family="Helvetica,sans-Serif" font-size="10.00">+ element</text>
<polyline fill="none" stroke="black" points="417,-19.5 518,-19.5 "/>
<text text-anchor="start" x="425" y="-7.5" font-family="Helvetica,sans-Serif" font-size="10.00">+ ScriptTask()</text>
</a>
</g>
</g>
<!-- Node1&#45;&gt;Node11 -->
<g id="edge10" class="edge">
<title>Node1&#45;&gt;Node11</title>
<path fill="none" stroke="midnightblue" d="M467.5,-84.21C467.5,-75.29 467.5,-65.95 467.5,-57.58"/>
<polygon fill="none" stroke="midnightblue" points="464,-84.4 467.5,-94.4 471,-84.4 464,-84.4"/>
</g>
<!-- Node12 -->
<g id="node12" class="node">
<title>Node12</title>
<g id="a_node12"><a xlink:href="classBPMN_1_1SendTask.html" target="_top" xlink:title=" ">
<polygon fill="none" stroke="black" points="536.5,-0.5 536.5,-57.5 634.5,-57.5 634.5,-0.5 536.5,-0.5"/>
<text text-anchor="middle" x="585.5" y="-45.5" font-family="Helvetica,sans-Serif" font-size="10.00">BPMN::SendTask</text>
<polyline fill="none" stroke="black" points="536.5,-38.5 634.5,-38.5 "/>
<text text-anchor="start" x="544.5" y="-26.5" font-family="Helvetica,sans-Serif" font-size="10.00">+ element</text>
<polyline fill="none" stroke="black" points="536.5,-19.5 634.5,-19.5 "/>
<text text-anchor="start" x="544.5" y="-7.5" font-family="Helvetica,sans-Serif" font-size="10.00">+ SendTask()</text>
</a>
</g>
</g>
<!-- Node1&#45;&gt;Node12 -->
<g id="edge11" class="edge">
<title>Node1&#45;&gt;Node12</title>
<path fill="none" stroke="midnightblue" d="M510.79,-88.25C523.73,-78.16 537.76,-67.22 550.12,-57.58"/>
<polygon fill="none" stroke="midnightblue" points="508.64,-85.49 502.9,-94.4 512.94,-91.01 508.64,-85.49"/>
</g>
<!-- Node13 -->
<g id="node13" class="node">
<title>Node13</title>
<g id="a_node13"><a xlink:href="classBPMN_1_1UntypedTask.html" target="_top" xlink:title=" ">
<polygon fill="none" stroke="black" points="653,-0.5 653,-57.5 768,-57.5 768,-0.5 653,-0.5"/>
<text text-anchor="middle" x="710.5" y="-45.5" font-family="Helvetica,sans-Serif" font-size="10.00">BPMN::UntypedTask</text>
<polyline fill="none" stroke="black" points="653,-38.5 768,-38.5 "/>
<text text-anchor="middle" x="710.5" y="-26.5" font-family="Helvetica,sans-Serif" font-size="10.00"> </text>
<polyline fill="none" stroke="black" points="653,-19.5 768,-19.5 "/>
<text text-anchor="start" x="661" y="-7.5" font-family="Helvetica,sans-Serif" font-size="10.00">+ UntypedTask()</text>
</a>
</g>
</g>
<!-- Node1&#45;&gt;Node13 -->
<g id="edge12" class="edge">
<title>Node1&#45;&gt;Node13</title>
<path fill="none" stroke="midnightblue" d="M514.41,-105.62C550,-93.03 600.04,-74.97 643.5,-58 646.55,-56.81 649.68,-55.57 652.83,-54.3"/>
<polygon fill="none" stroke="midnightblue" points="513.04,-102.39 504.77,-109.02 515.37,-108.99 513.04,-102.39"/>
</g>
<!-- Node14 -->
<g id="node14" class="node">
<title>Node14</title>
<g id="a_node14"><a xlink:href="classBPMN_1_1UserTask.html" target="_top" xlink:title=" ">
<polygon fill="none" stroke="black" points="786.5,-0.5 786.5,-57.5 882.5,-57.5 882.5,-0.5 786.5,-0.5"/>
<text text-anchor="middle" x="834.5" y="-45.5" font-family="Helvetica,sans-Serif" font-size="10.00">BPMN::UserTask</text>
<polyline fill="none" stroke="black" points="786.5,-38.5 882.5,-38.5 "/>
<text text-anchor="start" x="794.5" y="-26.5" font-family="Helvetica,sans-Serif" font-size="10.00">+ element</text>
<polyline fill="none" stroke="black" points="786.5,-19.5 882.5,-19.5 "/>
<text text-anchor="start" x="794.5" y="-7.5" font-family="Helvetica,sans-Serif" font-size="10.00">+ UserTask()</text>
</a>
</g>
</g>
<!-- Node1&#45;&gt;Node14 -->
<g id="edge13" class="edge">
<title>Node1&#45;&gt;Node14</title>
<path fill="none" stroke="midnightblue" d="M514.77,-116.04C576.42,-107.41 687.07,-88.98 777.5,-58 780.42,-57 783.38,-55.88 786.35,-54.69"/>
<polygon fill="none" stroke="midnightblue" points="514,-112.61 504.57,-117.44 514.95,-119.54 514,-112.61"/>
</g>
<!-- Node2 -->
<g id="node2" class="node">
<title>Node2</title>
<g id="a_node2"><a xlink:href="classBPMN_1_1Activity.html" target="_top" xlink:title=" ">
<polygon fill="none" stroke="black" points="406.5,-188.5 406.5,-289.5 528.5,-289.5 528.5,-188.5 406.5,-188.5"/>
<text text-anchor="middle" x="467.5" y="-277.5" font-family="Helvetica,sans-Serif" font-size="10.00">BPMN::Activity</text>
<polyline fill="none" stroke="black" points="406.5,-270.5 528.5,-270.5 "/>
<text text-anchor="start" x="414.5" y="-258.5" font-family="Helvetica,sans-Serif" font-size="10.00">+ boundaryEvents</text>
<text text-anchor="start" x="414.5" y="-247.5" font-family="Helvetica,sans-Serif" font-size="10.00">+ compensatedBy</text>
<text text-anchor="start" x="414.5" y="-236.5" font-family="Helvetica,sans-Serif" font-size="10.00">+ isForCompensation</text>
<text text-anchor="start" x="414.5" y="-225.5" font-family="Helvetica,sans-Serif" font-size="10.00">+ loopCharacteristics</text>
<text text-anchor="start" x="414.5" y="-214.5" font-family="Helvetica,sans-Serif" font-size="10.00">+ element</text>
<polyline fill="none" stroke="black" points="406.5,-207.5 528.5,-207.5 "/>
<text text-anchor="start" x="414.5" y="-195.5" font-family="Helvetica,sans-Serif" font-size="10.00">+ Activity()</text>
</a>
</g>
</g>
<!-- Node2&#45;&gt;Node1 -->
<g id="edge1" class="edge">
<title>Node2&#45;&gt;Node1</title>
<path fill="none" stroke="midnightblue" d="M467.5,-178.23C467.5,-168.92 467.5,-159.71 467.5,-151.59"/>
<polygon fill="none" stroke="midnightblue" points="464,-178.33 467.5,-188.33 471,-178.33 464,-178.33"/>
</g>
<!-- Node3 -->
<g id="node3" class="node">
<title>Node3</title>
<g id="a_node3"><a xlink:href="classBPMN_1_1FlowNode.html" target="_top" xlink:title="Base class for BPMN elements that may contain incoming and outgoing sequence flows.">
<polygon fill="none" stroke="black" points="417,-326.5 417,-416.5 518,-416.5 518,-326.5 417,-326.5"/>
<text text-anchor="middle" x="467.5" y="-404.5" font-family="Helvetica,sans-Serif" font-size="10.00">BPMN::FlowNode</text>
<polyline fill="none" stroke="black" points="417,-397.5 518,-397.5 "/>
<text text-anchor="start" x="425" y="-385.5" font-family="Helvetica,sans-Serif" font-size="10.00">+ element</text>
<text text-anchor="start" x="425" y="-374.5" font-family="Helvetica,sans-Serif" font-size="10.00">+ name</text>
<text text-anchor="start" x="425" y="-363.5" font-family="Helvetica,sans-Serif" font-size="10.00">+ incoming</text>
<text text-anchor="start" x="425" y="-352.5" font-family="Helvetica,sans-Serif" font-size="10.00">+ outgoing</text>
<polyline fill="none" stroke="black" points="417,-345.5 518,-345.5 "/>
<text text-anchor="start" x="425" y="-333.5" font-family="Helvetica,sans-Serif" font-size="10.00">+ FlowNode()</text>
</a>
</g>
</g>
<!-- Node3&#45;&gt;Node2 -->
<g id="edge2" class="edge">
<title>Node3&#45;&gt;Node2</title>
<path fill="none" stroke="midnightblue" d="M467.5,-316.13C467.5,-307.31 467.5,-298.22 467.5,-289.52"/>
<polygon fill="none" stroke="midnightblue" points="464,-316.32 467.5,-326.32 471,-316.32 464,-316.32"/>
</g>
<!-- Node4 -->
<g id="node4" class="node">
<title>Node4</title>
<g id="a_node4"><a xlink:href="classBPMN_1_1ChildNode.html" target="_top" xlink:title="Base class for BPMN elements within a Scope.">
<polygon fill="none" stroke="black" points="416.5,-453.5 416.5,-510.5 518.5,-510.5 518.5,-453.5 416.5,-453.5"/>
<text text-anchor="middle" x="467.5" y="-498.5" font-family="Helvetica,sans-Serif" font-size="10.00">BPMN::ChildNode</text>
<polyline fill="none" stroke="black" points="416.5,-491.5 518.5,-491.5 "/>
<text text-anchor="start" x="424.5" y="-479.5" font-family="Helvetica,sans-Serif" font-size="10.00">+ parent</text>
<polyline fill="none" stroke="black" points="416.5,-472.5 518.5,-472.5 "/>
<text text-anchor="start" x="424.5" y="-460.5" font-family="Helvetica,sans-Serif" font-size="10.00">+ ChildNode()</text>
</a>
</g>
</g>
<!-- Node4&#45;&gt;Node3 -->
<g id="edge3" class="edge">
<title>Node4&#45;&gt;Node3</title>
<path fill="none" stroke="midnightblue" d="M467.5,-443.21C467.5,-434.61 467.5,-425.39 467.5,-416.55"/>
<polygon fill="none" stroke="midnightblue" points="464,-443.34 467.5,-453.34 471,-443.34 464,-443.34"/>
</g>
<!-- Node5 -->
<g id="node5" class="node">
<title>Node5</title>
<g id="a_node5"><a xlink:href="classBPMN_1_1Node.html" target="_top" xlink:title="Base class for all nodes in a BPMN model.">
<polygon fill="none" stroke="black" points="429,-547.5 429,-659.5 506,-659.5 506,-547.5 429,-547.5"/>
<text text-anchor="middle" x="467.5" y="-647.5" font-family="Helvetica,sans-Serif" font-size="10.00">BPMN::Node</text>
<polyline fill="none" stroke="black" points="429,-640.5 506,-640.5 "/>
<text text-anchor="start" x="437" y="-628.5" font-family="Helvetica,sans-Serif" font-size="10.00">+ receiving</text>
<text text-anchor="start" x="437" y="-617.5" font-family="Helvetica,sans-Serif" font-size="10.00">+ sending</text>
<polyline fill="none" stroke="black" points="429,-610.5 506,-610.5 "/>
<text text-anchor="start" x="437" y="-598.5" font-family="Helvetica,sans-Serif" font-size="10.00">+ Node()</text>
<text text-anchor="start" x="437" y="-587.5" font-family="Helvetica,sans-Serif" font-size="10.00">+ find()</text>
<text text-anchor="start" x="437" y="-576.5" font-family="Helvetica,sans-Serif" font-size="10.00">+ find()</text>
<text text-anchor="start" x="437" y="-565.5" font-family="Helvetica,sans-Serif" font-size="10.00">+ find_all()</text>
<text text-anchor="start" x="437" y="-554.5" font-family="Helvetica,sans-Serif" font-size="10.00">+ find_all()</text>
</a>
</g>
</g>
<!-- Node5&#45;&gt;Node4 -->
<g id="edge4" class="edge">
<title>Node5&#45;&gt;Node4</title>
<path fill="none" stroke="midnightblue" d="M467.5,-537.15C467.5,-527.82 467.5,-518.67 467.5,-510.63"/>
<polygon fill="none" stroke="midnightblue" points="464,-537.3 467.5,-547.3 471,-537.3 464,-537.3"/>
</g>
<!-- Node6 -->
<g id="node6" class="node">
<title>Node6</title>
<g id="a_node6"><a xlink:href="classBPMN_1_1BaseElement.html" target="_top" xlink:title="Base class for all core BPMN elements.">
<polygon fill="none" stroke="black" points="406.5,-696.5 406.5,-819.5 528.5,-819.5 528.5,-696.5 406.5,-696.5"/>
<text text-anchor="middle" x="467.5" y="-807.5" font-family="Helvetica,sans-Serif" font-size="10.00">BPMN::BaseElement</text>
<polyline fill="none" stroke="black" points="406.5,-800.5 528.5,-800.5 "/>
<text text-anchor="start" x="414.5" y="-788.5" font-family="Helvetica,sans-Serif" font-size="10.00">+ element</text>
<text text-anchor="start" x="414.5" y="-777.5" font-family="Helvetica,sans-Serif" font-size="10.00">+ id</text>
<text text-anchor="start" x="414.5" y="-766.5" font-family="Helvetica,sans-Serif" font-size="10.00">+ extensionElements</text>
<polyline fill="none" stroke="black" points="406.5,-759.5 528.5,-759.5 "/>
<text text-anchor="start" x="414.5" y="-747.5" font-family="Helvetica,sans-Serif" font-size="10.00">+ BaseElement()</text>
<text text-anchor="start" x="414.5" y="-736.5" font-family="Helvetica,sans-Serif" font-size="10.00">+ is()</text>
<text text-anchor="start" x="414.5" y="-725.5" font-family="Helvetica,sans-Serif" font-size="10.00">+ is()</text>
<text text-anchor="start" x="414.5" y="-714.5" font-family="Helvetica,sans-Serif" font-size="10.00">+ get()</text>
<text text-anchor="start" x="414.5" y="-703.5" font-family="Helvetica,sans-Serif" font-size="10.00">+ get()</text>
</a>
</g>
</g>
<!-- Node6&#45;&gt;Node5 -->
<g id="edge5" class="edge">
<title>Node6&#45;&gt;Node5</title>
<path fill="none" stroke="midnightblue" d="M467.5,-686.25C467.5,-677.29 467.5,-668.23 467.5,-659.56"/>
<polygon fill="none" stroke="midnightblue" points="464,-686.29 467.5,-696.29 471,-686.29 464,-686.29"/>
</g>
<!-- Node7 -->
<g id="node7" class="node">
<title>Node7</title>
<g id="a_node7"><a xlink:href="classBPMN_1_1Element.html" target="_top" xlink:title="Abstract base class for all elements in a BPMN model.">
<polygon fill="none" stroke="black" points="421.5,-856.5 421.5,-957.5 513.5,-957.5 513.5,-856.5 421.5,-856.5"/>
<text text-anchor="middle" x="467.5" y="-945.5" font-family="Helvetica,sans-Serif" font-size="10.00">BPMN::Element</text>
<polyline fill="none" stroke="black" points="421.5,-938.5 513.5,-938.5 "/>
<text text-anchor="middle" x="467.5" y="-926.5" font-family="Helvetica,sans-Serif" font-size="10.00"> </text>
<polyline fill="none" stroke="black" points="421.5,-919.5 513.5,-919.5 "/>
<text text-anchor="start" x="429.5" y="-907.5" font-family="Helvetica,sans-Serif" font-size="10.00">+ ~Element()</text>
<text text-anchor="start" x="429.5" y="-896.5" font-family="Helvetica,sans-Serif" font-size="10.00">+ represents()</text>
<text text-anchor="start" x="429.5" y="-885.5" font-family="Helvetica,sans-Serif" font-size="10.00">+ represents()</text>
<text text-anchor="start" x="429.5" y="-874.5" font-family="Helvetica,sans-Serif" font-size="10.00">+ as()</text>
<text text-anchor="start" x="429.5" y="-863.5" font-family="Helvetica,sans-Serif" font-size="10.00">+ as()</text>
</a>
</g>
</g>
<!-- Node7&#45;&gt;Node6 -->
<g id="edge6" class="edge">
<title>Node7&#45;&gt;Node6</title>
<path fill="none" stroke="midnightblue" d="M467.5,-846.14C467.5,-837.41 467.5,-828.42 467.5,-819.67"/>
<polygon fill="none" stroke="midnightblue" points="464,-846.23 467.5,-856.23 471,-846.23 464,-846.23"/>
</g>
</g>
</svg>
