<?xml version="1.0" encoding="UTF-8" standalone="no"?>
<!DOCTYPE svg PUBLIC "-//W3C//DTD SVG 1.1//EN"
 "http://www.w3.org/Graphics/SVG/1.1/DTD/svg11.dtd">
<!-- Generated by graphviz version 2.43.0 (0)
 -->
<!-- Title: XML::bpmn::tBaseElementWithMixedContent Pages: 1 -->
<svg width="355pt" height="839pt"
 viewBox="0.00 0.00 354.50 839.00" xmlns="http://www.w3.org/2000/svg" xmlns:xlink="http://www.w3.org/1999/xlink">
<g id="graph0" class="graph" transform="scale(1 1) rotate(0) translate(4 835)">
<title>XML::bpmn::tBaseElementWithMixedContent</title>
<!-- Node1 -->
<g id="Node000001" class="node">
<title>Node1</title>
<g id="a_Node000001"><a xlink:title=" ">
<polygon fill="#999999" stroke="transparent" points="272,-401 85,-401 85,-296 272,-296 272,-401"/>
<text text-anchor="start" x="103" y="-388.5" font-family="Helvetica,sans-Serif" font-size="10.00">XML::bpmn::tBaseElementWith</text>
<text text-anchor="start" x="145" y="-377.5" font-family="Helvetica,sans-Serif" font-size="10.00">MixedContent</text>
<text text-anchor="start" x="89.5" y="-362.5" font-family="Helvetica,sans-Serif" font-size="10.00">+</text>
<text text-anchor="start" x="102.5" y="-362.5" font-family="Helvetica,sans-Serif" font-size="10.00">documentation</text>
<text text-anchor="start" x="89.5" y="-347.5" font-family="Helvetica,sans-Serif" font-size="10.00">+</text>
<text text-anchor="start" x="102.5" y="-347.5" font-family="Helvetica,sans-Serif" font-size="10.00">extensionElements</text>
<text text-anchor="start" x="89.5" y="-332.5" font-family="Helvetica,sans-Serif" font-size="10.00">+</text>
<text text-anchor="start" x="102.5" y="-332.5" font-family="Helvetica,sans-Serif" font-size="10.00">id</text>
<text text-anchor="start" x="89.5" y="-317.5" font-family="Helvetica,sans-Serif" font-size="10.00">+</text>
<text text-anchor="start" x="102.5" y="-317.5" font-family="Helvetica,sans-Serif" font-size="10.00">defaults</text>
<text text-anchor="start" x="89.5" y="-302.5" font-family="Helvetica,sans-Serif" font-size="10.00">#</text>
<text text-anchor="start" x="102.5" y="-302.5" font-family="Helvetica,sans-Serif" font-size="10.00">tBaseElementWithMixedContent()</text>
<polygon fill="#666666" stroke="#666666" points="85.5,-372.5 85.5,-372.5 272.5,-372.5 272.5,-372.5 85.5,-372.5"/>
<polygon fill="#666666" stroke="#666666" points="85.5,-312.5 85.5,-312.5 100.5,-312.5 100.5,-312.5 85.5,-312.5"/>
<polygon fill="#666666" stroke="#666666" points="100.5,-312.5 100.5,-312.5 272.5,-312.5 272.5,-312.5 100.5,-312.5"/>
<polygon fill="none" stroke="#666666" points="85,-296 85,-401 272,-401 272,-296 85,-296"/>
</a>
</g>
</g>
<!-- Node3 -->
<g id="Node000003" class="node">
<title>Node3</title>
<g id="a_Node000003"><a xlink:href="classXML_1_1bpmn_1_1baseElementWithMixedContent.html" target="_top" xlink:title=" ">
<polygon fill="white" stroke="transparent" points="183,-260 0,-260 0,-200 183,-200 183,-260"/>
<text text-anchor="start" x="18" y="-248" font-family="Helvetica,sans-Serif" font-size="10.00">XML::bpmn::baseElementWith</text>
<text text-anchor="start" x="58" y="-237" font-family="Helvetica,sans-Serif" font-size="10.00">MixedContent</text>
<text text-anchor="start" x="4.5" y="-222" font-family="Helvetica,sans-Serif" font-size="10.00">+</text>
<text text-anchor="start" x="17.5" y="-222" font-family="Helvetica,sans-Serif" font-size="10.00">defaults</text>
<text text-anchor="start" x="4.5" y="-207" font-family="Helvetica,sans-Serif" font-size="10.00">#</text>
<text text-anchor="start" x="17.5" y="-207" font-family="Helvetica,sans-Serif" font-size="10.00">baseElementWithMixedContent()</text>
<polygon fill="#666666" stroke="#666666" points="0.5,-232 0.5,-232 183.5,-232 183.5,-232 0.5,-232"/>
<polygon fill="#666666" stroke="#666666" points="0.5,-217 0.5,-217 15.5,-217 15.5,-217 0.5,-217"/>
<polygon fill="#666666" stroke="#666666" points="15.5,-217 15.5,-217 183.5,-217 183.5,-217 15.5,-217"/>
<polygon fill="none" stroke="#666666" points="0,-200 0,-260 183,-260 183,-200 0,-200"/>
</a>
</g>
</g>
<!-- Node1&#45;&gt;Node3 -->
<g id="edge2_Node000001_Node000003" class="edge">
<title>Node1&#45;&gt;Node3</title>
<g id="a_edge2_Node000001_Node000003"><a xlink:title=" ">
<path fill="none" stroke="#63b8ff" d="M133.64,-287.43C126.58,-277.98 119.58,-268.6 113.36,-260.27"/>
<polygon fill="none" stroke="#63b8ff" points="131.05,-289.8 139.83,-295.72 136.65,-285.62 131.05,-289.8"/>
</a>
</g>
</g>
<!-- Node4 -->
<g id="Node000004" class="node">
<title>Node4</title>
<g id="a_Node000004"><a xlink:href="classXML_1_1bpmn_1_1tExpression.html" target="_top" xlink:title=" ">
<polygon fill="white" stroke="transparent" points="329.5,-254.5 201.5,-254.5 201.5,-205.5 329.5,-205.5 329.5,-254.5"/>
<text text-anchor="start" x="206.5" y="-242" font-family="Helvetica,sans-Serif" font-size="10.00">XML::bpmn::tExpression</text>
<text text-anchor="start" x="216" y="-227" font-family="Helvetica,sans-Serif" font-size="10.00">+</text>
<text text-anchor="start" x="239.5" y="-227" font-family="Helvetica,sans-Serif" font-size="10.00">defaults</text>
<text text-anchor="start" x="216" y="-212" font-family="Helvetica,sans-Serif" font-size="10.00">#</text>
<text text-anchor="start" x="239.5" y="-212" font-family="Helvetica,sans-Serif" font-size="10.00">tExpression()</text>
<polygon fill="#666666" stroke="#666666" points="201.5,-237 201.5,-237 329.5,-237 329.5,-237 201.5,-237"/>
<polygon fill="#666666" stroke="#666666" points="201.5,-222 201.5,-222 237.5,-222 237.5,-222 201.5,-222"/>
<polygon fill="#666666" stroke="#666666" points="237.5,-222 237.5,-222 329.5,-222 329.5,-222 237.5,-222"/>
<polygon fill="none" stroke="#666666" points="201.5,-205.5 201.5,-254.5 329.5,-254.5 329.5,-205.5 201.5,-205.5"/>
</a>
</g>
</g>
<!-- Node1&#45;&gt;Node4 -->
<g id="edge3_Node000001_Node000004" class="edge">
<title>Node1&#45;&gt;Node4</title>
<g id="a_edge3_Node000001_Node000004"><a xlink:title=" ">
<path fill="none" stroke="#63b8ff" d="M223.21,-287.62C231.96,-275.91 240.64,-264.28 247.84,-254.64"/>
<polygon fill="none" stroke="#63b8ff" points="220.35,-285.62 217.17,-295.72 225.95,-289.8 220.35,-285.62"/>
</a>
</g>
</g>
<!-- Node2 -->
<g id="Node000002" class="node">
<title>Node2</title>
<g id="a_Node000002"><a xlink:href="classXML_1_1XMLObject.html" target="_top" xlink:title="A class representing a node in an XML&#45;tree.">
<polygon fill="white" stroke="transparent" points="238.5,-831 118.5,-831 118.5,-437 238.5,-437 238.5,-831"/>
<text text-anchor="start" x="138.5" y="-819" font-family="Helvetica,sans-Serif" font-size="10.00">XML::XMLObject</text>
<text text-anchor="start" x="122.5" y="-804" font-family="Helvetica,sans-Serif" font-size="10.00">+</text>
<text text-anchor="start" x="135.5" y="-804" font-family="Helvetica,sans-Serif" font-size="10.00">xmlns</text>
<text text-anchor="start" x="122.5" y="-789" font-family="Helvetica,sans-Serif" font-size="10.00">+</text>
<text text-anchor="start" x="135.5" y="-789" font-family="Helvetica,sans-Serif" font-size="10.00">className</text>
<text text-anchor="start" x="122.5" y="-774" font-family="Helvetica,sans-Serif" font-size="10.00">+</text>
<text text-anchor="start" x="135.5" y="-774" font-family="Helvetica,sans-Serif" font-size="10.00">prefix</text>
<text text-anchor="start" x="122.5" y="-759" font-family="Helvetica,sans-Serif" font-size="10.00">+</text>
<text text-anchor="start" x="135.5" y="-759" font-family="Helvetica,sans-Serif" font-size="10.00">elementName</text>
<text text-anchor="start" x="122.5" y="-744" font-family="Helvetica,sans-Serif" font-size="10.00">+</text>
<text text-anchor="start" x="135.5" y="-744" font-family="Helvetica,sans-Serif" font-size="10.00">textContent</text>
<text text-anchor="start" x="122.5" y="-729" font-family="Helvetica,sans-Serif" font-size="10.00">+</text>
<text text-anchor="start" x="135.5" y="-729" font-family="Helvetica,sans-Serif" font-size="10.00">children</text>
<text text-anchor="start" x="122.5" y="-714" font-family="Helvetica,sans-Serif" font-size="10.00">+</text>
<text text-anchor="start" x="135.5" y="-714" font-family="Helvetica,sans-Serif" font-size="10.00">attributes</text>
<text text-anchor="start" x="122.5" y="-699" font-family="Helvetica,sans-Serif" font-size="10.00">+</text>
<text text-anchor="start" x="135.5" y="-699" font-family="Helvetica,sans-Serif" font-size="10.00">defaults</text>
<text text-anchor="start" x="122.5" y="-684" font-family="Helvetica,sans-Serif" font-size="10.00">#</text>
<text text-anchor="start" x="135.5" y="-684" font-family="Helvetica,sans-Serif" font-size="10.00">factory</text>
<text text-anchor="start" x="122.5" y="-669" font-family="Helvetica,sans-Serif" font-size="10.00">+</text>
<text text-anchor="start" x="135.5" y="-669" font-family="Helvetica,sans-Serif" font-size="10.00">~XMLObject()</text>
<text text-anchor="start" x="122.5" y="-654" font-family="Helvetica,sans-Serif" font-size="10.00">+</text>
<text text-anchor="start" x="135.5" y="-654" font-family="Helvetica,sans-Serif" font-size="10.00">is()</text>
<text text-anchor="start" x="122.5" y="-639" font-family="Helvetica,sans-Serif" font-size="10.00">+</text>
<text text-anchor="start" x="135.5" y="-639" font-family="Helvetica,sans-Serif" font-size="10.00">is()</text>
<text text-anchor="start" x="122.5" y="-624" font-family="Helvetica,sans-Serif" font-size="10.00">+</text>
<text text-anchor="start" x="135.5" y="-624" font-family="Helvetica,sans-Serif" font-size="10.00">get()</text>
<text text-anchor="start" x="122.5" y="-609" font-family="Helvetica,sans-Serif" font-size="10.00">+</text>
<text text-anchor="start" x="135.5" y="-609" font-family="Helvetica,sans-Serif" font-size="10.00">get()</text>
<text text-anchor="start" x="122.5" y="-594" font-family="Helvetica,sans-Serif" font-size="10.00">+</text>
<text text-anchor="start" x="135.5" y="-594" font-family="Helvetica,sans-Serif" font-size="10.00">find()</text>
<text text-anchor="start" x="122.5" y="-579" font-family="Helvetica,sans-Serif" font-size="10.00">+</text>
<text text-anchor="start" x="135.5" y="-579" font-family="Helvetica,sans-Serif" font-size="10.00">find()</text>
<text text-anchor="start" x="122.5" y="-564" font-family="Helvetica,sans-Serif" font-size="10.00">+</text>
<text text-anchor="start" x="135.5" y="-564" font-family="Helvetica,sans-Serif" font-size="10.00">stringify()</text>
<text text-anchor="start" x="122.5" y="-549" font-family="Helvetica,sans-Serif" font-size="10.00">+</text>
<text text-anchor="start" x="135.5" y="-549" font-family="Helvetica,sans-Serif" font-size="10.00">format()</text>
<text text-anchor="start" x="122.5" y="-534" font-family="Helvetica,sans-Serif" font-size="10.00">+</text>
<text text-anchor="start" x="135.5" y="-534" font-family="Helvetica,sans-Serif" font-size="10.00">getRequiredChild()</text>
<text text-anchor="start" x="135.5" y="-519" font-family="Helvetica,sans-Serif" font-size="10.00">and 7 more...</text>
<text text-anchor="start" x="122.5" y="-504" font-family="Helvetica,sans-Serif" font-size="10.00">+</text>
<text text-anchor="start" x="135.5" y="-504" font-family="Helvetica,sans-Serif" font-size="10.00">createFromStream()</text>
<text text-anchor="start" x="122.5" y="-489" font-family="Helvetica,sans-Serif" font-size="10.00">+</text>
<text text-anchor="start" x="135.5" y="-489" font-family="Helvetica,sans-Serif" font-size="10.00">createFromString()</text>
<text text-anchor="start" x="122.5" y="-474" font-family="Helvetica,sans-Serif" font-size="10.00">+</text>
<text text-anchor="start" x="135.5" y="-474" font-family="Helvetica,sans-Serif" font-size="10.00">createFromFile()</text>
<text text-anchor="start" x="122.5" y="-459" font-family="Helvetica,sans-Serif" font-size="10.00">#</text>
<text text-anchor="start" x="135.5" y="-459" font-family="Helvetica,sans-Serif" font-size="10.00">XMLObject()</text>
<text text-anchor="start" x="122.5" y="-444" font-family="Helvetica,sans-Serif" font-size="10.00">#</text>
<text text-anchor="start" x="135.5" y="-444" font-family="Helvetica,sans-Serif" font-size="10.00">createObject()</text>
<polygon fill="#666666" stroke="#666666" points="118.5,-814 118.5,-814 238.5,-814 238.5,-814 118.5,-814"/>
<polygon fill="#666666" stroke="#666666" points="118.5,-679 118.5,-679 133.5,-679 133.5,-679 118.5,-679"/>
<polygon fill="#666666" stroke="#666666" points="133.5,-679 133.5,-679 238.5,-679 238.5,-679 133.5,-679"/>
<polygon fill="none" stroke="#666666" points="118.5,-437 118.5,-831 238.5,-831 238.5,-437 118.5,-437"/>
</a>
</g>
</g>
<!-- Node2&#45;&gt;Node1 -->
<g id="edge1_Node000001_Node000002" class="edge">
<title>Node2&#45;&gt;Node1</title>
<g id="a_edge1_Node000001_Node000002"><a xlink:title=" ">
<path fill="none" stroke="#63b8ff" d="M178.5,-426.86C178.5,-417.79 178.5,-409.17 178.5,-401.19"/>
<polygon fill="none" stroke="#63b8ff" points="175,-426.87 178.5,-436.87 182,-426.87 175,-426.87"/>
</a>
</g>
</g>
<!-- Node5 -->
<g id="Node000005" class="node">
<title>Node5</title>
<g id="a_Node000005"><a xlink:href="classXML_1_1bpmn_1_1tFormalExpression.html" target="_top" xlink:title=" ">
<polygon fill="white" stroke="transparent" points="346.5,-164 184.5,-164 184.5,-85 346.5,-85 346.5,-164"/>
<text text-anchor="start" x="189.5" y="-151.5" font-family="Helvetica,sans-Serif" font-size="10.00">XML::bpmn::tFormalExpression</text>
<text text-anchor="start" x="199" y="-136.5" font-family="Helvetica,sans-Serif" font-size="10.00">+</text>
<text text-anchor="start" x="222.5" y="-136.5" font-family="Helvetica,sans-Serif" font-size="10.00">language</text>
<text text-anchor="start" x="199" y="-121.5" font-family="Helvetica,sans-Serif" font-size="10.00">+</text>
<text text-anchor="start" x="222.5" y="-121.5" font-family="Helvetica,sans-Serif" font-size="10.00">evaluatesToTypeRef</text>
<text text-anchor="start" x="199" y="-106.5" font-family="Helvetica,sans-Serif" font-size="10.00">+</text>
<text text-anchor="start" x="222.5" y="-106.5" font-family="Helvetica,sans-Serif" font-size="10.00">defaults</text>
<text text-anchor="start" x="199" y="-91.5" font-family="Helvetica,sans-Serif" font-size="10.00">#</text>
<text text-anchor="start" x="222.5" y="-91.5" font-family="Helvetica,sans-Serif" font-size="10.00">tFormalExpression()</text>
<polygon fill="#666666" stroke="#666666" points="184.5,-146.5 184.5,-146.5 346.5,-146.5 346.5,-146.5 184.5,-146.5"/>
<polygon fill="#666666" stroke="#666666" points="184.5,-101.5 184.5,-101.5 220.5,-101.5 220.5,-101.5 184.5,-101.5"/>
<polygon fill="#666666" stroke="#666666" points="220.5,-101.5 220.5,-101.5 346.5,-101.5 346.5,-101.5 220.5,-101.5"/>
<polygon fill="none" stroke="#666666" points="184.5,-85 184.5,-164 346.5,-164 346.5,-85 184.5,-85"/>
</a>
</g>
</g>
<!-- Node4&#45;&gt;Node5 -->
<g id="edge4_Node000004_Node000005" class="edge">
<title>Node4&#45;&gt;Node5</title>
<g id="a_edge4_Node000004_Node000005"><a xlink:title=" ">
<path fill="none" stroke="#63b8ff" d="M265.5,-195.01C265.5,-185.13 265.5,-174.28 265.5,-164.14"/>
<polygon fill="none" stroke="#63b8ff" points="262,-195.25 265.5,-205.26 269,-195.26 262,-195.25"/>
</a>
</g>
</g>
<!-- Node6 -->
<g id="Node000006" class="node">
<title>Node6</title>
<g id="a_Node000006"><a xlink:href="classXML_1_1bpmn_1_1formalExpression.html" target="_top" xlink:title=" ">
<polygon fill="white" stroke="transparent" points="344,-49 187,-49 187,0 344,0 344,-49"/>
<text text-anchor="start" x="192.5" y="-36.5" font-family="Helvetica,sans-Serif" font-size="10.00">XML::bpmn::formalExpression</text>
<text text-anchor="start" x="202" y="-21.5" font-family="Helvetica,sans-Serif" font-size="10.00">+</text>
<text text-anchor="start" x="225.5" y="-21.5" font-family="Helvetica,sans-Serif" font-size="10.00">defaults</text>
<text text-anchor="start" x="202" y="-6.5" font-family="Helvetica,sans-Serif" font-size="10.00">#</text>
<text text-anchor="start" x="225.5" y="-6.5" font-family="Helvetica,sans-Serif" font-size="10.00">formalExpression()</text>
<polygon fill="#666666" stroke="#666666" points="187.5,-31.5 187.5,-31.5 344.5,-31.5 344.5,-31.5 187.5,-31.5"/>
<polygon fill="#666666" stroke="#666666" points="187.5,-16.5 187.5,-16.5 223.5,-16.5 223.5,-16.5 187.5,-16.5"/>
<polygon fill="#666666" stroke="#666666" points="223.5,-16.5 223.5,-16.5 344.5,-16.5 344.5,-16.5 223.5,-16.5"/>
<polygon fill="none" stroke="#666666" points="187,0 187,-49 344,-49 344,0 187,0"/>
</a>
</g>
</g>
<!-- Node5&#45;&gt;Node6 -->
<g id="edge5_Node000005_Node000006" class="edge">
<title>Node5&#45;&gt;Node6</title>
<g id="a_edge5_Node000005_Node000006"><a xlink:title=" ">
<path fill="none" stroke="#63b8ff" d="M265.5,-74.72C265.5,-65.75 265.5,-56.78 265.5,-49"/>
<polygon fill="none" stroke="#63b8ff" points="262,-74.77 265.5,-84.77 269,-74.77 262,-74.77"/>
</a>
</g>
</g>
</g>
</svg>
