<?xml version="1.0" encoding="UTF-8" standalone="no"?>
<!DOCTYPE svg PUBLIC "-//W3C//DTD SVG 1.1//EN"
 "http://www.w3.org/Graphics/SVG/1.1/DTD/svg11.dtd">
<!-- Generated by graphviz version 2.43.0 (0)
 -->
<!-- Title: XML::bpmn::tActivity Pages: 1 -->
<svg width="1847pt" height="1274pt"
 viewBox="0.00 0.00 1847.00 1274.00" xmlns="http://www.w3.org/2000/svg" xmlns:xlink="http://www.w3.org/1999/xlink">
<g id="graph0" class="graph" transform="scale(1 1) rotate(0) translate(4 1270)">
<title>XML::bpmn::tActivity</title>
<!-- Node1 -->
<g id="node1" class="node">
<title>Node1</title>
<g id="a_node1"><a xlink:title=" ">
<polygon fill="#bfbfbf" stroke="black" points="236.5,-370.5 236.5,-537.5 375.5,-537.5 375.5,-370.5 236.5,-370.5"/>
<text text-anchor="middle" x="306" y="-525.5" font-family="Helvetica,sans-Serif" font-size="10.00">XML::bpmn::tActivity</text>
<polyline fill="none" stroke="black" points="236.5,-518.5 375.5,-518.5 "/>
<text text-anchor="start" x="244.5" y="-506.5" font-family="Helvetica,sans-Serif" font-size="10.00">+ ioSpecification</text>
<text text-anchor="start" x="244.5" y="-495.5" font-family="Helvetica,sans-Serif" font-size="10.00">+ property</text>
<text text-anchor="start" x="244.5" y="-484.5" font-family="Helvetica,sans-Serif" font-size="10.00">+ dataInputAssociation</text>
<text text-anchor="start" x="244.5" y="-473.5" font-family="Helvetica,sans-Serif" font-size="10.00">+ dataOutputAssociation</text>
<text text-anchor="start" x="244.5" y="-462.5" font-family="Helvetica,sans-Serif" font-size="10.00">+ resourceRole</text>
<text text-anchor="start" x="244.5" y="-451.5" font-family="Helvetica,sans-Serif" font-size="10.00">+ loopCharacteristics</text>
<text text-anchor="start" x="244.5" y="-440.5" font-family="Helvetica,sans-Serif" font-size="10.00">+ isForCompensation</text>
<text text-anchor="start" x="244.5" y="-429.5" font-family="Helvetica,sans-Serif" font-size="10.00">+ startQuantity</text>
<text text-anchor="start" x="244.5" y="-418.5" font-family="Helvetica,sans-Serif" font-size="10.00">+ completionQuantity</text>
<text text-anchor="start" x="244.5" y="-407.5" font-family="Helvetica,sans-Serif" font-size="10.00">+ default_</text>
<text text-anchor="start" x="244.5" y="-396.5" font-family="Helvetica,sans-Serif" font-size="10.00">+ defaults</text>
<polyline fill="none" stroke="black" points="236.5,-389.5 375.5,-389.5 "/>
<text text-anchor="start" x="244.5" y="-377.5" font-family="Helvetica,sans-Serif" font-size="10.00"># tActivity()</text>
</a>
</g>
</g>
<!-- Node6 -->
<g id="node6" class="node">
<title>Node6</title>
<g id="a_node6"><a xlink:href="classXML_1_1bpmn_1_1activity.html" target="_top" xlink:title=" ">
<polygon fill="none" stroke="black" points="28,-254.5 28,-311.5 142,-311.5 142,-254.5 28,-254.5"/>
<text text-anchor="middle" x="85" y="-299.5" font-family="Helvetica,sans-Serif" font-size="10.00">XML::bpmn::activity</text>
<polyline fill="none" stroke="black" points="28,-292.5 142,-292.5 "/>
<text text-anchor="start" x="36" y="-280.5" font-family="Helvetica,sans-Serif" font-size="10.00">+ defaults</text>
<polyline fill="none" stroke="black" points="28,-273.5 142,-273.5 "/>
<text text-anchor="start" x="36" y="-261.5" font-family="Helvetica,sans-Serif" font-size="10.00"># activity()</text>
</a>
</g>
</g>
<!-- Node1&#45;&gt;Node6 -->
<g id="edge5" class="edge">
<title>Node1&#45;&gt;Node6</title>
<path fill="none" stroke="midnightblue" d="M228.21,-393.52C191.8,-365.67 150.18,-333.84 121.22,-311.7"/>
<polygon fill="none" stroke="midnightblue" points="226.31,-396.47 236.38,-399.76 230.56,-390.9 226.31,-396.47"/>
</g>
<!-- Node7 -->
<g id="node7" class="node">
<title>Node7</title>
<g id="a_node7"><a xlink:href="classXML_1_1bpmn_1_1tCallActivity.html" target="_top" xlink:title=" ">
<polygon fill="none" stroke="black" points="160.5,-249 160.5,-317 297.5,-317 297.5,-249 160.5,-249"/>
<text text-anchor="middle" x="229" y="-305" font-family="Helvetica,sans-Serif" font-size="10.00">XML::bpmn::tCallActivity</text>
<polyline fill="none" stroke="black" points="160.5,-298 297.5,-298 "/>
<text text-anchor="start" x="168.5" y="-286" font-family="Helvetica,sans-Serif" font-size="10.00">+ calledElement</text>
<text text-anchor="start" x="168.5" y="-275" font-family="Helvetica,sans-Serif" font-size="10.00">+ defaults</text>
<polyline fill="none" stroke="black" points="160.5,-268 297.5,-268 "/>
<text text-anchor="start" x="168.5" y="-256" font-family="Helvetica,sans-Serif" font-size="10.00"># tCallActivity()</text>
</a>
</g>
</g>
<!-- Node1&#45;&gt;Node7 -->
<g id="edge6" class="edge">
<title>Node1&#45;&gt;Node7</title>
<path fill="none" stroke="midnightblue" d="M264.16,-361.17C256.97,-345.39 249.94,-329.95 244.07,-317.08"/>
<polygon fill="none" stroke="midnightblue" points="261.07,-362.83 268.4,-370.48 267.44,-359.93 261.07,-362.83"/>
</g>
<!-- Node9 -->
<g id="node9" class="node">
<title>Node9</title>
<g id="a_node9"><a xlink:href="classXML_1_1bpmn_1_1tSubProcess.html" target="_top" xlink:title=" ">
<polygon fill="none" stroke="black" points="315.5,-232.5 315.5,-333.5 452.5,-333.5 452.5,-232.5 315.5,-232.5"/>
<text text-anchor="middle" x="384" y="-321.5" font-family="Helvetica,sans-Serif" font-size="10.00">XML::bpmn::tSubProcess</text>
<polyline fill="none" stroke="black" points="315.5,-314.5 452.5,-314.5 "/>
<text text-anchor="start" x="323.5" y="-302.5" font-family="Helvetica,sans-Serif" font-size="10.00">+ laneSet</text>
<text text-anchor="start" x="323.5" y="-291.5" font-family="Helvetica,sans-Serif" font-size="10.00">+ flowElement</text>
<text text-anchor="start" x="323.5" y="-280.5" font-family="Helvetica,sans-Serif" font-size="10.00">+ artifact</text>
<text text-anchor="start" x="323.5" y="-269.5" font-family="Helvetica,sans-Serif" font-size="10.00">+ triggeredByEvent</text>
<text text-anchor="start" x="323.5" y="-258.5" font-family="Helvetica,sans-Serif" font-size="10.00">+ defaults</text>
<polyline fill="none" stroke="black" points="315.5,-251.5 452.5,-251.5 "/>
<text text-anchor="start" x="323.5" y="-239.5" font-family="Helvetica,sans-Serif" font-size="10.00"># tSubProcess()</text>
</a>
</g>
</g>
<!-- Node1&#45;&gt;Node9 -->
<g id="edge8" class="edge">
<title>Node1&#45;&gt;Node9</title>
<path fill="none" stroke="midnightblue" d="M348.3,-361.35C352.68,-351.86 357.01,-342.48 361.06,-333.71"/>
<polygon fill="none" stroke="midnightblue" points="345.1,-359.93 344.09,-370.48 351.45,-362.87 345.1,-359.93"/>
</g>
<!-- Node15 -->
<g id="node15" class="node">
<title>Node15</title>
<g id="a_node15"><a xlink:href="classXML_1_1bpmn_1_1tTask.html" target="_top" xlink:title=" ">
<polygon fill="none" stroke="black" points="1160.5,-254.5 1160.5,-311.5 1263.5,-311.5 1263.5,-254.5 1160.5,-254.5"/>
<text text-anchor="middle" x="1212" y="-299.5" font-family="Helvetica,sans-Serif" font-size="10.00">XML::bpmn::tTask</text>
<polyline fill="none" stroke="black" points="1160.5,-292.5 1263.5,-292.5 "/>
<text text-anchor="start" x="1168.5" y="-280.5" font-family="Helvetica,sans-Serif" font-size="10.00">+ defaults</text>
<polyline fill="none" stroke="black" points="1160.5,-273.5 1263.5,-273.5 "/>
<text text-anchor="start" x="1168.5" y="-261.5" font-family="Helvetica,sans-Serif" font-size="10.00"># tTask()</text>
</a>
</g>
</g>
<!-- Node1&#45;&gt;Node15 -->
<g id="edge14" class="edge">
<title>Node1&#45;&gt;Node15</title>
<path fill="none" stroke="midnightblue" d="M385.62,-438.15C567.46,-404.23 1009.2,-321.83 1160.31,-293.64"/>
<polygon fill="none" stroke="midnightblue" points="384.78,-434.75 375.59,-440.02 386.06,-441.63 384.78,-434.75"/>
</g>
<!-- Node2 -->
<g id="node2" class="node">
<title>Node2</title>
<g id="a_node2"><a xlink:href="classXML_1_1bpmn_1_1tFlowNode.html" target="_top" xlink:title=" ">
<polygon fill="none" stroke="black" points="241,-574.5 241,-653.5 371,-653.5 371,-574.5 241,-574.5"/>
<text text-anchor="middle" x="306" y="-641.5" font-family="Helvetica,sans-Serif" font-size="10.00">XML::bpmn::tFlowNode</text>
<polyline fill="none" stroke="black" points="241,-634.5 371,-634.5 "/>
<text text-anchor="start" x="249" y="-622.5" font-family="Helvetica,sans-Serif" font-size="10.00">+ incoming</text>
<text text-anchor="start" x="249" y="-611.5" font-family="Helvetica,sans-Serif" font-size="10.00">+ outgoing</text>
<text text-anchor="start" x="249" y="-600.5" font-family="Helvetica,sans-Serif" font-size="10.00">+ defaults</text>
<polyline fill="none" stroke="black" points="241,-593.5 371,-593.5 "/>
<text text-anchor="start" x="249" y="-581.5" font-family="Helvetica,sans-Serif" font-size="10.00"># tFlowNode()</text>
</a>
</g>
</g>
<!-- Node2&#45;&gt;Node1 -->
<g id="edge1" class="edge">
<title>Node2&#45;&gt;Node1</title>
<path fill="none" stroke="midnightblue" d="M306,-564.26C306,-555.74 306,-546.67 306,-537.53"/>
<polygon fill="none" stroke="midnightblue" points="302.5,-564.35 306,-574.35 309.5,-564.35 302.5,-564.35"/>
</g>
<!-- Node3 -->
<g id="node3" class="node">
<title>Node3</title>
<g id="a_node3"><a xlink:href="classXML_1_1bpmn_1_1tFlowElement.html" target="_top" xlink:title=" ">
<polygon fill="none" stroke="black" points="233.5,-690.5 233.5,-791.5 378.5,-791.5 378.5,-690.5 233.5,-690.5"/>
<text text-anchor="middle" x="306" y="-779.5" font-family="Helvetica,sans-Serif" font-size="10.00">XML::bpmn::tFlowElement</text>
<polyline fill="none" stroke="black" points="233.5,-772.5 378.5,-772.5 "/>
<text text-anchor="start" x="241.5" y="-760.5" font-family="Helvetica,sans-Serif" font-size="10.00">+ auditing</text>
<text text-anchor="start" x="241.5" y="-749.5" font-family="Helvetica,sans-Serif" font-size="10.00">+ monitoring</text>
<text text-anchor="start" x="241.5" y="-738.5" font-family="Helvetica,sans-Serif" font-size="10.00">+ categoryValueRef</text>
<text text-anchor="start" x="241.5" y="-727.5" font-family="Helvetica,sans-Serif" font-size="10.00">+ name</text>
<text text-anchor="start" x="241.5" y="-716.5" font-family="Helvetica,sans-Serif" font-size="10.00">+ defaults</text>
<polyline fill="none" stroke="black" points="233.5,-709.5 378.5,-709.5 "/>
<text text-anchor="start" x="241.5" y="-697.5" font-family="Helvetica,sans-Serif" font-size="10.00"># tFlowElement()</text>
</a>
</g>
</g>
<!-- Node3&#45;&gt;Node2 -->
<g id="edge2" class="edge">
<title>Node3&#45;&gt;Node2</title>
<path fill="none" stroke="midnightblue" d="M306,-680.19C306,-671.22 306,-662.18 306,-653.81"/>
<polygon fill="none" stroke="midnightblue" points="302.5,-680.24 306,-690.24 309.5,-680.24 302.5,-680.24"/>
</g>
<!-- Node4 -->
<g id="node4" class="node">
<title>Node4</title>
<g id="a_node4"><a xlink:href="classXML_1_1bpmn_1_1tBaseElement.html" target="_top" xlink:title=" ">
<polygon fill="none" stroke="black" points="233,-828.5 233,-918.5 379,-918.5 379,-828.5 233,-828.5"/>
<text text-anchor="middle" x="306" y="-906.5" font-family="Helvetica,sans-Serif" font-size="10.00">XML::bpmn::tBaseElement</text>
<polyline fill="none" stroke="black" points="233,-899.5 379,-899.5 "/>
<text text-anchor="start" x="241" y="-887.5" font-family="Helvetica,sans-Serif" font-size="10.00">+ documentation</text>
<text text-anchor="start" x="241" y="-876.5" font-family="Helvetica,sans-Serif" font-size="10.00">+ extensionElements</text>
<text text-anchor="start" x="241" y="-865.5" font-family="Helvetica,sans-Serif" font-size="10.00">+ id</text>
<text text-anchor="start" x="241" y="-854.5" font-family="Helvetica,sans-Serif" font-size="10.00">+ defaults</text>
<polyline fill="none" stroke="black" points="233,-847.5 379,-847.5 "/>
<text text-anchor="start" x="241" y="-835.5" font-family="Helvetica,sans-Serif" font-size="10.00"># tBaseElement()</text>
</a>
</g>
</g>
<!-- Node4&#45;&gt;Node3 -->
<g id="edge3" class="edge">
<title>Node4&#45;&gt;Node3</title>
<path fill="none" stroke="midnightblue" d="M306,-818.13C306,-809.31 306,-800.22 306,-791.52"/>
<polygon fill="none" stroke="midnightblue" points="302.5,-818.32 306,-828.32 309.5,-818.32 302.5,-818.32"/>
</g>
<!-- Node5 -->
<g id="node5" class="node">
<title>Node5</title>
<g id="a_node5"><a xlink:href="classXML_1_1XMLObject.html" target="_top" xlink:title="A class representing a node in an XML&#45;tree.">
<polygon fill="none" stroke="black" points="243,-955.5 243,-1265.5 369,-1265.5 369,-955.5 243,-955.5"/>
<text text-anchor="middle" x="306" y="-1253.5" font-family="Helvetica,sans-Serif" font-size="10.00">XML::XMLObject</text>
<polyline fill="none" stroke="black" points="243,-1246.5 369,-1246.5 "/>
<text text-anchor="start" x="251" y="-1234.5" font-family="Helvetica,sans-Serif" font-size="10.00">+ xmlns</text>
<text text-anchor="start" x="251" y="-1223.5" font-family="Helvetica,sans-Serif" font-size="10.00">+ className</text>
<text text-anchor="start" x="251" y="-1212.5" font-family="Helvetica,sans-Serif" font-size="10.00">+ prefix</text>
<text text-anchor="start" x="251" y="-1201.5" font-family="Helvetica,sans-Serif" font-size="10.00">+ elementName</text>
<text text-anchor="start" x="251" y="-1190.5" font-family="Helvetica,sans-Serif" font-size="10.00">+ textContent</text>
<text text-anchor="start" x="251" y="-1179.5" font-family="Helvetica,sans-Serif" font-size="10.00">+ children</text>
<text text-anchor="start" x="251" y="-1168.5" font-family="Helvetica,sans-Serif" font-size="10.00">+ attributes</text>
<text text-anchor="start" x="251" y="-1157.5" font-family="Helvetica,sans-Serif" font-size="10.00">+ defaults</text>
<text text-anchor="start" x="251" y="-1146.5" font-family="Helvetica,sans-Serif" font-size="10.00"># factory</text>
<polyline fill="none" stroke="black" points="243,-1139.5 369,-1139.5 "/>
<text text-anchor="start" x="251" y="-1127.5" font-family="Helvetica,sans-Serif" font-size="10.00">+ ~XMLObject()</text>
<text text-anchor="start" x="251" y="-1116.5" font-family="Helvetica,sans-Serif" font-size="10.00">+ is()</text>
<text text-anchor="start" x="251" y="-1105.5" font-family="Helvetica,sans-Serif" font-size="10.00">+ is()</text>
<text text-anchor="start" x="251" y="-1094.5" font-family="Helvetica,sans-Serif" font-size="10.00">+ get()</text>
<text text-anchor="start" x="251" y="-1083.5" font-family="Helvetica,sans-Serif" font-size="10.00">+ get()</text>
<text text-anchor="start" x="251" y="-1072.5" font-family="Helvetica,sans-Serif" font-size="10.00">+ find()</text>
<text text-anchor="start" x="251" y="-1061.5" font-family="Helvetica,sans-Serif" font-size="10.00">+ find()</text>
<text text-anchor="start" x="251" y="-1050.5" font-family="Helvetica,sans-Serif" font-size="10.00">+ stringify()</text>
<text text-anchor="start" x="251" y="-1039.5" font-family="Helvetica,sans-Serif" font-size="10.00">+ getRequiredChild()</text>
<text text-anchor="start" x="251" y="-1028.5" font-family="Helvetica,sans-Serif" font-size="10.00">+ getOptionalChild()</text>
<text text-anchor="start" x="251" y="-1017.5" font-family="Helvetica,sans-Serif" font-size="10.00">and 6 more...</text>
<text text-anchor="start" x="251" y="-1006.5" font-family="Helvetica,sans-Serif" font-size="10.00">+ createFromStream()</text>
<text text-anchor="start" x="251" y="-995.5" font-family="Helvetica,sans-Serif" font-size="10.00">+ createFromString()</text>
<text text-anchor="start" x="251" y="-984.5" font-family="Helvetica,sans-Serif" font-size="10.00">+ createFromFile()</text>
<text text-anchor="start" x="251" y="-973.5" font-family="Helvetica,sans-Serif" font-size="10.00"># XMLObject()</text>
<text text-anchor="start" x="251" y="-962.5" font-family="Helvetica,sans-Serif" font-size="10.00"># createObject()</text>
</a>
</g>
</g>
<!-- Node5&#45;&gt;Node4 -->
<g id="edge4" class="edge">
<title>Node5&#45;&gt;Node4</title>
<path fill="none" stroke="midnightblue" d="M306,-945.35C306,-935.89 306,-926.91 306,-918.72"/>
<polygon fill="none" stroke="midnightblue" points="302.5,-945.37 306,-955.37 309.5,-945.37 302.5,-945.37"/>
</g>
<!-- Node8 -->
<g id="node8" class="node">
<title>Node8</title>
<g id="a_node8"><a xlink:href="classXML_1_1bpmn_1_1callActivity.html" target="_top" xlink:title=" ">
<polygon fill="none" stroke="black" points="0,-116.5 0,-173.5 132,-173.5 132,-116.5 0,-116.5"/>
<text text-anchor="middle" x="66" y="-161.5" font-family="Helvetica,sans-Serif" font-size="10.00">XML::bpmn::callActivity</text>
<polyline fill="none" stroke="black" points="0,-154.5 132,-154.5 "/>
<text text-anchor="start" x="8" y="-142.5" font-family="Helvetica,sans-Serif" font-size="10.00">+ defaults</text>
<polyline fill="none" stroke="black" points="0,-135.5 132,-135.5 "/>
<text text-anchor="start" x="8" y="-123.5" font-family="Helvetica,sans-Serif" font-size="10.00"># callActivity()</text>
</a>
</g>
</g>
<!-- Node7&#45;&gt;Node8 -->
<g id="edge7" class="edge">
<title>Node7&#45;&gt;Node8</title>
<path fill="none" stroke="midnightblue" d="M181.14,-242.07C154.79,-220.08 122.74,-193.34 99.15,-173.66"/>
<polygon fill="none" stroke="midnightblue" points="179.21,-245.01 189.13,-248.73 183.69,-239.64 179.21,-245.01"/>
</g>
<!-- Node10 -->
<g id="node10" class="node">
<title>Node10</title>
<g id="a_node10"><a xlink:href="classXML_1_1bpmn_1_1subProcess.html" target="_top" xlink:title=" ">
<polygon fill="none" stroke="black" points="150,-116.5 150,-173.5 282,-173.5 282,-116.5 150,-116.5"/>
<text text-anchor="middle" x="216" y="-161.5" font-family="Helvetica,sans-Serif" font-size="10.00">XML::bpmn::subProcess</text>
<polyline fill="none" stroke="black" points="150,-154.5 282,-154.5 "/>
<text text-anchor="start" x="158" y="-142.5" font-family="Helvetica,sans-Serif" font-size="10.00">+ defaults</text>
<polyline fill="none" stroke="black" points="150,-135.5 282,-135.5 "/>
<text text-anchor="start" x="158" y="-123.5" font-family="Helvetica,sans-Serif" font-size="10.00"># subProcess()</text>
</a>
</g>
</g>
<!-- Node9&#45;&gt;Node10 -->
<g id="edge9" class="edge">
<title>Node9&#45;&gt;Node10</title>
<path fill="none" stroke="midnightblue" d="M314.61,-225.83C292.41,-207.86 268.81,-188.75 250.26,-173.73"/>
<polygon fill="none" stroke="midnightblue" points="312.42,-228.56 322.4,-232.13 316.83,-223.12 312.42,-228.56"/>
</g>
<!-- Node11 -->
<g id="node11" class="node">
<title>Node11</title>
<g id="a_node11"><a xlink:href="classXML_1_1bpmn_1_1tAdHocSubProcess.html" target="_top" xlink:title=" ">
<polygon fill="none" stroke="black" points="300,-100 300,-190 468,-190 468,-100 300,-100"/>
<text text-anchor="middle" x="384" y="-178" font-family="Helvetica,sans-Serif" font-size="10.00">XML::bpmn::tAdHocSubProcess</text>
<polyline fill="none" stroke="black" points="300,-171 468,-171 "/>
<text text-anchor="start" x="308" y="-159" font-family="Helvetica,sans-Serif" font-size="10.00">+ completionCondition</text>
<text text-anchor="start" x="308" y="-148" font-family="Helvetica,sans-Serif" font-size="10.00">+ cancelRemainingInstances</text>
<text text-anchor="start" x="308" y="-137" font-family="Helvetica,sans-Serif" font-size="10.00">+ ordering</text>
<text text-anchor="start" x="308" y="-126" font-family="Helvetica,sans-Serif" font-size="10.00">+ defaults</text>
<polyline fill="none" stroke="black" points="300,-119 468,-119 "/>
<text text-anchor="start" x="308" y="-107" font-family="Helvetica,sans-Serif" font-size="10.00"># tAdHocSubProcess()</text>
</a>
</g>
</g>
<!-- Node9&#45;&gt;Node11 -->
<g id="edge10" class="edge">
<title>Node9&#45;&gt;Node11</title>
<path fill="none" stroke="midnightblue" d="M384,-221.95C384,-211.21 384,-200.21 384,-190.02"/>
<polygon fill="none" stroke="midnightblue" points="380.5,-222.13 384,-232.13 387.5,-222.13 380.5,-222.13"/>
</g>
<!-- Node13 -->
<g id="node13" class="node">
<title>Node13</title>
<g id="a_node13"><a xlink:href="classXML_1_1bpmn_1_1tTransaction.html" target="_top" xlink:title=" ">
<polygon fill="none" stroke="black" points="486.5,-111 486.5,-179 623.5,-179 623.5,-111 486.5,-111"/>
<text text-anchor="middle" x="555" y="-167" font-family="Helvetica,sans-Serif" font-size="10.00">XML::bpmn::tTransaction</text>
<polyline fill="none" stroke="black" points="486.5,-160 623.5,-160 "/>
<text text-anchor="start" x="494.5" y="-148" font-family="Helvetica,sans-Serif" font-size="10.00">+ method</text>
<text text-anchor="start" x="494.5" y="-137" font-family="Helvetica,sans-Serif" font-size="10.00">+ defaults</text>
<polyline fill="none" stroke="black" points="486.5,-130 623.5,-130 "/>
<text text-anchor="start" x="494.5" y="-118" font-family="Helvetica,sans-Serif" font-size="10.00"># tTransaction()</text>
</a>
</g>
</g>
<!-- Node9&#45;&gt;Node13 -->
<g id="edge12" class="edge">
<title>Node9&#45;&gt;Node13</title>
<path fill="none" stroke="midnightblue" d="M454.59,-225.86C474.58,-209.96 495.68,-193.18 513.36,-179.12"/>
<polygon fill="none" stroke="midnightblue" points="452.35,-223.17 446.7,-232.13 456.71,-228.65 452.35,-223.17"/>
</g>
<!-- Node12 -->
<g id="node12" class="node">
<title>Node12</title>
<g id="a_node12"><a xlink:href="classXML_1_1bpmn_1_1adHocSubProcess.html" target="_top" xlink:title=" ">
<polygon fill="none" stroke="black" points="302,-0.5 302,-57.5 466,-57.5 466,-0.5 302,-0.5"/>
<text text-anchor="middle" x="384" y="-45.5" font-family="Helvetica,sans-Serif" font-size="10.00">XML::bpmn::adHocSubProcess</text>
<polyline fill="none" stroke="black" points="302,-38.5 466,-38.5 "/>
<text text-anchor="start" x="310" y="-26.5" font-family="Helvetica,sans-Serif" font-size="10.00">+ defaults</text>
<polyline fill="none" stroke="black" points="302,-19.5 466,-19.5 "/>
<text text-anchor="start" x="310" y="-7.5" font-family="Helvetica,sans-Serif" font-size="10.00"># adHocSubProcess()</text>
</a>
</g>
</g>
<!-- Node11&#45;&gt;Node12 -->
<g id="edge11" class="edge">
<title>Node11&#45;&gt;Node12</title>
<path fill="none" stroke="midnightblue" d="M384,-89.83C384,-78.74 384,-67.51 384,-57.82"/>
<polygon fill="none" stroke="midnightblue" points="380.5,-89.92 384,-99.92 387.5,-89.92 380.5,-89.92"/>
</g>
<!-- Node14 -->
<g id="node14" class="node">
<title>Node14</title>
<g id="a_node14"><a xlink:href="classXML_1_1bpmn_1_1transaction.html" target="_top" xlink:title=" ">
<polygon fill="none" stroke="black" points="489,-0.5 489,-57.5 621,-57.5 621,-0.5 489,-0.5"/>
<text text-anchor="middle" x="555" y="-45.5" font-family="Helvetica,sans-Serif" font-size="10.00">XML::bpmn::transaction</text>
<polyline fill="none" stroke="black" points="489,-38.5 621,-38.5 "/>
<text text-anchor="start" x="497" y="-26.5" font-family="Helvetica,sans-Serif" font-size="10.00">+ defaults</text>
<polyline fill="none" stroke="black" points="489,-19.5 621,-19.5 "/>
<text text-anchor="start" x="497" y="-7.5" font-family="Helvetica,sans-Serif" font-size="10.00"># transaction()</text>
</a>
</g>
</g>
<!-- Node13&#45;&gt;Node14 -->
<g id="edge13" class="edge">
<title>Node13&#45;&gt;Node14</title>
<path fill="none" stroke="midnightblue" d="M555,-100.53C555,-86.17 555,-70.6 555,-57.74"/>
<polygon fill="none" stroke="midnightblue" points="551.5,-100.72 555,-110.72 558.5,-100.72 551.5,-100.72"/>
</g>
<!-- Node16 -->
<g id="node16" class="node">
<title>Node16</title>
<g id="a_node16"><a xlink:href="classXML_1_1bpmn_1_1tBusinessRuleTask.html" target="_top" xlink:title=" ">
<polygon fill="none" stroke="black" points="642,-111 642,-179 810,-179 810,-111 642,-111"/>
<text text-anchor="middle" x="726" y="-167" font-family="Helvetica,sans-Serif" font-size="10.00">XML::bpmn::tBusinessRuleTask</text>
<polyline fill="none" stroke="black" points="642,-160 810,-160 "/>
<text text-anchor="start" x="650" y="-148" font-family="Helvetica,sans-Serif" font-size="10.00">+ implementation</text>
<text text-anchor="start" x="650" y="-137" font-family="Helvetica,sans-Serif" font-size="10.00">+ defaults</text>
<polyline fill="none" stroke="black" points="642,-130 810,-130 "/>
<text text-anchor="start" x="650" y="-118" font-family="Helvetica,sans-Serif" font-size="10.00"># tBusinessRuleTask()</text>
</a>
</g>
</g>
<!-- Node15&#45;&gt;Node16 -->
<g id="edge15" class="edge">
<title>Node15&#45;&gt;Node16</title>
<path fill="none" stroke="midnightblue" d="M1150.24,-273.91C1071.54,-262.39 932.15,-237.87 819,-196 806.45,-191.36 793.49,-185.3 781.39,-179"/>
<polygon fill="none" stroke="midnightblue" points="1150.07,-277.42 1160.47,-275.39 1151.07,-270.5 1150.07,-277.42"/>
</g>
<!-- Node18 -->
<g id="node18" class="node">
<title>Node18</title>
<g id="a_node18"><a xlink:href="classXML_1_1bpmn_1_1tManualTask.html" target="_top" xlink:title=" ">
<polygon fill="none" stroke="black" points="828.5,-116.5 828.5,-173.5 967.5,-173.5 967.5,-116.5 828.5,-116.5"/>
<text text-anchor="middle" x="898" y="-161.5" font-family="Helvetica,sans-Serif" font-size="10.00">XML::bpmn::tManualTask</text>
<polyline fill="none" stroke="black" points="828.5,-154.5 967.5,-154.5 "/>
<text text-anchor="start" x="836.5" y="-142.5" font-family="Helvetica,sans-Serif" font-size="10.00">+ defaults</text>
<polyline fill="none" stroke="black" points="828.5,-135.5 967.5,-135.5 "/>
<text text-anchor="start" x="836.5" y="-123.5" font-family="Helvetica,sans-Serif" font-size="10.00"># tManualTask()</text>
</a>
</g>
</g>
<!-- Node15&#45;&gt;Node18 -->
<g id="edge17" class="edge">
<title>Node15&#45;&gt;Node18</title>
<path fill="none" stroke="midnightblue" d="M1150.59,-263.51C1102.29,-248.03 1033.88,-224.01 977,-196 963.89,-189.55 950.24,-181.45 938.04,-173.67"/>
<polygon fill="none" stroke="midnightblue" points="1149.68,-266.9 1160.27,-266.59 1151.8,-260.23 1149.68,-266.9"/>
</g>
<!-- Node20 -->
<g id="node20" class="node">
<title>Node20</title>
<g id="a_node20"><a xlink:href="classXML_1_1bpmn_1_1tReceiveTask.html" target="_top" xlink:title=" ">
<polygon fill="none" stroke="black" points="986,-94.5 986,-195.5 1128,-195.5 1128,-94.5 986,-94.5"/>
<text text-anchor="middle" x="1057" y="-183.5" font-family="Helvetica,sans-Serif" font-size="10.00">XML::bpmn::tReceiveTask</text>
<polyline fill="none" stroke="black" points="986,-176.5 1128,-176.5 "/>
<text text-anchor="start" x="994" y="-164.5" font-family="Helvetica,sans-Serif" font-size="10.00">+ implementation</text>
<text text-anchor="start" x="994" y="-153.5" font-family="Helvetica,sans-Serif" font-size="10.00">+ instantiate</text>
<text text-anchor="start" x="994" y="-142.5" font-family="Helvetica,sans-Serif" font-size="10.00">+ messageRef</text>
<text text-anchor="start" x="994" y="-131.5" font-family="Helvetica,sans-Serif" font-size="10.00">+ operationRef</text>
<text text-anchor="start" x="994" y="-120.5" font-family="Helvetica,sans-Serif" font-size="10.00">+ defaults</text>
<polyline fill="none" stroke="black" points="986,-113.5 1128,-113.5 "/>
<text text-anchor="start" x="994" y="-101.5" font-family="Helvetica,sans-Serif" font-size="10.00"># tReceiveTask()</text>
</a>
</g>
</g>
<!-- Node15&#45;&gt;Node20 -->
<g id="edge19" class="edge">
<title>Node15&#45;&gt;Node20</title>
<path fill="none" stroke="midnightblue" d="M1172.69,-247.51C1154.81,-231.82 1133.3,-212.95 1113.72,-195.76"/>
<polygon fill="none" stroke="midnightblue" points="1170.81,-250.51 1180.63,-254.48 1175.43,-245.25 1170.81,-250.51"/>
</g>
<!-- Node22 -->
<g id="node22" class="node">
<title>Node22</title>
<g id="a_node22"><a xlink:href="classXML_1_1bpmn_1_1tScriptTask.html" target="_top" xlink:title=" ">
<polygon fill="none" stroke="black" points="1146.5,-105.5 1146.5,-184.5 1277.5,-184.5 1277.5,-105.5 1146.5,-105.5"/>
<text text-anchor="middle" x="1212" y="-172.5" font-family="Helvetica,sans-Serif" font-size="10.00">XML::bpmn::tScriptTask</text>
<polyline fill="none" stroke="black" points="1146.5,-165.5 1277.5,-165.5 "/>
<text text-anchor="start" x="1154.5" y="-153.5" font-family="Helvetica,sans-Serif" font-size="10.00">+ script</text>
<text text-anchor="start" x="1154.5" y="-142.5" font-family="Helvetica,sans-Serif" font-size="10.00">+ scriptFormat</text>
<text text-anchor="start" x="1154.5" y="-131.5" font-family="Helvetica,sans-Serif" font-size="10.00">+ defaults</text>
<polyline fill="none" stroke="black" points="1146.5,-124.5 1277.5,-124.5 "/>
<text text-anchor="start" x="1154.5" y="-112.5" font-family="Helvetica,sans-Serif" font-size="10.00"># tScriptTask()</text>
</a>
</g>
</g>
<!-- Node15&#45;&gt;Node22 -->
<g id="edge21" class="edge">
<title>Node15&#45;&gt;Node22</title>
<path fill="none" stroke="midnightblue" d="M1212,-244.3C1212,-225.69 1212,-203.28 1212,-184.56"/>
<polygon fill="none" stroke="midnightblue" points="1208.5,-244.48 1212,-254.48 1215.5,-244.48 1208.5,-244.48"/>
</g>
<!-- Node24 -->
<g id="node24" class="node">
<title>Node24</title>
<g id="a_node24"><a xlink:href="classXML_1_1bpmn_1_1tSendTask.html" target="_top" xlink:title=" ">
<polygon fill="none" stroke="black" points="1295.5,-100 1295.5,-190 1422.5,-190 1422.5,-100 1295.5,-100"/>
<text text-anchor="middle" x="1359" y="-178" font-family="Helvetica,sans-Serif" font-size="10.00">XML::bpmn::tSendTask</text>
<polyline fill="none" stroke="black" points="1295.5,-171 1422.5,-171 "/>
<text text-anchor="start" x="1303.5" y="-159" font-family="Helvetica,sans-Serif" font-size="10.00">+ implementation</text>
<text text-anchor="start" x="1303.5" y="-148" font-family="Helvetica,sans-Serif" font-size="10.00">+ messageRef</text>
<text text-anchor="start" x="1303.5" y="-137" font-family="Helvetica,sans-Serif" font-size="10.00">+ operationRef</text>
<text text-anchor="start" x="1303.5" y="-126" font-family="Helvetica,sans-Serif" font-size="10.00">+ defaults</text>
<polyline fill="none" stroke="black" points="1295.5,-119 1422.5,-119 "/>
<text text-anchor="start" x="1303.5" y="-107" font-family="Helvetica,sans-Serif" font-size="10.00"># tSendTask()</text>
</a>
</g>
</g>
<!-- Node15&#45;&gt;Node24 -->
<g id="edge23" class="edge">
<title>Node15&#45;&gt;Node24</title>
<path fill="none" stroke="midnightblue" d="M1249.28,-247.51C1268.13,-230.07 1291.23,-208.7 1311.36,-190.08"/>
<polygon fill="none" stroke="midnightblue" points="1246.71,-245.12 1241.75,-254.48 1251.46,-250.26 1246.71,-245.12"/>
</g>
<!-- Node26 -->
<g id="node26" class="node">
<title>Node26</title>
<g id="a_node26"><a xlink:href="classXML_1_1bpmn_1_1tServiceTask.html" target="_top" xlink:title=" ">
<polygon fill="none" stroke="black" points="1440.5,-105.5 1440.5,-184.5 1579.5,-184.5 1579.5,-105.5 1440.5,-105.5"/>
<text text-anchor="middle" x="1510" y="-172.5" font-family="Helvetica,sans-Serif" font-size="10.00">XML::bpmn::tServiceTask</text>
<polyline fill="none" stroke="black" points="1440.5,-165.5 1579.5,-165.5 "/>
<text text-anchor="start" x="1448.5" y="-153.5" font-family="Helvetica,sans-Serif" font-size="10.00">+ implementation</text>
<text text-anchor="start" x="1448.5" y="-142.5" font-family="Helvetica,sans-Serif" font-size="10.00">+ operationRef</text>
<text text-anchor="start" x="1448.5" y="-131.5" font-family="Helvetica,sans-Serif" font-size="10.00">+ defaults</text>
<polyline fill="none" stroke="black" points="1440.5,-124.5 1579.5,-124.5 "/>
<text text-anchor="start" x="1448.5" y="-112.5" font-family="Helvetica,sans-Serif" font-size="10.00"># tServiceTask()</text>
</a>
</g>
</g>
<!-- Node15&#45;&gt;Node26 -->
<g id="edge25" class="edge">
<title>Node15&#45;&gt;Node26</title>
<path fill="none" stroke="midnightblue" d="M1273.2,-261.5C1317.88,-245.69 1379.41,-222.16 1431,-196 1437.8,-192.55 1444.77,-188.68 1451.62,-184.66"/>
<polygon fill="none" stroke="midnightblue" points="1271.92,-258.24 1263.65,-264.85 1274.24,-264.84 1271.92,-258.24"/>
</g>
<!-- Node28 -->
<g id="node28" class="node">
<title>Node28</title>
<g id="a_node28"><a xlink:href="classXML_1_1bpmn_1_1tUserTask.html" target="_top" xlink:title=" ">
<polygon fill="none" stroke="black" points="1597.5,-105.5 1597.5,-184.5 1722.5,-184.5 1722.5,-105.5 1597.5,-105.5"/>
<text text-anchor="middle" x="1660" y="-172.5" font-family="Helvetica,sans-Serif" font-size="10.00">XML::bpmn::tUserTask</text>
<polyline fill="none" stroke="black" points="1597.5,-165.5 1722.5,-165.5 "/>
<text text-anchor="start" x="1605.5" y="-153.5" font-family="Helvetica,sans-Serif" font-size="10.00">+ rendering</text>
<text text-anchor="start" x="1605.5" y="-142.5" font-family="Helvetica,sans-Serif" font-size="10.00">+ implementation</text>
<text text-anchor="start" x="1605.5" y="-131.5" font-family="Helvetica,sans-Serif" font-size="10.00">+ defaults</text>
<polyline fill="none" stroke="black" points="1597.5,-124.5 1722.5,-124.5 "/>
<text text-anchor="start" x="1605.5" y="-112.5" font-family="Helvetica,sans-Serif" font-size="10.00"># tUserTask()</text>
</a>
</g>
</g>
<!-- Node15&#45;&gt;Node28 -->
<g id="edge27" class="edge">
<title>Node15&#45;&gt;Node28</title>
<path fill="none" stroke="midnightblue" d="M1273.45,-275.25C1349.83,-265.24 1482.92,-242.41 1588,-196 1595.24,-192.8 1602.51,-188.84 1609.5,-184.56"/>
<polygon fill="none" stroke="midnightblue" points="1272.99,-271.78 1263.52,-276.52 1273.88,-278.72 1272.99,-271.78"/>
</g>
<!-- Node30 -->
<g id="node30" class="node">
<title>Node30</title>
<g id="a_node30"><a xlink:href="classXML_1_1bpmn_1_1task.html" target="_top" xlink:title=" ">
<polygon fill="none" stroke="black" points="1741,-116.5 1741,-173.5 1839,-173.5 1839,-116.5 1741,-116.5"/>
<text text-anchor="middle" x="1790" y="-161.5" font-family="Helvetica,sans-Serif" font-size="10.00">XML::bpmn::task</text>
<polyline fill="none" stroke="black" points="1741,-154.5 1839,-154.5 "/>
<text text-anchor="start" x="1749" y="-142.5" font-family="Helvetica,sans-Serif" font-size="10.00">+ defaults</text>
<polyline fill="none" stroke="black" points="1741,-135.5 1839,-135.5 "/>
<text text-anchor="start" x="1749" y="-123.5" font-family="Helvetica,sans-Serif" font-size="10.00"># task()</text>
</a>
</g>
</g>
<!-- Node15&#45;&gt;Node30 -->
<g id="edge29" class="edge">
<title>Node15&#45;&gt;Node30</title>
<path fill="none" stroke="midnightblue" d="M1273.92,-282.21C1374.48,-280.32 1577.51,-267.07 1731,-196 1742.82,-190.53 1754.15,-182.02 1763.67,-173.57"/>
<polygon fill="none" stroke="midnightblue" points="1273.58,-278.72 1263.63,-282.37 1273.69,-285.72 1273.58,-278.72"/>
</g>
<!-- Node17 -->
<g id="node17" class="node">
<title>Node17</title>
<g id="a_node17"><a xlink:href="classXML_1_1bpmn_1_1businessRuleTask.html" target="_top" xlink:title=" ">
<polygon fill="none" stroke="black" points="644,-0.5 644,-57.5 808,-57.5 808,-0.5 644,-0.5"/>
<text text-anchor="middle" x="726" y="-45.5" font-family="Helvetica,sans-Serif" font-size="10.00">XML::bpmn::businessRuleTask</text>
<polyline fill="none" stroke="black" points="644,-38.5 808,-38.5 "/>
<text text-anchor="start" x="652" y="-26.5" font-family="Helvetica,sans-Serif" font-size="10.00">+ defaults</text>
<polyline fill="none" stroke="black" points="644,-19.5 808,-19.5 "/>
<text text-anchor="start" x="652" y="-7.5" font-family="Helvetica,sans-Serif" font-size="10.00"># businessRuleTask()</text>
</a>
</g>
</g>
<!-- Node16&#45;&gt;Node17 -->
<g id="edge16" class="edge">
<title>Node16&#45;&gt;Node17</title>
<path fill="none" stroke="midnightblue" d="M726,-100.53C726,-86.17 726,-70.6 726,-57.74"/>
<polygon fill="none" stroke="midnightblue" points="722.5,-100.72 726,-110.72 729.5,-100.72 722.5,-100.72"/>
</g>
<!-- Node19 -->
<g id="node19" class="node">
<title>Node19</title>
<g id="a_node19"><a xlink:href="classXML_1_1bpmn_1_1manualTask.html" target="_top" xlink:title=" ">
<polygon fill="none" stroke="black" points="830,-0.5 830,-57.5 966,-57.5 966,-0.5 830,-0.5"/>
<text text-anchor="middle" x="898" y="-45.5" font-family="Helvetica,sans-Serif" font-size="10.00">XML::bpmn::manualTask</text>
<polyline fill="none" stroke="black" points="830,-38.5 966,-38.5 "/>
<text text-anchor="start" x="838" y="-26.5" font-family="Helvetica,sans-Serif" font-size="10.00">+ defaults</text>
<polyline fill="none" stroke="black" points="830,-19.5 966,-19.5 "/>
<text text-anchor="start" x="838" y="-7.5" font-family="Helvetica,sans-Serif" font-size="10.00"># manualTask()</text>
</a>
</g>
</g>
<!-- Node18&#45;&gt;Node19 -->
<g id="edge18" class="edge">
<title>Node18&#45;&gt;Node19</title>
<path fill="none" stroke="midnightblue" d="M898,-106.36C898,-90.5 898,-72.35 898,-57.74"/>
<polygon fill="none" stroke="midnightblue" points="894.5,-106.4 898,-116.4 901.5,-106.4 894.5,-106.4"/>
</g>
<!-- Node21 -->
<g id="node21" class="node">
<title>Node21</title>
<g id="a_node21"><a xlink:href="classXML_1_1bpmn_1_1receiveTask.html" target="_top" xlink:title=" ">
<polygon fill="none" stroke="black" points="989.5,-0.5 989.5,-57.5 1124.5,-57.5 1124.5,-0.5 989.5,-0.5"/>
<text text-anchor="middle" x="1057" y="-45.5" font-family="Helvetica,sans-Serif" font-size="10.00">XML::bpmn::receiveTask</text>
<polyline fill="none" stroke="black" points="989.5,-38.5 1124.5,-38.5 "/>
<text text-anchor="start" x="997.5" y="-26.5" font-family="Helvetica,sans-Serif" font-size="10.00">+ defaults</text>
<polyline fill="none" stroke="black" points="989.5,-19.5 1124.5,-19.5 "/>
<text text-anchor="start" x="997.5" y="-7.5" font-family="Helvetica,sans-Serif" font-size="10.00"># receiveTask()</text>
</a>
</g>
</g>
<!-- Node20&#45;&gt;Node21 -->
<g id="edge20" class="edge">
<title>Node20&#45;&gt;Node21</title>
<path fill="none" stroke="midnightblue" d="M1057,-84.23C1057,-74.92 1057,-65.71 1057,-57.59"/>
<polygon fill="none" stroke="midnightblue" points="1053.5,-84.33 1057,-94.33 1060.5,-84.33 1053.5,-84.33"/>
</g>
<!-- Node23 -->
<g id="node23" class="node">
<title>Node23</title>
<g id="a_node23"><a xlink:href="classXML_1_1bpmn_1_1scriptTask.html" target="_top" xlink:title=" ">
<polygon fill="none" stroke="black" points="1149,-0.5 1149,-57.5 1275,-57.5 1275,-0.5 1149,-0.5"/>
<text text-anchor="middle" x="1212" y="-45.5" font-family="Helvetica,sans-Serif" font-size="10.00">XML::bpmn::scriptTask</text>
<polyline fill="none" stroke="black" points="1149,-38.5 1275,-38.5 "/>
<text text-anchor="start" x="1157" y="-26.5" font-family="Helvetica,sans-Serif" font-size="10.00">+ defaults</text>
<polyline fill="none" stroke="black" points="1149,-19.5 1275,-19.5 "/>
<text text-anchor="start" x="1157" y="-7.5" font-family="Helvetica,sans-Serif" font-size="10.00"># scriptTask()</text>
</a>
</g>
</g>
<!-- Node22&#45;&gt;Node23 -->
<g id="edge22" class="edge">
<title>Node22&#45;&gt;Node23</title>
<path fill="none" stroke="midnightblue" d="M1212,-95.29C1212,-82.46 1212,-69.05 1212,-57.75"/>
<polygon fill="none" stroke="midnightblue" points="1208.5,-95.4 1212,-105.4 1215.5,-95.4 1208.5,-95.4"/>
</g>
<!-- Node25 -->
<g id="node25" class="node">
<title>Node25</title>
<g id="a_node25"><a xlink:href="classXML_1_1bpmn_1_1sendTask.html" target="_top" xlink:title=" ">
<polygon fill="none" stroke="black" points="1298,-0.5 1298,-57.5 1420,-57.5 1420,-0.5 1298,-0.5"/>
<text text-anchor="middle" x="1359" y="-45.5" font-family="Helvetica,sans-Serif" font-size="10.00">XML::bpmn::sendTask</text>
<polyline fill="none" stroke="black" points="1298,-38.5 1420,-38.5 "/>
<text text-anchor="start" x="1306" y="-26.5" font-family="Helvetica,sans-Serif" font-size="10.00">+ defaults</text>
<polyline fill="none" stroke="black" points="1298,-19.5 1420,-19.5 "/>
<text text-anchor="start" x="1306" y="-7.5" font-family="Helvetica,sans-Serif" font-size="10.00"># sendTask()</text>
</a>
</g>
</g>
<!-- Node24&#45;&gt;Node25 -->
<g id="edge24" class="edge">
<title>Node24&#45;&gt;Node25</title>
<path fill="none" stroke="midnightblue" d="M1359,-89.83C1359,-78.74 1359,-67.51 1359,-57.82"/>
<polygon fill="none" stroke="midnightblue" points="1355.5,-89.92 1359,-99.92 1362.5,-89.92 1355.5,-89.92"/>
</g>
<!-- Node27 -->
<g id="node27" class="node">
<title>Node27</title>
<g id="a_node27"><a xlink:href="classXML_1_1bpmn_1_1serviceTask.html" target="_top" xlink:title=" ">
<polygon fill="none" stroke="black" points="1443,-0.5 1443,-57.5 1577,-57.5 1577,-0.5 1443,-0.5"/>
<text text-anchor="middle" x="1510" y="-45.5" font-family="Helvetica,sans-Serif" font-size="10.00">XML::bpmn::serviceTask</text>
<polyline fill="none" stroke="black" points="1443,-38.5 1577,-38.5 "/>
<text text-anchor="start" x="1451" y="-26.5" font-family="Helvetica,sans-Serif" font-size="10.00">+ defaults</text>
<polyline fill="none" stroke="black" points="1443,-19.5 1577,-19.5 "/>
<text text-anchor="start" x="1451" y="-7.5" font-family="Helvetica,sans-Serif" font-size="10.00"># serviceTask()</text>
</a>
</g>
</g>
<!-- Node26&#45;&gt;Node27 -->
<g id="edge26" class="edge">
<title>Node26&#45;&gt;Node27</title>
<path fill="none" stroke="midnightblue" d="M1510,-95.29C1510,-82.46 1510,-69.05 1510,-57.75"/>
<polygon fill="none" stroke="midnightblue" points="1506.5,-95.4 1510,-105.4 1513.5,-95.4 1506.5,-95.4"/>
</g>
<!-- Node29 -->
<g id="node29" class="node">
<title>Node29</title>
<g id="a_node29"><a xlink:href="classXML_1_1bpmn_1_1userTask.html" target="_top" xlink:title=" ">
<polygon fill="none" stroke="black" points="1600,-0.5 1600,-57.5 1720,-57.5 1720,-0.5 1600,-0.5"/>
<text text-anchor="middle" x="1660" y="-45.5" font-family="Helvetica,sans-Serif" font-size="10.00">XML::bpmn::userTask</text>
<polyline fill="none" stroke="black" points="1600,-38.5 1720,-38.5 "/>
<text text-anchor="start" x="1608" y="-26.5" font-family="Helvetica,sans-Serif" font-size="10.00">+ defaults</text>
<polyline fill="none" stroke="black" points="1600,-19.5 1720,-19.5 "/>
<text text-anchor="start" x="1608" y="-7.5" font-family="Helvetica,sans-Serif" font-size="10.00"># userTask()</text>
</a>
</g>
</g>
<!-- Node28&#45;&gt;Node29 -->
<g id="edge28" class="edge">
<title>Node28&#45;&gt;Node29</title>
<path fill="none" stroke="midnightblue" d="M1660,-95.29C1660,-82.46 1660,-69.05 1660,-57.75"/>
<polygon fill="none" stroke="midnightblue" points="1656.5,-95.4 1660,-105.4 1663.5,-95.4 1656.5,-95.4"/>
</g>
</g>
</svg>
