<?xml version="1.0" encoding="UTF-8" standalone="no"?>
<!DOCTYPE svg PUBLIC "-//W3C//DTD SVG 1.1//EN"
 "http://www.w3.org/Graphics/SVG/1.1/DTD/svg11.dtd">
<!-- Generated by graphviz version 2.43.0 (0)
 -->
<!-- Title: BPMN::BoundaryEvent Pages: 1 -->
<svg width="1420pt" height="872pt"
 viewBox="0.00 0.00 1420.00 872.00" xmlns="http://www.w3.org/2000/svg" xmlns:xlink="http://www.w3.org/1999/xlink">
<g id="graph0" class="graph" transform="scale(1 1) rotate(0) translate(4 868)">
<title>BPMN::BoundaryEvent</title>
<!-- Node1 -->
<g id="node1" class="node">
<title>Node1</title>
<g id="a_node1"><a xlink:title="Represents a boundary event attached to an activity in a BPMN process.">
<polygon fill="#bfbfbf" stroke="black" points="646.5,-105.5 646.5,-184.5 772.5,-184.5 772.5,-105.5 646.5,-105.5"/>
<text text-anchor="middle" x="709.5" y="-172.5" font-family="Helvetica,sans-Serif" font-size="10.00">BPMN::BoundaryEvent</text>
<polyline fill="none" stroke="black" points="646.5,-165.5 772.5,-165.5 "/>
<text text-anchor="start" x="654.5" y="-153.5" font-family="Helvetica,sans-Serif" font-size="10.00">+ isInterrupting</text>
<text text-anchor="start" x="654.5" y="-142.5" font-family="Helvetica,sans-Serif" font-size="10.00">+ attachedTo</text>
<polyline fill="none" stroke="black" points="646.5,-135.5 772.5,-135.5 "/>
<text text-anchor="start" x="654.5" y="-123.5" font-family="Helvetica,sans-Serif" font-size="10.00">+ BoundaryEvent()</text>
<text text-anchor="start" x="654.5" y="-112.5" font-family="Helvetica,sans-Serif" font-size="10.00"># resolveReference()</text>
</a>
</g>
</g>
<!-- Node7 -->
<g id="node7" class="node">
<title>Node7</title>
<g id="a_node7"><a xlink:href="classBPMN_1_1CancelBoundaryEvent.html" target="_top" xlink:title=" ">
<polygon fill="none" stroke="black" points="0,-6 0,-63 159,-63 159,-6 0,-6"/>
<text text-anchor="middle" x="79.5" y="-51" font-family="Helvetica,sans-Serif" font-size="10.00">BPMN::CancelBoundaryEvent</text>
<polyline fill="none" stroke="black" points="0,-44 159,-44 "/>
<text text-anchor="start" x="8" y="-32" font-family="Helvetica,sans-Serif" font-size="10.00">+ element</text>
<polyline fill="none" stroke="black" points="0,-25 159,-25 "/>
<text text-anchor="start" x="8" y="-13" font-family="Helvetica,sans-Serif" font-size="10.00">+ CancelBoundaryEvent()</text>
</a>
</g>
</g>
<!-- Node1&#45;&gt;Node7 -->
<g id="edge6" class="edge">
<title>Node1&#45;&gt;Node7</title>
<path fill="none" stroke="midnightblue" d="M636.24,-139.14C531.13,-130.99 332.04,-111.12 167.5,-69 160.85,-67.3 154.01,-65.25 147.23,-63.02"/>
<polygon fill="none" stroke="midnightblue" points="636.19,-142.65 646.43,-139.92 636.72,-135.67 636.19,-142.65"/>
</g>
<!-- Node8 -->
<g id="node8" class="node">
<title>Node8</title>
<g id="a_node8"><a xlink:href="classBPMN_1_1CompensateBoundaryEvent.html" target="_top" xlink:title=" ">
<polygon fill="none" stroke="black" points="177,-0.5 177,-68.5 348,-68.5 348,-0.5 177,-0.5"/>
<text text-anchor="start" x="185" y="-56.5" font-family="Helvetica,sans-Serif" font-size="10.00">BPMN::CompensateBoundary</text>
<text text-anchor="middle" x="262.5" y="-45.5" font-family="Helvetica,sans-Serif" font-size="10.00">Event</text>
<polyline fill="none" stroke="black" points="177,-38.5 348,-38.5 "/>
<text text-anchor="start" x="185" y="-26.5" font-family="Helvetica,sans-Serif" font-size="10.00">+ element</text>
<polyline fill="none" stroke="black" points="177,-19.5 348,-19.5 "/>
<text text-anchor="start" x="185" y="-7.5" font-family="Helvetica,sans-Serif" font-size="10.00">+ CompensateBoundaryEvent()</text>
</a>
</g>
</g>
<!-- Node1&#45;&gt;Node8 -->
<g id="edge7" class="edge">
<title>Node1&#45;&gt;Node8</title>
<path fill="none" stroke="midnightblue" d="M636.53,-131.43C564.66,-118.36 452.08,-96.05 356.5,-69 353.75,-68.22 350.96,-67.4 348.16,-66.56"/>
<polygon fill="none" stroke="midnightblue" points="635.93,-134.88 646.39,-133.21 637.18,-127.99 635.93,-134.88"/>
</g>
<!-- Node9 -->
<g id="node9" class="node">
<title>Node9</title>
<g id="a_node9"><a xlink:href="classBPMN_1_1ConditionalBoundaryEvent.html" target="_top" xlink:title=" ">
<polygon fill="none" stroke="black" points="366,-0.5 366,-68.5 531,-68.5 531,-0.5 366,-0.5"/>
<text text-anchor="start" x="374" y="-56.5" font-family="Helvetica,sans-Serif" font-size="10.00">BPMN::ConditionalBoundary</text>
<text text-anchor="middle" x="448.5" y="-45.5" font-family="Helvetica,sans-Serif" font-size="10.00">Event</text>
<polyline fill="none" stroke="black" points="366,-38.5 531,-38.5 "/>
<text text-anchor="start" x="374" y="-26.5" font-family="Helvetica,sans-Serif" font-size="10.00">+ element</text>
<polyline fill="none" stroke="black" points="366,-19.5 531,-19.5 "/>
<text text-anchor="start" x="374" y="-7.5" font-family="Helvetica,sans-Serif" font-size="10.00">+ ConditionalBoundaryEvent()</text>
</a>
</g>
</g>
<!-- Node1&#45;&gt;Node9 -->
<g id="edge8" class="edge">
<title>Node1&#45;&gt;Node9</title>
<path fill="none" stroke="midnightblue" d="M636.95,-113.84C603.06,-99.75 562.64,-82.95 527.94,-68.52"/>
<polygon fill="none" stroke="midnightblue" points="635.74,-117.13 646.32,-117.74 638.43,-110.66 635.74,-117.13"/>
</g>
<!-- Node10 -->
<g id="node10" class="node">
<title>Node10</title>
<g id="a_node10"><a xlink:href="classBPMN_1_1ErrorBoundaryEvent.html" target="_top" xlink:title=" ">
<polygon fill="none" stroke="black" points="549,-6 549,-63 698,-63 698,-6 549,-6"/>
<text text-anchor="middle" x="623.5" y="-51" font-family="Helvetica,sans-Serif" font-size="10.00">BPMN::ErrorBoundaryEvent</text>
<polyline fill="none" stroke="black" points="549,-44 698,-44 "/>
<text text-anchor="start" x="557" y="-32" font-family="Helvetica,sans-Serif" font-size="10.00">+ element</text>
<polyline fill="none" stroke="black" points="549,-25 698,-25 "/>
<text text-anchor="start" x="557" y="-13" font-family="Helvetica,sans-Serif" font-size="10.00">+ ErrorBoundaryEvent()</text>
</a>
</g>
</g>
<!-- Node1&#45;&gt;Node10 -->
<g id="edge9" class="edge">
<title>Node1&#45;&gt;Node10</title>
<path fill="none" stroke="midnightblue" d="M672.59,-97.43C663.29,-85.7 653.61,-73.48 645.32,-63.03"/>
<polygon fill="none" stroke="midnightblue" points="669.98,-99.78 678.94,-105.44 675.47,-95.43 669.98,-99.78"/>
</g>
<!-- Node11 -->
<g id="node11" class="node">
<title>Node11</title>
<g id="a_node11"><a xlink:href="classBPMN_1_1EscalationBoundaryEvent.html" target="_top" xlink:title=" ">
<polygon fill="none" stroke="black" points="716.5,-0.5 716.5,-68.5 876.5,-68.5 876.5,-0.5 716.5,-0.5"/>
<text text-anchor="start" x="724.5" y="-56.5" font-family="Helvetica,sans-Serif" font-size="10.00">BPMN::EscalationBoundary</text>
<text text-anchor="middle" x="796.5" y="-45.5" font-family="Helvetica,sans-Serif" font-size="10.00">Event</text>
<polyline fill="none" stroke="black" points="716.5,-38.5 876.5,-38.5 "/>
<text text-anchor="start" x="724.5" y="-26.5" font-family="Helvetica,sans-Serif" font-size="10.00">+ element</text>
<polyline fill="none" stroke="black" points="716.5,-19.5 876.5,-19.5 "/>
<text text-anchor="start" x="724.5" y="-7.5" font-family="Helvetica,sans-Serif" font-size="10.00">+ EscalationBoundaryEvent()</text>
</a>
</g>
</g>
<!-- Node1&#45;&gt;Node11 -->
<g id="edge10" class="edge">
<title>Node1&#45;&gt;Node11</title>
<path fill="none" stroke="midnightblue" d="M746.87,-97.39C754.66,-87.68 762.71,-77.64 770,-68.54"/>
<polygon fill="none" stroke="midnightblue" points="743.94,-95.45 740.42,-105.44 749.4,-99.83 743.94,-95.45"/>
</g>
<!-- Node12 -->
<g id="node12" class="node">
<title>Node12</title>
<g id="a_node12"><a xlink:href="classBPMN_1_1MessageBoundaryEvent.html" target="_top" xlink:title=" ">
<polygon fill="none" stroke="black" points="894.5,-6 894.5,-63 1064.5,-63 1064.5,-6 894.5,-6"/>
<text text-anchor="middle" x="979.5" y="-51" font-family="Helvetica,sans-Serif" font-size="10.00">BPMN::MessageBoundaryEvent</text>
<polyline fill="none" stroke="black" points="894.5,-44 1064.5,-44 "/>
<text text-anchor="start" x="902.5" y="-32" font-family="Helvetica,sans-Serif" font-size="10.00">+ element</text>
<polyline fill="none" stroke="black" points="894.5,-25 1064.5,-25 "/>
<text text-anchor="start" x="902.5" y="-13" font-family="Helvetica,sans-Serif" font-size="10.00">+ MessageBoundaryEvent()</text>
</a>
</g>
</g>
<!-- Node1&#45;&gt;Node12 -->
<g id="edge11" class="edge">
<title>Node1&#45;&gt;Node12</title>
<path fill="none" stroke="midnightblue" d="M782.23,-114.77C822.24,-98.7 871.59,-78.86 910.92,-63.06"/>
<polygon fill="none" stroke="midnightblue" points="780.78,-111.59 772.8,-118.56 783.39,-118.08 780.78,-111.59"/>
</g>
<!-- Node13 -->
<g id="node13" class="node">
<title>Node13</title>
<g id="a_node13"><a xlink:href="classBPMN_1_1SignalBoundaryEvent.html" target="_top" xlink:title=" ">
<polygon fill="none" stroke="black" points="1082.5,-6 1082.5,-63 1238.5,-63 1238.5,-6 1082.5,-6"/>
<text text-anchor="middle" x="1160.5" y="-51" font-family="Helvetica,sans-Serif" font-size="10.00">BPMN::SignalBoundaryEvent</text>
<polyline fill="none" stroke="black" points="1082.5,-44 1238.5,-44 "/>
<text text-anchor="start" x="1090.5" y="-32" font-family="Helvetica,sans-Serif" font-size="10.00">+ element</text>
<polyline fill="none" stroke="black" points="1082.5,-25 1238.5,-25 "/>
<text text-anchor="start" x="1090.5" y="-13" font-family="Helvetica,sans-Serif" font-size="10.00">+ SignalBoundaryEvent()</text>
</a>
</g>
</g>
<!-- Node1&#45;&gt;Node13 -->
<g id="edge12" class="edge">
<title>Node1&#45;&gt;Node13</title>
<path fill="none" stroke="midnightblue" d="M782.91,-132.52C857.05,-120.09 974.46,-98.06 1073.5,-69 1079.56,-67.22 1085.79,-65.21 1092,-63.07"/>
<polygon fill="none" stroke="midnightblue" points="782.04,-129.12 772.75,-134.22 783.19,-136.03 782.04,-129.12"/>
</g>
<!-- Node14 -->
<g id="node14" class="node">
<title>Node14</title>
<g id="a_node14"><a xlink:href="classBPMN_1_1TimerBoundaryEvent.html" target="_top" xlink:title=" ">
<polygon fill="none" stroke="black" points="1257,-6 1257,-63 1412,-63 1412,-6 1257,-6"/>
<text text-anchor="middle" x="1334.5" y="-51" font-family="Helvetica,sans-Serif" font-size="10.00">BPMN::TimerBoundaryEvent</text>
<polyline fill="none" stroke="black" points="1257,-44 1412,-44 "/>
<text text-anchor="start" x="1265" y="-32" font-family="Helvetica,sans-Serif" font-size="10.00">+ element</text>
<polyline fill="none" stroke="black" points="1257,-25 1412,-25 "/>
<text text-anchor="start" x="1265" y="-13" font-family="Helvetica,sans-Serif" font-size="10.00">+ TimerBoundaryEvent()</text>
</a>
</g>
</g>
<!-- Node1&#45;&gt;Node14 -->
<g id="edge13" class="edge">
<title>Node1&#45;&gt;Node14</title>
<path fill="none" stroke="midnightblue" d="M782.66,-139.14C887.14,-130.99 1084.47,-111.15 1247.5,-69 1254.08,-67.3 1260.84,-65.25 1267.55,-63.02"/>
<polygon fill="none" stroke="midnightblue" points="782.24,-135.66 772.54,-139.91 782.78,-142.64 782.24,-135.66"/>
</g>
<!-- Node2 -->
<g id="node2" class="node">
<title>Node2</title>
<g id="a_node2"><a xlink:href="classBPMN_1_1CatchEvent.html" target="_top" xlink:title=" ">
<polygon fill="none" stroke="black" points="656,-221.5 656,-278.5 763,-278.5 763,-221.5 656,-221.5"/>
<text text-anchor="middle" x="709.5" y="-266.5" font-family="Helvetica,sans-Serif" font-size="10.00">BPMN::CatchEvent</text>
<polyline fill="none" stroke="black" points="656,-259.5 763,-259.5 "/>
<text text-anchor="start" x="664" y="-247.5" font-family="Helvetica,sans-Serif" font-size="10.00">+ element</text>
<polyline fill="none" stroke="black" points="656,-240.5 763,-240.5 "/>
<text text-anchor="start" x="664" y="-228.5" font-family="Helvetica,sans-Serif" font-size="10.00">+ CatchEvent()</text>
</a>
</g>
</g>
<!-- Node2&#45;&gt;Node1 -->
<g id="edge1" class="edge">
<title>Node2&#45;&gt;Node1</title>
<path fill="none" stroke="midnightblue" d="M709.5,-211.16C709.5,-202.47 709.5,-193.23 709.5,-184.52"/>
<polygon fill="none" stroke="midnightblue" points="706,-211.4 709.5,-221.4 713,-211.4 706,-211.4"/>
</g>
<!-- Node3 -->
<g id="node3" class="node">
<title>Node3</title>
<g id="a_node3"><a xlink:href="classBPMN_1_1Event.html" target="_top" xlink:title=" ">
<polygon fill="none" stroke="black" points="669.5,-315.5 669.5,-372.5 749.5,-372.5 749.5,-315.5 669.5,-315.5"/>
<text text-anchor="middle" x="709.5" y="-360.5" font-family="Helvetica,sans-Serif" font-size="10.00">BPMN::Event</text>
<polyline fill="none" stroke="black" points="669.5,-353.5 749.5,-353.5 "/>
<text text-anchor="start" x="677.5" y="-341.5" font-family="Helvetica,sans-Serif" font-size="10.00">+ element</text>
<polyline fill="none" stroke="black" points="669.5,-334.5 749.5,-334.5 "/>
<text text-anchor="start" x="677.5" y="-322.5" font-family="Helvetica,sans-Serif" font-size="10.00">+ Event()</text>
</a>
</g>
</g>
<!-- Node3&#45;&gt;Node2 -->
<g id="edge2" class="edge">
<title>Node3&#45;&gt;Node2</title>
<path fill="none" stroke="midnightblue" d="M709.5,-305.21C709.5,-296.29 709.5,-286.95 709.5,-278.58"/>
<polygon fill="none" stroke="midnightblue" points="706,-305.4 709.5,-315.4 713,-305.4 706,-305.4"/>
</g>
<!-- Node4 -->
<g id="node4" class="node">
<title>Node4</title>
<g id="a_node4"><a xlink:href="classBPMN_1_1FlowNode.html" target="_top" xlink:title="Represents a flow node in a BPMN process.">
<polygon fill="none" stroke="black" points="659,-409.5 659,-488.5 760,-488.5 760,-409.5 659,-409.5"/>
<text text-anchor="middle" x="709.5" y="-476.5" font-family="Helvetica,sans-Serif" font-size="10.00">BPMN::FlowNode</text>
<polyline fill="none" stroke="black" points="659,-469.5 760,-469.5 "/>
<text text-anchor="start" x="667" y="-457.5" font-family="Helvetica,sans-Serif" font-size="10.00">+ element</text>
<text text-anchor="start" x="667" y="-446.5" font-family="Helvetica,sans-Serif" font-size="10.00">+ incoming</text>
<text text-anchor="start" x="667" y="-435.5" font-family="Helvetica,sans-Serif" font-size="10.00">+ outgoing</text>
<polyline fill="none" stroke="black" points="659,-428.5 760,-428.5 "/>
<text text-anchor="start" x="667" y="-416.5" font-family="Helvetica,sans-Serif" font-size="10.00">+ FlowNode()</text>
</a>
</g>
</g>
<!-- Node4&#45;&gt;Node3 -->
<g id="edge3" class="edge">
<title>Node4&#45;&gt;Node3</title>
<path fill="none" stroke="midnightblue" d="M709.5,-399.16C709.5,-390.04 709.5,-380.81 709.5,-372.61"/>
<polygon fill="none" stroke="midnightblue" points="706,-399.35 709.5,-409.35 713,-399.35 706,-399.35"/>
</g>
<!-- Node5 -->
<g id="node5" class="node">
<title>Node5</title>
<g id="a_node5"><a xlink:href="classBPMN_1_1ChildNode.html" target="_top" xlink:title="Represents a node in a BPMN process that has a parent.">
<polygon fill="none" stroke="black" points="658.5,-525.5 658.5,-582.5 760.5,-582.5 760.5,-525.5 658.5,-525.5"/>
<text text-anchor="middle" x="709.5" y="-570.5" font-family="Helvetica,sans-Serif" font-size="10.00">BPMN::ChildNode</text>
<polyline fill="none" stroke="black" points="658.5,-563.5 760.5,-563.5 "/>
<text text-anchor="start" x="666.5" y="-551.5" font-family="Helvetica,sans-Serif" font-size="10.00">+ parent</text>
<polyline fill="none" stroke="black" points="658.5,-544.5 760.5,-544.5 "/>
<text text-anchor="start" x="666.5" y="-532.5" font-family="Helvetica,sans-Serif" font-size="10.00">+ ChildNode()</text>
</a>
</g>
</g>
<!-- Node5&#45;&gt;Node4 -->
<g id="edge4" class="edge">
<title>Node5&#45;&gt;Node4</title>
<path fill="none" stroke="midnightblue" d="M709.5,-515.16C709.5,-506.47 709.5,-497.23 709.5,-488.52"/>
<polygon fill="none" stroke="midnightblue" points="706,-515.4 709.5,-525.4 713,-515.4 706,-515.4"/>
</g>
<!-- Node6 -->
<g id="node6" class="node">
<title>Node6</title>
<g id="a_node6"><a xlink:href="classBPMN_1_1Node.html" target="_top" xlink:title="Represents a node in a BPMN process.">
<polygon fill="none" stroke="black" points="648.5,-619.5 648.5,-863.5 770.5,-863.5 770.5,-619.5 648.5,-619.5"/>
<text text-anchor="middle" x="709.5" y="-851.5" font-family="Helvetica,sans-Serif" font-size="10.00">BPMN::Node</text>
<polyline fill="none" stroke="black" points="648.5,-844.5 770.5,-844.5 "/>
<text text-anchor="start" x="656.5" y="-832.5" font-family="Helvetica,sans-Serif" font-size="10.00">+ id</text>
<text text-anchor="start" x="656.5" y="-821.5" font-family="Helvetica,sans-Serif" font-size="10.00">+ receiving</text>
<text text-anchor="start" x="656.5" y="-810.5" font-family="Helvetica,sans-Serif" font-size="10.00">+ sending</text>
<text text-anchor="start" x="656.5" y="-799.5" font-family="Helvetica,sans-Serif" font-size="10.00">+ element</text>
<text text-anchor="start" x="656.5" y="-788.5" font-family="Helvetica,sans-Serif" font-size="10.00">+ extensionElements</text>
<polyline fill="none" stroke="black" points="648.5,-781.5 770.5,-781.5 "/>
<text text-anchor="start" x="656.5" y="-769.5" font-family="Helvetica,sans-Serif" font-size="10.00">+ Node()</text>
<text text-anchor="start" x="656.5" y="-758.5" font-family="Helvetica,sans-Serif" font-size="10.00">+ ~Node()</text>
<text text-anchor="start" x="656.5" y="-747.5" font-family="Helvetica,sans-Serif" font-size="10.00">+ is()</text>
<text text-anchor="start" x="656.5" y="-736.5" font-family="Helvetica,sans-Serif" font-size="10.00">+ is()</text>
<text text-anchor="start" x="656.5" y="-725.5" font-family="Helvetica,sans-Serif" font-size="10.00">+ get()</text>
<text text-anchor="start" x="656.5" y="-714.5" font-family="Helvetica,sans-Serif" font-size="10.00">+ get()</text>
<text text-anchor="start" x="656.5" y="-703.5" font-family="Helvetica,sans-Serif" font-size="10.00">+ represents()</text>
<text text-anchor="start" x="656.5" y="-692.5" font-family="Helvetica,sans-Serif" font-size="10.00">+ represents()</text>
<text text-anchor="start" x="656.5" y="-681.5" font-family="Helvetica,sans-Serif" font-size="10.00">+ as()</text>
<text text-anchor="start" x="656.5" y="-670.5" font-family="Helvetica,sans-Serif" font-size="10.00">+ as()</text>
<text text-anchor="start" x="656.5" y="-659.5" font-family="Helvetica,sans-Serif" font-size="10.00">+ find()</text>
<text text-anchor="start" x="656.5" y="-648.5" font-family="Helvetica,sans-Serif" font-size="10.00">+ find()</text>
<text text-anchor="start" x="656.5" y="-637.5" font-family="Helvetica,sans-Serif" font-size="10.00">+ find_all()</text>
<text text-anchor="start" x="656.5" y="-626.5" font-family="Helvetica,sans-Serif" font-size="10.00">+ find_all()</text>
</a>
</g>
</g>
<!-- Node6&#45;&gt;Node5 -->
<g id="edge5" class="edge">
<title>Node6&#45;&gt;Node5</title>
<path fill="none" stroke="midnightblue" d="M709.5,-609.34C709.5,-599.53 709.5,-590.42 709.5,-582.57"/>
<polygon fill="none" stroke="midnightblue" points="706,-609.36 709.5,-619.36 713,-609.36 706,-609.36"/>
</g>
</g>
</svg>
