<?xml version="1.0" encoding="UTF-8" standalone="no"?>
<!DOCTYPE svg PUBLIC "-//W3C//DTD SVG 1.1//EN"
 "http://www.w3.org/Graphics/SVG/1.1/DTD/svg11.dtd">
<!-- Generated by graphviz version 2.43.0 (0)
 -->
<!-- Title: BPMN::CatchEvent Pages: 1 -->
<svg width="2560pt" height="883pt"
 viewBox="0.00 0.00 2560.00 883.00" xmlns="http://www.w3.org/2000/svg" xmlns:xlink="http://www.w3.org/1999/xlink">
<g id="graph0" class="graph" transform="scale(1 1) rotate(0) translate(4 879)">
<title>BPMN::CatchEvent</title>
<!-- Node1 -->
<g id="node1" class="node">
<title>Node1</title>
<g id="a_node1"><a xlink:title=" ">
<polygon fill="#bfbfbf" stroke="black" points="859,-221.5 859,-278.5 966,-278.5 966,-221.5 859,-221.5"/>
<text text-anchor="middle" x="912.5" y="-266.5" font-family="Helvetica,sans-Serif" font-size="10.00">BPMN::CatchEvent</text>
<polyline fill="none" stroke="black" points="859,-259.5 966,-259.5 "/>
<text text-anchor="start" x="867" y="-247.5" font-family="Helvetica,sans-Serif" font-size="10.00">+ element</text>
<polyline fill="none" stroke="black" points="859,-240.5 966,-240.5 "/>
<text text-anchor="start" x="867" y="-228.5" font-family="Helvetica,sans-Serif" font-size="10.00">+ CatchEvent()</text>
</a>
</g>
</g>
<!-- Node6 -->
<g id="node6" class="node">
<title>Node6</title>
<g id="a_node6"><a xlink:href="classBPMN_1_1BoundaryEvent.html" target="_top" xlink:title="Base class for all boundary events attached to an Activity.">
<polygon fill="none" stroke="black" points="604.5,-105.5 604.5,-184.5 730.5,-184.5 730.5,-105.5 604.5,-105.5"/>
<text text-anchor="middle" x="667.5" y="-172.5" font-family="Helvetica,sans-Serif" font-size="10.00">BPMN::BoundaryEvent</text>
<polyline fill="none" stroke="black" points="604.5,-165.5 730.5,-165.5 "/>
<text text-anchor="start" x="612.5" y="-153.5" font-family="Helvetica,sans-Serif" font-size="10.00">+ isInterrupting</text>
<text text-anchor="start" x="612.5" y="-142.5" font-family="Helvetica,sans-Serif" font-size="10.00">+ attachedTo</text>
<polyline fill="none" stroke="black" points="604.5,-135.5 730.5,-135.5 "/>
<text text-anchor="start" x="612.5" y="-123.5" font-family="Helvetica,sans-Serif" font-size="10.00">+ BoundaryEvent()</text>
<text text-anchor="start" x="612.5" y="-112.5" font-family="Helvetica,sans-Serif" font-size="10.00"># resolveReference()</text>
</a>
</g>
</g>
<!-- Node1&#45;&gt;Node6 -->
<g id="edge5" class="edge">
<title>Node1&#45;&gt;Node6</title>
<path fill="none" stroke="midnightblue" d="M849.14,-227.99C816.02,-216.4 775.08,-201.12 739.5,-185 736.65,-183.71 733.76,-182.35 730.86,-180.95"/>
<polygon fill="none" stroke="midnightblue" points="848.11,-231.34 858.71,-231.31 850.41,-224.73 848.11,-231.34"/>
</g>
<!-- Node7 -->
<g id="node7" class="node">
<title>Node7</title>
<g id="a_node7"><a xlink:href="classBPMN_1_1CancelBoundaryEvent.html" target="_top" xlink:title=" ">
<polygon fill="none" stroke="black" points="0,-6 0,-63 159,-63 159,-6 0,-6"/>
<text text-anchor="middle" x="79.5" y="-51" font-family="Helvetica,sans-Serif" font-size="10.00">BPMN::CancelBoundaryEvent</text>
<polyline fill="none" stroke="black" points="0,-44 159,-44 "/>
<text text-anchor="start" x="8" y="-32" font-family="Helvetica,sans-Serif" font-size="10.00">+ element</text>
<polyline fill="none" stroke="black" points="0,-25 159,-25 "/>
<text text-anchor="start" x="8" y="-13" font-family="Helvetica,sans-Serif" font-size="10.00">+ CancelBoundaryEvent()</text>
</a>
</g>
</g>
<!-- Node1&#45;&gt;Node7 -->
<g id="edge14" class="edge">
<title>Node1&#45;&gt;Node7</title>
<path fill="none" stroke="midnightblue" d="M848.54,-245.05C720.31,-236.59 436.14,-215.05 343.5,-185 256.57,-156.81 166.21,-98.16 117,-63.29"/>
<polygon fill="none" stroke="midnightblue" points="848.4,-248.55 858.61,-245.7 848.86,-241.56 848.4,-248.55"/>
</g>
<!-- Node8 -->
<g id="node8" class="node">
<title>Node8</title>
<g id="a_node8"><a xlink:href="classBPMN_1_1CompensateBoundaryEvent.html" target="_top" xlink:title=" ">
<polygon fill="none" stroke="black" points="177,-0.5 177,-68.5 348,-68.5 348,-0.5 177,-0.5"/>
<text text-anchor="start" x="185" y="-56.5" font-family="Helvetica,sans-Serif" font-size="10.00">BPMN::CompensateBoundary</text>
<text text-anchor="middle" x="262.5" y="-45.5" font-family="Helvetica,sans-Serif" font-size="10.00">Event</text>
<polyline fill="none" stroke="black" points="177,-38.5 348,-38.5 "/>
<text text-anchor="start" x="185" y="-26.5" font-family="Helvetica,sans-Serif" font-size="10.00">+ element</text>
<polyline fill="none" stroke="black" points="177,-19.5 348,-19.5 "/>
<text text-anchor="start" x="185" y="-7.5" font-family="Helvetica,sans-Serif" font-size="10.00">+ CompensateBoundaryEvent()</text>
</a>
</g>
</g>
<!-- Node1&#45;&gt;Node8 -->
<g id="edge15" class="edge">
<title>Node1&#45;&gt;Node8</title>
<path fill="none" stroke="midnightblue" d="M848.78,-248.16C763.14,-245.12 607.48,-232.78 484.5,-185 413.25,-157.32 341.9,-103.48 300,-68.54"/>
<polygon fill="none" stroke="midnightblue" points="848.76,-251.67 858.86,-248.49 848.98,-244.67 848.76,-251.67"/>
</g>
<!-- Node10 -->
<g id="node10" class="node">
<title>Node10</title>
<g id="a_node10"><a xlink:href="classBPMN_1_1ErrorBoundaryEvent.html" target="_top" xlink:title=" ">
<polygon fill="none" stroke="black" points="366,-6 366,-63 515,-63 515,-6 366,-6"/>
<text text-anchor="middle" x="440.5" y="-51" font-family="Helvetica,sans-Serif" font-size="10.00">BPMN::ErrorBoundaryEvent</text>
<polyline fill="none" stroke="black" points="366,-44 515,-44 "/>
<text text-anchor="start" x="374" y="-32" font-family="Helvetica,sans-Serif" font-size="10.00">+ element</text>
<polyline fill="none" stroke="black" points="366,-25 515,-25 "/>
<text text-anchor="start" x="374" y="-13" font-family="Helvetica,sans-Serif" font-size="10.00">+ ErrorBoundaryEvent()</text>
</a>
</g>
</g>
<!-- Node1&#45;&gt;Node10 -->
<g id="edge19" class="edge">
<title>Node1&#45;&gt;Node10</title>
<path fill="none" stroke="midnightblue" d="M848.81,-248.68C778.04,-245.75 662.43,-233.11 576.5,-185 523.54,-155.34 480.05,-97.5 457.42,-63.1"/>
<polygon fill="none" stroke="midnightblue" points="848.79,-252.18 858.91,-249.05 849.05,-245.19 848.79,-252.18"/>
</g>
<!-- Node11 -->
<g id="node11" class="node">
<title>Node11</title>
<g id="a_node11"><a xlink:href="classBPMN_1_1EscalationBoundaryEvent.html" target="_top" xlink:title=" ">
<polygon fill="none" stroke="black" points="533.5,-0.5 533.5,-68.5 693.5,-68.5 693.5,-0.5 533.5,-0.5"/>
<text text-anchor="start" x="541.5" y="-56.5" font-family="Helvetica,sans-Serif" font-size="10.00">BPMN::EscalationBoundary</text>
<text text-anchor="middle" x="613.5" y="-45.5" font-family="Helvetica,sans-Serif" font-size="10.00">Event</text>
<polyline fill="none" stroke="black" points="533.5,-38.5 693.5,-38.5 "/>
<text text-anchor="start" x="541.5" y="-26.5" font-family="Helvetica,sans-Serif" font-size="10.00">+ element</text>
<polyline fill="none" stroke="black" points="533.5,-19.5 693.5,-19.5 "/>
<text text-anchor="start" x="541.5" y="-7.5" font-family="Helvetica,sans-Serif" font-size="10.00">+ EscalationBoundaryEvent()</text>
</a>
</g>
</g>
<!-- Node1&#45;&gt;Node11 -->
<g id="edge20" class="edge">
<title>Node1&#45;&gt;Node11</title>
<path fill="none" stroke="midnightblue" d="M848.7,-245.4C765.5,-239.22 626.86,-223.32 595.5,-185 568.85,-152.43 582.84,-101.69 596.89,-68.53"/>
<polygon fill="none" stroke="midnightblue" points="848.58,-248.9 858.81,-246.12 849.08,-241.92 848.58,-248.9"/>
</g>
<!-- Node15 -->
<g id="node15" class="node">
<title>Node15</title>
<g id="a_node15"><a xlink:href="classBPMN_1_1ConditionalCatchEvent.html" target="_top" xlink:title=" ">
<polygon fill="none" stroke="black" points="749,-116.5 749,-173.5 912,-173.5 912,-116.5 749,-116.5"/>
<text text-anchor="middle" x="830.5" y="-161.5" font-family="Helvetica,sans-Serif" font-size="10.00">BPMN::ConditionalCatchEvent</text>
<polyline fill="none" stroke="black" points="749,-154.5 912,-154.5 "/>
<text text-anchor="middle" x="830.5" y="-142.5" font-family="Helvetica,sans-Serif" font-size="10.00"> </text>
<polyline fill="none" stroke="black" points="749,-135.5 912,-135.5 "/>
<text text-anchor="start" x="757" y="-123.5" font-family="Helvetica,sans-Serif" font-size="10.00">+ ConditionalCatchEvent()</text>
</a>
</g>
</g>
<!-- Node1&#45;&gt;Node15 -->
<g id="edge16" class="edge">
<title>Node1&#45;&gt;Node15</title>
<path fill="none" stroke="midnightblue" d="M884.25,-213.51C873.87,-200.48 862.29,-185.93 852.54,-173.68"/>
<polygon fill="none" stroke="midnightblue" points="881.56,-215.75 890.53,-221.4 887.04,-211.39 881.56,-215.75"/>
</g>
<!-- Node17 -->
<g id="node17" class="node">
<title>Node17</title>
<g id="a_node17"><a xlink:href="classBPMN_1_1LinkTargetEvent.html" target="_top" xlink:title=" ">
<polygon fill="none" stroke="black" points="930.5,-111 930.5,-179 1060.5,-179 1060.5,-111 930.5,-111"/>
<text text-anchor="middle" x="995.5" y="-167" font-family="Helvetica,sans-Serif" font-size="10.00">BPMN::LinkTargetEvent</text>
<polyline fill="none" stroke="black" points="930.5,-160 1060.5,-160 "/>
<text text-anchor="start" x="938.5" y="-148" font-family="Helvetica,sans-Serif" font-size="10.00">+ linkName</text>
<text text-anchor="start" x="938.5" y="-137" font-family="Helvetica,sans-Serif" font-size="10.00">+ sources</text>
<polyline fill="none" stroke="black" points="930.5,-130 1060.5,-130 "/>
<text text-anchor="start" x="938.5" y="-118" font-family="Helvetica,sans-Serif" font-size="10.00">+ LinkTargetEvent()</text>
</a>
</g>
</g>
<!-- Node1&#45;&gt;Node17 -->
<g id="edge21" class="edge">
<title>Node1&#45;&gt;Node17</title>
<path fill="none" stroke="midnightblue" d="M941.09,-213.52C950.06,-202.39 959.92,-190.15 968.76,-179.18"/>
<polygon fill="none" stroke="midnightblue" points="938.29,-211.42 934.74,-221.4 943.74,-215.81 938.29,-211.42"/>
</g>
<!-- Node18 -->
<g id="node18" class="node">
<title>Node18</title>
<g id="a_node18"><a xlink:href="classBPMN_1_1MessageCatchEvent.html" target="_top" xlink:title=" ">
<polygon fill="none" stroke="black" points="1079,-116.5 1079,-173.5 1230,-173.5 1230,-116.5 1079,-116.5"/>
<text text-anchor="middle" x="1154.5" y="-161.5" font-family="Helvetica,sans-Serif" font-size="10.00">BPMN::MessageCatchEvent</text>
<polyline fill="none" stroke="black" points="1079,-154.5 1230,-154.5 "/>
<text text-anchor="middle" x="1154.5" y="-142.5" font-family="Helvetica,sans-Serif" font-size="10.00"> </text>
<polyline fill="none" stroke="black" points="1079,-135.5 1230,-135.5 "/>
<text text-anchor="start" x="1087" y="-123.5" font-family="Helvetica,sans-Serif" font-size="10.00">+ MessageCatchEvent()</text>
</a>
</g>
</g>
<!-- Node1&#45;&gt;Node18 -->
<g id="edge22" class="edge">
<title>Node1&#45;&gt;Node18</title>
<path fill="none" stroke="midnightblue" d="M975.67,-223.97C1004.42,-212.4 1038.8,-198.29 1069.5,-185 1077.84,-181.39 1086.6,-177.49 1095.2,-173.6"/>
<polygon fill="none" stroke="midnightblue" points="974.12,-220.82 966.15,-227.8 976.73,-227.32 974.12,-220.82"/>
</g>
<!-- Node20 -->
<g id="node20" class="node">
<title>Node20</title>
<g id="a_node20"><a xlink:href="classBPMN_1_1SignalCatchEvent.html" target="_top" xlink:title=" ">
<polygon fill="none" stroke="black" points="1248,-116.5 1248,-173.5 1385,-173.5 1385,-116.5 1248,-116.5"/>
<text text-anchor="middle" x="1316.5" y="-161.5" font-family="Helvetica,sans-Serif" font-size="10.00">BPMN::SignalCatchEvent</text>
<polyline fill="none" stroke="black" points="1248,-154.5 1385,-154.5 "/>
<text text-anchor="middle" x="1316.5" y="-142.5" font-family="Helvetica,sans-Serif" font-size="10.00"> </text>
<polyline fill="none" stroke="black" points="1248,-135.5 1385,-135.5 "/>
<text text-anchor="start" x="1256" y="-123.5" font-family="Helvetica,sans-Serif" font-size="10.00">+ SignalCatchEvent()</text>
</a>
</g>
</g>
<!-- Node1&#45;&gt;Node20 -->
<g id="edge25" class="edge">
<title>Node1&#45;&gt;Node20</title>
<path fill="none" stroke="midnightblue" d="M976.03,-241.84C1042.92,-233.09 1150.65,-215.54 1239.5,-185 1248.57,-181.88 1257.92,-177.89 1266.84,-173.65"/>
<polygon fill="none" stroke="midnightblue" points="975.53,-238.37 966.06,-243.12 976.42,-245.32 975.53,-238.37"/>
</g>
<!-- Node22 -->
<g id="node22" class="node">
<title>Node22</title>
<g id="a_node22"><a xlink:href="classBPMN_1_1TimerCatchEvent.html" target="_top" xlink:title=" ">
<polygon fill="none" stroke="black" points="1403.5,-116.5 1403.5,-173.5 1539.5,-173.5 1539.5,-116.5 1403.5,-116.5"/>
<text text-anchor="middle" x="1471.5" y="-161.5" font-family="Helvetica,sans-Serif" font-size="10.00">BPMN::TimerCatchEvent</text>
<polyline fill="none" stroke="black" points="1403.5,-154.5 1539.5,-154.5 "/>
<text text-anchor="middle" x="1471.5" y="-142.5" font-family="Helvetica,sans-Serif" font-size="10.00"> </text>
<polyline fill="none" stroke="black" points="1403.5,-135.5 1539.5,-135.5 "/>
<text text-anchor="start" x="1411.5" y="-123.5" font-family="Helvetica,sans-Serif" font-size="10.00">+ TimerCatchEvent()</text>
</a>
</g>
</g>
<!-- Node1&#45;&gt;Node22 -->
<g id="edge28" class="edge">
<title>Node1&#45;&gt;Node22</title>
<path fill="none" stroke="midnightblue" d="M976.34,-247.32C1070.02,-243.34 1249.36,-229.96 1394.5,-185 1404.09,-182.03 1413.93,-177.94 1423.24,-173.53"/>
<polygon fill="none" stroke="midnightblue" points="976.02,-243.83 966.17,-247.72 976.3,-250.82 976.02,-243.83"/>
</g>
<!-- Node24 -->
<g id="node24" class="node">
<title>Node24</title>
<g id="a_node24"><a xlink:href="classBPMN_1_1TypedStartEvent.html" target="_top" xlink:title="Base class for all start events with an event definition.">
<polygon fill="none" stroke="black" points="1773,-116.5 1773,-173.5 1904,-173.5 1904,-116.5 1773,-116.5"/>
<text text-anchor="middle" x="1838.5" y="-161.5" font-family="Helvetica,sans-Serif" font-size="10.00">BPMN::TypedStartEvent</text>
<polyline fill="none" stroke="black" points="1773,-154.5 1904,-154.5 "/>
<text text-anchor="start" x="1781" y="-142.5" font-family="Helvetica,sans-Serif" font-size="10.00">+ isInterrupting</text>
<polyline fill="none" stroke="black" points="1773,-135.5 1904,-135.5 "/>
<text text-anchor="start" x="1781" y="-123.5" font-family="Helvetica,sans-Serif" font-size="10.00">+ TypedStartEvent()</text>
</a>
</g>
</g>
<!-- Node1&#45;&gt;Node24 -->
<g id="edge31" class="edge">
<title>Node1&#45;&gt;Node24</title>
<path fill="none" stroke="midnightblue" d="M976.18,-243.3C1090.78,-232.89 1339.34,-209.58 1548.5,-185 1625.69,-175.93 1714.2,-163.77 1772.93,-155.45"/>
<polygon fill="none" stroke="midnightblue" points="975.81,-239.82 966.17,-244.21 976.45,-246.79 975.81,-239.82"/>
</g>
<!-- Node28 -->
<g id="node28" class="node">
<title>Node28</title>
<g id="a_node28"><a xlink:href="classBPMN_1_1UntypedStartEvent.html" target="_top" xlink:title=" ">
<polygon fill="none" stroke="black" points="1922.5,-116.5 1922.5,-173.5 2066.5,-173.5 2066.5,-116.5 1922.5,-116.5"/>
<text text-anchor="middle" x="1994.5" y="-161.5" font-family="Helvetica,sans-Serif" font-size="10.00">BPMN::UntypedStartEvent</text>
<polyline fill="none" stroke="black" points="1922.5,-154.5 2066.5,-154.5 "/>
<text text-anchor="middle" x="1994.5" y="-142.5" font-family="Helvetica,sans-Serif" font-size="10.00"> </text>
<polyline fill="none" stroke="black" points="1922.5,-135.5 2066.5,-135.5 "/>
<text text-anchor="start" x="1930.5" y="-123.5" font-family="Helvetica,sans-Serif" font-size="10.00">+ UntypedStartEvent()</text>
</a>
</g>
</g>
<!-- Node1&#45;&gt;Node28 -->
<g id="edge39" class="edge">
<title>Node1&#45;&gt;Node28</title>
<path fill="none" stroke="midnightblue" d="M976.29,-248.11C1167.75,-244.93 1735.27,-231.7 1913.5,-185 1923.92,-182.27 1934.6,-178.18 1944.66,-173.66"/>
<polygon fill="none" stroke="midnightblue" points="976.05,-244.61 966.1,-248.27 976.16,-251.61 976.05,-244.61"/>
</g>
<!-- Node2 -->
<g id="node2" class="node">
<title>Node2</title>
<g id="a_node2"><a xlink:href="classBPMN_1_1Event.html" target="_top" xlink:title=" ">
<polygon fill="none" stroke="black" points="872.5,-315.5 872.5,-372.5 952.5,-372.5 952.5,-315.5 872.5,-315.5"/>
<text text-anchor="middle" x="912.5" y="-360.5" font-family="Helvetica,sans-Serif" font-size="10.00">BPMN::Event</text>
<polyline fill="none" stroke="black" points="872.5,-353.5 952.5,-353.5 "/>
<text text-anchor="start" x="880.5" y="-341.5" font-family="Helvetica,sans-Serif" font-size="10.00">+ element</text>
<polyline fill="none" stroke="black" points="872.5,-334.5 952.5,-334.5 "/>
<text text-anchor="start" x="880.5" y="-322.5" font-family="Helvetica,sans-Serif" font-size="10.00">+ Event()</text>
</a>
</g>
</g>
<!-- Node2&#45;&gt;Node1 -->
<g id="edge1" class="edge">
<title>Node2&#45;&gt;Node1</title>
<path fill="none" stroke="midnightblue" d="M912.5,-305.21C912.5,-296.29 912.5,-286.95 912.5,-278.58"/>
<polygon fill="none" stroke="midnightblue" points="909,-305.4 912.5,-315.4 916,-305.4 909,-305.4"/>
</g>
<!-- Node3 -->
<g id="node3" class="node">
<title>Node3</title>
<g id="a_node3"><a xlink:href="classBPMN_1_1FlowNode.html" target="_top" xlink:title="Base class for BPMN elements that may contain incoming and outgoing sequence flows.">
<polygon fill="none" stroke="black" points="862,-409.5 862,-499.5 963,-499.5 963,-409.5 862,-409.5"/>
<text text-anchor="middle" x="912.5" y="-487.5" font-family="Helvetica,sans-Serif" font-size="10.00">BPMN::FlowNode</text>
<polyline fill="none" stroke="black" points="862,-480.5 963,-480.5 "/>
<text text-anchor="start" x="870" y="-468.5" font-family="Helvetica,sans-Serif" font-size="10.00">+ element</text>
<text text-anchor="start" x="870" y="-457.5" font-family="Helvetica,sans-Serif" font-size="10.00">+ name</text>
<text text-anchor="start" x="870" y="-446.5" font-family="Helvetica,sans-Serif" font-size="10.00">+ incoming</text>
<text text-anchor="start" x="870" y="-435.5" font-family="Helvetica,sans-Serif" font-size="10.00">+ outgoing</text>
<polyline fill="none" stroke="black" points="862,-428.5 963,-428.5 "/>
<text text-anchor="start" x="870" y="-416.5" font-family="Helvetica,sans-Serif" font-size="10.00">+ FlowNode()</text>
</a>
</g>
</g>
<!-- Node3&#45;&gt;Node2 -->
<g id="edge2" class="edge">
<title>Node3&#45;&gt;Node2</title>
<path fill="none" stroke="midnightblue" d="M912.5,-399.35C912.5,-390.07 912.5,-380.79 912.5,-372.59"/>
<polygon fill="none" stroke="midnightblue" points="909,-399.37 912.5,-409.37 916,-399.37 909,-399.37"/>
</g>
<!-- Node4 -->
<g id="node4" class="node">
<title>Node4</title>
<g id="a_node4"><a xlink:href="classBPMN_1_1ChildNode.html" target="_top" xlink:title="Base class for BPMN elements within a Scope.">
<polygon fill="none" stroke="black" points="861.5,-536.5 861.5,-593.5 963.5,-593.5 963.5,-536.5 861.5,-536.5"/>
<text text-anchor="middle" x="912.5" y="-581.5" font-family="Helvetica,sans-Serif" font-size="10.00">BPMN::ChildNode</text>
<polyline fill="none" stroke="black" points="861.5,-574.5 963.5,-574.5 "/>
<text text-anchor="start" x="869.5" y="-562.5" font-family="Helvetica,sans-Serif" font-size="10.00">+ parent</text>
<polyline fill="none" stroke="black" points="861.5,-555.5 963.5,-555.5 "/>
<text text-anchor="start" x="869.5" y="-543.5" font-family="Helvetica,sans-Serif" font-size="10.00">+ ChildNode()</text>
</a>
</g>
</g>
<!-- Node4&#45;&gt;Node3 -->
<g id="edge3" class="edge">
<title>Node4&#45;&gt;Node3</title>
<path fill="none" stroke="midnightblue" d="M912.5,-526.21C912.5,-517.61 912.5,-508.39 912.5,-499.55"/>
<polygon fill="none" stroke="midnightblue" points="909,-526.34 912.5,-536.34 916,-526.34 909,-526.34"/>
</g>
<!-- Node5 -->
<g id="node5" class="node">
<title>Node5</title>
<g id="a_node5"><a xlink:href="classBPMN_1_1Node.html" target="_top" xlink:title="Base class for all elements in a BPMN model.">
<polygon fill="none" stroke="black" points="851.5,-630.5 851.5,-874.5 973.5,-874.5 973.5,-630.5 851.5,-630.5"/>
<text text-anchor="middle" x="912.5" y="-862.5" font-family="Helvetica,sans-Serif" font-size="10.00">BPMN::Node</text>
<polyline fill="none" stroke="black" points="851.5,-855.5 973.5,-855.5 "/>
<text text-anchor="start" x="859.5" y="-843.5" font-family="Helvetica,sans-Serif" font-size="10.00">+ id</text>
<text text-anchor="start" x="859.5" y="-832.5" font-family="Helvetica,sans-Serif" font-size="10.00">+ receiving</text>
<text text-anchor="start" x="859.5" y="-821.5" font-family="Helvetica,sans-Serif" font-size="10.00">+ sending</text>
<text text-anchor="start" x="859.5" y="-810.5" font-family="Helvetica,sans-Serif" font-size="10.00">+ element</text>
<text text-anchor="start" x="859.5" y="-799.5" font-family="Helvetica,sans-Serif" font-size="10.00">+ extensionElements</text>
<polyline fill="none" stroke="black" points="851.5,-792.5 973.5,-792.5 "/>
<text text-anchor="start" x="859.5" y="-780.5" font-family="Helvetica,sans-Serif" font-size="10.00">+ Node()</text>
<text text-anchor="start" x="859.5" y="-769.5" font-family="Helvetica,sans-Serif" font-size="10.00">+ ~Node()</text>
<text text-anchor="start" x="859.5" y="-758.5" font-family="Helvetica,sans-Serif" font-size="10.00">+ is()</text>
<text text-anchor="start" x="859.5" y="-747.5" font-family="Helvetica,sans-Serif" font-size="10.00">+ is()</text>
<text text-anchor="start" x="859.5" y="-736.5" font-family="Helvetica,sans-Serif" font-size="10.00">+ get()</text>
<text text-anchor="start" x="859.5" y="-725.5" font-family="Helvetica,sans-Serif" font-size="10.00">+ get()</text>
<text text-anchor="start" x="859.5" y="-714.5" font-family="Helvetica,sans-Serif" font-size="10.00">+ represents()</text>
<text text-anchor="start" x="859.5" y="-703.5" font-family="Helvetica,sans-Serif" font-size="10.00">+ represents()</text>
<text text-anchor="start" x="859.5" y="-692.5" font-family="Helvetica,sans-Serif" font-size="10.00">+ as()</text>
<text text-anchor="start" x="859.5" y="-681.5" font-family="Helvetica,sans-Serif" font-size="10.00">+ as()</text>
<text text-anchor="start" x="859.5" y="-670.5" font-family="Helvetica,sans-Serif" font-size="10.00">+ find()</text>
<text text-anchor="start" x="859.5" y="-659.5" font-family="Helvetica,sans-Serif" font-size="10.00">+ find()</text>
<text text-anchor="start" x="859.5" y="-648.5" font-family="Helvetica,sans-Serif" font-size="10.00">+ find_all()</text>
<text text-anchor="start" x="859.5" y="-637.5" font-family="Helvetica,sans-Serif" font-size="10.00">+ find_all()</text>
</a>
</g>
</g>
<!-- Node5&#45;&gt;Node4 -->
<g id="edge4" class="edge">
<title>Node5&#45;&gt;Node4</title>
<path fill="none" stroke="midnightblue" d="M912.5,-620.34C912.5,-610.53 912.5,-601.42 912.5,-593.57"/>
<polygon fill="none" stroke="midnightblue" points="909,-620.36 912.5,-630.36 916,-620.36 909,-620.36"/>
</g>
<!-- Node6&#45;&gt;Node7 -->
<g id="edge6" class="edge">
<title>Node6&#45;&gt;Node7</title>
<path fill="none" stroke="midnightblue" d="M594.13,-137.97C495.79,-128.76 316.34,-108.01 167.5,-69 161.02,-67.3 154.35,-65.29 147.73,-63.1"/>
<polygon fill="none" stroke="midnightblue" points="593.99,-141.47 604.27,-138.9 594.63,-134.5 593.99,-141.47"/>
</g>
<!-- Node6&#45;&gt;Node8 -->
<g id="edge7" class="edge">
<title>Node6&#45;&gt;Node8</title>
<path fill="none" stroke="midnightblue" d="M594.53,-128.69C531.13,-114.85 437.09,-93 356.5,-69 353.76,-68.18 350.98,-67.33 348.19,-66.46"/>
<polygon fill="none" stroke="midnightblue" points="593.92,-132.14 604.43,-130.84 595.41,-125.3 593.92,-132.14"/>
</g>
<!-- Node9 -->
<g id="node9" class="node">
<title>Node9</title>
<g id="a_node9"><a xlink:href="classBPMN_1_1ConditionalBoundaryEvent.html" target="_top" xlink:title=" ">
<polygon fill="none" stroke="black" points="712,-0.5 712,-68.5 877,-68.5 877,-0.5 712,-0.5"/>
<text text-anchor="start" x="720" y="-56.5" font-family="Helvetica,sans-Serif" font-size="10.00">BPMN::ConditionalBoundary</text>
<text text-anchor="middle" x="794.5" y="-45.5" font-family="Helvetica,sans-Serif" font-size="10.00">Event</text>
<polyline fill="none" stroke="black" points="712,-38.5 877,-38.5 "/>
<text text-anchor="start" x="720" y="-26.5" font-family="Helvetica,sans-Serif" font-size="10.00">+ element</text>
<polyline fill="none" stroke="black" points="712,-19.5 877,-19.5 "/>
<text text-anchor="start" x="720" y="-7.5" font-family="Helvetica,sans-Serif" font-size="10.00">+ ConditionalBoundaryEvent()</text>
</a>
</g>
</g>
<!-- Node6&#45;&gt;Node9 -->
<g id="edge8" class="edge">
<title>Node6&#45;&gt;Node9</title>
<path fill="none" stroke="midnightblue" d="M720.35,-98.85C732.24,-88.69 744.64,-78.1 755.82,-68.54"/>
<polygon fill="none" stroke="midnightblue" points="717.96,-96.28 712.63,-105.44 722.51,-101.61 717.96,-96.28"/>
</g>
<!-- Node6&#45;&gt;Node10 -->
<g id="edge9" class="edge">
<title>Node6&#45;&gt;Node10</title>
<path fill="none" stroke="midnightblue" d="M595.16,-109.42C563.89,-94.48 527.79,-77.22 498.34,-63.15"/>
<polygon fill="none" stroke="midnightblue" points="593.74,-112.62 604.27,-113.78 596.75,-106.31 593.74,-112.62"/>
</g>
<!-- Node6&#45;&gt;Node11 -->
<g id="edge10" class="edge">
<title>Node6&#45;&gt;Node11</title>
<path fill="none" stroke="midnightblue" d="M643.72,-96.23C639.07,-86.88 634.29,-77.28 629.95,-68.54"/>
<polygon fill="none" stroke="midnightblue" points="640.72,-98.05 648.31,-105.44 646.99,-94.93 640.72,-98.05"/>
</g>
<!-- Node12 -->
<g id="node12" class="node">
<title>Node12</title>
<g id="a_node12"><a xlink:href="classBPMN_1_1MessageBoundaryEvent.html" target="_top" xlink:title=" ">
<polygon fill="none" stroke="black" points="895.5,-6 895.5,-63 1065.5,-63 1065.5,-6 895.5,-6"/>
<text text-anchor="middle" x="980.5" y="-51" font-family="Helvetica,sans-Serif" font-size="10.00">BPMN::MessageBoundaryEvent</text>
<polyline fill="none" stroke="black" points="895.5,-44 1065.5,-44 "/>
<text text-anchor="start" x="903.5" y="-32" font-family="Helvetica,sans-Serif" font-size="10.00">+ element</text>
<polyline fill="none" stroke="black" points="895.5,-25 1065.5,-25 "/>
<text text-anchor="start" x="903.5" y="-13" font-family="Helvetica,sans-Serif" font-size="10.00">+ MessageBoundaryEvent()</text>
</a>
</g>
</g>
<!-- Node6&#45;&gt;Node12 -->
<g id="edge11" class="edge">
<title>Node6&#45;&gt;Node12</title>
<path fill="none" stroke="midnightblue" d="M740.36,-104.96C803.77,-81.51 824.47,-87.24 885.5,-69 891.7,-67.15 898.09,-65.13 904.49,-63.04"/>
<polygon fill="none" stroke="midnightblue" points="738.79,-101.82 730.68,-108.64 741.28,-108.36 738.79,-101.82"/>
</g>
<!-- Node13 -->
<g id="node13" class="node">
<title>Node13</title>
<g id="a_node13"><a xlink:href="classBPMN_1_1SignalBoundaryEvent.html" target="_top" xlink:title=" ">
<polygon fill="none" stroke="black" points="1083.5,-6 1083.5,-63 1239.5,-63 1239.5,-6 1083.5,-6"/>
<text text-anchor="middle" x="1161.5" y="-51" font-family="Helvetica,sans-Serif" font-size="10.00">BPMN::SignalBoundaryEvent</text>
<polyline fill="none" stroke="black" points="1083.5,-44 1239.5,-44 "/>
<text text-anchor="start" x="1091.5" y="-32" font-family="Helvetica,sans-Serif" font-size="10.00">+ element</text>
<polyline fill="none" stroke="black" points="1083.5,-25 1239.5,-25 "/>
<text text-anchor="start" x="1091.5" y="-13" font-family="Helvetica,sans-Serif" font-size="10.00">+ SignalBoundaryEvent()</text>
</a>
</g>
</g>
<!-- Node6&#45;&gt;Node13 -->
<g id="edge12" class="edge">
<title>Node6&#45;&gt;Node13</title>
<path fill="none" stroke="midnightblue" d="M740.16,-105.2C884.52,-62.34 932.08,-103.45 1074.5,-69 1081.26,-67.36 1088.21,-65.33 1095.09,-63.08"/>
<polygon fill="none" stroke="midnightblue" points="739.05,-101.88 730.51,-108.14 741.1,-108.57 739.05,-101.88"/>
</g>
<!-- Node14 -->
<g id="node14" class="node">
<title>Node14</title>
<g id="a_node14"><a xlink:href="classBPMN_1_1TimerBoundaryEvent.html" target="_top" xlink:title=" ">
<polygon fill="none" stroke="black" points="1258,-6 1258,-63 1413,-63 1413,-6 1258,-6"/>
<text text-anchor="middle" x="1335.5" y="-51" font-family="Helvetica,sans-Serif" font-size="10.00">BPMN::TimerBoundaryEvent</text>
<polyline fill="none" stroke="black" points="1258,-44 1413,-44 "/>
<text text-anchor="start" x="1266" y="-32" font-family="Helvetica,sans-Serif" font-size="10.00">+ element</text>
<polyline fill="none" stroke="black" points="1258,-25 1413,-25 "/>
<text text-anchor="start" x="1266" y="-13" font-family="Helvetica,sans-Serif" font-size="10.00">+ TimerBoundaryEvent()</text>
</a>
</g>
</g>
<!-- Node6&#45;&gt;Node14 -->
<g id="edge13" class="edge">
<title>Node6&#45;&gt;Node14</title>
<path fill="none" stroke="midnightblue" d="M740.73,-105.03C959.31,-43.78 1030.38,-117.57 1248.5,-69 1255.61,-67.42 1262.91,-65.36 1270.11,-63.03"/>
<polygon fill="none" stroke="midnightblue" points="739.53,-101.74 730.88,-107.86 741.46,-108.46 739.53,-101.74"/>
</g>
<!-- Node15&#45;&gt;Node9 -->
<g id="edge17" class="edge">
<title>Node15&#45;&gt;Node9</title>
<path fill="none" stroke="midnightblue" d="M818.13,-106.73C814.01,-94.31 809.46,-80.58 805.46,-68.52"/>
<polygon fill="none" stroke="midnightblue" points="814.85,-107.95 821.32,-116.34 821.5,-105.75 814.85,-107.95"/>
</g>
<!-- Node16 -->
<g id="node16" class="node">
<title>Node16</title>
<g id="a_node16"><a xlink:href="classBPMN_1_1ConditionalStartEvent.html" target="_top" xlink:title=" ">
<polygon fill="none" stroke="black" points="1431.5,-6 1431.5,-63 1589.5,-63 1589.5,-6 1431.5,-6"/>
<text text-anchor="middle" x="1510.5" y="-51" font-family="Helvetica,sans-Serif" font-size="10.00">BPMN::ConditionalStartEvent</text>
<polyline fill="none" stroke="black" points="1431.5,-44 1589.5,-44 "/>
<text text-anchor="start" x="1439.5" y="-32" font-family="Helvetica,sans-Serif" font-size="10.00">+ element</text>
<polyline fill="none" stroke="black" points="1431.5,-25 1589.5,-25 "/>
<text text-anchor="start" x="1439.5" y="-13" font-family="Helvetica,sans-Serif" font-size="10.00">+ ConditionalStartEvent()</text>
</a>
</g>
</g>
<!-- Node15&#45;&gt;Node16 -->
<g id="edge18" class="edge">
<title>Node15&#45;&gt;Node16</title>
<path fill="none" stroke="midnightblue" d="M896.15,-112.85C904.54,-109.77 913.13,-107.03 921.5,-105 1138.43,-52.3 1204.53,-117.22 1422.5,-69 1429.68,-67.41 1437.06,-65.35 1444.34,-63.02"/>
<polygon fill="none" stroke="midnightblue" points="894.86,-109.6 886.78,-116.45 897.37,-116.13 894.86,-109.6"/>
</g>
<!-- Node18&#45;&gt;Node12 -->
<g id="edge23" class="edge">
<title>Node18&#45;&gt;Node12</title>
<path fill="none" stroke="midnightblue" d="M1101.65,-111.04C1077.07,-95.72 1048.18,-77.7 1024.78,-63.11"/>
<polygon fill="none" stroke="midnightblue" points="1099.8,-114.02 1110.14,-116.34 1103.51,-108.08 1099.8,-114.02"/>
</g>
<!-- Node19 -->
<g id="node19" class="node">
<title>Node19</title>
<g id="a_node19"><a xlink:href="classBPMN_1_1MessageStartEvent.html" target="_top" xlink:title=" ">
<polygon fill="none" stroke="black" points="1607.5,-6 1607.5,-63 1753.5,-63 1753.5,-6 1607.5,-6"/>
<text text-anchor="middle" x="1680.5" y="-51" font-family="Helvetica,sans-Serif" font-size="10.00">BPMN::MessageStartEvent</text>
<polyline fill="none" stroke="black" points="1607.5,-44 1753.5,-44 "/>
<text text-anchor="start" x="1615.5" y="-32" font-family="Helvetica,sans-Serif" font-size="10.00">+ element</text>
<polyline fill="none" stroke="black" points="1607.5,-25 1753.5,-25 "/>
<text text-anchor="start" x="1615.5" y="-13" font-family="Helvetica,sans-Serif" font-size="10.00">+ MessageStartEvent()</text>
</a>
</g>
</g>
<!-- Node18&#45;&gt;Node19 -->
<g id="edge24" class="edge">
<title>Node18&#45;&gt;Node19</title>
<path fill="none" stroke="midnightblue" d="M1216.85,-112.61C1224.35,-109.67 1232.01,-107.03 1239.5,-105 1394.26,-62.99 1442.89,-107.72 1598.5,-69 1605.07,-67.37 1611.8,-65.3 1618.44,-63.01"/>
<polygon fill="none" stroke="midnightblue" points="1215.37,-109.43 1207.46,-116.47 1218.03,-115.9 1215.37,-109.43"/>
</g>
<!-- Node20&#45;&gt;Node13 -->
<g id="edge26" class="edge">
<title>Node20&#45;&gt;Node13</title>
<path fill="none" stroke="midnightblue" d="M1268.56,-110.44C1246.86,-95.25 1221.52,-77.51 1200.94,-63.11"/>
<polygon fill="none" stroke="midnightblue" points="1266.79,-113.47 1276.99,-116.34 1270.8,-107.74 1266.79,-113.47"/>
</g>
<!-- Node21 -->
<g id="node21" class="node">
<title>Node21</title>
<g id="a_node21"><a xlink:href="classBPMN_1_1SignalStartEvent.html" target="_top" xlink:title=" ">
<polygon fill="none" stroke="black" points="1772,-6 1772,-63 1905,-63 1905,-6 1772,-6"/>
<text text-anchor="middle" x="1838.5" y="-51" font-family="Helvetica,sans-Serif" font-size="10.00">BPMN::SignalStartEvent</text>
<polyline fill="none" stroke="black" points="1772,-44 1905,-44 "/>
<text text-anchor="start" x="1780" y="-32" font-family="Helvetica,sans-Serif" font-size="10.00">+ element</text>
<polyline fill="none" stroke="black" points="1772,-25 1905,-25 "/>
<text text-anchor="start" x="1780" y="-13" font-family="Helvetica,sans-Serif" font-size="10.00">+ SignalStartEvent()</text>
</a>
</g>
</g>
<!-- Node20&#45;&gt;Node21 -->
<g id="edge27" class="edge">
<title>Node20&#45;&gt;Node21</title>
<path fill="none" stroke="midnightblue" d="M1374.48,-112.16C1381.09,-109.39 1387.85,-106.92 1394.5,-105 1552.41,-59.49 1603.53,-110.67 1762.5,-69 1768.64,-67.39 1774.91,-65.35 1781.09,-63.06"/>
<polygon fill="none" stroke="midnightblue" points="1372.63,-109.15 1364.91,-116.41 1375.47,-115.55 1372.63,-109.15"/>
</g>
<!-- Node22&#45;&gt;Node14 -->
<g id="edge29" class="edge">
<title>Node22&#45;&gt;Node14</title>
<path fill="none" stroke="midnightblue" d="M1428.93,-110.04C1410,-94.94 1388,-77.39 1370.11,-63.11"/>
<polygon fill="none" stroke="midnightblue" points="1426.83,-112.84 1436.83,-116.34 1431.2,-107.37 1426.83,-112.84"/>
</g>
<!-- Node23 -->
<g id="node23" class="node">
<title>Node23</title>
<g id="a_node23"><a xlink:href="classBPMN_1_1TimerStartEvent.html" target="_top" xlink:title=" ">
<polygon fill="none" stroke="black" points="1923,-6 1923,-63 2054,-63 2054,-6 1923,-6"/>
<text text-anchor="middle" x="1988.5" y="-51" font-family="Helvetica,sans-Serif" font-size="10.00">BPMN::TimerStartEvent</text>
<polyline fill="none" stroke="black" points="1923,-44 2054,-44 "/>
<text text-anchor="start" x="1931" y="-32" font-family="Helvetica,sans-Serif" font-size="10.00">+ element</text>
<polyline fill="none" stroke="black" points="1923,-25 2054,-25 "/>
<text text-anchor="start" x="1931" y="-13" font-family="Helvetica,sans-Serif" font-size="10.00">+ TimerStartEvent()</text>
</a>
</g>
</g>
<!-- Node22&#45;&gt;Node23 -->
<g id="edge30" class="edge">
<title>Node22&#45;&gt;Node23</title>
<path fill="none" stroke="midnightblue" d="M1549.99,-133.19C1658.31,-117.85 1847.83,-89.36 1914.5,-69 1920.03,-67.31 1925.69,-65.3 1931.29,-63.12"/>
<polygon fill="none" stroke="midnightblue" points="1549.17,-129.77 1539.76,-134.64 1550.15,-136.7 1549.17,-129.77"/>
</g>
<!-- Node24&#45;&gt;Node16 -->
<g id="edge33" class="edge">
<title>Node24&#45;&gt;Node16</title>
<path fill="none" stroke="midnightblue" d="M1763.36,-121.8C1715.86,-107.45 1653.3,-87.97 1598.5,-69 1593.09,-67.13 1587.52,-65.14 1581.93,-63.11"/>
<polygon fill="none" stroke="midnightblue" points="1762.37,-125.16 1772.96,-124.69 1764.39,-118.46 1762.37,-125.16"/>
</g>
<!-- Node24&#45;&gt;Node19 -->
<g id="edge36" class="edge">
<title>Node24&#45;&gt;Node19</title>
<path fill="none" stroke="midnightblue" d="M1789.92,-110.64C1767.74,-95.41 1741.77,-77.58 1720.71,-63.11"/>
<polygon fill="none" stroke="midnightblue" points="1788,-113.56 1798.22,-116.34 1791.96,-107.79 1788,-113.56"/>
</g>
<!-- Node24&#45;&gt;Node21 -->
<g id="edge37" class="edge">
<title>Node24&#45;&gt;Node21</title>
<path fill="none" stroke="midnightblue" d="M1838.5,-105.94C1838.5,-91.83 1838.5,-76.11 1838.5,-63.11"/>
<polygon fill="none" stroke="midnightblue" points="1835,-106.34 1838.5,-116.34 1842,-106.34 1835,-106.34"/>
</g>
<!-- Node24&#45;&gt;Node23 -->
<g id="edge38" class="edge">
<title>Node24&#45;&gt;Node23</title>
<path fill="none" stroke="midnightblue" d="M1884.9,-110.44C1905.9,-95.25 1930.42,-77.51 1950.33,-63.11"/>
<polygon fill="none" stroke="midnightblue" points="1882.79,-107.64 1876.74,-116.34 1886.89,-113.32 1882.79,-107.64"/>
</g>
<!-- Node25 -->
<g id="node25" class="node">
<title>Node25</title>
<g id="a_node25"><a xlink:href="classBPMN_1_1CompensateStartEvent.html" target="_top" xlink:title=" ">
<polygon fill="none" stroke="black" points="2072.5,-6 2072.5,-63 2236.5,-63 2236.5,-6 2072.5,-6"/>
<text text-anchor="middle" x="2154.5" y="-51" font-family="Helvetica,sans-Serif" font-size="10.00">BPMN::CompensateStartEvent</text>
<polyline fill="none" stroke="black" points="2072.5,-44 2236.5,-44 "/>
<text text-anchor="middle" x="2154.5" y="-32" font-family="Helvetica,sans-Serif" font-size="10.00"> </text>
<polyline fill="none" stroke="black" points="2072.5,-25 2236.5,-25 "/>
<text text-anchor="start" x="2080.5" y="-13" font-family="Helvetica,sans-Serif" font-size="10.00">+ CompensateStartEvent()</text>
</a>
</g>
</g>
<!-- Node24&#45;&gt;Node25 -->
<g id="edge32" class="edge">
<title>Node24&#45;&gt;Node25</title>
<path fill="none" stroke="midnightblue" d="M1896.68,-112.01C1902.29,-109.46 1907.95,-107.07 1913.5,-105 1977.72,-81.01 1997.88,-88.88 2063.5,-69 2069.46,-67.19 2075.6,-65.21 2081.74,-63.14"/>
<polygon fill="none" stroke="midnightblue" points="1894.88,-109 1887.34,-116.44 1897.88,-115.32 1894.88,-109"/>
</g>
<!-- Node26 -->
<g id="node26" class="node">
<title>Node26</title>
<g id="a_node26"><a xlink:href="classBPMN_1_1ErrorStartEvent.html" target="_top" xlink:title=" ">
<polygon fill="none" stroke="black" points="2254.5,-6 2254.5,-63 2380.5,-63 2380.5,-6 2254.5,-6"/>
<text text-anchor="middle" x="2317.5" y="-51" font-family="Helvetica,sans-Serif" font-size="10.00">BPMN::ErrorStartEvent</text>
<polyline fill="none" stroke="black" points="2254.5,-44 2380.5,-44 "/>
<text text-anchor="middle" x="2317.5" y="-32" font-family="Helvetica,sans-Serif" font-size="10.00"> </text>
<polyline fill="none" stroke="black" points="2254.5,-25 2380.5,-25 "/>
<text text-anchor="start" x="2262.5" y="-13" font-family="Helvetica,sans-Serif" font-size="10.00">+ ErrorStartEvent()</text>
</a>
</g>
</g>
<!-- Node24&#45;&gt;Node26 -->
<g id="edge34" class="edge">
<title>Node24&#45;&gt;Node26</title>
<path fill="none" stroke="midnightblue" d="M1894.19,-112.21C1900.57,-109.43 1907.08,-106.94 1913.5,-105 2055.56,-62.02 2102.53,-108.84 2245.5,-69 2251.34,-67.37 2257.31,-65.31 2263.17,-63.02"/>
<polygon fill="none" stroke="midnightblue" points="1892.59,-109.1 1884.98,-116.47 1895.53,-115.45 1892.59,-109.1"/>
</g>
<!-- Node27 -->
<g id="node27" class="node">
<title>Node27</title>
<g id="a_node27"><a xlink:href="classBPMN_1_1EscalationStartEvent.html" target="_top" xlink:title=" ">
<polygon fill="none" stroke="black" points="2399,-6 2399,-63 2552,-63 2552,-6 2399,-6"/>
<text text-anchor="middle" x="2475.5" y="-51" font-family="Helvetica,sans-Serif" font-size="10.00">BPMN::EscalationStartEvent</text>
<polyline fill="none" stroke="black" points="2399,-44 2552,-44 "/>
<text text-anchor="middle" x="2475.5" y="-32" font-family="Helvetica,sans-Serif" font-size="10.00"> </text>
<polyline fill="none" stroke="black" points="2399,-25 2552,-25 "/>
<text text-anchor="start" x="2407" y="-13" font-family="Helvetica,sans-Serif" font-size="10.00">+ EscalationStartEvent()</text>
</a>
</g>
</g>
<!-- Node24&#45;&gt;Node27 -->
<g id="edge35" class="edge">
<title>Node24&#45;&gt;Node27</title>
<path fill="none" stroke="midnightblue" d="M1893.85,-112.12C1900.32,-109.33 1906.96,-106.86 1913.5,-105 2117.54,-46.88 2182.62,-116.02 2389.5,-69 2396.53,-67.4 2403.75,-65.33 2410.87,-63"/>
<polygon fill="none" stroke="midnightblue" points="1892.13,-109.06 1884.5,-116.41 1895.05,-115.42 1892.13,-109.06"/>
</g>
</g>
</svg>
