<?xml version="1.0" encoding="UTF-8" standalone="no"?>
<!DOCTYPE svg PUBLIC "-//W3C//DTD SVG 1.1//EN"
 "http://www.w3.org/Graphics/SVG/1.1/DTD/svg11.dtd">
<!-- Generated by graphviz version 2.43.0 (0)
 -->
<!-- Title: XML::bpmn::cancelEventDefinition Pages: 1 -->
<svg width="191pt" height="872pt"
 viewBox="0.00 0.00 191.00 872.00" xmlns="http://www.w3.org/2000/svg" xmlns:xlink="http://www.w3.org/1999/xlink">
<g id="graph0" class="graph" transform="scale(1 1) rotate(0) translate(4 868)">
<title>XML::bpmn::cancelEventDefinition</title>
<!-- Node1 -->
<g id="Node000001" class="node">
<title>Node1</title>
<g id="a_Node000001"><a xlink:title=" ">
<polygon fill="#999999" stroke="transparent" points="180.5,-49 2.5,-49 2.5,0 180.5,0 180.5,-49"/>
<text text-anchor="start" x="7.5" y="-36.5" font-family="Helvetica,sans-Serif" font-size="10.00">XML::bpmn::cancelEventDefinition</text>
<text text-anchor="start" x="17" y="-21.5" font-family="Helvetica,sans-Serif" font-size="10.00">+</text>
<text text-anchor="start" x="40.5" y="-21.5" font-family="Helvetica,sans-Serif" font-size="10.00">defaults</text>
<text text-anchor="start" x="17" y="-6.5" font-family="Helvetica,sans-Serif" font-size="10.00">#</text>
<text text-anchor="start" x="40.5" y="-6.5" font-family="Helvetica,sans-Serif" font-size="10.00">cancelEventDefinition()</text>
<polygon fill="#666666" stroke="#666666" points="2.5,-31.5 2.5,-31.5 180.5,-31.5 180.5,-31.5 2.5,-31.5"/>
<polygon fill="#666666" stroke="#666666" points="2.5,-16.5 2.5,-16.5 38.5,-16.5 38.5,-16.5 2.5,-16.5"/>
<polygon fill="#666666" stroke="#666666" points="38.5,-16.5 38.5,-16.5 180.5,-16.5 180.5,-16.5 38.5,-16.5"/>
<polygon fill="none" stroke="#666666" points="2.5,0 2.5,-49 180.5,-49 180.5,0 2.5,0"/>
</a>
</g>
</g>
<!-- Node2 -->
<g id="Node000002" class="node">
<title>Node2</title>
<g id="a_Node000002"><a xlink:href="classXML_1_1bpmn_1_1tCancelEventDefinition.html" target="_top" xlink:title=" ">
<polygon fill="white" stroke="transparent" points="183,-134 0,-134 0,-85 183,-85 183,-134"/>
<text text-anchor="start" x="5.5" y="-121.5" font-family="Helvetica,sans-Serif" font-size="10.00">XML::bpmn::tCancelEventDefinition</text>
<text text-anchor="start" x="15" y="-106.5" font-family="Helvetica,sans-Serif" font-size="10.00">+</text>
<text text-anchor="start" x="38.5" y="-106.5" font-family="Helvetica,sans-Serif" font-size="10.00">defaults</text>
<text text-anchor="start" x="15" y="-91.5" font-family="Helvetica,sans-Serif" font-size="10.00">#</text>
<text text-anchor="start" x="38.5" y="-91.5" font-family="Helvetica,sans-Serif" font-size="10.00">tCancelEventDefinition()</text>
<polygon fill="#666666" stroke="#666666" points="0.5,-116.5 0.5,-116.5 183.5,-116.5 183.5,-116.5 0.5,-116.5"/>
<polygon fill="#666666" stroke="#666666" points="0.5,-101.5 0.5,-101.5 36.5,-101.5 36.5,-101.5 0.5,-101.5"/>
<polygon fill="#666666" stroke="#666666" points="36.5,-101.5 36.5,-101.5 183.5,-101.5 183.5,-101.5 36.5,-101.5"/>
<polygon fill="none" stroke="#666666" points="0,-85 0,-134 183,-134 183,-85 0,-85"/>
</a>
</g>
</g>
<!-- Node2&#45;&gt;Node1 -->
<g id="edge1_Node000001_Node000002" class="edge">
<title>Node2&#45;&gt;Node1</title>
<g id="a_edge1_Node000001_Node000002"><a xlink:title=" ">
<path fill="none" stroke="#63b8ff" d="M91.5,-74.77C91.5,-66.17 91.5,-57.1 91.5,-49.12"/>
<polygon fill="none" stroke="#63b8ff" points="88,-74.94 91.5,-84.94 95,-74.94 88,-74.94"/>
</a>
</g>
</g>
<!-- Node3 -->
<g id="Node000003" class="node">
<title>Node3</title>
<g id="a_Node000003"><a xlink:href="classXML_1_1bpmn_1_1tEventDefinition.html" target="_top" xlink:title=" ">
<polygon fill="white" stroke="transparent" points="166.5,-219 16.5,-219 16.5,-170 166.5,-170 166.5,-219"/>
<text text-anchor="start" x="21.5" y="-206.5" font-family="Helvetica,sans-Serif" font-size="10.00">XML::bpmn::tEventDefinition</text>
<text text-anchor="start" x="31" y="-191.5" font-family="Helvetica,sans-Serif" font-size="10.00">+</text>
<text text-anchor="start" x="54.5" y="-191.5" font-family="Helvetica,sans-Serif" font-size="10.00">defaults</text>
<text text-anchor="start" x="31" y="-176.5" font-family="Helvetica,sans-Serif" font-size="10.00">#</text>
<text text-anchor="start" x="54.5" y="-176.5" font-family="Helvetica,sans-Serif" font-size="10.00">tEventDefinition()</text>
<polygon fill="#666666" stroke="#666666" points="16.5,-201.5 16.5,-201.5 166.5,-201.5 166.5,-201.5 16.5,-201.5"/>
<polygon fill="#666666" stroke="#666666" points="16.5,-186.5 16.5,-186.5 52.5,-186.5 52.5,-186.5 16.5,-186.5"/>
<polygon fill="#666666" stroke="#666666" points="52.5,-186.5 52.5,-186.5 166.5,-186.5 166.5,-186.5 52.5,-186.5"/>
<polygon fill="none" stroke="#666666" points="16.5,-170 16.5,-219 166.5,-219 166.5,-170 16.5,-170"/>
</a>
</g>
</g>
<!-- Node3&#45;&gt;Node2 -->
<g id="edge2_Node000002_Node000003" class="edge">
<title>Node3&#45;&gt;Node2</title>
<g id="a_edge2_Node000002_Node000003"><a xlink:title=" ">
<path fill="none" stroke="#63b8ff" d="M91.5,-159.77C91.5,-151.17 91.5,-142.1 91.5,-134.12"/>
<polygon fill="none" stroke="#63b8ff" points="88,-159.94 91.5,-169.94 95,-159.94 88,-159.94"/>
</a>
</g>
</g>
<!-- Node4 -->
<g id="Node000004" class="node">
<title>Node4</title>
<g id="a_Node000004"><a xlink:href="classXML_1_1bpmn_1_1tRootElement.html" target="_top" xlink:title=" ">
<polygon fill="white" stroke="transparent" points="160.5,-304 22.5,-304 22.5,-255 160.5,-255 160.5,-304"/>
<text text-anchor="start" x="27.5" y="-291.5" font-family="Helvetica,sans-Serif" font-size="10.00">XML::bpmn::tRootElement</text>
<text text-anchor="start" x="37" y="-276.5" font-family="Helvetica,sans-Serif" font-size="10.00">+</text>
<text text-anchor="start" x="60.5" y="-276.5" font-family="Helvetica,sans-Serif" font-size="10.00">defaults</text>
<text text-anchor="start" x="37" y="-261.5" font-family="Helvetica,sans-Serif" font-size="10.00">#</text>
<text text-anchor="start" x="60.5" y="-261.5" font-family="Helvetica,sans-Serif" font-size="10.00">tRootElement()</text>
<polygon fill="#666666" stroke="#666666" points="22.5,-286.5 22.5,-286.5 160.5,-286.5 160.5,-286.5 22.5,-286.5"/>
<polygon fill="#666666" stroke="#666666" points="22.5,-271.5 22.5,-271.5 58.5,-271.5 58.5,-271.5 22.5,-271.5"/>
<polygon fill="#666666" stroke="#666666" points="58.5,-271.5 58.5,-271.5 160.5,-271.5 160.5,-271.5 58.5,-271.5"/>
<polygon fill="none" stroke="#666666" points="22.5,-255 22.5,-304 160.5,-304 160.5,-255 22.5,-255"/>
</a>
</g>
</g>
<!-- Node4&#45;&gt;Node3 -->
<g id="edge3_Node000003_Node000004" class="edge">
<title>Node4&#45;&gt;Node3</title>
<g id="a_edge3_Node000003_Node000004"><a xlink:title=" ">
<path fill="none" stroke="#63b8ff" d="M91.5,-244.77C91.5,-236.17 91.5,-227.1 91.5,-219.12"/>
<polygon fill="none" stroke="#63b8ff" points="88,-244.94 91.5,-254.94 95,-244.94 88,-244.94"/>
</a>
</g>
</g>
<!-- Node5 -->
<g id="Node000005" class="node">
<title>Node5</title>
<g id="a_Node000005"><a xlink:href="classXML_1_1bpmn_1_1tBaseElement.html" target="_top" xlink:title=" ">
<polygon fill="white" stroke="transparent" points="161.5,-434 21.5,-434 21.5,-340 161.5,-340 161.5,-434"/>
<text text-anchor="start" x="26.5" y="-422" font-family="Helvetica,sans-Serif" font-size="10.00">XML::bpmn::tBaseElement</text>
<text text-anchor="start" x="31.5" y="-407" font-family="Helvetica,sans-Serif" font-size="10.00">+</text>
<text text-anchor="start" x="50.5" y="-407" font-family="Helvetica,sans-Serif" font-size="10.00">documentation</text>
<text text-anchor="start" x="31.5" y="-392" font-family="Helvetica,sans-Serif" font-size="10.00">+</text>
<text text-anchor="start" x="50.5" y="-392" font-family="Helvetica,sans-Serif" font-size="10.00">extensionElements</text>
<text text-anchor="start" x="31.5" y="-377" font-family="Helvetica,sans-Serif" font-size="10.00">+</text>
<text text-anchor="start" x="50.5" y="-377" font-family="Helvetica,sans-Serif" font-size="10.00">id</text>
<text text-anchor="start" x="31.5" y="-362" font-family="Helvetica,sans-Serif" font-size="10.00">+</text>
<text text-anchor="start" x="50.5" y="-362" font-family="Helvetica,sans-Serif" font-size="10.00">defaults</text>
<text text-anchor="start" x="31.5" y="-347" font-family="Helvetica,sans-Serif" font-size="10.00">#</text>
<text text-anchor="start" x="50.5" y="-347" font-family="Helvetica,sans-Serif" font-size="10.00">tBaseElement()</text>
<polygon fill="#666666" stroke="#666666" points="21.5,-417 21.5,-417 161.5,-417 161.5,-417 21.5,-417"/>
<polygon fill="#666666" stroke="#666666" points="21.5,-357 21.5,-357 48.5,-357 48.5,-357 21.5,-357"/>
<polygon fill="#666666" stroke="#666666" points="48.5,-357 48.5,-357 161.5,-357 161.5,-357 48.5,-357"/>
<polygon fill="none" stroke="#666666" points="21.5,-340 21.5,-434 161.5,-434 161.5,-340 21.5,-340"/>
</a>
</g>
</g>
<!-- Node5&#45;&gt;Node4 -->
<g id="edge4_Node000004_Node000005" class="edge">
<title>Node5&#45;&gt;Node4</title>
<g id="a_edge4_Node000004_Node000005"><a xlink:title=" ">
<path fill="none" stroke="#63b8ff" d="M91.5,-329.59C91.5,-320.62 91.5,-311.79 91.5,-304.15"/>
<polygon fill="none" stroke="#63b8ff" points="88,-329.73 91.5,-339.73 95,-329.73 88,-329.73"/>
</a>
</g>
</g>
<!-- Node6 -->
<g id="Node000006" class="node">
<title>Node6</title>
<g id="a_Node000006"><a xlink:href="classXML_1_1XMLObject.html" target="_top" xlink:title="A class representing a node in an XML&#45;tree.">
<polygon fill="white" stroke="transparent" points="151.5,-864 31.5,-864 31.5,-470 151.5,-470 151.5,-864"/>
<text text-anchor="start" x="51.5" y="-852" font-family="Helvetica,sans-Serif" font-size="10.00">XML::XMLObject</text>
<text text-anchor="start" x="35.5" y="-837" font-family="Helvetica,sans-Serif" font-size="10.00">+</text>
<text text-anchor="start" x="48.5" y="-837" font-family="Helvetica,sans-Serif" font-size="10.00">xmlns</text>
<text text-anchor="start" x="35.5" y="-822" font-family="Helvetica,sans-Serif" font-size="10.00">+</text>
<text text-anchor="start" x="48.5" y="-822" font-family="Helvetica,sans-Serif" font-size="10.00">className</text>
<text text-anchor="start" x="35.5" y="-807" font-family="Helvetica,sans-Serif" font-size="10.00">+</text>
<text text-anchor="start" x="48.5" y="-807" font-family="Helvetica,sans-Serif" font-size="10.00">prefix</text>
<text text-anchor="start" x="35.5" y="-792" font-family="Helvetica,sans-Serif" font-size="10.00">+</text>
<text text-anchor="start" x="48.5" y="-792" font-family="Helvetica,sans-Serif" font-size="10.00">elementName</text>
<text text-anchor="start" x="35.5" y="-777" font-family="Helvetica,sans-Serif" font-size="10.00">+</text>
<text text-anchor="start" x="48.5" y="-777" font-family="Helvetica,sans-Serif" font-size="10.00">textContent</text>
<text text-anchor="start" x="35.5" y="-762" font-family="Helvetica,sans-Serif" font-size="10.00">+</text>
<text text-anchor="start" x="48.5" y="-762" font-family="Helvetica,sans-Serif" font-size="10.00">children</text>
<text text-anchor="start" x="35.5" y="-747" font-family="Helvetica,sans-Serif" font-size="10.00">+</text>
<text text-anchor="start" x="48.5" y="-747" font-family="Helvetica,sans-Serif" font-size="10.00">attributes</text>
<text text-anchor="start" x="35.5" y="-732" font-family="Helvetica,sans-Serif" font-size="10.00">+</text>
<text text-anchor="start" x="48.5" y="-732" font-family="Helvetica,sans-Serif" font-size="10.00">defaults</text>
<text text-anchor="start" x="35.5" y="-717" font-family="Helvetica,sans-Serif" font-size="10.00">#</text>
<text text-anchor="start" x="48.5" y="-717" font-family="Helvetica,sans-Serif" font-size="10.00">factory</text>
<text text-anchor="start" x="35.5" y="-702" font-family="Helvetica,sans-Serif" font-size="10.00">+</text>
<text text-anchor="start" x="48.5" y="-702" font-family="Helvetica,sans-Serif" font-size="10.00">~XMLObject()</text>
<text text-anchor="start" x="35.5" y="-687" font-family="Helvetica,sans-Serif" font-size="10.00">+</text>
<text text-anchor="start" x="48.5" y="-687" font-family="Helvetica,sans-Serif" font-size="10.00">is()</text>
<text text-anchor="start" x="35.5" y="-672" font-family="Helvetica,sans-Serif" font-size="10.00">+</text>
<text text-anchor="start" x="48.5" y="-672" font-family="Helvetica,sans-Serif" font-size="10.00">is()</text>
<text text-anchor="start" x="35.5" y="-657" font-family="Helvetica,sans-Serif" font-size="10.00">+</text>
<text text-anchor="start" x="48.5" y="-657" font-family="Helvetica,sans-Serif" font-size="10.00">get()</text>
<text text-anchor="start" x="35.5" y="-642" font-family="Helvetica,sans-Serif" font-size="10.00">+</text>
<text text-anchor="start" x="48.5" y="-642" font-family="Helvetica,sans-Serif" font-size="10.00">get()</text>
<text text-anchor="start" x="35.5" y="-627" font-family="Helvetica,sans-Serif" font-size="10.00">+</text>
<text text-anchor="start" x="48.5" y="-627" font-family="Helvetica,sans-Serif" font-size="10.00">find()</text>
<text text-anchor="start" x="35.5" y="-612" font-family="Helvetica,sans-Serif" font-size="10.00">+</text>
<text text-anchor="start" x="48.5" y="-612" font-family="Helvetica,sans-Serif" font-size="10.00">find()</text>
<text text-anchor="start" x="35.5" y="-597" font-family="Helvetica,sans-Serif" font-size="10.00">+</text>
<text text-anchor="start" x="48.5" y="-597" font-family="Helvetica,sans-Serif" font-size="10.00">stringify()</text>
<text text-anchor="start" x="35.5" y="-582" font-family="Helvetica,sans-Serif" font-size="10.00">+</text>
<text text-anchor="start" x="48.5" y="-582" font-family="Helvetica,sans-Serif" font-size="10.00">format()</text>
<text text-anchor="start" x="35.5" y="-567" font-family="Helvetica,sans-Serif" font-size="10.00">+</text>
<text text-anchor="start" x="48.5" y="-567" font-family="Helvetica,sans-Serif" font-size="10.00">getRequiredChild()</text>
<text text-anchor="start" x="48.5" y="-552" font-family="Helvetica,sans-Serif" font-size="10.00">and 7 more...</text>
<text text-anchor="start" x="35.5" y="-537" font-family="Helvetica,sans-Serif" font-size="10.00">+</text>
<text text-anchor="start" x="48.5" y="-537" font-family="Helvetica,sans-Serif" font-size="10.00">createFromStream()</text>
<text text-anchor="start" x="35.5" y="-522" font-family="Helvetica,sans-Serif" font-size="10.00">+</text>
<text text-anchor="start" x="48.5" y="-522" font-family="Helvetica,sans-Serif" font-size="10.00">createFromString()</text>
<text text-anchor="start" x="35.5" y="-507" font-family="Helvetica,sans-Serif" font-size="10.00">+</text>
<text text-anchor="start" x="48.5" y="-507" font-family="Helvetica,sans-Serif" font-size="10.00">createFromFile()</text>
<text text-anchor="start" x="35.5" y="-492" font-family="Helvetica,sans-Serif" font-size="10.00">#</text>
<text text-anchor="start" x="48.5" y="-492" font-family="Helvetica,sans-Serif" font-size="10.00">XMLObject()</text>
<text text-anchor="start" x="35.5" y="-477" font-family="Helvetica,sans-Serif" font-size="10.00">#</text>
<text text-anchor="start" x="48.5" y="-477" font-family="Helvetica,sans-Serif" font-size="10.00">createObject()</text>
<polygon fill="#666666" stroke="#666666" points="31.5,-847 31.5,-847 151.5,-847 151.5,-847 31.5,-847"/>
<polygon fill="#666666" stroke="#666666" points="31.5,-712 31.5,-712 46.5,-712 46.5,-712 31.5,-712"/>
<polygon fill="#666666" stroke="#666666" points="46.5,-712 46.5,-712 151.5,-712 151.5,-712 46.5,-712"/>
<polygon fill="none" stroke="#666666" points="31.5,-470 31.5,-864 151.5,-864 151.5,-470 31.5,-470"/>
</a>
</g>
</g>
<!-- Node6&#45;&gt;Node5 -->
<g id="edge5_Node000005_Node000006" class="edge">
<title>Node6&#45;&gt;Node5</title>
<g id="a_edge5_Node000005_Node000006"><a xlink:title=" ">
<path fill="none" stroke="#63b8ff" d="M91.5,-459.78C91.5,-450.62 91.5,-441.97 91.5,-434.06"/>
<polygon fill="none" stroke="#63b8ff" points="88,-459.91 91.5,-469.91 95,-459.91 88,-459.91"/>
</a>
</g>
</g>
</g>
</svg>
