<?xml version="1.0" encoding="UTF-8" standalone="no"?>
<!DOCTYPE svg PUBLIC "-//W3C//DTD SVG 1.1//EN"
 "http://www.w3.org/Graphics/SVG/1.1/DTD/svg11.dtd">
<!-- Generated by graphviz version 2.43.0 (0)
 -->
<!-- Title: BPMN::SignalThrowEvent Pages: 1 -->
<svg width="142pt" height="952pt"
 viewBox="0.00 0.00 142.00 952.00" xmlns="http://www.w3.org/2000/svg" xmlns:xlink="http://www.w3.org/1999/xlink">
<g id="graph0" class="graph" transform="scale(1 1) rotate(0) translate(4 948)">
<title>BPMN::SignalThrowEvent</title>
<!-- Node1 -->
<g id="Node000001" class="node">
<title>Node1</title>
<g id="a_Node000001"><a xlink:title=" ">
<polygon fill="#999999" stroke="transparent" points="134,-49 0,-49 0,0 134,0 134,-49"/>
<text text-anchor="start" x="5" y="-36.5" font-family="Helvetica,sans-Serif" font-size="10.00">BPMN::SignalThrowEvent</text>
<text text-anchor="start" x="65" y="-21.5" font-family="Helvetica,sans-Serif" font-size="10.00"> </text>
<text text-anchor="start" x="8" y="-6.5" font-family="Helvetica,sans-Serif" font-size="10.00">+</text>
<text text-anchor="start" x="25" y="-6.5" font-family="Helvetica,sans-Serif" font-size="10.00">SignalThrowEvent()</text>
<polygon fill="#666666" stroke="#666666" points="0,-31.5 0,-31.5 134,-31.5 134,-31.5 0,-31.5"/>
<polygon fill="#666666" stroke="#666666" points="0,-16.5 0,-16.5 134,-16.5 134,-16.5 0,-16.5"/>
<polygon fill="none" stroke="#666666" points="0,0 0,-49 134,-49 134,0 0,0"/>
</a>
</g>
</g>
<!-- Node2 -->
<g id="Node000002" class="node">
<title>Node2</title>
<g id="a_Node000002"><a xlink:href="classBPMN_1_1ThrowEvent.html" target="_top" xlink:title=" ">
<polygon fill="white" stroke="transparent" points="119,-134 15,-134 15,-85 119,-85 119,-134"/>
<text text-anchor="start" x="20" y="-121.5" font-family="Helvetica,sans-Serif" font-size="10.00">BPMN::ThrowEvent</text>
<text text-anchor="start" x="23" y="-106.5" font-family="Helvetica,sans-Serif" font-size="10.00">+</text>
<text text-anchor="start" x="40" y="-106.5" font-family="Helvetica,sans-Serif" font-size="10.00">element</text>
<text text-anchor="start" x="23" y="-91.5" font-family="Helvetica,sans-Serif" font-size="10.00">+</text>
<text text-anchor="start" x="40" y="-91.5" font-family="Helvetica,sans-Serif" font-size="10.00">ThrowEvent()</text>
<polygon fill="#666666" stroke="#666666" points="15,-116.5 15,-116.5 119,-116.5 119,-116.5 15,-116.5"/>
<polygon fill="#666666" stroke="#666666" points="15,-101.5 15,-101.5 38,-101.5 38,-101.5 15,-101.5"/>
<polygon fill="#666666" stroke="#666666" points="38,-101.5 38,-101.5 119,-101.5 119,-101.5 38,-101.5"/>
<polygon fill="none" stroke="#666666" points="15,-85 15,-134 119,-134 119,-85 15,-85"/>
</a>
</g>
</g>
<!-- Node2&#45;&gt;Node1 -->
<g id="edge1_Node000001_Node000002" class="edge">
<title>Node2&#45;&gt;Node1</title>
<g id="a_edge1_Node000001_Node000002"><a xlink:title=" ">
<path fill="none" stroke="#63b8ff" d="M67,-74.77C67,-66.17 67,-57.1 67,-49.12"/>
<polygon fill="none" stroke="#63b8ff" points="63.5,-74.94 67,-84.94 70.5,-74.94 63.5,-74.94"/>
</a>
</g>
</g>
<!-- Node3 -->
<g id="Node000003" class="node">
<title>Node3</title>
<g id="a_Node000003"><a xlink:href="classBPMN_1_1Event.html" target="_top" xlink:title=" ">
<polygon fill="white" stroke="transparent" points="104,-219 30,-219 30,-170 104,-170 104,-219"/>
<text text-anchor="start" x="35" y="-206.5" font-family="Helvetica,sans-Serif" font-size="10.00">BPMN::Event</text>
<text text-anchor="start" x="37" y="-191.5" font-family="Helvetica,sans-Serif" font-size="10.00">+</text>
<text text-anchor="start" x="53" y="-191.5" font-family="Helvetica,sans-Serif" font-size="10.00">element</text>
<text text-anchor="start" x="37" y="-176.5" font-family="Helvetica,sans-Serif" font-size="10.00">+</text>
<text text-anchor="start" x="53" y="-176.5" font-family="Helvetica,sans-Serif" font-size="10.00">Event()</text>
<polygon fill="#666666" stroke="#666666" points="30,-201.5 30,-201.5 104,-201.5 104,-201.5 30,-201.5"/>
<polygon fill="#666666" stroke="#666666" points="30,-186.5 30,-186.5 51,-186.5 51,-186.5 30,-186.5"/>
<polygon fill="#666666" stroke="#666666" points="51,-186.5 51,-186.5 104,-186.5 104,-186.5 51,-186.5"/>
<polygon fill="none" stroke="#666666" points="30,-170 30,-219 104,-219 104,-170 30,-170"/>
</a>
</g>
</g>
<!-- Node3&#45;&gt;Node2 -->
<g id="edge2_Node000002_Node000003" class="edge">
<title>Node3&#45;&gt;Node2</title>
<g id="a_edge2_Node000002_Node000003"><a xlink:title=" ">
<path fill="none" stroke="#63b8ff" d="M67,-159.77C67,-151.17 67,-142.1 67,-134.12"/>
<polygon fill="none" stroke="#63b8ff" points="63.5,-159.94 67,-169.94 70.5,-159.94 63.5,-159.94"/>
</a>
</g>
</g>
<!-- Node4 -->
<g id="Node000004" class="node">
<title>Node4</title>
<g id="a_Node000004"><a xlink:href="classBPMN_1_1FlowNode.html" target="_top" xlink:title="Base class for BPMN elements that may contain incoming and outgoing sequence flows.">
<polygon fill="white" stroke="transparent" points="114.5,-349 19.5,-349 19.5,-255 114.5,-255 114.5,-349"/>
<text text-anchor="start" x="25" y="-337" font-family="Helvetica,sans-Serif" font-size="10.00">BPMN::FlowNode</text>
<text text-anchor="start" x="28" y="-322" font-family="Helvetica,sans-Serif" font-size="10.00">+</text>
<text text-anchor="start" x="45" y="-322" font-family="Helvetica,sans-Serif" font-size="10.00">element</text>
<text text-anchor="start" x="28" y="-307" font-family="Helvetica,sans-Serif" font-size="10.00">+</text>
<text text-anchor="start" x="45" y="-307" font-family="Helvetica,sans-Serif" font-size="10.00">name</text>
<text text-anchor="start" x="28" y="-292" font-family="Helvetica,sans-Serif" font-size="10.00">+</text>
<text text-anchor="start" x="45" y="-292" font-family="Helvetica,sans-Serif" font-size="10.00">incoming</text>
<text text-anchor="start" x="28" y="-277" font-family="Helvetica,sans-Serif" font-size="10.00">+</text>
<text text-anchor="start" x="45" y="-277" font-family="Helvetica,sans-Serif" font-size="10.00">outgoing</text>
<text text-anchor="start" x="28" y="-262" font-family="Helvetica,sans-Serif" font-size="10.00">+</text>
<text text-anchor="start" x="45" y="-262" font-family="Helvetica,sans-Serif" font-size="10.00">FlowNode()</text>
<polygon fill="#666666" stroke="#666666" points="20,-332 20,-332 115,-332 115,-332 20,-332"/>
<polygon fill="#666666" stroke="#666666" points="20,-272 20,-272 43,-272 43,-272 20,-272"/>
<polygon fill="#666666" stroke="#666666" points="43,-272 43,-272 115,-272 115,-272 43,-272"/>
<polygon fill="none" stroke="#666666" points="19.5,-255 19.5,-349 114.5,-349 114.5,-255 19.5,-255"/>
</a>
</g>
</g>
<!-- Node4&#45;&gt;Node3 -->
<g id="edge3_Node000003_Node000004" class="edge">
<title>Node4&#45;&gt;Node3</title>
<g id="a_edge3_Node000003_Node000004"><a xlink:title=" ">
<path fill="none" stroke="#63b8ff" d="M67,-244.59C67,-235.62 67,-226.79 67,-219.15"/>
<polygon fill="none" stroke="#63b8ff" points="63.5,-244.73 67,-254.73 70.5,-244.73 63.5,-244.73"/>
</a>
</g>
</g>
<!-- Node5 -->
<g id="Node000005" class="node">
<title>Node5</title>
<g id="a_Node000005"><a xlink:href="classBPMN_1_1ChildNode.html" target="_top" xlink:title="Base class for BPMN elements within a Scope.">
<polygon fill="white" stroke="transparent" points="115,-464 19,-464 19,-385 115,-385 115,-464"/>
<text text-anchor="start" x="24" y="-451.5" font-family="Helvetica,sans-Serif" font-size="10.00">BPMN::ChildNode</text>
<text text-anchor="start" x="27" y="-436.5" font-family="Helvetica,sans-Serif" font-size="10.00">+</text>
<text text-anchor="start" x="44" y="-436.5" font-family="Helvetica,sans-Serif" font-size="10.00">parent</text>
<text text-anchor="start" x="27" y="-421.5" font-family="Helvetica,sans-Serif" font-size="10.00">+</text>
<text text-anchor="start" x="44" y="-421.5" font-family="Helvetica,sans-Serif" font-size="10.00">ChildNode()</text>
<text text-anchor="start" x="27" y="-406.5" font-family="Helvetica,sans-Serif" font-size="10.00">+</text>
<text text-anchor="start" x="44" y="-406.5" font-family="Helvetica,sans-Serif" font-size="10.00">ancestor()</text>
<text text-anchor="start" x="27" y="-391.5" font-family="Helvetica,sans-Serif" font-size="10.00">+</text>
<text text-anchor="start" x="44" y="-391.5" font-family="Helvetica,sans-Serif" font-size="10.00">ancestor()</text>
<polygon fill="#666666" stroke="#666666" points="19,-446.5 19,-446.5 115,-446.5 115,-446.5 19,-446.5"/>
<polygon fill="#666666" stroke="#666666" points="19,-431.5 19,-431.5 42,-431.5 42,-431.5 19,-431.5"/>
<polygon fill="#666666" stroke="#666666" points="42,-431.5 42,-431.5 115,-431.5 115,-431.5 42,-431.5"/>
<polygon fill="none" stroke="#666666" points="19,-385 19,-464 115,-464 115,-385 19,-385"/>
</a>
</g>
</g>
<!-- Node5&#45;&gt;Node4 -->
<g id="edge4_Node000004_Node000005" class="edge">
<title>Node5&#45;&gt;Node4</title>
<g id="a_edge4_Node000004_Node000005"><a xlink:title=" ">
<path fill="none" stroke="#63b8ff" d="M67,-374.68C67,-366.3 67,-357.61 67,-349.29"/>
<polygon fill="none" stroke="#63b8ff" points="63.5,-374.71 67,-384.71 70.5,-374.71 63.5,-374.71"/>
</a>
</g>
</g>
<!-- Node6 -->
<g id="Node000006" class="node">
<title>Node6</title>
<g id="a_Node000006"><a xlink:href="classBPMN_1_1Node.html" target="_top" xlink:title="Base class for all nodes in a BPMN model.">
<polygon fill="white" stroke="transparent" points="102.5,-624 31.5,-624 31.5,-500 102.5,-500 102.5,-624"/>
<text text-anchor="start" x="37" y="-612" font-family="Helvetica,sans-Serif" font-size="10.00">BPMN::Node</text>
<text text-anchor="start" x="37" y="-597" font-family="Helvetica,sans-Serif" font-size="10.00">+</text>
<text text-anchor="start" x="51" y="-597" font-family="Helvetica,sans-Serif" font-size="10.00">receiving</text>
<text text-anchor="start" x="37" y="-582" font-family="Helvetica,sans-Serif" font-size="10.00">+</text>
<text text-anchor="start" x="51" y="-582" font-family="Helvetica,sans-Serif" font-size="10.00">sending</text>
<text text-anchor="start" x="37" y="-567" font-family="Helvetica,sans-Serif" font-size="10.00">+</text>
<text text-anchor="start" x="51" y="-567" font-family="Helvetica,sans-Serif" font-size="10.00">Node()</text>
<text text-anchor="start" x="37" y="-552" font-family="Helvetica,sans-Serif" font-size="10.00">+</text>
<text text-anchor="start" x="51" y="-552" font-family="Helvetica,sans-Serif" font-size="10.00">find()</text>
<text text-anchor="start" x="37" y="-537" font-family="Helvetica,sans-Serif" font-size="10.00">+</text>
<text text-anchor="start" x="51" y="-537" font-family="Helvetica,sans-Serif" font-size="10.00">find()</text>
<text text-anchor="start" x="37" y="-522" font-family="Helvetica,sans-Serif" font-size="10.00">+</text>
<text text-anchor="start" x="51" y="-522" font-family="Helvetica,sans-Serif" font-size="10.00">find_all()</text>
<text text-anchor="start" x="37" y="-507" font-family="Helvetica,sans-Serif" font-size="10.00">+</text>
<text text-anchor="start" x="51" y="-507" font-family="Helvetica,sans-Serif" font-size="10.00">find_all()</text>
<polygon fill="#666666" stroke="#666666" points="32,-607 32,-607 103,-607 103,-607 32,-607"/>
<polygon fill="#666666" stroke="#666666" points="32,-577 32,-577 49,-577 49,-577 32,-577"/>
<polygon fill="#666666" stroke="#666666" points="49,-577 49,-577 103,-577 103,-577 49,-577"/>
<polygon fill="none" stroke="#666666" points="31.5,-500 31.5,-624 102.5,-624 102.5,-500 31.5,-500"/>
</a>
</g>
</g>
<!-- Node6&#45;&gt;Node5 -->
<g id="edge5_Node000005_Node000006" class="edge">
<title>Node6&#45;&gt;Node5</title>
<g id="a_edge5_Node000005_Node000006"><a xlink:title=" ">
<path fill="none" stroke="#63b8ff" d="M67,-489.93C67,-481.02 67,-472.19 67,-464.05"/>
<polygon fill="none" stroke="#63b8ff" points="63.5,-489.99 67,-499.99 70.5,-489.99 63.5,-489.99"/>
</a>
</g>
</g>
<!-- Node7 -->
<g id="Node000007" class="node">
<title>Node7</title>
<g id="a_Node000007"><a xlink:href="classBPMN_1_1BaseElement.html" target="_top" xlink:title="Base class for all core BPMN elements.">
<polygon fill="white" stroke="transparent" points="124.5,-799 9.5,-799 9.5,-660 124.5,-660 124.5,-799"/>
<text text-anchor="start" x="17.5" y="-786.5" font-family="Helvetica,sans-Serif" font-size="10.00">BPMN::BaseElement</text>
<text text-anchor="start" x="14" y="-771.5" font-family="Helvetica,sans-Serif" font-size="10.00">+</text>
<text text-anchor="start" x="27" y="-771.5" font-family="Helvetica,sans-Serif" font-size="10.00">element</text>
<text text-anchor="start" x="14" y="-756.5" font-family="Helvetica,sans-Serif" font-size="10.00">+</text>
<text text-anchor="start" x="27" y="-756.5" font-family="Helvetica,sans-Serif" font-size="10.00">id</text>
<text text-anchor="start" x="14" y="-741.5" font-family="Helvetica,sans-Serif" font-size="10.00">+</text>
<text text-anchor="start" x="27" y="-741.5" font-family="Helvetica,sans-Serif" font-size="10.00">extensionElements</text>
<text text-anchor="start" x="14" y="-726.5" font-family="Helvetica,sans-Serif" font-size="10.00">+</text>
<text text-anchor="start" x="27" y="-726.5" font-family="Helvetica,sans-Serif" font-size="10.00">BaseElement()</text>
<text text-anchor="start" x="14" y="-711.5" font-family="Helvetica,sans-Serif" font-size="10.00">+</text>
<text text-anchor="start" x="27" y="-711.5" font-family="Helvetica,sans-Serif" font-size="10.00">is()</text>
<text text-anchor="start" x="14" y="-696.5" font-family="Helvetica,sans-Serif" font-size="10.00">+</text>
<text text-anchor="start" x="27" y="-696.5" font-family="Helvetica,sans-Serif" font-size="10.00">is()</text>
<text text-anchor="start" x="14" y="-681.5" font-family="Helvetica,sans-Serif" font-size="10.00">+</text>
<text text-anchor="start" x="27" y="-681.5" font-family="Helvetica,sans-Serif" font-size="10.00">get()</text>
<text text-anchor="start" x="14" y="-666.5" font-family="Helvetica,sans-Serif" font-size="10.00">+</text>
<text text-anchor="start" x="27" y="-666.5" font-family="Helvetica,sans-Serif" font-size="10.00">get()</text>
<polygon fill="#666666" stroke="#666666" points="10,-781.5 10,-781.5 125,-781.5 125,-781.5 10,-781.5"/>
<polygon fill="#666666" stroke="#666666" points="10,-736.5 10,-736.5 25,-736.5 25,-736.5 10,-736.5"/>
<polygon fill="#666666" stroke="#666666" points="25,-736.5 25,-736.5 125,-736.5 125,-736.5 25,-736.5"/>
<polygon fill="none" stroke="#666666" points="9.5,-660 9.5,-799 124.5,-799 124.5,-660 9.5,-660"/>
</a>
</g>
</g>
<!-- Node7&#45;&gt;Node6 -->
<g id="edge6_Node000006_Node000007" class="edge">
<title>Node7&#45;&gt;Node6</title>
<g id="a_edge6_Node000006_Node000007"><a xlink:title=" ">
<path fill="none" stroke="#63b8ff" d="M67,-649.71C67,-641.12 67,-632.47 67,-624.14"/>
<polygon fill="none" stroke="#63b8ff" points="63.5,-649.75 67,-659.75 70.5,-649.75 63.5,-649.75"/>
</a>
</g>
</g>
<!-- Node8 -->
<g id="Node000008" class="node">
<title>Node8</title>
<g id="a_Node000008"><a xlink:href="classBPMN_1_1Element.html" target="_top" xlink:title="Abstract base class for all elements in a BPMN model.">
<polygon fill="white" stroke="transparent" points="110,-944 24,-944 24,-835 110,-835 110,-944"/>
<text text-anchor="start" x="29" y="-931.5" font-family="Helvetica,sans-Serif" font-size="10.00">BPMN::Element</text>
<text text-anchor="start" x="65" y="-916.5" font-family="Helvetica,sans-Serif" font-size="10.00"> </text>
<text text-anchor="start" x="29" y="-901.5" font-family="Helvetica,sans-Serif" font-size="10.00">+</text>
<text text-anchor="start" x="43" y="-901.5" font-family="Helvetica,sans-Serif" font-size="10.00">~Element()</text>
<text text-anchor="start" x="29" y="-886.5" font-family="Helvetica,sans-Serif" font-size="10.00">+</text>
<text text-anchor="start" x="43" y="-886.5" font-family="Helvetica,sans-Serif" font-size="10.00">represents()</text>
<text text-anchor="start" x="29" y="-871.5" font-family="Helvetica,sans-Serif" font-size="10.00">+</text>
<text text-anchor="start" x="43" y="-871.5" font-family="Helvetica,sans-Serif" font-size="10.00">represents()</text>
<text text-anchor="start" x="29" y="-856.5" font-family="Helvetica,sans-Serif" font-size="10.00">+</text>
<text text-anchor="start" x="43" y="-856.5" font-family="Helvetica,sans-Serif" font-size="10.00">as()</text>
<text text-anchor="start" x="29" y="-841.5" font-family="Helvetica,sans-Serif" font-size="10.00">+</text>
<text text-anchor="start" x="43" y="-841.5" font-family="Helvetica,sans-Serif" font-size="10.00">as()</text>
<polygon fill="#666666" stroke="#666666" points="24,-926.5 24,-926.5 110,-926.5 110,-926.5 24,-926.5"/>
<polygon fill="#666666" stroke="#666666" points="24,-911.5 24,-911.5 110,-911.5 110,-911.5 24,-911.5"/>
<polygon fill="none" stroke="#666666" points="24,-835 24,-944 110,-944 110,-835 24,-835"/>
</a>
</g>
</g>
<!-- Node8&#45;&gt;Node7 -->
<g id="edge7_Node000007_Node000008" class="edge">
<title>Node8&#45;&gt;Node7</title>
<g id="a_edge7_Node000007_Node000008"><a xlink:title=" ">
<path fill="none" stroke="#63b8ff" d="M67,-824.55C67,-816.23 67,-807.67 67,-799.28"/>
<polygon fill="none" stroke="#63b8ff" points="63.5,-824.57 67,-834.57 70.5,-824.57 63.5,-824.57"/>
</a>
</g>
</g>
</g>
</svg>
