<?xml version="1.0" encoding="UTF-8" standalone="no"?>
<!DOCTYPE svg PUBLIC "-//W3C//DTD SVG 1.1//EN"
 "http://www.w3.org/Graphics/SVG/1.1/DTD/svg11.dtd">
<!-- Generated by graphviz version 2.43.0 (0)
 -->
<!-- Title: BPMN::Event Pages: 1 -->
<svg width="3201pt" height="872pt"
 viewBox="0.00 0.00 3201.00 872.00" xmlns="http://www.w3.org/2000/svg" xmlns:xlink="http://www.w3.org/1999/xlink">
<g id="graph0" class="graph" transform="scale(1 1) rotate(0) translate(4 868)">
<title>BPMN::Event</title>
<!-- Node1 -->
<g id="node1" class="node">
<title>Node1</title>
<g id="a_node1"><a xlink:title=" ">
<polygon fill="#bfbfbf" stroke="black" points="1556.5,-315.5 1556.5,-372.5 1636.5,-372.5 1636.5,-315.5 1556.5,-315.5"/>
<text text-anchor="middle" x="1596.5" y="-360.5" font-family="Helvetica,sans-Serif" font-size="10.00">BPMN::Event</text>
<polyline fill="none" stroke="black" points="1556.5,-353.5 1636.5,-353.5 "/>
<text text-anchor="start" x="1564.5" y="-341.5" font-family="Helvetica,sans-Serif" font-size="10.00">+ element</text>
<polyline fill="none" stroke="black" points="1556.5,-334.5 1636.5,-334.5 "/>
<text text-anchor="start" x="1564.5" y="-322.5" font-family="Helvetica,sans-Serif" font-size="10.00">+ Event()</text>
</a>
</g>
</g>
<!-- Node5 -->
<g id="node5" class="node">
<title>Node5</title>
<g id="a_node5"><a xlink:href="classBPMN_1_1CatchEvent.html" target="_top" xlink:title=" ">
<polygon fill="none" stroke="black" points="718,-221.5 718,-278.5 825,-278.5 825,-221.5 718,-221.5"/>
<text text-anchor="middle" x="771.5" y="-266.5" font-family="Helvetica,sans-Serif" font-size="10.00">BPMN::CatchEvent</text>
<polyline fill="none" stroke="black" points="718,-259.5 825,-259.5 "/>
<text text-anchor="start" x="726" y="-247.5" font-family="Helvetica,sans-Serif" font-size="10.00">+ element</text>
<polyline fill="none" stroke="black" points="718,-240.5 825,-240.5 "/>
<text text-anchor="start" x="726" y="-228.5" font-family="Helvetica,sans-Serif" font-size="10.00">+ CatchEvent()</text>
</a>
</g>
</g>
<!-- Node1&#45;&gt;Node5 -->
<g id="edge4" class="edge">
<title>Node1&#45;&gt;Node5</title>
<path fill="none" stroke="midnightblue" d="M1546.4,-337.41C1400.27,-321.12 975.4,-273.74 825.02,-256.97"/>
<polygon fill="none" stroke="midnightblue" points="1546.1,-340.9 1556.43,-338.53 1546.88,-333.94 1546.1,-340.9"/>
</g>
<!-- Node28 -->
<g id="node28" class="node">
<title>Node28</title>
<g id="a_node28"><a xlink:href="classBPMN_1_1ThrowEvent.html" target="_top" xlink:title=" ">
<polygon fill="none" stroke="black" points="2439.5,-221.5 2439.5,-278.5 2549.5,-278.5 2549.5,-221.5 2439.5,-221.5"/>
<text text-anchor="middle" x="2494.5" y="-266.5" font-family="Helvetica,sans-Serif" font-size="10.00">BPMN::ThrowEvent</text>
<polyline fill="none" stroke="black" points="2439.5,-259.5 2549.5,-259.5 "/>
<text text-anchor="start" x="2447.5" y="-247.5" font-family="Helvetica,sans-Serif" font-size="10.00">+ element</text>
<polyline fill="none" stroke="black" points="2439.5,-240.5 2549.5,-240.5 "/>
<text text-anchor="start" x="2447.5" y="-228.5" font-family="Helvetica,sans-Serif" font-size="10.00">+ ThrowEvent()</text>
</a>
</g>
</g>
<!-- Node1&#45;&gt;Node28 -->
<g id="edge39" class="edge">
<title>Node1&#45;&gt;Node28</title>
<path fill="none" stroke="midnightblue" d="M1646.77,-337.85C1802.65,-321.88 2277.09,-273.27 2439.38,-256.65"/>
<polygon fill="none" stroke="midnightblue" points="1646.13,-334.4 1636.54,-338.9 1646.84,-341.36 1646.13,-334.4"/>
</g>
<!-- Node2 -->
<g id="node2" class="node">
<title>Node2</title>
<g id="a_node2"><a xlink:href="classBPMN_1_1FlowNode.html" target="_top" xlink:title="Represents a flow node in a BPMN process.">
<polygon fill="none" stroke="black" points="1546,-409.5 1546,-488.5 1647,-488.5 1647,-409.5 1546,-409.5"/>
<text text-anchor="middle" x="1596.5" y="-476.5" font-family="Helvetica,sans-Serif" font-size="10.00">BPMN::FlowNode</text>
<polyline fill="none" stroke="black" points="1546,-469.5 1647,-469.5 "/>
<text text-anchor="start" x="1554" y="-457.5" font-family="Helvetica,sans-Serif" font-size="10.00">+ element</text>
<text text-anchor="start" x="1554" y="-446.5" font-family="Helvetica,sans-Serif" font-size="10.00">+ incoming</text>
<text text-anchor="start" x="1554" y="-435.5" font-family="Helvetica,sans-Serif" font-size="10.00">+ outgoing</text>
<polyline fill="none" stroke="black" points="1546,-428.5 1647,-428.5 "/>
<text text-anchor="start" x="1554" y="-416.5" font-family="Helvetica,sans-Serif" font-size="10.00">+ FlowNode()</text>
</a>
</g>
</g>
<!-- Node2&#45;&gt;Node1 -->
<g id="edge1" class="edge">
<title>Node2&#45;&gt;Node1</title>
<path fill="none" stroke="midnightblue" d="M1596.5,-399.16C1596.5,-390.04 1596.5,-380.81 1596.5,-372.61"/>
<polygon fill="none" stroke="midnightblue" points="1593,-399.35 1596.5,-409.35 1600,-399.35 1593,-399.35"/>
</g>
<!-- Node3 -->
<g id="node3" class="node">
<title>Node3</title>
<g id="a_node3"><a xlink:href="classBPMN_1_1ChildNode.html" target="_top" xlink:title="Represents a node in a BPMN process that has a parent.">
<polygon fill="none" stroke="black" points="1545.5,-525.5 1545.5,-582.5 1647.5,-582.5 1647.5,-525.5 1545.5,-525.5"/>
<text text-anchor="middle" x="1596.5" y="-570.5" font-family="Helvetica,sans-Serif" font-size="10.00">BPMN::ChildNode</text>
<polyline fill="none" stroke="black" points="1545.5,-563.5 1647.5,-563.5 "/>
<text text-anchor="start" x="1553.5" y="-551.5" font-family="Helvetica,sans-Serif" font-size="10.00">+ parent</text>
<polyline fill="none" stroke="black" points="1545.5,-544.5 1647.5,-544.5 "/>
<text text-anchor="start" x="1553.5" y="-532.5" font-family="Helvetica,sans-Serif" font-size="10.00">+ ChildNode()</text>
</a>
</g>
</g>
<!-- Node3&#45;&gt;Node2 -->
<g id="edge2" class="edge">
<title>Node3&#45;&gt;Node2</title>
<path fill="none" stroke="midnightblue" d="M1596.5,-515.16C1596.5,-506.47 1596.5,-497.23 1596.5,-488.52"/>
<polygon fill="none" stroke="midnightblue" points="1593,-515.4 1596.5,-525.4 1600,-515.4 1593,-515.4"/>
</g>
<!-- Node4 -->
<g id="node4" class="node">
<title>Node4</title>
<g id="a_node4"><a xlink:href="classBPMN_1_1Node.html" target="_top" xlink:title="Represents a node in a BPMN process.">
<polygon fill="none" stroke="black" points="1535.5,-619.5 1535.5,-863.5 1657.5,-863.5 1657.5,-619.5 1535.5,-619.5"/>
<text text-anchor="middle" x="1596.5" y="-851.5" font-family="Helvetica,sans-Serif" font-size="10.00">BPMN::Node</text>
<polyline fill="none" stroke="black" points="1535.5,-844.5 1657.5,-844.5 "/>
<text text-anchor="start" x="1543.5" y="-832.5" font-family="Helvetica,sans-Serif" font-size="10.00">+ id</text>
<text text-anchor="start" x="1543.5" y="-821.5" font-family="Helvetica,sans-Serif" font-size="10.00">+ receiving</text>
<text text-anchor="start" x="1543.5" y="-810.5" font-family="Helvetica,sans-Serif" font-size="10.00">+ sending</text>
<text text-anchor="start" x="1543.5" y="-799.5" font-family="Helvetica,sans-Serif" font-size="10.00">+ element</text>
<text text-anchor="start" x="1543.5" y="-788.5" font-family="Helvetica,sans-Serif" font-size="10.00">+ extensionElements</text>
<polyline fill="none" stroke="black" points="1535.5,-781.5 1657.5,-781.5 "/>
<text text-anchor="start" x="1543.5" y="-769.5" font-family="Helvetica,sans-Serif" font-size="10.00">+ Node()</text>
<text text-anchor="start" x="1543.5" y="-758.5" font-family="Helvetica,sans-Serif" font-size="10.00">+ ~Node()</text>
<text text-anchor="start" x="1543.5" y="-747.5" font-family="Helvetica,sans-Serif" font-size="10.00">+ is()</text>
<text text-anchor="start" x="1543.5" y="-736.5" font-family="Helvetica,sans-Serif" font-size="10.00">+ is()</text>
<text text-anchor="start" x="1543.5" y="-725.5" font-family="Helvetica,sans-Serif" font-size="10.00">+ get()</text>
<text text-anchor="start" x="1543.5" y="-714.5" font-family="Helvetica,sans-Serif" font-size="10.00">+ get()</text>
<text text-anchor="start" x="1543.5" y="-703.5" font-family="Helvetica,sans-Serif" font-size="10.00">+ represents()</text>
<text text-anchor="start" x="1543.5" y="-692.5" font-family="Helvetica,sans-Serif" font-size="10.00">+ represents()</text>
<text text-anchor="start" x="1543.5" y="-681.5" font-family="Helvetica,sans-Serif" font-size="10.00">+ as()</text>
<text text-anchor="start" x="1543.5" y="-670.5" font-family="Helvetica,sans-Serif" font-size="10.00">+ as()</text>
<text text-anchor="start" x="1543.5" y="-659.5" font-family="Helvetica,sans-Serif" font-size="10.00">+ find()</text>
<text text-anchor="start" x="1543.5" y="-648.5" font-family="Helvetica,sans-Serif" font-size="10.00">+ find()</text>
<text text-anchor="start" x="1543.5" y="-637.5" font-family="Helvetica,sans-Serif" font-size="10.00">+ find_all()</text>
<text text-anchor="start" x="1543.5" y="-626.5" font-family="Helvetica,sans-Serif" font-size="10.00">+ find_all()</text>
</a>
</g>
</g>
<!-- Node4&#45;&gt;Node3 -->
<g id="edge3" class="edge">
<title>Node4&#45;&gt;Node3</title>
<path fill="none" stroke="midnightblue" d="M1596.5,-609.34C1596.5,-599.53 1596.5,-590.42 1596.5,-582.57"/>
<polygon fill="none" stroke="midnightblue" points="1593,-609.36 1596.5,-619.36 1600,-609.36 1593,-609.36"/>
</g>
<!-- Node6 -->
<g id="node6" class="node">
<title>Node6</title>
<g id="a_node6"><a xlink:href="classBPMN_1_1BoundaryEvent.html" target="_top" xlink:title="Represents a boundary event attached to an activity in a BPMN process.">
<polygon fill="none" stroke="black" points="626.5,-105.5 626.5,-184.5 752.5,-184.5 752.5,-105.5 626.5,-105.5"/>
<text text-anchor="middle" x="689.5" y="-172.5" font-family="Helvetica,sans-Serif" font-size="10.00">BPMN::BoundaryEvent</text>
<polyline fill="none" stroke="black" points="626.5,-165.5 752.5,-165.5 "/>
<text text-anchor="start" x="634.5" y="-153.5" font-family="Helvetica,sans-Serif" font-size="10.00">+ isInterrupting</text>
<text text-anchor="start" x="634.5" y="-142.5" font-family="Helvetica,sans-Serif" font-size="10.00">+ attachedTo</text>
<polyline fill="none" stroke="black" points="626.5,-135.5 752.5,-135.5 "/>
<text text-anchor="start" x="634.5" y="-123.5" font-family="Helvetica,sans-Serif" font-size="10.00">+ BoundaryEvent()</text>
<text text-anchor="start" x="634.5" y="-112.5" font-family="Helvetica,sans-Serif" font-size="10.00"># resolveReference()</text>
</a>
</g>
</g>
<!-- Node5&#45;&gt;Node6 -->
<g id="edge5" class="edge">
<title>Node5&#45;&gt;Node6</title>
<path fill="none" stroke="midnightblue" d="M743.18,-213.43C735.76,-204.1 727.71,-194 720.17,-184.52"/>
<polygon fill="none" stroke="midnightblue" points="740.56,-215.75 749.53,-221.4 746.04,-211.39 740.56,-215.75"/>
</g>
<!-- Node7 -->
<g id="node7" class="node">
<title>Node7</title>
<g id="a_node7"><a xlink:href="classBPMN_1_1CancelBoundaryEvent.html" target="_top" xlink:title=" ">
<polygon fill="none" stroke="black" points="346,-6 346,-63 505,-63 505,-6 346,-6"/>
<text text-anchor="middle" x="425.5" y="-51" font-family="Helvetica,sans-Serif" font-size="10.00">BPMN::CancelBoundaryEvent</text>
<polyline fill="none" stroke="black" points="346,-44 505,-44 "/>
<text text-anchor="start" x="354" y="-32" font-family="Helvetica,sans-Serif" font-size="10.00">+ element</text>
<polyline fill="none" stroke="black" points="346,-25 505,-25 "/>
<text text-anchor="start" x="354" y="-13" font-family="Helvetica,sans-Serif" font-size="10.00">+ CancelBoundaryEvent()</text>
</a>
</g>
</g>
<!-- Node5&#45;&gt;Node7 -->
<g id="edge14" class="edge">
<title>Node5&#45;&gt;Node7</title>
<path fill="none" stroke="midnightblue" d="M708.02,-236.48C671.92,-226.96 627.49,-210.94 594.5,-185 560.97,-158.64 572.33,-134.47 541.5,-105 524.36,-88.62 502.69,-74.34 482.73,-63.07"/>
<polygon fill="none" stroke="midnightblue" points="707.41,-239.94 717.96,-239 709.13,-233.15 707.41,-239.94"/>
</g>
<!-- Node8 -->
<g id="node8" class="node">
<title>Node8</title>
<g id="a_node8"><a xlink:href="classBPMN_1_1CompensateBoundaryEvent.html" target="_top" xlink:title=" ">
<polygon fill="none" stroke="black" points="523,-0.5 523,-68.5 694,-68.5 694,-0.5 523,-0.5"/>
<text text-anchor="start" x="531" y="-56.5" font-family="Helvetica,sans-Serif" font-size="10.00">BPMN::CompensateBoundary</text>
<text text-anchor="middle" x="608.5" y="-45.5" font-family="Helvetica,sans-Serif" font-size="10.00">Event</text>
<polyline fill="none" stroke="black" points="523,-38.5 694,-38.5 "/>
<text text-anchor="start" x="531" y="-26.5" font-family="Helvetica,sans-Serif" font-size="10.00">+ element</text>
<polyline fill="none" stroke="black" points="523,-19.5 694,-19.5 "/>
<text text-anchor="start" x="531" y="-7.5" font-family="Helvetica,sans-Serif" font-size="10.00">+ CompensateBoundaryEvent()</text>
</a>
</g>
</g>
<!-- Node5&#45;&gt;Node8 -->
<g id="edge15" class="edge">
<title>Node5&#45;&gt;Node8</title>
<path fill="none" stroke="midnightblue" d="M707.97,-238.96C675.46,-230.34 638.42,-214.39 617.5,-185 593.38,-151.1 595.89,-101.18 601.17,-68.5"/>
<polygon fill="none" stroke="midnightblue" points="707.35,-242.41 717.89,-241.41 709.02,-235.61 707.35,-242.41"/>
</g>
<!-- Node10 -->
<g id="node10" class="node">
<title>Node10</title>
<g id="a_node10"><a xlink:href="classBPMN_1_1ErrorBoundaryEvent.html" target="_top" xlink:title=" ">
<polygon fill="none" stroke="black" points="0,-6 0,-63 149,-63 149,-6 0,-6"/>
<text text-anchor="middle" x="74.5" y="-51" font-family="Helvetica,sans-Serif" font-size="10.00">BPMN::ErrorBoundaryEvent</text>
<polyline fill="none" stroke="black" points="0,-44 149,-44 "/>
<text text-anchor="start" x="8" y="-32" font-family="Helvetica,sans-Serif" font-size="10.00">+ element</text>
<polyline fill="none" stroke="black" points="0,-25 149,-25 "/>
<text text-anchor="start" x="8" y="-13" font-family="Helvetica,sans-Serif" font-size="10.00">+ ErrorBoundaryEvent()</text>
</a>
</g>
</g>
<!-- Node5&#45;&gt;Node10 -->
<g id="edge19" class="edge">
<title>Node5&#45;&gt;Node10</title>
<path fill="none" stroke="midnightblue" d="M707.5,-249.95C612.89,-249.3 431.56,-240.07 289.5,-185 215.95,-156.49 143.34,-97.96 104.18,-63.19"/>
<polygon fill="none" stroke="midnightblue" points="707.76,-253.45 717.77,-249.99 707.79,-246.45 707.76,-253.45"/>
</g>
<!-- Node11 -->
<g id="node11" class="node">
<title>Node11</title>
<g id="a_node11"><a xlink:href="classBPMN_1_1EscalationBoundaryEvent.html" target="_top" xlink:title=" ">
<polygon fill="none" stroke="black" points="167.5,-0.5 167.5,-68.5 327.5,-68.5 327.5,-0.5 167.5,-0.5"/>
<text text-anchor="start" x="175.5" y="-56.5" font-family="Helvetica,sans-Serif" font-size="10.00">BPMN::EscalationBoundary</text>
<text text-anchor="middle" x="247.5" y="-45.5" font-family="Helvetica,sans-Serif" font-size="10.00">Event</text>
<polyline fill="none" stroke="black" points="167.5,-38.5 327.5,-38.5 "/>
<text text-anchor="start" x="175.5" y="-26.5" font-family="Helvetica,sans-Serif" font-size="10.00">+ element</text>
<polyline fill="none" stroke="black" points="167.5,-19.5 327.5,-19.5 "/>
<text text-anchor="start" x="175.5" y="-7.5" font-family="Helvetica,sans-Serif" font-size="10.00">+ EscalationBoundaryEvent()</text>
</a>
</g>
</g>
<!-- Node5&#45;&gt;Node11 -->
<g id="edge20" class="edge">
<title>Node5&#45;&gt;Node11</title>
<path fill="none" stroke="midnightblue" d="M707.65,-243.81C611.46,-235.12 434.75,-215.52 379.5,-185 329.64,-157.46 289.36,-103.58 266.93,-68.59"/>
<polygon fill="none" stroke="midnightblue" points="707.56,-247.31 717.83,-244.72 708.18,-240.34 707.56,-247.31"/>
</g>
<!-- Node15 -->
<g id="node15" class="node">
<title>Node15</title>
<g id="a_node15"><a xlink:href="classBPMN_1_1ConditionalCatchEvent.html" target="_top" xlink:title=" ">
<polygon fill="none" stroke="black" points="771,-116.5 771,-173.5 934,-173.5 934,-116.5 771,-116.5"/>
<text text-anchor="middle" x="852.5" y="-161.5" font-family="Helvetica,sans-Serif" font-size="10.00">BPMN::ConditionalCatchEvent</text>
<polyline fill="none" stroke="black" points="771,-154.5 934,-154.5 "/>
<text text-anchor="start" x="779" y="-142.5" font-family="Helvetica,sans-Serif" font-size="10.00">+ element</text>
<polyline fill="none" stroke="black" points="771,-135.5 934,-135.5 "/>
<text text-anchor="start" x="779" y="-123.5" font-family="Helvetica,sans-Serif" font-size="10.00">+ ConditionalCatchEvent()</text>
</a>
</g>
</g>
<!-- Node5&#45;&gt;Node15 -->
<g id="edge16" class="edge">
<title>Node5&#45;&gt;Node15</title>
<path fill="none" stroke="midnightblue" d="M799.41,-213.51C809.66,-200.48 821.1,-185.93 830.73,-173.68"/>
<polygon fill="none" stroke="midnightblue" points="796.64,-211.37 793.21,-221.4 802.14,-215.7 796.64,-211.37"/>
</g>
<!-- Node17 -->
<g id="node17" class="node">
<title>Node17</title>
<g id="a_node17"><a xlink:href="classBPMN_1_1MessageCatchEvent.html" target="_top" xlink:title=" ">
<polygon fill="none" stroke="black" points="952,-116.5 952,-173.5 1103,-173.5 1103,-116.5 952,-116.5"/>
<text text-anchor="middle" x="1027.5" y="-161.5" font-family="Helvetica,sans-Serif" font-size="10.00">BPMN::MessageCatchEvent</text>
<polyline fill="none" stroke="black" points="952,-154.5 1103,-154.5 "/>
<text text-anchor="start" x="960" y="-142.5" font-family="Helvetica,sans-Serif" font-size="10.00">+ element</text>
<polyline fill="none" stroke="black" points="952,-135.5 1103,-135.5 "/>
<text text-anchor="start" x="960" y="-123.5" font-family="Helvetica,sans-Serif" font-size="10.00">+ MessageCatchEvent()</text>
</a>
</g>
</g>
<!-- Node5&#45;&gt;Node17 -->
<g id="edge21" class="edge">
<title>Node5&#45;&gt;Node17</title>
<path fill="none" stroke="midnightblue" d="M834.84,-226.53C867.26,-214.72 907.22,-199.67 942.5,-185 951.04,-181.45 960,-177.54 968.76,-173.62"/>
<polygon fill="none" stroke="midnightblue" points="833.24,-223.39 825.03,-230.09 835.63,-229.97 833.24,-223.39"/>
</g>
<!-- Node19 -->
<g id="node19" class="node">
<title>Node19</title>
<g id="a_node19"><a xlink:href="classBPMN_1_1SignalCatchEvent.html" target="_top" xlink:title=" ">
<polygon fill="none" stroke="black" points="1121,-116.5 1121,-173.5 1258,-173.5 1258,-116.5 1121,-116.5"/>
<text text-anchor="middle" x="1189.5" y="-161.5" font-family="Helvetica,sans-Serif" font-size="10.00">BPMN::SignalCatchEvent</text>
<polyline fill="none" stroke="black" points="1121,-154.5 1258,-154.5 "/>
<text text-anchor="start" x="1129" y="-142.5" font-family="Helvetica,sans-Serif" font-size="10.00">+ element</text>
<polyline fill="none" stroke="black" points="1121,-135.5 1258,-135.5 "/>
<text text-anchor="start" x="1129" y="-123.5" font-family="Helvetica,sans-Serif" font-size="10.00">+ SignalCatchEvent()</text>
</a>
</g>
</g>
<!-- Node5&#45;&gt;Node19 -->
<g id="edge24" class="edge">
<title>Node5&#45;&gt;Node19</title>
<path fill="none" stroke="midnightblue" d="M835.4,-242.34C904.76,-233.88 1018.1,-216.45 1111.5,-185 1120.68,-181.91 1130.15,-177.92 1139.18,-173.69"/>
<polygon fill="none" stroke="midnightblue" points="834.59,-238.91 825.08,-243.57 835.42,-245.86 834.59,-238.91"/>
</g>
<!-- Node21 -->
<g id="node21" class="node">
<title>Node21</title>
<g id="a_node21"><a xlink:href="classBPMN_1_1TimerCatchEvent.html" target="_top" xlink:title=" ">
<polygon fill="none" stroke="black" points="1276.5,-116.5 1276.5,-173.5 1412.5,-173.5 1412.5,-116.5 1276.5,-116.5"/>
<text text-anchor="middle" x="1344.5" y="-161.5" font-family="Helvetica,sans-Serif" font-size="10.00">BPMN::TimerCatchEvent</text>
<polyline fill="none" stroke="black" points="1276.5,-154.5 1412.5,-154.5 "/>
<text text-anchor="start" x="1284.5" y="-142.5" font-family="Helvetica,sans-Serif" font-size="10.00">+ element</text>
<polyline fill="none" stroke="black" points="1276.5,-135.5 1412.5,-135.5 "/>
<text text-anchor="start" x="1284.5" y="-123.5" font-family="Helvetica,sans-Serif" font-size="10.00">+ TimerCatchEvent()</text>
</a>
</g>
</g>
<!-- Node5&#45;&gt;Node21 -->
<g id="edge27" class="edge">
<title>Node5&#45;&gt;Node21</title>
<path fill="none" stroke="midnightblue" d="M835.2,-247.53C930.85,-243.83 1116.36,-230.8 1266.5,-185 1276.2,-182.04 1286.17,-177.96 1295.6,-173.54"/>
<polygon fill="none" stroke="midnightblue" points="834.97,-244.04 825.11,-247.9 835.23,-251.03 834.97,-244.04"/>
</g>
<!-- Node23 -->
<g id="node23" class="node">
<title>Node23</title>
<g id="a_node23"><a xlink:href="classBPMN_1_1TypedStartEvent.html" target="_top" xlink:title="Represents a start event with an event definition.">
<polygon fill="none" stroke="black" points="1773,-116.5 1773,-173.5 1904,-173.5 1904,-116.5 1773,-116.5"/>
<text text-anchor="middle" x="1838.5" y="-161.5" font-family="Helvetica,sans-Serif" font-size="10.00">BPMN::TypedStartEvent</text>
<polyline fill="none" stroke="black" points="1773,-154.5 1904,-154.5 "/>
<text text-anchor="start" x="1781" y="-142.5" font-family="Helvetica,sans-Serif" font-size="10.00">+ isInterrupting</text>
<polyline fill="none" stroke="black" points="1773,-135.5 1904,-135.5 "/>
<text text-anchor="start" x="1781" y="-123.5" font-family="Helvetica,sans-Serif" font-size="10.00">+ TypedStartEvent()</text>
</a>
</g>
</g>
<!-- Node5&#45;&gt;Node23 -->
<g id="edge30" class="edge">
<title>Node5&#45;&gt;Node23</title>
<path fill="none" stroke="midnightblue" d="M835.2,-242.85C1024.3,-224.6 1581.13,-170.84 1772.8,-152.34"/>
<polygon fill="none" stroke="midnightblue" points="834.76,-239.38 825.14,-243.82 835.43,-246.34 834.76,-239.38"/>
</g>
<!-- Node27 -->
<g id="node27" class="node">
<title>Node27</title>
<g id="a_node27"><a xlink:href="classBPMN_1_1UntypedStartEvent.html" target="_top" xlink:title=" ">
<polygon fill="none" stroke="black" points="388.5,-116.5 388.5,-173.5 532.5,-173.5 532.5,-116.5 388.5,-116.5"/>
<text text-anchor="middle" x="460.5" y="-161.5" font-family="Helvetica,sans-Serif" font-size="10.00">BPMN::UntypedStartEvent</text>
<polyline fill="none" stroke="black" points="388.5,-154.5 532.5,-154.5 "/>
<text text-anchor="start" x="396.5" y="-142.5" font-family="Helvetica,sans-Serif" font-size="10.00">+ element</text>
<polyline fill="none" stroke="black" points="388.5,-135.5 532.5,-135.5 "/>
<text text-anchor="start" x="396.5" y="-123.5" font-family="Helvetica,sans-Serif" font-size="10.00">+ UntypedStartEvent()</text>
</a>
</g>
</g>
<!-- Node5&#45;&gt;Node27 -->
<g id="edge38" class="edge">
<title>Node5&#45;&gt;Node27</title>
<path fill="none" stroke="midnightblue" d="M707.86,-233.6C662.36,-221.93 599.96,-204.6 546.5,-185 537.26,-181.61 527.63,-177.67 518.3,-173.62"/>
<polygon fill="none" stroke="midnightblue" points="707.04,-237 717.6,-236.07 708.77,-230.21 707.04,-237"/>
</g>
<!-- Node6&#45;&gt;Node7 -->
<g id="edge6" class="edge">
<title>Node6&#45;&gt;Node7</title>
<path fill="none" stroke="midnightblue" d="M616.62,-114.05C577.92,-98.14 530.67,-78.72 492.83,-63.17"/>
<polygon fill="none" stroke="midnightblue" points="615.69,-117.45 626.27,-118.01 618.35,-110.97 615.69,-117.45"/>
</g>
<!-- Node6&#45;&gt;Node8 -->
<g id="edge7" class="edge">
<title>Node6&#45;&gt;Node8</title>
<path fill="none" stroke="midnightblue" d="M654.71,-97.39C647.46,-87.68 639.96,-77.64 633.17,-68.54"/>
<polygon fill="none" stroke="midnightblue" points="651.93,-99.52 660.71,-105.44 657.54,-95.33 651.93,-99.52"/>
</g>
<!-- Node9 -->
<g id="node9" class="node">
<title>Node9</title>
<g id="a_node9"><a xlink:href="classBPMN_1_1ConditionalBoundaryEvent.html" target="_top" xlink:title=" ">
<polygon fill="none" stroke="black" points="712,-0.5 712,-68.5 877,-68.5 877,-0.5 712,-0.5"/>
<text text-anchor="start" x="720" y="-56.5" font-family="Helvetica,sans-Serif" font-size="10.00">BPMN::ConditionalBoundary</text>
<text text-anchor="middle" x="794.5" y="-45.5" font-family="Helvetica,sans-Serif" font-size="10.00">Event</text>
<polyline fill="none" stroke="black" points="712,-38.5 877,-38.5 "/>
<text text-anchor="start" x="720" y="-26.5" font-family="Helvetica,sans-Serif" font-size="10.00">+ element</text>
<polyline fill="none" stroke="black" points="712,-19.5 877,-19.5 "/>
<text text-anchor="start" x="720" y="-7.5" font-family="Helvetica,sans-Serif" font-size="10.00">+ ConditionalBoundaryEvent()</text>
</a>
</g>
</g>
<!-- Node6&#45;&gt;Node9 -->
<g id="edge8" class="edge">
<title>Node6&#45;&gt;Node9</title>
<path fill="none" stroke="midnightblue" d="M734.04,-97.97C743.61,-88.09 753.54,-77.82 762.52,-68.54"/>
<polygon fill="none" stroke="midnightblue" points="731.25,-95.82 726.81,-105.44 736.28,-100.69 731.25,-95.82"/>
</g>
<!-- Node6&#45;&gt;Node10 -->
<g id="edge9" class="edge">
<title>Node6&#45;&gt;Node10</title>
<path fill="none" stroke="midnightblue" d="M616.62,-122.26C592.85,-115.85 566.22,-109.39 541.5,-105 373.16,-75.12 324.71,-109.08 158.5,-69 151.78,-67.38 144.9,-65.33 138.09,-63.04"/>
<polygon fill="none" stroke="midnightblue" points="615.7,-125.63 626.27,-124.9 617.54,-118.88 615.7,-125.63"/>
</g>
<!-- Node6&#45;&gt;Node11 -->
<g id="edge10" class="edge">
<title>Node6&#45;&gt;Node11</title>
<path fill="none" stroke="midnightblue" d="M616.72,-123.52C592.85,-117.16 566.14,-110.4 541.5,-105 451.14,-85.2 425.73,-93.4 336.5,-69 333.63,-68.22 330.73,-67.38 327.81,-66.49"/>
<polygon fill="none" stroke="midnightblue" points="615.84,-126.91 626.4,-126.13 617.66,-120.15 615.84,-126.91"/>
</g>
<!-- Node12 -->
<g id="node12" class="node">
<title>Node12</title>
<g id="a_node12"><a xlink:href="classBPMN_1_1MessageBoundaryEvent.html" target="_top" xlink:title=" ">
<polygon fill="none" stroke="black" points="895.5,-6 895.5,-63 1065.5,-63 1065.5,-6 895.5,-6"/>
<text text-anchor="middle" x="980.5" y="-51" font-family="Helvetica,sans-Serif" font-size="10.00">BPMN::MessageBoundaryEvent</text>
<polyline fill="none" stroke="black" points="895.5,-44 1065.5,-44 "/>
<text text-anchor="start" x="903.5" y="-32" font-family="Helvetica,sans-Serif" font-size="10.00">+ element</text>
<polyline fill="none" stroke="black" points="895.5,-25 1065.5,-25 "/>
<text text-anchor="start" x="903.5" y="-13" font-family="Helvetica,sans-Serif" font-size="10.00">+ MessageBoundaryEvent()</text>
</a>
</g>
</g>
<!-- Node6&#45;&gt;Node12 -->
<g id="edge11" class="edge">
<title>Node6&#45;&gt;Node12</title>
<path fill="none" stroke="midnightblue" d="M762.16,-104.98C816.41,-83.5 833.74,-85.62 885.5,-69 891.41,-67.1 897.51,-65.09 903.63,-63.02"/>
<polygon fill="none" stroke="midnightblue" points="760.7,-101.79 752.74,-108.79 763.33,-108.28 760.7,-101.79"/>
</g>
<!-- Node13 -->
<g id="node13" class="node">
<title>Node13</title>
<g id="a_node13"><a xlink:href="classBPMN_1_1SignalBoundaryEvent.html" target="_top" xlink:title=" ">
<polygon fill="none" stroke="black" points="1083.5,-6 1083.5,-63 1239.5,-63 1239.5,-6 1083.5,-6"/>
<text text-anchor="middle" x="1161.5" y="-51" font-family="Helvetica,sans-Serif" font-size="10.00">BPMN::SignalBoundaryEvent</text>
<polyline fill="none" stroke="black" points="1083.5,-44 1239.5,-44 "/>
<text text-anchor="start" x="1091.5" y="-32" font-family="Helvetica,sans-Serif" font-size="10.00">+ element</text>
<polyline fill="none" stroke="black" points="1083.5,-25 1239.5,-25 "/>
<text text-anchor="start" x="1091.5" y="-13" font-family="Helvetica,sans-Serif" font-size="10.00">+ SignalBoundaryEvent()</text>
</a>
</g>
</g>
<!-- Node6&#45;&gt;Node13 -->
<g id="edge12" class="edge">
<title>Node6&#45;&gt;Node13</title>
<path fill="none" stroke="midnightblue" d="M762.38,-105.13C897.13,-64.7 941.71,-101.64 1074.5,-69 1081.26,-67.34 1088.2,-65.29 1095.08,-63.03"/>
<polygon fill="none" stroke="midnightblue" points="761.04,-101.88 752.52,-108.17 763.11,-108.56 761.04,-101.88"/>
</g>
<!-- Node14 -->
<g id="node14" class="node">
<title>Node14</title>
<g id="a_node14"><a xlink:href="classBPMN_1_1TimerBoundaryEvent.html" target="_top" xlink:title=" ">
<polygon fill="none" stroke="black" points="1258,-6 1258,-63 1413,-63 1413,-6 1258,-6"/>
<text text-anchor="middle" x="1335.5" y="-51" font-family="Helvetica,sans-Serif" font-size="10.00">BPMN::TimerBoundaryEvent</text>
<polyline fill="none" stroke="black" points="1258,-44 1413,-44 "/>
<text text-anchor="start" x="1266" y="-32" font-family="Helvetica,sans-Serif" font-size="10.00">+ element</text>
<polyline fill="none" stroke="black" points="1258,-25 1413,-25 "/>
<text text-anchor="start" x="1266" y="-13" font-family="Helvetica,sans-Serif" font-size="10.00">+ TimerBoundaryEvent()</text>
</a>
</g>
</g>
<!-- Node6&#45;&gt;Node14 -->
<g id="edge13" class="edge">
<title>Node6&#45;&gt;Node14</title>
<path fill="none" stroke="midnightblue" d="M762.63,-105.06C971.83,-46.13 1039.93,-115.79 1248.5,-69 1255.61,-67.41 1262.9,-65.34 1270.1,-63.01"/>
<polygon fill="none" stroke="midnightblue" points="761.52,-101.73 752.88,-107.87 763.46,-108.46 761.52,-101.73"/>
</g>
<!-- Node15&#45;&gt;Node9 -->
<g id="edge17" class="edge">
<title>Node15&#45;&gt;Node9</title>
<path fill="none" stroke="midnightblue" d="M832.97,-107.46C826.23,-94.86 818.73,-80.82 812.15,-68.52"/>
<polygon fill="none" stroke="midnightblue" points="829.91,-109.17 837.71,-116.34 836.09,-105.87 829.91,-109.17"/>
</g>
<!-- Node16 -->
<g id="node16" class="node">
<title>Node16</title>
<g id="a_node16"><a xlink:href="classBPMN_1_1ConditionalStartEvent.html" target="_top" xlink:title=" ">
<polygon fill="none" stroke="black" points="1431.5,-6 1431.5,-63 1589.5,-63 1589.5,-6 1431.5,-6"/>
<text text-anchor="middle" x="1510.5" y="-51" font-family="Helvetica,sans-Serif" font-size="10.00">BPMN::ConditionalStartEvent</text>
<polyline fill="none" stroke="black" points="1431.5,-44 1589.5,-44 "/>
<text text-anchor="start" x="1439.5" y="-32" font-family="Helvetica,sans-Serif" font-size="10.00">+ element</text>
<polyline fill="none" stroke="black" points="1431.5,-25 1589.5,-25 "/>
<text text-anchor="start" x="1439.5" y="-13" font-family="Helvetica,sans-Serif" font-size="10.00">+ ConditionalStartEvent()</text>
</a>
</g>
</g>
<!-- Node15&#45;&gt;Node16 -->
<g id="edge18" class="edge">
<title>Node15&#45;&gt;Node16</title>
<path fill="none" stroke="midnightblue" d="M917.69,-112.77C925.9,-109.73 934.3,-107.02 942.5,-105 1149.77,-53.85 1213.04,-115.07 1421.5,-69 1428.59,-67.43 1435.88,-65.41 1443.08,-63.15"/>
<polygon fill="none" stroke="midnightblue" points="916.2,-109.59 908.15,-116.48 918.74,-116.12 916.2,-109.59"/>
</g>
<!-- Node17&#45;&gt;Node12 -->
<g id="edge22" class="edge">
<title>Node17&#45;&gt;Node12</title>
<path fill="none" stroke="midnightblue" d="M1011.37,-106.76C1005.17,-92.44 998.2,-76.37 992.46,-63.11"/>
<polygon fill="none" stroke="midnightblue" points="1008.33,-108.56 1015.52,-116.34 1014.75,-105.77 1008.33,-108.56"/>
</g>
<!-- Node18 -->
<g id="node18" class="node">
<title>Node18</title>
<g id="a_node18"><a xlink:href="classBPMN_1_1MessageStartEvent.html" target="_top" xlink:title=" ">
<polygon fill="none" stroke="black" points="1607.5,-6 1607.5,-63 1753.5,-63 1753.5,-6 1607.5,-6"/>
<text text-anchor="middle" x="1680.5" y="-51" font-family="Helvetica,sans-Serif" font-size="10.00">BPMN::MessageStartEvent</text>
<polyline fill="none" stroke="black" points="1607.5,-44 1753.5,-44 "/>
<text text-anchor="start" x="1615.5" y="-32" font-family="Helvetica,sans-Serif" font-size="10.00">+ element</text>
<polyline fill="none" stroke="black" points="1607.5,-25 1753.5,-25 "/>
<text text-anchor="start" x="1615.5" y="-13" font-family="Helvetica,sans-Serif" font-size="10.00">+ MessageStartEvent()</text>
</a>
</g>
</g>
<!-- Node17&#45;&gt;Node18 -->
<g id="edge23" class="edge">
<title>Node17&#45;&gt;Node18</title>
<path fill="none" stroke="midnightblue" d="M1088.71,-112.54C1096.24,-109.58 1103.95,-106.96 1111.5,-105 1321.56,-50.42 1387.22,-118.65 1598.5,-69 1605.24,-67.42 1612.14,-65.36 1618.94,-63.03"/>
<polygon fill="none" stroke="midnightblue" points="1087.19,-109.38 1079.29,-116.44 1089.87,-115.85 1087.19,-109.38"/>
</g>
<!-- Node19&#45;&gt;Node13 -->
<g id="edge25" class="edge">
<title>Node19&#45;&gt;Node13</title>
<path fill="none" stroke="midnightblue" d="M1179.78,-106.35C1176.12,-92.14 1172.01,-76.24 1168.62,-63.11"/>
<polygon fill="none" stroke="midnightblue" points="1176.47,-107.53 1182.36,-116.34 1183.25,-105.78 1176.47,-107.53"/>
</g>
<!-- Node20 -->
<g id="node20" class="node">
<title>Node20</title>
<g id="a_node20"><a xlink:href="classBPMN_1_1SignalStartEvent.html" target="_top" xlink:title=" ">
<polygon fill="none" stroke="black" points="1772,-6 1772,-63 1905,-63 1905,-6 1772,-6"/>
<text text-anchor="middle" x="1838.5" y="-51" font-family="Helvetica,sans-Serif" font-size="10.00">BPMN::SignalStartEvent</text>
<polyline fill="none" stroke="black" points="1772,-44 1905,-44 "/>
<text text-anchor="start" x="1780" y="-32" font-family="Helvetica,sans-Serif" font-size="10.00">+ element</text>
<polyline fill="none" stroke="black" points="1772,-25 1905,-25 "/>
<text text-anchor="start" x="1780" y="-13" font-family="Helvetica,sans-Serif" font-size="10.00">+ SignalStartEvent()</text>
</a>
</g>
</g>
<!-- Node19&#45;&gt;Node20 -->
<g id="edge26" class="edge">
<title>Node19&#45;&gt;Node20</title>
<path fill="none" stroke="midnightblue" d="M1246.67,-112.31C1253.54,-109.44 1260.57,-106.9 1267.5,-105 1480.2,-46.56 1548.45,-122.26 1762.5,-69 1768.8,-67.43 1775.23,-65.38 1781.55,-63.07"/>
<polygon fill="none" stroke="midnightblue" points="1245.16,-109.15 1237.43,-116.4 1247.99,-115.55 1245.16,-109.15"/>
</g>
<!-- Node21&#45;&gt;Node14 -->
<g id="edge28" class="edge">
<title>Node21&#45;&gt;Node14</title>
<path fill="none" stroke="midnightblue" d="M1341.38,-106.35C1340.2,-92.14 1338.88,-76.24 1337.79,-63.11"/>
<polygon fill="none" stroke="midnightblue" points="1337.89,-106.66 1342.21,-116.34 1344.87,-106.08 1337.89,-106.66"/>
</g>
<!-- Node22 -->
<g id="node22" class="node">
<title>Node22</title>
<g id="a_node22"><a xlink:href="classBPMN_1_1TimerStartEvent.html" target="_top" xlink:title=" ">
<polygon fill="none" stroke="black" points="1923,-6 1923,-63 2054,-63 2054,-6 1923,-6"/>
<text text-anchor="middle" x="1988.5" y="-51" font-family="Helvetica,sans-Serif" font-size="10.00">BPMN::TimerStartEvent</text>
<polyline fill="none" stroke="black" points="1923,-44 2054,-44 "/>
<text text-anchor="start" x="1931" y="-32" font-family="Helvetica,sans-Serif" font-size="10.00">+ element</text>
<polyline fill="none" stroke="black" points="1923,-25 2054,-25 "/>
<text text-anchor="start" x="1931" y="-13" font-family="Helvetica,sans-Serif" font-size="10.00">+ TimerStartEvent()</text>
</a>
</g>
</g>
<!-- Node21&#45;&gt;Node22 -->
<g id="edge29" class="edge">
<title>Node21&#45;&gt;Node22</title>
<path fill="none" stroke="midnightblue" d="M1423.07,-140.95C1534.38,-135 1743.48,-117.8 1914.5,-69 1920.33,-67.34 1926.29,-65.29 1932.17,-63.03"/>
<polygon fill="none" stroke="midnightblue" points="1422.74,-137.46 1412.93,-141.48 1423.1,-144.45 1422.74,-137.46"/>
</g>
<!-- Node23&#45;&gt;Node16 -->
<g id="edge32" class="edge">
<title>Node23&#45;&gt;Node16</title>
<path fill="none" stroke="midnightblue" d="M1763.36,-121.8C1715.86,-107.45 1653.3,-87.97 1598.5,-69 1593.09,-67.13 1587.52,-65.14 1581.93,-63.11"/>
<polygon fill="none" stroke="midnightblue" points="1762.37,-125.16 1772.96,-124.69 1764.39,-118.46 1762.37,-125.16"/>
</g>
<!-- Node23&#45;&gt;Node18 -->
<g id="edge35" class="edge">
<title>Node23&#45;&gt;Node18</title>
<path fill="none" stroke="midnightblue" d="M1789.92,-110.64C1767.74,-95.41 1741.77,-77.58 1720.71,-63.11"/>
<polygon fill="none" stroke="midnightblue" points="1788,-113.56 1798.22,-116.34 1791.96,-107.79 1788,-113.56"/>
</g>
<!-- Node23&#45;&gt;Node20 -->
<g id="edge36" class="edge">
<title>Node23&#45;&gt;Node20</title>
<path fill="none" stroke="midnightblue" d="M1838.5,-105.94C1838.5,-91.83 1838.5,-76.11 1838.5,-63.11"/>
<polygon fill="none" stroke="midnightblue" points="1835,-106.34 1838.5,-116.34 1842,-106.34 1835,-106.34"/>
</g>
<!-- Node23&#45;&gt;Node22 -->
<g id="edge37" class="edge">
<title>Node23&#45;&gt;Node22</title>
<path fill="none" stroke="midnightblue" d="M1884.9,-110.44C1905.9,-95.25 1930.42,-77.51 1950.33,-63.11"/>
<polygon fill="none" stroke="midnightblue" points="1882.79,-107.64 1876.74,-116.34 1886.89,-113.32 1882.79,-107.64"/>
</g>
<!-- Node24 -->
<g id="node24" class="node">
<title>Node24</title>
<g id="a_node24"><a xlink:href="classBPMN_1_1CompensateStartEvent.html" target="_top" xlink:title=" ">
<polygon fill="none" stroke="black" points="2072.5,-6 2072.5,-63 2236.5,-63 2236.5,-6 2072.5,-6"/>
<text text-anchor="middle" x="2154.5" y="-51" font-family="Helvetica,sans-Serif" font-size="10.00">BPMN::CompensateStartEvent</text>
<polyline fill="none" stroke="black" points="2072.5,-44 2236.5,-44 "/>
<text text-anchor="start" x="2080.5" y="-32" font-family="Helvetica,sans-Serif" font-size="10.00">+ element</text>
<polyline fill="none" stroke="black" points="2072.5,-25 2236.5,-25 "/>
<text text-anchor="start" x="2080.5" y="-13" font-family="Helvetica,sans-Serif" font-size="10.00">+ CompensateStartEvent()</text>
</a>
</g>
</g>
<!-- Node23&#45;&gt;Node24 -->
<g id="edge31" class="edge">
<title>Node23&#45;&gt;Node24</title>
<path fill="none" stroke="midnightblue" d="M1896.68,-112.01C1902.29,-109.46 1907.95,-107.07 1913.5,-105 1977.72,-81.01 1997.88,-88.88 2063.5,-69 2069.46,-67.19 2075.6,-65.21 2081.74,-63.14"/>
<polygon fill="none" stroke="midnightblue" points="1894.88,-109 1887.34,-116.44 1897.88,-115.32 1894.88,-109"/>
</g>
<!-- Node25 -->
<g id="node25" class="node">
<title>Node25</title>
<g id="a_node25"><a xlink:href="classBPMN_1_1ErrorStartEvent.html" target="_top" xlink:title=" ">
<polygon fill="none" stroke="black" points="2254.5,-6 2254.5,-63 2380.5,-63 2380.5,-6 2254.5,-6"/>
<text text-anchor="middle" x="2317.5" y="-51" font-family="Helvetica,sans-Serif" font-size="10.00">BPMN::ErrorStartEvent</text>
<polyline fill="none" stroke="black" points="2254.5,-44 2380.5,-44 "/>
<text text-anchor="start" x="2262.5" y="-32" font-family="Helvetica,sans-Serif" font-size="10.00">+ element</text>
<polyline fill="none" stroke="black" points="2254.5,-25 2380.5,-25 "/>
<text text-anchor="start" x="2262.5" y="-13" font-family="Helvetica,sans-Serif" font-size="10.00">+ ErrorStartEvent()</text>
</a>
</g>
</g>
<!-- Node23&#45;&gt;Node25 -->
<g id="edge33" class="edge">
<title>Node23&#45;&gt;Node25</title>
<path fill="none" stroke="midnightblue" d="M1894.19,-112.21C1900.57,-109.43 1907.08,-106.94 1913.5,-105 2055.56,-62.02 2102.53,-108.84 2245.5,-69 2251.34,-67.37 2257.31,-65.31 2263.17,-63.02"/>
<polygon fill="none" stroke="midnightblue" points="1892.59,-109.1 1884.98,-116.47 1895.53,-115.45 1892.59,-109.1"/>
</g>
<!-- Node26 -->
<g id="node26" class="node">
<title>Node26</title>
<g id="a_node26"><a xlink:href="classBPMN_1_1EscalationStartEvent.html" target="_top" xlink:title=" ">
<polygon fill="none" stroke="black" points="2399,-6 2399,-63 2552,-63 2552,-6 2399,-6"/>
<text text-anchor="middle" x="2475.5" y="-51" font-family="Helvetica,sans-Serif" font-size="10.00">BPMN::EscalationStartEvent</text>
<polyline fill="none" stroke="black" points="2399,-44 2552,-44 "/>
<text text-anchor="start" x="2407" y="-32" font-family="Helvetica,sans-Serif" font-size="10.00">+ element</text>
<polyline fill="none" stroke="black" points="2399,-25 2552,-25 "/>
<text text-anchor="start" x="2407" y="-13" font-family="Helvetica,sans-Serif" font-size="10.00">+ EscalationStartEvent()</text>
</a>
</g>
</g>
<!-- Node23&#45;&gt;Node26 -->
<g id="edge34" class="edge">
<title>Node23&#45;&gt;Node26</title>
<path fill="none" stroke="midnightblue" d="M1893.85,-112.12C1900.32,-109.33 1906.96,-106.86 1913.5,-105 2117.54,-46.88 2182.62,-116.02 2389.5,-69 2396.53,-67.4 2403.75,-65.33 2410.87,-63"/>
<polygon fill="none" stroke="midnightblue" points="1892.13,-109.06 1884.5,-116.41 1895.05,-115.42 1892.13,-109.06"/>
</g>
<!-- Node29 -->
<g id="node29" class="node">
<title>Node29</title>
<g id="a_node29"><a xlink:href="classBPMN_1_1CancelEndEvent.html" target="_top" xlink:title=" ">
<polygon fill="none" stroke="black" points="2734,-116.5 2734,-173.5 2865,-173.5 2865,-116.5 2734,-116.5"/>
<text text-anchor="middle" x="2799.5" y="-161.5" font-family="Helvetica,sans-Serif" font-size="10.00">BPMN::CancelEndEvent</text>
<polyline fill="none" stroke="black" points="2734,-154.5 2865,-154.5 "/>
<text text-anchor="start" x="2742" y="-142.5" font-family="Helvetica,sans-Serif" font-size="10.00">+ element</text>
<polyline fill="none" stroke="black" points="2734,-135.5 2865,-135.5 "/>
<text text-anchor="start" x="2742" y="-123.5" font-family="Helvetica,sans-Serif" font-size="10.00">+ CancelEndEvent()</text>
</a>
</g>
</g>
<!-- Node28&#45;&gt;Node29 -->
<g id="edge40" class="edge">
<title>Node28&#45;&gt;Node29</title>
<path fill="none" stroke="midnightblue" d="M2559.47,-234.95C2606.45,-223.85 2670.97,-206.63 2725.5,-185 2733.87,-181.68 2742.53,-177.68 2750.84,-173.53"/>
<polygon fill="none" stroke="midnightblue" points="2558.67,-231.54 2549.73,-237.23 2560.26,-238.36 2558.67,-231.54"/>
</g>
<!-- Node30 -->
<g id="node30" class="node">
<title>Node30</title>
<g id="a_node30"><a xlink:href="classBPMN_1_1CompensateThrowEvent.html" target="_top" xlink:title=" ">
<polygon fill="none" stroke="black" points="2883,-116.5 2883,-173.5 3054,-173.5 3054,-116.5 2883,-116.5"/>
<text text-anchor="middle" x="2968.5" y="-161.5" font-family="Helvetica,sans-Serif" font-size="10.00">BPMN::CompensateThrowEvent</text>
<polyline fill="none" stroke="black" points="2883,-154.5 3054,-154.5 "/>
<text text-anchor="start" x="2891" y="-142.5" font-family="Helvetica,sans-Serif" font-size="10.00">+ element</text>
<polyline fill="none" stroke="black" points="2883,-135.5 3054,-135.5 "/>
<text text-anchor="start" x="2891" y="-123.5" font-family="Helvetica,sans-Serif" font-size="10.00">+ CompensateThrowEvent()</text>
</a>
</g>
</g>
<!-- Node28&#45;&gt;Node30 -->
<g id="edge41" class="edge">
<title>Node28&#45;&gt;Node30</title>
<path fill="none" stroke="midnightblue" d="M2559.78,-242.56C2636.28,-233.96 2766.36,-216.1 2874.5,-185 2885.45,-181.85 2896.85,-177.81 2907.78,-173.53"/>
<polygon fill="none" stroke="midnightblue" points="2559.36,-239.08 2549.8,-243.66 2560.13,-246.04 2559.36,-239.08"/>
</g>
<!-- Node31 -->
<g id="node31" class="node">
<title>Node31</title>
<g id="a_node31"><a xlink:href="classBPMN_1_1ErrorEndEvent.html" target="_top" xlink:title=" ">
<polygon fill="none" stroke="black" points="3072,-116.5 3072,-173.5 3193,-173.5 3193,-116.5 3072,-116.5"/>
<text text-anchor="middle" x="3132.5" y="-161.5" font-family="Helvetica,sans-Serif" font-size="10.00">BPMN::ErrorEndEvent</text>
<polyline fill="none" stroke="black" points="3072,-154.5 3193,-154.5 "/>
<text text-anchor="start" x="3080" y="-142.5" font-family="Helvetica,sans-Serif" font-size="10.00">+ element</text>
<polyline fill="none" stroke="black" points="3072,-135.5 3193,-135.5 "/>
<text text-anchor="start" x="3080" y="-123.5" font-family="Helvetica,sans-Serif" font-size="10.00">+ ErrorEndEvent()</text>
</a>
</g>
</g>
<!-- Node28&#45;&gt;Node31 -->
<g id="edge42" class="edge">
<title>Node28&#45;&gt;Node31</title>
<path fill="none" stroke="midnightblue" d="M2559.89,-244.95C2688.8,-236.41 2971.19,-214.9 3063.5,-185 3072.4,-182.12 3081.44,-178.01 3089.92,-173.54"/>
<polygon fill="none" stroke="midnightblue" points="2559.52,-241.46 2549.77,-245.61 2559.97,-248.45 2559.52,-241.46"/>
</g>
<!-- Node32 -->
<g id="node32" class="node">
<title>Node32</title>
<g id="a_node32"><a xlink:href="classBPMN_1_1EscalationThrowEvent.html" target="_top" xlink:title=" ">
<polygon fill="none" stroke="black" points="1922.5,-116.5 1922.5,-173.5 2082.5,-173.5 2082.5,-116.5 1922.5,-116.5"/>
<text text-anchor="middle" x="2002.5" y="-161.5" font-family="Helvetica,sans-Serif" font-size="10.00">BPMN::EscalationThrowEvent</text>
<polyline fill="none" stroke="black" points="1922.5,-154.5 2082.5,-154.5 "/>
<text text-anchor="start" x="1930.5" y="-142.5" font-family="Helvetica,sans-Serif" font-size="10.00">+ element</text>
<polyline fill="none" stroke="black" points="1922.5,-135.5 2082.5,-135.5 "/>
<text text-anchor="start" x="1930.5" y="-123.5" font-family="Helvetica,sans-Serif" font-size="10.00">+ EscalationThrowEvent()</text>
</a>
</g>
</g>
<!-- Node28&#45;&gt;Node32 -->
<g id="edge43" class="edge">
<title>Node28&#45;&gt;Node32</title>
<path fill="none" stroke="midnightblue" d="M2429.26,-243.69C2348.81,-235.98 2208.48,-218.78 2092.5,-185 2081.87,-181.9 2070.84,-177.87 2060.29,-173.57"/>
<polygon fill="none" stroke="midnightblue" points="2428.97,-247.17 2439.25,-244.62 2429.62,-240.2 2428.97,-247.17"/>
</g>
<!-- Node33 -->
<g id="node33" class="node">
<title>Node33</title>
<g id="a_node33"><a xlink:href="classBPMN_1_1MessageThrowEvent.html" target="_top" xlink:title=" ">
<polygon fill="none" stroke="black" points="2101,-116.5 2101,-173.5 2254,-173.5 2254,-116.5 2101,-116.5"/>
<text text-anchor="middle" x="2177.5" y="-161.5" font-family="Helvetica,sans-Serif" font-size="10.00">BPMN::MessageThrowEvent</text>
<polyline fill="none" stroke="black" points="2101,-154.5 2254,-154.5 "/>
<text text-anchor="start" x="2109" y="-142.5" font-family="Helvetica,sans-Serif" font-size="10.00">+ element</text>
<polyline fill="none" stroke="black" points="2101,-135.5 2254,-135.5 "/>
<text text-anchor="start" x="2109" y="-123.5" font-family="Helvetica,sans-Serif" font-size="10.00">+ MessageThrowEvent()</text>
</a>
</g>
</g>
<!-- Node28&#45;&gt;Node33 -->
<g id="edge44" class="edge">
<title>Node28&#45;&gt;Node33</title>
<path fill="none" stroke="midnightblue" d="M2429.14,-233.78C2382.41,-222.2 2318.35,-204.9 2263.5,-185 2254.25,-181.65 2244.62,-177.72 2235.28,-173.68"/>
<polygon fill="none" stroke="midnightblue" points="2428.59,-237.25 2439.14,-236.23 2430.26,-230.45 2428.59,-237.25"/>
</g>
<!-- Node34 -->
<g id="node34" class="node">
<title>Node34</title>
<g id="a_node34"><a xlink:href="classBPMN_1_1SignalThrowEvent.html" target="_top" xlink:title=" ">
<polygon fill="none" stroke="black" points="2272.5,-116.5 2272.5,-173.5 2412.5,-173.5 2412.5,-116.5 2272.5,-116.5"/>
<text text-anchor="middle" x="2342.5" y="-161.5" font-family="Helvetica,sans-Serif" font-size="10.00">BPMN::SignalThrowEvent</text>
<polyline fill="none" stroke="black" points="2272.5,-154.5 2412.5,-154.5 "/>
<text text-anchor="start" x="2280.5" y="-142.5" font-family="Helvetica,sans-Serif" font-size="10.00">+ element</text>
<polyline fill="none" stroke="black" points="2272.5,-135.5 2412.5,-135.5 "/>
<text text-anchor="start" x="2280.5" y="-123.5" font-family="Helvetica,sans-Serif" font-size="10.00">+ SignalThrowEvent()</text>
</a>
</g>
</g>
<!-- Node28&#45;&gt;Node34 -->
<g id="edge45" class="edge">
<title>Node28&#45;&gt;Node34</title>
<path fill="none" stroke="midnightblue" d="M2445.37,-215.71C2425.34,-202.13 2402.44,-186.62 2383.35,-173.68"/>
<polygon fill="none" stroke="midnightblue" points="2443.52,-218.69 2453.77,-221.4 2447.45,-212.89 2443.52,-218.69"/>
</g>
<!-- Node35 -->
<g id="node35" class="node">
<title>Node35</title>
<g id="a_node35"><a xlink:href="classBPMN_1_1TerminateEvent.html" target="_top" xlink:title=" ">
<polygon fill="none" stroke="black" points="2430.5,-116.5 2430.5,-173.5 2558.5,-173.5 2558.5,-116.5 2430.5,-116.5"/>
<text text-anchor="middle" x="2494.5" y="-161.5" font-family="Helvetica,sans-Serif" font-size="10.00">BPMN::TerminateEvent</text>
<polyline fill="none" stroke="black" points="2430.5,-154.5 2558.5,-154.5 "/>
<text text-anchor="start" x="2438.5" y="-142.5" font-family="Helvetica,sans-Serif" font-size="10.00">+ element</text>
<polyline fill="none" stroke="black" points="2430.5,-135.5 2558.5,-135.5 "/>
<text text-anchor="start" x="2438.5" y="-123.5" font-family="Helvetica,sans-Serif" font-size="10.00">+ TerminateEvent()</text>
</a>
</g>
</g>
<!-- Node28&#45;&gt;Node35 -->
<g id="edge46" class="edge">
<title>Node28&#45;&gt;Node35</title>
<path fill="none" stroke="midnightblue" d="M2494.5,-211.29C2494.5,-198.84 2494.5,-185.23 2494.5,-173.68"/>
<polygon fill="none" stroke="midnightblue" points="2491,-211.4 2494.5,-221.4 2498,-211.4 2491,-211.4"/>
</g>
<!-- Node36 -->
<g id="node36" class="node">
<title>Node36</title>
<g id="a_node36"><a xlink:href="classBPMN_1_1UntypedEndEvent.html" target="_top" xlink:title=" ">
<polygon fill="none" stroke="black" points="2577,-116.5 2577,-173.5 2716,-173.5 2716,-116.5 2577,-116.5"/>
<text text-anchor="middle" x="2646.5" y="-161.5" font-family="Helvetica,sans-Serif" font-size="10.00">BPMN::UntypedEndEvent</text>
<polyline fill="none" stroke="black" points="2577,-154.5 2716,-154.5 "/>
<text text-anchor="start" x="2585" y="-142.5" font-family="Helvetica,sans-Serif" font-size="10.00">+ element</text>
<polyline fill="none" stroke="black" points="2577,-135.5 2716,-135.5 "/>
<text text-anchor="start" x="2585" y="-123.5" font-family="Helvetica,sans-Serif" font-size="10.00">+ UntypedEndEvent()</text>
</a>
</g>
</g>
<!-- Node28&#45;&gt;Node36 -->
<g id="edge47" class="edge">
<title>Node28&#45;&gt;Node36</title>
<path fill="none" stroke="midnightblue" d="M2543.63,-215.71C2563.66,-202.13 2586.56,-186.62 2605.65,-173.68"/>
<polygon fill="none" stroke="midnightblue" points="2541.55,-212.89 2535.23,-221.4 2545.48,-218.69 2541.55,-212.89"/>
</g>
</g>
</svg>
