<?xml version="1.0" encoding="UTF-8" standalone="no"?>
<!DOCTYPE svg PUBLIC "-//W3C//DTD SVG 1.1//EN"
 "http://www.w3.org/Graphics/SVG/1.1/DTD/svg11.dtd">
<!-- Generated by graphviz version 14.1.2 (0)
 -->
<!-- Title: XML::bpmn::globalTask Pages: 1 -->
<svg width="180pt" height="1083pt"
 viewBox="0.00 0.00 180.00 1083.00" xmlns="http://www.w3.org/2000/svg" xmlns:xlink="http://www.w3.org/1999/xlink">
<g id="graph0" class="graph" transform="scale(1 1) rotate(0) translate(4 1079)">
<title>XML::bpmn::globalTask</title>
<!-- Node1 -->
<g id="Node000001" class="node">
<title>Node1</title>
<g id="a_Node000001"><a xlink:title=" ">
<polygon fill="#999999" stroke="none" points="146.12,-54.25 25.62,-54.25 25.62,0 146.12,0 146.12,-54.25"/>
<text xml:space="preserve" text-anchor="start" x="29.62" y="-40.75" font-family="Helvetica,sans-Serif" font-size="10.00">XML::bpmn::globalTask</text>
<text xml:space="preserve" text-anchor="start" x="39.88" y="-24" font-family="Helvetica,sans-Serif" font-size="10.00">+</text>
<text xml:space="preserve" text-anchor="start" x="62.38" y="-24" font-family="Helvetica,sans-Serif" font-size="10.00">defaults</text>
<text xml:space="preserve" text-anchor="start" x="39.88" y="-7.25" font-family="Helvetica,sans-Serif" font-size="10.00">#</text>
<text xml:space="preserve" text-anchor="start" x="62.38" y="-7.25" font-family="Helvetica,sans-Serif" font-size="10.00">globalTask()</text>
<polygon fill="#666666" stroke="#666666" points="25.62,-35.5 25.62,-35.5 146.12,-35.5 146.12,-35.5 25.62,-35.5"/>
<polygon fill="#666666" stroke="#666666" points="25.62,-18.75 25.62,-18.75 60.38,-18.75 60.38,-18.75 25.62,-18.75"/>
<polygon fill="#666666" stroke="#666666" points="60.38,-18.75 60.38,-18.75 146.12,-18.75 146.12,-18.75 60.38,-18.75"/>
<polygon fill="none" stroke="#666666" points="25.62,0 25.62,-54.25 146.12,-54.25 146.12,0 25.62,0"/>
</a>
</g>
</g>
<!-- Node2 -->
<g id="Node000002" class="node">
<title>Node2</title>
<g id="a_Node000002"><a xlink:href="classXML_1_1bpmn_1_1tGlobalTask.html" target="_top" xlink:title=" ">
<polygon fill="white" stroke="none" points="148.75,-161.25 23,-161.25 23,-90.25 148.75,-90.25 148.75,-161.25"/>
<text xml:space="preserve" text-anchor="start" x="27" y="-147.75" font-family="Helvetica,sans-Serif" font-size="10.00">XML::bpmn::tGlobalTask</text>
<text xml:space="preserve" text-anchor="start" x="37.25" y="-131" font-family="Helvetica,sans-Serif" font-size="10.00">+</text>
<text xml:space="preserve" text-anchor="start" x="59.75" y="-131" font-family="Helvetica,sans-Serif" font-size="10.00">resourceRole</text>
<text xml:space="preserve" text-anchor="start" x="37.25" y="-114.25" font-family="Helvetica,sans-Serif" font-size="10.00">+</text>
<text xml:space="preserve" text-anchor="start" x="59.75" y="-114.25" font-family="Helvetica,sans-Serif" font-size="10.00">defaults</text>
<text xml:space="preserve" text-anchor="start" x="37.25" y="-97.5" font-family="Helvetica,sans-Serif" font-size="10.00">#</text>
<text xml:space="preserve" text-anchor="start" x="59.75" y="-97.5" font-family="Helvetica,sans-Serif" font-size="10.00">tGlobalTask()</text>
<polygon fill="#666666" stroke="#666666" points="23,-142.5 23,-142.5 148.75,-142.5 148.75,-142.5 23,-142.5"/>
<polygon fill="#666666" stroke="#666666" points="23,-109 23,-109 57.75,-109 57.75,-109 23,-109"/>
<polygon fill="#666666" stroke="#666666" points="57.75,-109 57.75,-109 148.75,-109 148.75,-109 57.75,-109"/>
<polygon fill="none" stroke="#666666" points="23,-90.25 23,-161.25 148.75,-161.25 148.75,-90.25 23,-90.25"/>
</a>
</g>
</g>
<!-- Node2&#45;&gt;Node1 -->
<g id="edge1_Node000001_Node000002" class="edge">
<title>Node2&#45;&gt;Node1</title>
<g id="a_edge1_Node000001_Node000002"><a xlink:title=" ">
<path fill="none" stroke="#63b8ff" d="M85.88,-78.96C85.88,-70.44 85.88,-61.82 85.88,-54.15"/>
<polygon fill="none" stroke="#63b8ff" points="82.38,-78.9 85.88,-88.9 89.38,-78.9 82.38,-78.9"/>
</a>
</g>
</g>
<!-- Node3 -->
<g id="Node000003" class="node">
<title>Node3</title>
<g id="a_Node000003"><a xlink:href="classXML_1_1bpmn_1_1tCallableElement.html" target="_top" xlink:title=" ">
<polygon fill="white" stroke="none" points="162.25,-318.5 9.5,-318.5 9.5,-197.25 162.25,-197.25 162.25,-318.5"/>
<text xml:space="preserve" text-anchor="start" x="13.5" y="-305" font-family="Helvetica,sans-Serif" font-size="10.00">XML::bpmn::tCallableElement</text>
<text xml:space="preserve" text-anchor="start" x="19.44" y="-288.25" font-family="Helvetica,sans-Serif" font-size="10.00">+</text>
<text xml:space="preserve" text-anchor="start" x="37.62" y="-288.25" font-family="Helvetica,sans-Serif" font-size="10.00">supportedInterfaceRef</text>
<text xml:space="preserve" text-anchor="start" x="19.44" y="-271.5" font-family="Helvetica,sans-Serif" font-size="10.00">+</text>
<text xml:space="preserve" text-anchor="start" x="37.62" y="-271.5" font-family="Helvetica,sans-Serif" font-size="10.00">ioSpecification</text>
<text xml:space="preserve" text-anchor="start" x="19.44" y="-254.75" font-family="Helvetica,sans-Serif" font-size="10.00">+</text>
<text xml:space="preserve" text-anchor="start" x="37.62" y="-254.75" font-family="Helvetica,sans-Serif" font-size="10.00">ioBinding</text>
<text xml:space="preserve" text-anchor="start" x="19.44" y="-238" font-family="Helvetica,sans-Serif" font-size="10.00">+</text>
<text xml:space="preserve" text-anchor="start" x="37.62" y="-238" font-family="Helvetica,sans-Serif" font-size="10.00">name</text>
<text xml:space="preserve" text-anchor="start" x="19.44" y="-221.25" font-family="Helvetica,sans-Serif" font-size="10.00">+</text>
<text xml:space="preserve" text-anchor="start" x="37.62" y="-221.25" font-family="Helvetica,sans-Serif" font-size="10.00">defaults</text>
<text xml:space="preserve" text-anchor="start" x="19.44" y="-204.5" font-family="Helvetica,sans-Serif" font-size="10.00">#</text>
<text xml:space="preserve" text-anchor="start" x="37.62" y="-204.5" font-family="Helvetica,sans-Serif" font-size="10.00">tCallableElement()</text>
<polygon fill="#666666" stroke="#666666" points="9.5,-299.75 9.5,-299.75 162.25,-299.75 162.25,-299.75 9.5,-299.75"/>
<polygon fill="#666666" stroke="#666666" points="9.5,-216 9.5,-216 35.62,-216 35.62,-216 9.5,-216"/>
<polygon fill="#666666" stroke="#666666" points="35.62,-216 35.62,-216 162.25,-216 162.25,-216 35.62,-216"/>
<polygon fill="none" stroke="#666666" points="9.5,-197.25 9.5,-318.5 162.25,-318.5 162.25,-197.25 9.5,-197.25"/>
</a>
</g>
</g>
<!-- Node3&#45;&gt;Node2 -->
<g id="edge2_Node000002_Node000003" class="edge">
<title>Node3&#45;&gt;Node2</title>
<g id="a_edge2_Node000002_Node000003"><a xlink:title=" ">
<path fill="none" stroke="#63b8ff" d="M85.88,-186.1C85.88,-177.43 85.88,-168.9 85.88,-161.13"/>
<polygon fill="none" stroke="#63b8ff" points="82.38,-186.01 85.88,-196.01 89.38,-186.01 82.38,-186.01"/>
</a>
</g>
</g>
<!-- Node4 -->
<g id="Node000004" class="node">
<title>Node4</title>
<g id="a_Node000004"><a xlink:href="classXML_1_1bpmn_1_1tRootElement.html" target="_top" xlink:title=" ">
<polygon fill="white" stroke="none" points="153.62,-408.75 18.12,-408.75 18.12,-354.5 153.62,-354.5 153.62,-408.75"/>
<text xml:space="preserve" text-anchor="start" x="22.12" y="-395.25" font-family="Helvetica,sans-Serif" font-size="10.00">XML::bpmn::tRootElement</text>
<text xml:space="preserve" text-anchor="start" x="32.38" y="-378.5" font-family="Helvetica,sans-Serif" font-size="10.00">+</text>
<text xml:space="preserve" text-anchor="start" x="54.88" y="-378.5" font-family="Helvetica,sans-Serif" font-size="10.00">defaults</text>
<text xml:space="preserve" text-anchor="start" x="32.38" y="-361.75" font-family="Helvetica,sans-Serif" font-size="10.00">#</text>
<text xml:space="preserve" text-anchor="start" x="54.88" y="-361.75" font-family="Helvetica,sans-Serif" font-size="10.00">tRootElement()</text>
<polygon fill="#666666" stroke="#666666" points="18.12,-390 18.12,-390 153.62,-390 153.62,-390 18.12,-390"/>
<polygon fill="#666666" stroke="#666666" points="18.12,-373.25 18.12,-373.25 52.88,-373.25 52.88,-373.25 18.12,-373.25"/>
<polygon fill="#666666" stroke="#666666" points="52.88,-373.25 52.88,-373.25 153.62,-373.25 153.62,-373.25 52.88,-373.25"/>
<polygon fill="none" stroke="#666666" points="18.12,-354.5 18.12,-408.75 153.62,-408.75 153.62,-354.5 18.12,-354.5"/>
</a>
</g>
</g>
<!-- Node4&#45;&gt;Node3 -->
<g id="edge3_Node000003_Node000004" class="edge">
<title>Node4&#45;&gt;Node3</title>
<g id="a_edge3_Node000003_Node000004"><a xlink:title=" ">
<path fill="none" stroke="#63b8ff" d="M85.88,-343.17C85.88,-335.33 85.88,-326.89 85.88,-318.47"/>
<polygon fill="none" stroke="#63b8ff" points="82.38,-342.99 85.88,-352.99 89.38,-342.99 82.38,-342.99"/>
</a>
</g>
</g>
<!-- Node5 -->
<g id="Node000005" class="node">
<title>Node5</title>
<g id="a_Node000005"><a xlink:href="classXML_1_1bpmn_1_1tBaseElement.html" target="_top" xlink:title=" ">
<polygon fill="white" stroke="none" points="154.38,-549.25 17.38,-549.25 17.38,-444.75 154.38,-444.75 154.38,-549.25"/>
<text xml:space="preserve" text-anchor="start" x="21.38" y="-535.75" font-family="Helvetica,sans-Serif" font-size="10.00">XML::bpmn::tBaseElement</text>
<text xml:space="preserve" text-anchor="start" x="27.12" y="-519" font-family="Helvetica,sans-Serif" font-size="10.00">+</text>
<text xml:space="preserve" text-anchor="start" x="45.12" y="-519" font-family="Helvetica,sans-Serif" font-size="10.00">documentation</text>
<text xml:space="preserve" text-anchor="start" x="27.12" y="-502.25" font-family="Helvetica,sans-Serif" font-size="10.00">+</text>
<text xml:space="preserve" text-anchor="start" x="45.12" y="-502.25" font-family="Helvetica,sans-Serif" font-size="10.00">extensionElements</text>
<text xml:space="preserve" text-anchor="start" x="27.12" y="-485.5" font-family="Helvetica,sans-Serif" font-size="10.00">+</text>
<text xml:space="preserve" text-anchor="start" x="45.12" y="-485.5" font-family="Helvetica,sans-Serif" font-size="10.00">id</text>
<text xml:space="preserve" text-anchor="start" x="27.12" y="-468.75" font-family="Helvetica,sans-Serif" font-size="10.00">+</text>
<text xml:space="preserve" text-anchor="start" x="45.12" y="-468.75" font-family="Helvetica,sans-Serif" font-size="10.00">defaults</text>
<text xml:space="preserve" text-anchor="start" x="27.12" y="-452" font-family="Helvetica,sans-Serif" font-size="10.00">#</text>
<text xml:space="preserve" text-anchor="start" x="45.12" y="-452" font-family="Helvetica,sans-Serif" font-size="10.00">tBaseElement()</text>
<polygon fill="#666666" stroke="#666666" points="17.38,-530.5 17.38,-530.5 154.38,-530.5 154.38,-530.5 17.38,-530.5"/>
<polygon fill="#666666" stroke="#666666" points="17.38,-463.5 17.38,-463.5 43.12,-463.5 43.12,-463.5 17.38,-463.5"/>
<polygon fill="#666666" stroke="#666666" points="43.12,-463.5 43.12,-463.5 154.38,-463.5 154.38,-463.5 43.12,-463.5"/>
<polygon fill="none" stroke="#666666" points="17.38,-444.75 17.38,-549.25 154.38,-549.25 154.38,-444.75 17.38,-444.75"/>
</a>
</g>
</g>
<!-- Node5&#45;&gt;Node4 -->
<g id="edge4_Node000004_Node000005" class="edge">
<title>Node5&#45;&gt;Node4</title>
<g id="a_edge4_Node000004_Node000005"><a xlink:title=" ">
<path fill="none" stroke="#63b8ff" d="M85.88,-433.72C85.88,-424.87 85.88,-416.21 85.88,-408.61"/>
<polygon fill="none" stroke="#63b8ff" points="82.38,-433.44 85.88,-443.44 89.38,-433.44 82.38,-433.44"/>
</a>
</g>
</g>
<!-- Node6 -->
<g id="Node000006" class="node">
<title>Node6</title>
<g id="a_Node000006"><a xlink:href="classXML_1_1XMLObject.html" target="_top" xlink:title="A class representing a node in an XML&#45;tree.">
<polygon fill="white" stroke="none" points="171.75,-1075 0,-1075 0,-585.25 171.75,-585.25 171.75,-1075"/>
<text xml:space="preserve" text-anchor="start" x="46.12" y="-1061.5" font-family="Helvetica,sans-Serif" font-size="10.00">XML::XMLObject</text>
<text xml:space="preserve" text-anchor="start" x="4" y="-1044.75" font-family="Helvetica,sans-Serif" font-size="10.00">+</text>
<text xml:space="preserve" text-anchor="start" x="16.25" y="-1044.75" font-family="Helvetica,sans-Serif" font-size="10.00">xmlns</text>
<text xml:space="preserve" text-anchor="start" x="4" y="-1028" font-family="Helvetica,sans-Serif" font-size="10.00">+</text>
<text xml:space="preserve" text-anchor="start" x="16.25" y="-1028" font-family="Helvetica,sans-Serif" font-size="10.00">className</text>
<text xml:space="preserve" text-anchor="start" x="4" y="-1011.25" font-family="Helvetica,sans-Serif" font-size="10.00">+</text>
<text xml:space="preserve" text-anchor="start" x="16.25" y="-1011.25" font-family="Helvetica,sans-Serif" font-size="10.00">prefix</text>
<text xml:space="preserve" text-anchor="start" x="4" y="-994.5" font-family="Helvetica,sans-Serif" font-size="10.00">+</text>
<text xml:space="preserve" text-anchor="start" x="16.25" y="-994.5" font-family="Helvetica,sans-Serif" font-size="10.00">elementName</text>
<text xml:space="preserve" text-anchor="start" x="4" y="-977.75" font-family="Helvetica,sans-Serif" font-size="10.00">+</text>
<text xml:space="preserve" text-anchor="start" x="16.25" y="-977.75" font-family="Helvetica,sans-Serif" font-size="10.00">textContent</text>
<text xml:space="preserve" text-anchor="start" x="4" y="-961" font-family="Helvetica,sans-Serif" font-size="10.00">+</text>
<text xml:space="preserve" text-anchor="start" x="16.25" y="-961" font-family="Helvetica,sans-Serif" font-size="10.00">children</text>
<text xml:space="preserve" text-anchor="start" x="4" y="-944.25" font-family="Helvetica,sans-Serif" font-size="10.00">+</text>
<text xml:space="preserve" text-anchor="start" x="16.25" y="-944.25" font-family="Helvetica,sans-Serif" font-size="10.00">attributes</text>
<text xml:space="preserve" text-anchor="start" x="4" y="-927.5" font-family="Helvetica,sans-Serif" font-size="10.00">+</text>
<text xml:space="preserve" text-anchor="start" x="16.25" y="-927.5" font-family="Helvetica,sans-Serif" font-size="10.00">defaults</text>
<text xml:space="preserve" text-anchor="start" x="4" y="-910.75" font-family="Helvetica,sans-Serif" font-size="10.00">#</text>
<text xml:space="preserve" text-anchor="start" x="16.25" y="-910.75" font-family="Helvetica,sans-Serif" font-size="10.00">factory</text>
<text xml:space="preserve" text-anchor="start" x="4" y="-894" font-family="Helvetica,sans-Serif" font-size="10.00">+</text>
<text xml:space="preserve" text-anchor="start" x="16.25" y="-894" font-family="Helvetica,sans-Serif" font-size="10.00">~XMLObject()</text>
<text xml:space="preserve" text-anchor="start" x="4" y="-877.25" font-family="Helvetica,sans-Serif" font-size="10.00">+</text>
<text xml:space="preserve" text-anchor="start" x="16.25" y="-877.25" font-family="Helvetica,sans-Serif" font-size="10.00">is()</text>
<text xml:space="preserve" text-anchor="start" x="4" y="-860.5" font-family="Helvetica,sans-Serif" font-size="10.00">+</text>
<text xml:space="preserve" text-anchor="start" x="16.25" y="-860.5" font-family="Helvetica,sans-Serif" font-size="10.00">get()</text>
<text xml:space="preserve" text-anchor="start" x="4" y="-843.75" font-family="Helvetica,sans-Serif" font-size="10.00">+</text>
<text xml:space="preserve" text-anchor="start" x="16.25" y="-843.75" font-family="Helvetica,sans-Serif" font-size="10.00">find()</text>
<text xml:space="preserve" text-anchor="start" x="4" y="-827" font-family="Helvetica,sans-Serif" font-size="10.00">+</text>
<text xml:space="preserve" text-anchor="start" x="16.25" y="-827" font-family="Helvetica,sans-Serif" font-size="10.00">stringify()</text>
<text xml:space="preserve" text-anchor="start" x="4" y="-810.25" font-family="Helvetica,sans-Serif" font-size="10.00">+</text>
<text xml:space="preserve" text-anchor="start" x="16.25" y="-810.25" font-family="Helvetica,sans-Serif" font-size="10.00">format()</text>
<text xml:space="preserve" text-anchor="start" x="4" y="-793.5" font-family="Helvetica,sans-Serif" font-size="10.00">+</text>
<text xml:space="preserve" text-anchor="start" x="16.25" y="-793.5" font-family="Helvetica,sans-Serif" font-size="10.00">getRequiredChild()</text>
<text xml:space="preserve" text-anchor="start" x="4" y="-776.75" font-family="Helvetica,sans-Serif" font-size="10.00">+</text>
<text xml:space="preserve" text-anchor="start" x="16.25" y="-776.75" font-family="Helvetica,sans-Serif" font-size="10.00">getOptionalChild()</text>
<text xml:space="preserve" text-anchor="start" x="4" y="-760" font-family="Helvetica,sans-Serif" font-size="10.00">+</text>
<text xml:space="preserve" text-anchor="start" x="16.25" y="-760" font-family="Helvetica,sans-Serif" font-size="10.00">getChildren()</text>
<text xml:space="preserve" text-anchor="start" x="4" y="-743.25" font-family="Helvetica,sans-Serif" font-size="10.00">+</text>
<text xml:space="preserve" text-anchor="start" x="16.25" y="-743.25" font-family="Helvetica,sans-Serif" font-size="10.00">getRequiredChildByName()</text>
<text xml:space="preserve" text-anchor="start" x="4" y="-726.5" font-family="Helvetica,sans-Serif" font-size="10.00">+</text>
<text xml:space="preserve" text-anchor="start" x="16.25" y="-726.5" font-family="Helvetica,sans-Serif" font-size="10.00">getOptionalChildByName()</text>
<text xml:space="preserve" text-anchor="start" x="4" y="-709.75" font-family="Helvetica,sans-Serif" font-size="10.00">+</text>
<text xml:space="preserve" text-anchor="start" x="16.25" y="-709.75" font-family="Helvetica,sans-Serif" font-size="10.00">getChildrenByName()</text>
<text xml:space="preserve" text-anchor="start" x="4" y="-693" font-family="Helvetica,sans-Serif" font-size="10.00">+</text>
<text xml:space="preserve" text-anchor="start" x="16.25" y="-693" font-family="Helvetica,sans-Serif" font-size="10.00">getRequiredAttributeByName()</text>
<text xml:space="preserve" text-anchor="start" x="4" y="-676.25" font-family="Helvetica,sans-Serif" font-size="10.00">+</text>
<text xml:space="preserve" text-anchor="start" x="16.25" y="-676.25" font-family="Helvetica,sans-Serif" font-size="10.00">getOptionalAttributeByName()</text>
<text xml:space="preserve" text-anchor="start" x="4" y="-659.5" font-family="Helvetica,sans-Serif" font-size="10.00">+</text>
<text xml:space="preserve" text-anchor="start" x="16.25" y="-659.5" font-family="Helvetica,sans-Serif" font-size="10.00">createFromStream()</text>
<text xml:space="preserve" text-anchor="start" x="4" y="-642.75" font-family="Helvetica,sans-Serif" font-size="10.00">+</text>
<text xml:space="preserve" text-anchor="start" x="16.25" y="-642.75" font-family="Helvetica,sans-Serif" font-size="10.00">createFromString()</text>
<text xml:space="preserve" text-anchor="start" x="4" y="-626" font-family="Helvetica,sans-Serif" font-size="10.00">+</text>
<text xml:space="preserve" text-anchor="start" x="16.25" y="-626" font-family="Helvetica,sans-Serif" font-size="10.00">createFromFile()</text>
<text xml:space="preserve" text-anchor="start" x="4" y="-609.25" font-family="Helvetica,sans-Serif" font-size="10.00">#</text>
<text xml:space="preserve" text-anchor="start" x="16.25" y="-609.25" font-family="Helvetica,sans-Serif" font-size="10.00">XMLObject()</text>
<text xml:space="preserve" text-anchor="start" x="4" y="-592.5" font-family="Helvetica,sans-Serif" font-size="10.00">#</text>
<text xml:space="preserve" text-anchor="start" x="16.25" y="-592.5" font-family="Helvetica,sans-Serif" font-size="10.00">createObject()</text>
<polygon fill="#666666" stroke="#666666" points="0,-1056.25 0,-1056.25 171.75,-1056.25 171.75,-1056.25 0,-1056.25"/>
<polygon fill="#666666" stroke="#666666" points="0,-905.5 0,-905.5 14.25,-905.5 14.25,-905.5 0,-905.5"/>
<polygon fill="#666666" stroke="#666666" points="14.25,-905.5 14.25,-905.5 171.75,-905.5 171.75,-905.5 14.25,-905.5"/>
<polygon fill="none" stroke="#666666" points="0,-585.25 0,-1075 171.75,-1075 171.75,-585.25 0,-585.25"/>
</a>
</g>
</g>
<!-- Node6&#45;&gt;Node5 -->
<g id="edge5_Node000005_Node000006" class="edge">
<title>Node6&#45;&gt;Node5</title>
<g id="a_edge5_Node000005_Node000006"><a xlink:title=" ">
<path fill="none" stroke="#63b8ff" d="M85.88,-574.18C85.88,-565.15 85.88,-556.63 85.88,-548.78"/>
<polygon fill="none" stroke="#63b8ff" points="82.38,-573.92 85.88,-583.92 89.38,-573.92 82.38,-573.92"/>
</a>
</g>
</g>
</g>
</svg>
