<?xml version="1.0" encoding="UTF-8" standalone="no"?>
<!DOCTYPE svg PUBLIC "-//W3C//DTD SVG 1.1//EN"
 "http://www.w3.org/Graphics/SVG/1.1/DTD/svg11.dtd">
<!-- Generated by graphviz version 2.43.0 (0)
 -->
<!-- Title: BPMN::Gateway Pages: 1 -->
<svg width="785pt" height="662pt"
 viewBox="0.00 0.00 785.00 662.00" xmlns="http://www.w3.org/2000/svg" xmlns:xlink="http://www.w3.org/1999/xlink">
<g id="graph0" class="graph" transform="scale(1 1) rotate(0) translate(4 658)">
<title>BPMN::Gateway</title>
<!-- Node1 -->
<g id="node1" class="node">
<title>Node1</title>
<g id="a_node1"><a xlink:title=" ">
<polygon fill="#bfbfbf" stroke="black" points="352,-105.5 352,-162.5 447,-162.5 447,-105.5 352,-105.5"/>
<text text-anchor="middle" x="399.5" y="-150.5" font-family="Helvetica,sans-Serif" font-size="10.00">BPMN::Gateway</text>
<polyline fill="none" stroke="black" points="352,-143.5 447,-143.5 "/>
<text text-anchor="start" x="360" y="-131.5" font-family="Helvetica,sans-Serif" font-size="10.00">+ element</text>
<polyline fill="none" stroke="black" points="352,-124.5 447,-124.5 "/>
<text text-anchor="start" x="360" y="-112.5" font-family="Helvetica,sans-Serif" font-size="10.00">+ Gateway()</text>
</a>
</g>
</g>
<!-- Node5 -->
<g id="node5" class="node">
<title>Node5</title>
<g id="a_node5"><a xlink:href="classBPMN_1_1ComplexGateway.html" target="_top" xlink:title=" ">
<polygon fill="none" stroke="black" points="0,-0.5 0,-68.5 139,-68.5 139,-0.5 0,-0.5"/>
<text text-anchor="middle" x="69.5" y="-56.5" font-family="Helvetica,sans-Serif" font-size="10.00">BPMN::ComplexGateway</text>
<polyline fill="none" stroke="black" points="0,-49.5 139,-49.5 "/>
<text text-anchor="start" x="8" y="-37.5" font-family="Helvetica,sans-Serif" font-size="10.00">+ element</text>
<text text-anchor="start" x="8" y="-26.5" font-family="Helvetica,sans-Serif" font-size="10.00">+ defaultFlow</text>
<polyline fill="none" stroke="black" points="0,-19.5 139,-19.5 "/>
<text text-anchor="start" x="8" y="-7.5" font-family="Helvetica,sans-Serif" font-size="10.00">+ ComplexGateway()</text>
</a>
</g>
</g>
<!-- Node1&#45;&gt;Node5 -->
<g id="edge4" class="edge">
<title>Node1&#45;&gt;Node5</title>
<path fill="none" stroke="midnightblue" d="M341.99,-121.1C290.42,-109.79 213.02,-91.24 147.5,-69 144.71,-68.05 141.88,-67.05 139.03,-66"/>
<polygon fill="none" stroke="midnightblue" points="341.43,-124.56 351.95,-123.26 342.92,-117.72 341.43,-124.56"/>
</g>
<!-- Node6 -->
<g id="node6" class="node">
<title>Node6</title>
<g id="a_node6"><a xlink:href="classBPMN_1_1EventBasedGateway.html" target="_top" xlink:title=" ">
<polygon fill="none" stroke="black" points="157,-6 157,-63 310,-63 310,-6 157,-6"/>
<text text-anchor="middle" x="233.5" y="-51" font-family="Helvetica,sans-Serif" font-size="10.00">BPMN::EventBasedGateway</text>
<polyline fill="none" stroke="black" points="157,-44 310,-44 "/>
<text text-anchor="start" x="165" y="-32" font-family="Helvetica,sans-Serif" font-size="10.00">+ element</text>
<polyline fill="none" stroke="black" points="157,-25 310,-25 "/>
<text text-anchor="start" x="165" y="-13" font-family="Helvetica,sans-Serif" font-size="10.00">+ EventBasedGateway()</text>
</a>
</g>
</g>
<!-- Node1&#45;&gt;Node6 -->
<g id="edge5" class="edge">
<title>Node1&#45;&gt;Node6</title>
<path fill="none" stroke="midnightblue" d="M343.74,-100.25C323.2,-88.18 300.15,-74.64 280.46,-63.08"/>
<polygon fill="none" stroke="midnightblue" points="341.98,-103.27 352.38,-105.32 345.52,-97.24 341.98,-103.27"/>
</g>
<!-- Node7 -->
<g id="node7" class="node">
<title>Node7</title>
<g id="a_node7"><a xlink:href="classBPMN_1_1ExclusiveGateway.html" target="_top" xlink:title=" ">
<polygon fill="none" stroke="black" points="328.5,-0.5 328.5,-68.5 470.5,-68.5 470.5,-0.5 328.5,-0.5"/>
<text text-anchor="middle" x="399.5" y="-56.5" font-family="Helvetica,sans-Serif" font-size="10.00">BPMN::ExclusiveGateway</text>
<polyline fill="none" stroke="black" points="328.5,-49.5 470.5,-49.5 "/>
<text text-anchor="start" x="336.5" y="-37.5" font-family="Helvetica,sans-Serif" font-size="10.00">+ element</text>
<text text-anchor="start" x="336.5" y="-26.5" font-family="Helvetica,sans-Serif" font-size="10.00">+ defaultFlow</text>
<polyline fill="none" stroke="black" points="328.5,-19.5 470.5,-19.5 "/>
<text text-anchor="start" x="336.5" y="-7.5" font-family="Helvetica,sans-Serif" font-size="10.00">+ ExclusiveGateway()</text>
</a>
</g>
</g>
<!-- Node1&#45;&gt;Node7 -->
<g id="edge6" class="edge">
<title>Node1&#45;&gt;Node7</title>
<path fill="none" stroke="midnightblue" d="M399.5,-95.06C399.5,-86.39 399.5,-77.24 399.5,-68.79"/>
<polygon fill="none" stroke="midnightblue" points="396,-95.32 399.5,-105.32 403,-95.32 396,-95.32"/>
</g>
<!-- Node8 -->
<g id="node8" class="node">
<title>Node8</title>
<g id="a_node8"><a xlink:href="classBPMN_1_1InclusiveGateway.html" target="_top" xlink:title=" ">
<polygon fill="none" stroke="black" points="489,-0.5 489,-68.5 628,-68.5 628,-0.5 489,-0.5"/>
<text text-anchor="middle" x="558.5" y="-56.5" font-family="Helvetica,sans-Serif" font-size="10.00">BPMN::InclusiveGateway</text>
<polyline fill="none" stroke="black" points="489,-49.5 628,-49.5 "/>
<text text-anchor="start" x="497" y="-37.5" font-family="Helvetica,sans-Serif" font-size="10.00">+ element</text>
<text text-anchor="start" x="497" y="-26.5" font-family="Helvetica,sans-Serif" font-size="10.00">+ defaultFlow</text>
<polyline fill="none" stroke="black" points="489,-19.5 628,-19.5 "/>
<text text-anchor="start" x="497" y="-7.5" font-family="Helvetica,sans-Serif" font-size="10.00">+ InclusiveGateway()</text>
</a>
</g>
</g>
<!-- Node1&#45;&gt;Node8 -->
<g id="edge7" class="edge">
<title>Node1&#45;&gt;Node8</title>
<path fill="none" stroke="midnightblue" d="M453.58,-99.84C470.02,-89.76 488.08,-78.68 504.51,-68.61"/>
<polygon fill="none" stroke="midnightblue" points="451.33,-97.11 444.64,-105.32 454.99,-103.08 451.33,-97.11"/>
</g>
<!-- Node9 -->
<g id="node9" class="node">
<title>Node9</title>
<g id="a_node9"><a xlink:href="classBPMN_1_1ParallelGateway.html" target="_top" xlink:title=" ">
<polygon fill="none" stroke="black" points="646,-6 646,-63 777,-63 777,-6 646,-6"/>
<text text-anchor="middle" x="711.5" y="-51" font-family="Helvetica,sans-Serif" font-size="10.00">BPMN::ParallelGateway</text>
<polyline fill="none" stroke="black" points="646,-44 777,-44 "/>
<text text-anchor="start" x="654" y="-32" font-family="Helvetica,sans-Serif" font-size="10.00">+ element</text>
<polyline fill="none" stroke="black" points="646,-25 777,-25 "/>
<text text-anchor="start" x="654" y="-13" font-family="Helvetica,sans-Serif" font-size="10.00">+ ParallelGateway()</text>
</a>
</g>
</g>
<!-- Node1&#45;&gt;Node9 -->
<g id="edge8" class="edge">
<title>Node1&#45;&gt;Node9</title>
<path fill="none" stroke="midnightblue" d="M457.2,-120.26C505.9,-108.85 577.14,-90.62 637.5,-69 642.55,-67.19 647.72,-65.18 652.88,-63.07"/>
<polygon fill="none" stroke="midnightblue" points="456.11,-116.92 447.16,-122.59 457.69,-123.74 456.11,-116.92"/>
</g>
<!-- Node2 -->
<g id="node2" class="node">
<title>Node2</title>
<g id="a_node2"><a xlink:href="classBPMN_1_1FlowNode.html" target="_top" xlink:title="Represents a flow node in a BPMN process.">
<polygon fill="none" stroke="black" points="349,-199.5 349,-278.5 450,-278.5 450,-199.5 349,-199.5"/>
<text text-anchor="middle" x="399.5" y="-266.5" font-family="Helvetica,sans-Serif" font-size="10.00">BPMN::FlowNode</text>
<polyline fill="none" stroke="black" points="349,-259.5 450,-259.5 "/>
<text text-anchor="start" x="357" y="-247.5" font-family="Helvetica,sans-Serif" font-size="10.00">+ element</text>
<text text-anchor="start" x="357" y="-236.5" font-family="Helvetica,sans-Serif" font-size="10.00">+ incoming</text>
<text text-anchor="start" x="357" y="-225.5" font-family="Helvetica,sans-Serif" font-size="10.00">+ outgoing</text>
<polyline fill="none" stroke="black" points="349,-218.5 450,-218.5 "/>
<text text-anchor="start" x="357" y="-206.5" font-family="Helvetica,sans-Serif" font-size="10.00">+ FlowNode()</text>
</a>
</g>
</g>
<!-- Node2&#45;&gt;Node1 -->
<g id="edge1" class="edge">
<title>Node2&#45;&gt;Node1</title>
<path fill="none" stroke="midnightblue" d="M399.5,-189.16C399.5,-180.04 399.5,-170.81 399.5,-162.61"/>
<polygon fill="none" stroke="midnightblue" points="396,-189.35 399.5,-199.35 403,-189.35 396,-189.35"/>
</g>
<!-- Node3 -->
<g id="node3" class="node">
<title>Node3</title>
<g id="a_node3"><a xlink:href="classBPMN_1_1ChildNode.html" target="_top" xlink:title="Represents a node in a BPMN process that has a parent.">
<polygon fill="none" stroke="black" points="348.5,-315.5 348.5,-372.5 450.5,-372.5 450.5,-315.5 348.5,-315.5"/>
<text text-anchor="middle" x="399.5" y="-360.5" font-family="Helvetica,sans-Serif" font-size="10.00">BPMN::ChildNode</text>
<polyline fill="none" stroke="black" points="348.5,-353.5 450.5,-353.5 "/>
<text text-anchor="start" x="356.5" y="-341.5" font-family="Helvetica,sans-Serif" font-size="10.00">+ parent</text>
<polyline fill="none" stroke="black" points="348.5,-334.5 450.5,-334.5 "/>
<text text-anchor="start" x="356.5" y="-322.5" font-family="Helvetica,sans-Serif" font-size="10.00">+ ChildNode()</text>
</a>
</g>
</g>
<!-- Node3&#45;&gt;Node2 -->
<g id="edge2" class="edge">
<title>Node3&#45;&gt;Node2</title>
<path fill="none" stroke="midnightblue" d="M399.5,-305.16C399.5,-296.47 399.5,-287.23 399.5,-278.52"/>
<polygon fill="none" stroke="midnightblue" points="396,-305.4 399.5,-315.4 403,-305.4 396,-305.4"/>
</g>
<!-- Node4 -->
<g id="node4" class="node">
<title>Node4</title>
<g id="a_node4"><a xlink:href="classBPMN_1_1Node.html" target="_top" xlink:title="Represents a node in a BPMN process.">
<polygon fill="none" stroke="black" points="338.5,-409.5 338.5,-653.5 460.5,-653.5 460.5,-409.5 338.5,-409.5"/>
<text text-anchor="middle" x="399.5" y="-641.5" font-family="Helvetica,sans-Serif" font-size="10.00">BPMN::Node</text>
<polyline fill="none" stroke="black" points="338.5,-634.5 460.5,-634.5 "/>
<text text-anchor="start" x="346.5" y="-622.5" font-family="Helvetica,sans-Serif" font-size="10.00">+ id</text>
<text text-anchor="start" x="346.5" y="-611.5" font-family="Helvetica,sans-Serif" font-size="10.00">+ receiving</text>
<text text-anchor="start" x="346.5" y="-600.5" font-family="Helvetica,sans-Serif" font-size="10.00">+ sending</text>
<text text-anchor="start" x="346.5" y="-589.5" font-family="Helvetica,sans-Serif" font-size="10.00">+ element</text>
<text text-anchor="start" x="346.5" y="-578.5" font-family="Helvetica,sans-Serif" font-size="10.00">+ extensionElements</text>
<polyline fill="none" stroke="black" points="338.5,-571.5 460.5,-571.5 "/>
<text text-anchor="start" x="346.5" y="-559.5" font-family="Helvetica,sans-Serif" font-size="10.00">+ Node()</text>
<text text-anchor="start" x="346.5" y="-548.5" font-family="Helvetica,sans-Serif" font-size="10.00">+ ~Node()</text>
<text text-anchor="start" x="346.5" y="-537.5" font-family="Helvetica,sans-Serif" font-size="10.00">+ is()</text>
<text text-anchor="start" x="346.5" y="-526.5" font-family="Helvetica,sans-Serif" font-size="10.00">+ is()</text>
<text text-anchor="start" x="346.5" y="-515.5" font-family="Helvetica,sans-Serif" font-size="10.00">+ get()</text>
<text text-anchor="start" x="346.5" y="-504.5" font-family="Helvetica,sans-Serif" font-size="10.00">+ get()</text>
<text text-anchor="start" x="346.5" y="-493.5" font-family="Helvetica,sans-Serif" font-size="10.00">+ represents()</text>
<text text-anchor="start" x="346.5" y="-482.5" font-family="Helvetica,sans-Serif" font-size="10.00">+ represents()</text>
<text text-anchor="start" x="346.5" y="-471.5" font-family="Helvetica,sans-Serif" font-size="10.00">+ as()</text>
<text text-anchor="start" x="346.5" y="-460.5" font-family="Helvetica,sans-Serif" font-size="10.00">+ as()</text>
<text text-anchor="start" x="346.5" y="-449.5" font-family="Helvetica,sans-Serif" font-size="10.00">+ find()</text>
<text text-anchor="start" x="346.5" y="-438.5" font-family="Helvetica,sans-Serif" font-size="10.00">+ find()</text>
<text text-anchor="start" x="346.5" y="-427.5" font-family="Helvetica,sans-Serif" font-size="10.00">+ find_all()</text>
<text text-anchor="start" x="346.5" y="-416.5" font-family="Helvetica,sans-Serif" font-size="10.00">+ find_all()</text>
</a>
</g>
</g>
<!-- Node4&#45;&gt;Node3 -->
<g id="edge3" class="edge">
<title>Node4&#45;&gt;Node3</title>
<path fill="none" stroke="midnightblue" d="M399.5,-399.34C399.5,-389.53 399.5,-380.42 399.5,-372.57"/>
<polygon fill="none" stroke="midnightblue" points="396,-399.36 399.5,-409.36 403,-399.36 396,-399.36"/>
</g>
</g>
</svg>
