<?xml version="1.0" encoding="UTF-8" standalone="no"?>
<!DOCTYPE svg PUBLIC "-//W3C//DTD SVG 1.1//EN"
 "http://www.w3.org/Graphics/SVG/1.1/DTD/svg11.dtd">
<!-- Generated by graphviz version 2.43.0 (0)
 -->
<!-- Title: XML::bpmn::tSubChoreography Pages: 1 -->
<svg width="169pt" height="1148pt"
 viewBox="0.00 0.00 169.00 1148.00" xmlns="http://www.w3.org/2000/svg" xmlns:xlink="http://www.w3.org/1999/xlink">
<g id="graph0" class="graph" transform="scale(1 1) rotate(0) translate(4 1144)">
<title>XML::bpmn::tSubChoreography</title>
<!-- Node1 -->
<g id="Node000001" class="node">
<title>Node1</title>
<g id="a_Node000001"><a xlink:title=" ">
<polygon fill="#999999" stroke="transparent" points="161,-164 0,-164 0,-85 161,-85 161,-164"/>
<text text-anchor="start" x="5.5" y="-151.5" font-family="Helvetica,sans-Serif" font-size="10.00">XML::bpmn::tSubChoreography</text>
<text text-anchor="start" x="15" y="-136.5" font-family="Helvetica,sans-Serif" font-size="10.00">+</text>
<text text-anchor="start" x="38.5" y="-136.5" font-family="Helvetica,sans-Serif" font-size="10.00">flowElement</text>
<text text-anchor="start" x="15" y="-121.5" font-family="Helvetica,sans-Serif" font-size="10.00">+</text>
<text text-anchor="start" x="38.5" y="-121.5" font-family="Helvetica,sans-Serif" font-size="10.00">artifact</text>
<text text-anchor="start" x="15" y="-106.5" font-family="Helvetica,sans-Serif" font-size="10.00">+</text>
<text text-anchor="start" x="38.5" y="-106.5" font-family="Helvetica,sans-Serif" font-size="10.00">defaults</text>
<text text-anchor="start" x="15" y="-91.5" font-family="Helvetica,sans-Serif" font-size="10.00">#</text>
<text text-anchor="start" x="38.5" y="-91.5" font-family="Helvetica,sans-Serif" font-size="10.00">tSubChoreography()</text>
<polygon fill="#666666" stroke="#666666" points="0.5,-146.5 0.5,-146.5 161.5,-146.5 161.5,-146.5 0.5,-146.5"/>
<polygon fill="#666666" stroke="#666666" points="0.5,-101.5 0.5,-101.5 36.5,-101.5 36.5,-101.5 0.5,-101.5"/>
<polygon fill="#666666" stroke="#666666" points="36.5,-101.5 36.5,-101.5 161.5,-101.5 161.5,-101.5 36.5,-101.5"/>
<polygon fill="none" stroke="#666666" points="0,-85 0,-164 161,-164 161,-85 0,-85"/>
</a>
</g>
</g>
<!-- Node7 -->
<g id="Node000007" class="node">
<title>Node7</title>
<g id="a_Node000007"><a xlink:href="classXML_1_1bpmn_1_1subChoreography.html" target="_top" xlink:title=" ">
<polygon fill="white" stroke="transparent" points="159,-49 2,-49 2,0 159,0 159,-49"/>
<text text-anchor="start" x="7.5" y="-36.5" font-family="Helvetica,sans-Serif" font-size="10.00">XML::bpmn::subChoreography</text>
<text text-anchor="start" x="17" y="-21.5" font-family="Helvetica,sans-Serif" font-size="10.00">+</text>
<text text-anchor="start" x="40.5" y="-21.5" font-family="Helvetica,sans-Serif" font-size="10.00">defaults</text>
<text text-anchor="start" x="17" y="-6.5" font-family="Helvetica,sans-Serif" font-size="10.00">#</text>
<text text-anchor="start" x="40.5" y="-6.5" font-family="Helvetica,sans-Serif" font-size="10.00">subChoreography()</text>
<polygon fill="#666666" stroke="#666666" points="2.5,-31.5 2.5,-31.5 159.5,-31.5 159.5,-31.5 2.5,-31.5"/>
<polygon fill="#666666" stroke="#666666" points="2.5,-16.5 2.5,-16.5 38.5,-16.5 38.5,-16.5 2.5,-16.5"/>
<polygon fill="#666666" stroke="#666666" points="38.5,-16.5 38.5,-16.5 159.5,-16.5 159.5,-16.5 38.5,-16.5"/>
<polygon fill="none" stroke="#666666" points="2,0 2,-49 159,-49 159,0 2,0"/>
</a>
</g>
</g>
<!-- Node1&#45;&gt;Node7 -->
<g id="edge6_Node000001_Node000007" class="edge">
<title>Node1&#45;&gt;Node7</title>
<g id="a_edge6_Node000001_Node000007"><a xlink:title=" ">
<path fill="none" stroke="#63b8ff" d="M80.5,-74.72C80.5,-65.75 80.5,-56.78 80.5,-49"/>
<polygon fill="none" stroke="#63b8ff" points="77,-74.77 80.5,-84.77 84,-74.77 77,-74.77"/>
</a>
</g>
</g>
<!-- Node2 -->
<g id="Node000002" class="node">
<title>Node2</title>
<g id="a_Node000002"><a xlink:href="classXML_1_1bpmn_1_1tChoreographyActivity.html" target="_top" xlink:title=" ">
<polygon fill="white" stroke="transparent" points="152,-320 9,-320 9,-200 152,-200 152,-320"/>
<text text-anchor="start" x="14.5" y="-308" font-family="Helvetica,sans-Serif" font-size="10.00">XML::bpmn::tChoreography</text>
<text text-anchor="start" x="62" y="-297" font-family="Helvetica,sans-Serif" font-size="10.00">Activity</text>
<text text-anchor="start" x="14.5" y="-282" font-family="Helvetica,sans-Serif" font-size="10.00">+</text>
<text text-anchor="start" x="28.5" y="-282" font-family="Helvetica,sans-Serif" font-size="10.00">participantRef</text>
<text text-anchor="start" x="14.5" y="-267" font-family="Helvetica,sans-Serif" font-size="10.00">+</text>
<text text-anchor="start" x="28.5" y="-267" font-family="Helvetica,sans-Serif" font-size="10.00">correlationKey</text>
<text text-anchor="start" x="14.5" y="-252" font-family="Helvetica,sans-Serif" font-size="10.00">+</text>
<text text-anchor="start" x="28.5" y="-252" font-family="Helvetica,sans-Serif" font-size="10.00">initiatingParticipantRef</text>
<text text-anchor="start" x="14.5" y="-237" font-family="Helvetica,sans-Serif" font-size="10.00">+</text>
<text text-anchor="start" x="28.5" y="-237" font-family="Helvetica,sans-Serif" font-size="10.00">loopType</text>
<text text-anchor="start" x="14.5" y="-222" font-family="Helvetica,sans-Serif" font-size="10.00">+</text>
<text text-anchor="start" x="28.5" y="-222" font-family="Helvetica,sans-Serif" font-size="10.00">defaults</text>
<text text-anchor="start" x="14.5" y="-207" font-family="Helvetica,sans-Serif" font-size="10.00">#</text>
<text text-anchor="start" x="28.5" y="-207" font-family="Helvetica,sans-Serif" font-size="10.00">tChoreographyActivity()</text>
<polygon fill="#666666" stroke="#666666" points="9.5,-292 9.5,-292 152.5,-292 152.5,-292 9.5,-292"/>
<polygon fill="#666666" stroke="#666666" points="9.5,-217 9.5,-217 26.5,-217 26.5,-217 9.5,-217"/>
<polygon fill="#666666" stroke="#666666" points="26.5,-217 26.5,-217 152.5,-217 152.5,-217 26.5,-217"/>
<polygon fill="none" stroke="#666666" points="9,-200 9,-320 152,-320 152,-200 9,-200"/>
</a>
</g>
</g>
<!-- Node2&#45;&gt;Node1 -->
<g id="edge1_Node000001_Node000002" class="edge">
<title>Node2&#45;&gt;Node1</title>
<g id="a_edge1_Node000001_Node000002"><a xlink:title=" ">
<path fill="none" stroke="#63b8ff" d="M80.5,-189.52C80.5,-180.87 80.5,-172.28 80.5,-164.34"/>
<polygon fill="none" stroke="#63b8ff" points="77,-189.67 80.5,-199.67 84,-189.67 77,-189.67"/>
</a>
</g>
</g>
<!-- Node3 -->
<g id="Node000003" class="node">
<title>Node3</title>
<g id="a_Node000003"><a xlink:href="classXML_1_1bpmn_1_1tFlowNode.html" target="_top" xlink:title=" ">
<polygon fill="white" stroke="transparent" points="142.5,-435 18.5,-435 18.5,-356 142.5,-356 142.5,-435"/>
<text text-anchor="start" x="23.5" y="-422.5" font-family="Helvetica,sans-Serif" font-size="10.00">XML::bpmn::tFlowNode</text>
<text text-anchor="start" x="33" y="-407.5" font-family="Helvetica,sans-Serif" font-size="10.00">+</text>
<text text-anchor="start" x="56.5" y="-407.5" font-family="Helvetica,sans-Serif" font-size="10.00">incoming</text>
<text text-anchor="start" x="33" y="-392.5" font-family="Helvetica,sans-Serif" font-size="10.00">+</text>
<text text-anchor="start" x="56.5" y="-392.5" font-family="Helvetica,sans-Serif" font-size="10.00">outgoing</text>
<text text-anchor="start" x="33" y="-377.5" font-family="Helvetica,sans-Serif" font-size="10.00">+</text>
<text text-anchor="start" x="56.5" y="-377.5" font-family="Helvetica,sans-Serif" font-size="10.00">defaults</text>
<text text-anchor="start" x="33" y="-362.5" font-family="Helvetica,sans-Serif" font-size="10.00">#</text>
<text text-anchor="start" x="56.5" y="-362.5" font-family="Helvetica,sans-Serif" font-size="10.00">tFlowNode()</text>
<polygon fill="#666666" stroke="#666666" points="18.5,-417.5 18.5,-417.5 142.5,-417.5 142.5,-417.5 18.5,-417.5"/>
<polygon fill="#666666" stroke="#666666" points="18.5,-372.5 18.5,-372.5 54.5,-372.5 54.5,-372.5 18.5,-372.5"/>
<polygon fill="#666666" stroke="#666666" points="54.5,-372.5 54.5,-372.5 142.5,-372.5 142.5,-372.5 54.5,-372.5"/>
<polygon fill="none" stroke="#666666" points="18.5,-356 18.5,-435 142.5,-435 142.5,-356 18.5,-356"/>
</a>
</g>
</g>
<!-- Node3&#45;&gt;Node2 -->
<g id="edge2_Node000002_Node000003" class="edge">
<title>Node3&#45;&gt;Node2</title>
<g id="a_edge2_Node000002_Node000003"><a xlink:title=" ">
<path fill="none" stroke="#63b8ff" d="M80.5,-345.64C80.5,-337.36 80.5,-328.67 80.5,-320.15"/>
<polygon fill="none" stroke="#63b8ff" points="77,-345.89 80.5,-355.89 84,-345.89 77,-345.89"/>
</a>
</g>
</g>
<!-- Node4 -->
<g id="Node000004" class="node">
<title>Node4</title>
<g id="a_Node000004"><a xlink:href="classXML_1_1bpmn_1_1tFlowElement.html" target="_top" xlink:title=" ">
<polygon fill="white" stroke="transparent" points="150,-580 11,-580 11,-471 150,-471 150,-580"/>
<text text-anchor="start" x="16.5" y="-567.5" font-family="Helvetica,sans-Serif" font-size="10.00">XML::bpmn::tFlowElement</text>
<text text-anchor="start" x="23" y="-552.5" font-family="Helvetica,sans-Serif" font-size="10.00">+</text>
<text text-anchor="start" x="43.5" y="-552.5" font-family="Helvetica,sans-Serif" font-size="10.00">auditing</text>
<text text-anchor="start" x="23" y="-537.5" font-family="Helvetica,sans-Serif" font-size="10.00">+</text>
<text text-anchor="start" x="43.5" y="-537.5" font-family="Helvetica,sans-Serif" font-size="10.00">monitoring</text>
<text text-anchor="start" x="23" y="-522.5" font-family="Helvetica,sans-Serif" font-size="10.00">+</text>
<text text-anchor="start" x="43.5" y="-522.5" font-family="Helvetica,sans-Serif" font-size="10.00">categoryValueRef</text>
<text text-anchor="start" x="23" y="-507.5" font-family="Helvetica,sans-Serif" font-size="10.00">+</text>
<text text-anchor="start" x="43.5" y="-507.5" font-family="Helvetica,sans-Serif" font-size="10.00">name</text>
<text text-anchor="start" x="23" y="-492.5" font-family="Helvetica,sans-Serif" font-size="10.00">+</text>
<text text-anchor="start" x="43.5" y="-492.5" font-family="Helvetica,sans-Serif" font-size="10.00">defaults</text>
<text text-anchor="start" x="23" y="-477.5" font-family="Helvetica,sans-Serif" font-size="10.00">#</text>
<text text-anchor="start" x="43.5" y="-477.5" font-family="Helvetica,sans-Serif" font-size="10.00">tFlowElement()</text>
<polygon fill="#666666" stroke="#666666" points="11.5,-562.5 11.5,-562.5 150.5,-562.5 150.5,-562.5 11.5,-562.5"/>
<polygon fill="#666666" stroke="#666666" points="11.5,-487.5 11.5,-487.5 41.5,-487.5 41.5,-487.5 11.5,-487.5"/>
<polygon fill="#666666" stroke="#666666" points="41.5,-487.5 41.5,-487.5 150.5,-487.5 150.5,-487.5 41.5,-487.5"/>
<polygon fill="none" stroke="#666666" points="11,-471 11,-580 150,-580 150,-471 11,-471"/>
</a>
</g>
</g>
<!-- Node4&#45;&gt;Node3 -->
<g id="edge3_Node000003_Node000004" class="edge">
<title>Node4&#45;&gt;Node3</title>
<g id="a_edge3_Node000003_Node000004"><a xlink:title=" ">
<path fill="none" stroke="#63b8ff" d="M80.5,-460.7C80.5,-451.93 80.5,-443.16 80.5,-435.03"/>
<polygon fill="none" stroke="#63b8ff" points="77,-460.96 80.5,-470.96 84,-460.96 77,-460.96"/>
</a>
</g>
</g>
<!-- Node5 -->
<g id="Node000005" class="node">
<title>Node5</title>
<g id="a_Node000005"><a xlink:href="classXML_1_1bpmn_1_1tBaseElement.html" target="_top" xlink:title=" ">
<polygon fill="white" stroke="transparent" points="150.5,-710 10.5,-710 10.5,-616 150.5,-616 150.5,-710"/>
<text text-anchor="start" x="15.5" y="-698" font-family="Helvetica,sans-Serif" font-size="10.00">XML::bpmn::tBaseElement</text>
<text text-anchor="start" x="20.5" y="-683" font-family="Helvetica,sans-Serif" font-size="10.00">+</text>
<text text-anchor="start" x="39.5" y="-683" font-family="Helvetica,sans-Serif" font-size="10.00">documentation</text>
<text text-anchor="start" x="20.5" y="-668" font-family="Helvetica,sans-Serif" font-size="10.00">+</text>
<text text-anchor="start" x="39.5" y="-668" font-family="Helvetica,sans-Serif" font-size="10.00">extensionElements</text>
<text text-anchor="start" x="20.5" y="-653" font-family="Helvetica,sans-Serif" font-size="10.00">+</text>
<text text-anchor="start" x="39.5" y="-653" font-family="Helvetica,sans-Serif" font-size="10.00">id</text>
<text text-anchor="start" x="20.5" y="-638" font-family="Helvetica,sans-Serif" font-size="10.00">+</text>
<text text-anchor="start" x="39.5" y="-638" font-family="Helvetica,sans-Serif" font-size="10.00">defaults</text>
<text text-anchor="start" x="20.5" y="-623" font-family="Helvetica,sans-Serif" font-size="10.00">#</text>
<text text-anchor="start" x="39.5" y="-623" font-family="Helvetica,sans-Serif" font-size="10.00">tBaseElement()</text>
<polygon fill="#666666" stroke="#666666" points="10.5,-693 10.5,-693 150.5,-693 150.5,-693 10.5,-693"/>
<polygon fill="#666666" stroke="#666666" points="10.5,-633 10.5,-633 37.5,-633 37.5,-633 10.5,-633"/>
<polygon fill="#666666" stroke="#666666" points="37.5,-633 37.5,-633 150.5,-633 150.5,-633 37.5,-633"/>
<polygon fill="none" stroke="#666666" points="10.5,-616 10.5,-710 150.5,-710 150.5,-616 10.5,-616"/>
</a>
</g>
</g>
<!-- Node5&#45;&gt;Node4 -->
<g id="edge4_Node000004_Node000005" class="edge">
<title>Node5&#45;&gt;Node4</title>
<g id="a_edge4_Node000004_Node000005"><a xlink:title=" ">
<path fill="none" stroke="#63b8ff" d="M80.5,-605.58C80.5,-597.12 80.5,-588.41 80.5,-580.01"/>
<polygon fill="none" stroke="#63b8ff" points="77,-605.75 80.5,-615.75 84,-605.75 77,-605.75"/>
</a>
</g>
</g>
<!-- Node6 -->
<g id="Node000006" class="node">
<title>Node6</title>
<g id="a_Node000006"><a xlink:href="classXML_1_1XMLObject.html" target="_top" xlink:title="A class representing a node in an XML&#45;tree.">
<polygon fill="white" stroke="transparent" points="140.5,-1140 20.5,-1140 20.5,-746 140.5,-746 140.5,-1140"/>
<text text-anchor="start" x="40.5" y="-1128" font-family="Helvetica,sans-Serif" font-size="10.00">XML::XMLObject</text>
<text text-anchor="start" x="24.5" y="-1113" font-family="Helvetica,sans-Serif" font-size="10.00">+</text>
<text text-anchor="start" x="37.5" y="-1113" font-family="Helvetica,sans-Serif" font-size="10.00">xmlns</text>
<text text-anchor="start" x="24.5" y="-1098" font-family="Helvetica,sans-Serif" font-size="10.00">+</text>
<text text-anchor="start" x="37.5" y="-1098" font-family="Helvetica,sans-Serif" font-size="10.00">className</text>
<text text-anchor="start" x="24.5" y="-1083" font-family="Helvetica,sans-Serif" font-size="10.00">+</text>
<text text-anchor="start" x="37.5" y="-1083" font-family="Helvetica,sans-Serif" font-size="10.00">prefix</text>
<text text-anchor="start" x="24.5" y="-1068" font-family="Helvetica,sans-Serif" font-size="10.00">+</text>
<text text-anchor="start" x="37.5" y="-1068" font-family="Helvetica,sans-Serif" font-size="10.00">elementName</text>
<text text-anchor="start" x="24.5" y="-1053" font-family="Helvetica,sans-Serif" font-size="10.00">+</text>
<text text-anchor="start" x="37.5" y="-1053" font-family="Helvetica,sans-Serif" font-size="10.00">textContent</text>
<text text-anchor="start" x="24.5" y="-1038" font-family="Helvetica,sans-Serif" font-size="10.00">+</text>
<text text-anchor="start" x="37.5" y="-1038" font-family="Helvetica,sans-Serif" font-size="10.00">children</text>
<text text-anchor="start" x="24.5" y="-1023" font-family="Helvetica,sans-Serif" font-size="10.00">+</text>
<text text-anchor="start" x="37.5" y="-1023" font-family="Helvetica,sans-Serif" font-size="10.00">attributes</text>
<text text-anchor="start" x="24.5" y="-1008" font-family="Helvetica,sans-Serif" font-size="10.00">+</text>
<text text-anchor="start" x="37.5" y="-1008" font-family="Helvetica,sans-Serif" font-size="10.00">defaults</text>
<text text-anchor="start" x="24.5" y="-993" font-family="Helvetica,sans-Serif" font-size="10.00">#</text>
<text text-anchor="start" x="37.5" y="-993" font-family="Helvetica,sans-Serif" font-size="10.00">factory</text>
<text text-anchor="start" x="24.5" y="-978" font-family="Helvetica,sans-Serif" font-size="10.00">+</text>
<text text-anchor="start" x="37.5" y="-978" font-family="Helvetica,sans-Serif" font-size="10.00">~XMLObject()</text>
<text text-anchor="start" x="24.5" y="-963" font-family="Helvetica,sans-Serif" font-size="10.00">+</text>
<text text-anchor="start" x="37.5" y="-963" font-family="Helvetica,sans-Serif" font-size="10.00">is()</text>
<text text-anchor="start" x="24.5" y="-948" font-family="Helvetica,sans-Serif" font-size="10.00">+</text>
<text text-anchor="start" x="37.5" y="-948" font-family="Helvetica,sans-Serif" font-size="10.00">is()</text>
<text text-anchor="start" x="24.5" y="-933" font-family="Helvetica,sans-Serif" font-size="10.00">+</text>
<text text-anchor="start" x="37.5" y="-933" font-family="Helvetica,sans-Serif" font-size="10.00">get()</text>
<text text-anchor="start" x="24.5" y="-918" font-family="Helvetica,sans-Serif" font-size="10.00">+</text>
<text text-anchor="start" x="37.5" y="-918" font-family="Helvetica,sans-Serif" font-size="10.00">get()</text>
<text text-anchor="start" x="24.5" y="-903" font-family="Helvetica,sans-Serif" font-size="10.00">+</text>
<text text-anchor="start" x="37.5" y="-903" font-family="Helvetica,sans-Serif" font-size="10.00">find()</text>
<text text-anchor="start" x="24.5" y="-888" font-family="Helvetica,sans-Serif" font-size="10.00">+</text>
<text text-anchor="start" x="37.5" y="-888" font-family="Helvetica,sans-Serif" font-size="10.00">find()</text>
<text text-anchor="start" x="24.5" y="-873" font-family="Helvetica,sans-Serif" font-size="10.00">+</text>
<text text-anchor="start" x="37.5" y="-873" font-family="Helvetica,sans-Serif" font-size="10.00">stringify()</text>
<text text-anchor="start" x="24.5" y="-858" font-family="Helvetica,sans-Serif" font-size="10.00">+</text>
<text text-anchor="start" x="37.5" y="-858" font-family="Helvetica,sans-Serif" font-size="10.00">format()</text>
<text text-anchor="start" x="24.5" y="-843" font-family="Helvetica,sans-Serif" font-size="10.00">+</text>
<text text-anchor="start" x="37.5" y="-843" font-family="Helvetica,sans-Serif" font-size="10.00">getRequiredChild()</text>
<text text-anchor="start" x="37.5" y="-828" font-family="Helvetica,sans-Serif" font-size="10.00">and 7 more...</text>
<text text-anchor="start" x="24.5" y="-813" font-family="Helvetica,sans-Serif" font-size="10.00">+</text>
<text text-anchor="start" x="37.5" y="-813" font-family="Helvetica,sans-Serif" font-size="10.00">createFromStream()</text>
<text text-anchor="start" x="24.5" y="-798" font-family="Helvetica,sans-Serif" font-size="10.00">+</text>
<text text-anchor="start" x="37.5" y="-798" font-family="Helvetica,sans-Serif" font-size="10.00">createFromString()</text>
<text text-anchor="start" x="24.5" y="-783" font-family="Helvetica,sans-Serif" font-size="10.00">+</text>
<text text-anchor="start" x="37.5" y="-783" font-family="Helvetica,sans-Serif" font-size="10.00">createFromFile()</text>
<text text-anchor="start" x="24.5" y="-768" font-family="Helvetica,sans-Serif" font-size="10.00">#</text>
<text text-anchor="start" x="37.5" y="-768" font-family="Helvetica,sans-Serif" font-size="10.00">XMLObject()</text>
<text text-anchor="start" x="24.5" y="-753" font-family="Helvetica,sans-Serif" font-size="10.00">#</text>
<text text-anchor="start" x="37.5" y="-753" font-family="Helvetica,sans-Serif" font-size="10.00">createObject()</text>
<polygon fill="#666666" stroke="#666666" points="20.5,-1123 20.5,-1123 140.5,-1123 140.5,-1123 20.5,-1123"/>
<polygon fill="#666666" stroke="#666666" points="20.5,-988 20.5,-988 35.5,-988 35.5,-988 20.5,-988"/>
<polygon fill="#666666" stroke="#666666" points="35.5,-988 35.5,-988 140.5,-988 140.5,-988 35.5,-988"/>
<polygon fill="none" stroke="#666666" points="20.5,-746 20.5,-1140 140.5,-1140 140.5,-746 20.5,-746"/>
</a>
</g>
</g>
<!-- Node6&#45;&gt;Node5 -->
<g id="edge5_Node000005_Node000006" class="edge">
<title>Node6&#45;&gt;Node5</title>
<g id="a_edge5_Node000005_Node000006"><a xlink:title=" ">
<path fill="none" stroke="#63b8ff" d="M80.5,-735.78C80.5,-726.62 80.5,-717.97 80.5,-710.06"/>
<polygon fill="none" stroke="#63b8ff" points="77,-735.91 80.5,-745.91 84,-735.91 77,-735.91"/>
</a>
</g>
</g>
</g>
</svg>
