<?xml version="1.0" encoding="UTF-8" standalone="no"?>
<!DOCTYPE svg PUBLIC "-//W3C//DTD SVG 1.1//EN"
 "http://www.w3.org/Graphics/SVG/1.1/DTD/svg11.dtd">
<!-- Generated by graphviz version 2.43.0 (0)
 -->
<!-- Title: BPMN::EventSubProcess Pages: 1 -->
<svg width="308pt" height="728pt"
 viewBox="0.00 0.00 308.00 728.00" xmlns="http://www.w3.org/2000/svg" xmlns:xlink="http://www.w3.org/1999/xlink">
<g id="graph0" class="graph" transform="scale(1 1) rotate(0) translate(4 724)">
<title>BPMN::EventSubProcess</title>
<!-- Node1 -->
<g id="node1" class="node">
<title>Node1</title>
<g id="a_node1"><a xlink:title=" ">
<polygon fill="#bfbfbf" stroke="black" points="62.5,-0.5 62.5,-68.5 197.5,-68.5 197.5,-0.5 62.5,-0.5"/>
<text text-anchor="middle" x="130" y="-56.5" font-family="Helvetica,sans-Serif" font-size="10.00">BPMN::EventSubProcess</text>
<polyline fill="none" stroke="black" points="62.5,-49.5 197.5,-49.5 "/>
<text text-anchor="start" x="70.5" y="-37.5" font-family="Helvetica,sans-Serif" font-size="10.00">+ startEvent</text>
<text text-anchor="start" x="70.5" y="-26.5" font-family="Helvetica,sans-Serif" font-size="10.00">+ element</text>
<polyline fill="none" stroke="black" points="62.5,-19.5 197.5,-19.5 "/>
<text text-anchor="start" x="70.5" y="-7.5" font-family="Helvetica,sans-Serif" font-size="10.00">+ EventSubProcess()</text>
</a>
</g>
</g>
<!-- Node2 -->
<g id="node2" class="node">
<title>Node2</title>
<g id="a_node2"><a xlink:href="classBPMN_1_1ChildNode.html" target="_top" xlink:title="Base class for BPMN elements within a Scope.">
<polygon fill="none" stroke="black" points="0,-160.5 0,-217.5 102,-217.5 102,-160.5 0,-160.5"/>
<text text-anchor="middle" x="51" y="-205.5" font-family="Helvetica,sans-Serif" font-size="10.00">BPMN::ChildNode</text>
<polyline fill="none" stroke="black" points="0,-198.5 102,-198.5 "/>
<text text-anchor="start" x="8" y="-186.5" font-family="Helvetica,sans-Serif" font-size="10.00">+ parent</text>
<polyline fill="none" stroke="black" points="0,-179.5 102,-179.5 "/>
<text text-anchor="start" x="8" y="-167.5" font-family="Helvetica,sans-Serif" font-size="10.00">+ ChildNode()</text>
</a>
</g>
</g>
<!-- Node2&#45;&gt;Node1 -->
<g id="edge1" class="edge">
<title>Node2&#45;&gt;Node1</title>
<path fill="none" stroke="midnightblue" d="M70.07,-151.18C83.08,-126.06 100.17,-93.08 112.77,-68.76"/>
<polygon fill="none" stroke="midnightblue" points="66.8,-149.89 65.31,-160.38 73.01,-153.11 66.8,-149.89"/>
</g>
<!-- Node3 -->
<g id="node3" class="node">
<title>Node3</title>
<g id="a_node3"><a xlink:href="classBPMN_1_1Node.html" target="_top" xlink:title="Base class for all nodes in a BPMN model.">
<polygon fill="none" stroke="black" points="91.5,-309.5 91.5,-421.5 168.5,-421.5 168.5,-309.5 91.5,-309.5"/>
<text text-anchor="middle" x="130" y="-409.5" font-family="Helvetica,sans-Serif" font-size="10.00">BPMN::Node</text>
<polyline fill="none" stroke="black" points="91.5,-402.5 168.5,-402.5 "/>
<text text-anchor="start" x="99.5" y="-390.5" font-family="Helvetica,sans-Serif" font-size="10.00">+ receiving</text>
<text text-anchor="start" x="99.5" y="-379.5" font-family="Helvetica,sans-Serif" font-size="10.00">+ sending</text>
<polyline fill="none" stroke="black" points="91.5,-372.5 168.5,-372.5 "/>
<text text-anchor="start" x="99.5" y="-360.5" font-family="Helvetica,sans-Serif" font-size="10.00">+ Node()</text>
<text text-anchor="start" x="99.5" y="-349.5" font-family="Helvetica,sans-Serif" font-size="10.00">+ find()</text>
<text text-anchor="start" x="99.5" y="-338.5" font-family="Helvetica,sans-Serif" font-size="10.00">+ find()</text>
<text text-anchor="start" x="99.5" y="-327.5" font-family="Helvetica,sans-Serif" font-size="10.00">+ find_all()</text>
<text text-anchor="start" x="99.5" y="-316.5" font-family="Helvetica,sans-Serif" font-size="10.00">+ find_all()</text>
</a>
</g>
</g>
<!-- Node3&#45;&gt;Node2 -->
<g id="edge2" class="edge">
<title>Node3&#45;&gt;Node2</title>
<path fill="none" stroke="midnightblue" d="M100.71,-299.81C87.86,-271.42 73.46,-239.6 63.47,-217.55"/>
<polygon fill="none" stroke="midnightblue" points="97.69,-301.62 105,-309.29 104.07,-298.73 97.69,-301.62"/>
</g>
<!-- Node6 -->
<g id="node6" class="node">
<title>Node6</title>
<g id="a_node6"><a xlink:href="classBPMN_1_1Scope.html" target="_top" xlink:title="Base class for BPMN elements that may contain a ChildNode elements.">
<polygon fill="none" stroke="black" points="120,-105.5 120,-272.5 300,-272.5 300,-105.5 120,-105.5"/>
<text text-anchor="middle" x="210" y="-260.5" font-family="Helvetica,sans-Serif" font-size="10.00">BPMN::Scope</text>
<polyline fill="none" stroke="black" points="120,-253.5 300,-253.5 "/>
<text text-anchor="start" x="128" y="-241.5" font-family="Helvetica,sans-Serif" font-size="10.00">+ childNodes</text>
<text text-anchor="start" x="128" y="-230.5" font-family="Helvetica,sans-Serif" font-size="10.00">+ flowNodes</text>
<text text-anchor="start" x="128" y="-219.5" font-family="Helvetica,sans-Serif" font-size="10.00">+ eventSubProcesses</text>
<text text-anchor="start" x="128" y="-208.5" font-family="Helvetica,sans-Serif" font-size="10.00">+ startNodes</text>
<text text-anchor="start" x="128" y="-197.5" font-family="Helvetica,sans-Serif" font-size="10.00">+ sequenceFlows</text>
<text text-anchor="start" x="128" y="-186.5" font-family="Helvetica,sans-Serif" font-size="10.00">+ compensationActivities</text>
<text text-anchor="start" x="128" y="-175.5" font-family="Helvetica,sans-Serif" font-size="10.00">+ compensationEventSubProcess</text>
<text text-anchor="start" x="128" y="-164.5" font-family="Helvetica,sans-Serif" font-size="10.00">+ dataObjects</text>
<polyline fill="none" stroke="black" points="120,-157.5 300,-157.5 "/>
<text text-anchor="start" x="128" y="-145.5" font-family="Helvetica,sans-Serif" font-size="10.00">+ Scope()</text>
<text text-anchor="start" x="128" y="-134.5" font-family="Helvetica,sans-Serif" font-size="10.00"># add()</text>
<text text-anchor="start" x="128" y="-123.5" font-family="Helvetica,sans-Serif" font-size="10.00"># add()</text>
<text text-anchor="start" x="128" y="-112.5" font-family="Helvetica,sans-Serif" font-size="10.00"># add()</text>
</a>
</g>
</g>
<!-- Node3&#45;&gt;Node6 -->
<g id="edge6" class="edge">
<title>Node3&#45;&gt;Node6</title>
<path fill="none" stroke="midnightblue" d="M159.53,-300.09C163.64,-291.13 167.9,-281.82 172.14,-272.59"/>
<polygon fill="none" stroke="midnightblue" points="156.3,-298.74 155.31,-309.29 162.66,-301.66 156.3,-298.74"/>
</g>
<!-- Node4 -->
<g id="node4" class="node">
<title>Node4</title>
<g id="a_node4"><a xlink:href="classBPMN_1_1BaseElement.html" target="_top" xlink:title="Base class for all core BPMN elements.">
<polygon fill="none" stroke="black" points="69,-458.5 69,-581.5 191,-581.5 191,-458.5 69,-458.5"/>
<text text-anchor="middle" x="130" y="-569.5" font-family="Helvetica,sans-Serif" font-size="10.00">BPMN::BaseElement</text>
<polyline fill="none" stroke="black" points="69,-562.5 191,-562.5 "/>
<text text-anchor="start" x="77" y="-550.5" font-family="Helvetica,sans-Serif" font-size="10.00">+ element</text>
<text text-anchor="start" x="77" y="-539.5" font-family="Helvetica,sans-Serif" font-size="10.00">+ id</text>
<text text-anchor="start" x="77" y="-528.5" font-family="Helvetica,sans-Serif" font-size="10.00">+ extensionElements</text>
<polyline fill="none" stroke="black" points="69,-521.5 191,-521.5 "/>
<text text-anchor="start" x="77" y="-509.5" font-family="Helvetica,sans-Serif" font-size="10.00">+ BaseElement()</text>
<text text-anchor="start" x="77" y="-498.5" font-family="Helvetica,sans-Serif" font-size="10.00">+ is()</text>
<text text-anchor="start" x="77" y="-487.5" font-family="Helvetica,sans-Serif" font-size="10.00">+ is()</text>
<text text-anchor="start" x="77" y="-476.5" font-family="Helvetica,sans-Serif" font-size="10.00">+ get()</text>
<text text-anchor="start" x="77" y="-465.5" font-family="Helvetica,sans-Serif" font-size="10.00">+ get()</text>
</a>
</g>
</g>
<!-- Node4&#45;&gt;Node3 -->
<g id="edge3" class="edge">
<title>Node4&#45;&gt;Node3</title>
<path fill="none" stroke="midnightblue" d="M130,-448.25C130,-439.29 130,-430.23 130,-421.56"/>
<polygon fill="none" stroke="midnightblue" points="126.5,-448.29 130,-458.29 133.5,-448.29 126.5,-448.29"/>
</g>
<!-- Node5 -->
<g id="node5" class="node">
<title>Node5</title>
<g id="a_node5"><a xlink:href="classBPMN_1_1Element.html" target="_top" xlink:title="Abstract base class for all elements in a BPMN model.">
<polygon fill="none" stroke="black" points="84,-618.5 84,-719.5 176,-719.5 176,-618.5 84,-618.5"/>
<text text-anchor="middle" x="130" y="-707.5" font-family="Helvetica,sans-Serif" font-size="10.00">BPMN::Element</text>
<polyline fill="none" stroke="black" points="84,-700.5 176,-700.5 "/>
<text text-anchor="middle" x="130" y="-688.5" font-family="Helvetica,sans-Serif" font-size="10.00"> </text>
<polyline fill="none" stroke="black" points="84,-681.5 176,-681.5 "/>
<text text-anchor="start" x="92" y="-669.5" font-family="Helvetica,sans-Serif" font-size="10.00">+ ~Element()</text>
<text text-anchor="start" x="92" y="-658.5" font-family="Helvetica,sans-Serif" font-size="10.00">+ represents()</text>
<text text-anchor="start" x="92" y="-647.5" font-family="Helvetica,sans-Serif" font-size="10.00">+ represents()</text>
<text text-anchor="start" x="92" y="-636.5" font-family="Helvetica,sans-Serif" font-size="10.00">+ as()</text>
<text text-anchor="start" x="92" y="-625.5" font-family="Helvetica,sans-Serif" font-size="10.00">+ as()</text>
</a>
</g>
</g>
<!-- Node5&#45;&gt;Node4 -->
<g id="edge4" class="edge">
<title>Node5&#45;&gt;Node4</title>
<path fill="none" stroke="midnightblue" d="M130,-608.14C130,-599.41 130,-590.42 130,-581.67"/>
<polygon fill="none" stroke="midnightblue" points="126.5,-608.23 130,-618.23 133.5,-608.23 126.5,-608.23"/>
</g>
<!-- Node6&#45;&gt;Node1 -->
<g id="edge5" class="edge">
<title>Node6&#45;&gt;Node1</title>
<path fill="none" stroke="midnightblue" d="M161.78,-96.08C156.7,-86.39 151.8,-77.06 147.44,-68.74"/>
<polygon fill="none" stroke="midnightblue" points="158.74,-97.83 166.49,-105.06 164.94,-94.57 158.74,-97.83"/>
</g>
</g>
</svg>
