<?xml version="1.0" encoding="UTF-8" standalone="no"?>
<!DOCTYPE svg PUBLIC "-//W3C//DTD SVG 1.1//EN"
 "http://www.w3.org/Graphics/SVG/1.1/DTD/svg11.dtd">
<!-- Generated by graphviz version 2.43.0 (0)
 -->
<!-- Title: BPMN::Task Pages: 1 -->
<svg width="847pt" height="1012pt"
 viewBox="0.00 0.00 847.00 1012.00" xmlns="http://www.w3.org/2000/svg" xmlns:xlink="http://www.w3.org/1999/xlink">
<g id="graph0" class="graph" transform="scale(1 1) rotate(0) translate(4 1008)">
<title>BPMN::Task</title>
<!-- Node1 -->
<g id="Node000001" class="node">
<title>Node1</title>
<g id="a_Node000001"><a xlink:title=" ">
<polygon fill="#999999" stroke="transparent" points="488,-134 420,-134 420,-85 488,-85 488,-134"/>
<text text-anchor="start" x="425" y="-121.5" font-family="Helvetica,sans-Serif" font-size="10.00">BPMN::Task</text>
<text text-anchor="start" x="425.5" y="-106.5" font-family="Helvetica,sans-Serif" font-size="10.00">+</text>
<text text-anchor="start" x="440" y="-106.5" font-family="Helvetica,sans-Serif" font-size="10.00">element</text>
<text text-anchor="start" x="425.5" y="-91.5" font-family="Helvetica,sans-Serif" font-size="10.00">+</text>
<text text-anchor="start" x="440" y="-91.5" font-family="Helvetica,sans-Serif" font-size="10.00">Task()</text>
<polygon fill="#666666" stroke="#666666" points="420,-116.5 420,-116.5 488,-116.5 488,-116.5 420,-116.5"/>
<polygon fill="#666666" stroke="#666666" points="420,-101.5 420,-101.5 438,-101.5 438,-101.5 420,-101.5"/>
<polygon fill="#666666" stroke="#666666" points="438,-101.5 438,-101.5 488,-101.5 488,-101.5 438,-101.5"/>
<polygon fill="none" stroke="#666666" points="420,-85 420,-134 488,-134 488,-85 420,-85"/>
</a>
</g>
</g>
<!-- Node8 -->
<g id="Node000008" class="node">
<title>Node8</title>
<g id="a_Node000008"><a xlink:href="classBPMN_1_1AbstractTask.html" target="_top" xlink:title=" ">
<polygon fill="white" stroke="transparent" points="108,-49 0,-49 0,0 108,0 108,-49"/>
<text text-anchor="start" x="5" y="-36.5" font-family="Helvetica,sans-Serif" font-size="10.00">BPMN::AbstractTask</text>
<text text-anchor="start" x="52" y="-21.5" font-family="Helvetica,sans-Serif" font-size="10.00"> </text>
<text text-anchor="start" x="8" y="-6.5" font-family="Helvetica,sans-Serif" font-size="10.00">+</text>
<text text-anchor="start" x="25" y="-6.5" font-family="Helvetica,sans-Serif" font-size="10.00">AbstractTask()</text>
<polygon fill="#666666" stroke="#666666" points="0,-31.5 0,-31.5 108,-31.5 108,-31.5 0,-31.5"/>
<polygon fill="#666666" stroke="#666666" points="0,-16.5 0,-16.5 108,-16.5 108,-16.5 0,-16.5"/>
<polygon fill="none" stroke="#666666" points="0,0 0,-49 108,-49 108,0 0,0"/>
</a>
</g>
</g>
<!-- Node1&#45;&gt;Node8 -->
<g id="edge7_Node000001_Node000008" class="edge">
<title>Node1&#45;&gt;Node8</title>
<g id="a_edge7_Node000001_Node000008"><a xlink:title=" ">
<path fill="none" stroke="#63b8ff" d="M409.28,-103.24C344.19,-95 219.9,-77.02 117,-49 114.07,-48.2 111.09,-47.32 108.09,-46.39"/>
<polygon fill="none" stroke="#63b8ff" points="409.23,-106.76 419.58,-104.53 410.09,-99.82 409.23,-106.76"/>
</a>
</g>
</g>
<!-- Node9 -->
<g id="Node000009" class="node">
<title>Node9</title>
<g id="a_Node000009"><a xlink:href="classBPMN_1_1BusinessRuleTask.html" target="_top" xlink:title=" ">
<polygon fill="white" stroke="transparent" points="259.5,-49 126.5,-49 126.5,0 259.5,0 259.5,-49"/>
<text text-anchor="start" x="132" y="-36.5" font-family="Helvetica,sans-Serif" font-size="10.00">BPMN::BusinessRuleTask</text>
<text text-anchor="start" x="135" y="-21.5" font-family="Helvetica,sans-Serif" font-size="10.00">+</text>
<text text-anchor="start" x="152" y="-21.5" font-family="Helvetica,sans-Serif" font-size="10.00">element</text>
<text text-anchor="start" x="135" y="-6.5" font-family="Helvetica,sans-Serif" font-size="10.00">+</text>
<text text-anchor="start" x="152" y="-6.5" font-family="Helvetica,sans-Serif" font-size="10.00">BusinessRuleTask()</text>
<polygon fill="#666666" stroke="#666666" points="127,-31.5 127,-31.5 260,-31.5 260,-31.5 127,-31.5"/>
<polygon fill="#666666" stroke="#666666" points="127,-16.5 127,-16.5 150,-16.5 150,-16.5 127,-16.5"/>
<polygon fill="#666666" stroke="#666666" points="150,-16.5 150,-16.5 260,-16.5 260,-16.5 150,-16.5"/>
<polygon fill="none" stroke="#666666" points="126.5,0 126.5,-49 259.5,-49 259.5,0 126.5,0"/>
</a>
</g>
</g>
<!-- Node1&#45;&gt;Node9 -->
<g id="edge8_Node000001_Node000009" class="edge">
<title>Node1&#45;&gt;Node9</title>
<g id="a_edge8_Node000001_Node000009"><a xlink:title=" ">
<path fill="none" stroke="#63b8ff" d="M410.14,-94.55C368.97,-81.46 306.81,-61.69 259.53,-46.66"/>
<polygon fill="none" stroke="#63b8ff" points="409.29,-97.95 419.88,-97.65 411.41,-91.28 409.29,-97.95"/>
</a>
</g>
</g>
<!-- Node10 -->
<g id="Node000010" class="node">
<title>Node10</title>
<g id="a_Node000010"><a xlink:href="classBPMN_1_1ManualTask.html" target="_top" xlink:title=" ">
<polygon fill="white" stroke="transparent" points="382,-49 278,-49 278,0 382,0 382,-49"/>
<text text-anchor="start" x="283" y="-36.5" font-family="Helvetica,sans-Serif" font-size="10.00">BPMN::ManualTask</text>
<text text-anchor="start" x="286" y="-21.5" font-family="Helvetica,sans-Serif" font-size="10.00">+</text>
<text text-anchor="start" x="303" y="-21.5" font-family="Helvetica,sans-Serif" font-size="10.00">element</text>
<text text-anchor="start" x="286" y="-6.5" font-family="Helvetica,sans-Serif" font-size="10.00">+</text>
<text text-anchor="start" x="303" y="-6.5" font-family="Helvetica,sans-Serif" font-size="10.00">ManualTask()</text>
<polygon fill="#666666" stroke="#666666" points="278,-31.5 278,-31.5 382,-31.5 382,-31.5 278,-31.5"/>
<polygon fill="#666666" stroke="#666666" points="278,-16.5 278,-16.5 301,-16.5 301,-16.5 278,-16.5"/>
<polygon fill="#666666" stroke="#666666" points="301,-16.5 301,-16.5 382,-16.5 382,-16.5 301,-16.5"/>
<polygon fill="none" stroke="#666666" points="278,0 278,-49 382,-49 382,0 278,0"/>
</a>
</g>
</g>
<!-- Node1&#45;&gt;Node10 -->
<g id="edge9_Node000001_Node000010" class="edge">
<title>Node1&#45;&gt;Node10</title>
<g id="a_edge9_Node000001_Node000010"><a xlink:title=" ">
<path fill="none" stroke="#63b8ff" d="M411.21,-79.86C396.27,-69.86 379.67,-58.75 365.4,-49.19"/>
<polygon fill="none" stroke="#63b8ff" points="409.53,-82.95 419.79,-85.6 413.42,-77.13 409.53,-82.95"/>
</a>
</g>
</g>
<!-- Node11 -->
<g id="Node000011" class="node">
<title>Node11</title>
<g id="a_Node000011"><a xlink:href="classBPMN_1_1ReceiveTask.html" target="_top" xlink:title=" ">
<polygon fill="white" stroke="transparent" points="507.5,-49 400.5,-49 400.5,0 507.5,0 507.5,-49"/>
<text text-anchor="start" x="406" y="-36.5" font-family="Helvetica,sans-Serif" font-size="10.00">BPMN::ReceiveTask</text>
<text text-anchor="start" x="409" y="-21.5" font-family="Helvetica,sans-Serif" font-size="10.00">+</text>
<text text-anchor="start" x="426" y="-21.5" font-family="Helvetica,sans-Serif" font-size="10.00">element</text>
<text text-anchor="start" x="409" y="-6.5" font-family="Helvetica,sans-Serif" font-size="10.00">+</text>
<text text-anchor="start" x="426" y="-6.5" font-family="Helvetica,sans-Serif" font-size="10.00">ReceiveTask()</text>
<polygon fill="#666666" stroke="#666666" points="401,-31.5 401,-31.5 508,-31.5 508,-31.5 401,-31.5"/>
<polygon fill="#666666" stroke="#666666" points="401,-16.5 401,-16.5 424,-16.5 424,-16.5 401,-16.5"/>
<polygon fill="#666666" stroke="#666666" points="424,-16.5 424,-16.5 508,-16.5 508,-16.5 424,-16.5"/>
<polygon fill="none" stroke="#666666" points="400.5,0 400.5,-49 507.5,-49 507.5,0 400.5,0"/>
</a>
</g>
</g>
<!-- Node1&#45;&gt;Node11 -->
<g id="edge10_Node000001_Node000011" class="edge">
<title>Node1&#45;&gt;Node11</title>
<g id="a_edge10_Node000001_Node000011"><a xlink:title=" ">
<path fill="none" stroke="#63b8ff" d="M454,-74.77C454,-66.17 454,-57.1 454,-49.12"/>
<polygon fill="none" stroke="#63b8ff" points="450.5,-74.94 454,-84.94 457.5,-74.94 450.5,-74.94"/>
</a>
</g>
</g>
<!-- Node12 -->
<g id="Node000012" class="node">
<title>Node12</title>
<g id="a_Node000012"><a xlink:href="classBPMN_1_1ScriptTask.html" target="_top" xlink:title=" ">
<polygon fill="white" stroke="transparent" points="620.5,-49 525.5,-49 525.5,0 620.5,0 620.5,-49"/>
<text text-anchor="start" x="531" y="-36.5" font-family="Helvetica,sans-Serif" font-size="10.00">BPMN::ScriptTask</text>
<text text-anchor="start" x="534" y="-21.5" font-family="Helvetica,sans-Serif" font-size="10.00">+</text>
<text text-anchor="start" x="551" y="-21.5" font-family="Helvetica,sans-Serif" font-size="10.00">element</text>
<text text-anchor="start" x="534" y="-6.5" font-family="Helvetica,sans-Serif" font-size="10.00">+</text>
<text text-anchor="start" x="551" y="-6.5" font-family="Helvetica,sans-Serif" font-size="10.00">ScriptTask()</text>
<polygon fill="#666666" stroke="#666666" points="526,-31.5 526,-31.5 621,-31.5 621,-31.5 526,-31.5"/>
<polygon fill="#666666" stroke="#666666" points="526,-16.5 526,-16.5 549,-16.5 549,-16.5 526,-16.5"/>
<polygon fill="#666666" stroke="#666666" points="549,-16.5 549,-16.5 621,-16.5 621,-16.5 549,-16.5"/>
<polygon fill="none" stroke="#666666" points="525.5,0 525.5,-49 620.5,-49 620.5,0 525.5,0"/>
</a>
</g>
</g>
<!-- Node1&#45;&gt;Node12 -->
<g id="edge11_Node000001_Node000012" class="edge">
<title>Node1&#45;&gt;Node12</title>
<g id="a_edge11_Node000001_Node000012"><a xlink:title=" ">
<path fill="none" stroke="#63b8ff" d="M496.32,-78.99C510.36,-69.19 525.81,-58.41 539.13,-49.12"/>
<polygon fill="none" stroke="#63b8ff" points="493.98,-76.35 487.78,-84.94 497.99,-82.09 493.98,-76.35"/>
</a>
</g>
</g>
<!-- Node13 -->
<g id="Node000013" class="node">
<title>Node13</title>
<g id="a_Node000013"><a xlink:href="classBPMN_1_1SendTask.html" target="_top" xlink:title=" ">
<polygon fill="white" stroke="transparent" points="731,-49 639,-49 639,0 731,0 731,-49"/>
<text text-anchor="start" x="644" y="-36.5" font-family="Helvetica,sans-Serif" font-size="10.00">BPMN::SendTask</text>
<text text-anchor="start" x="647" y="-21.5" font-family="Helvetica,sans-Serif" font-size="10.00">+</text>
<text text-anchor="start" x="664" y="-21.5" font-family="Helvetica,sans-Serif" font-size="10.00">element</text>
<text text-anchor="start" x="647" y="-6.5" font-family="Helvetica,sans-Serif" font-size="10.00">+</text>
<text text-anchor="start" x="664" y="-6.5" font-family="Helvetica,sans-Serif" font-size="10.00">SendTask()</text>
<polygon fill="#666666" stroke="#666666" points="639,-31.5 639,-31.5 731,-31.5 731,-31.5 639,-31.5"/>
<polygon fill="#666666" stroke="#666666" points="639,-16.5 639,-16.5 662,-16.5 662,-16.5 639,-16.5"/>
<polygon fill="#666666" stroke="#666666" points="662,-16.5 662,-16.5 731,-16.5 731,-16.5 662,-16.5"/>
<polygon fill="none" stroke="#666666" points="639,0 639,-49 731,-49 731,0 639,0"/>
</a>
</g>
</g>
<!-- Node1&#45;&gt;Node13 -->
<g id="edge12_Node000001_Node000013" class="edge">
<title>Node1&#45;&gt;Node13</title>
<g id="a_edge12_Node000001_Node000013"><a xlink:title=" ">
<path fill="none" stroke="#63b8ff" d="M497.68,-94.78C533.5,-83.28 585.38,-66.04 630,-49 632.91,-47.89 635.89,-46.71 638.89,-45.51"/>
<polygon fill="none" stroke="#63b8ff" points="496.48,-91.49 488.02,-97.87 498.61,-98.16 496.48,-91.49"/>
</a>
</g>
</g>
<!-- Node14 -->
<g id="Node000014" class="node">
<title>Node14</title>
<g id="a_Node000014"><a xlink:href="classBPMN_1_1UserTask.html" target="_top" xlink:title=" ">
<polygon fill="white" stroke="transparent" points="839,-49 749,-49 749,0 839,0 839,-49"/>
<text text-anchor="start" x="754" y="-36.5" font-family="Helvetica,sans-Serif" font-size="10.00">BPMN::UserTask</text>
<text text-anchor="start" x="757" y="-21.5" font-family="Helvetica,sans-Serif" font-size="10.00">+</text>
<text text-anchor="start" x="774" y="-21.5" font-family="Helvetica,sans-Serif" font-size="10.00">element</text>
<text text-anchor="start" x="757" y="-6.5" font-family="Helvetica,sans-Serif" font-size="10.00">+</text>
<text text-anchor="start" x="774" y="-6.5" font-family="Helvetica,sans-Serif" font-size="10.00">UserTask()</text>
<polygon fill="#666666" stroke="#666666" points="749,-31.5 749,-31.5 839,-31.5 839,-31.5 749,-31.5"/>
<polygon fill="#666666" stroke="#666666" points="749,-16.5 749,-16.5 772,-16.5 772,-16.5 749,-16.5"/>
<polygon fill="#666666" stroke="#666666" points="772,-16.5 772,-16.5 839,-16.5 839,-16.5 772,-16.5"/>
<polygon fill="none" stroke="#666666" points="749,0 749,-49 839,-49 839,0 749,0"/>
</a>
</g>
</g>
<!-- Node1&#45;&gt;Node14 -->
<g id="edge13_Node000001_Node000014" class="edge">
<title>Node1&#45;&gt;Node14</title>
<g id="a_edge13_Node000001_Node000014"><a xlink:title=" ">
<path fill="none" stroke="#63b8ff" d="M498.11,-102.21C554.91,-93.45 656.28,-75.61 740,-49 742.92,-48.07 745.9,-47.04 748.89,-45.93"/>
<polygon fill="none" stroke="#63b8ff" points="497.4,-98.78 488.04,-103.74 498.45,-105.7 497.4,-98.78"/>
</a>
</g>
</g>
<!-- Node2 -->
<g id="Node000002" class="node">
<title>Node2</title>
<g id="a_Node000002"><a xlink:href="classBPMN_1_1Activity.html" target="_top" xlink:title=" ">
<polygon fill="white" stroke="transparent" points="511.5,-279 396.5,-279 396.5,-170 511.5,-170 511.5,-279"/>
<text text-anchor="start" x="418" y="-266.5" font-family="Helvetica,sans-Serif" font-size="10.00">BPMN::Activity</text>
<text text-anchor="start" x="401" y="-251.5" font-family="Helvetica,sans-Serif" font-size="10.00">+</text>
<text text-anchor="start" x="414" y="-251.5" font-family="Helvetica,sans-Serif" font-size="10.00">boundaryEvents</text>
<text text-anchor="start" x="401" y="-236.5" font-family="Helvetica,sans-Serif" font-size="10.00">+</text>
<text text-anchor="start" x="414" y="-236.5" font-family="Helvetica,sans-Serif" font-size="10.00">compensatedBy</text>
<text text-anchor="start" x="401" y="-221.5" font-family="Helvetica,sans-Serif" font-size="10.00">+</text>
<text text-anchor="start" x="414" y="-221.5" font-family="Helvetica,sans-Serif" font-size="10.00">isForCompensation</text>
<text text-anchor="start" x="401" y="-206.5" font-family="Helvetica,sans-Serif" font-size="10.00">+</text>
<text text-anchor="start" x="414" y="-206.5" font-family="Helvetica,sans-Serif" font-size="10.00">loopCharacteristics</text>
<text text-anchor="start" x="401" y="-191.5" font-family="Helvetica,sans-Serif" font-size="10.00">+</text>
<text text-anchor="start" x="414" y="-191.5" font-family="Helvetica,sans-Serif" font-size="10.00">element</text>
<text text-anchor="start" x="401" y="-176.5" font-family="Helvetica,sans-Serif" font-size="10.00">+</text>
<text text-anchor="start" x="414" y="-176.5" font-family="Helvetica,sans-Serif" font-size="10.00">Activity()</text>
<polygon fill="#666666" stroke="#666666" points="397,-261.5 397,-261.5 512,-261.5 512,-261.5 397,-261.5"/>
<polygon fill="#666666" stroke="#666666" points="397,-186.5 397,-186.5 412,-186.5 412,-186.5 397,-186.5"/>
<polygon fill="#666666" stroke="#666666" points="412,-186.5 412,-186.5 512,-186.5 512,-186.5 412,-186.5"/>
<polygon fill="none" stroke="#666666" points="396.5,-170 396.5,-279 511.5,-279 511.5,-170 396.5,-170"/>
</a>
</g>
</g>
<!-- Node2&#45;&gt;Node1 -->
<g id="edge1_Node000001_Node000002" class="edge">
<title>Node2&#45;&gt;Node1</title>
<g id="a_edge1_Node000001_Node000002"><a xlink:title=" ">
<path fill="none" stroke="#63b8ff" d="M454,-159.69C454,-150.63 454,-141.82 454,-134.23"/>
<polygon fill="none" stroke="#63b8ff" points="450.5,-159.98 454,-169.98 457.5,-159.98 450.5,-159.98"/>
</a>
</g>
</g>
<!-- Node3 -->
<g id="Node000003" class="node">
<title>Node3</title>
<g id="a_Node000003"><a xlink:href="classBPMN_1_1FlowNode.html" target="_top" xlink:title="Base class for BPMN elements that may contain incoming and outgoing sequence flows.">
<polygon fill="white" stroke="transparent" points="501.5,-409 406.5,-409 406.5,-315 501.5,-315 501.5,-409"/>
<text text-anchor="start" x="412" y="-397" font-family="Helvetica,sans-Serif" font-size="10.00">BPMN::FlowNode</text>
<text text-anchor="start" x="415" y="-382" font-family="Helvetica,sans-Serif" font-size="10.00">+</text>
<text text-anchor="start" x="432" y="-382" font-family="Helvetica,sans-Serif" font-size="10.00">element</text>
<text text-anchor="start" x="415" y="-367" font-family="Helvetica,sans-Serif" font-size="10.00">+</text>
<text text-anchor="start" x="432" y="-367" font-family="Helvetica,sans-Serif" font-size="10.00">name</text>
<text text-anchor="start" x="415" y="-352" font-family="Helvetica,sans-Serif" font-size="10.00">+</text>
<text text-anchor="start" x="432" y="-352" font-family="Helvetica,sans-Serif" font-size="10.00">incoming</text>
<text text-anchor="start" x="415" y="-337" font-family="Helvetica,sans-Serif" font-size="10.00">+</text>
<text text-anchor="start" x="432" y="-337" font-family="Helvetica,sans-Serif" font-size="10.00">outgoing</text>
<text text-anchor="start" x="415" y="-322" font-family="Helvetica,sans-Serif" font-size="10.00">+</text>
<text text-anchor="start" x="432" y="-322" font-family="Helvetica,sans-Serif" font-size="10.00">FlowNode()</text>
<polygon fill="#666666" stroke="#666666" points="407,-392 407,-392 502,-392 502,-392 407,-392"/>
<polygon fill="#666666" stroke="#666666" points="407,-332 407,-332 430,-332 430,-332 407,-332"/>
<polygon fill="#666666" stroke="#666666" points="430,-332 430,-332 502,-332 502,-332 430,-332"/>
<polygon fill="none" stroke="#666666" points="406.5,-315 406.5,-409 501.5,-409 501.5,-315 406.5,-315"/>
</a>
</g>
</g>
<!-- Node3&#45;&gt;Node2 -->
<g id="edge2_Node000002_Node000003" class="edge">
<title>Node3&#45;&gt;Node2</title>
<g id="a_edge2_Node000002_Node000003"><a xlink:title=" ">
<path fill="none" stroke="#63b8ff" d="M454,-304.58C454,-296.12 454,-287.41 454,-279.01"/>
<polygon fill="none" stroke="#63b8ff" points="450.5,-304.75 454,-314.75 457.5,-304.75 450.5,-304.75"/>
</a>
</g>
</g>
<!-- Node4 -->
<g id="Node000004" class="node">
<title>Node4</title>
<g id="a_Node000004"><a xlink:href="classBPMN_1_1ChildNode.html" target="_top" xlink:title="Base class for BPMN elements within a Scope.">
<polygon fill="white" stroke="transparent" points="502,-524 406,-524 406,-445 502,-445 502,-524"/>
<text text-anchor="start" x="411" y="-511.5" font-family="Helvetica,sans-Serif" font-size="10.00">BPMN::ChildNode</text>
<text text-anchor="start" x="414" y="-496.5" font-family="Helvetica,sans-Serif" font-size="10.00">+</text>
<text text-anchor="start" x="431" y="-496.5" font-family="Helvetica,sans-Serif" font-size="10.00">parent</text>
<text text-anchor="start" x="414" y="-481.5" font-family="Helvetica,sans-Serif" font-size="10.00">+</text>
<text text-anchor="start" x="431" y="-481.5" font-family="Helvetica,sans-Serif" font-size="10.00">ChildNode()</text>
<text text-anchor="start" x="414" y="-466.5" font-family="Helvetica,sans-Serif" font-size="10.00">+</text>
<text text-anchor="start" x="431" y="-466.5" font-family="Helvetica,sans-Serif" font-size="10.00">ancestor()</text>
<text text-anchor="start" x="414" y="-451.5" font-family="Helvetica,sans-Serif" font-size="10.00">+</text>
<text text-anchor="start" x="431" y="-451.5" font-family="Helvetica,sans-Serif" font-size="10.00">ancestor()</text>
<polygon fill="#666666" stroke="#666666" points="406,-506.5 406,-506.5 502,-506.5 502,-506.5 406,-506.5"/>
<polygon fill="#666666" stroke="#666666" points="406,-491.5 406,-491.5 429,-491.5 429,-491.5 406,-491.5"/>
<polygon fill="#666666" stroke="#666666" points="429,-491.5 429,-491.5 502,-491.5 502,-491.5 429,-491.5"/>
<polygon fill="none" stroke="#666666" points="406,-445 406,-524 502,-524 502,-445 406,-445"/>
</a>
</g>
</g>
<!-- Node4&#45;&gt;Node3 -->
<g id="edge3_Node000003_Node000004" class="edge">
<title>Node4&#45;&gt;Node3</title>
<g id="a_edge3_Node000003_Node000004"><a xlink:title=" ">
<path fill="none" stroke="#63b8ff" d="M454,-434.68C454,-426.3 454,-417.61 454,-409.29"/>
<polygon fill="none" stroke="#63b8ff" points="450.5,-434.71 454,-444.71 457.5,-434.71 450.5,-434.71"/>
</a>
</g>
</g>
<!-- Node5 -->
<g id="Node000005" class="node">
<title>Node5</title>
<g id="a_Node000005"><a xlink:href="classBPMN_1_1Node.html" target="_top" xlink:title="Base class for all nodes in a BPMN model.">
<polygon fill="white" stroke="transparent" points="489.5,-684 418.5,-684 418.5,-560 489.5,-560 489.5,-684"/>
<text text-anchor="start" x="424" y="-672" font-family="Helvetica,sans-Serif" font-size="10.00">BPMN::Node</text>
<text text-anchor="start" x="424" y="-657" font-family="Helvetica,sans-Serif" font-size="10.00">+</text>
<text text-anchor="start" x="438" y="-657" font-family="Helvetica,sans-Serif" font-size="10.00">receiving</text>
<text text-anchor="start" x="424" y="-642" font-family="Helvetica,sans-Serif" font-size="10.00">+</text>
<text text-anchor="start" x="438" y="-642" font-family="Helvetica,sans-Serif" font-size="10.00">sending</text>
<text text-anchor="start" x="424" y="-627" font-family="Helvetica,sans-Serif" font-size="10.00">+</text>
<text text-anchor="start" x="438" y="-627" font-family="Helvetica,sans-Serif" font-size="10.00">Node()</text>
<text text-anchor="start" x="424" y="-612" font-family="Helvetica,sans-Serif" font-size="10.00">+</text>
<text text-anchor="start" x="438" y="-612" font-family="Helvetica,sans-Serif" font-size="10.00">find()</text>
<text text-anchor="start" x="424" y="-597" font-family="Helvetica,sans-Serif" font-size="10.00">+</text>
<text text-anchor="start" x="438" y="-597" font-family="Helvetica,sans-Serif" font-size="10.00">find()</text>
<text text-anchor="start" x="424" y="-582" font-family="Helvetica,sans-Serif" font-size="10.00">+</text>
<text text-anchor="start" x="438" y="-582" font-family="Helvetica,sans-Serif" font-size="10.00">find_all()</text>
<text text-anchor="start" x="424" y="-567" font-family="Helvetica,sans-Serif" font-size="10.00">+</text>
<text text-anchor="start" x="438" y="-567" font-family="Helvetica,sans-Serif" font-size="10.00">find_all()</text>
<polygon fill="#666666" stroke="#666666" points="419,-667 419,-667 490,-667 490,-667 419,-667"/>
<polygon fill="#666666" stroke="#666666" points="419,-637 419,-637 436,-637 436,-637 419,-637"/>
<polygon fill="#666666" stroke="#666666" points="436,-637 436,-637 490,-637 490,-637 436,-637"/>
<polygon fill="none" stroke="#666666" points="418.5,-560 418.5,-684 489.5,-684 489.5,-560 418.5,-560"/>
</a>
</g>
</g>
<!-- Node5&#45;&gt;Node4 -->
<g id="edge4_Node000004_Node000005" class="edge">
<title>Node5&#45;&gt;Node4</title>
<g id="a_edge4_Node000004_Node000005"><a xlink:title=" ">
<path fill="none" stroke="#63b8ff" d="M454,-549.93C454,-541.02 454,-532.19 454,-524.05"/>
<polygon fill="none" stroke="#63b8ff" points="450.5,-549.99 454,-559.99 457.5,-549.99 450.5,-549.99"/>
</a>
</g>
</g>
<!-- Node6 -->
<g id="Node000006" class="node">
<title>Node6</title>
<g id="a_Node000006"><a xlink:href="classBPMN_1_1BaseElement.html" target="_top" xlink:title="Base class for all core BPMN elements.">
<polygon fill="white" stroke="transparent" points="511.5,-859 396.5,-859 396.5,-720 511.5,-720 511.5,-859"/>
<text text-anchor="start" x="404.5" y="-846.5" font-family="Helvetica,sans-Serif" font-size="10.00">BPMN::BaseElement</text>
<text text-anchor="start" x="401" y="-831.5" font-family="Helvetica,sans-Serif" font-size="10.00">+</text>
<text text-anchor="start" x="414" y="-831.5" font-family="Helvetica,sans-Serif" font-size="10.00">element</text>
<text text-anchor="start" x="401" y="-816.5" font-family="Helvetica,sans-Serif" font-size="10.00">+</text>
<text text-anchor="start" x="414" y="-816.5" font-family="Helvetica,sans-Serif" font-size="10.00">id</text>
<text text-anchor="start" x="401" y="-801.5" font-family="Helvetica,sans-Serif" font-size="10.00">+</text>
<text text-anchor="start" x="414" y="-801.5" font-family="Helvetica,sans-Serif" font-size="10.00">extensionElements</text>
<text text-anchor="start" x="401" y="-786.5" font-family="Helvetica,sans-Serif" font-size="10.00">+</text>
<text text-anchor="start" x="414" y="-786.5" font-family="Helvetica,sans-Serif" font-size="10.00">BaseElement()</text>
<text text-anchor="start" x="401" y="-771.5" font-family="Helvetica,sans-Serif" font-size="10.00">+</text>
<text text-anchor="start" x="414" y="-771.5" font-family="Helvetica,sans-Serif" font-size="10.00">is()</text>
<text text-anchor="start" x="401" y="-756.5" font-family="Helvetica,sans-Serif" font-size="10.00">+</text>
<text text-anchor="start" x="414" y="-756.5" font-family="Helvetica,sans-Serif" font-size="10.00">is()</text>
<text text-anchor="start" x="401" y="-741.5" font-family="Helvetica,sans-Serif" font-size="10.00">+</text>
<text text-anchor="start" x="414" y="-741.5" font-family="Helvetica,sans-Serif" font-size="10.00">get()</text>
<text text-anchor="start" x="401" y="-726.5" font-family="Helvetica,sans-Serif" font-size="10.00">+</text>
<text text-anchor="start" x="414" y="-726.5" font-family="Helvetica,sans-Serif" font-size="10.00">get()</text>
<polygon fill="#666666" stroke="#666666" points="397,-841.5 397,-841.5 512,-841.5 512,-841.5 397,-841.5"/>
<polygon fill="#666666" stroke="#666666" points="397,-796.5 397,-796.5 412,-796.5 412,-796.5 397,-796.5"/>
<polygon fill="#666666" stroke="#666666" points="412,-796.5 412,-796.5 512,-796.5 512,-796.5 412,-796.5"/>
<polygon fill="none" stroke="#666666" points="396.5,-720 396.5,-859 511.5,-859 511.5,-720 396.5,-720"/>
</a>
</g>
</g>
<!-- Node6&#45;&gt;Node5 -->
<g id="edge5_Node000005_Node000006" class="edge">
<title>Node6&#45;&gt;Node5</title>
<g id="a_edge5_Node000005_Node000006"><a xlink:title=" ">
<path fill="none" stroke="#63b8ff" d="M454,-709.71C454,-701.12 454,-692.47 454,-684.14"/>
<polygon fill="none" stroke="#63b8ff" points="450.5,-709.75 454,-719.75 457.5,-709.75 450.5,-709.75"/>
</a>
</g>
</g>
<!-- Node7 -->
<g id="Node000007" class="node">
<title>Node7</title>
<g id="a_Node000007"><a xlink:href="classBPMN_1_1Element.html" target="_top" xlink:title="Abstract base class for all elements in a BPMN model.">
<polygon fill="white" stroke="transparent" points="497,-1004 411,-1004 411,-895 497,-895 497,-1004"/>
<text text-anchor="start" x="416" y="-991.5" font-family="Helvetica,sans-Serif" font-size="10.00">BPMN::Element</text>
<text text-anchor="start" x="452" y="-976.5" font-family="Helvetica,sans-Serif" font-size="10.00"> </text>
<text text-anchor="start" x="416" y="-961.5" font-family="Helvetica,sans-Serif" font-size="10.00">+</text>
<text text-anchor="start" x="430" y="-961.5" font-family="Helvetica,sans-Serif" font-size="10.00">~Element()</text>
<text text-anchor="start" x="416" y="-946.5" font-family="Helvetica,sans-Serif" font-size="10.00">+</text>
<text text-anchor="start" x="430" y="-946.5" font-family="Helvetica,sans-Serif" font-size="10.00">represents()</text>
<text text-anchor="start" x="416" y="-931.5" font-family="Helvetica,sans-Serif" font-size="10.00">+</text>
<text text-anchor="start" x="430" y="-931.5" font-family="Helvetica,sans-Serif" font-size="10.00">represents()</text>
<text text-anchor="start" x="416" y="-916.5" font-family="Helvetica,sans-Serif" font-size="10.00">+</text>
<text text-anchor="start" x="430" y="-916.5" font-family="Helvetica,sans-Serif" font-size="10.00">as()</text>
<text text-anchor="start" x="416" y="-901.5" font-family="Helvetica,sans-Serif" font-size="10.00">+</text>
<text text-anchor="start" x="430" y="-901.5" font-family="Helvetica,sans-Serif" font-size="10.00">as()</text>
<polygon fill="#666666" stroke="#666666" points="411,-986.5 411,-986.5 497,-986.5 497,-986.5 411,-986.5"/>
<polygon fill="#666666" stroke="#666666" points="411,-971.5 411,-971.5 497,-971.5 497,-971.5 411,-971.5"/>
<polygon fill="none" stroke="#666666" points="411,-895 411,-1004 497,-1004 497,-895 411,-895"/>
</a>
</g>
</g>
<!-- Node7&#45;&gt;Node6 -->
<g id="edge6_Node000006_Node000007" class="edge">
<title>Node7&#45;&gt;Node6</title>
<g id="a_edge6_Node000006_Node000007"><a xlink:title=" ">
<path fill="none" stroke="#63b8ff" d="M454,-884.55C454,-876.23 454,-867.67 454,-859.28"/>
<polygon fill="none" stroke="#63b8ff" points="450.5,-884.57 454,-894.57 457.5,-884.57 450.5,-884.57"/>
</a>
</g>
</g>
</g>
</svg>
