<?xml version="1.0" encoding="UTF-8" standalone="no"?>
<!DOCTYPE svg PUBLIC "-//W3C//DTD SVG 1.1//EN"
 "http://www.w3.org/Graphics/SVG/1.1/DTD/svg11.dtd">
<!-- Generated by graphviz version 2.43.0 (0)
 -->
<!-- Title: BPMN::ComplexGateway Pages: 1 -->
<svg width="141pt" height="882pt"
 viewBox="0.00 0.00 141.00 882.00" xmlns="http://www.w3.org/2000/svg" xmlns:xlink="http://www.w3.org/1999/xlink">
<g id="graph0" class="graph" transform="scale(1 1) rotate(0) translate(4 878)">
<title>BPMN::ComplexGateway</title>
<!-- Node1 -->
<g id="Node000001" class="node">
<title>Node1</title>
<g id="a_Node000001"><a xlink:title=" ">
<polygon fill="#999999" stroke="transparent" points="133,-64 0,-64 0,0 133,0 133,-64"/>
<text text-anchor="start" x="5.5" y="-52" font-family="Helvetica,sans-Serif" font-size="10.00">BPMN::ComplexGateway</text>
<text text-anchor="start" x="8.5" y="-37" font-family="Helvetica,sans-Serif" font-size="10.00">+</text>
<text text-anchor="start" x="25.5" y="-37" font-family="Helvetica,sans-Serif" font-size="10.00">element</text>
<text text-anchor="start" x="8.5" y="-22" font-family="Helvetica,sans-Serif" font-size="10.00">+</text>
<text text-anchor="start" x="25.5" y="-22" font-family="Helvetica,sans-Serif" font-size="10.00">defaultFlow</text>
<text text-anchor="start" x="8.5" y="-7" font-family="Helvetica,sans-Serif" font-size="10.00">+</text>
<text text-anchor="start" x="25.5" y="-7" font-family="Helvetica,sans-Serif" font-size="10.00">ComplexGateway()</text>
<polygon fill="#666666" stroke="#666666" points="0.5,-47 0.5,-47 133.5,-47 133.5,-47 0.5,-47"/>
<polygon fill="#666666" stroke="#666666" points="0.5,-17 0.5,-17 23.5,-17 23.5,-17 0.5,-17"/>
<polygon fill="#666666" stroke="#666666" points="23.5,-17 23.5,-17 133.5,-17 133.5,-17 23.5,-17"/>
<polygon fill="none" stroke="#666666" points="0,0 0,-64 133,-64 133,0 0,0"/>
</a>
</g>
</g>
<!-- Node2 -->
<g id="Node000002" class="node">
<title>Node2</title>
<g id="a_Node000002"><a xlink:href="classBPMN_1_1Gateway.html" target="_top" xlink:title=" ">
<polygon fill="white" stroke="transparent" points="111,-149 22,-149 22,-100 111,-100 111,-149"/>
<text text-anchor="start" x="27.5" y="-136.5" font-family="Helvetica,sans-Serif" font-size="10.00">BPMN::Gateway</text>
<text text-anchor="start" x="30.5" y="-121.5" font-family="Helvetica,sans-Serif" font-size="10.00">+</text>
<text text-anchor="start" x="47.5" y="-121.5" font-family="Helvetica,sans-Serif" font-size="10.00">element</text>
<text text-anchor="start" x="30.5" y="-106.5" font-family="Helvetica,sans-Serif" font-size="10.00">+</text>
<text text-anchor="start" x="47.5" y="-106.5" font-family="Helvetica,sans-Serif" font-size="10.00">Gateway()</text>
<polygon fill="#666666" stroke="#666666" points="22.5,-131.5 22.5,-131.5 111.5,-131.5 111.5,-131.5 22.5,-131.5"/>
<polygon fill="#666666" stroke="#666666" points="22.5,-116.5 22.5,-116.5 45.5,-116.5 45.5,-116.5 22.5,-116.5"/>
<polygon fill="#666666" stroke="#666666" points="45.5,-116.5 45.5,-116.5 111.5,-116.5 111.5,-116.5 45.5,-116.5"/>
<polygon fill="none" stroke="#666666" points="22,-100 22,-149 111,-149 111,-100 22,-100"/>
</a>
</g>
</g>
<!-- Node2&#45;&gt;Node1 -->
<g id="edge1_Node000001_Node000002" class="edge">
<title>Node2&#45;&gt;Node1</title>
<g id="a_edge1_Node000001_Node000002"><a xlink:title=" ">
<path fill="none" stroke="#63b8ff" d="M66.5,-89.54C66.5,-81.2 66.5,-72.31 66.5,-64.11"/>
<polygon fill="none" stroke="#63b8ff" points="63,-89.72 66.5,-99.72 70,-89.72 63,-89.72"/>
</a>
</g>
</g>
<!-- Node3 -->
<g id="Node000003" class="node">
<title>Node3</title>
<g id="a_Node000003"><a xlink:href="classBPMN_1_1FlowNode.html" target="_top" xlink:title="Base class for BPMN elements that may contain incoming and outgoing sequence flows.">
<polygon fill="white" stroke="transparent" points="114,-279 19,-279 19,-185 114,-185 114,-279"/>
<text text-anchor="start" x="24.5" y="-267" font-family="Helvetica,sans-Serif" font-size="10.00">BPMN::FlowNode</text>
<text text-anchor="start" x="27.5" y="-252" font-family="Helvetica,sans-Serif" font-size="10.00">+</text>
<text text-anchor="start" x="44.5" y="-252" font-family="Helvetica,sans-Serif" font-size="10.00">element</text>
<text text-anchor="start" x="27.5" y="-237" font-family="Helvetica,sans-Serif" font-size="10.00">+</text>
<text text-anchor="start" x="44.5" y="-237" font-family="Helvetica,sans-Serif" font-size="10.00">name</text>
<text text-anchor="start" x="27.5" y="-222" font-family="Helvetica,sans-Serif" font-size="10.00">+</text>
<text text-anchor="start" x="44.5" y="-222" font-family="Helvetica,sans-Serif" font-size="10.00">incoming</text>
<text text-anchor="start" x="27.5" y="-207" font-family="Helvetica,sans-Serif" font-size="10.00">+</text>
<text text-anchor="start" x="44.5" y="-207" font-family="Helvetica,sans-Serif" font-size="10.00">outgoing</text>
<text text-anchor="start" x="27.5" y="-192" font-family="Helvetica,sans-Serif" font-size="10.00">+</text>
<text text-anchor="start" x="44.5" y="-192" font-family="Helvetica,sans-Serif" font-size="10.00">FlowNode()</text>
<polygon fill="#666666" stroke="#666666" points="19.5,-262 19.5,-262 114.5,-262 114.5,-262 19.5,-262"/>
<polygon fill="#666666" stroke="#666666" points="19.5,-202 19.5,-202 42.5,-202 42.5,-202 19.5,-202"/>
<polygon fill="#666666" stroke="#666666" points="42.5,-202 42.5,-202 114.5,-202 114.5,-202 42.5,-202"/>
<polygon fill="none" stroke="#666666" points="19,-185 19,-279 114,-279 114,-185 19,-185"/>
</a>
</g>
</g>
<!-- Node3&#45;&gt;Node2 -->
<g id="edge2_Node000002_Node000003" class="edge">
<title>Node3&#45;&gt;Node2</title>
<g id="a_edge2_Node000002_Node000003"><a xlink:title=" ">
<path fill="none" stroke="#63b8ff" d="M66.5,-174.59C66.5,-165.62 66.5,-156.79 66.5,-149.15"/>
<polygon fill="none" stroke="#63b8ff" points="63,-174.73 66.5,-184.73 70,-174.73 63,-174.73"/>
</a>
</g>
</g>
<!-- Node4 -->
<g id="Node000004" class="node">
<title>Node4</title>
<g id="a_Node000004"><a xlink:href="classBPMN_1_1ChildNode.html" target="_top" xlink:title="Base class for BPMN elements within a Scope.">
<polygon fill="white" stroke="transparent" points="114.5,-394 18.5,-394 18.5,-315 114.5,-315 114.5,-394"/>
<text text-anchor="start" x="23.5" y="-381.5" font-family="Helvetica,sans-Serif" font-size="10.00">BPMN::ChildNode</text>
<text text-anchor="start" x="26.5" y="-366.5" font-family="Helvetica,sans-Serif" font-size="10.00">+</text>
<text text-anchor="start" x="43.5" y="-366.5" font-family="Helvetica,sans-Serif" font-size="10.00">parent</text>
<text text-anchor="start" x="26.5" y="-351.5" font-family="Helvetica,sans-Serif" font-size="10.00">+</text>
<text text-anchor="start" x="43.5" y="-351.5" font-family="Helvetica,sans-Serif" font-size="10.00">ChildNode()</text>
<text text-anchor="start" x="26.5" y="-336.5" font-family="Helvetica,sans-Serif" font-size="10.00">+</text>
<text text-anchor="start" x="43.5" y="-336.5" font-family="Helvetica,sans-Serif" font-size="10.00">ancestor()</text>
<text text-anchor="start" x="26.5" y="-321.5" font-family="Helvetica,sans-Serif" font-size="10.00">+</text>
<text text-anchor="start" x="43.5" y="-321.5" font-family="Helvetica,sans-Serif" font-size="10.00">ancestor()</text>
<polygon fill="#666666" stroke="#666666" points="18.5,-376.5 18.5,-376.5 114.5,-376.5 114.5,-376.5 18.5,-376.5"/>
<polygon fill="#666666" stroke="#666666" points="18.5,-361.5 18.5,-361.5 41.5,-361.5 41.5,-361.5 18.5,-361.5"/>
<polygon fill="#666666" stroke="#666666" points="41.5,-361.5 41.5,-361.5 114.5,-361.5 114.5,-361.5 41.5,-361.5"/>
<polygon fill="none" stroke="#666666" points="18.5,-315 18.5,-394 114.5,-394 114.5,-315 18.5,-315"/>
</a>
</g>
</g>
<!-- Node4&#45;&gt;Node3 -->
<g id="edge3_Node000003_Node000004" class="edge">
<title>Node4&#45;&gt;Node3</title>
<g id="a_edge3_Node000003_Node000004"><a xlink:title=" ">
<path fill="none" stroke="#63b8ff" d="M66.5,-304.68C66.5,-296.3 66.5,-287.61 66.5,-279.29"/>
<polygon fill="none" stroke="#63b8ff" points="63,-304.71 66.5,-314.71 70,-304.71 63,-304.71"/>
</a>
</g>
</g>
<!-- Node5 -->
<g id="Node000005" class="node">
<title>Node5</title>
<g id="a_Node000005"><a xlink:href="classBPMN_1_1Node.html" target="_top" xlink:title="Base class for all nodes in a BPMN model.">
<polygon fill="white" stroke="transparent" points="102,-554 31,-554 31,-430 102,-430 102,-554"/>
<text text-anchor="start" x="36.5" y="-542" font-family="Helvetica,sans-Serif" font-size="10.00">BPMN::Node</text>
<text text-anchor="start" x="36.5" y="-527" font-family="Helvetica,sans-Serif" font-size="10.00">+</text>
<text text-anchor="start" x="50.5" y="-527" font-family="Helvetica,sans-Serif" font-size="10.00">receiving</text>
<text text-anchor="start" x="36.5" y="-512" font-family="Helvetica,sans-Serif" font-size="10.00">+</text>
<text text-anchor="start" x="50.5" y="-512" font-family="Helvetica,sans-Serif" font-size="10.00">sending</text>
<text text-anchor="start" x="36.5" y="-497" font-family="Helvetica,sans-Serif" font-size="10.00">+</text>
<text text-anchor="start" x="50.5" y="-497" font-family="Helvetica,sans-Serif" font-size="10.00">Node()</text>
<text text-anchor="start" x="36.5" y="-482" font-family="Helvetica,sans-Serif" font-size="10.00">+</text>
<text text-anchor="start" x="50.5" y="-482" font-family="Helvetica,sans-Serif" font-size="10.00">find()</text>
<text text-anchor="start" x="36.5" y="-467" font-family="Helvetica,sans-Serif" font-size="10.00">+</text>
<text text-anchor="start" x="50.5" y="-467" font-family="Helvetica,sans-Serif" font-size="10.00">find()</text>
<text text-anchor="start" x="36.5" y="-452" font-family="Helvetica,sans-Serif" font-size="10.00">+</text>
<text text-anchor="start" x="50.5" y="-452" font-family="Helvetica,sans-Serif" font-size="10.00">find_all()</text>
<text text-anchor="start" x="36.5" y="-437" font-family="Helvetica,sans-Serif" font-size="10.00">+</text>
<text text-anchor="start" x="50.5" y="-437" font-family="Helvetica,sans-Serif" font-size="10.00">find_all()</text>
<polygon fill="#666666" stroke="#666666" points="31.5,-537 31.5,-537 102.5,-537 102.5,-537 31.5,-537"/>
<polygon fill="#666666" stroke="#666666" points="31.5,-507 31.5,-507 48.5,-507 48.5,-507 31.5,-507"/>
<polygon fill="#666666" stroke="#666666" points="48.5,-507 48.5,-507 102.5,-507 102.5,-507 48.5,-507"/>
<polygon fill="none" stroke="#666666" points="31,-430 31,-554 102,-554 102,-430 31,-430"/>
</a>
</g>
</g>
<!-- Node5&#45;&gt;Node4 -->
<g id="edge4_Node000004_Node000005" class="edge">
<title>Node5&#45;&gt;Node4</title>
<g id="a_edge4_Node000004_Node000005"><a xlink:title=" ">
<path fill="none" stroke="#63b8ff" d="M66.5,-419.93C66.5,-411.02 66.5,-402.19 66.5,-394.05"/>
<polygon fill="none" stroke="#63b8ff" points="63,-419.99 66.5,-429.99 70,-419.99 63,-419.99"/>
</a>
</g>
</g>
<!-- Node6 -->
<g id="Node000006" class="node">
<title>Node6</title>
<g id="a_Node000006"><a xlink:href="classBPMN_1_1BaseElement.html" target="_top" xlink:title="Base class for all core BPMN elements.">
<polygon fill="white" stroke="transparent" points="124,-729 9,-729 9,-590 124,-590 124,-729"/>
<text text-anchor="start" x="17" y="-716.5" font-family="Helvetica,sans-Serif" font-size="10.00">BPMN::BaseElement</text>
<text text-anchor="start" x="13.5" y="-701.5" font-family="Helvetica,sans-Serif" font-size="10.00">+</text>
<text text-anchor="start" x="26.5" y="-701.5" font-family="Helvetica,sans-Serif" font-size="10.00">element</text>
<text text-anchor="start" x="13.5" y="-686.5" font-family="Helvetica,sans-Serif" font-size="10.00">+</text>
<text text-anchor="start" x="26.5" y="-686.5" font-family="Helvetica,sans-Serif" font-size="10.00">id</text>
<text text-anchor="start" x="13.5" y="-671.5" font-family="Helvetica,sans-Serif" font-size="10.00">+</text>
<text text-anchor="start" x="26.5" y="-671.5" font-family="Helvetica,sans-Serif" font-size="10.00">extensionElements</text>
<text text-anchor="start" x="13.5" y="-656.5" font-family="Helvetica,sans-Serif" font-size="10.00">+</text>
<text text-anchor="start" x="26.5" y="-656.5" font-family="Helvetica,sans-Serif" font-size="10.00">BaseElement()</text>
<text text-anchor="start" x="13.5" y="-641.5" font-family="Helvetica,sans-Serif" font-size="10.00">+</text>
<text text-anchor="start" x="26.5" y="-641.5" font-family="Helvetica,sans-Serif" font-size="10.00">is()</text>
<text text-anchor="start" x="13.5" y="-626.5" font-family="Helvetica,sans-Serif" font-size="10.00">+</text>
<text text-anchor="start" x="26.5" y="-626.5" font-family="Helvetica,sans-Serif" font-size="10.00">is()</text>
<text text-anchor="start" x="13.5" y="-611.5" font-family="Helvetica,sans-Serif" font-size="10.00">+</text>
<text text-anchor="start" x="26.5" y="-611.5" font-family="Helvetica,sans-Serif" font-size="10.00">get()</text>
<text text-anchor="start" x="13.5" y="-596.5" font-family="Helvetica,sans-Serif" font-size="10.00">+</text>
<text text-anchor="start" x="26.5" y="-596.5" font-family="Helvetica,sans-Serif" font-size="10.00">get()</text>
<polygon fill="#666666" stroke="#666666" points="9.5,-711.5 9.5,-711.5 124.5,-711.5 124.5,-711.5 9.5,-711.5"/>
<polygon fill="#666666" stroke="#666666" points="9.5,-666.5 9.5,-666.5 24.5,-666.5 24.5,-666.5 9.5,-666.5"/>
<polygon fill="#666666" stroke="#666666" points="24.5,-666.5 24.5,-666.5 124.5,-666.5 124.5,-666.5 24.5,-666.5"/>
<polygon fill="none" stroke="#666666" points="9,-590 9,-729 124,-729 124,-590 9,-590"/>
</a>
</g>
</g>
<!-- Node6&#45;&gt;Node5 -->
<g id="edge5_Node000005_Node000006" class="edge">
<title>Node6&#45;&gt;Node5</title>
<g id="a_edge5_Node000005_Node000006"><a xlink:title=" ">
<path fill="none" stroke="#63b8ff" d="M66.5,-579.71C66.5,-571.12 66.5,-562.47 66.5,-554.14"/>
<polygon fill="none" stroke="#63b8ff" points="63,-579.75 66.5,-589.75 70,-579.75 63,-579.75"/>
</a>
</g>
</g>
<!-- Node7 -->
<g id="Node000007" class="node">
<title>Node7</title>
<g id="a_Node000007"><a xlink:href="classBPMN_1_1Element.html" target="_top" xlink:title="Abstract base class for all elements in a BPMN model.">
<polygon fill="white" stroke="transparent" points="109.5,-874 23.5,-874 23.5,-765 109.5,-765 109.5,-874"/>
<text text-anchor="start" x="28.5" y="-861.5" font-family="Helvetica,sans-Serif" font-size="10.00">BPMN::Element</text>
<text text-anchor="start" x="64.5" y="-846.5" font-family="Helvetica,sans-Serif" font-size="10.00"> </text>
<text text-anchor="start" x="28.5" y="-831.5" font-family="Helvetica,sans-Serif" font-size="10.00">+</text>
<text text-anchor="start" x="42.5" y="-831.5" font-family="Helvetica,sans-Serif" font-size="10.00">~Element()</text>
<text text-anchor="start" x="28.5" y="-816.5" font-family="Helvetica,sans-Serif" font-size="10.00">+</text>
<text text-anchor="start" x="42.5" y="-816.5" font-family="Helvetica,sans-Serif" font-size="10.00">represents()</text>
<text text-anchor="start" x="28.5" y="-801.5" font-family="Helvetica,sans-Serif" font-size="10.00">+</text>
<text text-anchor="start" x="42.5" y="-801.5" font-family="Helvetica,sans-Serif" font-size="10.00">represents()</text>
<text text-anchor="start" x="28.5" y="-786.5" font-family="Helvetica,sans-Serif" font-size="10.00">+</text>
<text text-anchor="start" x="42.5" y="-786.5" font-family="Helvetica,sans-Serif" font-size="10.00">as()</text>
<text text-anchor="start" x="28.5" y="-771.5" font-family="Helvetica,sans-Serif" font-size="10.00">+</text>
<text text-anchor="start" x="42.5" y="-771.5" font-family="Helvetica,sans-Serif" font-size="10.00">as()</text>
<polygon fill="#666666" stroke="#666666" points="23.5,-856.5 23.5,-856.5 109.5,-856.5 109.5,-856.5 23.5,-856.5"/>
<polygon fill="#666666" stroke="#666666" points="23.5,-841.5 23.5,-841.5 109.5,-841.5 109.5,-841.5 23.5,-841.5"/>
<polygon fill="none" stroke="#666666" points="23.5,-765 23.5,-874 109.5,-874 109.5,-765 23.5,-765"/>
</a>
</g>
</g>
<!-- Node7&#45;&gt;Node6 -->
<g id="edge6_Node000006_Node000007" class="edge">
<title>Node7&#45;&gt;Node6</title>
<g id="a_edge6_Node000006_Node000007"><a xlink:title=" ">
<path fill="none" stroke="#63b8ff" d="M66.5,-754.55C66.5,-746.23 66.5,-737.67 66.5,-729.28"/>
<polygon fill="none" stroke="#63b8ff" points="63,-754.57 66.5,-764.57 70,-754.57 63,-754.57"/>
</a>
</g>
</g>
</g>
</svg>
