<?xml version="1.0" encoding="UTF-8" standalone="no"?>
<!DOCTYPE svg PUBLIC "-//W3C//DTD SVG 1.1//EN"
 "http://www.w3.org/Graphics/SVG/1.1/DTD/svg11.dtd">
<!-- Generated by graphviz version 2.43.0 (0)
 -->
<!-- Title: BPMN::MessageStartEvent Pages: 1 -->
<svg width="296pt" height="1037pt"
 viewBox="0.00 0.00 296.00 1037.00" xmlns="http://www.w3.org/2000/svg" xmlns:xlink="http://www.w3.org/1999/xlink">
<g id="graph0" class="graph" transform="scale(1 1) rotate(0) translate(4 1033)">
<title>BPMN::MessageStartEvent</title>
<!-- Node1 -->
<g id="Node000001" class="node">
<title>Node1</title>
<g id="a_Node000001"><a xlink:title=" ">
<polygon fill="#999999" stroke="transparent" points="218.5,-49 78.5,-49 78.5,0 218.5,0 218.5,-49"/>
<text text-anchor="start" x="83.5" y="-36.5" font-family="Helvetica,sans-Serif" font-size="10.00">BPMN::MessageStartEvent</text>
<text text-anchor="start" x="86.5" y="-21.5" font-family="Helvetica,sans-Serif" font-size="10.00">+</text>
<text text-anchor="start" x="103.5" y="-21.5" font-family="Helvetica,sans-Serif" font-size="10.00">element</text>
<text text-anchor="start" x="86.5" y="-6.5" font-family="Helvetica,sans-Serif" font-size="10.00">+</text>
<text text-anchor="start" x="103.5" y="-6.5" font-family="Helvetica,sans-Serif" font-size="10.00">MessageStartEvent()</text>
<polygon fill="#666666" stroke="#666666" points="78.5,-31.5 78.5,-31.5 218.5,-31.5 218.5,-31.5 78.5,-31.5"/>
<polygon fill="#666666" stroke="#666666" points="78.5,-16.5 78.5,-16.5 101.5,-16.5 101.5,-16.5 78.5,-16.5"/>
<polygon fill="#666666" stroke="#666666" points="101.5,-16.5 101.5,-16.5 218.5,-16.5 218.5,-16.5 101.5,-16.5"/>
<polygon fill="none" stroke="#666666" points="78.5,0 78.5,-49 218.5,-49 218.5,0 78.5,0"/>
</a>
</g>
</g>
<!-- Node2 -->
<g id="Node000002" class="node">
<title>Node2</title>
<g id="a_Node000002"><a xlink:href="classBPMN_1_1MessageCatchEvent.html" target="_top" xlink:title=" ">
<polygon fill="white" stroke="transparent" points="145,-134 0,-134 0,-85 145,-85 145,-134"/>
<text text-anchor="start" x="5.5" y="-121.5" font-family="Helvetica,sans-Serif" font-size="10.00">BPMN::MessageCatchEvent</text>
<text text-anchor="start" x="71" y="-106.5" font-family="Helvetica,sans-Serif" font-size="10.00"> </text>
<text text-anchor="start" x="8.5" y="-91.5" font-family="Helvetica,sans-Serif" font-size="10.00">+</text>
<text text-anchor="start" x="25.5" y="-91.5" font-family="Helvetica,sans-Serif" font-size="10.00">MessageCatchEvent()</text>
<polygon fill="#666666" stroke="#666666" points="0.5,-116.5 0.5,-116.5 145.5,-116.5 145.5,-116.5 0.5,-116.5"/>
<polygon fill="#666666" stroke="#666666" points="0.5,-101.5 0.5,-101.5 145.5,-101.5 145.5,-101.5 0.5,-101.5"/>
<polygon fill="none" stroke="#666666" points="0,-85 0,-134 145,-134 145,-85 0,-85"/>
</a>
</g>
</g>
<!-- Node2&#45;&gt;Node1 -->
<g id="edge1_Node000001_Node000002" class="edge">
<title>Node2&#45;&gt;Node1</title>
<g id="a_edge1_Node000001_Node000002"><a xlink:title=" ">
<path fill="none" stroke="#63b8ff" d="M101.06,-77.31C109.61,-67.97 118.84,-57.89 126.87,-49.12"/>
<polygon fill="none" stroke="#63b8ff" points="98.25,-75.2 94.08,-84.94 103.41,-79.93 98.25,-75.2"/>
</a>
</g>
</g>
<!-- Node3 -->
<g id="Node000003" class="node">
<title>Node3</title>
<g id="a_Node000003"><a xlink:href="classBPMN_1_1CatchEvent.html" target="_top" xlink:title=" ">
<polygon fill="white" stroke="transparent" points="199,-219 98,-219 98,-170 199,-170 199,-219"/>
<text text-anchor="start" x="103.5" y="-206.5" font-family="Helvetica,sans-Serif" font-size="10.00">BPMN::CatchEvent</text>
<text text-anchor="start" x="106.5" y="-191.5" font-family="Helvetica,sans-Serif" font-size="10.00">+</text>
<text text-anchor="start" x="123.5" y="-191.5" font-family="Helvetica,sans-Serif" font-size="10.00">element</text>
<text text-anchor="start" x="106.5" y="-176.5" font-family="Helvetica,sans-Serif" font-size="10.00">+</text>
<text text-anchor="start" x="123.5" y="-176.5" font-family="Helvetica,sans-Serif" font-size="10.00">CatchEvent()</text>
<polygon fill="#666666" stroke="#666666" points="98.5,-201.5 98.5,-201.5 199.5,-201.5 199.5,-201.5 98.5,-201.5"/>
<polygon fill="#666666" stroke="#666666" points="98.5,-186.5 98.5,-186.5 121.5,-186.5 121.5,-186.5 98.5,-186.5"/>
<polygon fill="#666666" stroke="#666666" points="121.5,-186.5 121.5,-186.5 199.5,-186.5 199.5,-186.5 121.5,-186.5"/>
<polygon fill="none" stroke="#666666" points="98,-170 98,-219 199,-219 199,-170 98,-170"/>
</a>
</g>
</g>
<!-- Node3&#45;&gt;Node2 -->
<g id="edge2_Node000002_Node000003" class="edge">
<title>Node3&#45;&gt;Node2</title>
<g id="a_edge2_Node000002_Node000003"><a xlink:title=" ">
<path fill="none" stroke="#63b8ff" d="M119.94,-162.31C111.39,-152.97 102.16,-142.89 94.13,-134.12"/>
<polygon fill="none" stroke="#63b8ff" points="117.59,-164.93 126.92,-169.94 122.75,-160.2 117.59,-164.93"/>
</a>
</g>
</g>
<!-- Node10 -->
<g id="Node000010" class="node">
<title>Node10</title>
<g id="a_Node000010"><a xlink:href="classBPMN_1_1TypedStartEvent.html" target="_top" xlink:title="Base class for all start events with an event definition.">
<polygon fill="white" stroke="transparent" points="288,-134 163,-134 163,-85 288,-85 288,-134"/>
<text text-anchor="start" x="168.5" y="-121.5" font-family="Helvetica,sans-Serif" font-size="10.00">BPMN::TypedStartEvent</text>
<text text-anchor="start" x="171.5" y="-106.5" font-family="Helvetica,sans-Serif" font-size="10.00">+</text>
<text text-anchor="start" x="188.5" y="-106.5" font-family="Helvetica,sans-Serif" font-size="10.00">isInterrupting</text>
<text text-anchor="start" x="171.5" y="-91.5" font-family="Helvetica,sans-Serif" font-size="10.00">+</text>
<text text-anchor="start" x="188.5" y="-91.5" font-family="Helvetica,sans-Serif" font-size="10.00">TypedStartEvent()</text>
<polygon fill="#666666" stroke="#666666" points="163.5,-116.5 163.5,-116.5 288.5,-116.5 288.5,-116.5 163.5,-116.5"/>
<polygon fill="#666666" stroke="#666666" points="163.5,-101.5 163.5,-101.5 186.5,-101.5 186.5,-101.5 163.5,-101.5"/>
<polygon fill="#666666" stroke="#666666" points="186.5,-101.5 186.5,-101.5 288.5,-101.5 288.5,-101.5 186.5,-101.5"/>
<polygon fill="none" stroke="#666666" points="163,-85 163,-134 288,-134 288,-85 163,-85"/>
</a>
</g>
</g>
<!-- Node3&#45;&gt;Node10 -->
<g id="edge10_Node000010_Node000003" class="edge">
<title>Node3&#45;&gt;Node10</title>
<g id="a_edge10_Node000010_Node000003"><a xlink:title=" ">
<path fill="none" stroke="#63b8ff" d="M177.17,-162.59C185.91,-153.17 195.37,-142.98 203.59,-134.12"/>
<polygon fill="none" stroke="#63b8ff" points="174.59,-160.23 170.36,-169.94 179.73,-164.99 174.59,-160.23"/>
</a>
</g>
</g>
<!-- Node4 -->
<g id="Node000004" class="node">
<title>Node4</title>
<g id="a_Node000004"><a xlink:href="classBPMN_1_1Event.html" target="_top" xlink:title=" ">
<polygon fill="white" stroke="transparent" points="185.5,-304 111.5,-304 111.5,-255 185.5,-255 185.5,-304"/>
<text text-anchor="start" x="116.5" y="-291.5" font-family="Helvetica,sans-Serif" font-size="10.00">BPMN::Event</text>
<text text-anchor="start" x="118.5" y="-276.5" font-family="Helvetica,sans-Serif" font-size="10.00">+</text>
<text text-anchor="start" x="134.5" y="-276.5" font-family="Helvetica,sans-Serif" font-size="10.00">element</text>
<text text-anchor="start" x="118.5" y="-261.5" font-family="Helvetica,sans-Serif" font-size="10.00">+</text>
<text text-anchor="start" x="134.5" y="-261.5" font-family="Helvetica,sans-Serif" font-size="10.00">Event()</text>
<polygon fill="#666666" stroke="#666666" points="111.5,-286.5 111.5,-286.5 185.5,-286.5 185.5,-286.5 111.5,-286.5"/>
<polygon fill="#666666" stroke="#666666" points="111.5,-271.5 111.5,-271.5 132.5,-271.5 132.5,-271.5 111.5,-271.5"/>
<polygon fill="#666666" stroke="#666666" points="132.5,-271.5 132.5,-271.5 185.5,-271.5 185.5,-271.5 132.5,-271.5"/>
<polygon fill="none" stroke="#666666" points="111.5,-255 111.5,-304 185.5,-304 185.5,-255 111.5,-255"/>
</a>
</g>
</g>
<!-- Node4&#45;&gt;Node3 -->
<g id="edge3_Node000003_Node000004" class="edge">
<title>Node4&#45;&gt;Node3</title>
<g id="a_edge3_Node000003_Node000004"><a xlink:title=" ">
<path fill="none" stroke="#63b8ff" d="M148.5,-244.77C148.5,-236.17 148.5,-227.1 148.5,-219.12"/>
<polygon fill="none" stroke="#63b8ff" points="145,-244.94 148.5,-254.94 152,-244.94 145,-244.94"/>
</a>
</g>
</g>
<!-- Node5 -->
<g id="Node000005" class="node">
<title>Node5</title>
<g id="a_Node000005"><a xlink:href="classBPMN_1_1FlowNode.html" target="_top" xlink:title="Base class for BPMN elements that may contain incoming and outgoing sequence flows.">
<polygon fill="white" stroke="transparent" points="196,-434 101,-434 101,-340 196,-340 196,-434"/>
<text text-anchor="start" x="106.5" y="-422" font-family="Helvetica,sans-Serif" font-size="10.00">BPMN::FlowNode</text>
<text text-anchor="start" x="109.5" y="-407" font-family="Helvetica,sans-Serif" font-size="10.00">+</text>
<text text-anchor="start" x="126.5" y="-407" font-family="Helvetica,sans-Serif" font-size="10.00">element</text>
<text text-anchor="start" x="109.5" y="-392" font-family="Helvetica,sans-Serif" font-size="10.00">+</text>
<text text-anchor="start" x="126.5" y="-392" font-family="Helvetica,sans-Serif" font-size="10.00">name</text>
<text text-anchor="start" x="109.5" y="-377" font-family="Helvetica,sans-Serif" font-size="10.00">+</text>
<text text-anchor="start" x="126.5" y="-377" font-family="Helvetica,sans-Serif" font-size="10.00">incoming</text>
<text text-anchor="start" x="109.5" y="-362" font-family="Helvetica,sans-Serif" font-size="10.00">+</text>
<text text-anchor="start" x="126.5" y="-362" font-family="Helvetica,sans-Serif" font-size="10.00">outgoing</text>
<text text-anchor="start" x="109.5" y="-347" font-family="Helvetica,sans-Serif" font-size="10.00">+</text>
<text text-anchor="start" x="126.5" y="-347" font-family="Helvetica,sans-Serif" font-size="10.00">FlowNode()</text>
<polygon fill="#666666" stroke="#666666" points="101.5,-417 101.5,-417 196.5,-417 196.5,-417 101.5,-417"/>
<polygon fill="#666666" stroke="#666666" points="101.5,-357 101.5,-357 124.5,-357 124.5,-357 101.5,-357"/>
<polygon fill="#666666" stroke="#666666" points="124.5,-357 124.5,-357 196.5,-357 196.5,-357 124.5,-357"/>
<polygon fill="none" stroke="#666666" points="101,-340 101,-434 196,-434 196,-340 101,-340"/>
</a>
</g>
</g>
<!-- Node5&#45;&gt;Node4 -->
<g id="edge4_Node000004_Node000005" class="edge">
<title>Node5&#45;&gt;Node4</title>
<g id="a_edge4_Node000004_Node000005"><a xlink:title=" ">
<path fill="none" stroke="#63b8ff" d="M148.5,-329.59C148.5,-320.62 148.5,-311.79 148.5,-304.15"/>
<polygon fill="none" stroke="#63b8ff" points="145,-329.73 148.5,-339.73 152,-329.73 145,-329.73"/>
</a>
</g>
</g>
<!-- Node6 -->
<g id="Node000006" class="node">
<title>Node6</title>
<g id="a_Node000006"><a xlink:href="classBPMN_1_1ChildNode.html" target="_top" xlink:title="Base class for BPMN elements within a Scope.">
<polygon fill="white" stroke="transparent" points="196.5,-549 100.5,-549 100.5,-470 196.5,-470 196.5,-549"/>
<text text-anchor="start" x="105.5" y="-536.5" font-family="Helvetica,sans-Serif" font-size="10.00">BPMN::ChildNode</text>
<text text-anchor="start" x="108.5" y="-521.5" font-family="Helvetica,sans-Serif" font-size="10.00">+</text>
<text text-anchor="start" x="125.5" y="-521.5" font-family="Helvetica,sans-Serif" font-size="10.00">parent</text>
<text text-anchor="start" x="108.5" y="-506.5" font-family="Helvetica,sans-Serif" font-size="10.00">+</text>
<text text-anchor="start" x="125.5" y="-506.5" font-family="Helvetica,sans-Serif" font-size="10.00">ChildNode()</text>
<text text-anchor="start" x="108.5" y="-491.5" font-family="Helvetica,sans-Serif" font-size="10.00">+</text>
<text text-anchor="start" x="125.5" y="-491.5" font-family="Helvetica,sans-Serif" font-size="10.00">ancestor()</text>
<text text-anchor="start" x="108.5" y="-476.5" font-family="Helvetica,sans-Serif" font-size="10.00">+</text>
<text text-anchor="start" x="125.5" y="-476.5" font-family="Helvetica,sans-Serif" font-size="10.00">ancestor()</text>
<polygon fill="#666666" stroke="#666666" points="100.5,-531.5 100.5,-531.5 196.5,-531.5 196.5,-531.5 100.5,-531.5"/>
<polygon fill="#666666" stroke="#666666" points="100.5,-516.5 100.5,-516.5 123.5,-516.5 123.5,-516.5 100.5,-516.5"/>
<polygon fill="#666666" stroke="#666666" points="123.5,-516.5 123.5,-516.5 196.5,-516.5 196.5,-516.5 123.5,-516.5"/>
<polygon fill="none" stroke="#666666" points="100.5,-470 100.5,-549 196.5,-549 196.5,-470 100.5,-470"/>
</a>
</g>
</g>
<!-- Node6&#45;&gt;Node5 -->
<g id="edge5_Node000005_Node000006" class="edge">
<title>Node6&#45;&gt;Node5</title>
<g id="a_edge5_Node000005_Node000006"><a xlink:title=" ">
<path fill="none" stroke="#63b8ff" d="M148.5,-459.68C148.5,-451.3 148.5,-442.61 148.5,-434.29"/>
<polygon fill="none" stroke="#63b8ff" points="145,-459.71 148.5,-469.71 152,-459.71 145,-459.71"/>
</a>
</g>
</g>
<!-- Node7 -->
<g id="Node000007" class="node">
<title>Node7</title>
<g id="a_Node000007"><a xlink:href="classBPMN_1_1Node.html" target="_top" xlink:title="Base class for all nodes in a BPMN model.">
<polygon fill="white" stroke="transparent" points="184,-709 113,-709 113,-585 184,-585 184,-709"/>
<text text-anchor="start" x="118.5" y="-697" font-family="Helvetica,sans-Serif" font-size="10.00">BPMN::Node</text>
<text text-anchor="start" x="118.5" y="-682" font-family="Helvetica,sans-Serif" font-size="10.00">+</text>
<text text-anchor="start" x="132.5" y="-682" font-family="Helvetica,sans-Serif" font-size="10.00">receiving</text>
<text text-anchor="start" x="118.5" y="-667" font-family="Helvetica,sans-Serif" font-size="10.00">+</text>
<text text-anchor="start" x="132.5" y="-667" font-family="Helvetica,sans-Serif" font-size="10.00">sending</text>
<text text-anchor="start" x="118.5" y="-652" font-family="Helvetica,sans-Serif" font-size="10.00">+</text>
<text text-anchor="start" x="132.5" y="-652" font-family="Helvetica,sans-Serif" font-size="10.00">Node()</text>
<text text-anchor="start" x="118.5" y="-637" font-family="Helvetica,sans-Serif" font-size="10.00">+</text>
<text text-anchor="start" x="132.5" y="-637" font-family="Helvetica,sans-Serif" font-size="10.00">find()</text>
<text text-anchor="start" x="118.5" y="-622" font-family="Helvetica,sans-Serif" font-size="10.00">+</text>
<text text-anchor="start" x="132.5" y="-622" font-family="Helvetica,sans-Serif" font-size="10.00">find()</text>
<text text-anchor="start" x="118.5" y="-607" font-family="Helvetica,sans-Serif" font-size="10.00">+</text>
<text text-anchor="start" x="132.5" y="-607" font-family="Helvetica,sans-Serif" font-size="10.00">find_all()</text>
<text text-anchor="start" x="118.5" y="-592" font-family="Helvetica,sans-Serif" font-size="10.00">+</text>
<text text-anchor="start" x="132.5" y="-592" font-family="Helvetica,sans-Serif" font-size="10.00">find_all()</text>
<polygon fill="#666666" stroke="#666666" points="113.5,-692 113.5,-692 184.5,-692 184.5,-692 113.5,-692"/>
<polygon fill="#666666" stroke="#666666" points="113.5,-662 113.5,-662 130.5,-662 130.5,-662 113.5,-662"/>
<polygon fill="#666666" stroke="#666666" points="130.5,-662 130.5,-662 184.5,-662 184.5,-662 130.5,-662"/>
<polygon fill="none" stroke="#666666" points="113,-585 113,-709 184,-709 184,-585 113,-585"/>
</a>
</g>
</g>
<!-- Node7&#45;&gt;Node6 -->
<g id="edge6_Node000006_Node000007" class="edge">
<title>Node7&#45;&gt;Node6</title>
<g id="a_edge6_Node000006_Node000007"><a xlink:title=" ">
<path fill="none" stroke="#63b8ff" d="M148.5,-574.93C148.5,-566.02 148.5,-557.19 148.5,-549.05"/>
<polygon fill="none" stroke="#63b8ff" points="145,-574.99 148.5,-584.99 152,-574.99 145,-574.99"/>
</a>
</g>
</g>
<!-- Node8 -->
<g id="Node000008" class="node">
<title>Node8</title>
<g id="a_Node000008"><a xlink:href="classBPMN_1_1BaseElement.html" target="_top" xlink:title="Base class for all core BPMN elements.">
<polygon fill="white" stroke="transparent" points="206,-884 91,-884 91,-745 206,-745 206,-884"/>
<text text-anchor="start" x="99" y="-871.5" font-family="Helvetica,sans-Serif" font-size="10.00">BPMN::BaseElement</text>
<text text-anchor="start" x="95.5" y="-856.5" font-family="Helvetica,sans-Serif" font-size="10.00">+</text>
<text text-anchor="start" x="108.5" y="-856.5" font-family="Helvetica,sans-Serif" font-size="10.00">element</text>
<text text-anchor="start" x="95.5" y="-841.5" font-family="Helvetica,sans-Serif" font-size="10.00">+</text>
<text text-anchor="start" x="108.5" y="-841.5" font-family="Helvetica,sans-Serif" font-size="10.00">id</text>
<text text-anchor="start" x="95.5" y="-826.5" font-family="Helvetica,sans-Serif" font-size="10.00">+</text>
<text text-anchor="start" x="108.5" y="-826.5" font-family="Helvetica,sans-Serif" font-size="10.00">extensionElements</text>
<text text-anchor="start" x="95.5" y="-811.5" font-family="Helvetica,sans-Serif" font-size="10.00">+</text>
<text text-anchor="start" x="108.5" y="-811.5" font-family="Helvetica,sans-Serif" font-size="10.00">BaseElement()</text>
<text text-anchor="start" x="95.5" y="-796.5" font-family="Helvetica,sans-Serif" font-size="10.00">+</text>
<text text-anchor="start" x="108.5" y="-796.5" font-family="Helvetica,sans-Serif" font-size="10.00">is()</text>
<text text-anchor="start" x="95.5" y="-781.5" font-family="Helvetica,sans-Serif" font-size="10.00">+</text>
<text text-anchor="start" x="108.5" y="-781.5" font-family="Helvetica,sans-Serif" font-size="10.00">is()</text>
<text text-anchor="start" x="95.5" y="-766.5" font-family="Helvetica,sans-Serif" font-size="10.00">+</text>
<text text-anchor="start" x="108.5" y="-766.5" font-family="Helvetica,sans-Serif" font-size="10.00">get()</text>
<text text-anchor="start" x="95.5" y="-751.5" font-family="Helvetica,sans-Serif" font-size="10.00">+</text>
<text text-anchor="start" x="108.5" y="-751.5" font-family="Helvetica,sans-Serif" font-size="10.00">get()</text>
<polygon fill="#666666" stroke="#666666" points="91.5,-866.5 91.5,-866.5 206.5,-866.5 206.5,-866.5 91.5,-866.5"/>
<polygon fill="#666666" stroke="#666666" points="91.5,-821.5 91.5,-821.5 106.5,-821.5 106.5,-821.5 91.5,-821.5"/>
<polygon fill="#666666" stroke="#666666" points="106.5,-821.5 106.5,-821.5 206.5,-821.5 206.5,-821.5 106.5,-821.5"/>
<polygon fill="none" stroke="#666666" points="91,-745 91,-884 206,-884 206,-745 91,-745"/>
</a>
</g>
</g>
<!-- Node8&#45;&gt;Node7 -->
<g id="edge7_Node000007_Node000008" class="edge">
<title>Node8&#45;&gt;Node7</title>
<g id="a_edge7_Node000007_Node000008"><a xlink:title=" ">
<path fill="none" stroke="#63b8ff" d="M148.5,-734.71C148.5,-726.12 148.5,-717.47 148.5,-709.14"/>
<polygon fill="none" stroke="#63b8ff" points="145,-734.75 148.5,-744.75 152,-734.75 145,-734.75"/>
</a>
</g>
</g>
<!-- Node9 -->
<g id="Node000009" class="node">
<title>Node9</title>
<g id="a_Node000009"><a xlink:href="classBPMN_1_1Element.html" target="_top" xlink:title="Abstract base class for all elements in a BPMN model.">
<polygon fill="white" stroke="transparent" points="191.5,-1029 105.5,-1029 105.5,-920 191.5,-920 191.5,-1029"/>
<text text-anchor="start" x="110.5" y="-1016.5" font-family="Helvetica,sans-Serif" font-size="10.00">BPMN::Element</text>
<text text-anchor="start" x="146.5" y="-1001.5" font-family="Helvetica,sans-Serif" font-size="10.00"> </text>
<text text-anchor="start" x="110.5" y="-986.5" font-family="Helvetica,sans-Serif" font-size="10.00">+</text>
<text text-anchor="start" x="124.5" y="-986.5" font-family="Helvetica,sans-Serif" font-size="10.00">~Element()</text>
<text text-anchor="start" x="110.5" y="-971.5" font-family="Helvetica,sans-Serif" font-size="10.00">+</text>
<text text-anchor="start" x="124.5" y="-971.5" font-family="Helvetica,sans-Serif" font-size="10.00">represents()</text>
<text text-anchor="start" x="110.5" y="-956.5" font-family="Helvetica,sans-Serif" font-size="10.00">+</text>
<text text-anchor="start" x="124.5" y="-956.5" font-family="Helvetica,sans-Serif" font-size="10.00">represents()</text>
<text text-anchor="start" x="110.5" y="-941.5" font-family="Helvetica,sans-Serif" font-size="10.00">+</text>
<text text-anchor="start" x="124.5" y="-941.5" font-family="Helvetica,sans-Serif" font-size="10.00">as()</text>
<text text-anchor="start" x="110.5" y="-926.5" font-family="Helvetica,sans-Serif" font-size="10.00">+</text>
<text text-anchor="start" x="124.5" y="-926.5" font-family="Helvetica,sans-Serif" font-size="10.00">as()</text>
<polygon fill="#666666" stroke="#666666" points="105.5,-1011.5 105.5,-1011.5 191.5,-1011.5 191.5,-1011.5 105.5,-1011.5"/>
<polygon fill="#666666" stroke="#666666" points="105.5,-996.5 105.5,-996.5 191.5,-996.5 191.5,-996.5 105.5,-996.5"/>
<polygon fill="none" stroke="#666666" points="105.5,-920 105.5,-1029 191.5,-1029 191.5,-920 105.5,-920"/>
</a>
</g>
</g>
<!-- Node9&#45;&gt;Node8 -->
<g id="edge8_Node000008_Node000009" class="edge">
<title>Node9&#45;&gt;Node8</title>
<g id="a_edge8_Node000008_Node000009"><a xlink:title=" ">
<path fill="none" stroke="#63b8ff" d="M148.5,-909.55C148.5,-901.23 148.5,-892.67 148.5,-884.28"/>
<polygon fill="none" stroke="#63b8ff" points="145,-909.57 148.5,-919.57 152,-909.57 145,-909.57"/>
</a>
</g>
</g>
<!-- Node10&#45;&gt;Node1 -->
<g id="edge9_Node000001_Node000010" class="edge">
<title>Node10&#45;&gt;Node1</title>
<g id="a_edge9_Node000001_Node000010"><a xlink:title=" ">
<path fill="none" stroke="#63b8ff" d="M196.83,-77.59C188.09,-68.17 178.63,-57.98 170.41,-49.12"/>
<polygon fill="none" stroke="#63b8ff" points="194.27,-79.99 203.64,-84.94 199.41,-75.23 194.27,-79.99"/>
</a>
</g>
</g>
</g>
</svg>
