<?xml version="1.0" encoding="UTF-8" standalone="no"?>
<!DOCTYPE svg PUBLIC "-//W3C//DTD SVG 1.1//EN"
 "http://www.w3.org/Graphics/SVG/1.1/DTD/svg11.dtd">
<!-- Generated by graphviz version 2.43.0 (0)
 -->
<!-- Title: BPMN::UntypedStartEvent Pages: 1 -->
<svg width="146pt" height="952pt"
 viewBox="0.00 0.00 146.00 952.00" xmlns="http://www.w3.org/2000/svg" xmlns:xlink="http://www.w3.org/1999/xlink">
<g id="graph0" class="graph" transform="scale(1 1) rotate(0) translate(4 948)">
<title>BPMN::UntypedStartEvent</title>
<!-- Node1 -->
<g id="Node000001" class="node">
<title>Node1</title>
<g id="a_Node000001"><a xlink:title=" ">
<polygon fill="#999999" stroke="transparent" points="138,-49 0,-49 0,0 138,0 138,-49"/>
<text text-anchor="start" x="5" y="-36.5" font-family="Helvetica,sans-Serif" font-size="10.00">BPMN::UntypedStartEvent</text>
<text text-anchor="start" x="67" y="-21.5" font-family="Helvetica,sans-Serif" font-size="10.00"> </text>
<text text-anchor="start" x="8" y="-6.5" font-family="Helvetica,sans-Serif" font-size="10.00">+</text>
<text text-anchor="start" x="25" y="-6.5" font-family="Helvetica,sans-Serif" font-size="10.00">UntypedStartEvent()</text>
<polygon fill="#666666" stroke="#666666" points="0,-31.5 0,-31.5 138,-31.5 138,-31.5 0,-31.5"/>
<polygon fill="#666666" stroke="#666666" points="0,-16.5 0,-16.5 138,-16.5 138,-16.5 0,-16.5"/>
<polygon fill="none" stroke="#666666" points="0,0 0,-49 138,-49 138,0 0,0"/>
</a>
</g>
</g>
<!-- Node2 -->
<g id="Node000002" class="node">
<title>Node2</title>
<g id="a_Node000002"><a xlink:href="classBPMN_1_1CatchEvent.html" target="_top" xlink:title=" ">
<polygon fill="white" stroke="transparent" points="119.5,-134 18.5,-134 18.5,-85 119.5,-85 119.5,-134"/>
<text text-anchor="start" x="24" y="-121.5" font-family="Helvetica,sans-Serif" font-size="10.00">BPMN::CatchEvent</text>
<text text-anchor="start" x="27" y="-106.5" font-family="Helvetica,sans-Serif" font-size="10.00">+</text>
<text text-anchor="start" x="44" y="-106.5" font-family="Helvetica,sans-Serif" font-size="10.00">element</text>
<text text-anchor="start" x="27" y="-91.5" font-family="Helvetica,sans-Serif" font-size="10.00">+</text>
<text text-anchor="start" x="44" y="-91.5" font-family="Helvetica,sans-Serif" font-size="10.00">CatchEvent()</text>
<polygon fill="#666666" stroke="#666666" points="19,-116.5 19,-116.5 120,-116.5 120,-116.5 19,-116.5"/>
<polygon fill="#666666" stroke="#666666" points="19,-101.5 19,-101.5 42,-101.5 42,-101.5 19,-101.5"/>
<polygon fill="#666666" stroke="#666666" points="42,-101.5 42,-101.5 120,-101.5 120,-101.5 42,-101.5"/>
<polygon fill="none" stroke="#666666" points="18.5,-85 18.5,-134 119.5,-134 119.5,-85 18.5,-85"/>
</a>
</g>
</g>
<!-- Node2&#45;&gt;Node1 -->
<g id="edge1_Node000001_Node000002" class="edge">
<title>Node2&#45;&gt;Node1</title>
<g id="a_edge1_Node000001_Node000002"><a xlink:title=" ">
<path fill="none" stroke="#63b8ff" d="M69,-74.77C69,-66.17 69,-57.1 69,-49.12"/>
<polygon fill="none" stroke="#63b8ff" points="65.5,-74.94 69,-84.94 72.5,-74.94 65.5,-74.94"/>
</a>
</g>
</g>
<!-- Node3 -->
<g id="Node000003" class="node">
<title>Node3</title>
<g id="a_Node000003"><a xlink:href="classBPMN_1_1Event.html" target="_top" xlink:title=" ">
<polygon fill="white" stroke="transparent" points="106,-219 32,-219 32,-170 106,-170 106,-219"/>
<text text-anchor="start" x="37" y="-206.5" font-family="Helvetica,sans-Serif" font-size="10.00">BPMN::Event</text>
<text text-anchor="start" x="39" y="-191.5" font-family="Helvetica,sans-Serif" font-size="10.00">+</text>
<text text-anchor="start" x="55" y="-191.5" font-family="Helvetica,sans-Serif" font-size="10.00">element</text>
<text text-anchor="start" x="39" y="-176.5" font-family="Helvetica,sans-Serif" font-size="10.00">+</text>
<text text-anchor="start" x="55" y="-176.5" font-family="Helvetica,sans-Serif" font-size="10.00">Event()</text>
<polygon fill="#666666" stroke="#666666" points="32,-201.5 32,-201.5 106,-201.5 106,-201.5 32,-201.5"/>
<polygon fill="#666666" stroke="#666666" points="32,-186.5 32,-186.5 53,-186.5 53,-186.5 32,-186.5"/>
<polygon fill="#666666" stroke="#666666" points="53,-186.5 53,-186.5 106,-186.5 106,-186.5 53,-186.5"/>
<polygon fill="none" stroke="#666666" points="32,-170 32,-219 106,-219 106,-170 32,-170"/>
</a>
</g>
</g>
<!-- Node3&#45;&gt;Node2 -->
<g id="edge2_Node000002_Node000003" class="edge">
<title>Node3&#45;&gt;Node2</title>
<g id="a_edge2_Node000002_Node000003"><a xlink:title=" ">
<path fill="none" stroke="#63b8ff" d="M69,-159.77C69,-151.17 69,-142.1 69,-134.12"/>
<polygon fill="none" stroke="#63b8ff" points="65.5,-159.94 69,-169.94 72.5,-159.94 65.5,-159.94"/>
</a>
</g>
</g>
<!-- Node4 -->
<g id="Node000004" class="node">
<title>Node4</title>
<g id="a_Node000004"><a xlink:href="classBPMN_1_1FlowNode.html" target="_top" xlink:title="Base class for BPMN elements that may contain incoming and outgoing sequence flows.">
<polygon fill="white" stroke="transparent" points="116.5,-349 21.5,-349 21.5,-255 116.5,-255 116.5,-349"/>
<text text-anchor="start" x="27" y="-337" font-family="Helvetica,sans-Serif" font-size="10.00">BPMN::FlowNode</text>
<text text-anchor="start" x="30" y="-322" font-family="Helvetica,sans-Serif" font-size="10.00">+</text>
<text text-anchor="start" x="47" y="-322" font-family="Helvetica,sans-Serif" font-size="10.00">element</text>
<text text-anchor="start" x="30" y="-307" font-family="Helvetica,sans-Serif" font-size="10.00">+</text>
<text text-anchor="start" x="47" y="-307" font-family="Helvetica,sans-Serif" font-size="10.00">name</text>
<text text-anchor="start" x="30" y="-292" font-family="Helvetica,sans-Serif" font-size="10.00">+</text>
<text text-anchor="start" x="47" y="-292" font-family="Helvetica,sans-Serif" font-size="10.00">incoming</text>
<text text-anchor="start" x="30" y="-277" font-family="Helvetica,sans-Serif" font-size="10.00">+</text>
<text text-anchor="start" x="47" y="-277" font-family="Helvetica,sans-Serif" font-size="10.00">outgoing</text>
<text text-anchor="start" x="30" y="-262" font-family="Helvetica,sans-Serif" font-size="10.00">+</text>
<text text-anchor="start" x="47" y="-262" font-family="Helvetica,sans-Serif" font-size="10.00">FlowNode()</text>
<polygon fill="#666666" stroke="#666666" points="22,-332 22,-332 117,-332 117,-332 22,-332"/>
<polygon fill="#666666" stroke="#666666" points="22,-272 22,-272 45,-272 45,-272 22,-272"/>
<polygon fill="#666666" stroke="#666666" points="45,-272 45,-272 117,-272 117,-272 45,-272"/>
<polygon fill="none" stroke="#666666" points="21.5,-255 21.5,-349 116.5,-349 116.5,-255 21.5,-255"/>
</a>
</g>
</g>
<!-- Node4&#45;&gt;Node3 -->
<g id="edge3_Node000003_Node000004" class="edge">
<title>Node4&#45;&gt;Node3</title>
<g id="a_edge3_Node000003_Node000004"><a xlink:title=" ">
<path fill="none" stroke="#63b8ff" d="M69,-244.59C69,-235.62 69,-226.79 69,-219.15"/>
<polygon fill="none" stroke="#63b8ff" points="65.5,-244.73 69,-254.73 72.5,-244.73 65.5,-244.73"/>
</a>
</g>
</g>
<!-- Node5 -->
<g id="Node000005" class="node">
<title>Node5</title>
<g id="a_Node000005"><a xlink:href="classBPMN_1_1ChildNode.html" target="_top" xlink:title="Base class for BPMN elements within a Scope.">
<polygon fill="white" stroke="transparent" points="117,-464 21,-464 21,-385 117,-385 117,-464"/>
<text text-anchor="start" x="26" y="-451.5" font-family="Helvetica,sans-Serif" font-size="10.00">BPMN::ChildNode</text>
<text text-anchor="start" x="29" y="-436.5" font-family="Helvetica,sans-Serif" font-size="10.00">+</text>
<text text-anchor="start" x="46" y="-436.5" font-family="Helvetica,sans-Serif" font-size="10.00">parent</text>
<text text-anchor="start" x="29" y="-421.5" font-family="Helvetica,sans-Serif" font-size="10.00">+</text>
<text text-anchor="start" x="46" y="-421.5" font-family="Helvetica,sans-Serif" font-size="10.00">ChildNode()</text>
<text text-anchor="start" x="29" y="-406.5" font-family="Helvetica,sans-Serif" font-size="10.00">+</text>
<text text-anchor="start" x="46" y="-406.5" font-family="Helvetica,sans-Serif" font-size="10.00">ancestor()</text>
<text text-anchor="start" x="29" y="-391.5" font-family="Helvetica,sans-Serif" font-size="10.00">+</text>
<text text-anchor="start" x="46" y="-391.5" font-family="Helvetica,sans-Serif" font-size="10.00">ancestor()</text>
<polygon fill="#666666" stroke="#666666" points="21,-446.5 21,-446.5 117,-446.5 117,-446.5 21,-446.5"/>
<polygon fill="#666666" stroke="#666666" points="21,-431.5 21,-431.5 44,-431.5 44,-431.5 21,-431.5"/>
<polygon fill="#666666" stroke="#666666" points="44,-431.5 44,-431.5 117,-431.5 117,-431.5 44,-431.5"/>
<polygon fill="none" stroke="#666666" points="21,-385 21,-464 117,-464 117,-385 21,-385"/>
</a>
</g>
</g>
<!-- Node5&#45;&gt;Node4 -->
<g id="edge4_Node000004_Node000005" class="edge">
<title>Node5&#45;&gt;Node4</title>
<g id="a_edge4_Node000004_Node000005"><a xlink:title=" ">
<path fill="none" stroke="#63b8ff" d="M69,-374.68C69,-366.3 69,-357.61 69,-349.29"/>
<polygon fill="none" stroke="#63b8ff" points="65.5,-374.71 69,-384.71 72.5,-374.71 65.5,-374.71"/>
</a>
</g>
</g>
<!-- Node6 -->
<g id="Node000006" class="node">
<title>Node6</title>
<g id="a_Node000006"><a xlink:href="classBPMN_1_1Node.html" target="_top" xlink:title="Base class for all nodes in a BPMN model.">
<polygon fill="white" stroke="transparent" points="104.5,-624 33.5,-624 33.5,-500 104.5,-500 104.5,-624"/>
<text text-anchor="start" x="39" y="-612" font-family="Helvetica,sans-Serif" font-size="10.00">BPMN::Node</text>
<text text-anchor="start" x="39" y="-597" font-family="Helvetica,sans-Serif" font-size="10.00">+</text>
<text text-anchor="start" x="53" y="-597" font-family="Helvetica,sans-Serif" font-size="10.00">receiving</text>
<text text-anchor="start" x="39" y="-582" font-family="Helvetica,sans-Serif" font-size="10.00">+</text>
<text text-anchor="start" x="53" y="-582" font-family="Helvetica,sans-Serif" font-size="10.00">sending</text>
<text text-anchor="start" x="39" y="-567" font-family="Helvetica,sans-Serif" font-size="10.00">+</text>
<text text-anchor="start" x="53" y="-567" font-family="Helvetica,sans-Serif" font-size="10.00">Node()</text>
<text text-anchor="start" x="39" y="-552" font-family="Helvetica,sans-Serif" font-size="10.00">+</text>
<text text-anchor="start" x="53" y="-552" font-family="Helvetica,sans-Serif" font-size="10.00">find()</text>
<text text-anchor="start" x="39" y="-537" font-family="Helvetica,sans-Serif" font-size="10.00">+</text>
<text text-anchor="start" x="53" y="-537" font-family="Helvetica,sans-Serif" font-size="10.00">find()</text>
<text text-anchor="start" x="39" y="-522" font-family="Helvetica,sans-Serif" font-size="10.00">+</text>
<text text-anchor="start" x="53" y="-522" font-family="Helvetica,sans-Serif" font-size="10.00">find_all()</text>
<text text-anchor="start" x="39" y="-507" font-family="Helvetica,sans-Serif" font-size="10.00">+</text>
<text text-anchor="start" x="53" y="-507" font-family="Helvetica,sans-Serif" font-size="10.00">find_all()</text>
<polygon fill="#666666" stroke="#666666" points="34,-607 34,-607 105,-607 105,-607 34,-607"/>
<polygon fill="#666666" stroke="#666666" points="34,-577 34,-577 51,-577 51,-577 34,-577"/>
<polygon fill="#666666" stroke="#666666" points="51,-577 51,-577 105,-577 105,-577 51,-577"/>
<polygon fill="none" stroke="#666666" points="33.5,-500 33.5,-624 104.5,-624 104.5,-500 33.5,-500"/>
</a>
</g>
</g>
<!-- Node6&#45;&gt;Node5 -->
<g id="edge5_Node000005_Node000006" class="edge">
<title>Node6&#45;&gt;Node5</title>
<g id="a_edge5_Node000005_Node000006"><a xlink:title=" ">
<path fill="none" stroke="#63b8ff" d="M69,-489.93C69,-481.02 69,-472.19 69,-464.05"/>
<polygon fill="none" stroke="#63b8ff" points="65.5,-489.99 69,-499.99 72.5,-489.99 65.5,-489.99"/>
</a>
</g>
</g>
<!-- Node7 -->
<g id="Node000007" class="node">
<title>Node7</title>
<g id="a_Node000007"><a xlink:href="classBPMN_1_1BaseElement.html" target="_top" xlink:title="Base class for all core BPMN elements.">
<polygon fill="white" stroke="transparent" points="126.5,-799 11.5,-799 11.5,-660 126.5,-660 126.5,-799"/>
<text text-anchor="start" x="19.5" y="-786.5" font-family="Helvetica,sans-Serif" font-size="10.00">BPMN::BaseElement</text>
<text text-anchor="start" x="16" y="-771.5" font-family="Helvetica,sans-Serif" font-size="10.00">+</text>
<text text-anchor="start" x="29" y="-771.5" font-family="Helvetica,sans-Serif" font-size="10.00">element</text>
<text text-anchor="start" x="16" y="-756.5" font-family="Helvetica,sans-Serif" font-size="10.00">+</text>
<text text-anchor="start" x="29" y="-756.5" font-family="Helvetica,sans-Serif" font-size="10.00">id</text>
<text text-anchor="start" x="16" y="-741.5" font-family="Helvetica,sans-Serif" font-size="10.00">+</text>
<text text-anchor="start" x="29" y="-741.5" font-family="Helvetica,sans-Serif" font-size="10.00">extensionElements</text>
<text text-anchor="start" x="16" y="-726.5" font-family="Helvetica,sans-Serif" font-size="10.00">+</text>
<text text-anchor="start" x="29" y="-726.5" font-family="Helvetica,sans-Serif" font-size="10.00">BaseElement()</text>
<text text-anchor="start" x="16" y="-711.5" font-family="Helvetica,sans-Serif" font-size="10.00">+</text>
<text text-anchor="start" x="29" y="-711.5" font-family="Helvetica,sans-Serif" font-size="10.00">is()</text>
<text text-anchor="start" x="16" y="-696.5" font-family="Helvetica,sans-Serif" font-size="10.00">+</text>
<text text-anchor="start" x="29" y="-696.5" font-family="Helvetica,sans-Serif" font-size="10.00">is()</text>
<text text-anchor="start" x="16" y="-681.5" font-family="Helvetica,sans-Serif" font-size="10.00">+</text>
<text text-anchor="start" x="29" y="-681.5" font-family="Helvetica,sans-Serif" font-size="10.00">get()</text>
<text text-anchor="start" x="16" y="-666.5" font-family="Helvetica,sans-Serif" font-size="10.00">+</text>
<text text-anchor="start" x="29" y="-666.5" font-family="Helvetica,sans-Serif" font-size="10.00">get()</text>
<polygon fill="#666666" stroke="#666666" points="12,-781.5 12,-781.5 127,-781.5 127,-781.5 12,-781.5"/>
<polygon fill="#666666" stroke="#666666" points="12,-736.5 12,-736.5 27,-736.5 27,-736.5 12,-736.5"/>
<polygon fill="#666666" stroke="#666666" points="27,-736.5 27,-736.5 127,-736.5 127,-736.5 27,-736.5"/>
<polygon fill="none" stroke="#666666" points="11.5,-660 11.5,-799 126.5,-799 126.5,-660 11.5,-660"/>
</a>
</g>
</g>
<!-- Node7&#45;&gt;Node6 -->
<g id="edge6_Node000006_Node000007" class="edge">
<title>Node7&#45;&gt;Node6</title>
<g id="a_edge6_Node000006_Node000007"><a xlink:title=" ">
<path fill="none" stroke="#63b8ff" d="M69,-649.71C69,-641.12 69,-632.47 69,-624.14"/>
<polygon fill="none" stroke="#63b8ff" points="65.5,-649.75 69,-659.75 72.5,-649.75 65.5,-649.75"/>
</a>
</g>
</g>
<!-- Node8 -->
<g id="Node000008" class="node">
<title>Node8</title>
<g id="a_Node000008"><a xlink:href="classBPMN_1_1Element.html" target="_top" xlink:title="Abstract base class for all elements in a BPMN model.">
<polygon fill="white" stroke="transparent" points="112,-944 26,-944 26,-835 112,-835 112,-944"/>
<text text-anchor="start" x="31" y="-931.5" font-family="Helvetica,sans-Serif" font-size="10.00">BPMN::Element</text>
<text text-anchor="start" x="67" y="-916.5" font-family="Helvetica,sans-Serif" font-size="10.00"> </text>
<text text-anchor="start" x="31" y="-901.5" font-family="Helvetica,sans-Serif" font-size="10.00">+</text>
<text text-anchor="start" x="45" y="-901.5" font-family="Helvetica,sans-Serif" font-size="10.00">~Element()</text>
<text text-anchor="start" x="31" y="-886.5" font-family="Helvetica,sans-Serif" font-size="10.00">+</text>
<text text-anchor="start" x="45" y="-886.5" font-family="Helvetica,sans-Serif" font-size="10.00">represents()</text>
<text text-anchor="start" x="31" y="-871.5" font-family="Helvetica,sans-Serif" font-size="10.00">+</text>
<text text-anchor="start" x="45" y="-871.5" font-family="Helvetica,sans-Serif" font-size="10.00">represents()</text>
<text text-anchor="start" x="31" y="-856.5" font-family="Helvetica,sans-Serif" font-size="10.00">+</text>
<text text-anchor="start" x="45" y="-856.5" font-family="Helvetica,sans-Serif" font-size="10.00">as()</text>
<text text-anchor="start" x="31" y="-841.5" font-family="Helvetica,sans-Serif" font-size="10.00">+</text>
<text text-anchor="start" x="45" y="-841.5" font-family="Helvetica,sans-Serif" font-size="10.00">as()</text>
<polygon fill="#666666" stroke="#666666" points="26,-926.5 26,-926.5 112,-926.5 112,-926.5 26,-926.5"/>
<polygon fill="#666666" stroke="#666666" points="26,-911.5 26,-911.5 112,-911.5 112,-911.5 26,-911.5"/>
<polygon fill="none" stroke="#666666" points="26,-835 26,-944 112,-944 112,-835 26,-835"/>
</a>
</g>
</g>
<!-- Node8&#45;&gt;Node7 -->
<g id="edge7_Node000007_Node000008" class="edge">
<title>Node8&#45;&gt;Node7</title>
<g id="a_edge7_Node000007_Node000008"><a xlink:title=" ">
<path fill="none" stroke="#63b8ff" d="M69,-824.55C69,-816.23 69,-807.67 69,-799.28"/>
<polygon fill="none" stroke="#63b8ff" points="65.5,-824.57 69,-834.57 72.5,-824.57 65.5,-824.57"/>
</a>
</g>
</g>
</g>
</svg>
