<?xml version="1.0" encoding="UTF-8" standalone="no"?>
<!DOCTYPE svg PUBLIC "-//W3C//DTD SVG 1.1//EN"
 "http://www.w3.org/Graphics/SVG/1.1/DTD/svg11.dtd">
<!-- Generated by graphviz version 2.43.0 (0)
 -->
<!-- Title: XML::bpmn::dataAssociation Pages: 1 -->
<svg width="163pt" height="762pt"
 viewBox="0.00 0.00 163.00 762.00" xmlns="http://www.w3.org/2000/svg" xmlns:xlink="http://www.w3.org/1999/xlink">
<g id="graph0" class="graph" transform="scale(1 1) rotate(0) translate(4 758)">
<title>XML::bpmn::dataAssociation</title>
<!-- Node1 -->
<g id="Node000001" class="node">
<title>Node1</title>
<g id="a_Node000001"><a xlink:title=" ">
<polygon fill="#999999" stroke="transparent" points="152,-49 3,-49 3,0 152,0 152,-49"/>
<text text-anchor="start" x="8.5" y="-36.5" font-family="Helvetica,sans-Serif" font-size="10.00">XML::bpmn::dataAssociation</text>
<text text-anchor="start" x="18" y="-21.5" font-family="Helvetica,sans-Serif" font-size="10.00">+</text>
<text text-anchor="start" x="41.5" y="-21.5" font-family="Helvetica,sans-Serif" font-size="10.00">defaults</text>
<text text-anchor="start" x="18" y="-6.5" font-family="Helvetica,sans-Serif" font-size="10.00">#</text>
<text text-anchor="start" x="41.5" y="-6.5" font-family="Helvetica,sans-Serif" font-size="10.00">dataAssociation()</text>
<polygon fill="#666666" stroke="#666666" points="3.5,-31.5 3.5,-31.5 152.5,-31.5 152.5,-31.5 3.5,-31.5"/>
<polygon fill="#666666" stroke="#666666" points="3.5,-16.5 3.5,-16.5 39.5,-16.5 39.5,-16.5 3.5,-16.5"/>
<polygon fill="#666666" stroke="#666666" points="39.5,-16.5 39.5,-16.5 152.5,-16.5 152.5,-16.5 39.5,-16.5"/>
<polygon fill="none" stroke="#666666" points="3,0 3,-49 152,-49 152,0 3,0"/>
</a>
</g>
</g>
<!-- Node2 -->
<g id="Node000002" class="node">
<title>Node2</title>
<g id="a_Node000002"><a xlink:href="classXML_1_1bpmn_1_1tDataAssociation.html" target="_top" xlink:title=" ">
<polygon fill="white" stroke="transparent" points="155,-194 0,-194 0,-85 155,-85 155,-194"/>
<text text-anchor="start" x="5.5" y="-181.5" font-family="Helvetica,sans-Serif" font-size="10.00">XML::bpmn::tDataAssociation</text>
<text text-anchor="start" x="15" y="-166.5" font-family="Helvetica,sans-Serif" font-size="10.00">+</text>
<text text-anchor="start" x="38.5" y="-166.5" font-family="Helvetica,sans-Serif" font-size="10.00">sourceRef</text>
<text text-anchor="start" x="15" y="-151.5" font-family="Helvetica,sans-Serif" font-size="10.00">+</text>
<text text-anchor="start" x="38.5" y="-151.5" font-family="Helvetica,sans-Serif" font-size="10.00">targetRef</text>
<text text-anchor="start" x="15" y="-136.5" font-family="Helvetica,sans-Serif" font-size="10.00">+</text>
<text text-anchor="start" x="38.5" y="-136.5" font-family="Helvetica,sans-Serif" font-size="10.00">transformation</text>
<text text-anchor="start" x="15" y="-121.5" font-family="Helvetica,sans-Serif" font-size="10.00">+</text>
<text text-anchor="start" x="38.5" y="-121.5" font-family="Helvetica,sans-Serif" font-size="10.00">assignment</text>
<text text-anchor="start" x="15" y="-106.5" font-family="Helvetica,sans-Serif" font-size="10.00">+</text>
<text text-anchor="start" x="38.5" y="-106.5" font-family="Helvetica,sans-Serif" font-size="10.00">defaults</text>
<text text-anchor="start" x="15" y="-91.5" font-family="Helvetica,sans-Serif" font-size="10.00">#</text>
<text text-anchor="start" x="38.5" y="-91.5" font-family="Helvetica,sans-Serif" font-size="10.00">tDataAssociation()</text>
<polygon fill="#666666" stroke="#666666" points="0.5,-176.5 0.5,-176.5 155.5,-176.5 155.5,-176.5 0.5,-176.5"/>
<polygon fill="#666666" stroke="#666666" points="0.5,-101.5 0.5,-101.5 36.5,-101.5 36.5,-101.5 0.5,-101.5"/>
<polygon fill="#666666" stroke="#666666" points="36.5,-101.5 36.5,-101.5 155.5,-101.5 155.5,-101.5 36.5,-101.5"/>
<polygon fill="none" stroke="#666666" points="0,-85 0,-194 155,-194 155,-85 0,-85"/>
</a>
</g>
</g>
<!-- Node2&#45;&gt;Node1 -->
<g id="edge1_Node000001_Node000002" class="edge">
<title>Node2&#45;&gt;Node1</title>
<g id="a_edge1_Node000001_Node000002"><a xlink:title=" ">
<path fill="none" stroke="#63b8ff" d="M77.5,-74.69C77.5,-65.63 77.5,-56.82 77.5,-49.23"/>
<polygon fill="none" stroke="#63b8ff" points="74,-74.98 77.5,-84.98 81,-74.98 74,-74.98"/>
</a>
</g>
</g>
<!-- Node3 -->
<g id="Node000003" class="node">
<title>Node3</title>
<g id="a_Node000003"><a xlink:href="classXML_1_1bpmn_1_1tBaseElement.html" target="_top" xlink:title=" ">
<polygon fill="white" stroke="transparent" points="147.5,-324 7.5,-324 7.5,-230 147.5,-230 147.5,-324"/>
<text text-anchor="start" x="12.5" y="-312" font-family="Helvetica,sans-Serif" font-size="10.00">XML::bpmn::tBaseElement</text>
<text text-anchor="start" x="17.5" y="-297" font-family="Helvetica,sans-Serif" font-size="10.00">+</text>
<text text-anchor="start" x="36.5" y="-297" font-family="Helvetica,sans-Serif" font-size="10.00">documentation</text>
<text text-anchor="start" x="17.5" y="-282" font-family="Helvetica,sans-Serif" font-size="10.00">+</text>
<text text-anchor="start" x="36.5" y="-282" font-family="Helvetica,sans-Serif" font-size="10.00">extensionElements</text>
<text text-anchor="start" x="17.5" y="-267" font-family="Helvetica,sans-Serif" font-size="10.00">+</text>
<text text-anchor="start" x="36.5" y="-267" font-family="Helvetica,sans-Serif" font-size="10.00">id</text>
<text text-anchor="start" x="17.5" y="-252" font-family="Helvetica,sans-Serif" font-size="10.00">+</text>
<text text-anchor="start" x="36.5" y="-252" font-family="Helvetica,sans-Serif" font-size="10.00">defaults</text>
<text text-anchor="start" x="17.5" y="-237" font-family="Helvetica,sans-Serif" font-size="10.00">#</text>
<text text-anchor="start" x="36.5" y="-237" font-family="Helvetica,sans-Serif" font-size="10.00">tBaseElement()</text>
<polygon fill="#666666" stroke="#666666" points="7.5,-307 7.5,-307 147.5,-307 147.5,-307 7.5,-307"/>
<polygon fill="#666666" stroke="#666666" points="7.5,-247 7.5,-247 34.5,-247 34.5,-247 7.5,-247"/>
<polygon fill="#666666" stroke="#666666" points="34.5,-247 34.5,-247 147.5,-247 147.5,-247 34.5,-247"/>
<polygon fill="none" stroke="#666666" points="7.5,-230 7.5,-324 147.5,-324 147.5,-230 7.5,-230"/>
</a>
</g>
</g>
<!-- Node3&#45;&gt;Node2 -->
<g id="edge2_Node000002_Node000003" class="edge">
<title>Node3&#45;&gt;Node2</title>
<g id="a_edge2_Node000002_Node000003"><a xlink:title=" ">
<path fill="none" stroke="#63b8ff" d="M77.5,-219.58C77.5,-211.12 77.5,-202.41 77.5,-194.01"/>
<polygon fill="none" stroke="#63b8ff" points="74,-219.75 77.5,-229.75 81,-219.75 74,-219.75"/>
</a>
</g>
</g>
<!-- Node4 -->
<g id="Node000004" class="node">
<title>Node4</title>
<g id="a_Node000004"><a xlink:href="classXML_1_1XMLObject.html" target="_top" xlink:title="A class representing a node in an XML&#45;tree.">
<polygon fill="white" stroke="transparent" points="137.5,-754 17.5,-754 17.5,-360 137.5,-360 137.5,-754"/>
<text text-anchor="start" x="37.5" y="-742" font-family="Helvetica,sans-Serif" font-size="10.00">XML::XMLObject</text>
<text text-anchor="start" x="21.5" y="-727" font-family="Helvetica,sans-Serif" font-size="10.00">+</text>
<text text-anchor="start" x="34.5" y="-727" font-family="Helvetica,sans-Serif" font-size="10.00">xmlns</text>
<text text-anchor="start" x="21.5" y="-712" font-family="Helvetica,sans-Serif" font-size="10.00">+</text>
<text text-anchor="start" x="34.5" y="-712" font-family="Helvetica,sans-Serif" font-size="10.00">className</text>
<text text-anchor="start" x="21.5" y="-697" font-family="Helvetica,sans-Serif" font-size="10.00">+</text>
<text text-anchor="start" x="34.5" y="-697" font-family="Helvetica,sans-Serif" font-size="10.00">prefix</text>
<text text-anchor="start" x="21.5" y="-682" font-family="Helvetica,sans-Serif" font-size="10.00">+</text>
<text text-anchor="start" x="34.5" y="-682" font-family="Helvetica,sans-Serif" font-size="10.00">elementName</text>
<text text-anchor="start" x="21.5" y="-667" font-family="Helvetica,sans-Serif" font-size="10.00">+</text>
<text text-anchor="start" x="34.5" y="-667" font-family="Helvetica,sans-Serif" font-size="10.00">textContent</text>
<text text-anchor="start" x="21.5" y="-652" font-family="Helvetica,sans-Serif" font-size="10.00">+</text>
<text text-anchor="start" x="34.5" y="-652" font-family="Helvetica,sans-Serif" font-size="10.00">children</text>
<text text-anchor="start" x="21.5" y="-637" font-family="Helvetica,sans-Serif" font-size="10.00">+</text>
<text text-anchor="start" x="34.5" y="-637" font-family="Helvetica,sans-Serif" font-size="10.00">attributes</text>
<text text-anchor="start" x="21.5" y="-622" font-family="Helvetica,sans-Serif" font-size="10.00">+</text>
<text text-anchor="start" x="34.5" y="-622" font-family="Helvetica,sans-Serif" font-size="10.00">defaults</text>
<text text-anchor="start" x="21.5" y="-607" font-family="Helvetica,sans-Serif" font-size="10.00">#</text>
<text text-anchor="start" x="34.5" y="-607" font-family="Helvetica,sans-Serif" font-size="10.00">factory</text>
<text text-anchor="start" x="21.5" y="-592" font-family="Helvetica,sans-Serif" font-size="10.00">+</text>
<text text-anchor="start" x="34.5" y="-592" font-family="Helvetica,sans-Serif" font-size="10.00">~XMLObject()</text>
<text text-anchor="start" x="21.5" y="-577" font-family="Helvetica,sans-Serif" font-size="10.00">+</text>
<text text-anchor="start" x="34.5" y="-577" font-family="Helvetica,sans-Serif" font-size="10.00">is()</text>
<text text-anchor="start" x="21.5" y="-562" font-family="Helvetica,sans-Serif" font-size="10.00">+</text>
<text text-anchor="start" x="34.5" y="-562" font-family="Helvetica,sans-Serif" font-size="10.00">is()</text>
<text text-anchor="start" x="21.5" y="-547" font-family="Helvetica,sans-Serif" font-size="10.00">+</text>
<text text-anchor="start" x="34.5" y="-547" font-family="Helvetica,sans-Serif" font-size="10.00">get()</text>
<text text-anchor="start" x="21.5" y="-532" font-family="Helvetica,sans-Serif" font-size="10.00">+</text>
<text text-anchor="start" x="34.5" y="-532" font-family="Helvetica,sans-Serif" font-size="10.00">get()</text>
<text text-anchor="start" x="21.5" y="-517" font-family="Helvetica,sans-Serif" font-size="10.00">+</text>
<text text-anchor="start" x="34.5" y="-517" font-family="Helvetica,sans-Serif" font-size="10.00">find()</text>
<text text-anchor="start" x="21.5" y="-502" font-family="Helvetica,sans-Serif" font-size="10.00">+</text>
<text text-anchor="start" x="34.5" y="-502" font-family="Helvetica,sans-Serif" font-size="10.00">find()</text>
<text text-anchor="start" x="21.5" y="-487" font-family="Helvetica,sans-Serif" font-size="10.00">+</text>
<text text-anchor="start" x="34.5" y="-487" font-family="Helvetica,sans-Serif" font-size="10.00">stringify()</text>
<text text-anchor="start" x="21.5" y="-472" font-family="Helvetica,sans-Serif" font-size="10.00">+</text>
<text text-anchor="start" x="34.5" y="-472" font-family="Helvetica,sans-Serif" font-size="10.00">format()</text>
<text text-anchor="start" x="21.5" y="-457" font-family="Helvetica,sans-Serif" font-size="10.00">+</text>
<text text-anchor="start" x="34.5" y="-457" font-family="Helvetica,sans-Serif" font-size="10.00">getRequiredChild()</text>
<text text-anchor="start" x="34.5" y="-442" font-family="Helvetica,sans-Serif" font-size="10.00">and 7 more...</text>
<text text-anchor="start" x="21.5" y="-427" font-family="Helvetica,sans-Serif" font-size="10.00">+</text>
<text text-anchor="start" x="34.5" y="-427" font-family="Helvetica,sans-Serif" font-size="10.00">createFromStream()</text>
<text text-anchor="start" x="21.5" y="-412" font-family="Helvetica,sans-Serif" font-size="10.00">+</text>
<text text-anchor="start" x="34.5" y="-412" font-family="Helvetica,sans-Serif" font-size="10.00">createFromString()</text>
<text text-anchor="start" x="21.5" y="-397" font-family="Helvetica,sans-Serif" font-size="10.00">+</text>
<text text-anchor="start" x="34.5" y="-397" font-family="Helvetica,sans-Serif" font-size="10.00">createFromFile()</text>
<text text-anchor="start" x="21.5" y="-382" font-family="Helvetica,sans-Serif" font-size="10.00">#</text>
<text text-anchor="start" x="34.5" y="-382" font-family="Helvetica,sans-Serif" font-size="10.00">XMLObject()</text>
<text text-anchor="start" x="21.5" y="-367" font-family="Helvetica,sans-Serif" font-size="10.00">#</text>
<text text-anchor="start" x="34.5" y="-367" font-family="Helvetica,sans-Serif" font-size="10.00">createObject()</text>
<polygon fill="#666666" stroke="#666666" points="17.5,-737 17.5,-737 137.5,-737 137.5,-737 17.5,-737"/>
<polygon fill="#666666" stroke="#666666" points="17.5,-602 17.5,-602 32.5,-602 32.5,-602 17.5,-602"/>
<polygon fill="#666666" stroke="#666666" points="32.5,-602 32.5,-602 137.5,-602 137.5,-602 32.5,-602"/>
<polygon fill="none" stroke="#666666" points="17.5,-360 17.5,-754 137.5,-754 137.5,-360 17.5,-360"/>
</a>
</g>
</g>
<!-- Node4&#45;&gt;Node3 -->
<g id="edge3_Node000003_Node000004" class="edge">
<title>Node4&#45;&gt;Node3</title>
<g id="a_edge3_Node000003_Node000004"><a xlink:title=" ">
<path fill="none" stroke="#63b8ff" d="M77.5,-349.78C77.5,-340.62 77.5,-331.97 77.5,-324.06"/>
<polygon fill="none" stroke="#63b8ff" points="74,-349.91 77.5,-359.91 81,-349.91 74,-349.91"/>
</a>
</g>
</g>
</g>
</svg>
