<?xml version="1.0" encoding="UTF-8" standalone="no"?>
<!DOCTYPE svg PUBLIC "-//W3C//DTD SVG 1.1//EN"
 "http://www.w3.org/Graphics/SVG/1.1/DTD/svg11.dtd">
<!-- Generated by graphviz version 2.43.0 (0)
 -->
<!-- Title: XML::bpmn::resourceParameterBinding Pages: 1 -->
<svg width="178pt" height="754pt"
 viewBox="0.00 0.00 178.00 754.00" xmlns="http://www.w3.org/2000/svg" xmlns:xlink="http://www.w3.org/1999/xlink">
<g id="graph0" class="graph" transform="scale(1 1) rotate(0) translate(4 750)">
<title>XML::bpmn::resourceParameterBinding</title>
<!-- Node1 -->
<g id="Node000001" class="node">
<title>Node1</title>
<g id="a_Node000001"><a xlink:title=" ">
<polygon fill="#999999" stroke="transparent" points="167,-60 3,-60 3,0 167,0 167,-60"/>
<text text-anchor="start" x="8" y="-48" font-family="Helvetica,sans-Serif" font-size="10.00">XML::bpmn::resourceParameter</text>
<text text-anchor="start" x="66.5" y="-37" font-family="Helvetica,sans-Serif" font-size="10.00">Binding</text>
<text text-anchor="start" x="8.5" y="-22" font-family="Helvetica,sans-Serif" font-size="10.00">+</text>
<text text-anchor="start" x="23" y="-22" font-family="Helvetica,sans-Serif" font-size="10.00">defaults</text>
<text text-anchor="start" x="8.5" y="-7" font-family="Helvetica,sans-Serif" font-size="10.00">#</text>
<text text-anchor="start" x="23" y="-7" font-family="Helvetica,sans-Serif" font-size="10.00">resourceParameterBinding()</text>
<polygon fill="#666666" stroke="#666666" points="3,-32 3,-32 167,-32 167,-32 3,-32"/>
<polygon fill="#666666" stroke="#666666" points="3,-17 3,-17 21,-17 21,-17 3,-17"/>
<polygon fill="#666666" stroke="#666666" points="21,-17 21,-17 167,-17 167,-17 21,-17"/>
<polygon fill="none" stroke="#666666" points="3,0 3,-60 167,-60 167,0 3,0"/>
</a>
</g>
</g>
<!-- Node2 -->
<g id="Node000002" class="node">
<title>Node2</title>
<g id="a_Node000002"><a xlink:href="classXML_1_1bpmn_1_1tResourceParameterBinding.html" target="_top" xlink:title=" ">
<polygon fill="white" stroke="transparent" points="170,-186 0,-186 0,-96 170,-96 170,-186"/>
<text text-anchor="start" x="5" y="-174" font-family="Helvetica,sans-Serif" font-size="10.00">XML::bpmn::tResourceParameter</text>
<text text-anchor="start" x="66.5" y="-163" font-family="Helvetica,sans-Serif" font-size="10.00">Binding</text>
<text text-anchor="start" x="5" y="-148" font-family="Helvetica,sans-Serif" font-size="10.00">+</text>
<text text-anchor="start" x="19" y="-148" font-family="Helvetica,sans-Serif" font-size="10.00">expression</text>
<text text-anchor="start" x="5" y="-133" font-family="Helvetica,sans-Serif" font-size="10.00">+</text>
<text text-anchor="start" x="19" y="-133" font-family="Helvetica,sans-Serif" font-size="10.00">parameterRef</text>
<text text-anchor="start" x="5" y="-118" font-family="Helvetica,sans-Serif" font-size="10.00">+</text>
<text text-anchor="start" x="19" y="-118" font-family="Helvetica,sans-Serif" font-size="10.00">defaults</text>
<text text-anchor="start" x="5" y="-103" font-family="Helvetica,sans-Serif" font-size="10.00">#</text>
<text text-anchor="start" x="19" y="-103" font-family="Helvetica,sans-Serif" font-size="10.00">tResourceParameterBinding()</text>
<polygon fill="#666666" stroke="#666666" points="0,-158 0,-158 170,-158 170,-158 0,-158"/>
<polygon fill="#666666" stroke="#666666" points="0,-113 0,-113 17,-113 17,-113 0,-113"/>
<polygon fill="#666666" stroke="#666666" points="17,-113 17,-113 170,-113 170,-113 17,-113"/>
<polygon fill="none" stroke="#666666" points="0,-96 0,-186 170,-186 170,-96 0,-96"/>
</a>
</g>
</g>
<!-- Node2&#45;&gt;Node1 -->
<g id="edge1_Node000001_Node000002" class="edge">
<title>Node2&#45;&gt;Node1</title>
<g id="a_edge1_Node000001_Node000002"><a xlink:title=" ">
<path fill="none" stroke="#63b8ff" d="M85,-85.7C85,-76.89 85,-68.07 85,-60.17"/>
<polygon fill="none" stroke="#63b8ff" points="81.5,-85.98 85,-95.98 88.5,-85.98 81.5,-85.98"/>
</a>
</g>
</g>
<!-- Node3 -->
<g id="Node000003" class="node">
<title>Node3</title>
<g id="a_Node000003"><a xlink:href="classXML_1_1bpmn_1_1tBaseElement.html" target="_top" xlink:title=" ">
<polygon fill="white" stroke="transparent" points="155,-316 15,-316 15,-222 155,-222 155,-316"/>
<text text-anchor="start" x="20" y="-304" font-family="Helvetica,sans-Serif" font-size="10.00">XML::bpmn::tBaseElement</text>
<text text-anchor="start" x="25" y="-289" font-family="Helvetica,sans-Serif" font-size="10.00">+</text>
<text text-anchor="start" x="44" y="-289" font-family="Helvetica,sans-Serif" font-size="10.00">documentation</text>
<text text-anchor="start" x="25" y="-274" font-family="Helvetica,sans-Serif" font-size="10.00">+</text>
<text text-anchor="start" x="44" y="-274" font-family="Helvetica,sans-Serif" font-size="10.00">extensionElements</text>
<text text-anchor="start" x="25" y="-259" font-family="Helvetica,sans-Serif" font-size="10.00">+</text>
<text text-anchor="start" x="44" y="-259" font-family="Helvetica,sans-Serif" font-size="10.00">id</text>
<text text-anchor="start" x="25" y="-244" font-family="Helvetica,sans-Serif" font-size="10.00">+</text>
<text text-anchor="start" x="44" y="-244" font-family="Helvetica,sans-Serif" font-size="10.00">defaults</text>
<text text-anchor="start" x="25" y="-229" font-family="Helvetica,sans-Serif" font-size="10.00">#</text>
<text text-anchor="start" x="44" y="-229" font-family="Helvetica,sans-Serif" font-size="10.00">tBaseElement()</text>
<polygon fill="#666666" stroke="#666666" points="15,-299 15,-299 155,-299 155,-299 15,-299"/>
<polygon fill="#666666" stroke="#666666" points="15,-239 15,-239 42,-239 42,-239 15,-239"/>
<polygon fill="#666666" stroke="#666666" points="42,-239 42,-239 155,-239 155,-239 42,-239"/>
<polygon fill="none" stroke="#666666" points="15,-222 15,-316 155,-316 155,-222 15,-222"/>
</a>
</g>
</g>
<!-- Node3&#45;&gt;Node2 -->
<g id="edge2_Node000002_Node000003" class="edge">
<title>Node3&#45;&gt;Node2</title>
<g id="a_edge2_Node000002_Node000003"><a xlink:title=" ">
<path fill="none" stroke="#63b8ff" d="M85,-211.52C85,-203 85,-194.31 85,-186.1"/>
<polygon fill="none" stroke="#63b8ff" points="81.5,-211.8 85,-221.8 88.5,-211.8 81.5,-211.8"/>
</a>
</g>
</g>
<!-- Node4 -->
<g id="Node000004" class="node">
<title>Node4</title>
<g id="a_Node000004"><a xlink:href="classXML_1_1XMLObject.html" target="_top" xlink:title="A class representing a node in an XML&#45;tree.">
<polygon fill="white" stroke="transparent" points="145,-746 25,-746 25,-352 145,-352 145,-746"/>
<text text-anchor="start" x="45" y="-734" font-family="Helvetica,sans-Serif" font-size="10.00">XML::XMLObject</text>
<text text-anchor="start" x="29" y="-719" font-family="Helvetica,sans-Serif" font-size="10.00">+</text>
<text text-anchor="start" x="42" y="-719" font-family="Helvetica,sans-Serif" font-size="10.00">xmlns</text>
<text text-anchor="start" x="29" y="-704" font-family="Helvetica,sans-Serif" font-size="10.00">+</text>
<text text-anchor="start" x="42" y="-704" font-family="Helvetica,sans-Serif" font-size="10.00">className</text>
<text text-anchor="start" x="29" y="-689" font-family="Helvetica,sans-Serif" font-size="10.00">+</text>
<text text-anchor="start" x="42" y="-689" font-family="Helvetica,sans-Serif" font-size="10.00">prefix</text>
<text text-anchor="start" x="29" y="-674" font-family="Helvetica,sans-Serif" font-size="10.00">+</text>
<text text-anchor="start" x="42" y="-674" font-family="Helvetica,sans-Serif" font-size="10.00">elementName</text>
<text text-anchor="start" x="29" y="-659" font-family="Helvetica,sans-Serif" font-size="10.00">+</text>
<text text-anchor="start" x="42" y="-659" font-family="Helvetica,sans-Serif" font-size="10.00">textContent</text>
<text text-anchor="start" x="29" y="-644" font-family="Helvetica,sans-Serif" font-size="10.00">+</text>
<text text-anchor="start" x="42" y="-644" font-family="Helvetica,sans-Serif" font-size="10.00">children</text>
<text text-anchor="start" x="29" y="-629" font-family="Helvetica,sans-Serif" font-size="10.00">+</text>
<text text-anchor="start" x="42" y="-629" font-family="Helvetica,sans-Serif" font-size="10.00">attributes</text>
<text text-anchor="start" x="29" y="-614" font-family="Helvetica,sans-Serif" font-size="10.00">+</text>
<text text-anchor="start" x="42" y="-614" font-family="Helvetica,sans-Serif" font-size="10.00">defaults</text>
<text text-anchor="start" x="29" y="-599" font-family="Helvetica,sans-Serif" font-size="10.00">#</text>
<text text-anchor="start" x="42" y="-599" font-family="Helvetica,sans-Serif" font-size="10.00">factory</text>
<text text-anchor="start" x="29" y="-584" font-family="Helvetica,sans-Serif" font-size="10.00">+</text>
<text text-anchor="start" x="42" y="-584" font-family="Helvetica,sans-Serif" font-size="10.00">~XMLObject()</text>
<text text-anchor="start" x="29" y="-569" font-family="Helvetica,sans-Serif" font-size="10.00">+</text>
<text text-anchor="start" x="42" y="-569" font-family="Helvetica,sans-Serif" font-size="10.00">is()</text>
<text text-anchor="start" x="29" y="-554" font-family="Helvetica,sans-Serif" font-size="10.00">+</text>
<text text-anchor="start" x="42" y="-554" font-family="Helvetica,sans-Serif" font-size="10.00">is()</text>
<text text-anchor="start" x="29" y="-539" font-family="Helvetica,sans-Serif" font-size="10.00">+</text>
<text text-anchor="start" x="42" y="-539" font-family="Helvetica,sans-Serif" font-size="10.00">get()</text>
<text text-anchor="start" x="29" y="-524" font-family="Helvetica,sans-Serif" font-size="10.00">+</text>
<text text-anchor="start" x="42" y="-524" font-family="Helvetica,sans-Serif" font-size="10.00">get()</text>
<text text-anchor="start" x="29" y="-509" font-family="Helvetica,sans-Serif" font-size="10.00">+</text>
<text text-anchor="start" x="42" y="-509" font-family="Helvetica,sans-Serif" font-size="10.00">find()</text>
<text text-anchor="start" x="29" y="-494" font-family="Helvetica,sans-Serif" font-size="10.00">+</text>
<text text-anchor="start" x="42" y="-494" font-family="Helvetica,sans-Serif" font-size="10.00">find()</text>
<text text-anchor="start" x="29" y="-479" font-family="Helvetica,sans-Serif" font-size="10.00">+</text>
<text text-anchor="start" x="42" y="-479" font-family="Helvetica,sans-Serif" font-size="10.00">stringify()</text>
<text text-anchor="start" x="29" y="-464" font-family="Helvetica,sans-Serif" font-size="10.00">+</text>
<text text-anchor="start" x="42" y="-464" font-family="Helvetica,sans-Serif" font-size="10.00">format()</text>
<text text-anchor="start" x="29" y="-449" font-family="Helvetica,sans-Serif" font-size="10.00">+</text>
<text text-anchor="start" x="42" y="-449" font-family="Helvetica,sans-Serif" font-size="10.00">getRequiredChild()</text>
<text text-anchor="start" x="42" y="-434" font-family="Helvetica,sans-Serif" font-size="10.00">and 7 more...</text>
<text text-anchor="start" x="29" y="-419" font-family="Helvetica,sans-Serif" font-size="10.00">+</text>
<text text-anchor="start" x="42" y="-419" font-family="Helvetica,sans-Serif" font-size="10.00">createFromStream()</text>
<text text-anchor="start" x="29" y="-404" font-family="Helvetica,sans-Serif" font-size="10.00">+</text>
<text text-anchor="start" x="42" y="-404" font-family="Helvetica,sans-Serif" font-size="10.00">createFromString()</text>
<text text-anchor="start" x="29" y="-389" font-family="Helvetica,sans-Serif" font-size="10.00">+</text>
<text text-anchor="start" x="42" y="-389" font-family="Helvetica,sans-Serif" font-size="10.00">createFromFile()</text>
<text text-anchor="start" x="29" y="-374" font-family="Helvetica,sans-Serif" font-size="10.00">#</text>
<text text-anchor="start" x="42" y="-374" font-family="Helvetica,sans-Serif" font-size="10.00">XMLObject()</text>
<text text-anchor="start" x="29" y="-359" font-family="Helvetica,sans-Serif" font-size="10.00">#</text>
<text text-anchor="start" x="42" y="-359" font-family="Helvetica,sans-Serif" font-size="10.00">createObject()</text>
<polygon fill="#666666" stroke="#666666" points="25,-729 25,-729 145,-729 145,-729 25,-729"/>
<polygon fill="#666666" stroke="#666666" points="25,-594 25,-594 40,-594 40,-594 25,-594"/>
<polygon fill="#666666" stroke="#666666" points="40,-594 40,-594 145,-594 145,-594 40,-594"/>
<polygon fill="none" stroke="#666666" points="25,-352 25,-746 145,-746 145,-352 25,-352"/>
</a>
</g>
</g>
<!-- Node4&#45;&gt;Node3 -->
<g id="edge3_Node000003_Node000004" class="edge">
<title>Node4&#45;&gt;Node3</title>
<g id="a_edge3_Node000003_Node000004"><a xlink:title=" ">
<path fill="none" stroke="#63b8ff" d="M85,-341.78C85,-332.62 85,-323.97 85,-316.06"/>
<polygon fill="none" stroke="#63b8ff" points="81.5,-341.91 85,-351.91 88.5,-341.91 81.5,-341.91"/>
</a>
</g>
</g>
</g>
</svg>
