<?xml version="1.0" encoding="UTF-8" standalone="no"?>
<!DOCTYPE svg PUBLIC "-//W3C//DTD SVG 1.1//EN"
 "http://www.w3.org/Graphics/SVG/1.1/DTD/svg11.dtd">
<!-- Generated by graphviz version 2.43.0 (0)
 -->
<!-- Title: XML::bpmn::terminateEventDefinition Pages: 1 -->
<svg width="171pt" height="844pt"
 viewBox="0.00 0.00 171.00 844.00" xmlns="http://www.w3.org/2000/svg" xmlns:xlink="http://www.w3.org/1999/xlink">
<g id="graph0" class="graph" transform="scale(1 1) rotate(0) translate(4 840)">
<title>XML::bpmn::terminateEventDefinition</title>
<!-- Node1 -->
<g id="node1" class="node">
<title>Node1</title>
<g id="a_node1"><a xlink:title=" ">
<polygon fill="#bfbfbf" stroke="black" points="2.5,-0.5 2.5,-68.5 160.5,-68.5 160.5,-0.5 2.5,-0.5"/>
<text text-anchor="start" x="10.5" y="-56.5" font-family="Helvetica,sans-Serif" font-size="10.00">XML::bpmn::terminateEvent</text>
<text text-anchor="middle" x="81.5" y="-45.5" font-family="Helvetica,sans-Serif" font-size="10.00">Definition</text>
<polyline fill="none" stroke="black" points="2.5,-38.5 160.5,-38.5 "/>
<text text-anchor="start" x="10.5" y="-26.5" font-family="Helvetica,sans-Serif" font-size="10.00">+ defaults</text>
<polyline fill="none" stroke="black" points="2.5,-19.5 160.5,-19.5 "/>
<text text-anchor="start" x="10.5" y="-7.5" font-family="Helvetica,sans-Serif" font-size="10.00"># terminateEventDefinition()</text>
</a>
</g>
</g>
<!-- Node2 -->
<g id="node2" class="node">
<title>Node2</title>
<g id="a_node2"><a xlink:href="classXML_1_1bpmn_1_1tTerminateEventDefinition.html" target="_top" xlink:title=" ">
<polygon fill="none" stroke="black" points="0,-105.5 0,-173.5 163,-173.5 163,-105.5 0,-105.5"/>
<text text-anchor="start" x="8" y="-161.5" font-family="Helvetica,sans-Serif" font-size="10.00">XML::bpmn::tTerminateEvent</text>
<text text-anchor="middle" x="81.5" y="-150.5" font-family="Helvetica,sans-Serif" font-size="10.00">Definition</text>
<polyline fill="none" stroke="black" points="0,-143.5 163,-143.5 "/>
<text text-anchor="start" x="8" y="-131.5" font-family="Helvetica,sans-Serif" font-size="10.00">+ defaults</text>
<polyline fill="none" stroke="black" points="0,-124.5 163,-124.5 "/>
<text text-anchor="start" x="8" y="-112.5" font-family="Helvetica,sans-Serif" font-size="10.00"># tTerminateEventDefinition()</text>
</a>
</g>
</g>
<!-- Node2&#45;&gt;Node1 -->
<g id="edge1" class="edge">
<title>Node2&#45;&gt;Node1</title>
<path fill="none" stroke="midnightblue" d="M81.5,-95.14C81.5,-86.26 81.5,-77.04 81.5,-68.59"/>
<polygon fill="none" stroke="midnightblue" points="78,-95.34 81.5,-105.34 85,-95.34 78,-95.34"/>
</g>
<!-- Node3 -->
<g id="node3" class="node">
<title>Node3</title>
<g id="a_node3"><a xlink:href="classXML_1_1bpmn_1_1tEventDefinition.html" target="_top" xlink:title=" ">
<polygon fill="none" stroke="black" points="3.5,-210.5 3.5,-267.5 159.5,-267.5 159.5,-210.5 3.5,-210.5"/>
<text text-anchor="middle" x="81.5" y="-255.5" font-family="Helvetica,sans-Serif" font-size="10.00">XML::bpmn::tEventDefinition</text>
<polyline fill="none" stroke="black" points="3.5,-248.5 159.5,-248.5 "/>
<text text-anchor="start" x="11.5" y="-236.5" font-family="Helvetica,sans-Serif" font-size="10.00">+ defaults</text>
<polyline fill="none" stroke="black" points="3.5,-229.5 159.5,-229.5 "/>
<text text-anchor="start" x="11.5" y="-217.5" font-family="Helvetica,sans-Serif" font-size="10.00"># tEventDefinition()</text>
</a>
</g>
</g>
<!-- Node3&#45;&gt;Node2 -->
<g id="edge2" class="edge">
<title>Node3&#45;&gt;Node2</title>
<path fill="none" stroke="midnightblue" d="M81.5,-200.06C81.5,-191.39 81.5,-182.24 81.5,-173.79"/>
<polygon fill="none" stroke="midnightblue" points="78,-200.32 81.5,-210.32 85,-200.32 78,-200.32"/>
</g>
<!-- Node4 -->
<g id="node4" class="node">
<title>Node4</title>
<g id="a_node4"><a xlink:href="classXML_1_1bpmn_1_1tRootElement.html" target="_top" xlink:title=" ">
<polygon fill="none" stroke="black" points="9.5,-304.5 9.5,-361.5 153.5,-361.5 153.5,-304.5 9.5,-304.5"/>
<text text-anchor="middle" x="81.5" y="-349.5" font-family="Helvetica,sans-Serif" font-size="10.00">XML::bpmn::tRootElement</text>
<polyline fill="none" stroke="black" points="9.5,-342.5 153.5,-342.5 "/>
<text text-anchor="start" x="17.5" y="-330.5" font-family="Helvetica,sans-Serif" font-size="10.00">+ defaults</text>
<polyline fill="none" stroke="black" points="9.5,-323.5 153.5,-323.5 "/>
<text text-anchor="start" x="17.5" y="-311.5" font-family="Helvetica,sans-Serif" font-size="10.00"># tRootElement()</text>
</a>
</g>
</g>
<!-- Node4&#45;&gt;Node3 -->
<g id="edge3" class="edge">
<title>Node4&#45;&gt;Node3</title>
<path fill="none" stroke="midnightblue" d="M81.5,-294.21C81.5,-285.29 81.5,-275.95 81.5,-267.58"/>
<polygon fill="none" stroke="midnightblue" points="78,-294.4 81.5,-304.4 85,-294.4 78,-294.4"/>
</g>
<!-- Node5 -->
<g id="node5" class="node">
<title>Node5</title>
<g id="a_node5"><a xlink:href="classXML_1_1bpmn_1_1tBaseElement.html" target="_top" xlink:title=" ">
<polygon fill="none" stroke="black" points="8.5,-398.5 8.5,-488.5 154.5,-488.5 154.5,-398.5 8.5,-398.5"/>
<text text-anchor="middle" x="81.5" y="-476.5" font-family="Helvetica,sans-Serif" font-size="10.00">XML::bpmn::tBaseElement</text>
<polyline fill="none" stroke="black" points="8.5,-469.5 154.5,-469.5 "/>
<text text-anchor="start" x="16.5" y="-457.5" font-family="Helvetica,sans-Serif" font-size="10.00">+ documentation</text>
<text text-anchor="start" x="16.5" y="-446.5" font-family="Helvetica,sans-Serif" font-size="10.00">+ extensionElements</text>
<text text-anchor="start" x="16.5" y="-435.5" font-family="Helvetica,sans-Serif" font-size="10.00">+ id</text>
<text text-anchor="start" x="16.5" y="-424.5" font-family="Helvetica,sans-Serif" font-size="10.00">+ defaults</text>
<polyline fill="none" stroke="black" points="8.5,-417.5 154.5,-417.5 "/>
<text text-anchor="start" x="16.5" y="-405.5" font-family="Helvetica,sans-Serif" font-size="10.00"># tBaseElement()</text>
</a>
</g>
</g>
<!-- Node5&#45;&gt;Node4 -->
<g id="edge4" class="edge">
<title>Node5&#45;&gt;Node4</title>
<path fill="none" stroke="midnightblue" d="M81.5,-388.35C81.5,-379.07 81.5,-369.79 81.5,-361.59"/>
<polygon fill="none" stroke="midnightblue" points="78,-388.37 81.5,-398.37 85,-388.37 78,-388.37"/>
</g>
<!-- Node6 -->
<g id="node6" class="node">
<title>Node6</title>
<g id="a_node6"><a xlink:href="classXML_1_1XMLObject.html" target="_top" xlink:title=" ">
<polygon fill="none" stroke="black" points="18.5,-525.5 18.5,-835.5 144.5,-835.5 144.5,-525.5 18.5,-525.5"/>
<text text-anchor="middle" x="81.5" y="-823.5" font-family="Helvetica,sans-Serif" font-size="10.00">XML::XMLObject</text>
<polyline fill="none" stroke="black" points="18.5,-816.5 144.5,-816.5 "/>
<text text-anchor="start" x="26.5" y="-804.5" font-family="Helvetica,sans-Serif" font-size="10.00">+ xmlns</text>
<text text-anchor="start" x="26.5" y="-793.5" font-family="Helvetica,sans-Serif" font-size="10.00">+ className</text>
<text text-anchor="start" x="26.5" y="-782.5" font-family="Helvetica,sans-Serif" font-size="10.00">+ prefix</text>
<text text-anchor="start" x="26.5" y="-771.5" font-family="Helvetica,sans-Serif" font-size="10.00">+ elementName</text>
<text text-anchor="start" x="26.5" y="-760.5" font-family="Helvetica,sans-Serif" font-size="10.00">+ textContent</text>
<text text-anchor="start" x="26.5" y="-749.5" font-family="Helvetica,sans-Serif" font-size="10.00">+ children</text>
<text text-anchor="start" x="26.5" y="-738.5" font-family="Helvetica,sans-Serif" font-size="10.00">+ attributes</text>
<text text-anchor="start" x="26.5" y="-727.5" font-family="Helvetica,sans-Serif" font-size="10.00">+ defaults</text>
<text text-anchor="start" x="26.5" y="-716.5" font-family="Helvetica,sans-Serif" font-size="10.00"># factory</text>
<polyline fill="none" stroke="black" points="18.5,-709.5 144.5,-709.5 "/>
<text text-anchor="start" x="26.5" y="-697.5" font-family="Helvetica,sans-Serif" font-size="10.00">+ ~XMLObject()</text>
<text text-anchor="start" x="26.5" y="-686.5" font-family="Helvetica,sans-Serif" font-size="10.00">+ is()</text>
<text text-anchor="start" x="26.5" y="-675.5" font-family="Helvetica,sans-Serif" font-size="10.00">+ is()</text>
<text text-anchor="start" x="26.5" y="-664.5" font-family="Helvetica,sans-Serif" font-size="10.00">+ get()</text>
<text text-anchor="start" x="26.5" y="-653.5" font-family="Helvetica,sans-Serif" font-size="10.00">+ get()</text>
<text text-anchor="start" x="26.5" y="-642.5" font-family="Helvetica,sans-Serif" font-size="10.00">+ find()</text>
<text text-anchor="start" x="26.5" y="-631.5" font-family="Helvetica,sans-Serif" font-size="10.00">+ find()</text>
<text text-anchor="start" x="26.5" y="-620.5" font-family="Helvetica,sans-Serif" font-size="10.00">+ stringify()</text>
<text text-anchor="start" x="26.5" y="-609.5" font-family="Helvetica,sans-Serif" font-size="10.00">+ getRequiredChild()</text>
<text text-anchor="start" x="26.5" y="-598.5" font-family="Helvetica,sans-Serif" font-size="10.00">+ getOptionalChild()</text>
<text text-anchor="start" x="26.5" y="-587.5" font-family="Helvetica,sans-Serif" font-size="10.00">and 6 more...</text>
<text text-anchor="start" x="26.5" y="-576.5" font-family="Helvetica,sans-Serif" font-size="10.00">+ createFromStream()</text>
<text text-anchor="start" x="26.5" y="-565.5" font-family="Helvetica,sans-Serif" font-size="10.00">+ createFromString()</text>
<text text-anchor="start" x="26.5" y="-554.5" font-family="Helvetica,sans-Serif" font-size="10.00">+ createFromFile()</text>
<text text-anchor="start" x="26.5" y="-543.5" font-family="Helvetica,sans-Serif" font-size="10.00"># XMLObject()</text>
<text text-anchor="start" x="26.5" y="-532.5" font-family="Helvetica,sans-Serif" font-size="10.00"># createObject()</text>
</a>
</g>
</g>
<!-- Node6&#45;&gt;Node5 -->
<g id="edge5" class="edge">
<title>Node6&#45;&gt;Node5</title>
<path fill="none" stroke="midnightblue" d="M81.5,-515.35C81.5,-505.89 81.5,-496.91 81.5,-488.72"/>
<polygon fill="none" stroke="midnightblue" points="78,-515.37 81.5,-525.37 85,-515.37 78,-515.37"/>
</g>
</g>
</svg>
