<?xml version="1.0" encoding="UTF-8" standalone="no"?>
<!DOCTYPE svg PUBLIC "-//W3C//DTD SVG 1.1//EN"
 "http://www.w3.org/Graphics/SVG/1.1/DTD/svg11.dtd">
<!-- Generated by graphviz version 2.43.0 (0)
 -->
<!-- Title: XML::bpmn::choreographyActivity Pages: 1 -->
<svg width="190pt" height="943pt"
 viewBox="0.00 0.00 190.00 943.00" xmlns="http://www.w3.org/2000/svg" xmlns:xlink="http://www.w3.org/1999/xlink">
<g id="graph0" class="graph" transform="scale(1 1) rotate(0) translate(4 939)">
<title>XML::bpmn::choreographyActivity</title>
<!-- Node1 -->
<g id="node1" class="node">
<title>Node1</title>
<g id="a_node1"><a xlink:title=" ">
<polygon fill="#bfbfbf" stroke="black" points="0,-0.5 0,-57.5 182,-57.5 182,-0.5 0,-0.5"/>
<text text-anchor="middle" x="91" y="-45.5" font-family="Helvetica,sans-Serif" font-size="10.00">XML::bpmn::choreographyActivity</text>
<polyline fill="none" stroke="black" points="0,-38.5 182,-38.5 "/>
<text text-anchor="start" x="8" y="-26.5" font-family="Helvetica,sans-Serif" font-size="10.00">+ defaults</text>
<polyline fill="none" stroke="black" points="0,-19.5 182,-19.5 "/>
<text text-anchor="start" x="8" y="-7.5" font-family="Helvetica,sans-Serif" font-size="10.00"># choreographyActivity()</text>
</a>
</g>
</g>
<!-- Node2 -->
<g id="node2" class="node">
<title>Node2</title>
<g id="a_node2"><a xlink:href="classXML_1_1bpmn_1_1tChoreographyActivity.html" target="_top" xlink:title=" ">
<polygon fill="none" stroke="black" points="16.5,-94.5 16.5,-206.5 165.5,-206.5 165.5,-94.5 16.5,-94.5"/>
<text text-anchor="start" x="24.5" y="-194.5" font-family="Helvetica,sans-Serif" font-size="10.00">XML::bpmn::tChoreography</text>
<text text-anchor="middle" x="91" y="-183.5" font-family="Helvetica,sans-Serif" font-size="10.00">Activity</text>
<polyline fill="none" stroke="black" points="16.5,-176.5 165.5,-176.5 "/>
<text text-anchor="start" x="24.5" y="-164.5" font-family="Helvetica,sans-Serif" font-size="10.00">+ participantRef</text>
<text text-anchor="start" x="24.5" y="-153.5" font-family="Helvetica,sans-Serif" font-size="10.00">+ correlationKey</text>
<text text-anchor="start" x="24.5" y="-142.5" font-family="Helvetica,sans-Serif" font-size="10.00">+ initiatingParticipantRef</text>
<text text-anchor="start" x="24.5" y="-131.5" font-family="Helvetica,sans-Serif" font-size="10.00">+ loopType</text>
<text text-anchor="start" x="24.5" y="-120.5" font-family="Helvetica,sans-Serif" font-size="10.00">+ defaults</text>
<polyline fill="none" stroke="black" points="16.5,-113.5 165.5,-113.5 "/>
<text text-anchor="start" x="24.5" y="-101.5" font-family="Helvetica,sans-Serif" font-size="10.00"># tChoreographyActivity()</text>
</a>
</g>
</g>
<!-- Node2&#45;&gt;Node1 -->
<g id="edge1" class="edge">
<title>Node2&#45;&gt;Node1</title>
<path fill="none" stroke="midnightblue" d="M91,-84.15C91,-74.82 91,-65.67 91,-57.63"/>
<polygon fill="none" stroke="midnightblue" points="87.5,-84.3 91,-94.3 94.5,-84.3 87.5,-84.3"/>
</g>
<!-- Node3 -->
<g id="node3" class="node">
<title>Node3</title>
<g id="a_node3"><a xlink:href="classXML_1_1bpmn_1_1tFlowNode.html" target="_top" xlink:title=" ">
<polygon fill="none" stroke="black" points="26,-243.5 26,-322.5 156,-322.5 156,-243.5 26,-243.5"/>
<text text-anchor="middle" x="91" y="-310.5" font-family="Helvetica,sans-Serif" font-size="10.00">XML::bpmn::tFlowNode</text>
<polyline fill="none" stroke="black" points="26,-303.5 156,-303.5 "/>
<text text-anchor="start" x="34" y="-291.5" font-family="Helvetica,sans-Serif" font-size="10.00">+ incoming</text>
<text text-anchor="start" x="34" y="-280.5" font-family="Helvetica,sans-Serif" font-size="10.00">+ outgoing</text>
<text text-anchor="start" x="34" y="-269.5" font-family="Helvetica,sans-Serif" font-size="10.00">+ defaults</text>
<polyline fill="none" stroke="black" points="26,-262.5 156,-262.5 "/>
<text text-anchor="start" x="34" y="-250.5" font-family="Helvetica,sans-Serif" font-size="10.00"># tFlowNode()</text>
</a>
</g>
</g>
<!-- Node3&#45;&gt;Node2 -->
<g id="edge2" class="edge">
<title>Node3&#45;&gt;Node2</title>
<path fill="none" stroke="midnightblue" d="M91,-233.01C91,-224.46 91,-215.52 91,-206.81"/>
<polygon fill="none" stroke="midnightblue" points="87.5,-233.2 91,-243.2 94.5,-233.2 87.5,-233.2"/>
</g>
<!-- Node4 -->
<g id="node4" class="node">
<title>Node4</title>
<g id="a_node4"><a xlink:href="classXML_1_1bpmn_1_1tFlowElement.html" target="_top" xlink:title=" ">
<polygon fill="none" stroke="black" points="18.5,-359.5 18.5,-460.5 163.5,-460.5 163.5,-359.5 18.5,-359.5"/>
<text text-anchor="middle" x="91" y="-448.5" font-family="Helvetica,sans-Serif" font-size="10.00">XML::bpmn::tFlowElement</text>
<polyline fill="none" stroke="black" points="18.5,-441.5 163.5,-441.5 "/>
<text text-anchor="start" x="26.5" y="-429.5" font-family="Helvetica,sans-Serif" font-size="10.00">+ auditing</text>
<text text-anchor="start" x="26.5" y="-418.5" font-family="Helvetica,sans-Serif" font-size="10.00">+ monitoring</text>
<text text-anchor="start" x="26.5" y="-407.5" font-family="Helvetica,sans-Serif" font-size="10.00">+ categoryValueRef</text>
<text text-anchor="start" x="26.5" y="-396.5" font-family="Helvetica,sans-Serif" font-size="10.00">+ name</text>
<text text-anchor="start" x="26.5" y="-385.5" font-family="Helvetica,sans-Serif" font-size="10.00">+ defaults</text>
<polyline fill="none" stroke="black" points="18.5,-378.5 163.5,-378.5 "/>
<text text-anchor="start" x="26.5" y="-366.5" font-family="Helvetica,sans-Serif" font-size="10.00"># tFlowElement()</text>
</a>
</g>
</g>
<!-- Node4&#45;&gt;Node3 -->
<g id="edge3" class="edge">
<title>Node4&#45;&gt;Node3</title>
<path fill="none" stroke="midnightblue" d="M91,-349.19C91,-340.22 91,-331.18 91,-322.81"/>
<polygon fill="none" stroke="midnightblue" points="87.5,-349.24 91,-359.24 94.5,-349.24 87.5,-349.24"/>
</g>
<!-- Node5 -->
<g id="node5" class="node">
<title>Node5</title>
<g id="a_node5"><a xlink:href="classXML_1_1bpmn_1_1tBaseElement.html" target="_top" xlink:title=" ">
<polygon fill="none" stroke="black" points="18,-497.5 18,-587.5 164,-587.5 164,-497.5 18,-497.5"/>
<text text-anchor="middle" x="91" y="-575.5" font-family="Helvetica,sans-Serif" font-size="10.00">XML::bpmn::tBaseElement</text>
<polyline fill="none" stroke="black" points="18,-568.5 164,-568.5 "/>
<text text-anchor="start" x="26" y="-556.5" font-family="Helvetica,sans-Serif" font-size="10.00">+ documentation</text>
<text text-anchor="start" x="26" y="-545.5" font-family="Helvetica,sans-Serif" font-size="10.00">+ extensionElements</text>
<text text-anchor="start" x="26" y="-534.5" font-family="Helvetica,sans-Serif" font-size="10.00">+ id</text>
<text text-anchor="start" x="26" y="-523.5" font-family="Helvetica,sans-Serif" font-size="10.00">+ defaults</text>
<polyline fill="none" stroke="black" points="18,-516.5 164,-516.5 "/>
<text text-anchor="start" x="26" y="-504.5" font-family="Helvetica,sans-Serif" font-size="10.00"># tBaseElement()</text>
</a>
</g>
</g>
<!-- Node5&#45;&gt;Node4 -->
<g id="edge4" class="edge">
<title>Node5&#45;&gt;Node4</title>
<path fill="none" stroke="midnightblue" d="M91,-487.13C91,-478.31 91,-469.22 91,-460.52"/>
<polygon fill="none" stroke="midnightblue" points="87.5,-487.32 91,-497.32 94.5,-487.32 87.5,-487.32"/>
</g>
<!-- Node6 -->
<g id="node6" class="node">
<title>Node6</title>
<g id="a_node6"><a xlink:href="classXML_1_1XMLObject.html" target="_top" xlink:title="A class representing a node in an XML&#45;tree.">
<polygon fill="none" stroke="black" points="28,-624.5 28,-934.5 154,-934.5 154,-624.5 28,-624.5"/>
<text text-anchor="middle" x="91" y="-922.5" font-family="Helvetica,sans-Serif" font-size="10.00">XML::XMLObject</text>
<polyline fill="none" stroke="black" points="28,-915.5 154,-915.5 "/>
<text text-anchor="start" x="36" y="-903.5" font-family="Helvetica,sans-Serif" font-size="10.00">+ xmlns</text>
<text text-anchor="start" x="36" y="-892.5" font-family="Helvetica,sans-Serif" font-size="10.00">+ className</text>
<text text-anchor="start" x="36" y="-881.5" font-family="Helvetica,sans-Serif" font-size="10.00">+ prefix</text>
<text text-anchor="start" x="36" y="-870.5" font-family="Helvetica,sans-Serif" font-size="10.00">+ elementName</text>
<text text-anchor="start" x="36" y="-859.5" font-family="Helvetica,sans-Serif" font-size="10.00">+ textContent</text>
<text text-anchor="start" x="36" y="-848.5" font-family="Helvetica,sans-Serif" font-size="10.00">+ children</text>
<text text-anchor="start" x="36" y="-837.5" font-family="Helvetica,sans-Serif" font-size="10.00">+ attributes</text>
<text text-anchor="start" x="36" y="-826.5" font-family="Helvetica,sans-Serif" font-size="10.00">+ defaults</text>
<text text-anchor="start" x="36" y="-815.5" font-family="Helvetica,sans-Serif" font-size="10.00"># factory</text>
<polyline fill="none" stroke="black" points="28,-808.5 154,-808.5 "/>
<text text-anchor="start" x="36" y="-796.5" font-family="Helvetica,sans-Serif" font-size="10.00">+ ~XMLObject()</text>
<text text-anchor="start" x="36" y="-785.5" font-family="Helvetica,sans-Serif" font-size="10.00">+ is()</text>
<text text-anchor="start" x="36" y="-774.5" font-family="Helvetica,sans-Serif" font-size="10.00">+ is()</text>
<text text-anchor="start" x="36" y="-763.5" font-family="Helvetica,sans-Serif" font-size="10.00">+ get()</text>
<text text-anchor="start" x="36" y="-752.5" font-family="Helvetica,sans-Serif" font-size="10.00">+ get()</text>
<text text-anchor="start" x="36" y="-741.5" font-family="Helvetica,sans-Serif" font-size="10.00">+ find()</text>
<text text-anchor="start" x="36" y="-730.5" font-family="Helvetica,sans-Serif" font-size="10.00">+ find()</text>
<text text-anchor="start" x="36" y="-719.5" font-family="Helvetica,sans-Serif" font-size="10.00">+ stringify()</text>
<text text-anchor="start" x="36" y="-708.5" font-family="Helvetica,sans-Serif" font-size="10.00">+ format()</text>
<text text-anchor="start" x="36" y="-697.5" font-family="Helvetica,sans-Serif" font-size="10.00">+ getRequiredChild()</text>
<text text-anchor="start" x="36" y="-686.5" font-family="Helvetica,sans-Serif" font-size="10.00">and 7 more...</text>
<text text-anchor="start" x="36" y="-675.5" font-family="Helvetica,sans-Serif" font-size="10.00">+ createFromStream()</text>
<text text-anchor="start" x="36" y="-664.5" font-family="Helvetica,sans-Serif" font-size="10.00">+ createFromString()</text>
<text text-anchor="start" x="36" y="-653.5" font-family="Helvetica,sans-Serif" font-size="10.00">+ createFromFile()</text>
<text text-anchor="start" x="36" y="-642.5" font-family="Helvetica,sans-Serif" font-size="10.00"># XMLObject()</text>
<text text-anchor="start" x="36" y="-631.5" font-family="Helvetica,sans-Serif" font-size="10.00"># createObject()</text>
</a>
</g>
</g>
<!-- Node6&#45;&gt;Node5 -->
<g id="edge5" class="edge">
<title>Node6&#45;&gt;Node5</title>
<path fill="none" stroke="midnightblue" d="M91,-614.35C91,-604.89 91,-595.91 91,-587.72"/>
<polygon fill="none" stroke="midnightblue" points="87.5,-614.37 91,-624.37 94.5,-614.37 87.5,-614.37"/>
</g>
</g>
</svg>
