<?xml version="1.0" encoding="UTF-8" standalone="no"?>
<!DOCTYPE svg PUBLIC "-//W3C//DTD SVG 1.1//EN"
 "http://www.w3.org/Graphics/SVG/1.1/DTD/svg11.dtd">
<!-- Generated by graphviz version 2.43.0 (0)
 -->
<!-- Title: BPMN::TypedStartEvent Pages: 1 -->
<svg width="1087pt" height="1037pt"
 viewBox="0.00 0.00 1086.50 1037.00" xmlns="http://www.w3.org/2000/svg" xmlns:xlink="http://www.w3.org/1999/xlink">
<g id="graph0" class="graph" transform="scale(1 1) rotate(0) translate(4 1033)">
<title>BPMN::TypedStartEvent</title>
<!-- Node1 -->
<g id="Node000001" class="node">
<title>Node1</title>
<g id="a_Node000001"><a xlink:title="Base class for all start events with an event definition.">
<polygon fill="#999999" stroke="transparent" points="620.5,-134 495.5,-134 495.5,-85 620.5,-85 620.5,-134"/>
<text text-anchor="start" x="501" y="-121.5" font-family="Helvetica,sans-Serif" font-size="10.00">BPMN::TypedStartEvent</text>
<text text-anchor="start" x="504" y="-106.5" font-family="Helvetica,sans-Serif" font-size="10.00">+</text>
<text text-anchor="start" x="521" y="-106.5" font-family="Helvetica,sans-Serif" font-size="10.00">isInterrupting</text>
<text text-anchor="start" x="504" y="-91.5" font-family="Helvetica,sans-Serif" font-size="10.00">+</text>
<text text-anchor="start" x="521" y="-91.5" font-family="Helvetica,sans-Serif" font-size="10.00">TypedStartEvent()</text>
<polygon fill="#666666" stroke="#666666" points="496,-116.5 496,-116.5 621,-116.5 621,-116.5 496,-116.5"/>
<polygon fill="#666666" stroke="#666666" points="496,-101.5 496,-101.5 519,-101.5 519,-101.5 496,-101.5"/>
<polygon fill="#666666" stroke="#666666" points="519,-101.5 519,-101.5 621,-101.5 621,-101.5 519,-101.5"/>
<polygon fill="none" stroke="#666666" points="495.5,-85 495.5,-134 620.5,-134 620.5,-85 495.5,-85"/>
</a>
</g>
</g>
<!-- Node9 -->
<g id="Node000009" class="node">
<title>Node9</title>
<g id="a_Node000009"><a xlink:href="classBPMN_1_1CompensateStartEvent.html" target="_top" xlink:title=" ">
<polygon fill="white" stroke="transparent" points="158,-49 0,-49 0,0 158,0 158,-49"/>
<text text-anchor="start" x="5" y="-36.5" font-family="Helvetica,sans-Serif" font-size="10.00">BPMN::CompensateStartEvent</text>
<text text-anchor="start" x="77" y="-21.5" font-family="Helvetica,sans-Serif" font-size="10.00"> </text>
<text text-anchor="start" x="8" y="-6.5" font-family="Helvetica,sans-Serif" font-size="10.00">+</text>
<text text-anchor="start" x="25" y="-6.5" font-family="Helvetica,sans-Serif" font-size="10.00">CompensateStartEvent()</text>
<polygon fill="#666666" stroke="#666666" points="0,-31.5 0,-31.5 158,-31.5 158,-31.5 0,-31.5"/>
<polygon fill="#666666" stroke="#666666" points="0,-16.5 0,-16.5 158,-16.5 158,-16.5 0,-16.5"/>
<polygon fill="none" stroke="#666666" points="0,0 0,-49 158,-49 158,0 0,0"/>
</a>
</g>
</g>
<!-- Node1&#45;&gt;Node9 -->
<g id="edge8_Node000001_Node000009" class="edge">
<title>Node1&#45;&gt;Node9</title>
<g id="a_edge8_Node000001_Node000009"><a xlink:title=" ">
<path fill="none" stroke="#63b8ff" d="M485.01,-99.83C406.14,-89.9 276.99,-71.98 167,-49 164.06,-48.39 161.07,-47.73 158.06,-47.05"/>
<polygon fill="none" stroke="#63b8ff" points="484.96,-103.35 495.32,-101.12 485.83,-96.41 484.96,-103.35"/>
</a>
</g>
</g>
<!-- Node10 -->
<g id="Node000010" class="node">
<title>Node10</title>
<g id="a_Node000010"><a xlink:href="classBPMN_1_1ConditionalStartEvent.html" target="_top" xlink:title=" ">
<polygon fill="white" stroke="transparent" points="328,-49 176,-49 176,0 328,0 328,-49"/>
<text text-anchor="start" x="181" y="-36.5" font-family="Helvetica,sans-Serif" font-size="10.00">BPMN::ConditionalStartEvent</text>
<text text-anchor="start" x="184" y="-21.5" font-family="Helvetica,sans-Serif" font-size="10.00">+</text>
<text text-anchor="start" x="201" y="-21.5" font-family="Helvetica,sans-Serif" font-size="10.00">element</text>
<text text-anchor="start" x="184" y="-6.5" font-family="Helvetica,sans-Serif" font-size="10.00">+</text>
<text text-anchor="start" x="201" y="-6.5" font-family="Helvetica,sans-Serif" font-size="10.00">ConditionalStartEvent()</text>
<polygon fill="#666666" stroke="#666666" points="176,-31.5 176,-31.5 328,-31.5 328,-31.5 176,-31.5"/>
<polygon fill="#666666" stroke="#666666" points="176,-16.5 176,-16.5 199,-16.5 199,-16.5 176,-16.5"/>
<polygon fill="#666666" stroke="#666666" points="199,-16.5 199,-16.5 328,-16.5 328,-16.5 199,-16.5"/>
<polygon fill="none" stroke="#666666" points="176,0 176,-49 328,-49 328,0 176,0"/>
</a>
</g>
</g>
<!-- Node1&#45;&gt;Node10 -->
<g id="edge9_Node000001_Node000010" class="edge">
<title>Node1&#45;&gt;Node10</title>
<g id="a_edge9_Node000001_Node000010"><a xlink:title=" ">
<path fill="none" stroke="#63b8ff" d="M485.26,-89.05C442.14,-77.48 386.43,-62.49 337,-49 334.19,-48.23 331.34,-47.45 328.45,-46.66"/>
<polygon fill="none" stroke="#63b8ff" points="484.53,-92.48 495.1,-91.69 486.35,-85.72 484.53,-92.48"/>
</a>
</g>
</g>
<!-- Node11 -->
<g id="Node000011" class="node">
<title>Node11</title>
<g id="a_Node000011"><a xlink:href="classBPMN_1_1ErrorStartEvent.html" target="_top" xlink:title=" ">
<polygon fill="white" stroke="transparent" points="466,-49 346,-49 346,0 466,0 466,-49"/>
<text text-anchor="start" x="351" y="-36.5" font-family="Helvetica,sans-Serif" font-size="10.00">BPMN::ErrorStartEvent</text>
<text text-anchor="start" x="404" y="-21.5" font-family="Helvetica,sans-Serif" font-size="10.00"> </text>
<text text-anchor="start" x="354" y="-6.5" font-family="Helvetica,sans-Serif" font-size="10.00">+</text>
<text text-anchor="start" x="371" y="-6.5" font-family="Helvetica,sans-Serif" font-size="10.00">ErrorStartEvent()</text>
<polygon fill="#666666" stroke="#666666" points="346,-31.5 346,-31.5 466,-31.5 466,-31.5 346,-31.5"/>
<polygon fill="#666666" stroke="#666666" points="346,-16.5 346,-16.5 466,-16.5 466,-16.5 346,-16.5"/>
<polygon fill="none" stroke="#666666" points="346,0 346,-49 466,-49 466,0 346,0"/>
</a>
</g>
</g>
<!-- Node1&#45;&gt;Node11 -->
<g id="edge10_Node000001_Node000011" class="edge">
<title>Node1&#45;&gt;Node11</title>
<g id="a_edge10_Node000001_Node000011"><a xlink:title=" ">
<path fill="none" stroke="#63b8ff" d="M505.97,-80.09C487.5,-70 466.92,-58.77 449.26,-49.12"/>
<polygon fill="none" stroke="#63b8ff" points="504.4,-83.22 514.85,-84.94 507.75,-77.07 504.4,-83.22"/>
</a>
</g>
</g>
<!-- Node12 -->
<g id="Node000012" class="node">
<title>Node12</title>
<g id="a_Node000012"><a xlink:href="classBPMN_1_1EscalationStartEvent.html" target="_top" xlink:title=" ">
<polygon fill="white" stroke="transparent" points="631.5,-49 484.5,-49 484.5,0 631.5,0 631.5,-49"/>
<text text-anchor="start" x="490" y="-36.5" font-family="Helvetica,sans-Serif" font-size="10.00">BPMN::EscalationStartEvent</text>
<text text-anchor="start" x="556.5" y="-21.5" font-family="Helvetica,sans-Serif" font-size="10.00"> </text>
<text text-anchor="start" x="493" y="-6.5" font-family="Helvetica,sans-Serif" font-size="10.00">+</text>
<text text-anchor="start" x="510" y="-6.5" font-family="Helvetica,sans-Serif" font-size="10.00">EscalationStartEvent()</text>
<polygon fill="#666666" stroke="#666666" points="485,-31.5 485,-31.5 632,-31.5 632,-31.5 485,-31.5"/>
<polygon fill="#666666" stroke="#666666" points="485,-16.5 485,-16.5 632,-16.5 632,-16.5 485,-16.5"/>
<polygon fill="none" stroke="#666666" points="484.5,0 484.5,-49 631.5,-49 631.5,0 484.5,0"/>
</a>
</g>
</g>
<!-- Node1&#45;&gt;Node12 -->
<g id="edge11_Node000001_Node000012" class="edge">
<title>Node1&#45;&gt;Node12</title>
<g id="a_edge11_Node000001_Node000012"><a xlink:title=" ">
<path fill="none" stroke="#63b8ff" d="M558,-74.77C558,-66.17 558,-57.1 558,-49.12"/>
<polygon fill="none" stroke="#63b8ff" points="554.5,-74.94 558,-84.94 561.5,-74.94 554.5,-74.94"/>
</a>
</g>
</g>
<!-- Node13 -->
<g id="Node000013" class="node">
<title>Node13</title>
<g id="a_Node000013"><a xlink:href="classBPMN_1_1MessageStartEvent.html" target="_top" xlink:title=" ">
<polygon fill="white" stroke="transparent" points="790,-49 650,-49 650,0 790,0 790,-49"/>
<text text-anchor="start" x="655" y="-36.5" font-family="Helvetica,sans-Serif" font-size="10.00">BPMN::MessageStartEvent</text>
<text text-anchor="start" x="658" y="-21.5" font-family="Helvetica,sans-Serif" font-size="10.00">+</text>
<text text-anchor="start" x="675" y="-21.5" font-family="Helvetica,sans-Serif" font-size="10.00">element</text>
<text text-anchor="start" x="658" y="-6.5" font-family="Helvetica,sans-Serif" font-size="10.00">+</text>
<text text-anchor="start" x="675" y="-6.5" font-family="Helvetica,sans-Serif" font-size="10.00">MessageStartEvent()</text>
<polygon fill="#666666" stroke="#666666" points="650,-31.5 650,-31.5 790,-31.5 790,-31.5 650,-31.5"/>
<polygon fill="#666666" stroke="#666666" points="650,-16.5 650,-16.5 673,-16.5 673,-16.5 650,-16.5"/>
<polygon fill="#666666" stroke="#666666" points="673,-16.5 673,-16.5 790,-16.5 790,-16.5 673,-16.5"/>
<polygon fill="none" stroke="#666666" points="650,0 650,-49 790,-49 790,0 650,0"/>
</a>
</g>
</g>
<!-- Node1&#45;&gt;Node13 -->
<g id="edge12_Node000001_Node000013" class="edge">
<title>Node1&#45;&gt;Node13</title>
<g id="a_edge12_Node000001_Node000013"><a xlink:title=" ">
<path fill="none" stroke="#63b8ff" d="M612.91,-80.36C632.74,-70.21 654.9,-58.85 673.9,-49.12"/>
<polygon fill="none" stroke="#63b8ff" points="611.29,-77.26 603.99,-84.94 614.49,-83.49 611.29,-77.26"/>
</a>
</g>
</g>
<!-- Node14 -->
<g id="Node000014" class="node">
<title>Node14</title>
<g id="a_Node000014"><a xlink:href="classBPMN_1_1SignalStartEvent.html" target="_top" xlink:title=" ">
<polygon fill="white" stroke="transparent" points="935.5,-49 808.5,-49 808.5,0 935.5,0 935.5,-49"/>
<text text-anchor="start" x="814" y="-36.5" font-family="Helvetica,sans-Serif" font-size="10.00">BPMN::SignalStartEvent</text>
<text text-anchor="start" x="817" y="-21.5" font-family="Helvetica,sans-Serif" font-size="10.00">+</text>
<text text-anchor="start" x="834" y="-21.5" font-family="Helvetica,sans-Serif" font-size="10.00">element</text>
<text text-anchor="start" x="817" y="-6.5" font-family="Helvetica,sans-Serif" font-size="10.00">+</text>
<text text-anchor="start" x="834" y="-6.5" font-family="Helvetica,sans-Serif" font-size="10.00">SignalStartEvent()</text>
<polygon fill="#666666" stroke="#666666" points="809,-31.5 809,-31.5 936,-31.5 936,-31.5 809,-31.5"/>
<polygon fill="#666666" stroke="#666666" points="809,-16.5 809,-16.5 832,-16.5 832,-16.5 809,-16.5"/>
<polygon fill="#666666" stroke="#666666" points="832,-16.5 832,-16.5 936,-16.5 936,-16.5 832,-16.5"/>
<polygon fill="none" stroke="#666666" points="808.5,0 808.5,-49 935.5,-49 935.5,0 808.5,0"/>
</a>
</g>
</g>
<!-- Node1&#45;&gt;Node14 -->
<g id="edge13_Node000001_Node000014" class="edge">
<title>Node1&#45;&gt;Node14</title>
<g id="a_edge13_Node000001_Node000014"><a xlink:title=" ">
<path fill="none" stroke="#63b8ff" d="M630.72,-91.93C678.72,-80.66 742.88,-64.94 799,-49 802.07,-48.13 805.21,-47.21 808.38,-46.27"/>
<polygon fill="none" stroke="#63b8ff" points="629.67,-88.59 620.73,-94.27 631.27,-95.4 629.67,-88.59"/>
</a>
</g>
</g>
<!-- Node15 -->
<g id="Node000015" class="node">
<title>Node15</title>
<g id="a_Node000015"><a xlink:href="classBPMN_1_1TimerStartEvent.html" target="_top" xlink:title=" ">
<polygon fill="white" stroke="transparent" points="1078.5,-49 953.5,-49 953.5,0 1078.5,0 1078.5,-49"/>
<text text-anchor="start" x="959" y="-36.5" font-family="Helvetica,sans-Serif" font-size="10.00">BPMN::TimerStartEvent</text>
<text text-anchor="start" x="962" y="-21.5" font-family="Helvetica,sans-Serif" font-size="10.00">+</text>
<text text-anchor="start" x="979" y="-21.5" font-family="Helvetica,sans-Serif" font-size="10.00">element</text>
<text text-anchor="start" x="962" y="-6.5" font-family="Helvetica,sans-Serif" font-size="10.00">+</text>
<text text-anchor="start" x="979" y="-6.5" font-family="Helvetica,sans-Serif" font-size="10.00">TimerStartEvent()</text>
<polygon fill="#666666" stroke="#666666" points="954,-31.5 954,-31.5 1079,-31.5 1079,-31.5 954,-31.5"/>
<polygon fill="#666666" stroke="#666666" points="954,-16.5 954,-16.5 977,-16.5 977,-16.5 954,-16.5"/>
<polygon fill="#666666" stroke="#666666" points="977,-16.5 977,-16.5 1079,-16.5 1079,-16.5 977,-16.5"/>
<polygon fill="none" stroke="#666666" points="953.5,0 953.5,-49 1078.5,-49 1078.5,0 953.5,0"/>
</a>
</g>
</g>
<!-- Node1&#45;&gt;Node15 -->
<g id="edge14_Node000001_Node000015" class="edge">
<title>Node1&#45;&gt;Node15</title>
<g id="a_edge14_Node000001_Node000015"><a xlink:title=" ">
<path fill="none" stroke="#63b8ff" d="M630.87,-100.98C709.19,-92.04 837,-74.98 945,-49 947.78,-48.33 950.6,-47.6 953.44,-46.83"/>
<polygon fill="none" stroke="#63b8ff" points="630.17,-97.53 620.62,-102.13 630.95,-104.49 630.17,-97.53"/>
</a>
</g>
</g>
<!-- Node2 -->
<g id="Node000002" class="node">
<title>Node2</title>
<g id="a_Node000002"><a xlink:href="classBPMN_1_1CatchEvent.html" target="_top" xlink:title=" ">
<polygon fill="white" stroke="transparent" points="608.5,-219 507.5,-219 507.5,-170 608.5,-170 608.5,-219"/>
<text text-anchor="start" x="513" y="-206.5" font-family="Helvetica,sans-Serif" font-size="10.00">BPMN::CatchEvent</text>
<text text-anchor="start" x="516" y="-191.5" font-family="Helvetica,sans-Serif" font-size="10.00">+</text>
<text text-anchor="start" x="533" y="-191.5" font-family="Helvetica,sans-Serif" font-size="10.00">element</text>
<text text-anchor="start" x="516" y="-176.5" font-family="Helvetica,sans-Serif" font-size="10.00">+</text>
<text text-anchor="start" x="533" y="-176.5" font-family="Helvetica,sans-Serif" font-size="10.00">CatchEvent()</text>
<polygon fill="#666666" stroke="#666666" points="508,-201.5 508,-201.5 609,-201.5 609,-201.5 508,-201.5"/>
<polygon fill="#666666" stroke="#666666" points="508,-186.5 508,-186.5 531,-186.5 531,-186.5 508,-186.5"/>
<polygon fill="#666666" stroke="#666666" points="531,-186.5 531,-186.5 609,-186.5 609,-186.5 531,-186.5"/>
<polygon fill="none" stroke="#666666" points="507.5,-170 507.5,-219 608.5,-219 608.5,-170 507.5,-170"/>
</a>
</g>
</g>
<!-- Node2&#45;&gt;Node1 -->
<g id="edge1_Node000001_Node000002" class="edge">
<title>Node2&#45;&gt;Node1</title>
<g id="a_edge1_Node000001_Node000002"><a xlink:title=" ">
<path fill="none" stroke="#63b8ff" d="M558,-159.77C558,-151.17 558,-142.1 558,-134.12"/>
<polygon fill="none" stroke="#63b8ff" points="554.5,-159.94 558,-169.94 561.5,-159.94 554.5,-159.94"/>
</a>
</g>
</g>
<!-- Node3 -->
<g id="Node000003" class="node">
<title>Node3</title>
<g id="a_Node000003"><a xlink:href="classBPMN_1_1Event.html" target="_top" xlink:title=" ">
<polygon fill="white" stroke="transparent" points="595,-304 521,-304 521,-255 595,-255 595,-304"/>
<text text-anchor="start" x="526" y="-291.5" font-family="Helvetica,sans-Serif" font-size="10.00">BPMN::Event</text>
<text text-anchor="start" x="528" y="-276.5" font-family="Helvetica,sans-Serif" font-size="10.00">+</text>
<text text-anchor="start" x="544" y="-276.5" font-family="Helvetica,sans-Serif" font-size="10.00">element</text>
<text text-anchor="start" x="528" y="-261.5" font-family="Helvetica,sans-Serif" font-size="10.00">+</text>
<text text-anchor="start" x="544" y="-261.5" font-family="Helvetica,sans-Serif" font-size="10.00">Event()</text>
<polygon fill="#666666" stroke="#666666" points="521,-286.5 521,-286.5 595,-286.5 595,-286.5 521,-286.5"/>
<polygon fill="#666666" stroke="#666666" points="521,-271.5 521,-271.5 542,-271.5 542,-271.5 521,-271.5"/>
<polygon fill="#666666" stroke="#666666" points="542,-271.5 542,-271.5 595,-271.5 595,-271.5 542,-271.5"/>
<polygon fill="none" stroke="#666666" points="521,-255 521,-304 595,-304 595,-255 521,-255"/>
</a>
</g>
</g>
<!-- Node3&#45;&gt;Node2 -->
<g id="edge2_Node000002_Node000003" class="edge">
<title>Node3&#45;&gt;Node2</title>
<g id="a_edge2_Node000002_Node000003"><a xlink:title=" ">
<path fill="none" stroke="#63b8ff" d="M558,-244.77C558,-236.17 558,-227.1 558,-219.12"/>
<polygon fill="none" stroke="#63b8ff" points="554.5,-244.94 558,-254.94 561.5,-244.94 554.5,-244.94"/>
</a>
</g>
</g>
<!-- Node4 -->
<g id="Node000004" class="node">
<title>Node4</title>
<g id="a_Node000004"><a xlink:href="classBPMN_1_1FlowNode.html" target="_top" xlink:title="Base class for BPMN elements that may contain incoming and outgoing sequence flows.">
<polygon fill="white" stroke="transparent" points="605.5,-434 510.5,-434 510.5,-340 605.5,-340 605.5,-434"/>
<text text-anchor="start" x="516" y="-422" font-family="Helvetica,sans-Serif" font-size="10.00">BPMN::FlowNode</text>
<text text-anchor="start" x="519" y="-407" font-family="Helvetica,sans-Serif" font-size="10.00">+</text>
<text text-anchor="start" x="536" y="-407" font-family="Helvetica,sans-Serif" font-size="10.00">element</text>
<text text-anchor="start" x="519" y="-392" font-family="Helvetica,sans-Serif" font-size="10.00">+</text>
<text text-anchor="start" x="536" y="-392" font-family="Helvetica,sans-Serif" font-size="10.00">name</text>
<text text-anchor="start" x="519" y="-377" font-family="Helvetica,sans-Serif" font-size="10.00">+</text>
<text text-anchor="start" x="536" y="-377" font-family="Helvetica,sans-Serif" font-size="10.00">incoming</text>
<text text-anchor="start" x="519" y="-362" font-family="Helvetica,sans-Serif" font-size="10.00">+</text>
<text text-anchor="start" x="536" y="-362" font-family="Helvetica,sans-Serif" font-size="10.00">outgoing</text>
<text text-anchor="start" x="519" y="-347" font-family="Helvetica,sans-Serif" font-size="10.00">+</text>
<text text-anchor="start" x="536" y="-347" font-family="Helvetica,sans-Serif" font-size="10.00">FlowNode()</text>
<polygon fill="#666666" stroke="#666666" points="511,-417 511,-417 606,-417 606,-417 511,-417"/>
<polygon fill="#666666" stroke="#666666" points="511,-357 511,-357 534,-357 534,-357 511,-357"/>
<polygon fill="#666666" stroke="#666666" points="534,-357 534,-357 606,-357 606,-357 534,-357"/>
<polygon fill="none" stroke="#666666" points="510.5,-340 510.5,-434 605.5,-434 605.5,-340 510.5,-340"/>
</a>
</g>
</g>
<!-- Node4&#45;&gt;Node3 -->
<g id="edge3_Node000003_Node000004" class="edge">
<title>Node4&#45;&gt;Node3</title>
<g id="a_edge3_Node000003_Node000004"><a xlink:title=" ">
<path fill="none" stroke="#63b8ff" d="M558,-329.59C558,-320.62 558,-311.79 558,-304.15"/>
<polygon fill="none" stroke="#63b8ff" points="554.5,-329.73 558,-339.73 561.5,-329.73 554.5,-329.73"/>
</a>
</g>
</g>
<!-- Node5 -->
<g id="Node000005" class="node">
<title>Node5</title>
<g id="a_Node000005"><a xlink:href="classBPMN_1_1ChildNode.html" target="_top" xlink:title="Base class for BPMN elements within a Scope.">
<polygon fill="white" stroke="transparent" points="606,-549 510,-549 510,-470 606,-470 606,-549"/>
<text text-anchor="start" x="515" y="-536.5" font-family="Helvetica,sans-Serif" font-size="10.00">BPMN::ChildNode</text>
<text text-anchor="start" x="518" y="-521.5" font-family="Helvetica,sans-Serif" font-size="10.00">+</text>
<text text-anchor="start" x="535" y="-521.5" font-family="Helvetica,sans-Serif" font-size="10.00">parent</text>
<text text-anchor="start" x="518" y="-506.5" font-family="Helvetica,sans-Serif" font-size="10.00">+</text>
<text text-anchor="start" x="535" y="-506.5" font-family="Helvetica,sans-Serif" font-size="10.00">ChildNode()</text>
<text text-anchor="start" x="518" y="-491.5" font-family="Helvetica,sans-Serif" font-size="10.00">+</text>
<text text-anchor="start" x="535" y="-491.5" font-family="Helvetica,sans-Serif" font-size="10.00">ancestor()</text>
<text text-anchor="start" x="518" y="-476.5" font-family="Helvetica,sans-Serif" font-size="10.00">+</text>
<text text-anchor="start" x="535" y="-476.5" font-family="Helvetica,sans-Serif" font-size="10.00">ancestor()</text>
<polygon fill="#666666" stroke="#666666" points="510,-531.5 510,-531.5 606,-531.5 606,-531.5 510,-531.5"/>
<polygon fill="#666666" stroke="#666666" points="510,-516.5 510,-516.5 533,-516.5 533,-516.5 510,-516.5"/>
<polygon fill="#666666" stroke="#666666" points="533,-516.5 533,-516.5 606,-516.5 606,-516.5 533,-516.5"/>
<polygon fill="none" stroke="#666666" points="510,-470 510,-549 606,-549 606,-470 510,-470"/>
</a>
</g>
</g>
<!-- Node5&#45;&gt;Node4 -->
<g id="edge4_Node000004_Node000005" class="edge">
<title>Node5&#45;&gt;Node4</title>
<g id="a_edge4_Node000004_Node000005"><a xlink:title=" ">
<path fill="none" stroke="#63b8ff" d="M558,-459.68C558,-451.3 558,-442.61 558,-434.29"/>
<polygon fill="none" stroke="#63b8ff" points="554.5,-459.71 558,-469.71 561.5,-459.71 554.5,-459.71"/>
</a>
</g>
</g>
<!-- Node6 -->
<g id="Node000006" class="node">
<title>Node6</title>
<g id="a_Node000006"><a xlink:href="classBPMN_1_1Node.html" target="_top" xlink:title="Base class for all nodes in a BPMN model.">
<polygon fill="white" stroke="transparent" points="593.5,-709 522.5,-709 522.5,-585 593.5,-585 593.5,-709"/>
<text text-anchor="start" x="528" y="-697" font-family="Helvetica,sans-Serif" font-size="10.00">BPMN::Node</text>
<text text-anchor="start" x="528" y="-682" font-family="Helvetica,sans-Serif" font-size="10.00">+</text>
<text text-anchor="start" x="542" y="-682" font-family="Helvetica,sans-Serif" font-size="10.00">receiving</text>
<text text-anchor="start" x="528" y="-667" font-family="Helvetica,sans-Serif" font-size="10.00">+</text>
<text text-anchor="start" x="542" y="-667" font-family="Helvetica,sans-Serif" font-size="10.00">sending</text>
<text text-anchor="start" x="528" y="-652" font-family="Helvetica,sans-Serif" font-size="10.00">+</text>
<text text-anchor="start" x="542" y="-652" font-family="Helvetica,sans-Serif" font-size="10.00">Node()</text>
<text text-anchor="start" x="528" y="-637" font-family="Helvetica,sans-Serif" font-size="10.00">+</text>
<text text-anchor="start" x="542" y="-637" font-family="Helvetica,sans-Serif" font-size="10.00">find()</text>
<text text-anchor="start" x="528" y="-622" font-family="Helvetica,sans-Serif" font-size="10.00">+</text>
<text text-anchor="start" x="542" y="-622" font-family="Helvetica,sans-Serif" font-size="10.00">find()</text>
<text text-anchor="start" x="528" y="-607" font-family="Helvetica,sans-Serif" font-size="10.00">+</text>
<text text-anchor="start" x="542" y="-607" font-family="Helvetica,sans-Serif" font-size="10.00">find_all()</text>
<text text-anchor="start" x="528" y="-592" font-family="Helvetica,sans-Serif" font-size="10.00">+</text>
<text text-anchor="start" x="542" y="-592" font-family="Helvetica,sans-Serif" font-size="10.00">find_all()</text>
<polygon fill="#666666" stroke="#666666" points="523,-692 523,-692 594,-692 594,-692 523,-692"/>
<polygon fill="#666666" stroke="#666666" points="523,-662 523,-662 540,-662 540,-662 523,-662"/>
<polygon fill="#666666" stroke="#666666" points="540,-662 540,-662 594,-662 594,-662 540,-662"/>
<polygon fill="none" stroke="#666666" points="522.5,-585 522.5,-709 593.5,-709 593.5,-585 522.5,-585"/>
</a>
</g>
</g>
<!-- Node6&#45;&gt;Node5 -->
<g id="edge5_Node000005_Node000006" class="edge">
<title>Node6&#45;&gt;Node5</title>
<g id="a_edge5_Node000005_Node000006"><a xlink:title=" ">
<path fill="none" stroke="#63b8ff" d="M558,-574.93C558,-566.02 558,-557.19 558,-549.05"/>
<polygon fill="none" stroke="#63b8ff" points="554.5,-574.99 558,-584.99 561.5,-574.99 554.5,-574.99"/>
</a>
</g>
</g>
<!-- Node7 -->
<g id="Node000007" class="node">
<title>Node7</title>
<g id="a_Node000007"><a xlink:href="classBPMN_1_1BaseElement.html" target="_top" xlink:title="Base class for all core BPMN elements.">
<polygon fill="white" stroke="transparent" points="615.5,-884 500.5,-884 500.5,-745 615.5,-745 615.5,-884"/>
<text text-anchor="start" x="508.5" y="-871.5" font-family="Helvetica,sans-Serif" font-size="10.00">BPMN::BaseElement</text>
<text text-anchor="start" x="505" y="-856.5" font-family="Helvetica,sans-Serif" font-size="10.00">+</text>
<text text-anchor="start" x="518" y="-856.5" font-family="Helvetica,sans-Serif" font-size="10.00">element</text>
<text text-anchor="start" x="505" y="-841.5" font-family="Helvetica,sans-Serif" font-size="10.00">+</text>
<text text-anchor="start" x="518" y="-841.5" font-family="Helvetica,sans-Serif" font-size="10.00">id</text>
<text text-anchor="start" x="505" y="-826.5" font-family="Helvetica,sans-Serif" font-size="10.00">+</text>
<text text-anchor="start" x="518" y="-826.5" font-family="Helvetica,sans-Serif" font-size="10.00">extensionElements</text>
<text text-anchor="start" x="505" y="-811.5" font-family="Helvetica,sans-Serif" font-size="10.00">+</text>
<text text-anchor="start" x="518" y="-811.5" font-family="Helvetica,sans-Serif" font-size="10.00">BaseElement()</text>
<text text-anchor="start" x="505" y="-796.5" font-family="Helvetica,sans-Serif" font-size="10.00">+</text>
<text text-anchor="start" x="518" y="-796.5" font-family="Helvetica,sans-Serif" font-size="10.00">is()</text>
<text text-anchor="start" x="505" y="-781.5" font-family="Helvetica,sans-Serif" font-size="10.00">+</text>
<text text-anchor="start" x="518" y="-781.5" font-family="Helvetica,sans-Serif" font-size="10.00">is()</text>
<text text-anchor="start" x="505" y="-766.5" font-family="Helvetica,sans-Serif" font-size="10.00">+</text>
<text text-anchor="start" x="518" y="-766.5" font-family="Helvetica,sans-Serif" font-size="10.00">get()</text>
<text text-anchor="start" x="505" y="-751.5" font-family="Helvetica,sans-Serif" font-size="10.00">+</text>
<text text-anchor="start" x="518" y="-751.5" font-family="Helvetica,sans-Serif" font-size="10.00">get()</text>
<polygon fill="#666666" stroke="#666666" points="501,-866.5 501,-866.5 616,-866.5 616,-866.5 501,-866.5"/>
<polygon fill="#666666" stroke="#666666" points="501,-821.5 501,-821.5 516,-821.5 516,-821.5 501,-821.5"/>
<polygon fill="#666666" stroke="#666666" points="516,-821.5 516,-821.5 616,-821.5 616,-821.5 516,-821.5"/>
<polygon fill="none" stroke="#666666" points="500.5,-745 500.5,-884 615.5,-884 615.5,-745 500.5,-745"/>
</a>
</g>
</g>
<!-- Node7&#45;&gt;Node6 -->
<g id="edge6_Node000006_Node000007" class="edge">
<title>Node7&#45;&gt;Node6</title>
<g id="a_edge6_Node000006_Node000007"><a xlink:title=" ">
<path fill="none" stroke="#63b8ff" d="M558,-734.71C558,-726.12 558,-717.47 558,-709.14"/>
<polygon fill="none" stroke="#63b8ff" points="554.5,-734.75 558,-744.75 561.5,-734.75 554.5,-734.75"/>
</a>
</g>
</g>
<!-- Node8 -->
<g id="Node000008" class="node">
<title>Node8</title>
<g id="a_Node000008"><a xlink:href="classBPMN_1_1Element.html" target="_top" xlink:title="Abstract base class for all elements in a BPMN model.">
<polygon fill="white" stroke="transparent" points="601,-1029 515,-1029 515,-920 601,-920 601,-1029"/>
<text text-anchor="start" x="520" y="-1016.5" font-family="Helvetica,sans-Serif" font-size="10.00">BPMN::Element</text>
<text text-anchor="start" x="556" y="-1001.5" font-family="Helvetica,sans-Serif" font-size="10.00"> </text>
<text text-anchor="start" x="520" y="-986.5" font-family="Helvetica,sans-Serif" font-size="10.00">+</text>
<text text-anchor="start" x="534" y="-986.5" font-family="Helvetica,sans-Serif" font-size="10.00">~Element()</text>
<text text-anchor="start" x="520" y="-971.5" font-family="Helvetica,sans-Serif" font-size="10.00">+</text>
<text text-anchor="start" x="534" y="-971.5" font-family="Helvetica,sans-Serif" font-size="10.00">represents()</text>
<text text-anchor="start" x="520" y="-956.5" font-family="Helvetica,sans-Serif" font-size="10.00">+</text>
<text text-anchor="start" x="534" y="-956.5" font-family="Helvetica,sans-Serif" font-size="10.00">represents()</text>
<text text-anchor="start" x="520" y="-941.5" font-family="Helvetica,sans-Serif" font-size="10.00">+</text>
<text text-anchor="start" x="534" y="-941.5" font-family="Helvetica,sans-Serif" font-size="10.00">as()</text>
<text text-anchor="start" x="520" y="-926.5" font-family="Helvetica,sans-Serif" font-size="10.00">+</text>
<text text-anchor="start" x="534" y="-926.5" font-family="Helvetica,sans-Serif" font-size="10.00">as()</text>
<polygon fill="#666666" stroke="#666666" points="515,-1011.5 515,-1011.5 601,-1011.5 601,-1011.5 515,-1011.5"/>
<polygon fill="#666666" stroke="#666666" points="515,-996.5 515,-996.5 601,-996.5 601,-996.5 515,-996.5"/>
<polygon fill="none" stroke="#666666" points="515,-920 515,-1029 601,-1029 601,-920 515,-920"/>
</a>
</g>
</g>
<!-- Node8&#45;&gt;Node7 -->
<g id="edge7_Node000007_Node000008" class="edge">
<title>Node8&#45;&gt;Node7</title>
<g id="a_edge7_Node000007_Node000008"><a xlink:title=" ">
<path fill="none" stroke="#63b8ff" d="M558,-909.55C558,-901.23 558,-892.67 558,-884.28"/>
<polygon fill="none" stroke="#63b8ff" points="554.5,-909.57 558,-919.57 561.5,-909.57 554.5,-909.57"/>
</a>
</g>
</g>
</g>
</svg>
