<?xml version="1.0" encoding="UTF-8" standalone="no"?>
<!DOCTYPE svg PUBLIC "-//W3C//DTD SVG 1.1//EN"
 "http://www.w3.org/Graphics/SVG/1.1/DTD/svg11.dtd">
<!-- Generated by graphviz version 2.43.0 (0)
 -->
<!-- Title: XML::bpmn::tChoreographyActivity Pages: 1 -->
<svg width="751pt" height="1059pt"
 viewBox="0.00 0.00 750.50 1059.00" xmlns="http://www.w3.org/2000/svg" xmlns:xlink="http://www.w3.org/1999/xlink">
<g id="graph0" class="graph" transform="scale(1 1) rotate(0) translate(4 1055)">
<title>XML::bpmn::tChoreographyActivity</title>
<!-- Node1 -->
<g id="node1" class="node">
<title>Node1</title>
<g id="a_node1"><a xlink:title=" ">
<polygon fill="#bfbfbf" stroke="black" points="303.5,-210.5 303.5,-322.5 452.5,-322.5 452.5,-210.5 303.5,-210.5"/>
<text text-anchor="start" x="311.5" y="-310.5" font-family="Helvetica,sans-Serif" font-size="10.00">XML::bpmn::tChoreography</text>
<text text-anchor="middle" x="378" y="-299.5" font-family="Helvetica,sans-Serif" font-size="10.00">Activity</text>
<polyline fill="none" stroke="black" points="303.5,-292.5 452.5,-292.5 "/>
<text text-anchor="start" x="311.5" y="-280.5" font-family="Helvetica,sans-Serif" font-size="10.00">+ participantRef</text>
<text text-anchor="start" x="311.5" y="-269.5" font-family="Helvetica,sans-Serif" font-size="10.00">+ correlationKey</text>
<text text-anchor="start" x="311.5" y="-258.5" font-family="Helvetica,sans-Serif" font-size="10.00">+ initiatingParticipantRef</text>
<text text-anchor="start" x="311.5" y="-247.5" font-family="Helvetica,sans-Serif" font-size="10.00">+ loopType</text>
<text text-anchor="start" x="311.5" y="-236.5" font-family="Helvetica,sans-Serif" font-size="10.00">+ defaults</text>
<polyline fill="none" stroke="black" points="303.5,-229.5 452.5,-229.5 "/>
<text text-anchor="start" x="311.5" y="-217.5" font-family="Helvetica,sans-Serif" font-size="10.00"># tChoreographyActivity()</text>
</a>
</g>
</g>
<!-- Node6 -->
<g id="node6" class="node">
<title>Node6</title>
<g id="a_node6"><a xlink:href="classXML_1_1bpmn_1_1choreographyActivity.html" target="_top" xlink:title=" ">
<polygon fill="none" stroke="black" points="0,-105.5 0,-162.5 182,-162.5 182,-105.5 0,-105.5"/>
<text text-anchor="middle" x="91" y="-150.5" font-family="Helvetica,sans-Serif" font-size="10.00">XML::bpmn::choreographyActivity</text>
<polyline fill="none" stroke="black" points="0,-143.5 182,-143.5 "/>
<text text-anchor="start" x="8" y="-131.5" font-family="Helvetica,sans-Serif" font-size="10.00">+ defaults</text>
<polyline fill="none" stroke="black" points="0,-124.5 182,-124.5 "/>
<text text-anchor="start" x="8" y="-112.5" font-family="Helvetica,sans-Serif" font-size="10.00"># choreographyActivity()</text>
</a>
</g>
</g>
<!-- Node1&#45;&gt;Node6 -->
<g id="edge5" class="edge">
<title>Node1&#45;&gt;Node6</title>
<path fill="none" stroke="midnightblue" d="M294.07,-227.34C248.48,-206.61 193.15,-181.45 151.76,-162.63"/>
<polygon fill="none" stroke="midnightblue" points="292.79,-230.6 303.34,-231.55 295.69,-224.23 292.79,-230.6"/>
</g>
<!-- Node7 -->
<g id="node7" class="node">
<title>Node7</title>
<g id="a_node7"><a xlink:href="classXML_1_1bpmn_1_1tCallChoreography.html" target="_top" xlink:title=" ">
<polygon fill="none" stroke="black" points="200,-94.5 200,-173.5 368,-173.5 368,-94.5 200,-94.5"/>
<text text-anchor="middle" x="284" y="-161.5" font-family="Helvetica,sans-Serif" font-size="10.00">XML::bpmn::tCallChoreography</text>
<polyline fill="none" stroke="black" points="200,-154.5 368,-154.5 "/>
<text text-anchor="start" x="208" y="-142.5" font-family="Helvetica,sans-Serif" font-size="10.00">+ participantAssociation</text>
<text text-anchor="start" x="208" y="-131.5" font-family="Helvetica,sans-Serif" font-size="10.00">+ calledChoreographyRef</text>
<text text-anchor="start" x="208" y="-120.5" font-family="Helvetica,sans-Serif" font-size="10.00">+ defaults</text>
<polyline fill="none" stroke="black" points="200,-113.5 368,-113.5 "/>
<text text-anchor="start" x="208" y="-101.5" font-family="Helvetica,sans-Serif" font-size="10.00"># tCallChoreography()</text>
</a>
</g>
</g>
<!-- Node1&#45;&gt;Node7 -->
<g id="edge6" class="edge">
<title>Node1&#45;&gt;Node7</title>
<path fill="none" stroke="midnightblue" d="M332.11,-201.79C325.23,-192.24 318.32,-182.64 311.96,-173.82"/>
<polygon fill="none" stroke="midnightblue" points="329.45,-204.09 338.14,-210.16 335.13,-200 329.45,-204.09"/>
</g>
<!-- Node9 -->
<g id="node9" class="node">
<title>Node9</title>
<g id="a_node9"><a xlink:href="classXML_1_1bpmn_1_1tChoreographyTask.html" target="_top" xlink:title=" ">
<polygon fill="none" stroke="black" points="386.5,-100 386.5,-168 557.5,-168 557.5,-100 386.5,-100"/>
<text text-anchor="middle" x="472" y="-156" font-family="Helvetica,sans-Serif" font-size="10.00">XML::bpmn::tChoreographyTask</text>
<polyline fill="none" stroke="black" points="386.5,-149 557.5,-149 "/>
<text text-anchor="start" x="394.5" y="-137" font-family="Helvetica,sans-Serif" font-size="10.00">+ messageFlowRef</text>
<text text-anchor="start" x="394.5" y="-126" font-family="Helvetica,sans-Serif" font-size="10.00">+ defaults</text>
<polyline fill="none" stroke="black" points="386.5,-119 557.5,-119 "/>
<text text-anchor="start" x="394.5" y="-107" font-family="Helvetica,sans-Serif" font-size="10.00"># tChoreographyTask()</text>
</a>
</g>
</g>
<!-- Node1&#45;&gt;Node9 -->
<g id="edge8" class="edge">
<title>Node1&#45;&gt;Node9</title>
<path fill="none" stroke="midnightblue" d="M423.94,-201.72C432.32,-190.09 440.75,-178.39 448.15,-168.11"/>
<polygon fill="none" stroke="midnightblue" points="420.87,-200 417.86,-210.16 426.55,-204.09 420.87,-200"/>
</g>
<!-- Node11 -->
<g id="node11" class="node">
<title>Node11</title>
<g id="a_node11"><a xlink:href="classXML_1_1bpmn_1_1tSubChoreography.html" target="_top" xlink:title=" ">
<polygon fill="none" stroke="black" points="575.5,-94.5 575.5,-173.5 742.5,-173.5 742.5,-94.5 575.5,-94.5"/>
<text text-anchor="middle" x="659" y="-161.5" font-family="Helvetica,sans-Serif" font-size="10.00">XML::bpmn::tSubChoreography</text>
<polyline fill="none" stroke="black" points="575.5,-154.5 742.5,-154.5 "/>
<text text-anchor="start" x="583.5" y="-142.5" font-family="Helvetica,sans-Serif" font-size="10.00">+ flowElement</text>
<text text-anchor="start" x="583.5" y="-131.5" font-family="Helvetica,sans-Serif" font-size="10.00">+ artifact</text>
<text text-anchor="start" x="583.5" y="-120.5" font-family="Helvetica,sans-Serif" font-size="10.00">+ defaults</text>
<polyline fill="none" stroke="black" points="575.5,-113.5 742.5,-113.5 "/>
<text text-anchor="start" x="583.5" y="-101.5" font-family="Helvetica,sans-Serif" font-size="10.00"># tSubChoreography()</text>
</a>
</g>
</g>
<!-- Node1&#45;&gt;Node11 -->
<g id="edge10" class="edge">
<title>Node1&#45;&gt;Node11</title>
<path fill="none" stroke="midnightblue" d="M462.07,-226.46C498.07,-209.74 540.01,-190.26 575.91,-173.59"/>
<polygon fill="none" stroke="midnightblue" points="460.16,-223.48 452.57,-230.87 463.11,-229.83 460.16,-223.48"/>
</g>
<!-- Node2 -->
<g id="node2" class="node">
<title>Node2</title>
<g id="a_node2"><a xlink:href="classXML_1_1bpmn_1_1tFlowNode.html" target="_top" xlink:title=" ">
<polygon fill="none" stroke="black" points="313,-359.5 313,-438.5 443,-438.5 443,-359.5 313,-359.5"/>
<text text-anchor="middle" x="378" y="-426.5" font-family="Helvetica,sans-Serif" font-size="10.00">XML::bpmn::tFlowNode</text>
<polyline fill="none" stroke="black" points="313,-419.5 443,-419.5 "/>
<text text-anchor="start" x="321" y="-407.5" font-family="Helvetica,sans-Serif" font-size="10.00">+ incoming</text>
<text text-anchor="start" x="321" y="-396.5" font-family="Helvetica,sans-Serif" font-size="10.00">+ outgoing</text>
<text text-anchor="start" x="321" y="-385.5" font-family="Helvetica,sans-Serif" font-size="10.00">+ defaults</text>
<polyline fill="none" stroke="black" points="313,-378.5 443,-378.5 "/>
<text text-anchor="start" x="321" y="-366.5" font-family="Helvetica,sans-Serif" font-size="10.00"># tFlowNode()</text>
</a>
</g>
</g>
<!-- Node2&#45;&gt;Node1 -->
<g id="edge1" class="edge">
<title>Node2&#45;&gt;Node1</title>
<path fill="none" stroke="midnightblue" d="M378,-349.01C378,-340.46 378,-331.52 378,-322.81"/>
<polygon fill="none" stroke="midnightblue" points="374.5,-349.2 378,-359.2 381.5,-349.2 374.5,-349.2"/>
</g>
<!-- Node3 -->
<g id="node3" class="node">
<title>Node3</title>
<g id="a_node3"><a xlink:href="classXML_1_1bpmn_1_1tFlowElement.html" target="_top" xlink:title=" ">
<polygon fill="none" stroke="black" points="305.5,-475.5 305.5,-576.5 450.5,-576.5 450.5,-475.5 305.5,-475.5"/>
<text text-anchor="middle" x="378" y="-564.5" font-family="Helvetica,sans-Serif" font-size="10.00">XML::bpmn::tFlowElement</text>
<polyline fill="none" stroke="black" points="305.5,-557.5 450.5,-557.5 "/>
<text text-anchor="start" x="313.5" y="-545.5" font-family="Helvetica,sans-Serif" font-size="10.00">+ auditing</text>
<text text-anchor="start" x="313.5" y="-534.5" font-family="Helvetica,sans-Serif" font-size="10.00">+ monitoring</text>
<text text-anchor="start" x="313.5" y="-523.5" font-family="Helvetica,sans-Serif" font-size="10.00">+ categoryValueRef</text>
<text text-anchor="start" x="313.5" y="-512.5" font-family="Helvetica,sans-Serif" font-size="10.00">+ name</text>
<text text-anchor="start" x="313.5" y="-501.5" font-family="Helvetica,sans-Serif" font-size="10.00">+ defaults</text>
<polyline fill="none" stroke="black" points="305.5,-494.5 450.5,-494.5 "/>
<text text-anchor="start" x="313.5" y="-482.5" font-family="Helvetica,sans-Serif" font-size="10.00"># tFlowElement()</text>
</a>
</g>
</g>
<!-- Node3&#45;&gt;Node2 -->
<g id="edge2" class="edge">
<title>Node3&#45;&gt;Node2</title>
<path fill="none" stroke="midnightblue" d="M378,-465.19C378,-456.22 378,-447.18 378,-438.81"/>
<polygon fill="none" stroke="midnightblue" points="374.5,-465.24 378,-475.24 381.5,-465.24 374.5,-465.24"/>
</g>
<!-- Node4 -->
<g id="node4" class="node">
<title>Node4</title>
<g id="a_node4"><a xlink:href="classXML_1_1bpmn_1_1tBaseElement.html" target="_top" xlink:title=" ">
<polygon fill="none" stroke="black" points="305,-613.5 305,-703.5 451,-703.5 451,-613.5 305,-613.5"/>
<text text-anchor="middle" x="378" y="-691.5" font-family="Helvetica,sans-Serif" font-size="10.00">XML::bpmn::tBaseElement</text>
<polyline fill="none" stroke="black" points="305,-684.5 451,-684.5 "/>
<text text-anchor="start" x="313" y="-672.5" font-family="Helvetica,sans-Serif" font-size="10.00">+ documentation</text>
<text text-anchor="start" x="313" y="-661.5" font-family="Helvetica,sans-Serif" font-size="10.00">+ extensionElements</text>
<text text-anchor="start" x="313" y="-650.5" font-family="Helvetica,sans-Serif" font-size="10.00">+ id</text>
<text text-anchor="start" x="313" y="-639.5" font-family="Helvetica,sans-Serif" font-size="10.00">+ defaults</text>
<polyline fill="none" stroke="black" points="305,-632.5 451,-632.5 "/>
<text text-anchor="start" x="313" y="-620.5" font-family="Helvetica,sans-Serif" font-size="10.00"># tBaseElement()</text>
</a>
</g>
</g>
<!-- Node4&#45;&gt;Node3 -->
<g id="edge3" class="edge">
<title>Node4&#45;&gt;Node3</title>
<path fill="none" stroke="midnightblue" d="M378,-603.13C378,-594.31 378,-585.22 378,-576.52"/>
<polygon fill="none" stroke="midnightblue" points="374.5,-603.32 378,-613.32 381.5,-603.32 374.5,-603.32"/>
</g>
<!-- Node5 -->
<g id="node5" class="node">
<title>Node5</title>
<g id="a_node5"><a xlink:href="classXML_1_1XMLObject.html" target="_top" xlink:title="A class representing a node in an XML&#45;tree.">
<polygon fill="none" stroke="black" points="315,-740.5 315,-1050.5 441,-1050.5 441,-740.5 315,-740.5"/>
<text text-anchor="middle" x="378" y="-1038.5" font-family="Helvetica,sans-Serif" font-size="10.00">XML::XMLObject</text>
<polyline fill="none" stroke="black" points="315,-1031.5 441,-1031.5 "/>
<text text-anchor="start" x="323" y="-1019.5" font-family="Helvetica,sans-Serif" font-size="10.00">+ xmlns</text>
<text text-anchor="start" x="323" y="-1008.5" font-family="Helvetica,sans-Serif" font-size="10.00">+ className</text>
<text text-anchor="start" x="323" y="-997.5" font-family="Helvetica,sans-Serif" font-size="10.00">+ prefix</text>
<text text-anchor="start" x="323" y="-986.5" font-family="Helvetica,sans-Serif" font-size="10.00">+ elementName</text>
<text text-anchor="start" x="323" y="-975.5" font-family="Helvetica,sans-Serif" font-size="10.00">+ textContent</text>
<text text-anchor="start" x="323" y="-964.5" font-family="Helvetica,sans-Serif" font-size="10.00">+ children</text>
<text text-anchor="start" x="323" y="-953.5" font-family="Helvetica,sans-Serif" font-size="10.00">+ attributes</text>
<text text-anchor="start" x="323" y="-942.5" font-family="Helvetica,sans-Serif" font-size="10.00">+ defaults</text>
<text text-anchor="start" x="323" y="-931.5" font-family="Helvetica,sans-Serif" font-size="10.00"># factory</text>
<polyline fill="none" stroke="black" points="315,-924.5 441,-924.5 "/>
<text text-anchor="start" x="323" y="-912.5" font-family="Helvetica,sans-Serif" font-size="10.00">+ ~XMLObject()</text>
<text text-anchor="start" x="323" y="-901.5" font-family="Helvetica,sans-Serif" font-size="10.00">+ is()</text>
<text text-anchor="start" x="323" y="-890.5" font-family="Helvetica,sans-Serif" font-size="10.00">+ is()</text>
<text text-anchor="start" x="323" y="-879.5" font-family="Helvetica,sans-Serif" font-size="10.00">+ get()</text>
<text text-anchor="start" x="323" y="-868.5" font-family="Helvetica,sans-Serif" font-size="10.00">+ get()</text>
<text text-anchor="start" x="323" y="-857.5" font-family="Helvetica,sans-Serif" font-size="10.00">+ find()</text>
<text text-anchor="start" x="323" y="-846.5" font-family="Helvetica,sans-Serif" font-size="10.00">+ find()</text>
<text text-anchor="start" x="323" y="-835.5" font-family="Helvetica,sans-Serif" font-size="10.00">+ stringify()</text>
<text text-anchor="start" x="323" y="-824.5" font-family="Helvetica,sans-Serif" font-size="10.00">+ getRequiredChild()</text>
<text text-anchor="start" x="323" y="-813.5" font-family="Helvetica,sans-Serif" font-size="10.00">+ getOptionalChild()</text>
<text text-anchor="start" x="323" y="-802.5" font-family="Helvetica,sans-Serif" font-size="10.00">and 6 more...</text>
<text text-anchor="start" x="323" y="-791.5" font-family="Helvetica,sans-Serif" font-size="10.00">+ createFromStream()</text>
<text text-anchor="start" x="323" y="-780.5" font-family="Helvetica,sans-Serif" font-size="10.00">+ createFromString()</text>
<text text-anchor="start" x="323" y="-769.5" font-family="Helvetica,sans-Serif" font-size="10.00">+ createFromFile()</text>
<text text-anchor="start" x="323" y="-758.5" font-family="Helvetica,sans-Serif" font-size="10.00"># XMLObject()</text>
<text text-anchor="start" x="323" y="-747.5" font-family="Helvetica,sans-Serif" font-size="10.00"># createObject()</text>
</a>
</g>
</g>
<!-- Node5&#45;&gt;Node4 -->
<g id="edge4" class="edge">
<title>Node5&#45;&gt;Node4</title>
<path fill="none" stroke="midnightblue" d="M378,-730.35C378,-720.89 378,-711.91 378,-703.72"/>
<polygon fill="none" stroke="midnightblue" points="374.5,-730.37 378,-740.37 381.5,-730.37 374.5,-730.37"/>
</g>
<!-- Node8 -->
<g id="node8" class="node">
<title>Node8</title>
<g id="a_node8"><a xlink:href="classXML_1_1bpmn_1_1callChoreography.html" target="_top" xlink:title=" ">
<polygon fill="none" stroke="black" points="202.5,-0.5 202.5,-57.5 365.5,-57.5 365.5,-0.5 202.5,-0.5"/>
<text text-anchor="middle" x="284" y="-45.5" font-family="Helvetica,sans-Serif" font-size="10.00">XML::bpmn::callChoreography</text>
<polyline fill="none" stroke="black" points="202.5,-38.5 365.5,-38.5 "/>
<text text-anchor="start" x="210.5" y="-26.5" font-family="Helvetica,sans-Serif" font-size="10.00">+ defaults</text>
<polyline fill="none" stroke="black" points="202.5,-19.5 365.5,-19.5 "/>
<text text-anchor="start" x="210.5" y="-7.5" font-family="Helvetica,sans-Serif" font-size="10.00"># callChoreography()</text>
</a>
</g>
</g>
<!-- Node7&#45;&gt;Node8 -->
<g id="edge7" class="edge">
<title>Node7&#45;&gt;Node8</title>
<path fill="none" stroke="midnightblue" d="M284,-84.16C284,-75.04 284,-65.81 284,-57.61"/>
<polygon fill="none" stroke="midnightblue" points="280.5,-84.35 284,-94.35 287.5,-84.35 280.5,-84.35"/>
</g>
<!-- Node10 -->
<g id="node10" class="node">
<title>Node10</title>
<g id="a_node10"><a xlink:href="classXML_1_1bpmn_1_1choreographyTask.html" target="_top" xlink:title=" ">
<polygon fill="none" stroke="black" points="389,-0.5 389,-57.5 555,-57.5 555,-0.5 389,-0.5"/>
<text text-anchor="middle" x="472" y="-45.5" font-family="Helvetica,sans-Serif" font-size="10.00">XML::bpmn::choreographyTask</text>
<polyline fill="none" stroke="black" points="389,-38.5 555,-38.5 "/>
<text text-anchor="start" x="397" y="-26.5" font-family="Helvetica,sans-Serif" font-size="10.00">+ defaults</text>
<polyline fill="none" stroke="black" points="389,-19.5 555,-19.5 "/>
<text text-anchor="start" x="397" y="-7.5" font-family="Helvetica,sans-Serif" font-size="10.00"># choreographyTask()</text>
</a>
</g>
</g>
<!-- Node9&#45;&gt;Node10 -->
<g id="edge9" class="edge">
<title>Node9&#45;&gt;Node10</title>
<path fill="none" stroke="midnightblue" d="M472,-89.65C472,-78.79 472,-67.43 472,-57.58"/>
<polygon fill="none" stroke="midnightblue" points="468.5,-89.84 472,-99.84 475.5,-89.84 468.5,-89.84"/>
</g>
<!-- Node12 -->
<g id="node12" class="node">
<title>Node12</title>
<g id="a_node12"><a xlink:href="classXML_1_1bpmn_1_1subChoreography.html" target="_top" xlink:title=" ">
<polygon fill="none" stroke="black" points="577.5,-0.5 577.5,-57.5 740.5,-57.5 740.5,-0.5 577.5,-0.5"/>
<text text-anchor="middle" x="659" y="-45.5" font-family="Helvetica,sans-Serif" font-size="10.00">XML::bpmn::subChoreography</text>
<polyline fill="none" stroke="black" points="577.5,-38.5 740.5,-38.5 "/>
<text text-anchor="start" x="585.5" y="-26.5" font-family="Helvetica,sans-Serif" font-size="10.00">+ defaults</text>
<polyline fill="none" stroke="black" points="577.5,-19.5 740.5,-19.5 "/>
<text text-anchor="start" x="585.5" y="-7.5" font-family="Helvetica,sans-Serif" font-size="10.00"># subChoreography()</text>
</a>
</g>
</g>
<!-- Node11&#45;&gt;Node12 -->
<g id="edge11" class="edge">
<title>Node11&#45;&gt;Node12</title>
<path fill="none" stroke="midnightblue" d="M659,-84.16C659,-75.04 659,-65.81 659,-57.61"/>
<polygon fill="none" stroke="midnightblue" points="655.5,-84.35 659,-94.35 662.5,-84.35 655.5,-84.35"/>
</g>
</g>
</svg>
