<?xml version="1.0" encoding="UTF-8" standalone="no"?>
<!DOCTYPE svg PUBLIC "-//W3C//DTD SVG 1.1//EN"
 "http://www.w3.org/Graphics/SVG/1.1/DTD/svg11.dtd">
<!-- Generated by graphviz version 2.43.0 (0)
 -->
<!-- Title: XML::bpmn::resourceAssignmentExpression Pages: 1 -->
<svg width="197pt" height="739pt"
 viewBox="0.00 0.00 197.00 739.00" xmlns="http://www.w3.org/2000/svg" xmlns:xlink="http://www.w3.org/1999/xlink">
<g id="graph0" class="graph" transform="scale(1 1) rotate(0) translate(4 735)">
<title>XML::bpmn::resourceAssignmentExpression</title>
<!-- Node1 -->
<g id="Node000001" class="node">
<title>Node1</title>
<g id="a_Node000001"><a xlink:title=" ">
<polygon fill="#999999" stroke="transparent" points="185.5,-60 3.5,-60 3.5,0 185.5,0 185.5,-60"/>
<text text-anchor="start" x="14" y="-48" font-family="Helvetica,sans-Serif" font-size="10.00">XML::bpmn::resourceAssignment</text>
<text text-anchor="start" x="67.5" y="-37" font-family="Helvetica,sans-Serif" font-size="10.00">Expression</text>
<text text-anchor="start" x="7.5" y="-22" font-family="Helvetica,sans-Serif" font-size="10.00">+</text>
<text text-anchor="start" x="20.5" y="-22" font-family="Helvetica,sans-Serif" font-size="10.00">defaults</text>
<text text-anchor="start" x="7.5" y="-7" font-family="Helvetica,sans-Serif" font-size="10.00">#</text>
<text text-anchor="start" x="20.5" y="-7" font-family="Helvetica,sans-Serif" font-size="10.00">resourceAssignmentExpression()</text>
<polygon fill="#666666" stroke="#666666" points="3.5,-32 3.5,-32 185.5,-32 185.5,-32 3.5,-32"/>
<polygon fill="#666666" stroke="#666666" points="3.5,-17 3.5,-17 18.5,-17 18.5,-17 3.5,-17"/>
<polygon fill="#666666" stroke="#666666" points="18.5,-17 18.5,-17 185.5,-17 185.5,-17 18.5,-17"/>
<polygon fill="none" stroke="#666666" points="3.5,0 3.5,-60 185.5,-60 185.5,0 3.5,0"/>
</a>
</g>
</g>
<!-- Node2 -->
<g id="Node000002" class="node">
<title>Node2</title>
<g id="a_Node000002"><a xlink:href="classXML_1_1bpmn_1_1tResourceAssignmentExpression.html" target="_top" xlink:title=" ">
<polygon fill="white" stroke="transparent" points="189,-171 0,-171 0,-96 189,-96 189,-171"/>
<text text-anchor="start" x="11" y="-158.5" font-family="Helvetica,sans-Serif" font-size="10.00">XML::bpmn::tResourceAssignment</text>
<text text-anchor="start" x="68" y="-147.5" font-family="Helvetica,sans-Serif" font-size="10.00">Expression</text>
<text text-anchor="start" x="4.5" y="-132.5" font-family="Helvetica,sans-Serif" font-size="10.00">+</text>
<text text-anchor="start" x="17.5" y="-132.5" font-family="Helvetica,sans-Serif" font-size="10.00">expression</text>
<text text-anchor="start" x="4.5" y="-117.5" font-family="Helvetica,sans-Serif" font-size="10.00">+</text>
<text text-anchor="start" x="17.5" y="-117.5" font-family="Helvetica,sans-Serif" font-size="10.00">defaults</text>
<text text-anchor="start" x="4.5" y="-102.5" font-family="Helvetica,sans-Serif" font-size="10.00">#</text>
<text text-anchor="start" x="17.5" y="-102.5" font-family="Helvetica,sans-Serif" font-size="10.00">tResourceAssignmentExpression()</text>
<polygon fill="#666666" stroke="#666666" points="0.5,-142.5 0.5,-142.5 189.5,-142.5 189.5,-142.5 0.5,-142.5"/>
<polygon fill="#666666" stroke="#666666" points="0.5,-112.5 0.5,-112.5 15.5,-112.5 15.5,-112.5 0.5,-112.5"/>
<polygon fill="#666666" stroke="#666666" points="15.5,-112.5 15.5,-112.5 189.5,-112.5 189.5,-112.5 15.5,-112.5"/>
<polygon fill="none" stroke="#666666" points="0,-96 0,-171 189,-171 189,-96 0,-96"/>
</a>
</g>
</g>
<!-- Node2&#45;&gt;Node1 -->
<g id="edge1_Node000001_Node000002" class="edge">
<title>Node2&#45;&gt;Node1</title>
<g id="a_edge1_Node000001_Node000002"><a xlink:title=" ">
<path fill="none" stroke="#63b8ff" d="M94.5,-85.79C94.5,-77.1 94.5,-68.25 94.5,-60.27"/>
<polygon fill="none" stroke="#63b8ff" points="91,-85.86 94.5,-95.86 98,-85.86 91,-85.86"/>
</a>
</g>
</g>
<!-- Node3 -->
<g id="Node000003" class="node">
<title>Node3</title>
<g id="a_Node000003"><a xlink:href="classXML_1_1bpmn_1_1tBaseElement.html" target="_top" xlink:title=" ">
<polygon fill="white" stroke="transparent" points="164.5,-301 24.5,-301 24.5,-207 164.5,-207 164.5,-301"/>
<text text-anchor="start" x="29.5" y="-289" font-family="Helvetica,sans-Serif" font-size="10.00">XML::bpmn::tBaseElement</text>
<text text-anchor="start" x="34.5" y="-274" font-family="Helvetica,sans-Serif" font-size="10.00">+</text>
<text text-anchor="start" x="53.5" y="-274" font-family="Helvetica,sans-Serif" font-size="10.00">documentation</text>
<text text-anchor="start" x="34.5" y="-259" font-family="Helvetica,sans-Serif" font-size="10.00">+</text>
<text text-anchor="start" x="53.5" y="-259" font-family="Helvetica,sans-Serif" font-size="10.00">extensionElements</text>
<text text-anchor="start" x="34.5" y="-244" font-family="Helvetica,sans-Serif" font-size="10.00">+</text>
<text text-anchor="start" x="53.5" y="-244" font-family="Helvetica,sans-Serif" font-size="10.00">id</text>
<text text-anchor="start" x="34.5" y="-229" font-family="Helvetica,sans-Serif" font-size="10.00">+</text>
<text text-anchor="start" x="53.5" y="-229" font-family="Helvetica,sans-Serif" font-size="10.00">defaults</text>
<text text-anchor="start" x="34.5" y="-214" font-family="Helvetica,sans-Serif" font-size="10.00">#</text>
<text text-anchor="start" x="53.5" y="-214" font-family="Helvetica,sans-Serif" font-size="10.00">tBaseElement()</text>
<polygon fill="#666666" stroke="#666666" points="24.5,-284 24.5,-284 164.5,-284 164.5,-284 24.5,-284"/>
<polygon fill="#666666" stroke="#666666" points="24.5,-224 24.5,-224 51.5,-224 51.5,-224 24.5,-224"/>
<polygon fill="#666666" stroke="#666666" points="51.5,-224 51.5,-224 164.5,-224 164.5,-224 51.5,-224"/>
<polygon fill="none" stroke="#666666" points="24.5,-207 24.5,-301 164.5,-301 164.5,-207 24.5,-207"/>
</a>
</g>
</g>
<!-- Node3&#45;&gt;Node2 -->
<g id="edge2_Node000002_Node000003" class="edge">
<title>Node3&#45;&gt;Node2</title>
<g id="a_edge2_Node000002_Node000003"><a xlink:title=" ">
<path fill="none" stroke="#63b8ff" d="M94.5,-196.74C94.5,-188.05 94.5,-179.29 94.5,-171.18"/>
<polygon fill="none" stroke="#63b8ff" points="91,-196.85 94.5,-206.85 98,-196.85 91,-196.85"/>
</a>
</g>
</g>
<!-- Node4 -->
<g id="Node000004" class="node">
<title>Node4</title>
<g id="a_Node000004"><a xlink:href="classXML_1_1XMLObject.html" target="_top" xlink:title="A class representing a node in an XML&#45;tree.">
<polygon fill="white" stroke="transparent" points="154.5,-731 34.5,-731 34.5,-337 154.5,-337 154.5,-731"/>
<text text-anchor="start" x="54.5" y="-719" font-family="Helvetica,sans-Serif" font-size="10.00">XML::XMLObject</text>
<text text-anchor="start" x="38.5" y="-704" font-family="Helvetica,sans-Serif" font-size="10.00">+</text>
<text text-anchor="start" x="51.5" y="-704" font-family="Helvetica,sans-Serif" font-size="10.00">xmlns</text>
<text text-anchor="start" x="38.5" y="-689" font-family="Helvetica,sans-Serif" font-size="10.00">+</text>
<text text-anchor="start" x="51.5" y="-689" font-family="Helvetica,sans-Serif" font-size="10.00">className</text>
<text text-anchor="start" x="38.5" y="-674" font-family="Helvetica,sans-Serif" font-size="10.00">+</text>
<text text-anchor="start" x="51.5" y="-674" font-family="Helvetica,sans-Serif" font-size="10.00">prefix</text>
<text text-anchor="start" x="38.5" y="-659" font-family="Helvetica,sans-Serif" font-size="10.00">+</text>
<text text-anchor="start" x="51.5" y="-659" font-family="Helvetica,sans-Serif" font-size="10.00">elementName</text>
<text text-anchor="start" x="38.5" y="-644" font-family="Helvetica,sans-Serif" font-size="10.00">+</text>
<text text-anchor="start" x="51.5" y="-644" font-family="Helvetica,sans-Serif" font-size="10.00">textContent</text>
<text text-anchor="start" x="38.5" y="-629" font-family="Helvetica,sans-Serif" font-size="10.00">+</text>
<text text-anchor="start" x="51.5" y="-629" font-family="Helvetica,sans-Serif" font-size="10.00">children</text>
<text text-anchor="start" x="38.5" y="-614" font-family="Helvetica,sans-Serif" font-size="10.00">+</text>
<text text-anchor="start" x="51.5" y="-614" font-family="Helvetica,sans-Serif" font-size="10.00">attributes</text>
<text text-anchor="start" x="38.5" y="-599" font-family="Helvetica,sans-Serif" font-size="10.00">+</text>
<text text-anchor="start" x="51.5" y="-599" font-family="Helvetica,sans-Serif" font-size="10.00">defaults</text>
<text text-anchor="start" x="38.5" y="-584" font-family="Helvetica,sans-Serif" font-size="10.00">#</text>
<text text-anchor="start" x="51.5" y="-584" font-family="Helvetica,sans-Serif" font-size="10.00">factory</text>
<text text-anchor="start" x="38.5" y="-569" font-family="Helvetica,sans-Serif" font-size="10.00">+</text>
<text text-anchor="start" x="51.5" y="-569" font-family="Helvetica,sans-Serif" font-size="10.00">~XMLObject()</text>
<text text-anchor="start" x="38.5" y="-554" font-family="Helvetica,sans-Serif" font-size="10.00">+</text>
<text text-anchor="start" x="51.5" y="-554" font-family="Helvetica,sans-Serif" font-size="10.00">is()</text>
<text text-anchor="start" x="38.5" y="-539" font-family="Helvetica,sans-Serif" font-size="10.00">+</text>
<text text-anchor="start" x="51.5" y="-539" font-family="Helvetica,sans-Serif" font-size="10.00">is()</text>
<text text-anchor="start" x="38.5" y="-524" font-family="Helvetica,sans-Serif" font-size="10.00">+</text>
<text text-anchor="start" x="51.5" y="-524" font-family="Helvetica,sans-Serif" font-size="10.00">get()</text>
<text text-anchor="start" x="38.5" y="-509" font-family="Helvetica,sans-Serif" font-size="10.00">+</text>
<text text-anchor="start" x="51.5" y="-509" font-family="Helvetica,sans-Serif" font-size="10.00">get()</text>
<text text-anchor="start" x="38.5" y="-494" font-family="Helvetica,sans-Serif" font-size="10.00">+</text>
<text text-anchor="start" x="51.5" y="-494" font-family="Helvetica,sans-Serif" font-size="10.00">find()</text>
<text text-anchor="start" x="38.5" y="-479" font-family="Helvetica,sans-Serif" font-size="10.00">+</text>
<text text-anchor="start" x="51.5" y="-479" font-family="Helvetica,sans-Serif" font-size="10.00">find()</text>
<text text-anchor="start" x="38.5" y="-464" font-family="Helvetica,sans-Serif" font-size="10.00">+</text>
<text text-anchor="start" x="51.5" y="-464" font-family="Helvetica,sans-Serif" font-size="10.00">stringify()</text>
<text text-anchor="start" x="38.5" y="-449" font-family="Helvetica,sans-Serif" font-size="10.00">+</text>
<text text-anchor="start" x="51.5" y="-449" font-family="Helvetica,sans-Serif" font-size="10.00">format()</text>
<text text-anchor="start" x="38.5" y="-434" font-family="Helvetica,sans-Serif" font-size="10.00">+</text>
<text text-anchor="start" x="51.5" y="-434" font-family="Helvetica,sans-Serif" font-size="10.00">getRequiredChild()</text>
<text text-anchor="start" x="51.5" y="-419" font-family="Helvetica,sans-Serif" font-size="10.00">and 7 more...</text>
<text text-anchor="start" x="38.5" y="-404" font-family="Helvetica,sans-Serif" font-size="10.00">+</text>
<text text-anchor="start" x="51.5" y="-404" font-family="Helvetica,sans-Serif" font-size="10.00">createFromStream()</text>
<text text-anchor="start" x="38.5" y="-389" font-family="Helvetica,sans-Serif" font-size="10.00">+</text>
<text text-anchor="start" x="51.5" y="-389" font-family="Helvetica,sans-Serif" font-size="10.00">createFromString()</text>
<text text-anchor="start" x="38.5" y="-374" font-family="Helvetica,sans-Serif" font-size="10.00">+</text>
<text text-anchor="start" x="51.5" y="-374" font-family="Helvetica,sans-Serif" font-size="10.00">createFromFile()</text>
<text text-anchor="start" x="38.5" y="-359" font-family="Helvetica,sans-Serif" font-size="10.00">#</text>
<text text-anchor="start" x="51.5" y="-359" font-family="Helvetica,sans-Serif" font-size="10.00">XMLObject()</text>
<text text-anchor="start" x="38.5" y="-344" font-family="Helvetica,sans-Serif" font-size="10.00">#</text>
<text text-anchor="start" x="51.5" y="-344" font-family="Helvetica,sans-Serif" font-size="10.00">createObject()</text>
<polygon fill="#666666" stroke="#666666" points="34.5,-714 34.5,-714 154.5,-714 154.5,-714 34.5,-714"/>
<polygon fill="#666666" stroke="#666666" points="34.5,-579 34.5,-579 49.5,-579 49.5,-579 34.5,-579"/>
<polygon fill="#666666" stroke="#666666" points="49.5,-579 49.5,-579 154.5,-579 154.5,-579 49.5,-579"/>
<polygon fill="none" stroke="#666666" points="34.5,-337 34.5,-731 154.5,-731 154.5,-337 34.5,-337"/>
</a>
</g>
</g>
<!-- Node4&#45;&gt;Node3 -->
<g id="edge3_Node000003_Node000004" class="edge">
<title>Node4&#45;&gt;Node3</title>
<g id="a_edge3_Node000003_Node000004"><a xlink:title=" ">
<path fill="none" stroke="#63b8ff" d="M94.5,-326.78C94.5,-317.62 94.5,-308.97 94.5,-301.06"/>
<polygon fill="none" stroke="#63b8ff" points="91,-326.91 94.5,-336.91 98,-326.91 91,-326.91"/>
</a>
</g>
</g>
</g>
</svg>
