<?xml version="1.0" encoding="UTF-8" standalone="no"?>
<!DOCTYPE svg PUBLIC "-//W3C//DTD SVG 1.1//EN"
 "http://www.w3.org/Graphics/SVG/1.1/DTD/svg11.dtd">
<!-- Generated by graphviz version 2.43.0 (0)
 -->
<!-- Title: XML::bpmn::tCallChoreography Pages: 1 -->
<svg width="176pt" height="1059pt"
 viewBox="0.00 0.00 176.00 1059.00" xmlns="http://www.w3.org/2000/svg" xmlns:xlink="http://www.w3.org/1999/xlink">
<g id="graph0" class="graph" transform="scale(1 1) rotate(0) translate(4 1055)">
<title>XML::bpmn::tCallChoreography</title>
<!-- Node1 -->
<g id="node1" class="node">
<title>Node1</title>
<g id="a_node1"><a xlink:title=" ">
<polygon fill="#bfbfbf" stroke="black" points="0,-94.5 0,-173.5 168,-173.5 168,-94.5 0,-94.5"/>
<text text-anchor="middle" x="84" y="-161.5" font-family="Helvetica,sans-Serif" font-size="10.00">XML::bpmn::tCallChoreography</text>
<polyline fill="none" stroke="black" points="0,-154.5 168,-154.5 "/>
<text text-anchor="start" x="8" y="-142.5" font-family="Helvetica,sans-Serif" font-size="10.00">+ participantAssociation</text>
<text text-anchor="start" x="8" y="-131.5" font-family="Helvetica,sans-Serif" font-size="10.00">+ calledChoreographyRef</text>
<text text-anchor="start" x="8" y="-120.5" font-family="Helvetica,sans-Serif" font-size="10.00">+ defaults</text>
<polyline fill="none" stroke="black" points="0,-113.5 168,-113.5 "/>
<text text-anchor="start" x="8" y="-101.5" font-family="Helvetica,sans-Serif" font-size="10.00"># tCallChoreography()</text>
</a>
</g>
</g>
<!-- Node7 -->
<g id="node7" class="node">
<title>Node7</title>
<g id="a_node7"><a xlink:href="classXML_1_1bpmn_1_1callChoreography.html" target="_top" xlink:title=" ">
<polygon fill="none" stroke="black" points="2.5,-0.5 2.5,-57.5 165.5,-57.5 165.5,-0.5 2.5,-0.5"/>
<text text-anchor="middle" x="84" y="-45.5" font-family="Helvetica,sans-Serif" font-size="10.00">XML::bpmn::callChoreography</text>
<polyline fill="none" stroke="black" points="2.5,-38.5 165.5,-38.5 "/>
<text text-anchor="start" x="10.5" y="-26.5" font-family="Helvetica,sans-Serif" font-size="10.00">+ defaults</text>
<polyline fill="none" stroke="black" points="2.5,-19.5 165.5,-19.5 "/>
<text text-anchor="start" x="10.5" y="-7.5" font-family="Helvetica,sans-Serif" font-size="10.00"># callChoreography()</text>
</a>
</g>
</g>
<!-- Node1&#45;&gt;Node7 -->
<g id="edge6" class="edge">
<title>Node1&#45;&gt;Node7</title>
<path fill="none" stroke="midnightblue" d="M84,-84.16C84,-75.04 84,-65.81 84,-57.61"/>
<polygon fill="none" stroke="midnightblue" points="80.5,-84.35 84,-94.35 87.5,-84.35 80.5,-84.35"/>
</g>
<!-- Node2 -->
<g id="node2" class="node">
<title>Node2</title>
<g id="a_node2"><a xlink:href="classXML_1_1bpmn_1_1tChoreographyActivity.html" target="_top" xlink:title=" ">
<polygon fill="none" stroke="black" points="9.5,-210.5 9.5,-322.5 158.5,-322.5 158.5,-210.5 9.5,-210.5"/>
<text text-anchor="start" x="17.5" y="-310.5" font-family="Helvetica,sans-Serif" font-size="10.00">XML::bpmn::tChoreography</text>
<text text-anchor="middle" x="84" y="-299.5" font-family="Helvetica,sans-Serif" font-size="10.00">Activity</text>
<polyline fill="none" stroke="black" points="9.5,-292.5 158.5,-292.5 "/>
<text text-anchor="start" x="17.5" y="-280.5" font-family="Helvetica,sans-Serif" font-size="10.00">+ participantRef</text>
<text text-anchor="start" x="17.5" y="-269.5" font-family="Helvetica,sans-Serif" font-size="10.00">+ correlationKey</text>
<text text-anchor="start" x="17.5" y="-258.5" font-family="Helvetica,sans-Serif" font-size="10.00">+ initiatingParticipantRef</text>
<text text-anchor="start" x="17.5" y="-247.5" font-family="Helvetica,sans-Serif" font-size="10.00">+ loopType</text>
<text text-anchor="start" x="17.5" y="-236.5" font-family="Helvetica,sans-Serif" font-size="10.00">+ defaults</text>
<polyline fill="none" stroke="black" points="9.5,-229.5 158.5,-229.5 "/>
<text text-anchor="start" x="17.5" y="-217.5" font-family="Helvetica,sans-Serif" font-size="10.00"># tChoreographyActivity()</text>
</a>
</g>
</g>
<!-- Node2&#45;&gt;Node1 -->
<g id="edge1" class="edge">
<title>Node2&#45;&gt;Node1</title>
<path fill="none" stroke="midnightblue" d="M84,-200.06C84,-191.08 84,-182.11 84,-173.82"/>
<polygon fill="none" stroke="midnightblue" points="80.5,-200.16 84,-210.16 87.5,-200.16 80.5,-200.16"/>
</g>
<!-- Node3 -->
<g id="node3" class="node">
<title>Node3</title>
<g id="a_node3"><a xlink:href="classXML_1_1bpmn_1_1tFlowNode.html" target="_top" xlink:title=" ">
<polygon fill="none" stroke="black" points="19,-359.5 19,-438.5 149,-438.5 149,-359.5 19,-359.5"/>
<text text-anchor="middle" x="84" y="-426.5" font-family="Helvetica,sans-Serif" font-size="10.00">XML::bpmn::tFlowNode</text>
<polyline fill="none" stroke="black" points="19,-419.5 149,-419.5 "/>
<text text-anchor="start" x="27" y="-407.5" font-family="Helvetica,sans-Serif" font-size="10.00">+ incoming</text>
<text text-anchor="start" x="27" y="-396.5" font-family="Helvetica,sans-Serif" font-size="10.00">+ outgoing</text>
<text text-anchor="start" x="27" y="-385.5" font-family="Helvetica,sans-Serif" font-size="10.00">+ defaults</text>
<polyline fill="none" stroke="black" points="19,-378.5 149,-378.5 "/>
<text text-anchor="start" x="27" y="-366.5" font-family="Helvetica,sans-Serif" font-size="10.00"># tFlowNode()</text>
</a>
</g>
</g>
<!-- Node3&#45;&gt;Node2 -->
<g id="edge2" class="edge">
<title>Node3&#45;&gt;Node2</title>
<path fill="none" stroke="midnightblue" d="M84,-349.01C84,-340.46 84,-331.52 84,-322.81"/>
<polygon fill="none" stroke="midnightblue" points="80.5,-349.2 84,-359.2 87.5,-349.2 80.5,-349.2"/>
</g>
<!-- Node4 -->
<g id="node4" class="node">
<title>Node4</title>
<g id="a_node4"><a xlink:href="classXML_1_1bpmn_1_1tFlowElement.html" target="_top" xlink:title=" ">
<polygon fill="none" stroke="black" points="11.5,-475.5 11.5,-576.5 156.5,-576.5 156.5,-475.5 11.5,-475.5"/>
<text text-anchor="middle" x="84" y="-564.5" font-family="Helvetica,sans-Serif" font-size="10.00">XML::bpmn::tFlowElement</text>
<polyline fill="none" stroke="black" points="11.5,-557.5 156.5,-557.5 "/>
<text text-anchor="start" x="19.5" y="-545.5" font-family="Helvetica,sans-Serif" font-size="10.00">+ auditing</text>
<text text-anchor="start" x="19.5" y="-534.5" font-family="Helvetica,sans-Serif" font-size="10.00">+ monitoring</text>
<text text-anchor="start" x="19.5" y="-523.5" font-family="Helvetica,sans-Serif" font-size="10.00">+ categoryValueRef</text>
<text text-anchor="start" x="19.5" y="-512.5" font-family="Helvetica,sans-Serif" font-size="10.00">+ name</text>
<text text-anchor="start" x="19.5" y="-501.5" font-family="Helvetica,sans-Serif" font-size="10.00">+ defaults</text>
<polyline fill="none" stroke="black" points="11.5,-494.5 156.5,-494.5 "/>
<text text-anchor="start" x="19.5" y="-482.5" font-family="Helvetica,sans-Serif" font-size="10.00"># tFlowElement()</text>
</a>
</g>
</g>
<!-- Node4&#45;&gt;Node3 -->
<g id="edge3" class="edge">
<title>Node4&#45;&gt;Node3</title>
<path fill="none" stroke="midnightblue" d="M84,-465.19C84,-456.22 84,-447.18 84,-438.81"/>
<polygon fill="none" stroke="midnightblue" points="80.5,-465.24 84,-475.24 87.5,-465.24 80.5,-465.24"/>
</g>
<!-- Node5 -->
<g id="node5" class="node">
<title>Node5</title>
<g id="a_node5"><a xlink:href="classXML_1_1bpmn_1_1tBaseElement.html" target="_top" xlink:title=" ">
<polygon fill="none" stroke="black" points="11,-613.5 11,-703.5 157,-703.5 157,-613.5 11,-613.5"/>
<text text-anchor="middle" x="84" y="-691.5" font-family="Helvetica,sans-Serif" font-size="10.00">XML::bpmn::tBaseElement</text>
<polyline fill="none" stroke="black" points="11,-684.5 157,-684.5 "/>
<text text-anchor="start" x="19" y="-672.5" font-family="Helvetica,sans-Serif" font-size="10.00">+ documentation</text>
<text text-anchor="start" x="19" y="-661.5" font-family="Helvetica,sans-Serif" font-size="10.00">+ extensionElements</text>
<text text-anchor="start" x="19" y="-650.5" font-family="Helvetica,sans-Serif" font-size="10.00">+ id</text>
<text text-anchor="start" x="19" y="-639.5" font-family="Helvetica,sans-Serif" font-size="10.00">+ defaults</text>
<polyline fill="none" stroke="black" points="11,-632.5 157,-632.5 "/>
<text text-anchor="start" x="19" y="-620.5" font-family="Helvetica,sans-Serif" font-size="10.00"># tBaseElement()</text>
</a>
</g>
</g>
<!-- Node5&#45;&gt;Node4 -->
<g id="edge4" class="edge">
<title>Node5&#45;&gt;Node4</title>
<path fill="none" stroke="midnightblue" d="M84,-603.13C84,-594.31 84,-585.22 84,-576.52"/>
<polygon fill="none" stroke="midnightblue" points="80.5,-603.32 84,-613.32 87.5,-603.32 80.5,-603.32"/>
</g>
<!-- Node6 -->
<g id="node6" class="node">
<title>Node6</title>
<g id="a_node6"><a xlink:href="classXML_1_1XMLObject.html" target="_top" xlink:title=" ">
<polygon fill="none" stroke="black" points="21,-740.5 21,-1050.5 147,-1050.5 147,-740.5 21,-740.5"/>
<text text-anchor="middle" x="84" y="-1038.5" font-family="Helvetica,sans-Serif" font-size="10.00">XML::XMLObject</text>
<polyline fill="none" stroke="black" points="21,-1031.5 147,-1031.5 "/>
<text text-anchor="start" x="29" y="-1019.5" font-family="Helvetica,sans-Serif" font-size="10.00">+ xmlns</text>
<text text-anchor="start" x="29" y="-1008.5" font-family="Helvetica,sans-Serif" font-size="10.00">+ className</text>
<text text-anchor="start" x="29" y="-997.5" font-family="Helvetica,sans-Serif" font-size="10.00">+ prefix</text>
<text text-anchor="start" x="29" y="-986.5" font-family="Helvetica,sans-Serif" font-size="10.00">+ elementName</text>
<text text-anchor="start" x="29" y="-975.5" font-family="Helvetica,sans-Serif" font-size="10.00">+ textContent</text>
<text text-anchor="start" x="29" y="-964.5" font-family="Helvetica,sans-Serif" font-size="10.00">+ children</text>
<text text-anchor="start" x="29" y="-953.5" font-family="Helvetica,sans-Serif" font-size="10.00">+ attributes</text>
<text text-anchor="start" x="29" y="-942.5" font-family="Helvetica,sans-Serif" font-size="10.00">+ defaults</text>
<text text-anchor="start" x="29" y="-931.5" font-family="Helvetica,sans-Serif" font-size="10.00"># factory</text>
<polyline fill="none" stroke="black" points="21,-924.5 147,-924.5 "/>
<text text-anchor="start" x="29" y="-912.5" font-family="Helvetica,sans-Serif" font-size="10.00">+ ~XMLObject()</text>
<text text-anchor="start" x="29" y="-901.5" font-family="Helvetica,sans-Serif" font-size="10.00">+ is()</text>
<text text-anchor="start" x="29" y="-890.5" font-family="Helvetica,sans-Serif" font-size="10.00">+ is()</text>
<text text-anchor="start" x="29" y="-879.5" font-family="Helvetica,sans-Serif" font-size="10.00">+ get()</text>
<text text-anchor="start" x="29" y="-868.5" font-family="Helvetica,sans-Serif" font-size="10.00">+ get()</text>
<text text-anchor="start" x="29" y="-857.5" font-family="Helvetica,sans-Serif" font-size="10.00">+ find()</text>
<text text-anchor="start" x="29" y="-846.5" font-family="Helvetica,sans-Serif" font-size="10.00">+ find()</text>
<text text-anchor="start" x="29" y="-835.5" font-family="Helvetica,sans-Serif" font-size="10.00">+ stringify()</text>
<text text-anchor="start" x="29" y="-824.5" font-family="Helvetica,sans-Serif" font-size="10.00">+ getRequiredChild()</text>
<text text-anchor="start" x="29" y="-813.5" font-family="Helvetica,sans-Serif" font-size="10.00">+ getOptionalChild()</text>
<text text-anchor="start" x="29" y="-802.5" font-family="Helvetica,sans-Serif" font-size="10.00">and 6 more...</text>
<text text-anchor="start" x="29" y="-791.5" font-family="Helvetica,sans-Serif" font-size="10.00">+ createFromStream()</text>
<text text-anchor="start" x="29" y="-780.5" font-family="Helvetica,sans-Serif" font-size="10.00">+ createFromString()</text>
<text text-anchor="start" x="29" y="-769.5" font-family="Helvetica,sans-Serif" font-size="10.00">+ createFromFile()</text>
<text text-anchor="start" x="29" y="-758.5" font-family="Helvetica,sans-Serif" font-size="10.00"># XMLObject()</text>
<text text-anchor="start" x="29" y="-747.5" font-family="Helvetica,sans-Serif" font-size="10.00"># createObject()</text>
</a>
</g>
</g>
<!-- Node6&#45;&gt;Node5 -->
<g id="edge5" class="edge">
<title>Node6&#45;&gt;Node5</title>
<path fill="none" stroke="midnightblue" d="M84,-730.35C84,-720.89 84,-711.91 84,-703.72"/>
<polygon fill="none" stroke="midnightblue" points="80.5,-730.37 84,-740.37 87.5,-730.37 80.5,-730.37"/>
</g>
</g>
</svg>
