<?xml version="1.0" encoding="UTF-8" standalone="no"?>
<!DOCTYPE svg PUBLIC "-//W3C//DTD SVG 1.1//EN"
 "http://www.w3.org/Graphics/SVG/1.1/DTD/svg11.dtd">
<!-- Generated by graphviz version 2.43.0 (0)
 -->
<!-- Title: XML::bpmn::dataInputAssociation Pages: 1 -->
<svg width="193pt" height="772pt"
 viewBox="0.00 0.00 193.00 772.00" xmlns="http://www.w3.org/2000/svg" xmlns:xlink="http://www.w3.org/1999/xlink">
<g id="graph0" class="graph" transform="scale(1 1) rotate(0) translate(4 768)">
<title>XML::bpmn::dataInputAssociation</title>
<!-- Node1 -->
<g id="node1" class="node">
<title>Node1</title>
<g id="a_node1"><a xlink:title=" ">
<polygon fill="#bfbfbf" stroke="black" points="2.5,-0.5 2.5,-57.5 182.5,-57.5 182.5,-0.5 2.5,-0.5"/>
<text text-anchor="middle" x="92.5" y="-45.5" font-family="Helvetica,sans-Serif" font-size="10.00">XML::bpmn::dataInputAssociation</text>
<polyline fill="none" stroke="black" points="2.5,-38.5 182.5,-38.5 "/>
<text text-anchor="start" x="10.5" y="-26.5" font-family="Helvetica,sans-Serif" font-size="10.00">+ defaults</text>
<polyline fill="none" stroke="black" points="2.5,-19.5 182.5,-19.5 "/>
<text text-anchor="start" x="10.5" y="-7.5" font-family="Helvetica,sans-Serif" font-size="10.00"># dataInputAssociation()</text>
</a>
</g>
</g>
<!-- Node2 -->
<g id="node2" class="node">
<title>Node2</title>
<g id="a_node2"><a xlink:href="classXML_1_1bpmn_1_1tDataInputAssociation.html" target="_top" xlink:title=" ">
<polygon fill="none" stroke="black" points="0,-94.5 0,-151.5 185,-151.5 185,-94.5 0,-94.5"/>
<text text-anchor="middle" x="92.5" y="-139.5" font-family="Helvetica,sans-Serif" font-size="10.00">XML::bpmn::tDataInputAssociation</text>
<polyline fill="none" stroke="black" points="0,-132.5 185,-132.5 "/>
<text text-anchor="start" x="8" y="-120.5" font-family="Helvetica,sans-Serif" font-size="10.00">+ defaults</text>
<polyline fill="none" stroke="black" points="0,-113.5 185,-113.5 "/>
<text text-anchor="start" x="8" y="-101.5" font-family="Helvetica,sans-Serif" font-size="10.00"># tDataInputAssociation()</text>
</a>
</g>
</g>
<!-- Node2&#45;&gt;Node1 -->
<g id="edge1" class="edge">
<title>Node2&#45;&gt;Node1</title>
<path fill="none" stroke="midnightblue" d="M92.5,-84.21C92.5,-75.29 92.5,-65.95 92.5,-57.58"/>
<polygon fill="none" stroke="midnightblue" points="89,-84.4 92.5,-94.4 96,-84.4 89,-84.4"/>
</g>
<!-- Node3 -->
<g id="node3" class="node">
<title>Node3</title>
<g id="a_node3"><a xlink:href="classXML_1_1bpmn_1_1tDataAssociation.html" target="_top" xlink:title=" ">
<polygon fill="none" stroke="black" points="12,-188.5 12,-289.5 173,-289.5 173,-188.5 12,-188.5"/>
<text text-anchor="middle" x="92.5" y="-277.5" font-family="Helvetica,sans-Serif" font-size="10.00">XML::bpmn::tDataAssociation</text>
<polyline fill="none" stroke="black" points="12,-270.5 173,-270.5 "/>
<text text-anchor="start" x="20" y="-258.5" font-family="Helvetica,sans-Serif" font-size="10.00">+ sourceRef</text>
<text text-anchor="start" x="20" y="-247.5" font-family="Helvetica,sans-Serif" font-size="10.00">+ targetRef</text>
<text text-anchor="start" x="20" y="-236.5" font-family="Helvetica,sans-Serif" font-size="10.00">+ transformation</text>
<text text-anchor="start" x="20" y="-225.5" font-family="Helvetica,sans-Serif" font-size="10.00">+ assignment</text>
<text text-anchor="start" x="20" y="-214.5" font-family="Helvetica,sans-Serif" font-size="10.00">+ defaults</text>
<polyline fill="none" stroke="black" points="12,-207.5 173,-207.5 "/>
<text text-anchor="start" x="20" y="-195.5" font-family="Helvetica,sans-Serif" font-size="10.00"># tDataAssociation()</text>
</a>
</g>
</g>
<!-- Node3&#45;&gt;Node2 -->
<g id="edge2" class="edge">
<title>Node3&#45;&gt;Node2</title>
<path fill="none" stroke="midnightblue" d="M92.5,-178.23C92.5,-168.92 92.5,-159.71 92.5,-151.59"/>
<polygon fill="none" stroke="midnightblue" points="89,-178.33 92.5,-188.33 96,-178.33 89,-178.33"/>
</g>
<!-- Node4 -->
<g id="node4" class="node">
<title>Node4</title>
<g id="a_node4"><a xlink:href="classXML_1_1bpmn_1_1tBaseElement.html" target="_top" xlink:title=" ">
<polygon fill="none" stroke="black" points="19.5,-326.5 19.5,-416.5 165.5,-416.5 165.5,-326.5 19.5,-326.5"/>
<text text-anchor="middle" x="92.5" y="-404.5" font-family="Helvetica,sans-Serif" font-size="10.00">XML::bpmn::tBaseElement</text>
<polyline fill="none" stroke="black" points="19.5,-397.5 165.5,-397.5 "/>
<text text-anchor="start" x="27.5" y="-385.5" font-family="Helvetica,sans-Serif" font-size="10.00">+ documentation</text>
<text text-anchor="start" x="27.5" y="-374.5" font-family="Helvetica,sans-Serif" font-size="10.00">+ extensionElements</text>
<text text-anchor="start" x="27.5" y="-363.5" font-family="Helvetica,sans-Serif" font-size="10.00">+ id</text>
<text text-anchor="start" x="27.5" y="-352.5" font-family="Helvetica,sans-Serif" font-size="10.00">+ defaults</text>
<polyline fill="none" stroke="black" points="19.5,-345.5 165.5,-345.5 "/>
<text text-anchor="start" x="27.5" y="-333.5" font-family="Helvetica,sans-Serif" font-size="10.00"># tBaseElement()</text>
</a>
</g>
</g>
<!-- Node4&#45;&gt;Node3 -->
<g id="edge3" class="edge">
<title>Node4&#45;&gt;Node3</title>
<path fill="none" stroke="midnightblue" d="M92.5,-316.13C92.5,-307.31 92.5,-298.22 92.5,-289.52"/>
<polygon fill="none" stroke="midnightblue" points="89,-316.32 92.5,-326.32 96,-316.32 89,-316.32"/>
</g>
<!-- Node5 -->
<g id="node5" class="node">
<title>Node5</title>
<g id="a_node5"><a xlink:href="classXML_1_1XMLObject.html" target="_top" xlink:title="A class representing a node in an XML&#45;tree.">
<polygon fill="none" stroke="black" points="29.5,-453.5 29.5,-763.5 155.5,-763.5 155.5,-453.5 29.5,-453.5"/>
<text text-anchor="middle" x="92.5" y="-751.5" font-family="Helvetica,sans-Serif" font-size="10.00">XML::XMLObject</text>
<polyline fill="none" stroke="black" points="29.5,-744.5 155.5,-744.5 "/>
<text text-anchor="start" x="37.5" y="-732.5" font-family="Helvetica,sans-Serif" font-size="10.00">+ xmlns</text>
<text text-anchor="start" x="37.5" y="-721.5" font-family="Helvetica,sans-Serif" font-size="10.00">+ className</text>
<text text-anchor="start" x="37.5" y="-710.5" font-family="Helvetica,sans-Serif" font-size="10.00">+ prefix</text>
<text text-anchor="start" x="37.5" y="-699.5" font-family="Helvetica,sans-Serif" font-size="10.00">+ elementName</text>
<text text-anchor="start" x="37.5" y="-688.5" font-family="Helvetica,sans-Serif" font-size="10.00">+ textContent</text>
<text text-anchor="start" x="37.5" y="-677.5" font-family="Helvetica,sans-Serif" font-size="10.00">+ children</text>
<text text-anchor="start" x="37.5" y="-666.5" font-family="Helvetica,sans-Serif" font-size="10.00">+ attributes</text>
<text text-anchor="start" x="37.5" y="-655.5" font-family="Helvetica,sans-Serif" font-size="10.00">+ defaults</text>
<text text-anchor="start" x="37.5" y="-644.5" font-family="Helvetica,sans-Serif" font-size="10.00"># factory</text>
<polyline fill="none" stroke="black" points="29.5,-637.5 155.5,-637.5 "/>
<text text-anchor="start" x="37.5" y="-625.5" font-family="Helvetica,sans-Serif" font-size="10.00">+ ~XMLObject()</text>
<text text-anchor="start" x="37.5" y="-614.5" font-family="Helvetica,sans-Serif" font-size="10.00">+ is()</text>
<text text-anchor="start" x="37.5" y="-603.5" font-family="Helvetica,sans-Serif" font-size="10.00">+ is()</text>
<text text-anchor="start" x="37.5" y="-592.5" font-family="Helvetica,sans-Serif" font-size="10.00">+ get()</text>
<text text-anchor="start" x="37.5" y="-581.5" font-family="Helvetica,sans-Serif" font-size="10.00">+ get()</text>
<text text-anchor="start" x="37.5" y="-570.5" font-family="Helvetica,sans-Serif" font-size="10.00">+ find()</text>
<text text-anchor="start" x="37.5" y="-559.5" font-family="Helvetica,sans-Serif" font-size="10.00">+ find()</text>
<text text-anchor="start" x="37.5" y="-548.5" font-family="Helvetica,sans-Serif" font-size="10.00">+ stringify()</text>
<text text-anchor="start" x="37.5" y="-537.5" font-family="Helvetica,sans-Serif" font-size="10.00">+ getRequiredChild()</text>
<text text-anchor="start" x="37.5" y="-526.5" font-family="Helvetica,sans-Serif" font-size="10.00">+ getOptionalChild()</text>
<text text-anchor="start" x="37.5" y="-515.5" font-family="Helvetica,sans-Serif" font-size="10.00">and 6 more...</text>
<text text-anchor="start" x="37.5" y="-504.5" font-family="Helvetica,sans-Serif" font-size="10.00">+ createFromStream()</text>
<text text-anchor="start" x="37.5" y="-493.5" font-family="Helvetica,sans-Serif" font-size="10.00">+ createFromString()</text>
<text text-anchor="start" x="37.5" y="-482.5" font-family="Helvetica,sans-Serif" font-size="10.00">+ createFromFile()</text>
<text text-anchor="start" x="37.5" y="-471.5" font-family="Helvetica,sans-Serif" font-size="10.00"># XMLObject()</text>
<text text-anchor="start" x="37.5" y="-460.5" font-family="Helvetica,sans-Serif" font-size="10.00"># createObject()</text>
</a>
</g>
</g>
<!-- Node5&#45;&gt;Node4 -->
<g id="edge4" class="edge">
<title>Node5&#45;&gt;Node4</title>
<path fill="none" stroke="midnightblue" d="M92.5,-443.35C92.5,-433.89 92.5,-424.91 92.5,-416.72"/>
<polygon fill="none" stroke="midnightblue" points="89,-443.37 92.5,-453.37 96,-443.37 89,-443.37"/>
</g>
</g>
</svg>
