<?xml version="1.0" encoding="UTF-8" standalone="no"?>
<!DOCTYPE svg PUBLIC "-//W3C//DTD SVG 1.1//EN"
 "http://www.w3.org/Graphics/SVG/1.1/DTD/svg11.dtd">
<!-- Generated by graphviz version 2.43.0 (0)
 -->
<!-- Title: XML::bpmn::tExpression Pages: 1 -->
<svg width="326pt" height="761pt"
 viewBox="0.00 0.00 325.50 761.00" xmlns="http://www.w3.org/2000/svg" xmlns:xlink="http://www.w3.org/1999/xlink">
<g id="graph0" class="graph" transform="scale(1 1) rotate(0) translate(4 757)">
<title>XML::bpmn::tExpression</title>
<!-- Node1 -->
<g id="node1" class="node">
<title>Node1</title>
<g id="a_node1"><a xlink:title=" ">
<polygon fill="#bfbfbf" stroke="black" points="82.5,-210.5 82.5,-267.5 216.5,-267.5 216.5,-210.5 82.5,-210.5"/>
<text text-anchor="middle" x="149.5" y="-255.5" font-family="Helvetica,sans-Serif" font-size="10.00">XML::bpmn::tExpression</text>
<polyline fill="none" stroke="black" points="82.5,-248.5 216.5,-248.5 "/>
<text text-anchor="start" x="90.5" y="-236.5" font-family="Helvetica,sans-Serif" font-size="10.00">+ defaults</text>
<polyline fill="none" stroke="black" points="82.5,-229.5 216.5,-229.5 "/>
<text text-anchor="start" x="90.5" y="-217.5" font-family="Helvetica,sans-Serif" font-size="10.00"># tExpression()</text>
</a>
</g>
</g>
<!-- Node4 -->
<g id="node4" class="node">
<title>Node4</title>
<g id="a_node4"><a xlink:href="classXML_1_1bpmn_1_1expression.html" target="_top" xlink:title=" ">
<polygon fill="none" stroke="black" points="0,-105.5 0,-162.5 131,-162.5 131,-105.5 0,-105.5"/>
<text text-anchor="middle" x="65.5" y="-150.5" font-family="Helvetica,sans-Serif" font-size="10.00">XML::bpmn::expression</text>
<polyline fill="none" stroke="black" points="0,-143.5 131,-143.5 "/>
<text text-anchor="start" x="8" y="-131.5" font-family="Helvetica,sans-Serif" font-size="10.00">+ defaults</text>
<polyline fill="none" stroke="black" points="0,-124.5 131,-124.5 "/>
<text text-anchor="start" x="8" y="-112.5" font-family="Helvetica,sans-Serif" font-size="10.00"># expression()</text>
</a>
</g>
</g>
<!-- Node1&#45;&gt;Node4 -->
<g id="edge3" class="edge">
<title>Node1&#45;&gt;Node4</title>
<path fill="none" stroke="midnightblue" d="M120.56,-202.51C109.93,-189.48 98.06,-174.93 88.07,-162.68"/>
<polygon fill="none" stroke="midnightblue" points="117.96,-204.86 126.99,-210.4 123.38,-200.44 117.96,-204.86"/>
</g>
<!-- Node5 -->
<g id="node5" class="node">
<title>Node5</title>
<g id="a_node5"><a xlink:href="classXML_1_1bpmn_1_1tFormalExpression.html" target="_top" xlink:title=" ">
<polygon fill="none" stroke="black" points="149.5,-94.5 149.5,-173.5 317.5,-173.5 317.5,-94.5 149.5,-94.5"/>
<text text-anchor="middle" x="233.5" y="-161.5" font-family="Helvetica,sans-Serif" font-size="10.00">XML::bpmn::tFormalExpression</text>
<polyline fill="none" stroke="black" points="149.5,-154.5 317.5,-154.5 "/>
<text text-anchor="start" x="157.5" y="-142.5" font-family="Helvetica,sans-Serif" font-size="10.00">+ language</text>
<text text-anchor="start" x="157.5" y="-131.5" font-family="Helvetica,sans-Serif" font-size="10.00">+ evaluatesToTypeRef</text>
<text text-anchor="start" x="157.5" y="-120.5" font-family="Helvetica,sans-Serif" font-size="10.00">+ defaults</text>
<polyline fill="none" stroke="black" points="149.5,-113.5 317.5,-113.5 "/>
<text text-anchor="start" x="157.5" y="-101.5" font-family="Helvetica,sans-Serif" font-size="10.00"># tFormalExpression()</text>
</a>
</g>
</g>
<!-- Node1&#45;&gt;Node5 -->
<g id="edge4" class="edge">
<title>Node1&#45;&gt;Node5</title>
<path fill="none" stroke="midnightblue" d="M178.51,-202.43C186.12,-193.1 194.36,-183 202.09,-173.52"/>
<polygon fill="none" stroke="midnightblue" points="175.62,-200.44 172.01,-210.4 181.04,-204.86 175.62,-200.44"/>
</g>
<!-- Node2 -->
<g id="node2" class="node">
<title>Node2</title>
<g id="a_node2"><a xlink:href="classXML_1_1bpmn_1_1tBaseElementWithMixedContent.html" target="_top" xlink:title=" ">
<polygon fill="none" stroke="black" points="52.5,-304.5 52.5,-405.5 246.5,-405.5 246.5,-304.5 52.5,-304.5"/>
<text text-anchor="start" x="60.5" y="-393.5" font-family="Helvetica,sans-Serif" font-size="10.00">XML::bpmn::tBaseElementWith</text>
<text text-anchor="middle" x="149.5" y="-382.5" font-family="Helvetica,sans-Serif" font-size="10.00">MixedContent</text>
<polyline fill="none" stroke="black" points="52.5,-375.5 246.5,-375.5 "/>
<text text-anchor="start" x="60.5" y="-363.5" font-family="Helvetica,sans-Serif" font-size="10.00">+ documentation</text>
<text text-anchor="start" x="60.5" y="-352.5" font-family="Helvetica,sans-Serif" font-size="10.00">+ extensionElements</text>
<text text-anchor="start" x="60.5" y="-341.5" font-family="Helvetica,sans-Serif" font-size="10.00">+ id</text>
<text text-anchor="start" x="60.5" y="-330.5" font-family="Helvetica,sans-Serif" font-size="10.00">+ defaults</text>
<polyline fill="none" stroke="black" points="52.5,-323.5 246.5,-323.5 "/>
<text text-anchor="start" x="60.5" y="-311.5" font-family="Helvetica,sans-Serif" font-size="10.00"># tBaseElementWithMixedContent()</text>
</a>
</g>
</g>
<!-- Node2&#45;&gt;Node1 -->
<g id="edge1" class="edge">
<title>Node2&#45;&gt;Node1</title>
<path fill="none" stroke="midnightblue" d="M149.5,-294.23C149.5,-284.92 149.5,-275.71 149.5,-267.59"/>
<polygon fill="none" stroke="midnightblue" points="146,-294.33 149.5,-304.33 153,-294.33 146,-294.33"/>
</g>
<!-- Node3 -->
<g id="node3" class="node">
<title>Node3</title>
<g id="a_node3"><a xlink:href="classXML_1_1XMLObject.html" target="_top" xlink:title="A class representing a node in an XML&#45;tree.">
<polygon fill="none" stroke="black" points="86.5,-442.5 86.5,-752.5 212.5,-752.5 212.5,-442.5 86.5,-442.5"/>
<text text-anchor="middle" x="149.5" y="-740.5" font-family="Helvetica,sans-Serif" font-size="10.00">XML::XMLObject</text>
<polyline fill="none" stroke="black" points="86.5,-733.5 212.5,-733.5 "/>
<text text-anchor="start" x="94.5" y="-721.5" font-family="Helvetica,sans-Serif" font-size="10.00">+ xmlns</text>
<text text-anchor="start" x="94.5" y="-710.5" font-family="Helvetica,sans-Serif" font-size="10.00">+ className</text>
<text text-anchor="start" x="94.5" y="-699.5" font-family="Helvetica,sans-Serif" font-size="10.00">+ prefix</text>
<text text-anchor="start" x="94.5" y="-688.5" font-family="Helvetica,sans-Serif" font-size="10.00">+ elementName</text>
<text text-anchor="start" x="94.5" y="-677.5" font-family="Helvetica,sans-Serif" font-size="10.00">+ textContent</text>
<text text-anchor="start" x="94.5" y="-666.5" font-family="Helvetica,sans-Serif" font-size="10.00">+ children</text>
<text text-anchor="start" x="94.5" y="-655.5" font-family="Helvetica,sans-Serif" font-size="10.00">+ attributes</text>
<text text-anchor="start" x="94.5" y="-644.5" font-family="Helvetica,sans-Serif" font-size="10.00">+ defaults</text>
<text text-anchor="start" x="94.5" y="-633.5" font-family="Helvetica,sans-Serif" font-size="10.00"># factory</text>
<polyline fill="none" stroke="black" points="86.5,-626.5 212.5,-626.5 "/>
<text text-anchor="start" x="94.5" y="-614.5" font-family="Helvetica,sans-Serif" font-size="10.00">+ ~XMLObject()</text>
<text text-anchor="start" x="94.5" y="-603.5" font-family="Helvetica,sans-Serif" font-size="10.00">+ is()</text>
<text text-anchor="start" x="94.5" y="-592.5" font-family="Helvetica,sans-Serif" font-size="10.00">+ is()</text>
<text text-anchor="start" x="94.5" y="-581.5" font-family="Helvetica,sans-Serif" font-size="10.00">+ get()</text>
<text text-anchor="start" x="94.5" y="-570.5" font-family="Helvetica,sans-Serif" font-size="10.00">+ get()</text>
<text text-anchor="start" x="94.5" y="-559.5" font-family="Helvetica,sans-Serif" font-size="10.00">+ find()</text>
<text text-anchor="start" x="94.5" y="-548.5" font-family="Helvetica,sans-Serif" font-size="10.00">+ find()</text>
<text text-anchor="start" x="94.5" y="-537.5" font-family="Helvetica,sans-Serif" font-size="10.00">+ stringify()</text>
<text text-anchor="start" x="94.5" y="-526.5" font-family="Helvetica,sans-Serif" font-size="10.00">+ getRequiredChild()</text>
<text text-anchor="start" x="94.5" y="-515.5" font-family="Helvetica,sans-Serif" font-size="10.00">+ getOptionalChild()</text>
<text text-anchor="start" x="94.5" y="-504.5" font-family="Helvetica,sans-Serif" font-size="10.00">and 6 more...</text>
<text text-anchor="start" x="94.5" y="-493.5" font-family="Helvetica,sans-Serif" font-size="10.00">+ createFromStream()</text>
<text text-anchor="start" x="94.5" y="-482.5" font-family="Helvetica,sans-Serif" font-size="10.00">+ createFromString()</text>
<text text-anchor="start" x="94.5" y="-471.5" font-family="Helvetica,sans-Serif" font-size="10.00">+ createFromFile()</text>
<text text-anchor="start" x="94.5" y="-460.5" font-family="Helvetica,sans-Serif" font-size="10.00"># XMLObject()</text>
<text text-anchor="start" x="94.5" y="-449.5" font-family="Helvetica,sans-Serif" font-size="10.00"># createObject()</text>
</a>
</g>
</g>
<!-- Node3&#45;&gt;Node2 -->
<g id="edge2" class="edge">
<title>Node3&#45;&gt;Node2</title>
<path fill="none" stroke="midnightblue" d="M149.5,-432.24C149.5,-422.93 149.5,-414.03 149.5,-405.8"/>
<polygon fill="none" stroke="midnightblue" points="146,-432.49 149.5,-442.49 153,-432.49 146,-432.49"/>
</g>
<!-- Node6 -->
<g id="node6" class="node">
<title>Node6</title>
<g id="a_node6"><a xlink:href="classXML_1_1bpmn_1_1formalExpression.html" target="_top" xlink:title=" ">
<polygon fill="none" stroke="black" points="152,-0.5 152,-57.5 315,-57.5 315,-0.5 152,-0.5"/>
<text text-anchor="middle" x="233.5" y="-45.5" font-family="Helvetica,sans-Serif" font-size="10.00">XML::bpmn::formalExpression</text>
<polyline fill="none" stroke="black" points="152,-38.5 315,-38.5 "/>
<text text-anchor="start" x="160" y="-26.5" font-family="Helvetica,sans-Serif" font-size="10.00">+ defaults</text>
<polyline fill="none" stroke="black" points="152,-19.5 315,-19.5 "/>
<text text-anchor="start" x="160" y="-7.5" font-family="Helvetica,sans-Serif" font-size="10.00"># formalExpression()</text>
</a>
</g>
</g>
<!-- Node5&#45;&gt;Node6 -->
<g id="edge5" class="edge">
<title>Node5&#45;&gt;Node6</title>
<path fill="none" stroke="midnightblue" d="M233.5,-84.16C233.5,-75.04 233.5,-65.81 233.5,-57.61"/>
<polygon fill="none" stroke="midnightblue" points="230,-84.35 233.5,-94.35 237,-84.35 230,-84.35"/>
</g>
</g>
</svg>
