<?xml version="1.0" encoding="UTF-8" standalone="no"?>
<!DOCTYPE svg PUBLIC "-//W3C//DTD SVG 1.1//EN"
 "http://www.w3.org/Graphics/SVG/1.1/DTD/svg11.dtd">
<!-- Generated by graphviz version 2.43.0 (0)
 -->
<!-- Title: XML::bpmn::textAnnotation Pages: 1 -->
<svg width="157pt" height="817pt"
 viewBox="0.00 0.00 157.00 817.00" xmlns="http://www.w3.org/2000/svg" xmlns:xlink="http://www.w3.org/1999/xlink">
<g id="graph0" class="graph" transform="scale(1 1) rotate(0) translate(4 813)">
<title>XML::bpmn::textAnnotation</title>
<!-- Node1 -->
<g id="Node000001" class="node">
<title>Node1</title>
<g id="a_Node000001"><a xlink:title=" ">
<polygon fill="#999999" stroke="transparent" points="146.5,-49 2.5,-49 2.5,0 146.5,0 146.5,-49"/>
<text text-anchor="start" x="7.5" y="-36.5" font-family="Helvetica,sans-Serif" font-size="10.00">XML::bpmn::textAnnotation</text>
<text text-anchor="start" x="17" y="-21.5" font-family="Helvetica,sans-Serif" font-size="10.00">+</text>
<text text-anchor="start" x="40.5" y="-21.5" font-family="Helvetica,sans-Serif" font-size="10.00">defaults</text>
<text text-anchor="start" x="17" y="-6.5" font-family="Helvetica,sans-Serif" font-size="10.00">#</text>
<text text-anchor="start" x="40.5" y="-6.5" font-family="Helvetica,sans-Serif" font-size="10.00">textAnnotation()</text>
<polygon fill="#666666" stroke="#666666" points="2.5,-31.5 2.5,-31.5 146.5,-31.5 146.5,-31.5 2.5,-31.5"/>
<polygon fill="#666666" stroke="#666666" points="2.5,-16.5 2.5,-16.5 38.5,-16.5 38.5,-16.5 2.5,-16.5"/>
<polygon fill="#666666" stroke="#666666" points="38.5,-16.5 38.5,-16.5 146.5,-16.5 146.5,-16.5 38.5,-16.5"/>
<polygon fill="none" stroke="#666666" points="2.5,0 2.5,-49 146.5,-49 146.5,0 2.5,0"/>
</a>
</g>
</g>
<!-- Node2 -->
<g id="Node000002" class="node">
<title>Node2</title>
<g id="a_Node000002"><a xlink:href="classXML_1_1bpmn_1_1tTextAnnotation.html" target="_top" xlink:title=" ">
<polygon fill="white" stroke="transparent" points="149,-164 0,-164 0,-85 149,-85 149,-164"/>
<text text-anchor="start" x="5.5" y="-151.5" font-family="Helvetica,sans-Serif" font-size="10.00">XML::bpmn::tTextAnnotation</text>
<text text-anchor="start" x="15" y="-136.5" font-family="Helvetica,sans-Serif" font-size="10.00">+</text>
<text text-anchor="start" x="38.5" y="-136.5" font-family="Helvetica,sans-Serif" font-size="10.00">text</text>
<text text-anchor="start" x="15" y="-121.5" font-family="Helvetica,sans-Serif" font-size="10.00">+</text>
<text text-anchor="start" x="38.5" y="-121.5" font-family="Helvetica,sans-Serif" font-size="10.00">textFormat</text>
<text text-anchor="start" x="15" y="-106.5" font-family="Helvetica,sans-Serif" font-size="10.00">+</text>
<text text-anchor="start" x="38.5" y="-106.5" font-family="Helvetica,sans-Serif" font-size="10.00">defaults</text>
<text text-anchor="start" x="15" y="-91.5" font-family="Helvetica,sans-Serif" font-size="10.00">#</text>
<text text-anchor="start" x="38.5" y="-91.5" font-family="Helvetica,sans-Serif" font-size="10.00">tTextAnnotation()</text>
<polygon fill="#666666" stroke="#666666" points="0.5,-146.5 0.5,-146.5 149.5,-146.5 149.5,-146.5 0.5,-146.5"/>
<polygon fill="#666666" stroke="#666666" points="0.5,-101.5 0.5,-101.5 36.5,-101.5 36.5,-101.5 0.5,-101.5"/>
<polygon fill="#666666" stroke="#666666" points="36.5,-101.5 36.5,-101.5 149.5,-101.5 149.5,-101.5 36.5,-101.5"/>
<polygon fill="none" stroke="#666666" points="0,-85 0,-164 149,-164 149,-85 0,-85"/>
</a>
</g>
</g>
<!-- Node2&#45;&gt;Node1 -->
<g id="edge1_Node000001_Node000002" class="edge">
<title>Node2&#45;&gt;Node1</title>
<g id="a_edge1_Node000001_Node000002"><a xlink:title=" ">
<path fill="none" stroke="#63b8ff" d="M74.5,-74.72C74.5,-65.75 74.5,-56.78 74.5,-49"/>
<polygon fill="none" stroke="#63b8ff" points="71,-74.77 74.5,-84.77 78,-74.77 71,-74.77"/>
</a>
</g>
</g>
<!-- Node3 -->
<g id="Node000003" class="node">
<title>Node3</title>
<g id="a_Node000003"><a xlink:href="classXML_1_1bpmn_1_1tArtifact.html" target="_top" xlink:title=" ">
<polygon fill="white" stroke="transparent" points="130,-249 19,-249 19,-200 130,-200 130,-249"/>
<text text-anchor="start" x="24.5" y="-236.5" font-family="Helvetica,sans-Serif" font-size="10.00">XML::bpmn::tArtifact</text>
<text text-anchor="start" x="34" y="-221.5" font-family="Helvetica,sans-Serif" font-size="10.00">+</text>
<text text-anchor="start" x="57.5" y="-221.5" font-family="Helvetica,sans-Serif" font-size="10.00">defaults</text>
<text text-anchor="start" x="34" y="-206.5" font-family="Helvetica,sans-Serif" font-size="10.00">#</text>
<text text-anchor="start" x="57.5" y="-206.5" font-family="Helvetica,sans-Serif" font-size="10.00">tArtifact()</text>
<polygon fill="#666666" stroke="#666666" points="19.5,-231.5 19.5,-231.5 130.5,-231.5 130.5,-231.5 19.5,-231.5"/>
<polygon fill="#666666" stroke="#666666" points="19.5,-216.5 19.5,-216.5 55.5,-216.5 55.5,-216.5 19.5,-216.5"/>
<polygon fill="#666666" stroke="#666666" points="55.5,-216.5 55.5,-216.5 130.5,-216.5 130.5,-216.5 55.5,-216.5"/>
<polygon fill="none" stroke="#666666" points="19,-200 19,-249 130,-249 130,-200 19,-200"/>
</a>
</g>
</g>
<!-- Node3&#45;&gt;Node2 -->
<g id="edge2_Node000002_Node000003" class="edge">
<title>Node3&#45;&gt;Node2</title>
<g id="a_edge2_Node000002_Node000003"><a xlink:title=" ">
<path fill="none" stroke="#63b8ff" d="M74.5,-189.52C74.5,-181.38 74.5,-172.63 74.5,-164.29"/>
<polygon fill="none" stroke="#63b8ff" points="71,-189.78 74.5,-199.78 78,-189.78 71,-189.78"/>
</a>
</g>
</g>
<!-- Node4 -->
<g id="Node000004" class="node">
<title>Node4</title>
<g id="a_Node000004"><a xlink:href="classXML_1_1bpmn_1_1tBaseElement.html" target="_top" xlink:title=" ">
<polygon fill="white" stroke="transparent" points="144.5,-379 4.5,-379 4.5,-285 144.5,-285 144.5,-379"/>
<text text-anchor="start" x="9.5" y="-367" font-family="Helvetica,sans-Serif" font-size="10.00">XML::bpmn::tBaseElement</text>
<text text-anchor="start" x="14.5" y="-352" font-family="Helvetica,sans-Serif" font-size="10.00">+</text>
<text text-anchor="start" x="33.5" y="-352" font-family="Helvetica,sans-Serif" font-size="10.00">documentation</text>
<text text-anchor="start" x="14.5" y="-337" font-family="Helvetica,sans-Serif" font-size="10.00">+</text>
<text text-anchor="start" x="33.5" y="-337" font-family="Helvetica,sans-Serif" font-size="10.00">extensionElements</text>
<text text-anchor="start" x="14.5" y="-322" font-family="Helvetica,sans-Serif" font-size="10.00">+</text>
<text text-anchor="start" x="33.5" y="-322" font-family="Helvetica,sans-Serif" font-size="10.00">id</text>
<text text-anchor="start" x="14.5" y="-307" font-family="Helvetica,sans-Serif" font-size="10.00">+</text>
<text text-anchor="start" x="33.5" y="-307" font-family="Helvetica,sans-Serif" font-size="10.00">defaults</text>
<text text-anchor="start" x="14.5" y="-292" font-family="Helvetica,sans-Serif" font-size="10.00">#</text>
<text text-anchor="start" x="33.5" y="-292" font-family="Helvetica,sans-Serif" font-size="10.00">tBaseElement()</text>
<polygon fill="#666666" stroke="#666666" points="4.5,-362 4.5,-362 144.5,-362 144.5,-362 4.5,-362"/>
<polygon fill="#666666" stroke="#666666" points="4.5,-302 4.5,-302 31.5,-302 31.5,-302 4.5,-302"/>
<polygon fill="#666666" stroke="#666666" points="31.5,-302 31.5,-302 144.5,-302 144.5,-302 31.5,-302"/>
<polygon fill="none" stroke="#666666" points="4.5,-285 4.5,-379 144.5,-379 144.5,-285 4.5,-285"/>
</a>
</g>
</g>
<!-- Node4&#45;&gt;Node3 -->
<g id="edge3_Node000003_Node000004" class="edge">
<title>Node4&#45;&gt;Node3</title>
<g id="a_edge3_Node000003_Node000004"><a xlink:title=" ">
<path fill="none" stroke="#63b8ff" d="M74.5,-274.59C74.5,-265.62 74.5,-256.79 74.5,-249.15"/>
<polygon fill="none" stroke="#63b8ff" points="71,-274.73 74.5,-284.73 78,-274.73 71,-274.73"/>
</a>
</g>
</g>
<!-- Node5 -->
<g id="Node000005" class="node">
<title>Node5</title>
<g id="a_Node000005"><a xlink:href="classXML_1_1XMLObject.html" target="_top" xlink:title="A class representing a node in an XML&#45;tree.">
<polygon fill="white" stroke="transparent" points="134.5,-809 14.5,-809 14.5,-415 134.5,-415 134.5,-809"/>
<text text-anchor="start" x="34.5" y="-797" font-family="Helvetica,sans-Serif" font-size="10.00">XML::XMLObject</text>
<text text-anchor="start" x="18.5" y="-782" font-family="Helvetica,sans-Serif" font-size="10.00">+</text>
<text text-anchor="start" x="31.5" y="-782" font-family="Helvetica,sans-Serif" font-size="10.00">xmlns</text>
<text text-anchor="start" x="18.5" y="-767" font-family="Helvetica,sans-Serif" font-size="10.00">+</text>
<text text-anchor="start" x="31.5" y="-767" font-family="Helvetica,sans-Serif" font-size="10.00">className</text>
<text text-anchor="start" x="18.5" y="-752" font-family="Helvetica,sans-Serif" font-size="10.00">+</text>
<text text-anchor="start" x="31.5" y="-752" font-family="Helvetica,sans-Serif" font-size="10.00">prefix</text>
<text text-anchor="start" x="18.5" y="-737" font-family="Helvetica,sans-Serif" font-size="10.00">+</text>
<text text-anchor="start" x="31.5" y="-737" font-family="Helvetica,sans-Serif" font-size="10.00">elementName</text>
<text text-anchor="start" x="18.5" y="-722" font-family="Helvetica,sans-Serif" font-size="10.00">+</text>
<text text-anchor="start" x="31.5" y="-722" font-family="Helvetica,sans-Serif" font-size="10.00">textContent</text>
<text text-anchor="start" x="18.5" y="-707" font-family="Helvetica,sans-Serif" font-size="10.00">+</text>
<text text-anchor="start" x="31.5" y="-707" font-family="Helvetica,sans-Serif" font-size="10.00">children</text>
<text text-anchor="start" x="18.5" y="-692" font-family="Helvetica,sans-Serif" font-size="10.00">+</text>
<text text-anchor="start" x="31.5" y="-692" font-family="Helvetica,sans-Serif" font-size="10.00">attributes</text>
<text text-anchor="start" x="18.5" y="-677" font-family="Helvetica,sans-Serif" font-size="10.00">+</text>
<text text-anchor="start" x="31.5" y="-677" font-family="Helvetica,sans-Serif" font-size="10.00">defaults</text>
<text text-anchor="start" x="18.5" y="-662" font-family="Helvetica,sans-Serif" font-size="10.00">#</text>
<text text-anchor="start" x="31.5" y="-662" font-family="Helvetica,sans-Serif" font-size="10.00">factory</text>
<text text-anchor="start" x="18.5" y="-647" font-family="Helvetica,sans-Serif" font-size="10.00">+</text>
<text text-anchor="start" x="31.5" y="-647" font-family="Helvetica,sans-Serif" font-size="10.00">~XMLObject()</text>
<text text-anchor="start" x="18.5" y="-632" font-family="Helvetica,sans-Serif" font-size="10.00">+</text>
<text text-anchor="start" x="31.5" y="-632" font-family="Helvetica,sans-Serif" font-size="10.00">is()</text>
<text text-anchor="start" x="18.5" y="-617" font-family="Helvetica,sans-Serif" font-size="10.00">+</text>
<text text-anchor="start" x="31.5" y="-617" font-family="Helvetica,sans-Serif" font-size="10.00">is()</text>
<text text-anchor="start" x="18.5" y="-602" font-family="Helvetica,sans-Serif" font-size="10.00">+</text>
<text text-anchor="start" x="31.5" y="-602" font-family="Helvetica,sans-Serif" font-size="10.00">get()</text>
<text text-anchor="start" x="18.5" y="-587" font-family="Helvetica,sans-Serif" font-size="10.00">+</text>
<text text-anchor="start" x="31.5" y="-587" font-family="Helvetica,sans-Serif" font-size="10.00">get()</text>
<text text-anchor="start" x="18.5" y="-572" font-family="Helvetica,sans-Serif" font-size="10.00">+</text>
<text text-anchor="start" x="31.5" y="-572" font-family="Helvetica,sans-Serif" font-size="10.00">find()</text>
<text text-anchor="start" x="18.5" y="-557" font-family="Helvetica,sans-Serif" font-size="10.00">+</text>
<text text-anchor="start" x="31.5" y="-557" font-family="Helvetica,sans-Serif" font-size="10.00">find()</text>
<text text-anchor="start" x="18.5" y="-542" font-family="Helvetica,sans-Serif" font-size="10.00">+</text>
<text text-anchor="start" x="31.5" y="-542" font-family="Helvetica,sans-Serif" font-size="10.00">stringify()</text>
<text text-anchor="start" x="18.5" y="-527" font-family="Helvetica,sans-Serif" font-size="10.00">+</text>
<text text-anchor="start" x="31.5" y="-527" font-family="Helvetica,sans-Serif" font-size="10.00">format()</text>
<text text-anchor="start" x="18.5" y="-512" font-family="Helvetica,sans-Serif" font-size="10.00">+</text>
<text text-anchor="start" x="31.5" y="-512" font-family="Helvetica,sans-Serif" font-size="10.00">getRequiredChild()</text>
<text text-anchor="start" x="31.5" y="-497" font-family="Helvetica,sans-Serif" font-size="10.00">and 7 more...</text>
<text text-anchor="start" x="18.5" y="-482" font-family="Helvetica,sans-Serif" font-size="10.00">+</text>
<text text-anchor="start" x="31.5" y="-482" font-family="Helvetica,sans-Serif" font-size="10.00">createFromStream()</text>
<text text-anchor="start" x="18.5" y="-467" font-family="Helvetica,sans-Serif" font-size="10.00">+</text>
<text text-anchor="start" x="31.5" y="-467" font-family="Helvetica,sans-Serif" font-size="10.00">createFromString()</text>
<text text-anchor="start" x="18.5" y="-452" font-family="Helvetica,sans-Serif" font-size="10.00">+</text>
<text text-anchor="start" x="31.5" y="-452" font-family="Helvetica,sans-Serif" font-size="10.00">createFromFile()</text>
<text text-anchor="start" x="18.5" y="-437" font-family="Helvetica,sans-Serif" font-size="10.00">#</text>
<text text-anchor="start" x="31.5" y="-437" font-family="Helvetica,sans-Serif" font-size="10.00">XMLObject()</text>
<text text-anchor="start" x="18.5" y="-422" font-family="Helvetica,sans-Serif" font-size="10.00">#</text>
<text text-anchor="start" x="31.5" y="-422" font-family="Helvetica,sans-Serif" font-size="10.00">createObject()</text>
<polygon fill="#666666" stroke="#666666" points="14.5,-792 14.5,-792 134.5,-792 134.5,-792 14.5,-792"/>
<polygon fill="#666666" stroke="#666666" points="14.5,-657 14.5,-657 29.5,-657 29.5,-657 14.5,-657"/>
<polygon fill="#666666" stroke="#666666" points="29.5,-657 29.5,-657 134.5,-657 134.5,-657 29.5,-657"/>
<polygon fill="none" stroke="#666666" points="14.5,-415 14.5,-809 134.5,-809 134.5,-415 14.5,-415"/>
</a>
</g>
</g>
<!-- Node5&#45;&gt;Node4 -->
<g id="edge4_Node000004_Node000005" class="edge">
<title>Node5&#45;&gt;Node4</title>
<g id="a_edge4_Node000004_Node000005"><a xlink:title=" ">
<path fill="none" stroke="#63b8ff" d="M74.5,-404.78C74.5,-395.62 74.5,-386.97 74.5,-379.06"/>
<polygon fill="none" stroke="#63b8ff" points="71,-404.91 74.5,-414.91 78,-404.91 71,-404.91"/>
</a>
</g>
</g>
</g>
</svg>
