<?xml version="1.0" encoding="UTF-8" standalone="no"?>
<!DOCTYPE svg PUBLIC "-//W3C//DTD SVG 1.1//EN"
 "http://www.w3.org/Graphics/SVG/1.1/DTD/svg11.dtd">
<!-- Generated by graphviz version 2.43.0 (0)
 -->
<!-- Title: XML::bpmn::tDataAssociation Pages: 1 -->
<svg width="561pt" height="847pt"
 viewBox="0.00 0.00 560.50 847.00" xmlns="http://www.w3.org/2000/svg" xmlns:xlink="http://www.w3.org/1999/xlink">
<g id="graph0" class="graph" transform="scale(1 1) rotate(0) translate(4 843)">
<title>XML::bpmn::tDataAssociation</title>
<!-- Node1 -->
<g id="Node000001" class="node">
<title>Node1</title>
<g id="a_Node000001"><a xlink:title=" ">
<polygon fill="#999999" stroke="transparent" points="334,-279 179,-279 179,-170 334,-170 334,-279"/>
<text text-anchor="start" x="184.5" y="-266.5" font-family="Helvetica,sans-Serif" font-size="10.00">XML::bpmn::tDataAssociation</text>
<text text-anchor="start" x="194" y="-251.5" font-family="Helvetica,sans-Serif" font-size="10.00">+</text>
<text text-anchor="start" x="217.5" y="-251.5" font-family="Helvetica,sans-Serif" font-size="10.00">sourceRef</text>
<text text-anchor="start" x="194" y="-236.5" font-family="Helvetica,sans-Serif" font-size="10.00">+</text>
<text text-anchor="start" x="217.5" y="-236.5" font-family="Helvetica,sans-Serif" font-size="10.00">targetRef</text>
<text text-anchor="start" x="194" y="-221.5" font-family="Helvetica,sans-Serif" font-size="10.00">+</text>
<text text-anchor="start" x="217.5" y="-221.5" font-family="Helvetica,sans-Serif" font-size="10.00">transformation</text>
<text text-anchor="start" x="194" y="-206.5" font-family="Helvetica,sans-Serif" font-size="10.00">+</text>
<text text-anchor="start" x="217.5" y="-206.5" font-family="Helvetica,sans-Serif" font-size="10.00">assignment</text>
<text text-anchor="start" x="194" y="-191.5" font-family="Helvetica,sans-Serif" font-size="10.00">+</text>
<text text-anchor="start" x="217.5" y="-191.5" font-family="Helvetica,sans-Serif" font-size="10.00">defaults</text>
<text text-anchor="start" x="194" y="-176.5" font-family="Helvetica,sans-Serif" font-size="10.00">#</text>
<text text-anchor="start" x="217.5" y="-176.5" font-family="Helvetica,sans-Serif" font-size="10.00">tDataAssociation()</text>
<polygon fill="#666666" stroke="#666666" points="179.5,-261.5 179.5,-261.5 334.5,-261.5 334.5,-261.5 179.5,-261.5"/>
<polygon fill="#666666" stroke="#666666" points="179.5,-186.5 179.5,-186.5 215.5,-186.5 215.5,-186.5 179.5,-186.5"/>
<polygon fill="#666666" stroke="#666666" points="215.5,-186.5 215.5,-186.5 334.5,-186.5 334.5,-186.5 215.5,-186.5"/>
<polygon fill="none" stroke="#666666" points="179,-170 179,-279 334,-279 334,-170 179,-170"/>
</a>
</g>
</g>
<!-- Node4 -->
<g id="Node000004" class="node">
<title>Node4</title>
<g id="a_Node000004"><a xlink:href="classXML_1_1bpmn_1_1dataAssociation.html" target="_top" xlink:title=" ">
<polygon fill="white" stroke="transparent" points="149,-134 0,-134 0,-85 149,-85 149,-134"/>
<text text-anchor="start" x="5.5" y="-121.5" font-family="Helvetica,sans-Serif" font-size="10.00">XML::bpmn::dataAssociation</text>
<text text-anchor="start" x="15" y="-106.5" font-family="Helvetica,sans-Serif" font-size="10.00">+</text>
<text text-anchor="start" x="38.5" y="-106.5" font-family="Helvetica,sans-Serif" font-size="10.00">defaults</text>
<text text-anchor="start" x="15" y="-91.5" font-family="Helvetica,sans-Serif" font-size="10.00">#</text>
<text text-anchor="start" x="38.5" y="-91.5" font-family="Helvetica,sans-Serif" font-size="10.00">dataAssociation()</text>
<polygon fill="#666666" stroke="#666666" points="0.5,-116.5 0.5,-116.5 149.5,-116.5 149.5,-116.5 0.5,-116.5"/>
<polygon fill="#666666" stroke="#666666" points="0.5,-101.5 0.5,-101.5 36.5,-101.5 36.5,-101.5 0.5,-101.5"/>
<polygon fill="#666666" stroke="#666666" points="36.5,-101.5 36.5,-101.5 149.5,-101.5 149.5,-101.5 36.5,-101.5"/>
<polygon fill="none" stroke="#666666" points="0,-85 0,-134 149,-134 149,-85 0,-85"/>
</a>
</g>
</g>
<!-- Node1&#45;&gt;Node4 -->
<g id="edge3_Node000001_Node000004" class="edge">
<title>Node1&#45;&gt;Node4</title>
<g id="a_edge3_Node000001_Node000004"><a xlink:title=" ">
<path fill="none" stroke="#63b8ff" d="M170.12,-169.87C149.83,-157.27 129.23,-144.48 112.38,-134.02"/>
<polygon fill="none" stroke="#63b8ff" points="168.45,-172.95 178.79,-175.25 172.14,-167 168.45,-172.95"/>
</a>
</g>
</g>
<!-- Node5 -->
<g id="Node000005" class="node">
<title>Node5</title>
<g id="a_Node000005"><a xlink:href="classXML_1_1bpmn_1_1tDataInputAssociation.html" target="_top" xlink:title=" ">
<polygon fill="white" stroke="transparent" points="346,-134 167,-134 167,-85 346,-85 346,-134"/>
<text text-anchor="start" x="172.5" y="-121.5" font-family="Helvetica,sans-Serif" font-size="10.00">XML::bpmn::tDataInputAssociation</text>
<text text-anchor="start" x="182" y="-106.5" font-family="Helvetica,sans-Serif" font-size="10.00">+</text>
<text text-anchor="start" x="205.5" y="-106.5" font-family="Helvetica,sans-Serif" font-size="10.00">defaults</text>
<text text-anchor="start" x="182" y="-91.5" font-family="Helvetica,sans-Serif" font-size="10.00">#</text>
<text text-anchor="start" x="205.5" y="-91.5" font-family="Helvetica,sans-Serif" font-size="10.00">tDataInputAssociation()</text>
<polygon fill="#666666" stroke="#666666" points="167.5,-116.5 167.5,-116.5 346.5,-116.5 346.5,-116.5 167.5,-116.5"/>
<polygon fill="#666666" stroke="#666666" points="167.5,-101.5 167.5,-101.5 203.5,-101.5 203.5,-101.5 167.5,-101.5"/>
<polygon fill="#666666" stroke="#666666" points="203.5,-101.5 203.5,-101.5 346.5,-101.5 346.5,-101.5 203.5,-101.5"/>
<polygon fill="none" stroke="#666666" points="167,-85 167,-134 346,-134 346,-85 167,-85"/>
</a>
</g>
</g>
<!-- Node1&#45;&gt;Node5 -->
<g id="edge4_Node000001_Node000005" class="edge">
<title>Node1&#45;&gt;Node5</title>
<g id="a_edge4_Node000001_Node000005"><a xlink:title=" ">
<path fill="none" stroke="#63b8ff" d="M256.5,-159.69C256.5,-150.63 256.5,-141.82 256.5,-134.23"/>
<polygon fill="none" stroke="#63b8ff" points="253,-159.98 256.5,-169.98 260,-159.98 253,-159.98"/>
</a>
</g>
</g>
<!-- Node7 -->
<g id="Node000007" class="node">
<title>Node7</title>
<g id="a_Node000007"><a xlink:href="classXML_1_1bpmn_1_1tDataOutputAssociation.html" target="_top" xlink:title=" ">
<polygon fill="white" stroke="transparent" points="552.5,-134 364.5,-134 364.5,-85 552.5,-85 552.5,-134"/>
<text text-anchor="start" x="369.5" y="-121.5" font-family="Helvetica,sans-Serif" font-size="10.00">XML::bpmn::tDataOutputAssociation</text>
<text text-anchor="start" x="379" y="-106.5" font-family="Helvetica,sans-Serif" font-size="10.00">+</text>
<text text-anchor="start" x="402.5" y="-106.5" font-family="Helvetica,sans-Serif" font-size="10.00">defaults</text>
<text text-anchor="start" x="379" y="-91.5" font-family="Helvetica,sans-Serif" font-size="10.00">#</text>
<text text-anchor="start" x="402.5" y="-91.5" font-family="Helvetica,sans-Serif" font-size="10.00">tDataOutputAssociation()</text>
<polygon fill="#666666" stroke="#666666" points="364.5,-116.5 364.5,-116.5 552.5,-116.5 552.5,-116.5 364.5,-116.5"/>
<polygon fill="#666666" stroke="#666666" points="364.5,-101.5 364.5,-101.5 400.5,-101.5 400.5,-101.5 364.5,-101.5"/>
<polygon fill="#666666" stroke="#666666" points="400.5,-101.5 400.5,-101.5 552.5,-101.5 552.5,-101.5 400.5,-101.5"/>
<polygon fill="none" stroke="#666666" points="364.5,-85 364.5,-134 552.5,-134 552.5,-85 364.5,-85"/>
</a>
</g>
</g>
<!-- Node1&#45;&gt;Node7 -->
<g id="edge6_Node000001_Node000007" class="edge">
<title>Node1&#45;&gt;Node7</title>
<g id="a_edge6_Node000001_Node000007"><a xlink:title=" ">
<path fill="none" stroke="#63b8ff" d="M342.93,-175.15C368.3,-160.96 394.92,-146.07 416.21,-134.16"/>
<polygon fill="none" stroke="#63b8ff" points="341.04,-172.2 334.02,-180.13 344.46,-178.31 341.04,-172.2"/>
</a>
</g>
</g>
<!-- Node2 -->
<g id="Node000002" class="node">
<title>Node2</title>
<g id="a_Node000002"><a xlink:href="classXML_1_1bpmn_1_1tBaseElement.html" target="_top" xlink:title=" ">
<polygon fill="white" stroke="transparent" points="326.5,-409 186.5,-409 186.5,-315 326.5,-315 326.5,-409"/>
<text text-anchor="start" x="191.5" y="-397" font-family="Helvetica,sans-Serif" font-size="10.00">XML::bpmn::tBaseElement</text>
<text text-anchor="start" x="196.5" y="-382" font-family="Helvetica,sans-Serif" font-size="10.00">+</text>
<text text-anchor="start" x="215.5" y="-382" font-family="Helvetica,sans-Serif" font-size="10.00">documentation</text>
<text text-anchor="start" x="196.5" y="-367" font-family="Helvetica,sans-Serif" font-size="10.00">+</text>
<text text-anchor="start" x="215.5" y="-367" font-family="Helvetica,sans-Serif" font-size="10.00">extensionElements</text>
<text text-anchor="start" x="196.5" y="-352" font-family="Helvetica,sans-Serif" font-size="10.00">+</text>
<text text-anchor="start" x="215.5" y="-352" font-family="Helvetica,sans-Serif" font-size="10.00">id</text>
<text text-anchor="start" x="196.5" y="-337" font-family="Helvetica,sans-Serif" font-size="10.00">+</text>
<text text-anchor="start" x="215.5" y="-337" font-family="Helvetica,sans-Serif" font-size="10.00">defaults</text>
<text text-anchor="start" x="196.5" y="-322" font-family="Helvetica,sans-Serif" font-size="10.00">#</text>
<text text-anchor="start" x="215.5" y="-322" font-family="Helvetica,sans-Serif" font-size="10.00">tBaseElement()</text>
<polygon fill="#666666" stroke="#666666" points="186.5,-392 186.5,-392 326.5,-392 326.5,-392 186.5,-392"/>
<polygon fill="#666666" stroke="#666666" points="186.5,-332 186.5,-332 213.5,-332 213.5,-332 186.5,-332"/>
<polygon fill="#666666" stroke="#666666" points="213.5,-332 213.5,-332 326.5,-332 326.5,-332 213.5,-332"/>
<polygon fill="none" stroke="#666666" points="186.5,-315 186.5,-409 326.5,-409 326.5,-315 186.5,-315"/>
</a>
</g>
</g>
<!-- Node2&#45;&gt;Node1 -->
<g id="edge1_Node000001_Node000002" class="edge">
<title>Node2&#45;&gt;Node1</title>
<g id="a_edge1_Node000001_Node000002"><a xlink:title=" ">
<path fill="none" stroke="#63b8ff" d="M256.5,-304.58C256.5,-296.12 256.5,-287.41 256.5,-279.01"/>
<polygon fill="none" stroke="#63b8ff" points="253,-304.75 256.5,-314.75 260,-304.75 253,-304.75"/>
</a>
</g>
</g>
<!-- Node3 -->
<g id="Node000003" class="node">
<title>Node3</title>
<g id="a_Node000003"><a xlink:href="classXML_1_1XMLObject.html" target="_top" xlink:title="A class representing a node in an XML&#45;tree.">
<polygon fill="white" stroke="transparent" points="316.5,-839 196.5,-839 196.5,-445 316.5,-445 316.5,-839"/>
<text text-anchor="start" x="216.5" y="-827" font-family="Helvetica,sans-Serif" font-size="10.00">XML::XMLObject</text>
<text text-anchor="start" x="200.5" y="-812" font-family="Helvetica,sans-Serif" font-size="10.00">+</text>
<text text-anchor="start" x="213.5" y="-812" font-family="Helvetica,sans-Serif" font-size="10.00">xmlns</text>
<text text-anchor="start" x="200.5" y="-797" font-family="Helvetica,sans-Serif" font-size="10.00">+</text>
<text text-anchor="start" x="213.5" y="-797" font-family="Helvetica,sans-Serif" font-size="10.00">className</text>
<text text-anchor="start" x="200.5" y="-782" font-family="Helvetica,sans-Serif" font-size="10.00">+</text>
<text text-anchor="start" x="213.5" y="-782" font-family="Helvetica,sans-Serif" font-size="10.00">prefix</text>
<text text-anchor="start" x="200.5" y="-767" font-family="Helvetica,sans-Serif" font-size="10.00">+</text>
<text text-anchor="start" x="213.5" y="-767" font-family="Helvetica,sans-Serif" font-size="10.00">elementName</text>
<text text-anchor="start" x="200.5" y="-752" font-family="Helvetica,sans-Serif" font-size="10.00">+</text>
<text text-anchor="start" x="213.5" y="-752" font-family="Helvetica,sans-Serif" font-size="10.00">textContent</text>
<text text-anchor="start" x="200.5" y="-737" font-family="Helvetica,sans-Serif" font-size="10.00">+</text>
<text text-anchor="start" x="213.5" y="-737" font-family="Helvetica,sans-Serif" font-size="10.00">children</text>
<text text-anchor="start" x="200.5" y="-722" font-family="Helvetica,sans-Serif" font-size="10.00">+</text>
<text text-anchor="start" x="213.5" y="-722" font-family="Helvetica,sans-Serif" font-size="10.00">attributes</text>
<text text-anchor="start" x="200.5" y="-707" font-family="Helvetica,sans-Serif" font-size="10.00">+</text>
<text text-anchor="start" x="213.5" y="-707" font-family="Helvetica,sans-Serif" font-size="10.00">defaults</text>
<text text-anchor="start" x="200.5" y="-692" font-family="Helvetica,sans-Serif" font-size="10.00">#</text>
<text text-anchor="start" x="213.5" y="-692" font-family="Helvetica,sans-Serif" font-size="10.00">factory</text>
<text text-anchor="start" x="200.5" y="-677" font-family="Helvetica,sans-Serif" font-size="10.00">+</text>
<text text-anchor="start" x="213.5" y="-677" font-family="Helvetica,sans-Serif" font-size="10.00">~XMLObject()</text>
<text text-anchor="start" x="200.5" y="-662" font-family="Helvetica,sans-Serif" font-size="10.00">+</text>
<text text-anchor="start" x="213.5" y="-662" font-family="Helvetica,sans-Serif" font-size="10.00">is()</text>
<text text-anchor="start" x="200.5" y="-647" font-family="Helvetica,sans-Serif" font-size="10.00">+</text>
<text text-anchor="start" x="213.5" y="-647" font-family="Helvetica,sans-Serif" font-size="10.00">is()</text>
<text text-anchor="start" x="200.5" y="-632" font-family="Helvetica,sans-Serif" font-size="10.00">+</text>
<text text-anchor="start" x="213.5" y="-632" font-family="Helvetica,sans-Serif" font-size="10.00">get()</text>
<text text-anchor="start" x="200.5" y="-617" font-family="Helvetica,sans-Serif" font-size="10.00">+</text>
<text text-anchor="start" x="213.5" y="-617" font-family="Helvetica,sans-Serif" font-size="10.00">get()</text>
<text text-anchor="start" x="200.5" y="-602" font-family="Helvetica,sans-Serif" font-size="10.00">+</text>
<text text-anchor="start" x="213.5" y="-602" font-family="Helvetica,sans-Serif" font-size="10.00">find()</text>
<text text-anchor="start" x="200.5" y="-587" font-family="Helvetica,sans-Serif" font-size="10.00">+</text>
<text text-anchor="start" x="213.5" y="-587" font-family="Helvetica,sans-Serif" font-size="10.00">find()</text>
<text text-anchor="start" x="200.5" y="-572" font-family="Helvetica,sans-Serif" font-size="10.00">+</text>
<text text-anchor="start" x="213.5" y="-572" font-family="Helvetica,sans-Serif" font-size="10.00">stringify()</text>
<text text-anchor="start" x="200.5" y="-557" font-family="Helvetica,sans-Serif" font-size="10.00">+</text>
<text text-anchor="start" x="213.5" y="-557" font-family="Helvetica,sans-Serif" font-size="10.00">format()</text>
<text text-anchor="start" x="200.5" y="-542" font-family="Helvetica,sans-Serif" font-size="10.00">+</text>
<text text-anchor="start" x="213.5" y="-542" font-family="Helvetica,sans-Serif" font-size="10.00">getRequiredChild()</text>
<text text-anchor="start" x="213.5" y="-527" font-family="Helvetica,sans-Serif" font-size="10.00">and 7 more...</text>
<text text-anchor="start" x="200.5" y="-512" font-family="Helvetica,sans-Serif" font-size="10.00">+</text>
<text text-anchor="start" x="213.5" y="-512" font-family="Helvetica,sans-Serif" font-size="10.00">createFromStream()</text>
<text text-anchor="start" x="200.5" y="-497" font-family="Helvetica,sans-Serif" font-size="10.00">+</text>
<text text-anchor="start" x="213.5" y="-497" font-family="Helvetica,sans-Serif" font-size="10.00">createFromString()</text>
<text text-anchor="start" x="200.5" y="-482" font-family="Helvetica,sans-Serif" font-size="10.00">+</text>
<text text-anchor="start" x="213.5" y="-482" font-family="Helvetica,sans-Serif" font-size="10.00">createFromFile()</text>
<text text-anchor="start" x="200.5" y="-467" font-family="Helvetica,sans-Serif" font-size="10.00">#</text>
<text text-anchor="start" x="213.5" y="-467" font-family="Helvetica,sans-Serif" font-size="10.00">XMLObject()</text>
<text text-anchor="start" x="200.5" y="-452" font-family="Helvetica,sans-Serif" font-size="10.00">#</text>
<text text-anchor="start" x="213.5" y="-452" font-family="Helvetica,sans-Serif" font-size="10.00">createObject()</text>
<polygon fill="#666666" stroke="#666666" points="196.5,-822 196.5,-822 316.5,-822 316.5,-822 196.5,-822"/>
<polygon fill="#666666" stroke="#666666" points="196.5,-687 196.5,-687 211.5,-687 211.5,-687 196.5,-687"/>
<polygon fill="#666666" stroke="#666666" points="211.5,-687 211.5,-687 316.5,-687 316.5,-687 211.5,-687"/>
<polygon fill="none" stroke="#666666" points="196.5,-445 196.5,-839 316.5,-839 316.5,-445 196.5,-445"/>
</a>
</g>
</g>
<!-- Node3&#45;&gt;Node2 -->
<g id="edge2_Node000002_Node000003" class="edge">
<title>Node3&#45;&gt;Node2</title>
<g id="a_edge2_Node000002_Node000003"><a xlink:title=" ">
<path fill="none" stroke="#63b8ff" d="M256.5,-434.78C256.5,-425.62 256.5,-416.97 256.5,-409.06"/>
<polygon fill="none" stroke="#63b8ff" points="253,-434.91 256.5,-444.91 260,-434.91 253,-434.91"/>
</a>
</g>
</g>
<!-- Node6 -->
<g id="Node000006" class="node">
<title>Node6</title>
<g id="a_Node000006"><a xlink:href="classXML_1_1bpmn_1_1dataInputAssociation.html" target="_top" xlink:title=" ">
<polygon fill="white" stroke="transparent" points="343.5,-49 169.5,-49 169.5,0 343.5,0 343.5,-49"/>
<text text-anchor="start" x="174.5" y="-36.5" font-family="Helvetica,sans-Serif" font-size="10.00">XML::bpmn::dataInputAssociation</text>
<text text-anchor="start" x="184" y="-21.5" font-family="Helvetica,sans-Serif" font-size="10.00">+</text>
<text text-anchor="start" x="207.5" y="-21.5" font-family="Helvetica,sans-Serif" font-size="10.00">defaults</text>
<text text-anchor="start" x="184" y="-6.5" font-family="Helvetica,sans-Serif" font-size="10.00">#</text>
<text text-anchor="start" x="207.5" y="-6.5" font-family="Helvetica,sans-Serif" font-size="10.00">dataInputAssociation()</text>
<polygon fill="#666666" stroke="#666666" points="169.5,-31.5 169.5,-31.5 343.5,-31.5 343.5,-31.5 169.5,-31.5"/>
<polygon fill="#666666" stroke="#666666" points="169.5,-16.5 169.5,-16.5 205.5,-16.5 205.5,-16.5 169.5,-16.5"/>
<polygon fill="#666666" stroke="#666666" points="205.5,-16.5 205.5,-16.5 343.5,-16.5 343.5,-16.5 205.5,-16.5"/>
<polygon fill="none" stroke="#666666" points="169.5,0 169.5,-49 343.5,-49 343.5,0 169.5,0"/>
</a>
</g>
</g>
<!-- Node5&#45;&gt;Node6 -->
<g id="edge5_Node000005_Node000006" class="edge">
<title>Node5&#45;&gt;Node6</title>
<g id="a_edge5_Node000005_Node000006"><a xlink:title=" ">
<path fill="none" stroke="#63b8ff" d="M256.5,-74.77C256.5,-66.17 256.5,-57.1 256.5,-49.12"/>
<polygon fill="none" stroke="#63b8ff" points="253,-74.94 256.5,-84.94 260,-74.94 253,-74.94"/>
</a>
</g>
</g>
<!-- Node8 -->
<g id="Node000008" class="node">
<title>Node8</title>
<g id="a_Node000008"><a xlink:href="classXML_1_1bpmn_1_1dataOutputAssociation.html" target="_top" xlink:title=" ">
<polygon fill="white" stroke="transparent" points="549.5,-49 367.5,-49 367.5,0 549.5,0 549.5,-49"/>
<text text-anchor="start" x="372.5" y="-36.5" font-family="Helvetica,sans-Serif" font-size="10.00">XML::bpmn::dataOutputAssociation</text>
<text text-anchor="start" x="382" y="-21.5" font-family="Helvetica,sans-Serif" font-size="10.00">+</text>
<text text-anchor="start" x="405.5" y="-21.5" font-family="Helvetica,sans-Serif" font-size="10.00">defaults</text>
<text text-anchor="start" x="382" y="-6.5" font-family="Helvetica,sans-Serif" font-size="10.00">#</text>
<text text-anchor="start" x="405.5" y="-6.5" font-family="Helvetica,sans-Serif" font-size="10.00">dataOutputAssociation()</text>
<polygon fill="#666666" stroke="#666666" points="367.5,-31.5 367.5,-31.5 549.5,-31.5 549.5,-31.5 367.5,-31.5"/>
<polygon fill="#666666" stroke="#666666" points="367.5,-16.5 367.5,-16.5 403.5,-16.5 403.5,-16.5 367.5,-16.5"/>
<polygon fill="#666666" stroke="#666666" points="403.5,-16.5 403.5,-16.5 549.5,-16.5 549.5,-16.5 403.5,-16.5"/>
<polygon fill="none" stroke="#666666" points="367.5,0 367.5,-49 549.5,-49 549.5,0 367.5,0"/>
</a>
</g>
</g>
<!-- Node7&#45;&gt;Node8 -->
<g id="edge7_Node000007_Node000008" class="edge">
<title>Node7&#45;&gt;Node8</title>
<g id="a_edge7_Node000007_Node000008"><a xlink:title=" ">
<path fill="none" stroke="#63b8ff" d="M458.5,-74.77C458.5,-66.17 458.5,-57.1 458.5,-49.12"/>
<polygon fill="none" stroke="#63b8ff" points="455,-74.94 458.5,-84.94 462,-74.94 455,-74.94"/>
</a>
</g>
</g>
</g>
</svg>
