<?xml version="1.0" encoding="UTF-8" standalone="no"?>
<!DOCTYPE svg PUBLIC "-//W3C//DTD SVG 1.1//EN"
 "http://www.w3.org/Graphics/SVG/1.1/DTD/svg11.dtd">
<!-- Generated by graphviz version 2.43.0 (0)
 -->
<!-- Title: XML::bpmn::tBaseElementWithMixedContent Pages: 1 -->
<svg width="367pt" height="772pt"
 viewBox="0.00 0.00 366.50 772.00" xmlns="http://www.w3.org/2000/svg" xmlns:xlink="http://www.w3.org/1999/xlink">
<g id="graph0" class="graph" transform="scale(1 1) rotate(0) translate(4 768)">
<title>XML::bpmn::tBaseElementWithMixedContent</title>
<!-- Node1 -->
<g id="node1" class="node">
<title>Node1</title>
<g id="a_node1"><a xlink:title=" ">
<polygon fill="#bfbfbf" stroke="black" points="87.5,-315.5 87.5,-416.5 281.5,-416.5 281.5,-315.5 87.5,-315.5"/>
<text text-anchor="start" x="95.5" y="-404.5" font-family="Helvetica,sans-Serif" font-size="10.00">XML::bpmn::tBaseElementWith</text>
<text text-anchor="middle" x="184.5" y="-393.5" font-family="Helvetica,sans-Serif" font-size="10.00">MixedContent</text>
<polyline fill="none" stroke="black" points="87.5,-386.5 281.5,-386.5 "/>
<text text-anchor="start" x="95.5" y="-374.5" font-family="Helvetica,sans-Serif" font-size="10.00">+ documentation</text>
<text text-anchor="start" x="95.5" y="-363.5" font-family="Helvetica,sans-Serif" font-size="10.00">+ extensionElements</text>
<text text-anchor="start" x="95.5" y="-352.5" font-family="Helvetica,sans-Serif" font-size="10.00">+ id</text>
<text text-anchor="start" x="95.5" y="-341.5" font-family="Helvetica,sans-Serif" font-size="10.00">+ defaults</text>
<polyline fill="none" stroke="black" points="87.5,-334.5 281.5,-334.5 "/>
<text text-anchor="start" x="95.5" y="-322.5" font-family="Helvetica,sans-Serif" font-size="10.00"># tBaseElementWithMixedContent()</text>
</a>
</g>
</g>
<!-- Node3 -->
<g id="node3" class="node">
<title>Node3</title>
<g id="a_node3"><a xlink:href="classXML_1_1bpmn_1_1baseElementWithMixedContent.html" target="_top" xlink:title=" ">
<polygon fill="none" stroke="black" points="0,-210.5 0,-278.5 189,-278.5 189,-210.5 0,-210.5"/>
<text text-anchor="start" x="8" y="-266.5" font-family="Helvetica,sans-Serif" font-size="10.00">XML::bpmn::baseElementWith</text>
<text text-anchor="middle" x="94.5" y="-255.5" font-family="Helvetica,sans-Serif" font-size="10.00">MixedContent</text>
<polyline fill="none" stroke="black" points="0,-248.5 189,-248.5 "/>
<text text-anchor="start" x="8" y="-236.5" font-family="Helvetica,sans-Serif" font-size="10.00">+ defaults</text>
<polyline fill="none" stroke="black" points="0,-229.5 189,-229.5 "/>
<text text-anchor="start" x="8" y="-217.5" font-family="Helvetica,sans-Serif" font-size="10.00"># baseElementWithMixedContent()</text>
</a>
</g>
</g>
<!-- Node1&#45;&gt;Node3 -->
<g id="edge2" class="edge">
<title>Node1&#45;&gt;Node3</title>
<path fill="none" stroke="midnightblue" d="M140.98,-307.22C133.65,-297.48 126.26,-287.67 119.6,-278.83"/>
<polygon fill="none" stroke="midnightblue" points="138.3,-309.48 147.11,-315.36 143.89,-305.27 138.3,-309.48"/>
</g>
<!-- Node4 -->
<g id="node4" class="node">
<title>Node4</title>
<g id="a_node4"><a xlink:href="classXML_1_1bpmn_1_1tExpression.html" target="_top" xlink:title=" ">
<polygon fill="none" stroke="black" points="207.5,-216 207.5,-273 341.5,-273 341.5,-216 207.5,-216"/>
<text text-anchor="middle" x="274.5" y="-261" font-family="Helvetica,sans-Serif" font-size="10.00">XML::bpmn::tExpression</text>
<polyline fill="none" stroke="black" points="207.5,-254 341.5,-254 "/>
<text text-anchor="start" x="215.5" y="-242" font-family="Helvetica,sans-Serif" font-size="10.00">+ defaults</text>
<polyline fill="none" stroke="black" points="207.5,-235 341.5,-235 "/>
<text text-anchor="start" x="215.5" y="-223" font-family="Helvetica,sans-Serif" font-size="10.00"># tExpression()</text>
</a>
</g>
</g>
<!-- Node1&#45;&gt;Node4 -->
<g id="edge3" class="edge">
<title>Node1&#45;&gt;Node4</title>
<path fill="none" stroke="midnightblue" d="M228.02,-307.22C236.92,-295.4 245.9,-283.48 253.56,-273.31"/>
<polygon fill="none" stroke="midnightblue" points="225.11,-305.27 221.89,-315.36 230.7,-309.48 225.11,-305.27"/>
</g>
<!-- Node2 -->
<g id="node2" class="node">
<title>Node2</title>
<g id="a_node2"><a xlink:href="classXML_1_1XMLObject.html" target="_top" xlink:title=" ">
<polygon fill="none" stroke="black" points="121.5,-453.5 121.5,-763.5 247.5,-763.5 247.5,-453.5 121.5,-453.5"/>
<text text-anchor="middle" x="184.5" y="-751.5" font-family="Helvetica,sans-Serif" font-size="10.00">XML::XMLObject</text>
<polyline fill="none" stroke="black" points="121.5,-744.5 247.5,-744.5 "/>
<text text-anchor="start" x="129.5" y="-732.5" font-family="Helvetica,sans-Serif" font-size="10.00">+ xmlns</text>
<text text-anchor="start" x="129.5" y="-721.5" font-family="Helvetica,sans-Serif" font-size="10.00">+ className</text>
<text text-anchor="start" x="129.5" y="-710.5" font-family="Helvetica,sans-Serif" font-size="10.00">+ prefix</text>
<text text-anchor="start" x="129.5" y="-699.5" font-family="Helvetica,sans-Serif" font-size="10.00">+ elementName</text>
<text text-anchor="start" x="129.5" y="-688.5" font-family="Helvetica,sans-Serif" font-size="10.00">+ textContent</text>
<text text-anchor="start" x="129.5" y="-677.5" font-family="Helvetica,sans-Serif" font-size="10.00">+ children</text>
<text text-anchor="start" x="129.5" y="-666.5" font-family="Helvetica,sans-Serif" font-size="10.00">+ attributes</text>
<text text-anchor="start" x="129.5" y="-655.5" font-family="Helvetica,sans-Serif" font-size="10.00">+ defaults</text>
<text text-anchor="start" x="129.5" y="-644.5" font-family="Helvetica,sans-Serif" font-size="10.00"># factory</text>
<polyline fill="none" stroke="black" points="121.5,-637.5 247.5,-637.5 "/>
<text text-anchor="start" x="129.5" y="-625.5" font-family="Helvetica,sans-Serif" font-size="10.00">+ ~XMLObject()</text>
<text text-anchor="start" x="129.5" y="-614.5" font-family="Helvetica,sans-Serif" font-size="10.00">+ is()</text>
<text text-anchor="start" x="129.5" y="-603.5" font-family="Helvetica,sans-Serif" font-size="10.00">+ is()</text>
<text text-anchor="start" x="129.5" y="-592.5" font-family="Helvetica,sans-Serif" font-size="10.00">+ get()</text>
<text text-anchor="start" x="129.5" y="-581.5" font-family="Helvetica,sans-Serif" font-size="10.00">+ get()</text>
<text text-anchor="start" x="129.5" y="-570.5" font-family="Helvetica,sans-Serif" font-size="10.00">+ find()</text>
<text text-anchor="start" x="129.5" y="-559.5" font-family="Helvetica,sans-Serif" font-size="10.00">+ find()</text>
<text text-anchor="start" x="129.5" y="-548.5" font-family="Helvetica,sans-Serif" font-size="10.00">+ stringify()</text>
<text text-anchor="start" x="129.5" y="-537.5" font-family="Helvetica,sans-Serif" font-size="10.00">+ getRequiredChild()</text>
<text text-anchor="start" x="129.5" y="-526.5" font-family="Helvetica,sans-Serif" font-size="10.00">+ getOptionalChild()</text>
<text text-anchor="start" x="129.5" y="-515.5" font-family="Helvetica,sans-Serif" font-size="10.00">and 6 more...</text>
<text text-anchor="start" x="129.5" y="-504.5" font-family="Helvetica,sans-Serif" font-size="10.00">+ createFromStream()</text>
<text text-anchor="start" x="129.5" y="-493.5" font-family="Helvetica,sans-Serif" font-size="10.00">+ createFromString()</text>
<text text-anchor="start" x="129.5" y="-482.5" font-family="Helvetica,sans-Serif" font-size="10.00">+ createFromFile()</text>
<text text-anchor="start" x="129.5" y="-471.5" font-family="Helvetica,sans-Serif" font-size="10.00"># XMLObject()</text>
<text text-anchor="start" x="129.5" y="-460.5" font-family="Helvetica,sans-Serif" font-size="10.00"># createObject()</text>
</a>
</g>
</g>
<!-- Node2&#45;&gt;Node1 -->
<g id="edge1" class="edge">
<title>Node2&#45;&gt;Node1</title>
<path fill="none" stroke="midnightblue" d="M184.5,-443.24C184.5,-433.93 184.5,-425.03 184.5,-416.8"/>
<polygon fill="none" stroke="midnightblue" points="181,-443.49 184.5,-453.49 188,-443.49 181,-443.49"/>
</g>
<!-- Node5 -->
<g id="node5" class="node">
<title>Node5</title>
<g id="a_node5"><a xlink:href="classXML_1_1bpmn_1_1tFormalExpression.html" target="_top" xlink:title=" ">
<polygon fill="none" stroke="black" points="190.5,-94.5 190.5,-173.5 358.5,-173.5 358.5,-94.5 190.5,-94.5"/>
<text text-anchor="middle" x="274.5" y="-161.5" font-family="Helvetica,sans-Serif" font-size="10.00">XML::bpmn::tFormalExpression</text>
<polyline fill="none" stroke="black" points="190.5,-154.5 358.5,-154.5 "/>
<text text-anchor="start" x="198.5" y="-142.5" font-family="Helvetica,sans-Serif" font-size="10.00">+ language</text>
<text text-anchor="start" x="198.5" y="-131.5" font-family="Helvetica,sans-Serif" font-size="10.00">+ evaluatesToTypeRef</text>
<text text-anchor="start" x="198.5" y="-120.5" font-family="Helvetica,sans-Serif" font-size="10.00">+ defaults</text>
<polyline fill="none" stroke="black" points="190.5,-113.5 358.5,-113.5 "/>
<text text-anchor="start" x="198.5" y="-101.5" font-family="Helvetica,sans-Serif" font-size="10.00"># tFormalExpression()</text>
</a>
</g>
</g>
<!-- Node4&#45;&gt;Node5 -->
<g id="edge4" class="edge">
<title>Node4&#45;&gt;Node5</title>
<path fill="none" stroke="midnightblue" d="M274.5,-205.81C274.5,-195.41 274.5,-184.11 274.5,-173.66"/>
<polygon fill="none" stroke="midnightblue" points="271,-205.84 274.5,-215.84 278,-205.84 271,-205.84"/>
</g>
<!-- Node6 -->
<g id="node6" class="node">
<title>Node6</title>
<g id="a_node6"><a xlink:href="classXML_1_1bpmn_1_1formalExpression.html" target="_top" xlink:title=" ">
<polygon fill="none" stroke="black" points="193,-0.5 193,-57.5 356,-57.5 356,-0.5 193,-0.5"/>
<text text-anchor="middle" x="274.5" y="-45.5" font-family="Helvetica,sans-Serif" font-size="10.00">XML::bpmn::formalExpression</text>
<polyline fill="none" stroke="black" points="193,-38.5 356,-38.5 "/>
<text text-anchor="start" x="201" y="-26.5" font-family="Helvetica,sans-Serif" font-size="10.00">+ defaults</text>
<polyline fill="none" stroke="black" points="193,-19.5 356,-19.5 "/>
<text text-anchor="start" x="201" y="-7.5" font-family="Helvetica,sans-Serif" font-size="10.00"># formalExpression()</text>
</a>
</g>
</g>
<!-- Node5&#45;&gt;Node6 -->
<g id="edge5" class="edge">
<title>Node5&#45;&gt;Node6</title>
<path fill="none" stroke="midnightblue" d="M274.5,-84.16C274.5,-75.04 274.5,-65.81 274.5,-57.61"/>
<polygon fill="none" stroke="midnightblue" points="271,-84.35 274.5,-94.35 278,-84.35 271,-84.35"/>
</g>
</g>
</svg>
