<?xml version="1.0" encoding="UTF-8" standalone="no"?>
<!DOCTYPE svg PUBLIC "-//W3C//DTD SVG 1.1//EN"
 "http://www.w3.org/Graphics/SVG/1.1/DTD/svg11.dtd">
<!-- Generated by graphviz version 2.43.0 (0)
 -->
<!-- Title: BPMN::CancelBoundaryEvent Pages: 1 -->
<svg width="197pt" height="1038pt"
 viewBox="0.00 0.00 196.50 1038.00" xmlns="http://www.w3.org/2000/svg" xmlns:xlink="http://www.w3.org/1999/xlink">
<g id="graph0" class="graph" transform="scale(1 1) rotate(0) translate(4 1034)">
<title>BPMN::CancelBoundaryEvent</title>
<!-- Node1 -->
<g id="node1" class="node">
<title>Node1</title>
<g id="a_node1"><a xlink:title=" ">
<polygon fill="#bfbfbf" stroke="black" points="0,-0.5 0,-57.5 159,-57.5 159,-0.5 0,-0.5"/>
<text text-anchor="middle" x="79.5" y="-45.5" font-family="Helvetica,sans-Serif" font-size="10.00">BPMN::CancelBoundaryEvent</text>
<polyline fill="none" stroke="black" points="0,-38.5 159,-38.5 "/>
<text text-anchor="start" x="8" y="-26.5" font-family="Helvetica,sans-Serif" font-size="10.00">+ element</text>
<polyline fill="none" stroke="black" points="0,-19.5 159,-19.5 "/>
<text text-anchor="start" x="8" y="-7.5" font-family="Helvetica,sans-Serif" font-size="10.00">+ CancelBoundaryEvent()</text>
</a>
</g>
</g>
<!-- Node2 -->
<g id="node2" class="node">
<title>Node2</title>
<g id="a_node2"><a xlink:href="classBPMN_1_1BoundaryEvent.html" target="_top" xlink:title="Base class for all boundary events attached to an Activity.">
<polygon fill="none" stroke="black" points="62.5,-94.5 62.5,-173.5 188.5,-173.5 188.5,-94.5 62.5,-94.5"/>
<text text-anchor="middle" x="125.5" y="-161.5" font-family="Helvetica,sans-Serif" font-size="10.00">BPMN::BoundaryEvent</text>
<polyline fill="none" stroke="black" points="62.5,-154.5 188.5,-154.5 "/>
<text text-anchor="start" x="70.5" y="-142.5" font-family="Helvetica,sans-Serif" font-size="10.00">+ isInterrupting</text>
<text text-anchor="start" x="70.5" y="-131.5" font-family="Helvetica,sans-Serif" font-size="10.00">+ attachedTo</text>
<polyline fill="none" stroke="black" points="62.5,-124.5 188.5,-124.5 "/>
<text text-anchor="start" x="70.5" y="-112.5" font-family="Helvetica,sans-Serif" font-size="10.00">+ BoundaryEvent()</text>
<text text-anchor="start" x="70.5" y="-101.5" font-family="Helvetica,sans-Serif" font-size="10.00"># resolveReference()</text>
</a>
</g>
</g>
<!-- Node2&#45;&gt;Node1 -->
<g id="edge1" class="edge">
<title>Node2&#45;&gt;Node1</title>
<path fill="none" stroke="midnightblue" d="M104.08,-85.05C99.88,-75.64 95.61,-66.07 91.83,-57.61"/>
<polygon fill="none" stroke="midnightblue" points="100.97,-86.65 108.24,-94.35 107.36,-83.8 100.97,-86.65"/>
</g>
<!-- Node3 -->
<g id="node3" class="node">
<title>Node3</title>
<g id="a_node3"><a xlink:href="classBPMN_1_1CatchEvent.html" target="_top" xlink:title=" ">
<polygon fill="none" stroke="black" points="26,-210.5 26,-267.5 133,-267.5 133,-210.5 26,-210.5"/>
<text text-anchor="middle" x="79.5" y="-255.5" font-family="Helvetica,sans-Serif" font-size="10.00">BPMN::CatchEvent</text>
<polyline fill="none" stroke="black" points="26,-248.5 133,-248.5 "/>
<text text-anchor="start" x="34" y="-236.5" font-family="Helvetica,sans-Serif" font-size="10.00">+ element</text>
<polyline fill="none" stroke="black" points="26,-229.5 133,-229.5 "/>
<text text-anchor="start" x="34" y="-217.5" font-family="Helvetica,sans-Serif" font-size="10.00">+ CatchEvent()</text>
</a>
</g>
</g>
<!-- Node3&#45;&gt;Node1 -->
<g id="edge9" class="edge">
<title>Node3&#45;&gt;Node1</title>
<path fill="none" stroke="midnightblue" d="M61.64,-200.94C58.27,-192.29 55.25,-182.98 53.5,-174 46.68,-139.1 46.68,-128.9 53.5,-94 55.91,-81.64 60.72,-68.65 65.55,-57.63"/>
<polygon fill="none" stroke="midnightblue" points="58.49,-202.47 65.55,-210.37 64.96,-199.79 58.49,-202.47"/>
</g>
<!-- Node3&#45;&gt;Node2 -->
<g id="edge2" class="edge">
<title>Node3&#45;&gt;Node2</title>
<path fill="none" stroke="midnightblue" d="M96.02,-201.01C100.01,-192.08 104.28,-182.52 108.3,-173.52"/>
<polygon fill="none" stroke="midnightblue" points="92.71,-199.84 91.83,-210.4 99.1,-202.69 92.71,-199.84"/>
</g>
<!-- Node4 -->
<g id="node4" class="node">
<title>Node4</title>
<g id="a_node4"><a xlink:href="classBPMN_1_1Event.html" target="_top" xlink:title=" ">
<polygon fill="none" stroke="black" points="39.5,-304.5 39.5,-361.5 119.5,-361.5 119.5,-304.5 39.5,-304.5"/>
<text text-anchor="middle" x="79.5" y="-349.5" font-family="Helvetica,sans-Serif" font-size="10.00">BPMN::Event</text>
<polyline fill="none" stroke="black" points="39.5,-342.5 119.5,-342.5 "/>
<text text-anchor="start" x="47.5" y="-330.5" font-family="Helvetica,sans-Serif" font-size="10.00">+ element</text>
<polyline fill="none" stroke="black" points="39.5,-323.5 119.5,-323.5 "/>
<text text-anchor="start" x="47.5" y="-311.5" font-family="Helvetica,sans-Serif" font-size="10.00">+ Event()</text>
</a>
</g>
</g>
<!-- Node4&#45;&gt;Node3 -->
<g id="edge3" class="edge">
<title>Node4&#45;&gt;Node3</title>
<path fill="none" stroke="midnightblue" d="M79.5,-294.21C79.5,-285.29 79.5,-275.95 79.5,-267.58"/>
<polygon fill="none" stroke="midnightblue" points="76,-294.4 79.5,-304.4 83,-294.4 76,-294.4"/>
</g>
<!-- Node5 -->
<g id="node5" class="node">
<title>Node5</title>
<g id="a_node5"><a xlink:href="classBPMN_1_1FlowNode.html" target="_top" xlink:title="Base class for BPMN elements that may contain incoming and outgoing sequence flows.">
<polygon fill="none" stroke="black" points="29,-398.5 29,-488.5 130,-488.5 130,-398.5 29,-398.5"/>
<text text-anchor="middle" x="79.5" y="-476.5" font-family="Helvetica,sans-Serif" font-size="10.00">BPMN::FlowNode</text>
<polyline fill="none" stroke="black" points="29,-469.5 130,-469.5 "/>
<text text-anchor="start" x="37" y="-457.5" font-family="Helvetica,sans-Serif" font-size="10.00">+ element</text>
<text text-anchor="start" x="37" y="-446.5" font-family="Helvetica,sans-Serif" font-size="10.00">+ name</text>
<text text-anchor="start" x="37" y="-435.5" font-family="Helvetica,sans-Serif" font-size="10.00">+ incoming</text>
<text text-anchor="start" x="37" y="-424.5" font-family="Helvetica,sans-Serif" font-size="10.00">+ outgoing</text>
<polyline fill="none" stroke="black" points="29,-417.5 130,-417.5 "/>
<text text-anchor="start" x="37" y="-405.5" font-family="Helvetica,sans-Serif" font-size="10.00">+ FlowNode()</text>
</a>
</g>
</g>
<!-- Node5&#45;&gt;Node4 -->
<g id="edge4" class="edge">
<title>Node5&#45;&gt;Node4</title>
<path fill="none" stroke="midnightblue" d="M79.5,-388.35C79.5,-379.07 79.5,-369.79 79.5,-361.59"/>
<polygon fill="none" stroke="midnightblue" points="76,-388.37 79.5,-398.37 83,-388.37 76,-388.37"/>
</g>
<!-- Node6 -->
<g id="node6" class="node">
<title>Node6</title>
<g id="a_node6"><a xlink:href="classBPMN_1_1ChildNode.html" target="_top" xlink:title="Base class for BPMN elements within a Scope.">
<polygon fill="none" stroke="black" points="28.5,-525.5 28.5,-582.5 130.5,-582.5 130.5,-525.5 28.5,-525.5"/>
<text text-anchor="middle" x="79.5" y="-570.5" font-family="Helvetica,sans-Serif" font-size="10.00">BPMN::ChildNode</text>
<polyline fill="none" stroke="black" points="28.5,-563.5 130.5,-563.5 "/>
<text text-anchor="start" x="36.5" y="-551.5" font-family="Helvetica,sans-Serif" font-size="10.00">+ parent</text>
<polyline fill="none" stroke="black" points="28.5,-544.5 130.5,-544.5 "/>
<text text-anchor="start" x="36.5" y="-532.5" font-family="Helvetica,sans-Serif" font-size="10.00">+ ChildNode()</text>
</a>
</g>
</g>
<!-- Node6&#45;&gt;Node5 -->
<g id="edge5" class="edge">
<title>Node6&#45;&gt;Node5</title>
<path fill="none" stroke="midnightblue" d="M79.5,-515.21C79.5,-506.61 79.5,-497.39 79.5,-488.55"/>
<polygon fill="none" stroke="midnightblue" points="76,-515.34 79.5,-525.34 83,-515.34 76,-515.34"/>
</g>
<!-- Node7 -->
<g id="node7" class="node">
<title>Node7</title>
<g id="a_node7"><a xlink:href="classBPMN_1_1Node.html" target="_top" xlink:title="Base class for all nodes in a BPMN model.">
<polygon fill="none" stroke="black" points="41,-619.5 41,-731.5 118,-731.5 118,-619.5 41,-619.5"/>
<text text-anchor="middle" x="79.5" y="-719.5" font-family="Helvetica,sans-Serif" font-size="10.00">BPMN::Node</text>
<polyline fill="none" stroke="black" points="41,-712.5 118,-712.5 "/>
<text text-anchor="start" x="49" y="-700.5" font-family="Helvetica,sans-Serif" font-size="10.00">+ receiving</text>
<text text-anchor="start" x="49" y="-689.5" font-family="Helvetica,sans-Serif" font-size="10.00">+ sending</text>
<polyline fill="none" stroke="black" points="41,-682.5 118,-682.5 "/>
<text text-anchor="start" x="49" y="-670.5" font-family="Helvetica,sans-Serif" font-size="10.00">+ Node()</text>
<text text-anchor="start" x="49" y="-659.5" font-family="Helvetica,sans-Serif" font-size="10.00">+ find()</text>
<text text-anchor="start" x="49" y="-648.5" font-family="Helvetica,sans-Serif" font-size="10.00">+ find()</text>
<text text-anchor="start" x="49" y="-637.5" font-family="Helvetica,sans-Serif" font-size="10.00">+ find_all()</text>
<text text-anchor="start" x="49" y="-626.5" font-family="Helvetica,sans-Serif" font-size="10.00">+ find_all()</text>
</a>
</g>
</g>
<!-- Node7&#45;&gt;Node6 -->
<g id="edge6" class="edge">
<title>Node7&#45;&gt;Node6</title>
<path fill="none" stroke="midnightblue" d="M79.5,-609.15C79.5,-599.82 79.5,-590.67 79.5,-582.63"/>
<polygon fill="none" stroke="midnightblue" points="76,-609.3 79.5,-619.3 83,-609.3 76,-609.3"/>
</g>
<!-- Node8 -->
<g id="node8" class="node">
<title>Node8</title>
<g id="a_node8"><a xlink:href="classBPMN_1_1BaseElement.html" target="_top" xlink:title="Base class for all core BPMN elements.">
<polygon fill="none" stroke="black" points="18.5,-768.5 18.5,-891.5 140.5,-891.5 140.5,-768.5 18.5,-768.5"/>
<text text-anchor="middle" x="79.5" y="-879.5" font-family="Helvetica,sans-Serif" font-size="10.00">BPMN::BaseElement</text>
<polyline fill="none" stroke="black" points="18.5,-872.5 140.5,-872.5 "/>
<text text-anchor="start" x="26.5" y="-860.5" font-family="Helvetica,sans-Serif" font-size="10.00">+ element</text>
<text text-anchor="start" x="26.5" y="-849.5" font-family="Helvetica,sans-Serif" font-size="10.00">+ id</text>
<text text-anchor="start" x="26.5" y="-838.5" font-family="Helvetica,sans-Serif" font-size="10.00">+ extensionElements</text>
<polyline fill="none" stroke="black" points="18.5,-831.5 140.5,-831.5 "/>
<text text-anchor="start" x="26.5" y="-819.5" font-family="Helvetica,sans-Serif" font-size="10.00">+ BaseElement()</text>
<text text-anchor="start" x="26.5" y="-808.5" font-family="Helvetica,sans-Serif" font-size="10.00">+ is()</text>
<text text-anchor="start" x="26.5" y="-797.5" font-family="Helvetica,sans-Serif" font-size="10.00">+ is()</text>
<text text-anchor="start" x="26.5" y="-786.5" font-family="Helvetica,sans-Serif" font-size="10.00">+ get()</text>
<text text-anchor="start" x="26.5" y="-775.5" font-family="Helvetica,sans-Serif" font-size="10.00">+ get()</text>
</a>
</g>
</g>
<!-- Node8&#45;&gt;Node7 -->
<g id="edge7" class="edge">
<title>Node8&#45;&gt;Node7</title>
<path fill="none" stroke="midnightblue" d="M79.5,-758.25C79.5,-749.29 79.5,-740.23 79.5,-731.56"/>
<polygon fill="none" stroke="midnightblue" points="76,-758.29 79.5,-768.29 83,-758.29 76,-758.29"/>
</g>
<!-- Node9 -->
<g id="node9" class="node">
<title>Node9</title>
<g id="a_node9"><a xlink:href="classBPMN_1_1Element.html" target="_top" xlink:title="Abstract base class for all elements in a BPMN model.">
<polygon fill="none" stroke="black" points="33.5,-928.5 33.5,-1029.5 125.5,-1029.5 125.5,-928.5 33.5,-928.5"/>
<text text-anchor="middle" x="79.5" y="-1017.5" font-family="Helvetica,sans-Serif" font-size="10.00">BPMN::Element</text>
<polyline fill="none" stroke="black" points="33.5,-1010.5 125.5,-1010.5 "/>
<text text-anchor="middle" x="79.5" y="-998.5" font-family="Helvetica,sans-Serif" font-size="10.00"> </text>
<polyline fill="none" stroke="black" points="33.5,-991.5 125.5,-991.5 "/>
<text text-anchor="start" x="41.5" y="-979.5" font-family="Helvetica,sans-Serif" font-size="10.00">+ ~Element()</text>
<text text-anchor="start" x="41.5" y="-968.5" font-family="Helvetica,sans-Serif" font-size="10.00">+ represents()</text>
<text text-anchor="start" x="41.5" y="-957.5" font-family="Helvetica,sans-Serif" font-size="10.00">+ represents()</text>
<text text-anchor="start" x="41.5" y="-946.5" font-family="Helvetica,sans-Serif" font-size="10.00">+ as()</text>
<text text-anchor="start" x="41.5" y="-935.5" font-family="Helvetica,sans-Serif" font-size="10.00">+ as()</text>
</a>
</g>
</g>
<!-- Node9&#45;&gt;Node8 -->
<g id="edge8" class="edge">
<title>Node9&#45;&gt;Node8</title>
<path fill="none" stroke="midnightblue" d="M79.5,-918.14C79.5,-909.41 79.5,-900.42 79.5,-891.67"/>
<polygon fill="none" stroke="midnightblue" points="76,-918.23 79.5,-928.23 83,-918.23 76,-918.23"/>
</g>
</g>
</svg>
