<?xml version="1.0" encoding="UTF-8" standalone="no"?>
<!DOCTYPE svg PUBLIC "-//W3C//DTD SVG 1.1//EN"
 "http://www.w3.org/Graphics/SVG/1.1/DTD/svg11.dtd">
<!-- Generated by graphviz version 2.43.0 (0)
 -->
<!-- Title: XML::bpmn::globalBusinessRuleTask Pages: 1 -->
<svg width="163pt" height="1069pt"
 viewBox="0.00 0.00 163.00 1069.00" xmlns="http://www.w3.org/2000/svg" xmlns:xlink="http://www.w3.org/1999/xlink">
<g id="graph0" class="graph" transform="scale(1 1) rotate(0) translate(4 1065)">
<title>XML::bpmn::globalBusinessRuleTask</title>
<!-- Node1 -->
<g id="Node000001" class="node">
<title>Node1</title>
<g id="a_Node000001"><a xlink:title=" ">
<polygon fill="#999999" stroke="transparent" points="150.5,-60 4.5,-60 4.5,0 150.5,0 150.5,-60"/>
<text text-anchor="start" x="10" y="-48" font-family="Helvetica,sans-Serif" font-size="10.00">XML::bpmn::globalBusiness</text>
<text text-anchor="start" x="55.5" y="-37" font-family="Helvetica,sans-Serif" font-size="10.00">RuleTask</text>
<text text-anchor="start" x="8.5" y="-22" font-family="Helvetica,sans-Serif" font-size="10.00">+</text>
<text text-anchor="start" x="21.5" y="-22" font-family="Helvetica,sans-Serif" font-size="10.00">defaults</text>
<text text-anchor="start" x="8.5" y="-7" font-family="Helvetica,sans-Serif" font-size="10.00">#</text>
<text text-anchor="start" x="21.5" y="-7" font-family="Helvetica,sans-Serif" font-size="10.00">globalBusinessRuleTask()</text>
<polygon fill="#666666" stroke="#666666" points="4.5,-32 4.5,-32 150.5,-32 150.5,-32 4.5,-32"/>
<polygon fill="#666666" stroke="#666666" points="4.5,-17 4.5,-17 19.5,-17 19.5,-17 4.5,-17"/>
<polygon fill="#666666" stroke="#666666" points="19.5,-17 19.5,-17 150.5,-17 150.5,-17 19.5,-17"/>
<polygon fill="none" stroke="#666666" points="4.5,0 4.5,-60 150.5,-60 150.5,0 4.5,0"/>
</a>
</g>
</g>
<!-- Node2 -->
<g id="Node000002" class="node">
<title>Node2</title>
<g id="a_Node000002"><a xlink:href="classXML_1_1bpmn_1_1tGlobalBusinessRuleTask.html" target="_top" xlink:title=" ">
<polygon fill="white" stroke="transparent" points="153,-171 2,-171 2,-96 153,-96 153,-171"/>
<text text-anchor="start" x="8" y="-158.5" font-family="Helvetica,sans-Serif" font-size="10.00">XML::bpmn::tGlobalBusiness</text>
<text text-anchor="start" x="56" y="-147.5" font-family="Helvetica,sans-Serif" font-size="10.00">RuleTask</text>
<text text-anchor="start" x="6.5" y="-132.5" font-family="Helvetica,sans-Serif" font-size="10.00">+</text>
<text text-anchor="start" x="19.5" y="-132.5" font-family="Helvetica,sans-Serif" font-size="10.00">implementation</text>
<text text-anchor="start" x="6.5" y="-117.5" font-family="Helvetica,sans-Serif" font-size="10.00">+</text>
<text text-anchor="start" x="19.5" y="-117.5" font-family="Helvetica,sans-Serif" font-size="10.00">defaults</text>
<text text-anchor="start" x="6.5" y="-102.5" font-family="Helvetica,sans-Serif" font-size="10.00">#</text>
<text text-anchor="start" x="19.5" y="-102.5" font-family="Helvetica,sans-Serif" font-size="10.00">tGlobalBusinessRuleTask()</text>
<polygon fill="#666666" stroke="#666666" points="2.5,-142.5 2.5,-142.5 153.5,-142.5 153.5,-142.5 2.5,-142.5"/>
<polygon fill="#666666" stroke="#666666" points="2.5,-112.5 2.5,-112.5 17.5,-112.5 17.5,-112.5 2.5,-112.5"/>
<polygon fill="#666666" stroke="#666666" points="17.5,-112.5 17.5,-112.5 153.5,-112.5 153.5,-112.5 17.5,-112.5"/>
<polygon fill="none" stroke="#666666" points="2,-96 2,-171 153,-171 153,-96 2,-96"/>
</a>
</g>
</g>
<!-- Node2&#45;&gt;Node1 -->
<g id="edge1_Node000001_Node000002" class="edge">
<title>Node2&#45;&gt;Node1</title>
<g id="a_edge1_Node000001_Node000002"><a xlink:title=" ">
<path fill="none" stroke="#63b8ff" d="M77.5,-85.79C77.5,-77.1 77.5,-68.25 77.5,-60.27"/>
<polygon fill="none" stroke="#63b8ff" points="74,-85.86 77.5,-95.86 81,-85.86 74,-85.86"/>
</a>
</g>
</g>
<!-- Node3 -->
<g id="Node000003" class="node">
<title>Node3</title>
<g id="a_Node000003"><a xlink:href="classXML_1_1bpmn_1_1tGlobalTask.html" target="_top" xlink:title=" ">
<polygon fill="white" stroke="transparent" points="141.5,-271 13.5,-271 13.5,-207 141.5,-207 141.5,-271"/>
<text text-anchor="start" x="18.5" y="-259" font-family="Helvetica,sans-Serif" font-size="10.00">XML::bpmn::tGlobalTask</text>
<text text-anchor="start" x="28" y="-244" font-family="Helvetica,sans-Serif" font-size="10.00">+</text>
<text text-anchor="start" x="51.5" y="-244" font-family="Helvetica,sans-Serif" font-size="10.00">resourceRole</text>
<text text-anchor="start" x="28" y="-229" font-family="Helvetica,sans-Serif" font-size="10.00">+</text>
<text text-anchor="start" x="51.5" y="-229" font-family="Helvetica,sans-Serif" font-size="10.00">defaults</text>
<text text-anchor="start" x="28" y="-214" font-family="Helvetica,sans-Serif" font-size="10.00">#</text>
<text text-anchor="start" x="51.5" y="-214" font-family="Helvetica,sans-Serif" font-size="10.00">tGlobalTask()</text>
<polygon fill="#666666" stroke="#666666" points="13.5,-254 13.5,-254 141.5,-254 141.5,-254 13.5,-254"/>
<polygon fill="#666666" stroke="#666666" points="13.5,-224 13.5,-224 49.5,-224 49.5,-224 13.5,-224"/>
<polygon fill="#666666" stroke="#666666" points="49.5,-224 49.5,-224 141.5,-224 141.5,-224 49.5,-224"/>
<polygon fill="none" stroke="#666666" points="13.5,-207 13.5,-271 141.5,-271 141.5,-207 13.5,-207"/>
</a>
</g>
</g>
<!-- Node3&#45;&gt;Node2 -->
<g id="edge2_Node000002_Node000003" class="edge">
<title>Node3&#45;&gt;Node2</title>
<g id="a_edge2_Node000002_Node000003"><a xlink:title=" ">
<path fill="none" stroke="#63b8ff" d="M77.5,-196.92C77.5,-188.48 77.5,-179.65 77.5,-171.37"/>
<polygon fill="none" stroke="#63b8ff" points="74,-196.95 77.5,-206.95 81,-196.95 74,-196.95"/>
</a>
</g>
</g>
<!-- Node4 -->
<g id="Node000004" class="node">
<title>Node4</title>
<g id="a_Node000004"><a xlink:href="classXML_1_1bpmn_1_1tCallableElement.html" target="_top" xlink:title=" ">
<polygon fill="white" stroke="transparent" points="155,-416 0,-416 0,-307 155,-307 155,-416"/>
<text text-anchor="start" x="5.5" y="-403.5" font-family="Helvetica,sans-Serif" font-size="10.00">XML::bpmn::tCallableElement</text>
<text text-anchor="start" x="10.5" y="-388.5" font-family="Helvetica,sans-Serif" font-size="10.00">+</text>
<text text-anchor="start" x="29.5" y="-388.5" font-family="Helvetica,sans-Serif" font-size="10.00">supportedInterfaceRef</text>
<text text-anchor="start" x="10.5" y="-373.5" font-family="Helvetica,sans-Serif" font-size="10.00">+</text>
<text text-anchor="start" x="29.5" y="-373.5" font-family="Helvetica,sans-Serif" font-size="10.00">ioSpecification</text>
<text text-anchor="start" x="10.5" y="-358.5" font-family="Helvetica,sans-Serif" font-size="10.00">+</text>
<text text-anchor="start" x="29.5" y="-358.5" font-family="Helvetica,sans-Serif" font-size="10.00">ioBinding</text>
<text text-anchor="start" x="10.5" y="-343.5" font-family="Helvetica,sans-Serif" font-size="10.00">+</text>
<text text-anchor="start" x="29.5" y="-343.5" font-family="Helvetica,sans-Serif" font-size="10.00">name</text>
<text text-anchor="start" x="10.5" y="-328.5" font-family="Helvetica,sans-Serif" font-size="10.00">+</text>
<text text-anchor="start" x="29.5" y="-328.5" font-family="Helvetica,sans-Serif" font-size="10.00">defaults</text>
<text text-anchor="start" x="10.5" y="-313.5" font-family="Helvetica,sans-Serif" font-size="10.00">#</text>
<text text-anchor="start" x="29.5" y="-313.5" font-family="Helvetica,sans-Serif" font-size="10.00">tCallableElement()</text>
<polygon fill="#666666" stroke="#666666" points="0.5,-398.5 0.5,-398.5 155.5,-398.5 155.5,-398.5 0.5,-398.5"/>
<polygon fill="#666666" stroke="#666666" points="0.5,-323.5 0.5,-323.5 27.5,-323.5 27.5,-323.5 0.5,-323.5"/>
<polygon fill="#666666" stroke="#666666" points="27.5,-323.5 27.5,-323.5 155.5,-323.5 155.5,-323.5 27.5,-323.5"/>
<polygon fill="none" stroke="#666666" points="0,-307 0,-416 155,-416 155,-307 0,-307"/>
</a>
</g>
</g>
<!-- Node4&#45;&gt;Node3 -->
<g id="edge3_Node000003_Node000004" class="edge">
<title>Node4&#45;&gt;Node3</title>
<g id="a_edge3_Node000003_Node000004"><a xlink:title=" ">
<path fill="none" stroke="#63b8ff" d="M77.5,-296.9C77.5,-288 77.5,-279.2 77.5,-271.28"/>
<polygon fill="none" stroke="#63b8ff" points="74,-296.95 77.5,-306.95 81,-296.95 74,-296.95"/>
</a>
</g>
</g>
<!-- Node5 -->
<g id="Node000005" class="node">
<title>Node5</title>
<g id="a_Node000005"><a xlink:href="classXML_1_1bpmn_1_1tRootElement.html" target="_top" xlink:title=" ">
<polygon fill="white" stroke="transparent" points="146.5,-501 8.5,-501 8.5,-452 146.5,-452 146.5,-501"/>
<text text-anchor="start" x="13.5" y="-488.5" font-family="Helvetica,sans-Serif" font-size="10.00">XML::bpmn::tRootElement</text>
<text text-anchor="start" x="23" y="-473.5" font-family="Helvetica,sans-Serif" font-size="10.00">+</text>
<text text-anchor="start" x="46.5" y="-473.5" font-family="Helvetica,sans-Serif" font-size="10.00">defaults</text>
<text text-anchor="start" x="23" y="-458.5" font-family="Helvetica,sans-Serif" font-size="10.00">#</text>
<text text-anchor="start" x="46.5" y="-458.5" font-family="Helvetica,sans-Serif" font-size="10.00">tRootElement()</text>
<polygon fill="#666666" stroke="#666666" points="8.5,-483.5 8.5,-483.5 146.5,-483.5 146.5,-483.5 8.5,-483.5"/>
<polygon fill="#666666" stroke="#666666" points="8.5,-468.5 8.5,-468.5 44.5,-468.5 44.5,-468.5 8.5,-468.5"/>
<polygon fill="#666666" stroke="#666666" points="44.5,-468.5 44.5,-468.5 146.5,-468.5 146.5,-468.5 44.5,-468.5"/>
<polygon fill="none" stroke="#666666" points="8.5,-452 8.5,-501 146.5,-501 146.5,-452 8.5,-452"/>
</a>
</g>
</g>
<!-- Node5&#45;&gt;Node4 -->
<g id="edge4_Node000004_Node000005" class="edge">
<title>Node5&#45;&gt;Node4</title>
<g id="a_edge4_Node000004_Node000005"><a xlink:title=" ">
<path fill="none" stroke="#63b8ff" d="M77.5,-441.79C77.5,-433.79 77.5,-425.06 77.5,-416.41"/>
<polygon fill="none" stroke="#63b8ff" points="74,-441.81 77.5,-451.81 81,-441.81 74,-441.81"/>
</a>
</g>
</g>
<!-- Node6 -->
<g id="Node000006" class="node">
<title>Node6</title>
<g id="a_Node000006"><a xlink:href="classXML_1_1bpmn_1_1tBaseElement.html" target="_top" xlink:title=" ">
<polygon fill="white" stroke="transparent" points="147.5,-631 7.5,-631 7.5,-537 147.5,-537 147.5,-631"/>
<text text-anchor="start" x="12.5" y="-619" font-family="Helvetica,sans-Serif" font-size="10.00">XML::bpmn::tBaseElement</text>
<text text-anchor="start" x="17.5" y="-604" font-family="Helvetica,sans-Serif" font-size="10.00">+</text>
<text text-anchor="start" x="36.5" y="-604" font-family="Helvetica,sans-Serif" font-size="10.00">documentation</text>
<text text-anchor="start" x="17.5" y="-589" font-family="Helvetica,sans-Serif" font-size="10.00">+</text>
<text text-anchor="start" x="36.5" y="-589" font-family="Helvetica,sans-Serif" font-size="10.00">extensionElements</text>
<text text-anchor="start" x="17.5" y="-574" font-family="Helvetica,sans-Serif" font-size="10.00">+</text>
<text text-anchor="start" x="36.5" y="-574" font-family="Helvetica,sans-Serif" font-size="10.00">id</text>
<text text-anchor="start" x="17.5" y="-559" font-family="Helvetica,sans-Serif" font-size="10.00">+</text>
<text text-anchor="start" x="36.5" y="-559" font-family="Helvetica,sans-Serif" font-size="10.00">defaults</text>
<text text-anchor="start" x="17.5" y="-544" font-family="Helvetica,sans-Serif" font-size="10.00">#</text>
<text text-anchor="start" x="36.5" y="-544" font-family="Helvetica,sans-Serif" font-size="10.00">tBaseElement()</text>
<polygon fill="#666666" stroke="#666666" points="7.5,-614 7.5,-614 147.5,-614 147.5,-614 7.5,-614"/>
<polygon fill="#666666" stroke="#666666" points="7.5,-554 7.5,-554 34.5,-554 34.5,-554 7.5,-554"/>
<polygon fill="#666666" stroke="#666666" points="34.5,-554 34.5,-554 147.5,-554 147.5,-554 34.5,-554"/>
<polygon fill="none" stroke="#666666" points="7.5,-537 7.5,-631 147.5,-631 147.5,-537 7.5,-537"/>
</a>
</g>
</g>
<!-- Node6&#45;&gt;Node5 -->
<g id="edge5_Node000005_Node000006" class="edge">
<title>Node6&#45;&gt;Node5</title>
<g id="a_edge5_Node000005_Node000006"><a xlink:title=" ">
<path fill="none" stroke="#63b8ff" d="M77.5,-526.59C77.5,-517.62 77.5,-508.79 77.5,-501.15"/>
<polygon fill="none" stroke="#63b8ff" points="74,-526.73 77.5,-536.73 81,-526.73 74,-526.73"/>
</a>
</g>
</g>
<!-- Node7 -->
<g id="Node000007" class="node">
<title>Node7</title>
<g id="a_Node000007"><a xlink:href="classXML_1_1XMLObject.html" target="_top" xlink:title="A class representing a node in an XML&#45;tree.">
<polygon fill="white" stroke="transparent" points="137.5,-1061 17.5,-1061 17.5,-667 137.5,-667 137.5,-1061"/>
<text text-anchor="start" x="37.5" y="-1049" font-family="Helvetica,sans-Serif" font-size="10.00">XML::XMLObject</text>
<text text-anchor="start" x="21.5" y="-1034" font-family="Helvetica,sans-Serif" font-size="10.00">+</text>
<text text-anchor="start" x="34.5" y="-1034" font-family="Helvetica,sans-Serif" font-size="10.00">xmlns</text>
<text text-anchor="start" x="21.5" y="-1019" font-family="Helvetica,sans-Serif" font-size="10.00">+</text>
<text text-anchor="start" x="34.5" y="-1019" font-family="Helvetica,sans-Serif" font-size="10.00">className</text>
<text text-anchor="start" x="21.5" y="-1004" font-family="Helvetica,sans-Serif" font-size="10.00">+</text>
<text text-anchor="start" x="34.5" y="-1004" font-family="Helvetica,sans-Serif" font-size="10.00">prefix</text>
<text text-anchor="start" x="21.5" y="-989" font-family="Helvetica,sans-Serif" font-size="10.00">+</text>
<text text-anchor="start" x="34.5" y="-989" font-family="Helvetica,sans-Serif" font-size="10.00">elementName</text>
<text text-anchor="start" x="21.5" y="-974" font-family="Helvetica,sans-Serif" font-size="10.00">+</text>
<text text-anchor="start" x="34.5" y="-974" font-family="Helvetica,sans-Serif" font-size="10.00">textContent</text>
<text text-anchor="start" x="21.5" y="-959" font-family="Helvetica,sans-Serif" font-size="10.00">+</text>
<text text-anchor="start" x="34.5" y="-959" font-family="Helvetica,sans-Serif" font-size="10.00">children</text>
<text text-anchor="start" x="21.5" y="-944" font-family="Helvetica,sans-Serif" font-size="10.00">+</text>
<text text-anchor="start" x="34.5" y="-944" font-family="Helvetica,sans-Serif" font-size="10.00">attributes</text>
<text text-anchor="start" x="21.5" y="-929" font-family="Helvetica,sans-Serif" font-size="10.00">+</text>
<text text-anchor="start" x="34.5" y="-929" font-family="Helvetica,sans-Serif" font-size="10.00">defaults</text>
<text text-anchor="start" x="21.5" y="-914" font-family="Helvetica,sans-Serif" font-size="10.00">#</text>
<text text-anchor="start" x="34.5" y="-914" font-family="Helvetica,sans-Serif" font-size="10.00">factory</text>
<text text-anchor="start" x="21.5" y="-899" font-family="Helvetica,sans-Serif" font-size="10.00">+</text>
<text text-anchor="start" x="34.5" y="-899" font-family="Helvetica,sans-Serif" font-size="10.00">~XMLObject()</text>
<text text-anchor="start" x="21.5" y="-884" font-family="Helvetica,sans-Serif" font-size="10.00">+</text>
<text text-anchor="start" x="34.5" y="-884" font-family="Helvetica,sans-Serif" font-size="10.00">is()</text>
<text text-anchor="start" x="21.5" y="-869" font-family="Helvetica,sans-Serif" font-size="10.00">+</text>
<text text-anchor="start" x="34.5" y="-869" font-family="Helvetica,sans-Serif" font-size="10.00">is()</text>
<text text-anchor="start" x="21.5" y="-854" font-family="Helvetica,sans-Serif" font-size="10.00">+</text>
<text text-anchor="start" x="34.5" y="-854" font-family="Helvetica,sans-Serif" font-size="10.00">get()</text>
<text text-anchor="start" x="21.5" y="-839" font-family="Helvetica,sans-Serif" font-size="10.00">+</text>
<text text-anchor="start" x="34.5" y="-839" font-family="Helvetica,sans-Serif" font-size="10.00">get()</text>
<text text-anchor="start" x="21.5" y="-824" font-family="Helvetica,sans-Serif" font-size="10.00">+</text>
<text text-anchor="start" x="34.5" y="-824" font-family="Helvetica,sans-Serif" font-size="10.00">find()</text>
<text text-anchor="start" x="21.5" y="-809" font-family="Helvetica,sans-Serif" font-size="10.00">+</text>
<text text-anchor="start" x="34.5" y="-809" font-family="Helvetica,sans-Serif" font-size="10.00">find()</text>
<text text-anchor="start" x="21.5" y="-794" font-family="Helvetica,sans-Serif" font-size="10.00">+</text>
<text text-anchor="start" x="34.5" y="-794" font-family="Helvetica,sans-Serif" font-size="10.00">stringify()</text>
<text text-anchor="start" x="21.5" y="-779" font-family="Helvetica,sans-Serif" font-size="10.00">+</text>
<text text-anchor="start" x="34.5" y="-779" font-family="Helvetica,sans-Serif" font-size="10.00">format()</text>
<text text-anchor="start" x="21.5" y="-764" font-family="Helvetica,sans-Serif" font-size="10.00">+</text>
<text text-anchor="start" x="34.5" y="-764" font-family="Helvetica,sans-Serif" font-size="10.00">getRequiredChild()</text>
<text text-anchor="start" x="34.5" y="-749" font-family="Helvetica,sans-Serif" font-size="10.00">and 7 more...</text>
<text text-anchor="start" x="21.5" y="-734" font-family="Helvetica,sans-Serif" font-size="10.00">+</text>
<text text-anchor="start" x="34.5" y="-734" font-family="Helvetica,sans-Serif" font-size="10.00">createFromStream()</text>
<text text-anchor="start" x="21.5" y="-719" font-family="Helvetica,sans-Serif" font-size="10.00">+</text>
<text text-anchor="start" x="34.5" y="-719" font-family="Helvetica,sans-Serif" font-size="10.00">createFromString()</text>
<text text-anchor="start" x="21.5" y="-704" font-family="Helvetica,sans-Serif" font-size="10.00">+</text>
<text text-anchor="start" x="34.5" y="-704" font-family="Helvetica,sans-Serif" font-size="10.00">createFromFile()</text>
<text text-anchor="start" x="21.5" y="-689" font-family="Helvetica,sans-Serif" font-size="10.00">#</text>
<text text-anchor="start" x="34.5" y="-689" font-family="Helvetica,sans-Serif" font-size="10.00">XMLObject()</text>
<text text-anchor="start" x="21.5" y="-674" font-family="Helvetica,sans-Serif" font-size="10.00">#</text>
<text text-anchor="start" x="34.5" y="-674" font-family="Helvetica,sans-Serif" font-size="10.00">createObject()</text>
<polygon fill="#666666" stroke="#666666" points="17.5,-1044 17.5,-1044 137.5,-1044 137.5,-1044 17.5,-1044"/>
<polygon fill="#666666" stroke="#666666" points="17.5,-909 17.5,-909 32.5,-909 32.5,-909 17.5,-909"/>
<polygon fill="#666666" stroke="#666666" points="32.5,-909 32.5,-909 137.5,-909 137.5,-909 32.5,-909"/>
<polygon fill="none" stroke="#666666" points="17.5,-667 17.5,-1061 137.5,-1061 137.5,-667 17.5,-667"/>
</a>
</g>
</g>
<!-- Node7&#45;&gt;Node6 -->
<g id="edge6_Node000006_Node000007" class="edge">
<title>Node7&#45;&gt;Node6</title>
<g id="a_edge6_Node000006_Node000007"><a xlink:title=" ">
<path fill="none" stroke="#63b8ff" d="M77.5,-656.78C77.5,-647.62 77.5,-638.97 77.5,-631.06"/>
<polygon fill="none" stroke="#63b8ff" points="74,-656.91 77.5,-666.91 81,-656.91 74,-656.91"/>
</a>
</g>
</g>
</g>
</svg>
