<?xml version="1.0" encoding="UTF-8" standalone="no"?>
<!DOCTYPE svg PUBLIC "-//W3C//DTD SVG 1.1//EN"
 "http://www.w3.org/Graphics/SVG/1.1/DTD/svg11.dtd">
<!-- Generated by graphviz version 2.43.0 (0)
 -->
<!-- Title: XML::bpmn::exclusiveGateway Pages: 1 -->
<svg width="179pt" height="1004pt"
 viewBox="0.00 0.00 179.00 1004.00" xmlns="http://www.w3.org/2000/svg" xmlns:xlink="http://www.w3.org/1999/xlink">
<g id="graph0" class="graph" transform="scale(1 1) rotate(0) translate(4 1000)">
<title>XML::bpmn::exclusiveGateway</title>
<!-- Node1 -->
<g id="node1" class="node">
<title>Node1</title>
<g id="a_node1"><a xlink:title=" ">
<polygon fill="#bfbfbf" stroke="black" points="2,-0.5 2,-57.5 169,-57.5 169,-0.5 2,-0.5"/>
<text text-anchor="middle" x="85.5" y="-45.5" font-family="Helvetica,sans-Serif" font-size="10.00">XML::bpmn::exclusiveGateway</text>
<polyline fill="none" stroke="black" points="2,-38.5 169,-38.5 "/>
<text text-anchor="start" x="10" y="-26.5" font-family="Helvetica,sans-Serif" font-size="10.00">+ defaults</text>
<polyline fill="none" stroke="black" points="2,-19.5 169,-19.5 "/>
<text text-anchor="start" x="10" y="-7.5" font-family="Helvetica,sans-Serif" font-size="10.00"># exclusiveGateway()</text>
</a>
</g>
</g>
<!-- Node2 -->
<g id="node2" class="node">
<title>Node2</title>
<g id="a_node2"><a xlink:href="classXML_1_1bpmn_1_1tExclusiveGateway.html" target="_top" xlink:title=" ">
<polygon fill="none" stroke="black" points="0,-94.5 0,-162.5 171,-162.5 171,-94.5 0,-94.5"/>
<text text-anchor="middle" x="85.5" y="-150.5" font-family="Helvetica,sans-Serif" font-size="10.00">XML::bpmn::tExclusiveGateway</text>
<polyline fill="none" stroke="black" points="0,-143.5 171,-143.5 "/>
<text text-anchor="start" x="8" y="-131.5" font-family="Helvetica,sans-Serif" font-size="10.00">+ default_</text>
<text text-anchor="start" x="8" y="-120.5" font-family="Helvetica,sans-Serif" font-size="10.00">+ defaults</text>
<polyline fill="none" stroke="black" points="0,-113.5 171,-113.5 "/>
<text text-anchor="start" x="8" y="-101.5" font-family="Helvetica,sans-Serif" font-size="10.00"># tExclusiveGateway()</text>
</a>
</g>
</g>
<!-- Node2&#45;&gt;Node1 -->
<g id="edge1" class="edge">
<title>Node2&#45;&gt;Node1</title>
<path fill="none" stroke="midnightblue" d="M85.5,-84.45C85.5,-75.4 85.5,-66.09 85.5,-57.78"/>
<polygon fill="none" stroke="midnightblue" points="82,-84.49 85.5,-94.49 89,-84.49 82,-84.49"/>
</g>
<!-- Node3 -->
<g id="node3" class="node">
<title>Node3</title>
<g id="a_node3"><a xlink:href="classXML_1_1bpmn_1_1tGateway.html" target="_top" xlink:title=" ">
<polygon fill="none" stroke="black" points="23,-199.5 23,-267.5 148,-267.5 148,-199.5 23,-199.5"/>
<text text-anchor="middle" x="85.5" y="-255.5" font-family="Helvetica,sans-Serif" font-size="10.00">XML::bpmn::tGateway</text>
<polyline fill="none" stroke="black" points="23,-248.5 148,-248.5 "/>
<text text-anchor="start" x="31" y="-236.5" font-family="Helvetica,sans-Serif" font-size="10.00">+ gatewayDirection</text>
<text text-anchor="start" x="31" y="-225.5" font-family="Helvetica,sans-Serif" font-size="10.00">+ defaults</text>
<polyline fill="none" stroke="black" points="23,-218.5 148,-218.5 "/>
<text text-anchor="start" x="31" y="-206.5" font-family="Helvetica,sans-Serif" font-size="10.00"># tGateway()</text>
</a>
</g>
</g>
<!-- Node3&#45;&gt;Node2 -->
<g id="edge2" class="edge">
<title>Node3&#45;&gt;Node2</title>
<path fill="none" stroke="midnightblue" d="M85.5,-189.14C85.5,-180.26 85.5,-171.04 85.5,-162.59"/>
<polygon fill="none" stroke="midnightblue" points="82,-189.34 85.5,-199.34 89,-189.34 82,-189.34"/>
</g>
<!-- Node4 -->
<g id="node4" class="node">
<title>Node4</title>
<g id="a_node4"><a xlink:href="classXML_1_1bpmn_1_1tFlowNode.html" target="_top" xlink:title=" ">
<polygon fill="none" stroke="black" points="20.5,-304.5 20.5,-383.5 150.5,-383.5 150.5,-304.5 20.5,-304.5"/>
<text text-anchor="middle" x="85.5" y="-371.5" font-family="Helvetica,sans-Serif" font-size="10.00">XML::bpmn::tFlowNode</text>
<polyline fill="none" stroke="black" points="20.5,-364.5 150.5,-364.5 "/>
<text text-anchor="start" x="28.5" y="-352.5" font-family="Helvetica,sans-Serif" font-size="10.00">+ incoming</text>
<text text-anchor="start" x="28.5" y="-341.5" font-family="Helvetica,sans-Serif" font-size="10.00">+ outgoing</text>
<text text-anchor="start" x="28.5" y="-330.5" font-family="Helvetica,sans-Serif" font-size="10.00">+ defaults</text>
<polyline fill="none" stroke="black" points="20.5,-323.5 150.5,-323.5 "/>
<text text-anchor="start" x="28.5" y="-311.5" font-family="Helvetica,sans-Serif" font-size="10.00"># tFlowNode()</text>
</a>
</g>
</g>
<!-- Node4&#45;&gt;Node3 -->
<g id="edge3" class="edge">
<title>Node4&#45;&gt;Node3</title>
<path fill="none" stroke="midnightblue" d="M85.5,-294.35C85.5,-285.28 85.5,-276 85.5,-267.54"/>
<polygon fill="none" stroke="midnightblue" points="82,-294.44 85.5,-304.44 89,-294.44 82,-294.44"/>
</g>
<!-- Node5 -->
<g id="node5" class="node">
<title>Node5</title>
<g id="a_node5"><a xlink:href="classXML_1_1bpmn_1_1tFlowElement.html" target="_top" xlink:title=" ">
<polygon fill="none" stroke="black" points="13,-420.5 13,-521.5 158,-521.5 158,-420.5 13,-420.5"/>
<text text-anchor="middle" x="85.5" y="-509.5" font-family="Helvetica,sans-Serif" font-size="10.00">XML::bpmn::tFlowElement</text>
<polyline fill="none" stroke="black" points="13,-502.5 158,-502.5 "/>
<text text-anchor="start" x="21" y="-490.5" font-family="Helvetica,sans-Serif" font-size="10.00">+ auditing</text>
<text text-anchor="start" x="21" y="-479.5" font-family="Helvetica,sans-Serif" font-size="10.00">+ monitoring</text>
<text text-anchor="start" x="21" y="-468.5" font-family="Helvetica,sans-Serif" font-size="10.00">+ categoryValueRef</text>
<text text-anchor="start" x="21" y="-457.5" font-family="Helvetica,sans-Serif" font-size="10.00">+ name</text>
<text text-anchor="start" x="21" y="-446.5" font-family="Helvetica,sans-Serif" font-size="10.00">+ defaults</text>
<polyline fill="none" stroke="black" points="13,-439.5 158,-439.5 "/>
<text text-anchor="start" x="21" y="-427.5" font-family="Helvetica,sans-Serif" font-size="10.00"># tFlowElement()</text>
</a>
</g>
</g>
<!-- Node5&#45;&gt;Node4 -->
<g id="edge4" class="edge">
<title>Node5&#45;&gt;Node4</title>
<path fill="none" stroke="midnightblue" d="M85.5,-410.19C85.5,-401.22 85.5,-392.18 85.5,-383.81"/>
<polygon fill="none" stroke="midnightblue" points="82,-410.24 85.5,-420.24 89,-410.24 82,-410.24"/>
</g>
<!-- Node6 -->
<g id="node6" class="node">
<title>Node6</title>
<g id="a_node6"><a xlink:href="classXML_1_1bpmn_1_1tBaseElement.html" target="_top" xlink:title=" ">
<polygon fill="none" stroke="black" points="12.5,-558.5 12.5,-648.5 158.5,-648.5 158.5,-558.5 12.5,-558.5"/>
<text text-anchor="middle" x="85.5" y="-636.5" font-family="Helvetica,sans-Serif" font-size="10.00">XML::bpmn::tBaseElement</text>
<polyline fill="none" stroke="black" points="12.5,-629.5 158.5,-629.5 "/>
<text text-anchor="start" x="20.5" y="-617.5" font-family="Helvetica,sans-Serif" font-size="10.00">+ documentation</text>
<text text-anchor="start" x="20.5" y="-606.5" font-family="Helvetica,sans-Serif" font-size="10.00">+ extensionElements</text>
<text text-anchor="start" x="20.5" y="-595.5" font-family="Helvetica,sans-Serif" font-size="10.00">+ id</text>
<text text-anchor="start" x="20.5" y="-584.5" font-family="Helvetica,sans-Serif" font-size="10.00">+ defaults</text>
<polyline fill="none" stroke="black" points="12.5,-577.5 158.5,-577.5 "/>
<text text-anchor="start" x="20.5" y="-565.5" font-family="Helvetica,sans-Serif" font-size="10.00"># tBaseElement()</text>
</a>
</g>
</g>
<!-- Node6&#45;&gt;Node5 -->
<g id="edge5" class="edge">
<title>Node6&#45;&gt;Node5</title>
<path fill="none" stroke="midnightblue" d="M85.5,-548.13C85.5,-539.31 85.5,-530.22 85.5,-521.52"/>
<polygon fill="none" stroke="midnightblue" points="82,-548.32 85.5,-558.32 89,-548.32 82,-548.32"/>
</g>
<!-- Node7 -->
<g id="node7" class="node">
<title>Node7</title>
<g id="a_node7"><a xlink:href="classXML_1_1XMLObject.html" target="_top" xlink:title=" ">
<polygon fill="none" stroke="black" points="22.5,-685.5 22.5,-995.5 148.5,-995.5 148.5,-685.5 22.5,-685.5"/>
<text text-anchor="middle" x="85.5" y="-983.5" font-family="Helvetica,sans-Serif" font-size="10.00">XML::XMLObject</text>
<polyline fill="none" stroke="black" points="22.5,-976.5 148.5,-976.5 "/>
<text text-anchor="start" x="30.5" y="-964.5" font-family="Helvetica,sans-Serif" font-size="10.00">+ xmlns</text>
<text text-anchor="start" x="30.5" y="-953.5" font-family="Helvetica,sans-Serif" font-size="10.00">+ className</text>
<text text-anchor="start" x="30.5" y="-942.5" font-family="Helvetica,sans-Serif" font-size="10.00">+ prefix</text>
<text text-anchor="start" x="30.5" y="-931.5" font-family="Helvetica,sans-Serif" font-size="10.00">+ elementName</text>
<text text-anchor="start" x="30.5" y="-920.5" font-family="Helvetica,sans-Serif" font-size="10.00">+ textContent</text>
<text text-anchor="start" x="30.5" y="-909.5" font-family="Helvetica,sans-Serif" font-size="10.00">+ children</text>
<text text-anchor="start" x="30.5" y="-898.5" font-family="Helvetica,sans-Serif" font-size="10.00">+ attributes</text>
<text text-anchor="start" x="30.5" y="-887.5" font-family="Helvetica,sans-Serif" font-size="10.00">+ defaults</text>
<text text-anchor="start" x="30.5" y="-876.5" font-family="Helvetica,sans-Serif" font-size="10.00"># factory</text>
<polyline fill="none" stroke="black" points="22.5,-869.5 148.5,-869.5 "/>
<text text-anchor="start" x="30.5" y="-857.5" font-family="Helvetica,sans-Serif" font-size="10.00">+ ~XMLObject()</text>
<text text-anchor="start" x="30.5" y="-846.5" font-family="Helvetica,sans-Serif" font-size="10.00">+ is()</text>
<text text-anchor="start" x="30.5" y="-835.5" font-family="Helvetica,sans-Serif" font-size="10.00">+ is()</text>
<text text-anchor="start" x="30.5" y="-824.5" font-family="Helvetica,sans-Serif" font-size="10.00">+ get()</text>
<text text-anchor="start" x="30.5" y="-813.5" font-family="Helvetica,sans-Serif" font-size="10.00">+ get()</text>
<text text-anchor="start" x="30.5" y="-802.5" font-family="Helvetica,sans-Serif" font-size="10.00">+ find()</text>
<text text-anchor="start" x="30.5" y="-791.5" font-family="Helvetica,sans-Serif" font-size="10.00">+ find()</text>
<text text-anchor="start" x="30.5" y="-780.5" font-family="Helvetica,sans-Serif" font-size="10.00">+ stringify()</text>
<text text-anchor="start" x="30.5" y="-769.5" font-family="Helvetica,sans-Serif" font-size="10.00">+ getRequiredChild()</text>
<text text-anchor="start" x="30.5" y="-758.5" font-family="Helvetica,sans-Serif" font-size="10.00">+ getOptionalChild()</text>
<text text-anchor="start" x="30.5" y="-747.5" font-family="Helvetica,sans-Serif" font-size="10.00">and 6 more...</text>
<text text-anchor="start" x="30.5" y="-736.5" font-family="Helvetica,sans-Serif" font-size="10.00">+ createFromStream()</text>
<text text-anchor="start" x="30.5" y="-725.5" font-family="Helvetica,sans-Serif" font-size="10.00">+ createFromString()</text>
<text text-anchor="start" x="30.5" y="-714.5" font-family="Helvetica,sans-Serif" font-size="10.00">+ createFromFile()</text>
<text text-anchor="start" x="30.5" y="-703.5" font-family="Helvetica,sans-Serif" font-size="10.00"># XMLObject()</text>
<text text-anchor="start" x="30.5" y="-692.5" font-family="Helvetica,sans-Serif" font-size="10.00"># createObject()</text>
</a>
</g>
</g>
<!-- Node7&#45;&gt;Node6 -->
<g id="edge6" class="edge">
<title>Node7&#45;&gt;Node6</title>
<path fill="none" stroke="midnightblue" d="M85.5,-675.35C85.5,-665.89 85.5,-656.91 85.5,-648.72"/>
<polygon fill="none" stroke="midnightblue" points="82,-675.37 85.5,-685.37 89,-675.37 82,-675.37"/>
</g>
</g>
</svg>
