<?xml version="1.0" encoding="UTF-8" standalone="no"?>
<!DOCTYPE svg PUBLIC "-//W3C//DTD SVG 1.1//EN"
 "http://www.w3.org/Graphics/SVG/1.1/DTD/svg11.dtd">
<!-- Generated by graphviz version 2.43.0 (0)
 -->
<!-- Title: XML::bpmn::tPerformer Pages: 1 -->
<svg width="330pt" height="1017pt"
 viewBox="0.00 0.00 330.00 1017.00" xmlns="http://www.w3.org/2000/svg" xmlns:xlink="http://www.w3.org/1999/xlink">
<g id="graph0" class="graph" transform="scale(1 1) rotate(0) translate(4 1013)">
<title>XML::bpmn::tPerformer</title>
<!-- Node1 -->
<g id="Node000001" class="node">
<title>Node1</title>
<g id="a_Node000001"><a xlink:title=" ">
<polygon fill="#999999" stroke="transparent" points="224,-304 100,-304 100,-255 224,-255 224,-304"/>
<text text-anchor="start" x="105" y="-291.5" font-family="Helvetica,sans-Serif" font-size="10.00">XML::bpmn::tPerformer</text>
<text text-anchor="start" x="114.5" y="-276.5" font-family="Helvetica,sans-Serif" font-size="10.00">+</text>
<text text-anchor="start" x="138" y="-276.5" font-family="Helvetica,sans-Serif" font-size="10.00">defaults</text>
<text text-anchor="start" x="114.5" y="-261.5" font-family="Helvetica,sans-Serif" font-size="10.00">#</text>
<text text-anchor="start" x="138" y="-261.5" font-family="Helvetica,sans-Serif" font-size="10.00">tPerformer()</text>
<polygon fill="#666666" stroke="#666666" points="100,-286.5 100,-286.5 224,-286.5 224,-286.5 100,-286.5"/>
<polygon fill="#666666" stroke="#666666" points="100,-271.5 100,-271.5 136,-271.5 136,-271.5 100,-271.5"/>
<polygon fill="#666666" stroke="#666666" points="136,-271.5 136,-271.5 224,-271.5 224,-271.5 136,-271.5"/>
<polygon fill="none" stroke="#666666" points="100,-255 100,-304 224,-304 224,-255 100,-255"/>
</a>
</g>
</g>
<!-- Node5 -->
<g id="Node000005" class="node">
<title>Node5</title>
<g id="a_Node000005"><a xlink:href="classXML_1_1bpmn_1_1tHumanPerformer.html" target="_top" xlink:title=" ">
<polygon fill="white" stroke="transparent" points="241.5,-219 82.5,-219 82.5,-170 241.5,-170 241.5,-219"/>
<text text-anchor="start" x="88" y="-206.5" font-family="Helvetica,sans-Serif" font-size="10.00">XML::bpmn::tHumanPerformer</text>
<text text-anchor="start" x="97.5" y="-191.5" font-family="Helvetica,sans-Serif" font-size="10.00">+</text>
<text text-anchor="start" x="121" y="-191.5" font-family="Helvetica,sans-Serif" font-size="10.00">defaults</text>
<text text-anchor="start" x="97.5" y="-176.5" font-family="Helvetica,sans-Serif" font-size="10.00">#</text>
<text text-anchor="start" x="121" y="-176.5" font-family="Helvetica,sans-Serif" font-size="10.00">tHumanPerformer()</text>
<polygon fill="#666666" stroke="#666666" points="83,-201.5 83,-201.5 242,-201.5 242,-201.5 83,-201.5"/>
<polygon fill="#666666" stroke="#666666" points="83,-186.5 83,-186.5 119,-186.5 119,-186.5 83,-186.5"/>
<polygon fill="#666666" stroke="#666666" points="119,-186.5 119,-186.5 242,-186.5 242,-186.5 119,-186.5"/>
<polygon fill="none" stroke="#666666" points="82.5,-170 82.5,-219 241.5,-219 241.5,-170 82.5,-170"/>
</a>
</g>
</g>
<!-- Node1&#45;&gt;Node5 -->
<g id="edge4_Node000001_Node000005" class="edge">
<title>Node1&#45;&gt;Node5</title>
<g id="a_edge4_Node000001_Node000005"><a xlink:title=" ">
<path fill="none" stroke="#63b8ff" d="M162,-244.77C162,-236.17 162,-227.1 162,-219.12"/>
<polygon fill="none" stroke="#63b8ff" points="158.5,-244.94 162,-254.94 165.5,-244.94 158.5,-244.94"/>
</a>
</g>
</g>
<!-- Node2 -->
<g id="Node000002" class="node">
<title>Node2</title>
<g id="a_Node000002"><a xlink:href="classXML_1_1bpmn_1_1tResourceRole.html" target="_top" xlink:title=" ">
<polygon fill="white" stroke="transparent" points="249.5,-449 74.5,-449 74.5,-340 249.5,-340 249.5,-449"/>
<text text-anchor="start" x="96.5" y="-436.5" font-family="Helvetica,sans-Serif" font-size="10.00">XML::bpmn::tResourceRole</text>
<text text-anchor="start" x="79" y="-421.5" font-family="Helvetica,sans-Serif" font-size="10.00">+</text>
<text text-anchor="start" x="92" y="-421.5" font-family="Helvetica,sans-Serif" font-size="10.00">resourceAssignmentExpression</text>
<text text-anchor="start" x="79" y="-406.5" font-family="Helvetica,sans-Serif" font-size="10.00">+</text>
<text text-anchor="start" x="92" y="-406.5" font-family="Helvetica,sans-Serif" font-size="10.00">resourceRef</text>
<text text-anchor="start" x="79" y="-391.5" font-family="Helvetica,sans-Serif" font-size="10.00">+</text>
<text text-anchor="start" x="92" y="-391.5" font-family="Helvetica,sans-Serif" font-size="10.00">resourceParameterBinding</text>
<text text-anchor="start" x="79" y="-376.5" font-family="Helvetica,sans-Serif" font-size="10.00">+</text>
<text text-anchor="start" x="92" y="-376.5" font-family="Helvetica,sans-Serif" font-size="10.00">name</text>
<text text-anchor="start" x="79" y="-361.5" font-family="Helvetica,sans-Serif" font-size="10.00">+</text>
<text text-anchor="start" x="92" y="-361.5" font-family="Helvetica,sans-Serif" font-size="10.00">defaults</text>
<text text-anchor="start" x="79" y="-346.5" font-family="Helvetica,sans-Serif" font-size="10.00">#</text>
<text text-anchor="start" x="92" y="-346.5" font-family="Helvetica,sans-Serif" font-size="10.00">tResourceRole()</text>
<polygon fill="#666666" stroke="#666666" points="75,-431.5 75,-431.5 250,-431.5 250,-431.5 75,-431.5"/>
<polygon fill="#666666" stroke="#666666" points="75,-356.5 75,-356.5 90,-356.5 90,-356.5 75,-356.5"/>
<polygon fill="#666666" stroke="#666666" points="90,-356.5 90,-356.5 250,-356.5 250,-356.5 90,-356.5"/>
<polygon fill="none" stroke="#666666" points="74.5,-340 74.5,-449 249.5,-449 249.5,-340 74.5,-340"/>
</a>
</g>
</g>
<!-- Node2&#45;&gt;Node1 -->
<g id="edge1_Node000001_Node000002" class="edge">
<title>Node2&#45;&gt;Node1</title>
<g id="a_edge1_Node000001_Node000002"><a xlink:title=" ">
<path fill="none" stroke="#63b8ff" d="M162,-329.69C162,-320.63 162,-311.82 162,-304.23"/>
<polygon fill="none" stroke="#63b8ff" points="158.5,-329.98 162,-339.98 165.5,-329.98 158.5,-329.98"/>
</a>
</g>
</g>
<!-- Node3 -->
<g id="Node000003" class="node">
<title>Node3</title>
<g id="a_Node000003"><a xlink:href="classXML_1_1bpmn_1_1tBaseElement.html" target="_top" xlink:title=" ">
<polygon fill="white" stroke="transparent" points="232,-579 92,-579 92,-485 232,-485 232,-579"/>
<text text-anchor="start" x="97" y="-567" font-family="Helvetica,sans-Serif" font-size="10.00">XML::bpmn::tBaseElement</text>
<text text-anchor="start" x="102" y="-552" font-family="Helvetica,sans-Serif" font-size="10.00">+</text>
<text text-anchor="start" x="121" y="-552" font-family="Helvetica,sans-Serif" font-size="10.00">documentation</text>
<text text-anchor="start" x="102" y="-537" font-family="Helvetica,sans-Serif" font-size="10.00">+</text>
<text text-anchor="start" x="121" y="-537" font-family="Helvetica,sans-Serif" font-size="10.00">extensionElements</text>
<text text-anchor="start" x="102" y="-522" font-family="Helvetica,sans-Serif" font-size="10.00">+</text>
<text text-anchor="start" x="121" y="-522" font-family="Helvetica,sans-Serif" font-size="10.00">id</text>
<text text-anchor="start" x="102" y="-507" font-family="Helvetica,sans-Serif" font-size="10.00">+</text>
<text text-anchor="start" x="121" y="-507" font-family="Helvetica,sans-Serif" font-size="10.00">defaults</text>
<text text-anchor="start" x="102" y="-492" font-family="Helvetica,sans-Serif" font-size="10.00">#</text>
<text text-anchor="start" x="121" y="-492" font-family="Helvetica,sans-Serif" font-size="10.00">tBaseElement()</text>
<polygon fill="#666666" stroke="#666666" points="92,-562 92,-562 232,-562 232,-562 92,-562"/>
<polygon fill="#666666" stroke="#666666" points="92,-502 92,-502 119,-502 119,-502 92,-502"/>
<polygon fill="#666666" stroke="#666666" points="119,-502 119,-502 232,-502 232,-502 119,-502"/>
<polygon fill="none" stroke="#666666" points="92,-485 92,-579 232,-579 232,-485 92,-485"/>
</a>
</g>
</g>
<!-- Node3&#45;&gt;Node2 -->
<g id="edge2_Node000002_Node000003" class="edge">
<title>Node3&#45;&gt;Node2</title>
<g id="a_edge2_Node000002_Node000003"><a xlink:title=" ">
<path fill="none" stroke="#63b8ff" d="M162,-474.58C162,-466.12 162,-457.41 162,-449.01"/>
<polygon fill="none" stroke="#63b8ff" points="158.5,-474.75 162,-484.75 165.5,-474.75 158.5,-474.75"/>
</a>
</g>
</g>
<!-- Node4 -->
<g id="Node000004" class="node">
<title>Node4</title>
<g id="a_Node000004"><a xlink:href="classXML_1_1XMLObject.html" target="_top" xlink:title="A class representing a node in an XML&#45;tree.">
<polygon fill="white" stroke="transparent" points="222,-1009 102,-1009 102,-615 222,-615 222,-1009"/>
<text text-anchor="start" x="122" y="-997" font-family="Helvetica,sans-Serif" font-size="10.00">XML::XMLObject</text>
<text text-anchor="start" x="106" y="-982" font-family="Helvetica,sans-Serif" font-size="10.00">+</text>
<text text-anchor="start" x="119" y="-982" font-family="Helvetica,sans-Serif" font-size="10.00">xmlns</text>
<text text-anchor="start" x="106" y="-967" font-family="Helvetica,sans-Serif" font-size="10.00">+</text>
<text text-anchor="start" x="119" y="-967" font-family="Helvetica,sans-Serif" font-size="10.00">className</text>
<text text-anchor="start" x="106" y="-952" font-family="Helvetica,sans-Serif" font-size="10.00">+</text>
<text text-anchor="start" x="119" y="-952" font-family="Helvetica,sans-Serif" font-size="10.00">prefix</text>
<text text-anchor="start" x="106" y="-937" font-family="Helvetica,sans-Serif" font-size="10.00">+</text>
<text text-anchor="start" x="119" y="-937" font-family="Helvetica,sans-Serif" font-size="10.00">elementName</text>
<text text-anchor="start" x="106" y="-922" font-family="Helvetica,sans-Serif" font-size="10.00">+</text>
<text text-anchor="start" x="119" y="-922" font-family="Helvetica,sans-Serif" font-size="10.00">textContent</text>
<text text-anchor="start" x="106" y="-907" font-family="Helvetica,sans-Serif" font-size="10.00">+</text>
<text text-anchor="start" x="119" y="-907" font-family="Helvetica,sans-Serif" font-size="10.00">children</text>
<text text-anchor="start" x="106" y="-892" font-family="Helvetica,sans-Serif" font-size="10.00">+</text>
<text text-anchor="start" x="119" y="-892" font-family="Helvetica,sans-Serif" font-size="10.00">attributes</text>
<text text-anchor="start" x="106" y="-877" font-family="Helvetica,sans-Serif" font-size="10.00">+</text>
<text text-anchor="start" x="119" y="-877" font-family="Helvetica,sans-Serif" font-size="10.00">defaults</text>
<text text-anchor="start" x="106" y="-862" font-family="Helvetica,sans-Serif" font-size="10.00">#</text>
<text text-anchor="start" x="119" y="-862" font-family="Helvetica,sans-Serif" font-size="10.00">factory</text>
<text text-anchor="start" x="106" y="-847" font-family="Helvetica,sans-Serif" font-size="10.00">+</text>
<text text-anchor="start" x="119" y="-847" font-family="Helvetica,sans-Serif" font-size="10.00">~XMLObject()</text>
<text text-anchor="start" x="106" y="-832" font-family="Helvetica,sans-Serif" font-size="10.00">+</text>
<text text-anchor="start" x="119" y="-832" font-family="Helvetica,sans-Serif" font-size="10.00">is()</text>
<text text-anchor="start" x="106" y="-817" font-family="Helvetica,sans-Serif" font-size="10.00">+</text>
<text text-anchor="start" x="119" y="-817" font-family="Helvetica,sans-Serif" font-size="10.00">is()</text>
<text text-anchor="start" x="106" y="-802" font-family="Helvetica,sans-Serif" font-size="10.00">+</text>
<text text-anchor="start" x="119" y="-802" font-family="Helvetica,sans-Serif" font-size="10.00">get()</text>
<text text-anchor="start" x="106" y="-787" font-family="Helvetica,sans-Serif" font-size="10.00">+</text>
<text text-anchor="start" x="119" y="-787" font-family="Helvetica,sans-Serif" font-size="10.00">get()</text>
<text text-anchor="start" x="106" y="-772" font-family="Helvetica,sans-Serif" font-size="10.00">+</text>
<text text-anchor="start" x="119" y="-772" font-family="Helvetica,sans-Serif" font-size="10.00">find()</text>
<text text-anchor="start" x="106" y="-757" font-family="Helvetica,sans-Serif" font-size="10.00">+</text>
<text text-anchor="start" x="119" y="-757" font-family="Helvetica,sans-Serif" font-size="10.00">find()</text>
<text text-anchor="start" x="106" y="-742" font-family="Helvetica,sans-Serif" font-size="10.00">+</text>
<text text-anchor="start" x="119" y="-742" font-family="Helvetica,sans-Serif" font-size="10.00">stringify()</text>
<text text-anchor="start" x="106" y="-727" font-family="Helvetica,sans-Serif" font-size="10.00">+</text>
<text text-anchor="start" x="119" y="-727" font-family="Helvetica,sans-Serif" font-size="10.00">format()</text>
<text text-anchor="start" x="106" y="-712" font-family="Helvetica,sans-Serif" font-size="10.00">+</text>
<text text-anchor="start" x="119" y="-712" font-family="Helvetica,sans-Serif" font-size="10.00">getRequiredChild()</text>
<text text-anchor="start" x="119" y="-697" font-family="Helvetica,sans-Serif" font-size="10.00">and 7 more...</text>
<text text-anchor="start" x="106" y="-682" font-family="Helvetica,sans-Serif" font-size="10.00">+</text>
<text text-anchor="start" x="119" y="-682" font-family="Helvetica,sans-Serif" font-size="10.00">createFromStream()</text>
<text text-anchor="start" x="106" y="-667" font-family="Helvetica,sans-Serif" font-size="10.00">+</text>
<text text-anchor="start" x="119" y="-667" font-family="Helvetica,sans-Serif" font-size="10.00">createFromString()</text>
<text text-anchor="start" x="106" y="-652" font-family="Helvetica,sans-Serif" font-size="10.00">+</text>
<text text-anchor="start" x="119" y="-652" font-family="Helvetica,sans-Serif" font-size="10.00">createFromFile()</text>
<text text-anchor="start" x="106" y="-637" font-family="Helvetica,sans-Serif" font-size="10.00">#</text>
<text text-anchor="start" x="119" y="-637" font-family="Helvetica,sans-Serif" font-size="10.00">XMLObject()</text>
<text text-anchor="start" x="106" y="-622" font-family="Helvetica,sans-Serif" font-size="10.00">#</text>
<text text-anchor="start" x="119" y="-622" font-family="Helvetica,sans-Serif" font-size="10.00">createObject()</text>
<polygon fill="#666666" stroke="#666666" points="102,-992 102,-992 222,-992 222,-992 102,-992"/>
<polygon fill="#666666" stroke="#666666" points="102,-857 102,-857 117,-857 117,-857 102,-857"/>
<polygon fill="#666666" stroke="#666666" points="117,-857 117,-857 222,-857 222,-857 117,-857"/>
<polygon fill="none" stroke="#666666" points="102,-615 102,-1009 222,-1009 222,-615 102,-615"/>
</a>
</g>
</g>
<!-- Node4&#45;&gt;Node3 -->
<g id="edge3_Node000003_Node000004" class="edge">
<title>Node4&#45;&gt;Node3</title>
<g id="a_edge3_Node000003_Node000004"><a xlink:title=" ">
<path fill="none" stroke="#63b8ff" d="M162,-604.78C162,-595.62 162,-586.97 162,-579.06"/>
<polygon fill="none" stroke="#63b8ff" points="158.5,-604.91 162,-614.91 165.5,-604.91 158.5,-604.91"/>
</a>
</g>
</g>
<!-- Node6 -->
<g id="Node000006" class="node">
<title>Node6</title>
<g id="a_Node000006"><a xlink:href="classXML_1_1bpmn_1_1humanPerformer.html" target="_top" xlink:title=" ">
<polygon fill="white" stroke="transparent" points="154,-134 0,-134 0,-85 154,-85 154,-134"/>
<text text-anchor="start" x="5" y="-121.5" font-family="Helvetica,sans-Serif" font-size="10.00">XML::bpmn::humanPerformer</text>
<text text-anchor="start" x="14.5" y="-106.5" font-family="Helvetica,sans-Serif" font-size="10.00">+</text>
<text text-anchor="start" x="38" y="-106.5" font-family="Helvetica,sans-Serif" font-size="10.00">defaults</text>
<text text-anchor="start" x="14.5" y="-91.5" font-family="Helvetica,sans-Serif" font-size="10.00">#</text>
<text text-anchor="start" x="38" y="-91.5" font-family="Helvetica,sans-Serif" font-size="10.00">humanPerformer()</text>
<polygon fill="#666666" stroke="#666666" points="0,-116.5 0,-116.5 154,-116.5 154,-116.5 0,-116.5"/>
<polygon fill="#666666" stroke="#666666" points="0,-101.5 0,-101.5 36,-101.5 36,-101.5 0,-101.5"/>
<polygon fill="#666666" stroke="#666666" points="36,-101.5 36,-101.5 154,-101.5 154,-101.5 36,-101.5"/>
<polygon fill="none" stroke="#666666" points="0,-85 0,-134 154,-134 154,-85 0,-85"/>
</a>
</g>
</g>
<!-- Node5&#45;&gt;Node6 -->
<g id="edge5_Node000005_Node000006" class="edge">
<title>Node5&#45;&gt;Node6</title>
<g id="a_edge5_Node000005_Node000006"><a xlink:title=" ">
<path fill="none" stroke="#63b8ff" d="M130.63,-162.87C120.91,-153.38 110.35,-143.06 101.19,-134.12"/>
<polygon fill="none" stroke="#63b8ff" points="128.27,-165.46 137.87,-169.94 133.16,-160.45 128.27,-165.46"/>
</a>
</g>
</g>
<!-- Node7 -->
<g id="Node000007" class="node">
<title>Node7</title>
<g id="a_Node000007"><a xlink:href="classXML_1_1bpmn_1_1tPotentialOwner.html" target="_top" xlink:title=" ">
<polygon fill="white" stroke="transparent" points="322,-134 172,-134 172,-85 322,-85 322,-134"/>
<text text-anchor="start" x="177" y="-121.5" font-family="Helvetica,sans-Serif" font-size="10.00">XML::bpmn::tPotentialOwner</text>
<text text-anchor="start" x="186.5" y="-106.5" font-family="Helvetica,sans-Serif" font-size="10.00">+</text>
<text text-anchor="start" x="210" y="-106.5" font-family="Helvetica,sans-Serif" font-size="10.00">defaults</text>
<text text-anchor="start" x="186.5" y="-91.5" font-family="Helvetica,sans-Serif" font-size="10.00">#</text>
<text text-anchor="start" x="210" y="-91.5" font-family="Helvetica,sans-Serif" font-size="10.00">tPotentialOwner()</text>
<polygon fill="#666666" stroke="#666666" points="172,-116.5 172,-116.5 322,-116.5 322,-116.5 172,-116.5"/>
<polygon fill="#666666" stroke="#666666" points="172,-101.5 172,-101.5 208,-101.5 208,-101.5 172,-101.5"/>
<polygon fill="#666666" stroke="#666666" points="208,-101.5 208,-101.5 322,-101.5 322,-101.5 208,-101.5"/>
<polygon fill="none" stroke="#666666" points="172,-85 172,-134 322,-134 322,-85 172,-85"/>
</a>
</g>
</g>
<!-- Node5&#45;&gt;Node7 -->
<g id="edge6_Node000005_Node000007" class="edge">
<title>Node5&#45;&gt;Node7</title>
<g id="a_edge6_Node000005_Node000007"><a xlink:title=" ">
<path fill="none" stroke="#63b8ff" d="M193.37,-162.87C203.09,-153.38 213.65,-143.06 222.81,-134.12"/>
<polygon fill="none" stroke="#63b8ff" points="190.84,-160.45 186.13,-169.94 195.73,-165.46 190.84,-160.45"/>
</a>
</g>
</g>
<!-- Node8 -->
<g id="Node000008" class="node">
<title>Node8</title>
<g id="a_Node000008"><a xlink:href="classXML_1_1bpmn_1_1potentialOwner.html" target="_top" xlink:title=" ">
<polygon fill="white" stroke="transparent" points="320,-49 174,-49 174,0 320,0 320,-49"/>
<text text-anchor="start" x="179" y="-36.5" font-family="Helvetica,sans-Serif" font-size="10.00">XML::bpmn::potentialOwner</text>
<text text-anchor="start" x="188.5" y="-21.5" font-family="Helvetica,sans-Serif" font-size="10.00">+</text>
<text text-anchor="start" x="212" y="-21.5" font-family="Helvetica,sans-Serif" font-size="10.00">defaults</text>
<text text-anchor="start" x="188.5" y="-6.5" font-family="Helvetica,sans-Serif" font-size="10.00">#</text>
<text text-anchor="start" x="212" y="-6.5" font-family="Helvetica,sans-Serif" font-size="10.00">potentialOwner()</text>
<polygon fill="#666666" stroke="#666666" points="174,-31.5 174,-31.5 320,-31.5 320,-31.5 174,-31.5"/>
<polygon fill="#666666" stroke="#666666" points="174,-16.5 174,-16.5 210,-16.5 210,-16.5 174,-16.5"/>
<polygon fill="#666666" stroke="#666666" points="210,-16.5 210,-16.5 320,-16.5 320,-16.5 210,-16.5"/>
<polygon fill="none" stroke="#666666" points="174,0 174,-49 320,-49 320,0 174,0"/>
</a>
</g>
</g>
<!-- Node7&#45;&gt;Node8 -->
<g id="edge7_Node000007_Node000008" class="edge">
<title>Node7&#45;&gt;Node8</title>
<g id="a_edge7_Node000007_Node000008"><a xlink:title=" ">
<path fill="none" stroke="#63b8ff" d="M247,-74.77C247,-66.17 247,-57.1 247,-49.12"/>
<polygon fill="none" stroke="#63b8ff" points="243.5,-74.94 247,-84.94 250.5,-74.94 243.5,-74.94"/>
</a>
</g>
</g>
</g>
</svg>
