<?xml version="1.0" encoding="UTF-8" standalone="no"?>
<!DOCTYPE svg PUBLIC "-//W3C//DTD SVG 1.1//EN"
 "http://www.w3.org/Graphics/SVG/1.1/DTD/svg11.dtd">
<!-- Generated by graphviz version 2.43.0 (0)
 -->
<!-- Title: BPMN::Scope Pages: 1 -->
<svg width="532pt" height="634pt"
 viewBox="0.00 0.00 532.00 634.00" xmlns="http://www.w3.org/2000/svg" xmlns:xlink="http://www.w3.org/1999/xlink">
<g id="graph0" class="graph" transform="scale(1 1) rotate(0) translate(4 630)">
<title>BPMN::Scope</title>
<!-- Node1 -->
<g id="node1" class="node">
<title>Node1</title>
<g id="a_node1"><a xlink:title="Base class for BPMN elements that may contain a ChildNode elements.">
<polygon fill="#bfbfbf" stroke="black" points="199.5,-199.5 199.5,-344.5 379.5,-344.5 379.5,-199.5 199.5,-199.5"/>
<text text-anchor="middle" x="289.5" y="-332.5" font-family="Helvetica,sans-Serif" font-size="10.00">BPMN::Scope</text>
<polyline fill="none" stroke="black" points="199.5,-325.5 379.5,-325.5 "/>
<text text-anchor="start" x="207.5" y="-313.5" font-family="Helvetica,sans-Serif" font-size="10.00">+ childNodes</text>
<text text-anchor="start" x="207.5" y="-302.5" font-family="Helvetica,sans-Serif" font-size="10.00">+ flowNodes</text>
<text text-anchor="start" x="207.5" y="-291.5" font-family="Helvetica,sans-Serif" font-size="10.00">+ eventSubProcesses</text>
<text text-anchor="start" x="207.5" y="-280.5" font-family="Helvetica,sans-Serif" font-size="10.00">+ startNodes</text>
<text text-anchor="start" x="207.5" y="-269.5" font-family="Helvetica,sans-Serif" font-size="10.00">+ sequenceFlows</text>
<text text-anchor="start" x="207.5" y="-258.5" font-family="Helvetica,sans-Serif" font-size="10.00">+ compensationActivities</text>
<text text-anchor="start" x="207.5" y="-247.5" font-family="Helvetica,sans-Serif" font-size="10.00">+ compensationEventSubProcess</text>
<polyline fill="none" stroke="black" points="199.5,-240.5 379.5,-240.5 "/>
<text text-anchor="start" x="207.5" y="-228.5" font-family="Helvetica,sans-Serif" font-size="10.00">+ Scope()</text>
<text text-anchor="start" x="207.5" y="-217.5" font-family="Helvetica,sans-Serif" font-size="10.00"># add()</text>
<text text-anchor="start" x="207.5" y="-206.5" font-family="Helvetica,sans-Serif" font-size="10.00"># add()</text>
</a>
</g>
</g>
<!-- Node3 -->
<g id="node3" class="node">
<title>Node3</title>
<g id="a_node3"><a xlink:href="classBPMN_1_1AdHocSubProcess.html" target="_top" xlink:title=" ">
<polygon fill="none" stroke="black" points="0,-94.5 0,-162.5 139,-162.5 139,-94.5 0,-94.5"/>
<text text-anchor="middle" x="69.5" y="-150.5" font-family="Helvetica,sans-Serif" font-size="10.00">BPMN::AdHocSubProcess</text>
<polyline fill="none" stroke="black" points="0,-143.5 139,-143.5 "/>
<text text-anchor="start" x="8" y="-131.5" font-family="Helvetica,sans-Serif" font-size="10.00">+ isSequential</text>
<text text-anchor="start" x="8" y="-120.5" font-family="Helvetica,sans-Serif" font-size="10.00">+ element</text>
<polyline fill="none" stroke="black" points="0,-113.5 139,-113.5 "/>
<text text-anchor="start" x="8" y="-101.5" font-family="Helvetica,sans-Serif" font-size="10.00">+ AdHocSubProcess()</text>
</a>
</g>
</g>
<!-- Node1&#45;&gt;Node3 -->
<g id="edge2" class="edge">
<title>Node1&#45;&gt;Node3</title>
<path fill="none" stroke="midnightblue" d="M190.89,-207.58C166.77,-192.06 141.9,-176.07 121.01,-162.63"/>
<polygon fill="none" stroke="midnightblue" points="189.08,-210.57 199.38,-213.04 192.87,-204.69 189.08,-210.57"/>
</g>
<!-- Node4 -->
<g id="node4" class="node">
<title>Node4</title>
<g id="a_node4"><a xlink:href="classBPMN_1_1EventSubProcess.html" target="_top" xlink:title=" ">
<polygon fill="none" stroke="black" points="157,-94.5 157,-162.5 292,-162.5 292,-94.5 157,-94.5"/>
<text text-anchor="middle" x="224.5" y="-150.5" font-family="Helvetica,sans-Serif" font-size="10.00">BPMN::EventSubProcess</text>
<polyline fill="none" stroke="black" points="157,-143.5 292,-143.5 "/>
<text text-anchor="start" x="165" y="-131.5" font-family="Helvetica,sans-Serif" font-size="10.00">+ startEvent</text>
<text text-anchor="start" x="165" y="-120.5" font-family="Helvetica,sans-Serif" font-size="10.00">+ element</text>
<polyline fill="none" stroke="black" points="157,-113.5 292,-113.5 "/>
<text text-anchor="start" x="165" y="-101.5" font-family="Helvetica,sans-Serif" font-size="10.00">+ EventSubProcess()</text>
</a>
</g>
</g>
<!-- Node1&#45;&gt;Node4 -->
<g id="edge3" class="edge">
<title>Node1&#45;&gt;Node4</title>
<path fill="none" stroke="midnightblue" d="M252.33,-190.09C247.89,-180.41 243.56,-170.99 239.7,-162.58"/>
<polygon fill="none" stroke="midnightblue" points="249.26,-191.79 256.62,-199.42 255.63,-188.87 249.26,-191.79"/>
</g>
<!-- Node5 -->
<g id="node5" class="node">
<title>Node5</title>
<g id="a_node5"><a xlink:href="classBPMN_1_1Process.html" target="_top" xlink:title=" ">
<polygon fill="none" stroke="black" points="310,-94.5 310,-162.5 399,-162.5 399,-94.5 310,-94.5"/>
<text text-anchor="middle" x="354.5" y="-150.5" font-family="Helvetica,sans-Serif" font-size="10.00">BPMN::Process</text>
<polyline fill="none" stroke="black" points="310,-143.5 399,-143.5 "/>
<text text-anchor="start" x="318" y="-131.5" font-family="Helvetica,sans-Serif" font-size="10.00">+ isExecutable</text>
<text text-anchor="start" x="318" y="-120.5" font-family="Helvetica,sans-Serif" font-size="10.00">+ element</text>
<polyline fill="none" stroke="black" points="310,-113.5 399,-113.5 "/>
<text text-anchor="start" x="318" y="-101.5" font-family="Helvetica,sans-Serif" font-size="10.00">+ Process()</text>
</a>
</g>
</g>
<!-- Node1&#45;&gt;Node5 -->
<g id="edge4" class="edge">
<title>Node1&#45;&gt;Node5</title>
<path fill="none" stroke="midnightblue" d="M326.67,-190.09C331.11,-180.41 335.44,-170.99 339.3,-162.58"/>
<polygon fill="none" stroke="midnightblue" points="323.37,-188.87 322.38,-199.42 329.74,-191.79 323.37,-188.87"/>
</g>
<!-- Node6 -->
<g id="node6" class="node">
<title>Node6</title>
<g id="a_node6"><a xlink:href="classBPMN_1_1SubProcess.html" target="_top" xlink:title=" ">
<polygon fill="none" stroke="black" points="417,-94.5 417,-162.5 524,-162.5 524,-94.5 417,-94.5"/>
<text text-anchor="middle" x="470.5" y="-150.5" font-family="Helvetica,sans-Serif" font-size="10.00">BPMN::SubProcess</text>
<polyline fill="none" stroke="black" points="417,-143.5 524,-143.5 "/>
<text text-anchor="start" x="425" y="-131.5" font-family="Helvetica,sans-Serif" font-size="10.00">+ startEvent</text>
<text text-anchor="start" x="425" y="-120.5" font-family="Helvetica,sans-Serif" font-size="10.00">+ element</text>
<polyline fill="none" stroke="black" points="417,-113.5 524,-113.5 "/>
<text text-anchor="start" x="425" y="-101.5" font-family="Helvetica,sans-Serif" font-size="10.00">+ SubProcess()</text>
</a>
</g>
</g>
<!-- Node1&#45;&gt;Node6 -->
<g id="edge5" class="edge">
<title>Node1&#45;&gt;Node6</title>
<path fill="none" stroke="midnightblue" d="M387.61,-194.3C401.76,-183.24 415.67,-172.37 427.92,-162.79"/>
<polygon fill="none" stroke="midnightblue" points="385.46,-191.54 379.73,-200.46 389.77,-197.06 385.46,-191.54"/>
</g>
<!-- Node2 -->
<g id="node2" class="node">
<title>Node2</title>
<g id="a_node2"><a xlink:href="classBPMN_1_1Node.html" target="_top" xlink:title="Base class for all elements in a BPMN model.">
<polygon fill="none" stroke="black" points="228.5,-381.5 228.5,-625.5 350.5,-625.5 350.5,-381.5 228.5,-381.5"/>
<text text-anchor="middle" x="289.5" y="-613.5" font-family="Helvetica,sans-Serif" font-size="10.00">BPMN::Node</text>
<polyline fill="none" stroke="black" points="228.5,-606.5 350.5,-606.5 "/>
<text text-anchor="start" x="236.5" y="-594.5" font-family="Helvetica,sans-Serif" font-size="10.00">+ id</text>
<text text-anchor="start" x="236.5" y="-583.5" font-family="Helvetica,sans-Serif" font-size="10.00">+ receiving</text>
<text text-anchor="start" x="236.5" y="-572.5" font-family="Helvetica,sans-Serif" font-size="10.00">+ sending</text>
<text text-anchor="start" x="236.5" y="-561.5" font-family="Helvetica,sans-Serif" font-size="10.00">+ element</text>
<text text-anchor="start" x="236.5" y="-550.5" font-family="Helvetica,sans-Serif" font-size="10.00">+ extensionElements</text>
<polyline fill="none" stroke="black" points="228.5,-543.5 350.5,-543.5 "/>
<text text-anchor="start" x="236.5" y="-531.5" font-family="Helvetica,sans-Serif" font-size="10.00">+ Node()</text>
<text text-anchor="start" x="236.5" y="-520.5" font-family="Helvetica,sans-Serif" font-size="10.00">+ ~Node()</text>
<text text-anchor="start" x="236.5" y="-509.5" font-family="Helvetica,sans-Serif" font-size="10.00">+ is()</text>
<text text-anchor="start" x="236.5" y="-498.5" font-family="Helvetica,sans-Serif" font-size="10.00">+ is()</text>
<text text-anchor="start" x="236.5" y="-487.5" font-family="Helvetica,sans-Serif" font-size="10.00">+ get()</text>
<text text-anchor="start" x="236.5" y="-476.5" font-family="Helvetica,sans-Serif" font-size="10.00">+ get()</text>
<text text-anchor="start" x="236.5" y="-465.5" font-family="Helvetica,sans-Serif" font-size="10.00">+ represents()</text>
<text text-anchor="start" x="236.5" y="-454.5" font-family="Helvetica,sans-Serif" font-size="10.00">+ represents()</text>
<text text-anchor="start" x="236.5" y="-443.5" font-family="Helvetica,sans-Serif" font-size="10.00">+ as()</text>
<text text-anchor="start" x="236.5" y="-432.5" font-family="Helvetica,sans-Serif" font-size="10.00">+ as()</text>
<text text-anchor="start" x="236.5" y="-421.5" font-family="Helvetica,sans-Serif" font-size="10.00">+ find()</text>
<text text-anchor="start" x="236.5" y="-410.5" font-family="Helvetica,sans-Serif" font-size="10.00">+ find()</text>
<text text-anchor="start" x="236.5" y="-399.5" font-family="Helvetica,sans-Serif" font-size="10.00">+ find_all()</text>
<text text-anchor="start" x="236.5" y="-388.5" font-family="Helvetica,sans-Serif" font-size="10.00">+ find_all()</text>
</a>
</g>
</g>
<!-- Node2&#45;&gt;Node1 -->
<g id="edge1" class="edge">
<title>Node2&#45;&gt;Node1</title>
<path fill="none" stroke="midnightblue" d="M289.5,-371.15C289.5,-362.14 289.5,-353.27 289.5,-344.77"/>
<polygon fill="none" stroke="midnightblue" points="286,-371.37 289.5,-381.37 293,-371.37 286,-371.37"/>
</g>
<!-- Node7 -->
<g id="node7" class="node">
<title>Node7</title>
<g id="a_node7"><a xlink:href="classBPMN_1_1Transaction.html" target="_top" xlink:title=" ">
<polygon fill="none" stroke="black" points="417,-0.5 417,-57.5 524,-57.5 524,-0.5 417,-0.5"/>
<text text-anchor="middle" x="470.5" y="-45.5" font-family="Helvetica,sans-Serif" font-size="10.00">BPMN::Transaction</text>
<polyline fill="none" stroke="black" points="417,-38.5 524,-38.5 "/>
<text text-anchor="start" x="425" y="-26.5" font-family="Helvetica,sans-Serif" font-size="10.00">+ element</text>
<polyline fill="none" stroke="black" points="417,-19.5 524,-19.5 "/>
<text text-anchor="start" x="425" y="-7.5" font-family="Helvetica,sans-Serif" font-size="10.00">+ Transaction()</text>
</a>
</g>
</g>
<!-- Node6&#45;&gt;Node7 -->
<g id="edge6" class="edge">
<title>Node6&#45;&gt;Node7</title>
<path fill="none" stroke="midnightblue" d="M470.5,-84.45C470.5,-75.4 470.5,-66.09 470.5,-57.78"/>
<polygon fill="none" stroke="midnightblue" points="467,-84.49 470.5,-94.49 474,-84.49 467,-84.49"/>
</g>
</g>
</svg>
