<?xml version="1.0" encoding="UTF-8" standalone="no"?>
<!DOCTYPE svg PUBLIC "-//W3C//DTD SVG 1.1//EN"
 "http://www.w3.org/Graphics/SVG/1.1/DTD/svg11.dtd">
<!-- Generated by graphviz version 2.43.0 (0)
 -->
<!-- Title: BPMN::ParallelGateway Pages: 1 -->
<svg width="133pt" height="867pt"
 viewBox="0.00 0.00 133.00 867.00" xmlns="http://www.w3.org/2000/svg" xmlns:xlink="http://www.w3.org/1999/xlink">
<g id="graph0" class="graph" transform="scale(1 1) rotate(0) translate(4 863)">
<title>BPMN::ParallelGateway</title>
<!-- Node1 -->
<g id="Node000001" class="node">
<title>Node1</title>
<g id="a_Node000001"><a xlink:title=" ">
<polygon fill="#999999" stroke="transparent" points="125,-49 0,-49 0,0 125,0 125,-49"/>
<text text-anchor="start" x="5.5" y="-36.5" font-family="Helvetica,sans-Serif" font-size="10.00">BPMN::ParallelGateway</text>
<text text-anchor="start" x="8.5" y="-21.5" font-family="Helvetica,sans-Serif" font-size="10.00">+</text>
<text text-anchor="start" x="25.5" y="-21.5" font-family="Helvetica,sans-Serif" font-size="10.00">element</text>
<text text-anchor="start" x="8.5" y="-6.5" font-family="Helvetica,sans-Serif" font-size="10.00">+</text>
<text text-anchor="start" x="25.5" y="-6.5" font-family="Helvetica,sans-Serif" font-size="10.00">ParallelGateway()</text>
<polygon fill="#666666" stroke="#666666" points="0.5,-31.5 0.5,-31.5 125.5,-31.5 125.5,-31.5 0.5,-31.5"/>
<polygon fill="#666666" stroke="#666666" points="0.5,-16.5 0.5,-16.5 23.5,-16.5 23.5,-16.5 0.5,-16.5"/>
<polygon fill="#666666" stroke="#666666" points="23.5,-16.5 23.5,-16.5 125.5,-16.5 125.5,-16.5 23.5,-16.5"/>
<polygon fill="none" stroke="#666666" points="0,0 0,-49 125,-49 125,0 0,0"/>
</a>
</g>
</g>
<!-- Node2 -->
<g id="Node000002" class="node">
<title>Node2</title>
<g id="a_Node000002"><a xlink:href="classBPMN_1_1Gateway.html" target="_top" xlink:title=" ">
<polygon fill="white" stroke="transparent" points="107,-134 18,-134 18,-85 107,-85 107,-134"/>
<text text-anchor="start" x="23.5" y="-121.5" font-family="Helvetica,sans-Serif" font-size="10.00">BPMN::Gateway</text>
<text text-anchor="start" x="26.5" y="-106.5" font-family="Helvetica,sans-Serif" font-size="10.00">+</text>
<text text-anchor="start" x="43.5" y="-106.5" font-family="Helvetica,sans-Serif" font-size="10.00">element</text>
<text text-anchor="start" x="26.5" y="-91.5" font-family="Helvetica,sans-Serif" font-size="10.00">+</text>
<text text-anchor="start" x="43.5" y="-91.5" font-family="Helvetica,sans-Serif" font-size="10.00">Gateway()</text>
<polygon fill="#666666" stroke="#666666" points="18.5,-116.5 18.5,-116.5 107.5,-116.5 107.5,-116.5 18.5,-116.5"/>
<polygon fill="#666666" stroke="#666666" points="18.5,-101.5 18.5,-101.5 41.5,-101.5 41.5,-101.5 18.5,-101.5"/>
<polygon fill="#666666" stroke="#666666" points="41.5,-101.5 41.5,-101.5 107.5,-101.5 107.5,-101.5 41.5,-101.5"/>
<polygon fill="none" stroke="#666666" points="18,-85 18,-134 107,-134 107,-85 18,-85"/>
</a>
</g>
</g>
<!-- Node2&#45;&gt;Node1 -->
<g id="edge1_Node000001_Node000002" class="edge">
<title>Node2&#45;&gt;Node1</title>
<g id="a_edge1_Node000001_Node000002"><a xlink:title=" ">
<path fill="none" stroke="#63b8ff" d="M62.5,-74.77C62.5,-66.17 62.5,-57.1 62.5,-49.12"/>
<polygon fill="none" stroke="#63b8ff" points="59,-74.94 62.5,-84.94 66,-74.94 59,-74.94"/>
</a>
</g>
</g>
<!-- Node3 -->
<g id="Node000003" class="node">
<title>Node3</title>
<g id="a_Node000003"><a xlink:href="classBPMN_1_1FlowNode.html" target="_top" xlink:title="Base class for BPMN elements that may contain incoming and outgoing sequence flows.">
<polygon fill="white" stroke="transparent" points="110,-264 15,-264 15,-170 110,-170 110,-264"/>
<text text-anchor="start" x="20.5" y="-252" font-family="Helvetica,sans-Serif" font-size="10.00">BPMN::FlowNode</text>
<text text-anchor="start" x="23.5" y="-237" font-family="Helvetica,sans-Serif" font-size="10.00">+</text>
<text text-anchor="start" x="40.5" y="-237" font-family="Helvetica,sans-Serif" font-size="10.00">element</text>
<text text-anchor="start" x="23.5" y="-222" font-family="Helvetica,sans-Serif" font-size="10.00">+</text>
<text text-anchor="start" x="40.5" y="-222" font-family="Helvetica,sans-Serif" font-size="10.00">name</text>
<text text-anchor="start" x="23.5" y="-207" font-family="Helvetica,sans-Serif" font-size="10.00">+</text>
<text text-anchor="start" x="40.5" y="-207" font-family="Helvetica,sans-Serif" font-size="10.00">incoming</text>
<text text-anchor="start" x="23.5" y="-192" font-family="Helvetica,sans-Serif" font-size="10.00">+</text>
<text text-anchor="start" x="40.5" y="-192" font-family="Helvetica,sans-Serif" font-size="10.00">outgoing</text>
<text text-anchor="start" x="23.5" y="-177" font-family="Helvetica,sans-Serif" font-size="10.00">+</text>
<text text-anchor="start" x="40.5" y="-177" font-family="Helvetica,sans-Serif" font-size="10.00">FlowNode()</text>
<polygon fill="#666666" stroke="#666666" points="15.5,-247 15.5,-247 110.5,-247 110.5,-247 15.5,-247"/>
<polygon fill="#666666" stroke="#666666" points="15.5,-187 15.5,-187 38.5,-187 38.5,-187 15.5,-187"/>
<polygon fill="#666666" stroke="#666666" points="38.5,-187 38.5,-187 110.5,-187 110.5,-187 38.5,-187"/>
<polygon fill="none" stroke="#666666" points="15,-170 15,-264 110,-264 110,-170 15,-170"/>
</a>
</g>
</g>
<!-- Node3&#45;&gt;Node2 -->
<g id="edge2_Node000002_Node000003" class="edge">
<title>Node3&#45;&gt;Node2</title>
<g id="a_edge2_Node000002_Node000003"><a xlink:title=" ">
<path fill="none" stroke="#63b8ff" d="M62.5,-159.59C62.5,-150.62 62.5,-141.79 62.5,-134.15"/>
<polygon fill="none" stroke="#63b8ff" points="59,-159.73 62.5,-169.73 66,-159.73 59,-159.73"/>
</a>
</g>
</g>
<!-- Node4 -->
<g id="Node000004" class="node">
<title>Node4</title>
<g id="a_Node000004"><a xlink:href="classBPMN_1_1ChildNode.html" target="_top" xlink:title="Base class for BPMN elements within a Scope.">
<polygon fill="white" stroke="transparent" points="110.5,-379 14.5,-379 14.5,-300 110.5,-300 110.5,-379"/>
<text text-anchor="start" x="19.5" y="-366.5" font-family="Helvetica,sans-Serif" font-size="10.00">BPMN::ChildNode</text>
<text text-anchor="start" x="22.5" y="-351.5" font-family="Helvetica,sans-Serif" font-size="10.00">+</text>
<text text-anchor="start" x="39.5" y="-351.5" font-family="Helvetica,sans-Serif" font-size="10.00">parent</text>
<text text-anchor="start" x="22.5" y="-336.5" font-family="Helvetica,sans-Serif" font-size="10.00">+</text>
<text text-anchor="start" x="39.5" y="-336.5" font-family="Helvetica,sans-Serif" font-size="10.00">ChildNode()</text>
<text text-anchor="start" x="22.5" y="-321.5" font-family="Helvetica,sans-Serif" font-size="10.00">+</text>
<text text-anchor="start" x="39.5" y="-321.5" font-family="Helvetica,sans-Serif" font-size="10.00">ancestor()</text>
<text text-anchor="start" x="22.5" y="-306.5" font-family="Helvetica,sans-Serif" font-size="10.00">+</text>
<text text-anchor="start" x="39.5" y="-306.5" font-family="Helvetica,sans-Serif" font-size="10.00">ancestor()</text>
<polygon fill="#666666" stroke="#666666" points="14.5,-361.5 14.5,-361.5 110.5,-361.5 110.5,-361.5 14.5,-361.5"/>
<polygon fill="#666666" stroke="#666666" points="14.5,-346.5 14.5,-346.5 37.5,-346.5 37.5,-346.5 14.5,-346.5"/>
<polygon fill="#666666" stroke="#666666" points="37.5,-346.5 37.5,-346.5 110.5,-346.5 110.5,-346.5 37.5,-346.5"/>
<polygon fill="none" stroke="#666666" points="14.5,-300 14.5,-379 110.5,-379 110.5,-300 14.5,-300"/>
</a>
</g>
</g>
<!-- Node4&#45;&gt;Node3 -->
<g id="edge3_Node000003_Node000004" class="edge">
<title>Node4&#45;&gt;Node3</title>
<g id="a_edge3_Node000003_Node000004"><a xlink:title=" ">
<path fill="none" stroke="#63b8ff" d="M62.5,-289.68C62.5,-281.3 62.5,-272.61 62.5,-264.29"/>
<polygon fill="none" stroke="#63b8ff" points="59,-289.71 62.5,-299.71 66,-289.71 59,-289.71"/>
</a>
</g>
</g>
<!-- Node5 -->
<g id="Node000005" class="node">
<title>Node5</title>
<g id="a_Node000005"><a xlink:href="classBPMN_1_1Node.html" target="_top" xlink:title="Base class for all nodes in a BPMN model.">
<polygon fill="white" stroke="transparent" points="98,-539 27,-539 27,-415 98,-415 98,-539"/>
<text text-anchor="start" x="32.5" y="-527" font-family="Helvetica,sans-Serif" font-size="10.00">BPMN::Node</text>
<text text-anchor="start" x="32.5" y="-512" font-family="Helvetica,sans-Serif" font-size="10.00">+</text>
<text text-anchor="start" x="46.5" y="-512" font-family="Helvetica,sans-Serif" font-size="10.00">receiving</text>
<text text-anchor="start" x="32.5" y="-497" font-family="Helvetica,sans-Serif" font-size="10.00">+</text>
<text text-anchor="start" x="46.5" y="-497" font-family="Helvetica,sans-Serif" font-size="10.00">sending</text>
<text text-anchor="start" x="32.5" y="-482" font-family="Helvetica,sans-Serif" font-size="10.00">+</text>
<text text-anchor="start" x="46.5" y="-482" font-family="Helvetica,sans-Serif" font-size="10.00">Node()</text>
<text text-anchor="start" x="32.5" y="-467" font-family="Helvetica,sans-Serif" font-size="10.00">+</text>
<text text-anchor="start" x="46.5" y="-467" font-family="Helvetica,sans-Serif" font-size="10.00">find()</text>
<text text-anchor="start" x="32.5" y="-452" font-family="Helvetica,sans-Serif" font-size="10.00">+</text>
<text text-anchor="start" x="46.5" y="-452" font-family="Helvetica,sans-Serif" font-size="10.00">find()</text>
<text text-anchor="start" x="32.5" y="-437" font-family="Helvetica,sans-Serif" font-size="10.00">+</text>
<text text-anchor="start" x="46.5" y="-437" font-family="Helvetica,sans-Serif" font-size="10.00">find_all()</text>
<text text-anchor="start" x="32.5" y="-422" font-family="Helvetica,sans-Serif" font-size="10.00">+</text>
<text text-anchor="start" x="46.5" y="-422" font-family="Helvetica,sans-Serif" font-size="10.00">find_all()</text>
<polygon fill="#666666" stroke="#666666" points="27.5,-522 27.5,-522 98.5,-522 98.5,-522 27.5,-522"/>
<polygon fill="#666666" stroke="#666666" points="27.5,-492 27.5,-492 44.5,-492 44.5,-492 27.5,-492"/>
<polygon fill="#666666" stroke="#666666" points="44.5,-492 44.5,-492 98.5,-492 98.5,-492 44.5,-492"/>
<polygon fill="none" stroke="#666666" points="27,-415 27,-539 98,-539 98,-415 27,-415"/>
</a>
</g>
</g>
<!-- Node5&#45;&gt;Node4 -->
<g id="edge4_Node000004_Node000005" class="edge">
<title>Node5&#45;&gt;Node4</title>
<g id="a_edge4_Node000004_Node000005"><a xlink:title=" ">
<path fill="none" stroke="#63b8ff" d="M62.5,-404.93C62.5,-396.02 62.5,-387.19 62.5,-379.05"/>
<polygon fill="none" stroke="#63b8ff" points="59,-404.99 62.5,-414.99 66,-404.99 59,-404.99"/>
</a>
</g>
</g>
<!-- Node6 -->
<g id="Node000006" class="node">
<title>Node6</title>
<g id="a_Node000006"><a xlink:href="classBPMN_1_1BaseElement.html" target="_top" xlink:title="Base class for all core BPMN elements.">
<polygon fill="white" stroke="transparent" points="120,-714 5,-714 5,-575 120,-575 120,-714"/>
<text text-anchor="start" x="13" y="-701.5" font-family="Helvetica,sans-Serif" font-size="10.00">BPMN::BaseElement</text>
<text text-anchor="start" x="9.5" y="-686.5" font-family="Helvetica,sans-Serif" font-size="10.00">+</text>
<text text-anchor="start" x="22.5" y="-686.5" font-family="Helvetica,sans-Serif" font-size="10.00">element</text>
<text text-anchor="start" x="9.5" y="-671.5" font-family="Helvetica,sans-Serif" font-size="10.00">+</text>
<text text-anchor="start" x="22.5" y="-671.5" font-family="Helvetica,sans-Serif" font-size="10.00">id</text>
<text text-anchor="start" x="9.5" y="-656.5" font-family="Helvetica,sans-Serif" font-size="10.00">+</text>
<text text-anchor="start" x="22.5" y="-656.5" font-family="Helvetica,sans-Serif" font-size="10.00">extensionElements</text>
<text text-anchor="start" x="9.5" y="-641.5" font-family="Helvetica,sans-Serif" font-size="10.00">+</text>
<text text-anchor="start" x="22.5" y="-641.5" font-family="Helvetica,sans-Serif" font-size="10.00">BaseElement()</text>
<text text-anchor="start" x="9.5" y="-626.5" font-family="Helvetica,sans-Serif" font-size="10.00">+</text>
<text text-anchor="start" x="22.5" y="-626.5" font-family="Helvetica,sans-Serif" font-size="10.00">is()</text>
<text text-anchor="start" x="9.5" y="-611.5" font-family="Helvetica,sans-Serif" font-size="10.00">+</text>
<text text-anchor="start" x="22.5" y="-611.5" font-family="Helvetica,sans-Serif" font-size="10.00">is()</text>
<text text-anchor="start" x="9.5" y="-596.5" font-family="Helvetica,sans-Serif" font-size="10.00">+</text>
<text text-anchor="start" x="22.5" y="-596.5" font-family="Helvetica,sans-Serif" font-size="10.00">get()</text>
<text text-anchor="start" x="9.5" y="-581.5" font-family="Helvetica,sans-Serif" font-size="10.00">+</text>
<text text-anchor="start" x="22.5" y="-581.5" font-family="Helvetica,sans-Serif" font-size="10.00">get()</text>
<polygon fill="#666666" stroke="#666666" points="5.5,-696.5 5.5,-696.5 120.5,-696.5 120.5,-696.5 5.5,-696.5"/>
<polygon fill="#666666" stroke="#666666" points="5.5,-651.5 5.5,-651.5 20.5,-651.5 20.5,-651.5 5.5,-651.5"/>
<polygon fill="#666666" stroke="#666666" points="20.5,-651.5 20.5,-651.5 120.5,-651.5 120.5,-651.5 20.5,-651.5"/>
<polygon fill="none" stroke="#666666" points="5,-575 5,-714 120,-714 120,-575 5,-575"/>
</a>
</g>
</g>
<!-- Node6&#45;&gt;Node5 -->
<g id="edge5_Node000005_Node000006" class="edge">
<title>Node6&#45;&gt;Node5</title>
<g id="a_edge5_Node000005_Node000006"><a xlink:title=" ">
<path fill="none" stroke="#63b8ff" d="M62.5,-564.71C62.5,-556.12 62.5,-547.47 62.5,-539.14"/>
<polygon fill="none" stroke="#63b8ff" points="59,-564.75 62.5,-574.75 66,-564.75 59,-564.75"/>
</a>
</g>
</g>
<!-- Node7 -->
<g id="Node000007" class="node">
<title>Node7</title>
<g id="a_Node000007"><a xlink:href="classBPMN_1_1Element.html" target="_top" xlink:title="Abstract base class for all elements in a BPMN model.">
<polygon fill="white" stroke="transparent" points="105.5,-859 19.5,-859 19.5,-750 105.5,-750 105.5,-859"/>
<text text-anchor="start" x="24.5" y="-846.5" font-family="Helvetica,sans-Serif" font-size="10.00">BPMN::Element</text>
<text text-anchor="start" x="60.5" y="-831.5" font-family="Helvetica,sans-Serif" font-size="10.00"> </text>
<text text-anchor="start" x="24.5" y="-816.5" font-family="Helvetica,sans-Serif" font-size="10.00">+</text>
<text text-anchor="start" x="38.5" y="-816.5" font-family="Helvetica,sans-Serif" font-size="10.00">~Element()</text>
<text text-anchor="start" x="24.5" y="-801.5" font-family="Helvetica,sans-Serif" font-size="10.00">+</text>
<text text-anchor="start" x="38.5" y="-801.5" font-family="Helvetica,sans-Serif" font-size="10.00">represents()</text>
<text text-anchor="start" x="24.5" y="-786.5" font-family="Helvetica,sans-Serif" font-size="10.00">+</text>
<text text-anchor="start" x="38.5" y="-786.5" font-family="Helvetica,sans-Serif" font-size="10.00">represents()</text>
<text text-anchor="start" x="24.5" y="-771.5" font-family="Helvetica,sans-Serif" font-size="10.00">+</text>
<text text-anchor="start" x="38.5" y="-771.5" font-family="Helvetica,sans-Serif" font-size="10.00">as()</text>
<text text-anchor="start" x="24.5" y="-756.5" font-family="Helvetica,sans-Serif" font-size="10.00">+</text>
<text text-anchor="start" x="38.5" y="-756.5" font-family="Helvetica,sans-Serif" font-size="10.00">as()</text>
<polygon fill="#666666" stroke="#666666" points="19.5,-841.5 19.5,-841.5 105.5,-841.5 105.5,-841.5 19.5,-841.5"/>
<polygon fill="#666666" stroke="#666666" points="19.5,-826.5 19.5,-826.5 105.5,-826.5 105.5,-826.5 19.5,-826.5"/>
<polygon fill="none" stroke="#666666" points="19.5,-750 19.5,-859 105.5,-859 105.5,-750 19.5,-750"/>
</a>
</g>
</g>
<!-- Node7&#45;&gt;Node6 -->
<g id="edge6_Node000006_Node000007" class="edge">
<title>Node7&#45;&gt;Node6</title>
<g id="a_edge6_Node000006_Node000007"><a xlink:title=" ">
<path fill="none" stroke="#63b8ff" d="M62.5,-739.55C62.5,-731.23 62.5,-722.67 62.5,-714.28"/>
<polygon fill="none" stroke="#63b8ff" points="59,-739.57 62.5,-749.57 66,-739.57 59,-739.57"/>
</a>
</g>
</g>
</g>
</svg>
