<?xml version="1.0" encoding="UTF-8" standalone="no"?>
<!DOCTYPE svg PUBLIC "-//W3C//DTD SVG 1.1//EN"
 "http://www.w3.org/Graphics/SVG/1.1/DTD/svg11.dtd">
<!-- Generated by graphviz version 2.43.0 (0)
 -->
<!-- Title: XML::bpmn::flowNode Pages: 1 -->
<svg width="154pt" height="794pt"
 viewBox="0.00 0.00 154.00 794.00" xmlns="http://www.w3.org/2000/svg" xmlns:xlink="http://www.w3.org/1999/xlink">
<g id="graph0" class="graph" transform="scale(1 1) rotate(0) translate(4 790)">
<title>XML::bpmn::flowNode</title>
<!-- Node1 -->
<g id="node1" class="node">
<title>Node1</title>
<g id="a_node1"><a xlink:title=" ">
<polygon fill="#bfbfbf" stroke="black" points="11.5,-0.5 11.5,-57.5 134.5,-57.5 134.5,-0.5 11.5,-0.5"/>
<text text-anchor="middle" x="73" y="-45.5" font-family="Helvetica,sans-Serif" font-size="10.00">XML::bpmn::flowNode</text>
<polyline fill="none" stroke="black" points="11.5,-38.5 134.5,-38.5 "/>
<text text-anchor="start" x="19.5" y="-26.5" font-family="Helvetica,sans-Serif" font-size="10.00">+ defaults</text>
<polyline fill="none" stroke="black" points="11.5,-19.5 134.5,-19.5 "/>
<text text-anchor="start" x="19.5" y="-7.5" font-family="Helvetica,sans-Serif" font-size="10.00"># flowNode()</text>
</a>
</g>
</g>
<!-- Node2 -->
<g id="node2" class="node">
<title>Node2</title>
<g id="a_node2"><a xlink:href="classXML_1_1bpmn_1_1tFlowNode.html" target="_top" xlink:title=" ">
<polygon fill="none" stroke="black" points="8,-94.5 8,-173.5 138,-173.5 138,-94.5 8,-94.5"/>
<text text-anchor="middle" x="73" y="-161.5" font-family="Helvetica,sans-Serif" font-size="10.00">XML::bpmn::tFlowNode</text>
<polyline fill="none" stroke="black" points="8,-154.5 138,-154.5 "/>
<text text-anchor="start" x="16" y="-142.5" font-family="Helvetica,sans-Serif" font-size="10.00">+ incoming</text>
<text text-anchor="start" x="16" y="-131.5" font-family="Helvetica,sans-Serif" font-size="10.00">+ outgoing</text>
<text text-anchor="start" x="16" y="-120.5" font-family="Helvetica,sans-Serif" font-size="10.00">+ defaults</text>
<polyline fill="none" stroke="black" points="8,-113.5 138,-113.5 "/>
<text text-anchor="start" x="16" y="-101.5" font-family="Helvetica,sans-Serif" font-size="10.00"># tFlowNode()</text>
</a>
</g>
</g>
<!-- Node2&#45;&gt;Node1 -->
<g id="edge1" class="edge">
<title>Node2&#45;&gt;Node1</title>
<path fill="none" stroke="midnightblue" d="M73,-84.16C73,-75.04 73,-65.81 73,-57.61"/>
<polygon fill="none" stroke="midnightblue" points="69.5,-84.35 73,-94.35 76.5,-84.35 69.5,-84.35"/>
</g>
<!-- Node3 -->
<g id="node3" class="node">
<title>Node3</title>
<g id="a_node3"><a xlink:href="classXML_1_1bpmn_1_1tFlowElement.html" target="_top" xlink:title=" ">
<polygon fill="none" stroke="black" points="0.5,-210.5 0.5,-311.5 145.5,-311.5 145.5,-210.5 0.5,-210.5"/>
<text text-anchor="middle" x="73" y="-299.5" font-family="Helvetica,sans-Serif" font-size="10.00">XML::bpmn::tFlowElement</text>
<polyline fill="none" stroke="black" points="0.5,-292.5 145.5,-292.5 "/>
<text text-anchor="start" x="8.5" y="-280.5" font-family="Helvetica,sans-Serif" font-size="10.00">+ auditing</text>
<text text-anchor="start" x="8.5" y="-269.5" font-family="Helvetica,sans-Serif" font-size="10.00">+ monitoring</text>
<text text-anchor="start" x="8.5" y="-258.5" font-family="Helvetica,sans-Serif" font-size="10.00">+ categoryValueRef</text>
<text text-anchor="start" x="8.5" y="-247.5" font-family="Helvetica,sans-Serif" font-size="10.00">+ name</text>
<text text-anchor="start" x="8.5" y="-236.5" font-family="Helvetica,sans-Serif" font-size="10.00">+ defaults</text>
<polyline fill="none" stroke="black" points="0.5,-229.5 145.5,-229.5 "/>
<text text-anchor="start" x="8.5" y="-217.5" font-family="Helvetica,sans-Serif" font-size="10.00"># tFlowElement()</text>
</a>
</g>
</g>
<!-- Node3&#45;&gt;Node2 -->
<g id="edge2" class="edge">
<title>Node3&#45;&gt;Node2</title>
<path fill="none" stroke="midnightblue" d="M73,-200.19C73,-191.22 73,-182.18 73,-173.81"/>
<polygon fill="none" stroke="midnightblue" points="69.5,-200.24 73,-210.24 76.5,-200.24 69.5,-200.24"/>
</g>
<!-- Node4 -->
<g id="node4" class="node">
<title>Node4</title>
<g id="a_node4"><a xlink:href="classXML_1_1bpmn_1_1tBaseElement.html" target="_top" xlink:title=" ">
<polygon fill="none" stroke="black" points="0,-348.5 0,-438.5 146,-438.5 146,-348.5 0,-348.5"/>
<text text-anchor="middle" x="73" y="-426.5" font-family="Helvetica,sans-Serif" font-size="10.00">XML::bpmn::tBaseElement</text>
<polyline fill="none" stroke="black" points="0,-419.5 146,-419.5 "/>
<text text-anchor="start" x="8" y="-407.5" font-family="Helvetica,sans-Serif" font-size="10.00">+ documentation</text>
<text text-anchor="start" x="8" y="-396.5" font-family="Helvetica,sans-Serif" font-size="10.00">+ extensionElements</text>
<text text-anchor="start" x="8" y="-385.5" font-family="Helvetica,sans-Serif" font-size="10.00">+ id</text>
<text text-anchor="start" x="8" y="-374.5" font-family="Helvetica,sans-Serif" font-size="10.00">+ defaults</text>
<polyline fill="none" stroke="black" points="0,-367.5 146,-367.5 "/>
<text text-anchor="start" x="8" y="-355.5" font-family="Helvetica,sans-Serif" font-size="10.00"># tBaseElement()</text>
</a>
</g>
</g>
<!-- Node4&#45;&gt;Node3 -->
<g id="edge3" class="edge">
<title>Node4&#45;&gt;Node3</title>
<path fill="none" stroke="midnightblue" d="M73,-338.13C73,-329.31 73,-320.22 73,-311.52"/>
<polygon fill="none" stroke="midnightblue" points="69.5,-338.32 73,-348.32 76.5,-338.32 69.5,-338.32"/>
</g>
<!-- Node5 -->
<g id="node5" class="node">
<title>Node5</title>
<g id="a_node5"><a xlink:href="classXML_1_1XMLObject.html" target="_top" xlink:title="A class representing a node in an XML&#45;tree.">
<polygon fill="none" stroke="black" points="10,-475.5 10,-785.5 136,-785.5 136,-475.5 10,-475.5"/>
<text text-anchor="middle" x="73" y="-773.5" font-family="Helvetica,sans-Serif" font-size="10.00">XML::XMLObject</text>
<polyline fill="none" stroke="black" points="10,-766.5 136,-766.5 "/>
<text text-anchor="start" x="18" y="-754.5" font-family="Helvetica,sans-Serif" font-size="10.00">+ xmlns</text>
<text text-anchor="start" x="18" y="-743.5" font-family="Helvetica,sans-Serif" font-size="10.00">+ className</text>
<text text-anchor="start" x="18" y="-732.5" font-family="Helvetica,sans-Serif" font-size="10.00">+ prefix</text>
<text text-anchor="start" x="18" y="-721.5" font-family="Helvetica,sans-Serif" font-size="10.00">+ elementName</text>
<text text-anchor="start" x="18" y="-710.5" font-family="Helvetica,sans-Serif" font-size="10.00">+ textContent</text>
<text text-anchor="start" x="18" y="-699.5" font-family="Helvetica,sans-Serif" font-size="10.00">+ children</text>
<text text-anchor="start" x="18" y="-688.5" font-family="Helvetica,sans-Serif" font-size="10.00">+ attributes</text>
<text text-anchor="start" x="18" y="-677.5" font-family="Helvetica,sans-Serif" font-size="10.00">+ defaults</text>
<text text-anchor="start" x="18" y="-666.5" font-family="Helvetica,sans-Serif" font-size="10.00"># factory</text>
<polyline fill="none" stroke="black" points="10,-659.5 136,-659.5 "/>
<text text-anchor="start" x="18" y="-647.5" font-family="Helvetica,sans-Serif" font-size="10.00">+ ~XMLObject()</text>
<text text-anchor="start" x="18" y="-636.5" font-family="Helvetica,sans-Serif" font-size="10.00">+ is()</text>
<text text-anchor="start" x="18" y="-625.5" font-family="Helvetica,sans-Serif" font-size="10.00">+ is()</text>
<text text-anchor="start" x="18" y="-614.5" font-family="Helvetica,sans-Serif" font-size="10.00">+ get()</text>
<text text-anchor="start" x="18" y="-603.5" font-family="Helvetica,sans-Serif" font-size="10.00">+ get()</text>
<text text-anchor="start" x="18" y="-592.5" font-family="Helvetica,sans-Serif" font-size="10.00">+ find()</text>
<text text-anchor="start" x="18" y="-581.5" font-family="Helvetica,sans-Serif" font-size="10.00">+ find()</text>
<text text-anchor="start" x="18" y="-570.5" font-family="Helvetica,sans-Serif" font-size="10.00">+ stringify()</text>
<text text-anchor="start" x="18" y="-559.5" font-family="Helvetica,sans-Serif" font-size="10.00">+ format()</text>
<text text-anchor="start" x="18" y="-548.5" font-family="Helvetica,sans-Serif" font-size="10.00">+ getRequiredChild()</text>
<text text-anchor="start" x="18" y="-537.5" font-family="Helvetica,sans-Serif" font-size="10.00">and 7 more...</text>
<text text-anchor="start" x="18" y="-526.5" font-family="Helvetica,sans-Serif" font-size="10.00">+ createFromStream()</text>
<text text-anchor="start" x="18" y="-515.5" font-family="Helvetica,sans-Serif" font-size="10.00">+ createFromString()</text>
<text text-anchor="start" x="18" y="-504.5" font-family="Helvetica,sans-Serif" font-size="10.00">+ createFromFile()</text>
<text text-anchor="start" x="18" y="-493.5" font-family="Helvetica,sans-Serif" font-size="10.00"># XMLObject()</text>
<text text-anchor="start" x="18" y="-482.5" font-family="Helvetica,sans-Serif" font-size="10.00"># createObject()</text>
</a>
</g>
</g>
<!-- Node5&#45;&gt;Node4 -->
<g id="edge4" class="edge">
<title>Node5&#45;&gt;Node4</title>
<path fill="none" stroke="midnightblue" d="M73,-465.35C73,-455.89 73,-446.91 73,-438.72"/>
<polygon fill="none" stroke="midnightblue" points="69.5,-465.37 73,-475.37 76.5,-465.37 69.5,-465.37"/>
</g>
</g>
</svg>
