<?xml version="1.0" encoding="UTF-8" standalone="no"?>
<!DOCTYPE svg PUBLIC "-//W3C//DTD SVG 1.1//EN"
 "http://www.w3.org/Graphics/SVG/1.1/DTD/svg11.dtd">
<!-- Generated by graphviz version 2.43.0 (0)
 -->
<!-- Title: XML::bpmn::extensionElements Pages: 1 -->
<svg width="183pt" height="507pt"
 viewBox="0.00 0.00 183.00 507.00" xmlns="http://www.w3.org/2000/svg" xmlns:xlink="http://www.w3.org/1999/xlink">
<g id="graph0" class="graph" transform="scale(1 1) rotate(0) translate(4 503)">
<title>XML::bpmn::extensionElements</title>
<!-- Node1 -->
<g id="node1" class="node">
<title>Node1</title>
<g id="a_node1"><a xlink:title=" ">
<polygon fill="#bfbfbf" stroke="black" points="2,-0.5 2,-57.5 173,-57.5 173,-0.5 2,-0.5"/>
<text text-anchor="middle" x="87.5" y="-45.5" font-family="Helvetica,sans-Serif" font-size="10.00">XML::bpmn::extensionElements</text>
<polyline fill="none" stroke="black" points="2,-38.5 173,-38.5 "/>
<text text-anchor="start" x="10" y="-26.5" font-family="Helvetica,sans-Serif" font-size="10.00">+ defaults</text>
<polyline fill="none" stroke="black" points="2,-19.5 173,-19.5 "/>
<text text-anchor="start" x="10" y="-7.5" font-family="Helvetica,sans-Serif" font-size="10.00"># extensionElements()</text>
</a>
</g>
</g>
<!-- Node2 -->
<g id="node2" class="node">
<title>Node2</title>
<g id="a_node2"><a xlink:href="classXML_1_1bpmn_1_1tExtensionElements.html" target="_top" xlink:title=" ">
<polygon fill="none" stroke="black" points="0,-94.5 0,-151.5 175,-151.5 175,-94.5 0,-94.5"/>
<text text-anchor="middle" x="87.5" y="-139.5" font-family="Helvetica,sans-Serif" font-size="10.00">XML::bpmn::tExtensionElements</text>
<polyline fill="none" stroke="black" points="0,-132.5 175,-132.5 "/>
<text text-anchor="start" x="8" y="-120.5" font-family="Helvetica,sans-Serif" font-size="10.00">+ defaults</text>
<polyline fill="none" stroke="black" points="0,-113.5 175,-113.5 "/>
<text text-anchor="start" x="8" y="-101.5" font-family="Helvetica,sans-Serif" font-size="10.00"># tExtensionElements()</text>
</a>
</g>
</g>
<!-- Node2&#45;&gt;Node1 -->
<g id="edge1" class="edge">
<title>Node2&#45;&gt;Node1</title>
<path fill="none" stroke="midnightblue" d="M87.5,-84.21C87.5,-75.29 87.5,-65.95 87.5,-57.58"/>
<polygon fill="none" stroke="midnightblue" points="84,-84.4 87.5,-94.4 91,-84.4 84,-84.4"/>
</g>
<!-- Node3 -->
<g id="node3" class="node">
<title>Node3</title>
<g id="a_node3"><a xlink:href="classXML_1_1XMLObject.html" target="_top" xlink:title=" ">
<polygon fill="none" stroke="black" points="24.5,-188.5 24.5,-498.5 150.5,-498.5 150.5,-188.5 24.5,-188.5"/>
<text text-anchor="middle" x="87.5" y="-486.5" font-family="Helvetica,sans-Serif" font-size="10.00">XML::XMLObject</text>
<polyline fill="none" stroke="black" points="24.5,-479.5 150.5,-479.5 "/>
<text text-anchor="start" x="32.5" y="-467.5" font-family="Helvetica,sans-Serif" font-size="10.00">+ xmlns</text>
<text text-anchor="start" x="32.5" y="-456.5" font-family="Helvetica,sans-Serif" font-size="10.00">+ className</text>
<text text-anchor="start" x="32.5" y="-445.5" font-family="Helvetica,sans-Serif" font-size="10.00">+ prefix</text>
<text text-anchor="start" x="32.5" y="-434.5" font-family="Helvetica,sans-Serif" font-size="10.00">+ elementName</text>
<text text-anchor="start" x="32.5" y="-423.5" font-family="Helvetica,sans-Serif" font-size="10.00">+ textContent</text>
<text text-anchor="start" x="32.5" y="-412.5" font-family="Helvetica,sans-Serif" font-size="10.00">+ children</text>
<text text-anchor="start" x="32.5" y="-401.5" font-family="Helvetica,sans-Serif" font-size="10.00">+ attributes</text>
<text text-anchor="start" x="32.5" y="-390.5" font-family="Helvetica,sans-Serif" font-size="10.00">+ defaults</text>
<text text-anchor="start" x="32.5" y="-379.5" font-family="Helvetica,sans-Serif" font-size="10.00"># factory</text>
<polyline fill="none" stroke="black" points="24.5,-372.5 150.5,-372.5 "/>
<text text-anchor="start" x="32.5" y="-360.5" font-family="Helvetica,sans-Serif" font-size="10.00">+ ~XMLObject()</text>
<text text-anchor="start" x="32.5" y="-349.5" font-family="Helvetica,sans-Serif" font-size="10.00">+ is()</text>
<text text-anchor="start" x="32.5" y="-338.5" font-family="Helvetica,sans-Serif" font-size="10.00">+ is()</text>
<text text-anchor="start" x="32.5" y="-327.5" font-family="Helvetica,sans-Serif" font-size="10.00">+ get()</text>
<text text-anchor="start" x="32.5" y="-316.5" font-family="Helvetica,sans-Serif" font-size="10.00">+ get()</text>
<text text-anchor="start" x="32.5" y="-305.5" font-family="Helvetica,sans-Serif" font-size="10.00">+ find()</text>
<text text-anchor="start" x="32.5" y="-294.5" font-family="Helvetica,sans-Serif" font-size="10.00">+ find()</text>
<text text-anchor="start" x="32.5" y="-283.5" font-family="Helvetica,sans-Serif" font-size="10.00">+ stringify()</text>
<text text-anchor="start" x="32.5" y="-272.5" font-family="Helvetica,sans-Serif" font-size="10.00">+ getRequiredChild()</text>
<text text-anchor="start" x="32.5" y="-261.5" font-family="Helvetica,sans-Serif" font-size="10.00">+ getOptionalChild()</text>
<text text-anchor="start" x="32.5" y="-250.5" font-family="Helvetica,sans-Serif" font-size="10.00">and 6 more...</text>
<text text-anchor="start" x="32.5" y="-239.5" font-family="Helvetica,sans-Serif" font-size="10.00">+ createFromStream()</text>
<text text-anchor="start" x="32.5" y="-228.5" font-family="Helvetica,sans-Serif" font-size="10.00">+ createFromString()</text>
<text text-anchor="start" x="32.5" y="-217.5" font-family="Helvetica,sans-Serif" font-size="10.00">+ createFromFile()</text>
<text text-anchor="start" x="32.5" y="-206.5" font-family="Helvetica,sans-Serif" font-size="10.00"># XMLObject()</text>
<text text-anchor="start" x="32.5" y="-195.5" font-family="Helvetica,sans-Serif" font-size="10.00"># createObject()</text>
</a>
</g>
</g>
<!-- Node3&#45;&gt;Node2 -->
<g id="edge2" class="edge">
<title>Node3&#45;&gt;Node2</title>
<path fill="none" stroke="midnightblue" d="M87.5,-178.33C87.5,-168.54 87.5,-159.54 87.5,-151.8"/>
<polygon fill="none" stroke="midnightblue" points="84,-178.38 87.5,-188.38 91,-178.38 84,-178.38"/>
</g>
</g>
</svg>
