<?xml version="1.0" encoding="UTF-8" standalone="no"?>
<!DOCTYPE svg PUBLIC "-//W3C//DTD SVG 1.1//EN"
 "http://www.w3.org/Graphics/SVG/1.1/DTD/svg11.dtd">
<!-- Generated by graphviz version 2.43.0 (0)
 -->
<!-- Title: XML::bpmn::tScriptTask Pages: 1 -->
<svg width="154pt" height="1208pt"
 viewBox="0.00 0.00 154.00 1208.00" xmlns="http://www.w3.org/2000/svg" xmlns:xlink="http://www.w3.org/1999/xlink">
<g id="graph0" class="graph" transform="scale(1 1) rotate(0) translate(4 1204)">
<title>XML::bpmn::tScriptTask</title>
<!-- Node1 -->
<g id="node1" class="node">
<title>Node1</title>
<g id="a_node1"><a xlink:title=" ">
<polygon fill="#bfbfbf" stroke="black" points="7.5,-94.5 7.5,-173.5 138.5,-173.5 138.5,-94.5 7.5,-94.5"/>
<text text-anchor="middle" x="73" y="-161.5" font-family="Helvetica,sans-Serif" font-size="10.00">XML::bpmn::tScriptTask</text>
<polyline fill="none" stroke="black" points="7.5,-154.5 138.5,-154.5 "/>
<text text-anchor="start" x="15.5" y="-142.5" font-family="Helvetica,sans-Serif" font-size="10.00">+ script</text>
<text text-anchor="start" x="15.5" y="-131.5" font-family="Helvetica,sans-Serif" font-size="10.00">+ scriptFormat</text>
<text text-anchor="start" x="15.5" y="-120.5" font-family="Helvetica,sans-Serif" font-size="10.00">+ defaults</text>
<polyline fill="none" stroke="black" points="7.5,-113.5 138.5,-113.5 "/>
<text text-anchor="start" x="15.5" y="-101.5" font-family="Helvetica,sans-Serif" font-size="10.00"># tScriptTask()</text>
</a>
</g>
</g>
<!-- Node8 -->
<g id="node8" class="node">
<title>Node8</title>
<g id="a_node8"><a xlink:href="classXML_1_1bpmn_1_1scriptTask.html" target="_top" xlink:title=" ">
<polygon fill="none" stroke="black" points="10,-0.5 10,-57.5 136,-57.5 136,-0.5 10,-0.5"/>
<text text-anchor="middle" x="73" y="-45.5" font-family="Helvetica,sans-Serif" font-size="10.00">XML::bpmn::scriptTask</text>
<polyline fill="none" stroke="black" points="10,-38.5 136,-38.5 "/>
<text text-anchor="start" x="18" y="-26.5" font-family="Helvetica,sans-Serif" font-size="10.00">+ defaults</text>
<polyline fill="none" stroke="black" points="10,-19.5 136,-19.5 "/>
<text text-anchor="start" x="18" y="-7.5" font-family="Helvetica,sans-Serif" font-size="10.00"># scriptTask()</text>
</a>
</g>
</g>
<!-- Node1&#45;&gt;Node8 -->
<g id="edge7" class="edge">
<title>Node1&#45;&gt;Node8</title>
<path fill="none" stroke="midnightblue" d="M73,-84.16C73,-75.04 73,-65.81 73,-57.61"/>
<polygon fill="none" stroke="midnightblue" points="69.5,-84.35 73,-94.35 76.5,-84.35 69.5,-84.35"/>
</g>
<!-- Node2 -->
<g id="node2" class="node">
<title>Node2</title>
<g id="a_node2"><a xlink:href="classXML_1_1bpmn_1_1tTask.html" target="_top" xlink:title=" ">
<polygon fill="none" stroke="black" points="21.5,-210.5 21.5,-267.5 124.5,-267.5 124.5,-210.5 21.5,-210.5"/>
<text text-anchor="middle" x="73" y="-255.5" font-family="Helvetica,sans-Serif" font-size="10.00">XML::bpmn::tTask</text>
<polyline fill="none" stroke="black" points="21.5,-248.5 124.5,-248.5 "/>
<text text-anchor="start" x="29.5" y="-236.5" font-family="Helvetica,sans-Serif" font-size="10.00">+ defaults</text>
<polyline fill="none" stroke="black" points="21.5,-229.5 124.5,-229.5 "/>
<text text-anchor="start" x="29.5" y="-217.5" font-family="Helvetica,sans-Serif" font-size="10.00"># tTask()</text>
</a>
</g>
</g>
<!-- Node2&#45;&gt;Node1 -->
<g id="edge1" class="edge">
<title>Node2&#45;&gt;Node1</title>
<path fill="none" stroke="midnightblue" d="M73,-200.16C73,-191.47 73,-182.23 73,-173.52"/>
<polygon fill="none" stroke="midnightblue" points="69.5,-200.4 73,-210.4 76.5,-200.4 69.5,-200.4"/>
</g>
<!-- Node3 -->
<g id="node3" class="node">
<title>Node3</title>
<g id="a_node3"><a xlink:href="classXML_1_1bpmn_1_1tActivity.html" target="_top" xlink:title=" ">
<polygon fill="none" stroke="black" points="3.5,-304.5 3.5,-471.5 142.5,-471.5 142.5,-304.5 3.5,-304.5"/>
<text text-anchor="middle" x="73" y="-459.5" font-family="Helvetica,sans-Serif" font-size="10.00">XML::bpmn::tActivity</text>
<polyline fill="none" stroke="black" points="3.5,-452.5 142.5,-452.5 "/>
<text text-anchor="start" x="11.5" y="-440.5" font-family="Helvetica,sans-Serif" font-size="10.00">+ ioSpecification</text>
<text text-anchor="start" x="11.5" y="-429.5" font-family="Helvetica,sans-Serif" font-size="10.00">+ property</text>
<text text-anchor="start" x="11.5" y="-418.5" font-family="Helvetica,sans-Serif" font-size="10.00">+ dataInputAssociation</text>
<text text-anchor="start" x="11.5" y="-407.5" font-family="Helvetica,sans-Serif" font-size="10.00">+ dataOutputAssociation</text>
<text text-anchor="start" x="11.5" y="-396.5" font-family="Helvetica,sans-Serif" font-size="10.00">+ resourceRole</text>
<text text-anchor="start" x="11.5" y="-385.5" font-family="Helvetica,sans-Serif" font-size="10.00">+ loopCharacteristics</text>
<text text-anchor="start" x="11.5" y="-374.5" font-family="Helvetica,sans-Serif" font-size="10.00">+ isForCompensation</text>
<text text-anchor="start" x="11.5" y="-363.5" font-family="Helvetica,sans-Serif" font-size="10.00">+ startQuantity</text>
<text text-anchor="start" x="11.5" y="-352.5" font-family="Helvetica,sans-Serif" font-size="10.00">+ completionQuantity</text>
<text text-anchor="start" x="11.5" y="-341.5" font-family="Helvetica,sans-Serif" font-size="10.00">+ default_</text>
<text text-anchor="start" x="11.5" y="-330.5" font-family="Helvetica,sans-Serif" font-size="10.00">+ defaults</text>
<polyline fill="none" stroke="black" points="3.5,-323.5 142.5,-323.5 "/>
<text text-anchor="start" x="11.5" y="-311.5" font-family="Helvetica,sans-Serif" font-size="10.00"># tActivity()</text>
</a>
</g>
</g>
<!-- Node3&#45;&gt;Node2 -->
<g id="edge2" class="edge">
<title>Node3&#45;&gt;Node2</title>
<path fill="none" stroke="midnightblue" d="M73,-294.36C73,-284.79 73,-275.68 73,-267.75"/>
<polygon fill="none" stroke="midnightblue" points="69.5,-294.48 73,-304.48 76.5,-294.48 69.5,-294.48"/>
</g>
<!-- Node4 -->
<g id="node4" class="node">
<title>Node4</title>
<g id="a_node4"><a xlink:href="classXML_1_1bpmn_1_1tFlowNode.html" target="_top" xlink:title=" ">
<polygon fill="none" stroke="black" points="8,-508.5 8,-587.5 138,-587.5 138,-508.5 8,-508.5"/>
<text text-anchor="middle" x="73" y="-575.5" font-family="Helvetica,sans-Serif" font-size="10.00">XML::bpmn::tFlowNode</text>
<polyline fill="none" stroke="black" points="8,-568.5 138,-568.5 "/>
<text text-anchor="start" x="16" y="-556.5" font-family="Helvetica,sans-Serif" font-size="10.00">+ incoming</text>
<text text-anchor="start" x="16" y="-545.5" font-family="Helvetica,sans-Serif" font-size="10.00">+ outgoing</text>
<text text-anchor="start" x="16" y="-534.5" font-family="Helvetica,sans-Serif" font-size="10.00">+ defaults</text>
<polyline fill="none" stroke="black" points="8,-527.5 138,-527.5 "/>
<text text-anchor="start" x="16" y="-515.5" font-family="Helvetica,sans-Serif" font-size="10.00"># tFlowNode()</text>
</a>
</g>
</g>
<!-- Node4&#45;&gt;Node3 -->
<g id="edge3" class="edge">
<title>Node4&#45;&gt;Node3</title>
<path fill="none" stroke="midnightblue" d="M73,-498.26C73,-489.74 73,-480.67 73,-471.53"/>
<polygon fill="none" stroke="midnightblue" points="69.5,-498.35 73,-508.35 76.5,-498.35 69.5,-498.35"/>
</g>
<!-- Node5 -->
<g id="node5" class="node">
<title>Node5</title>
<g id="a_node5"><a xlink:href="classXML_1_1bpmn_1_1tFlowElement.html" target="_top" xlink:title=" ">
<polygon fill="none" stroke="black" points="0.5,-624.5 0.5,-725.5 145.5,-725.5 145.5,-624.5 0.5,-624.5"/>
<text text-anchor="middle" x="73" y="-713.5" font-family="Helvetica,sans-Serif" font-size="10.00">XML::bpmn::tFlowElement</text>
<polyline fill="none" stroke="black" points="0.5,-706.5 145.5,-706.5 "/>
<text text-anchor="start" x="8.5" y="-694.5" font-family="Helvetica,sans-Serif" font-size="10.00">+ auditing</text>
<text text-anchor="start" x="8.5" y="-683.5" font-family="Helvetica,sans-Serif" font-size="10.00">+ monitoring</text>
<text text-anchor="start" x="8.5" y="-672.5" font-family="Helvetica,sans-Serif" font-size="10.00">+ categoryValueRef</text>
<text text-anchor="start" x="8.5" y="-661.5" font-family="Helvetica,sans-Serif" font-size="10.00">+ name</text>
<text text-anchor="start" x="8.5" y="-650.5" font-family="Helvetica,sans-Serif" font-size="10.00">+ defaults</text>
<polyline fill="none" stroke="black" points="0.5,-643.5 145.5,-643.5 "/>
<text text-anchor="start" x="8.5" y="-631.5" font-family="Helvetica,sans-Serif" font-size="10.00"># tFlowElement()</text>
</a>
</g>
</g>
<!-- Node5&#45;&gt;Node4 -->
<g id="edge4" class="edge">
<title>Node5&#45;&gt;Node4</title>
<path fill="none" stroke="midnightblue" d="M73,-614.19C73,-605.22 73,-596.18 73,-587.81"/>
<polygon fill="none" stroke="midnightblue" points="69.5,-614.24 73,-624.24 76.5,-614.24 69.5,-614.24"/>
</g>
<!-- Node6 -->
<g id="node6" class="node">
<title>Node6</title>
<g id="a_node6"><a xlink:href="classXML_1_1bpmn_1_1tBaseElement.html" target="_top" xlink:title=" ">
<polygon fill="none" stroke="black" points="0,-762.5 0,-852.5 146,-852.5 146,-762.5 0,-762.5"/>
<text text-anchor="middle" x="73" y="-840.5" font-family="Helvetica,sans-Serif" font-size="10.00">XML::bpmn::tBaseElement</text>
<polyline fill="none" stroke="black" points="0,-833.5 146,-833.5 "/>
<text text-anchor="start" x="8" y="-821.5" font-family="Helvetica,sans-Serif" font-size="10.00">+ documentation</text>
<text text-anchor="start" x="8" y="-810.5" font-family="Helvetica,sans-Serif" font-size="10.00">+ extensionElements</text>
<text text-anchor="start" x="8" y="-799.5" font-family="Helvetica,sans-Serif" font-size="10.00">+ id</text>
<text text-anchor="start" x="8" y="-788.5" font-family="Helvetica,sans-Serif" font-size="10.00">+ defaults</text>
<polyline fill="none" stroke="black" points="0,-781.5 146,-781.5 "/>
<text text-anchor="start" x="8" y="-769.5" font-family="Helvetica,sans-Serif" font-size="10.00"># tBaseElement()</text>
</a>
</g>
</g>
<!-- Node6&#45;&gt;Node5 -->
<g id="edge5" class="edge">
<title>Node6&#45;&gt;Node5</title>
<path fill="none" stroke="midnightblue" d="M73,-752.13C73,-743.31 73,-734.22 73,-725.52"/>
<polygon fill="none" stroke="midnightblue" points="69.5,-752.32 73,-762.32 76.5,-752.32 69.5,-752.32"/>
</g>
<!-- Node7 -->
<g id="node7" class="node">
<title>Node7</title>
<g id="a_node7"><a xlink:href="classXML_1_1XMLObject.html" target="_top" xlink:title="A class representing a node in an XML&#45;tree.">
<polygon fill="none" stroke="black" points="10,-889.5 10,-1199.5 136,-1199.5 136,-889.5 10,-889.5"/>
<text text-anchor="middle" x="73" y="-1187.5" font-family="Helvetica,sans-Serif" font-size="10.00">XML::XMLObject</text>
<polyline fill="none" stroke="black" points="10,-1180.5 136,-1180.5 "/>
<text text-anchor="start" x="18" y="-1168.5" font-family="Helvetica,sans-Serif" font-size="10.00">+ xmlns</text>
<text text-anchor="start" x="18" y="-1157.5" font-family="Helvetica,sans-Serif" font-size="10.00">+ className</text>
<text text-anchor="start" x="18" y="-1146.5" font-family="Helvetica,sans-Serif" font-size="10.00">+ prefix</text>
<text text-anchor="start" x="18" y="-1135.5" font-family="Helvetica,sans-Serif" font-size="10.00">+ elementName</text>
<text text-anchor="start" x="18" y="-1124.5" font-family="Helvetica,sans-Serif" font-size="10.00">+ textContent</text>
<text text-anchor="start" x="18" y="-1113.5" font-family="Helvetica,sans-Serif" font-size="10.00">+ children</text>
<text text-anchor="start" x="18" y="-1102.5" font-family="Helvetica,sans-Serif" font-size="10.00">+ attributes</text>
<text text-anchor="start" x="18" y="-1091.5" font-family="Helvetica,sans-Serif" font-size="10.00">+ defaults</text>
<text text-anchor="start" x="18" y="-1080.5" font-family="Helvetica,sans-Serif" font-size="10.00"># factory</text>
<polyline fill="none" stroke="black" points="10,-1073.5 136,-1073.5 "/>
<text text-anchor="start" x="18" y="-1061.5" font-family="Helvetica,sans-Serif" font-size="10.00">+ ~XMLObject()</text>
<text text-anchor="start" x="18" y="-1050.5" font-family="Helvetica,sans-Serif" font-size="10.00">+ is()</text>
<text text-anchor="start" x="18" y="-1039.5" font-family="Helvetica,sans-Serif" font-size="10.00">+ is()</text>
<text text-anchor="start" x="18" y="-1028.5" font-family="Helvetica,sans-Serif" font-size="10.00">+ get()</text>
<text text-anchor="start" x="18" y="-1017.5" font-family="Helvetica,sans-Serif" font-size="10.00">+ get()</text>
<text text-anchor="start" x="18" y="-1006.5" font-family="Helvetica,sans-Serif" font-size="10.00">+ find()</text>
<text text-anchor="start" x="18" y="-995.5" font-family="Helvetica,sans-Serif" font-size="10.00">+ find()</text>
<text text-anchor="start" x="18" y="-984.5" font-family="Helvetica,sans-Serif" font-size="10.00">+ stringify()</text>
<text text-anchor="start" x="18" y="-973.5" font-family="Helvetica,sans-Serif" font-size="10.00">+ getRequiredChild()</text>
<text text-anchor="start" x="18" y="-962.5" font-family="Helvetica,sans-Serif" font-size="10.00">+ getOptionalChild()</text>
<text text-anchor="start" x="18" y="-951.5" font-family="Helvetica,sans-Serif" font-size="10.00">and 6 more...</text>
<text text-anchor="start" x="18" y="-940.5" font-family="Helvetica,sans-Serif" font-size="10.00">+ createFromStream()</text>
<text text-anchor="start" x="18" y="-929.5" font-family="Helvetica,sans-Serif" font-size="10.00">+ createFromString()</text>
<text text-anchor="start" x="18" y="-918.5" font-family="Helvetica,sans-Serif" font-size="10.00">+ createFromFile()</text>
<text text-anchor="start" x="18" y="-907.5" font-family="Helvetica,sans-Serif" font-size="10.00"># XMLObject()</text>
<text text-anchor="start" x="18" y="-896.5" font-family="Helvetica,sans-Serif" font-size="10.00"># createObject()</text>
</a>
</g>
</g>
<!-- Node7&#45;&gt;Node6 -->
<g id="edge6" class="edge">
<title>Node7&#45;&gt;Node6</title>
<path fill="none" stroke="midnightblue" d="M73,-879.35C73,-869.89 73,-860.91 73,-852.72"/>
<polygon fill="none" stroke="midnightblue" points="69.5,-879.37 73,-889.37 76.5,-879.37 69.5,-879.37"/>
</g>
</g>
</svg>
