<?xml version="1.0" encoding="UTF-8" standalone="no"?>
<!DOCTYPE svg PUBLIC "-//W3C//DTD SVG 1.1//EN"
 "http://www.w3.org/Graphics/SVG/1.1/DTD/svg11.dtd">
<!-- Generated by graphviz version 2.43.0 (0)
 -->
<!-- Title: BPMN::TimerCatchEvent Pages: 1 -->
<svg width="300pt" height="1037pt"
 viewBox="0.00 0.00 300.00 1037.00" xmlns="http://www.w3.org/2000/svg" xmlns:xlink="http://www.w3.org/1999/xlink">
<g id="graph0" class="graph" transform="scale(1 1) rotate(0) translate(4 1033)">
<title>BPMN::TimerCatchEvent</title>
<!-- Node1 -->
<g id="Node000001" class="node">
<title>Node1</title>
<g id="a_Node000001"><a xlink:title=" ">
<polygon fill="#999999" stroke="transparent" points="216.5,-134 86.5,-134 86.5,-85 216.5,-85 216.5,-134"/>
<text text-anchor="start" x="91.5" y="-121.5" font-family="Helvetica,sans-Serif" font-size="10.00">BPMN::TimerCatchEvent</text>
<text text-anchor="start" x="149.5" y="-106.5" font-family="Helvetica,sans-Serif" font-size="10.00"> </text>
<text text-anchor="start" x="94.5" y="-91.5" font-family="Helvetica,sans-Serif" font-size="10.00">+</text>
<text text-anchor="start" x="111.5" y="-91.5" font-family="Helvetica,sans-Serif" font-size="10.00">TimerCatchEvent()</text>
<polygon fill="#666666" stroke="#666666" points="86.5,-116.5 86.5,-116.5 216.5,-116.5 216.5,-116.5 86.5,-116.5"/>
<polygon fill="#666666" stroke="#666666" points="86.5,-101.5 86.5,-101.5 216.5,-101.5 216.5,-101.5 86.5,-101.5"/>
<polygon fill="none" stroke="#666666" points="86.5,-85 86.5,-134 216.5,-134 216.5,-85 86.5,-85"/>
</a>
</g>
</g>
<!-- Node9 -->
<g id="Node000009" class="node">
<title>Node9</title>
<g id="a_Node000009"><a xlink:href="classBPMN_1_1TimerBoundaryEvent.html" target="_top" xlink:title=" ">
<polygon fill="white" stroke="transparent" points="149,-49 0,-49 0,0 149,0 149,-49"/>
<text text-anchor="start" x="5.5" y="-36.5" font-family="Helvetica,sans-Serif" font-size="10.00">BPMN::TimerBoundaryEvent</text>
<text text-anchor="start" x="8.5" y="-21.5" font-family="Helvetica,sans-Serif" font-size="10.00">+</text>
<text text-anchor="start" x="25.5" y="-21.5" font-family="Helvetica,sans-Serif" font-size="10.00">element</text>
<text text-anchor="start" x="8.5" y="-6.5" font-family="Helvetica,sans-Serif" font-size="10.00">+</text>
<text text-anchor="start" x="25.5" y="-6.5" font-family="Helvetica,sans-Serif" font-size="10.00">TimerBoundaryEvent()</text>
<polygon fill="#666666" stroke="#666666" points="0.5,-31.5 0.5,-31.5 149.5,-31.5 149.5,-31.5 0.5,-31.5"/>
<polygon fill="#666666" stroke="#666666" points="0.5,-16.5 0.5,-16.5 23.5,-16.5 23.5,-16.5 0.5,-16.5"/>
<polygon fill="#666666" stroke="#666666" points="23.5,-16.5 23.5,-16.5 149.5,-16.5 149.5,-16.5 23.5,-16.5"/>
<polygon fill="none" stroke="#666666" points="0,0 0,-49 149,-49 149,0 0,0"/>
</a>
</g>
</g>
<!-- Node1&#45;&gt;Node9 -->
<g id="edge8_Node000001_Node000009" class="edge">
<title>Node1&#45;&gt;Node9</title>
<g id="a_edge8_Node000001_Node000009"><a xlink:title=" ">
<path fill="none" stroke="#63b8ff" d="M122.83,-77.59C114.09,-68.17 104.63,-57.98 96.41,-49.12"/>
<polygon fill="none" stroke="#63b8ff" points="120.27,-79.99 129.64,-84.94 125.41,-75.23 120.27,-79.99"/>
</a>
</g>
</g>
<!-- Node10 -->
<g id="Node000010" class="node">
<title>Node10</title>
<g id="a_Node000010"><a xlink:href="classBPMN_1_1TimerStartEvent.html" target="_top" xlink:title=" ">
<polygon fill="white" stroke="transparent" points="292,-49 167,-49 167,0 292,0 292,-49"/>
<text text-anchor="start" x="172.5" y="-36.5" font-family="Helvetica,sans-Serif" font-size="10.00">BPMN::TimerStartEvent</text>
<text text-anchor="start" x="175.5" y="-21.5" font-family="Helvetica,sans-Serif" font-size="10.00">+</text>
<text text-anchor="start" x="192.5" y="-21.5" font-family="Helvetica,sans-Serif" font-size="10.00">element</text>
<text text-anchor="start" x="175.5" y="-6.5" font-family="Helvetica,sans-Serif" font-size="10.00">+</text>
<text text-anchor="start" x="192.5" y="-6.5" font-family="Helvetica,sans-Serif" font-size="10.00">TimerStartEvent()</text>
<polygon fill="#666666" stroke="#666666" points="167.5,-31.5 167.5,-31.5 292.5,-31.5 292.5,-31.5 167.5,-31.5"/>
<polygon fill="#666666" stroke="#666666" points="167.5,-16.5 167.5,-16.5 190.5,-16.5 190.5,-16.5 167.5,-16.5"/>
<polygon fill="#666666" stroke="#666666" points="190.5,-16.5 190.5,-16.5 292.5,-16.5 292.5,-16.5 190.5,-16.5"/>
<polygon fill="none" stroke="#666666" points="167,0 167,-49 292,-49 292,0 167,0"/>
</a>
</g>
</g>
<!-- Node1&#45;&gt;Node10 -->
<g id="edge9_Node000001_Node000010" class="edge">
<title>Node1&#45;&gt;Node10</title>
<g id="a_edge9_Node000001_Node000010"><a xlink:title=" ">
<path fill="none" stroke="#63b8ff" d="M180.55,-77.59C189.4,-68.17 198.98,-57.98 207.3,-49.12"/>
<polygon fill="none" stroke="#63b8ff" points="177.94,-75.25 173.64,-84.94 183.04,-80.05 177.94,-75.25"/>
</a>
</g>
</g>
<!-- Node2 -->
<g id="Node000002" class="node">
<title>Node2</title>
<g id="a_Node000002"><a xlink:href="classBPMN_1_1CatchEvent.html" target="_top" xlink:title=" ">
<polygon fill="white" stroke="transparent" points="202,-219 101,-219 101,-170 202,-170 202,-219"/>
<text text-anchor="start" x="106.5" y="-206.5" font-family="Helvetica,sans-Serif" font-size="10.00">BPMN::CatchEvent</text>
<text text-anchor="start" x="109.5" y="-191.5" font-family="Helvetica,sans-Serif" font-size="10.00">+</text>
<text text-anchor="start" x="126.5" y="-191.5" font-family="Helvetica,sans-Serif" font-size="10.00">element</text>
<text text-anchor="start" x="109.5" y="-176.5" font-family="Helvetica,sans-Serif" font-size="10.00">+</text>
<text text-anchor="start" x="126.5" y="-176.5" font-family="Helvetica,sans-Serif" font-size="10.00">CatchEvent()</text>
<polygon fill="#666666" stroke="#666666" points="101.5,-201.5 101.5,-201.5 202.5,-201.5 202.5,-201.5 101.5,-201.5"/>
<polygon fill="#666666" stroke="#666666" points="101.5,-186.5 101.5,-186.5 124.5,-186.5 124.5,-186.5 101.5,-186.5"/>
<polygon fill="#666666" stroke="#666666" points="124.5,-186.5 124.5,-186.5 202.5,-186.5 202.5,-186.5 124.5,-186.5"/>
<polygon fill="none" stroke="#666666" points="101,-170 101,-219 202,-219 202,-170 101,-170"/>
</a>
</g>
</g>
<!-- Node2&#45;&gt;Node1 -->
<g id="edge1_Node000001_Node000002" class="edge">
<title>Node2&#45;&gt;Node1</title>
<g id="a_edge1_Node000001_Node000002"><a xlink:title=" ">
<path fill="none" stroke="#63b8ff" d="M151.5,-159.77C151.5,-151.17 151.5,-142.1 151.5,-134.12"/>
<polygon fill="none" stroke="#63b8ff" points="148,-159.94 151.5,-169.94 155,-159.94 148,-159.94"/>
</a>
</g>
</g>
<!-- Node3 -->
<g id="Node000003" class="node">
<title>Node3</title>
<g id="a_Node000003"><a xlink:href="classBPMN_1_1Event.html" target="_top" xlink:title=" ">
<polygon fill="white" stroke="transparent" points="188.5,-304 114.5,-304 114.5,-255 188.5,-255 188.5,-304"/>
<text text-anchor="start" x="119.5" y="-291.5" font-family="Helvetica,sans-Serif" font-size="10.00">BPMN::Event</text>
<text text-anchor="start" x="121.5" y="-276.5" font-family="Helvetica,sans-Serif" font-size="10.00">+</text>
<text text-anchor="start" x="137.5" y="-276.5" font-family="Helvetica,sans-Serif" font-size="10.00">element</text>
<text text-anchor="start" x="121.5" y="-261.5" font-family="Helvetica,sans-Serif" font-size="10.00">+</text>
<text text-anchor="start" x="137.5" y="-261.5" font-family="Helvetica,sans-Serif" font-size="10.00">Event()</text>
<polygon fill="#666666" stroke="#666666" points="114.5,-286.5 114.5,-286.5 188.5,-286.5 188.5,-286.5 114.5,-286.5"/>
<polygon fill="#666666" stroke="#666666" points="114.5,-271.5 114.5,-271.5 135.5,-271.5 135.5,-271.5 114.5,-271.5"/>
<polygon fill="#666666" stroke="#666666" points="135.5,-271.5 135.5,-271.5 188.5,-271.5 188.5,-271.5 135.5,-271.5"/>
<polygon fill="none" stroke="#666666" points="114.5,-255 114.5,-304 188.5,-304 188.5,-255 114.5,-255"/>
</a>
</g>
</g>
<!-- Node3&#45;&gt;Node2 -->
<g id="edge2_Node000002_Node000003" class="edge">
<title>Node3&#45;&gt;Node2</title>
<g id="a_edge2_Node000002_Node000003"><a xlink:title=" ">
<path fill="none" stroke="#63b8ff" d="M151.5,-244.77C151.5,-236.17 151.5,-227.1 151.5,-219.12"/>
<polygon fill="none" stroke="#63b8ff" points="148,-244.94 151.5,-254.94 155,-244.94 148,-244.94"/>
</a>
</g>
</g>
<!-- Node4 -->
<g id="Node000004" class="node">
<title>Node4</title>
<g id="a_Node000004"><a xlink:href="classBPMN_1_1FlowNode.html" target="_top" xlink:title="Base class for BPMN elements that may contain incoming and outgoing sequence flows.">
<polygon fill="white" stroke="transparent" points="199,-434 104,-434 104,-340 199,-340 199,-434"/>
<text text-anchor="start" x="109.5" y="-422" font-family="Helvetica,sans-Serif" font-size="10.00">BPMN::FlowNode</text>
<text text-anchor="start" x="112.5" y="-407" font-family="Helvetica,sans-Serif" font-size="10.00">+</text>
<text text-anchor="start" x="129.5" y="-407" font-family="Helvetica,sans-Serif" font-size="10.00">element</text>
<text text-anchor="start" x="112.5" y="-392" font-family="Helvetica,sans-Serif" font-size="10.00">+</text>
<text text-anchor="start" x="129.5" y="-392" font-family="Helvetica,sans-Serif" font-size="10.00">name</text>
<text text-anchor="start" x="112.5" y="-377" font-family="Helvetica,sans-Serif" font-size="10.00">+</text>
<text text-anchor="start" x="129.5" y="-377" font-family="Helvetica,sans-Serif" font-size="10.00">incoming</text>
<text text-anchor="start" x="112.5" y="-362" font-family="Helvetica,sans-Serif" font-size="10.00">+</text>
<text text-anchor="start" x="129.5" y="-362" font-family="Helvetica,sans-Serif" font-size="10.00">outgoing</text>
<text text-anchor="start" x="112.5" y="-347" font-family="Helvetica,sans-Serif" font-size="10.00">+</text>
<text text-anchor="start" x="129.5" y="-347" font-family="Helvetica,sans-Serif" font-size="10.00">FlowNode()</text>
<polygon fill="#666666" stroke="#666666" points="104.5,-417 104.5,-417 199.5,-417 199.5,-417 104.5,-417"/>
<polygon fill="#666666" stroke="#666666" points="104.5,-357 104.5,-357 127.5,-357 127.5,-357 104.5,-357"/>
<polygon fill="#666666" stroke="#666666" points="127.5,-357 127.5,-357 199.5,-357 199.5,-357 127.5,-357"/>
<polygon fill="none" stroke="#666666" points="104,-340 104,-434 199,-434 199,-340 104,-340"/>
</a>
</g>
</g>
<!-- Node4&#45;&gt;Node3 -->
<g id="edge3_Node000003_Node000004" class="edge">
<title>Node4&#45;&gt;Node3</title>
<g id="a_edge3_Node000003_Node000004"><a xlink:title=" ">
<path fill="none" stroke="#63b8ff" d="M151.5,-329.59C151.5,-320.62 151.5,-311.79 151.5,-304.15"/>
<polygon fill="none" stroke="#63b8ff" points="148,-329.73 151.5,-339.73 155,-329.73 148,-329.73"/>
</a>
</g>
</g>
<!-- Node5 -->
<g id="Node000005" class="node">
<title>Node5</title>
<g id="a_Node000005"><a xlink:href="classBPMN_1_1ChildNode.html" target="_top" xlink:title="Base class for BPMN elements within a Scope.">
<polygon fill="white" stroke="transparent" points="199.5,-549 103.5,-549 103.5,-470 199.5,-470 199.5,-549"/>
<text text-anchor="start" x="108.5" y="-536.5" font-family="Helvetica,sans-Serif" font-size="10.00">BPMN::ChildNode</text>
<text text-anchor="start" x="111.5" y="-521.5" font-family="Helvetica,sans-Serif" font-size="10.00">+</text>
<text text-anchor="start" x="128.5" y="-521.5" font-family="Helvetica,sans-Serif" font-size="10.00">parent</text>
<text text-anchor="start" x="111.5" y="-506.5" font-family="Helvetica,sans-Serif" font-size="10.00">+</text>
<text text-anchor="start" x="128.5" y="-506.5" font-family="Helvetica,sans-Serif" font-size="10.00">ChildNode()</text>
<text text-anchor="start" x="111.5" y="-491.5" font-family="Helvetica,sans-Serif" font-size="10.00">+</text>
<text text-anchor="start" x="128.5" y="-491.5" font-family="Helvetica,sans-Serif" font-size="10.00">ancestor()</text>
<text text-anchor="start" x="111.5" y="-476.5" font-family="Helvetica,sans-Serif" font-size="10.00">+</text>
<text text-anchor="start" x="128.5" y="-476.5" font-family="Helvetica,sans-Serif" font-size="10.00">ancestor()</text>
<polygon fill="#666666" stroke="#666666" points="103.5,-531.5 103.5,-531.5 199.5,-531.5 199.5,-531.5 103.5,-531.5"/>
<polygon fill="#666666" stroke="#666666" points="103.5,-516.5 103.5,-516.5 126.5,-516.5 126.5,-516.5 103.5,-516.5"/>
<polygon fill="#666666" stroke="#666666" points="126.5,-516.5 126.5,-516.5 199.5,-516.5 199.5,-516.5 126.5,-516.5"/>
<polygon fill="none" stroke="#666666" points="103.5,-470 103.5,-549 199.5,-549 199.5,-470 103.5,-470"/>
</a>
</g>
</g>
<!-- Node5&#45;&gt;Node4 -->
<g id="edge4_Node000004_Node000005" class="edge">
<title>Node5&#45;&gt;Node4</title>
<g id="a_edge4_Node000004_Node000005"><a xlink:title=" ">
<path fill="none" stroke="#63b8ff" d="M151.5,-459.68C151.5,-451.3 151.5,-442.61 151.5,-434.29"/>
<polygon fill="none" stroke="#63b8ff" points="148,-459.71 151.5,-469.71 155,-459.71 148,-459.71"/>
</a>
</g>
</g>
<!-- Node6 -->
<g id="Node000006" class="node">
<title>Node6</title>
<g id="a_Node000006"><a xlink:href="classBPMN_1_1Node.html" target="_top" xlink:title="Base class for all nodes in a BPMN model.">
<polygon fill="white" stroke="transparent" points="187,-709 116,-709 116,-585 187,-585 187,-709"/>
<text text-anchor="start" x="121.5" y="-697" font-family="Helvetica,sans-Serif" font-size="10.00">BPMN::Node</text>
<text text-anchor="start" x="121.5" y="-682" font-family="Helvetica,sans-Serif" font-size="10.00">+</text>
<text text-anchor="start" x="135.5" y="-682" font-family="Helvetica,sans-Serif" font-size="10.00">receiving</text>
<text text-anchor="start" x="121.5" y="-667" font-family="Helvetica,sans-Serif" font-size="10.00">+</text>
<text text-anchor="start" x="135.5" y="-667" font-family="Helvetica,sans-Serif" font-size="10.00">sending</text>
<text text-anchor="start" x="121.5" y="-652" font-family="Helvetica,sans-Serif" font-size="10.00">+</text>
<text text-anchor="start" x="135.5" y="-652" font-family="Helvetica,sans-Serif" font-size="10.00">Node()</text>
<text text-anchor="start" x="121.5" y="-637" font-family="Helvetica,sans-Serif" font-size="10.00">+</text>
<text text-anchor="start" x="135.5" y="-637" font-family="Helvetica,sans-Serif" font-size="10.00">find()</text>
<text text-anchor="start" x="121.5" y="-622" font-family="Helvetica,sans-Serif" font-size="10.00">+</text>
<text text-anchor="start" x="135.5" y="-622" font-family="Helvetica,sans-Serif" font-size="10.00">find()</text>
<text text-anchor="start" x="121.5" y="-607" font-family="Helvetica,sans-Serif" font-size="10.00">+</text>
<text text-anchor="start" x="135.5" y="-607" font-family="Helvetica,sans-Serif" font-size="10.00">find_all()</text>
<text text-anchor="start" x="121.5" y="-592" font-family="Helvetica,sans-Serif" font-size="10.00">+</text>
<text text-anchor="start" x="135.5" y="-592" font-family="Helvetica,sans-Serif" font-size="10.00">find_all()</text>
<polygon fill="#666666" stroke="#666666" points="116.5,-692 116.5,-692 187.5,-692 187.5,-692 116.5,-692"/>
<polygon fill="#666666" stroke="#666666" points="116.5,-662 116.5,-662 133.5,-662 133.5,-662 116.5,-662"/>
<polygon fill="#666666" stroke="#666666" points="133.5,-662 133.5,-662 187.5,-662 187.5,-662 133.5,-662"/>
<polygon fill="none" stroke="#666666" points="116,-585 116,-709 187,-709 187,-585 116,-585"/>
</a>
</g>
</g>
<!-- Node6&#45;&gt;Node5 -->
<g id="edge5_Node000005_Node000006" class="edge">
<title>Node6&#45;&gt;Node5</title>
<g id="a_edge5_Node000005_Node000006"><a xlink:title=" ">
<path fill="none" stroke="#63b8ff" d="M151.5,-574.93C151.5,-566.02 151.5,-557.19 151.5,-549.05"/>
<polygon fill="none" stroke="#63b8ff" points="148,-574.99 151.5,-584.99 155,-574.99 148,-574.99"/>
</a>
</g>
</g>
<!-- Node7 -->
<g id="Node000007" class="node">
<title>Node7</title>
<g id="a_Node000007"><a xlink:href="classBPMN_1_1BaseElement.html" target="_top" xlink:title="Base class for all core BPMN elements.">
<polygon fill="white" stroke="transparent" points="209,-884 94,-884 94,-745 209,-745 209,-884"/>
<text text-anchor="start" x="102" y="-871.5" font-family="Helvetica,sans-Serif" font-size="10.00">BPMN::BaseElement</text>
<text text-anchor="start" x="98.5" y="-856.5" font-family="Helvetica,sans-Serif" font-size="10.00">+</text>
<text text-anchor="start" x="111.5" y="-856.5" font-family="Helvetica,sans-Serif" font-size="10.00">element</text>
<text text-anchor="start" x="98.5" y="-841.5" font-family="Helvetica,sans-Serif" font-size="10.00">+</text>
<text text-anchor="start" x="111.5" y="-841.5" font-family="Helvetica,sans-Serif" font-size="10.00">id</text>
<text text-anchor="start" x="98.5" y="-826.5" font-family="Helvetica,sans-Serif" font-size="10.00">+</text>
<text text-anchor="start" x="111.5" y="-826.5" font-family="Helvetica,sans-Serif" font-size="10.00">extensionElements</text>
<text text-anchor="start" x="98.5" y="-811.5" font-family="Helvetica,sans-Serif" font-size="10.00">+</text>
<text text-anchor="start" x="111.5" y="-811.5" font-family="Helvetica,sans-Serif" font-size="10.00">BaseElement()</text>
<text text-anchor="start" x="98.5" y="-796.5" font-family="Helvetica,sans-Serif" font-size="10.00">+</text>
<text text-anchor="start" x="111.5" y="-796.5" font-family="Helvetica,sans-Serif" font-size="10.00">is()</text>
<text text-anchor="start" x="98.5" y="-781.5" font-family="Helvetica,sans-Serif" font-size="10.00">+</text>
<text text-anchor="start" x="111.5" y="-781.5" font-family="Helvetica,sans-Serif" font-size="10.00">is()</text>
<text text-anchor="start" x="98.5" y="-766.5" font-family="Helvetica,sans-Serif" font-size="10.00">+</text>
<text text-anchor="start" x="111.5" y="-766.5" font-family="Helvetica,sans-Serif" font-size="10.00">get()</text>
<text text-anchor="start" x="98.5" y="-751.5" font-family="Helvetica,sans-Serif" font-size="10.00">+</text>
<text text-anchor="start" x="111.5" y="-751.5" font-family="Helvetica,sans-Serif" font-size="10.00">get()</text>
<polygon fill="#666666" stroke="#666666" points="94.5,-866.5 94.5,-866.5 209.5,-866.5 209.5,-866.5 94.5,-866.5"/>
<polygon fill="#666666" stroke="#666666" points="94.5,-821.5 94.5,-821.5 109.5,-821.5 109.5,-821.5 94.5,-821.5"/>
<polygon fill="#666666" stroke="#666666" points="109.5,-821.5 109.5,-821.5 209.5,-821.5 209.5,-821.5 109.5,-821.5"/>
<polygon fill="none" stroke="#666666" points="94,-745 94,-884 209,-884 209,-745 94,-745"/>
</a>
</g>
</g>
<!-- Node7&#45;&gt;Node6 -->
<g id="edge6_Node000006_Node000007" class="edge">
<title>Node7&#45;&gt;Node6</title>
<g id="a_edge6_Node000006_Node000007"><a xlink:title=" ">
<path fill="none" stroke="#63b8ff" d="M151.5,-734.71C151.5,-726.12 151.5,-717.47 151.5,-709.14"/>
<polygon fill="none" stroke="#63b8ff" points="148,-734.75 151.5,-744.75 155,-734.75 148,-734.75"/>
</a>
</g>
</g>
<!-- Node8 -->
<g id="Node000008" class="node">
<title>Node8</title>
<g id="a_Node000008"><a xlink:href="classBPMN_1_1Element.html" target="_top" xlink:title="Abstract base class for all elements in a BPMN model.">
<polygon fill="white" stroke="transparent" points="194.5,-1029 108.5,-1029 108.5,-920 194.5,-920 194.5,-1029"/>
<text text-anchor="start" x="113.5" y="-1016.5" font-family="Helvetica,sans-Serif" font-size="10.00">BPMN::Element</text>
<text text-anchor="start" x="149.5" y="-1001.5" font-family="Helvetica,sans-Serif" font-size="10.00"> </text>
<text text-anchor="start" x="113.5" y="-986.5" font-family="Helvetica,sans-Serif" font-size="10.00">+</text>
<text text-anchor="start" x="127.5" y="-986.5" font-family="Helvetica,sans-Serif" font-size="10.00">~Element()</text>
<text text-anchor="start" x="113.5" y="-971.5" font-family="Helvetica,sans-Serif" font-size="10.00">+</text>
<text text-anchor="start" x="127.5" y="-971.5" font-family="Helvetica,sans-Serif" font-size="10.00">represents()</text>
<text text-anchor="start" x="113.5" y="-956.5" font-family="Helvetica,sans-Serif" font-size="10.00">+</text>
<text text-anchor="start" x="127.5" y="-956.5" font-family="Helvetica,sans-Serif" font-size="10.00">represents()</text>
<text text-anchor="start" x="113.5" y="-941.5" font-family="Helvetica,sans-Serif" font-size="10.00">+</text>
<text text-anchor="start" x="127.5" y="-941.5" font-family="Helvetica,sans-Serif" font-size="10.00">as()</text>
<text text-anchor="start" x="113.5" y="-926.5" font-family="Helvetica,sans-Serif" font-size="10.00">+</text>
<text text-anchor="start" x="127.5" y="-926.5" font-family="Helvetica,sans-Serif" font-size="10.00">as()</text>
<polygon fill="#666666" stroke="#666666" points="108.5,-1011.5 108.5,-1011.5 194.5,-1011.5 194.5,-1011.5 108.5,-1011.5"/>
<polygon fill="#666666" stroke="#666666" points="108.5,-996.5 108.5,-996.5 194.5,-996.5 194.5,-996.5 108.5,-996.5"/>
<polygon fill="none" stroke="#666666" points="108.5,-920 108.5,-1029 194.5,-1029 194.5,-920 108.5,-920"/>
</a>
</g>
</g>
<!-- Node8&#45;&gt;Node7 -->
<g id="edge7_Node000007_Node000008" class="edge">
<title>Node8&#45;&gt;Node7</title>
<g id="a_edge7_Node000007_Node000008"><a xlink:title=" ">
<path fill="none" stroke="#63b8ff" d="M151.5,-909.55C151.5,-901.23 151.5,-892.67 151.5,-884.28"/>
<polygon fill="none" stroke="#63b8ff" points="148,-909.57 151.5,-919.57 155,-909.57 148,-909.57"/>
</a>
</g>
</g>
</g>
</svg>
