<?xml version="1.0" encoding="UTF-8" standalone="no"?>
<!DOCTYPE svg PUBLIC "-//W3C//DTD SVG 1.1//EN"
 "http://www.w3.org/Graphics/SVG/1.1/DTD/svg11.dtd">
<!-- Generated by graphviz version 2.43.0 (0)
 -->
<!-- Title: XML::bpmn::tArtifact Pages: 1 -->
<svg width="582pt" height="761pt"
 viewBox="0.00 0.00 582.00 761.00" xmlns="http://www.w3.org/2000/svg" xmlns:xlink="http://www.w3.org/1999/xlink">
<g id="graph0" class="graph" transform="scale(1 1) rotate(0) translate(4 757)">
<title>XML::bpmn::tArtifact</title>
<!-- Node1 -->
<g id="node1" class="node">
<title>Node1</title>
<g id="a_node1"><a xlink:title=" ">
<polygon fill="#bfbfbf" stroke="black" points="213,-221.5 213,-278.5 330,-278.5 330,-221.5 213,-221.5"/>
<text text-anchor="middle" x="271.5" y="-266.5" font-family="Helvetica,sans-Serif" font-size="10.00">XML::bpmn::tArtifact</text>
<polyline fill="none" stroke="black" points="213,-259.5 330,-259.5 "/>
<text text-anchor="start" x="221" y="-247.5" font-family="Helvetica,sans-Serif" font-size="10.00">+ defaults</text>
<polyline fill="none" stroke="black" points="213,-240.5 330,-240.5 "/>
<text text-anchor="start" x="221" y="-228.5" font-family="Helvetica,sans-Serif" font-size="10.00"># tArtifact()</text>
</a>
</g>
</g>
<!-- Node4 -->
<g id="node4" class="node">
<title>Node4</title>
<g id="a_node4"><a xlink:href="classXML_1_1bpmn_1_1artifact.html" target="_top" xlink:title=" ">
<polygon fill="none" stroke="black" points="0,-111 0,-168 113,-168 113,-111 0,-111"/>
<text text-anchor="middle" x="56.5" y="-156" font-family="Helvetica,sans-Serif" font-size="10.00">XML::bpmn::artifact</text>
<polyline fill="none" stroke="black" points="0,-149 113,-149 "/>
<text text-anchor="start" x="8" y="-137" font-family="Helvetica,sans-Serif" font-size="10.00">+ defaults</text>
<polyline fill="none" stroke="black" points="0,-130 113,-130 "/>
<text text-anchor="start" x="8" y="-118" font-family="Helvetica,sans-Serif" font-size="10.00"># artifact()</text>
</a>
</g>
</g>
<!-- Node1&#45;&gt;Node4 -->
<g id="edge3" class="edge">
<title>Node1&#45;&gt;Node4</title>
<path fill="none" stroke="midnightblue" d="M203.44,-223.28C177.28,-212.55 147.48,-199.25 121.5,-185 112.39,-180 102.96,-174.05 94.2,-168.15"/>
<polygon fill="none" stroke="midnightblue" points="202.32,-226.61 212.9,-227.12 204.95,-220.12 202.32,-226.61"/>
</g>
<!-- Node5 -->
<g id="node5" class="node">
<title>Node5</title>
<g id="a_node5"><a xlink:href="classXML_1_1bpmn_1_1tAssociation.html" target="_top" xlink:title=" ">
<polygon fill="none" stroke="black" points="131,-94.5 131,-184.5 268,-184.5 268,-94.5 131,-94.5"/>
<text text-anchor="middle" x="199.5" y="-172.5" font-family="Helvetica,sans-Serif" font-size="10.00">XML::bpmn::tAssociation</text>
<polyline fill="none" stroke="black" points="131,-165.5 268,-165.5 "/>
<text text-anchor="start" x="139" y="-153.5" font-family="Helvetica,sans-Serif" font-size="10.00">+ sourceRef</text>
<text text-anchor="start" x="139" y="-142.5" font-family="Helvetica,sans-Serif" font-size="10.00">+ targetRef</text>
<text text-anchor="start" x="139" y="-131.5" font-family="Helvetica,sans-Serif" font-size="10.00">+ associationDirection</text>
<text text-anchor="start" x="139" y="-120.5" font-family="Helvetica,sans-Serif" font-size="10.00">+ defaults</text>
<polyline fill="none" stroke="black" points="131,-113.5 268,-113.5 "/>
<text text-anchor="start" x="139" y="-101.5" font-family="Helvetica,sans-Serif" font-size="10.00"># tAssociation()</text>
</a>
</g>
</g>
<!-- Node1&#45;&gt;Node5 -->
<g id="edge4" class="edge">
<title>Node1&#45;&gt;Node5</title>
<path fill="none" stroke="midnightblue" d="M247.55,-212.91C241.52,-203.83 234.99,-193.98 228.73,-184.55"/>
<polygon fill="none" stroke="midnightblue" points="244.7,-214.94 253.15,-221.34 250.53,-211.07 244.7,-214.94"/>
</g>
<!-- Node7 -->
<g id="node7" class="node">
<title>Node7</title>
<g id="a_node7"><a xlink:href="classXML_1_1bpmn_1_1tGroup.html" target="_top" xlink:title=" ">
<polygon fill="none" stroke="black" points="286.5,-105.5 286.5,-173.5 400.5,-173.5 400.5,-105.5 286.5,-105.5"/>
<text text-anchor="middle" x="343.5" y="-161.5" font-family="Helvetica,sans-Serif" font-size="10.00">XML::bpmn::tGroup</text>
<polyline fill="none" stroke="black" points="286.5,-154.5 400.5,-154.5 "/>
<text text-anchor="start" x="294.5" y="-142.5" font-family="Helvetica,sans-Serif" font-size="10.00">+ categoryValueRef</text>
<text text-anchor="start" x="294.5" y="-131.5" font-family="Helvetica,sans-Serif" font-size="10.00">+ defaults</text>
<polyline fill="none" stroke="black" points="286.5,-124.5 400.5,-124.5 "/>
<text text-anchor="start" x="294.5" y="-112.5" font-family="Helvetica,sans-Serif" font-size="10.00"># tGroup()</text>
</a>
</g>
</g>
<!-- Node1&#45;&gt;Node7 -->
<g id="edge6" class="edge">
<title>Node1&#45;&gt;Node7</title>
<path fill="none" stroke="midnightblue" d="M295.5,-212.83C303.93,-200.13 313.34,-185.94 321.59,-173.52"/>
<polygon fill="none" stroke="midnightblue" points="292.47,-211.07 289.85,-221.34 298.3,-214.94 292.47,-211.07"/>
</g>
<!-- Node9 -->
<g id="node9" class="node">
<title>Node9</title>
<g id="a_node9"><a xlink:href="classXML_1_1bpmn_1_1tTextAnnotation.html" target="_top" xlink:title=" ">
<polygon fill="none" stroke="black" points="419,-100 419,-179 574,-179 574,-100 419,-100"/>
<text text-anchor="middle" x="496.5" y="-167" font-family="Helvetica,sans-Serif" font-size="10.00">XML::bpmn::tTextAnnotation</text>
<polyline fill="none" stroke="black" points="419,-160 574,-160 "/>
<text text-anchor="start" x="427" y="-148" font-family="Helvetica,sans-Serif" font-size="10.00">+ text</text>
<text text-anchor="start" x="427" y="-137" font-family="Helvetica,sans-Serif" font-size="10.00">+ textFormat</text>
<text text-anchor="start" x="427" y="-126" font-family="Helvetica,sans-Serif" font-size="10.00">+ defaults</text>
<polyline fill="none" stroke="black" points="419,-119 574,-119 "/>
<text text-anchor="start" x="427" y="-107" font-family="Helvetica,sans-Serif" font-size="10.00"># tTextAnnotation()</text>
</a>
</g>
</g>
<!-- Node1&#45;&gt;Node9 -->
<g id="edge8" class="edge">
<title>Node1&#45;&gt;Node9</title>
<path fill="none" stroke="midnightblue" d="M339.27,-218.2C361.71,-207.84 386.76,-196.09 409.5,-185 413.47,-183.07 417.52,-181.07 421.61,-179.04"/>
<polygon fill="none" stroke="midnightblue" points="337.77,-215.04 330.15,-222.4 340.7,-221.4 337.77,-215.04"/>
</g>
<!-- Node2 -->
<g id="node2" class="node">
<title>Node2</title>
<g id="a_node2"><a xlink:href="classXML_1_1bpmn_1_1tBaseElement.html" target="_top" xlink:title=" ">
<polygon fill="none" stroke="black" points="198.5,-315.5 198.5,-405.5 344.5,-405.5 344.5,-315.5 198.5,-315.5"/>
<text text-anchor="middle" x="271.5" y="-393.5" font-family="Helvetica,sans-Serif" font-size="10.00">XML::bpmn::tBaseElement</text>
<polyline fill="none" stroke="black" points="198.5,-386.5 344.5,-386.5 "/>
<text text-anchor="start" x="206.5" y="-374.5" font-family="Helvetica,sans-Serif" font-size="10.00">+ documentation</text>
<text text-anchor="start" x="206.5" y="-363.5" font-family="Helvetica,sans-Serif" font-size="10.00">+ extensionElements</text>
<text text-anchor="start" x="206.5" y="-352.5" font-family="Helvetica,sans-Serif" font-size="10.00">+ id</text>
<text text-anchor="start" x="206.5" y="-341.5" font-family="Helvetica,sans-Serif" font-size="10.00">+ defaults</text>
<polyline fill="none" stroke="black" points="198.5,-334.5 344.5,-334.5 "/>
<text text-anchor="start" x="206.5" y="-322.5" font-family="Helvetica,sans-Serif" font-size="10.00"># tBaseElement()</text>
</a>
</g>
</g>
<!-- Node2&#45;&gt;Node1 -->
<g id="edge1" class="edge">
<title>Node2&#45;&gt;Node1</title>
<path fill="none" stroke="midnightblue" d="M271.5,-305.35C271.5,-296.07 271.5,-286.79 271.5,-278.59"/>
<polygon fill="none" stroke="midnightblue" points="268,-305.37 271.5,-315.37 275,-305.37 268,-305.37"/>
</g>
<!-- Node3 -->
<g id="node3" class="node">
<title>Node3</title>
<g id="a_node3"><a xlink:href="classXML_1_1XMLObject.html" target="_top" xlink:title="A class representing a node in an XML&#45;tree.">
<polygon fill="none" stroke="black" points="208.5,-442.5 208.5,-752.5 334.5,-752.5 334.5,-442.5 208.5,-442.5"/>
<text text-anchor="middle" x="271.5" y="-740.5" font-family="Helvetica,sans-Serif" font-size="10.00">XML::XMLObject</text>
<polyline fill="none" stroke="black" points="208.5,-733.5 334.5,-733.5 "/>
<text text-anchor="start" x="216.5" y="-721.5" font-family="Helvetica,sans-Serif" font-size="10.00">+ xmlns</text>
<text text-anchor="start" x="216.5" y="-710.5" font-family="Helvetica,sans-Serif" font-size="10.00">+ className</text>
<text text-anchor="start" x="216.5" y="-699.5" font-family="Helvetica,sans-Serif" font-size="10.00">+ prefix</text>
<text text-anchor="start" x="216.5" y="-688.5" font-family="Helvetica,sans-Serif" font-size="10.00">+ elementName</text>
<text text-anchor="start" x="216.5" y="-677.5" font-family="Helvetica,sans-Serif" font-size="10.00">+ textContent</text>
<text text-anchor="start" x="216.5" y="-666.5" font-family="Helvetica,sans-Serif" font-size="10.00">+ children</text>
<text text-anchor="start" x="216.5" y="-655.5" font-family="Helvetica,sans-Serif" font-size="10.00">+ attributes</text>
<text text-anchor="start" x="216.5" y="-644.5" font-family="Helvetica,sans-Serif" font-size="10.00">+ defaults</text>
<text text-anchor="start" x="216.5" y="-633.5" font-family="Helvetica,sans-Serif" font-size="10.00"># factory</text>
<polyline fill="none" stroke="black" points="208.5,-626.5 334.5,-626.5 "/>
<text text-anchor="start" x="216.5" y="-614.5" font-family="Helvetica,sans-Serif" font-size="10.00">+ ~XMLObject()</text>
<text text-anchor="start" x="216.5" y="-603.5" font-family="Helvetica,sans-Serif" font-size="10.00">+ is()</text>
<text text-anchor="start" x="216.5" y="-592.5" font-family="Helvetica,sans-Serif" font-size="10.00">+ is()</text>
<text text-anchor="start" x="216.5" y="-581.5" font-family="Helvetica,sans-Serif" font-size="10.00">+ get()</text>
<text text-anchor="start" x="216.5" y="-570.5" font-family="Helvetica,sans-Serif" font-size="10.00">+ get()</text>
<text text-anchor="start" x="216.5" y="-559.5" font-family="Helvetica,sans-Serif" font-size="10.00">+ find()</text>
<text text-anchor="start" x="216.5" y="-548.5" font-family="Helvetica,sans-Serif" font-size="10.00">+ find()</text>
<text text-anchor="start" x="216.5" y="-537.5" font-family="Helvetica,sans-Serif" font-size="10.00">+ stringify()</text>
<text text-anchor="start" x="216.5" y="-526.5" font-family="Helvetica,sans-Serif" font-size="10.00">+ getRequiredChild()</text>
<text text-anchor="start" x="216.5" y="-515.5" font-family="Helvetica,sans-Serif" font-size="10.00">+ getOptionalChild()</text>
<text text-anchor="start" x="216.5" y="-504.5" font-family="Helvetica,sans-Serif" font-size="10.00">and 6 more...</text>
<text text-anchor="start" x="216.5" y="-493.5" font-family="Helvetica,sans-Serif" font-size="10.00">+ createFromStream()</text>
<text text-anchor="start" x="216.5" y="-482.5" font-family="Helvetica,sans-Serif" font-size="10.00">+ createFromString()</text>
<text text-anchor="start" x="216.5" y="-471.5" font-family="Helvetica,sans-Serif" font-size="10.00">+ createFromFile()</text>
<text text-anchor="start" x="216.5" y="-460.5" font-family="Helvetica,sans-Serif" font-size="10.00"># XMLObject()</text>
<text text-anchor="start" x="216.5" y="-449.5" font-family="Helvetica,sans-Serif" font-size="10.00"># createObject()</text>
</a>
</g>
</g>
<!-- Node3&#45;&gt;Node2 -->
<g id="edge2" class="edge">
<title>Node3&#45;&gt;Node2</title>
<path fill="none" stroke="midnightblue" d="M271.5,-432.35C271.5,-422.89 271.5,-413.91 271.5,-405.72"/>
<polygon fill="none" stroke="midnightblue" points="268,-432.37 271.5,-442.37 275,-432.37 268,-432.37"/>
</g>
<!-- Node6 -->
<g id="node6" class="node">
<title>Node6</title>
<g id="a_node6"><a xlink:href="classXML_1_1bpmn_1_1association.html" target="_top" xlink:title=" ">
<polygon fill="none" stroke="black" points="133,-0.5 133,-57.5 266,-57.5 266,-0.5 133,-0.5"/>
<text text-anchor="middle" x="199.5" y="-45.5" font-family="Helvetica,sans-Serif" font-size="10.00">XML::bpmn::association</text>
<polyline fill="none" stroke="black" points="133,-38.5 266,-38.5 "/>
<text text-anchor="start" x="141" y="-26.5" font-family="Helvetica,sans-Serif" font-size="10.00">+ defaults</text>
<polyline fill="none" stroke="black" points="133,-19.5 266,-19.5 "/>
<text text-anchor="start" x="141" y="-7.5" font-family="Helvetica,sans-Serif" font-size="10.00"># association()</text>
</a>
</g>
</g>
<!-- Node5&#45;&gt;Node6 -->
<g id="edge5" class="edge">
<title>Node5&#45;&gt;Node6</title>
<path fill="none" stroke="midnightblue" d="M199.5,-84.35C199.5,-75.07 199.5,-65.79 199.5,-57.59"/>
<polygon fill="none" stroke="midnightblue" points="196,-84.37 199.5,-94.37 203,-84.37 196,-84.37"/>
</g>
<!-- Node8 -->
<g id="node8" class="node">
<title>Node8</title>
<g id="a_node8"><a xlink:href="classXML_1_1bpmn_1_1group.html" target="_top" xlink:title=" ">
<polygon fill="none" stroke="black" points="291,-0.5 291,-57.5 396,-57.5 396,-0.5 291,-0.5"/>
<text text-anchor="middle" x="343.5" y="-45.5" font-family="Helvetica,sans-Serif" font-size="10.00">XML::bpmn::group</text>
<polyline fill="none" stroke="black" points="291,-38.5 396,-38.5 "/>
<text text-anchor="start" x="299" y="-26.5" font-family="Helvetica,sans-Serif" font-size="10.00">+ defaults</text>
<polyline fill="none" stroke="black" points="291,-19.5 396,-19.5 "/>
<text text-anchor="start" x="299" y="-7.5" font-family="Helvetica,sans-Serif" font-size="10.00"># group()</text>
</a>
</g>
</g>
<!-- Node7&#45;&gt;Node8 -->
<g id="edge7" class="edge">
<title>Node7&#45;&gt;Node8</title>
<path fill="none" stroke="midnightblue" d="M343.5,-95.06C343.5,-82.51 343.5,-69.15 343.5,-57.83"/>
<polygon fill="none" stroke="midnightblue" points="340,-95.36 343.5,-105.36 347,-95.36 340,-95.36"/>
</g>
<!-- Node10 -->
<g id="node10" class="node">
<title>Node10</title>
<g id="a_node10"><a xlink:href="classXML_1_1bpmn_1_1textAnnotation.html" target="_top" xlink:title=" ">
<polygon fill="none" stroke="black" points="421.5,-0.5 421.5,-57.5 571.5,-57.5 571.5,-0.5 421.5,-0.5"/>
<text text-anchor="middle" x="496.5" y="-45.5" font-family="Helvetica,sans-Serif" font-size="10.00">XML::bpmn::textAnnotation</text>
<polyline fill="none" stroke="black" points="421.5,-38.5 571.5,-38.5 "/>
<text text-anchor="start" x="429.5" y="-26.5" font-family="Helvetica,sans-Serif" font-size="10.00">+ defaults</text>
<polyline fill="none" stroke="black" points="421.5,-19.5 571.5,-19.5 "/>
<text text-anchor="start" x="429.5" y="-7.5" font-family="Helvetica,sans-Serif" font-size="10.00"># textAnnotation()</text>
</a>
</g>
</g>
<!-- Node9&#45;&gt;Node10 -->
<g id="edge9" class="edge">
<title>Node9&#45;&gt;Node10</title>
<path fill="none" stroke="midnightblue" d="M496.5,-89.89C496.5,-78.8 496.5,-67.38 496.5,-57.53"/>
<polygon fill="none" stroke="midnightblue" points="493,-89.94 496.5,-99.94 500,-89.94 493,-89.94"/>
</g>
</g>
</svg>
