<?xml version="1.0" encoding="UTF-8" standalone="no"?>
<!DOCTYPE svg PUBLIC "-//W3C//DTD SVG 1.1//EN"
 "http://www.w3.org/Graphics/SVG/1.1/DTD/svg11.dtd">
<!-- Generated by graphviz version 2.43.0 (0)
 -->
<!-- Title: BPMN::AdHocSubProcess Pages: 1 -->
<svg width="296pt" height="1047pt"
 viewBox="0.00 0.00 295.50 1047.00" xmlns="http://www.w3.org/2000/svg" xmlns:xlink="http://www.w3.org/1999/xlink">
<g id="graph0" class="graph" transform="scale(1 1) rotate(0) translate(4 1043)">
<title>BPMN::AdHocSubProcess</title>
<!-- Node1 -->
<g id="Node000001" class="node">
<title>Node1</title>
<g id="a_Node000001"><a xlink:title=" ">
<polygon fill="#999999" stroke="transparent" points="190,-64 57,-64 57,0 190,0 190,-64"/>
<text text-anchor="start" x="62.5" y="-52" font-family="Helvetica,sans-Serif" font-size="10.00">BPMN::AdHocSubProcess</text>
<text text-anchor="start" x="65.5" y="-37" font-family="Helvetica,sans-Serif" font-size="10.00">+</text>
<text text-anchor="start" x="82.5" y="-37" font-family="Helvetica,sans-Serif" font-size="10.00">isSequential</text>
<text text-anchor="start" x="65.5" y="-22" font-family="Helvetica,sans-Serif" font-size="10.00">+</text>
<text text-anchor="start" x="82.5" y="-22" font-family="Helvetica,sans-Serif" font-size="10.00">element</text>
<text text-anchor="start" x="65.5" y="-7" font-family="Helvetica,sans-Serif" font-size="10.00">+</text>
<text text-anchor="start" x="82.5" y="-7" font-family="Helvetica,sans-Serif" font-size="10.00">AdHocSubProcess()</text>
<polygon fill="#666666" stroke="#666666" points="57.5,-47 57.5,-47 190.5,-47 190.5,-47 57.5,-47"/>
<polygon fill="#666666" stroke="#666666" points="57.5,-17 57.5,-17 80.5,-17 80.5,-17 57.5,-17"/>
<polygon fill="#666666" stroke="#666666" points="80.5,-17 80.5,-17 190.5,-17 190.5,-17 80.5,-17"/>
<polygon fill="none" stroke="#666666" points="57,0 57,-64 190,-64 190,0 57,0"/>
</a>
</g>
</g>
<!-- Node2 -->
<g id="Node000002" class="node">
<title>Node2</title>
<g id="a_Node000002"><a xlink:href="classBPMN_1_1Activity.html" target="_top" xlink:title=" ">
<polygon fill="white" stroke="transparent" points="138,-209 23,-209 23,-100 138,-100 138,-209"/>
<text text-anchor="start" x="44.5" y="-196.5" font-family="Helvetica,sans-Serif" font-size="10.00">BPMN::Activity</text>
<text text-anchor="start" x="27.5" y="-181.5" font-family="Helvetica,sans-Serif" font-size="10.00">+</text>
<text text-anchor="start" x="40.5" y="-181.5" font-family="Helvetica,sans-Serif" font-size="10.00">boundaryEvents</text>
<text text-anchor="start" x="27.5" y="-166.5" font-family="Helvetica,sans-Serif" font-size="10.00">+</text>
<text text-anchor="start" x="40.5" y="-166.5" font-family="Helvetica,sans-Serif" font-size="10.00">compensatedBy</text>
<text text-anchor="start" x="27.5" y="-151.5" font-family="Helvetica,sans-Serif" font-size="10.00">+</text>
<text text-anchor="start" x="40.5" y="-151.5" font-family="Helvetica,sans-Serif" font-size="10.00">isForCompensation</text>
<text text-anchor="start" x="27.5" y="-136.5" font-family="Helvetica,sans-Serif" font-size="10.00">+</text>
<text text-anchor="start" x="40.5" y="-136.5" font-family="Helvetica,sans-Serif" font-size="10.00">loopCharacteristics</text>
<text text-anchor="start" x="27.5" y="-121.5" font-family="Helvetica,sans-Serif" font-size="10.00">+</text>
<text text-anchor="start" x="40.5" y="-121.5" font-family="Helvetica,sans-Serif" font-size="10.00">element</text>
<text text-anchor="start" x="27.5" y="-106.5" font-family="Helvetica,sans-Serif" font-size="10.00">+</text>
<text text-anchor="start" x="40.5" y="-106.5" font-family="Helvetica,sans-Serif" font-size="10.00">Activity()</text>
<polygon fill="#666666" stroke="#666666" points="23.5,-191.5 23.5,-191.5 138.5,-191.5 138.5,-191.5 23.5,-191.5"/>
<polygon fill="#666666" stroke="#666666" points="23.5,-116.5 23.5,-116.5 38.5,-116.5 38.5,-116.5 23.5,-116.5"/>
<polygon fill="#666666" stroke="#666666" points="38.5,-116.5 38.5,-116.5 138.5,-116.5 138.5,-116.5 38.5,-116.5"/>
<polygon fill="none" stroke="#666666" points="23,-100 23,-209 138,-209 138,-100 23,-100"/>
</a>
</g>
</g>
<!-- Node2&#45;&gt;Node1 -->
<g id="edge1_Node000001_Node000002" class="edge">
<title>Node2&#45;&gt;Node1</title>
<g id="a_edge1_Node000001_Node000002"><a xlink:title=" ">
<path fill="none" stroke="#63b8ff" d="M102.99,-90.47C106.23,-81.38 109.45,-72.38 112.34,-64.28"/>
<polygon fill="none" stroke="#63b8ff" points="99.68,-89.35 99.61,-99.95 106.27,-91.7 99.68,-89.35"/>
</a>
</g>
</g>
<!-- Node3 -->
<g id="Node000003" class="node">
<title>Node3</title>
<g id="a_Node000003"><a xlink:href="classBPMN_1_1FlowNode.html" target="_top" xlink:title="Base class for BPMN elements that may contain incoming and outgoing sequence flows.">
<polygon fill="white" stroke="transparent" points="95,-391.5 0,-391.5 0,-297.5 95,-297.5 95,-391.5"/>
<text text-anchor="start" x="5.5" y="-379.5" font-family="Helvetica,sans-Serif" font-size="10.00">BPMN::FlowNode</text>
<text text-anchor="start" x="8.5" y="-364.5" font-family="Helvetica,sans-Serif" font-size="10.00">+</text>
<text text-anchor="start" x="25.5" y="-364.5" font-family="Helvetica,sans-Serif" font-size="10.00">element</text>
<text text-anchor="start" x="8.5" y="-349.5" font-family="Helvetica,sans-Serif" font-size="10.00">+</text>
<text text-anchor="start" x="25.5" y="-349.5" font-family="Helvetica,sans-Serif" font-size="10.00">name</text>
<text text-anchor="start" x="8.5" y="-334.5" font-family="Helvetica,sans-Serif" font-size="10.00">+</text>
<text text-anchor="start" x="25.5" y="-334.5" font-family="Helvetica,sans-Serif" font-size="10.00">incoming</text>
<text text-anchor="start" x="8.5" y="-319.5" font-family="Helvetica,sans-Serif" font-size="10.00">+</text>
<text text-anchor="start" x="25.5" y="-319.5" font-family="Helvetica,sans-Serif" font-size="10.00">outgoing</text>
<text text-anchor="start" x="8.5" y="-304.5" font-family="Helvetica,sans-Serif" font-size="10.00">+</text>
<text text-anchor="start" x="25.5" y="-304.5" font-family="Helvetica,sans-Serif" font-size="10.00">FlowNode()</text>
<polygon fill="#666666" stroke="#666666" points="0.5,-374.5 0.5,-374.5 95.5,-374.5 95.5,-374.5 0.5,-374.5"/>
<polygon fill="#666666" stroke="#666666" points="0.5,-314.5 0.5,-314.5 23.5,-314.5 23.5,-314.5 0.5,-314.5"/>
<polygon fill="#666666" stroke="#666666" points="23.5,-314.5 23.5,-314.5 95.5,-314.5 95.5,-314.5 23.5,-314.5"/>
<polygon fill="none" stroke="#666666" points="0,-297.5 0,-391.5 95,-391.5 95,-297.5 0,-297.5"/>
</a>
</g>
</g>
<!-- Node3&#45;&gt;Node2 -->
<g id="edge2_Node000002_Node000003" class="edge">
<title>Node3&#45;&gt;Node2</title>
<g id="a_edge2_Node000002_Node000003"><a xlink:title=" ">
<path fill="none" stroke="#63b8ff" d="M57.41,-287.07C61.74,-262.35 66.81,-233.48 71.09,-209.09"/>
<polygon fill="none" stroke="#63b8ff" points="53.94,-286.57 55.66,-297.03 60.83,-287.78 53.94,-286.57"/>
</a>
</g>
</g>
<!-- Node4 -->
<g id="Node000004" class="node">
<title>Node4</title>
<g id="a_Node000004"><a xlink:href="classBPMN_1_1ChildNode.html" target="_top" xlink:title="Base class for BPMN elements within a Scope.">
<polygon fill="white" stroke="transparent" points="133.5,-559 37.5,-559 37.5,-480 133.5,-480 133.5,-559"/>
<text text-anchor="start" x="42.5" y="-546.5" font-family="Helvetica,sans-Serif" font-size="10.00">BPMN::ChildNode</text>
<text text-anchor="start" x="45.5" y="-531.5" font-family="Helvetica,sans-Serif" font-size="10.00">+</text>
<text text-anchor="start" x="62.5" y="-531.5" font-family="Helvetica,sans-Serif" font-size="10.00">parent</text>
<text text-anchor="start" x="45.5" y="-516.5" font-family="Helvetica,sans-Serif" font-size="10.00">+</text>
<text text-anchor="start" x="62.5" y="-516.5" font-family="Helvetica,sans-Serif" font-size="10.00">ChildNode()</text>
<text text-anchor="start" x="45.5" y="-501.5" font-family="Helvetica,sans-Serif" font-size="10.00">+</text>
<text text-anchor="start" x="62.5" y="-501.5" font-family="Helvetica,sans-Serif" font-size="10.00">ancestor()</text>
<text text-anchor="start" x="45.5" y="-486.5" font-family="Helvetica,sans-Serif" font-size="10.00">+</text>
<text text-anchor="start" x="62.5" y="-486.5" font-family="Helvetica,sans-Serif" font-size="10.00">ancestor()</text>
<polygon fill="#666666" stroke="#666666" points="37.5,-541.5 37.5,-541.5 133.5,-541.5 133.5,-541.5 37.5,-541.5"/>
<polygon fill="#666666" stroke="#666666" points="37.5,-526.5 37.5,-526.5 60.5,-526.5 60.5,-526.5 37.5,-526.5"/>
<polygon fill="#666666" stroke="#666666" points="60.5,-526.5 60.5,-526.5 133.5,-526.5 133.5,-526.5 60.5,-526.5"/>
<polygon fill="none" stroke="#666666" points="37.5,-480 37.5,-559 133.5,-559 133.5,-480 37.5,-480"/>
</a>
</g>
</g>
<!-- Node4&#45;&gt;Node3 -->
<g id="edge3_Node000003_Node000004" class="edge">
<title>Node4&#45;&gt;Node3</title>
<g id="a_edge3_Node000003_Node000004"><a xlink:title=" ">
<path fill="none" stroke="#63b8ff" d="M74.81,-469.85C69.43,-445.32 62.92,-415.72 57.62,-391.56"/>
<polygon fill="none" stroke="#63b8ff" points="71.41,-470.66 76.97,-479.68 78.25,-469.16 71.41,-470.66"/>
</a>
</g>
</g>
<!-- Node5 -->
<g id="Node000005" class="node">
<title>Node5</title>
<g id="a_Node000005"><a xlink:href="classBPMN_1_1Node.html" target="_top" xlink:title="Base class for all nodes in a BPMN model.">
<polygon fill="white" stroke="transparent" points="159,-719 88,-719 88,-595 159,-595 159,-719"/>
<text text-anchor="start" x="93.5" y="-707" font-family="Helvetica,sans-Serif" font-size="10.00">BPMN::Node</text>
<text text-anchor="start" x="93.5" y="-692" font-family="Helvetica,sans-Serif" font-size="10.00">+</text>
<text text-anchor="start" x="107.5" y="-692" font-family="Helvetica,sans-Serif" font-size="10.00">receiving</text>
<text text-anchor="start" x="93.5" y="-677" font-family="Helvetica,sans-Serif" font-size="10.00">+</text>
<text text-anchor="start" x="107.5" y="-677" font-family="Helvetica,sans-Serif" font-size="10.00">sending</text>
<text text-anchor="start" x="93.5" y="-662" font-family="Helvetica,sans-Serif" font-size="10.00">+</text>
<text text-anchor="start" x="107.5" y="-662" font-family="Helvetica,sans-Serif" font-size="10.00">Node()</text>
<text text-anchor="start" x="93.5" y="-647" font-family="Helvetica,sans-Serif" font-size="10.00">+</text>
<text text-anchor="start" x="107.5" y="-647" font-family="Helvetica,sans-Serif" font-size="10.00">find()</text>
<text text-anchor="start" x="93.5" y="-632" font-family="Helvetica,sans-Serif" font-size="10.00">+</text>
<text text-anchor="start" x="107.5" y="-632" font-family="Helvetica,sans-Serif" font-size="10.00">find()</text>
<text text-anchor="start" x="93.5" y="-617" font-family="Helvetica,sans-Serif" font-size="10.00">+</text>
<text text-anchor="start" x="107.5" y="-617" font-family="Helvetica,sans-Serif" font-size="10.00">find_all()</text>
<text text-anchor="start" x="93.5" y="-602" font-family="Helvetica,sans-Serif" font-size="10.00">+</text>
<text text-anchor="start" x="107.5" y="-602" font-family="Helvetica,sans-Serif" font-size="10.00">find_all()</text>
<polygon fill="#666666" stroke="#666666" points="88.5,-702 88.5,-702 159.5,-702 159.5,-702 88.5,-702"/>
<polygon fill="#666666" stroke="#666666" points="88.5,-672 88.5,-672 105.5,-672 105.5,-672 88.5,-672"/>
<polygon fill="#666666" stroke="#666666" points="105.5,-672 105.5,-672 159.5,-672 159.5,-672 105.5,-672"/>
<polygon fill="none" stroke="#666666" points="88,-595 88,-719 159,-719 159,-595 88,-595"/>
</a>
</g>
</g>
<!-- Node5&#45;&gt;Node4 -->
<g id="edge4_Node000004_Node000005" class="edge">
<title>Node5&#45;&gt;Node4</title>
<g id="a_edge4_Node000004_Node000005"><a xlink:title=" ">
<path fill="none" stroke="#63b8ff" d="M103.65,-585.22C101.12,-576.21 98.62,-567.27 96.31,-559.05"/>
<polygon fill="none" stroke="#63b8ff" points="100.32,-586.31 106.39,-594.99 107.06,-584.41 100.32,-586.31"/>
</a>
</g>
</g>
<!-- Node8 -->
<g id="Node000008" class="node">
<title>Node8</title>
<g id="a_Node000008"><a xlink:href="classBPMN_1_1Scope.html" target="_top" xlink:title="Base class for BPMN elements that may contain a ChildNode elements.">
<polygon fill="white" stroke="transparent" points="287.5,-444 113.5,-444 113.5,-245 287.5,-245 287.5,-444"/>
<text text-anchor="start" x="168" y="-431.5" font-family="Helvetica,sans-Serif" font-size="10.00">BPMN::Scope</text>
<text text-anchor="start" x="117.5" y="-416.5" font-family="Helvetica,sans-Serif" font-size="10.00">+</text>
<text text-anchor="start" x="130.5" y="-416.5" font-family="Helvetica,sans-Serif" font-size="10.00">childNodes</text>
<text text-anchor="start" x="117.5" y="-401.5" font-family="Helvetica,sans-Serif" font-size="10.00">+</text>
<text text-anchor="start" x="130.5" y="-401.5" font-family="Helvetica,sans-Serif" font-size="10.00">flowNodes</text>
<text text-anchor="start" x="117.5" y="-386.5" font-family="Helvetica,sans-Serif" font-size="10.00">+</text>
<text text-anchor="start" x="130.5" y="-386.5" font-family="Helvetica,sans-Serif" font-size="10.00">eventSubProcesses</text>
<text text-anchor="start" x="117.5" y="-371.5" font-family="Helvetica,sans-Serif" font-size="10.00">+</text>
<text text-anchor="start" x="130.5" y="-371.5" font-family="Helvetica,sans-Serif" font-size="10.00">startNodes</text>
<text text-anchor="start" x="117.5" y="-356.5" font-family="Helvetica,sans-Serif" font-size="10.00">+</text>
<text text-anchor="start" x="130.5" y="-356.5" font-family="Helvetica,sans-Serif" font-size="10.00">sequenceFlows</text>
<text text-anchor="start" x="117.5" y="-341.5" font-family="Helvetica,sans-Serif" font-size="10.00">+</text>
<text text-anchor="start" x="130.5" y="-341.5" font-family="Helvetica,sans-Serif" font-size="10.00">compensationActivities</text>
<text text-anchor="start" x="117.5" y="-326.5" font-family="Helvetica,sans-Serif" font-size="10.00">+</text>
<text text-anchor="start" x="130.5" y="-326.5" font-family="Helvetica,sans-Serif" font-size="10.00">compensationEventSubProcess</text>
<text text-anchor="start" x="117.5" y="-311.5" font-family="Helvetica,sans-Serif" font-size="10.00">+</text>
<text text-anchor="start" x="130.5" y="-311.5" font-family="Helvetica,sans-Serif" font-size="10.00">dataObjects</text>
<text text-anchor="start" x="117.5" y="-296.5" font-family="Helvetica,sans-Serif" font-size="10.00">+</text>
<text text-anchor="start" x="130.5" y="-296.5" font-family="Helvetica,sans-Serif" font-size="10.00">Scope()</text>
<text text-anchor="start" x="117.5" y="-281.5" font-family="Helvetica,sans-Serif" font-size="10.00">#</text>
<text text-anchor="start" x="130.5" y="-281.5" font-family="Helvetica,sans-Serif" font-size="10.00">add()</text>
<text text-anchor="start" x="117.5" y="-266.5" font-family="Helvetica,sans-Serif" font-size="10.00">#</text>
<text text-anchor="start" x="130.5" y="-266.5" font-family="Helvetica,sans-Serif" font-size="10.00">add()</text>
<text text-anchor="start" x="117.5" y="-251.5" font-family="Helvetica,sans-Serif" font-size="10.00">#</text>
<text text-anchor="start" x="130.5" y="-251.5" font-family="Helvetica,sans-Serif" font-size="10.00">add()</text>
<polygon fill="#666666" stroke="#666666" points="113.5,-426.5 113.5,-426.5 287.5,-426.5 287.5,-426.5 113.5,-426.5"/>
<polygon fill="#666666" stroke="#666666" points="113.5,-306.5 113.5,-306.5 128.5,-306.5 128.5,-306.5 113.5,-306.5"/>
<polygon fill="#666666" stroke="#666666" points="128.5,-306.5 128.5,-306.5 287.5,-306.5 287.5,-306.5 128.5,-306.5"/>
<polygon fill="none" stroke="#666666" points="113.5,-245 113.5,-444 287.5,-444 287.5,-245 113.5,-245"/>
</a>
</g>
</g>
<!-- Node5&#45;&gt;Node8 -->
<g id="edge8_Node000008_Node000005" class="edge">
<title>Node5&#45;&gt;Node8</title>
<g id="a_edge8_Node000008_Node000005"><a xlink:title=" ">
<path fill="none" stroke="#63b8ff" d="M141.14,-584.87C151.47,-543.21 164.67,-489.98 176,-444.3"/>
<polygon fill="none" stroke="#63b8ff" points="137.72,-584.11 138.71,-594.66 144.52,-585.79 137.72,-584.11"/>
</a>
</g>
</g>
<!-- Node6 -->
<g id="Node000006" class="node">
<title>Node6</title>
<g id="a_Node000006"><a xlink:href="classBPMN_1_1BaseElement.html" target="_top" xlink:title="Base class for all core BPMN elements.">
<polygon fill="white" stroke="transparent" points="181,-894 66,-894 66,-755 181,-755 181,-894"/>
<text text-anchor="start" x="74" y="-881.5" font-family="Helvetica,sans-Serif" font-size="10.00">BPMN::BaseElement</text>
<text text-anchor="start" x="70.5" y="-866.5" font-family="Helvetica,sans-Serif" font-size="10.00">+</text>
<text text-anchor="start" x="83.5" y="-866.5" font-family="Helvetica,sans-Serif" font-size="10.00">element</text>
<text text-anchor="start" x="70.5" y="-851.5" font-family="Helvetica,sans-Serif" font-size="10.00">+</text>
<text text-anchor="start" x="83.5" y="-851.5" font-family="Helvetica,sans-Serif" font-size="10.00">id</text>
<text text-anchor="start" x="70.5" y="-836.5" font-family="Helvetica,sans-Serif" font-size="10.00">+</text>
<text text-anchor="start" x="83.5" y="-836.5" font-family="Helvetica,sans-Serif" font-size="10.00">extensionElements</text>
<text text-anchor="start" x="70.5" y="-821.5" font-family="Helvetica,sans-Serif" font-size="10.00">+</text>
<text text-anchor="start" x="83.5" y="-821.5" font-family="Helvetica,sans-Serif" font-size="10.00">BaseElement()</text>
<text text-anchor="start" x="70.5" y="-806.5" font-family="Helvetica,sans-Serif" font-size="10.00">+</text>
<text text-anchor="start" x="83.5" y="-806.5" font-family="Helvetica,sans-Serif" font-size="10.00">is()</text>
<text text-anchor="start" x="70.5" y="-791.5" font-family="Helvetica,sans-Serif" font-size="10.00">+</text>
<text text-anchor="start" x="83.5" y="-791.5" font-family="Helvetica,sans-Serif" font-size="10.00">is()</text>
<text text-anchor="start" x="70.5" y="-776.5" font-family="Helvetica,sans-Serif" font-size="10.00">+</text>
<text text-anchor="start" x="83.5" y="-776.5" font-family="Helvetica,sans-Serif" font-size="10.00">get()</text>
<text text-anchor="start" x="70.5" y="-761.5" font-family="Helvetica,sans-Serif" font-size="10.00">+</text>
<text text-anchor="start" x="83.5" y="-761.5" font-family="Helvetica,sans-Serif" font-size="10.00">get()</text>
<polygon fill="#666666" stroke="#666666" points="66.5,-876.5 66.5,-876.5 181.5,-876.5 181.5,-876.5 66.5,-876.5"/>
<polygon fill="#666666" stroke="#666666" points="66.5,-831.5 66.5,-831.5 81.5,-831.5 81.5,-831.5 66.5,-831.5"/>
<polygon fill="#666666" stroke="#666666" points="81.5,-831.5 81.5,-831.5 181.5,-831.5 181.5,-831.5 81.5,-831.5"/>
<polygon fill="none" stroke="#666666" points="66,-755 66,-894 181,-894 181,-755 66,-755"/>
</a>
</g>
</g>
<!-- Node6&#45;&gt;Node5 -->
<g id="edge5_Node000005_Node000006" class="edge">
<title>Node6&#45;&gt;Node5</title>
<g id="a_edge5_Node000005_Node000006"><a xlink:title=" ">
<path fill="none" stroke="#63b8ff" d="M123.5,-744.71C123.5,-736.12 123.5,-727.47 123.5,-719.14"/>
<polygon fill="none" stroke="#63b8ff" points="120,-744.75 123.5,-754.75 127,-744.75 120,-744.75"/>
</a>
</g>
</g>
<!-- Node7 -->
<g id="Node000007" class="node">
<title>Node7</title>
<g id="a_Node000007"><a xlink:href="classBPMN_1_1Element.html" target="_top" xlink:title="Abstract base class for all elements in a BPMN model.">
<polygon fill="white" stroke="transparent" points="166.5,-1039 80.5,-1039 80.5,-930 166.5,-930 166.5,-1039"/>
<text text-anchor="start" x="85.5" y="-1026.5" font-family="Helvetica,sans-Serif" font-size="10.00">BPMN::Element</text>
<text text-anchor="start" x="121.5" y="-1011.5" font-family="Helvetica,sans-Serif" font-size="10.00"> </text>
<text text-anchor="start" x="85.5" y="-996.5" font-family="Helvetica,sans-Serif" font-size="10.00">+</text>
<text text-anchor="start" x="99.5" y="-996.5" font-family="Helvetica,sans-Serif" font-size="10.00">~Element()</text>
<text text-anchor="start" x="85.5" y="-981.5" font-family="Helvetica,sans-Serif" font-size="10.00">+</text>
<text text-anchor="start" x="99.5" y="-981.5" font-family="Helvetica,sans-Serif" font-size="10.00">represents()</text>
<text text-anchor="start" x="85.5" y="-966.5" font-family="Helvetica,sans-Serif" font-size="10.00">+</text>
<text text-anchor="start" x="99.5" y="-966.5" font-family="Helvetica,sans-Serif" font-size="10.00">represents()</text>
<text text-anchor="start" x="85.5" y="-951.5" font-family="Helvetica,sans-Serif" font-size="10.00">+</text>
<text text-anchor="start" x="99.5" y="-951.5" font-family="Helvetica,sans-Serif" font-size="10.00">as()</text>
<text text-anchor="start" x="85.5" y="-936.5" font-family="Helvetica,sans-Serif" font-size="10.00">+</text>
<text text-anchor="start" x="99.5" y="-936.5" font-family="Helvetica,sans-Serif" font-size="10.00">as()</text>
<polygon fill="#666666" stroke="#666666" points="80.5,-1021.5 80.5,-1021.5 166.5,-1021.5 166.5,-1021.5 80.5,-1021.5"/>
<polygon fill="#666666" stroke="#666666" points="80.5,-1006.5 80.5,-1006.5 166.5,-1006.5 166.5,-1006.5 80.5,-1006.5"/>
<polygon fill="none" stroke="#666666" points="80.5,-930 80.5,-1039 166.5,-1039 166.5,-930 80.5,-930"/>
</a>
</g>
</g>
<!-- Node7&#45;&gt;Node6 -->
<g id="edge6_Node000006_Node000007" class="edge">
<title>Node7&#45;&gt;Node6</title>
<g id="a_edge6_Node000006_Node000007"><a xlink:title=" ">
<path fill="none" stroke="#63b8ff" d="M123.5,-919.55C123.5,-911.23 123.5,-902.67 123.5,-894.28"/>
<polygon fill="none" stroke="#63b8ff" points="120,-919.57 123.5,-929.57 127,-919.57 120,-919.57"/>
</a>
</g>
</g>
<!-- Node8&#45;&gt;Node1 -->
<g id="edge7_Node000001_Node000008" class="edge">
<title>Node8&#45;&gt;Node1</title>
<g id="a_edge7_Node000001_Node000008"><a xlink:title=" ">
<path fill="none" stroke="#63b8ff" d="M179.18,-235.05C170.14,-192.65 158.83,-143.79 146.5,-100 143.17,-88.16 138.93,-75.35 135,-64.13"/>
<polygon fill="none" stroke="#63b8ff" points="175.76,-235.77 181.25,-244.83 182.6,-234.32 175.76,-235.77"/>
</a>
</g>
</g>
</g>
</svg>
