<?xml version="1.0" encoding="UTF-8" standalone="no"?>
<!DOCTYPE svg PUBLIC "-//W3C//DTD SVG 1.1//EN"
 "http://www.w3.org/Graphics/SVG/1.1/DTD/svg11.dtd">
<!-- Generated by graphviz version 2.43.0 (0)
 -->
<!-- Title: XML::bpmn::tDataObject Pages: 1 -->
<svg width="154pt" height="805pt"
 viewBox="0.00 0.00 154.00 805.00" xmlns="http://www.w3.org/2000/svg" xmlns:xlink="http://www.w3.org/1999/xlink">
<g id="graph0" class="graph" transform="scale(1 1) rotate(0) translate(4 801)">
<title>XML::bpmn::tDataObject</title>
<!-- Node1 -->
<g id="node1" class="node">
<title>Node1</title>
<g id="a_node1"><a xlink:title=" ">
<polygon fill="#bfbfbf" stroke="black" points="5,-94.5 5,-184.5 141,-184.5 141,-94.5 5,-94.5"/>
<text text-anchor="middle" x="73" y="-172.5" font-family="Helvetica,sans-Serif" font-size="10.00">XML::bpmn::tDataObject</text>
<polyline fill="none" stroke="black" points="5,-165.5 141,-165.5 "/>
<text text-anchor="start" x="13" y="-153.5" font-family="Helvetica,sans-Serif" font-size="10.00">+ dataState</text>
<text text-anchor="start" x="13" y="-142.5" font-family="Helvetica,sans-Serif" font-size="10.00">+ itemSubjectRef</text>
<text text-anchor="start" x="13" y="-131.5" font-family="Helvetica,sans-Serif" font-size="10.00">+ isCollection</text>
<text text-anchor="start" x="13" y="-120.5" font-family="Helvetica,sans-Serif" font-size="10.00">+ defaults</text>
<polyline fill="none" stroke="black" points="5,-113.5 141,-113.5 "/>
<text text-anchor="start" x="13" y="-101.5" font-family="Helvetica,sans-Serif" font-size="10.00"># tDataObject()</text>
</a>
</g>
</g>
<!-- Node5 -->
<g id="node5" class="node">
<title>Node5</title>
<g id="a_node5"><a xlink:href="classXML_1_1bpmn_1_1dataObject.html" target="_top" xlink:title=" ">
<polygon fill="none" stroke="black" points="7.5,-0.5 7.5,-57.5 138.5,-57.5 138.5,-0.5 7.5,-0.5"/>
<text text-anchor="middle" x="73" y="-45.5" font-family="Helvetica,sans-Serif" font-size="10.00">XML::bpmn::dataObject</text>
<polyline fill="none" stroke="black" points="7.5,-38.5 138.5,-38.5 "/>
<text text-anchor="start" x="15.5" y="-26.5" font-family="Helvetica,sans-Serif" font-size="10.00">+ defaults</text>
<polyline fill="none" stroke="black" points="7.5,-19.5 138.5,-19.5 "/>
<text text-anchor="start" x="15.5" y="-7.5" font-family="Helvetica,sans-Serif" font-size="10.00"># dataObject()</text>
</a>
</g>
</g>
<!-- Node1&#45;&gt;Node5 -->
<g id="edge4" class="edge">
<title>Node1&#45;&gt;Node5</title>
<path fill="none" stroke="midnightblue" d="M73,-84.35C73,-75.07 73,-65.79 73,-57.59"/>
<polygon fill="none" stroke="midnightblue" points="69.5,-84.37 73,-94.37 76.5,-84.37 69.5,-84.37"/>
</g>
<!-- Node2 -->
<g id="node2" class="node">
<title>Node2</title>
<g id="a_node2"><a xlink:href="classXML_1_1bpmn_1_1tFlowElement.html" target="_top" xlink:title=" ">
<polygon fill="none" stroke="black" points="0.5,-221.5 0.5,-322.5 145.5,-322.5 145.5,-221.5 0.5,-221.5"/>
<text text-anchor="middle" x="73" y="-310.5" font-family="Helvetica,sans-Serif" font-size="10.00">XML::bpmn::tFlowElement</text>
<polyline fill="none" stroke="black" points="0.5,-303.5 145.5,-303.5 "/>
<text text-anchor="start" x="8.5" y="-291.5" font-family="Helvetica,sans-Serif" font-size="10.00">+ auditing</text>
<text text-anchor="start" x="8.5" y="-280.5" font-family="Helvetica,sans-Serif" font-size="10.00">+ monitoring</text>
<text text-anchor="start" x="8.5" y="-269.5" font-family="Helvetica,sans-Serif" font-size="10.00">+ categoryValueRef</text>
<text text-anchor="start" x="8.5" y="-258.5" font-family="Helvetica,sans-Serif" font-size="10.00">+ name</text>
<text text-anchor="start" x="8.5" y="-247.5" font-family="Helvetica,sans-Serif" font-size="10.00">+ defaults</text>
<polyline fill="none" stroke="black" points="0.5,-240.5 145.5,-240.5 "/>
<text text-anchor="start" x="8.5" y="-228.5" font-family="Helvetica,sans-Serif" font-size="10.00"># tFlowElement()</text>
</a>
</g>
</g>
<!-- Node2&#45;&gt;Node1 -->
<g id="edge1" class="edge">
<title>Node2&#45;&gt;Node1</title>
<path fill="none" stroke="midnightblue" d="M73,-211.23C73,-202.24 73,-193.1 73,-184.52"/>
<polygon fill="none" stroke="midnightblue" points="69.5,-211.29 73,-221.29 76.5,-211.29 69.5,-211.29"/>
</g>
<!-- Node3 -->
<g id="node3" class="node">
<title>Node3</title>
<g id="a_node3"><a xlink:href="classXML_1_1bpmn_1_1tBaseElement.html" target="_top" xlink:title=" ">
<polygon fill="none" stroke="black" points="0,-359.5 0,-449.5 146,-449.5 146,-359.5 0,-359.5"/>
<text text-anchor="middle" x="73" y="-437.5" font-family="Helvetica,sans-Serif" font-size="10.00">XML::bpmn::tBaseElement</text>
<polyline fill="none" stroke="black" points="0,-430.5 146,-430.5 "/>
<text text-anchor="start" x="8" y="-418.5" font-family="Helvetica,sans-Serif" font-size="10.00">+ documentation</text>
<text text-anchor="start" x="8" y="-407.5" font-family="Helvetica,sans-Serif" font-size="10.00">+ extensionElements</text>
<text text-anchor="start" x="8" y="-396.5" font-family="Helvetica,sans-Serif" font-size="10.00">+ id</text>
<text text-anchor="start" x="8" y="-385.5" font-family="Helvetica,sans-Serif" font-size="10.00">+ defaults</text>
<polyline fill="none" stroke="black" points="0,-378.5 146,-378.5 "/>
<text text-anchor="start" x="8" y="-366.5" font-family="Helvetica,sans-Serif" font-size="10.00"># tBaseElement()</text>
</a>
</g>
</g>
<!-- Node3&#45;&gt;Node2 -->
<g id="edge2" class="edge">
<title>Node3&#45;&gt;Node2</title>
<path fill="none" stroke="midnightblue" d="M73,-349.13C73,-340.31 73,-331.22 73,-322.52"/>
<polygon fill="none" stroke="midnightblue" points="69.5,-349.32 73,-359.32 76.5,-349.32 69.5,-349.32"/>
</g>
<!-- Node4 -->
<g id="node4" class="node">
<title>Node4</title>
<g id="a_node4"><a xlink:href="classXML_1_1XMLObject.html" target="_top" xlink:title="A class representing a node in an XML&#45;tree.">
<polygon fill="none" stroke="black" points="10,-486.5 10,-796.5 136,-796.5 136,-486.5 10,-486.5"/>
<text text-anchor="middle" x="73" y="-784.5" font-family="Helvetica,sans-Serif" font-size="10.00">XML::XMLObject</text>
<polyline fill="none" stroke="black" points="10,-777.5 136,-777.5 "/>
<text text-anchor="start" x="18" y="-765.5" font-family="Helvetica,sans-Serif" font-size="10.00">+ xmlns</text>
<text text-anchor="start" x="18" y="-754.5" font-family="Helvetica,sans-Serif" font-size="10.00">+ className</text>
<text text-anchor="start" x="18" y="-743.5" font-family="Helvetica,sans-Serif" font-size="10.00">+ prefix</text>
<text text-anchor="start" x="18" y="-732.5" font-family="Helvetica,sans-Serif" font-size="10.00">+ elementName</text>
<text text-anchor="start" x="18" y="-721.5" font-family="Helvetica,sans-Serif" font-size="10.00">+ textContent</text>
<text text-anchor="start" x="18" y="-710.5" font-family="Helvetica,sans-Serif" font-size="10.00">+ children</text>
<text text-anchor="start" x="18" y="-699.5" font-family="Helvetica,sans-Serif" font-size="10.00">+ attributes</text>
<text text-anchor="start" x="18" y="-688.5" font-family="Helvetica,sans-Serif" font-size="10.00">+ defaults</text>
<text text-anchor="start" x="18" y="-677.5" font-family="Helvetica,sans-Serif" font-size="10.00"># factory</text>
<polyline fill="none" stroke="black" points="10,-670.5 136,-670.5 "/>
<text text-anchor="start" x="18" y="-658.5" font-family="Helvetica,sans-Serif" font-size="10.00">+ ~XMLObject()</text>
<text text-anchor="start" x="18" y="-647.5" font-family="Helvetica,sans-Serif" font-size="10.00">+ is()</text>
<text text-anchor="start" x="18" y="-636.5" font-family="Helvetica,sans-Serif" font-size="10.00">+ is()</text>
<text text-anchor="start" x="18" y="-625.5" font-family="Helvetica,sans-Serif" font-size="10.00">+ get()</text>
<text text-anchor="start" x="18" y="-614.5" font-family="Helvetica,sans-Serif" font-size="10.00">+ get()</text>
<text text-anchor="start" x="18" y="-603.5" font-family="Helvetica,sans-Serif" font-size="10.00">+ find()</text>
<text text-anchor="start" x="18" y="-592.5" font-family="Helvetica,sans-Serif" font-size="10.00">+ find()</text>
<text text-anchor="start" x="18" y="-581.5" font-family="Helvetica,sans-Serif" font-size="10.00">+ stringify()</text>
<text text-anchor="start" x="18" y="-570.5" font-family="Helvetica,sans-Serif" font-size="10.00">+ getRequiredChild()</text>
<text text-anchor="start" x="18" y="-559.5" font-family="Helvetica,sans-Serif" font-size="10.00">+ getOptionalChild()</text>
<text text-anchor="start" x="18" y="-548.5" font-family="Helvetica,sans-Serif" font-size="10.00">and 6 more...</text>
<text text-anchor="start" x="18" y="-537.5" font-family="Helvetica,sans-Serif" font-size="10.00">+ createFromStream()</text>
<text text-anchor="start" x="18" y="-526.5" font-family="Helvetica,sans-Serif" font-size="10.00">+ createFromString()</text>
<text text-anchor="start" x="18" y="-515.5" font-family="Helvetica,sans-Serif" font-size="10.00">+ createFromFile()</text>
<text text-anchor="start" x="18" y="-504.5" font-family="Helvetica,sans-Serif" font-size="10.00"># XMLObject()</text>
<text text-anchor="start" x="18" y="-493.5" font-family="Helvetica,sans-Serif" font-size="10.00"># createObject()</text>
</a>
</g>
</g>
<!-- Node4&#45;&gt;Node3 -->
<g id="edge3" class="edge">
<title>Node4&#45;&gt;Node3</title>
<path fill="none" stroke="midnightblue" d="M73,-476.35C73,-466.89 73,-457.91 73,-449.72"/>
<polygon fill="none" stroke="midnightblue" points="69.5,-476.37 73,-486.37 76.5,-476.37 69.5,-476.37"/>
</g>
</g>
</svg>
