<?xml version="1.0" encoding="UTF-8" standalone="no"?>
<!DOCTYPE svg PUBLIC "-//W3C//DTD SVG 1.1//EN"
 "http://www.w3.org/Graphics/SVG/1.1/DTD/svg11.dtd">
<!-- Generated by graphviz version 2.43.0 (0)
 -->
<!-- Title: BPMN::LinkSourceEvent Pages: 1 -->
<svg width="141pt" height="767pt"
 viewBox="0.00 0.00 141.00 767.00" xmlns="http://www.w3.org/2000/svg" xmlns:xlink="http://www.w3.org/1999/xlink">
<g id="graph0" class="graph" transform="scale(1 1) rotate(0) translate(4 763)">
<title>BPMN::LinkSourceEvent</title>
<!-- Node1 -->
<g id="node1" class="node">
<title>Node1</title>
<g id="a_node1"><a xlink:title=" ">
<polygon fill="#bfbfbf" stroke="black" points="0,-0.5 0,-68.5 133,-68.5 133,-0.5 0,-0.5"/>
<text text-anchor="middle" x="66.5" y="-56.5" font-family="Helvetica,sans-Serif" font-size="10.00">BPMN::LinkSourceEvent</text>
<polyline fill="none" stroke="black" points="0,-49.5 133,-49.5 "/>
<text text-anchor="start" x="8" y="-37.5" font-family="Helvetica,sans-Serif" font-size="10.00">+ linkName</text>
<text text-anchor="start" x="8" y="-26.5" font-family="Helvetica,sans-Serif" font-size="10.00">+ target</text>
<polyline fill="none" stroke="black" points="0,-19.5 133,-19.5 "/>
<text text-anchor="start" x="8" y="-7.5" font-family="Helvetica,sans-Serif" font-size="10.00">+ LinkSourceEvent()</text>
</a>
</g>
</g>
<!-- Node2 -->
<g id="node2" class="node">
<title>Node2</title>
<g id="a_node2"><a xlink:href="classBPMN_1_1ThrowEvent.html" target="_top" xlink:title=" ">
<polygon fill="none" stroke="black" points="11.5,-105.5 11.5,-162.5 121.5,-162.5 121.5,-105.5 11.5,-105.5"/>
<text text-anchor="middle" x="66.5" y="-150.5" font-family="Helvetica,sans-Serif" font-size="10.00">BPMN::ThrowEvent</text>
<polyline fill="none" stroke="black" points="11.5,-143.5 121.5,-143.5 "/>
<text text-anchor="start" x="19.5" y="-131.5" font-family="Helvetica,sans-Serif" font-size="10.00">+ element</text>
<polyline fill="none" stroke="black" points="11.5,-124.5 121.5,-124.5 "/>
<text text-anchor="start" x="19.5" y="-112.5" font-family="Helvetica,sans-Serif" font-size="10.00">+ ThrowEvent()</text>
</a>
</g>
</g>
<!-- Node2&#45;&gt;Node1 -->
<g id="edge1" class="edge">
<title>Node2&#45;&gt;Node1</title>
<path fill="none" stroke="midnightblue" d="M66.5,-95.06C66.5,-86.39 66.5,-77.24 66.5,-68.79"/>
<polygon fill="none" stroke="midnightblue" points="63,-95.32 66.5,-105.32 70,-95.32 63,-95.32"/>
</g>
<!-- Node3 -->
<g id="node3" class="node">
<title>Node3</title>
<g id="a_node3"><a xlink:href="classBPMN_1_1Event.html" target="_top" xlink:title=" ">
<polygon fill="none" stroke="black" points="26.5,-199.5 26.5,-256.5 106.5,-256.5 106.5,-199.5 26.5,-199.5"/>
<text text-anchor="middle" x="66.5" y="-244.5" font-family="Helvetica,sans-Serif" font-size="10.00">BPMN::Event</text>
<polyline fill="none" stroke="black" points="26.5,-237.5 106.5,-237.5 "/>
<text text-anchor="start" x="34.5" y="-225.5" font-family="Helvetica,sans-Serif" font-size="10.00">+ element</text>
<polyline fill="none" stroke="black" points="26.5,-218.5 106.5,-218.5 "/>
<text text-anchor="start" x="34.5" y="-206.5" font-family="Helvetica,sans-Serif" font-size="10.00">+ Event()</text>
</a>
</g>
</g>
<!-- Node3&#45;&gt;Node2 -->
<g id="edge2" class="edge">
<title>Node3&#45;&gt;Node2</title>
<path fill="none" stroke="midnightblue" d="M66.5,-189.21C66.5,-180.29 66.5,-170.95 66.5,-162.58"/>
<polygon fill="none" stroke="midnightblue" points="63,-189.4 66.5,-199.4 70,-189.4 63,-189.4"/>
</g>
<!-- Node4 -->
<g id="node4" class="node">
<title>Node4</title>
<g id="a_node4"><a xlink:href="classBPMN_1_1FlowNode.html" target="_top" xlink:title="Base class for BPMN elements that may contain incoming and outgoing sequence flows.">
<polygon fill="none" stroke="black" points="16,-293.5 16,-383.5 117,-383.5 117,-293.5 16,-293.5"/>
<text text-anchor="middle" x="66.5" y="-371.5" font-family="Helvetica,sans-Serif" font-size="10.00">BPMN::FlowNode</text>
<polyline fill="none" stroke="black" points="16,-364.5 117,-364.5 "/>
<text text-anchor="start" x="24" y="-352.5" font-family="Helvetica,sans-Serif" font-size="10.00">+ element</text>
<text text-anchor="start" x="24" y="-341.5" font-family="Helvetica,sans-Serif" font-size="10.00">+ name</text>
<text text-anchor="start" x="24" y="-330.5" font-family="Helvetica,sans-Serif" font-size="10.00">+ incoming</text>
<text text-anchor="start" x="24" y="-319.5" font-family="Helvetica,sans-Serif" font-size="10.00">+ outgoing</text>
<polyline fill="none" stroke="black" points="16,-312.5 117,-312.5 "/>
<text text-anchor="start" x="24" y="-300.5" font-family="Helvetica,sans-Serif" font-size="10.00">+ FlowNode()</text>
</a>
</g>
</g>
<!-- Node4&#45;&gt;Node3 -->
<g id="edge3" class="edge">
<title>Node4&#45;&gt;Node3</title>
<path fill="none" stroke="midnightblue" d="M66.5,-283.35C66.5,-274.07 66.5,-264.79 66.5,-256.59"/>
<polygon fill="none" stroke="midnightblue" points="63,-283.37 66.5,-293.37 70,-283.37 63,-283.37"/>
</g>
<!-- Node5 -->
<g id="node5" class="node">
<title>Node5</title>
<g id="a_node5"><a xlink:href="classBPMN_1_1ChildNode.html" target="_top" xlink:title="Base class for BPMN elements within a Scope.">
<polygon fill="none" stroke="black" points="15.5,-420.5 15.5,-477.5 117.5,-477.5 117.5,-420.5 15.5,-420.5"/>
<text text-anchor="middle" x="66.5" y="-465.5" font-family="Helvetica,sans-Serif" font-size="10.00">BPMN::ChildNode</text>
<polyline fill="none" stroke="black" points="15.5,-458.5 117.5,-458.5 "/>
<text text-anchor="start" x="23.5" y="-446.5" font-family="Helvetica,sans-Serif" font-size="10.00">+ parent</text>
<polyline fill="none" stroke="black" points="15.5,-439.5 117.5,-439.5 "/>
<text text-anchor="start" x="23.5" y="-427.5" font-family="Helvetica,sans-Serif" font-size="10.00">+ ChildNode()</text>
</a>
</g>
</g>
<!-- Node5&#45;&gt;Node4 -->
<g id="edge4" class="edge">
<title>Node5&#45;&gt;Node4</title>
<path fill="none" stroke="midnightblue" d="M66.5,-410.21C66.5,-401.61 66.5,-392.39 66.5,-383.55"/>
<polygon fill="none" stroke="midnightblue" points="63,-410.34 66.5,-420.34 70,-410.34 63,-410.34"/>
</g>
<!-- Node6 -->
<g id="node6" class="node">
<title>Node6</title>
<g id="a_node6"><a xlink:href="classBPMN_1_1Node.html" target="_top" xlink:title="Base class for all elements in a BPMN model.">
<polygon fill="none" stroke="black" points="5.5,-514.5 5.5,-758.5 127.5,-758.5 127.5,-514.5 5.5,-514.5"/>
<text text-anchor="middle" x="66.5" y="-746.5" font-family="Helvetica,sans-Serif" font-size="10.00">BPMN::Node</text>
<polyline fill="none" stroke="black" points="5.5,-739.5 127.5,-739.5 "/>
<text text-anchor="start" x="13.5" y="-727.5" font-family="Helvetica,sans-Serif" font-size="10.00">+ id</text>
<text text-anchor="start" x="13.5" y="-716.5" font-family="Helvetica,sans-Serif" font-size="10.00">+ receiving</text>
<text text-anchor="start" x="13.5" y="-705.5" font-family="Helvetica,sans-Serif" font-size="10.00">+ sending</text>
<text text-anchor="start" x="13.5" y="-694.5" font-family="Helvetica,sans-Serif" font-size="10.00">+ element</text>
<text text-anchor="start" x="13.5" y="-683.5" font-family="Helvetica,sans-Serif" font-size="10.00">+ extensionElements</text>
<polyline fill="none" stroke="black" points="5.5,-676.5 127.5,-676.5 "/>
<text text-anchor="start" x="13.5" y="-664.5" font-family="Helvetica,sans-Serif" font-size="10.00">+ Node()</text>
<text text-anchor="start" x="13.5" y="-653.5" font-family="Helvetica,sans-Serif" font-size="10.00">+ ~Node()</text>
<text text-anchor="start" x="13.5" y="-642.5" font-family="Helvetica,sans-Serif" font-size="10.00">+ is()</text>
<text text-anchor="start" x="13.5" y="-631.5" font-family="Helvetica,sans-Serif" font-size="10.00">+ is()</text>
<text text-anchor="start" x="13.5" y="-620.5" font-family="Helvetica,sans-Serif" font-size="10.00">+ get()</text>
<text text-anchor="start" x="13.5" y="-609.5" font-family="Helvetica,sans-Serif" font-size="10.00">+ get()</text>
<text text-anchor="start" x="13.5" y="-598.5" font-family="Helvetica,sans-Serif" font-size="10.00">+ represents()</text>
<text text-anchor="start" x="13.5" y="-587.5" font-family="Helvetica,sans-Serif" font-size="10.00">+ represents()</text>
<text text-anchor="start" x="13.5" y="-576.5" font-family="Helvetica,sans-Serif" font-size="10.00">+ as()</text>
<text text-anchor="start" x="13.5" y="-565.5" font-family="Helvetica,sans-Serif" font-size="10.00">+ as()</text>
<text text-anchor="start" x="13.5" y="-554.5" font-family="Helvetica,sans-Serif" font-size="10.00">+ find()</text>
<text text-anchor="start" x="13.5" y="-543.5" font-family="Helvetica,sans-Serif" font-size="10.00">+ find()</text>
<text text-anchor="start" x="13.5" y="-532.5" font-family="Helvetica,sans-Serif" font-size="10.00">+ find_all()</text>
<text text-anchor="start" x="13.5" y="-521.5" font-family="Helvetica,sans-Serif" font-size="10.00">+ find_all()</text>
</a>
</g>
</g>
<!-- Node6&#45;&gt;Node5 -->
<g id="edge5" class="edge">
<title>Node6&#45;&gt;Node5</title>
<path fill="none" stroke="midnightblue" d="M66.5,-504.34C66.5,-494.53 66.5,-485.42 66.5,-477.57"/>
<polygon fill="none" stroke="midnightblue" points="63,-504.36 66.5,-514.36 70,-504.36 63,-504.36"/>
</g>
</g>
</svg>
