<?xml version="1.0" encoding="UTF-8" standalone="no"?>
<!DOCTYPE svg PUBLIC "-//W3C//DTD SVG 1.1//EN"
 "http://www.w3.org/Graphics/SVG/1.1/DTD/svg11.dtd">
<!-- Generated by graphviz version 2.43.0 (0)
 -->
<!-- Title: XML::bpmn::eventBasedGateway Pages: 1 -->
<svg width="184pt" height="1092pt"
 viewBox="0.00 0.00 184.00 1092.00" xmlns="http://www.w3.org/2000/svg" xmlns:xlink="http://www.w3.org/1999/xlink">
<g id="graph0" class="graph" transform="scale(1 1) rotate(0) translate(4 1088)">
<title>XML::bpmn::eventBasedGateway</title>
<!-- Node1 -->
<g id="Node000001" class="node">
<title>Node1</title>
<g id="a_Node000001"><a xlink:title=" ">
<polygon fill="#999999" stroke="transparent" points="174.5,-49 1.5,-49 1.5,0 174.5,0 174.5,-49"/>
<text text-anchor="start" x="7" y="-36.5" font-family="Helvetica,sans-Serif" font-size="10.00">XML::bpmn::eventBasedGateway</text>
<text text-anchor="start" x="16.5" y="-21.5" font-family="Helvetica,sans-Serif" font-size="10.00">+</text>
<text text-anchor="start" x="40" y="-21.5" font-family="Helvetica,sans-Serif" font-size="10.00">defaults</text>
<text text-anchor="start" x="16.5" y="-6.5" font-family="Helvetica,sans-Serif" font-size="10.00">#</text>
<text text-anchor="start" x="40" y="-6.5" font-family="Helvetica,sans-Serif" font-size="10.00">eventBasedGateway()</text>
<polygon fill="#666666" stroke="#666666" points="2,-31.5 2,-31.5 175,-31.5 175,-31.5 2,-31.5"/>
<polygon fill="#666666" stroke="#666666" points="2,-16.5 2,-16.5 38,-16.5 38,-16.5 2,-16.5"/>
<polygon fill="#666666" stroke="#666666" points="38,-16.5 38,-16.5 175,-16.5 175,-16.5 38,-16.5"/>
<polygon fill="none" stroke="#666666" points="1.5,0 1.5,-49 174.5,-49 174.5,0 1.5,0"/>
</a>
</g>
</g>
<!-- Node2 -->
<g id="Node000002" class="node">
<title>Node2</title>
<g id="a_Node000002"><a xlink:href="classXML_1_1bpmn_1_1tEventBasedGateway.html" target="_top" xlink:title=" ">
<polygon fill="white" stroke="transparent" points="176,-164 0,-164 0,-85 176,-85 176,-164"/>
<text text-anchor="start" x="5" y="-151.5" font-family="Helvetica,sans-Serif" font-size="10.00">XML::bpmn::tEventBasedGateway</text>
<text text-anchor="start" x="14.5" y="-136.5" font-family="Helvetica,sans-Serif" font-size="10.00">+</text>
<text text-anchor="start" x="38" y="-136.5" font-family="Helvetica,sans-Serif" font-size="10.00">instantiate</text>
<text text-anchor="start" x="14.5" y="-121.5" font-family="Helvetica,sans-Serif" font-size="10.00">+</text>
<text text-anchor="start" x="38" y="-121.5" font-family="Helvetica,sans-Serif" font-size="10.00">eventGatewayType</text>
<text text-anchor="start" x="14.5" y="-106.5" font-family="Helvetica,sans-Serif" font-size="10.00">+</text>
<text text-anchor="start" x="38" y="-106.5" font-family="Helvetica,sans-Serif" font-size="10.00">defaults</text>
<text text-anchor="start" x="14.5" y="-91.5" font-family="Helvetica,sans-Serif" font-size="10.00">#</text>
<text text-anchor="start" x="38" y="-91.5" font-family="Helvetica,sans-Serif" font-size="10.00">tEventBasedGateway()</text>
<polygon fill="#666666" stroke="#666666" points="0,-146.5 0,-146.5 176,-146.5 176,-146.5 0,-146.5"/>
<polygon fill="#666666" stroke="#666666" points="0,-101.5 0,-101.5 36,-101.5 36,-101.5 0,-101.5"/>
<polygon fill="#666666" stroke="#666666" points="36,-101.5 36,-101.5 176,-101.5 176,-101.5 36,-101.5"/>
<polygon fill="none" stroke="#666666" points="0,-85 0,-164 176,-164 176,-85 0,-85"/>
</a>
</g>
</g>
<!-- Node2&#45;&gt;Node1 -->
<g id="edge1_Node000001_Node000002" class="edge">
<title>Node2&#45;&gt;Node1</title>
<g id="a_edge1_Node000001_Node000002"><a xlink:title=" ">
<path fill="none" stroke="#63b8ff" d="M88,-74.72C88,-65.75 88,-56.78 88,-49"/>
<polygon fill="none" stroke="#63b8ff" points="84.5,-74.77 88,-84.77 91.5,-74.77 84.5,-74.77"/>
</a>
</g>
</g>
<!-- Node3 -->
<g id="Node000003" class="node">
<title>Node3</title>
<g id="a_Node000003"><a xlink:href="classXML_1_1bpmn_1_1tGateway.html" target="_top" xlink:title=" ">
<polygon fill="white" stroke="transparent" points="147.5,-264 28.5,-264 28.5,-200 147.5,-200 147.5,-264"/>
<text text-anchor="start" x="34" y="-252" font-family="Helvetica,sans-Serif" font-size="10.00">XML::bpmn::tGateway</text>
<text text-anchor="start" x="35.5" y="-237" font-family="Helvetica,sans-Serif" font-size="10.00">+</text>
<text text-anchor="start" x="51" y="-237" font-family="Helvetica,sans-Serif" font-size="10.00">gatewayDirection</text>
<text text-anchor="start" x="35.5" y="-222" font-family="Helvetica,sans-Serif" font-size="10.00">+</text>
<text text-anchor="start" x="51" y="-222" font-family="Helvetica,sans-Serif" font-size="10.00">defaults</text>
<text text-anchor="start" x="35.5" y="-207" font-family="Helvetica,sans-Serif" font-size="10.00">#</text>
<text text-anchor="start" x="51" y="-207" font-family="Helvetica,sans-Serif" font-size="10.00">tGateway()</text>
<polygon fill="#666666" stroke="#666666" points="29,-247 29,-247 148,-247 148,-247 29,-247"/>
<polygon fill="#666666" stroke="#666666" points="29,-217 29,-217 49,-217 49,-217 29,-217"/>
<polygon fill="#666666" stroke="#666666" points="49,-217 49,-217 148,-217 148,-217 49,-217"/>
<polygon fill="none" stroke="#666666" points="28.5,-200 28.5,-264 147.5,-264 147.5,-200 28.5,-200"/>
</a>
</g>
</g>
<!-- Node3&#45;&gt;Node2 -->
<g id="edge2_Node000002_Node000003" class="edge">
<title>Node3&#45;&gt;Node2</title>
<g id="a_edge2_Node000002_Node000003"><a xlink:title=" ">
<path fill="none" stroke="#63b8ff" d="M88,-189.89C88,-181.44 88,-172.58 88,-164.22"/>
<polygon fill="none" stroke="#63b8ff" points="84.5,-189.92 88,-199.92 91.5,-189.92 84.5,-189.92"/>
</a>
</g>
</g>
<!-- Node4 -->
<g id="Node000004" class="node">
<title>Node4</title>
<g id="a_Node000004"><a xlink:href="classXML_1_1bpmn_1_1tFlowNode.html" target="_top" xlink:title=" ">
<polygon fill="white" stroke="transparent" points="150,-379 26,-379 26,-300 150,-300 150,-379"/>
<text text-anchor="start" x="31" y="-366.5" font-family="Helvetica,sans-Serif" font-size="10.00">XML::bpmn::tFlowNode</text>
<text text-anchor="start" x="40.5" y="-351.5" font-family="Helvetica,sans-Serif" font-size="10.00">+</text>
<text text-anchor="start" x="64" y="-351.5" font-family="Helvetica,sans-Serif" font-size="10.00">incoming</text>
<text text-anchor="start" x="40.5" y="-336.5" font-family="Helvetica,sans-Serif" font-size="10.00">+</text>
<text text-anchor="start" x="64" y="-336.5" font-family="Helvetica,sans-Serif" font-size="10.00">outgoing</text>
<text text-anchor="start" x="40.5" y="-321.5" font-family="Helvetica,sans-Serif" font-size="10.00">+</text>
<text text-anchor="start" x="64" y="-321.5" font-family="Helvetica,sans-Serif" font-size="10.00">defaults</text>
<text text-anchor="start" x="40.5" y="-306.5" font-family="Helvetica,sans-Serif" font-size="10.00">#</text>
<text text-anchor="start" x="64" y="-306.5" font-family="Helvetica,sans-Serif" font-size="10.00">tFlowNode()</text>
<polygon fill="#666666" stroke="#666666" points="26,-361.5 26,-361.5 150,-361.5 150,-361.5 26,-361.5"/>
<polygon fill="#666666" stroke="#666666" points="26,-316.5 26,-316.5 62,-316.5 62,-316.5 26,-316.5"/>
<polygon fill="#666666" stroke="#666666" points="62,-316.5 62,-316.5 150,-316.5 150,-316.5 62,-316.5"/>
<polygon fill="none" stroke="#666666" points="26,-300 26,-379 150,-379 150,-300 26,-300"/>
</a>
</g>
</g>
<!-- Node4&#45;&gt;Node3 -->
<g id="edge3_Node000003_Node000004" class="edge">
<title>Node4&#45;&gt;Node3</title>
<g id="a_edge3_Node000003_Node000004"><a xlink:title=" ">
<path fill="none" stroke="#63b8ff" d="M88,-289.71C88,-281 88,-272.14 88,-264.09"/>
<polygon fill="none" stroke="#63b8ff" points="84.5,-289.81 88,-299.81 91.5,-289.81 84.5,-289.81"/>
</a>
</g>
</g>
<!-- Node5 -->
<g id="Node000005" class="node">
<title>Node5</title>
<g id="a_Node000005"><a xlink:href="classXML_1_1bpmn_1_1tFlowElement.html" target="_top" xlink:title=" ">
<polygon fill="white" stroke="transparent" points="157.5,-524 18.5,-524 18.5,-415 157.5,-415 157.5,-524"/>
<text text-anchor="start" x="24" y="-511.5" font-family="Helvetica,sans-Serif" font-size="10.00">XML::bpmn::tFlowElement</text>
<text text-anchor="start" x="30.5" y="-496.5" font-family="Helvetica,sans-Serif" font-size="10.00">+</text>
<text text-anchor="start" x="51" y="-496.5" font-family="Helvetica,sans-Serif" font-size="10.00">auditing</text>
<text text-anchor="start" x="30.5" y="-481.5" font-family="Helvetica,sans-Serif" font-size="10.00">+</text>
<text text-anchor="start" x="51" y="-481.5" font-family="Helvetica,sans-Serif" font-size="10.00">monitoring</text>
<text text-anchor="start" x="30.5" y="-466.5" font-family="Helvetica,sans-Serif" font-size="10.00">+</text>
<text text-anchor="start" x="51" y="-466.5" font-family="Helvetica,sans-Serif" font-size="10.00">categoryValueRef</text>
<text text-anchor="start" x="30.5" y="-451.5" font-family="Helvetica,sans-Serif" font-size="10.00">+</text>
<text text-anchor="start" x="51" y="-451.5" font-family="Helvetica,sans-Serif" font-size="10.00">name</text>
<text text-anchor="start" x="30.5" y="-436.5" font-family="Helvetica,sans-Serif" font-size="10.00">+</text>
<text text-anchor="start" x="51" y="-436.5" font-family="Helvetica,sans-Serif" font-size="10.00">defaults</text>
<text text-anchor="start" x="30.5" y="-421.5" font-family="Helvetica,sans-Serif" font-size="10.00">#</text>
<text text-anchor="start" x="51" y="-421.5" font-family="Helvetica,sans-Serif" font-size="10.00">tFlowElement()</text>
<polygon fill="#666666" stroke="#666666" points="19,-506.5 19,-506.5 158,-506.5 158,-506.5 19,-506.5"/>
<polygon fill="#666666" stroke="#666666" points="19,-431.5 19,-431.5 49,-431.5 49,-431.5 19,-431.5"/>
<polygon fill="#666666" stroke="#666666" points="49,-431.5 49,-431.5 158,-431.5 158,-431.5 49,-431.5"/>
<polygon fill="none" stroke="#666666" points="18.5,-415 18.5,-524 157.5,-524 157.5,-415 18.5,-415"/>
</a>
</g>
</g>
<!-- Node5&#45;&gt;Node4 -->
<g id="edge4_Node000004_Node000005" class="edge">
<title>Node5&#45;&gt;Node4</title>
<g id="a_edge4_Node000004_Node000005"><a xlink:title=" ">
<path fill="none" stroke="#63b8ff" d="M88,-404.7C88,-395.93 88,-387.16 88,-379.03"/>
<polygon fill="none" stroke="#63b8ff" points="84.5,-404.96 88,-414.96 91.5,-404.96 84.5,-404.96"/>
</a>
</g>
</g>
<!-- Node6 -->
<g id="Node000006" class="node">
<title>Node6</title>
<g id="a_Node000006"><a xlink:href="classXML_1_1bpmn_1_1tBaseElement.html" target="_top" xlink:title=" ">
<polygon fill="white" stroke="transparent" points="158,-654 18,-654 18,-560 158,-560 158,-654"/>
<text text-anchor="start" x="23" y="-642" font-family="Helvetica,sans-Serif" font-size="10.00">XML::bpmn::tBaseElement</text>
<text text-anchor="start" x="28" y="-627" font-family="Helvetica,sans-Serif" font-size="10.00">+</text>
<text text-anchor="start" x="47" y="-627" font-family="Helvetica,sans-Serif" font-size="10.00">documentation</text>
<text text-anchor="start" x="28" y="-612" font-family="Helvetica,sans-Serif" font-size="10.00">+</text>
<text text-anchor="start" x="47" y="-612" font-family="Helvetica,sans-Serif" font-size="10.00">extensionElements</text>
<text text-anchor="start" x="28" y="-597" font-family="Helvetica,sans-Serif" font-size="10.00">+</text>
<text text-anchor="start" x="47" y="-597" font-family="Helvetica,sans-Serif" font-size="10.00">id</text>
<text text-anchor="start" x="28" y="-582" font-family="Helvetica,sans-Serif" font-size="10.00">+</text>
<text text-anchor="start" x="47" y="-582" font-family="Helvetica,sans-Serif" font-size="10.00">defaults</text>
<text text-anchor="start" x="28" y="-567" font-family="Helvetica,sans-Serif" font-size="10.00">#</text>
<text text-anchor="start" x="47" y="-567" font-family="Helvetica,sans-Serif" font-size="10.00">tBaseElement()</text>
<polygon fill="#666666" stroke="#666666" points="18,-637 18,-637 158,-637 158,-637 18,-637"/>
<polygon fill="#666666" stroke="#666666" points="18,-577 18,-577 45,-577 45,-577 18,-577"/>
<polygon fill="#666666" stroke="#666666" points="45,-577 45,-577 158,-577 158,-577 45,-577"/>
<polygon fill="none" stroke="#666666" points="18,-560 18,-654 158,-654 158,-560 18,-560"/>
</a>
</g>
</g>
<!-- Node6&#45;&gt;Node5 -->
<g id="edge5_Node000005_Node000006" class="edge">
<title>Node6&#45;&gt;Node5</title>
<g id="a_edge5_Node000005_Node000006"><a xlink:title=" ">
<path fill="none" stroke="#63b8ff" d="M88,-549.58C88,-541.12 88,-532.41 88,-524.01"/>
<polygon fill="none" stroke="#63b8ff" points="84.5,-549.75 88,-559.75 91.5,-549.75 84.5,-549.75"/>
</a>
</g>
</g>
<!-- Node7 -->
<g id="Node000007" class="node">
<title>Node7</title>
<g id="a_Node000007"><a xlink:href="classXML_1_1XMLObject.html" target="_top" xlink:title="A class representing a node in an XML&#45;tree.">
<polygon fill="white" stroke="transparent" points="148,-1084 28,-1084 28,-690 148,-690 148,-1084"/>
<text text-anchor="start" x="48" y="-1072" font-family="Helvetica,sans-Serif" font-size="10.00">XML::XMLObject</text>
<text text-anchor="start" x="32" y="-1057" font-family="Helvetica,sans-Serif" font-size="10.00">+</text>
<text text-anchor="start" x="45" y="-1057" font-family="Helvetica,sans-Serif" font-size="10.00">xmlns</text>
<text text-anchor="start" x="32" y="-1042" font-family="Helvetica,sans-Serif" font-size="10.00">+</text>
<text text-anchor="start" x="45" y="-1042" font-family="Helvetica,sans-Serif" font-size="10.00">className</text>
<text text-anchor="start" x="32" y="-1027" font-family="Helvetica,sans-Serif" font-size="10.00">+</text>
<text text-anchor="start" x="45" y="-1027" font-family="Helvetica,sans-Serif" font-size="10.00">prefix</text>
<text text-anchor="start" x="32" y="-1012" font-family="Helvetica,sans-Serif" font-size="10.00">+</text>
<text text-anchor="start" x="45" y="-1012" font-family="Helvetica,sans-Serif" font-size="10.00">elementName</text>
<text text-anchor="start" x="32" y="-997" font-family="Helvetica,sans-Serif" font-size="10.00">+</text>
<text text-anchor="start" x="45" y="-997" font-family="Helvetica,sans-Serif" font-size="10.00">textContent</text>
<text text-anchor="start" x="32" y="-982" font-family="Helvetica,sans-Serif" font-size="10.00">+</text>
<text text-anchor="start" x="45" y="-982" font-family="Helvetica,sans-Serif" font-size="10.00">children</text>
<text text-anchor="start" x="32" y="-967" font-family="Helvetica,sans-Serif" font-size="10.00">+</text>
<text text-anchor="start" x="45" y="-967" font-family="Helvetica,sans-Serif" font-size="10.00">attributes</text>
<text text-anchor="start" x="32" y="-952" font-family="Helvetica,sans-Serif" font-size="10.00">+</text>
<text text-anchor="start" x="45" y="-952" font-family="Helvetica,sans-Serif" font-size="10.00">defaults</text>
<text text-anchor="start" x="32" y="-937" font-family="Helvetica,sans-Serif" font-size="10.00">#</text>
<text text-anchor="start" x="45" y="-937" font-family="Helvetica,sans-Serif" font-size="10.00">factory</text>
<text text-anchor="start" x="32" y="-922" font-family="Helvetica,sans-Serif" font-size="10.00">+</text>
<text text-anchor="start" x="45" y="-922" font-family="Helvetica,sans-Serif" font-size="10.00">~XMLObject()</text>
<text text-anchor="start" x="32" y="-907" font-family="Helvetica,sans-Serif" font-size="10.00">+</text>
<text text-anchor="start" x="45" y="-907" font-family="Helvetica,sans-Serif" font-size="10.00">is()</text>
<text text-anchor="start" x="32" y="-892" font-family="Helvetica,sans-Serif" font-size="10.00">+</text>
<text text-anchor="start" x="45" y="-892" font-family="Helvetica,sans-Serif" font-size="10.00">is()</text>
<text text-anchor="start" x="32" y="-877" font-family="Helvetica,sans-Serif" font-size="10.00">+</text>
<text text-anchor="start" x="45" y="-877" font-family="Helvetica,sans-Serif" font-size="10.00">get()</text>
<text text-anchor="start" x="32" y="-862" font-family="Helvetica,sans-Serif" font-size="10.00">+</text>
<text text-anchor="start" x="45" y="-862" font-family="Helvetica,sans-Serif" font-size="10.00">get()</text>
<text text-anchor="start" x="32" y="-847" font-family="Helvetica,sans-Serif" font-size="10.00">+</text>
<text text-anchor="start" x="45" y="-847" font-family="Helvetica,sans-Serif" font-size="10.00">find()</text>
<text text-anchor="start" x="32" y="-832" font-family="Helvetica,sans-Serif" font-size="10.00">+</text>
<text text-anchor="start" x="45" y="-832" font-family="Helvetica,sans-Serif" font-size="10.00">find()</text>
<text text-anchor="start" x="32" y="-817" font-family="Helvetica,sans-Serif" font-size="10.00">+</text>
<text text-anchor="start" x="45" y="-817" font-family="Helvetica,sans-Serif" font-size="10.00">stringify()</text>
<text text-anchor="start" x="32" y="-802" font-family="Helvetica,sans-Serif" font-size="10.00">+</text>
<text text-anchor="start" x="45" y="-802" font-family="Helvetica,sans-Serif" font-size="10.00">format()</text>
<text text-anchor="start" x="32" y="-787" font-family="Helvetica,sans-Serif" font-size="10.00">+</text>
<text text-anchor="start" x="45" y="-787" font-family="Helvetica,sans-Serif" font-size="10.00">getRequiredChild()</text>
<text text-anchor="start" x="45" y="-772" font-family="Helvetica,sans-Serif" font-size="10.00">and 7 more...</text>
<text text-anchor="start" x="32" y="-757" font-family="Helvetica,sans-Serif" font-size="10.00">+</text>
<text text-anchor="start" x="45" y="-757" font-family="Helvetica,sans-Serif" font-size="10.00">createFromStream()</text>
<text text-anchor="start" x="32" y="-742" font-family="Helvetica,sans-Serif" font-size="10.00">+</text>
<text text-anchor="start" x="45" y="-742" font-family="Helvetica,sans-Serif" font-size="10.00">createFromString()</text>
<text text-anchor="start" x="32" y="-727" font-family="Helvetica,sans-Serif" font-size="10.00">+</text>
<text text-anchor="start" x="45" y="-727" font-family="Helvetica,sans-Serif" font-size="10.00">createFromFile()</text>
<text text-anchor="start" x="32" y="-712" font-family="Helvetica,sans-Serif" font-size="10.00">#</text>
<text text-anchor="start" x="45" y="-712" font-family="Helvetica,sans-Serif" font-size="10.00">XMLObject()</text>
<text text-anchor="start" x="32" y="-697" font-family="Helvetica,sans-Serif" font-size="10.00">#</text>
<text text-anchor="start" x="45" y="-697" font-family="Helvetica,sans-Serif" font-size="10.00">createObject()</text>
<polygon fill="#666666" stroke="#666666" points="28,-1067 28,-1067 148,-1067 148,-1067 28,-1067"/>
<polygon fill="#666666" stroke="#666666" points="28,-932 28,-932 43,-932 43,-932 28,-932"/>
<polygon fill="#666666" stroke="#666666" points="43,-932 43,-932 148,-932 148,-932 43,-932"/>
<polygon fill="none" stroke="#666666" points="28,-690 28,-1084 148,-1084 148,-690 28,-690"/>
</a>
</g>
</g>
<!-- Node7&#45;&gt;Node6 -->
<g id="edge6_Node000006_Node000007" class="edge">
<title>Node7&#45;&gt;Node6</title>
<g id="a_edge6_Node000006_Node000007"><a xlink:title=" ">
<path fill="none" stroke="#63b8ff" d="M88,-679.78C88,-670.62 88,-661.97 88,-654.06"/>
<polygon fill="none" stroke="#63b8ff" points="84.5,-679.91 88,-689.91 91.5,-679.91 84.5,-679.91"/>
</a>
</g>
</g>
</g>
</svg>
